P2
80 60
30
15 23 14 17 16 15 16 14 19 17 17 15 16 19 16 17 17 15 17 13 18 16 15 15 18 17 16 18 20 18 15 19 20 18 19 19 18 16 16 21 18 18 20 14 18 19 16 17 19 17 20 15 14 18 17 20 19 19 19 17 12 14 18 14 13 9 4 7 10 9 10 10 9 11 13 9 13 6 5 5 
15 18 17 13 17 18 14 15 18 18 17 18 15 15 23 12 16 17 17 14 13 16 14 16 17 17 19 18 16 20 17 19 20 19 19 20 18 17 15 18 19 16 19 15 15 16 17 17 18 17 19 15 17 22 17 23 22 18 19 17 15 13 12 13 12 9 7 8 7 8 9 7 9 11 10 12 8 9 10 5 
13 21 17 14 17 16 16 16 20 18 18 17 17 16 16 17 15 15 16 15 17 17 16 17 15 16 16 16 16 20 19 21 19 19 21 19 18 18 18 18 19 18 17 13 16 14 14 11 17 17 19 16 18 19 19 20 18 18 16 13 18 12 13 13 8 7 8 8 8 8 9 8 8 10 7 9 14 5 8 8 
13 18 19 17 18 17 19 16 17 20 22 18 18 19 15 16 18 15 15 15 15 20 14 18 14 17 16 21 18 19 16 18 20 18 16 19 20 16 18 17 18 15 19 16 14 18 19 16 18 18 18 15 13 19 15 16 18 15 17 15 17 17 13 16 10 9 10 8 14 8 10 12 9 11 9 10 8 9 12 10 
19 17 18 17 18 17 19 17 19 21 19 14 15 17 15 17 18 16 18 15 17 16 17 12 15 19 21 18 19 22 18 15 17 16 17 20 15 18 21 19 17 18 21 17 17 16 20 15 18 19 20 16 18 16 17 19 18 14 16 20 17 11 15 18 15 11 11 9 11 9 9 12 10 10 11 7 10 5 11 8 
18 20 15 21 20 21 19 20 23 18 18 17 19 16 18 17 16 20 16 17 16 19 16 18 17 16 20 22 19 16 15 16 17 19 18 19 20 19 19 20 18 22 23 16 18 19 24 19 19 18 20 21 22 19 18 23 20 18 18 18 18 18 16 11 13 8 9 14 14 9 17 12 5 10 8 8 10 11 6 7 
18 19 20 16 18 23 21 19 21 21 16 18 16 18 17 18 22 19 19 21 17 19 19 18 14 18 21 19 19 18 17 18 15 19 19 22 19 20 18 21 20 18 20 16 16 18 16 15 18 14 19 22 19 18 16 20 21 20 21 18 18 16 14 12 14 11 9 11 12 12 12 9 6 10 8 13 9 7 8 8 
21 21 22 17 16 23 20 15 20 19 18 17 17 18 17 18 19 17 16 18 22 20 19 15 16 23 17 18 18 19 18 16 17 17 20 23 20 19 21 20 21 18 17 17 15 18 16 16 18 16 20 19 20 18 15 22 18 16 19 19 16 13 17 13 14 13 11 12 12 6 10 10 9 12 13 9 10 4 8 4 
20 23 21 18 15 22 19 18 20 21 15 15 17 17 15 14 17 17 17 19 22 17 21 18 18 17 15 18 20 17 18 16 15 20 21 18 18 16 18 18 16 17 15 17 14 16 15 15 20 15 17 15 17 25 19 19 17 15 16 16 18 13 12 12 16 12 12 10 13 8 9 9 5 10 8 8 6 8 8 6 
24 23 21 21 21 20 22 21 21 20 18 17 14 17 17 16 20 18 16 17 19 19 19 19 19 19 15 17 17 19 16 15 20 17 17 17 16 19 15 18 15 15 16 15 13 17 15 14 18 15 18 18 18 19 18 20 16 13 19 18 13 14 15 13 13 12 12 10 12 11 10 9 8 10 5 10 9 5 7 3 
21 27 27 23 21 25 27 18 22 20 19 19 16 15 17 14 19 12 14 13 17 18 20 20 18 15 17 18 21 17 18 18 19 17 18 18 17 17 18 19 17 16 14 15 12 15 14 10 18 18 17 14 16 19 17 22 17 12 15 13 18 12 14 13 15 11 12 8 6 8 8 7 9 8 7 8 8 9 11 3 
24 25 24 21 23 26 23 22 20 20 19 18 16 17 13 14 20 17 13 13 18 17 19 18 20 16 15 16 17 16 18 15 17 20 16 15 18 18 16 21 19 16 16 11 15 16 12 14 14 14 15 15 17 16 17 22 17 15 17 17 15 16 13 13 17 12 12 8 8 7 7 6 8 9 6 15 8 8 8 6 
22 25 22 23 22 22 22 19 20 20 21 19 15 17 12 16 17 17 15 15 17 18 16 16 17 14 14 21 18 18 17 17 18 15 19 16 16 16 22 18 20 16 19 14 16 15 17 15 16 16 20 15 13 13 17 28 20 18 15 19 16 15 18 15 14 11 10 10 9 6 0 8 7 11 7 9 4 9 8 8 
19 23 23 22 20 21 21 17 19 16 16 17 17 17 16 17 16 18 17 15 15 16 14 15 14 14 15 18 17 21 19 19 21 18 17 14 16 20 14 18 13 18 19 17 17 20 18 18 15 18 19 17 15 15 17 19 18 16 20 16 14 15 12 13 12 12 11 12 11 8 9 8 8 8 10 10 9 9 13 9 
21 27 21 22 20 23 16 20 20 18 14 18 19 16 15 13 14 15 16 12 13 15 17 21 17 14 13 20 18 22 21 20 19 19 19 17 19 18 17 16 19 21 20 17 19 14 14 14 17 17 15 14 13 20 15 22 22 22 23 17 15 15 15 11 15 10 10 12 4 11 9 10 5 7 6 6 8 8 13 8 
21 22 23 21 19 21 18 20 22 17 15 18 18 17 14 18 16 14 16 14 14 16 19 20 18 18 14 16 18 19 18 20 17 17 15 19 17 12 22 20 21 19 16 16 19 16 17 16 17 17 16 16 17 18 18 23 21 20 18 20 16 15 14 16 13 14 13 8 15 9 9 11 11 7 6 9 11 8 8 6 
20 27 22 22 19 19 18 17 19 16 14 18 18 15 14 18 16 15 12 14 15 11 13 16 18 15 13 17 17 19 17 18 18 19 16 16 16 16 17 18 18 18 15 14 13 20 17 15 16 15 17 15 16 18 22 23 21 21 21 14 13 16 16 16 14 11 8 11 12 11 12 14 10 10 7 6 9 8 15 6 
22 23 23 21 19 21 17 17 16 16 16 17 16 17 15 14 15 10 12 15 16 13 15 15 16 12 17 15 16 15 16 15 16 15 16 15 18 14 15 18 16 15 16 14 13 14 16 15 15 15 16 13 15 19 20 23 19 22 18 18 15 11 13 14 12 10 9 9 11 10 13 11 11 10 6 11 9 9 11 4 
23 23 23 22 22 21 21 16 18 16 16 18 16 18 14 13 18 15 15 16 17 17 17 21 16 14 13 18 19 17 16 19 21 19 23 19 18 17 17 19 15 18 16 16 16 15 16 14 16 17 14 15 20 19 18 20 18 14 18 13 17 13 11 14 13 13 10 11 11 10 10 9 11 9 6 7 7 8 15 8 
21 23 22 20 21 24 22 15 19 18 20 16 18 18 18 15 18 17 16 17 19 20 21 21 15 16 20 18 18 19 16 18 20 18 18 15 20 18 16 21 21 18 17 13 13 12 13 15 17 16 16 15 16 18 16 20 20 16 17 15 15 11 11 13 15 10 13 12 14 12 12 11 12 11 5 6 6 9 10 8 
22 26 26 22 20 22 18 17 17 20 17 17 16 19 16 12 16 19 21 18 18 20 19 18 18 15 16 18 20 24 30 18 18 16 19 16 17 18 18 20 19 20 19 13 15 17 11 14 16 14 14 15 23 19 18 21 18 15 17 15 15 13 12 12 12 9 12 12 15 13 15 10 13 9 8 8 9 13 17 5 
21 24 23 18 19 20 19 14 17 18 20 18 20 14 16 13 13 13 14 17 16 16 17 18 14 19 18 15 15 20 23 18 18 17 15 18 17 16 16 18 17 18 13 11 13 12 13 11 13 14 17 14 20 19 17 18 18 16 17 15 14 15 13 14 14 15 15 12 10 12 10 11 9 10 6 6 9 7 11 7 
22 23 20 21 19 21 17 18 21 19 17 17 17 19 13 14 15 14 17 19 18 16 16 18 19 19 16 17 15 18 17 17 19 18 13 17 18 17 17 19 17 16 14 10 12 12 13 11 12 19 16 15 16 16 16 16 17 16 18 16 18 13 15 16 16 14 13 10 15 11 9 13 13 11 9 9 5 8 10 7 
19 21 22 19 21 16 21 24 19 15 18 20 14 17 15 16 16 15 16 14 15 16 16 15 16 18 16 19 17 15 16 16 18 16 15 16 16 14 14 19 16 15 15 12 10 13 15 13 16 18 18 14 16 16 13 18 16 15 16 14 14 14 15 15 14 15 16 13 10 11 13 10 11 12 11 7 3 7 15 10 
17 22 23 19 20 17 17 20 22 19 16 16 16 16 12 15 14 13 16 16 18 17 16 19 17 17 11 15 17 16 12 17 14 14 17 13 14 16 13 15 14 15 15 14 16 16 14 13 16 12 15 13 14 14 16 15 15 15 14 16 16 13 14 12 14 12 15 12 12 11 12 12 11 14 7 10 8 10 11 5 
19 21 24 20 20 21 21 17 21 17 16 21 15 16 18 17 15 16 16 14 15 19 16 17 16 13 14 16 17 17 14 14 17 15 13 14 15 13 14 17 15 16 15 14 10 18 13 14 15 11 15 13 14 16 13 18 13 12 15 16 16 14 13 15 10 11 13 13 8 9 12 9 11 13 8 7 9 10 17 7 
18 22 24 19 20 20 21 16 20 21 17 17 16 15 15 13 15 17 14 14 18 18 19 22 18 17 16 17 14 18 15 12 19 14 16 14 14 13 14 14 17 14 15 15 14 16 13 10 13 14 14 14 17 12 12 17 15 12 14 14 14 11 12 15 13 12 14 12 12 11 10 11 12 13 8 11 8 10 9 9 
21 22 19 21 18 23 21 17 20 17 18 19 15 16 12 13 15 17 15 14 12 18 16 17 17 17 15 19 20 17 17 14 14 16 13 14 17 15 14 15 17 15 18 17 11 11 12 11 14 13 15 14 16 14 14 17 14 11 12 13 12 12 13 12 10 10 8 9 9 13 11 12 10 11 7 11 9 8 11 8 
19 22 17 22 20 24 17 20 19 21 15 16 16 16 14 14 15 16 15 16 15 17 17 17 17 18 17 17 18 18 17 15 13 16 16 15 15 13 15 16 15 14 19 15 14 13 15 13 14 15 15 14 17 13 15 15 15 12 14 14 14 13 13 14 10 12 10 10 9 13 10 9 9 10 9 11 8 8 7 10 
19 23 22 21 19 20 18 15 20 22 15 16 14 14 14 14 14 12 14 14 14 16 15 16 19 18 17 16 17 17 16 15 17 15 15 18 16 16 13 17 16 16 17 15 12 13 15 10 12 13 15 13 18 14 14 11 13 13 13 12 15 14 15 14 15 14 17 15 11 11 13 9 10 10 9 15 9 5 9 4 
21 23 23 21 19 20 17 18 20 19 17 17 15 17 18 19 18 10 13 16 15 15 18 14 17 18 17 17 15 20 16 15 15 16 18 16 18 15 16 19 16 14 18 17 14 21 13 12 18 14 14 16 13 14 16 17 17 12 15 15 12 11 13 13 14 11 15 12 12 11 14 12 11 9 8 7 8 8 5 4 
21 25 21 20 25 19 19 15 14 17 18 15 12 15 13 18 17 15 13 17 16 15 17 16 17 18 20 18 17 16 15 14 15 16 15 13 14 15 16 16 20 17 17 16 16 14 11 12 15 18 16 16 14 17 14 14 15 11 12 12 12 10 15 14 15 12 11 11 11 13 10 10 10 7 7 8 6 9 8 11 
15 23 21 19 21 19 18 18 19 14 16 15 16 17 14 16 18 18 18 15 15 14 20 19 18 18 19 19 21 19 16 14 16 15 12 15 13 14 15 20 17 17 20 18 14 13 10 12 14 15 17 16 15 18 15 16 15 13 15 11 14 11 16 13 15 13 12 10 15 12 11 12 10 8 8 9 10 8 8 7 
19 20 19 15 21 21 17 15 17 18 15 16 15 15 12 15 18 16 18 15 17 11 18 19 18 20 17 15 17 20 17 13 15 18 15 13 13 16 14 15 15 17 19 16 15 13 13 12 13 13 15 14 16 15 13 16 13 14 14 15 14 14 14 13 15 14 14 14 12 11 10 10 11 12 10 11 12 11 7 6 
19 21 17 19 18 19 18 15 14 16 15 16 17 12 14 12 18 16 17 16 15 16 17 16 21 17 18 18 17 18 15 15 16 15 17 12 16 16 13 13 14 17 18 15 14 18 13 13 14 14 12 16 13 15 15 15 16 14 13 9 13 12 12 16 15 14 12 12 13 9 11 10 10 10 9 11 13 10 12 9 
19 20 19 21 21 20 18 19 22 17 15 13 18 17 17 15 20 15 15 18 18 14 17 18 16 18 17 15 16 20 15 16 18 19 18 14 17 15 13 18 15 15 15 12 16 14 15 16 14 15 15 17 16 17 16 19 17 16 15 16 12 12 13 15 13 14 11 12 15 12 11 13 10 13 10 10 12 9 13 9 
16 20 20 22 20 23 23 16 17 16 15 13 15 17 13 14 18 19 14 15 18 17 14 17 15 16 15 18 18 17 16 17 15 19 15 17 16 16 13 20 18 12 14 15 13 15 13 14 15 16 13 16 15 12 17 18 18 15 15 18 14 12 13 12 15 16 14 9 10 10 13 9 8 11 10 10 9 10 17 5 
16 24 20 20 21 19 20 18 18 17 17 15 20 14 18 12 14 22 15 17 19 20 19 16 16 13 14 14 20 19 19 14 18 17 15 16 14 14 14 18 14 15 18 16 14 16 13 13 15 13 17 16 16 13 16 19 18 13 14 12 15 10 12 14 16 16 13 16 13 11 11 12 9 12 8 12 10 9 16 7 
17 24 24 21 25 20 20 16 19 16 20 18 16 16 14 13 16 17 15 17 16 18 18 19 14 15 16 15 18 15 15 15 14 19 17 17 17 15 17 18 19 17 18 13 14 17 14 14 16 14 16 15 19 19 15 18 18 14 15 15 14 12 16 12 12 13 15 11 10 11 11 15 11 9 12 9 13 12 15 8 
16 19 20 19 21 20 17 18 20 17 18 19 13 19 13 19 15 16 17 18 19 17 16 18 15 19 15 17 17 17 14 15 17 15 16 17 16 14 17 19 18 14 17 14 12 15 14 15 16 16 20 16 22 17 18 18 17 14 15 15 12 10 11 14 12 13 12 10 11 11 11 12 8 13 6 11 13 10 15 11 
14 24 20 21 17 22 14 16 20 15 13 16 16 19 15 17 16 15 17 15 18 16 16 18 17 16 23 16 20 17 15 14 18 19 15 19 15 15 15 21 18 13 16 15 15 14 15 13 17 18 20 20 24 22 16 18 14 14 14 16 14 12 11 10 14 11 9 10 6 10 11 12 6 10 9 13 14 13 19 14 
15 24 25 19 21 18 16 15 18 16 16 18 16 15 12 13 18 17 11 15 18 16 16 19 17 20 16 17 18 16 17 17 18 20 20 17 21 18 17 16 20 17 14 13 14 17 14 15 17 15 17 19 21 17 15 18 18 16 12 11 14 11 13 14 14 12 9 9 12 11 11 10 9 11 10 12 13 13 13 16 
21 27 24 19 18 19 16 15 19 15 17 16 17 17 15 15 20 14 15 14 18 16 14 19 16 17 16 14 17 18 14 17 19 17 18 20 17 16 14 19 21 17 16 16 15 17 16 16 20 17 21 18 19 18 15 18 16 12 14 12 12 12 14 19 17 14 11 10 9 7 11 13 7 9 9 8 11 12 14 8 
19 20 19 19 18 20 19 15 20 14 13 19 17 17 17 13 12 17 19 18 21 17 18 17 17 16 17 14 16 17 17 15 17 17 16 16 16 16 15 17 18 19 15 14 15 19 15 24 20 18 18 14 17 19 16 17 18 13 13 13 14 15 14 12 14 12 10 10 10 9 10 12 8 12 9 12 13 9 15 8 
22 21 21 16 20 18 18 13 18 14 14 18 18 19 15 11 16 13 15 17 22 16 19 17 17 17 15 14 14 15 14 15 15 16 15 20 15 15 14 15 19 15 16 12 16 19 19 17 18 18 17 16 20 15 15 16 15 14 11 14 13 14 12 14 14 12 10 14 14 8 11 12 9 16 7 12 14 8 14 7 
17 20 17 18 20 19 17 14 19 16 14 17 15 17 18 18 19 16 15 15 21 17 19 17 17 16 13 14 14 16 16 17 16 15 16 19 17 14 15 19 16 17 15 14 17 20 16 17 16 16 19 16 19 18 16 17 13 13 11 13 15 14 12 15 12 15 12 14 14 12 13 11 8 12 12 11 11 9 13 5 
15 20 19 14 15 18 15 17 19 15 14 15 14 17 16 15 15 17 13 14 21 19 18 17 17 15 20 14 14 16 14 15 17 17 16 17 12 13 15 18 19 14 14 15 16 21 13 15 16 17 13 16 21 16 14 16 13 12 10 11 11 13 14 12 13 10 12 17 7 12 12 9 7 10 10 7 11 6 6 6 
15 21 15 16 15 18 16 16 17 13 13 13 14 15 17 18 19 17 15 17 19 20 18 18 17 15 14 17 18 18 15 14 16 17 16 16 12 16 15 18 17 17 12 13 16 15 18 14 16 15 16 14 16 14 13 13 13 13 15 13 14 14 14 10 14 9 9 11 11 10 12 12 10 13 6 7 9 5 5 7 
19 22 14 15 17 20 18 18 15 14 12 16 13 17 17 19 20 16 19 18 17 18 23 18 16 15 15 16 17 17 15 15 17 16 15 14 16 15 13 23 16 15 14 15 17 18 13 14 15 14 16 15 15 20 13 19 15 14 15 15 11 12 13 11 12 10 11 13 11 9 11 9 10 12 7 8 9 3 13 1 
21 20 18 18 16 19 16 15 16 14 14 15 16 15 16 16 19 15 22 19 19 18 19 19 16 14 17 15 19 17 13 15 14 14 16 13 16 11 14 17 15 14 14 12 17 20 14 9 10 12 16 14 17 19 19 16 17 13 14 14 15 14 13 17 13 13 11 12 11 8 10 12 9 12 6 8 9 8 11 7 
16 20 18 16 19 17 16 14 20 15 15 13 15 16 18 16 16 21 19 20 18 16 15 16 17 17 16 17 20 21 12 16 16 18 14 12 16 16 18 14 13 15 15 15 14 11 12 12 11 13 13 17 18 20 17 19 15 14 14 15 16 17 15 14 15 12 12 9 12 8 13 11 7 12 9 10 11 7 5 11 
18 20 17 17 20 20 14 12 15 14 14 14 12 14 14 17 16 15 18 18 20 16 13 14 15 17 15 15 17 11 14 16 12 14 18 13 18 12 14 14 15 14 16 14 12 14 12 12 13 14 15 15 14 20 15 20 21 14 14 15 13 14 13 11 13 8 7 15 10 9 12 11 7 11 5 8 7 7 9 6 
18 17 18 20 18 19 15 15 16 16 15 16 12 13 14 10 17 8 17 16 13 17 14 12 13 16 15 20 15 21 12 15 16 15 13 14 12 13 13 15 15 12 12 11 13 11 14 13 16 16 14 16 18 17 16 20 17 13 21 16 11 10 11 10 12 11 12 14 11 10 11 10 10 6 5 7 11 7 4 5 
12 17 20 19 23 19 14 13 15 19 15 12 12 14 11 12 16 14 15 14 12 16 12 15 16 15 16 15 19 16 16 13 16 15 12 12 11 10 14 16 16 10 11 10 12 12 15 11 14 14 18 12 14 18 14 21 20 15 17 13 13 15 12 11 12 10 10 9 9 12 9 12 8 9 8 10 8 10 8 3 
14 17 18 16 15 17 16 16 18 15 15 15 16 17 14 13 12 15 16 15 17 12 12 15 13 16 18 15 16 14 14 13 14 14 13 14 13 12 10 15 17 13 13 10 13 13 11 13 12 15 16 12 15 16 17 17 16 15 15 14 14 10 8 11 17 11 9 8 10 9 13 10 7 10 9 8 10 11 9 6 
12 11 17 15 16 15 15 13 17 18 11 15 17 17 14 12 10 15 16 15 15 13 13 14 14 12 16 17 17 12 12 12 12 13 14 16 10 11 10 14 14 10 12 11 11 13 12 11 15 14 12 12 21 16 17 18 13 14 13 13 10 14 8 11 13 9 8 8 9 12 15 10 8 11 7 7 9 6 10 8 
11 14 14 13 12 15 16 14 16 15 12 17 21 18 15 13 15 15 16 17 14 13 15 18 13 16 14 14 15 14 11 12 13 13 15 14 10 11 12 16 16 13 13 8 13 11 14 12 17 11 13 14 15 18 13 18 19 13 15 14 11 13 14 11 13 10 8 11 9 7 11 4 6 10 9 10 8 12 12 7 
15 19 15 11 15 15 15 12 18 15 14 17 17 16 13 12 16 11 17 17 15 12 17 16 11 11 15 15 10 13 11 14 12 13 11 10 13 13 11 14 14 13 15 12 14 14 11 24 13 15 14 14 15 17 16 17 15 12 14 12 13 12 13 11 13 10 7 9 11 10 9 10 7 9 8 9 7 8 6 5 
12 16 16 15 11 12 17 13 16 14 15 16 15 14 15 12 16 12 13 17 17 17 18 16 16 14 14 14 16 13 14 13 12 17 11 13 14 13 14 13 13 14 16 13 14 11 11 12 17 15 17 17 13 16 16 19 13 12 14 15 11 11 8 12 13 12 11 10 10 7 11 9 9 10 10 9 8 7 9 6 
10 15 14 11 15 12 13 11 14 11 12 14 12 14 12 12 14 14 16 12 12 15 15 18 14 17 11 16 12 15 12 13 10 14 15 11 16 13 13 12 14 15 16 14 12 14 11 14 18 15 15 15 19 20 23 18 18 16 15 13 11 11 10 8 11 11 7 11 11 10 10 10 9 10 8 9 7 6 5 4 


