P2
80 60
170
161 156 144 131 123 119 112 100 40 5 6 14 8 12 20 34 41 44 56 65 68 83 78 93 92 98 103 103 104 110 113 112 118 119 120 122 123 123 120 123 124 127 126 124 129 128 128 133 132 135 137 134 135 137 139 140 137 139 139 136 139 139 137 135 129 130 119 122 113 104 108 130 133 133 139 140 139 135 125 123 
160 155 144 136 126 121 111 94 37 7 7 11 10 10 17 33 42 48 57 67 72 80 83 93 93 91 100 100 101 105 112 115 114 120 122 126 125 124 126 118 125 125 122 126 127 129 130 131 133 137 136 134 137 136 139 141 143 140 139 138 139 137 136 134 128 127 124 122 114 106 113 127 134 133 138 133 134 131 128 127 
167 152 137 130 124 120 117 98 43 10 15 8 11 13 13 28 40 47 57 68 77 82 77 90 91 94 99 100 95 111 109 116 120 125 128 127 126 125 122 120 123 128 124 123 123 124 128 132 131 134 134 133 133 136 133 140 139 138 134 137 136 136 133 133 127 125 122 121 113 107 113 127 132 136 133 130 132 125 126 128 
163 154 139 133 119 118 114 98 46 7 16 10 12 9 14 27 38 47 53 67 66 81 78 87 89 89 94 99 97 106 111 121 125 125 128 132 127 127 124 121 119 122 119 123 125 120 124 130 134 130 134 132 133 136 134 135 136 136 138 136 142 139 134 134 124 126 121 122 114 103 106 125 134 130 132 130 134 124 128 120 
161 154 138 129 128 123 115 102 46 5 12 10 6 13 16 29 41 45 51 65 70 78 76 83 90 91 96 98 94 100 117 126 130 131 138 141 138 130 126 123 121 124 124 120 125 125 124 133 131 129 134 134 133 134 131 138 137 137 140 137 136 138 135 139 126 128 120 123 113 110 113 130 132 131 135 129 134 123 123 124 
163 153 138 132 128 122 117 107 45 7 15 8 14 15 17 32 42 40 48 67 72 78 86 94 91 89 95 94 91 99 117 128 132 135 143 139 143 134 125 121 122 124 126 124 128 126 129 128 134 133 136 135 130 134 134 142 138 139 136 140 140 137 139 135 130 128 125 126 119 109 116 129 135 133 136 134 134 124 118 128 
161 153 132 127 122 124 121 100 45 6 18 9 12 14 20 33 41 41 49 57 66 77 80 87 92 90 95 96 94 100 117 118 128 131 131 127 139 134 125 123 122 123 120 126 125 124 127 129 133 130 134 134 133 132 134 139 136 141 144 138 140 136 132 135 129 126 122 121 113 109 112 128 130 131 136 135 135 128 129 125 
168 152 135 127 123 126 117 104 41 6 12 7 11 17 18 29 37 43 39 55 64 77 77 83 90 89 94 94 94 95 109 109 115 122 130 130 130 127 121 120 119 118 121 124 124 125 129 127 129 128 133 134 132 133 133 137 137 138 139 137 137 136 132 134 128 129 121 122 109 106 116 130 125 131 135 131 137 127 123 122 
160 151 135 126 125 123 121 104 44 9 12 14 9 11 18 29 37 40 43 51 58 76 77 92 91 89 93 92 91 97 107 106 114 126 129 129 129 122 117 111 118 117 115 121 120 121 127 125 128 129 132 131 129 134 131 133 137 136 136 139 137 138 130 132 122 134 115 114 107 100 107 126 130 130 132 133 132 125 125 124 
162 156 131 128 128 127 123 112 48 1 15 16 13 9 19 33 43 42 45 45 57 74 77 87 88 91 88 96 90 96 101 114 123 129 133 130 127 119 119 116 120 118 118 118 123 124 123 126 129 127 130 130 129 130 136 134 131 132 132 135 135 135 135 132 124 128 118 120 112 102 109 127 133 131 134 129 133 126 123 126 
170 151 131 127 126 128 126 113 48 10 16 17 10 11 20 29 34 43 44 51 54 70 77 84 87 89 93 94 89 94 103 113 127 128 133 129 121 117 112 114 120 118 119 121 120 123 124 123 128 128 131 128 128 130 132 135 132 135 135 137 134 137 131 129 125 123 125 122 113 106 114 127 132 135 138 132 132 129 127 127 
162 149 130 129 125 128 124 108 49 3 16 14 10 9 20 26 28 36 39 45 54 70 75 87 83 89 90 90 91 97 97 116 127 131 131 129 119 121 112 113 118 118 115 120 123 122 125 124 127 128 128 125 125 129 131 133 133 136 135 136 136 139 137 133 124 127 123 119 108 100 111 124 132 132 134 138 136 126 131 125 
156 150 124 129 125 124 126 106 50 8 14 13 9 10 15 26 33 32 37 50 60 73 71 87 87 89 91 92 94 98 110 120 124 129 128 131 125 118 116 116 116 119 119 116 128 124 129 125 125 127 131 125 127 127 132 132 134 136 137 135 133 132 137 133 126 126 116 118 106 101 98 125 127 129 135 134 140 127 132 125 
163 150 130 130 125 128 120 104 51 8 16 7 8 7 15 25 26 31 37 48 54 69 80 85 90 88 95 100 104 106 112 119 124 128 127 128 126 125 124 122 122 125 118 118 123 125 123 129 125 132 128 126 126 129 130 135 136 136 135 135 134 133 135 133 124 127 120 120 103 101 113 125 133 131 132 136 132 127 129 128 
161 150 126 125 123 126 119 109 50 6 8 4 3 6 9 22 31 31 39 46 56 70 72 89 87 101 106 109 109 111 112 111 113 118 122 120 124 128 128 126 130 131 126 121 123 119 124 123 125 128 125 125 126 129 129 132 134 145 137 135 134 134 131 130 124 123 119 119 105 99 110 129 125 130 133 135 132 130 128 125 
165 144 121 127 127 124 121 113 54 7 9 6 2 9 14 23 29 36 37 47 53 70 74 86 98 106 106 111 107 109 111 110 114 107 114 118 124 127 122 127 128 134 130 119 121 118 124 125 123 125 128 125 127 130 126 132 133 137 136 133 133 134 130 133 125 123 123 115 104 101 112 126 128 130 133 136 130 131 127 128 
161 143 121 125 126 124 118 107 50 4 16 7 0 7 14 21 28 30 43 43 51 68 80 87 102 104 107 105 104 109 110 110 113 113 115 120 122 120 122 125 126 131 132 125 120 121 121 124 123 124 126 125 127 130 129 133 134 137 134 134 136 133 131 128 123 123 120 114 103 100 116 129 134 131 136 133 131 129 128 131 
156 139 123 124 121 127 123 110 52 7 10 2 5 3 14 22 25 32 39 46 54 70 80 100 102 103 105 106 101 108 108 109 115 119 115 118 120 122 122 127 124 126 126 129 121 116 116 122 123 123 126 124 127 131 133 130 132 140 135 135 131 131 129 130 126 127 116 114 102 103 115 131 129 132 133 130 131 127 123 128 
156 141 127 129 125 125 123 109 52 3 12 11 6 3 12 21 29 30 37 47 53 76 81 100 105 106 105 105 102 104 108 108 112 117 116 120 119 123 121 120 127 125 130 133 120 118 119 122 123 123 127 123 128 132 131 132 133 133 134 137 134 132 129 132 120 123 119 117 109 99 115 131 130 130 136 133 134 129 127 127 
162 136 124 122 124 125 122 112 59 11 14 7 8 9 12 21 25 29 37 46 52 74 90 100 101 105 107 102 98 108 109 106 109 109 113 120 119 124 124 117 127 129 129 128 122 119 119 118 120 124 126 124 126 129 129 129 131 130 131 135 133 129 129 128 123 126 117 117 105 102 118 128 134 129 130 131 133 127 126 128 
161 135 121 124 123 122 122 109 53 9 13 8 11 11 10 21 25 29 35 42 55 75 87 98 101 104 105 103 98 102 111 109 108 110 115 114 116 122 128 127 126 132 131 129 126 118 116 117 116 121 124 124 128 128 129 130 130 129 131 133 132 132 126 127 121 121 117 114 107 98 121 127 129 134 133 130 130 126 129 126 
161 134 123 125 119 123 125 111 62 11 16 10 17 13 13 18 27 30 35 48 56 76 89 100 101 105 105 103 101 102 106 109 110 112 115 116 118 118 127 127 124 133 129 129 129 118 117 120 119 123 122 124 126 126 129 126 127 127 132 131 132 130 127 129 125 121 114 115 106 106 118 130 134 131 133 131 134 128 128 127 
159 127 123 127 121 121 119 113 65 12 15 13 13 11 16 19 26 29 37 49 56 73 88 107 105 105 105 104 99 97 102 107 111 108 114 114 113 124 124 124 128 125 126 129 123 120 114 118 118 122 123 124 126 125 125 127 131 127 131 134 131 128 127 125 124 132 121 115 106 103 121 130 133 131 133 131 131 122 126 135 
153 129 120 122 122 120 126 121 66 13 14 13 13 17 15 25 25 35 40 51 53 78 95 106 105 103 103 104 99 100 104 105 111 107 109 111 113 115 121 122 124 127 124 130 129 124 115 117 118 124 123 123 126 126 125 125 129 130 132 131 131 135 129 129 124 126 120 116 106 106 122 134 133 132 136 132 130 122 126 125 
150 126 116 120 120 118 124 113 68 11 16 16 18 17 13 22 30 32 40 49 54 78 98 105 102 103 99 101 98 98 103 104 108 108 112 112 114 121 120 122 128 127 126 131 135 130 115 117 119 120 122 122 124 126 126 125 127 128 130 129 131 131 129 129 122 126 118 117 103 107 121 133 133 133 139 136 131 127 126 130 
151 121 118 117 113 118 116 113 71 12 15 18 17 13 18 23 30 32 40 50 58 79 93 102 102 99 98 100 98 99 104 104 107 107 109 111 115 118 116 114 118 120 126 134 132 131 116 117 119 120 121 124 125 127 123 125 128 128 133 129 128 128 128 130 126 123 115 110 105 105 121 130 129 131 138 130 129 128 127 129 
150 127 113 122 115 113 120 110 68 13 14 18 19 22 16 24 35 34 40 48 56 80 99 108 104 98 107 108 100 103 105 104 110 106 111 116 117 118 114 108 110 116 125 131 130 131 118 114 117 118 121 118 122 124 121 125 125 126 128 128 128 131 131 129 122 122 114 106 100 104 121 129 129 134 135 129 126 130 121 134 
155 124 116 119 116 117 114 107 70 16 17 22 22 24 21 24 29 37 41 54 52 78 90 105 104 98 105 108 105 104 105 105 104 108 113 112 120 114 112 108 106 106 117 121 124 127 116 114 115 118 115 118 122 122 123 125 124 127 128 130 131 125 127 128 122 123 113 103 102 107 120 131 130 135 132 126 127 125 127 132 
148 123 115 119 114 115 114 107 77 14 13 20 27 29 25 27 37 33 42 56 61 81 96 107 107 110 107 104 106 106 105 105 107 106 108 112 116 113 113 112 105 111 110 113 112 113 114 113 116 120 118 119 120 121 120 124 122 124 126 128 129 130 122 127 118 119 112 100 101 107 118 131 129 134 136 129 130 129 134 125 
153 119 115 116 111 115 116 106 77 19 15 28 29 33 31 31 35 40 39 55 64 77 95 108 109 107 109 110 104 105 105 102 107 110 106 113 112 119 108 109 106 107 105 107 110 112 112 111 116 118 121 117 120 121 122 127 124 126 125 125 126 125 126 122 122 124 106 103 104 109 121 126 130 133 137 131 128 128 127 126 
144 123 112 112 109 110 108 101 69 21 15 30 32 34 30 37 42 34 41 48 60 70 83 103 107 109 105 107 102 110 110 104 106 107 107 110 115 115 114 106 104 104 106 106 110 110 112 113 115 117 117 117 119 118 120 125 123 121 123 126 126 128 126 127 118 119 114 100 96 106 125 126 129 132 137 128 127 128 126 126 
143 116 114 114 110 109 107 102 75 22 14 27 34 35 30 38 39 37 47 50 58 71 77 90 100 103 110 109 102 106 110 109 111 109 113 108 113 117 112 107 107 105 101 109 109 112 111 113 114 122 118 118 117 122 119 122 124 125 124 125 125 126 128 129 118 119 109 100 98 112 122 125 133 132 137 128 126 121 129 125 
144 117 110 115 111 106 110 105 75 24 17 31 35 41 36 40 38 42 46 52 57 71 74 86 95 105 109 105 102 106 108 107 111 109 112 108 111 116 110 107 105 103 102 108 108 109 109 107 114 117 114 113 118 118 120 122 124 120 123 123 124 128 125 125 121 119 113 102 99 110 121 127 129 135 135 127 127 122 119 128 
141 114 112 113 108 105 104 103 81 32 18 29 35 40 41 41 43 45 47 51 59 68 75 89 100 103 106 104 100 110 106 104 112 113 111 110 111 115 110 106 104 106 104 107 108 111 108 110 111 116 116 118 118 121 117 122 122 122 123 124 130 127 125 126 119 119 110 101 101 109 126 129 132 134 133 130 124 123 123 127 
138 111 106 109 111 106 106 105 90 35 26 31 38 45 42 44 47 46 54 59 61 70 74 90 103 101 103 103 100 102 103 102 107 109 111 107 110 113 113 108 104 105 108 104 107 113 113 113 112 113 115 117 122 119 119 120 122 126 125 122 128 126 124 123 122 120 110 97 103 110 127 131 133 135 131 128 130 127 124 129 
141 106 107 111 112 109 111 101 84 40 35 31 38 44 44 47 45 50 50 58 59 73 73 90 98 99 99 102 97 101 101 102 109 108 107 108 110 115 110 111 102 106 106 108 110 108 112 116 113 115 115 120 116 121 119 125 121 122 124 124 126 129 124 127 120 117 106 102 100 117 125 133 134 133 132 128 127 130 128 132 
137 112 109 110 109 109 109 105 94 42 30 30 34 47 47 48 50 48 53 56 59 70 76 90 96 97 100 99 97 101 102 101 107 107 109 107 111 107 109 110 104 106 106 106 111 108 111 112 114 117 116 117 119 123 120 126 123 124 123 124 126 123 126 127 120 121 110 100 102 113 121 131 136 135 131 134 122 126 130 128 
143 111 104 112 109 108 105 108 92 45 31 31 42 44 45 47 49 53 51 54 56 71 77 90 94 95 100 97 96 99 101 100 103 105 105 105 109 107 108 106 104 105 103 105 108 108 109 112 114 117 119 117 118 120 121 123 121 124 120 125 124 125 124 123 116 117 108 99 103 115 125 129 132 131 131 128 122 123 130 133 
139 109 112 109 107 106 109 107 97 54 30 31 41 44 49 48 50 50 51 57 54 70 72 86 91 95 100 99 91 99 99 101 102 105 102 107 108 105 107 105 101 101 102 106 104 104 113 110 109 115 115 116 114 119 124 124 123 122 122 121 124 124 121 127 113 118 104 101 99 115 123 129 131 132 131 129 123 126 125 136 
147 107 102 110 105 105 108 102 94 54 21 31 35 47 51 47 50 50 53 52 56 68 71 88 96 94 95 98 95 97 102 99 106 103 103 106 107 104 103 101 101 102 102 103 105 104 111 114 108 115 114 114 116 121 119 125 122 123 125 125 123 125 117 119 121 114 101 96 100 115 125 130 132 133 130 124 123 124 125 131 
139 105 98 106 107 109 112 106 95 58 21 33 36 48 50 50 53 51 49 51 54 69 73 90 92 97 101 98 92 98 97 98 104 110 104 109 108 112 99 101 102 102 101 102 104 109 105 112 108 114 113 118 115 129 120 120 122 122 124 125 125 124 121 123 115 113 99 92 99 115 124 129 127 134 127 123 124 127 130 131 
137 102 96 101 105 106 104 98 95 66 20 26 36 45 47 49 51 51 49 56 53 66 75 85 91 96 97 97 91 96 97 98 103 105 108 112 117 111 100 101 97 101 100 100 105 107 108 111 108 113 116 110 116 119 119 120 125 124 123 123 131 127 125 121 117 111 97 88 99 118 120 128 131 128 127 123 122 123 129 129 
137 113 99 100 103 105 110 102 94 70 26 26 38 45 50 51 52 52 53 56 53 70 73 81 90 92 95 95 93 98 96 98 99 108 106 111 112 100 100 98 96 99 99 99 105 104 107 111 109 115 117 111 114 119 118 125 123 121 121 122 125 128 126 126 115 110 96 88 104 115 120 118 126 121 123 117 120 126 125 129 
140 111 96 100 104 107 107 108 98 73 22 30 36 46 54 52 59 53 54 56 57 68 65 84 87 91 93 96 91 95 98 98 105 105 104 106 109 96 97 98 98 100 99 102 104 105 109 116 109 114 113 110 112 116 117 122 120 123 120 120 121 124 127 127 115 115 100 93 108 118 119 120 121 118 119 115 117 122 125 121 
141 110 97 102 104 105 108 101 103 82 26 28 35 48 53 53 56 55 53 59 59 72 69 82 83 93 89 92 88 95 97 96 108 103 111 107 106 93 96 97 97 100 101 102 106 105 110 110 110 113 113 112 110 114 115 121 120 123 120 122 121 125 118 123 121 117 99 94 109 118 119 119 122 117 120 116 119 121 127 124 
139 106 90 99 101 100 103 104 97 84 28 31 38 44 54 58 61 55 53 59 58 69 71 79 84 91 93 93 89 94 94 97 99 105 103 102 96 98 97 96 96 99 98 100 103 104 108 106 108 113 115 109 110 113 110 115 116 121 122 122 125 119 121 120 115 115 94 93 106 117 120 121 120 119 117 115 117 119 125 125 
137 100 94 96 100 102 105 104 98 88 32 23 32 40 49 56 58 54 60 61 61 70 67 77 84 86 98 92 93 92 94 95 97 104 94 92 94 96 94 91 95 97 98 99 102 102 103 105 104 111 111 111 109 112 112 113 116 119 120 120 122 123 123 120 112 111 92 98 111 116 117 122 121 115 113 110 114 119 125 124 
131 100 87 89 99 102 98 100 93 86 34 20 26 33 45 54 54 53 56 60 59 66 67 79 81 80 88 88 89 93 91 94 96 89 89 93 90 89 87 92 92 98 95 98 103 101 109 102 104 110 107 107 106 111 111 118 116 118 118 119 121 120 120 117 105 105 92 94 106 114 113 114 117 113 115 105 112 114 120 120 
128 95 86 90 93 96 98 100 94 88 25 20 24 31 45 52 53 53 55 57 58 65 70 74 72 80 87 91 82 93 89 87 82 85 88 83 91 90 90 92 93 92 94 99 102 102 105 105 103 108 108 104 106 111 113 113 117 116 119 118 118 122 115 114 107 102 89 91 108 115 113 115 116 109 111 103 111 114 112 115 
129 93 78 91 92 99 97 96 88 85 38 18 18 27 40 43 55 50 51 55 56 64 64 78 78 76 86 84 85 88 86 79 82 80 84 85 87 91 91 93 92 92 90 95 100 100 99 100 101 105 105 103 106 109 115 113 113 116 116 116 119 116 115 110 104 99 83 91 107 111 112 116 110 105 108 105 113 111 112 117 
118 88 78 87 93 97 92 94 87 89 40 14 13 21 34 42 51 52 51 52 55 65 66 78 76 74 85 86 84 84 88 76 82 83 82 86 87 91 88 90 91 93 93 90 95 98 97 101 100 108 104 104 103 111 109 113 110 113 117 119 118 119 115 116 104 93 84 95 111 110 106 110 112 105 101 103 111 111 115 112 
93 83 76 82 94 96 98 92 91 89 47 9 15 20 26 37 43 50 55 59 56 67 66 78 79 79 84 84 82 83 83 78 81 82 87 87 94 93 90 90 89 90 90 93 94 96 99 101 101 102 104 99 101 110 110 112 110 112 117 119 118 118 113 114 104 102 88 97 109 110 112 112 109 103 105 108 110 114 114 117 
85 75 74 86 94 91 92 87 89 91 52 12 12 13 16 30 42 48 47 57 53 66 66 77 81 77 80 85 81 80 76 78 84 84 81 90 94 89 87 90 84 90 88 94 94 93 94 100 100 100 103 98 103 106 106 109 111 112 116 114 110 113 110 113 103 95 80 92 109 106 111 111 108 101 100 110 106 108 116 112 
78 77 69 79 96 100 94 90 85 88 50 2 13 14 12 26 39 41 46 54 50 64 66 78 84 77 80 86 79 80 78 77 80 78 84 83 89 88 85 87 86 89 90 92 94 92 97 99 97 100 102 96 101 104 105 106 109 110 109 108 109 113 110 106 99 90 83 94 105 110 107 108 104 107 95 104 106 107 109 115 
76 62 65 74 84 87 87 79 79 81 56 1 2 17 16 31 35 41 48 55 55 64 65 76 76 75 83 85 79 80 77 75 80 79 78 83 79 82 81 82 81 83 85 84 86 87 92 92 93 93 97 95 98 103 99 103 107 105 103 104 107 105 103 106 96 87 80 95 100 107 108 102 100 99 97 101 103 106 106 114 
71 66 63 67 83 81 87 77 79 80 55 6 9 15 17 40 46 45 54 57 56 64 66 80 81 82 87 82 74 81 75 76 78 79 82 79 79 82 81 81 81 84 83 84 85 86 91 89 90 91 89 91 96 100 96 100 101 102 100 100 101 105 101 98 89 85 78 97 105 104 110 105 101 100 103 100 105 104 110 116 
65 64 55 69 72 82 82 80 74 83 59 7 12 19 29 47 50 53 53 65 57 67 68 78 79 77 83 84 76 78 75 81 80 76 77 80 80 81 79 78 81 81 80 80 83 84 90 87 87 87 91 95 91 97 92 96 99 97 97 98 97 98 98 95 87 88 83 97 103 106 102 104 98 95 96 102 108 106 105 109 
56 58 55 61 72 79 81 75 71 75 58 13 2 16 34 47 54 52 57 60 56 64 71 74 79 74 80 78 74 79 72 71 73 72 74 75 76 72 74 74 77 78 75 76 75 81 85 89 83 83 85 89 82 89 90 92 90 91 88 88 93 94 90 83 73 80 78 91 100 103 103 97 97 94 91 103 105 99 105 109 
51 52 44 52 64 68 80 70 68 74 60 19 2 14 24 42 51 55 56 59 58 64 63 63 65 62 70 70 72 71 69 68 67 65 66 67 69 68 70 70 70 68 68 69 72 70 73 72 75 80 80 79 73 74 78 80 77 78 76 77 78 78 77 73 74 73 75 89 100 99 96 95 100 93 92 96 101 97 106 107 
50 54 47 48 55 69 67 65 65 60 59 21 4 14 19 38 48 51 50 57 49 54 54 56 55 56 59 59 60 57 54 59 57 57 56 58 65 58 59 60 60 62 59 63 63 63 69 63 68 67 67 68 70 74 74 76 74 80 82 82 81 80 79 76 72 73 77 91 96 100 98 95 95 90 94 99 101 104 105 104 


