P2
80 60
134
119 120 121 121 121 120 118 118 124 120 121 121 122 121 122 121 116 122 119 118 120 120 112 115 114 121 118 118 119 118 119 117 117 120 116 119 121 119 120 118 116 118 118 116 117 118 118 115 119 118 117 119 119 124 122 123 124 123 120 121 118 122 120 116 116 118 110 114 111 113 111 114 113 113 112 112 105 106 106 104 
121 120 125 127 122 121 118 119 120 124 127 122 123 120 122 120 123 120 122 122 123 121 119 115 118 117 118 118 118 118 118 119 123 120 122 119 122 121 119 120 121 122 118 118 116 121 119 121 118 118 120 119 119 123 130 129 125 125 120 118 121 118 116 118 114 117 113 112 111 113 113 114 114 113 114 112 109 108 112 109 
121 119 120 122 119 119 121 120 122 122 127 125 123 120 120 120 119 121 122 123 123 123 118 117 119 121 120 121 119 121 122 122 121 123 122 123 124 121 120 121 124 122 118 119 118 120 120 123 122 122 120 119 123 121 124 124 125 124 124 120 119 126 116 118 116 116 115 111 116 118 119 116 113 114 114 115 108 111 110 116 
122 122 124 120 121 122 123 119 123 125 129 125 123 122 120 118 118 119 120 118 119 119 121 120 117 121 123 122 122 119 120 121 121 122 120 125 121 122 122 120 120 121 121 119 121 120 124 123 124 123 121 123 121 123 123 128 120 122 121 123 124 121 119 117 116 117 114 113 120 119 120 120 117 114 117 114 111 114 113 109 
125 122 124 125 123 123 123 118 123 127 128 122 121 124 125 122 117 120 120 120 117 120 121 121 121 124 123 123 122 120 121 118 117 117 120 127 123 123 125 121 122 122 121 120 121 122 124 122 121 120 121 120 121 121 122 125 120 120 121 119 122 121 120 121 116 118 115 118 116 120 121 120 114 115 118 114 114 110 115 106 
126 120 122 121 120 122 121 125 128 128 128 124 121 121 124 123 119 123 119 120 120 123 123 122 121 119 122 121 117 120 119 118 119 122 122 125 123 122 122 127 120 119 122 119 116 121 125 125 123 123 125 124 125 123 124 125 123 121 124 119 121 117 121 119 117 118 116 118 118 117 127 120 118 112 115 112 112 111 110 112 
125 121 124 121 121 122 124 118 128 127 125 125 122 123 124 120 125 122 121 122 118 123 121 120 120 121 118 121 119 117 119 118 117 119 122 122 127 124 122 121 120 120 119 120 121 123 125 122 123 121 122 127 125 122 120 126 125 126 129 124 119 119 120 121 120 119 115 119 117 113 119 119 115 113 112 113 107 108 111 111 
122 125 124 123 121 125 124 125 128 129 127 124 120 117 120 122 118 120 121 120 121 118 118 120 122 122 122 116 121 119 119 119 117 120 121 124 124 123 120 120 122 121 121 117 124 119 123 123 120 120 125 122 124 122 122 125 122 123 123 121 122 123 124 117 120 119 113 119 118 118 116 120 115 113 110 111 105 109 109 111 
125 124 124 124 119 121 128 124 125 127 129 125 120 121 122 121 120 121 122 119 118 119 119 120 122 121 120 116 120 120 119 115 120 120 120 122 123 123 122 122 120 119 118 119 118 122 120 121 120 123 121 122 119 126 122 122 120 122 121 119 119 123 120 115 120 119 119 122 116 119 118 119 116 112 113 110 103 107 109 111 
127 126 126 123 120 123 123 122 128 129 128 126 121 121 119 123 124 119 119 121 121 120 116 121 121 121 119 119 120 120 116 117 115 117 119 121 119 119 121 122 117 117 119 116 119 119 120 120 121 122 124 123 121 120 119 119 120 122 120 117 116 124 120 118 116 117 117 116 123 116 118 115 116 116 113 113 109 107 106 110 
126 123 121 126 122 123 127 123 130 130 129 124 119 122 120 118 124 119 119 118 121 121 115 119 116 121 120 118 120 118 119 119 119 120 117 121 123 121 119 123 121 121 119 117 118 122 119 122 115 121 121 120 118 117 114 122 120 118 121 117 116 122 117 118 116 114 117 120 113 119 113 116 114 110 111 117 110 109 112 107 
128 125 127 128 123 123 125 126 123 130 128 125 121 121 119 120 120 116 117 120 120 122 119 120 116 121 115 120 119 119 122 121 117 122 120 121 121 118 121 120 120 118 118 118 118 118 120 121 121 121 121 120 119 117 115 117 117 116 114 117 117 119 118 113 117 115 113 112 117 114 114 114 111 111 113 117 109 107 111 111 
127 128 128 128 125 122 125 122 125 129 125 127 119 117 119 119 118 114 120 116 117 121 119 117 116 118 117 121 118 118 119 121 121 121 119 118 119 118 120 118 119 121 120 120 121 122 121 122 124 121 122 120 119 118 121 119 120 122 117 117 117 119 121 116 114 111 110 113 114 112 107 109 112 112 119 114 108 108 110 108 
128 128 124 126 127 126 124 124 124 123 119 122 118 121 118 120 118 116 116 116 119 117 119 117 118 117 118 116 117 118 116 118 118 122 120 120 119 118 120 120 120 119 119 120 117 123 121 120 121 126 122 121 120 118 117 124 121 123 122 118 121 119 121 118 117 117 115 116 115 116 117 113 115 112 112 115 108 108 106 110 
129 128 125 124 122 122 121 124 127 124 120 121 119 121 118 119 117 119 120 118 115 116 120 118 119 118 116 118 117 121 120 120 118 122 120 119 121 118 116 120 121 119 120 118 118 118 119 120 123 123 120 121 122 122 123 125 125 132 122 121 120 121 121 121 117 121 117 122 121 121 120 121 121 116 115 119 109 113 115 116 
129 127 126 124 120 120 121 124 128 124 122 121 116 120 118 120 118 118 119 116 116 119 116 116 118 120 118 118 115 118 119 121 118 119 120 120 120 115 116 118 120 122 120 119 117 119 118 118 121 122 120 118 122 122 121 121 121 124 124 121 122 121 121 117 119 123 118 120 125 122 121 122 121 120 118 119 115 118 118 113 
125 128 127 124 123 120 122 122 123 123 124 123 116 117 119 119 119 121 115 115 116 117 118 120 118 117 117 117 119 119 120 121 119 121 124 122 118 119 117 120 114 118 121 115 119 124 120 119 119 119 122 121 120 122 121 122 123 123 124 123 124 123 119 118 120 120 120 122 120 121 123 127 131 124 120 119 113 117 119 115 
125 129 128 125 123 121 123 124 122 118 121 122 120 117 118 121 120 117 119 118 117 119 118 121 117 119 116 121 119 117 123 120 120 122 119 118 121 118 119 125 118 120 119 119 116 119 119 119 116 118 118 121 120 122 123 121 120 128 125 125 120 120 116 117 122 125 120 119 121 123 122 126 125 120 121 119 116 118 118 118 
127 125 126 126 123 120 124 118 121 120 120 122 118 118 114 119 119 118 118 119 117 117 118 118 119 119 117 118 120 117 121 121 121 120 119 120 118 117 117 123 121 120 117 117 116 118 117 116 116 117 120 119 122 121 122 118 119 121 121 121 118 117 117 121 122 122 119 122 121 122 126 122 119 121 116 119 111 115 115 113 
121 126 127 126 123 122 121 120 122 122 121 123 120 119 121 118 117 117 116 118 115 123 122 121 119 119 122 117 119 122 120 120 118 120 120 121 120 116 119 123 122 120 119 116 116 116 117 120 117 121 122 119 120 119 116 120 114 116 119 121 119 122 118 119 120 120 122 121 121 124 123 126 122 118 119 118 111 111 115 113 
126 126 126 127 124 123 124 121 122 120 123 125 120 123 119 120 118 117 116 119 113 121 120 121 119 120 117 119 121 118 125 120 119 120 119 118 120 117 119 120 120 120 120 117 117 116 115 116 117 122 119 120 121 122 113 110 111 113 116 116 118 120 121 119 122 122 118 121 123 126 127 124 120 124 119 115 110 116 116 113 
128 128 126 125 123 122 119 121 121 121 120 124 127 126 119 120 118 118 117 118 117 121 121 117 119 118 118 115 117 119 120 120 118 121 118 116 119 118 117 120 117 120 119 117 115 119 117 118 116 120 124 119 120 118 114 113 111 116 117 116 118 120 122 122 122 123 121 121 121 127 129 126 125 117 120 117 112 113 116 114 
124 123 124 131 122 123 124 120 125 122 121 127 123 121 119 121 118 120 116 119 116 120 115 117 116 118 115 117 118 116 118 116 118 116 117 118 116 118 117 119 115 118 118 115 118 116 119 116 118 119 121 119 118 117 116 119 112 115 116 115 120 122 118 119 120 123 120 122 119 120 127 127 125 118 118 119 112 116 114 115 
125 129 128 123 122 122 124 131 123 125 127 126 125 126 124 125 124 124 122 121 120 119 118 115 117 119 114 114 118 119 119 117 116 116 117 119 117 118 116 116 117 117 117 115 115 117 118 117 118 122 120 118 121 121 118 118 116 117 119 117 119 120 123 122 121 124 122 122 118 121 122 124 124 122 119 121 114 116 116 117 
127 125 123 126 122 124 121 125 129 124 127 126 125 127 125 127 125 122 121 125 123 120 121 118 116 120 119 117 119 117 121 116 117 118 117 118 120 116 118 117 118 116 118 116 117 118 118 116 118 121 119 119 120 119 119 115 116 117 118 119 119 120 116 128 124 126 121 121 122 121 125 125 124 127 119 117 116 118 117 122 
126 124 125 124 121 124 123 123 125 124 124 126 126 127 128 125 122 123 123 126 120 123 123 121 121 121 118 118 118 118 118 116 115 116 114 118 119 115 117 116 115 117 117 117 117 117 120 120 116 117 121 117 116 119 116 116 113 117 123 116 121 123 120 119 128 124 121 118 119 118 123 124 124 120 124 117 116 119 122 117 
126 126 125 124 126 122 125 123 123 123 124 125 125 128 125 128 124 124 124 123 122 124 127 121 120 121 124 118 119 121 118 116 113 118 118 114 119 116 116 117 115 116 115 116 118 119 116 121 120 121 119 117 117 117 116 115 113 114 119 121 120 122 119 119 121 127 121 122 114 120 121 125 127 122 120 118 115 119 119 121 
129 128 127 124 124 122 122 123 121 122 122 122 122 126 127 127 123 123 125 123 123 122 123 120 123 124 119 123 119 115 120 119 120 116 114 118 119 116 118 117 115 115 117 115 115 116 115 116 119 117 118 119 115 115 118 112 112 114 120 116 123 119 120 118 123 128 117 121 122 133 118 123 125 120 121 120 115 113 115 119 
127 129 124 123 121 122 123 127 122 122 122 124 123 124 126 125 122 122 123 124 121 122 120 122 121 120 120 121 119 118 116 119 117 116 116 116 116 115 117 117 116 113 116 117 114 118 118 116 116 117 117 117 118 111 110 114 111 112 116 117 118 120 118 119 120 121 119 121 120 123 129 122 127 124 123 119 117 114 116 115 
127 128 127 128 120 125 124 122 128 126 121 121 124 125 124 122 121 121 121 122 119 122 121 119 116 121 116 120 118 116 119 118 116 117 119 115 115 117 118 119 114 119 118 118 114 118 115 118 115 118 118 116 114 112 108 104 106 113 116 117 118 121 117 119 120 122 121 120 121 120 125 123 125 122 123 122 114 116 113 114 
128 127 128 126 123 122 123 123 124 124 122 124 122 125 120 124 122 122 119 120 117 121 122 118 119 123 119 122 118 117 117 116 117 117 115 115 116 114 117 116 114 118 120 119 115 120 117 119 117 119 120 114 115 113 111 112 104 113 115 116 119 119 120 118 121 119 118 120 117 121 122 128 124 121 121 119 114 115 116 112 
126 130 127 123 122 121 126 125 124 121 123 125 121 125 120 125 123 121 119 118 119 119 119 120 120 122 120 119 117 117 119 118 115 116 117 117 120 115 119 117 119 119 119 120 115 120 115 119 116 122 118 115 112 111 115 109 108 113 115 117 116 121 118 115 120 121 118 119 118 122 124 121 122 122 119 117 110 113 108 112 
126 124 128 123 122 124 121 122 124 119 126 124 122 121 122 125 122 122 119 120 117 122 118 119 122 120 118 120 114 117 119 115 115 115 118 117 120 115 117 116 117 119 115 117 118 118 118 117 115 118 117 118 114 112 110 112 105 111 111 117 115 117 117 118 116 119 119 121 119 120 122 118 122 120 118 116 109 111 115 111 
119 126 126 125 124 121 120 124 124 126 124 127 123 122 123 123 124 124 118 120 119 117 121 123 122 122 121 114 116 119 120 117 113 113 115 115 117 114 116 117 116 116 121 119 117 118 117 118 116 117 117 116 114 116 109 108 104 108 120 115 118 120 118 116 116 120 115 119 117 117 121 120 122 118 120 115 112 111 111 113 
124 127 125 125 126 124 122 125 127 124 123 126 123 126 123 123 123 121 120 122 119 121 118 117 119 120 117 116 116 118 116 116 116 115 116 116 120 116 115 114 114 119 115 119 118 120 115 116 118 118 118 118 116 116 108 110 107 113 115 116 114 121 118 117 115 118 118 121 116 118 121 120 123 121 118 115 111 113 111 113 
126 127 122 121 126 124 124 127 124 125 125 124 123 124 122 124 121 121 122 121 119 120 116 117 119 117 116 115 117 114 117 117 115 116 115 116 118 118 115 118 115 116 115 118 118 118 118 120 118 116 119 118 114 112 107 111 105 112 112 116 115 119 119 117 117 119 118 117 115 118 122 124 121 122 118 113 112 114 115 112 
123 124 126 128 124 125 122 126 125 126 124 125 120 123 123 123 124 119 120 120 118 120 118 116 116 116 116 116 118 117 117 117 116 114 116 116 122 115 116 117 116 116 114 115 120 116 119 118 119 117 117 118 116 110 109 109 104 113 113 117 118 119 114 115 114 119 117 118 114 116 120 120 121 117 118 116 114 113 110 110 
128 130 127 123 122 126 124 124 124 125 129 129 126 123 125 122 122 123 119 120 118 119 116 117 116 116 116 111 114 116 117 117 114 115 116 118 118 113 115 118 115 116 115 116 115 118 116 116 115 119 119 117 114 111 109 110 102 112 112 113 118 116 116 114 117 122 118 115 113 115 117 118 119 113 115 114 113 114 113 111 
127 127 133 126 123 123 126 122 123 126 130 126 126 122 123 122 120 123 120 119 119 122 117 118 118 120 113 115 116 116 118 117 116 117 116 118 116 115 116 115 113 117 117 117 115 116 115 116 116 121 119 116 116 110 108 108 100 110 114 113 118 116 113 112 116 120 114 114 111 112 114 112 116 118 117 112 111 113 117 111 
123 126 127 126 122 121 122 124 126 126 134 129 123 124 119 121 121 121 116 117 119 121 116 120 121 120 119 118 115 117 116 117 114 117 115 115 117 117 116 117 111 115 116 115 114 118 117 116 117 122 119 118 117 114 109 109 101 107 114 115 117 118 111 115 114 118 116 116 114 118 119 114 118 116 116 113 112 116 118 118 
128 125 126 126 122 123 122 123 125 125 122 126 122 127 120 123 121 120 120 118 118 118 117 118 118 118 121 113 117 116 113 115 115 118 115 116 117 115 114 116 113 118 117 116 117 119 117 120 117 121 121 117 114 117 112 108 101 113 111 113 114 118 114 114 117 115 113 110 114 115 117 117 112 115 115 116 109 116 123 113 
124 124 126 127 122 120 122 126 127 127 122 124 125 129 122 123 120 117 123 118 116 117 116 119 117 120 119 120 114 116 114 117 115 117 114 118 118 117 114 117 114 117 118 117 115 120 117 120 119 121 119 117 115 110 107 111 104 112 113 117 115 118 115 110 115 114 113 110 110 114 115 115 119 114 114 115 111 109 116 118 
122 125 132 121 119 119 121 123 125 126 124 124 126 124 122 120 120 120 120 118 117 117 118 117 120 118 115 115 115 116 115 116 116 114 116 119 119 118 117 118 115 115 115 112 115 118 120 119 119 118 119 119 113 111 107 105 103 109 112 112 112 115 115 112 110 113 111 110 113 114 116 116 115 114 113 113 110 111 112 113 
126 126 126 122 116 120 118 120 119 124 123 127 117 125 123 119 118 117 117 116 115 118 120 119 116 116 117 115 114 115 116 113 113 115 115 115 118 115 117 119 117 115 114 114 116 120 120 122 117 119 119 114 115 110 105 104 97 110 112 112 112 112 113 109 111 113 112 109 110 114 116 114 112 112 111 112 107 110 113 117 
125 121 120 118 121 116 118 121 120 124 124 122 123 123 122 121 118 120 114 119 118 115 117 115 114 117 115 116 113 115 116 113 115 115 114 117 118 117 114 116 116 115 114 113 119 117 120 121 117 120 117 117 111 108 103 101 99 110 112 111 110 111 107 108 110 118 113 108 107 112 112 116 112 111 109 116 106 109 111 112 
125 124 120 124 122 115 119 121 121 124 121 125 122 128 124 122 119 120 117 118 115 115 112 116 115 114 115 113 114 115 116 113 114 113 113 114 117 114 113 114 116 113 113 115 117 120 117 113 112 120 120 115 108 107 99 100 100 106 110 108 113 113 109 105 108 116 114 112 111 109 115 113 118 112 116 111 109 107 110 109 
121 122 118 121 117 119 121 119 120 127 124 124 119 125 122 122 117 119 115 118 116 119 116 116 113 115 116 109 111 112 113 111 113 114 110 114 117 116 112 115 113 114 116 115 115 118 117 118 117 119 114 112 111 105 102 103 99 108 110 111 111 113 111 107 106 114 113 109 109 111 110 118 117 113 108 109 107 110 108 110 
122 122 122 121 114 122 115 119 119 123 123 122 124 122 122 122 119 118 117 117 115 116 117 113 114 115 113 112 114 114 115 113 112 113 112 115 118 114 116 117 112 114 117 114 117 114 119 118 114 116 114 114 111 106 99 101 100 110 107 110 111 108 107 108 107 113 110 111 103 109 114 117 115 114 111 110 108 107 107 106 
120 121 121 119 119 120 121 120 118 126 126 121 122 128 121 123 119 126 116 116 113 117 118 117 116 115 113 114 115 114 115 111 111 113 115 115 114 114 113 116 112 112 113 114 116 116 116 117 115 113 116 114 107 104 101 100 101 110 108 110 108 109 107 104 109 110 104 103 104 112 108 119 111 111 110 109 103 106 106 105 
121 122 119 123 118 122 122 119 121 124 130 123 120 123 125 121 117 117 116 115 115 116 116 117 115 117 113 111 114 114 114 113 110 113 112 113 114 116 113 114 113 111 116 113 114 116 114 116 114 112 115 113 109 105 102 102 101 111 109 107 103 108 108 104 106 108 105 106 106 111 114 116 109 108 113 108 104 106 107 107 
125 127 119 124 125 126 120 121 122 128 125 121 121 122 121 117 118 119 116 117 113 113 111 112 116 114 116 111 114 114 117 113 113 115 116 114 114 113 114 117 111 113 115 114 113 113 113 115 112 115 112 109 107 106 100 98 103 110 108 106 108 110 107 106 106 107 108 106 112 110 117 117 112 110 108 110 104 113 104 94 
120 121 122 123 119 118 119 118 123 124 123 122 124 121 118 121 115 116 112 114 115 117 115 115 113 112 113 116 116 117 118 111 114 114 117 113 109 110 111 114 115 112 113 113 113 112 112 114 113 115 114 112 112 101 99 102 103 109 108 109 108 108 103 103 104 107 105 107 104 110 110 111 111 107 110 108 109 109 104 104 
118 116 120 121 123 120 119 118 121 120 119 122 122 119 118 119 117 112 112 118 113 114 113 115 116 116 111 113 111 112 116 114 110 112 113 113 111 109 109 112 111 111 113 111 111 112 113 114 111 114 114 113 107 98 103 97 99 107 110 105 105 107 103 100 103 106 102 103 104 107 111 110 109 107 105 108 103 104 100 103 
119 117 116 117 125 122 117 120 116 121 121 118 121 122 116 118 112 112 112 114 114 115 111 113 114 112 115 113 112 112 114 113 112 111 110 113 110 111 112 113 111 110 111 110 111 110 112 110 113 113 117 111 105 99 97 101 100 97 100 104 102 101 100 100 99 104 105 98 103 106 110 108 107 106 107 103 104 100 101 96 
120 118 116 118 117 118 116 119 117 122 123 121 120 122 120 118 116 110 114 110 111 113 113 116 113 115 120 113 111 111 111 109 111 110 112 112 114 110 112 109 108 110 108 110 112 110 111 112 109 113 114 112 106 97 99 97 97 101 103 102 103 98 99 98 102 103 102 99 100 103 110 112 105 106 106 103 99 98 99 101 
114 116 119 121 116 115 116 115 118 120 123 123 123 125 122 116 114 111 113 111 112 114 114 114 110 111 114 109 110 111 110 111 111 109 112 113 109 110 108 110 111 108 108 111 109 109 112 112 109 112 114 106 95 74 88 96 97 100 98 101 99 101 98 94 101 104 103 99 100 99 112 111 105 106 106 100 96 96 98 97 
115 116 118 117 116 116 116 115 120 117 120 124 128 122 119 117 114 113 112 116 112 114 109 113 110 111 109 110 109 107 109 109 107 108 110 110 109 108 106 109 109 108 109 107 109 111 112 110 111 111 109 100 53 34 68 89 93 95 99 98 100 106 100 99 98 102 99 94 98 99 104 112 109 103 105 103 95 100 100 99 
117 116 118 115 116 115 115 112 116 118 120 121 123 121 118 114 113 111 110 112 111 110 112 111 111 105 108 102 111 109 110 108 108 107 106 109 110 110 107 111 116 108 109 106 109 106 112 113 110 111 109 95 29 8 54 86 91 92 99 96 103 100 100 93 97 101 97 96 94 100 106 105 103 102 103 106 94 99 97 104 
117 122 118 115 112 117 116 119 121 119 124 124 122 121 113 113 113 112 108 114 111 110 108 111 108 108 107 107 112 110 109 106 108 109 108 109 107 111 111 107 107 109 108 109 108 112 110 111 110 112 112 91 23 1 60 87 90 96 96 95 96 100 97 95 101 101 100 96 99 101 104 107 105 102 103 104 95 94 97 99 
116 119 120 115 116 116 116 116 118 120 116 119 118 116 112 112 112 109 108 109 110 106 109 111 107 112 106 106 108 108 106 112 105 106 107 108 111 110 106 106 107 108 105 108 108 108 114 107 111 112 108 91 18 0 56 79 94 97 100 95 96 100 95 92 91 96 97 95 93 101 101 103 100 96 102 101 96 96 91 98 


