P2
80 60
170
149 150 151 157 157 154 159 155 152 157 155 149 146 148 148 150 157 154 155 151 152 151 149 146 143 139 138 127 97 41 35 40 58 73 82 94 102 98 109 121 124 122 125 128 131 124 123 124 127 132 143 128 136 133 130 133 128 131 129 128 125 128 127 121 108 103 119 126 127 128 124 127 127 130 139 144 141 138 139 134 
152 154 150 159 156 157 154 152 154 158 155 151 144 140 151 149 156 155 153 151 153 151 151 149 136 136 143 131 92 39 31 36 57 74 81 95 104 98 108 120 122 119 125 126 132 127 121 125 122 125 129 129 133 129 133 133 133 130 132 126 126 125 121 116 110 102 119 129 124 126 128 130 128 136 138 142 138 145 140 137 
152 149 151 155 154 159 158 150 156 155 155 145 139 138 144 152 150 155 152 152 151 149 149 148 140 136 145 123 90 35 24 27 53 61 82 96 99 94 103 112 118 119 119 121 121 123 120 124 126 123 124 127 133 130 132 131 129 131 132 128 126 124 120 118 109 104 120 127 125 127 126 128 128 132 136 142 139 146 143 141 
154 155 152 154 156 155 154 149 153 157 155 137 134 143 144 152 153 153 152 156 151 152 150 150 136 140 137 126 84 29 16 15 37 48 66 81 94 93 108 111 116 115 117 118 125 118 122 120 128 125 125 129 129 133 128 129 126 129 129 129 129 123 120 118 113 100 114 125 125 122 125 133 131 130 137 141 141 142 144 136 
152 150 150 157 154 157 156 151 153 159 151 139 135 144 144 151 152 155 153 156 150 150 150 149 139 146 141 119 77 21 10 5 24 40 47 68 82 98 107 113 114 113 116 115 121 118 121 124 125 122 125 129 131 127 133 129 129 129 128 129 128 128 126 117 109 108 119 130 128 128 126 129 128 130 136 146 143 141 135 133 
151 154 153 158 153 157 155 153 156 157 151 139 137 142 142 154 156 153 155 155 148 151 151 144 145 137 135 114 77 16 8 2 26 36 41 54 75 93 102 107 110 114 114 112 117 118 123 119 123 124 127 130 133 127 130 130 129 130 130 127 129 125 123 122 106 104 121 128 136 128 128 127 125 127 136 144 140 142 141 137 
151 153 152 155 157 156 154 150 150 157 152 145 135 138 143 154 159 154 154 153 154 150 154 148 142 142 136 118 77 14 4 7 19 28 38 52 76 89 101 105 112 112 109 111 115 118 120 118 123 123 127 126 130 128 130 131 129 137 132 127 130 122 123 118 108 104 120 128 128 128 123 124 125 130 135 144 141 142 139 135 
152 151 150 154 154 159 152 149 152 154 152 142 139 137 141 151 154 154 153 154 159 152 155 148 144 146 138 120 74 16 10 10 20 30 34 54 73 91 91 100 107 106 106 110 110 117 116 115 124 118 121 126 131 129 130 128 127 130 130 128 129 126 122 122 111 106 117 125 129 125 123 127 128 133 136 140 139 141 139 137 
154 154 153 157 151 155 156 149 149 157 152 149 145 146 141 147 152 155 153 154 158 156 151 151 147 147 136 113 76 16 14 6 11 24 38 56 77 83 88 95 103 102 105 107 111 111 113 116 117 117 122 124 131 133 130 126 129 128 128 130 125 125 122 118 110 106 119 130 125 120 121 123 126 130 134 140 136 138 140 137 
153 152 150 156 156 155 155 150 150 156 152 152 147 142 142 146 154 155 151 149 151 153 151 146 142 144 136 110 75 17 10 7 13 28 42 59 78 83 83 90 98 104 104 110 110 111 110 111 116 119 124 119 128 127 126 123 125 123 126 126 127 125 125 119 113 102 119 128 126 117 123 124 128 132 133 140 135 134 134 135 
152 152 152 154 154 154 157 148 151 153 154 149 137 134 134 139 153 152 156 151 152 150 149 148 146 141 141 116 79 18 8 3 9 32 46 62 66 79 81 95 104 110 107 109 113 110 111 108 117 119 123 120 126 124 127 124 126 123 126 124 123 124 121 119 111 100 119 126 125 118 120 116 125 130 133 141 137 140 140 139 
155 152 150 152 156 154 154 148 147 152 152 136 132 127 129 139 150 154 154 152 153 151 153 149 137 140 137 115 77 16 13 8 12 29 43 60 67 71 77 91 108 115 114 116 121 109 112 106 113 112 120 115 123 124 124 121 124 125 127 124 124 125 121 120 109 99 116 122 126 118 119 116 126 128 136 142 138 137 139 136 
150 151 147 159 151 149 151 142 146 151 146 136 135 129 130 139 151 150 153 150 156 151 153 150 137 142 132 113 73 13 13 7 15 29 37 59 64 73 76 91 109 120 118 124 122 114 110 104 115 113 117 119 126 122 121 122 125 122 124 122 125 122 122 116 106 102 117 123 124 115 109 114 124 129 137 140 139 137 136 137 
149 152 148 152 152 151 149 145 145 149 142 135 122 116 116 134 147 151 150 147 150 149 150 150 140 145 128 110 71 14 7 9 19 27 33 51 61 69 71 91 103 113 116 118 113 111 105 108 112 115 120 117 124 119 123 123 124 126 124 126 125 122 120 110 106 103 120 128 124 116 117 115 123 126 135 143 138 135 134 136 
150 152 150 151 153 150 153 147 144 147 143 137 122 112 112 129 147 149 153 147 148 149 151 148 136 148 125 108 69 16 8 8 17 26 30 48 65 71 70 87 100 106 105 108 106 105 101 109 112 114 112 120 118 119 123 122 126 136 126 122 122 124 122 112 105 104 122 125 123 119 120 120 125 129 136 139 138 141 138 136 
149 153 151 150 157 151 147 146 147 144 142 135 125 115 115 137 147 148 147 146 149 149 152 149 137 144 125 112 73 15 8 7 12 24 27 51 65 74 72 91 102 111 112 110 107 104 102 105 116 112 111 112 120 119 123 121 121 125 126 127 124 124 123 115 104 108 120 128 127 119 118 122 126 132 138 137 137 140 137 137 
149 152 149 153 151 151 151 144 143 142 136 118 110 108 112 130 143 151 151 150 150 150 150 146 139 143 121 111 70 11 11 8 18 28 30 51 65 78 87 103 108 112 110 107 110 110 103 103 105 107 111 114 120 122 122 121 125 127 125 123 125 123 120 115 103 115 124 128 127 119 122 126 135 133 142 142 141 141 138 136 
154 152 152 154 152 150 150 144 140 140 130 116 104 101 109 124 143 144 151 150 150 149 149 146 142 144 118 111 67 15 8 3 18 25 29 56 76 90 96 104 108 113 106 113 111 112 112 108 109 112 111 111 116 124 122 118 126 130 124 123 127 119 118 112 101 109 119 129 127 120 120 128 128 133 140 139 140 137 139 137 
152 151 149 157 150 150 149 142 142 144 129 114 103 106 109 124 142 147 149 149 151 149 152 150 144 143 119 109 68 16 9 6 17 25 33 53 80 91 93 101 102 105 103 108 116 115 112 110 110 108 108 112 120 121 122 120 118 122 125 123 123 122 116 108 101 112 118 123 125 120 120 126 129 133 140 142 138 139 141 139 
150 149 149 152 150 152 150 137 140 142 130 115 109 111 107 130 137 148 149 148 146 151 158 148 141 139 115 106 63 17 9 3 11 23 34 56 80 94 96 101 100 102 99 105 111 111 114 116 109 106 111 114 122 118 120 119 121 120 122 120 124 119 119 112 100 114 118 126 127 122 120 122 132 131 142 139 137 142 139 141 
151 150 150 153 153 152 148 142 137 142 134 125 126 121 113 123 141 144 151 146 148 149 152 151 144 135 115 109 61 20 11 1 15 23 32 57 80 92 92 94 98 100 98 100 109 110 108 114 111 107 113 110 119 114 120 117 118 121 123 125 122 118 115 109 100 114 119 124 127 126 121 123 127 133 137 141 137 143 141 141 
149 148 148 152 152 149 150 138 136 141 131 128 125 120 117 128 133 146 149 146 149 146 150 146 141 136 110 103 56 14 10 1 13 25 29 51 79 91 91 94 95 98 98 100 105 110 108 112 111 105 112 109 116 112 118 117 116 120 122 123 120 120 118 110 105 112 120 128 127 123 121 126 131 131 138 140 138 143 142 141 
148 149 146 150 149 146 150 135 136 141 130 118 115 113 110 129 133 142 147 146 145 148 149 144 141 138 107 103 58 13 10 5 15 21 33 59 80 87 88 91 95 98 98 100 106 109 112 115 115 110 110 110 119 117 117 114 116 119 120 123 122 119 119 106 103 117 122 128 127 125 126 128 133 134 138 146 137 141 144 137 
151 149 144 148 146 148 145 137 135 141 131 121 122 120 118 134 136 146 146 144 146 146 148 145 140 126 102 104 57 15 11 6 10 27 33 66 82 87 90 91 93 97 95 98 103 108 110 113 116 110 106 110 115 113 112 114 117 118 118 121 118 119 112 106 110 114 124 126 127 123 124 122 129 132 139 144 141 142 142 140 
147 144 142 149 150 144 148 132 133 140 127 119 116 120 120 125 129 138 144 145 144 146 146 146 142 127 101 102 50 16 14 8 13 20 36 57 79 86 88 92 101 99 94 93 102 105 111 115 120 109 107 105 110 110 112 112 115 118 120 119 121 118 113 101 104 111 122 127 127 118 124 123 127 133 135 143 143 143 145 138 
145 144 146 147 146 147 143 127 131 135 127 119 118 117 118 126 133 145 144 140 144 146 147 146 139 124 94 95 47 16 18 10 14 25 36 57 79 93 87 96 93 97 95 96 106 106 103 115 118 111 107 104 110 115 109 112 115 115 122 116 117 115 109 104 98 117 120 127 124 118 119 126 128 135 143 141 138 143 141 137 
145 144 142 142 148 149 143 126 127 136 123 127 120 118 115 123 132 144 142 142 146 144 152 146 143 117 100 94 47 23 23 19 20 29 40 65 87 92 90 93 95 94 93 97 105 103 102 104 116 102 107 103 108 111 111 117 113 115 119 117 117 117 111 107 102 115 123 128 121 117 118 122 133 139 137 140 139 142 140 140 
146 147 143 146 149 146 142 128 129 134 120 101 99 115 109 112 127 137 142 142 145 145 148 144 138 120 92 92 44 23 25 25 27 29 40 62 86 93 88 95 99 97 98 100 103 98 97 93 96 100 98 104 107 110 109 110 112 113 116 117 117 115 111 106 103 118 120 128 124 127 119 123 125 138 137 141 135 141 141 140 
148 146 147 145 147 146 144 121 127 134 117 97 93 103 101 119 126 136 139 138 137 140 145 143 140 117 90 92 48 26 33 29 31 34 41 65 81 92 91 97 95 95 98 99 105 97 91 94 91 97 99 107 106 108 113 109 112 109 117 114 113 114 110 106 98 121 121 126 127 119 120 123 128 134 142 140 141 140 141 140 
146 148 147 143 145 147 142 122 129 135 116 95 94 99 107 118 130 141 137 135 142 140 144 143 137 110 91 90 41 26 30 36 31 36 47 63 81 89 88 89 92 94 98 101 107 97 89 93 93 96 103 102 105 106 107 109 110 110 117 113 115 109 107 101 100 120 124 125 123 119 122 126 131 133 141 144 141 141 142 140 
148 145 142 142 147 144 144 120 123 130 117 96 93 95 110 112 129 134 137 134 137 139 146 142 138 109 90 94 42 26 37 34 35 41 46 67 83 86 85 91 97 95 97 103 106 98 91 93 95 96 100 102 107 106 109 110 112 112 112 111 112 112 102 97 100 115 121 127 122 117 122 128 136 134 139 143 139 140 141 140 
146 142 145 144 146 146 145 116 120 130 114 87 85 98 108 127 133 138 138 138 134 141 144 142 134 108 92 92 44 25 33 43 41 37 46 61 75 82 82 90 96 93 93 94 99 96 92 89 90 93 101 100 108 106 110 111 112 112 115 113 113 109 103 98 99 114 116 127 123 118 115 124 129 134 137 143 138 138 141 139 
148 143 145 145 147 147 142 119 124 128 116 94 96 102 112 125 135 140 134 137 137 141 140 143 135 105 90 94 40 26 39 43 42 40 47 65 73 79 80 89 92 94 93 93 96 96 93 92 95 95 97 102 106 106 109 108 108 110 116 110 110 110 101 103 103 116 118 125 122 115 119 122 128 137 140 141 141 140 144 141 
143 144 144 145 147 144 138 110 122 128 113 98 98 104 114 120 127 137 139 135 135 137 138 141 130 101 92 91 40 28 39 42 42 40 42 59 72 76 77 84 88 90 90 95 97 96 95 93 93 90 99 99 103 103 103 103 109 110 111 110 110 107 98 99 106 116 121 120 120 116 114 121 129 134 137 140 138 144 138 139 
142 144 144 146 145 143 143 105 123 129 119 108 101 109 112 107 123 137 137 135 133 137 138 137 130 98 88 88 43 25 34 44 44 41 45 62 74 77 75 86 88 90 93 96 103 99 94 92 89 92 99 98 104 103 106 104 113 114 114 109 110 111 100 97 108 115 120 122 119 112 114 123 135 134 136 142 137 142 141 140 
143 145 144 144 143 142 136 106 120 126 120 111 109 114 99 74 103 135 136 137 131 136 138 137 124 95 87 89 39 25 34 44 45 43 49 63 74 77 77 84 87 87 94 100 99 93 95 91 94 94 97 99 103 104 104 105 109 112 112 113 110 103 98 93 108 112 116 121 115 113 117 124 132 137 138 140 139 141 143 139 
144 146 140 145 145 144 137 106 119 121 118 95 82 84 68 67 96 119 115 122 126 135 129 123 113 93 83 90 39 29 35 43 47 42 48 61 71 75 76 87 88 90 86 91 95 92 87 85 87 91 98 97 102 104 106 105 107 106 106 109 110 102 97 92 107 111 110 117 114 107 118 122 132 138 140 143 134 144 145 141 
138 144 142 146 146 146 143 110 115 123 117 79 56 59 60 65 73 86 82 89 102 116 100 83 92 86 80 82 36 23 32 39 49 46 46 62 72 75 76 82 87 88 89 92 89 88 80 85 91 90 94 95 101 105 104 103 108 106 109 111 109 106 96 91 106 108 109 115 110 108 115 120 133 136 141 143 140 142 144 141 
140 140 145 147 145 145 142 110 108 116 113 78 51 53 53 60 69 75 72 71 76 78 74 69 76 83 81 84 34 19 24 36 46 47 47 58 73 77 79 79 82 85 85 89 84 83 83 85 89 91 94 96 102 103 102 103 108 107 109 111 108 104 94 94 107 106 108 112 108 102 116 119 131 135 141 143 139 146 146 145 
144 144 144 146 146 146 141 116 114 121 113 86 47 45 47 55 64 69 69 67 72 76 73 72 72 81 80 84 26 17 17 31 42 45 47 55 68 77 77 79 83 80 80 83 84 79 81 83 87 88 94 96 103 100 103 102 105 106 105 108 109 101 96 99 97 106 103 108 105 99 115 121 130 138 141 143 142 144 144 148 
141 145 144 144 144 146 144 107 102 112 116 90 43 47 44 51 60 63 64 66 68 73 66 69 67 80 76 78 26 7 7 26 39 46 44 58 66 77 77 78 83 81 77 79 76 84 79 83 85 89 94 100 98 96 103 99 100 100 104 102 104 101 87 92 99 106 104 104 104 101 112 122 131 137 140 144 139 147 150 145 
142 145 142 143 146 142 138 107 108 109 112 87 44 43 39 44 56 59 61 60 62 69 64 64 64 75 73 70 14 6 5 24 35 47 47 58 65 74 75 77 82 78 71 72 76 80 78 79 84 87 95 94 95 100 98 97 97 99 101 102 101 93 85 91 101 102 98 102 100 95 114 111 133 133 137 141 141 142 148 146 
142 142 145 143 142 143 136 105 95 111 110 85 43 38 35 40 44 49 55 54 55 61 60 57 62 70 66 60 12 6 16 30 41 47 53 62 68 73 75 75 74 70 68 67 73 77 76 79 82 84 92 93 93 98 94 98 98 98 104 100 103 101 89 94 102 98 97 99 92 97 103 112 127 135 134 145 138 142 146 151 
143 140 141 142 143 140 139 110 92 110 113 92 45 35 30 35 38 45 46 51 48 53 53 56 60 70 64 59 10 2 30 40 49 49 52 61 73 73 73 72 70 69 66 68 76 77 77 84 84 84 92 93 101 104 108 106 110 112 116 115 111 104 95 102 101 99 94 95 97 98 103 116 129 137 137 139 137 144 149 145 
142 142 137 141 143 139 140 110 88 116 113 91 47 29 26 28 33 34 35 38 44 45 46 47 60 62 61 57 8 0 30 45 47 54 51 55 64 69 68 69 67 64 64 66 79 74 79 77 92 112 128 133 135 140 139 139 142 142 146 140 142 140 137 135 134 122 103 97 94 93 108 114 129 138 136 139 137 142 147 144 
139 140 137 140 141 139 142 110 84 112 110 94 58 29 27 27 33 35 33 36 39 39 43 43 54 57 58 55 12 5 25 40 47 48 50 50 57 64 60 63 60 58 58 64 71 69 65 70 108 130 149 140 148 147 148 149 146 151 152 152 147 152 152 151 147 146 132 96 99 97 105 112 129 134 137 138 139 139 146 145 
139 140 136 138 137 140 137 108 78 111 105 98 63 33 26 28 35 39 36 41 44 41 47 51 51 48 56 52 16 7 22 36 43 51 48 51 50 53 50 56 58 54 52 53 57 56 55 78 120 137 152 149 155 152 156 151 154 156 157 154 154 152 154 155 155 149 145 109 102 91 100 110 128 131 137 136 139 140 145 144 
138 138 138 138 140 139 138 103 80 106 107 93 64 32 23 30 32 36 37 35 39 40 49 47 45 46 46 44 25 25 32 35 42 50 52 56 57 60 58 59 57 59 58 56 61 67 74 108 133 139 150 150 157 156 157 157 155 157 156 157 154 155 153 159 155 150 147 110 91 93 98 112 127 131 138 136 135 139 143 144 
140 139 137 138 142 138 138 110 70 87 105 96 69 33 21 26 27 29 29 28 30 32 39 37 37 36 36 37 21 24 44 44 46 49 53 56 60 57 56 59 63 64 62 64 71 72 89 124 138 139 151 152 158 158 157 160 161 159 159 154 158 156 155 161 158 154 153 114 97 92 103 117 130 135 134 139 137 138 147 142 
137 139 135 138 139 138 139 111 65 100 105 95 72 28 19 24 23 25 25 24 27 26 30 28 26 27 27 40 46 64 74 65 51 46 52 56 53 55 56 55 59 56 60 69 77 81 106 133 144 144 153 151 160 161 163 159 161 161 159 160 161 157 159 160 158 158 156 134 104 94 109 119 125 132 135 142 136 139 143 157 
136 138 136 140 140 138 140 114 64 95 105 96 75 32 17 16 27 25 23 21 22 25 25 24 23 26 35 68 77 83 86 77 66 52 44 56 56 55 51 50 56 61 66 68 75 84 120 140 149 145 148 155 161 162 160 161 161 162 159 162 166 160 159 159 162 160 158 149 111 96 105 121 127 134 136 138 133 141 146 158 
137 135 137 140 140 141 134 109 66 97 106 94 75 51 32 33 37 38 33 36 36 29 31 35 30 41 56 74 80 87 91 87 68 53 51 49 54 53 48 55 62 65 60 67 70 95 130 144 151 148 150 154 160 164 164 159 159 162 164 165 165 161 161 166 163 159 156 157 121 100 102 118 125 133 134 140 138 138 154 158 
137 133 137 137 143 140 139 117 66 85 103 94 74 61 37 39 44 43 43 42 38 36 37 46 50 57 66 80 78 91 89 87 72 62 50 57 54 52 51 56 63 63 59 66 77 111 139 146 151 148 153 154 158 163 163 162 160 161 165 164 163 164 161 164 155 162 160 158 135 103 102 122 130 138 135 143 143 145 149 154 
134 135 132 139 147 139 140 119 65 77 102 93 81 59 45 40 41 43 42 42 41 36 39 52 57 59 68 84 76 90 91 88 72 61 59 63 59 56 58 64 65 67 69 76 94 132 146 151 155 154 156 154 158 164 163 164 164 167 165 164 163 162 162 166 161 160 160 157 148 109 112 123 134 137 137 143 144 142 154 149 
132 134 132 135 138 137 136 118 66 74 103 97 82 60 44 43 48 48 44 47 44 41 41 53 57 60 68 77 79 85 88 85 70 65 58 64 62 60 59 71 71 73 76 85 118 136 144 153 153 155 160 158 163 167 163 163 164 163 165 165 166 167 164 167 164 160 159 163 153 129 119 126 135 138 138 143 138 143 144 147 
131 130 129 137 134 134 134 122 85 71 102 97 87 67 47 53 53 59 57 58 55 50 54 61 61 63 61 74 74 88 87 82 73 73 67 74 66 67 67 70 78 79 77 100 135 140 153 149 153 157 158 159 164 165 163 164 165 165 167 163 165 164 163 169 163 161 161 163 160 147 132 128 137 137 134 140 142 138 146 145 
132 133 130 132 134 133 130 124 89 89 99 100 97 79 64 77 80 90 87 80 85 83 82 87 81 82 77 84 84 89 87 86 82 79 77 77 75 72 74 79 80 76 93 120 144 150 152 155 158 162 161 161 163 162 165 164 167 165 165 165 165 163 166 170 166 162 161 166 162 152 140 129 141 139 139 145 139 143 146 140 
131 132 131 131 134 136 136 127 97 92 95 102 89 85 90 102 106 104 101 106 106 102 107 107 104 106 103 103 98 96 106 105 100 97 98 99 100 95 95 98 98 101 119 136 148 151 156 160 161 158 165 163 168 169 165 164 168 167 167 165 167 163 164 169 170 165 161 162 161 158 151 145 139 138 139 141 140 143 145 142 
129 130 128 127 133 133 136 124 107 99 96 101 87 88 88 111 107 107 105 106 110 105 108 110 109 110 108 108 105 108 110 114 112 111 114 113 112 115 113 118 116 127 142 146 153 158 155 157 161 161 164 165 167 165 165 167 165 168 163 166 164 164 167 168 167 163 156 160 163 155 160 156 148 140 138 140 138 141 140 139 
129 129 130 129 135 134 132 126 108 107 100 103 96 92 91 100 106 111 107 107 104 99 105 111 106 108 105 105 107 104 111 113 109 110 109 114 119 113 111 115 123 137 141 148 154 154 156 154 158 156 161 160 167 166 164 166 164 163 165 162 164 162 164 168 165 157 157 160 158 159 159 158 153 150 146 145 141 139 140 140 


