P2
80 60
227
65 67 71 74 69 65 70 70 70 72 71 72 72 68 68 70 68 66 64 61 44 49 51 66 69 68 74 72 79 63 64 69 70 68 75 86 83 83 84 82 87 88 86 88 85 83 84 87 86 86 88 85 89 88 89 88 88 90 84 83 85 84 86 87 82 79 77 77 76 75 81 77 75 76 84 78 79 69 67 72 
64 58 72 68 67 70 70 70 68 73 71 70 71 69 70 68 71 66 69 55 48 41 52 65 68 69 74 70 70 62 61 62 74 75 73 82 86 83 85 84 86 85 84 86 85 86 87 88 86 87 87 84 85 85 88 88 90 84 89 87 83 82 84 82 81 78 76 79 76 73 78 74 76 76 76 77 77 73 69 68 
67 60 67 71 72 69 71 73 76 80 72 74 70 70 68 66 68 65 63 59 49 42 55 65 68 73 72 69 75 61 57 66 70 72 77 83 87 85 88 84 87 87 82 88 86 84 89 85 90 87 91 83 88 88 85 84 85 91 85 86 86 85 82 83 82 80 82 76 76 78 81 75 73 79 80 78 76 69 76 69 
62 66 69 73 66 71 81 83 81 88 86 81 71 69 70 66 68 67 65 63 49 43 53 70 67 70 76 73 74 61 58 68 72 71 73 82 86 87 86 83 85 84 85 82 84 84 86 86 88 84 88 87 87 85 87 87 87 86 87 84 86 84 83 82 81 80 81 79 78 76 77 79 76 73 76 78 78 71 72 67 
60 63 64 69 68 73 86 95 88 96 95 81 70 68 72 69 68 62 63 58 49 44 50 65 67 70 77 71 71 58 56 64 71 73 76 86 84 85 90 85 87 86 89 85 88 85 91 87 87 85 84 87 87 90 86 86 86 90 85 86 82 84 85 87 83 80 79 85 79 74 77 73 76 81 81 74 74 70 69 68 
64 64 64 71 68 74 87 96 94 94 91 87 73 70 68 69 71 65 68 56 46 48 53 64 69 70 76 77 69 62 54 64 66 66 76 81 85 86 86 86 83 88 88 83 87 86 92 85 86 85 85 86 92 85 87 87 84 90 80 85 86 85 85 85 81 80 81 83 83 75 79 73 76 77 78 74 76 69 65 71 
65 61 66 71 64 71 87 90 86 93 88 85 73 72 71 66 70 64 64 58 50 41 58 64 66 70 77 71 69 63 62 68 72 74 77 86 85 85 87 81 89 84 85 87 86 84 89 86 87 83 90 87 90 86 89 86 87 92 94 85 86 86 81 82 82 81 79 81 77 77 77 75 74 75 77 78 76 68 75 69 
63 64 65 69 65 75 77 78 84 85 88 82 75 72 67 67 67 64 60 58 53 40 57 67 70 71 77 74 72 70 62 63 73 76 74 85 86 86 87 86 83 85 85 91 87 84 92 87 86 84 84 88 88 86 88 92 89 90 88 84 83 87 86 84 82 84 80 80 77 76 78 73 76 75 74 79 71 71 73 69 
65 62 67 66 67 70 79 87 83 93 82 75 75 70 67 68 73 61 64 50 48 47 57 71 73 70 76 71 74 63 57 63 69 74 79 87 85 86 86 82 87 85 85 86 85 85 86 90 89 84 82 86 86 87 87 87 85 87 84 90 85 83 85 81 80 83 79 78 81 77 78 73 74 77 76 76 71 70 68 72 
61 63 60 68 70 66 80 88 90 92 84 76 72 67 67 69 73 66 61 54 47 38 57 63 67 73 77 76 72 64 58 68 65 71 77 82 80 82 85 84 85 85 84 85 87 83 87 83 87 84 86 83 86 85 87 83 85 89 84 86 83 85 83 81 79 80 73 79 81 74 73 72 75 76 74 75 80 68 69 67 
61 67 63 71 67 72 85 90 94 94 87 74 69 68 68 67 68 64 63 54 49 43 57 66 63 70 77 73 71 66 59 68 72 75 80 85 85 83 84 86 82 84 84 82 84 87 88 84 88 84 87 86 86 88 88 88 85 82 87 88 80 86 83 82 78 77 77 79 78 76 77 75 76 75 78 78 78 69 72 71 
63 64 66 71 69 75 82 90 91 93 90 82 72 76 66 70 64 63 59 57 45 39 55 70 70 68 73 72 72 67 61 68 75 77 72 79 82 86 85 82 86 87 87 84 86 86 89 85 88 85 86 87 84 84 87 85 84 88 88 87 84 85 87 83 80 85 81 82 83 74 72 72 79 78 76 80 76 68 72 71 
65 65 70 81 78 81 88 92 90 90 85 93 77 81 80 73 69 58 60 53 48 41 58 65 63 68 71 73 69 63 64 64 73 76 77 82 82 83 87 84 84 83 87 84 87 87 92 87 88 85 86 85 83 84 87 82 85 86 87 84 85 80 86 80 82 81 78 76 78 71 67 76 71 78 77 76 75 71 73 71 
69 71 78 86 84 84 79 84 84 87 85 82 82 87 83 87 72 60 58 53 47 43 56 66 67 68 71 69 67 61 62 66 69 77 74 86 83 83 84 85 85 84 84 83 89 91 89 89 86 89 84 86 85 86 84 88 87 91 88 88 84 83 85 82 82 83 79 79 80 74 78 73 71 80 78 76 79 72 76 69 
71 79 84 86 82 82 83 81 81 82 79 83 84 85 88 82 76 66 58 49 46 37 56 65 66 66 71 70 66 64 58 66 74 74 75 84 85 85 84 86 87 84 85 84 88 83 89 87 88 87 85 87 84 85 88 88 83 96 92 89 86 85 83 80 78 82 82 78 79 71 74 72 75 76 71 77 81 73 73 68 
79 77 78 84 79 83 83 80 82 81 74 82 83 85 82 80 77 75 58 50 40 40 52 68 63 69 73 71 67 61 65 68 72 73 78 81 84 84 83 85 85 88 86 85 87 83 88 85 87 85 85 84 86 90 86 87 83 94 88 87 86 85 87 79 84 83 81 81 80 75 73 76 75 74 75 78 80 73 74 71 
76 77 75 84 78 75 79 79 80 78 77 81 79 82 79 81 77 75 64 49 46 38 54 64 65 71 73 72 67 68 58 69 73 77 77 81 85 87 83 84 86 86 85 82 87 85 88 87 85 83 86 84 87 90 86 85 82 91 85 85 86 80 82 82 80 82 76 78 81 76 78 79 83 75 77 76 78 74 77 67 
76 74 70 80 78 77 75 78 79 78 75 80 78 79 83 82 78 73 64 53 42 39 55 65 64 66 74 74 69 63 59 66 74 72 77 83 86 86 86 86 87 84 87 84 89 84 87 89 86 84 84 84 85 87 88 82 89 94 82 85 83 83 81 81 80 80 75 79 80 78 77 78 77 73 75 76 77 75 71 69 
73 78 81 84 79 77 77 76 75 78 79 81 76 79 82 83 81 80 69 53 45 42 58 66 67 69 73 66 69 59 61 67 72 76 82 83 83 85 86 85 87 86 85 89 86 85 85 86 84 81 87 85 89 89 88 86 86 91 88 86 84 82 82 83 81 84 79 82 84 78 78 79 77 77 77 74 76 71 73 75 
73 77 78 80 79 71 71 76 73 75 80 79 81 81 81 82 79 76 68 49 44 46 66 69 66 68 75 70 65 60 65 72 72 74 76 83 85 85 86 82 90 87 90 87 89 82 87 87 84 85 84 87 86 88 86 85 87 89 86 87 84 82 85 86 80 83 80 77 79 80 81 74 77 74 73 77 77 72 71 65 
75 70 76 75 73 70 75 74 73 77 78 78 79 81 76 77 81 81 71 52 41 41 57 67 67 66 73 68 65 62 69 70 75 74 76 83 85 88 84 87 87 87 89 89 82 85 86 87 86 87 88 88 88 87 87 87 84 83 81 84 82 83 86 86 84 79 82 82 82 77 80 77 79 75 75 75 77 73 73 70 
76 77 72 78 76 71 76 77 76 80 74 78 84 78 76 81 83 80 77 58 43 40 55 69 63 69 73 72 66 63 64 68 72 74 75 82 86 87 87 84 87 87 86 81 85 80 85 85 87 84 82 85 84 87 88 88 82 86 89 86 86 85 84 86 79 83 84 83 82 79 78 76 79 77 74 74 74 70 74 69 
75 69 70 79 71 71 76 81 77 78 69 80 79 77 70 73 81 77 76 62 39 37 55 63 63 66 72 71 66 61 62 70 72 73 76 79 85 86 85 87 83 83 82 83 92 84 87 86 86 87 85 84 85 87 86 83 85 86 83 83 87 84 83 82 79 88 82 85 79 80 80 74 77 79 74 79 76 71 76 70 
73 64 71 79 74 73 81 83 74 77 73 75 78 76 67 72 76 80 78 61 42 37 54 66 65 67 70 74 67 59 60 66 72 74 75 81 82 82 84 85 83 84 86 80 87 82 87 86 82 88 84 84 89 86 83 85 86 89 86 80 84 84 81 81 81 81 84 82 79 78 81 75 74 77 77 75 77 69 71 71 
69 61 66 74 69 72 76 78 76 78 72 78 77 73 60 64 66 73 70 58 39 35 56 61 66 68 75 68 64 57 59 63 68 68 76 82 81 84 85 88 87 86 85 84 87 84 87 84 83 82 84 86 86 86 85 83 85 87 83 85 86 82 84 82 84 83 83 83 78 78 78 83 78 77 80 73 75 72 71 68 
70 63 69 78 71 74 75 78 74 74 68 78 78 68 67 65 60 65 63 49 37 39 55 63 65 66 72 65 63 56 59 60 66 70 74 84 84 83 87 85 81 84 86 84 87 86 86 88 84 84 85 82 83 87 87 82 84 89 91 85 87 85 83 83 86 79 81 85 79 77 77 74 75 75 79 72 72 71 74 66 
73 72 72 77 72 72 75 79 72 78 73 73 81 73 66 64 59 59 56 48 39 40 55 63 63 68 75 70 62 59 55 57 69 72 75 84 81 83 84 81 83 84 84 84 86 85 89 84 87 84 83 83 85 85 83 86 86 84 85 81 83 85 83 83 82 84 79 83 79 77 80 74 76 78 77 76 75 71 73 72 
68 69 77 75 73 74 76 77 74 77 69 75 76 77 61 59 56 55 48 44 38 39 53 64 65 69 72 67 60 61 56 63 68 71 71 85 81 83 83 84 85 85 88 83 84 75 86 86 86 84 84 82 85 83 84 85 84 85 84 83 87 81 83 81 83 83 78 80 81 79 76 75 75 76 70 76 77 69 73 70 
64 67 71 75 66 69 75 74 72 74 71 70 75 75 64 59 58 53 51 44 38 34 52 62 60 69 74 71 64 59 56 60 65 72 73 82 83 85 80 87 83 84 89 83 84 83 87 85 87 84 85 86 85 86 85 84 81 85 86 84 85 85 84 85 86 86 78 80 78 77 77 75 74 75 75 77 76 71 70 71 
53 62 71 68 66 70 73 72 74 74 72 73 73 73 61 62 60 53 48 40 37 35 50 58 56 63 68 66 60 58 56 63 65 69 73 85 81 86 85 79 85 82 84 84 86 84 89 86 87 84 84 85 85 85 84 90 80 82 83 83 82 84 85 83 85 83 83 82 79 73 76 75 79 71 76 74 73 71 65 71 
50 69 69 70 67 69 68 69 70 70 71 72 73 72 63 56 58 52 48 39 36 30 48 63 59 64 68 63 61 59 55 59 66 66 74 81 81 84 81 83 82 84 85 86 86 84 87 82 91 83 83 84 84 81 86 86 86 87 84 84 83 84 86 83 84 85 78 85 79 75 76 73 76 74 70 72 77 71 71 67 
53 59 62 67 64 64 67 69 66 70 68 69 68 67 63 58 61 51 51 38 33 35 52 59 66 65 69 65 61 58 54 58 68 72 72 80 81 83 81 81 86 81 85 84 88 85 87 88 87 89 84 84 87 85 81 85 86 87 83 83 86 87 84 83 84 83 82 83 81 79 74 75 75 72 73 75 72 68 67 66 
53 58 66 68 65 65 64 70 65 69 69 71 70 67 62 58 56 49 52 40 37 34 48 65 61 69 75 64 60 58 56 61 64 68 71 82 84 85 85 84 88 85 86 84 89 82 87 86 86 85 87 86 87 86 86 87 84 89 81 85 84 84 84 86 83 83 85 85 84 74 78 78 77 80 78 77 71 71 69 64 
54 58 62 66 61 57 60 67 65 69 63 67 64 62 56 58 57 52 51 43 36 26 47 59 61 63 68 62 60 61 58 61 61 68 73 82 81 82 83 81 83 86 86 84 87 85 86 88 86 87 86 88 84 88 80 86 84 86 83 82 84 86 83 85 83 86 81 85 82 74 79 78 74 75 77 77 72 71 71 66 
55 59 61 64 61 56 62 64 63 64 59 64 60 66 61 56 57 49 50 41 33 27 49 62 58 60 67 65 61 59 54 61 67 68 75 82 82 83 83 84 83 87 89 87 87 89 90 88 85 85 84 86 86 86 87 83 82 88 87 79 84 83 84 85 82 84 81 85 79 75 79 74 77 75 74 74 74 74 73 67 
52 54 58 60 59 60 62 60 61 62 58 62 63 62 59 56 57 53 50 41 35 30 51 58 59 60 66 58 61 55 54 61 64 67 76 82 82 82 83 83 86 83 89 89 86 86 92 91 86 85 85 84 87 90 88 89 85 88 86 85 85 84 84 86 85 84 80 81 82 79 77 78 74 73 78 77 71 73 70 69 
46 47 49 53 52 52 56 54 54 55 52 57 53 56 57 57 57 55 50 42 32 29 50 57 61 59 66 60 57 53 51 59 64 69 72 79 82 85 79 83 78 86 84 86 87 83 86 86 85 85 87 84 86 86 84 83 83 87 82 83 83 84 84 83 85 83 80 84 82 75 79 75 73 78 75 72 73 72 74 70 
44 47 46 52 49 49 47 55 52 48 51 50 53 51 54 51 50 52 49 43 35 30 44 58 56 61 67 56 55 51 53 62 63 66 74 77 82 81 81 79 83 84 87 85 87 84 87 87 90 85 89 84 87 84 87 88 84 88 84 84 85 83 83 84 82 86 82 80 78 80 75 78 76 75 74 72 75 74 74 74 
44 44 56 52 47 52 48 50 50 50 47 52 54 51 51 53 53 54 45 44 35 28 46 55 56 58 60 57 57 48 49 59 62 66 69 80 83 80 84 83 83 85 90 83 86 86 89 88 87 87 88 88 89 89 92 84 87 85 85 87 84 83 82 86 81 88 83 82 80 75 81 75 76 76 78 77 79 77 81 80 
40 42 42 50 43 47 48 46 48 50 49 53 49 54 51 47 52 52 49 40 37 28 44 54 55 58 59 58 54 50 47 51 59 67 71 82 81 79 81 82 81 81 83 86 84 89 94 91 87 85 89 88 91 89 90 89 83 89 85 85 85 84 81 79 88 83 78 78 81 76 78 78 78 78 77 79 80 77 85 78 
45 41 44 42 45 48 46 48 47 49 51 49 52 54 53 51 53 49 52 42 30 27 43 54 55 55 61 58 52 47 49 53 61 66 72 80 83 82 84 82 85 84 89 83 89 87 88 90 90 88 95 94 90 96 90 87 88 86 83 85 85 84 84 84 83 82 83 79 81 78 79 80 76 81 79 85 86 83 88 82 
42 44 48 48 43 49 44 42 44 49 46 49 49 54 49 50 55 50 48 42 29 25 43 50 53 56 57 52 49 45 46 53 59 65 71 80 85 80 87 81 88 89 90 83 91 87 91 91 87 88 91 91 91 95 90 88 93 88 83 88 84 82 86 84 84 85 79 78 83 83 83 83 84 81 86 87 88 88 92 90 
41 38 47 42 43 42 42 47 44 46 44 45 48 52 48 50 47 47 44 41 28 27 37 52 48 52 56 46 47 41 46 52 54 57 71 81 82 82 82 81 82 84 89 87 88 88 89 93 91 90 93 89 92 91 93 88 90 87 85 85 85 86 88 84 85 87 78 81 86 79 82 81 80 83 85 81 81 84 87 99 
42 40 43 48 39 42 43 45 45 41 45 52 49 49 48 48 52 48 48 46 27 25 39 52 50 49 52 46 47 43 44 53 61 62 70 81 82 82 83 83 87 85 88 88 91 89 93 102 96 90 90 89 93 87 94 89 89 88 86 87 84 85 85 87 85 89 83 84 83 85 90 86 85 87 81 82 81 85 86 113 
36 39 39 39 36 39 39 42 39 47 43 43 44 48 49 46 48 49 45 39 29 23 34 48 52 48 49 41 44 41 43 50 53 58 66 77 81 79 85 81 86 87 85 84 88 92 93 92 93 88 89 88 88 87 90 91 91 94 88 86 86 89 88 88 90 88 86 89 86 79 85 81 80 76 83 76 77 78 86 109 
34 32 36 42 35 37 40 41 40 43 40 46 43 46 48 45 46 44 43 40 28 21 37 49 51 45 48 41 39 36 40 47 54 55 69 81 79 81 80 82 84 83 85 86 90 93 95 91 98 91 98 95 91 92 96 93 92 91 91 90 89 90 90 87 90 94 91 91 88 82 88 80 81 79 81 79 74 72 89 119 
31 31 33 38 35 35 37 39 38 40 44 46 44 45 45 42 44 39 41 36 24 23 30 45 47 50 53 38 37 38 40 45 55 57 63 78 78 81 82 79 82 86 86 89 93 95 95 96 113 118 130 132 117 98 102 94 91 93 92 94 92 92 89 89 93 93 92 88 84 81 84 86 79 80 76 76 73 74 98 130 
32 34 34 37 34 38 38 39 36 37 39 42 44 44 41 41 39 40 42 40 24 24 32 43 48 44 50 43 39 34 34 45 50 53 68 76 80 78 82 80 84 88 87 87 94 91 98 97 135 157 172 181 171 136 114 100 91 97 96 94 94 92 93 94 90 92 88 89 84 81 86 77 78 79 79 75 74 78 105 130 
33 30 39 34 35 33 34 37 31 36 35 38 37 40 41 39 43 39 36 36 21 20 32 45 43 48 46 43 35 33 33 43 46 54 63 70 80 81 81 84 88 87 89 90 92 91 97 100 144 169 178 183 185 162 119 102 97 100 102 97 95 91 97 93 96 91 86 87 83 78 80 76 77 76 79 80 77 84 107 130 
32 29 33 29 28 29 30 30 31 32 30 31 34 36 35 40 39 38 39 31 23 15 26 38 43 41 45 37 32 31 28 38 45 51 63 69 78 79 80 82 83 85 85 88 89 91 97 100 149 172 183 190 187 163 121 100 100 112 107 103 95 96 98 94 95 89 82 86 83 81 81 76 74 77 76 77 82 85 116 141 
27 26 30 28 27 27 27 27 26 26 27 30 28 34 31 31 37 35 32 31 19 14 27 34 38 43 40 37 31 28 28 39 45 49 63 72 74 76 82 80 82 82 86 84 90 88 94 103 148 181 203 203 197 176 128 106 110 110 110 112 105 100 95 91 92 85 80 84 86 81 78 76 77 76 78 76 83 92 123 141 
23 24 25 19 25 22 24 18 19 19 22 23 22 22 23 29 26 27 24 25 17 11 20 31 37 37 37 32 34 26 27 35 42 48 62 70 75 78 75 76 79 82 80 82 90 89 91 98 147 190 222 224 224 184 135 107 111 105 103 99 97 90 87 85 84 83 82 79 83 78 78 75 75 74 74 73 84 92 129 143 
14 16 19 16 18 17 17 15 14 21 20 21 17 22 18 17 18 14 8 11 12 7 18 32 37 40 40 33 32 27 26 35 42 44 54 69 75 75 80 79 80 79 83 87 89 90 97 98 137 183 219 227 220 180 134 102 96 98 99 92 91 88 85 84 83 88 79 82 86 79 81 75 77 77 81 82 87 102 141 147 
11 15 12 17 20 16 11 12 11 16 13 16 15 16 14 18 18 16 12 19 14 10 17 34 32 38 37 32 33 23 24 35 39 43 55 69 71 76 78 78 85 81 84 80 89 90 97 98 124 158 184 188 181 173 145 104 97 98 91 85 89 85 86 85 81 83 79 82 83 77 80 78 78 79 80 80 88 114 147 143 
8 0 8 12 13 13 19 18 18 35 31 39 38 43 37 40 40 35 38 34 30 22 20 25 28 31 38 31 28 25 23 37 40 43 52 64 70 69 77 73 76 79 82 82 86 87 95 103 128 149 159 163 168 165 154 136 105 96 89 87 84 83 83 82 80 79 76 84 83 76 82 78 78 79 81 83 98 121 151 147 
16 19 29 38 44 44 56 61 72 68 76 81 77 82 80 74 79 79 78 78 74 53 38 34 30 33 41 29 28 22 21 33 37 41 54 63 68 68 77 76 79 77 82 85 86 86 102 114 134 141 152 153 153 157 152 151 135 99 89 87 87 87 82 81 88 87 82 86 87 82 89 76 77 83 78 81 100 129 156 149 
60 69 71 83 83 82 81 86 86 91 89 97 97 90 93 93 87 94 90 93 90 89 69 36 31 31 33 30 27 20 22 34 37 41 52 65 69 76 74 73 80 82 83 84 86 91 110 128 142 134 141 143 147 147 147 146 138 127 96 90 86 86 87 82 87 85 86 91 91 90 89 86 87 85 86 91 113 145 158 147 
81 82 86 89 89 87 91 89 89 94 92 97 97 95 94 92 94 94 91 96 98 89 87 49 25 28 31 25 29 23 18 34 38 39 51 67 71 71 75 75 76 80 81 81 83 98 117 127 130 135 138 137 136 139 140 143 135 134 109 86 86 85 86 86 82 88 87 89 88 84 89 88 84 91 84 95 117 152 156 148 
88 91 90 96 93 93 96 91 97 100 96 96 96 97 98 94 95 95 92 95 97 96 94 62 25 20 23 25 28 27 25 34 35 41 52 66 67 71 78 80 78 76 78 83 91 99 120 117 127 129 133 133 131 136 138 139 134 133 119 93 87 84 83 86 88 84 87 87 95 88 95 89 95 93 91 99 136 161 152 150 
94 90 93 96 86 87 95 92 99 99 98 102 99 93 95 98 98 98 95 100 93 98 97 67 28 27 23 26 28 22 20 37 34 39 56 63 75 74 74 78 80 81 85 87 93 104 114 110 120 124 124 128 134 137 137 140 128 131 121 97 84 84 80 84 81 85 82 86 94 89 86 88 92 87 101 108 149 170 154 149 


