P2
80 60
136
119 117 118 119 117 117 113 115 124 124 117 116 116 112 115 112 112 119 118 111 116 113 115 115 113 114 113 115 118 117 113 108 111 108 115 116 115 117 114 116 116 119 121 123 124 123 123 123 124 124 126 125 127 126 124 126 129 129 125 118 119 119 117 119 117 118 115 110 111 113 112 112 113 113 112 111 110 107 109 111 
118 119 121 116 120 115 113 120 121 116 116 115 118 111 113 114 118 115 119 117 119 117 116 115 114 114 117 117 121 120 115 111 110 112 117 117 116 116 116 115 118 119 122 121 127 124 121 130 128 125 128 128 123 124 130 132 134 129 123 118 115 117 115 120 115 116 113 114 109 112 111 113 112 113 111 113 114 109 113 109 
127 124 117 117 117 117 118 117 122 118 117 119 119 112 116 114 119 113 114 114 117 116 117 116 112 115 117 117 116 118 111 111 107 107 115 118 116 117 115 118 118 121 122 123 125 123 123 128 128 129 128 131 125 124 127 129 126 129 120 119 118 116 111 122 116 118 115 116 115 112 115 116 113 114 113 112 116 114 112 111 
121 124 120 117 114 120 117 118 120 120 120 117 118 116 115 114 118 115 114 116 119 115 114 118 116 118 120 116 127 118 112 108 107 111 117 117 118 122 118 120 120 120 121 120 123 122 122 127 133 126 127 129 124 123 127 126 123 123 120 121 121 115 114 117 117 115 115 115 115 117 112 123 113 113 111 109 114 110 112 111 
123 123 119 119 117 121 121 113 121 117 119 119 119 115 115 117 118 118 116 116 114 115 114 112 118 115 122 118 118 117 108 102 107 107 112 119 118 120 119 119 116 120 121 122 123 123 122 126 129 125 127 128 125 123 125 124 122 120 120 120 121 117 112 121 117 117 118 116 116 120 115 116 111 116 112 112 111 108 112 113 
123 120 121 117 120 122 114 111 122 117 118 118 116 116 115 117 115 117 116 119 117 116 115 120 115 122 120 121 121 109 105 107 104 111 114 118 118 118 117 118 116 121 119 120 123 119 123 127 128 125 125 129 131 123 126 119 123 117 123 122 121 118 112 119 118 113 116 118 121 117 118 114 117 112 109 113 117 113 106 109 
121 122 119 121 121 118 118 115 118 120 124 118 117 117 115 114 122 121 120 118 118 118 115 118 116 117 119 119 121 114 105 104 105 114 118 122 120 121 118 120 118 121 121 123 122 122 122 125 127 126 125 130 128 122 125 126 122 126 127 122 119 117 116 120 119 115 114 118 119 115 113 115 114 116 112 113 115 111 108 114 
121 122 118 119 118 123 117 119 121 116 124 117 117 117 117 114 118 119 118 118 121 118 117 118 119 117 114 117 119 111 103 107 106 114 116 120 119 119 117 118 116 121 120 122 123 120 124 123 123 127 127 127 126 123 124 124 123 120 120 118 119 118 117 121 120 117 114 118 121 117 115 113 113 114 109 109 106 110 110 112 
127 121 119 119 118 122 118 118 119 119 123 120 117 115 115 114 118 118 121 115 116 117 114 118 115 114 113 114 122 110 105 103 108 113 113 118 117 118 118 115 114 121 119 121 121 123 121 123 123 124 125 130 125 131 125 123 122 119 116 118 115 115 120 119 118 119 120 118 118 117 114 115 113 116 111 108 110 108 112 107 
123 125 120 118 120 121 116 118 120 119 118 119 116 115 114 115 121 118 118 118 115 115 115 115 117 117 117 114 117 109 98 103 107 111 114 115 115 113 115 115 115 118 117 115 119 119 121 123 123 126 122 124 124 124 122 120 115 107 118 117 119 118 119 118 119 114 117 118 116 114 114 119 108 111 108 110 110 108 111 109 
116 122 123 120 120 119 125 113 120 119 118 120 116 114 116 116 116 117 115 117 116 118 112 112 116 116 117 114 112 103 102 101 111 111 113 114 116 113 111 115 114 117 115 115 119 121 121 126 126 121 124 124 126 121 118 121 120 120 121 119 115 116 119 120 115 116 117 119 111 114 114 115 111 111 108 111 111 109 106 107 
125 124 124 120 124 120 121 118 120 117 118 113 116 112 112 112 118 110 113 117 117 114 112 114 112 114 113 114 110 105 103 101 107 115 112 113 111 117 112 113 116 116 113 116 121 117 120 123 127 124 122 125 124 115 120 118 117 118 117 116 117 117 116 116 115 116 113 114 112 111 111 112 108 111 110 114 110 106 108 107 
123 136 122 125 123 118 117 115 118 116 122 120 115 113 111 116 114 115 116 116 120 117 112 117 115 117 117 113 108 108 98 107 113 113 114 112 117 115 117 110 114 115 117 116 124 120 123 127 130 129 121 125 122 121 122 119 116 118 118 119 117 116 120 116 121 118 119 115 112 115 105 109 107 111 110 114 108 111 108 106 
126 128 120 121 118 119 116 111 117 116 117 118 117 111 111 113 114 116 114 116 114 111 113 112 110 112 112 110 108 105 101 106 111 113 114 114 114 117 111 110 117 116 115 114 117 126 123 123 128 129 123 124 124 122 119 121 116 120 123 117 118 116 119 119 121 119 117 114 112 109 112 109 112 114 110 113 115 110 107 111 
128 125 121 119 120 119 115 113 118 116 118 114 115 114 111 112 110 114 113 113 113 110 114 115 115 114 109 105 105 108 101 107 108 109 111 113 111 111 109 113 117 119 115 110 118 122 123 124 120 125 121 123 124 120 124 120 120 134 123 117 116 118 117 119 120 116 115 114 116 112 110 112 112 118 110 112 112 112 108 110 
126 127 122 120 124 119 115 117 124 121 118 115 114 110 112 113 110 112 112 113 114 115 114 112 116 116 110 108 104 107 100 103 108 110 110 115 109 110 116 112 117 117 114 114 118 120 123 127 127 124 121 125 123 124 123 117 119 125 126 122 119 118 118 119 117 117 120 115 118 114 113 116 115 117 111 116 112 115 111 115 
130 127 122 118 116 121 114 113 120 115 118 113 109 110 112 113 113 112 112 113 109 112 112 111 108 111 106 103 101 97 100 104 107 111 111 111 110 109 110 110 112 113 113 113 118 119 119 124 119 119 121 122 121 124 119 117 119 123 124 117 120 118 111 118 114 112 114 116 116 111 116 118 118 117 109 110 109 109 108 110 
125 130 121 120 119 116 115 112 117 114 115 117 113 109 110 111 113 112 111 110 111 111 108 111 108 111 104 104 100 93 103 107 109 107 108 109 108 110 110 111 112 110 111 113 115 117 118 117 115 117 118 122 124 122 119 115 117 125 120 115 116 114 110 120 121 113 115 115 112 111 113 116 110 113 107 106 106 108 106 109 
123 123 116 120 120 118 115 108 115 110 115 118 109 110 108 110 113 112 112 110 113 108 111 109 111 110 110 97 98 99 104 108 109 108 108 111 108 109 111 113 111 109 111 113 116 114 116 116 116 116 115 122 122 119 116 119 118 119 118 116 115 113 114 120 118 113 116 115 112 111 115 110 108 114 106 105 106 107 106 106 
121 122 116 121 116 121 114 109 111 112 115 113 110 107 110 112 113 109 109 108 114 115 116 110 112 108 104 98 98 99 106 106 110 106 106 106 104 111 111 114 111 108 112 110 114 113 115 116 115 117 116 119 120 116 113 119 115 119 119 116 115 115 114 115 116 111 114 116 110 111 109 112 108 110 106 109 108 107 107 108 
120 122 115 115 116 118 116 114 112 111 113 114 112 113 114 112 108 111 109 109 109 111 108 109 108 106 99 99 99 101 108 104 107 105 105 107 105 109 108 110 111 110 108 110 113 112 115 117 114 115 114 117 121 115 114 112 117 120 119 117 117 112 114 112 113 111 111 111 109 110 107 111 108 107 104 108 106 106 107 111 
121 123 120 118 117 113 118 111 113 110 117 114 118 112 111 107 112 110 108 105 109 110 108 105 106 104 99 96 99 96 100 103 107 104 105 104 105 107 106 113 105 109 110 108 112 113 111 118 119 118 115 119 121 115 115 115 114 116 120 117 117 111 116 116 121 114 110 111 112 114 113 110 113 110 105 107 109 107 109 109 
121 122 116 119 117 114 113 113 113 108 111 111 110 109 108 107 110 110 109 109 109 108 107 107 106 100 86 90 96 94 98 101 105 101 102 105 102 105 108 108 103 105 108 110 112 111 112 115 115 116 116 117 117 112 113 113 112 116 117 114 114 111 113 118 115 117 113 111 113 114 114 112 111 111 107 109 110 108 107 110 
119 118 117 118 112 115 111 115 111 109 114 112 112 110 108 109 106 113 106 107 110 106 105 104 102 74 58 79 87 94 97 99 100 101 101 100 100 104 106 104 102 107 107 111 112 109 111 111 111 114 113 115 114 108 113 115 116 118 118 120 111 111 113 114 115 112 115 111 116 116 112 109 112 110 105 108 107 107 108 112 
119 119 119 110 117 110 115 111 116 110 113 109 111 108 107 107 108 108 110 107 105 110 106 105 98 55 34 74 90 96 95 98 98 97 101 98 100 104 107 104 101 102 105 108 112 113 110 109 111 115 111 112 109 108 114 115 114 118 116 114 114 113 112 112 112 109 109 109 112 109 109 109 108 114 107 107 110 109 108 111 
120 118 113 111 110 115 111 108 108 107 110 108 108 109 112 108 108 105 108 106 107 108 106 106 91 38 39 60 88 91 97 97 96 98 96 97 99 101 103 106 101 106 104 108 110 111 109 114 108 109 108 114 107 113 112 113 113 111 117 116 115 113 109 110 116 111 110 108 107 112 110 109 107 110 111 111 111 110 107 108 
115 118 111 113 112 112 114 106 107 109 109 111 110 108 107 108 108 108 107 107 106 105 108 106 89 21 9 56 93 94 95 97 97 96 97 96 98 98 101 101 100 104 108 107 110 107 112 112 108 112 106 110 105 108 108 115 109 114 113 117 116 108 110 111 112 114 110 110 113 112 111 111 108 111 105 107 108 107 111 110 
115 116 113 113 113 109 108 106 114 108 109 107 106 105 107 106 111 109 110 106 106 104 108 104 73 10 15 69 89 94 94 95 95 94 96 97 97 103 106 102 100 103 107 107 109 113 113 108 112 113 107 115 106 107 109 112 110 112 114 115 115 112 111 111 112 109 109 113 113 112 108 111 109 113 110 105 110 113 110 111 
117 117 114 110 112 108 108 109 109 109 110 109 103 105 106 107 107 108 105 106 104 105 105 103 61 5 17 69 89 91 97 94 95 94 94 98 99 101 102 101 99 104 108 105 110 108 111 111 110 108 112 107 104 106 109 110 110 109 111 112 111 110 107 110 111 110 111 112 107 112 110 107 105 106 108 105 106 107 108 103 
121 118 115 111 109 113 109 106 116 108 109 105 105 105 105 102 108 107 106 102 105 104 102 95 48 13 26 76 89 90 95 98 94 94 94 96 98 99 101 99 100 101 107 108 108 105 111 113 108 109 111 109 105 106 111 116 109 112 112 112 111 106 107 109 109 115 115 112 111 110 108 107 107 107 105 104 107 107 109 104 
114 117 112 109 111 110 108 108 109 103 108 103 104 104 101 101 109 108 101 102 100 101 101 92 36 5 28 77 89 93 93 93 92 91 95 92 96 99 104 96 99 105 111 107 108 109 110 110 108 110 107 109 107 107 114 111 110 111 109 108 109 107 111 114 108 111 111 111 107 108 104 110 107 110 104 112 104 109 105 105 
113 115 112 110 108 107 107 103 108 103 105 102 101 102 102 103 109 106 105 101 101 102 99 86 28 0 30 80 93 90 93 92 91 94 92 91 95 99 100 97 102 106 105 107 110 108 109 109 110 111 105 105 108 109 111 110 109 110 109 110 112 110 105 109 111 105 111 110 109 113 106 111 108 111 109 108 106 107 104 106 
110 114 107 110 111 106 104 104 105 103 109 103 103 99 101 101 106 105 99 102 101 96 98 80 18 7 32 85 91 93 93 93 93 92 91 87 89 97 96 95 100 103 104 104 110 110 104 106 109 107 106 101 104 106 110 113 110 111 108 108 108 109 112 110 112 111 109 112 113 110 111 110 105 112 104 103 108 103 105 106 
114 107 107 107 111 103 102 102 107 102 104 103 99 101 100 100 103 104 99 100 98 102 95 70 5 4 36 82 92 91 94 92 94 89 87 86 90 92 93 97 98 102 104 102 108 109 107 107 105 105 106 105 108 111 109 110 107 109 108 103 104 106 107 108 110 108 112 110 108 107 111 112 102 108 103 103 103 103 103 101 
110 112 107 105 109 108 104 104 110 102 98 105 102 98 101 97 103 101 98 100 99 95 95 69 8 15 43 80 95 95 92 96 90 86 85 81 85 92 89 93 100 106 104 105 106 108 107 105 102 104 104 104 107 108 111 111 106 112 107 103 106 105 106 108 107 106 107 109 107 108 108 106 106 106 101 101 103 104 104 102 
112 110 107 106 110 108 105 102 107 100 99 102 102 95 98 98 102 102 101 100 101 101 96 81 31 27 59 87 93 97 94 90 88 90 81 84 87 89 88 93 96 103 105 104 105 103 102 103 103 105 101 107 108 107 112 112 107 110 109 104 102 102 101 107 107 106 107 106 107 104 105 102 101 105 102 100 99 109 107 107 
106 108 104 101 106 105 102 101 103 102 104 99 99 95 100 96 96 98 99 99 100 97 98 78 61 56 80 87 97 92 93 80 84 85 81 86 88 91 89 89 95 98 103 102 107 101 100 103 102 105 100 108 107 105 108 106 108 104 104 105 103 99 101 106 107 104 107 106 110 105 105 104 101 105 101 103 105 106 107 104 
106 106 106 104 106 106 102 103 102 99 104 100 103 97 99 99 97 102 100 97 95 102 95 86 81 79 85 91 94 94 90 83 79 82 82 86 83 86 88 92 96 99 103 102 103 102 98 103 101 103 99 102 108 108 106 109 103 104 105 102 104 100 101 102 105 109 105 106 105 105 102 102 102 101 101 105 107 107 105 104 
106 112 111 105 104 105 100 102 102 105 109 105 99 98 98 98 98 102 97 97 95 99 92 89 87 93 95 94 98 96 95 84 84 84 82 82 83 84 92 90 94 99 100 100 100 101 100 102 102 104 106 106 111 109 111 105 108 101 103 103 101 97 100 103 104 104 102 104 103 104 101 104 100 103 100 103 106 105 108 106 
110 114 105 104 103 101 101 101 105 108 113 102 97 99 98 95 98 104 99 95 96 96 97 88 94 96 97 96 99 105 92 87 82 81 82 83 86 89 87 88 92 97 97 99 98 100 104 103 104 99 101 107 110 110 110 106 103 102 102 101 97 93 100 103 103 104 104 104 105 102 99 99 98 103 100 102 105 110 109 108 
108 113 105 104 100 102 98 98 102 100 100 98 99 98 95 95 96 100 98 92 96 93 89 88 94 96 100 98 102 98 95 93 90 86 86 82 81 83 85 91 91 98 98 98 98 103 99 103 102 100 106 114 109 112 109 102 104 100 98 99 100 99 100 100 104 103 102 101 103 102 99 102 95 103 98 103 105 109 115 108 
106 111 109 108 102 101 100 100 102 101 104 99 100 99 98 98 97 98 100 95 92 96 89 90 92 96 99 98 98 97 98 93 92 93 87 88 86 88 87 91 91 98 97 98 95 101 99 106 99 96 102 106 112 107 104 101 104 99 100 100 99 99 100 104 110 98 103 103 101 100 103 101 103 99 100 101 101 111 107 108 
108 113 110 103 101 100 96 97 102 100 100 96 99 98 100 100 96 100 98 94 95 100 94 90 93 94 96 99 101 98 94 93 92 92 92 91 84 86 88 91 90 95 97 94 100 97 102 97 100 98 107 108 106 101 106 103 101 99 102 99 99 99 102 105 104 104 103 102 101 103 100 103 97 101 99 100 106 104 103 105 
111 109 107 107 104 101 96 94 101 96 99 100 102 97 98 94 99 97 98 93 97 98 92 88 93 94 95 95 102 94 99 96 94 91 91 91 84 87 86 93 92 95 97 96 98 97 98 106 100 96 102 103 110 105 100 100 98 97 97 98 102 100 103 101 107 102 99 104 100 99 100 104 99 103 97 99 101 100 102 103 
107 106 107 103 106 100 96 94 96 94 99 97 97 98 96 93 97 96 93 95 98 93 91 88 91 94 92 95 98 98 97 95 94 95 94 92 89 90 88 89 91 95 98 96 97 97 97 100 98 99 102 109 106 103 100 99 95 100 96 97 100 97 98 103 102 101 104 98 99 97 103 97 98 99 95 97 100 100 99 98 
106 104 103 103 107 100 97 95 98 99 105 96 99 101 99 98 100 98 95 96 91 91 91 87 92 95 96 96 98 98 98 95 95 94 94 94 92 93 90 95 94 98 100 95 100 103 95 96 92 99 105 110 105 99 99 98 95 96 98 97 99 98 99 103 101 103 100 102 102 101 101 101 99 101 103 102 98 99 101 104 
104 104 100 101 100 100 96 93 98 100 103 100 99 99 97 99 99 96 96 95 95 94 88 86 91 94 94 93 99 94 99 97 94 92 95 95 96 93 95 91 95 98 101 96 101 105 100 99 94 99 102 108 103 99 98 95 97 98 98 99 96 94 98 101 102 97 99 100 100 98 99 99 99 103 96 99 99 98 100 98 
98 106 101 97 98 99 96 98 97 99 97 97 99 98 95 98 96 97 94 91 89 92 87 86 85 93 93 95 98 98 96 95 93 93 93 94 95 95 97 97 95 103 100 98 105 102 101 95 93 99 103 106 102 99 99 97 96 99 99 102 96 95 96 99 99 98 102 101 97 98 99 98 98 99 100 95 97 97 99 102 
104 102 100 99 98 98 100 93 102 96 95 95 97 97 95 97 94 97 93 89 94 93 90 88 85 94 91 93 101 95 95 92 93 92 94 95 93 95 95 98 98 99 98 100 106 102 99 95 88 99 101 105 100 96 99 100 98 96 99 94 98 95 99 97 101 100 97 98 96 96 95 99 97 102 97 98 98 97 95 100 
100 108 102 100 97 95 94 95 94 92 95 95 97 93 98 98 95 97 95 90 92 90 82 85 86 90 89 92 98 95 95 93 93 95 95 93 94 95 97 97 98 101 99 100 102 100 105 95 92 93 95 100 97 98 99 100 97 98 98 96 99 97 98 97 99 93 96 97 95 98 99 99 98 98 90 95 95 95 97 104 
100 107 101 102 99 96 100 94 97 97 95 96 95 99 95 96 95 96 98 93 90 90 86 84 88 90 93 92 96 95 95 93 94 97 97 97 93 97 98 100 97 99 103 100 103 102 100 89 92 100 95 99 95 96 98 103 99 96 98 98 98 96 95 98 97 96 97 96 96 100 97 97 98 94 93 98 97 99 99 100 
101 102 103 103 100 99 98 98 96 94 94 94 93 97 94 96 95 96 97 93 95 82 86 88 87 94 93 95 95 93 94 93 95 99 98 95 99 96 98 96 98 99 101 100 103 99 98 89 94 98 97 97 93 96 95 99 98 97 97 98 94 95 96 96 98 96 100 97 96 98 98 96 96 97 97 98 96 93 96 103 
106 104 96 94 101 101 98 95 98 93 97 99 94 97 95 92 96 93 95 91 86 84 84 89 90 95 92 93 94 91 95 95 92 96 96 95 91 94 96 96 96 99 98 100 100 97 98 91 92 99 97 92 94 94 99 97 98 96 95 97 96 95 96 96 97 96 94 95 94 96 95 96 94 95 94 96 96 97 98 101 
107 104 100 100 105 101 98 95 97 94 96 97 100 97 98 96 95 95 96 87 87 88 86 91 95 94 93 96 97 96 95 94 97 96 94 95 95 94 95 96 95 96 98 101 99 99 95 93 95 94 94 94 92 94 96 99 99 95 96 95 94 95 96 98 94 96 98 96 98 96 96 96 93 93 95 96 100 98 99 101 
100 103 100 100 99 102 101 99 98 98 99 101 101 98 99 95 98 93 98 91 87 90 91 91 92 93 99 95 97 94 93 94 95 95 95 93 93 96 93 94 95 98 97 100 99 95 88 91 100 99 97 91 94 95 94 99 99 97 95 92 94 92 95 98 95 98 98 95 95 92 99 92 94 95 92 97 99 100 96 102 
98 101 98 97 101 101 97 97 98 103 103 100 103 99 99 96 101 103 98 86 88 92 90 95 95 94 93 94 98 96 93 93 93 94 93 94 92 94 92 92 95 98 98 101 101 93 87 91 97 97 93 91 91 91 94 93 95 95 92 94 94 94 95 94 97 95 97 99 96 100 98 95 94 93 92 95 98 94 101 101 
102 103 99 100 97 98 99 98 99 99 103 104 108 102 98 98 100 99 98 98 88 90 90 89 90 91 88 93 100 95 93 92 91 94 92 94 90 92 92 95 101 99 95 95 99 92 92 95 98 97 92 92 91 89 93 96 95 95 93 99 98 93 98 97 99 98 95 96 100 96 96 97 94 92 92 97 98 98 94 101 
104 104 98 101 98 97 98 97 101 102 103 104 103 100 99 98 102 102 99 94 90 89 91 87 87 85 85 90 92 94 92 91 91 93 92 90 88 91 91 91 92 99 98 99 102 94 90 104 98 103 93 94 96 93 92 95 97 100 97 98 97 97 98 103 108 101 97 97 104 99 101 99 99 104 96 99 97 100 95 103 
104 108 99 99 99 100 99 97 97 98 99 102 100 102 98 97 101 97 99 92 89 89 86 92 87 84 82 86 92 88 87 88 87 89 87 88 92 92 90 90 95 97 94 98 99 87 95 98 96 98 94 98 93 95 96 99 96 97 100 102 98 98 104 104 106 104 101 104 101 101 98 100 102 102 96 99 100 96 98 101 
102 102 101 101 98 99 98 100 97 93 103 101 99 102 98 97 98 100 94 95 93 89 92 89 90 87 89 88 87 90 89 90 89 89 89 91 91 91 89 88 93 96 92 93 96 92 95 101 98 97 95 98 99 100 101 102 100 101 104 104 105 107 107 105 106 104 104 103 105 99 104 103 100 102 97 100 100 99 99 100 


