P2
80 60
294
152 154 153 149 152 152 143 144 148 150 145 147 142 142 136 115 62 75 103 106 108 114 116 120 116 115 118 119 120 121 122 120 125 123 124 126 114 112 118 122 119 124 133 133 134 134 137 132 138 141 134 138 136 140 137 140 140 138 143 135 133 136 134 127 127 126 125 130 135 135 137 140 141 145 144 143 141 143 141 140 
153 152 153 151 150 141 142 146 143 146 147 145 145 141 137 103 50 71 101 105 104 110 118 119 113 116 125 123 122 119 121 120 122 124 123 123 111 110 118 127 117 127 132 135 138 139 137 135 136 138 136 136 135 136 142 139 144 137 138 132 136 136 129 124 129 125 131 134 135 131 138 142 139 141 145 144 145 142 143 144 
149 152 156 146 153 151 143 143 145 147 146 143 143 139 129 85 36 52 97 108 102 112 116 120 119 116 123 119 120 121 121 121 119 123 126 121 111 111 118 125 119 122 131 134 138 138 135 138 135 132 134 136 138 140 137 139 140 137 139 134 134 138 129 127 128 124 132 134 134 135 141 144 140 138 144 145 148 146 151 143 
150 156 152 150 146 152 143 145 143 147 149 142 141 139 127 73 30 45 92 104 101 115 118 120 117 116 119 122 124 119 119 121 122 118 124 118 107 116 120 124 117 127 136 134 137 139 139 135 140 137 136 137 137 141 138 141 135 136 139 137 139 136 131 128 127 126 132 136 139 136 140 145 139 141 146 144 148 150 155 146 
152 153 151 153 150 146 146 143 142 148 146 144 139 141 126 61 25 40 84 103 101 112 119 122 123 118 121 120 119 118 123 120 120 121 119 121 109 116 125 123 112 129 136 137 137 137 142 136 138 138 137 138 138 140 133 138 139 131 137 134 137 137 131 129 130 131 132 139 138 138 141 145 142 140 146 143 149 148 145 146 
150 154 151 151 145 142 144 141 146 147 148 141 138 137 119 48 27 45 81 98 99 118 119 122 127 117 120 120 118 118 125 118 119 118 119 110 107 117 120 123 114 127 138 135 136 137 141 138 141 141 141 142 136 139 136 139 137 133 139 136 135 135 128 128 130 132 131 140 144 137 137 141 138 139 143 145 144 145 144 145 
153 151 152 151 145 144 141 138 146 148 148 138 140 138 114 41 30 44 80 93 102 117 122 122 117 120 122 122 118 120 128 125 121 120 116 115 106 118 123 123 112 129 135 135 135 141 139 142 137 137 140 143 138 138 139 138 139 141 139 136 134 134 128 129 129 130 133 138 139 139 135 138 140 141 144 143 147 141 142 140 
151 154 155 152 150 147 140 143 143 147 144 141 137 133 107 37 32 52 79 93 106 115 118 118 118 120 120 121 119 119 121 118 118 120 118 114 107 120 120 122 115 128 135 133 136 140 141 137 138 138 139 141 143 139 139 143 139 138 139 135 138 134 131 126 130 133 134 139 138 136 140 141 140 143 144 142 146 143 143 141 
159 155 156 151 149 143 140 141 144 149 145 140 138 128 100 34 31 63 81 92 107 116 112 117 118 118 118 117 120 122 121 121 119 121 119 115 106 119 119 117 112 129 133 133 135 138 138 135 138 138 139 139 139 142 136 141 137 135 136 137 133 132 130 129 129 131 134 134 139 140 138 139 140 139 140 143 143 141 143 140 
152 153 153 153 145 144 144 144 148 147 141 139 137 130 96 33 41 60 84 88 100 111 112 113 114 116 118 119 117 120 116 119 120 121 117 112 109 119 117 117 113 126 135 131 137 139 134 136 138 137 139 135 139 139 140 136 138 132 135 139 134 134 134 129 129 133 134 136 139 136 141 141 139 140 140 139 146 141 146 137 
152 152 151 154 142 144 143 147 145 145 143 138 130 132 92 19 23 49 78 86 98 106 106 112 110 110 117 117 118 116 115 117 118 118 116 112 106 117 119 116 115 128 133 133 137 135 135 135 136 138 136 139 136 140 138 140 139 134 139 132 133 135 128 127 128 130 134 137 135 137 136 138 140 139 138 143 146 143 143 143 
150 153 153 151 144 141 141 143 143 141 139 137 128 123 82 10 4 32 50 77 93 101 104 108 103 108 112 116 117 117 117 117 117 121 114 108 104 117 117 114 114 128 131 134 136 133 139 136 135 136 139 137 138 140 138 137 140 134 135 135 133 130 131 127 128 128 133 136 138 133 137 138 135 142 141 146 147 144 146 136 
154 154 148 157 143 135 138 141 142 146 140 135 127 124 74 7 7 25 49 73 97 98 102 105 104 101 110 117 115 117 118 116 119 120 111 106 103 116 116 115 114 130 134 136 136 137 139 134 134 135 138 139 137 137 138 137 138 135 135 132 134 134 135 127 130 130 133 136 136 134 128 139 136 142 143 141 148 144 145 139 
147 154 150 149 145 139 137 144 140 143 145 137 130 120 66 8 5 20 47 72 90 97 94 103 101 98 107 114 109 114 116 115 118 122 114 104 105 115 117 113 114 130 132 132 136 138 138 136 139 140 139 139 135 138 135 139 138 137 139 137 134 132 129 131 131 132 134 137 135 136 137 138 138 143 139 142 144 145 139 140 
148 150 150 145 141 138 131 141 143 143 142 134 129 122 62 3 4 24 55 66 76 87 91 101 95 98 107 109 110 115 114 114 113 120 110 107 107 115 116 112 111 131 134 133 132 136 136 137 137 139 140 139 137 135 136 138 143 147 139 136 133 134 130 126 130 130 133 136 136 135 136 139 137 142 141 142 143 142 142 139 
147 149 147 148 138 128 122 133 144 145 143 137 133 118 61 8 4 25 54 65 77 81 88 97 93 98 108 115 116 116 114 117 116 118 112 104 108 118 110 108 113 132 133 132 133 134 139 135 138 137 143 138 137 140 139 141 139 139 141 137 134 134 129 123 130 135 135 137 139 136 137 142 138 141 142 142 147 142 141 139 
149 149 147 144 138 124 118 133 142 142 141 138 128 117 53 8 9 25 50 62 76 73 82 91 94 95 116 125 121 114 113 113 116 117 110 103 109 116 111 107 114 129 132 131 131 142 137 134 133 140 137 136 136 141 139 142 141 139 138 136 133 135 131 124 130 132 136 139 139 138 138 147 146 140 143 141 142 147 148 144 
149 152 145 147 134 116 116 132 144 145 145 145 132 111 53 9 10 23 50 67 73 76 82 90 94 103 117 127 127 114 115 113 119 119 109 102 110 119 112 113 117 132 129 134 135 134 135 132 134 139 137 135 137 142 143 139 138 143 141 139 131 134 129 126 132 133 134 143 140 140 139 146 140 141 144 142 146 144 148 141 
146 149 146 146 125 109 111 128 141 144 140 140 134 108 48 8 8 23 48 63 73 82 83 92 95 98 115 125 123 112 113 115 120 118 111 103 112 116 118 117 121 134 133 134 135 135 134 133 134 133 136 137 139 142 138 139 140 139 139 138 133 132 130 128 132 132 133 142 139 141 144 144 138 141 143 142 144 144 142 141 
146 147 140 141 122 109 105 126 141 140 145 140 133 104 40 5 7 24 49 65 75 79 84 91 96 107 120 129 120 116 114 114 115 115 109 99 115 119 113 116 121 137 133 132 134 133 135 134 136 137 136 136 142 139 140 139 135 135 135 133 134 131 131 127 131 132 133 139 141 140 139 141 142 139 138 142 143 143 143 142 
146 143 138 136 128 118 117 124 139 140 142 145 133 100 40 0 9 26 52 65 71 73 81 102 107 109 117 123 121 123 120 115 110 114 104 98 113 116 113 115 121 136 132 130 135 134 137 135 134 139 139 139 141 141 143 136 139 134 136 137 134 131 132 129 130 131 134 135 141 139 142 145 138 141 144 142 143 144 145 143 
146 144 134 135 125 117 119 126 137 139 139 138 132 98 30 2 7 23 55 64 73 76 87 102 106 107 113 117 120 124 125 114 111 114 105 97 115 114 111 114 121 133 133 129 130 135 134 135 133 136 137 138 137 145 143 136 136 132 138 133 133 134 130 128 134 133 137 139 142 142 141 145 140 139 145 142 143 144 146 144 
142 144 134 137 121 112 120 124 133 140 136 136 123 94 32 9 8 24 55 68 66 77 85 100 100 103 108 116 118 120 121 115 109 113 103 96 111 115 111 115 121 130 131 133 128 135 133 134 134 138 138 136 139 140 141 136 136 132 135 135 135 132 129 124 136 134 135 139 139 139 138 147 143 141 142 143 144 147 149 143 
142 138 128 130 112 110 115 130 135 138 137 134 116 88 31 17 15 32 57 65 71 76 92 102 98 101 108 118 119 123 123 111 110 114 103 96 113 119 109 115 122 134 131 133 135 135 136 134 138 139 140 136 139 140 140 134 140 136 136 134 131 131 131 130 136 135 137 140 142 141 140 144 143 143 146 145 147 148 150 145 
145 141 128 123 105 103 109 124 136 138 135 133 112 83 28 21 20 37 60 67 69 81 96 102 98 100 110 112 119 122 121 109 105 110 98 96 112 115 106 114 122 130 131 133 133 134 136 138 136 137 134 137 134 138 135 137 138 133 136 135 132 133 132 129 136 136 138 141 141 140 141 144 141 147 143 147 147 146 155 147 
142 139 129 123 99 95 107 124 130 135 134 131 108 81 32 31 29 36 60 66 69 77 93 99 102 103 109 111 115 118 117 108 107 108 96 100 113 117 106 113 124 129 132 131 136 137 138 136 136 136 134 134 135 137 136 135 134 135 136 136 133 130 129 130 133 135 139 140 139 139 141 142 140 143 146 143 146 146 148 145 
141 138 119 118 98 102 114 123 125 132 132 126 100 75 27 33 33 40 57 67 70 76 88 100 103 102 110 109 113 107 108 107 106 103 94 101 110 112 103 114 123 129 132 132 137 137 136 135 134 134 133 134 133 135 135 136 136 132 135 135 133 133 128 129 133 137 140 141 139 140 142 143 140 142 142 143 146 145 149 146 
141 137 117 123 102 102 116 121 128 130 128 127 90 73 27 31 36 41 61 66 74 75 79 96 99 101 108 110 107 103 104 102 105 103 92 103 109 112 106 116 123 130 133 132 134 136 135 132 135 134 138 138 133 135 136 136 136 132 134 134 135 129 129 132 134 136 139 141 144 146 142 141 143 145 142 144 146 146 148 142 
139 134 112 119 105 108 92 110 130 126 128 119 91 72 27 36 34 40 57 65 65 69 77 93 93 96 103 106 105 101 100 101 104 103 91 101 108 110 107 117 125 131 135 134 137 136 138 135 135 136 136 135 134 136 135 135 137 132 132 132 133 131 128 132 136 137 140 143 144 143 143 145 142 145 145 148 149 146 146 141 
144 136 115 117 80 85 75 82 98 109 104 99 83 68 26 33 37 43 57 63 66 73 81 90 91 92 99 101 99 98 100 105 102 96 88 102 109 109 105 115 123 134 133 134 136 137 137 132 135 136 137 137 137 136 133 129 137 133 134 131 132 130 130 130 135 136 143 147 142 144 145 145 140 144 146 149 145 148 148 141 
140 133 110 106 70 59 63 70 79 78 68 73 77 59 21 37 38 43 51 59 59 68 78 90 87 86 93 97 95 98 99 99 102 98 90 101 105 105 101 112 125 136 135 135 137 138 136 134 137 136 136 137 136 135 137 135 137 132 132 132 130 128 131 134 137 137 143 147 145 142 144 145 142 145 144 146 144 151 151 144 
140 134 102 104 72 56 62 63 71 74 67 68 76 57 17 33 39 41 54 59 61 66 84 87 88 83 88 94 94 95 96 98 102 97 87 98 102 98 96 117 124 133 133 137 136 137 136 135 139 137 140 137 137 137 136 138 137 135 133 132 132 132 135 133 139 140 143 146 147 143 146 145 143 143 145 147 149 149 149 145 
140 132 105 103 69 49 58 60 66 69 59 66 69 53 10 23 34 43 57 57 61 66 83 90 84 91 93 99 95 101 98 100 103 98 83 101 99 96 94 113 121 130 138 136 137 139 138 136 139 140 139 138 137 136 136 138 139 133 134 136 142 141 138 140 142 142 143 150 146 147 147 144 145 145 149 149 148 148 150 145 
137 127 101 108 69 40 48 51 57 63 54 63 66 44 3 23 36 45 55 59 56 65 75 83 100 127 135 135 130 136 132 129 125 115 88 95 94 88 87 112 123 130 133 136 141 144 151 147 139 140 139 141 139 140 136 137 141 135 142 154 146 153 142 142 145 141 147 152 150 146 146 147 146 146 147 149 148 147 151 145 
137 121 102 101 63 35 36 38 47 48 48 60 56 29 6 40 43 46 58 58 61 65 72 82 120 137 142 142 145 146 146 145 140 137 120 100 93 85 91 112 118 133 135 137 147 197 218 169 146 144 141 143 143 144 142 142 145 140 144 175 186 181 172 159 153 145 149 156 155 150 148 153 150 151 151 148 150 150 156 148 
134 121 93 98 67 34 32 30 35 39 40 50 49 32 14 33 44 46 50 54 51 57 63 103 133 138 145 149 148 151 150 148 151 149 132 100 93 84 84 110 121 129 135 134 150 221 253 189 150 155 141 143 142 145 142 144 141 137 145 179 185 195 199 198 194 178 165 163 160 157 155 157 152 149 149 150 153 152 151 154 
138 121 89 98 73 35 31 31 38 41 43 43 35 21 18 39 43 48 54 50 53 53 63 125 135 142 146 153 154 151 151 150 150 148 143 110 91 81 84 100 122 130 132 134 146 207 229 192 156 155 143 140 140 140 142 140 138 132 150 183 194 200 203 206 212 209 206 201 178 166 160 159 154 156 152 155 155 153 155 152 
133 118 85 97 68 30 24 21 34 33 34 36 37 48 56 56 43 56 55 54 53 62 88 140 140 141 146 150 148 149 152 148 151 152 150 125 91 80 85 108 119 130 131 132 153 188 197 188 158 145 139 141 140 141 138 140 141 133 155 189 195 201 205 209 215 213 215 215 197 188 182 170 157 157 157 157 155 155 158 149 
134 114 88 96 69 26 19 20 22 23 26 25 50 71 84 78 53 51 52 47 55 68 120 145 146 146 148 151 149 151 151 152 153 150 148 142 90 77 86 109 119 126 133 139 162 176 182 180 175 151 143 145 140 143 139 138 141 136 158 194 200 203 209 215 219 222 217 213 199 192 192 195 188 184 167 162 164 157 162 153 
129 113 80 93 71 39 33 29 32 35 40 49 61 70 85 79 47 49 54 45 66 107 140 148 147 143 150 151 153 152 149 154 155 153 146 144 110 84 79 105 114 124 127 139 159 165 174 173 179 158 143 141 141 141 141 140 141 132 166 193 202 208 212 220 223 224 219 214 197 191 196 196 199 209 197 184 169 164 166 159 
129 107 78 94 74 46 37 39 41 40 45 52 54 75 79 69 54 56 63 61 97 130 146 150 148 148 156 153 152 150 153 154 157 155 145 150 137 91 85 111 116 127 129 140 150 157 155 154 149 147 143 142 139 146 143 146 147 139 172 194 205 213 216 223 230 229 223 215 200 196 196 203 202 211 213 211 201 188 180 164 
129 118 89 87 76 67 75 73 76 73 78 80 74 85 89 82 72 72 77 89 133 143 145 143 146 149 154 156 153 151 150 157 156 155 145 151 150 130 95 113 115 133 131 137 143 149 148 143 142 141 141 143 138 143 148 148 152 153 194 206 211 217 219 227 230 229 223 220 203 197 203 205 209 213 215 213 214 210 203 179 
126 118 96 97 85 90 97 92 102 101 102 100 102 102 100 105 98 99 107 123 142 146 141 128 139 149 155 152 154 156 155 158 155 146 128 145 148 147 126 116 123 130 134 134 138 142 140 139 140 140 141 145 140 143 147 148 155 157 207 218 219 222 221 227 234 230 225 218 205 200 204 208 211 215 212 214 209 207 208 188 
116 107 103 100 99 100 102 98 103 101 104 104 103 109 108 110 108 112 118 136 142 147 133 130 138 147 154 153 154 155 156 154 154 143 135 137 148 148 144 127 122 129 131 129 134 138 142 146 138 138 142 145 140 146 141 144 153 164 225 228 227 225 227 232 246 236 227 223 209 205 207 214 211 218 214 214 209 210 212 181 
95 99 104 103 102 103 101 100 101 103 101 103 105 106 105 106 108 109 117 137 146 145 134 133 146 147 151 155 151 154 153 153 156 148 138 136 147 151 147 132 129 130 134 131 135 142 144 141 141 143 143 141 140 141 137 143 150 158 206 241 243 237 232 239 248 243 235 228 216 208 211 217 221 219 219 215 212 209 207 178 
96 98 100 101 108 103 104 99 101 100 103 99 102 106 105 108 107 101 118 136 143 146 145 147 146 149 154 153 154 153 152 155 152 151 141 145 151 151 148 140 132 137 136 137 141 147 141 141 143 148 145 150 139 138 135 139 145 148 155 187 248 245 250 256 258 251 245 238 219 209 215 221 219 221 225 219 209 207 204 173 
95 101 103 96 100 103 102 96 97 99 99 101 106 105 103 105 102 103 115 135 144 149 147 152 152 150 158 154 153 153 148 150 151 154 148 150 153 151 145 138 137 130 136 133 139 145 146 149 148 153 149 152 143 137 137 141 154 150 153 156 175 219 274 273 277 265 258 241 223 215 217 225 226 227 230 223 215 208 201 168 
99 101 99 101 103 104 102 98 98 100 102 102 102 109 106 109 103 104 114 131 142 147 152 156 152 152 155 155 150 154 154 150 154 158 150 153 154 151 143 138 130 126 131 125 135 135 148 145 146 144 146 148 143 138 141 148 152 154 154 162 156 159 192 252 294 286 273 246 223 215 218 228 230 231 231 224 214 213 205 167 
100 99 100 100 101 105 99 97 91 96 101 99 103 113 107 110 104 103 107 125 139 144 152 158 153 150 152 152 153 153 152 156 153 154 152 153 150 149 140 142 136 124 126 125 133 132 137 131 130 131 134 136 134 139 137 146 148 148 150 148 151 152 153 171 224 278 285 249 228 219 224 227 227 234 231 228 216 210 198 161 
102 100 103 103 102 100 96 93 97 100 99 100 104 107 106 110 103 104 107 127 138 144 149 155 151 149 152 151 153 153 154 151 156 153 151 150 151 147 141 138 141 134 133 133 137 140 140 134 133 132 137 142 137 144 144 141 144 145 144 152 152 148 151 154 162 190 227 234 230 230 232 231 232 233 231 230 218 212 194 159 
104 104 103 106 102 100 94 95 96 99 97 99 102 103 102 106 104 102 108 120 139 146 149 150 153 147 155 152 155 154 152 152 155 155 153 152 150 142 142 139 138 141 137 140 150 148 148 143 142 140 139 142 145 151 148 148 146 145 147 148 148 151 146 148 153 153 163 187 223 226 234 237 236 238 241 234 226 221 192 158 
106 110 107 107 102 103 93 93 95 96 100 99 100 101 105 104 104 101 110 126 142 147 148 156 152 151 152 153 152 151 152 151 154 153 158 150 147 143 136 138 137 143 144 143 157 156 158 152 146 144 144 139 143 152 157 150 154 152 152 157 157 151 148 150 148 153 152 163 179 217 240 246 242 245 243 239 225 214 192 156 
109 106 103 108 106 104 99 93 92 96 99 98 98 105 103 106 103 110 115 127 143 145 148 154 154 148 156 150 156 152 152 151 154 154 153 151 147 140 132 130 133 139 144 149 154 161 162 156 159 148 146 145 144 151 151 157 160 153 157 160 163 169 153 147 144 151 150 154 156 175 217 251 248 255 247 237 232 223 185 151 
103 104 102 107 108 107 98 94 93 97 96 98 100 107 103 107 116 129 136 129 138 146 147 158 154 151 152 153 155 155 153 153 155 154 151 150 146 147 135 130 136 145 150 149 158 165 164 163 159 151 148 151 145 152 156 161 164 156 161 162 166 184 184 160 146 147 147 151 152 152 171 220 251 258 258 244 243 231 186 156 
104 105 105 104 106 102 98 94 95 96 102 99 100 102 101 105 129 143 144 134 140 144 149 155 153 150 160 151 154 150 151 153 152 154 152 147 147 145 138 131 132 147 152 159 162 162 166 161 161 153 154 153 153 154 152 156 161 161 165 164 170 176 182 168 149 149 147 150 147 149 154 173 215 259 257 258 239 230 182 156 
103 107 106 107 104 100 99 90 96 94 102 103 99 103 103 106 130 145 146 135 139 145 145 150 149 151 152 153 151 150 150 149 150 149 149 146 143 145 137 133 127 147 157 156 163 167 170 164 160 160 155 157 154 155 156 157 164 165 166 168 167 173 164 161 170 168 157 150 151 146 153 152 166 217 255 259 252 228 183 154 
106 105 104 102 102 99 96 91 92 98 97 98 105 102 99 106 137 144 146 133 136 143 147 146 147 143 146 151 147 147 146 147 149 144 146 142 144 140 134 129 132 142 148 151 162 168 174 173 167 161 160 158 156 159 157 157 161 166 165 169 168 165 164 162 177 181 170 155 147 150 148 149 150 163 211 255 255 220 171 152 
101 104 106 104 103 102 98 93 96 97 95 99 102 102 100 109 136 145 142 130 136 142 142 142 145 140 144 146 149 143 140 143 145 147 145 142 143 139 133 129 126 144 152 153 158 162 171 179 166 163 161 160 160 158 161 160 163 163 164 169 168 167 165 170 181 184 171 160 149 147 150 149 144 153 166 203 233 199 164 147 
103 108 102 100 100 101 102 95 101 99 97 96 100 97 103 113 139 145 137 129 133 136 136 142 140 137 144 143 146 144 144 144 142 143 144 139 142 137 126 125 132 152 158 158 161 162 167 169 168 161 161 166 163 163 164 161 159 159 160 163 164 167 159 161 167 169 160 152 149 145 144 147 147 146 152 161 168 164 156 149 
105 105 108 102 102 103 102 96 99 97 99 96 100 99 101 116 142 142 137 126 129 131 136 138 140 140 142 145 147 140 141 139 140 143 138 137 139 131 119 124 128 154 157 159 159 158 165 164 165 162 161 163 163 170 162 160 159 158 164 163 162 164 162 156 161 159 155 156 156 146 146 145 148 151 149 157 154 155 156 148 


