P2
80 60
253
54 56 58 58 57 63 65 60 67 68 71 71 68 74 72 78 76 71 78 77 75 80 77 79 81 82 81 86 84 83 84 86 84 86 83 82 79 83 82 70 65 59 64 73 82 78 79 80 87 81 77 78 78 84 90 94 91 95 99 96 97 94 98 97 94 93 90 92 93 92 93 95 93 93 97 93 96 91 88 87 
48 57 57 59 57 60 61 65 66 68 67 70 68 68 72 75 76 77 79 76 78 80 80 78 79 79 83 82 84 81 87 85 81 81 85 82 80 79 80 70 65 53 65 74 76 81 79 82 86 85 79 74 77 81 90 89 95 102 97 97 97 93 94 95 95 88 91 90 93 87 95 92 92 94 97 92 92 92 88 85 
48 47 54 57 54 59 61 59 65 66 66 69 67 67 72 76 77 80 80 85 84 78 78 78 79 78 82 80 84 83 84 82 81 84 90 82 77 84 79 73 65 52 64 72 74 80 82 81 87 78 77 77 77 84 87 88 91 95 94 98 96 97 95 96 94 91 90 95 95 93 97 94 96 99 97 94 93 87 86 89 
46 52 56 49 54 56 59 55 62 70 70 68 69 67 71 80 86 86 86 89 88 86 78 78 77 81 83 82 85 82 89 83 81 80 85 80 80 84 81 73 63 57 63 78 79 80 80 83 85 77 78 78 77 87 88 89 92 95 96 96 99 97 96 94 95 91 95 92 95 98 95 99 97 90 94 93 93 92 88 90 
46 49 48 47 52 49 55 59 63 62 70 64 66 66 77 90 93 89 93 100 99 91 76 79 80 83 85 85 83 83 84 83 82 82 85 79 81 83 82 69 64 54 69 75 81 79 79 84 88 78 76 76 78 85 87 90 94 98 96 99 96 98 99 102 95 93 92 96 96 91 98 93 98 95 98 97 92 90 87 87 
47 45 44 51 50 51 57 56 66 65 62 64 68 71 80 96 98 98 100 104 99 97 81 79 81 83 85 86 85 84 85 81 81 86 86 85 84 89 79 71 60 56 71 72 81 79 89 84 92 79 77 81 81 87 90 92 95 102 95 102 100 99 100 97 97 92 96 98 102 95 96 98 103 98 96 95 93 91 89 89 
45 43 45 50 44 51 53 55 58 65 63 66 67 68 69 91 104 97 96 99 98 96 88 78 79 82 81 80 81 82 80 80 82 84 84 80 76 86 81 71 57 54 66 73 82 80 83 83 91 77 75 82 83 86 88 89 92 103 104 98 98 99 97 96 97 95 93 96 96 92 92 95 99 97 96 92 92 86 86 90 
41 42 46 45 49 53 52 50 58 58 62 65 65 67 63 81 83 90 87 91 94 96 86 78 78 81 80 83 83 83 81 79 80 83 80 84 79 80 79 74 55 52 62 79 79 82 87 80 88 82 77 83 83 83 90 96 97 99 97 99 97 98 97 96 97 94 94 94 96 91 95 97 99 92 93 93 88 86 89 93 
41 43 48 51 47 49 56 55 54 63 60 61 69 62 70 81 87 89 92 84 92 88 80 80 77 80 81 79 86 80 82 81 80 82 85 83 79 83 78 64 56 51 66 76 76 81 82 83 89 77 75 79 77 80 88 90 94 97 97 104 97 97 95 97 97 93 96 96 99 92 91 95 98 93 92 91 87 86 87 90 
41 43 49 51 47 50 51 53 58 58 64 61 62 63 62 81 95 96 94 97 91 84 76 77 78 82 80 81 83 80 80 78 79 79 85 81 75 85 78 65 56 49 63 71 77 81 81 81 87 83 78 77 80 78 90 90 93 95 98 100 97 96 94 95 98 97 95 97 101 90 90 96 94 97 92 90 93 89 89 92 
45 46 47 49 44 48 55 53 53 55 59 61 59 65 66 75 91 96 98 96 86 81 78 76 76 77 81 79 83 78 79 76 80 82 87 77 75 79 72 67 57 49 62 75 78 80 81 82 85 80 79 84 79 83 91 89 91 96 98 97 95 97 94 97 96 92 97 97 96 92 90 92 97 96 96 94 92 89 89 89 
41 46 48 49 46 48 47 52 49 53 61 58 59 63 68 81 88 89 95 94 85 83 78 75 75 78 78 78 79 82 80 77 78 82 81 76 76 80 76 67 60 48 63 71 80 80 82 81 88 78 81 79 76 81 88 88 93 98 95 95 94 92 95 95 94 93 96 95 94 91 93 95 95 94 92 92 92 85 89 90 
46 40 43 50 46 51 50 48 54 54 56 60 58 67 73 90 88 87 89 92 91 88 80 83 76 81 80 77 80 78 80 75 79 82 78 79 74 77 79 67 56 55 70 70 81 79 82 83 90 79 78 77 76 78 87 91 95 100 95 96 95 93 99 97 97 97 94 94 93 89 83 95 94 94 93 93 91 89 87 92 
47 45 46 46 45 50 52 48 56 54 61 58 64 77 80 88 88 87 88 88 90 91 87 89 90 86 86 79 78 74 79 78 78 80 81 77 75 82 72 70 60 51 62 72 79 85 80 86 89 87 77 79 80 81 83 89 98 100 100 100 94 96 96 96 98 95 94 98 91 92 95 96 95 93 91 92 89 92 89 90 
44 44 45 42 42 44 52 48 53 60 68 74 76 81 81 80 84 83 83 84 87 89 92 92 88 90 91 79 76 76 78 81 78 79 74 77 75 80 75 67 55 48 64 71 79 75 79 79 87 86 80 81 78 81 87 90 96 104 102 101 97 95 94 95 90 92 94 97 96 89 90 92 96 95 91 90 92 88 89 92 
44 46 46 42 40 45 51 48 55 64 68 70 75 79 79 78 80 78 81 83 83 88 84 92 90 92 91 90 80 78 76 77 76 77 80 77 73 82 70 65 51 54 65 74 79 76 83 82 85 79 76 76 77 84 87 92 93 103 100 99 98 95 98 98 95 93 93 95 97 96 94 93 96 95 93 91 91 92 88 92 
41 43 43 43 42 47 45 46 56 68 65 72 68 74 77 78 81 78 78 79 81 82 85 85 88 90 90 87 80 77 76 79 78 77 78 77 76 76 75 62 49 51 67 68 78 75 84 83 81 75 77 82 76 81 90 89 95 101 98 98 96 93 95 96 93 95 92 95 94 94 97 97 99 93 94 91 91 90 91 92 
45 40 41 42 46 48 46 47 60 62 68 65 68 70 73 75 75 76 79 80 79 81 84 87 89 89 88 88 84 76 76 76 77 80 80 76 72 79 71 68 50 44 66 70 78 78 81 83 85 75 73 78 76 81 90 91 95 104 98 97 94 94 93 95 93 92 91 97 100 94 95 95 100 94 92 91 91 92 88 91 
41 43 42 45 42 43 49 48 55 58 68 68 67 70 71 78 72 76 77 79 80 85 87 89 87 91 88 87 91 74 77 76 76 81 80 76 71 81 76 66 51 46 62 71 77 77 77 82 86 75 78 79 82 85 88 90 96 97 99 99 97 98 93 96 95 96 93 99 98 95 93 100 98 94 92 91 90 88 86 90 
40 45 42 41 43 47 43 45 57 56 67 66 65 67 72 74 74 76 75 80 77 86 92 89 89 87 94 91 89 77 78 77 76 77 75 72 73 79 73 63 50 49 65 72 77 76 81 80 83 76 76 78 78 83 85 84 90 100 97 99 98 95 94 96 94 95 91 94 96 92 94 97 93 92 93 90 88 86 89 89 
38 40 39 43 39 47 45 48 55 57 71 67 67 68 69 70 73 76 78 79 80 86 91 88 90 86 95 90 89 76 80 78 75 73 77 76 73 80 72 64 49 50 64 72 74 74 80 81 87 75 74 79 78 81 86 87 89 96 98 97 93 94 96 95 94 91 94 94 97 92 96 96 97 95 92 88 93 91 88 90 
40 37 38 39 43 39 52 48 60 61 65 67 72 65 67 68 72 72 76 75 78 81 87 85 86 88 93 91 88 83 79 76 74 76 74 75 72 78 73 62 49 47 63 66 74 72 75 78 83 74 72 77 79 89 85 85 92 96 99 97 96 96 95 97 94 93 96 98 96 95 91 94 98 92 90 89 92 92 92 90 
39 37 39 45 39 39 46 56 67 67 69 69 65 67 67 70 71 73 73 77 74 81 85 85 84 85 91 91 90 89 76 76 75 73 77 74 70 78 71 62 47 47 60 68 74 72 75 82 82 76 78 76 78 84 83 83 91 98 97 96 96 94 94 98 93 98 93 98 97 96 95 98 102 93 89 93 90 88 91 90 
37 39 35 38 39 43 52 62 68 65 62 64 67 65 68 75 73 70 74 71 75 80 83 83 81 80 88 96 95 84 76 71 74 73 74 71 68 73 69 59 48 45 61 72 75 72 78 78 84 77 73 79 81 82 84 83 95 98 97 96 97 95 94 96 98 95 98 97 96 96 96 94 97 91 92 89 89 86 88 90 
39 35 37 42 38 43 49 58 71 66 64 65 68 73 68 74 73 76 75 76 73 80 81 80 74 79 89 92 96 84 74 74 70 73 74 73 68 73 70 61 46 47 67 74 75 76 76 82 80 75 71 78 79 82 83 88 92 96 92 97 96 93 95 97 96 96 97 99 95 94 95 104 99 96 94 94 91 88 90 91 
41 36 39 40 39 38 46 63 68 57 57 64 67 67 75 76 74 73 77 74 78 81 84 79 70 72 78 89 93 74 73 70 68 72 69 69 71 73 68 61 44 48 64 70 73 77 77 80 81 73 74 77 77 82 85 84 93 97 102 96 95 96 97 96 101 95 97 98 97 96 96 99 100 97 96 90 90 90 89 92 
39 40 40 38 36 36 55 64 60 62 59 59 66 70 73 74 69 70 74 79 77 81 85 80 70 74 73 79 81 71 73 67 69 70 72 69 68 74 65 60 46 46 62 72 75 76 79 77 79 71 76 75 75 82 82 89 91 97 96 93 94 96 98 97 94 94 96 95 93 95 95 94 99 96 94 92 88 89 87 89 
35 37 37 39 37 40 42 57 63 65 64 62 68 70 70 69 68 70 73 76 74 79 81 72 66 67 69 69 73 71 69 68 70 70 68 70 66 69 65 57 47 45 63 75 78 71 79 78 77 71 74 76 70 76 81 84 89 95 94 94 99 93 97 96 95 94 97 96 94 96 92 96 95 98 91 92 88 90 89 89 
38 36 40 39 39 35 43 52 61 63 66 65 68 69 72 70 71 70 73 76 75 78 81 74 66 70 71 69 73 71 71 67 67 69 70 70 67 68 66 62 46 47 65 70 73 73 77 78 78 72 73 74 74 78 80 88 91 93 95 97 96 96 97 96 96 94 96 98 97 96 96 96 101 98 95 95 90 92 88 90 
41 40 41 37 38 37 42 39 55 57 62 66 68 71 72 74 71 70 69 72 71 76 77 74 65 66 68 69 71 70 72 69 69 70 69 67 66 72 66 58 49 46 64 67 74 74 80 78 79 72 78 76 75 78 86 94 92 95 95 93 96 97 96 96 98 96 102 100 95 96 94 96 98 95 94 97 91 92 91 90 
39 40 38 35 39 36 44 41 43 46 58 62 64 70 72 73 74 73 70 71 69 76 76 75 64 67 67 68 69 70 71 68 68 67 70 68 66 70 68 56 43 44 66 72 73 75 76 75 77 71 76 75 77 77 86 88 92 95 94 97 96 95 99 94 97 99 97 99 98 94 97 95 96 94 93 92 94 92 89 88 
41 40 35 38 34 37 43 39 41 50 60 60 61 65 68 72 72 69 74 68 71 77 77 71 65 63 70 68 70 68 69 67 68 68 69 70 63 71 64 56 46 46 66 72 74 71 75 81 81 72 73 74 73 75 82 86 93 95 94 96 95 97 96 96 96 96 97 99 100 97 93 94 94 95 97 96 92 88 89 91 
36 40 36 40 37 37 42 42 43 49 58 60 63 64 63 64 70 64 63 68 69 74 76 71 65 67 71 68 69 65 70 69 67 70 67 67 65 70 65 55 46 45 67 70 73 71 76 77 80 70 72 75 73 77 82 88 92 96 93 95 94 96 97 99 99 98 96 99 101 94 99 94 95 96 97 94 94 92 89 90 
38 35 35 40 34 37 40 39 40 48 55 60 60 59 64 62 67 65 70 67 67 69 73 74 66 65 68 69 71 73 69 65 64 69 68 64 62 67 61 54 44 42 67 69 70 75 74 73 79 68 70 75 70 81 83 88 91 95 94 95 98 97 97 98 98 97 96 103 98 97 98 99 95 92 95 95 94 90 92 89 
36 36 38 35 34 35 35 40 47 54 52 58 55 56 61 59 67 64 66 66 63 68 69 70 63 64 67 67 70 68 66 65 65 68 69 64 60 68 63 53 46 46 70 65 71 78 74 72 75 65 70 71 77 79 83 84 90 101 93 89 99 95 97 96 95 94 95 96 99 92 96 96 97 93 96 92 92 93 91 94 
33 33 38 35 40 37 42 38 47 51 54 55 57 58 60 62 65 66 67 64 60 67 68 68 64 61 64 64 69 64 67 64 69 68 69 66 64 70 66 57 43 46 67 71 72 74 78 78 70 66 69 77 77 81 87 88 94 98 97 99 97 97 99 98 99 96 94 96 97 98 97 100 98 95 95 93 95 94 91 91 
37 35 36 36 35 39 45 40 45 52 53 54 50 57 62 59 62 64 63 61 60 63 68 64 62 57 65 65 66 64 69 65 68 68 67 68 67 67 66 56 44 49 64 68 71 70 72 71 73 63 72 77 76 82 83 88 96 96 95 96 96 96 96 96 99 98 98 98 99 92 95 98 104 93 95 96 96 92 94 94 
37 34 37 37 38 39 43 39 44 51 57 57 58 58 56 57 58 59 61 59 54 61 62 63 63 60 66 63 66 66 68 66 67 68 68 65 64 70 65 58 43 45 68 72 69 69 72 72 72 64 75 76 74 78 86 89 93 97 95 97 98 97 98 100 97 99 100 98 95 96 94 102 100 99 97 93 92 90 93 96 
35 37 40 37 34 38 43 38 41 51 57 58 56 56 52 64 55 58 54 55 53 60 59 59 56 59 63 64 67 65 67 66 65 70 66 69 66 68 68 58 45 48 65 67 70 69 74 71 70 66 74 72 75 78 85 89 93 95 96 97 95 95 94 101 97 101 101 101 98 93 96 98 98 97 96 95 94 95 91 97 
31 32 33 34 32 34 40 38 39 51 56 53 55 53 60 58 49 47 49 48 52 55 58 56 58 61 63 60 68 64 65 64 65 71 65 65 63 69 66 57 43 48 61 65 65 72 73 70 68 62 69 71 69 75 81 85 91 93 93 95 94 96 95 95 99 95 93 94 96 95 95 99 98 96 95 95 94 93 91 98 
33 31 30 34 31 39 39 36 38 49 54 53 56 56 53 52 51 48 50 49 50 57 58 59 57 58 66 62 65 63 65 61 65 74 63 64 64 70 63 51 45 42 67 65 70 71 70 64 67 64 71 77 74 77 83 87 92 94 92 94 95 95 96 100 98 95 97 93 96 97 96 97 102 102 98 95 95 97 93 97 
31 34 32 32 33 32 37 35 40 46 52 54 52 56 55 45 48 48 44 50 51 51 55 56 57 61 64 61 64 60 62 61 64 61 66 63 64 68 61 50 42 44 65 66 69 71 71 64 64 63 70 72 71 80 84 86 92 93 94 99 96 94 99 97 97 96 94 94 97 95 97 96 99 96 94 95 96 97 95 96 
26 32 32 31 31 30 33 31 39 45 52 53 52 54 51 48 45 46 48 46 47 50 53 54 57 58 59 61 63 59 61 61 61 65 67 66 66 65 62 52 40 43 61 65 70 68 63 61 63 62 66 67 72 76 82 87 91 97 93 95 96 95 96 101 99 97 97 94 97 96 96 93 98 91 97 97 94 92 90 95 
29 28 29 29 29 32 35 33 39 44 52 57 54 49 44 45 44 46 50 48 47 51 54 56 52 56 61 59 62 61 61 64 63 67 64 67 62 65 61 51 39 43 62 65 63 66 68 69 63 59 65 71 68 77 80 83 88 93 95 95 94 92 98 100 98 97 97 97 96 97 96 98 98 99 93 98 95 92 97 96 
30 29 27 27 25 27 34 31 34 42 49 52 52 50 45 43 46 45 51 49 51 53 53 54 54 54 58 58 61 62 63 62 62 63 64 65 66 66 64 53 38 43 60 65 63 68 68 60 60 57 67 67 67 76 79 82 86 95 93 95 96 98 98 96 98 98 97 100 95 98 99 98 99 97 98 95 94 94 92 91 
26 25 26 25 24 24 33 27 36 38 45 52 50 45 45 46 49 44 46 48 48 53 52 52 52 56 57 58 58 61 63 57 59 61 65 65 62 64 62 50 40 39 64 62 62 63 64 56 60 55 63 66 65 71 77 84 89 93 97 98 99 96 99 94 101 100 99 101 102 100 98 99 95 97 97 94 92 94 99 98 
27 25 26 25 24 27 24 22 31 34 38 45 37 40 44 44 43 48 46 48 47 53 52 53 52 53 57 55 60 54 59 57 58 59 62 61 64 66 62 45 31 39 58 60 57 65 57 54 54 55 58 64 64 67 74 83 87 93 94 97 96 98 98 96 100 98 98 102 103 98 98 96 103 100 103 92 93 95 98 101 
23 25 24 25 23 27 31 28 28 31 37 32 37 39 42 41 44 43 44 49 45 51 54 55 53 52 53 53 58 57 57 57 54 58 58 60 60 60 61 45 36 44 51 58 60 58 58 50 54 51 60 62 64 70 77 82 91 96 91 96 98 98 98 98 100 98 105 99 102 103 108 101 104 102 106 101 103 100 101 93 
24 23 26 26 23 24 29 27 29 30 31 33 32 38 42 38 40 40 41 46 45 46 53 50 52 53 53 53 52 53 57 55 53 55 57 56 54 62 53 47 42 39 57 56 56 56 55 49 49 51 56 63 61 68 74 85 90 94 92 96 97 96 99 96 99 102 102 107 102 104 116 123 123 116 113 110 107 94 96 101 
23 23 24 26 22 24 29 25 29 29 32 29 31 37 37 40 43 42 39 41 43 44 49 48 45 46 51 49 49 52 49 50 52 54 53 55 53 59 55 45 36 41 50 55 55 58 51 46 44 47 56 55 58 63 82 83 90 92 94 93 99 95 98 100 104 103 98 103 111 134 163 178 176 165 138 122 102 99 99 100 
23 25 24 23 22 24 25 26 26 25 28 30 32 37 42 38 41 40 39 38 42 45 45 44 45 46 50 49 47 52 53 51 52 51 53 48 47 51 51 44 33 34 53 51 53 54 52 45 51 49 56 51 54 67 74 84 86 91 94 98 99 98 101 99 101 100 106 107 114 156 186 190 191 185 161 122 102 102 107 106 
23 27 25 25 26 28 34 25 26 30 31 30 33 34 38 40 39 37 43 38 42 44 42 44 43 46 46 46 48 48 49 45 47 51 54 49 43 49 46 35 29 36 45 50 51 56 55 49 49 46 52 54 61 65 77 79 86 92 95 97 99 94 99 98 100 99 104 111 123 160 186 194 202 191 170 124 108 106 111 111 
21 23 25 27 24 24 29 25 28 30 31 33 33 30 35 35 38 35 38 36 35 41 40 39 42 43 43 42 44 43 44 43 45 45 46 45 43 45 44 37 26 32 45 50 47 50 54 45 51 44 55 54 60 63 78 83 90 95 96 97 96 96 96 99 102 102 103 106 130 164 195 198 203 197 175 128 115 113 120 115 
21 27 22 26 32 29 32 26 28 29 33 25 26 28 31 32 36 31 29 37 34 34 37 39 42 39 41 40 43 40 43 41 41 39 42 43 41 39 39 30 26 33 47 49 48 50 49 46 47 45 51 51 55 67 74 82 90 100 95 95 98 97 96 102 98 97 105 110 129 174 208 223 234 227 187 136 124 118 117 110 
18 21 21 26 23 24 25 21 27 28 25 29 23 30 23 25 27 26 30 26 27 28 31 30 29 32 35 33 35 33 36 33 34 33 35 34 30 33 31 22 22 29 43 44 41 46 47 41 45 45 49 51 57 59 76 81 93 94 93 93 94 96 100 101 103 100 103 109 131 169 213 244 253 233 192 139 119 108 107 102 
15 21 18 19 16 17 22 15 25 27 27 26 24 24 23 22 21 23 23 22 24 24 24 24 24 26 27 28 29 25 27 25 22 27 27 26 24 26 22 19 19 26 42 41 40 49 43 39 39 42 52 50 50 61 71 82 90 93 94 93 94 98 96 96 100 103 104 107 129 161 201 221 231 214 174 129 102 94 99 99 
11 13 12 16 9 12 17 11 16 18 18 19 21 18 13 17 14 12 11 16 11 18 13 14 10 14 15 13 15 16 16 16 17 17 26 23 15 27 22 18 23 33 40 41 41 42 46 39 48 41 49 52 52 59 72 83 83 94 93 90 91 93 99 94 99 101 105 107 128 157 172 184 188 185 170 136 113 100 99 96 
3 7 7 6 4 3 7 4 8 10 11 7 10 6 7 9 11 7 7 6 10 12 15 13 12 15 17 17 19 17 21 20 22 26 35 37 32 39 44 36 40 43 46 46 40 47 46 49 44 46 50 48 54 61 74 79 83 91 93 92 96 94 96 100 96 100 106 114 139 157 166 173 181 174 170 155 130 109 96 96 
2 6 4 2 1 1 9 5 7 10 12 8 11 12 11 8 9 8 13 15 11 16 24 20 21 21 29 24 38 39 49 46 58 67 70 75 71 78 82 80 74 77 75 71 68 63 54 40 43 47 50 49 48 60 72 77 83 87 90 89 93 91 96 95 99 100 113 129 147 153 156 160 166 162 161 154 148 119 101 98 
7 10 6 5 0 3 3 6 8 9 17 10 11 14 15 16 16 16 19 19 22 28 36 36 43 58 64 71 78 82 82 88 87 87 96 93 90 96 97 95 96 94 99 96 96 90 74 50 45 47 48 50 55 61 75 79 84 88 88 89 90 91 93 94 98 100 121 141 142 140 147 155 152 154 154 148 150 134 113 91 


