P2
80 60
145
137 140 137 133 135 135 138 139 137 137 136 137 129 130 120 122 122 122 121 118 119 117 114 117 114 114 116 113 114 116 112 111 105 102 89 56 51 45 45 98 127 132 129 128 128 126 128 129 133 134 131 136 131 130 129 137 136 137 134 125 124 122 126 124 129 126 127 127 128 132 132 130 136 128 127 127 129 119 115 114 
134 143 135 136 134 138 135 138 140 136 136 134 131 127 121 124 123 120 121 120 121 116 118 115 115 114 115 115 115 113 109 107 104 102 88 65 51 42 39 109 129 129 126 128 127 129 128 130 131 132 132 133 133 134 131 136 142 138 132 123 121 122 122 123 128 126 127 133 133 129 132 135 132 127 128 127 126 120 115 112 
133 139 137 136 139 138 137 138 139 135 136 136 132 130 122 126 115 120 116 118 121 117 115 115 116 114 115 114 116 111 112 109 101 102 90 64 49 48 48 98 129 128 125 127 128 128 128 129 133 132 131 135 133 132 132 135 139 135 132 131 125 124 119 123 130 132 129 127 129 130 134 135 129 132 125 131 127 122 120 115 
136 143 136 140 141 137 136 141 141 141 136 134 135 131 125 125 120 118 121 123 122 119 116 114 115 119 115 117 115 115 110 106 102 97 89 64 48 47 59 107 125 128 126 128 128 128 128 130 133 132 131 133 132 133 130 135 134 134 134 129 127 122 116 120 129 133 132 128 130 133 132 136 134 129 129 128 123 124 118 112 
137 139 134 138 141 134 137 139 136 141 134 135 133 132 124 126 115 120 120 122 120 117 119 117 119 122 121 122 118 120 114 106 100 99 84 64 49 49 58 114 130 129 124 126 131 129 131 130 132 135 133 134 131 131 131 138 133 131 130 123 122 124 117 121 129 132 132 130 129 138 130 134 135 129 128 127 130 124 120 108 
137 139 139 138 134 133 135 141 141 138 135 134 133 131 124 123 121 120 122 125 122 128 127 127 126 127 125 124 127 120 113 108 108 103 85 68 46 44 55 110 127 127 128 127 129 127 133 128 135 131 130 134 133 130 129 137 134 136 130 121 123 117 121 120 127 131 131 129 137 134 135 138 134 131 132 130 127 127 115 115 
135 142 137 136 139 133 136 137 140 137 139 135 132 130 125 122 126 124 126 126 128 122 129 128 127 125 123 125 125 123 118 111 106 104 94 70 46 39 53 109 127 126 124 129 125 130 131 131 130 132 130 135 132 133 132 137 134 137 137 127 124 128 120 127 129 132 129 131 131 139 134 132 133 130 128 131 131 128 120 112 
141 142 138 137 138 138 132 139 140 136 135 136 135 132 125 121 125 125 126 128 130 126 128 128 126 124 126 126 121 123 117 113 109 109 99 76 47 39 55 115 124 127 122 129 129 127 135 129 130 131 130 134 132 130 126 134 136 132 132 131 131 130 130 128 127 130 131 130 135 135 134 134 132 130 128 131 127 128 117 112 
142 143 136 138 139 139 136 140 138 142 138 137 133 124 122 122 125 127 122 126 125 128 126 125 128 127 126 126 123 120 116 112 106 105 100 79 40 37 59 112 120 124 123 124 127 126 127 126 129 131 129 136 129 125 126 132 132 134 132 134 129 130 127 123 123 123 127 130 130 131 128 133 134 131 127 128 129 124 119 108 
140 143 138 140 138 139 138 139 139 134 137 134 132 130 117 124 132 128 126 126 128 131 128 129 125 125 126 127 123 119 115 109 105 106 97 82 47 39 66 115 128 123 123 122 123 125 125 125 127 129 128 136 132 132 129 132 132 132 130 129 126 125 116 113 115 117 125 124 129 129 130 133 130 127 129 127 126 125 111 113 
140 141 136 136 139 135 142 140 139 138 136 136 133 134 130 131 128 132 133 130 132 130 128 126 126 125 125 126 125 120 117 115 106 109 100 83 43 39 67 115 125 127 121 122 122 121 124 125 130 129 127 134 130 126 125 132 132 131 128 126 118 116 113 108 113 116 123 127 132 132 131 136 134 129 126 128 129 124 112 113 
135 142 137 142 137 138 135 140 139 135 136 136 133 132 130 130 129 129 128 129 129 129 125 131 126 120 123 122 121 118 117 117 113 115 102 83 47 40 64 114 124 127 121 124 125 122 126 126 126 129 127 131 129 128 125 130 128 130 128 122 113 118 114 109 110 116 123 128 131 130 131 134 132 129 131 135 132 123 113 108 
137 141 138 141 138 136 136 135 136 136 133 135 132 132 127 130 126 128 126 128 133 128 128 124 119 115 117 117 114 117 112 107 105 103 100 86 49 40 67 113 123 127 123 124 125 125 128 125 129 126 128 130 126 123 126 129 131 129 128 124 121 117 117 108 116 119 124 128 128 131 121 134 134 131 128 130 134 130 116 108 
140 145 140 139 136 135 139 136 137 134 136 135 134 130 126 127 124 127 126 126 130 128 126 123 122 115 114 115 109 108 108 106 98 105 100 86 50 47 71 116 126 126 121 122 124 129 125 125 126 133 128 129 126 127 124 132 133 130 127 122 118 113 103 101 109 116 119 128 129 134 131 133 135 131 128 130 129 128 115 112 
139 143 136 138 138 133 135 137 136 137 132 134 133 129 125 130 125 125 123 128 129 128 126 125 116 113 110 109 109 109 105 101 97 100 95 88 54 43 74 114 123 126 124 126 124 125 127 126 131 132 128 128 128 126 123 130 131 137 131 119 115 108 100 95 104 108 123 125 128 133 130 131 132 131 127 130 129 126 121 109 
140 141 136 135 137 136 135 137 139 129 134 133 129 130 127 128 124 125 125 126 127 127 124 119 114 114 111 113 109 108 103 98 97 98 96 91 62 48 81 120 125 124 122 125 125 124 124 125 128 126 126 130 126 126 125 129 130 129 127 118 116 111 98 94 94 113 121 127 134 133 131 133 136 130 126 128 132 128 119 117 
139 140 136 137 136 133 131 134 134 130 131 132 131 128 126 128 123 124 123 127 127 128 123 117 111 110 109 108 104 104 103 98 96 98 93 89 62 48 91 115 121 126 122 122 121 129 123 124 124 127 126 129 126 124 122 129 127 129 127 124 114 110 102 94 103 111 121 125 130 135 134 136 142 128 125 129 128 129 118 114 
136 142 137 139 138 135 133 138 129 132 130 132 131 124 126 128 123 125 126 125 127 125 125 120 115 110 110 107 104 103 101 93 98 100 94 94 65 50 94 118 120 121 120 122 122 124 121 124 127 126 128 128 129 127 128 128 128 133 124 121 120 107 98 92 96 112 119 128 131 134 132 135 133 130 124 127 128 126 115 112 
140 141 138 139 138 134 134 133 135 130 128 130 130 126 126 126 125 124 126 127 124 125 125 122 117 108 107 105 106 102 99 96 92 97 93 92 73 57 96 119 124 124 122 123 123 124 123 120 125 127 128 127 128 128 125 125 122 122 115 108 105 97 93 87 95 111 114 121 129 134 132 133 137 129 125 123 126 126 114 114 
138 143 141 143 139 139 133 135 132 130 131 130 130 130 129 130 128 129 126 129 126 130 131 123 121 116 117 118 114 111 109 103 99 100 95 91 75 59 98 121 125 128 122 123 121 119 122 121 125 125 126 127 124 123 120 123 122 118 109 96 90 91 80 84 89 98 104 117 124 132 131 136 135 127 125 125 125 124 120 115 
139 141 134 137 135 137 133 129 132 128 131 132 132 130 127 128 129 126 125 125 128 128 123 120 117 116 116 116 116 110 115 103 95 97 88 87 77 62 99 119 123 129 119 121 120 121 120 122 123 124 123 129 123 120 119 124 122 120 110 98 89 88 81 85 94 92 106 118 133 131 132 136 131 130 125 127 127 122 120 119 
136 136 133 134 134 137 136 132 133 129 133 134 135 128 128 127 125 126 126 125 126 124 127 120 117 118 117 115 112 112 111 105 97 96 89 87 77 71 101 118 125 125 118 121 121 120 120 123 124 124 127 127 119 119 120 123 120 122 113 96 88 86 82 83 84 96 107 117 122 131 136 131 128 126 126 129 128 124 119 117 
137 141 135 140 137 135 133 136 136 133 136 136 132 131 131 130 126 127 127 130 127 126 124 125 119 117 118 117 115 108 111 105 98 95 89 89 75 77 102 119 123 123 118 119 123 123 124 122 126 124 123 126 126 122 114 119 122 115 110 94 89 89 85 83 89 106 108 114 124 130 135 128 131 124 126 129 128 124 114 114 
139 139 136 140 139 138 135 137 138 136 133 132 132 128 129 131 125 128 126 125 126 126 125 123 121 117 116 118 113 109 106 100 95 94 92 84 79 77 101 112 124 124 118 118 123 120 119 120 126 127 123 124 125 122 116 123 124 116 111 97 93 95 94 90 91 105 113 117 125 132 131 131 130 123 130 128 131 123 117 117 
134 137 139 139 135 129 133 137 139 135 132 132 132 129 128 130 127 128 129 126 125 126 124 124 120 116 115 116 112 108 104 97 91 92 87 89 79 77 101 116 120 116 118 118 124 121 122 121 125 125 126 124 122 118 114 117 117 118 109 99 105 106 106 90 92 105 118 118 119 124 132 132 131 125 126 125 126 123 124 119 
133 136 136 133 134 134 134 134 135 134 134 133 130 130 131 132 126 129 127 127 129 126 126 123 124 118 118 116 112 107 106 102 93 92 84 87 79 75 105 116 120 121 115 121 120 122 123 122 122 125 122 122 118 117 112 118 119 116 116 109 109 105 97 99 102 105 116 117 118 128 133 130 129 124 126 126 129 125 122 123 
134 135 132 135 134 135 135 133 133 131 134 131 131 129 129 130 130 127 127 127 126 126 129 128 119 117 114 108 111 106 101 105 95 91 89 89 83 74 101 117 121 120 116 117 122 121 123 123 122 124 123 126 117 116 109 116 120 114 110 104 100 94 90 92 104 111 110 117 126 130 131 133 126 125 127 126 131 128 120 119 
137 140 137 138 139 133 135 137 137 134 134 129 128 129 128 127 125 125 124 124 123 123 123 125 113 108 111 109 108 107 102 102 96 91 88 91 88 74 110 117 121 121 120 121 122 124 124 124 122 123 121 124 117 115 108 119 117 110 100 99 98 98 94 93 100 104 107 114 125 137 129 130 128 128 126 129 124 123 119 117 
138 138 139 139 137 135 131 132 137 136 132 133 129 132 131 127 126 124 124 124 125 125 124 126 114 108 109 111 108 103 103 106 98 91 90 88 89 76 108 120 118 122 119 120 121 123 121 122 123 124 124 127 116 113 104 116 118 110 106 96 98 101 95 98 101 110 112 116 129 131 131 127 130 126 126 128 127 121 118 112 
135 140 139 138 136 137 134 135 135 135 136 132 129 131 126 128 124 124 124 121 122 125 126 127 116 106 111 109 108 107 104 104 91 90 89 89 84 81 109 114 121 124 120 121 119 116 120 122 124 124 124 124 115 112 108 118 117 109 107 99 101 107 100 104 106 109 115 116 131 129 129 129 129 129 127 129 126 119 121 117 
136 136 136 139 137 133 134 134 131 134 133 132 131 129 127 129 127 124 124 123 123 122 122 124 117 110 109 110 105 103 104 106 94 94 91 89 84 88 108 117 119 124 122 120 119 119 119 122 123 123 124 124 113 111 110 117 117 111 100 95 100 99 103 102 99 107 116 117 124 126 131 124 129 129 123 126 128 123 112 118 
136 135 137 139 137 132 132 135 132 131 135 131 129 128 125 127 126 125 124 125 122 122 122 126 114 108 115 110 104 102 104 109 97 88 90 87 84 88 107 116 123 123 118 120 119 120 119 122 123 126 120 122 114 110 107 116 118 108 101 96 98 96 86 87 101 108 106 106 122 127 130 124 125 126 124 128 124 115 117 112 
132 133 134 139 137 133 134 136 136 132 133 132 131 126 126 124 127 124 124 123 124 123 123 128 119 111 111 114 103 100 105 106 96 91 91 86 84 88 107 119 122 126 118 121 121 120 118 121 123 125 122 120 106 105 102 116 114 109 107 101 95 97 95 95 102 108 112 111 121 131 127 122 124 124 123 124 126 123 117 113 
132 135 133 137 138 136 131 136 135 133 131 131 128 129 127 125 124 126 125 125 123 121 121 125 118 110 111 112 102 103 107 106 94 94 84 87 83 93 112 118 123 123 120 120 119 119 119 118 121 122 124 128 111 104 105 115 114 108 106 100 104 104 102 96 105 112 113 111 124 125 123 123 128 126 126 126 122 123 122 115 
131 131 132 140 134 134 136 131 135 130 133 136 130 130 125 125 126 124 125 125 123 123 125 126 114 112 107 108 103 97 105 105 93 90 88 88 84 95 112 116 118 123 119 119 118 118 120 119 121 118 122 124 105 99 104 114 115 108 96 87 87 96 104 101 97 101 107 113 125 125 129 126 129 127 122 122 124 125 126 114 
133 136 133 135 137 133 133 132 133 138 132 128 130 125 125 124 127 128 126 126 124 121 125 127 119 105 108 105 104 98 111 107 96 93 89 88 86 91 112 121 119 123 119 118 117 119 120 123 123 123 120 117 105 101 100 114 113 103 84 75 78 90 93 85 85 92 104 113 122 125 127 122 124 123 123 121 123 124 122 110 
136 138 134 134 140 133 133 132 136 133 135 133 130 128 125 126 129 129 126 126 124 125 125 127 114 107 108 107 101 100 105 111 94 95 86 86 85 95 112 120 120 122 117 119 119 120 119 121 124 122 123 120 102 103 110 114 113 107 86 76 77 80 80 86 90 97 100 117 120 122 122 122 127 126 120 123 122 122 117 113 
132 134 139 141 141 133 136 132 136 136 136 133 131 128 127 124 126 130 124 126 125 124 124 124 115 106 107 103 101 100 110 108 96 93 90 90 85 96 111 122 121 122 120 120 119 123 119 122 124 124 124 123 103 100 112 115 111 102 84 76 77 79 84 85 98 101 110 110 119 122 119 123 127 123 121 126 126 121 119 108 
133 134 137 130 138 134 136 130 136 132 137 131 132 128 123 124 124 124 125 125 126 123 122 125 114 106 102 105 102 102 104 108 93 92 91 87 84 101 116 120 118 121 115 121 119 121 124 121 122 123 125 125 103 103 112 114 112 95 82 74 73 78 74 89 96 103 106 117 118 123 119 120 127 127 122 126 119 124 121 106 
131 134 133 137 138 133 132 131 133 133 134 135 133 131 126 122 123 126 126 124 127 123 121 125 116 110 108 106 104 104 102 109 96 93 90 86 79 98 116 122 119 122 116 122 120 125 122 122 123 123 121 125 103 101 107 111 108 97 79 74 74 81 86 95 96 95 107 115 119 122 121 118 130 126 122 121 121 120 123 111 
129 134 134 135 135 132 132 130 132 132 134 131 129 132 129 123 122 123 122 123 125 125 122 122 115 104 109 107 106 104 103 104 93 95 89 88 81 98 108 120 119 124 116 121 121 122 120 122 122 125 122 124 97 103 109 110 107 94 75 65 64 77 87 91 94 97 107 107 116 119 119 122 124 124 118 121 117 122 125 111 
131 135 130 141 137 130 133 129 130 129 128 130 128 128 126 123 127 123 124 124 123 124 122 124 116 110 107 106 105 101 105 106 96 82 86 89 83 98 110 117 118 118 118 119 117 119 122 121 124 126 122 120 90 97 112 109 108 97 76 67 66 77 91 97 103 105 108 112 121 123 121 118 130 121 122 120 123 118 118 98 
131 132 132 134 137 130 132 128 128 130 131 130 128 126 127 120 120 121 121 125 124 120 121 124 112 107 106 102 104 105 105 107 97 94 90 93 80 101 114 119 117 118 116 117 119 124 123 126 123 122 122 117 94 92 109 110 110 95 75 74 76 91 90 102 108 109 107 115 119 121 120 119 122 117 119 123 117 121 119 93 
129 129 127 131 132 133 130 133 128 129 132 131 129 126 123 124 121 121 120 125 125 119 122 123 114 106 107 102 103 100 105 104 94 94 90 88 80 104 114 117 119 117 117 117 121 122 125 127 125 125 124 116 85 92 105 105 105 86 86 85 79 78 89 97 105 111 113 115 121 119 125 118 123 116 115 120 116 118 110 94 
126 129 127 130 133 131 128 131 130 130 133 130 126 129 128 122 125 122 121 122 126 122 121 123 115 104 103 101 100 100 101 105 95 93 86 87 75 100 112 116 119 119 118 118 119 125 125 124 123 124 118 118 85 88 106 103 101 88 77 74 75 87 94 98 103 111 112 113 124 121 119 116 122 118 114 123 114 112 109 80 
127 127 125 126 134 126 125 129 128 129 128 129 127 123 126 126 123 122 121 122 121 120 120 123 111 106 104 101 104 102 104 103 91 90 90 91 77 99 108 114 114 118 115 118 122 124 123 120 124 122 123 115 77 85 103 103 98 89 85 86 90 96 100 90 93 103 111 115 123 121 120 118 116 117 118 119 113 116 105 79 
125 130 128 129 133 126 125 131 130 126 132 132 128 130 129 126 122 120 122 123 124 122 123 118 114 104 109 108 105 106 103 101 96 91 91 90 79 99 111 115 118 120 117 119 120 121 121 121 123 123 120 109 79 82 102 101 99 91 89 90 90 97 97 72 61 86 118 117 127 123 120 119 123 118 122 116 114 114 101 68 
125 130 125 129 136 133 127 130 131 128 130 131 129 128 128 123 121 120 121 120 118 120 120 120 116 109 111 109 105 105 105 104 91 94 87 85 80 100 109 116 115 123 116 117 122 124 124 120 123 122 116 107 87 92 102 105 99 93 85 86 96 94 88 61 54 77 110 121 123 120 117 120 125 117 117 115 112 109 100 73 
125 127 126 129 132 128 128 129 129 128 126 129 128 128 123 122 121 118 121 119 123 121 122 123 118 111 109 109 102 102 100 106 92 90 90 88 80 100 107 115 117 120 116 114 120 121 122 120 122 119 114 104 87 102 104 104 100 87 73 50 67 67 51 40 49 81 108 110 117 117 112 121 123 117 115 114 112 109 90 63 
130 133 129 133 134 132 127 129 126 127 128 130 130 127 127 125 121 122 121 121 121 118 120 120 114 106 100 98 101 102 100 104 93 94 88 86 80 100 113 115 116 121 117 115 121 125 120 118 121 119 118 104 88 100 102 105 94 78 38 32 32 37 36 39 45 74 95 87 104 113 112 115 126 116 119 117 107 105 83 62 
132 134 131 132 131 131 130 128 128 128 129 128 129 124 125 122 120 122 117 120 121 117 120 117 114 101 103 102 103 99 104 98 94 90 84 84 76 100 110 115 115 119 116 118 122 121 120 117 120 121 117 100 85 96 100 104 94 73 32 26 27 34 34 33 39 48 59 61 72 87 96 106 120 118 108 111 104 99 72 54 
128 134 132 134 131 134 128 126 131 129 131 129 127 126 128 125 121 122 121 119 122 120 119 123 111 107 103 100 102 106 107 102 95 96 90 87 78 100 112 117 116 117 117 118 119 119 123 116 121 121 115 101 87 105 101 98 93 81 41 26 23 24 30 32 37 45 46 53 55 62 72 102 112 114 104 96 86 85 64 55 
128 132 130 131 135 132 131 128 127 128 129 128 128 127 122 121 123 122 118 120 122 118 118 117 114 103 99 100 105 107 102 105 98 92 89 86 80 105 110 113 114 119 112 119 123 118 117 119 120 120 111 95 78 101 101 101 90 77 42 22 19 24 29 28 30 39 41 44 52 52 58 79 100 91 74 57 63 64 57 49 
131 132 128 129 138 133 128 124 127 128 127 129 129 124 123 125 120 118 115 118 120 120 116 121 111 100 97 103 102 102 101 102 95 93 87 87 85 103 106 114 116 118 118 118 118 120 119 120 120 120 116 91 77 99 99 102 95 74 32 12 17 20 25 25 30 32 42 44 49 46 56 57 62 51 45 42 51 54 54 52 
128 133 129 133 137 129 126 124 126 126 131 128 128 125 121 121 121 114 118 119 120 118 117 117 112 102 102 103 103 99 106 104 96 94 89 86 84 102 106 114 115 118 119 120 118 121 116 120 121 121 113 87 75 100 100 99 96 73 29 15 16 20 20 23 24 28 38 42 41 40 49 49 50 46 35 41 51 49 50 46 
129 132 129 131 132 129 126 128 128 127 130 131 130 126 122 120 117 121 120 117 121 118 119 121 112 98 97 100 104 102 105 101 94 92 87 88 86 103 108 109 116 115 119 119 115 122 119 119 120 119 111 84 69 102 97 95 93 74 28 15 8 14 13 17 21 27 31 35 40 37 51 52 42 43 25 43 46 43 53 48 
126 130 127 129 133 126 123 128 127 128 128 132 134 123 125 121 118 121 117 119 121 120 117 121 113 99 100 99 104 99 103 100 93 91 90 87 75 106 105 113 117 120 117 116 117 119 120 121 123 118 108 80 63 93 96 97 87 68 22 4 2 6 11 13 13 21 27 27 31 35 37 43 41 34 28 50 45 47 49 39 
125 128 122 128 131 126 126 126 123 126 128 129 130 126 123 120 117 119 113 120 120 117 120 116 107 99 94 97 101 100 101 99 95 92 85 85 78 106 107 113 113 115 118 114 118 119 120 122 121 119 104 70 60 97 91 91 86 70 26 1 2 4 5 2 11 11 20 19 28 25 31 39 37 31 24 41 43 41 48 35 
125 128 122 125 128 126 130 125 127 124 129 128 129 126 122 119 117 119 117 118 120 119 118 113 108 95 95 97 101 96 101 101 93 93 85 86 82 107 105 111 116 117 118 116 117 114 117 119 123 117 103 67 62 90 89 94 86 68 26 7 0 7 5 3 5 9 10 9 15 17 24 29 29 28 22 29 39 39 43 30 
125 128 121 124 134 123 125 124 123 125 127 128 131 124 124 118 120 120 118 118 117 119 115 120 107 96 97 101 100 103 101 102 94 92 85 84 87 107 105 114 117 118 116 118 116 118 121 121 125 118 102 66 64 98 91 94 82 65 29 12 7 12 8 11 9 15 11 14 15 22 19 25 23 14 24 37 38 38 35 28 


