P2
80 60
300
152 155 151 149 148 149 150 148 146 141 137 120 78 91 111 113 107 113 115 116 124 123 121 121 119 126 127 122 125 125 129 114 115 119 126 129 124 127 132 132 132 136 134 138 135 138 136 138 142 136 132 135 135 136 134 131 133 132 142 132 131 135 139 138 139 142 138 139 140 143 146 145 143 147 148 146 148 143 146 144 
153 153 152 147 146 148 144 151 141 146 134 112 67 78 110 107 110 116 117 119 125 117 124 121 120 123 131 123 127 127 126 117 110 119 125 125 128 130 133 137 135 136 137 138 134 139 137 137 136 136 133 134 132 135 134 134 140 135 130 130 135 135 138 136 141 139 138 139 141 140 145 146 144 147 147 147 147 141 144 147 
154 155 155 148 151 153 152 145 145 145 133 98 55 67 102 104 107 114 120 118 121 121 122 122 126 123 128 124 124 124 123 117 109 122 128 124 127 129 135 135 136 138 136 138 136 137 137 139 140 133 135 136 135 133 131 134 136 131 132 128 132 134 138 139 141 139 141 142 141 142 146 146 147 147 146 148 143 146 147 148 
152 156 155 146 147 149 146 152 141 144 128 83 45 53 95 112 108 113 121 119 122 125 125 120 121 123 127 123 125 121 123 115 109 120 128 125 126 132 138 134 138 136 139 136 138 139 138 137 140 136 137 132 134 135 131 135 133 132 133 133 135 137 139 139 139 140 142 142 145 143 145 148 144 146 146 146 146 150 148 148 
156 157 148 147 148 152 149 150 142 141 121 65 35 46 94 110 104 111 118 122 125 124 123 126 125 124 129 122 122 121 121 113 107 122 125 123 127 136 140 135 136 138 141 140 138 138 140 139 137 140 135 135 136 136 134 133 135 130 130 133 135 137 137 144 140 142 145 144 142 146 143 147 145 146 147 146 145 146 145 146 
154 155 147 148 149 148 148 148 142 144 118 54 32 44 90 105 104 115 120 125 124 125 122 124 125 129 131 126 121 120 119 109 107 118 122 121 123 131 138 135 138 137 143 139 139 141 142 138 142 138 138 140 135 135 134 137 136 134 132 132 133 133 141 141 142 145 143 146 148 149 148 147 145 148 147 152 147 146 144 149 
150 151 148 144 148 149 145 147 142 139 112 49 34 53 83 96 108 113 120 127 125 123 126 123 120 127 139 128 123 123 119 111 107 120 125 121 128 132 139 134 137 138 138 138 137 141 138 141 139 138 137 134 133 133 135 131 134 139 133 132 132 138 139 140 140 143 143 144 148 145 144 142 149 146 150 147 148 144 142 144 
151 150 152 143 147 156 142 147 141 139 110 41 35 55 79 99 110 118 119 121 127 126 123 122 124 133 131 125 124 123 118 109 105 120 120 125 126 135 137 135 138 137 139 136 137 141 141 139 137 139 138 136 141 133 135 141 136 138 130 135 137 139 138 137 140 146 146 143 145 144 146 150 144 147 146 146 145 145 143 145 
155 153 151 151 149 150 147 147 134 138 99 39 39 54 74 93 114 117 120 122 125 124 119 123 123 124 127 123 125 121 120 109 109 124 124 123 126 133 137 133 135 137 138 140 136 138 138 137 141 137 138 137 136 136 134 139 134 136 132 137 136 139 141 141 143 146 144 141 146 147 142 143 145 146 146 144 146 141 144 144 
151 151 153 146 151 149 148 150 139 136 96 35 46 63 87 97 111 116 118 117 119 122 117 121 120 123 125 125 122 122 116 107 111 124 122 123 132 134 134 138 136 133 138 137 140 137 135 138 139 137 138 134 138 134 133 134 133 129 129 135 134 139 141 141 142 143 145 143 146 143 145 146 145 147 144 139 145 141 144 140 
148 151 152 146 149 149 151 145 136 135 89 32 36 60 89 96 104 111 113 116 118 119 117 120 119 120 124 122 123 123 112 107 110 123 122 118 125 134 136 136 136 135 136 138 140 137 136 137 138 136 136 137 135 136 134 134 134 135 132 133 136 139 139 141 142 141 144 145 144 141 141 143 143 148 141 149 144 145 143 143 
147 147 150 149 150 145 145 140 131 131 78 14 22 46 74 93 101 104 106 110 112 118 116 119 117 120 121 121 117 118 112 107 113 123 122 118 129 132 135 136 137 134 135 136 138 137 136 138 137 138 138 134 136 134 132 131 133 132 129 132 135 137 142 140 139 141 141 142 144 139 142 141 143 148 146 150 145 146 147 143 
146 148 145 150 148 146 142 139 135 127 71 3 15 36 63 81 98 101 105 104 114 117 117 119 118 116 126 120 121 119 112 104 113 123 118 117 130 132 134 131 135 136 137 140 140 139 136 138 136 136 136 132 134 133 133 134 132 134 129 133 138 139 145 141 141 141 144 145 141 142 134 141 144 148 146 148 150 145 144 144 
143 153 148 148 150 148 141 138 125 123 64 9 12 29 54 82 97 96 103 101 110 112 113 119 116 117 123 119 115 118 114 105 115 124 123 117 128 133 134 133 135 136 136 139 139 144 139 142 142 141 135 134 134 132 132 137 135 134 136 136 139 139 141 139 143 142 143 145 139 143 144 141 142 148 145 144 147 144 143 144 
149 148 150 148 147 150 145 140 135 123 52 9 7 32 55 80 90 95 102 102 105 109 114 117 114 117 121 116 121 118 109 104 115 124 123 119 129 132 132 136 134 135 138 139 135 139 137 143 141 142 136 135 134 134 137 136 141 145 135 138 139 140 142 140 143 143 146 144 144 143 140 147 146 147 145 143 144 146 147 144 
151 142 144 146 150 148 146 142 137 113 54 9 11 39 63 79 82 87 96 99 103 109 111 116 118 119 122 118 117 121 108 107 117 119 117 119 133 133 130 134 136 136 136 137 137 138 138 136 141 135 136 134 135 135 135 137 136 138 134 135 137 139 141 140 142 144 143 143 143 143 141 148 148 146 149 147 147 149 143 143 
141 131 137 143 150 151 148 144 133 117 47 9 13 35 58 76 83 83 92 96 103 106 118 119 116 116 121 115 120 115 109 106 115 122 111 118 132 131 133 134 133 136 138 137 133 143 137 137 134 136 133 133 131 135 135 133 134 138 134 138 138 138 141 137 140 142 143 145 144 145 141 150 152 146 144 143 143 146 148 147 
140 130 127 143 147 143 144 141 133 109 46 7 19 29 51 72 77 81 89 98 102 114 131 130 120 121 121 116 118 117 105 105 121 123 111 116 128 131 133 134 134 137 136 137 137 140 134 136 136 135 133 133 131 135 137 134 136 139 137 137 135 138 139 138 139 143 143 145 144 143 144 149 147 147 149 143 146 145 143 143 
131 124 126 141 147 145 144 139 137 110 38 8 15 32 54 74 75 82 88 91 101 124 128 130 116 118 118 115 119 115 106 106 122 126 114 121 132 131 138 139 137 138 137 141 136 138 136 136 135 134 135 136 136 138 130 138 136 136 137 139 140 139 139 141 144 146 143 145 145 148 147 146 148 147 148 143 144 144 143 144 
122 121 113 136 142 145 141 139 131 102 33 0 17 30 59 72 73 81 87 90 102 122 131 127 113 117 121 117 118 115 107 105 119 121 116 123 135 134 135 136 137 140 138 134 135 139 137 134 136 136 135 133 138 135 135 135 131 131 131 135 138 140 142 140 141 141 145 143 145 147 143 146 149 146 141 143 146 145 145 145 
128 126 114 132 144 148 138 139 130 94 27 3 15 29 57 69 73 80 89 95 113 123 123 130 121 114 120 116 114 111 112 104 116 120 115 123 133 133 137 138 135 141 136 136 137 139 137 132 134 136 137 135 137 135 136 129 133 129 132 137 138 138 141 142 140 144 144 143 147 148 148 147 145 146 148 145 146 145 149 142 
125 128 123 139 143 148 143 143 125 97 22 4 22 37 57 72 71 80 94 105 115 118 124 128 126 119 117 114 115 109 109 112 117 121 114 122 134 129 135 136 137 136 136 136 132 138 133 134 135 136 135 136 132 131 133 134 130 132 133 136 136 140 141 142 143 144 145 144 149 148 146 147 147 146 148 146 147 148 149 149 
123 127 126 136 141 144 144 141 119 89 18 10 23 38 62 72 74 81 93 105 107 113 117 122 123 121 118 114 115 107 103 113 118 117 118 118 134 132 137 135 136 136 136 135 132 138 135 136 137 137 136 134 136 132 135 131 131 131 134 135 141 141 141 140 145 148 144 144 144 143 148 149 148 146 143 145 146 146 148 146 
120 122 125 130 137 140 143 146 114 90 14 9 25 40 64 79 76 89 95 103 107 113 116 121 126 116 118 118 112 105 100 111 116 119 116 122 132 131 134 135 135 137 137 139 135 136 134 138 138 137 135 133 135 133 133 130 135 129 134 135 139 140 143 145 143 144 147 144 146 147 146 148 147 147 146 150 145 146 148 149 
117 120 115 129 136 140 142 140 109 78 20 16 25 45 65 68 79 92 99 103 105 116 118 119 126 118 117 114 114 100 102 109 116 113 117 122 134 132 135 136 135 136 139 139 134 134 135 141 139 137 133 136 132 135 132 134 134 131 135 137 139 143 144 141 144 145 147 148 147 147 146 146 148 153 148 148 151 145 152 152 
108 110 117 130 137 136 136 137 102 75 22 24 29 52 69 78 77 96 103 101 107 109 110 121 125 121 115 112 112 103 101 108 116 115 116 123 136 132 136 134 135 137 137 136 137 140 138 141 141 140 134 132 133 134 130 130 130 133 137 139 140 146 143 143 143 147 147 145 146 148 145 144 148 149 150 148 148 148 151 153 
105 112 119 130 139 139 137 137 96 67 23 32 38 47 71 76 79 94 101 104 107 112 120 119 121 115 117 110 113 100 96 110 117 113 116 124 134 130 132 136 135 136 138 138 137 140 137 139 137 135 132 132 131 129 132 133 132 132 134 140 140 145 144 142 142 147 148 146 143 144 143 146 145 148 146 146 152 146 148 148 
110 117 126 134 138 138 140 130 93 65 27 33 39 53 66 72 77 84 96 98 107 113 114 116 111 112 115 110 113 104 97 109 113 111 115 126 133 130 134 135 135 136 141 137 135 138 138 136 138 134 134 131 131 129 132 135 131 131 135 140 144 142 143 145 144 146 146 148 148 151 146 144 147 149 146 147 151 147 146 145 
113 118 116 131 131 135 130 127 92 62 26 36 42 54 68 73 72 77 93 99 101 102 107 109 105 112 111 110 106 100 98 114 114 113 119 129 132 132 138 139 137 135 138 137 137 137 136 135 135 136 135 131 131 131 129 131 132 128 133 139 141 141 145 146 144 148 148 146 147 147 147 148 146 149 151 150 151 148 143 147 
112 108 97 113 123 131 125 118 92 64 26 39 42 53 64 73 69 82 88 93 98 105 107 104 100 105 111 109 110 98 98 112 108 108 117 130 137 134 137 135 138 138 137 138 135 140 136 137 138 137 134 133 133 132 129 129 132 134 135 139 141 142 143 143 146 149 156 150 147 152 151 149 147 150 149 152 148 148 146 144 
79 77 78 80 88 99 89 93 78 57 23 41 44 46 62 65 65 75 84 90 92 97 99 102 104 103 112 107 107 93 93 107 105 110 113 125 133 133 135 135 137 138 139 139 139 139 133 137 137 136 132 132 132 133 131 131 133 133 136 137 141 141 145 148 145 145 147 151 149 149 149 149 148 150 148 147 148 147 148 148 
70 75 71 76 80 76 72 81 76 48 21 35 45 51 63 65 64 72 85 88 85 90 95 96 101 104 109 108 101 95 90 106 103 102 113 123 133 130 134 137 137 139 138 142 138 140 137 138 138 138 137 132 132 133 132 133 132 133 137 139 143 141 149 144 146 150 150 150 150 150 148 148 147 149 148 148 149 148 147 145 
69 66 70 70 74 70 71 80 74 44 16 30 46 53 60 61 67 74 87 87 87 92 92 101 102 100 110 105 99 92 90 105 97 96 110 129 131 133 136 136 138 138 142 143 140 140 137 135 138 137 135 135 134 131 134 135 136 136 139 141 145 144 148 146 148 150 153 154 147 151 151 148 149 152 150 148 152 148 150 151 
67 58 64 59 66 64 61 71 67 33 14 24 40 52 60 63 60 74 83 81 93 103 103 111 112 111 121 112 109 95 99 98 91 95 108 123 131 129 132 137 140 141 140 145 139 138 139 141 135 138 136 138 140 135 136 140 143 139 140 146 143 150 148 148 150 148 155 150 149 149 150 154 147 151 152 152 148 145 148 148 
60 47 59 51 55 54 57 66 57 18 10 36 47 50 58 64 65 67 82 88 128 141 146 141 146 143 145 142 138 124 98 96 87 91 108 126 134 130 137 139 149 165 155 146 142 146 142 138 142 139 137 140 137 141 154 161 155 152 141 148 148 155 151 150 152 151 152 153 155 150 151 152 154 153 152 147 149 151 150 150 
54 43 45 41 45 49 53 63 54 20 16 42 50 47 58 59 61 69 72 107 134 147 149 154 150 146 152 150 147 138 106 97 89 89 101 123 130 129 135 141 188 224 182 151 150 146 144 148 143 142 139 139 138 138 168 190 190 185 173 166 149 152 156 154 154 154 158 156 154 158 151 153 153 151 153 153 150 152 152 150 
62 41 41 42 47 46 47 51 38 28 24 40 48 46 47 55 56 56 77 126 142 149 149 155 151 153 156 152 155 150 122 94 85 88 103 122 130 131 137 138 195 240 216 151 148 145 145 141 140 142 139 135 138 135 174 196 203 202 204 214 199 187 173 161 158 160 158 157 158 157 152 154 155 155 153 154 155 153 153 151 
61 42 41 37 36 40 35 43 42 23 32 41 49 51 55 51 58 66 98 136 147 149 155 152 151 151 158 151 153 150 131 92 80 83 101 118 128 131 137 141 182 214 202 154 150 147 138 142 139 140 135 134 136 140 183 197 203 206 211 217 213 216 213 187 174 168 164 157 156 159 154 154 155 155 155 158 153 151 152 151 
60 37 37 29 33 34 28 36 49 68 69 61 51 54 57 54 60 75 117 144 147 152 153 155 157 157 158 156 153 151 143 100 81 84 99 119 128 126 136 147 179 187 188 175 142 143 140 137 138 137 135 137 140 146 188 195 205 208 214 219 220 216 216 191 190 188 186 175 165 159 157 156 156 158 157 161 154 152 157 155 
64 44 31 31 30 37 31 42 58 82 85 64 53 47 54 53 63 102 137 141 151 153 152 158 158 152 161 156 156 152 147 118 83 82 101 117 128 128 136 151 165 176 178 181 155 141 140 138 138 136 135 136 140 151 194 199 208 215 215 220 223 224 217 195 194 194 198 200 195 178 165 160 157 158 152 157 156 153 156 159 
63 49 45 39 35 40 45 57 67 81 80 60 56 55 52 64 96 136 148 148 152 150 154 156 157 160 166 160 156 150 152 140 90 89 100 120 128 127 138 150 162 161 164 170 151 142 139 138 138 140 140 140 142 166 194 204 212 215 218 229 225 223 210 195 197 202 206 208 215 208 200 184 166 162 162 160 160 158 165 158 
77 69 62 55 59 52 54 64 66 83 77 68 65 64 71 88 128 142 148 147 153 155 154 157 157 158 166 160 154 148 151 148 129 96 105 123 133 131 145 144 149 154 150 145 142 143 140 139 141 145 144 145 148 175 200 208 215 221 224 230 232 228 215 200 199 203 206 211 217 216 211 200 198 180 163 159 159 155 155 157 
89 88 96 96 95 96 96 99 93 92 101 90 93 90 94 129 142 141 136 132 147 158 154 162 155 159 164 151 148 144 148 148 147 126 110 129 133 131 141 139 142 143 144 140 140 141 136 138 144 145 145 155 157 191 208 216 219 220 226 237 229 229 216 203 203 203 206 211 217 216 210 207 204 195 167 156 155 153 153 150 
102 104 106 102 111 103 101 106 107 104 106 108 106 113 118 139 147 139 126 127 146 156 157 159 158 161 165 156 150 137 135 147 152 145 127 128 134 134 137 136 138 138 140 137 137 140 139 144 142 145 145 149 164 207 217 223 219 220 229 236 235 230 220 202 208 211 212 216 219 216 213 213 205 191 174 160 152 155 154 154 
107 112 112 102 107 106 102 108 103 109 104 106 112 112 129 141 147 141 129 129 152 154 154 158 159 158 161 154 149 141 140 141 151 150 142 132 134 132 135 134 137 135 138 139 138 143 141 143 139 141 142 149 161 217 231 236 228 227 232 240 239 238 219 206 209 214 214 220 220 224 219 211 209 192 163 156 153 153 152 153 
107 113 112 103 106 104 103 107 104 109 106 105 107 111 134 144 150 140 136 141 149 158 157 157 156 156 161 155 154 146 138 144 153 151 141 138 136 133 136 137 135 138 141 143 144 146 141 141 140 138 140 146 153 167 206 246 243 246 243 254 249 246 221 211 211 215 221 222 227 222 221 211 206 194 167 157 151 153 152 150 
109 114 108 101 103 104 100 104 101 105 105 106 110 104 124 144 146 149 152 152 155 157 156 158 158 158 167 156 157 155 151 149 154 153 147 140 133 132 140 136 143 145 148 147 149 153 147 147 140 141 137 145 152 155 159 195 253 260 274 267 264 258 228 214 217 222 227 229 229 227 220 212 213 191 167 161 155 154 153 153 
111 111 109 98 104 103 106 106 104 105 104 104 106 110 116 143 147 148 156 156 159 157 160 156 158 158 160 158 157 159 156 150 152 156 147 142 137 131 134 133 142 145 148 146 151 151 154 151 142 135 137 145 159 153 161 162 179 230 281 298 281 272 235 221 219 224 228 235 233 228 224 219 215 187 168 161 154 154 154 151 
108 108 106 101 104 107 103 109 103 104 106 104 106 110 119 138 145 147 155 159 156 160 164 163 158 158 162 155 159 158 156 155 148 151 146 144 129 127 132 134 131 137 138 137 139 147 141 139 136 136 143 148 150 154 153 158 154 159 194 265 300 290 244 224 223 224 232 234 233 231 225 221 214 183 163 158 154 152 152 150 
106 110 106 101 101 105 103 106 104 105 105 102 107 109 114 135 141 147 155 156 156 156 159 158 157 157 157 156 155 156 157 152 150 148 144 145 137 131 136 131 133 135 135 133 133 144 138 136 138 139 135 141 147 144 148 150 151 150 157 180 228 263 244 228 230 232 229 239 237 231 225 224 211 182 156 157 153 153 151 148 
111 109 105 100 98 103 102 108 105 108 102 101 107 105 113 133 145 150 152 154 156 156 156 156 159 153 162 154 156 155 154 153 149 148 147 144 147 134 143 139 145 141 143 136 138 143 144 147 144 142 139 141 148 150 149 149 149 153 154 158 169 185 198 229 228 238 240 239 240 235 227 223 212 178 159 159 153 152 149 151 
108 109 105 103 98 104 100 105 103 107 101 102 106 107 111 132 145 146 159 153 158 158 159 160 156 157 157 154 152 154 152 149 147 144 146 140 150 142 146 153 153 154 153 146 143 142 144 148 147 146 144 145 148 151 154 152 150 150 150 161 156 163 161 188 229 238 248 246 242 237 236 230 211 174 160 160 152 150 152 145 
107 106 105 94 100 104 103 105 100 104 103 103 107 111 114 134 143 149 156 156 158 157 158 159 157 157 161 152 155 154 150 149 146 140 136 140 144 142 149 151 161 160 154 154 139 147 147 144 148 151 150 150 151 153 158 166 164 151 157 154 154 154 156 160 184 233 250 248 244 247 241 234 213 174 155 154 155 150 154 152 
104 102 99 100 104 110 103 108 102 105 101 106 126 131 128 140 143 147 151 153 159 160 156 163 158 157 160 153 155 155 154 152 148 143 134 139 144 143 151 156 165 162 164 160 151 148 149 148 149 150 155 155 155 161 163 171 191 179 159 155 153 152 155 155 157 181 236 254 259 249 245 242 214 176 155 154 157 153 149 151 
106 107 101 98 102 102 101 104 98 104 105 113 135 147 139 141 145 144 151 153 154 156 161 159 159 159 164 156 154 151 153 150 145 144 136 139 146 148 155 160 167 166 160 164 154 149 146 149 153 149 151 159 166 165 164 163 184 182 168 156 148 150 153 148 150 160 180 231 262 258 255 246 210 170 154 156 150 152 152 153 
105 105 104 97 99 101 98 104 100 100 105 115 142 151 141 139 140 146 152 150 155 154 155 157 156 159 161 153 152 152 152 147 143 141 134 136 145 152 156 159 163 170 165 164 158 156 156 154 156 154 150 154 165 162 164 167 178 170 169 163 158 161 151 150 152 150 162 178 231 260 262 249 204 169 156 154 155 148 154 156 
107 106 104 94 98 98 97 102 99 109 104 118 153 147 141 139 141 145 149 152 150 150 152 152 153 152 155 153 151 151 147 146 144 142 135 136 146 144 153 150 161 169 171 169 165 160 160 160 157 154 151 157 163 162 164 165 166 167 173 180 188 167 154 149 150 151 156 156 174 229 255 246 194 165 155 159 151 151 153 149 
102 107 100 97 100 101 97 106 99 108 101 123 150 147 138 138 138 144 144 146 149 147 151 151 150 152 155 149 150 148 144 143 139 144 134 136 140 146 152 155 158 164 168 169 161 161 162 166 157 156 152 153 162 161 169 161 169 168 172 181 183 174 154 146 148 149 153 151 157 173 215 223 177 162 155 152 155 148 151 153 
108 110 99 97 93 101 101 103 101 108 107 119 147 148 138 135 138 138 139 144 145 145 150 154 151 152 156 146 147 145 146 141 138 140 127 136 148 151 158 158 158 164 170 166 163 164 159 161 161 158 155 156 159 159 167 163 166 165 166 163 166 162 152 150 152 149 148 147 152 154 164 171 166 153 154 150 152 146 151 148 
106 107 105 100 97 101 98 101 99 103 104 120 149 145 136 133 133 136 138 145 141 143 150 148 150 149 150 143 143 139 142 137 131 134 117 135 152 155 161 158 158 163 166 170 163 165 164 165 166 158 154 150 157 161 164 162 162 163 165 161 157 156 155 149 151 150 148 153 155 148 156 152 157 155 153 154 152 147 152 151 


