P2
80 60
45
31 33 30 30 26 28 31 30 29 34 36 32 28 23 28 31 29 32 30 28 30 31 28 25 27 30 27 30 32 31 31 29 33 34 33 30 28 30 32 28 32 31 32 32 31 32 34 30 35 32 33 32 34 34 32 33 35 36 32 34 29 28 32 30 27 28 26 24 21 18 21 22 26 24 21 22 22 21 22 26 
34 33 33 30 29 32 29 31 32 33 33 32 30 26 34 29 35 28 32 31 35 30 31 21 30 27 29 31 31 30 27 32 32 31 31 29 28 31 31 30 34 32 32 30 32 32 32 34 34 31 31 33 33 36 37 35 37 37 33 32 31 28 28 28 28 27 25 22 21 19 19 22 26 25 23 23 22 25 24 21 
31 33 31 32 31 31 32 31 31 32 33 32 28 29 31 32 32 30 32 32 34 32 26 28 28 31 27 34 30 32 31 33 31 34 34 32 31 36 31 31 34 30 33 31 30 33 33 34 38 33 34 34 34 35 35 33 34 34 34 33 30 29 29 31 30 28 24 24 22 20 25 24 25 23 23 23 18 23 24 22 
33 34 32 29 33 30 34 32 34 35 40 33 28 30 32 30 34 30 33 33 31 31 33 28 32 32 29 31 34 32 33 31 31 34 30 33 31 36 36 32 36 30 34 33 33 33 35 33 40 33 34 34 33 36 32 34 33 34 35 34 35 31 31 30 29 27 26 25 25 23 27 27 24 25 24 23 23 23 25 25 
39 36 37 30 35 36 30 31 33 34 38 34 32 31 34 34 35 32 31 35 29 31 32 35 34 32 35 33 32 32 28 30 29 29 30 34 33 35 36 31 34 31 33 32 31 35 36 38 38 33 35 35 34 34 36 36 34 34 32 35 35 30 30 33 28 27 27 27 24 23 27 24 24 27 25 26 15 24 25 21 
36 36 31 32 34 32 30 34 36 34 31 34 30 31 33 37 33 33 31 38 33 34 34 32 32 34 30 34 33 35 30 29 29 30 31 31 30 34 32 32 36 32 32 30 33 32 40 36 36 34 35 36 35 32 34 38 34 34 36 32 31 28 27 30 32 28 26 29 30 22 28 21 27 25 26 22 17 23 24 22 
39 34 31 34 34 34 33 33 35 33 35 35 32 32 35 32 38 30 34 32 33 35 32 29 32 34 29 34 34 31 30 28 28 31 33 31 35 34 35 32 38 31 32 32 35 34 36 35 39 35 37 36 36 36 31 38 36 39 40 34 33 28 32 32 32 32 30 31 26 20 23 25 25 25 25 21 17 22 27 26 
35 36 34 34 34 36 34 34 35 33 35 33 28 28 31 33 34 34 33 33 37 32 30 29 31 34 32 36 33 34 28 29 29 32 32 37 30 33 32 31 36 32 32 34 33 32 35 36 35 34 36 36 38 34 33 40 37 35 34 31 32 32 33 28 31 30 27 25 25 24 23 25 24 22 20 18 19 19 23 23 
38 38 35 36 32 34 34 32 33 33 36 37 30 31 32 33 33 33 34 34 33 31 32 31 34 35 32 32 33 34 32 28 30 31 32 33 32 34 33 29 31 28 33 34 33 36 34 34 35 35 36 36 35 38 33 37 34 32 34 33 31 30 37 27 31 30 33 30 27 25 24 22 23 24 21 20 20 20 21 21 
35 41 36 34 34 37 35 36 33 35 35 33 30 31 36 32 37 33 33 32 31 34 30 30 29 32 32 35 33 34 29 30 33 33 33 32 30 32 31 30 30 29 32 32 32 33 34 34 36 35 34 35 35 33 35 36 34 34 33 34 29 32 34 33 31 33 30 26 28 24 22 23 26 25 20 22 22 21 23 24 
38 36 32 35 38 37 38 35 35 39 35 33 30 29 32 34 33 29 34 30 33 31 29 31 29 32 31 33 34 33 32 31 33 29 30 30 33 34 32 33 33 31 31 30 33 34 32 34 34 34 33 35 34 33 31 35 35 35 37 32 32 30 31 31 28 29 32 33 24 21 22 22 23 23 22 26 25 23 25 23 
39 40 40 40 35 34 33 36 32 34 36 35 31 33 32 31 32 29 29 33 29 33 28 32 26 30 28 34 32 33 33 30 32 33 30 32 28 31 34 30 33 31 31 31 30 31 34 33 36 34 33 34 35 31 34 32 34 32 31 33 31 31 31 33 31 30 27 28 22 19 21 19 22 22 22 28 23 18 22 22 
36 37 39 40 34 36 32 31 32 33 32 36 30 29 31 31 27 28 30 29 29 33 30 29 29 29 29 32 30 30 29 32 31 32 29 31 28 29 32 29 29 32 33 33 35 32 36 35 36 32 33 33 32 31 32 33 35 35 33 32 32 31 33 30 31 28 28 25 22 24 18 20 24 24 23 25 18 23 23 22 
38 39 40 37 35 37 33 34 31 32 31 32 31 28 29 34 29 29 30 30 30 28 30 26 28 28 29 31 31 30 27 29 30 32 29 28 29 34 33 30 34 31 32 32 31 35 33 34 38 39 36 32 30 31 31 35 33 35 35 34 33 28 33 29 30 29 30 26 23 21 23 18 22 23 21 21 19 21 26 19 
35 39 40 35 34 32 32 32 32 31 32 31 27 30 28 31 31 30 31 30 27 26 31 31 29 30 27 30 32 32 30 28 29 32 29 29 29 30 31 31 34 30 34 33 34 34 31 35 36 38 34 32 30 32 32 36 38 44 35 33 31 29 32 32 29 27 29 26 20 23 22 21 24 24 22 21 15 23 29 21 
39 38 38 36 36 35 35 35 35 33 31 31 31 30 28 34 32 30 29 29 27 29 28 28 29 31 29 31 32 31 31 32 31 30 31 29 30 27 31 30 34 31 33 32 32 33 33 30 36 37 32 32 34 34 33 37 36 39 35 33 31 29 33 28 29 30 26 30 24 21 23 25 23 25 22 21 20 26 25 19 
38 38 42 35 37 31 34 32 31 31 33 32 26 28 30 32 30 31 29 28 31 28 28 29 27 29 26 29 33 30 29 29 30 33 34 32 28 30 32 31 31 31 34 29 31 32 33 31 33 31 34 33 33 33 33 34 36 37 38 31 34 33 30 30 31 28 30 26 20 24 25 26 32 28 22 24 18 24 25 22 
40 40 39 35 35 36 34 32 33 31 33 33 32 28 32 32 29 28 32 31 28 30 26 28 28 27 29 32 30 29 31 30 32 34 30 30 32 30 27 32 33 31 32 30 32 32 31 32 36 32 30 32 34 33 35 34 33 38 38 33 29 29 28 28 29 28 29 26 23 20 22 27 27 24 22 20 18 22 26 21 
38 39 36 38 36 36 32 29 32 30 32 33 28 29 30 33 30 30 32 32 29 31 27 28 31 29 33 30 32 29 30 31 35 32 30 32 31 29 32 36 35 31 30 32 31 31 30 30 35 29 33 36 34 34 34 36 35 35 34 32 34 29 30 28 32 30 28 28 23 20 24 24 24 23 19 23 18 23 18 15 
38 37 41 38 37 36 32 32 31 31 33 33 31 30 33 33 32 31 34 32 29 34 33 28 32 32 32 33 34 34 35 29 32 30 33 32 31 31 33 33 33 32 29 31 27 31 32 33 34 32 32 33 36 32 31 35 32 34 33 34 33 28 31 30 28 27 29 26 27 23 23 25 24 21 21 20 18 23 20 23 
39 37 40 33 36 37 33 32 32 30 32 34 32 33 32 31 31 33 30 31 29 33 30 28 31 31 31 30 32 31 34 32 31 29 32 30 30 30 32 32 31 32 31 31 29 29 32 31 33 34 30 35 32 34 32 29 31 31 30 36 32 28 31 31 28 27 27 27 27 23 26 22 22 26 20 21 17 23 23 19 
40 38 39 37 39 35 35 32 32 32 31 34 36 33 33 30 31 30 30 32 29 30 30 29 32 31 30 30 32 32 30 31 30 29 31 31 31 32 31 30 31 32 32 30 31 30 31 32 32 31 36 31 36 36 32 35 32 33 34 30 33 30 30 33 29 33 29 28 22 28 26 24 26 23 22 18 22 22 25 27 
38 38 35 37 37 37 32 34 32 31 30 36 31 30 32 28 30 30 32 32 30 31 30 29 31 32 29 31 32 29 28 29 30 26 28 30 29 31 33 32 32 28 30 27 34 29 28 31 31 33 36 35 33 32 32 34 31 31 34 32 34 33 30 27 30 33 27 28 21 25 26 25 27 22 20 20 23 25 26 23 
38 38 37 37 36 35 34 42 32 31 36 33 32 32 31 34 33 32 32 30 30 30 28 26 28 30 28 32 30 29 30 32 29 28 32 31 27 31 29 31 30 30 27 30 27 28 28 29 33 35 33 33 34 36 31 30 32 31 34 33 32 28 30 33 28 28 30 28 24 24 28 24 23 25 22 27 20 24 26 23 
36 40 34 35 32 35 34 35 35 36 30 32 32 30 29 33 31 29 30 33 32 28 26 28 30 32 30 32 31 28 31 27 27 30 28 29 29 29 30 25 30 28 28 29 31 30 29 33 36 32 30 32 33 34 33 30 31 33 30 31 27 29 30 29 30 30 30 29 27 24 27 24 24 26 22 20 19 26 30 25 
37 38 40 33 35 35 35 33 32 30 32 31 30 30 34 32 33 33 33 33 32 31 28 30 31 32 29 32 30 30 26 29 29 31 25 28 28 29 28 28 29 28 30 32 31 33 32 34 34 28 30 32 32 34 30 31 28 32 30 30 30 29 29 28 31 31 30 24 24 22 27 21 23 25 24 23 19 23 27 24 
37 34 37 35 35 36 34 32 30 34 32 31 31 31 32 33 33 32 30 32 33 32 35 28 30 31 31 28 29 30 28 25 29 30 29 27 29 28 28 28 32 28 29 30 30 31 28 34 34 29 31 31 31 30 28 31 31 30 30 32 30 30 31 29 31 31 30 27 26 23 24 23 24 24 19 20 18 22 24 23 
38 39 39 34 37 36 31 33 29 29 30 30 27 28 31 31 30 30 29 33 31 34 31 30 31 32 32 30 29 28 29 27 31 27 27 30 26 30 30 28 28 27 30 28 29 31 31 29 31 29 31 30 28 30 29 30 29 29 29 30 31 29 28 28 28 29 31 28 22 24 24 21 22 24 22 20 21 19 23 22 
39 41 33 32 36 35 34 34 32 30 29 33 30 29 33 32 31 30 33 34 31 30 29 30 32 30 28 32 31 29 27 28 29 25 26 27 28 29 29 32 28 24 28 30 28 32 29 30 33 29 29 28 28 29 30 29 30 30 28 28 29 30 27 28 31 30 32 28 25 24 26 24 22 22 22 22 18 21 20 24 
40 37 40 36 31 37 35 35 36 32 33 30 27 31 35 29 30 30 31 31 29 28 30 28 30 31 27 32 30 29 28 27 27 28 31 28 27 32 30 29 30 29 30 32 30 31 30 32 30 30 30 29 29 29 29 28 29 31 31 31 30 28 27 28 29 29 34 28 24 25 25 26 22 22 23 26 20 25 22 20 
38 38 36 33 36 34 35 34 37 33 33 35 29 30 29 30 32 31 29 29 30 28 31 30 30 33 29 31 33 31 28 26 28 29 28 28 26 27 29 27 27 28 33 33 31 31 29 34 30 30 29 30 31 31 29 31 30 29 30 29 28 29 29 27 28 28 27 27 26 22 28 26 23 21 22 20 16 19 23 16 
39 39 38 37 34 35 34 35 31 32 35 32 29 30 32 32 33 32 30 28 31 30 26 31 31 34 32 35 30 30 29 30 28 28 26 27 31 29 27 29 31 30 32 32 30 33 28 32 30 33 33 29 31 30 31 29 32 31 30 27 26 30 28 27 30 24 29 27 27 26 27 23 23 24 19 20 17 19 23 20 
39 36 38 35 35 35 33 33 29 29 32 31 30 30 31 32 31 32 27 29 30 32 26 30 33 29 31 32 30 30 29 26 29 25 31 27 32 27 29 27 29 30 33 31 31 31 31 31 31 33 30 32 28 29 29 30 30 30 29 27 29 26 31 29 27 25 31 30 26 26 23 23 21 20 21 19 16 19 25 21 
32 37 37 37 34 32 33 35 28 30 33 33 29 29 31 32 31 30 29 32 30 28 30 32 32 32 30 31 31 35 28 28 28 25 29 28 27 27 28 29 31 28 32 33 33 30 31 32 32 30 29 28 29 30 29 29 31 28 30 28 29 29 27 26 26 30 26 26 24 23 27 22 22 20 21 19 17 20 22 20 
36 35 38 36 34 34 33 34 34 36 32 33 30 30 29 29 31 31 32 33 31 30 27 29 32 31 30 31 32 32 30 31 28 27 30 27 32 28 31 31 30 31 30 33 34 33 31 28 33 30 30 31 29 33 32 31 31 30 29 30 28 28 29 28 28 26 32 29 25 24 26 22 22 23 20 21 18 17 20 16 
37 38 38 33 37 37 33 34 32 29 36 33 29 31 30 32 30 32 31 33 32 31 26 27 32 28 29 30 30 27 30 30 29 28 28 29 27 29 31 32 31 31 30 29 31 30 33 34 33 30 30 32 30 28 31 33 30 28 29 30 26 25 27 29 27 29 31 27 26 23 23 22 21 24 20 19 16 23 21 18 
41 33 37 36 35 35 35 36 32 32 36 35 28 29 30 28 33 34 32 30 31 30 29 27 30 30 29 29 31 30 29 28 28 26 30 26 30 31 29 24 34 29 30 31 28 31 33 29 32 31 30 32 32 31 31 31 32 30 31 27 27 26 27 27 26 30 29 25 25 23 24 21 21 24 22 20 15 21 23 18 
42 39 36 34 37 38 35 33 33 31 36 35 33 29 30 33 34 38 31 31 30 30 31 29 32 27 28 27 29 31 30 28 28 29 30 30 27 31 29 31 31 30 30 30 30 30 30 28 30 35 31 32 33 32 31 32 30 28 31 29 27 23 28 28 31 34 28 26 23 19 23 21 21 21 18 20 22 23 23 21 
39 41 45 35 34 38 35 36 32 34 35 34 33 27 30 32 32 33 30 32 29 31 31 31 29 31 28 31 28 29 31 30 28 30 29 28 28 27 29 30 30 29 32 30 30 30 27 29 32 30 32 30 36 32 34 32 31 27 29 32 28 24 27 25 28 28 27 25 23 22 24 18 21 21 20 17 18 21 25 24 
35 42 40 39 37 33 36 33 34 33 40 35 32 29 28 32 31 31 31 32 30 32 28 31 34 34 31 34 29 33 29 32 29 29 28 27 28 30 30 31 27 28 32 31 29 33 32 30 33 35 34 34 34 33 32 31 30 29 28 29 28 27 25 28 30 28 29 25 23 24 23 18 19 21 18 20 18 22 29 26 
39 38 37 36 36 36 32 32 32 32 35 33 30 30 30 33 32 34 33 31 33 30 29 29 31 32 34 29 32 27 27 28 29 31 28 27 28 26 28 29 28 30 31 30 27 33 31 33 30 34 33 34 35 39 35 32 33 32 27 25 25 26 27 25 30 27 27 25 24 22 23 22 18 21 21 19 16 19 32 23 
41 40 38 34 34 29 32 34 34 29 34 32 30 32 33 33 32 31 35 31 29 30 30 28 28 32 32 34 28 31 28 30 28 24 20 31 32 29 27 27 31 31 28 30 30 31 32 35 31 32 32 34 32 32 32 33 32 31 31 29 26 25 28 29 28 30 29 22 23 22 22 18 23 18 20 19 18 16 26 24 
36 37 41 32 32 30 31 32 31 27 32 33 32 30 32 29 31 33 32 30 30 31 28 30 32 30 31 33 31 31 28 31 29 26 29 33 32 30 31 28 30 27 26 27 29 31 37 35 35 32 32 33 32 32 31 31 31 28 30 30 29 28 32 30 29 28 25 21 24 24 21 18 20 22 18 16 16 20 23 21 
35 38 36 32 32 33 30 29 30 29 32 34 30 30 33 30 32 29 31 30 28 31 31 31 31 31 31 30 31 29 29 28 26 29 28 30 27 28 30 29 29 29 28 28 30 33 31 41 34 35 35 32 32 32 30 29 29 27 27 29 26 26 28 28 25 31 23 25 24 19 21 20 20 21 15 18 15 20 21 25 
31 36 35 31 33 30 31 30 31 31 32 33 33 33 35 31 32 32 30 31 32 28 28 28 29 31 30 32 30 32 30 26 28 27 26 27 30 30 31 29 32 30 26 30 33 32 35 37 36 32 31 31 31 28 31 27 30 30 29 27 27 28 26 28 29 28 29 27 22 21 20 19 22 21 16 19 16 16 22 21 
33 36 34 33 37 30 33 33 33 31 29 34 30 34 37 31 36 31 30 33 29 29 26 28 29 29 28 32 33 30 30 28 30 26 30 32 29 29 27 25 29 27 28 27 32 33 30 34 32 33 35 31 29 30 30 28 29 29 29 28 27 24 27 26 28 30 27 24 27 21 22 18 20 18 22 22 16 17 20 20 
35 36 31 32 29 32 31 32 30 31 29 30 30 34 31 34 32 31 29 32 34 32 29 27 32 29 32 31 31 28 27 25 29 26 26 30 30 30 27 26 28 28 32 28 30 30 31 32 36 32 29 30 33 28 28 29 28 30 29 27 25 27 28 25 26 26 25 23 19 19 23 22 22 20 18 17 16 20 21 14 
36 36 31 31 30 33 30 34 28 29 31 32 32 32 33 33 32 30 29 30 29 30 31 29 31 29 27 30 32 32 30 27 29 26 24 28 31 29 30 29 30 30 31 33 32 31 34 30 31 30 30 29 30 30 29 31 27 31 29 29 26 25 25 27 25 27 24 26 20 17 21 18 23 20 18 16 13 17 20 20 
34 36 29 30 32 31 30 33 30 27 31 32 28 30 29 30 30 29 29 30 28 31 33 29 30 29 30 31 31 30 28 25 23 25 24 26 26 31 26 29 26 26 27 30 30 30 34 29 31 30 32 29 29 30 30 31 30 27 28 28 25 26 23 25 25 27 27 22 19 18 21 19 19 21 17 16 14 17 19 15 
37 31 31 31 34 30 34 29 29 27 32 33 30 29 36 26 30 27 31 29 29 31 30 29 31 30 27 29 29 29 28 29 27 24 24 30 24 29 29 25 26 22 25 31 30 31 30 31 29 28 29 28 30 31 30 30 31 29 29 28 25 24 24 24 25 25 21 22 18 18 18 18 20 19 19 15 12 16 17 14 
36 34 33 33 34 30 29 29 32 28 33 29 30 31 31 27 31 32 30 31 31 29 28 26 29 28 29 29 31 29 26 23 26 25 24 24 26 26 27 26 26 23 27 25 30 30 31 32 32 29 29 27 28 32 32 29 28 26 24 28 29 24 22 24 26 24 23 22 20 17 17 16 19 18 15 15 12 18 18 15 
36 35 35 27 32 31 34 27 28 27 30 32 30 29 30 32 32 28 28 30 32 28 24 27 29 27 27 25 29 28 27 27 23 27 30 25 20 23 26 24 24 24 27 27 26 28 30 30 30 28 29 28 27 28 29 29 31 30 31 28 25 24 25 26 23 25 25 23 19 21 15 17 18 16 14 14 10 14 15 15 
33 32 34 35 34 36 33 32 32 32 32 33 29 27 32 31 30 30 27 30 28 28 27 29 30 32 29 29 27 29 26 27 24 27 26 26 24 26 26 25 25 27 27 28 29 28 29 29 31 29 29 28 28 32 30 29 31 33 30 25 24 25 26 22 20 23 21 18 16 16 17 16 17 17 11 13 8 13 15 15 
35 33 29 29 40 35 32 32 27 30 34 30 30 30 30 31 31 29 28 30 30 30 27 30 30 30 30 32 30 29 28 28 27 28 25 26 26 26 25 26 26 25 26 27 27 28 29 29 31 29 31 31 28 31 29 32 33 29 27 27 27 24 23 23 23 23 26 19 20 16 20 16 18 17 15 16 12 11 13 15 
29 32 33 31 34 38 32 32 30 31 36 32 30 31 32 31 32 30 29 28 27 30 28 30 28 30 34 31 29 31 26 23 26 28 26 25 24 22 22 25 24 23 22 31 25 26 28 27 30 29 31 29 30 30 28 30 29 29 27 29 24 22 24 22 22 22 23 21 20 15 21 30 17 15 16 11 9 12 13 13 
31 29 33 31 35 30 30 33 32 32 37 38 31 34 34 29 30 30 26 25 27 28 25 28 28 29 29 30 29 30 27 25 24 25 26 24 25 24 23 24 27 25 24 30 27 25 27 28 28 28 29 28 30 26 27 28 28 29 28 24 22 22 23 21 23 24 22 21 16 14 19 13 14 13 13 15 9 12 10 8 
28 33 33 34 32 31 31 30 28 28 33 32 39 30 30 30 29 27 24 30 29 27 27 26 28 28 27 28 28 25 24 22 27 26 22 23 23 23 23 23 25 25 26 24 27 28 29 30 30 30 28 24 28 28 26 27 29 29 26 23 23 23 28 25 23 23 22 13 13 14 17 14 15 14 12 12 6 9 11 4 
32 33 30 28 35 29 28 29 28 29 31 33 33 30 32 31 29 28 25 28 30 29 24 28 24 26 23 25 22 27 23 22 22 25 24 24 23 24 24 26 29 24 26 28 28 26 27 34 26 31 28 27 28 24 26 27 30 26 28 23 24 22 23 21 23 22 16 16 15 14 14 13 15 15 11 13 7 10 8 6 
33 33 32 30 30 32 31 33 29 30 31 32 28 32 28 25 29 29 30 30 29 26 26 31 28 26 22 23 28 26 22 22 22 26 26 24 25 23 25 25 24 26 37 26 27 28 30 27 28 31 29 26 26 26 29 28 25 24 25 22 20 23 21 20 25 19 20 14 12 16 12 13 15 11 11 12 9 8 8 0 
33 34 31 30 31 29 27 27 28 28 28 28 28 25 27 25 26 27 25 26 27 23 27 26 25 26 23 23 25 24 21 23 20 24 25 26 27 27 22 23 25 24 22 28 28 28 27 27 27 27 26 22 28 26 21 26 24 24 27 18 16 15 18 19 15 18 21 16 12 9 13 8 10 9 8 10 6 7 3 3 


