P2
80 60
169
147 150 153 153 151 152 156 158 155 154 155 150 150 145 148 151 149 149 151 149 154 154 153 146 150 144 140 137 141 128 108 67 27 30 44 62 74 88 100 105 102 115 118 118 121 120 120 123 126 127 125 127 131 135 134 140 129 131 129 127 124 130 129 129 126 127 120 116 111 100 111 121 128 126 127 124 121 122 130 129 
148 153 155 153 148 153 153 153 155 156 155 154 145 142 142 143 149 146 147 153 152 154 151 148 146 149 142 136 142 130 101 63 22 26 32 57 70 87 93 102 98 110 117 120 118 117 118 124 121 122 125 126 126 127 132 129 131 130 129 128 127 129 124 127 126 124 117 121 114 105 108 125 126 127 125 127 123 124 133 133 
151 149 153 150 150 157 157 155 156 155 154 154 146 137 139 141 148 150 150 150 153 153 152 148 149 151 145 135 141 130 101 65 18 23 24 42 55 74 86 92 92 110 112 111 115 113 116 119 121 125 127 124 126 129 128 128 127 127 128 133 128 127 128 127 129 124 119 119 115 106 108 121 126 124 125 127 122 125 137 132 
156 156 150 150 152 154 157 156 156 153 155 152 146 142 137 148 148 151 151 152 154 155 154 153 149 148 142 138 140 130 97 59 15 10 12 33 49 59 75 86 97 109 114 113 113 114 118 116 121 122 119 122 123 127 123 127 125 126 128 131 129 129 131 130 130 125 121 121 110 104 113 123 128 130 127 130 121 124 140 131 
154 152 150 153 152 157 158 154 155 155 153 156 149 142 136 150 149 154 153 154 153 153 154 151 151 151 146 137 138 128 98 55 10 8 6 34 39 54 67 85 95 112 115 110 113 111 119 116 116 120 119 124 125 125 128 127 127 129 129 130 129 130 133 133 130 128 124 124 115 107 114 126 128 128 128 130 126 127 134 139 
155 152 152 152 149 155 155 155 158 154 154 152 150 148 137 142 149 150 152 156 152 154 156 152 155 148 143 137 140 116 95 46 11 7 6 27 35 49 59 77 94 104 112 107 111 109 117 110 118 119 119 125 125 125 123 129 127 128 129 128 127 125 129 132 128 125 127 120 125 107 121 122 127 126 126 126 127 123 135 136 
152 155 151 151 157 154 155 154 152 152 156 151 146 138 138 141 153 150 152 154 156 152 155 151 149 148 142 140 141 119 94 47 8 7 10 22 31 43 58 76 91 101 103 105 109 109 112 112 112 116 119 124 123 123 122 127 126 133 131 129 127 127 127 128 129 125 122 122 116 108 112 116 125 125 129 125 126 125 130 138 
153 152 151 152 153 158 153 157 151 155 152 148 147 143 139 142 152 152 153 153 158 155 157 154 150 148 143 142 139 115 92 45 9 4 5 21 30 42 55 76 89 96 98 103 107 108 110 107 111 118 114 120 122 124 121 126 125 130 128 129 126 125 128 130 127 128 123 121 115 104 109 118 125 126 126 125 122 124 125 131 
155 155 154 155 153 156 154 156 152 153 154 154 150 146 144 141 152 152 153 153 159 158 154 152 153 151 146 147 146 121 95 39 11 10 7 13 28 44 54 69 86 89 95 98 102 105 109 107 110 115 113 117 115 123 119 121 126 128 127 129 128 127 126 129 127 126 124 119 113 107 114 122 124 124 125 126 121 121 130 130 
155 154 155 153 154 156 157 156 154 151 153 152 152 146 144 144 149 146 150 148 153 154 152 149 151 147 147 145 144 116 98 41 13 9 4 20 34 52 59 74 79 89 91 92 98 112 112 115 113 121 113 115 114 120 121 119 122 123 125 127 129 125 129 128 130 127 121 116 115 102 118 127 125 121 122 123 115 120 128 133 
156 154 152 150 154 156 159 153 154 152 152 149 145 146 138 136 140 140 149 151 154 151 150 152 151 150 145 145 145 118 99 41 10 11 5 14 29 55 66 71 77 86 88 91 99 106 117 115 117 119 114 116 117 116 118 123 121 122 120 124 123 126 125 128 129 126 123 119 107 101 115 121 121 124 120 124 117 125 136 132 
157 153 151 152 154 153 158 155 148 145 149 149 140 139 134 132 134 145 149 152 154 154 153 153 147 147 148 143 144 121 102 41 14 10 5 19 33 49 60 68 73 83 85 93 98 115 127 121 125 123 111 114 111 117 119 117 116 121 123 124 124 126 124 129 128 123 118 117 113 99 113 122 123 121 121 120 118 126 129 133 
157 152 149 157 151 150 157 152 145 148 151 148 139 139 136 127 134 139 144 149 158 152 153 151 151 150 143 142 140 119 103 39 12 11 8 25 27 47 60 68 74 80 82 84 103 119 125 125 129 129 113 113 111 114 112 118 119 119 127 122 125 126 130 127 127 124 116 113 109 99 102 117 123 123 123 117 122 116 129 128 
153 150 150 152 154 151 155 150 146 148 146 145 138 131 121 121 123 137 142 146 153 151 150 153 151 148 144 142 133 113 100 38 13 10 8 19 27 38 50 67 70 76 79 83 94 114 114 122 120 123 110 112 111 117 115 120 119 125 124 124 124 123 128 125 125 123 116 113 102 97 110 117 124 119 123 117 119 116 127 131 
152 153 151 153 151 149 155 154 145 144 145 144 136 135 121 115 118 136 147 148 153 150 151 154 149 145 146 143 138 114 102 36 12 9 6 17 27 33 46 61 70 79 79 84 90 105 109 110 113 117 106 112 110 112 116 118 123 136 123 123 124 123 127 127 127 125 117 120 101 101 111 122 127 126 122 122 120 117 129 133 
148 155 153 150 157 149 147 151 149 142 146 144 136 135 119 120 124 132 139 147 151 150 152 151 146 146 142 146 130 115 102 34 13 8 4 14 21 31 48 64 68 78 80 83 95 108 117 119 119 112 104 108 109 111 118 119 117 126 123 126 120 123 125 125 124 127 121 121 114 103 112 121 127 122 126 121 118 120 128 135 
152 152 152 154 147 150 150 150 147 144 142 137 123 118 110 114 119 132 137 148 151 152 150 150 147 147 146 139 128 111 101 36 16 7 5 15 25 34 48 63 73 80 87 91 105 114 121 116 117 116 104 110 111 114 114 117 123 126 121 120 120 123 122 126 123 125 120 116 109 103 119 123 134 124 126 121 118 123 133 133 
155 152 153 152 150 149 151 147 143 144 142 140 114 109 103 110 117 124 139 148 150 149 151 148 150 150 144 145 126 111 99 34 15 6 3 18 23 35 52 69 82 92 94 103 104 109 113 112 115 119 115 116 115 119 120 115 121 126 122 120 122 123 121 120 126 121 115 119 110 104 114 127 124 123 122 123 120 126 130 136 
155 151 149 150 150 151 150 148 143 143 139 138 121 110 105 103 113 129 139 146 149 147 149 151 150 147 147 141 125 112 99 32 15 9 7 16 25 36 48 73 89 101 100 101 102 100 105 106 113 120 116 121 121 120 115 117 115 115 120 121 120 121 121 125 125 124 118 112 107 100 119 119 125 123 123 120 118 122 131 140 
150 149 150 150 147 151 150 148 141 139 135 133 120 113 105 110 115 132 134 137 146 151 153 149 148 147 143 140 120 112 103 32 13 4 2 14 23 36 53 76 93 97 97 94 98 97 102 104 109 116 115 121 124 122 114 115 113 114 117 117 119 118 122 121 121 119 115 115 107 99 117 121 124 120 122 118 116 122 128 138 
154 149 150 148 148 151 147 148 140 138 137 132 126 117 115 111 113 132 132 141 151 148 147 152 152 145 144 138 119 107 103 33 11 4 4 18 21 38 53 79 90 98 93 94 97 94 99 104 108 115 115 120 123 121 116 116 114 112 119 121 119 118 121 126 125 121 116 114 112 103 116 125 125 122 122 121 117 123 138 137 
153 149 148 150 152 149 151 147 138 139 139 135 137 131 120 117 129 129 136 140 147 147 146 148 149 147 141 140 116 105 95 25 10 2 4 16 20 35 54 80 87 94 94 94 92 93 98 106 112 115 116 120 124 120 117 116 113 116 118 120 119 119 125 126 118 119 116 112 107 109 121 122 126 123 122 121 119 124 131 139 
149 147 149 148 145 148 151 148 136 137 138 135 118 116 108 111 124 126 132 146 146 148 149 149 148 144 141 134 112 103 95 27 12 2 1 15 17 36 53 77 93 91 91 89 89 89 99 99 110 116 114 122 124 122 110 112 113 114 117 117 117 118 121 120 122 121 118 107 106 105 124 123 127 123 118 121 119 124 135 132 
153 149 145 147 144 147 148 149 133 137 133 130 119 124 116 118 123 133 131 137 147 146 149 147 147 142 141 135 111 100 92 26 13 7 0 14 16 37 52 84 90 93 92 88 91 95 97 100 106 114 113 121 124 123 112 111 110 113 111 118 113 119 121 123 120 120 118 106 104 107 118 121 123 123 121 121 120 121 131 135 
150 146 145 146 146 145 147 151 131 134 135 133 122 125 126 116 125 135 130 142 144 146 146 147 146 143 141 130 105 99 89 24 16 10 4 12 22 37 57 87 94 96 93 92 90 97 100 97 103 111 108 117 128 124 115 107 112 112 113 116 117 117 119 121 121 119 112 108 104 104 117 122 124 122 121 118 120 124 135 142 
151 145 148 145 144 146 147 147 130 134 135 136 122 120 121 123 122 127 129 140 143 144 147 148 144 145 141 126 100 92 86 20 11 10 7 11 21 38 58 89 90 99 89 92 96 96 99 102 100 107 103 114 125 125 111 109 110 111 117 112 113 119 117 118 122 122 115 106 104 106 119 117 119 123 123 117 120 125 135 137 
147 144 147 143 147 150 148 145 127 128 133 134 120 120 114 115 118 125 129 135 144 142 149 145 147 144 144 124 106 93 79 25 16 12 11 23 26 40 59 84 89 92 88 95 95 99 100 96 100 106 105 108 120 118 113 111 109 109 113 112 115 116 117 122 123 119 113 106 98 108 121 121 118 119 119 116 123 125 134 138 
148 148 145 147 147 144 147 146 131 131 136 133 111 121 115 119 121 120 125 137 148 145 148 146 147 147 142 125 102 94 77 22 23 18 15 19 32 46 60 86 96 95 99 98 97 96 101 99 102 106 103 107 105 110 108 108 109 109 110 111 117 115 118 118 121 120 113 106 102 112 118 119 123 125 120 117 119 125 135 139 
149 145 152 146 147 147 146 145 131 127 131 127 101 104 101 119 117 110 126 137 135 140 146 146 145 144 138 120 100 93 75 22 27 26 20 25 31 45 61 82 93 98 97 98 97 97 101 100 101 105 102 106 102 107 107 107 106 105 112 113 113 113 115 121 121 120 110 106 102 112 117 123 123 118 121 116 124 130 142 139 
150 149 149 144 146 146 147 146 134 133 134 123 108 101 99 101 102 121 125 134 138 141 145 143 145 142 141 116 95 94 74 26 28 26 26 31 37 48 59 71 86 99 95 96 99 95 98 99 103 110 106 101 99 101 99 102 106 106 111 110 111 110 116 117 119 121 112 103 100 115 125 124 121 120 120 121 124 125 135 136 
148 145 146 141 145 144 146 145 133 126 130 129 97 96 95 96 120 120 125 132 139 137 144 143 144 141 133 118 94 89 76 24 26 30 33 34 41 51 56 69 90 94 93 95 95 90 95 99 102 110 102 103 97 100 102 100 105 107 109 108 109 114 112 114 120 117 111 100 97 108 119 123 123 119 115 116 114 127 135 134 
151 143 148 143 147 145 148 145 126 125 131 127 101 90 96 107 117 117 123 136 137 141 141 144 141 142 138 113 95 88 75 25 29 33 33 36 34 45 54 73 86 90 91 94 96 94 96 94 101 109 103 101 103 101 100 101 106 107 109 107 110 113 114 117 116 115 103 95 102 114 118 122 123 118 119 116 124 124 134 134 
149 143 146 146 148 145 146 148 130 121 128 123 102 94 95 110 117 124 128 137 139 141 137 145 142 143 132 110 94 85 78 26 31 35 37 40 35 48 58 74 86 91 91 91 94 92 92 92 99 101 102 101 100 101 100 102 105 104 106 106 109 110 113 118 119 118 108 95 100 114 121 119 120 117 118 118 121 125 136 139 
147 143 146 142 146 147 146 145 124 117 122 123 103 97 96 103 120 127 129 135 138 140 137 143 142 141 138 105 93 88 75 26 26 35 35 40 36 43 54 71 78 86 89 90 90 90 91 93 95 97 101 100 98 98 97 97 104 102 102 105 107 114 111 117 119 117 107 96 103 112 118 118 119 118 117 117 122 129 139 138 
145 144 144 145 143 144 149 142 120 114 122 125 106 102 95 114 114 120 128 133 136 137 141 139 141 139 129 100 93 84 73 24 26 35 38 43 39 44 57 70 81 88 85 87 88 94 91 91 93 100 98 99 96 96 100 99 104 106 104 103 107 111 113 117 118 116 97 97 105 109 114 119 123 114 113 118 120 129 138 134 
144 148 146 144 145 145 144 139 120 116 121 126 110 102 110 106 115 102 126 136 138 138 144 139 140 139 132 102 89 85 75 28 26 41 43 44 42 46 56 71 78 85 85 84 88 88 93 97 96 97 95 99 96 96 99 101 103 105 107 109 108 110 112 113 116 111 103 98 102 114 117 115 118 115 115 119 123 128 137 140 
145 147 144 145 145 144 145 144 120 111 120 122 104 110 107 113 99 80 116 131 134 137 137 138 134 134 126 95 91 87 73 29 23 40 42 43 40 48 52 68 77 82 79 82 87 86 90 95 94 95 86 94 92 95 98 99 101 102 103 108 107 107 111 114 114 114 95 96 98 108 115 115 118 113 114 118 122 129 138 130 
139 143 147 148 144 145 146 148 120 112 123 124 114 91 88 81 75 74 105 111 122 125 135 134 130 125 115 93 88 81 70 26 28 39 40 45 43 48 53 65 77 79 79 83 87 87 87 89 94 89 90 88 96 96 96 96 98 101 102 105 106 108 108 111 112 112 98 93 98 108 114 118 115 107 111 123 123 131 133 132 
144 146 149 145 143 145 146 140 124 104 112 119 96 64 56 57 63 66 65 71 78 83 112 124 103 88 95 84 87 83 66 23 25 30 40 46 42 49 50 61 71 82 80 82 86 84 89 89 85 88 85 90 93 95 93 97 99 100 101 103 106 106 111 111 113 107 95 94 102 106 111 112 112 107 111 120 120 133 138 136 
144 145 146 145 146 146 144 143 127 107 115 119 100 59 49 49 56 61 63 69 70 76 80 87 75 71 79 86 83 84 64 15 20 29 32 43 41 52 53 64 78 82 80 83 84 84 88 87 82 85 83 89 93 93 92 96 97 99 99 102 105 103 110 110 112 111 93 94 99 102 110 106 109 107 107 118 122 131 137 146 
143 146 145 145 142 144 145 143 124 101 112 116 100 67 47 45 51 53 59 65 66 72 73 74 70 67 72 75 78 71 62 13 17 25 28 43 42 51 53 63 71 79 79 82 81 84 84 81 77 85 86 92 89 89 92 93 93 96 98 99 101 103 106 110 110 103 95 89 104 102 106 108 95 102 105 116 119 133 144 137 
146 146 144 143 143 142 143 141 122 99 114 114 101 73 44 43 52 50 56 59 63 69 69 71 69 67 69 75 78 74 57 12 10 8 28 42 41 49 55 62 70 83 79 84 83 79 79 76 80 85 85 87 91 92 92 95 95 95 98 101 101 104 105 112 110 109 88 90 102 101 105 101 105 98 103 115 117 124 142 138 
145 143 148 143 144 145 144 140 120 96 110 113 101 71 41 37 40 45 50 56 59 62 64 66 67 66 64 71 74 70 53 8 6 8 23 34 43 46 54 59 68 76 77 77 77 71 74 76 76 81 82 88 88 91 90 94 93 94 96 99 101 106 110 113 107 102 85 88 100 102 103 98 96 96 100 116 118 128 140 139 
142 141 142 141 142 142 142 141 125 90 109 113 102 79 33 35 38 41 43 49 57 55 59 62 62 63 61 68 71 67 47 0 7 15 28 37 46 52 54 62 68 75 76 77 70 71 75 81 76 82 81 83 81 89 88 86 90 90 94 98 95 98 106 105 105 95 82 88 101 97 100 98 96 95 97 109 118 127 142 136 
146 145 140 142 141 140 142 138 125 87 104 112 101 85 36 30 36 37 35 40 49 49 47 53 54 54 59 65 64 59 42 0 4 30 36 44 47 54 61 61 65 68 74 69 70 72 73 75 74 79 75 81 79 85 83 84 89 94 90 93 97 101 97 101 101 101 86 88 98 93 97 90 95 90 97 108 116 126 139 135 
142 140 140 140 141 139 141 140 123 85 105 111 102 82 33 24 29 31 31 35 36 42 45 46 49 51 54 65 62 54 40 0 9 32 42 48 52 55 54 55 62 71 71 66 71 69 70 74 75 74 78 78 84 83 88 98 97 108 109 109 113 117 117 118 113 113 93 95 111 102 98 91 94 93 101 109 115 121 132 134 
142 143 139 138 137 140 140 136 119 77 99 113 102 87 36 23 25 24 25 28 32 36 37 41 44 44 53 61 55 53 37 3 8 32 38 45 49 51 50 55 60 70 63 60 62 59 66 71 68 71 75 90 113 124 127 129 133 138 135 133 137 141 143 143 142 143 131 135 141 119 109 92 89 93 99 108 114 120 131 135 
140 138 139 137 137 142 139 136 122 74 97 112 99 89 44 30 28 25 31 30 34 36 40 36 39 43 45 53 51 46 33 1 9 29 35 44 50 53 51 52 50 61 53 53 51 53 59 52 58 60 60 102 132 141 142 147 146 150 146 149 147 151 145 153 151 152 148 149 153 148 132 104 91 90 104 102 119 125 132 130 
141 141 140 136 140 141 141 143 124 72 96 108 99 94 47 25 28 28 29 31 37 40 43 47 46 48 47 45 48 44 45 11 13 30 33 44 51 54 50 48 56 52 53 51 57 55 55 51 55 61 72 111 132 148 145 151 151 154 152 148 153 152 152 158 158 154 152 158 160 145 145 121 93 92 97 106 117 125 130 132 
139 141 140 138 139 138 138 139 126 72 84 106 101 84 57 27 26 23 25 25 30 36 39 33 33 36 38 38 41 33 31 27 30 34 33 41 47 51 54 54 59 61 56 55 56 59 55 59 68 73 97 129 139 151 151 150 147 155 153 152 156 153 155 161 157 157 152 157 161 153 151 124 96 92 95 110 114 121 130 131 
138 139 137 141 141 135 137 135 125 69 74 103 93 86 53 20 24 22 23 18 25 30 30 28 27 33 31 30 31 32 28 32 54 59 44 42 46 53 52 54 57 61 62 60 61 63 66 66 73 91 117 136 143 153 151 156 155 155 153 157 160 157 157 158 159 158 157 162 165 157 153 125 97 89 99 107 112 122 131 129 
141 136 137 141 137 139 135 138 128 80 72 99 97 91 62 24 22 21 21 21 24 24 24 30 27 28 30 27 27 40 56 67 71 81 67 48 47 52 52 57 57 56 53 57 58 60 69 69 77 107 132 144 147 159 157 161 157 156 164 162 161 163 161 162 159 160 158 162 168 159 162 143 104 92 97 113 120 128 130 130 
138 137 139 135 141 141 142 139 124 80 66 96 97 90 65 34 26 28 26 24 28 26 30 24 25 26 23 21 36 64 73 86 87 86 74 59 46 44 51 51 55 51 49 58 59 58 64 66 83 118 140 149 149 154 152 160 157 159 166 161 162 164 161 162 160 160 159 162 165 157 161 148 116 101 95 109 120 122 123 130 
133 137 136 139 143 138 138 136 128 82 67 94 98 91 66 43 35 32 30 33 34 34 33 35 36 31 39 39 52 67 75 88 93 88 79 63 45 48 47 50 56 53 52 59 64 57 62 64 93 131 143 148 150 156 156 158 160 163 164 162 160 160 162 165 161 160 160 157 162 160 162 155 126 99 99 109 122 123 129 129 
130 136 131 134 140 138 134 133 121 83 68 95 94 88 68 47 41 34 35 37 36 39 38 35 42 47 61 56 66 74 71 84 87 90 81 65 54 54 55 55 53 55 55 61 62 61 64 76 108 139 145 154 155 161 156 162 162 164 162 163 162 162 161 165 166 162 159 162 162 163 164 153 141 107 104 113 120 123 129 132 
131 132 133 136 135 136 135 136 131 86 68 91 94 89 71 51 44 39 38 41 40 42 39 40 41 49 58 57 66 70 73 85 94 93 78 66 57 63 60 59 59 56 60 66 68 74 73 94 121 144 148 155 162 158 155 158 161 163 164 161 163 166 159 165 163 163 163 165 168 166 167 157 152 116 105 115 122 128 137 134 
134 135 130 133 133 132 135 136 128 96 69 95 102 93 77 57 45 47 48 43 47 49 49 51 49 52 54 56 58 66 79 88 90 84 70 67 61 68 65 64 68 65 70 70 76 75 87 114 138 154 150 161 160 158 157 158 161 162 162 162 163 164 163 165 165 163 162 164 167 167 163 159 155 133 111 120 123 131 138 135 
129 130 129 133 132 131 134 134 128 102 76 82 96 96 82 65 64 61 63 66 66 60 63 60 57 57 64 62 63 62 80 83 86 82 77 76 72 72 72 72 71 78 74 75 81 78 100 131 141 154 153 160 161 163 159 159 158 163 163 160 166 163 163 167 169 166 161 164 165 163 163 161 158 143 121 119 130 133 133 137 
132 130 131 129 133 130 136 138 133 114 92 84 95 98 83 73 78 87 91 88 90 87 91 89 86 86 86 82 83 79 81 88 89 89 84 80 77 82 78 77 79 86 86 85 83 95 126 143 152 159 156 163 164 166 158 160 160 162 163 163 163 163 165 168 168 165 164 166 166 164 157 158 162 146 138 127 132 134 140 137 
134 128 132 129 133 132 130 137 123 114 98 88 95 97 88 76 96 103 105 102 105 104 105 104 107 98 101 101 105 89 93 93 101 98 99 97 97 97 90 100 93 101 97 94 96 115 138 144 155 156 159 160 162 162 160 162 160 160 163 160 163 162 162 165 167 162 164 168 165 164 166 158 162 157 152 139 130 131 136 136 


