P2
80 60
174
142 142 141 134 136 136 137 128 119 99 81 81 102 136 157 155 153 159 160 159 161 166 164 166 159 164 163 161 163 165 164 167 169 166 161 158 153 149 146 151 148 163 162 165 165 165 164 166 165 163 163 164 166 162 159 155 149 153 150 156 146 138 120 92 55 19 7 7 7 14 29 39 41 47 50 64 78 86 98 106 
148 141 142 137 137 136 139 133 122 99 78 80 102 139 153 151 154 153 161 159 163 163 167 162 163 163 162 158 164 161 167 167 164 160 161 160 147 146 151 155 153 161 160 161 164 166 162 162 164 165 166 163 167 163 163 155 159 156 153 153 148 136 113 95 53 22 7 9 4 14 32 36 39 43 52 64 76 89 96 107 
151 144 148 141 142 135 138 131 118 95 81 85 103 137 158 154 152 158 160 159 165 164 165 163 162 166 161 162 164 166 162 167 166 163 165 160 154 156 148 150 154 162 164 161 162 165 160 165 165 165 162 169 163 164 164 156 161 155 151 154 149 135 118 99 59 16 12 8 10 19 32 38 36 48 55 67 76 81 95 104 
155 150 149 144 152 147 144 130 123 100 84 83 106 138 161 154 151 154 159 163 167 167 164 164 160 164 163 163 163 161 165 165 168 165 159 155 156 155 157 155 153 161 162 163 166 165 162 170 167 169 166 168 166 167 164 156 158 157 156 156 148 134 115 100 58 20 12 11 10 17 27 33 33 45 55 58 72 83 92 105 
159 150 148 149 147 149 142 137 122 108 79 75 104 144 154 155 156 154 163 163 163 163 167 162 168 166 166 164 165 161 164 165 164 162 158 159 162 163 165 161 158 161 162 164 168 165 167 169 166 166 166 168 165 165 163 153 163 157 157 157 150 136 120 103 60 24 15 14 4 15 18 26 30 41 50 60 69 87 89 99 
153 151 151 144 146 146 141 140 135 111 85 74 108 148 160 152 156 154 158 162 160 166 169 165 168 165 164 162 165 162 162 168 164 164 164 165 160 161 160 161 155 163 165 166 164 164 170 167 167 165 164 168 169 169 165 162 155 158 155 160 154 140 123 102 62 19 19 9 10 8 20 27 35 42 51 58 73 85 89 96 
159 158 155 144 147 148 142 143 132 110 83 80 114 149 156 150 158 155 164 161 162 162 164 164 163 162 161 161 162 163 162 164 163 161 161 162 162 164 156 154 149 158 163 163 161 166 167 165 166 164 166 170 166 163 168 162 159 159 163 158 149 143 117 100 64 25 16 12 7 11 17 25 37 48 57 67 72 79 91 92 
159 152 156 150 150 143 138 136 136 123 88 84 116 147 156 152 154 155 165 164 165 167 162 162 161 164 161 162 162 162 163 163 161 164 162 162 160 151 149 150 143 156 158 163 162 165 168 163 163 165 164 168 166 167 165 160 159 155 159 162 154 138 119 98 60 28 17 11 7 7 16 29 35 45 57 67 70 80 84 91 
161 158 152 147 155 150 144 137 135 117 83 85 121 142 154 152 156 155 159 158 159 166 163 161 164 164 162 160 163 161 163 160 161 164 159 156 148 145 146 142 145 154 151 157 166 166 168 163 167 164 166 169 165 174 165 155 155 154 156 159 158 137 123 103 64 26 10 8 1 3 9 22 34 44 57 62 68 77 89 96 
159 160 153 148 151 149 143 143 135 121 90 85 120 147 156 156 159 159 161 159 160 164 162 161 163 162 158 160 162 159 157 159 158 162 158 153 150 145 147 144 142 147 154 159 161 166 165 163 165 163 166 168 169 172 165 157 154 158 156 159 154 140 118 101 61 24 18 9 9 7 11 20 32 46 58 67 70 75 89 100 
164 156 153 145 148 151 155 143 129 119 88 85 121 146 154 152 153 157 162 161 160 158 162 159 163 163 158 162 159 157 160 161 157 156 157 152 155 147 143 139 143 155 155 156 161 162 165 164 167 165 165 167 165 167 167 154 154 152 153 155 147 133 118 103 65 26 15 8 6 14 18 29 34 42 58 65 68 77 88 102 
159 153 147 147 150 142 147 140 132 116 95 87 127 149 152 152 150 157 158 157 160 157 164 160 159 158 155 161 156 160 157 161 164 155 153 151 152 146 140 139 138 149 152 159 163 162 164 167 164 163 162 165 163 164 164 152 152 154 155 158 149 135 120 111 69 26 20 10 4 10 21 29 31 42 48 67 72 74 93 105 
145 146 146 139 144 136 137 131 132 118 92 85 129 147 148 151 151 155 158 157 161 159 160 159 163 157 156 160 155 157 159 157 160 156 148 143 138 137 128 129 130 147 150 154 164 163 167 165 163 164 162 164 164 161 160 154 151 155 154 156 148 132 123 106 67 29 19 7 6 9 13 26 31 39 46 58 70 74 84 98 
148 141 143 139 142 136 133 130 130 124 93 90 132 145 151 148 150 154 157 158 159 159 160 158 160 156 155 156 155 153 157 156 158 160 154 149 141 131 126 126 125 140 149 155 163 166 164 167 163 165 162 165 166 164 167 158 156 159 160 163 149 134 123 107 68 25 18 8 0 11 25 32 31 35 44 57 66 69 76 86 
148 140 142 132 142 131 131 136 126 122 102 95 131 148 152 151 149 150 153 156 159 157 159 159 159 157 157 158 154 155 155 155 158 155 149 150 144 135 124 117 128 140 149 158 162 161 162 163 167 164 164 166 167 163 165 157 153 165 160 154 148 131 123 107 65 27 17 8 3 14 22 27 32 38 36 53 64 70 80 94 
150 142 139 133 134 130 129 130 127 117 106 104 134 151 153 151 151 149 155 154 156 162 159 158 159 159 154 156 153 156 151 155 159 159 152 152 144 139 126 128 130 144 146 154 162 162 160 161 164 160 165 165 167 167 165 158 158 158 157 158 146 128 119 108 70 28 19 10 6 13 18 28 31 35 44 50 61 72 75 91 
146 139 137 130 135 131 130 122 125 109 112 106 139 151 153 149 150 152 154 155 158 161 160 157 159 158 155 155 149 156 154 153 156 156 153 153 142 133 127 125 126 143 145 156 160 165 162 161 161 160 157 166 164 166 167 160 154 162 159 155 142 126 116 107 67 31 16 6 6 11 20 29 36 35 42 46 57 70 78 93 
144 137 139 131 136 129 130 122 123 109 113 112 143 146 150 147 149 152 155 151 157 155 159 158 160 159 153 155 151 156 151 153 151 149 142 134 133 127 122 125 126 140 141 148 159 157 158 161 165 162 159 164 164 167 170 154 155 163 160 145 140 125 116 107 65 27 19 6 5 15 22 26 32 38 34 40 54 65 80 92 
149 140 142 134 134 128 131 122 118 121 118 116 142 144 151 150 148 153 156 157 157 161 160 161 160 157 151 154 148 150 153 156 155 149 136 128 120 121 121 122 123 129 131 145 159 159 159 161 160 162 162 165 168 166 167 157 155 152 154 146 138 122 116 108 67 27 22 8 4 9 18 26 31 32 37 52 64 75 85 93 
152 145 146 137 141 140 133 126 118 119 122 124 147 145 152 147 148 154 152 155 157 160 163 156 159 160 153 150 150 153 150 153 149 144 138 125 115 113 113 120 119 132 129 147 158 158 156 161 160 157 162 165 163 162 161 158 155 156 153 151 138 122 117 110 61 23 18 7 3 6 18 24 28 31 41 54 64 84 96 97 
153 148 145 135 137 136 130 123 119 119 115 122 146 145 149 148 151 153 151 153 156 162 160 158 158 156 155 151 146 152 153 153 151 144 135 122 115 113 115 117 111 129 135 144 153 155 156 160 158 159 161 163 163 161 159 153 155 153 154 151 138 119 114 107 65 24 13 7 2 14 23 24 28 34 37 51 72 85 91 95 
151 147 146 137 136 134 132 123 122 115 123 130 148 153 153 150 154 151 157 157 157 157 157 161 160 160 156 151 149 150 153 154 147 144 136 122 118 113 117 116 116 133 138 139 152 154 155 160 159 156 163 165 162 159 157 154 154 154 159 150 137 118 117 111 65 20 19 4 4 11 22 24 28 30 44 58 72 88 95 93 
154 146 149 141 136 137 130 124 124 122 118 124 149 148 152 151 152 153 154 158 157 158 154 159 157 160 156 151 149 151 150 154 149 143 134 123 119 119 120 123 117 127 140 140 154 156 159 159 160 161 162 166 163 161 158 151 156 155 154 150 136 119 112 104 61 26 17 8 1 16 21 25 30 34 38 56 69 85 95 91 
149 148 144 138 142 138 131 126 126 123 123 128 147 146 149 149 150 152 152 156 157 158 156 154 156 157 152 151 151 146 151 151 149 143 129 124 130 133 128 119 109 126 141 141 151 154 154 158 158 163 162 167 162 164 158 151 155 156 150 148 130 117 114 106 58 25 22 8 4 12 19 26 28 36 43 58 72 87 85 94 
144 145 140 139 140 135 134 125 124 124 119 132 150 148 152 150 150 150 156 154 155 154 157 153 157 159 153 149 146 147 149 150 149 141 136 134 142 140 131 121 116 131 139 145 151 156 157 159 159 160 158 163 160 161 158 153 154 154 152 145 129 118 117 105 56 26 15 8 4 12 16 24 25 34 43 59 71 82 94 94 
152 144 145 137 139 139 131 130 124 124 124 133 149 152 153 152 150 152 156 156 153 157 157 154 158 158 152 147 146 149 148 148 147 141 147 142 137 127 132 129 133 143 141 144 157 160 157 162 158 160 158 165 164 167 164 152 156 157 159 148 129 116 122 102 56 23 18 9 2 10 20 23 33 34 46 62 76 86 99 97 
150 142 138 136 136 136 135 127 124 122 125 134 148 148 151 147 150 152 153 156 153 158 161 156 156 159 156 149 149 149 147 145 148 139 141 129 124 122 123 125 126 139 144 144 154 159 161 159 158 159 160 165 164 162 161 157 156 155 154 146 125 115 116 102 48 26 17 5 4 9 21 24 28 33 42 57 75 88 89 98 
149 141 144 139 138 140 131 125 122 126 125 135 149 147 148 148 149 148 154 155 156 154 157 156 156 158 160 145 148 146 148 148 146 136 130 124 127 125 118 120 124 132 132 136 151 157 158 158 156 157 160 164 159 162 160 158 154 154 152 143 127 114 114 102 47 27 15 10 8 17 19 28 24 36 45 64 75 89 92 98 
144 140 143 136 139 143 132 126 128 123 126 134 151 149 149 147 149 147 152 155 155 155 156 159 158 157 157 145 147 147 143 151 150 134 134 133 128 122 121 130 120 137 140 146 154 158 155 159 156 161 159 162 164 160 160 154 155 157 148 139 118 113 115 103 49 26 21 11 7 14 21 24 25 40 47 61 75 87 95 93 
146 145 142 134 143 140 134 126 125 121 126 138 152 150 149 146 149 151 152 151 156 158 159 157 157 153 154 142 142 146 144 150 144 136 131 135 139 131 129 136 132 140 140 140 155 154 158 156 158 159 160 160 159 160 158 156 153 151 150 140 117 109 111 96 45 27 26 15 12 13 21 28 32 35 48 69 74 88 92 94 
148 140 144 136 137 142 142 127 125 125 123 136 150 150 148 148 152 149 153 153 156 156 160 154 158 155 154 142 141 146 146 146 145 141 136 134 141 133 131 135 127 141 145 146 152 156 153 158 158 158 161 162 159 165 157 153 153 152 147 134 117 110 110 95 41 30 27 15 14 18 25 27 34 42 50 62 77 86 91 90 
146 136 139 137 140 138 137 122 122 117 127 136 150 146 150 147 151 149 152 153 152 157 160 158 158 157 152 143 139 144 142 152 143 136 127 127 128 128 121 123 123 137 139 135 147 153 153 157 157 157 158 160 160 160 157 151 151 156 147 131 118 110 107 89 41 28 26 18 14 20 20 29 31 40 49 64 78 88 94 90 
148 139 142 138 143 143 133 124 123 123 130 140 150 149 147 149 150 150 151 153 155 155 159 157 156 158 154 146 140 142 149 146 145 133 136 130 124 119 120 124 131 135 133 137 151 154 154 158 155 158 157 159 159 157 155 153 158 150 142 126 110 108 107 89 40 28 27 21 16 19 22 32 32 45 58 64 84 89 92 94 
151 139 137 137 139 144 133 121 125 124 131 137 149 147 148 148 150 150 153 153 156 153 157 159 161 156 156 144 137 147 145 147 141 137 132 132 129 121 125 123 126 138 140 138 144 152 151 151 151 155 158 162 159 156 156 153 158 151 144 125 110 111 107 84 36 27 31 26 21 23 29 34 38 47 55 66 84 93 93 89 
152 141 137 137 136 143 139 123 120 120 123 139 149 147 147 146 151 148 152 156 157 152 153 156 159 154 148 140 137 143 142 144 141 134 132 132 131 134 125 127 124 138 139 137 150 154 154 154 154 153 152 162 160 154 154 155 154 151 140 122 109 107 103 82 36 34 31 27 22 23 32 38 37 47 59 69 80 92 92 91 
148 143 135 134 142 141 136 124 124 123 128 133 146 148 149 145 147 147 154 153 154 154 161 158 161 155 152 140 139 143 145 148 145 135 124 125 127 132 132 125 114 124 127 133 148 152 153 159 152 157 156 159 156 162 158 152 155 149 138 122 111 104 102 71 36 30 32 31 24 29 35 40 40 50 61 71 89 92 95 92 
149 144 138 135 140 145 136 129 126 125 131 137 148 148 147 145 149 153 154 153 156 158 157 158 157 152 148 137 138 144 144 146 144 129 112 108 116 116 125 113 110 121 128 139 146 147 151 152 155 157 159 158 157 164 158 154 151 151 133 114 106 103 98 72 29 35 34 33 27 29 29 37 43 52 65 79 88 93 98 95 
149 145 139 138 141 147 136 128 123 123 126 134 152 148 151 147 148 157 152 153 155 156 160 155 161 157 149 141 131 141 143 145 140 128 116 105 105 105 113 110 117 128 127 134 148 148 152 152 153 154 158 159 157 158 157 152 151 151 134 115 104 101 93 67 31 38 40 33 28 34 34 40 45 57 65 75 90 95 96 93 
145 138 138 130 139 145 136 126 125 120 123 136 147 147 149 148 148 151 154 155 155 156 160 154 158 155 151 140 125 142 143 145 142 128 117 112 115 111 115 110 108 127 125 136 144 147 151 151 149 156 154 160 157 156 157 154 152 150 128 112 100 98 92 65 30 41 40 39 33 33 36 42 42 52 67 84 88 96 105 100 
150 143 133 130 140 142 137 126 122 123 130 135 152 150 150 145 147 146 154 151 157 154 154 158 160 156 155 140 126 141 142 143 141 129 110 101 103 102 107 107 124 129 134 141 148 148 154 154 154 158 156 162 158 157 155 154 153 147 134 111 103 102 94 60 32 37 41 42 36 40 42 41 46 55 64 85 82 96 102 104 
146 143 133 131 140 141 137 130 122 124 123 133 149 153 146 147 143 149 152 152 153 156 156 157 162 157 155 136 134 138 139 140 141 127 114 105 103 106 107 114 122 119 121 132 144 150 148 154 153 156 158 164 159 158 158 153 155 151 127 109 98 100 89 59 32 36 42 38 34 38 42 43 45 62 67 78 85 92 102 97 
147 139 138 133 139 138 138 126 117 118 123 130 147 151 147 147 145 149 148 150 154 153 154 155 161 158 153 134 136 138 137 140 137 129 108 122 117 112 105 116 122 120 126 138 144 147 150 150 150 157 156 158 156 155 156 152 149 143 123 106 99 96 91 58 30 35 37 38 35 35 39 47 47 54 66 73 86 88 98 93 
146 137 141 133 137 139 144 126 121 125 126 134 146 149 149 143 148 146 150 150 157 156 154 154 158 158 151 133 134 135 139 143 135 125 110 100 97 104 119 124 116 135 136 144 150 151 152 152 152 155 156 158 155 154 158 153 151 146 120 101 106 102 97 55 35 38 43 42 37 41 43 44 48 53 60 77 90 88 95 95 
148 135 134 133 135 140 141 132 120 118 123 134 147 149 145 145 147 148 150 155 152 155 152 154 155 158 153 133 129 138 139 140 139 124 113 97 101 110 118 116 124 136 139 139 150 148 153 159 155 155 155 165 153 151 150 150 148 138 116 105 100 99 88 52 40 34 44 45 38 41 47 42 44 53 61 78 81 86 90 88 
143 139 131 133 139 135 136 132 120 120 121 129 145 149 146 146 148 153 154 153 157 155 157 152 155 154 151 131 124 137 138 137 136 124 109 105 116 116 112 119 122 138 139 147 148 146 151 152 155 155 156 160 154 149 152 149 145 137 115 105 98 95 86 48 32 40 42 46 42 46 49 47 47 57 66 74 79 82 86 93 
144 135 132 129 137 138 137 127 120 122 120 133 146 147 151 149 150 150 152 155 153 154 154 153 158 157 150 129 122 137 136 140 134 126 119 109 111 103 110 128 124 137 142 147 153 147 149 152 155 152 151 158 152 153 150 150 144 136 111 103 102 94 89 50 32 41 41 47 47 44 49 47 46 60 74 78 84 84 89 93 
141 137 129 130 134 136 133 125 121 115 121 130 144 149 150 147 147 151 155 152 153 156 157 155 154 154 147 128 118 136 136 134 132 125 111 105 112 119 125 129 128 134 140 144 151 151 150 154 151 155 153 151 150 149 150 147 147 131 107 101 101 98 80 39 32 39 43 51 47 46 47 47 56 59 69 78 80 85 87 93 
146 135 129 129 133 137 133 127 120 117 121 127 144 148 150 150 145 148 152 150 156 153 156 159 157 155 150 126 117 137 133 135 133 120 118 119 124 128 128 130 116 125 117 138 151 149 151 148 149 150 151 155 151 150 150 147 148 131 106 98 99 97 77 43 34 41 48 48 49 49 50 51 50 65 70 79 81 79 85 88 
137 130 136 132 131 135 141 131 122 118 119 128 144 148 149 147 146 151 149 152 153 150 162 151 157 151 150 125 109 135 131 135 128 119 120 121 126 132 128 130 99 93 101 131 148 145 152 151 149 152 151 152 149 148 150 148 141 122 103 98 97 92 71 36 35 41 45 51 44 49 50 52 50 63 69 79 79 82 83 83 
137 133 138 133 134 135 134 127 119 120 120 125 139 148 149 148 150 149 151 152 151 152 158 155 155 152 144 126 115 135 132 134 127 117 127 124 119 126 133 121 78 78 94 130 147 145 146 148 147 150 146 148 151 148 152 144 143 120 100 100 98 91 64 32 29 39 44 50 48 49 51 51 56 61 73 82 80 82 84 83 
148 141 136 133 136 135 134 129 118 121 118 123 144 146 150 147 147 147 150 152 153 151 156 152 154 153 148 124 116 131 132 129 129 123 115 118 115 113 111 86 64 75 95 132 141 137 148 147 146 149 144 149 148 151 150 150 141 117 100 96 97 92 71 36 31 35 43 53 48 50 53 52 55 64 71 79 78 82 78 90 
149 137 136 132 138 138 133 135 122 122 123 125 139 138 147 148 145 151 152 150 156 154 155 152 157 149 149 119 116 131 132 136 131 122 105 73 69 64 65 66 60 66 92 126 131 131 146 144 147 150 149 152 150 149 151 145 145 112 101 103 96 91 63 34 28 40 47 54 50 49 55 55 53 64 75 84 79 78 80 86 
146 133 133 129 140 136 140 130 124 122 120 127 134 148 151 147 149 153 150 155 154 153 159 154 161 156 147 121 111 128 131 132 132 118 97 66 56 50 57 61 52 65 74 92 100 99 126 140 134 141 150 151 150 148 144 145 135 110 104 100 95 88 57 33 26 35 45 52 51 50 54 54 54 65 76 82 80 77 80 77 
138 132 126 128 141 136 138 129 121 120 117 126 134 141 148 147 146 148 152 154 154 151 156 154 160 153 147 129 112 124 128 133 129 120 96 63 52 46 48 48 46 54 60 64 71 73 88 97 110 134 143 149 142 136 133 135 124 101 93 90 91 83 48 29 21 30 39 46 48 51 51 53 60 67 75 80 77 76 76 80 
141 127 133 131 136 132 135 130 126 120 122 126 135 139 146 146 144 147 148 152 155 157 156 155 157 150 151 130 114 125 128 130 126 120 98 64 47 43 46 50 48 55 59 64 65 65 74 83 99 127 143 142 136 103 93 108 105 97 93 93 91 78 44 22 18 29 39 48 46 51 55 55 61 68 78 79 70 69 82 76 
136 127 130 125 137 133 137 137 129 121 120 124 133 143 146 143 148 148 148 152 156 150 152 152 155 156 148 126 107 128 126 126 125 118 102 69 40 41 44 47 43 51 55 61 63 62 72 74 81 94 114 123 102 83 73 81 93 93 91 92 85 76 38 22 18 26 34 43 42 48 55 57 61 71 85 78 72 69 76 69 
135 126 132 130 133 132 134 130 124 125 119 127 141 142 144 143 148 148 148 154 152 155 155 155 156 153 147 126 113 121 124 124 122 116 103 73 41 39 41 42 43 52 52 53 63 56 74 72 75 73 79 83 82 73 69 76 89 87 87 91 81 65 29 13 9 21 31 38 38 48 52 55 58 72 78 84 74 72 66 68 
134 127 126 127 135 132 137 132 124 121 125 126 136 145 149 146 150 149 152 153 153 151 155 156 155 152 148 129 115 123 124 125 131 117 101 73 45 36 39 42 30 46 47 49 58 59 68 74 72 70 76 73 69 69 72 77 87 88 85 85 82 61 22 12 10 15 26 34 36 42 52 54 59 73 80 79 73 68 71 68 
142 126 125 126 135 129 139 134 129 121 123 124 136 141 145 143 146 144 150 151 151 154 158 155 154 149 150 127 113 115 123 125 126 118 102 77 41 33 32 36 34 43 48 46 49 52 58 64 65 65 66 76 69 67 65 74 84 85 82 83 71 56 20 5 10 14 22 31 37 48 50 53 61 74 72 71 69 70 71 66 
137 128 128 125 130 129 137 132 127 122 123 121 131 137 145 147 145 148 149 151 152 155 155 153 154 148 149 128 107 116 124 130 125 118 104 79 42 29 31 34 30 39 42 41 44 42 52 57 57 57 63 65 64 65 60 70 74 80 79 70 67 40 6 10 9 24 31 34 45 47 55 57 66 73 72 73 71 64 68 71 


