P2
80 60
51
38 37 35 41 40 40 40 40 45 39 42 38 43 41 44 41 40 41 37 39 39 43 39 41 37 36 41 42 42 43 42 44 43 43 43 42 42 41 41 41 36 41 41 41 38 41 42 42 41 43 40 40 39 41 44 47 46 44 43 42 41 43 46 41 37 42 39 39 40 37 40 40 42 42 45 41 39 39 40 40 
36 38 40 42 40 39 37 39 42 41 37 43 39 40 42 39 41 39 39 39 37 39 38 41 38 39 41 44 40 42 43 47 40 42 41 42 44 43 41 37 36 38 41 41 40 41 39 42 39 41 39 41 42 41 48 49 46 47 44 43 43 40 40 44 44 41 39 39 39 38 32 38 41 41 47 43 40 40 39 40 
39 42 41 39 42 38 42 39 38 45 45 40 40 41 39 41 40 40 37 40 41 41 41 39 38 40 40 42 42 42 45 47 44 43 42 43 43 41 42 37 34 37 38 38 41 37 42 40 41 43 39 43 40 42 42 43 46 43 40 39 41 43 42 41 41 40 39 43 38 38 43 39 42 40 38 40 41 41 40 41 
37 37 39 38 40 38 41 39 40 44 43 40 40 41 40 39 39 41 39 40 40 40 36 38 41 40 39 43 43 42 44 45 42 44 44 41 46 47 42 37 36 36 39 37 38 38 40 39 42 42 39 39 41 42 41 41 41 44 44 44 46 42 40 42 39 38 41 40 41 39 41 41 38 41 42 35 35 43 38 40 
40 38 39 44 41 38 40 41 40 41 42 38 41 40 39 42 41 41 39 41 39 37 37 42 37 39 46 43 42 41 40 43 40 43 42 39 45 42 40 37 29 37 39 38 39 35 38 39 38 39 33 39 41 42 41 44 42 43 38 41 43 40 43 45 43 41 40 42 43 37 40 39 41 38 45 38 37 41 40 45 
37 39 37 39 40 42 41 42 42 41 39 40 43 40 42 41 43 41 41 41 38 42 39 42 35 44 45 44 44 40 42 41 41 42 40 45 43 42 47 37 32 36 39 34 36 39 45 40 36 39 39 41 44 42 45 45 45 47 45 41 47 42 42 40 43 39 46 40 44 40 41 40 40 38 42 39 41 42 39 39 
38 39 39 40 41 44 42 42 44 43 42 39 38 41 41 43 46 41 43 41 39 40 41 41 39 40 42 43 43 43 42 43 41 46 43 44 46 43 43 38 34 32 32 38 33 38 38 36 33 40 35 42 41 43 46 45 48 51 47 45 42 44 44 42 43 41 41 40 41 40 39 38 40 41 43 41 37 40 37 38 
41 43 42 39 41 42 42 39 44 41 42 41 41 40 42 43 45 45 41 40 46 42 40 37 41 42 43 42 43 46 44 42 39 41 44 46 45 40 40 41 36 37 33 39 34 36 39 37 36 40 38 40 44 44 41 44 43 47 44 46 43 40 41 43 41 38 42 42 41 43 40 40 44 41 38 41 39 40 40 41 
42 47 42 42 42 43 43 40 37 44 43 40 44 42 38 39 43 44 42 40 41 42 38 39 42 43 42 45 43 39 44 39 40 42 43 41 41 38 40 37 35 35 37 40 37 37 36 37 38 41 41 41 43 40 42 44 45 47 43 46 45 40 43 41 41 43 42 45 38 38 38 39 41 40 39 37 41 39 38 41 
46 47 43 46 46 45 44 40 42 40 41 41 41 37 42 43 43 40 41 37 43 43 38 39 40 39 41 44 40 39 43 39 41 43 42 42 38 38 39 38 33 36 37 39 36 38 40 39 40 42 39 40 43 39 42 43 41 47 44 43 43 47 40 40 40 40 45 41 41 37 38 38 42 42 39 39 39 40 37 36 
49 46 46 48 46 46 49 43 45 43 43 41 43 41 44 43 43 42 41 40 38 44 42 40 40 42 40 45 44 40 40 44 38 42 40 40 40 39 39 38 37 36 37 38 35 38 40 39 41 43 40 40 44 43 39 45 44 45 46 44 44 39 42 39 40 40 41 41 42 40 37 39 40 36 38 40 38 40 41 38 
48 48 45 44 47 46 42 46 40 41 41 40 39 39 40 38 39 43 37 38 40 41 39 40 40 42 39 41 40 41 42 42 38 42 40 38 40 37 38 37 37 36 37 38 37 36 34 39 38 42 39 40 43 41 47 42 43 43 43 42 45 45 40 38 38 43 44 43 40 37 38 37 38 40 42 41 35 40 40 36 
44 46 43 44 47 45 43 39 38 41 42 41 38 40 42 43 38 38 37 39 39 40 36 39 37 36 38 41 40 40 43 44 39 44 37 42 42 37 43 38 34 35 37 38 37 36 37 40 39 43 43 39 38 40 40 46 47 46 43 42 41 42 45 39 36 42 45 39 38 39 31 38 39 35 41 38 36 40 39 37 
44 46 45 45 48 41 42 42 38 40 36 39 36 40 40 39 40 36 37 38 40 42 40 41 38 39 40 43 40 40 43 43 42 42 40 40 43 41 38 36 36 35 35 37 37 44 42 41 40 44 40 44 42 40 44 47 50 48 45 45 42 42 42 38 37 41 46 48 39 37 40 35 40 34 41 43 37 40 39 39 
42 45 45 45 42 39 41 40 42 35 34 39 39 37 36 36 35 38 37 35 38 38 38 40 38 39 38 40 39 38 43 42 37 41 37 38 41 37 37 36 35 34 36 36 32 36 40 39 36 43 36 40 40 43 43 46 47 51 45 45 39 42 41 37 38 40 42 42 42 40 39 39 39 35 39 36 39 39 36 37 
43 50 48 44 51 42 37 41 40 37 39 39 37 39 39 40 38 33 38 36 36 37 37 37 39 37 39 41 38 38 44 43 38 40 41 41 40 36 39 34 30 27 36 30 27 36 39 37 37 39 38 40 41 43 42 43 46 49 50 38 42 41 47 41 39 44 39 42 42 43 40 39 36 37 37 36 37 38 38 40 
47 51 48 45 42 44 41 39 42 40 39 39 38 37 41 37 39 39 37 36 37 39 39 38 43 40 41 42 38 41 38 45 36 44 39 41 40 38 40 33 26 28 29 27 23 35 37 36 36 39 38 35 39 40 44 46 44 48 44 42 38 42 42 43 39 39 41 44 45 44 47 40 41 35 37 36 37 40 39 36 
45 45 44 42 45 43 43 38 40 39 39 41 35 38 42 40 40 38 36 38 37 37 40 39 36 37 40 45 38 40 40 44 37 40 42 43 39 35 42 39 28 27 28 29 28 31 37 34 38 37 35 36 38 40 43 42 46 49 46 44 41 38 39 40 39 40 41 41 42 43 42 40 38 37 37 36 36 40 40 40 
42 45 44 48 45 45 40 41 38 39 42 41 38 37 40 41 42 39 40 38 39 37 39 44 37 39 36 41 40 41 41 43 36 40 43 40 41 43 39 36 27 28 30 29 24 27 33 33 35 38 36 40 44 41 37 41 43 40 42 40 41 37 36 40 37 39 43 44 42 40 41 39 39 35 35 37 37 41 35 35 
44 43 44 43 42 40 42 38 37 34 40 40 37 36 40 40 40 40 38 37 37 39 46 37 39 41 40 42 42 40 43 44 39 43 43 41 37 39 40 34 29 29 26 29 22 30 34 33 35 41 34 38 40 38 39 38 42 41 39 43 38 37 37 40 41 40 40 44 40 40 38 40 39 36 37 35 36 34 37 34 
42 45 43 42 41 42 39 41 38 42 40 38 38 38 40 36 40 38 37 40 39 38 43 41 39 39 42 41 41 43 51 47 42 35 42 38 40 39 40 38 30 28 28 27 26 25 31 36 35 38 33 38 42 39 44 41 42 43 42 41 39 38 39 38 41 39 44 42 39 42 38 39 40 35 35 36 38 37 33 41 
44 44 42 44 45 43 43 42 42 42 40 39 47 38 42 40 40 41 39 40 38 41 43 41 38 41 42 42 41 42 44 46 41 45 41 40 41 36 39 37 27 27 27 28 18 25 32 34 35 39 40 35 38 38 38 42 41 46 40 39 36 40 39 40 34 41 44 41 42 43 37 40 39 35 44 37 36 37 35 38 
43 42 45 47 43 42 42 45 40 39 42 39 39 41 41 40 41 39 39 39 39 38 37 39 39 42 39 45 37 39 38 45 41 40 38 36 40 37 40 34 26 24 25 21 25 25 33 35 34 37 37 39 38 36 39 39 40 44 40 42 44 41 40 37 36 36 42 41 40 38 39 38 39 34 36 34 33 35 38 41 
43 43 45 43 43 41 45 46 41 41 40 42 39 42 41 42 37 42 36 38 36 38 42 40 39 39 43 42 38 39 39 40 41 40 38 36 40 38 38 27 26 25 27 26 25 28 34 33 33 40 39 39 40 37 38 39 42 40 41 39 38 38 38 37 37 40 42 40 41 39 39 39 39 36 36 35 31 36 38 36 
41 43 40 44 43 39 41 41 43 41 42 41 39 38 43 39 39 39 36 39 36 38 37 39 40 37 40 42 39 40 42 38 38 41 44 35 39 36 36 35 24 23 27 27 26 28 33 35 37 38 38 37 40 38 37 38 39 38 36 38 41 39 37 37 32 38 41 42 37 38 37 39 38 35 37 39 36 38 34 35 
38 41 40 44 42 41 40 41 41 39 37 39 38 40 42 40 40 39 41 40 37 37 40 41 38 38 41 40 38 40 41 39 38 39 40 41 48 44 40 36 22 25 28 28 23 29 32 37 34 36 35 37 37 38 38 39 38 37 41 39 38 41 35 39 39 38 41 40 37 37 36 36 39 35 34 37 38 34 34 36 
40 38 43 42 42 42 42 41 39 41 41 38 39 37 39 37 40 41 34 36 35 39 44 40 40 40 41 40 39 41 40 36 41 42 46 42 48 39 36 33 23 24 26 28 25 26 30 30 34 34 33 35 37 35 36 36 35 36 36 39 37 34 38 38 36 32 39 42 37 37 38 37 40 35 36 34 37 36 34 34 
41 42 44 44 41 42 41 42 42 38 39 40 39 39 39 39 38 38 38 37 37 41 41 40 40 38 41 44 42 39 42 40 34 43 43 40 46 37 41 31 25 26 24 25 22 28 32 32 34 33 33 35 36 36 39 36 38 37 34 36 37 36 33 36 32 32 40 39 36 41 39 37 37 34 38 35 34 36 32 37 
40 43 44 44 42 41 43 43 40 42 41 38 38 38 41 40 39 37 39 37 37 39 41 37 42 40 40 42 43 43 43 41 39 42 41 43 45 38 38 35 24 24 25 24 19 24 33 31 34 38 35 36 38 34 35 34 42 38 34 36 34 34 32 35 33 35 39 39 36 41 37 34 36 33 36 36 34 39 33 34 
43 43 48 47 44 40 42 40 41 39 40 38 40 40 41 41 37 36 39 38 39 39 42 41 40 40 42 40 39 43 42 46 37 43 43 43 48 40 40 33 27 27 24 27 25 25 32 32 34 36 35 38 37 34 35 31 36 39 32 34 37 34 31 33 37 36 45 41 34 41 37 35 37 33 33 36 32 38 32 35 
44 44 43 47 42 40 42 41 42 40 40 38 41 41 41 43 40 38 37 38 41 38 39 40 38 40 41 42 40 42 42 40 35 41 41 39 45 38 37 31 25 25 22 24 22 27 33 31 35 36 33 36 34 34 37 36 36 39 33 36 38 31 35 39 34 36 43 40 35 37 37 38 37 34 33 33 34 36 37 30 
44 37 44 40 42 41 39 37 37 40 41 41 42 38 39 42 41 39 40 36 36 39 41 39 37 38 42 39 39 44 41 39 36 42 42 40 43 37 34 28 24 27 26 24 22 23 28 33 33 39 35 33 34 36 35 35 36 36 34 35 28 34 34 33 36 34 40 38 36 39 38 36 39 35 29 31 32 33 29 32 
43 46 45 42 40 42 40 42 39 39 39 37 39 39 37 38 39 38 39 36 38 36 39 40 38 39 40 42 41 44 41 40 38 45 40 37 41 37 38 35 24 25 27 24 21 23 28 31 29 37 39 33 35 32 31 34 37 33 36 34 31 33 34 34 31 37 36 38 41 38 38 34 38 35 34 34 32 36 30 32 
37 38 44 39 42 44 40 40 40 38 41 36 39 38 37 38 39 39 37 37 38 36 40 40 42 40 38 38 40 45 43 42 41 40 41 39 45 42 38 31 23 24 23 22 20 29 27 28 26 32 33 35 31 32 34 34 37 38 32 34 33 33 33 37 34 35 41 41 37 36 34 32 36 36 31 33 36 36 33 38 
40 38 42 42 40 43 38 38 39 39 40 42 39 37 39 40 41 40 37 40 36 36 39 37 39 41 40 39 42 41 41 39 36 44 44 42 48 38 36 27 18 23 23 23 18 30 31 31 30 31 33 32 31 34 34 33 32 38 35 30 31 31 33 32 34 35 34 35 33 34 35 35 35 32 33 34 34 35 31 30 
41 42 42 43 42 43 41 40 40 39 38 40 42 38 40 37 40 41 37 38 37 37 42 37 40 34 39 39 41 41 40 37 39 42 45 40 47 41 37 26 20 25 22 22 18 20 34 34 31 32 32 32 32 33 35 31 34 34 34 33 31 32 32 34 34 33 37 35 35 34 31 36 33 31 29 30 31 36 31 32 
42 39 43 46 42 42 42 44 43 40 37 37 40 41 39 41 39 41 41 35 38 39 39 38 38 39 35 38 37 41 43 43 38 45 44 36 46 41 34 24 16 19 20 22 16 24 30 29 31 35 29 36 31 29 33 34 29 35 29 30 34 33 35 31 29 33 38 35 35 34 36 34 34 30 30 33 31 34 30 32 
40 45 46 44 43 40 44 40 41 36 40 41 44 41 41 37 42 47 39 38 37 40 38 40 38 37 39 40 41 39 46 40 37 46 47 45 48 41 38 25 20 22 22 19 21 24 29 32 34 33 31 31 30 30 32 33 38 33 32 32 28 34 33 31 34 34 35 38 36 35 33 34 34 32 31 33 30 33 29 31 
44 46 48 41 43 44 43 42 45 40 41 40 38 39 38 42 41 43 42 39 39 38 39 41 39 38 39 38 35 40 41 40 38 45 45 41 45 38 39 26 18 21 23 18 19 22 30 30 32 32 33 32 34 32 28 34 36 33 32 32 28 33 28 30 29 33 38 35 34 38 34 33 33 34 29 30 33 34 35 34 
39 39 45 43 42 45 41 39 43 41 40 38 37 41 38 41 40 37 36 37 40 40 39 42 37 42 41 41 38 39 40 37 37 44 45 44 46 33 33 26 18 22 23 18 20 24 28 28 31 33 33 36 35 33 29 30 30 30 28 30 29 27 28 27 27 33 35 37 36 34 32 32 28 32 30 36 33 36 30 37 
39 41 40 42 40 43 40 39 39 40 42 39 39 40 39 40 38 39 34 37 39 38 38 43 37 39 47 43 38 40 42 43 44 46 45 43 45 36 34 24 19 16 21 21 19 26 28 33 26 35 32 35 32 30 31 33 32 30 27 27 29 28 28 26 32 26 33 28 30 30 31 32 27 32 32 32 32 36 37 32 
41 42 41 41 42 39 39 40 36 38 39 39 40 37 38 37 37 39 36 36 41 37 38 41 41 40 41 39 40 40 37 38 41 42 40 43 50 38 34 26 16 25 21 19 20 24 28 27 28 30 29 32 30 32 26 30 33 31 27 30 27 28 27 29 29 29 31 30 28 29 32 31 36 28 30 31 31 37 32 33 
43 44 43 38 41 38 43 38 39 38 39 36 40 38 40 35 38 41 39 39 40 40 39 42 38 38 41 38 38 40 37 41 40 40 39 42 46 36 33 21 16 18 19 18 20 24 28 31 33 30 28 28 29 29 25 31 29 30 27 28 29 28 29 29 27 28 28 32 28 29 29 32 30 27 28 27 29 33 30 28 
42 39 39 41 40 40 37 40 36 38 37 42 41 38 39 40 38 40 40 43 39 40 41 40 39 39 39 38 38 34 38 41 37 39 42 39 46 37 32 24 17 18 18 14 16 24 27 36 29 30 27 28 30 29 28 27 29 32 27 28 27 27 28 25 27 30 28 30 29 32 30 30 32 31 31 29 32 31 25 29 
38 42 39 40 39 39 38 38 35 37 39 38 37 38 39 39 40 39 43 41 44 40 40 39 38 41 40 39 40 39 39 37 37 42 42 39 45 40 31 22 16 18 15 14 17 22 26 29 29 29 25 27 30 27 26 26 29 29 26 28 27 26 27 23 28 27 32 34 33 31 29 31 30 27 28 31 32 29 29 30 
36 43 38 39 40 38 41 36 39 38 38 36 37 38 43 44 42 41 36 39 41 40 39 37 39 36 40 37 35 40 41 40 40 42 42 46 47 37 32 21 14 19 15 17 16 23 27 27 26 26 26 27 26 27 26 26 29 30 26 27 27 27 27 19 27 34 34 32 34 33 29 29 28 28 29 26 25 30 26 32 
40 38 36 37 36 36 38 39 40 34 38 35 38 38 39 37 37 40 36 40 35 37 42 37 37 41 40 37 39 42 39 42 33 38 38 44 43 32 33 22 12 14 13 16 12 24 25 26 26 24 25 25 29 26 24 28 27 31 25 24 24 24 30 26 29 33 32 32 28 30 29 29 27 25 25 28 25 26 28 31 
36 39 37 37 39 35 36 39 33 37 37 36 38 41 40 39 41 40 36 37 33 35 37 41 38 39 40 38 40 40 42 37 36 38 40 36 44 32 31 19 10 19 13 12 17 18 27 23 24 25 21 22 25 21 21 27 27 28 25 27 24 27 26 26 26 28 31 28 26 28 28 29 27 28 22 27 27 27 24 28 
37 41 38 35 37 32 35 36 36 36 36 37 36 36 39 39 38 39 36 35 35 32 36 37 41 39 39 38 36 36 37 36 34 39 38 34 41 37 29 18 14 11 8 16 15 20 20 21 20 24 22 22 26 25 25 25 27 28 24 26 23 23 23 23 27 25 30 30 26 26 27 27 27 25 23 24 25 25 26 25 
40 41 36 37 37 35 37 38 37 37 38 36 37 35 40 39 39 39 36 37 31 38 37 36 39 37 38 40 39 36 37 40 37 38 41 34 38 29 29 19 12 11 10 13 13 15 21 20 18 22 22 23 26 25 26 27 26 27 25 28 23 21 24 21 23 24 31 30 28 27 26 26 26 30 28 24 23 26 22 28 
39 39 40 34 36 35 35 37 38 37 35 37 37 36 38 37 35 40 37 38 34 38 36 32 37 34 38 35 38 36 38 37 36 38 35 38 41 32 32 15 11 10 5 14 13 14 21 16 21 20 18 23 21 24 23 27 25 25 22 26 24 21 24 25 24 26 31 28 28 26 28 27 28 24 25 24 27 27 25 29 
40 39 39 39 39 39 37 35 39 35 38 38 37 41 34 38 36 35 35 39 40 32 34 37 33 34 39 33 36 37 37 36 39 35 42 42 42 30 25 14 8 10 9 9 7 17 18 15 18 18 18 21 18 24 24 25 24 28 23 25 25 22 26 24 23 25 28 30 27 26 26 28 23 21 24 24 24 23 21 23 
36 39 38 40 40 37 35 35 37 39 37 35 35 35 36 38 35 39 37 36 36 37 38 36 35 37 36 33 33 38 35 39 37 39 41 38 38 33 30 19 10 9 9 7 8 12 16 20 24 22 18 20 22 19 22 25 26 26 25 25 23 23 24 22 25 30 27 27 26 25 25 23 24 24 26 22 27 27 25 25 
38 39 39 40 45 40 36 36 39 37 35 37 37 37 37 37 36 40 34 35 34 35 40 37 37 34 37 37 38 37 35 37 33 38 38 38 40 30 24 13 0 4 8 5 5 13 18 16 17 17 18 18 21 22 23 25 27 27 23 24 22 20 19 23 21 23 24 26 27 23 27 21 26 22 21 24 23 25 22 23 
38 40 36 38 42 38 37 38 35 35 39 34 37 34 34 38 37 36 33 33 34 34 36 34 37 32 38 36 37 37 38 37 32 40 39 37 39 31 21 14 7 9 8 9 8 14 14 17 15 20 18 13 20 23 25 23 27 27 23 21 20 19 20 21 21 24 27 21 24 23 28 21 23 20 23 20 25 26 24 23 
33 34 34 39 35 35 39 40 35 36 37 39 37 40 34 37 33 38 37 38 34 38 33 36 35 35 37 39 35 32 34 35 40 37 41 37 42 30 23 7 6 15 5 8 4 13 13 14 17 17 17 14 24 17 23 24 25 24 20 20 18 21 20 22 21 22 23 25 22 26 30 26 25 24 21 23 23 24 22 25 
34 38 32 35 34 36 33 37 36 34 39 41 46 39 36 37 35 33 38 37 33 34 36 33 35 31 35 35 34 36 34 35 34 39 37 37 38 35 20 16 5 10 7 5 11 13 15 19 18 17 14 13 22 18 18 18 24 23 20 20 18 19 18 25 25 24 25 25 26 26 28 23 26 24 26 27 26 27 22 25 
36 37 34 33 37 33 34 36 38 37 37 38 40 40 37 38 32 32 35 33 36 33 37 36 35 32 34 34 34 32 31 33 35 39 36 39 40 25 15 11 9 7 11 12 13 16 15 24 18 20 12 16 16 16 20 21 21 24 19 21 19 19 21 23 26 26 24 24 21 26 25 25 26 25 21 21 25 27 25 26 
38 36 36 35 33 36 36 38 36 37 37 37 42 35 35 35 34 34 33 33 34 34 34 36 35 30 37 34 37 35 38 33 33 40 33 35 41 25 19 9 5 5 12 9 13 16 14 17 15 18 16 16 14 14 22 17 20 20 16 20 18 15 16 22 25 24 27 23 22 19 22 23 26 20 21 22 23 25 21 24 
33 32 35 31 29 33 35 31 36 34 36 35 38 37 35 35 34 36 31 33 35 36 34 35 34 30 33 34 31 34 35 35 36 36 33 33 39 25 18 8 5 4 7 9 9 14 15 14 15 16 14 14 17 17 18 15 19 20 17 15 15 12 21 21 22 26 24 24 22 23 23 20 25 22 20 21 22 25 23 21 


