P2
80 60
61
49 49 43 44 46 49 51 42 47 44 45 43 41 42 43 42 44 40 41 43 43 45 39 41 40 41 41 41 42 45 40 45 47 41 44 40 44 45 42 44 40 45 44 46 43 43 46 43 44 43 43 42 45 45 44 45 43 42 44 42 38 37 41 37 35 39 37 32 37 35 36 34 34 33 36 39 33 33 31 28 
43 48 49 48 52 54 49 46 46 45 43 46 42 42 44 45 45 45 43 44 45 41 43 44 46 44 49 44 40 46 42 48 46 45 47 47 44 48 42 42 40 42 44 48 44 45 43 44 42 42 47 41 42 47 43 43 43 44 43 40 40 37 40 40 38 38 32 35 36 35 33 31 34 37 37 41 36 33 26 30 
49 52 48 48 55 53 54 49 47 49 44 45 46 40 44 45 41 43 39 41 46 42 47 45 45 42 45 43 42 44 46 49 50 46 49 40 44 44 44 44 41 44 41 44 45 43 46 45 44 43 44 43 42 45 40 44 45 43 43 41 40 39 39 39 38 32 38 34 43 37 39 36 33 34 35 40 41 33 27 34 
50 52 51 55 55 56 56 57 53 49 49 43 43 42 44 43 45 45 39 44 43 43 42 41 44 42 42 46 40 43 41 45 43 43 44 42 45 48 47 45 44 40 42 46 45 45 44 43 47 42 43 39 43 41 38 41 40 42 41 40 44 39 39 37 35 37 38 35 35 35 37 36 32 34 36 34 28 32 24 33 
49 52 55 53 57 59 54 57 52 49 48 47 45 43 44 47 42 45 43 42 45 40 42 44 44 42 44 44 40 41 40 42 43 43 41 44 45 44 45 46 40 41 43 46 46 43 47 46 42 45 43 41 47 41 40 42 39 38 42 38 41 38 40 40 40 40 38 37 40 37 36 36 36 35 37 36 33 28 25 29 
49 51 58 57 56 56 48 53 55 47 46 43 44 41 47 47 45 45 41 44 42 43 46 41 44 43 45 45 39 41 41 43 44 42 45 43 46 47 44 47 41 46 46 43 47 46 49 44 45 40 43 43 47 44 42 46 46 44 44 41 42 39 39 36 38 36 43 36 46 41 37 34 35 35 32 40 34 31 28 31 
45 47 52 49 46 51 53 48 43 50 48 45 44 44 46 45 45 46 44 47 42 44 47 43 45 40 45 43 43 41 42 41 44 43 44 43 47 46 47 47 45 43 43 41 44 46 46 47 43 42 45 44 46 43 42 44 42 45 47 45 43 38 40 38 38 39 36 38 39 40 34 32 35 32 34 42 35 30 27 31 
49 49 49 47 49 52 53 48 43 50 48 46 48 44 46 46 46 45 45 45 49 45 46 42 43 42 45 46 46 43 40 42 43 43 44 48 48 41 47 48 45 46 43 46 43 44 46 43 46 44 44 42 45 43 39 45 40 42 44 41 39 40 40 41 37 40 37 37 39 36 34 35 34 34 32 41 37 32 29 30 
55 54 49 52 51 53 54 47 47 51 49 49 47 44 43 45 46 47 45 46 48 44 44 45 45 45 45 45 47 42 42 40 42 42 46 47 49 42 44 46 43 42 42 44 45 42 45 43 43 41 43 44 46 41 41 43 43 44 44 42 40 37 41 40 38 40 35 37 37 37 33 35 34 33 31 34 33 34 24 29 
56 54 50 57 52 55 55 48 49 48 49 48 48 43 46 48 47 45 42 44 46 47 44 47 47 42 44 45 42 41 41 40 43 43 47 44 44 42 45 44 42 42 38 39 41 40 40 43 43 41 43 40 44 42 40 42 43 41 41 40 42 40 40 38 38 34 38 34 37 36 31 32 31 32 33 36 32 34 31 29 
55 57 56 56 54 58 59 52 49 51 49 50 48 44 46 48 49 43 48 47 46 48 48 44 45 45 42 45 42 43 40 44 45 44 43 40 42 42 41 45 42 42 41 40 41 42 40 41 42 42 43 40 44 42 41 43 41 38 41 37 39 38 38 38 38 40 37 32 38 36 36 29 34 33 36 39 30 33 32 31 
56 54 54 55 55 55 53 52 47 49 51 48 47 46 47 48 45 45 45 47 46 46 48 45 47 44 43 45 43 45 42 42 44 45 42 41 40 39 42 44 41 41 41 40 44 41 43 41 39 39 42 40 44 36 42 42 39 40 39 38 41 39 37 36 38 40 37 37 38 31 33 31 34 39 34 42 33 32 30 31 
56 53 52 58 56 53 52 52 47 48 47 47 45 48 43 44 44 44 42 45 46 46 47 43 43 44 46 47 42 44 44 46 46 48 46 44 43 45 48 45 42 42 41 44 45 43 46 42 42 42 46 39 38 41 39 42 41 42 44 38 38 40 42 39 40 36 38 34 34 34 27 32 31 35 31 39 34 31 29 31 
55 54 55 54 57 51 51 49 46 47 45 50 46 44 44 47 43 44 43 44 48 46 45 45 45 42 44 45 44 44 45 42 48 46 46 44 43 47 44 44 42 43 43 43 44 45 47 48 41 44 44 41 42 39 40 44 44 46 46 38 40 38 39 38 37 37 40 36 35 34 33 30 32 36 36 40 32 34 27 30 
54 58 56 56 53 49 52 52 49 47 44 45 44 42 45 45 44 42 44 43 44 47 47 44 43 43 42 45 43 42 45 44 45 44 46 43 43 46 43 47 44 43 42 43 43 41 43 42 42 45 43 40 39 41 40 44 44 47 47 42 39 36 40 37 39 39 38 36 36 33 33 32 28 29 31 41 36 32 30 30 
56 56 55 54 54 52 48 51 48 46 45 47 43 43 46 48 45 45 45 44 44 45 44 48 46 41 42 45 43 43 42 43 48 44 42 47 40 42 47 45 44 40 41 41 42 42 44 41 39 42 42 39 42 45 41 42 42 47 45 39 39 38 40 39 39 41 38 41 39 38 40 33 30 28 32 35 36 29 24 21 
54 59 55 57 52 53 51 50 46 48 46 45 45 44 45 48 42 45 43 44 44 40 43 42 44 45 46 44 41 44 38 45 47 45 45 45 44 44 42 46 41 42 42 41 43 46 42 42 38 38 41 40 41 41 43 44 44 43 45 42 39 38 38 40 39 38 37 37 37 37 40 35 35 35 34 36 34 28 27 21 
56 57 57 55 51 57 52 48 46 46 51 46 43 41 47 45 47 42 42 45 44 44 43 40 45 39 42 47 38 43 41 43 45 44 46 44 41 41 41 46 42 41 41 40 44 41 40 42 40 39 39 40 44 46 43 43 42 47 45 40 41 34 37 38 37 41 36 38 37 36 37 33 33 35 35 38 32 30 26 22 
56 53 56 60 57 54 52 49 46 47 48 47 44 44 47 47 46 44 44 44 45 43 45 46 44 41 47 42 43 42 42 44 47 42 47 41 45 43 42 44 44 42 42 43 42 40 41 42 39 40 40 40 48 44 42 41 41 40 41 37 40 37 38 37 38 38 40 39 37 39 36 37 33 38 36 40 33 30 24 22 
53 55 54 55 57 57 52 49 46 47 45 46 44 43 45 46 45 44 46 47 45 44 50 44 44 49 46 46 42 41 44 44 46 45 42 45 44 45 41 42 44 42 43 43 42 40 40 42 39 39 39 41 46 45 39 43 43 40 40 41 39 37 38 38 39 38 39 36 39 37 41 38 34 38 38 35 35 29 27 24 
55 56 54 59 56 52 53 46 48 48 47 47 43 45 46 44 44 45 42 47 46 43 48 41 46 45 44 44 39 46 55 47 45 42 45 40 43 45 41 44 44 45 44 39 41 41 40 40 41 39 41 38 44 39 41 42 36 43 42 41 41 37 43 35 40 36 39 36 41 38 36 38 35 39 35 38 31 32 28 29 
56 54 51 54 54 53 53 50 50 47 47 46 50 45 46 44 44 43 42 45 46 44 48 46 45 43 45 42 42 44 45 45 46 46 44 43 43 42 42 43 39 44 41 39 39 36 42 42 39 40 41 38 44 45 39 41 42 42 44 39 37 39 37 40 39 38 42 38 41 41 40 37 40 36 38 39 34 30 26 23 
53 50 52 55 53 52 52 53 46 47 47 47 46 44 45 43 41 44 38 46 42 41 42 38 43 43 44 43 38 41 42 42 43 40 42 42 43 42 43 46 42 38 39 37 37 38 39 41 38 40 39 41 44 40 42 43 39 40 44 40 42 37 39 40 39 41 38 38 38 36 38 37 39 38 38 41 33 31 28 22 
52 51 52 50 50 53 56 57 48 49 47 46 42 45 44 46 42 44 39 42 43 41 44 42 42 38 43 44 37 40 39 40 42 39 40 38 41 41 40 40 41 40 40 38 41 38 41 39 39 44 44 42 43 41 39 41 41 39 40 38 38 36 40 39 41 40 43 38 40 38 40 36 39 40 39 38 32 31 27 22 
50 52 48 51 52 48 50 50 46 46 47 48 42 41 45 43 42 43 40 44 41 40 43 41 42 39 40 42 38 39 38 40 40 40 42 41 38 42 41 42 35 39 42 41 40 38 39 40 37 39 37 37 42 42 37 37 39 39 38 38 36 34 37 38 40 43 41 39 37 36 34 34 40 42 38 44 36 31 27 21 
52 50 53 51 51 53 51 50 47 48 46 45 45 42 47 44 42 44 41 41 41 41 45 44 40 42 42 40 39 37 39 37 38 37 40 41 41 41 39 43 39 41 39 38 42 42 40 42 37 38 40 38 41 40 38 39 40 36 42 36 38 40 38 37 39 39 42 38 40 38 37 31 40 39 41 45 37 29 29 23 
53 52 51 50 51 48 51 51 48 48 46 46 42 42 42 43 43 45 42 42 42 45 48 42 46 43 43 45 38 38 38 39 42 40 43 42 40 39 39 42 39 39 39 41 39 39 38 40 42 37 38 37 41 40 38 42 38 37 39 39 36 35 40 38 38 38 43 35 37 38 41 35 40 39 41 43 37 33 21 23 
55 50 50 54 51 51 53 48 46 46 48 47 44 40 46 45 41 43 44 42 41 40 44 42 43 43 44 44 39 42 43 40 43 40 40 40 42 40 39 40 41 40 41 43 41 39 38 41 41 38 39 38 44 42 37 39 41 39 37 38 43 38 38 35 39 39 42 35 36 40 42 38 39 40 38 44 36 35 26 18 
53 53 55 51 54 52 50 51 50 48 46 47 44 44 45 43 44 44 41 43 40 41 41 40 44 41 40 43 40 41 44 39 41 39 40 42 40 40 38 41 40 40 42 41 38 39 38 41 40 39 37 37 44 39 38 38 37 37 37 36 37 39 39 39 39 40 40 38 35 39 39 36 43 36 41 43 35 32 27 17 
56 53 57 51 53 50 48 49 45 46 45 44 43 41 44 44 41 40 39 43 41 42 42 40 41 41 40 39 38 43 40 42 40 41 39 40 41 40 40 40 41 42 41 42 41 40 42 39 39 36 40 38 41 39 35 35 38 39 38 36 39 37 39 36 40 41 44 39 39 38 39 35 38 37 40 44 34 34 22 14 
55 55 54 54 48 47 48 46 46 45 45 42 45 42 43 44 44 39 45 42 41 43 43 42 45 43 42 42 37 40 39 39 40 40 41 40 43 40 39 43 41 41 41 41 41 45 38 38 42 39 40 39 40 37 36 41 40 37 36 35 38 37 38 40 40 41 43 38 38 34 38 37 40 39 39 41 37 36 22 14 
53 47 54 49 46 47 49 47 45 47 46 45 44 40 41 46 43 41 44 40 40 42 45 44 43 42 43 43 38 41 39 39 40 40 38 38 39 40 38 43 42 40 40 43 40 41 38 40 39 42 40 39 40 42 39 38 40 38 38 38 34 39 38 38 40 40 40 36 40 40 39 36 39 39 36 42 34 27 22 20 
51 50 52 49 49 51 49 48 45 43 46 42 43 41 43 44 41 41 42 44 40 42 40 43 41 41 43 42 38 40 39 38 41 39 39 41 39 41 39 42 41 41 44 41 40 41 38 40 39 39 45 39 41 37 39 41 38 41 39 36 39 37 37 39 40 39 40 37 43 39 38 35 39 36 41 41 36 35 24 13 
45 51 52 49 51 48 49 48 45 43 44 43 44 42 43 45 40 41 41 41 40 39 43 43 43 42 41 41 40 44 40 38 39 41 40 38 38 41 36 44 39 42 40 39 40 41 36 38 38 37 39 39 39 38 35 39 39 41 36 40 38 39 38 38 44 37 43 40 41 35 37 37 39 39 38 44 38 26 19 17 
51 49 52 51 52 50 48 47 44 45 43 46 42 42 41 43 46 41 41 43 40 40 41 40 47 42 40 41 42 40 41 37 43 41 43 39 40 41 39 37 39 40 41 42 43 43 41 40 36 37 37 39 39 40 39 38 39 42 39 36 38 38 38 35 42 44 40 34 36 36 35 33 40 40 39 41 37 34 24 23 
51 49 51 52 49 52 47 46 47 43 44 43 43 41 46 42 44 42 41 43 40 40 42 42 43 40 39 40 39 42 41 40 40 42 39 38 42 41 42 43 38 43 39 41 39 39 41 43 39 37 38 41 40 40 38 39 41 39 39 37 38 37 37 39 40 38 37 34 37 39 35 35 38 39 39 44 39 32 20 15 
50 50 49 51 51 49 49 49 44 45 45 43 42 43 42 41 41 46 42 41 41 41 41 42 41 42 37 43 37 39 41 41 42 41 40 40 42 42 37 43 38 36 39 40 41 38 39 38 38 40 41 43 39 39 37 37 37 39 35 34 39 37 38 38 42 39 41 35 37 38 34 32 37 37 38 42 34 30 19 15 
52 55 54 55 53 49 52 50 46 41 46 43 50 44 42 42 43 47 42 44 41 39 43 44 42 39 38 43 38 41 42 39 38 40 40 41 39 41 40 41 42 40 40 40 41 39 39 38 41 36 41 42 43 38 38 41 40 37 36 37 37 38 35 37 38 37 44 35 40 37 38 37 41 41 41 44 39 32 19 16 
53 56 61 52 55 54 51 48 46 45 46 46 43 41 41 45 41 44 44 42 42 41 42 41 42 39 40 39 39 40 39 40 42 42 40 43 39 41 43 41 39 40 40 40 40 40 41 38 39 40 43 41 43 41 39 41 40 39 38 36 35 35 36 38 38 36 41 36 38 39 40 37 41 39 41 47 36 33 22 16 
53 52 51 52 53 52 51 45 44 46 46 42 45 41 40 44 40 40 42 39 41 43 43 44 45 43 41 43 38 40 37 40 42 43 42 42 41 40 39 43 40 40 40 38 39 43 44 41 40 41 42 41 44 41 39 38 38 41 37 36 34 38 39 36 37 38 38 35 38 40 38 37 38 42 43 47 36 31 22 20 
49 55 52 52 53 56 51 46 42 45 45 41 42 42 41 41 42 40 39 42 39 41 44 41 45 41 44 41 37 39 39 41 45 42 40 41 40 40 40 41 40 41 37 38 43 41 40 40 39 42 45 46 51 44 41 39 40 39 40 35 33 35 36 40 40 37 40 33 36 36 34 39 39 44 41 46 39 34 21 19 
49 50 58 53 52 53 49 48 44 44 43 42 43 40 44 44 41 41 42 39 42 40 45 43 42 41 42 41 38 35 38 42 47 35 42 40 46 43 41 44 39 45 42 37 40 40 40 44 42 40 40 43 42 46 39 39 39 38 37 34 36 37 36 36 42 42 37 33 34 34 35 36 41 42 40 41 35 35 24 19 
51 51 51 49 53 51 50 45 42 44 43 44 42 43 43 40 42 40 41 42 41 42 42 42 41 40 42 41 38 39 36 39 42 41 43 43 38 43 40 41 41 41 39 42 42 41 42 42 43 40 42 40 43 41 41 41 42 38 38 36 37 36 34 41 38 38 40 33 36 33 34 39 39 37 41 43 36 32 20 12 
52 50 49 52 52 53 48 46 41 43 43 45 42 42 41 42 41 40 42 43 43 40 41 43 43 42 41 39 36 36 37 40 41 39 42 39 38 40 43 43 39 38 37 41 42 41 41 48 43 40 41 38 42 44 38 38 39 41 38 36 40 40 34 37 40 38 36 33 37 36 34 37 37 40 38 44 36 27 21 10 
52 51 47 52 55 53 50 46 41 38 44 43 43 37 42 42 42 42 43 42 44 42 42 39 43 40 39 39 38 36 38 39 43 40 44 41 41 39 40 41 40 39 38 39 43 43 41 44 43 39 41 40 40 38 40 37 36 40 37 39 38 38 37 39 37 39 38 37 36 35 34 36 38 38 41 50 34 26 20 15 
48 49 47 49 53 49 46 45 43 45 44 42 43 40 45 44 43 40 41 41 44 43 42 41 41 39 41 39 35 39 40 39 42 40 41 41 41 40 39 40 39 41 36 41 42 42 41 39 39 36 40 41 37 37 38 36 39 37 34 36 38 37 36 37 39 39 38 34 39 38 38 35 38 37 40 39 36 26 12 16 
48 48 49 50 52 46 47 46 46 42 44 38 40 38 44 44 40 43 39 42 40 43 43 39 42 40 44 39 39 38 37 38 42 39 42 42 39 41 40 41 40 39 40 40 44 43 40 41 40 39 37 40 40 38 35 37 37 37 38 36 35 36 37 37 35 39 40 35 39 35 36 38 36 37 34 42 35 22 20 10 
48 49 53 52 49 48 45 48 44 41 41 40 41 40 43 44 44 40 39 39 44 43 44 41 38 41 38 39 39 40 39 36 40 37 41 38 41 37 41 40 40 41 39 42 44 39 42 41 42 39 40 38 42 35 34 36 38 37 35 34 35 35 37 37 40 38 37 35 41 36 36 33 35 37 34 43 27 22 11 10 
47 50 52 50 47 46 43 44 40 45 39 40 40 41 42 44 41 40 39 42 40 42 46 42 38 39 39 40 37 39 37 38 39 38 40 39 38 40 37 41 38 38 35 42 39 41 39 38 39 38 40 36 42 38 34 37 37 33 35 36 36 29 33 37 36 36 38 35 36 35 37 35 36 34 31 36 33 23 11 9 
50 49 49 49 48 46 46 41 41 42 46 41 41 40 45 41 40 42 41 41 42 42 43 40 39 39 38 41 37 39 37 37 39 40 40 37 37 38 38 38 39 37 35 41 40 39 40 38 37 35 38 38 41 41 35 40 38 34 32 35 33 37 34 36 35 38 38 33 33 34 35 37 37 38 39 41 32 27 8 6 
49 50 46 48 48 52 47 40 40 41 41 41 40 41 44 44 40 41 43 44 40 40 38 41 39 36 39 39 38 37 37 35 41 39 38 40 40 41 39 39 39 37 39 37 40 35 38 36 38 34 38 39 43 38 37 38 37 34 37 37 36 36 35 37 35 36 35 33 38 34 34 34 37 35 39 39 32 21 12 9 
50 46 50 41 50 49 48 43 41 39 42 43 39 42 41 41 40 40 43 40 42 39 40 40 39 38 40 37 32 37 36 37 40 37 44 42 41 39 36 37 35 36 37 38 38 37 37 36 38 35 38 38 40 43 38 41 35 35 39 38 38 36 37 35 36 36 35 35 37 38 36 34 35 32 36 39 31 19 4 5 
48 47 49 48 55 52 47 41 41 43 42 38 35 39 39 39 38 39 40 41 38 41 43 40 38 40 40 36 34 38 36 38 38 41 41 38 39 39 38 37 37 37 35 39 38 35 38 36 40 36 39 38 42 40 38 41 41 38 41 37 36 33 35 34 36 38 36 32 36 36 34 35 35 36 40 42 33 17 14 2 
46 45 45 53 55 51 47 42 42 42 38 37 39 39 38 41 38 39 37 38 41 38 41 38 39 37 39 40 38 41 35 35 38 41 39 39 37 36 37 38 36 35 35 36 36 34 41 39 36 37 37 38 41 39 38 39 40 40 38 34 39 35 35 30 35 33 36 32 35 35 32 38 32 35 37 41 22 17 6 3 
46 50 47 48 46 50 47 40 38 41 44 40 38 38 37 44 40 36 37 37 39 39 39 35 40 37 42 40 38 36 37 35 39 39 38 42 37 37 34 38 36 36 35 35 38 37 37 36 35 35 40 38 36 43 37 42 40 39 40 32 36 34 33 34 35 35 35 30 34 36 38 34 32 37 36 36 29 18 7 0 
44 44 45 45 48 43 46 45 40 41 43 41 43 41 40 40 38 37 39 41 38 40 40 39 35 38 38 42 39 34 34 36 41 38 40 36 36 36 37 37 36 35 35 36 39 34 40 36 36 35 39 37 42 40 35 40 44 40 36 33 34 35 33 34 36 33 36 32 30 38 39 37 38 43 38 44 26 19 18 6 
40 46 42 45 47 44 44 44 37 40 41 43 49 40 42 39 39 37 43 38 39 37 37 34 37 36 40 36 34 39 34 34 35 40 35 36 38 39 33 38 38 37 36 35 37 35 39 37 40 38 35 36 38 38 36 39 38 36 37 36 34 34 34 34 37 36 34 31 35 34 37 32 34 42 36 33 26 13 1 6 
46 44 46 43 54 46 46 43 40 42 40 40 44 41 39 40 35 36 41 38 40 40 38 40 38 35 35 36 31 33 33 34 35 40 38 36 38 37 37 41 38 36 35 37 37 36 40 44 37 37 37 37 38 37 36 36 36 37 36 33 33 32 33 34 37 35 31 31 33 37 35 37 36 35 34 36 26 18 13 8 
43 45 47 46 46 47 46 42 39 45 40 38 44 37 39 35 38 33 41 37 38 39 39 38 39 33 40 34 34 32 30 36 38 40 34 38 37 36 37 39 35 36 40 35 36 37 36 38 38 36 39 37 40 36 39 38 35 34 34 33 34 31 28 34 35 35 33 28 32 35 34 33 36 34 34 40 24 12 7 5 
46 39 44 46 45 43 43 38 40 39 40 40 43 36 42 38 36 37 36 38 37 39 39 40 37 35 38 39 34 35 34 38 37 37 38 40 39 38 39 41 37 36 41 36 38 37 36 38 41 39 38 38 45 38 40 38 35 35 40 33 34 33 31 33 34 35 33 32 30 37 35 31 37 35 31 36 25 11 7 4 


