P2
80 60
113
11 12 15 11 13 10 9 7 13 7 9 9 9 7 7 7 7 10 6 0 8 0 2 1 3 3 1 7 9 10 13 12 14 15 16 12 10 14 12 14 14 15 16 19 17 18 17 18 18 16 19 19 18 26 23 26 23 26 19 22 19 23 22 21 18 16 15 10 13 13 16 14 17 19 15 14 15 17 13 13 
13 14 13 12 13 12 9 8 9 10 9 8 9 9 10 6 8 6 3 4 7 4 3 1 6 2 5 5 9 8 13 12 14 17 14 16 9 17 15 16 15 15 14 18 17 21 22 18 17 18 21 17 18 21 25 27 26 24 20 20 19 18 21 21 16 14 11 12 10 13 12 12 17 18 12 13 16 14 17 13 
15 14 14 11 9 7 10 10 7 9 12 8 8 10 11 6 4 7 5 4 9 4 4 2 3 3 6 8 11 13 12 14 17 16 15 17 16 14 14 18 17 15 12 16 15 19 20 22 23 22 22 17 19 23 25 30 23 20 21 22 22 22 19 20 20 14 16 14 14 10 20 13 17 17 13 14 17 18 16 13 
18 14 16 10 13 10 12 12 10 13 15 9 9 9 12 3 6 9 6 7 9 6 10 7 2 8 11 10 13 12 16 17 18 16 16 16 19 19 16 16 18 18 18 16 20 22 24 25 25 23 23 19 23 22 26 28 20 21 20 22 26 21 24 25 18 14 19 14 14 15 16 20 19 21 19 14 18 18 15 15 
21 17 14 11 16 14 9 7 12 10 9 11 10 10 13 9 5 7 5 5 4 3 7 6 6 11 9 10 12 13 15 11 16 12 13 17 13 15 18 17 21 17 16 14 20 20 22 21 23 22 22 20 19 25 23 28 22 20 22 22 27 22 25 24 19 16 18 16 15 19 21 15 16 23 14 18 13 16 16 14 
19 19 13 11 12 12 14 10 14 10 9 9 10 9 13 7 7 11 6 6 2 6 8 7 6 10 5 9 9 14 8 11 13 11 12 13 18 16 15 14 15 16 19 16 18 17 28 21 16 20 21 25 22 23 24 27 23 23 23 23 22 19 17 22 19 18 15 16 20 13 19 17 17 17 15 16 16 17 13 13 
20 18 15 11 15 14 12 11 14 8 9 12 8 10 13 6 10 9 10 7 9 6 10 5 7 7 11 8 11 15 11 12 14 12 15 14 15 18 16 18 19 14 18 22 18 21 20 21 20 17 18 25 24 25 23 29 25 29 29 25 22 19 22 22 19 17 16 19 21 19 19 18 17 23 21 16 15 16 15 16 
20 22 14 15 15 16 12 12 10 11 11 9 10 9 10 8 10 10 7 8 10 6 5 8 8 11 7 9 10 13 7 10 11 11 14 14 19 16 17 18 17 16 19 18 19 20 26 21 18 21 27 22 24 26 26 35 21 29 25 24 25 25 27 22 19 22 19 16 20 16 18 17 15 17 18 18 18 14 14 11 
17 20 17 15 14 14 14 13 13 13 17 9 10 9 9 8 10 9 9 8 6 4 9 4 9 9 9 9 16 12 14 7 15 13 14 19 20 15 16 19 17 17 16 20 22 19 21 20 19 22 24 22 22 25 25 29 23 22 22 26 22 25 26 22 19 17 20 17 13 18 19 16 19 18 15 15 12 16 11 15 
21 22 19 19 17 16 15 14 15 10 11 12 10 11 11 8 13 9 6 8 8 8 4 5 5 9 9 13 11 14 11 14 15 16 17 16 20 16 16 17 15 15 17 15 20 17 20 22 19 21 22 21 22 23 26 28 22 23 23 23 23 24 24 22 19 19 21 16 20 14 16 22 23 19 14 19 15 14 17 15 
19 18 17 15 16 16 20 13 15 13 15 13 9 9 11 9 9 7 6 5 5 4 4 4 4 8 10 11 10 11 13 13 16 14 12 14 19 15 18 16 19 14 17 15 17 22 22 22 19 20 22 22 22 23 25 27 22 24 26 24 26 22 23 21 18 16 19 21 13 15 18 21 18 17 17 18 19 18 15 16 
20 19 19 14 17 16 16 14 11 12 11 10 10 11 10 7 8 7 6 6 5 4 4 7 4 8 7 12 14 15 13 14 14 16 12 16 14 18 15 18 21 14 16 21 21 17 23 23 19 20 20 21 24 20 26 27 24 24 23 20 25 24 21 22 22 18 19 22 16 14 16 14 18 23 16 26 18 23 18 11 
23 19 21 19 18 14 15 8 13 9 12 9 9 8 7 7 4 5 7 3 8 5 5 5 6 10 6 12 10 11 15 13 17 13 12 12 17 12 16 17 20 13 16 19 23 20 22 25 21 20 22 23 19 21 24 28 24 24 21 20 21 24 30 25 21 17 18 19 15 13 12 15 22 16 19 19 21 19 12 15 
21 25 23 16 21 21 10 11 13 8 6 10 8 7 9 8 6 5 4 4 7 4 3 3 3 8 8 6 10 15 13 15 19 19 14 15 16 17 15 20 19 19 16 20 19 22 28 25 23 26 24 21 21 22 25 30 27 25 24 21 24 24 24 24 24 20 24 22 14 15 20 15 19 23 19 21 19 16 13 15 
23 24 21 18 14 16 14 11 11 9 10 9 10 7 10 5 6 6 7 2 3 1 3 4 6 12 9 8 9 14 12 11 12 18 19 16 15 16 14 20 18 19 18 18 21 24 24 21 23 26 28 24 20 25 27 31 29 38 22 24 23 24 24 25 20 21 23 22 16 17 20 20 22 18 22 17 18 20 18 19 
20 21 24 17 16 15 14 14 13 10 10 12 8 7 7 10 8 9 5 4 1 2 3 2 4 8 8 9 13 13 12 15 15 19 18 17 14 14 16 19 22 19 18 19 23 24 24 23 24 21 23 24 24 25 29 29 26 29 27 29 29 24 25 22 19 24 21 34 17 21 20 21 24 25 23 23 20 24 17 22 
22 22 21 17 19 16 16 13 13 10 8 7 8 6 7 6 7 9 5 3 4 0 5 6 4 7 11 12 12 17 14 14 17 19 16 17 16 17 16 20 16 17 19 16 19 20 24 22 18 21 24 21 22 25 30 29 25 28 25 27 28 24 22 24 20 18 19 21 17 18 23 21 32 25 19 23 21 22 21 21 
22 20 20 17 17 17 16 12 11 8 10 7 10 7 11 5 3 5 5 7 3 4 5 6 4 12 8 12 11 16 15 13 17 17 17 17 16 17 19 20 20 19 14 16 22 24 25 21 20 18 21 24 23 26 27 27 24 31 26 30 23 25 22 24 22 17 16 21 17 20 22 25 24 21 21 20 18 19 17 18 
22 17 20 21 23 20 17 11 12 9 8 9 11 9 10 6 4 7 9 8 6 6 15 7 7 9 9 8 9 14 12 13 15 22 16 18 19 17 22 23 20 17 16 20 18 21 19 20 18 18 21 22 22 26 27 26 25 26 25 26 26 23 23 26 21 19 18 21 19 19 21 25 21 21 21 20 19 20 14 15 
21 23 20 22 23 19 15 12 11 8 11 8 8 9 11 11 5 9 9 6 2 8 13 11 8 11 17 10 9 17 19 14 22 17 18 17 15 18 18 24 23 21 21 16 23 17 24 22 18 19 22 23 24 23 25 26 23 23 24 27 26 23 22 23 22 19 19 19 21 24 21 19 22 20 16 14 18 15 19 15 
20 20 22 19 21 18 12 10 12 4 13 11 10 13 9 6 6 5 5 4 3 7 6 9 7 10 9 6 11 12 17 19 11 15 13 17 16 15 19 16 18 22 15 21 19 16 21 20 19 21 19 23 24 24 23 24 21 21 19 26 23 22 24 22 22 21 21 20 22 22 24 19 20 22 16 17 16 17 18 15 
18 21 21 19 18 16 14 11 13 9 5 13 17 8 9 7 8 7 6 2 5 8 7 7 7 9 9 13 19 18 15 16 20 14 19 17 16 19 20 16 19 18 18 19 18 16 17 19 20 19 25 25 23 23 25 28 25 21 24 25 25 25 26 23 22 19 21 22 18 24 23 24 20 20 17 19 17 21 18 18 
21 19 19 23 17 16 14 12 14 7 11 12 12 10 9 4 5 5 7 4 6 6 4 4 5 7 6 12 12 19 18 18 16 19 16 17 16 18 19 19 18 17 14 17 17 17 18 19 18 21 21 23 25 28 30 28 22 22 23 25 30 29 24 20 22 22 22 18 19 21 21 21 23 21 19 23 20 24 25 24 
21 24 19 16 16 14 15 19 12 10 9 12 13 11 10 8 6 8 7 2 10 6 7 5 7 11 7 10 14 13 15 14 18 17 19 16 14 15 17 16 16 18 14 19 20 17 18 23 20 24 23 23 23 24 25 26 25 22 24 23 29 23 28 24 23 21 23 23 21 23 20 22 25 28 20 18 25 23 22 23 
21 23 18 16 16 13 14 12 15 11 11 10 10 12 11 6 4 7 7 3 9 5 9 5 6 10 7 13 16 12 11 16 17 18 17 15 16 14 17 21 20 15 15 20 22 22 24 23 22 22 25 23 22 27 26 29 26 25 23 25 22 26 27 24 22 20 24 24 24 22 23 22 24 26 20 21 22 19 23 26 
19 20 22 13 19 18 13 15 13 10 9 10 10 14 11 7 7 9 8 4 4 6 7 5 8 10 12 11 12 15 15 14 13 14 19 14 17 14 13 19 18 18 18 19 22 25 27 25 20 24 25 22 22 25 25 25 23 26 26 25 26 23 25 26 25 19 23 20 19 20 23 20 26 20 22 24 21 23 20 22 
21 21 23 18 18 18 12 12 11 13 10 12 11 9 12 9 8 7 3 4 8 6 12 10 6 13 12 14 12 14 12 14 19 18 15 15 14 13 15 18 18 17 19 19 23 25 25 23 20 21 28 27 22 24 24 28 23 23 21 26 28 25 27 26 24 22 27 24 21 21 24 22 22 25 26 19 21 21 19 24 
18 22 16 16 20 16 13 14 11 12 8 9 8 12 11 8 7 6 9 5 7 9 13 10 12 13 12 13 12 16 16 14 18 14 14 17 14 14 16 21 18 16 17 20 21 21 21 21 21 20 25 23 20 26 25 28 26 20 24 26 35 23 24 26 28 25 25 23 23 25 28 22 21 27 24 23 20 21 20 23 
24 22 19 17 20 19 14 13 13 9 9 9 9 9 11 6 7 8 7 4 6 4 12 11 8 12 9 15 13 13 12 15 18 18 12 15 14 15 19 22 18 19 17 19 16 19 24 22 20 23 23 21 20 24 22 28 25 22 22 26 27 29 23 25 26 27 23 26 20 22 24 23 19 24 23 22 23 21 24 22 
27 26 21 19 19 20 14 13 17 15 8 6 8 10 9 8 8 9 5 7 4 6 14 11 11 12 11 13 14 12 13 19 15 15 15 17 18 16 20 24 21 16 19 19 19 18 23 24 21 23 24 23 22 22 25 26 24 25 24 25 29 24 27 24 25 24 29 25 23 24 23 25 24 23 19 22 20 22 19 21 
23 21 20 15 14 16 17 14 12 11 8 11 7 7 14 9 7 6 6 3 8 9 11 15 12 16 13 14 15 14 14 16 19 21 16 15 18 18 18 21 20 18 20 24 20 23 27 27 19 23 27 25 23 26 24 28 26 24 24 30 28 27 22 31 23 20 22 25 22 21 27 22 25 26 22 21 21 24 16 19 
24 27 21 16 19 12 14 15 14 9 12 8 10 11 10 9 8 7 6 7 13 21 19 16 19 21 15 20 18 16 17 20 21 16 15 17 18 19 16 19 22 23 21 21 24 23 25 25 24 25 25 24 23 25 29 29 30 19 27 25 27 27 29 29 25 23 23 27 26 22 25 23 26 24 16 20 21 23 18 21 
22 21 21 19 17 17 13 13 11 8 11 7 9 8 10 7 10 10 10 20 22 22 21 23 23 22 16 19 15 16 18 17 19 14 18 19 19 21 22 22 24 19 21 24 23 26 27 25 22 25 23 28 23 25 27 35 24 25 21 26 29 26 26 24 25 25 26 24 27 25 27 23 25 24 22 22 20 24 20 19 
20 21 20 18 20 16 13 13 12 12 12 12 8 8 10 9 11 18 21 24 23 19 19 20 18 18 16 19 15 20 18 19 19 18 17 20 18 24 23 25 25 22 27 24 24 26 29 33 22 25 26 24 26 26 31 29 30 24 28 24 29 30 25 24 26 25 26 29 24 25 26 27 24 29 25 27 22 25 23 22 
20 21 24 18 16 15 15 14 16 15 13 11 9 12 10 13 16 25 22 16 20 20 22 15 18 19 17 19 17 17 19 20 20 16 23 20 22 18 21 26 26 24 26 28 26 26 28 27 23 27 27 23 29 22 31 33 30 29 26 29 28 30 27 26 26 24 29 23 26 28 27 26 28 28 27 21 20 22 24 21 
21 23 24 19 18 16 15 13 13 14 11 13 10 11 24 16 16 21 16 16 18 14 23 19 20 21 16 14 14 15 19 19 22 18 19 21 16 17 24 28 22 25 23 25 24 26 27 33 24 26 25 26 27 25 28 34 25 25 26 29 27 27 28 28 27 24 28 27 26 27 27 24 24 27 22 27 23 27 20 19 
26 24 20 18 19 18 17 14 14 13 13 15 17 17 20 18 19 21 19 15 19 21 23 17 16 19 13 14 16 17 20 25 22 19 17 20 21 20 24 24 26 24 25 22 23 24 25 30 27 26 26 28 29 30 30 29 31 27 27 27 27 25 32 30 26 27 25 26 29 27 28 24 24 25 21 23 24 23 19 22 
22 25 22 19 20 21 16 13 15 12 18 21 23 18 22 13 17 26 24 22 19 15 15 17 11 14 14 15 14 17 19 19 18 19 21 21 21 21 22 29 25 24 21 25 27 24 29 27 22 28 29 27 31 29 33 32 28 26 27 29 28 25 27 30 29 29 22 24 25 23 26 24 24 24 27 23 23 24 20 22 
20 24 23 18 18 20 19 18 19 19 20 19 20 19 18 19 20 35 36 40 43 38 28 22 16 17 16 13 11 19 15 20 19 24 18 22 19 23 27 27 25 25 25 26 29 27 31 29 27 29 34 30 32 32 31 31 25 30 28 29 31 26 31 29 28 27 26 26 26 24 25 23 24 27 26 25 22 26 25 25 
21 27 23 18 27 20 22 28 23 23 26 21 18 16 18 19 16 19 34 54 59 61 52 41 36 26 22 18 18 21 20 20 23 20 20 21 23 21 24 23 24 23 27 26 28 25 31 30 27 33 31 32 34 32 34 33 28 30 26 29 29 28 29 29 29 27 26 27 23 30 26 25 23 28 25 26 25 29 25 28 
24 24 22 21 23 29 26 26 21 18 19 19 19 24 22 15 10 21 48 64 72 65 68 60 57 52 53 35 29 21 21 21 24 26 22 22 24 21 23 25 24 28 28 27 25 27 29 32 28 29 33 36 34 39 39 36 31 31 28 30 30 29 32 29 30 28 28 26 31 27 27 28 29 29 24 28 24 24 34 32 
21 24 23 25 31 26 18 19 21 15 19 18 19 19 18 10 12 28 47 72 72 66 68 70 68 69 67 63 56 51 37 32 27 30 25 28 25 26 21 25 25 25 30 26 28 28 34 30 30 32 33 33 32 33 37 36 32 32 29 31 34 30 33 35 30 30 26 25 27 26 27 28 29 28 26 24 27 28 29 30 
25 31 33 28 25 18 17 15 20 23 25 22 17 10 8 10 8 24 48 70 71 73 75 69 72 71 72 70 66 66 65 58 56 43 36 34 26 25 21 24 26 29 29 26 27 27 32 32 33 33 33 34 31 35 38 36 33 30 29 33 37 31 34 38 32 27 31 26 28 26 28 26 25 25 26 26 24 27 27 23 
29 31 27 21 22 19 18 21 23 21 18 17 11 10 12 6 16 27 54 73 77 71 76 73 72 76 75 68 75 73 75 75 74 74 60 57 46 37 34 30 27 30 31 30 27 32 33 40 33 35 37 36 32 34 38 37 33 34 31 33 36 31 33 36 33 30 27 27 27 29 29 27 28 29 26 27 27 33 31 30 
31 26 28 27 26 22 22 17 20 10 10 12 10 10 15 12 11 27 55 74 77 72 74 75 73 76 76 75 75 75 80 80 78 77 75 73 68 69 65 53 46 38 37 32 38 34 39 39 36 36 37 37 35 37 38 34 34 34 35 33 35 33 33 29 33 31 30 31 30 29 30 29 29 28 24 30 27 29 26 28 
25 25 21 18 26 24 20 18 15 13 10 9 10 15 16 8 15 31 62 77 79 72 75 75 73 74 73 77 77 79 82 80 78 75 81 82 78 76 72 70 68 63 58 49 43 37 40 41 36 37 38 33 31 34 36 38 32 35 31 34 36 32 34 34 32 32 33 35 34 28 33 30 33 30 35 33 29 28 26 26 
25 30 27 26 23 20 20 14 12 8 9 11 14 13 11 12 15 31 65 78 72 75 76 72 75 77 74 77 78 80 82 76 82 82 85 81 81 80 77 79 77 75 79 72 70 67 57 48 36 37 38 40 36 37 39 39 34 39 37 38 36 37 35 32 32 34 34 31 32 28 31 31 35 32 32 32 29 29 25 31 
27 28 22 20 22 19 15 16 11 11 8 9 11 13 13 12 14 36 60 78 80 77 80 74 72 78 76 79 80 84 83 80 84 84 84 83 83 83 84 83 82 83 82 81 83 82 84 78 65 59 53 43 37 42 41 44 40 37 37 38 37 35 38 35 34 33 35 34 34 28 30 35 33 34 29 27 30 28 26 32 
28 28 21 16 13 16 9 11 11 5 8 10 14 15 12 13 12 37 64 76 80 77 86 78 79 80 78 78 82 81 80 80 86 86 86 85 83 85 83 86 84 83 82 83 87 89 89 85 87 84 78 74 65 58 52 47 46 36 42 42 42 39 35 36 35 33 38 30 31 28 32 30 36 35 28 32 29 30 27 24 
21 23 16 14 17 16 14 9 14 10 12 10 10 9 16 16 12 40 70 81 81 77 80 80 77 84 79 79 78 83 83 85 86 84 86 86 83 88 88 88 88 84 83 86 86 87 86 90 88 87 88 86 82 85 84 72 64 54 42 51 43 39 40 38 37 34 35 40 34 30 30 34 33 36 33 30 31 31 27 25 
21 18 17 19 19 14 11 8 14 11 10 12 11 13 12 15 16 42 73 85 76 76 81 78 80 83 81 80 83 83 84 83 87 89 87 85 85 84 86 87 88 85 89 89 86 91 94 94 91 91 91 92 95 96 95 95 89 74 75 64 60 52 39 43 37 35 38 38 41 33 35 39 33 40 35 31 28 31 24 26 
20 20 19 21 21 17 12 12 11 9 10 8 9 8 12 12 18 40 76 83 84 77 80 79 79 78 79 80 80 84 86 83 82 87 88 86 86 82 89 87 87 89 89 89 93 91 92 98 92 93 93 94 94 96 97 99 95 98 95 94 85 78 67 62 47 37 43 44 37 40 37 41 36 33 34 33 30 34 25 29 
20 23 17 18 19 17 15 11 9 9 10 11 11 10 10 14 12 43 80 84 85 82 83 83 81 80 80 80 82 85 84 89 83 85 86 89 85 88 88 91 91 89 90 93 88 92 96 97 94 96 95 97 96 99 101 102 97 99 104 101 96 94 93 87 72 67 61 51 42 41 39 36 41 38 31 32 32 31 24 30 
22 19 18 16 24 19 15 13 10 11 11 10 13 10 12 12 16 46 77 86 81 81 82 79 80 79 81 80 84 83 83 89 86 88 89 89 86 90 90 89 90 88 90 90 92 92 95 99 98 97 101 97 100 101 100 104 107 103 100 102 99 95 95 95 91 83 84 73 67 62 54 43 47 39 37 29 35 28 28 30 
16 19 13 13 18 16 13 12 12 11 12 8 11 9 15 10 20 51 80 91 88 79 82 81 78 80 82 80 83 85 86 85 88 87 91 88 88 87 91 91 93 89 90 92 91 96 98 97 97 95 99 101 101 105 104 108 104 102 99 103 102 98 99 97 96 91 93 86 84 78 82 74 68 58 51 39 38 34 36 32 
14 15 13 13 16 14 15 10 12 11 17 14 14 15 13 13 19 54 87 90 86 82 81 81 78 82 83 80 86 85 86 90 88 90 94 91 90 89 90 89 91 93 91 95 95 95 105 102 96 98 100 101 102 101 108 109 104 106 104 101 106 101 100 97 99 94 92 92 86 87 93 86 82 77 72 65 56 49 40 37 
20 14 16 16 13 17 13 12 14 13 16 13 22 14 17 14 22 53 85 98 89 82 84 78 81 78 80 81 83 88 84 86 87 91 91 90 91 88 91 90 98 92 89 92 95 96 100 105 98 100 100 97 102 103 107 106 105 105 101 108 106 100 105 100 98 94 96 95 87 87 86 85 88 86 82 78 71 74 57 51 
15 17 11 10 16 20 14 12 18 18 16 19 22 21 20 18 27 55 89 97 97 81 84 80 77 82 81 81 84 85 89 81 89 91 92 89 93 91 94 95 92 93 93 93 94 96 105 109 103 104 103 101 102 105 107 113 105 108 104 105 109 101 104 103 100 95 95 94 90 90 90 88 87 90 84 84 81 79 82 69 
11 19 12 18 15 19 21 21 21 23 22 16 25 20 20 25 32 58 93 94 87 82 86 84 83 83 83 83 85 88 86 90 91 91 93 94 94 92 95 93 98 96 105 97 100 99 105 104 105 105 105 103 105 110 111 107 106 106 105 105 105 103 103 104 103 96 99 94 92 91 93 87 91 87 87 85 91 84 81 75 
12 13 13 23 22 19 23 19 21 16 21 18 26 23 24 26 31 68 94 93 85 82 86 83 83 81 86 82 88 88 87 89 91 92 91 93 97 92 91 94 95 93 100 100 100 106 107 109 106 103 105 105 106 107 113 113 108 110 108 106 108 98 100 100 102 94 97 95 89 89 90 90 86 83 82 87 88 86 82 69 


