P2
80 60
106
76 74 81 81 85 86 87 85 86 88 87 84 84 87 86 86 88 92 93 90 91 89 89 87 91 92 85 84 85 88 86 89 91 89 92 89 87 92 90 90 92 89 87 89 88 90 86 87 90 89 90 90 93 96 93 89 91 87 87 86 84 83 88 87 84 85 79 75 78 80 77 82 81 80 80 74 72 75 77 76 
73 74 83 83 80 81 84 89 82 86 87 83 86 90 87 87 91 92 90 91 90 86 86 83 89 87 87 81 86 84 89 90 89 89 90 88 90 89 90 92 90 85 87 90 88 93 87 88 91 87 92 91 88 91 95 93 93 89 87 87 85 83 84 87 82 81 77 78 76 83 77 80 77 76 79 79 72 74 76 73 
70 74 79 78 79 83 85 88 92 85 87 85 83 85 85 83 88 89 88 90 93 87 86 85 85 86 86 85 85 88 85 92 87 89 94 90 85 88 86 91 90 87 86 88 90 91 88 89 91 93 92 89 90 91 90 87 90 87 87 90 87 87 79 83 84 77 79 78 79 78 80 78 77 79 80 78 72 76 80 77 
71 73 81 79 85 86 85 87 87 89 88 84 85 86 84 86 88 90 93 95 89 88 88 87 95 89 85 85 88 85 86 91 87 93 90 90 87 99 93 93 92 85 88 92 87 93 90 93 96 94 91 96 90 91 89 87 91 86 87 88 88 85 84 82 81 80 82 78 81 84 82 87 79 78 80 75 75 76 77 78 
68 76 83 83 80 88 89 91 89 87 86 84 86 84 88 88 87 91 90 95 87 90 90 92 94 90 87 85 87 88 85 90 88 87 91 91 89 95 94 92 93 86 90 90 92 92 91 93 94 93 93 93 96 94 89 89 90 86 91 87 90 84 83 84 83 81 80 78 79 82 87 87 83 79 81 78 77 74 80 80 
70 75 79 82 82 85 87 88 89 85 85 82 80 81 87 87 88 89 89 94 89 92 90 90 91 91 84 85 85 86 83 84 88 90 89 87 88 94 88 90 90 87 91 90 86 88 92 92 93 90 92 95 91 91 88 89 90 87 90 89 86 84 82 84 85 80 79 78 83 81 82 82 80 76 82 75 75 79 76 71 
73 76 80 79 83 86 84 84 87 87 88 88 84 84 82 85 95 92 91 91 89 90 86 88 88 90 86 85 88 88 83 87 86 88 92 91 92 93 91 88 90 88 88 87 87 93 90 91 91 91 89 96 92 92 89 90 91 92 93 89 87 86 84 86 85 80 81 81 83 84 79 81 81 76 80 76 68 76 83 75 
74 75 82 81 81 90 87 87 86 84 85 81 85 82 84 89 90 92 92 90 93 86 86 84 87 91 84 83 86 88 84 86 84 86 92 90 87 93 92 86 88 85 86 90 89 89 88 89 90 91 91 93 92 89 87 90 91 88 89 86 88 87 84 84 85 82 82 81 82 83 78 79 78 77 75 74 71 74 80 80 
72 76 80 83 84 88 89 82 84 85 92 84 85 85 82 84 89 91 88 92 89 89 85 85 87 89 81 84 88 88 89 85 85 87 88 87 86 91 91 83 85 85 88 89 87 89 86 88 89 90 90 94 92 89 87 90 89 85 86 87 84 83 85 84 84 82 83 83 82 84 80 83 80 75 79 72 71 73 78 75 
74 78 84 82 83 87 83 81 83 87 85 84 81 82 81 84 94 88 93 89 91 89 83 83 88 87 81 83 85 85 85 86 85 83 86 89 85 88 90 85 86 82 85 85 90 89 88 86 88 89 89 91 89 89 87 90 93 80 87 86 82 86 84 82 80 81 80 83 84 79 83 84 78 79 78 76 71 74 77 71 
72 78 77 82 85 85 87 81 84 83 87 85 80 79 80 85 86 85 89 83 84 86 87 80 86 87 82 84 86 88 84 88 87 84 89 82 87 92 86 86 85 85 86 85 86 89 87 86 92 90 92 90 88 87 85 89 90 87 87 85 84 80 82 84 81 80 83 82 80 79 83 79 79 76 76 78 74 74 76 77 
69 74 81 82 81 82 78 84 81 81 87 76 78 76 79 79 85 81 81 84 83 83 83 83 80 86 83 85 84 86 86 86 84 87 87 81 81 85 87 88 84 84 83 87 85 88 85 87 91 89 86 88 87 84 89 85 86 87 85 84 83 82 80 84 82 80 81 81 79 75 75 78 77 76 78 81 74 72 74 73 
72 72 80 86 83 86 80 78 81 81 81 81 79 77 74 79 79 81 81 84 78 84 79 85 78 83 81 83 83 86 81 83 86 83 85 79 83 89 89 85 83 82 84 85 89 88 89 87 89 92 89 87 84 84 86 91 89 84 84 85 84 82 83 82 81 80 80 78 78 78 67 77 76 76 79 80 75 75 73 77 
70 76 75 77 85 82 78 78 75 80 77 76 74 76 76 82 83 81 84 85 82 80 79 78 82 80 80 80 80 83 82 83 85 85 85 78 84 88 85 86 86 81 82 85 87 90 88 87 90 96 91 90 86 85 87 91 91 90 90 85 86 83 84 83 82 80 80 82 77 75 78 76 80 78 78 77 73 71 73 72 
72 72 77 79 81 80 76 79 76 81 81 76 75 75 76 79 78 83 82 82 80 79 81 79 80 79 80 79 82 82 82 81 85 85 84 81 82 85 85 87 84 85 83 84 85 88 86 86 90 92 87 87 86 87 86 90 90 106 89 86 82 84 83 82 79 81 78 78 78 76 75 79 82 78 78 78 72 77 76 76 
66 71 76 80 76 80 77 74 80 78 78 77 76 75 75 83 77 79 81 81 79 83 78 75 80 80 80 79 83 85 83 80 84 83 86 80 79 84 89 90 86 84 83 84 86 86 84 85 89 86 86 88 85 85 87 87 87 90 89 87 84 84 82 81 80 84 81 79 80 79 79 81 84 80 79 74 76 79 78 76 
68 69 76 74 76 77 78 76 75 77 78 73 73 72 74 78 78 81 78 82 78 77 76 77 78 79 78 79 81 84 79 81 81 85 82 77 81 82 87 87 84 82 83 82 86 91 85 82 83 84 85 87 86 87 87 87 89 89 89 85 86 84 79 81 79 80 82 78 77 79 77 82 90 79 80 76 74 79 77 78 
72 71 75 78 76 82 75 75 76 72 75 75 75 70 72 74 78 78 79 80 76 76 81 77 73 78 76 81 81 83 82 82 83 81 81 80 80 82 84 90 85 82 80 81 86 85 83 82 83 83 83 86 82 88 88 84 89 90 87 81 83 81 80 80 80 78 78 79 79 80 78 85 83 81 77 74 75 74 77 70 
71 71 71 77 75 77 76 75 70 73 73 76 73 70 71 77 78 79 82 82 78 80 80 77 78 76 81 82 84 81 80 85 83 83 83 82 82 81 85 87 87 84 81 83 84 82 84 84 87 85 84 85 88 90 89 87 90 87 85 86 84 82 79 84 81 78 82 82 80 81 80 84 77 77 76 74 71 74 80 74 
69 71 72 77 73 77 72 69 73 71 75 71 72 71 72 77 77 79 79 79 79 85 81 80 84 81 79 82 84 84 84 86 86 85 83 79 80 84 85 85 85 83 83 81 81 84 81 83 84 86 87 86 88 91 88 86 86 84 85 86 82 81 81 79 77 78 76 80 79 82 82 84 77 75 73 73 69 72 79 76 
66 63 72 75 73 73 73 73 72 70 76 76 74 74 71 73 74 79 79 80 79 80 79 80 80 76 74 80 83 86 90 80 86 82 83 78 79 81 82 82 86 82 82 82 83 80 77 83 85 88 86 85 88 87 85 85 85 83 83 86 82 79 79 79 80 77 79 79 82 81 85 79 77 74 77 74 70 72 76 74 
65 64 71 71 72 71 75 73 71 72 76 74 79 75 69 74 77 79 79 75 77 79 81 75 75 74 74 81 80 81 79 83 83 80 81 79 78 83 80 83 82 84 85 82 80 81 79 84 86 85 87 85 89 89 86 85 83 81 84 82 84 81 83 82 79 80 78 76 82 85 81 84 79 75 76 72 73 71 79 73 
57 61 66 76 69 69 68 69 74 68 68 77 69 70 69 70 74 77 77 80 79 79 79 79 76 77 72 78 80 80 77 80 81 81 79 78 76 81 79 80 82 80 80 81 83 82 81 83 82 84 87 86 85 84 81 81 82 79 82 84 87 82 85 82 79 83 84 79 79 81 80 79 81 79 78 71 71 77 79 80 
60 61 69 69 69 72 67 76 68 68 73 71 71 67 70 73 73 82 78 79 74 77 83 76 78 75 73 82 77 78 77 81 78 77 75 75 77 79 80 79 79 79 78 80 80 80 80 83 84 88 87 85 85 83 82 84 85 80 82 86 83 82 82 82 80 81 82 80 82 82 80 80 81 76 76 73 71 73 77 76 
56 63 68 66 68 66 66 69 73 68 71 72 71 71 71 74 77 77 78 78 75 78 77 77 75 75 74 80 82 81 75 78 78 73 80 74 74 76 77 80 78 77 75 79 79 80 80 78 86 88 85 84 82 80 84 82 83 80 83 82 83 85 85 81 85 83 80 80 81 82 83 81 79 81 77 73 71 73 77 83 
48 57 63 67 66 68 65 65 65 70 68 69 66 66 70 74 70 76 74 79 74 76 74 76 76 72 73 77 83 81 78 78 75 77 75 73 77 75 78 77 78 77 74 77 78 79 79 83 80 81 82 80 80 82 81 80 81 79 84 85 86 85 85 85 82 86 79 81 81 83 82 81 79 76 76 70 74 78 80 74 
48 55 63 66 69 67 68 66 63 65 65 70 66 64 68 72 74 77 75 74 73 77 79 77 76 71 71 75 80 82 77 77 76 74 74 70 73 75 76 73 78 79 79 78 79 78 81 82 82 83 82 83 82 81 81 80 79 80 84 86 88 79 82 83 82 83 84 80 83 85 83 79 80 80 78 75 74 78 84 79 
45 58 61 68 69 70 66 68 64 65 64 64 66 66 65 67 74 75 76 76 74 79 76 74 76 72 74 80 81 82 75 76 72 73 71 69 73 74 76 78 74 75 80 78 77 78 78 78 78 83 79 83 81 81 76 76 80 77 81 84 82 83 83 80 81 81 81 84 88 87 81 82 81 79 79 80 75 78 87 80 
41 55 63 64 66 68 66 64 63 57 56 62 60 64 64 68 72 73 75 74 75 74 75 75 74 70 71 75 77 73 73 75 74 68 71 69 72 74 74 80 76 74 78 80 77 75 81 78 81 80 79 80 80 82 76 78 81 78 82 80 80 84 82 82 80 81 83 82 82 83 82 79 80 79 82 75 73 75 76 81 
33 53 67 70 69 68 68 67 68 62 54 59 61 65 64 67 68 71 74 75 74 71 71 71 71 70 72 76 77 76 76 78 71 71 70 70 69 77 74 75 74 75 78 78 80 76 78 81 82 78 79 77 78 80 77 78 80 80 81 82 84 80 79 81 81 83 88 81 80 83 79 77 81 79 81 78 74 79 82 81 
21 57 60 66 68 71 64 65 62 57 52 58 54 60 62 69 72 69 70 70 70 72 74 72 77 69 74 75 76 80 76 78 74 71 71 65 67 71 74 75 72 76 81 79 74 77 74 79 78 78 77 78 79 85 76 76 82 78 77 80 82 80 81 82 80 79 80 82 80 81 79 82 80 80 77 77 71 76 78 81 
2 58 68 67 71 68 60 57 63 60 53 55 57 60 58 65 73 69 69 70 69 72 72 72 73 69 74 74 77 75 71 73 73 70 69 67 70 72 71 71 78 78 75 77 76 76 77 79 80 83 78 77 81 82 81 78 80 81 80 82 81 81 80 81 79 78 80 83 82 84 78 79 80 77 79 75 70 75 80 81 
0 48 67 69 71 72 64 58 53 56 55 55 57 61 57 62 67 69 69 69 69 73 69 70 74 70 70 75 74 76 71 73 73 69 75 67 67 72 73 72 75 73 77 74 75 76 74 74 81 80 75 79 79 80 80 81 83 81 79 79 79 80 81 78 82 79 80 81 84 83 78 82 79 76 75 74 71 74 82 75 
15 55 64 69 72 70 62 55 54 56 53 58 55 56 56 60 66 68 64 71 70 67 67 67 65 71 71 75 76 76 70 71 71 68 66 65 68 71 73 75 72 72 73 73 73 76 74 75 74 79 76 79 80 80 74 79 82 80 79 77 80 81 79 81 82 80 81 76 80 79 77 79 79 76 78 75 73 74 76 76 
42 65 71 72 72 72 65 62 57 58 52 59 56 59 59 61 64 67 62 68 68 70 68 65 65 66 69 72 72 74 70 72 69 66 68 65 64 67 69 72 74 74 72 72 72 76 73 75 78 79 75 76 80 80 75 76 79 81 80 81 82 80 82 80 80 79 82 78 80 82 79 77 80 77 75 75 71 74 79 77 
63 71 72 71 74 75 70 66 63 57 56 58 55 58 55 56 58 64 62 65 67 66 62 64 65 63 68 74 71 76 67 66 67 69 69 66 67 68 69 73 72 71 72 73 73 73 73 77 77 79 78 81 81 77 77 82 81 79 81 80 79 83 82 82 81 80 82 83 80 79 77 76 79 75 76 74 71 76 79 77 
67 72 70 70 74 75 70 66 65 64 56 60 59 55 52 61 62 68 66 67 66 65 64 62 64 61 69 71 72 72 67 65 66 69 69 64 67 69 69 68 77 72 70 70 73 73 71 77 74 76 80 79 82 77 75 77 84 77 81 80 79 78 77 82 79 78 82 79 82 80 77 78 76 78 77 71 73 77 83 79 
67 75 71 69 76 74 72 71 66 67 65 66 64 58 55 56 58 68 63 69 68 66 70 66 65 61 67 73 69 74 65 68 67 66 71 66 67 70 69 74 75 66 72 74 73 75 73 74 75 78 76 80 80 79 76 80 83 82 79 76 79 77 78 76 79 83 79 78 77 82 77 78 76 72 76 77 75 80 84 83 
67 71 78 72 73 74 71 69 67 70 69 70 66 61 54 63 64 66 67 72 68 68 68 68 67 60 68 69 70 71 64 68 68 68 70 67 65 66 73 73 71 66 73 71 74 74 73 75 74 78 76 79 80 78 78 79 83 80 76 80 79 76 77 78 81 80 79 76 75 76 78 77 75 77 79 76 75 74 88 80 
69 68 74 71 72 70 69 70 70 68 76 68 63 66 60 60 61 64 67 69 69 69 71 70 72 62 73 72 67 69 65 67 69 66 66 65 65 68 70 65 68 66 69 70 70 74 77 72 75 79 75 80 79 76 76 79 80 79 80 79 76 76 79 75 76 78 77 75 77 77 76 77 74 76 75 77 75 80 80 82 
61 71 70 72 68 68 67 72 71 69 68 65 66 69 62 65 69 68 71 70 70 68 68 67 75 64 71 69 66 71 65 68 68 70 67 62 63 69 67 67 70 68 68 69 72 74 71 71 74 79 79 82 80 80 80 80 81 78 78 78 78 79 77 74 79 78 76 72 75 75 72 73 71 73 76 76 75 76 85 82 
55 67 71 72 72 69 69 72 74 73 66 66 65 68 68 70 69 68 69 70 68 70 71 69 74 67 64 72 64 69 60 65 65 68 67 63 67 69 64 69 66 69 71 71 73 73 73 76 74 79 78 80 82 76 79 81 83 77 76 77 78 77 77 77 76 73 76 73 75 75 78 72 78 74 75 75 68 76 79 84 
57 62 75 63 66 68 67 68 71 69 68 67 66 70 66 69 69 69 72 72 70 72 70 72 75 65 64 71 64 68 64 65 64 66 66 65 63 67 68 68 65 66 68 71 73 73 75 74 77 77 78 78 78 73 78 80 82 76 74 79 79 78 79 80 79 76 78 72 74 75 75 78 74 72 75 74 70 81 80 74 
56 62 71 68 65 70 69 64 68 68 67 68 65 71 71 66 66 70 71 74 73 71 72 72 71 62 61 68 69 72 62 63 65 64 65 65 64 65 67 67 71 65 68 67 71 75 75 82 73 79 74 78 77 72 78 78 81 79 76 79 81 79 78 78 83 75 72 75 74 76 76 78 74 73 74 73 71 75 81 75 
60 60 61 67 66 70 67 68 66 70 70 64 70 69 66 66 71 69 71 72 74 71 75 71 73 66 61 68 67 69 61 63 60 66 66 61 66 70 66 69 67 68 66 69 74 74 73 78 77 76 79 76 74 71 79 79 81 82 80 79 81 79 78 80 80 77 76 75 75 74 78 76 76 75 76 75 74 77 81 76 
62 55 62 63 68 67 66 66 69 69 67 66 65 73 71 68 73 72 72 72 68 72 73 71 73 59 61 67 65 67 63 60 61 63 64 62 65 67 65 67 66 65 67 68 73 75 75 73 72 74 79 77 81 74 77 77 77 76 78 78 79 78 78 85 76 79 79 77 78 79 74 78 80 76 78 74 72 76 81 79 
58 53 59 62 64 65 65 68 68 65 67 67 70 70 69 71 71 71 68 71 70 74 73 72 76 62 64 65 65 64 57 60 61 62 62 61 63 66 64 68 65 63 64 66 70 70 74 73 76 80 80 81 80 77 78 80 80 77 78 77 77 76 78 77 77 76 77 75 78 75 72 79 78 78 76 72 71 78 82 70 
61 56 59 62 64 65 68 68 67 69 66 65 67 70 65 67 66 72 72 70 69 71 74 76 72 64 61 65 66 67 54 61 59 57 58 59 61 68 66 67 65 69 68 71 72 70 78 78 78 79 80 81 81 79 80 81 80 79 76 75 78 76 77 75 74 75 78 74 75 77 77 77 76 75 78 70 70 75 80 75 
60 54 56 61 65 66 65 67 69 64 67 64 66 69 67 69 69 74 70 70 68 72 77 75 75 64 61 67 66 66 59 61 62 57 61 60 60 69 68 71 66 69 68 70 69 72 74 79 76 78 82 84 82 83 81 83 84 79 77 78 78 79 76 76 76 76 74 72 79 79 75 75 78 74 79 73 68 70 76 71 
58 60 60 63 69 69 67 67 71 70 65 67 67 66 69 71 70 74 68 70 69 71 75 72 71 67 59 63 68 67 65 63 64 65 65 60 62 72 69 70 69 69 68 77 78 80 78 83 83 80 88 82 84 88 84 81 83 80 80 80 82 78 78 79 73 74 76 76 80 80 73 79 78 78 76 73 70 69 76 75 
58 61 61 67 70 65 71 64 68 64 67 64 68 70 71 69 71 70 74 77 70 72 72 71 71 67 59 65 66 71 62 64 61 65 62 58 64 64 73 70 71 72 79 81 84 83 80 81 82 83 82 83 83 84 83 80 83 86 78 81 82 76 76 74 74 74 81 71 74 75 78 77 74 75 76 73 70 73 77 78 
58 58 65 61 66 71 66 66 70 68 64 64 65 70 72 71 69 70 72 69 74 69 68 71 70 64 63 67 64 66 61 65 66 68 71 61 67 69 71 77 75 80 80 82 85 81 81 82 83 83 87 81 85 87 80 83 90 82 82 83 80 78 77 76 74 74 79 75 75 77 77 73 77 73 73 77 70 67 74 74 
60 58 65 65 70 71 70 67 69 69 70 72 66 67 67 72 68 68 66 68 69 72 70 67 69 63 62 64 64 65 65 66 66 65 70 70 68 77 78 81 79 81 79 81 80 80 82 82 83 86 88 84 86 89 84 88 85 82 89 80 79 79 77 77 77 75 76 72 74 76 75 76 71 72 72 74 69 73 73 73 
58 61 58 63 75 66 66 66 69 66 67 67 68 68 66 65 65 59 61 65 64 68 64 65 66 64 61 66 65 66 63 66 65 68 72 70 77 78 77 78 79 79 79 80 80 80 83 81 84 85 83 84 84 85 82 85 86 81 81 83 77 77 79 77 74 76 77 73 75 75 77 76 74 73 72 71 69 72 77 72 
56 58 61 62 67 68 65 67 65 67 66 63 64 67 62 62 61 55 61 62 60 61 64 61 64 62 64 63 66 66 62 66 67 71 74 76 73 81 76 77 78 78 78 80 82 81 79 84 82 82 82 85 84 87 81 85 86 81 81 77 79 77 77 77 74 76 79 78 74 74 79 79 73 71 71 70 66 72 76 67 
59 58 60 62 64 67 62 64 61 68 63 63 63 68 65 64 60 62 68 63 63 63 64 63 61 62 64 64 65 65 64 64 67 69 75 76 79 81 75 75 80 78 80 81 82 81 80 84 82 84 84 85 84 86 82 82 85 80 81 79 80 76 78 75 79 77 80 75 75 78 77 83 75 69 75 72 69 72 81 73 
61 61 61 63 63 63 61 61 60 62 61 62 69 63 65 62 64 62 64 68 63 64 64 62 61 62 59 63 64 63 63 65 68 70 75 74 71 79 76 72 75 77 79 80 82 81 83 82 87 81 84 84 86 85 80 86 82 81 79 79 83 78 79 78 78 78 80 74 79 77 76 76 78 72 73 71 67 71 70 73 
62 59 62 62 60 61 62 61 64 64 64 63 65 65 61 63 61 61 64 63 64 64 64 61 61 58 58 60 63 65 63 66 69 71 76 73 74 77 78 74 74 74 80 79 83 81 81 87 84 82 83 83 84 79 78 83 86 79 80 80 80 80 77 80 78 77 77 76 75 75 78 74 75 74 72 71 67 73 71 74 
62 59 60 60 65 56 66 66 62 65 65 62 61 66 65 62 60 63 65 63 63 65 60 63 61 62 58 56 66 64 61 64 66 68 70 70 77 79 78 77 74 76 80 80 82 82 85 83 85 86 84 85 84 85 82 85 83 79 80 81 77 78 77 77 78 77 78 72 76 78 77 72 77 74 74 76 68 71 73 70 
66 56 63 62 59 59 61 66 65 65 65 63 63 69 62 61 62 63 65 64 58 61 63 62 62 60 60 57 64 67 60 63 65 69 71 73 76 78 77 74 74 76 77 79 79 82 81 82 85 83 84 87 81 83 84 80 82 79 83 81 79 79 78 77 80 71 73 73 73 73 75 73 72 71 72 72 71 69 74 69 


