P2
80 60
184
21 27 20 17 19 20 16 17 21 23 22 18 20 19 18 17 15 21 15 18 20 15 14 12 14 12 12 12 10 12 10 13 12 11 10 11 16 16 15 17 14 20 20 19 19 22 20 19 24 24 23 22 25 24 27 24 31 29 29 23 24 24 25 27 22 23 21 21 18 21 19 21 21 22 30 27 28 18 17 23 
23 22 22 18 21 19 21 16 19 20 21 18 20 18 18 19 19 20 16 17 19 14 17 14 12 14 13 12 8 13 10 10 10 13 13 9 16 15 14 17 17 17 19 20 22 28 24 25 23 24 27 25 25 25 27 24 28 28 26 26 23 23 26 23 24 21 19 21 19 13 21 20 19 20 26 26 24 23 16 20 
17 27 19 19 19 18 23 20 19 23 24 19 18 19 19 18 18 18 17 18 15 15 14 15 15 13 14 14 10 11 12 12 11 9 13 12 16 19 20 15 20 22 18 19 19 23 22 23 22 27 28 23 25 22 26 23 24 30 24 25 22 23 24 24 23 19 21 20 16 19 23 23 20 22 23 22 22 22 19 21 
21 25 19 18 21 21 20 14 20 19 25 21 17 17 21 15 19 19 19 18 18 16 15 14 12 16 14 16 12 16 9 12 11 12 10 11 16 19 16 21 19 21 19 18 21 20 23 24 26 24 25 22 25 24 24 21 23 20 23 26 28 25 24 24 25 22 18 19 20 19 22 23 20 20 22 23 18 24 18 24 
22 26 19 21 21 20 18 19 21 22 20 22 20 19 19 24 18 18 18 21 17 16 17 17 15 14 16 14 10 11 7 10 11 11 7 12 17 14 21 19 18 19 24 19 22 22 27 24 22 25 24 24 24 25 25 23 25 27 23 22 23 24 23 27 24 20 20 25 23 19 23 24 22 21 28 24 21 21 18 21 
24 24 20 22 22 19 23 17 21 21 19 19 21 19 22 20 17 17 20 24 16 17 18 18 15 17 16 14 11 11 7 6 11 7 12 12 17 20 19 18 18 23 24 18 21 22 23 21 23 23 27 26 28 24 26 24 24 28 23 28 27 25 20 25 25 17 21 25 26 23 24 25 19 19 22 24 24 23 16 20 
22 26 21 20 19 21 22 18 22 23 23 19 23 19 20 16 20 23 18 21 19 14 18 15 17 14 14 15 13 10 8 8 9 10 11 13 15 19 17 16 17 22 20 22 22 23 22 22 21 24 25 29 27 24 26 24 25 31 34 27 25 25 24 21 26 23 24 23 22 21 23 24 17 21 19 23 23 19 14 16 
23 27 19 19 24 22 23 18 17 20 22 20 21 22 15 20 20 21 20 18 21 17 17 17 17 17 14 18 17 13 7 5 8 10 14 16 19 19 17 21 21 21 18 22 22 21 24 17 22 23 26 25 28 25 25 28 28 28 26 28 24 25 25 26 23 23 22 21 24 21 24 20 22 21 22 23 23 18 17 19 
26 31 24 21 24 23 23 19 18 22 18 19 20 22 16 17 19 21 19 20 19 20 19 21 19 17 14 13 13 11 9 5 8 11 12 13 18 17 18 18 15 17 17 18 22 24 24 24 20 24 22 27 23 24 25 24 26 30 26 27 25 24 25 23 25 23 21 25 20 19 19 23 22 21 18 21 19 20 20 22 
22 25 23 25 27 24 21 22 21 20 23 20 21 18 17 19 24 20 18 18 16 21 17 18 20 19 17 15 12 11 8 9 9 11 15 13 19 17 17 16 17 21 18 19 21 23 22 20 22 25 24 24 24 26 27 23 26 27 27 25 26 25 24 25 22 24 23 20 21 23 20 24 17 21 20 22 21 19 20 24 
21 30 29 25 23 26 28 22 21 21 26 23 20 20 20 17 20 20 17 18 17 15 19 15 15 17 14 14 12 16 8 7 8 9 12 8 13 16 18 18 16 18 19 19 21 22 21 21 21 23 25 26 25 26 24 24 25 27 23 21 23 26 21 23 26 24 22 24 21 20 20 21 16 17 23 25 20 21 21 20 
25 29 24 22 21 23 25 19 20 20 19 23 22 19 18 16 14 16 18 17 17 15 16 17 15 13 13 13 7 12 10 6 11 10 9 3 15 17 17 21 22 20 18 19 21 22 23 22 23 21 24 23 22 22 24 23 25 25 26 23 25 23 23 23 21 21 20 21 21 19 19 19 20 21 19 26 22 21 14 19 
27 30 26 27 24 24 23 22 21 21 18 22 18 19 17 17 17 12 16 17 16 16 17 15 14 10 9 14 11 10 6 5 12 12 12 5 15 17 18 19 18 20 17 18 25 23 24 22 21 23 25 23 23 21 25 23 26 26 24 24 24 22 27 23 23 24 21 22 19 17 9 20 16 19 21 25 24 18 20 18 
25 31 24 22 25 21 20 17 19 18 16 17 20 17 15 15 15 12 13 18 16 18 14 16 13 9 10 13 12 9 11 10 9 12 9 11 14 17 16 16 14 19 16 18 23 29 21 22 20 24 25 26 20 24 25 23 27 29 22 22 24 23 27 23 22 19 23 26 19 19 18 19 19 22 19 22 23 20 12 15 
23 34 29 22 24 21 22 20 18 16 16 16 18 17 16 15 13 15 14 17 17 14 13 15 12 8 9 13 10 8 9 5 10 7 8 9 14 17 16 17 15 17 15 15 22 21 21 20 22 27 23 25 21 23 26 22 25 35 26 25 24 22 21 23 23 22 22 22 21 21 21 22 18 16 19 22 22 19 17 15 
25 29 29 22 21 21 20 20 22 17 14 17 18 16 18 18 13 15 14 16 16 14 13 14 12 13 10 13 7 9 10 7 10 9 7 8 12 15 12 18 17 18 14 15 21 24 21 20 20 25 24 23 23 23 24 22 25 30 26 25 25 23 26 24 25 22 22 22 20 21 20 23 22 21 21 20 21 21 15 18 
27 35 27 23 26 22 20 19 20 18 17 19 18 16 18 17 19 15 15 15 15 15 12 12 13 15 12 13 6 12 8 8 9 10 6 9 16 16 16 20 17 16 18 15 21 20 20 19 19 22 25 24 24 26 26 20 24 29 28 27 25 24 23 20 23 23 21 25 24 22 24 20 25 19 22 24 27 20 21 22 
25 32 26 23 24 23 21 23 22 19 19 20 21 18 19 16 15 13 14 18 14 17 14 14 14 11 11 15 10 7 9 8 9 8 12 8 14 20 16 19 17 18 18 18 22 22 19 20 21 21 23 24 24 25 29 23 27 36 26 27 24 24 21 25 24 23 22 24 21 22 22 24 19 23 19 21 23 22 21 23 
24 32 29 22 25 21 24 20 17 21 17 19 18 17 16 14 16 18 18 17 13 16 14 15 14 13 15 16 9 6 9 8 9 12 11 13 11 16 17 18 20 21 19 22 22 22 21 18 21 18 24 23 29 22 26 25 25 29 28 24 25 23 23 20 24 23 23 26 20 16 23 24 20 20 18 22 24 22 20 21 
27 29 29 25 25 25 23 20 14 16 20 19 18 14 16 18 17 20 15 19 16 17 18 16 14 15 12 13 10 9 11 11 10 9 14 11 15 19 17 18 21 20 19 20 23 19 19 20 21 20 24 24 26 26 26 23 25 25 23 25 25 23 23 27 24 25 22 25 18 18 22 23 21 23 21 20 22 20 21 17 
23 29 25 22 26 24 22 17 19 19 18 19 21 19 13 14 18 16 17 17 16 15 19 16 17 14 10 14 12 11 19 12 11 5 10 13 17 18 19 20 19 23 18 17 18 19 21 20 24 23 26 24 25 23 27 26 27 26 25 25 21 25 25 23 23 23 23 25 23 19 22 23 19 21 21 23 25 21 25 23 
27 31 25 26 26 22 23 20 22 17 17 17 25 19 20 18 14 18 17 18 17 16 18 17 15 12 14 13 12 11 11 12 8 8 9 12 17 18 19 19 16 20 17 16 19 17 19 22 20 22 25 24 26 24 23 22 25 27 28 26 26 24 25 26 25 21 24 25 23 25 25 26 24 22 21 20 22 21 22 27 
24 28 27 23 26 23 22 23 24 21 17 21 22 20 18 16 17 17 17 21 16 16 16 13 16 13 13 14 10 9 8 9 7 5 12 11 16 17 17 20 17 18 17 17 14 20 19 21 19 25 24 25 25 26 25 23 25 28 26 25 25 25 22 23 23 27 25 27 24 25 25 25 22 22 23 19 21 21 24 20 
21 27 25 28 23 21 26 26 19 21 20 21 19 16 20 21 18 17 17 19 15 17 14 16 13 13 13 12 9 10 8 9 8 8 9 12 13 17 16 17 19 20 21 18 24 20 24 23 21 23 25 26 26 25 23 21 28 26 25 24 25 25 21 25 26 23 24 24 25 25 23 26 23 22 23 21 23 21 21 18 
23 25 23 19 24 23 23 20 23 19 22 19 19 20 19 16 17 19 17 17 16 19 15 17 14 11 10 9 7 8 6 6 6 3 10 11 14 17 14 18 16 18 19 20 24 24 23 21 18 24 26 24 23 24 24 23 24 26 24 25 26 21 21 24 25 21 23 23 21 22 21 25 24 22 19 23 20 20 18 23 
23 29 27 20 24 20 23 23 21 21 18 22 20 19 23 20 18 24 19 17 21 16 19 15 15 13 13 14 10 7 6 3 7 7 9 9 15 14 16 19 19 15 18 20 21 24 21 24 20 21 23 23 24 26 25 24 21 27 30 26 24 23 23 24 27 24 24 27 24 19 24 24 23 22 26 21 22 21 22 26 
21 28 25 22 23 24 22 22 18 20 21 22 19 17 19 16 19 21 16 18 14 17 22 16 17 12 13 15 10 10 4 5 5 5 8 10 13 15 15 15 17 23 18 20 22 24 23 22 22 21 22 23 24 22 26 23 26 26 24 24 26 27 25 22 25 24 24 23 20 19 24 23 25 23 25 24 24 25 22 21 
21 32 26 24 24 22 21 18 18 17 21 21 21 19 17 17 15 20 17 16 16 16 15 14 17 13 14 14 9 12 7 6 5 3 5 3 13 15 16 16 17 20 21 18 21 23 22 23 24 24 23 25 24 21 25 21 23 27 22 26 25 25 25 24 26 23 23 19 20 22 23 26 22 23 20 21 24 22 23 24 
22 31 25 27 23 25 21 17 18 19 21 20 21 21 19 13 17 17 16 19 15 15 14 17 15 17 12 14 10 7 9 4 1 0 9 8 18 16 15 19 16 19 20 21 21 21 23 22 23 25 24 26 23 25 26 23 24 29 27 25 26 23 22 27 25 25 23 24 20 21 26 22 23 22 23 24 22 22 22 19 
24 27 30 20 22 23 20 20 24 19 17 20 22 20 18 16 19 20 14 17 17 15 16 15 18 13 10 12 8 10 9 10 7 7 9 11 15 19 17 17 19 20 21 21 22 23 22 22 21 22 24 25 23 22 27 25 24 31 26 24 28 24 25 26 27 26 32 27 22 24 25 24 21 22 22 23 24 21 22 20 
21 30 28 23 26 24 21 20 21 20 20 21 20 22 19 17 19 18 13 15 14 16 15 18 17 16 13 12 6 6 10 8 6 12 13 11 19 17 17 20 19 19 22 27 26 26 21 26 25 25 24 28 25 24 27 25 25 27 25 23 26 25 24 27 29 24 24 27 23 24 25 28 24 26 22 23 24 22 19 25 
21 31 28 24 23 19 25 25 24 22 21 21 21 20 21 18 20 17 16 15 19 18 18 20 18 15 13 13 9 10 11 10 12 16 14 18 17 18 20 20 22 22 22 27 25 24 22 25 26 28 25 26 26 26 26 26 27 28 26 26 26 28 27 26 28 23 28 29 22 25 25 23 24 23 24 23 25 23 19 27 
23 26 25 23 24 19 24 23 25 21 19 24 22 22 19 16 17 15 15 14 18 16 16 19 18 14 13 13 8 12 13 16 18 15 11 17 18 19 20 22 23 25 25 24 27 26 24 23 25 27 28 27 29 27 26 23 25 28 26 27 24 26 26 29 28 26 28 27 26 26 24 25 24 25 24 23 23 22 21 20 
23 29 24 24 25 24 21 24 25 21 22 21 20 20 17 16 20 18 18 16 18 13 16 20 14 15 21 19 17 24 19 15 22 20 17 15 15 16 21 21 20 24 26 25 28 27 27 27 25 26 26 32 28 31 26 28 25 31 27 25 28 27 26 26 27 26 31 28 25 25 25 29 24 22 26 26 24 24 20 22 
20 27 21 21 27 23 24 22 19 20 20 26 20 22 19 20 21 18 16 19 16 18 16 18 20 17 23 20 20 17 24 22 22 22 22 13 19 18 22 23 22 26 27 27 26 33 27 28 27 27 27 33 32 30 28 27 29 31 30 24 29 27 24 28 30 28 27 28 25 27 26 26 27 24 24 25 27 26 22 23 
22 26 19 21 20 24 21 20 20 20 22 23 23 20 22 22 24 19 19 18 18 14 17 20 22 20 16 19 22 28 39 50 46 38 32 17 24 22 19 23 23 23 25 30 27 33 29 33 31 28 30 30 30 34 33 30 29 34 30 30 30 30 27 31 32 29 28 29 22 27 23 26 26 27 26 26 27 29 24 24 
23 28 21 26 22 26 23 21 21 23 22 20 19 20 22 18 18 21 19 18 18 21 25 20 22 20 18 22 16 19 57 61 63 61 61 49 49 41 34 33 24 25 27 26 27 30 30 31 32 30 31 33 29 32 31 24 29 33 30 27 30 27 26 29 28 27 27 24 27 25 26 26 27 26 25 28 30 24 20 22 
22 27 24 26 25 28 26 24 22 21 24 26 24 19 19 19 20 27 21 24 24 22 21 23 22 19 14 14 13 19 57 67 67 71 68 69 74 71 69 64 51 44 39 37 33 31 30 32 33 33 32 33 34 34 34 32 31 35 31 30 30 27 27 27 31 31 27 28 25 25 24 27 26 26 25 30 27 22 23 26 
23 30 31 26 27 31 28 29 26 31 33 33 28 24 19 17 19 27 26 23 23 21 24 26 21 17 16 13 13 19 62 67 71 71 74 76 81 79 77 85 77 80 74 60 55 47 41 37 35 34 35 37 37 36 35 33 35 34 31 36 29 29 28 31 29 30 30 30 25 24 29 27 26 26 28 25 31 30 26 32 
23 30 24 30 27 37 47 58 62 43 34 26 22 25 24 24 28 24 23 19 28 24 21 19 18 15 15 17 14 20 64 72 72 74 73 76 84 80 84 86 89 87 88 87 83 79 76 63 58 49 47 40 38 39 40 36 35 34 31 33 32 32 29 31 31 29 28 30 28 27 31 29 25 32 29 30 28 28 30 28 
22 28 25 30 33 54 94 108 98 84 47 30 28 34 32 26 27 26 27 26 24 22 23 17 17 16 16 18 13 16 66 74 80 79 77 78 84 81 88 93 90 93 92 89 89 89 88 85 90 76 72 71 59 49 42 40 40 37 35 34 30 32 30 31 32 31 32 29 26 30 29 31 27 29 30 29 30 32 29 34 
24 26 28 32 31 59 109 116 116 109 47 30 35 42 28 26 31 26 24 20 18 18 19 16 17 15 20 16 16 18 65 71 77 81 76 80 94 87 87 91 93 95 95 91 92 88 90 91 90 89 87 93 91 75 69 52 55 45 35 36 30 29 31 29 34 29 29 29 29 28 30 30 29 27 28 28 30 33 29 29 
22 29 31 32 26 51 114 139 147 132 59 39 47 46 36 29 29 24 22 21 18 17 17 19 17 17 16 18 16 19 72 76 78 77 83 86 88 94 91 93 97 98 97 96 99 99 94 95 93 92 91 90 90 84 85 82 71 64 49 42 36 37 41 37 34 34 32 33 31 31 30 26 30 27 31 31 33 33 33 36 
27 30 25 27 31 47 106 158 155 131 71 42 39 36 29 22 22 22 21 20 18 17 17 18 17 16 13 16 17 21 73 80 80 78 82 79 87 94 92 96 96 94 103 94 98 98 100 108 97 94 94 94 89 87 87 89 72 70 67 60 57 49 40 44 40 33 32 33 33 32 30 32 32 26 29 32 33 27 32 27 
18 28 23 15 25 35 81 123 119 112 82 38 28 24 23 22 21 22 20 18 21 17 17 17 18 13 15 14 16 22 82 79 79 81 83 83 91 94 98 97 96 96 102 97 100 104 104 102 100 95 96 95 90 86 92 84 76 76 70 73 71 70 62 59 50 43 36 38 29 26 30 31 29 33 36 30 32 31 28 30 
17 23 22 22 26 30 63 91 92 98 83 70 49 32 26 22 23 16 19 17 18 17 19 16 19 16 14 14 16 23 84 82 79 81 84 87 93 94 95 98 97 99 98 103 107 108 105 102 99 97 100 98 97 90 96 91 78 76 73 78 80 74 75 76 72 66 51 47 45 35 35 28 33 33 37 33 31 28 29 40 
23 22 22 21 23 33 65 84 79 84 81 76 68 49 32 20 22 20 20 19 18 17 20 19 17 18 27 19 11 25 88 83 82 82 85 89 93 95 98 94 96 103 103 106 113 116 111 102 104 106 100 105 95 93 96 92 79 78 73 77 80 78 79 73 81 80 76 83 65 54 46 46 33 36 36 32 34 31 33 33 
17 24 21 20 22 47 64 69 69 71 67 74 72 63 47 25 19 21 19 17 20 19 24 26 22 23 24 26 25 38 94 86 84 84 86 91 96 98 97 99 98 106 101 110 111 114 112 108 107 106 104 102 100 94 99 91 81 81 77 79 80 78 79 80 82 82 80 85 85 82 79 67 59 52 47 40 37 32 35 31 
19 22 23 20 31 52 61 63 59 69 65 72 68 70 62 25 22 22 15 22 22 22 32 28 27 24 26 31 37 39 96 91 87 88 88 90 97 99 98 101 103 107 107 112 114 111 115 108 113 108 107 109 104 100 104 93 83 82 80 80 80 80 81 84 82 85 85 88 83 86 87 85 81 72 71 58 53 38 36 38 
19 22 18 21 31 49 51 54 56 63 64 66 68 66 56 29 21 21 20 21 22 24 29 30 29 27 26 35 35 39 104 90 93 89 95 91 101 99 102 102 103 106 105 113 114 116 109 116 110 107 104 109 105 102 108 94 87 82 81 83 83 82 79 79 85 84 83 87 86 89 89 88 89 91 92 84 77 71 57 49 
18 23 18 20 29 46 47 51 48 58 57 58 58 49 35 21 23 18 19 17 19 21 23 28 27 25 26 36 33 36 111 99 97 98 99 98 100 102 100 101 103 103 107 114 115 114 114 112 112 106 107 105 103 107 113 101 82 84 81 85 84 82 79 82 86 81 82 85 90 88 90 88 88 88 97 93 93 87 80 76 
14 21 17 24 31 34 43 47 43 54 48 44 37 29 24 22 21 18 20 16 23 25 22 21 29 22 26 34 33 40 119 109 113 107 107 104 108 106 103 105 103 105 110 117 115 117 115 110 115 111 108 105 108 109 117 94 86 82 84 87 82 84 84 86 86 82 84 90 86 88 95 90 97 94 90 94 95 94 89 91 
16 21 20 26 33 31 32 34 34 35 33 33 23 24 21 19 18 21 19 22 22 23 23 23 24 24 24 31 28 40 98 122 120 125 117 113 113 115 106 107 105 108 108 118 121 121 120 116 120 112 115 114 112 113 128 104 90 91 93 88 83 87 87 88 88 87 85 91 90 90 94 92 91 98 97 97 98 93 91 92 
16 25 22 22 33 32 28 31 29 29 29 26 22 20 22 20 19 21 18 21 21 19 21 23 21 22 25 29 29 32 47 79 121 135 121 119 122 118 115 108 107 111 112 116 122 120 126 123 121 119 120 118 115 117 126 100 96 93 89 87 89 88 90 89 88 90 91 93 92 92 98 97 95 95 98 97 99 96 93 94 
15 19 19 23 25 27 25 23 24 27 26 24 22 23 18 21 19 25 20 23 21 17 21 17 20 15 26 29 31 36 37 38 61 85 114 128 136 138 125 120 115 114 116 121 126 125 127 124 128 122 125 117 122 123 132 101 92 92 89 87 92 91 89 94 93 94 92 92 92 93 99 98 97 99 99 99 100 95 94 96 
13 21 20 21 19 21 19 23 24 20 27 28 28 22 24 22 21 28 27 26 27 18 15 16 17 17 18 29 33 35 34 32 44 48 64 86 127 154 144 140 128 129 123 130 131 133 135 132 130 126 126 126 128 128 136 108 99 93 88 90 93 95 94 97 95 91 92 99 96 102 115 99 97 99 102 102 103 96 98 98 
15 26 20 15 18 18 19 16 23 22 23 26 32 28 31 28 24 29 26 35 32 20 17 14 17 13 16 31 35 41 36 41 40 45 36 42 70 111 138 150 138 149 142 140 147 144 144 147 145 137 134 129 134 136 143 109 94 97 93 97 95 94 97 95 101 97 96 99 100 103 103 103 103 104 106 108 104 99 97 99 
14 23 16 16 21 22 19 20 24 27 28 30 32 30 34 33 34 35 31 36 33 24 22 16 14 14 17 29 37 38 36 38 37 38 28 24 32 45 65 105 135 163 149 166 155 152 153 159 151 147 142 135 141 143 153 108 97 98 95 94 98 98 98 100 99 98 97 102 103 101 102 104 103 103 104 108 103 103 102 103 
16 22 20 16 19 16 23 26 27 29 31 34 36 37 37 33 32 34 34 39 31 34 31 20 18 16 17 28 34 31 29 30 28 29 28 24 31 29 29 44 73 110 153 183 169 167 165 167 162 159 151 148 142 148 156 113 99 93 94 95 94 100 100 103 103 99 94 99 103 103 106 104 105 104 103 106 107 105 101 101 
18 25 17 18 20 25 27 28 31 36 34 37 31 32 34 31 35 37 33 40 37 40 33 27 20 21 22 26 30 29 29 26 26 27 22 28 35 36 30 27 38 46 82 128 178 179 183 184 175 173 164 153 148 155 162 117 104 103 98 94 99 101 100 105 105 104 101 104 101 107 107 107 103 109 112 111 109 104 103 108 


