P2
80 60
31
20 22 15 17 21 18 19 15 17 18 15 18 16 12 15 21 17 15 17 15 13 14 13 15 14 13 17 16 17 14 15 18 16 13 17 14 14 16 17 14 13 15 20 16 15 15 12 18 16 16 17 16 14 16 13 15 21 17 18 14 11 13 17 14 13 8 5 7 6 7 7 11 12 10 11 9 9 5 8 6 
19 21 13 15 15 15 15 15 17 20 14 16 16 13 19 18 17 14 18 15 15 13 12 15 12 13 18 17 19 17 14 20 17 15 16 15 15 16 16 14 14 16 18 14 14 15 15 15 16 14 16 15 16 18 14 18 15 15 17 17 13 14 13 11 10 6 7 5 9 8 4 6 8 9 8 10 5 4 13 5 
20 20 13 14 15 16 18 16 18 20 16 17 16 17 13 18 14 13 17 14 16 17 15 13 13 17 15 15 15 18 20 17 16 16 19 15 18 19 17 13 14 16 15 14 14 12 11 15 14 16 12 12 14 17 15 18 15 12 12 9 13 9 14 10 11 4 6 6 5 7 7 9 7 5 6 9 10 9 11 11 
19 16 15 19 18 17 21 20 16 20 19 18 16 16 15 17 16 14 16 15 15 16 12 13 14 18 15 20 17 17 15 18 15 14 17 15 19 17 19 15 14 16 18 13 15 16 14 15 17 17 15 14 14 15 15 15 14 12 14 14 15 15 13 10 10 6 9 12 8 8 8 9 8 8 8 7 7 8 12 11 
20 15 16 18 15 16 21 16 18 25 16 13 14 16 15 20 14 14 18 18 15 13 14 14 17 15 20 18 17 17 13 15 14 12 14 16 13 18 19 15 14 16 19 15 16 13 17 17 13 16 12 13 15 13 15 15 12 12 13 15 11 13 16 16 12 9 13 8 9 7 8 8 9 9 9 5 9 5 5 9 
21 20 19 21 20 20 18 21 21 18 16 15 17 16 14 17 15 12 16 19 18 15 12 13 15 15 20 16 13 16 15 17 13 13 16 16 13 18 14 16 15 20 19 13 15 19 20 17 16 15 14 16 19 17 17 15 15 18 14 15 13 17 20 11 13 9 13 11 14 12 12 6 6 9 9 6 9 9 10 12 
21 20 22 19 19 20 19 17 19 19 17 17 16 16 15 20 19 20 18 20 14 15 18 16 13 16 18 18 15 12 14 16 9 17 15 17 16 19 15 18 14 17 18 16 15 16 12 16 14 15 17 20 23 18 18 15 14 17 18 16 16 14 16 12 12 10 10 10 10 7 10 8 6 8 4 8 7 7 1 12 
25 26 20 18 19 18 22 18 17 22 20 18 17 20 16 21 17 16 16 18 19 15 14 15 14 20 15 18 21 17 15 15 13 11 16 18 16 17 17 15 17 16 15 13 15 15 16 19 16 14 15 19 22 19 15 18 14 15 14 18 12 14 17 13 12 13 10 11 11 5 4 7 11 7 9 6 8 3 4 5 
25 27 21 20 19 22 21 19 20 19 13 15 17 15 14 17 16 16 15 16 19 16 16 17 17 18 15 17 18 13 17 13 15 14 16 18 17 18 19 13 14 15 12 15 13 13 15 17 13 12 14 17 18 16 17 17 15 11 13 16 15 13 17 9 14 10 12 6 10 4 7 7 9 10 6 6 5 5 4 7 
27 24 18 20 19 22 22 20 18 20 16 15 15 15 15 21 19 16 16 14 17 17 13 16 17 17 14 19 17 15 17 12 17 13 18 14 15 18 12 14 12 15 15 13 14 16 14 11 14 14 13 11 16 15 16 15 14 14 15 13 11 15 16 13 12 9 12 9 11 9 6 9 6 8 4 9 8 6 5 6 
25 27 23 23 20 23 24 18 16 23 17 19 15 15 15 14 19 12 14 14 15 16 17 15 17 15 15 13 19 12 16 17 15 14 15 14 14 16 16 16 17 11 16 13 15 13 12 13 12 16 14 12 15 13 14 16 14 9 12 12 13 14 16 13 12 10 13 6 8 10 7 5 5 10 6 7 8 7 8 6 
25 30 26 22 22 22 23 20 16 22 17 16 17 16 14 15 15 17 16 14 15 16 12 14 14 13 15 15 16 13 16 14 14 13 14 14 13 16 14 16 17 16 15 14 12 13 10 11 11 14 11 12 15 11 14 15 14 13 13 11 13 15 14 12 13 11 14 12 8 8 6 8 7 8 5 10 8 5 4 4 
28 31 19 23 21 19 20 18 16 23 18 19 18 18 14 17 14 12 17 14 15 17 12 13 15 12 16 15 15 14 15 14 17 11 13 15 13 14 17 16 15 15 17 14 16 14 16 15 13 14 13 11 10 11 14 20 13 16 13 13 11 15 18 11 8 9 11 12 8 8 0 8 7 7 8 8 5 7 7 7 
25 26 18 24 20 18 22 19 19 15 18 19 19 16 16 17 11 13 15 9 16 14 12 15 13 14 16 14 14 16 14 15 14 12 13 12 11 17 15 13 12 14 15 13 11 20 15 17 15 16 14 12 14 13 13 17 17 14 16 13 13 15 14 12 7 9 10 9 8 4 7 3 7 10 10 8 6 6 12 5 
25 27 20 20 19 21 19 23 16 20 16 20 15 16 14 14 10 13 15 11 13 15 12 13 14 13 15 19 14 13 15 13 14 15 16 14 15 17 16 15 14 16 15 11 16 13 13 13 14 15 11 15 13 15 15 18 20 19 17 15 11 11 15 10 15 10 13 11 11 10 5 6 5 7 9 8 11 9 8 8 
24 26 19 22 21 21 19 22 18 18 13 15 17 15 16 17 13 13 15 15 15 15 15 15 15 14 15 15 16 14 16 13 12 12 12 15 13 12 20 15 17 15 14 15 14 15 15 14 14 16 11 13 14 15 15 15 16 17 16 16 11 11 17 12 13 13 13 8 15 8 6 8 9 9 6 11 9 9 9 8 
27 29 19 22 17 19 22 20 19 20 14 14 16 15 16 17 15 12 16 13 14 13 14 14 12 11 13 12 14 14 16 17 14 14 13 16 13 13 14 11 14 17 15 14 11 17 15 13 13 13 11 12 12 13 18 15 16 18 17 14 11 14 13 12 10 12 11 13 13 9 12 11 12 8 5 6 12 9 11 7 
24 24 20 22 20 21 19 18 15 22 17 16 16 15 17 17 15 12 12 14 13 13 14 14 12 10 13 15 14 14 13 14 14 12 14 13 14 13 12 14 15 13 14 11 14 13 13 12 12 13 10 13 16 13 19 16 16 20 14 17 12 11 12 13 10 9 9 10 13 7 10 8 8 9 7 10 8 9 9 6 
22 22 18 20 21 19 19 16 16 20 17 20 16 16 14 15 13 16 14 12 14 15 16 17 12 11 14 15 16 12 15 14 15 14 19 13 14 14 12 13 11 14 16 16 14 13 11 14 11 13 10 12 16 15 17 16 13 13 14 13 12 12 12 13 10 11 10 13 11 9 9 8 12 11 7 4 7 5 11 7 
23 25 19 20 20 22 23 17 16 16 22 19 20 14 13 16 14 14 20 16 13 17 19 15 16 15 19 16 16 14 17 14 15 13 16 11 15 16 14 15 16 14 17 14 11 11 12 14 12 11 10 13 13 12 15 13 13 16 14 13 10 12 13 14 14 10 12 10 12 10 9 8 8 11 6 7 12 11 8 6 
23 27 20 18 21 20 19 18 15 18 17 16 18 15 12 16 15 13 17 15 19 15 17 16 14 17 14 16 16 17 26 18 15 8 16 13 13 15 15 16 17 15 17 12 12 12 10 14 12 11 11 13 15 14 18 13 14 13 16 12 13 14 13 12 11 10 12 10 12 9 9 10 12 9 9 9 6 8 10 11 
19 27 19 20 22 19 24 19 19 16 19 17 23 17 17 15 13 13 15 16 11 12 15 13 11 16 15 13 15 17 19 17 14 14 11 13 16 13 16 14 12 14 12 12 11 9 10 10 10 12 13 12 11 19 14 13 15 14 16 13 10 16 16 16 9 14 16 12 13 13 9 10 10 9 7 6 7 10 7 13 
24 27 19 19 18 19 20 22 20 20 20 19 21 22 14 16 15 15 19 21 17 11 12 14 12 15 13 15 12 14 15 16 14 11 14 14 12 15 17 15 11 12 12 11 10 11 12 10 12 17 13 12 14 12 14 16 13 12 12 14 16 12 15 16 13 12 13 12 13 11 9 9 15 13 9 8 10 9 8 12 
22 22 21 22 22 19 21 27 21 16 18 22 17 15 16 18 15 10 17 15 12 14 12 12 13 14 15 16 13 12 13 16 13 12 14 11 11 14 17 14 13 11 15 12 12 11 12 11 10 16 15 12 15 13 12 13 14 11 9 12 13 13 16 16 16 9 17 12 12 12 8 9 11 13 8 8 5 10 10 8 
20 19 18 18 15 14 18 19 16 19 14 15 16 15 17 14 13 11 16 14 11 11 13 14 14 15 11 16 14 12 12 14 11 11 13 7 10 11 13 12 13 11 12 12 17 12 9 9 10 14 9 10 11 11 11 12 11 10 9 11 16 14 14 13 11 10 14 12 12 8 10 8 10 10 9 8 8 9 12 9 
22 19 16 21 18 19 19 17 17 17 16 16 20 17 19 17 13 12 15 11 12 14 14 13 15 13 15 13 15 13 13 13 12 10 11 10 13 13 12 12 11 12 12 13 11 15 11 13 9 12 12 12 13 13 10 14 10 10 14 12 14 12 14 13 15 12 12 14 8 9 10 10 9 9 8 8 11 9 12 13 
18 20 18 18 19 20 19 15 15 21 16 15 16 17 13 15 14 15 16 13 13 14 14 15 13 15 14 14 13 13 12 9 13 10 14 12 12 12 10 12 13 13 13 15 11 11 11 10 9 12 11 11 12 10 12 14 10 10 10 13 13 12 13 15 11 12 10 12 11 8 12 8 10 10 8 7 11 11 14 11 
21 18 14 18 19 20 23 17 18 17 15 16 18 16 16 14 13 14 14 13 10 12 14 11 13 15 15 17 15 14 15 13 10 13 10 12 10 12 11 11 13 11 15 15 10 14 10 13 12 9 11 12 12 11 9 14 10 7 10 11 12 15 16 12 10 9 11 10 7 10 9 9 7 11 6 10 10 9 6 5 
20 21 18 21 19 20 18 21 19 21 16 16 13 17 15 15 13 13 12 12 13 13 13 11 14 15 15 15 15 12 15 13 11 11 12 10 12 10 12 15 11 11 18 15 12 11 14 13 10 14 11 12 13 9 13 12 11 10 11 11 13 15 13 13 10 13 11 13 7 10 10 11 10 10 10 9 9 9 3 8 
23 21 20 19 17 19 17 16 21 17 16 15 15 18 13 14 12 10 14 13 14 16 16 11 14 14 15 14 14 13 14 16 12 11 12 12 13 11 12 11 13 13 16 15 14 13 11 10 10 12 12 12 13 9 11 7 7 10 10 7 12 15 15 13 13 12 17 13 12 10 10 7 10 9 8 8 8 9 5 8 
23 22 17 20 17 17 15 18 19 17 17 16 15 16 16 17 14 11 14 12 12 12 12 10 12 15 15 14 12 14 16 13 11 11 17 11 14 12 13 13 12 15 17 15 13 17 12 11 13 12 12 10 11 9 13 10 10 9 9 10 12 15 12 15 11 12 15 15 12 10 14 7 10 10 8 5 7 8 7 6 
20 22 14 20 19 18 19 14 17 17 15 15 15 14 13 17 17 12 12 14 14 13 14 12 13 14 18 15 14 12 11 14 12 11 12 9 9 11 10 16 16 15 13 15 12 12 10 11 13 16 12 11 10 12 15 10 10 9 13 10 9 13 16 15 11 13 10 10 10 8 11 7 9 10 6 6 8 10 5 6 
21 21 16 17 18 18 18 18 14 17 15 15 15 16 13 15 13 11 16 9 13 10 11 15 13 14 15 15 13 14 14 14 10 10 8 12 8 12 12 14 13 14 15 16 14 11 8 11 9 12 15 12 10 10 13 13 11 9 10 9 12 13 16 12 11 12 12 11 17 14 8 6 9 7 6 7 11 8 4 5 
22 18 17 17 20 20 15 16 14 17 14 14 15 12 14 16 14 14 13 12 14 10 14 14 13 16 13 15 15 16 16 10 11 12 13 9 10 12 12 13 16 14 14 12 16 12 12 11 10 12 11 12 10 12 11 14 8 11 11 9 8 16 12 12 11 11 12 13 13 8 10 7 8 11 8 8 9 9 3 8 
20 23 16 17 17 19 15 16 18 18 14 18 14 12 12 16 17 13 16 13 13 13 11 15 16 12 14 16 14 15 15 10 13 10 13 12 11 13 10 11 12 15 14 14 14 15 13 13 9 13 9 14 11 11 13 12 13 13 13 8 11 11 14 14 13 12 12 11 10 6 9 12 11 11 10 9 11 13 6 10 
19 19 18 20 19 19 18 16 14 18 15 16 16 14 17 16 14 14 15 14 13 13 12 13 12 12 14 13 14 14 13 11 13 12 14 11 11 12 10 13 12 9 11 10 14 10 13 15 10 10 10 14 12 11 13 13 11 14 12 14 10 12 18 13 13 10 10 10 11 7 8 8 9 10 7 9 8 10 7 11 
17 19 16 20 21 18 19 16 17 17 11 12 14 15 16 13 14 17 19 11 13 13 10 13 12 13 12 14 12 11 15 15 11 13 11 10 12 12 9 11 9 11 14 13 11 13 11 12 11 12 9 16 15 9 11 15 10 12 10 14 15 12 18 12 15 15 12 10 10 9 10 7 6 9 9 8 8 8 8 11 
17 21 19 17 20 20 22 16 15 19 18 14 16 14 16 13 13 15 18 14 15 15 12 11 10 12 11 13 15 12 15 11 12 11 13 12 10 13 10 10 10 13 13 13 12 12 12 13 13 12 12 12 14 10 15 14 12 13 9 9 14 11 13 13 13 14 11 12 12 11 12 10 7 12 8 8 6 8 9 11 
20 24 25 18 19 22 17 15 19 17 18 18 14 14 15 14 13 15 18 15 14 17 15 11 14 13 11 13 12 14 13 12 9 11 13 13 11 11 14 13 12 14 12 11 14 12 14 13 14 13 12 14 15 14 14 15 15 11 13 13 12 13 14 14 11 13 13 11 8 9 10 9 7 10 11 7 11 10 16 13 
17 19 20 18 19 20 18 17 16 19 20 14 14 20 13 17 15 14 12 14 17 13 12 15 13 15 11 14 13 12 14 14 11 10 12 14 12 13 13 14 13 13 12 13 10 13 14 14 13 16 15 16 18 14 15 12 12 11 11 9 8 10 10 12 12 10 13 8 11 10 10 7 8 10 8 10 8 13 10 11 
17 19 16 16 15 19 18 18 16 14 14 16 15 17 18 15 15 14 13 13 12 14 12 15 13 12 18 13 11 14 15 14 15 16 12 10 9 14 12 13 12 11 13 12 15 15 11 12 14 17 15 16 15 12 13 13 9 12 11 13 9 13 14 10 10 9 9 7 8 8 9 9 4 9 10 7 12 12 11 13 
17 19 18 16 18 18 14 15 13 15 13 16 16 14 13 11 14 14 13 10 14 12 12 11 18 14 15 13 13 9 13 13 13 11 14 17 17 14 13 13 10 18 11 11 14 15 14 14 14 12 14 17 12 13 12 14 11 11 10 8 11 12 13 13 13 8 9 8 11 6 9 8 7 7 9 9 11 13 9 15 
18 21 18 20 19 17 18 16 15 16 14 15 18 17 16 14 13 13 15 9 14 14 9 14 10 14 15 11 11 12 13 15 14 13 12 17 15 14 12 13 13 13 11 14 12 16 13 18 14 15 15 14 13 13 9 13 13 11 10 8 11 12 13 15 13 10 10 7 10 7 6 10 7 4 8 7 8 11 7 11 
21 18 15 17 15 18 17 15 17 18 11 20 16 17 16 14 10 15 16 15 14 12 14 11 13 13 13 10 13 12 13 15 14 11 14 11 11 16 11 12 10 14 11 11 14 15 15 23 13 16 13 10 15 13 11 15 13 9 12 9 9 13 14 12 11 10 9 9 7 6 10 6 8 5 9 8 9 10 10 7 
19 19 12 13 14 14 20 14 16 13 14 16 17 19 14 14 15 14 16 15 18 11 14 12 13 14 10 11 10 10 14 11 11 10 14 15 14 15 12 12 13 11 14 9 16 16 17 20 15 13 13 13 13 13 12 12 9 11 7 10 11 13 14 12 10 12 14 11 12 8 5 4 5 10 8 11 11 8 4 12 
18 19 11 15 19 15 15 15 15 16 12 18 17 18 18 20 17 17 13 12 18 15 12 13 12 10 10 11 12 11 13 11 14 10 13 13 13 14 14 13 9 15 13 13 14 16 14 15 12 12 12 12 11 12 13 12 8 8 6 9 12 13 12 12 6 12 12 12 12 10 9 8 6 8 10 11 9 6 5 14 
17 17 13 11 12 14 15 13 15 17 13 12 17 13 15 15 14 15 15 11 15 15 14 12 11 15 17 15 13 12 14 11 12 13 13 13 9 14 9 10 14 12 12 14 16 20 13 13 13 13 8 13 14 10 11 13 11 11 12 9 9 13 17 10 7 11 14 15 5 7 8 6 5 6 9 5 8 8 5 5 
18 18 9 16 12 16 18 15 14 13 14 13 17 14 15 16 15 15 14 12 16 12 16 15 14 13 13 14 12 16 14 11 13 12 15 11 10 12 11 12 13 14 9 11 15 13 16 12 13 12 11 13 14 11 13 13 8 12 11 11 11 14 16 12 12 7 11 10 9 7 10 9 7 10 4 5 7 6 5 7 
18 20 11 12 14 15 16 18 12 14 11 16 15 16 16 18 15 13 12 16 14 14 21 16 12 13 13 11 12 13 14 12 12 9 12 9 10 14 11 12 10 13 10 15 11 13 11 11 11 11 12 12 9 10 13 15 11 11 12 12 10 14 11 9 11 9 12 10 10 9 8 6 7 7 8 4 8 5 6 9 
21 19 16 16 12 15 14 15 13 10 11 12 16 14 15 19 15 15 15 16 13 14 15 14 11 13 14 13 11 13 11 13 11 11 11 9 11 13 12 10 11 11 11 12 14 11 11 8 7 11 9 12 15 13 15 12 12 9 10 11 11 14 14 12 8 11 10 10 7 7 8 10 7 10 5 5 8 9 6 12 
19 21 21 17 14 12 10 14 16 12 11 12 15 17 15 18 15 13 17 16 11 13 13 14 13 11 16 11 13 12 11 10 12 11 11 13 11 14 14 12 9 13 12 13 12 10 10 10 8 12 7 12 14 16 15 17 12 8 9 12 12 15 15 10 11 7 8 8 12 6 10 9 9 8 5 6 7 10 7 10 
19 23 14 19 16 16 15 13 16 13 11 13 14 13 15 17 13 13 14 16 16 12 14 16 11 13 12 10 9 13 13 9 13 8 17 11 10 11 12 9 9 15 13 11 12 16 10 12 11 15 11 12 9 17 15 18 14 11 9 12 9 14 10 13 12 11 10 11 8 8 9 7 11 13 5 10 4 8 8 5 
19 20 15 17 16 16 17 14 14 13 12 11 11 13 14 10 14 8 14 12 11 13 13 10 11 12 12 12 10 10 12 10 11 10 10 11 8 9 10 10 11 8 9 8 11 11 8 16 16 16 13 12 13 13 17 19 13 13 15 12 10 10 13 12 12 11 9 9 7 9 8 9 9 7 11 6 9 8 9 10 
16 17 16 16 20 16 14 15 12 17 13 9 14 12 13 14 10 10 16 13 10 13 11 11 12 14 13 13 15 15 14 11 11 8 11 10 9 10 11 8 9 9 7 9 10 9 13 11 12 16 13 8 12 15 14 15 14 12 11 11 10 13 12 12 10 8 8 12 7 9 9 7 7 6 5 7 7 5 4 7 
16 16 11 13 16 16 19 14 17 14 14 13 11 13 14 14 10 11 19 15 13 11 10 11 9 14 14 12 10 8 11 10 10 11 8 11 6 11 8 8 10 10 8 10 11 12 6 13 8 15 15 9 14 15 16 16 14 12 11 10 9 10 9 8 7 11 9 5 5 7 10 6 3 5 8 8 5 3 7 7 
13 15 11 13 13 14 13 15 17 16 11 14 16 17 13 15 9 14 18 14 15 11 6 12 14 12 12 13 12 10 10 11 9 9 8 10 6 8 7 10 10 9 10 11 10 11 11 12 12 14 11 11 15 11 16 14 12 14 11 9 7 13 11 11 11 8 8 7 9 9 14 8 10 12 4 6 4 2 7 8 
12 15 9 12 14 11 14 13 11 14 12 17 21 18 14 12 11 14 16 14 11 10 11 10 9 11 12 10 12 10 12 10 8 9 9 10 7 10 10 10 10 9 9 6 11 8 10 10 11 8 6 13 12 12 10 14 11 10 8 8 12 11 11 11 12 6 7 4 9 7 10 3 10 9 5 10 7 8 6 11 
13 16 9 9 12 13 14 15 14 16 10 15 20 13 13 14 10 11 13 10 10 8 13 8 7 9 11 3 9 7 9 11 11 11 10 9 7 14 8 12 9 9 10 12 10 13 10 22 9 13 7 8 10 12 13 14 7 10 10 10 11 12 12 12 6 10 9 10 12 7 8 5 6 9 7 6 4 10 1 12 
14 13 11 15 9 12 14 14 13 12 14 11 17 16 12 12 11 9 9 11 11 11 13 11 10 10 8 7 12 7 10 7 8 12 9 12 11 11 13 11 11 10 12 12 11 7 9 10 13 14 11 10 12 10 16 12 8 9 10 13 7 12 14 11 11 8 10 8 9 6 5 4 4 3 7 6 5 7 8 5 
11 10 7 10 10 10 11 11 12 11 10 14 14 14 13 12 11 10 13 13 8 11 8 9 10 10 12 11 10 7 8 9 6 10 12 8 13 9 12 10 9 10 12 10 11 12 9 12 9 14 8 11 14 11 16 12 12 12 11 10 8 9 10 11 14 6 10 9 10 7 8 8 8 5 8 7 5 7 7 6 


