P2
80 60
152
128 128 132 134 132 133 132 129 130 130 128 127 127 126 128 127 127 127 125 128 132 129 125 124 127 131 132 130 128 128 128 127 126 129 125 123 124 128 124 129 130 129 128 130 129 133 133 125 130 128 125 129 132 131 131 135 135 136 130 127 128 125 131 130 126 128 121 124 121 123 129 122 121 121 124 122 115 113 119 115 
128 130 131 128 129 128 129 131 131 132 129 127 129 128 130 127 131 128 128 131 132 128 128 121 126 127 130 130 128 126 126 129 129 128 128 126 124 128 127 132 132 129 133 131 128 131 132 127 130 127 128 132 130 132 134 131 134 135 135 135 130 124 125 131 129 123 119 126 120 122 124 123 119 118 119 121 115 112 119 116 
130 128 129 128 134 132 128 132 128 130 132 133 130 128 129 130 126 128 128 128 132 132 127 130 131 130 132 130 126 129 129 127 127 133 134 128 128 132 129 129 130 131 131 130 129 133 132 129 131 129 130 130 130 131 131 131 133 133 136 134 128 130 124 132 125 123 123 125 123 122 126 124 119 123 122 126 115 118 118 117 
130 128 130 129 132 132 132 130 135 134 137 132 127 129 128 128 130 129 129 129 131 129 133 127 132 130 131 129 131 130 129 128 128 127 128 129 126 133 130 130 131 128 130 128 130 132 132 126 134 129 128 132 127 129 127 133 131 134 132 134 131 126 131 129 126 124 126 126 124 123 130 129 119 119 127 124 124 122 122 118 
135 134 134 130 131 136 132 130 130 135 131 130 132 133 136 134 128 131 133 138 132 128 134 133 131 133 135 132 129 132 129 125 128 127 129 128 128 131 132 129 129 135 130 128 127 129 131 127 133 129 128 133 129 130 129 129 129 129 128 130 130 129 128 131 128 124 123 128 125 125 130 123 120 125 126 123 119 117 118 122 
132 131 130 133 132 129 129 135 137 134 133 134 128 134 131 134 130 132 131 135 132 134 133 131 133 129 130 129 129 129 128 123 125 126 126 129 129 130 129 130 132 129 133 130 128 131 136 129 130 128 128 131 132 130 129 133 130 128 135 132 130 123 126 129 129 124 123 129 130 124 131 125 121 121 124 123 122 115 118 123 
135 129 132 132 137 132 135 131 137 132 137 136 133 132 130 130 134 132 132 135 132 132 132 131 133 133 130 133 132 130 128 124 126 124 129 127 133 132 126 132 131 130 134 132 133 133 135 130 135 129 134 133 132 132 129 131 133 136 139 132 129 130 128 130 130 127 124 132 126 128 124 124 121 120 128 126 116 119 119 119 
134 133 135 137 135 134 133 135 135 134 134 134 131 134 129 132 132 130 134 131 136 131 131 131 134 132 133 133 134 131 128 125 123 126 127 130 131 130 128 132 133 128 132 134 135 134 136 132 133 129 132 135 136 134 136 139 133 135 140 134 137 138 132 136 131 128 125 127 127 128 127 125 121 120 121 120 116 119 120 121 
135 132 135 133 135 132 138 133 134 133 134 135 132 130 133 134 131 134 135 134 131 131 132 132 134 134 131 130 134 131 134 128 126 127 129 128 128 130 130 129 128 128 132 131 131 134 130 128 131 131 131 134 134 138 133 134 133 135 134 136 133 139 139 138 139 132 132 132 130 128 126 126 122 121 119 119 118 117 119 118 
137 132 136 133 135 134 131 135 136 134 135 134 133 132 129 135 135 131 134 132 133 135 127 128 130 130 130 131 130 131 130 126 126 125 130 128 125 128 126 130 127 128 130 130 133 131 131 125 129 130 130 128 134 136 131 132 134 134 133 136 134 136 139 138 140 134 133 131 132 133 128 128 122 120 119 122 117 116 119 117 
140 133 130 137 138 138 134 133 134 137 133 132 132 128 130 131 133 128 132 130 132 132 128 127 130 130 129 129 133 128 132 129 127 127 131 126 130 130 129 132 130 129 131 129 131 133 130 127 127 130 131 130 131 131 132 134 136 137 142 135 135 132 137 138 134 133 136 138 128 132 128 125 122 123 123 124 121 116 121 115 
136 136 135 138 138 137 138 134 132 134 131 131 131 131 128 129 128 127 130 133 132 131 128 130 125 131 129 131 128 128 129 128 127 127 128 126 125 125 131 131 130 128 129 127 129 131 131 129 131 129 130 129 129 129 130 133 137 138 135 135 135 136 136 135 135 132 131 137 130 128 129 121 119 122 122 130 124 116 118 119 
135 133 138 141 138 135 134 131 131 135 132 133 130 127 130 128 126 124 129 128 127 131 127 129 126 127 130 130 128 128 126 124 125 128 124 125 125 128 128 128 128 129 128 130 132 131 135 127 130 129 129 129 130 126 132 131 136 136 136 134 135 136 140 133 132 130 130 135 131 131 118 121 120 120 123 125 121 121 119 120 
142 142 139 140 137 143 134 133 135 132 127 129 129 126 129 129 129 127 131 127 130 127 127 127 127 128 125 127 129 126 124 125 125 129 127 124 125 129 128 127 127 127 128 130 126 133 131 129 132 132 131 129 129 131 129 136 133 136 138 134 134 136 135 133 136 134 131 134 129 126 129 119 119 123 121 122 117 119 119 118 
140 142 138 144 139 136 134 135 139 132 132 129 127 129 128 129 128 127 127 129 125 124 130 128 129 128 124 129 130 128 128 128 127 128 125 126 126 127 126 131 129 129 129 125 129 132 127 126 130 130 130 131 131 129 135 134 138 152 139 136 136 132 135 136 140 132 130 136 131 128 128 125 124 123 121 122 119 122 122 120 
142 143 139 143 137 134 135 136 138 132 132 129 129 130 126 132 124 126 126 127 127 129 125 124 128 130 127 126 130 125 129 127 124 126 124 125 124 125 125 131 130 131 124 124 123 126 126 119 128 125 127 130 132 136 133 133 135 140 140 134 137 133 137 135 132 135 132 139 132 128 129 125 122 121 122 120 120 123 117 122 
142 142 144 142 140 135 137 134 133 132 133 133 129 132 130 129 128 129 126 128 129 125 126 128 129 126 125 126 129 127 129 126 124 127 126 125 123 126 125 129 130 130 127 124 126 131 124 121 125 122 127 130 131 135 132 133 134 139 139 132 134 136 134 133 132 131 132 134 130 129 128 125 130 125 125 120 117 122 120 115 
142 141 145 142 140 138 135 135 132 130 132 133 131 130 129 134 130 128 130 129 128 127 127 126 127 126 126 129 129 125 127 125 129 130 125 124 127 126 126 131 131 127 127 127 128 130 128 121 125 123 124 132 136 132 134 135 135 142 136 133 137 134 136 132 134 130 132 134 132 128 130 126 123 121 120 117 118 120 119 116 
142 140 140 145 142 141 135 134 134 132 132 131 130 131 130 132 132 130 132 130 126 128 129 128 129 127 128 127 127 123 128 124 131 127 127 126 123 129 128 133 131 131 126 128 127 129 126 121 128 126 128 134 133 133 136 137 138 138 137 135 135 133 134 135 135 130 131 137 134 132 131 130 117 120 118 122 118 118 118 117 
141 143 142 142 141 140 134 133 133 130 136 131 132 134 132 132 133 126 132 132 128 134 135 130 131 130 133 128 128 129 127 125 126 128 126 126 126 128 124 129 129 127 126 125 126 126 131 124 127 128 129 134 135 130 135 132 135 134 137 137 133 134 134 133 131 131 132 135 132 129 130 128 122 113 118 119 116 114 117 120 
140 138 138 140 139 138 137 138 130 130 133 134 131 135 131 129 130 127 131 128 128 131 132 132 131 129 129 128 132 128 130 127 127 129 127 125 126 128 129 129 129 129 128 125 127 127 126 122 128 127 129 132 135 133 133 130 131 132 139 134 136 132 138 136 135 131 129 133 136 129 126 125 121 122 121 120 118 118 117 122 
141 139 139 142 139 135 137 133 132 133 131 130 136 133 130 130 130 127 131 126 126 128 130 127 131 129 129 125 129 124 128 127 126 126 125 123 125 126 126 127 127 127 127 126 125 126 124 121 128 126 131 133 133 135 133 134 134 132 137 132 135 131 137 138 135 130 131 136 128 136 130 126 121 117 119 118 119 117 119 118 
138 142 141 145 143 138 134 136 137 134 133 135 132 131 130 130 129 127 132 127 129 128 128 126 130 126 125 128 129 125 128 126 126 127 125 123 123 126 125 128 125 125 124 125 126 126 124 121 125 128 131 134 132 131 130 136 131 136 138 132 135 137 136 133 135 135 136 137 132 130 132 126 124 120 121 122 117 121 123 120 
136 139 142 141 140 138 138 143 132 130 131 131 131 129 128 132 128 132 129 132 129 128 129 126 128 129 124 128 128 127 125 123 122 126 125 124 123 126 123 127 125 125 121 121 120 124 124 122 126 131 129 131 132 133 131 134 132 134 134 131 133 131 138 138 133 133 133 135 130 133 129 126 123 122 118 120 120 119 124 120 
139 138 138 139 134 134 134 133 135 131 131 124 129 127 128 131 129 127 130 126 128 126 126 127 127 129 127 130 127 123 126 120 121 125 124 120 124 127 122 123 131 123 118 117 118 119 115 116 126 124 127 131 133 127 130 128 130 133 131 132 132 133 134 135 134 136 133 132 131 128 128 123 119 120 120 117 122 115 122 124 
139 140 140 137 134 136 131 133 131 131 128 129 128 128 131 131 128 130 128 127 127 130 129 126 128 128 127 124 128 127 125 124 123 125 122 121 125 125 123 127 126 126 122 118 120 121 119 122 126 122 128 130 128 129 127 128 128 134 135 135 132 133 136 134 138 132 133 131 129 132 131 124 119 121 120 122 121 121 124 121 
140 139 137 135 138 133 134 132 132 132 132 129 131 127 126 131 128 129 132 128 129 128 135 128 127 128 128 127 124 126 128 127 124 125 125 121 124 124 124 124 130 120 123 117 120 119 116 122 127 126 128 128 128 129 129 131 131 130 135 133 131 131 134 133 134 132 131 134 126 129 126 123 120 122 118 122 117 120 119 120 
141 143 133 138 139 136 132 134 128 130 129 128 126 128 126 130 128 125 131 129 127 129 130 128 129 126 129 128 127 125 129 124 124 123 122 120 125 123 124 126 126 121 120 118 119 118 117 117 126 124 126 127 127 128 126 130 130 130 134 132 131 129 132 134 133 131 133 135 129 127 129 120 117 120 121 121 118 117 121 123 
143 144 137 135 136 135 132 134 132 130 129 128 126 128 126 129 127 129 131 128 127 128 128 127 128 125 126 130 126 126 122 123 124 123 120 121 123 125 126 129 125 121 119 119 117 122 116 119 124 124 127 129 126 126 131 132 131 127 132 128 131 129 132 134 132 132 134 135 131 126 128 124 121 121 125 121 121 116 120 121 
142 139 140 140 135 135 130 133 136 130 129 127 127 132 128 128 127 126 127 130 129 129 128 127 126 125 127 127 126 125 125 125 122 124 126 121 123 127 123 127 125 124 120 119 119 118 116 121 125 124 129 130 128 126 128 135 128 128 129 129 129 131 130 133 133 132 137 134 132 126 127 124 124 122 122 123 120 118 118 119 
142 140 140 137 139 132 134 130 134 132 129 130 125 128 126 130 131 127 125 128 126 131 126 128 125 130 130 130 127 128 127 123 125 126 123 122 121 122 124 125 125 126 124 120 121 121 115 120 124 125 127 128 130 128 131 130 127 129 129 127 127 131 132 132 131 130 131 133 131 128 127 125 123 123 120 122 117 117 121 119 
140 138 139 135 135 132 131 134 132 130 130 131 127 128 127 127 128 123 128 128 126 125 126 127 129 128 128 128 128 129 126 123 124 125 124 121 123 123 123 125 128 127 118 119 119 120 115 121 125 125 127 129 127 127 130 128 128 129 128 123 125 131 132 131 133 129 131 133 131 131 131 123 120 120 123 120 119 118 119 123 
141 137 142 138 138 135 131 131 131 128 130 130 128 128 126 128 128 128 126 129 128 128 125 128 132 129 127 131 125 129 128 122 122 123 126 121 125 126 124 125 126 123 119 119 119 118 119 119 125 123 126 133 129 128 127 130 127 129 125 126 128 126 133 131 133 129 131 133 131 127 128 121 121 119 119 120 115 116 122 115 
137 138 138 134 138 134 132 133 131 130 129 130 130 128 126 127 128 127 125 131 128 124 130 129 130 130 128 126 128 129 127 123 123 123 121 120 121 127 122 126 127 125 122 117 116 120 116 118 124 123 125 129 128 129 127 128 129 130 129 123 127 130 133 133 132 133 131 131 132 129 128 130 120 120 121 123 120 120 117 114 
138 139 141 132 135 134 134 131 133 128 130 130 129 130 126 124 126 128 125 129 124 127 125 126 128 128 127 128 127 126 125 126 124 123 124 122 122 125 125 124 123 123 117 113 114 116 117 117 123 121 124 128 129 128 126 126 128 130 125 126 125 128 131 132 132 129 132 133 131 129 129 122 120 120 119 120 118 117 113 113 
142 139 138 133 136 135 130 133 131 128 127 129 126 127 126 126 127 129 133 128 128 128 125 123 128 125 125 126 126 123 126 122 123 123 126 122 123 126 122 130 124 123 117 116 114 114 116 120 124 119 128 128 128 122 124 128 127 127 125 129 129 129 130 130 130 130 130 131 128 126 124 121 118 122 119 115 120 123 118 113 
141 139 136 136 135 136 131 132 132 131 131 126 125 126 128 126 128 128 130 130 128 127 127 128 127 125 122 128 124 127 123 122 126 123 123 119 126 125 121 122 126 119 114 114 116 111 116 117 123 120 128 127 127 125 129 128 128 126 127 125 129 125 129 129 128 130 130 128 129 128 129 121 121 121 118 122 121 117 116 116 
142 138 135 134 132 137 133 130 130 126 132 129 130 124 126 126 127 130 129 125 127 126 125 127 126 123 124 123 124 124 124 122 121 123 121 121 122 123 122 126 125 118 115 116 114 114 115 118 121 124 127 127 126 122 125 128 128 126 126 125 126 122 131 126 130 129 128 129 126 126 121 122 119 118 119 124 121 118 122 115 
140 139 147 135 134 133 134 131 135 130 132 130 128 126 125 127 126 128 127 127 126 128 127 129 127 126 124 126 124 123 126 125 124 123 125 123 119 121 123 124 123 119 115 115 116 113 114 118 122 122 126 123 127 124 125 127 122 122 123 122 126 124 127 124 130 129 130 127 123 121 122 118 118 122 120 114 118 118 124 117 
140 140 138 134 133 131 130 129 134 128 135 131 128 124 125 126 127 126 128 124 127 128 125 129 128 127 128 127 124 125 122 123 124 124 125 119 122 123 121 123 120 116 113 114 114 112 117 116 124 123 126 126 127 123 125 125 120 121 123 123 125 123 124 127 128 127 126 125 124 126 121 122 121 118 118 121 121 122 124 124 
139 141 138 134 133 134 128 134 129 127 130 127 126 133 126 127 128 126 129 126 126 125 126 125 126 125 130 124 125 122 122 122 122 125 121 122 121 123 121 121 121 117 114 111 113 111 117 119 123 118 123 129 124 129 127 126 122 123 124 121 122 123 127 125 128 126 124 125 124 121 120 122 115 118 118 120 116 117 128 121 
137 139 137 136 131 128 131 131 128 127 129 131 129 127 126 129 126 123 127 125 123 124 126 126 126 129 128 129 122 123 124 121 121 123 118 120 122 123 121 122 119 118 114 112 109 112 117 116 122 119 124 124 126 124 126 125 123 124 122 122 124 125 127 125 128 126 124 124 121 123 120 117 118 117 119 118 121 115 122 119 
139 133 140 131 130 129 129 131 128 129 129 130 127 127 127 126 126 126 130 126 125 126 126 127 127 124 124 126 128 125 122 119 123 122 122 123 124 125 119 122 124 116 112 108 110 110 119 117 122 119 121 123 123 120 126 123 123 116 121 122 123 123 129 127 127 126 119 124 121 121 120 117 116 122 115 119 117 118 120 122 
137 139 133 131 130 128 124 128 123 129 125 126 122 127 127 123 122 123 126 124 125 125 128 124 123 125 124 123 124 123 123 119 119 123 123 120 121 118 123 122 121 111 112 110 110 111 116 123 122 119 119 119 119 116 122 123 119 119 118 121 124 120 127 125 124 122 121 124 121 120 116 119 115 119 118 116 116 114 121 118 
137 133 130 125 133 126 123 126 126 124 125 124 126 126 124 126 125 124 126 124 126 123 123 121 121 125 121 125 121 122 122 116 119 121 119 121 120 121 120 123 121 110 109 110 111 109 116 119 120 116 119 122 118 119 123 120 116 118 121 120 124 123 123 127 120 123 124 123 121 119 116 116 119 120 116 117 115 119 119 115 
134 130 135 127 132 123 126 126 127 125 125 123 124 127 129 125 126 122 125 125 123 123 122 123 123 122 123 123 122 124 125 120 120 120 121 120 119 124 118 122 119 111 109 108 111 108 115 111 117 119 122 117 116 118 120 121 116 117 118 118 122 122 125 122 122 123 121 126 121 119 118 120 119 121 122 116 116 115 118 118 
134 131 130 123 128 125 123 126 129 124 124 124 125 127 124 128 124 124 121 123 128 126 123 124 124 121 120 121 122 120 122 118 120 120 118 119 121 122 119 123 120 110 104 104 107 104 110 110 117 115 116 115 121 115 119 118 120 118 119 118 121 120 122 121 123 121 122 122 120 119 114 117 118 120 118 117 117 116 114 117 
134 131 128 124 126 125 126 127 127 121 126 123 126 124 125 126 122 122 124 122 123 125 123 123 124 124 122 122 124 123 121 118 120 118 117 121 120 121 121 123 119 103 93 98 108 106 112 108 114 114 116 117 115 116 119 117 119 115 115 117 118 116 121 121 120 122 119 125 117 115 115 119 119 118 117 115 113 116 115 112 
135 130 128 129 126 126 125 125 126 123 126 127 124 127 124 125 121 130 123 125 124 124 125 123 122 120 121 122 123 124 122 116 117 121 119 118 118 121 120 123 120 76 53 71 104 109 111 106 111 112 113 115 112 112 116 116 118 116 117 119 118 119 122 120 121 120 123 121 114 116 116 116 119 116 117 114 112 112 113 111 
135 134 131 124 131 126 124 124 123 122 126 126 124 123 124 121 120 121 122 124 124 122 124 126 121 124 120 122 121 123 119 118 117 121 121 115 119 121 119 121 112 40 16 50 99 106 107 108 110 112 110 111 114 114 116 117 117 113 114 117 119 118 121 118 121 120 116 121 118 112 117 114 117 118 116 115 113 111 114 107 
136 133 131 131 129 127 121 123 125 123 124 122 121 124 124 123 124 123 122 127 122 120 120 119 124 121 120 121 119 121 122 116 117 121 124 118 119 116 117 121 110 29 7 40 96 102 104 107 110 108 110 108 111 114 119 116 115 114 113 118 120 118 119 119 117 115 118 120 117 114 111 114 117 115 116 114 111 109 107 109 
134 132 132 127 127 125 125 121 125 121 123 120 121 122 122 124 122 119 123 122 124 122 119 123 123 117 123 116 118 119 117 113 115 120 123 113 109 112 115 121 104 17 0 36 92 99 101 104 108 107 109 108 112 110 117 118 117 114 117 117 115 114 120 117 118 114 119 122 116 114 116 115 117 114 113 112 107 106 109 110 
132 127 132 125 129 126 123 123 124 120 121 121 124 121 122 123 118 116 124 118 122 120 121 122 125 122 118 118 119 118 118 117 116 114 115 113 113 114 112 116 103 15 3 42 89 94 102 104 109 107 108 108 111 110 114 119 116 115 117 115 115 119 116 116 116 117 111 115 114 112 110 114 114 110 112 110 107 105 108 105 
135 125 125 125 132 127 123 122 121 118 126 121 123 119 117 118 116 117 123 121 119 118 119 120 121 122 118 118 118 120 117 116 115 114 117 112 113 115 114 113 102 16 6 39 86 96 101 102 108 106 106 108 109 109 113 114 116 109 112 115 114 113 117 115 118 114 116 119 114 111 112 117 115 116 108 108 109 105 107 103 
131 125 126 125 129 125 121 122 122 121 121 121 122 121 119 122 119 114 119 119 116 116 119 119 118 122 123 116 118 117 117 112 116 114 115 112 114 115 109 109 101 19 6 40 86 94 99 103 108 105 106 105 104 108 111 113 112 113 112 111 114 110 115 110 115 116 112 116 112 111 114 115 116 113 110 107 106 103 105 99 
129 127 126 125 121 125 119 120 121 122 121 121 121 122 121 119 116 119 120 117 121 120 116 119 117 117 118 117 116 114 115 113 113 112 114 113 110 111 111 111 99 16 4 37 84 91 100 102 103 104 105 106 104 101 108 106 111 112 110 111 113 112 114 112 115 114 114 117 111 110 115 114 113 112 109 107 107 99 109 101 
132 131 126 124 123 123 121 121 121 122 120 118 131 121 119 119 114 118 115 122 118 120 118 123 119 118 114 118 116 115 115 114 111 113 113 112 110 113 108 109 92 12 9 29 83 95 105 103 108 103 105 108 105 107 103 102 107 111 109 108 113 113 115 119 116 116 113 114 114 111 109 116 115 112 111 112 110 107 105 103 
127 125 125 127 125 121 118 123 121 123 122 118 122 124 118 118 113 116 116 117 115 117 115 116 113 111 115 111 116 120 112 110 112 111 114 110 110 111 109 109 93 10 8 22 82 94 103 102 106 105 102 104 105 104 102 105 110 103 108 110 113 113 113 119 114 113 108 111 109 108 113 113 111 113 109 109 106 102 99 100 
129 129 124 125 125 124 124 125 120 122 124 121 120 118 115 114 116 113 116 115 116 115 115 116 113 113 112 113 117 112 110 106 110 112 112 110 109 113 111 108 90 14 6 18 74 97 104 102 105 108 102 103 104 100 101 106 104 104 107 110 110 109 111 113 116 115 112 112 107 108 113 111 112 109 105 109 100 98 99 99 
125 124 124 124 123 118 120 120 120 121 119 123 120 114 113 112 112 112 117 116 116 113 115 111 110 112 111 114 116 112 107 110 109 112 112 108 113 110 106 107 90 27 5 32 80 97 101 102 106 106 103 105 102 99 98 105 102 103 111 110 113 110 111 112 111 111 109 111 107 102 109 112 108 107 106 106 104 98 99 97 


