P2
80 60
130
114 117 115 118 111 106 102 108 109 106 116 107 108 108 114 116 111 118 117 114 113 113 113 113 115 118 123 119 122 117 120 117 121 121 117 120 117 117 116 117 120 119 121 117 120 120 123 119 119 117 116 120 120 124 122 123 125 125 120 120 121 120 122 117 116 118 112 109 113 109 112 110 106 112 116 110 107 104 106 104 
115 118 120 115 108 106 99 109 106 110 109 108 108 108 116 115 110 110 113 113 112 119 118 112 114 120 125 118 119 113 119 124 117 119 116 120 117 116 118 119 121 118 120 122 118 121 118 121 118 119 118 121 119 119 124 122 126 120 121 119 120 118 117 118 113 113 113 112 110 110 109 110 109 110 115 110 106 106 105 107 
113 119 116 110 108 108 99 104 108 102 111 114 107 109 116 114 109 111 109 116 117 118 117 113 112 120 123 119 115 112 117 117 116 120 122 117 117 119 119 117 120 122 117 118 121 122 124 120 119 122 118 122 119 119 126 122 123 122 120 122 120 120 112 120 116 113 112 113 112 110 115 109 108 107 110 113 118 109 109 110 
115 119 118 113 114 105 101 104 106 107 111 111 105 109 115 110 113 112 111 113 113 110 116 113 122 118 119 119 118 115 118 120 117 119 118 115 118 120 120 120 122 118 121 120 120 120 122 120 122 118 117 122 119 118 118 120 123 120 119 121 122 119 117 117 115 113 114 114 113 112 111 119 108 107 111 107 107 110 108 109 
115 118 118 114 111 107 99 102 107 108 112 109 107 110 115 116 110 110 114 115 108 112 112 115 120 123 125 119 120 117 113 113 113 118 115 118 119 120 121 116 120 120 120 118 119 118 124 124 120 121 119 120 118 119 122 122 124 122 121 123 123 116 114 119 114 114 112 116 111 112 113 111 111 111 112 108 107 106 108 108 
114 118 114 121 110 103 99 103 106 103 112 109 106 109 113 110 107 112 111 112 111 112 114 116 118 120 123 117 116 117 115 112 114 116 120 119 117 119 118 116 123 116 118 119 117 117 122 120 120 120 118 120 120 121 119 121 122 121 123 123 120 117 116 118 115 112 112 112 117 111 111 112 110 111 111 107 107 109 109 109 
116 116 114 114 110 105 99 104 104 103 108 108 104 112 112 106 112 107 112 112 108 112 112 114 121 121 120 117 119 114 111 112 113 119 117 120 121 116 118 118 116 118 117 119 118 120 121 119 119 119 117 122 121 119 116 120 124 127 128 122 118 119 117 116 116 114 111 119 114 111 107 111 109 105 111 111 105 107 109 108 
114 119 116 114 111 110 104 104 109 107 108 106 107 109 112 109 105 107 112 109 115 109 113 114 115 125 118 114 118 115 112 112 113 115 120 122 120 116 116 116 119 118 117 118 119 120 120 117 116 120 121 118 121 118 120 120 124 123 123 120 120 118 117 119 118 114 111 114 120 113 108 111 109 105 109 104 106 104 110 109 
115 120 118 116 109 104 104 103 105 106 113 110 106 106 112 110 110 112 113 113 108 110 114 113 118 118 120 114 123 118 119 112 117 116 117 118 118 118 116 115 116 116 118 118 116 121 116 116 119 121 117 121 120 120 117 120 120 119 120 120 115 117 119 116 116 113 115 118 114 109 110 113 109 110 113 108 105 106 110 111 
116 120 118 117 113 111 100 103 107 103 112 112 109 105 111 111 112 110 110 109 108 112 113 114 115 118 117 117 117 114 117 116 115 116 117 121 116 114 118 118 118 115 119 118 119 121 121 115 118 123 118 120 120 118 117 119 122 119 123 121 123 121 117 117 112 113 119 115 116 109 110 114 112 106 114 110 108 113 111 112 
115 119 116 121 113 106 104 100 104 103 103 107 106 103 110 109 105 108 111 108 106 108 112 110 113 116 117 118 115 111 115 116 115 112 117 118 115 115 115 119 115 116 117 115 114 119 118 116 114 119 117 122 119 116 118 121 123 119 120 121 121 122 116 117 114 118 117 118 112 110 109 111 112 109 110 115 111 108 109 106 
112 123 122 120 110 102 99 106 101 98 106 105 103 102 104 104 104 102 107 108 104 104 107 111 110 114 118 115 113 107 114 117 113 115 117 114 110 112 113 116 114 116 115 114 117 116 115 115 119 115 114 120 120 114 118 118 118 121 119 116 120 120 118 115 117 114 114 113 113 105 104 109 112 109 110 113 109 102 105 104 
114 123 118 121 106 101 93 101 98 100 105 106 98 103 105 104 99 100 104 102 103 106 109 112 113 116 117 117 114 113 113 111 113 116 117 112 111 114 111 112 113 112 117 116 118 118 119 118 116 117 118 120 119 116 120 118 121 118 118 115 116 121 122 115 115 109 114 114 113 110 99 107 105 105 110 111 111 108 106 109 
115 122 116 119 102 92 86 99 96 98 99 99 99 100 105 102 101 101 105 103 103 102 108 108 111 114 112 114 111 109 110 112 109 113 115 117 111 118 111 113 114 111 112 112 116 122 123 118 119 122 115 117 115 116 117 119 119 122 121 118 119 118 118 120 113 113 114 115 109 105 109 109 111 107 111 110 107 106 111 102 
116 111 116 114 90 65 67 88 95 98 100 96 95 97 100 103 99 102 103 107 101 100 108 111 109 112 110 110 111 109 110 107 108 107 114 113 111 109 109 114 113 112 111 111 112 116 116 116 117 119 115 118 116 118 116 119 122 130 120 120 115 115 118 115 114 113 114 114 111 107 109 106 113 110 113 111 103 108 106 104 
115 119 118 113 74 35 41 87 94 97 99 99 93 95 103 100 98 103 104 102 99 102 100 104 108 112 111 109 108 108 111 110 109 108 112 115 107 107 111 113 114 111 111 112 112 115 112 114 118 118 114 118 114 118 116 116 118 122 122 115 115 116 115 114 114 116 113 111 114 105 106 112 114 110 107 113 104 107 110 108 
113 117 114 109 73 8 20 82 93 97 96 98 93 94 101 99 96 98 102 102 99 95 100 103 109 113 109 109 110 108 105 109 110 110 113 113 109 108 111 111 109 110 113 111 114 116 117 115 115 110 112 116 116 116 115 116 123 123 120 117 114 117 115 114 109 113 112 116 115 109 109 112 116 109 111 110 104 108 110 102 
112 117 114 114 64 5 15 81 89 92 98 94 93 94 98 96 96 97 103 106 96 98 104 104 105 112 109 108 109 105 108 106 111 107 111 113 109 107 111 115 110 109 113 110 111 114 112 113 113 115 112 114 113 118 118 118 118 125 118 115 117 113 114 114 109 110 110 111 115 112 113 115 114 109 110 107 104 107 109 105 
109 116 110 111 67 0 12 76 86 84 94 98 93 95 95 98 93 99 106 104 97 96 105 106 106 106 108 108 113 105 104 109 110 110 116 113 110 110 113 111 111 111 108 110 111 108 113 110 110 112 117 117 115 116 115 120 120 121 120 117 115 113 108 115 114 109 114 116 115 112 112 111 109 108 110 108 105 106 111 107 
111 113 110 109 66 3 12 72 88 91 93 98 96 92 99 98 96 96 98 98 96 105 103 107 110 108 109 109 114 108 108 108 110 106 114 111 107 108 109 112 108 109 108 109 108 110 109 110 111 112 116 114 111 111 112 116 118 118 119 114 117 117 115 113 109 110 111 112 111 109 112 113 110 105 110 105 104 103 107 107 
111 113 109 111 71 2 11 68 87 91 95 97 97 99 99 92 90 92 95 96 92 99 106 107 108 105 106 108 110 108 114 104 105 103 110 110 107 107 108 106 108 108 107 107 109 106 108 108 112 113 108 112 114 113 112 114 115 115 115 116 114 117 116 112 111 111 112 113 113 112 110 114 110 106 109 107 108 107 106 112 
108 112 108 105 74 0 8 58 88 90 92 96 101 96 96 93 93 88 89 94 93 96 99 100 103 108 106 106 108 102 104 102 104 106 115 112 107 107 110 105 107 104 104 104 104 110 108 109 110 110 109 111 114 113 113 115 112 112 114 112 116 112 115 112 107 114 114 112 115 115 114 115 114 111 109 105 111 103 109 109 
107 110 107 116 79 7 5 48 91 91 92 99 99 99 93 97 88 86 86 91 90 91 96 98 103 103 106 106 110 104 104 103 102 104 113 108 106 106 105 106 105 101 102 102 108 104 110 109 108 110 110 111 110 112 112 113 112 111 113 111 118 117 114 107 110 120 120 114 112 114 114 115 116 110 111 107 108 109 110 109 
110 109 108 108 83 4 5 39 85 90 95 97 101 93 92 87 87 84 85 91 91 92 99 95 105 105 103 103 104 101 99 103 98 102 111 108 103 102 102 103 103 102 103 102 101 104 107 110 107 114 107 107 110 112 114 112 114 112 112 110 112 113 115 110 110 111 117 113 114 114 111 112 110 109 110 111 107 106 114 110 
107 110 106 103 78 9 3 32 83 89 96 98 98 92 91 90 90 86 87 91 91 92 93 97 103 103 105 105 109 99 101 99 103 104 112 106 104 103 102 103 103 101 102 101 103 103 110 106 110 110 107 108 107 107 111 109 113 110 111 112 114 114 110 107 112 113 116 115 113 112 110 113 111 114 112 111 107 109 115 115 
108 109 107 106 88 23 4 25 80 95 99 100 96 96 92 90 86 89 84 92 90 94 91 95 100 104 107 102 110 102 101 99 100 102 107 106 104 101 105 105 104 101 100 103 101 108 110 112 108 108 107 112 109 109 108 111 111 109 114 115 117 115 109 108 112 114 114 111 113 112 112 111 114 111 112 107 106 108 111 112 
106 110 105 101 92 44 19 42 87 93 100 101 97 95 89 88 89 87 86 88 90 90 100 98 103 102 107 104 101 99 100 102 98 106 109 105 103 96 102 101 104 102 102 101 100 104 110 107 106 105 106 107 109 105 109 114 111 113 113 112 111 109 105 106 112 115 115 111 111 112 111 112 112 106 110 106 104 106 111 110 
105 108 106 105 99 73 38 64 93 95 96 98 97 96 93 87 84 84 81 90 93 87 91 98 102 105 102 100 102 100 103 97 93 97 105 102 98 97 100 103 97 100 102 101 101 100 105 103 104 105 105 107 106 105 105 105 113 108 109 111 110 104 107 108 112 114 114 113 112 111 111 108 109 110 109 105 103 105 111 109 
105 109 105 105 103 96 73 90 99 96 97 100 96 97 97 93 88 86 87 94 93 89 88 94 99 95 96 100 100 95 99 95 96 98 105 101 100 100 104 103 99 101 103 98 99 102 103 103 104 107 104 104 103 107 103 106 110 102 110 108 108 106 108 113 111 110 115 114 113 109 110 112 110 109 110 105 105 109 106 110 
106 106 108 107 104 102 89 90 102 103 97 98 95 99 97 97 91 89 89 90 92 93 92 91 97 99 98 101 101 98 96 100 95 98 106 101 98 101 101 101 99 101 102 101 98 100 101 107 106 107 103 104 104 103 107 110 108 109 106 107 103 104 106 112 110 111 115 115 113 106 110 109 110 106 109 108 105 108 108 109 
107 109 106 108 103 101 95 98 103 102 100 103 97 98 98 99 98 93 92 92 90 90 93 99 99 100 101 100 102 95 96 98 96 99 106 100 97 97 103 100 97 103 105 101 100 100 102 107 103 104 103 102 109 105 103 108 110 106 108 104 104 106 107 108 110 109 112 115 112 108 109 111 109 108 108 108 106 107 102 105 
105 114 111 106 102 99 95 96 103 102 102 99 98 96 100 98 100 94 95 93 92 88 95 96 100 99 102 102 100 96 98 101 97 101 108 101 96 97 99 98 100 101 101 102 100 102 103 105 105 108 101 101 104 107 107 109 107 109 108 105 107 110 110 112 109 107 115 116 114 111 111 111 110 105 109 109 105 101 105 104 
107 112 112 112 102 101 97 94 99 102 106 106 99 100 98 97 101 97 92 94 96 94 94 97 102 103 100 102 103 101 102 101 98 100 111 104 96 95 100 100 101 103 102 99 98 102 107 102 105 103 102 103 106 103 106 109 108 111 107 104 108 106 112 114 116 115 112 117 117 114 112 114 110 103 110 110 99 103 111 108 
102 106 107 104 104 98 97 91 100 103 102 104 96 96 98 97 101 98 94 99 98 94 96 99 101 103 104 104 102 103 101 99 96 98 108 101 95 96 99 100 99 102 102 98 98 103 101 102 100 105 100 106 102 102 107 109 110 109 106 104 107 109 109 114 117 114 113 112 112 107 110 117 106 106 109 108 105 106 106 107 
104 105 105 101 103 101 95 90 100 101 100 102 98 96 97 97 98 96 95 98 99 97 96 100 101 105 101 101 103 100 101 101 95 97 109 99 95 97 101 101 103 102 100 101 99 98 102 102 101 104 103 105 105 101 104 106 109 109 106 102 104 104 109 110 113 110 112 111 115 107 109 107 108 104 105 104 102 103 106 107 
102 106 102 105 100 104 96 89 96 100 99 101 96 96 99 101 97 98 96 98 99 97 99 99 103 101 102 102 100 99 103 101 91 96 106 98 97 92 99 100 99 103 102 98 99 96 101 104 101 104 102 103 104 102 103 107 110 106 107 106 101 105 111 109 111 108 112 113 116 109 109 107 109 103 104 102 103 110 107 108 
102 106 104 107 101 102 95 91 94 103 103 97 97 95 103 98 99 100 97 99 98 98 99 99 98 102 104 103 104 100 103 98 94 96 106 95 95 91 94 97 100 96 99 98 98 98 97 99 101 104 101 103 103 104 104 99 109 104 105 109 106 107 106 113 112 109 112 112 114 109 109 108 105 105 105 101 107 108 109 106 
107 106 102 108 101 101 97 94 91 97 101 101 96 96 100 101 102 101 95 99 100 100 101 98 100 102 106 100 102 101 103 100 93 97 107 99 91 92 92 98 98 97 101 100 107 100 96 100 97 103 101 103 104 103 106 105 108 107 106 106 106 109 109 109 111 112 113 110 112 107 108 108 106 105 109 109 106 107 111 109 
102 107 108 106 99 102 96 94 90 95 103 104 99 100 99 101 100 102 98 101 99 98 98 101 101 102 104 101 103 100 102 101 92 101 106 94 90 89 95 93 93 94 99 96 98 98 97 96 98 100 100 105 106 104 104 104 111 106 106 106 106 108 110 112 109 110 113 112 108 110 110 107 106 103 105 104 103 102 112 111 
102 103 103 106 100 96 92 92 92 92 107 102 96 95 97 96 99 99 97 96 97 99 97 104 103 101 106 104 103 101 101 97 95 100 101 96 94 91 92 92 91 94 94 93 94 100 100 98 98 101 101 102 105 103 107 106 108 107 109 105 105 107 114 109 109 107 109 111 110 108 105 105 106 102 106 107 105 109 110 110 
99 107 100 105 99 101 93 92 91 93 98 101 97 99 96 101 99 100 97 97 101 99 101 101 103 104 106 104 103 101 100 99 96 103 101 99 93 94 93 92 94 95 96 94 99 103 101 100 100 108 104 110 109 112 109 108 109 107 106 106 104 113 111 108 110 110 111 110 108 107 106 107 106 109 108 108 106 105 117 113 
99 108 103 107 101 98 95 94 93 93 96 99 97 98 101 100 97 98 96 97 98 102 100 101 102 107 103 105 105 103 101 97 93 98 101 101 94 93 94 95 94 96 99 98 100 100 106 102 100 104 103 107 109 111 108 108 117 109 109 111 110 111 111 111 111 112 111 106 110 104 106 103 108 103 105 103 104 105 105 110 
101 100 109 99 97 96 90 91 93 93 99 98 96 98 98 99 98 99 95 97 98 101 103 100 100 103 103 100 106 101 103 97 91 101 101 101 92 93 95 96 90 92 97 98 101 99 107 105 103 104 104 107 104 105 106 110 109 106 109 113 113 114 116 115 112 108 109 109 108 108 106 105 103 101 104 102 100 106 106 107 
102 104 103 103 98 99 92 90 90 93 95 98 97 95 100 96 99 97 101 99 97 101 102 100 98 101 102 100 109 99 101 97 92 97 102 95 94 95 95 97 97 92 98 97 98 105 108 113 104 105 104 107 109 109 112 111 114 115 114 114 114 110 116 114 113 108 110 108 108 106 105 107 103 103 105 103 103 103 108 105 
101 105 101 100 104 98 90 88 92 94 98 95 98 98 100 98 97 98 96 95 101 99 101 97 106 104 99 99 104 100 103 98 94 101 105 95 96 97 95 97 91 97 92 100 103 108 110 107 110 109 106 110 112 113 116 111 117 117 116 115 113 113 115 115 111 109 109 111 108 106 107 105 105 104 106 106 104 106 105 105 
101 105 101 103 105 97 92 90 94 95 97 97 99 104 106 101 99 99 99 99 97 101 100 102 101 103 102 102 103 98 106 98 95 101 102 96 93 96 96 101 95 97 101 104 109 112 115 113 115 118 117 116 113 112 113 114 113 112 115 112 117 115 114 114 109 114 110 110 108 105 104 107 107 105 108 103 103 105 107 109 
101 106 99 100 101 100 90 91 94 94 99 99 97 101 98 101 98 98 101 99 103 102 97 103 101 104 103 97 100 92 95 95 92 98 104 97 94 98 94 96 98 103 103 106 107 110 115 115 114 118 113 117 116 113 111 114 115 112 112 114 112 112 112 118 108 112 110 109 107 106 107 107 106 105 106 103 104 101 106 101 
103 104 100 100 99 100 95 96 93 96 100 96 95 99 101 98 97 100 100 98 100 99 99 96 99 100 102 94 95 94 93 93 91 99 102 94 94 99 98 102 105 110 110 111 113 113 118 116 114 118 115 115 115 114 113 116 117 116 113 110 114 114 111 109 110 109 115 109 107 108 106 108 108 105 108 98 102 105 101 104 
101 106 99 101 101 105 99 98 98 93 99 94 96 101 101 94 98 97 94 95 93 98 101 98 96 99 99 95 93 97 96 92 91 99 99 95 94 98 98 102 107 107 107 111 114 116 116 114 113 116 115 117 114 115 113 117 119 117 112 114 114 117 113 114 111 109 110 109 109 108 108 109 111 106 108 104 104 102 102 107 
102 105 102 105 105 104 101 98 98 94 97 95 97 95 98 99 96 96 94 94 97 98 97 97 96 95 97 94 95 98 98 93 94 101 100 94 93 101 99 103 106 105 110 111 112 114 115 115 115 116 116 112 116 116 115 116 116 115 113 116 117 114 110 111 108 110 108 110 111 107 106 111 111 105 106 104 104 102 102 109 
98 108 103 107 107 102 103 100 99 96 93 94 97 94 99 98 96 91 97 96 95 98 95 97 95 96 97 94 99 97 96 93 93 101 98 98 95 97 102 103 106 107 114 112 115 117 109 111 116 116 116 117 115 116 114 116 116 119 116 114 116 114 111 109 108 106 111 109 113 109 108 109 106 107 106 105 103 106 107 104 
101 106 105 103 105 106 101 98 99 94 95 92 89 96 97 94 92 95 94 94 98 98 95 97 98 98 96 97 98 96 97 92 95 97 106 95 96 96 100 103 105 110 109 115 109 112 112 112 113 115 116 114 117 117 116 115 118 115 116 116 112 113 110 112 111 107 111 111 110 108 106 108 108 104 105 107 106 103 102 99 
104 103 102 104 106 107 101 101 102 96 100 99 94 96 98 100 93 93 97 97 97 98 96 103 102 99 96 97 98 95 98 96 92 95 100 93 93 95 100 106 106 106 108 112 108 108 110 110 112 116 117 112 116 118 115 118 116 118 121 113 112 111 113 113 109 112 111 108 107 107 107 109 107 104 104 103 103 105 102 100 
103 108 102 108 111 105 103 100 100 97 100 97 98 92 101 102 93 98 98 95 98 101 100 102 102 100 99 103 100 98 100 95 96 97 98 95 97 94 102 106 104 106 108 109 110 110 112 111 112 116 116 118 120 114 115 118 118 117 118 115 114 113 114 111 110 110 112 110 110 107 110 114 107 105 109 104 102 102 103 104 
103 104 104 105 105 105 101 100 101 101 103 102 101 99 101 103 98 92 98 99 97 101 102 104 102 102 107 100 101 97 99 96 95 97 93 98 93 96 98 101 103 106 112 110 111 105 108 112 110 113 114 115 117 122 115 117 116 117 116 114 116 116 114 110 113 109 110 110 107 107 112 114 105 105 105 104 104 104 103 104 
101 104 104 106 103 106 101 99 99 102 102 106 101 103 107 102 99 99 105 99 100 103 105 103 101 105 103 102 102 99 98 97 96 97 95 96 95 96 96 98 102 107 106 113 110 108 110 111 107 115 114 116 115 116 113 115 118 120 118 114 114 110 112 113 112 110 114 109 108 111 112 109 105 103 107 103 100 101 109 105 
100 104 102 107 103 104 101 99 98 102 101 104 110 103 106 103 100 99 101 104 103 105 103 105 101 104 100 104 102 97 98 98 96 97 91 94 93 96 96 99 102 106 109 112 110 111 113 109 111 110 113 113 116 116 117 116 115 117 113 114 114 111 113 114 113 111 111 110 115 109 109 112 110 102 105 105 104 104 103 104 
100 104 104 103 104 105 100 101 103 101 104 104 105 105 103 104 101 103 107 102 103 105 104 101 101 98 100 97 102 97 99 95 96 98 95 93 96 93 101 99 105 105 112 111 106 108 111 108 109 112 112 115 113 116 112 116 119 114 115 113 112 114 112 111 109 114 109 105 110 110 113 110 105 105 104 102 103 108 102 107 
103 104 98 107 104 107 103 103 103 110 105 105 103 102 102 101 104 101 103 100 104 104 102 103 98 100 101 100 100 98 94 96 97 97 94 94 95 95 99 99 103 105 109 109 105 109 119 110 107 112 111 115 117 118 121 117 121 116 114 114 112 115 111 110 111 112 111 108 110 107 108 109 111 110 107 106 102 101 102 103 
101 102 103 106 108 105 100 102 99 99 101 103 102 103 103 104 101 105 103 103 101 102 105 101 98 100 102 98 100 99 97 97 96 98 98 98 100 99 101 99 102 110 103 108 108 112 108 107 107 112 111 113 114 116 120 116 119 115 113 114 111 110 112 109 112 108 107 112 103 106 108 108 110 106 103 102 100 101 102 104 


