P2
80 60
303
162 160 162 151 150 151 154 155 155 155 153 158 149 142 137 98 45 54 85 108 116 107 111 120 125 129 125 124 129 124 129 130 133 125 131 130 129 129 128 121 110 118 128 130 132 126 132 137 143 140 143 142 146 143 146 143 144 141 147 139 140 140 140 137 139 135 135 130 137 138 134 136 132 132 139 138 138 142 138 141 
162 157 159 153 150 158 154 157 158 154 157 149 147 142 131 85 41 47 72 98 110 102 112 123 125 126 128 125 127 126 129 125 129 129 128 127 128 129 122 118 109 118 130 132 130 131 129 137 139 138 142 141 141 142 147 147 145 141 147 137 140 139 137 139 142 133 133 129 132 134 133 137 131 132 138 138 141 140 141 135 
161 158 159 152 150 156 155 154 157 155 154 148 145 140 128 81 30 34 62 97 112 108 113 123 128 128 127 129 129 127 130 128 127 128 129 128 126 124 127 121 108 120 126 128 133 127 131 141 143 138 139 140 141 140 144 144 142 142 143 139 140 140 140 142 138 134 136 135 132 133 135 133 132 134 138 139 144 146 144 136 
160 155 154 154 150 154 153 157 153 154 153 149 143 139 127 74 34 34 60 97 105 106 114 121 125 128 128 130 128 125 134 130 134 127 128 126 126 129 128 121 107 121 130 129 132 131 133 139 146 143 141 137 144 142 142 144 143 141 143 142 142 138 141 142 138 133 138 134 134 134 137 137 132 134 135 137 140 143 140 141 
161 159 155 150 150 157 155 154 155 154 152 152 143 139 126 73 27 30 58 89 102 103 117 128 134 132 129 128 125 125 130 131 139 126 126 129 121 130 127 120 104 118 129 132 132 132 134 140 144 145 142 141 142 141 144 142 141 142 144 142 142 140 141 145 138 139 140 140 134 137 138 135 132 132 140 138 141 141 136 141 
159 157 154 153 148 153 154 154 158 155 153 152 144 139 127 71 26 41 58 82 105 106 114 121 129 128 126 132 126 124 127 128 128 125 124 125 124 126 128 119 108 119 131 131 133 131 137 136 142 145 140 145 148 144 148 148 144 143 145 143 143 137 140 145 141 141 137 141 138 136 138 135 133 134 141 138 144 147 141 141 
166 156 154 148 145 152 154 157 159 151 148 148 146 140 130 68 35 42 63 83 105 105 117 121 124 128 124 129 126 125 128 126 130 125 128 126 126 129 126 122 106 120 129 130 129 132 134 144 145 143 144 142 145 144 147 145 144 150 150 138 142 138 139 140 139 138 136 135 138 137 137 135 132 135 141 142 147 150 141 141 
160 159 158 147 147 156 149 154 156 152 147 148 138 136 126 65 26 49 60 88 102 105 116 118 124 129 123 126 124 125 128 124 127 124 126 130 127 125 125 121 106 113 128 130 134 130 137 137 140 142 141 141 148 144 145 146 143 147 151 142 140 142 141 140 138 139 138 139 139 137 135 133 135 133 138 139 144 141 145 130 
162 159 155 149 150 150 153 156 159 153 149 147 141 141 118 63 33 48 67 87 102 105 110 118 124 121 122 123 126 125 129 125 128 127 127 126 126 126 124 117 108 118 127 131 132 131 132 137 141 141 142 141 146 144 145 144 143 144 142 144 139 141 142 140 141 140 138 136 135 138 136 133 133 132 135 135 140 139 141 140 
162 158 159 151 148 153 156 156 159 153 148 147 134 137 118 66 27 47 61 85 96 101 104 114 116 121 117 124 126 123 125 122 126 128 125 126 126 125 123 119 109 118 129 126 131 129 128 133 142 145 141 138 146 143 142 142 142 137 143 141 141 138 143 140 139 138 141 137 138 136 130 135 131 134 132 133 138 137 138 139 
163 159 155 151 146 152 157 152 157 150 147 146 134 139 117 59 15 29 51 69 89 94 102 111 114 112 117 124 122 122 127 122 127 126 125 129 126 125 126 117 108 116 124 126 130 128 133 133 142 141 137 140 140 143 144 147 141 142 143 144 142 139 140 141 140 135 137 141 134 139 138 130 134 129 135 137 140 137 139 134 
164 158 157 150 145 152 156 155 156 151 149 152 134 136 118 53 5 18 41 56 78 94 99 107 108 113 111 119 122 123 125 123 128 126 124 124 123 124 123 117 108 116 127 127 131 131 132 140 144 146 142 139 143 141 144 142 142 141 143 139 142 141 140 138 138 136 137 135 134 136 135 132 133 132 139 138 142 143 139 141 
161 156 154 153 139 149 156 147 154 150 149 140 134 130 111 45 3 14 35 45 72 95 96 102 107 107 109 119 115 117 126 121 123 121 125 122 122 122 121 116 108 115 126 127 133 126 136 140 140 141 139 139 140 138 141 142 142 143 140 139 143 140 144 138 138 137 134 136 132 134 123 129 134 131 139 138 147 143 142 142 
157 156 154 145 145 152 152 149 152 149 149 146 136 133 108 49 6 13 26 40 76 83 90 100 106 109 111 111 113 113 121 123 122 124 126 122 121 121 120 116 105 113 127 128 128 132 131 142 142 144 137 136 140 142 144 145 144 147 146 142 142 141 141 137 139 137 136 139 134 134 132 131 131 130 138 139 141 147 133 138 
157 157 153 147 142 151 153 152 153 150 147 146 137 135 114 51 5 7 27 46 71 79 84 95 101 109 117 118 116 114 119 117 121 124 124 122 122 122 122 115 107 114 126 125 123 125 130 137 144 146 139 139 139 140 144 148 146 157 145 140 141 141 140 141 140 137 137 139 132 134 133 134 133 135 139 137 141 143 137 142 
159 155 153 149 149 143 151 152 160 150 145 148 138 138 115 51 6 5 28 51 68 79 83 89 100 115 123 123 118 113 118 120 119 119 123 123 122 120 119 114 103 118 127 123 120 123 127 136 141 139 139 137 142 140 144 147 144 145 147 143 143 140 146 138 139 140 139 137 136 133 132 135 135 132 138 135 139 143 140 138 
158 158 156 150 137 136 147 148 154 150 145 151 137 137 114 53 14 8 25 48 68 73 79 83 96 120 130 127 118 114 118 117 118 123 122 120 123 119 120 116 101 119 126 123 122 125 129 142 139 140 139 138 142 141 147 146 146 146 143 141 143 141 143 142 139 138 138 138 136 136 135 137 135 131 138 138 138 142 143 141 
156 153 155 142 133 134 144 149 154 151 150 147 137 140 113 56 11 5 21 42 66 70 78 84 99 120 113 117 109 107 115 116 121 122 122 123 121 122 118 117 105 118 121 124 124 129 127 137 139 140 139 138 139 141 148 145 145 152 145 143 146 141 138 137 138 140 139 139 133 133 134 135 130 131 138 135 138 140 138 138 
156 153 148 148 127 121 142 146 152 151 147 149 140 135 113 54 7 9 27 34 60 73 80 90 96 119 120 118 106 110 117 116 121 122 125 123 121 122 122 116 102 121 125 127 126 124 127 134 140 139 140 140 147 145 146 144 144 144 145 141 141 138 138 142 140 138 139 137 138 139 137 135 135 134 135 135 140 140 136 140 
152 153 148 139 127 123 139 148 153 147 148 145 140 139 105 61 9 6 27 36 62 79 86 89 105 117 119 116 108 111 115 114 117 117 119 118 119 123 121 119 99 117 125 122 128 124 131 137 139 141 138 141 144 141 143 145 140 143 144 139 144 140 140 140 137 133 136 136 137 137 136 136 136 130 138 137 138 139 141 137 
154 151 145 127 118 119 126 143 152 151 148 149 145 138 111 57 7 6 28 36 61 84 92 104 108 110 113 120 117 119 119 111 115 119 119 121 120 122 122 113 107 118 126 125 126 123 130 136 140 143 139 141 145 141 149 144 143 139 145 141 143 137 141 140 137 135 135 137 137 138 141 137 134 132 137 137 141 145 144 144 
152 148 146 131 110 112 125 146 149 151 146 150 146 141 108 56 5 3 22 37 67 85 93 97 106 105 106 116 118 120 126 115 119 116 117 117 120 118 127 109 104 111 122 122 125 124 126 135 138 140 140 140 144 145 144 142 140 140 145 141 143 140 140 141 140 138 140 137 139 139 137 135 137 135 140 139 143 144 143 142 
152 148 144 132 120 114 128 140 149 149 143 151 145 139 109 59 7 2 24 34 63 85 90 93 96 105 104 114 115 122 124 112 115 114 115 115 116 118 117 114 101 106 126 125 122 122 127 138 138 140 140 142 145 139 144 141 140 140 144 141 142 139 140 141 139 139 138 136 137 138 137 133 137 135 136 139 142 141 141 143 
148 147 139 130 121 116 133 145 150 149 146 148 140 132 105 58 10 7 20 37 68 87 89 92 98 102 102 113 116 114 123 109 114 116 117 116 116 117 116 108 98 112 121 126 123 122 129 137 143 144 142 142 146 142 144 142 142 143 142 140 141 141 142 143 142 138 140 139 137 138 136 138 133 132 134 140 142 145 143 140 
145 142 140 129 124 122 133 139 147 148 145 144 142 127 103 57 14 7 21 36 68 94 90 90 96 101 106 109 113 116 124 110 112 112 111 113 114 117 114 107 100 115 120 123 124 120 127 137 140 143 136 138 144 140 145 145 142 139 144 141 143 142 141 140 141 141 140 137 137 137 137 134 133 134 137 138 141 146 142 141 
139 138 142 125 123 123 132 140 139 146 142 146 137 130 100 57 17 12 18 36 68 91 92 95 95 101 98 104 107 111 123 109 106 109 113 112 113 113 112 107 98 114 121 123 126 124 131 137 139 142 137 137 143 142 141 142 141 142 143 142 141 141 138 140 144 143 141 139 136 137 135 133 132 134 140 140 138 144 148 145 
140 138 138 126 123 122 131 133 142 140 138 145 139 125 95 59 21 17 26 40 69 94 95 92 99 101 104 106 108 101 115 110 106 111 112 112 112 115 115 108 95 114 122 123 124 123 130 135 139 143 137 139 142 137 141 145 140 139 145 141 141 142 141 136 139 138 141 138 135 135 133 136 133 137 138 139 143 150 143 143 
141 139 136 123 118 121 120 131 140 137 142 144 138 122 92 57 24 26 30 41 71 84 94 95 104 108 108 110 106 99 102 105 106 108 109 110 112 112 111 107 93 114 122 122 122 121 128 136 140 142 138 138 140 138 141 141 140 138 147 143 141 138 139 144 142 139 140 141 137 135 136 135 134 139 139 138 140 144 142 145 
142 141 136 112 108 108 116 129 142 140 140 142 139 118 94 59 26 28 32 43 63 73 91 91 99 102 102 108 106 99 99 102 106 111 109 111 106 112 114 109 94 113 120 123 122 121 127 134 136 138 138 141 140 142 145 142 143 139 145 141 138 141 140 140 140 142 136 141 136 139 137 134 132 136 142 141 142 141 143 144 
145 133 136 110 101 109 120 132 142 142 138 140 137 117 90 61 25 37 36 46 57 74 85 90 97 97 102 107 101 100 100 104 101 105 108 109 109 114 113 103 96 108 119 120 118 120 128 135 139 140 140 140 143 140 143 139 140 142 145 141 142 135 141 143 142 142 139 139 136 139 137 137 134 137 142 141 144 146 147 141 
144 133 134 109 95 109 124 134 141 136 136 142 135 117 91 58 28 36 37 44 58 74 82 90 98 98 98 101 101 98 100 98 102 108 111 111 106 112 111 105 101 104 120 122 118 124 122 130 140 141 140 140 143 143 144 145 142 140 142 142 141 136 142 143 141 141 140 140 139 137 141 137 134 138 140 142 144 146 142 140 
142 130 130 109 101 112 128 133 137 140 137 139 133 111 91 61 27 35 40 45 57 68 79 84 91 97 95 101 96 97 99 98 101 102 107 108 108 109 107 103 98 107 116 117 115 118 121 131 138 143 141 135 143 142 145 145 144 143 146 138 141 138 141 138 139 139 139 139 139 138 138 136 135 135 141 138 142 143 143 143 
146 122 128 116 103 119 118 119 133 134 136 133 130 106 88 62 27 35 44 42 57 66 74 85 91 94 96 98 97 93 97 95 99 100 105 110 104 108 109 102 95 108 116 114 114 119 124 135 138 140 140 142 143 139 145 145 139 140 143 139 144 140 143 142 141 143 140 143 137 141 142 138 136 138 141 143 146 145 144 143 
148 118 132 120 107 110 95 94 121 124 120 129 119 94 84 59 26 37 42 47 56 64 70 81 85 91 96 101 90 90 96 97 95 97 103 103 102 107 103 103 88 109 112 110 107 116 124 135 140 142 140 142 143 143 141 140 142 141 143 139 141 143 139 141 141 141 141 141 141 144 141 148 142 143 147 141 146 145 145 149 
148 114 128 107 83 71 80 79 81 91 92 94 77 82 82 62 23 31 45 46 57 63 74 79 90 88 90 89 80 88 91 92 93 96 102 102 103 103 105 100 90 106 110 105 106 114 121 132 135 141 138 142 143 139 145 146 143 146 145 140 140 141 141 142 141 141 143 143 146 149 158 154 153 149 146 148 150 150 146 149 
141 121 119 109 69 63 69 74 74 84 79 72 65 75 81 52 17 32 45 45 53 64 72 80 87 88 90 85 82 86 91 94 98 96 102 102 104 106 105 102 92 101 103 102 103 106 121 132 140 140 140 141 147 148 153 154 153 149 147 144 137 142 142 146 142 142 146 145 146 163 185 184 175 166 157 154 151 153 149 151 
145 118 123 111 79 60 63 71 71 77 75 69 62 73 73 54 13 20 35 40 56 62 69 79 80 88 88 80 84 85 91 94 101 101 107 107 109 113 108 100 87 94 106 100 103 103 118 131 138 141 144 145 149 178 215 204 164 146 153 145 147 143 143 147 142 149 144 146 144 170 191 193 199 196 195 188 183 173 164 159 
144 119 116 113 81 55 62 61 69 69 73 66 66 70 72 51 10 23 37 43 56 60 69 75 80 81 75 78 81 93 124 135 137 139 141 138 138 140 146 141 137 123 102 97 97 102 114 128 139 137 140 142 150 203 245 238 168 155 160 151 147 145 147 147 141 142 145 141 144 169 196 200 203 202 211 214 213 209 203 191 
145 120 115 112 87 51 55 57 63 66 63 61 60 67 68 44 7 15 32 43 54 65 63 72 81 75 68 75 79 123 143 146 152 150 150 148 149 150 151 152 151 138 101 93 97 101 112 127 135 139 141 141 151 213 260 251 177 166 162 152 151 146 146 145 139 138 142 138 143 178 196 203 203 210 214 215 218 220 224 218 
139 121 109 109 88 44 43 45 49 47 54 53 50 58 60 39 0 28 45 48 56 60 58 68 68 65 60 70 95 135 148 145 154 150 152 154 150 152 155 153 147 144 105 91 94 97 114 124 133 136 136 141 151 193 226 224 174 151 160 146 145 140 141 145 140 134 140 141 143 180 201 205 207 215 213 216 223 226 229 222 
137 112 107 107 86 44 36 38 38 39 41 44 48 60 53 33 10 30 38 51 54 52 48 55 57 61 64 71 117 140 150 151 156 157 153 154 156 154 155 153 157 157 121 92 92 94 107 125 132 137 138 145 149 188 202 207 192 160 152 144 142 143 144 141 140 140 141 137 146 190 200 206 206 214 218 226 226 229 236 228 
138 120 99 106 92 47 34 39 39 41 42 47 46 51 50 34 18 25 41 49 53 59 53 58 62 63 64 87 133 145 149 154 158 159 159 160 157 155 158 155 158 154 138 98 91 97 108 124 134 137 139 144 161 180 188 194 187 184 155 145 143 141 141 144 141 141 137 138 146 197 206 205 213 217 220 224 231 237 235 228 
140 126 98 105 95 57 34 32 36 39 36 43 43 38 38 30 28 51 57 51 56 52 57 58 62 67 71 106 140 152 152 154 160 155 159 164 161 159 161 160 161 155 150 105 88 94 109 125 132 136 138 144 162 175 179 186 179 182 167 145 144 144 144 144 143 146 143 138 156 199 209 209 216 219 220 232 234 238 238 235 
151 122 86 102 96 65 32 28 34 31 32 34 24 31 41 58 74 84 80 56 58 56 55 57 58 70 75 123 148 153 154 151 158 158 158 157 159 160 157 160 161 156 152 132 97 100 110 132 132 136 138 146 158 163 172 177 171 167 158 144 140 139 142 145 151 148 150 148 166 212 209 218 217 223 225 230 233 237 240 236 
141 128 85 96 93 62 30 26 32 32 26 26 26 36 46 71 79 88 84 62 57 54 52 57 65 64 93 146 145 151 156 157 158 156 160 157 160 162 161 158 162 156 156 149 123 105 114 127 138 139 140 147 151 155 152 155 151 150 149 140 145 141 139 144 152 150 156 161 180 219 215 221 223 221 227 230 237 239 238 234 
141 126 77 93 97 71 45 35 36 36 33 34 39 51 62 74 79 88 86 64 61 57 58 59 69 82 124 153 148 152 158 153 158 157 159 161 159 161 160 162 160 156 154 158 148 117 113 125 133 138 141 141 151 147 151 151 144 142 146 139 139 139 139 147 153 150 156 164 194 227 224 228 227 227 229 229 234 241 238 237 
141 135 79 95 91 79 54 44 41 44 42 44 47 56 60 75 82 85 82 69 71 67 65 66 76 116 142 151 151 154 158 156 155 156 159 157 156 159 161 156 160 158 157 157 156 153 129 130 138 138 140 141 148 144 151 147 141 143 146 141 144 138 143 144 147 148 152 157 202 244 242 235 234 234 231 233 242 245 240 242 
137 129 82 89 93 86 64 53 53 59 54 60 68 71 76 71 82 88 87 80 90 80 83 88 105 143 148 151 150 153 157 155 158 158 158 161 157 161 162 163 156 155 148 152 161 161 153 136 139 136 140 140 141 142 142 148 144 143 146 141 143 139 142 146 141 146 150 156 175 218 252 255 250 241 241 234 244 253 251 245 
133 132 92 88 96 89 79 83 87 88 92 97 99 103 105 101 96 99 106 109 109 104 111 110 133 147 151 153 149 140 157 160 158 163 162 167 162 163 164 160 157 147 139 147 161 161 155 147 137 135 137 136 141 142 142 146 149 143 150 143 146 142 140 140 143 141 147 153 153 166 198 239 261 260 256 252 254 261 260 253 
137 132 106 95 102 92 88 103 105 105 103 109 114 111 113 116 112 111 114 111 117 111 114 124 145 150 152 155 137 136 156 160 164 160 163 161 160 163 160 160 156 150 141 144 158 160 157 155 144 138 139 139 146 150 150 150 147 151 151 152 152 150 139 139 140 142 150 159 160 157 167 185 223 262 267 274 274 273 270 259 
131 129 106 102 101 95 105 108 106 104 103 104 107 104 109 105 109 109 109 107 115 112 115 125 150 153 151 151 125 134 151 158 160 161 164 161 160 162 163 160 158 145 142 143 156 160 159 156 149 141 138 142 146 149 153 153 151 153 159 154 160 154 143 142 142 142 154 161 159 157 165 159 168 190 238 277 282 291 285 274 
122 117 105 105 109 104 107 112 111 110 104 110 106 107 112 112 105 108 115 110 116 110 112 130 150 152 151 150 128 139 159 158 161 160 167 159 164 162 162 163 157 156 146 146 155 163 158 154 148 143 140 139 147 152 157 155 151 155 157 155 154 154 151 146 140 144 151 156 160 161 159 159 152 161 174 209 257 288 303 300 
103 98 102 104 108 116 111 112 107 108 104 107 104 106 108 107 105 110 111 110 114 108 110 128 146 153 152 154 139 147 162 157 162 159 162 161 159 162 160 158 158 157 152 159 157 160 159 154 151 135 134 132 138 145 145 144 142 147 152 145 138 140 143 142 137 142 146 150 148 152 157 156 157 154 159 159 185 220 272 302 
98 101 99 101 108 113 114 110 111 108 103 104 105 104 108 105 108 107 105 105 111 112 109 127 151 151 153 150 154 158 163 160 164 160 161 161 156 159 160 158 163 158 159 159 164 161 160 158 151 134 131 135 140 139 142 146 143 145 141 135 138 143 140 143 143 141 150 149 153 147 153 155 155 157 157 150 162 173 190 238 
103 102 98 100 108 110 109 107 108 107 107 106 109 105 110 105 105 121 107 106 111 107 106 127 148 154 155 158 160 155 165 162 163 160 164 161 158 160 161 162 157 162 161 159 161 161 155 155 152 144 130 129 144 142 143 141 143 145 141 140 144 146 146 147 143 145 141 141 149 154 156 152 155 155 152 155 156 160 162 173 
106 99 101 103 106 109 109 108 109 106 105 106 113 107 110 107 106 107 110 107 113 109 108 119 141 153 153 157 158 159 163 160 165 162 161 160 158 157 157 157 158 158 160 161 162 160 157 154 151 153 143 135 152 146 149 150 145 144 147 145 144 144 145 153 149 152 154 152 150 154 160 161 156 153 153 154 154 154 158 158 
108 105 102 103 106 110 106 107 107 110 103 108 113 108 111 107 107 110 110 110 113 110 109 115 135 149 154 155 155 163 161 161 165 162 162 159 161 158 157 157 159 158 160 159 165 162 155 152 152 156 151 147 144 149 156 154 151 154 148 147 150 147 146 148 153 152 157 152 153 162 162 159 163 162 157 152 156 156 156 155 
112 109 107 103 112 114 109 108 107 106 103 103 106 110 113 108 108 107 109 109 112 107 107 109 129 145 151 156 160 156 161 156 160 161 164 159 161 159 160 159 159 160 160 163 165 161 157 150 149 150 150 153 150 153 163 169 163 163 161 155 157 149 147 145 148 156 155 158 154 163 162 157 157 167 172 161 158 154 153 153 
112 112 105 102 102 110 113 110 107 110 101 104 107 104 111 107 106 107 106 107 109 105 107 110 125 142 148 152 159 160 160 158 161 162 165 163 162 162 163 161 158 161 163 159 163 157 155 150 148 151 150 156 167 159 168 174 171 168 166 161 158 150 150 151 154 152 154 157 163 162 164 162 164 164 172 177 174 160 151 150 
110 110 112 105 104 109 110 107 106 104 98 101 106 105 107 105 102 106 107 104 109 105 106 104 120 145 147 152 154 154 160 158 159 162 162 163 165 163 160 158 159 162 164 158 161 159 154 146 142 148 151 160 189 185 166 171 170 169 168 163 160 151 147 151 157 154 155 159 165 180 166 171 166 170 176 177 205 188 164 158 


