P2
80 60
148
138 131 136 140 142 138 134 136 137 136 133 134 136 137 133 136 133 130 130 132 133 133 134 134 133 131 136 134 134 134 137 138 137 135 131 132 137 135 135 131 135 133 136 132 130 132 130 132 137 129 127 131 132 133 133 135 132 133 141 130 131 130 132 130 128 127 126 127 126 125 120 122 126 126 131 123 129 127 123 125 
140 141 137 140 138 139 136 136 136 137 134 136 134 140 136 136 136 132 131 134 135 133 134 136 134 133 132 137 133 141 138 136 135 133 133 132 135 134 133 132 135 134 134 133 130 133 132 134 135 132 130 131 127 132 132 131 134 132 134 130 129 129 127 130 129 127 125 126 125 124 121 124 127 126 130 127 132 131 121 126 
138 140 135 136 133 138 136 133 136 135 136 136 132 130 136 134 134 132 133 135 134 132 137 134 134 132 138 136 134 138 139 141 136 132 136 135 136 133 136 132 129 136 133 132 131 132 130 134 133 131 136 129 131 131 129 129 129 134 129 131 129 130 128 131 129 126 124 127 121 126 127 127 126 128 128 126 127 128 121 132 
142 137 138 138 139 136 136 134 134 137 138 134 132 130 131 134 130 135 132 139 134 138 135 137 135 135 137 138 134 141 140 132 135 131 134 137 133 134 132 132 132 132 136 132 132 132 129 133 140 132 132 130 132 132 131 132 130 131 128 126 128 130 131 132 129 128 125 125 121 125 125 127 125 124 127 129 131 128 134 125 
142 135 137 136 138 139 139 134 134 138 135 135 132 132 137 135 132 133 134 137 134 136 135 139 134 136 137 135 133 141 137 134 134 131 131 134 135 133 136 137 133 134 135 133 134 133 133 135 132 132 130 129 132 132 135 131 133 132 131 129 129 128 133 136 130 130 128 122 120 128 125 122 124 117 125 127 127 133 131 126 
137 132 135 137 136 137 133 136 138 136 132 136 134 134 132 136 133 135 134 133 135 136 137 138 135 137 134 138 137 137 132 136 132 131 133 133 131 131 134 131 132 135 135 133 133 135 134 134 133 129 130 132 134 128 133 132 133 131 129 134 131 129 128 132 128 126 126 126 131 123 126 120 122 118 124 124 127 130 129 128 
140 138 136 138 140 140 138 140 139 138 135 136 133 133 132 140 140 135 136 136 135 134 134 136 136 135 133 137 134 136 137 134 131 133 132 136 133 134 131 136 138 134 133 131 130 135 130 132 135 129 132 134 132 130 132 133 133 134 130 135 134 131 130 131 129 126 127 127 128 124 122 121 123 123 124 129 127 126 127 130 
142 138 138 141 139 142 139 136 136 134 134 138 134 139 135 131 135 138 138 140 139 136 134 136 134 137 133 133 133 142 136 131 132 132 133 137 135 131 136 133 133 131 131 132 131 131 135 132 134 132 131 133 133 133 129 135 133 132 134 130 130 131 130 132 128 128 128 127 125 124 123 121 121 120 127 122 129 124 126 125 
144 141 138 138 141 139 143 140 135 137 135 138 136 134 133 136 136 136 136 134 133 136 134 136 138 135 135 136 136 138 139 136 136 135 135 135 132 130 133 134 131 132 131 132 130 130 133 133 129 130 129 134 131 132 131 131 132 129 129 131 128 128 132 132 128 128 128 126 124 122 124 122 122 121 125 120 130 127 128 124 
143 141 136 141 141 142 141 137 136 136 133 137 135 132 134 134 137 137 134 135 132 136 134 136 137 133 134 135 134 137 136 135 134 136 136 139 136 132 133 136 131 130 130 131 129 129 130 132 134 131 129 130 128 130 130 130 130 133 133 129 126 127 131 130 129 131 127 126 128 125 124 124 124 122 121 126 124 126 127 125 
141 140 140 145 143 140 141 136 137 136 133 133 136 135 132 137 133 136 139 136 130 134 133 137 134 137 132 133 133 133 136 140 136 134 137 139 134 134 133 138 139 130 130 129 127 128 128 130 131 128 128 128 129 130 129 131 132 129 130 128 128 124 125 128 127 127 123 126 125 122 122 122 123 121 126 125 128 128 126 124 
142 145 143 143 143 141 137 134 136 134 131 134 136 135 134 135 135 133 135 132 132 132 133 136 133 138 132 136 132 133 138 138 137 138 139 136 135 134 134 135 138 131 128 130 128 132 131 131 128 128 129 130 128 132 128 130 128 130 125 128 130 128 130 129 126 124 123 124 124 118 119 119 118 122 127 127 126 125 129 126 
141 145 137 143 141 140 135 133 135 131 133 134 131 135 128 131 131 132 129 133 133 134 134 135 135 135 132 135 130 138 135 136 136 135 135 139 132 135 136 134 136 130 132 129 129 130 134 131 130 127 130 130 128 127 131 127 131 127 129 126 129 129 130 129 128 124 123 116 115 115 102 116 117 124 124 123 130 128 128 125 
141 141 143 142 142 141 135 133 133 131 132 134 133 134 130 134 129 130 131 126 134 130 134 132 134 132 133 133 132 135 137 136 138 137 137 135 130 133 132 135 133 130 132 130 129 134 132 130 131 135 131 130 130 125 129 127 130 128 128 129 129 128 129 127 124 125 122 121 114 115 115 111 114 121 122 121 124 126 129 127 
142 145 139 142 141 140 136 134 134 131 131 131 132 131 130 135 131 132 132 128 128 133 135 137 132 135 133 139 133 131 136 138 136 136 134 133 131 128 133 135 132 131 132 130 130 130 132 131 132 130 131 128 128 127 128 131 134 148 133 130 128 125 128 129 124 126 126 119 120 115 120 115 118 124 121 120 123 128 129 124 
142 139 143 144 141 138 135 137 135 132 130 130 130 134 131 132 132 127 132 130 131 132 132 136 133 133 132 134 131 132 137 135 135 133 133 137 132 132 131 135 134 132 127 129 129 132 130 128 131 127 127 126 128 127 131 131 133 131 130 130 124 127 131 130 125 122 123 125 120 115 117 115 116 117 121 119 126 126 127 129 
144 142 140 141 143 135 134 132 134 132 131 131 132 132 134 133 131 129 131 129 131 131 134 132 131 132 131 134 130 134 134 139 135 139 134 135 134 134 133 134 132 131 129 124 133 133 127 126 127 125 126 126 127 130 130 128 135 130 131 122 125 128 127 128 123 123 119 117 120 116 119 113 122 117 121 122 122 129 130 124 
142 145 140 144 139 135 134 130 132 128 132 134 130 130 128 128 128 128 128 131 135 137 132 131 129 129 130 137 130 134 134 135 137 134 135 135 132 131 132 134 129 129 128 130 129 131 131 127 127 123 127 127 130 128 131 129 130 134 132 125 127 126 128 126 126 124 114 115 121 114 117 113 118 116 122 121 121 123 127 124 
142 143 138 140 139 136 137 132 133 129 131 132 133 132 130 130 128 130 134 131 131 133 133 135 131 133 132 135 133 132 139 136 135 138 135 132 132 131 130 131 130 131 128 130 126 129 130 129 129 124 127 125 131 128 130 128 133 131 128 128 124 124 127 127 124 124 120 119 121 117 116 113 116 115 121 120 123 123 124 124 
144 144 138 139 137 140 134 132 134 128 134 132 132 130 130 131 132 131 132 131 133 134 137 134 135 136 134 132 131 133 139 138 132 134 136 134 130 134 131 127 134 130 128 129 128 127 126 130 126 127 125 129 128 127 129 126 128 123 128 125 125 127 127 128 126 127 121 115 120 114 115 114 113 115 117 117 123 124 123 119 
138 140 138 136 139 135 135 134 132 133 131 132 131 132 127 129 129 133 129 128 129 132 132 134 133 134 132 135 130 131 141 139 133 133 133 135 133 132 129 129 131 132 130 125 128 125 124 123 128 124 127 130 126 126 127 126 127 126 126 124 126 125 126 128 127 122 121 114 117 111 117 113 113 116 118 120 125 121 124 125 
138 142 137 138 136 136 135 130 136 132 130 132 137 133 131 131 129 131 132 133 130 132 134 132 135 129 129 131 128 132 136 135 133 135 132 133 134 131 125 134 131 130 127 127 126 127 124 126 124 125 124 125 124 128 126 129 125 125 129 123 126 123 125 129 126 123 124 117 116 111 117 111 111 116 116 117 120 122 123 118 
140 142 141 141 136 135 135 135 134 132 130 134 133 134 132 132 131 134 134 135 132 131 128 132 132 135 131 131 130 131 133 130 133 133 130 134 129 130 128 132 130 127 127 120 126 123 128 125 126 124 125 126 125 125 127 123 128 123 126 128 128 123 129 129 129 128 122 120 117 115 114 114 115 117 116 122 121 121 124 121 
139 140 136 137 137 136 135 141 135 131 131 133 133 130 126 131 130 127 130 132 129 127 128 130 129 128 128 130 128 129 134 133 132 131 130 131 130 131 128 126 129 129 126 123 125 127 125 127 126 130 126 126 125 124 124 122 127 126 125 123 126 124 123 129 130 125 121 116 115 113 114 111 111 115 119 118 120 121 120 118 
139 141 138 137 134 135 135 135 134 133 131 132 131 131 127 131 131 128 128 130 129 131 128 131 131 130 129 128 127 130 131 131 131 129 131 130 125 131 127 127 124 122 128 123 130 126 124 128 127 127 124 124 121 125 127 125 126 125 125 125 123 126 125 126 127 127 122 119 119 113 107 110 113 119 120 118 121 123 122 121 
137 139 135 137 134 137 135 133 134 131 130 134 127 129 130 135 130 132 128 130 129 128 130 135 132 132 132 127 127 131 131 132 131 128 126 131 129 127 128 127 125 124 125 126 124 127 125 129 125 123 125 124 124 126 122 121 123 125 132 128 125 122 125 128 129 125 121 118 115 109 110 112 110 116 118 114 119 123 125 120 
139 140 137 135 134 135 134 129 133 130 130 132 131 130 127 129 129 128 127 129 130 131 131 132 133 128 129 130 128 128 133 130 129 127 131 129 125 126 126 128 123 122 126 125 125 127 124 123 126 123 124 124 122 122 122 122 125 122 127 125 126 122 121 125 124 125 117 114 113 113 113 111 113 118 115 116 120 119 122 120 
136 136 137 139 135 132 131 136 134 133 129 131 129 131 128 128 130 129 128 131 129 129 132 133 132 128 130 133 131 132 131 129 126 129 129 127 127 126 125 127 127 126 126 126 121 124 126 125 123 123 121 126 124 123 123 122 125 121 122 122 128 123 126 126 123 122 119 117 116 111 111 109 109 119 115 115 115 114 120 114 
136 139 134 138 135 135 134 133 133 133 129 132 132 133 131 128 130 130 130 131 128 128 132 130 131 129 128 134 132 130 130 130 128 126 127 127 125 126 124 129 123 126 124 125 124 122 122 125 124 121 125 110 121 122 120 122 123 124 118 121 122 123 122 128 123 122 117 109 110 110 112 110 109 112 115 119 120 118 114 113 
137 140 140 134 135 133 129 130 135 130 127 132 130 131 128 126 128 129 129 131 126 128 128 133 127 128 134 130 128 129 130 132 128 129 126 126 125 130 122 124 126 127 124 122 126 123 121 119 123 122 123 123 122 122 122 121 122 121 120 119 125 125 122 127 124 126 120 111 110 104 109 105 107 110 110 116 114 115 114 115 
140 139 137 136 133 129 131 132 129 128 122 131 130 132 122 124 128 127 127 124 129 127 130 131 129 129 128 129 124 129 129 130 129 128 129 127 123 126 124 126 124 126 130 122 125 118 121 122 124 121 123 122 120 122 123 122 123 121 119 119 123 121 123 127 124 124 115 110 110 105 106 109 108 112 114 112 113 116 113 115 
135 140 138 139 133 135 131 133 131 129 131 130 129 128 129 130 128 127 128 126 126 124 129 131 129 130 137 128 127 128 133 130 127 129 127 122 126 125 122 126 130 130 125 124 124 121 120 121 123 123 121 125 123 123 121 121 122 122 118 121 119 117 122 126 124 124 113 110 109 106 108 106 109 110 111 111 114 111 111 113 
135 137 137 138 134 136 132 131 126 131 128 134 130 127 125 128 130 129 126 127 128 129 127 129 130 131 129 129 127 130 131 128 128 127 125 124 123 125 124 126 127 126 125 122 125 120 120 121 125 123 123 122 117 119 121 122 120 120 120 117 119 117 124 121 124 122 113 111 113 105 106 108 105 108 112 112 113 111 117 113 
139 136 136 136 140 135 133 128 134 127 128 132 132 128 127 129 130 127 126 126 127 128 129 132 129 129 128 129 127 131 129 128 126 126 127 125 123 126 125 126 126 124 126 124 126 123 122 122 123 122 121 124 122 123 121 123 126 124 120 122 119 123 121 122 122 119 112 108 104 106 106 103 107 110 109 115 111 108 110 114 
136 134 136 137 134 131 128 131 126 129 129 131 129 131 128 128 129 129 129 128 126 128 127 130 131 131 129 131 129 130 130 131 130 126 126 126 125 124 123 126 124 123 124 123 125 125 120 122 121 120 121 123 124 119 122 120 125 122 121 116 116 121 124 124 120 116 110 105 106 103 106 104 106 107 111 116 115 108 111 113 
138 134 139 136 137 130 131 133 128 131 128 132 126 132 127 130 125 127 133 127 128 126 127 129 130 128 127 130 125 131 129 132 129 128 129 125 122 122 124 125 126 124 123 121 121 122 123 127 121 119 119 123 121 126 121 123 121 118 120 121 122 120 123 122 120 115 104 102 105 102 102 102 104 106 109 107 113 111 113 110 
139 137 137 140 135 134 132 133 128 130 129 130 127 131 127 127 128 130 129 126 125 126 127 130 128 127 124 131 125 126 131 132 130 128 121 121 122 124 122 126 123 124 123 119 117 121 121 120 122 116 119 122 121 121 120 123 120 122 121 117 120 122 119 120 120 111 90 86 97 101 102 104 105 104 104 107 108 109 111 112 
136 140 136 136 133 134 132 132 128 133 126 127 129 131 125 125 126 134 130 127 127 127 131 130 127 124 125 126 125 126 130 129 126 125 125 120 120 123 122 123 122 124 122 121 122 123 121 121 120 117 119 122 117 120 121 121 121 118 120 120 117 117 118 121 119 105 43 38 80 98 102 104 102 101 103 102 107 108 111 108 
134 133 142 137 134 137 133 132 132 131 134 129 131 131 126 125 126 129 129 130 126 129 129 132 127 127 125 128 124 125 128 126 128 127 121 123 122 120 125 124 121 122 122 118 122 122 122 123 120 118 118 121 119 117 119 120 120 118 118 116 115 117 118 119 114 96 19 18 54 91 97 99 102 100 99 105 104 109 109 113 
139 136 135 134 131 134 132 130 133 130 130 130 130 127 125 127 126 127 125 127 126 126 129 132 126 127 127 125 122 125 125 129 125 127 125 123 118 121 124 124 123 126 122 120 120 121 120 122 124 119 122 121 119 114 118 117 117 114 116 113 115 115 116 118 116 82 8 12 75 84 93 96 100 104 101 101 104 107 109 111 
136 135 136 134 131 133 131 132 131 127 127 131 129 130 124 126 124 126 124 130 125 128 126 129 125 125 124 126 124 125 125 126 128 128 120 119 117 118 120 119 122 120 119 118 121 122 123 118 119 119 121 125 121 122 118 117 120 111 114 114 115 115 116 112 109 77 0 8 70 84 90 95 96 103 103 100 106 107 118 111 
137 136 137 135 132 134 128 130 128 127 128 129 128 129 128 125 126 124 124 125 128 127 127 129 129 127 123 125 125 122 126 125 125 124 126 121 121 119 121 122 119 122 120 117 122 117 122 122 123 119 119 121 120 120 119 115 118 115 115 115 115 115 115 115 111 73 7 14 68 85 91 94 92 98 100 101 105 109 108 108 
138 136 137 134 135 135 129 129 128 127 127 129 128 130 129 128 125 126 130 127 126 127 130 133 130 128 125 125 125 125 125 124 124 127 123 125 120 120 121 122 121 121 119 119 120 118 122 120 119 113 117 119 120 122 121 119 116 116 112 114 119 113 113 121 109 71 9 19 73 86 93 95 97 97 101 100 106 105 109 110 
138 137 135 131 133 134 130 126 130 131 127 131 127 129 127 125 125 126 129 132 127 125 127 129 129 126 127 123 126 126 128 128 122 129 123 126 119 124 121 122 121 123 119 119 120 119 124 128 122 116 118 117 116 120 116 116 117 116 115 115 118 117 114 120 115 67 10 20 75 86 88 97 96 97 103 100 104 105 104 106 
134 136 133 132 132 131 130 127 127 122 125 130 127 132 126 123 127 125 128 126 128 125 124 130 128 124 122 124 122 126 129 126 125 126 125 125 121 121 121 122 123 121 119 117 124 120 123 122 119 112 115 115 116 117 114 110 112 114 114 112 112 113 115 112 103 62 5 16 66 81 93 93 94 96 100 104 104 101 102 99 
140 133 132 131 132 131 130 128 127 128 127 126 126 130 130 127 130 127 125 126 126 124 127 127 123 122 122 123 120 128 127 128 127 128 122 124 125 118 118 120 119 118 118 120 119 119 120 118 118 111 114 113 116 111 112 113 113 111 112 109 112 114 112 114 104 53 7 11 67 88 95 97 99 99 102 98 98 99 96 95 
136 133 129 133 129 131 127 128 125 125 127 127 128 131 124 124 126 126 125 128 125 124 125 124 124 123 123 121 124 122 125 128 125 126 122 117 118 117 117 122 118 121 117 118 116 118 115 116 115 114 113 116 112 112 109 113 112 111 109 110 112 110 113 110 106 47 0 17 69 86 94 98 98 97 100 95 95 94 91 95 
134 133 130 129 130 129 126 125 125 124 125 125 127 130 123 123 126 127 127 125 122 127 127 125 122 123 118 122 120 126 123 126 120 122 118 117 114 115 118 119 117 120 117 113 114 115 116 115 115 110 105 112 113 110 109 115 114 109 109 108 112 108 111 111 105 64 21 30 73 84 96 95 99 102 95 91 92 88 92 92 
132 135 131 130 130 130 129 127 127 127 125 128 126 128 124 128 126 124 124 125 124 124 129 129 125 125 123 122 121 120 128 124 123 120 116 117 117 118 117 119 115 117 113 114 111 113 113 111 113 107 109 111 108 111 110 113 110 110 109 107 111 110 108 111 102 92 64 65 82 92 95 96 99 100 93 84 90 83 92 91 
133 134 131 128 131 131 125 126 128 127 127 127 125 127 124 132 127 128 125 125 121 127 125 127 122 124 121 124 121 123 126 123 120 117 116 118 115 116 115 117 117 115 113 114 112 112 110 112 110 109 107 111 105 112 112 114 110 109 110 108 107 106 108 109 106 98 88 88 98 94 97 105 102 102 90 85 88 84 90 94 
130 128 128 128 130 128 130 127 130 129 124 129 125 126 126 126 125 125 125 123 125 123 126 124 124 124 124 121 122 122 120 114 117 116 116 116 116 116 117 116 114 117 115 110 107 110 110 113 109 109 109 107 110 112 113 109 111 115 106 109 108 108 107 110 105 96 90 95 101 102 100 101 101 103 98 85 92 87 93 93 
135 130 128 129 134 133 129 126 127 124 125 127 127 125 123 125 124 125 125 126 127 122 125 127 124 123 122 122 122 120 122 117 112 116 119 115 115 117 114 113 115 112 114 108 107 112 109 108 114 108 106 108 108 115 111 111 107 110 110 111 110 106 105 111 101 94 91 97 102 100 105 105 103 100 104 97 92 85 87 91 
137 131 130 131 133 133 127 125 126 125 125 127 127 122 123 124 123 123 125 127 122 123 122 126 128 123 121 122 119 120 119 121 115 113 115 116 114 114 117 113 115 111 109 112 111 111 110 110 111 108 112 109 109 112 112 113 110 113 115 107 110 106 107 104 102 100 91 99 108 104 103 103 100 106 103 99 94 89 91 88 
134 131 125 126 133 135 126 125 128 126 127 126 127 124 123 123 121 121 121 124 119 119 126 123 123 122 123 125 122 120 120 117 113 111 112 115 112 113 114 112 111 109 105 109 107 109 110 108 112 107 109 107 109 112 111 109 113 113 110 108 105 108 108 105 100 95 98 100 102 109 111 107 101 106 101 103 100 95 90 93 
134 131 125 130 129 131 126 124 126 125 127 124 124 126 127 125 123 119 124 123 122 122 121 123 121 122 125 123 118 119 116 116 110 111 111 113 111 111 111 115 112 109 109 106 104 108 109 108 107 105 111 107 108 109 107 110 108 110 109 107 108 106 106 111 97 99 91 93 103 101 104 104 100 108 101 97 98 102 93 93 
130 130 130 126 128 127 121 123 123 125 123 124 124 125 124 125 121 120 122 125 123 122 120 124 123 123 120 119 118 120 117 112 110 109 109 114 111 113 111 112 113 113 109 109 106 108 104 105 108 104 107 105 109 110 109 106 110 107 109 107 102 106 108 104 100 98 95 96 99 101 106 106 103 102 103 97 100 99 101 93 
128 131 129 128 129 125 124 124 123 124 125 124 130 127 123 121 120 123 123 124 120 122 123 122 121 120 120 120 120 119 119 111 109 111 111 111 109 111 109 114 113 109 110 105 105 108 105 109 112 108 108 107 105 106 107 110 108 108 106 105 108 103 105 106 99 98 95 96 98 100 105 103 106 105 100 106 104 102 101 100 
130 127 125 127 127 127 122 122 124 127 125 128 128 128 120 119 117 123 122 125 120 122 126 120 121 119 118 121 117 119 116 116 114 111 107 113 114 112 111 114 111 113 105 107 106 108 108 109 109 106 110 104 104 109 106 105 108 106 106 104 105 104 105 103 102 100 94 96 94 103 102 103 99 105 101 101 103 103 100 102 
128 131 127 128 126 126 125 124 123 124 123 124 125 126 121 121 120 123 117 122 119 122 122 121 121 118 120 121 119 117 119 114 115 113 107 115 114 111 110 114 111 109 108 103 104 108 106 108 112 107 108 108 105 108 108 106 106 105 105 108 107 105 104 100 100 101 93 96 97 99 100 103 104 102 102 102 100 100 100 101 
132 128 128 127 127 124 123 124 126 124 123 127 126 125 119 121 120 121 119 122 122 122 121 120 121 117 119 126 115 118 118 115 114 115 111 117 118 113 114 110 113 110 111 105 104 105 106 107 112 106 105 106 107 106 106 107 109 106 110 102 107 104 103 106 100 99 98 96 97 103 105 100 104 106 105 102 105 103 102 99 


