P2
80 60
87
11 5 10 9 4 6 7 10 11 10 6 7 7 10 8 8 9 11 9 11 7 9 7 11 6 12 13 10 11 13 11 12 11 10 13 14 9 13 11 10 10 13 19 15 11 14 14 12 14 15 10 17 16 19 19 18 17 20 15 14 14 14 14 11 9 12 7 6 8 9 7 8 10 7 7 5 0 5 7 6 
9 7 10 8 3 8 6 9 8 8 6 6 8 10 12 6 12 10 8 7 11 10 10 6 8 5 15 11 14 9 9 12 11 12 12 9 12 13 9 10 13 14 15 15 14 14 13 16 15 14 13 15 13 18 20 20 21 18 15 15 13 9 10 10 9 6 7 7 6 8 8 9 8 11 6 2 6 3 9 8 
16 9 8 4 3 8 11 10 9 8 7 7 8 8 9 11 9 10 10 11 15 14 6 10 10 12 14 11 9 13 12 14 18 16 14 15 15 13 14 13 15 13 14 16 12 13 14 16 15 14 13 16 15 19 16 15 17 16 13 18 11 13 10 13 11 10 6 9 7 7 11 9 12 7 7 8 9 5 8 9 
15 12 7 7 6 5 8 14 10 13 11 7 5 8 8 9 11 10 13 11 10 10 14 12 15 10 14 11 9 12 14 13 20 15 16 14 18 18 19 12 13 18 17 13 15 15 19 14 17 17 16 16 17 19 17 17 17 14 13 17 15 11 11 12 11 11 8 8 7 11 11 13 13 10 9 7 8 10 3 8 
20 10 9 9 8 12 9 7 11 13 9 9 8 8 15 15 12 9 11 12 11 15 13 14 13 14 18 10 14 15 14 15 18 11 15 15 17 16 20 12 16 18 23 16 16 16 17 16 19 21 18 18 15 18 19 19 17 16 17 20 18 13 13 15 12 10 11 8 9 9 11 10 12 12 10 8 8 6 7 5 
15 7 12 5 8 10 7 9 16 12 8 11 7 10 14 12 12 13 9 15 13 16 14 13 12 13 16 13 16 19 13 16 13 12 13 14 13 15 18 15 16 15 19 16 16 12 21 18 16 20 18 21 19 19 17 20 17 16 22 18 19 16 13 15 13 14 9 11 12 11 12 14 14 8 9 7 7 7 6 9 
12 12 12 8 8 11 7 10 13 10 8 14 13 10 14 11 15 9 12 13 12 13 15 13 14 15 13 12 17 19 12 10 11 14 15 14 17 19 18 13 12 14 16 15 16 16 17 21 22 16 19 21 19 20 18 19 17 22 25 17 19 15 12 13 15 18 11 14 14 10 11 11 12 10 7 11 7 5 7 11 
19 13 9 13 9 15 11 13 13 10 10 8 9 10 12 14 14 10 12 14 16 12 13 14 13 17 14 11 14 13 8 11 11 9 14 15 18 16 15 12 15 15 15 18 17 18 16 19 16 18 18 20 21 23 20 24 19 20 16 21 21 17 14 12 11 16 12 12 13 9 9 12 10 7 11 8 8 1 7 11 
17 12 13 15 8 11 10 11 12 13 12 7 11 12 13 10 13 13 15 13 14 13 13 11 13 17 13 11 17 9 14 13 14 15 13 16 15 16 16 10 12 15 15 14 16 16 15 16 16 16 18 22 21 23 19 19 17 18 14 19 21 15 18 13 12 13 14 14 11 13 13 11 12 12 8 7 5 5 6 9 
15 12 13 13 12 15 12 12 15 11 9 8 9 12 10 11 16 11 14 13 13 13 9 11 10 13 18 15 14 12 10 11 10 12 13 11 14 15 13 11 13 15 15 15 14 15 17 14 17 16 17 17 20 19 21 16 17 16 15 17 17 16 16 15 10 14 15 11 13 9 11 11 13 10 9 9 5 1 8 5 
16 10 12 12 13 14 16 12 13 13 9 11 8 10 11 14 12 12 13 11 11 11 9 9 12 13 16 11 16 12 11 14 14 12 14 14 16 16 16 12 14 15 18 14 15 13 13 17 16 17 20 19 17 18 17 20 20 18 18 14 14 15 15 17 12 15 15 11 9 10 9 9 12 7 7 9 10 9 6 3 
21 17 14 13 13 13 12 12 13 11 8 10 8 10 12 10 10 7 11 13 10 12 11 10 8 13 13 14 14 13 16 14 13 14 13 10 14 14 14 14 15 14 17 18 15 12 15 17 16 15 15 17 18 15 17 16 18 18 14 13 16 15 14 16 13 11 11 12 11 7 10 9 13 12 8 13 13 11 9 2 
14 12 17 19 10 13 13 12 14 10 10 14 7 9 8 10 8 8 9 10 10 13 12 11 10 14 13 12 12 13 14 14 16 18 12 9 10 11 15 10 12 14 15 15 16 17 19 15 19 16 19 19 16 16 17 15 19 19 15 14 15 13 19 17 15 13 13 10 10 10 2 9 15 12 12 10 8 12 6 9 
17 13 19 15 11 12 8 11 13 9 6 11 6 10 12 10 7 7 9 8 12 7 8 9 10 11 14 9 9 11 12 12 14 19 17 12 12 11 15 11 13 14 16 16 16 19 18 14 20 21 18 18 16 17 19 18 19 22 19 15 18 17 12 17 14 14 11 12 9 12 15 6 17 10 7 8 12 12 8 6 
18 15 13 12 12 13 11 12 15 8 8 10 10 10 9 10 10 7 8 9 8 7 9 12 10 12 10 13 10 10 11 14 13 19 17 12 12 13 15 13 12 14 17 17 14 19 18 17 18 20 19 19 19 20 18 19 21 30 20 17 17 15 15 17 11 11 14 15 10 11 11 13 17 14 9 7 9 10 8 10 
20 15 17 14 12 13 13 12 18 7 7 9 7 9 9 15 9 8 9 10 7 7 8 9 10 12 13 11 12 13 12 14 12 13 16 12 13 11 11 13 14 16 19 14 15 14 18 15 18 20 16 19 19 23 19 19 18 24 20 19 19 16 15 13 15 15 16 19 11 12 13 12 16 14 9 7 9 10 11 6 
21 15 17 12 14 12 15 14 14 10 9 13 8 9 12 15 11 13 11 11 10 9 12 10 10 12 13 11 13 13 12 17 15 17 19 12 12 12 15 12 14 16 18 16 14 17 17 16 17 16 22 19 23 22 26 23 21 24 22 20 19 16 14 16 12 18 15 11 17 12 16 16 32 16 11 11 7 9 10 11 
18 16 17 15 13 15 13 13 9 12 10 11 8 8 12 14 11 11 13 12 10 13 11 12 10 20 14 12 10 13 16 17 16 17 14 14 17 12 12 17 16 17 14 16 14 13 14 15 16 17 17 18 24 22 22 22 22 26 21 21 20 17 14 14 13 14 10 15 12 14 16 16 15 13 10 9 10 9 10 13 
20 17 14 17 17 15 14 12 14 11 10 13 8 12 12 16 11 14 13 13 11 12 14 15 15 13 19 10 16 13 13 19 18 17 18 16 20 14 16 16 15 14 16 18 15 14 15 14 17 14 17 20 22 22 22 21 23 22 20 18 24 17 13 15 13 16 11 17 13 16 13 15 14 12 9 11 10 10 13 9 
21 14 16 14 16 15 11 13 12 11 11 14 9 10 10 15 12 12 15 11 11 15 18 17 13 14 19 15 15 16 12 15 16 16 17 15 16 17 14 15 16 17 16 13 13 15 16 17 16 15 15 19 19 20 19 18 16 19 19 20 22 17 12 15 14 14 15 13 16 15 14 16 16 11 7 6 9 8 11 10 
18 17 15 17 17 16 14 13 13 7 15 14 11 16 12 17 14 14 13 10 10 13 13 15 13 14 17 14 13 13 17 14 14 14 15 16 19 15 16 17 17 19 16 16 16 14 15 13 17 20 16 17 20 22 19 16 19 17 17 20 21 19 15 16 13 15 17 16 16 14 15 15 13 16 8 8 8 8 8 10 
19 13 14 14 13 16 15 12 12 11 10 18 14 13 12 14 15 13 12 10 11 12 14 12 13 16 11 10 12 12 11 15 15 16 14 14 14 18 13 13 13 16 17 13 11 13 14 16 19 14 22 17 20 21 21 20 18 17 18 19 22 17 13 15 14 15 13 17 13 20 18 19 15 14 9 9 10 9 12 13 
16 12 15 17 13 12 15 14 14 10 8 16 11 9 12 11 11 13 12 11 11 13 15 12 11 15 12 12 14 12 11 12 14 13 11 14 14 14 15 15 15 13 13 12 12 13 14 16 17 18 19 17 17 20 19 17 17 16 17 20 22 21 15 14 16 18 13 14 15 14 16 17 15 10 8 8 9 12 7 12 
16 12 13 14 12 13 12 20 11 11 10 14 10 15 12 12 13 14 12 12 11 11 12 11 13 15 12 14 12 13 13 13 13 15 14 10 13 15 16 14 10 15 13 14 11 12 14 13 16 19 16 16 17 20 17 19 16 16 19 17 19 18 17 17 14 16 16 14 13 18 17 16 15 14 11 11 12 10 12 14 
19 15 14 11 12 13 14 14 13 11 12 10 11 14 13 10 12 12 13 11 12 13 11 13 12 16 14 12 15 10 8 12 14 14 13 11 14 15 14 14 13 13 16 15 17 13 14 19 17 17 15 18 18 22 19 15 18 18 17 16 18 19 17 14 17 15 18 16 16 14 15 15 14 17 12 7 12 12 14 18 
19 15 13 13 16 14 14 13 12 12 12 13 11 16 15 15 13 12 13 14 15 12 10 14 14 16 15 15 14 14 9 12 12 10 11 14 12 11 15 13 12 16 17 15 14 15 14 17 18 18 17 17 18 22 19 17 17 17 17 19 18 18 16 17 17 17 16 12 14 14 15 14 14 15 13 13 10 14 16 13 
16 11 17 13 13 17 15 13 13 10 11 12 10 14 13 15 15 17 14 17 11 14 19 15 15 15 16 9 12 16 12 12 12 14 13 9 12 13 13 14 14 13 14 15 17 15 13 19 22 17 18 18 18 17 17 19 19 19 16 18 17 16 17 16 16 19 18 17 15 13 16 17 14 14 10 11 11 8 11 13 
19 13 13 13 15 16 12 14 12 12 10 12 9 13 12 15 14 13 15 20 12 14 12 16 13 15 15 13 13 14 15 13 19 12 11 13 11 11 11 14 14 12 17 15 15 16 14 15 18 16 14 16 17 17 20 17 19 14 18 21 22 15 15 16 12 14 16 18 14 27 15 14 13 12 10 11 12 11 13 17 
20 18 16 13 13 18 16 16 16 12 13 11 11 12 11 11 15 13 12 16 13 14 11 14 15 17 14 16 13 13 11 15 17 15 11 11 12 11 15 16 14 14 17 13 14 15 17 15 19 17 16 18 18 19 17 18 15 14 14 20 21 16 17 17 14 18 18 19 16 16 16 16 14 13 13 11 12 8 12 11 
21 16 17 13 12 17 16 17 19 15 16 12 12 12 11 13 17 17 12 15 11 13 11 11 14 16 15 16 13 12 12 14 13 12 16 12 15 16 17 12 16 19 17 16 15 15 16 17 20 19 19 18 21 18 17 18 18 17 19 15 23 18 16 18 18 17 24 17 15 16 14 15 16 15 12 15 11 13 12 13 
21 20 17 15 13 16 19 14 17 16 8 15 11 10 13 14 19 14 14 10 11 13 12 16 15 18 17 15 15 15 14 13 14 14 13 15 14 17 16 14 14 16 22 17 16 14 15 18 17 18 17 19 21 22 17 20 20 17 18 15 18 18 15 18 16 18 15 18 14 17 17 15 16 17 11 10 13 14 14 14 
21 18 15 15 17 14 13 14 14 11 15 11 12 15 12 16 16 13 16 11 13 14 16 17 16 18 20 15 12 14 15 17 14 14 13 14 16 16 15 14 19 18 21 19 15 15 14 18 19 21 16 18 21 24 21 22 19 18 17 14 19 16 18 18 17 17 17 16 18 18 18 13 16 14 11 10 11 12 9 11 
18 13 21 17 12 13 14 14 16 8 13 13 9 14 15 13 15 16 12 17 12 15 13 17 17 17 17 17 15 16 15 16 16 13 18 15 14 17 16 13 14 18 23 18 16 18 17 17 19 18 17 19 20 23 20 20 18 18 17 16 21 18 18 19 17 16 17 18 18 16 18 15 15 11 12 9 13 13 11 16 
20 19 22 17 15 16 16 15 16 13 16 16 10 10 11 14 16 16 14 17 14 14 15 17 18 16 18 16 14 16 13 16 14 13 15 14 13 13 16 16 16 16 19 16 17 18 16 16 19 16 14 16 18 21 16 19 21 16 17 17 20 21 15 17 18 20 14 16 17 14 18 15 12 13 13 12 12 11 11 13 
20 16 18 15 14 16 15 15 18 14 17 16 10 13 11 14 19 17 14 16 13 15 17 16 14 16 16 14 16 16 13 16 13 13 18 16 17 15 13 16 15 18 19 18 17 18 19 16 17 16 15 17 21 21 19 17 21 22 15 21 19 20 17 17 15 18 18 19 17 18 17 16 16 17 12 12 11 8 12 9 
26 16 18 17 17 17 18 17 21 16 14 16 12 15 14 15 16 18 16 14 18 16 15 18 18 15 17 14 16 17 17 16 14 15 18 15 15 16 17 20 19 19 18 17 19 16 19 22 16 16 14 20 20 19 18 22 20 18 17 22 24 19 14 16 17 18 19 19 19 16 16 18 17 17 13 13 13 18 12 10 
23 18 22 14 16 17 18 16 17 17 12 16 11 12 12 12 16 16 16 16 14 17 15 15 15 16 15 10 18 16 14 13 17 13 15 11 16 14 17 17 19 18 18 15 17 15 17 17 18 19 17 20 22 24 19 18 21 18 19 20 21 16 19 18 16 19 16 15 19 20 18 17 17 14 13 12 14 13 13 14 
24 21 24 17 16 19 18 18 19 15 15 15 18 12 15 12 18 21 15 15 14 16 15 16 17 16 18 12 13 16 16 15 14 15 16 14 15 16 18 16 18 18 18 16 16 17 18 17 18 19 19 21 23 26 23 21 23 16 18 19 20 16 19 17 16 21 20 18 16 17 17 18 16 16 11 12 12 11 14 12 
22 21 29 20 18 22 21 21 19 17 18 16 19 16 14 19 19 21 19 18 16 18 17 18 16 20 18 15 14 15 17 15 15 17 17 14 13 14 19 16 17 21 22 18 18 16 20 20 18 20 23 24 26 26 24 21 18 19 18 20 20 18 19 18 19 18 15 17 19 17 18 14 12 16 15 13 11 16 17 22 
22 20 21 17 18 18 19 19 24 20 26 23 18 15 12 18 20 17 19 15 14 17 17 20 19 21 21 18 15 18 15 17 16 16 15 13 17 18 16 15 14 18 18 17 15 17 19 18 18 21 21 23 27 24 23 21 19 17 18 17 19 20 17 20 18 21 18 14 15 20 17 15 14 17 13 13 16 16 16 24 
23 18 20 19 19 20 15 19 21 16 19 14 15 19 14 17 17 18 17 16 18 16 17 17 19 22 28 18 18 15 14 16 16 18 16 11 17 16 16 15 16 19 18 17 15 19 19 19 18 19 22 26 24 29 24 21 22 20 16 16 17 19 18 16 18 19 15 17 17 18 18 16 15 18 15 13 17 15 28 17 
24 20 22 19 16 18 19 21 20 17 16 16 17 20 19 17 19 16 18 17 14 18 18 17 18 23 22 19 15 18 12 18 16 17 13 14 17 19 17 17 17 21 18 20 17 19 21 19 21 21 23 21 24 21 22 23 26 20 17 17 22 18 17 18 19 21 17 15 16 17 14 13 16 16 14 13 16 20 15 23 
22 18 23 17 14 17 17 17 20 18 17 18 17 19 18 22 18 15 16 20 18 19 15 19 19 18 20 20 13 15 17 17 17 16 18 19 17 18 18 18 16 15 18 16 16 17 22 22 23 23 21 23 23 22 23 21 23 18 16 21 22 19 22 19 20 19 16 13 15 18 16 12 16 14 14 14 16 15 21 22 
26 21 19 17 16 21 16 18 19 20 18 19 17 19 19 18 18 16 18 18 16 18 21 21 19 20 21 21 17 15 15 15 17 20 14 16 17 17 19 18 17 18 21 15 18 19 21 28 23 23 22 24 22 23 24 21 20 20 18 21 21 19 17 21 16 18 15 14 17 16 16 17 18 14 14 13 14 14 19 19 
24 18 19 20 19 19 15 18 20 18 18 18 17 17 24 21 19 18 17 18 19 18 21 18 18 19 19 18 16 17 15 18 16 14 14 17 16 16 20 14 17 17 17 18 18 19 21 24 24 23 21 23 23 19 22 17 22 20 18 18 18 19 18 19 16 20 18 15 17 19 19 21 21 15 12 13 15 18 17 18 
27 22 21 19 20 19 18 19 20 19 16 20 18 22 24 19 23 19 23 22 16 17 17 17 17 20 18 18 18 18 20 18 17 17 21 20 19 19 17 17 16 15 15 18 19 20 22 23 22 24 22 20 20 22 19 20 19 17 20 19 18 19 18 16 16 21 19 19 17 14 18 16 20 18 18 18 17 20 13 17 
29 23 21 18 18 20 19 19 19 19 17 21 20 23 22 21 21 19 22 20 20 21 19 20 17 21 18 18 16 15 16 14 19 16 15 16 20 19 15 13 18 19 20 18 17 20 20 19 23 23 20 21 25 23 20 19 17 21 17 19 19 17 18 18 19 20 22 20 16 14 16 16 18 19 18 14 14 16 15 17 
21 24 24 19 17 23 21 23 21 19 17 21 22 22 21 22 20 24 20 19 19 19 21 19 19 21 19 18 19 19 18 20 19 18 16 17 19 18 19 18 17 20 19 18 19 18 23 21 23 18 20 18 20 24 20 22 21 22 18 19 20 18 17 18 18 22 20 19 16 15 18 19 18 17 14 14 16 14 15 14 
30 20 21 18 19 23 22 22 20 18 17 19 20 22 24 23 21 21 19 18 19 20 24 20 22 20 23 17 21 17 19 15 20 16 16 16 19 21 16 18 18 18 18 18 22 21 22 20 21 20 18 21 20 22 22 19 22 19 17 21 19 21 15 18 17 19 18 14 14 16 17 20 18 17 17 15 10 15 13 15 
26 19 23 19 21 22 23 22 23 21 19 22 22 22 27 29 25 22 23 22 19 21 24 24 22 20 22 19 19 22 17 20 20 18 18 19 18 19 21 17 21 17 18 20 18 19 18 20 19 18 20 20 22 24 26 23 23 23 17 21 20 20 20 18 19 18 16 17 17 17 17 18 17 19 20 15 15 15 13 14 
24 20 21 23 24 25 20 19 23 21 18 21 20 22 24 23 25 23 23 25 22 21 21 23 23 22 24 20 18 21 20 15 19 19 21 19 19 16 20 17 20 18 20 19 20 21 20 22 23 18 20 18 22 26 25 22 23 25 20 19 23 20 18 19 16 19 21 19 20 20 19 18 19 21 17 17 12 14 12 10 
27 25 27 20 23 25 24 25 23 24 23 24 22 25 23 25 23 23 24 26 28 22 24 25 23 24 24 20 20 22 20 21 19 21 24 17 17 17 17 17 17 21 18 22 20 16 21 20 21 24 22 22 21 25 23 23 24 24 25 25 24 20 19 22 18 19 20 18 17 18 17 19 21 15 17 13 14 19 12 15 
27 23 23 24 24 27 25 25 21 22 23 29 22 22 25 25 26 24 24 26 22 23 23 23 26 25 23 18 20 20 19 21 17 21 21 18 19 20 18 15 21 20 18 18 18 19 23 18 23 25 24 21 22 26 26 24 25 24 23 26 25 23 21 20 16 20 18 19 16 17 15 19 18 18 15 13 13 15 14 14 
34 24 25 26 33 30 27 26 26 23 25 24 22 25 24 27 28 26 25 26 26 26 24 28 24 24 23 24 24 22 23 23 20 21 21 20 18 22 20 18 20 18 20 19 20 18 22 21 22 25 21 23 23 26 26 28 28 24 23 26 24 23 20 21 17 20 21 17 18 18 19 20 22 20 15 15 16 14 16 20 
28 20 26 28 25 27 24 26 28 25 26 23 28 26 30 28 27 24 24 24 23 25 26 24 26 25 30 23 23 21 21 18 22 22 19 16 18 18 19 17 16 19 18 19 20 19 22 19 20 21 22 26 24 26 24 24 23 23 23 25 21 22 19 18 19 19 17 16 19 18 21 25 17 16 17 14 13 13 14 14 
31 31 30 28 23 29 29 26 28 26 28 31 27 30 30 26 29 24 31 26 25 24 27 25 26 26 28 23 23 22 20 18 21 23 20 18 19 19 19 18 18 21 19 21 19 17 20 22 22 21 22 26 23 23 25 23 23 25 22 22 26 20 19 21 20 18 21 18 16 22 20 21 22 19 18 16 14 13 10 16 
56 44 38 39 32 34 25 29 32 25 22 30 35 30 31 29 27 26 23 28 28 29 25 24 23 24 21 22 23 20 20 21 21 21 17 19 20 18 18 18 18 19 16 18 20 21 23 22 24 21 23 22 23 23 22 23 25 24 24 22 23 20 24 21 21 19 19 15 18 18 20 22 21 16 18 14 13 14 11 9 
72 64 58 52 48 46 41 39 34 31 27 28 26 32 28 27 28 29 26 28 24 22 24 24 25 21 21 22 21 22 16 20 20 20 17 20 18 18 19 17 18 17 19 19 22 20 22 25 23 25 23 26 24 24 23 21 24 24 22 22 23 21 17 22 19 24 17 18 18 21 19 20 18 19 17 16 16 15 17 13 
83 78 74 71 74 70 62 62 65 50 49 46 38 36 31 32 28 28 29 26 24 25 24 28 23 24 18 21 23 23 18 19 21 21 19 21 21 18 19 15 18 17 26 19 20 21 27 24 25 21 22 25 20 23 26 21 22 18 21 24 24 21 20 22 20 21 16 15 19 22 20 19 19 17 13 15 17 8 13 12 
87 76 82 83 75 82 76 73 75 64 64 59 61 55 51 47 38 38 31 34 19 28 29 26 22 22 17 22 25 24 15 17 18 19 16 18 23 21 17 18 19 16 20 20 17 23 22 22 23 20 21 19 23 23 21 21 19 21 26 21 19 18 17 15 17 20 13 15 15 14 15 15 17 10 11 13 15 16 13 13 


