P2
80 60
152
16 15 6 8 8 6 7 5 6 5 10 9 14 13 16 12 11 20 20 17 20 19 22 19 19 19 21 22 22 18 24 24 23 23 24 23 24 25 19 25 25 22 25 27 25 23 21 22 27 25 23 23 25 25 24 22 29 22 21 23 22 23 28 27 18 18 23 20 20 15 19 14 21 23 23 20 21 16 17 14 
13 12 11 7 9 8 2 3 6 6 13 14 16 13 15 16 11 18 19 15 19 15 21 20 22 19 19 17 21 24 24 25 21 23 26 23 24 23 21 23 24 22 23 26 24 25 21 25 23 24 25 23 24 25 24 27 26 22 31 22 18 21 26 25 19 18 20 21 18 14 21 20 19 22 27 23 21 13 10 17 
13 11 6 11 10 8 10 11 6 8 16 15 15 14 14 21 15 18 20 20 23 22 22 19 23 23 23 20 19 23 23 27 23 21 26 24 23 25 26 22 26 24 22 25 23 26 23 24 25 26 30 26 24 24 25 23 25 22 27 27 22 28 24 23 22 15 19 18 19 20 23 20 21 21 20 20 19 15 16 20 
15 11 9 8 11 13 5 10 13 8 15 13 14 14 13 17 16 20 20 24 20 23 21 21 22 23 23 20 22 27 25 23 23 23 23 26 25 27 23 25 23 22 24 26 24 24 23 25 25 27 27 24 26 25 28 27 24 21 27 27 29 26 26 24 21 21 24 17 20 20 20 22 18 21 21 24 20 22 18 19 
17 16 7 8 8 9 7 8 10 11 10 4 13 14 17 17 16 16 21 19 17 18 20 23 22 21 26 20 21 20 22 23 22 20 18 19 23 22 26 21 25 21 26 27 26 26 25 27 23 25 25 25 24 25 25 26 22 26 24 24 20 26 26 26 22 20 21 21 22 23 21 18 21 18 20 25 19 15 18 11 
17 15 10 11 10 7 7 8 14 8 10 13 17 16 18 15 17 23 19 24 19 21 20 22 23 22 26 20 23 22 23 23 23 22 21 18 25 27 28 24 22 27 30 24 25 26 27 26 25 26 26 26 27 26 26 28 24 28 21 28 27 23 26 24 21 20 22 17 25 25 23 18 20 17 20 18 20 19 15 13 
15 20 11 12 10 7 10 8 13 9 10 10 17 16 15 18 17 19 18 19 18 22 25 20 24 22 26 24 24 22 19 22 23 23 22 25 23 27 24 22 26 24 23 27 25 26 24 24 27 24 26 29 26 29 25 26 25 30 36 26 27 26 26 21 23 23 21 22 22 21 22 22 17 16 20 21 19 17 13 15 
20 16 9 9 10 12 8 12 12 7 10 12 17 19 14 18 19 19 18 24 23 22 23 25 22 22 25 22 23 23 19 21 19 19 23 25 25 24 24 24 25 23 22 24 27 21 26 23 24 21 25 25 29 25 25 30 24 24 27 26 25 24 27 25 23 23 21 19 23 16 19 20 19 16 21 24 19 17 15 17 
19 20 11 13 12 8 12 11 6 7 8 11 15 20 15 13 20 22 20 22 19 19 22 24 23 21 21 19 23 22 24 18 19 20 22 22 24 24 22 22 21 21 23 23 23 25 24 26 22 26 22 24 24 28 26 25 24 26 27 29 27 24 25 25 25 23 19 20 19 20 17 19 19 17 18 18 17 17 13 14 
18 17 12 17 15 13 10 10 12 9 14 13 18 16 12 20 19 18 18 23 22 21 26 25 22 23 24 23 18 21 17 21 19 22 23 23 25 23 20 17 22 26 22 21 23 24 21 23 24 27 24 21 26 24 24 25 23 24 27 26 25 26 25 24 22 22 21 17 21 18 16 20 16 20 18 16 18 16 17 16 
20 20 15 13 13 10 14 11 8 6 12 13 19 16 17 16 17 20 20 20 19 21 22 22 21 19 19 23 23 23 21 23 24 25 23 21 22 24 23 24 21 23 25 23 22 22 23 22 20 22 27 25 25 25 24 27 22 23 24 23 26 25 20 23 24 23 21 22 22 23 16 20 15 19 21 21 18 20 18 16 
20 25 17 17 15 11 13 12 10 7 14 13 15 17 15 16 14 19 18 25 21 19 22 22 21 19 17 21 18 20 21 23 23 23 21 21 22 23 25 23 26 22 25 22 22 22 26 24 23 24 26 23 22 22 23 27 24 28 26 25 24 23 21 23 18 21 22 19 22 20 18 16 19 17 17 23 20 15 17 13 
26 20 12 19 12 13 7 11 13 7 9 16 14 16 16 16 13 15 17 19 19 21 24 21 20 17 18 22 23 22 20 19 23 24 23 19 21 24 25 23 23 20 20 19 26 28 27 23 22 26 24 25 21 21 24 23 28 23 25 23 24 22 27 24 19 23 17 17 19 18 7 20 13 18 20 21 23 19 20 14 
16 19 15 15 13 12 7 7 11 9 2 9 17 14 13 19 12 17 18 20 18 24 21 22 24 18 20 20 22 22 21 20 21 25 23 20 21 23 21 23 21 21 20 22 26 28 24 28 19 26 24 25 22 25 25 25 25 26 29 27 21 24 24 24 20 20 22 20 19 18 20 19 18 19 19 18 21 17 16 14 
18 19 16 14 8 10 10 8 7 4 7 13 12 11 13 14 15 13 16 18 21 22 20 23 21 19 17 19 19 18 21 22 21 22 21 21 21 22 25 21 22 19 22 23 24 23 20 26 23 26 24 26 22 24 24 27 23 35 28 26 24 23 20 23 20 19 22 20 23 24 19 18 21 16 20 20 21 15 17 17 
21 22 14 13 12 11 10 9 12 1 9 9 12 2 15 17 15 15 14 18 17 17 19 20 18 22 21 21 21 20 19 19 21 21 20 18 19 24 19 22 22 22 22 20 26 25 23 22 19 25 23 23 23 23 25 25 22 27 29 25 21 24 24 23 22 18 20 17 21 23 19 19 20 19 21 19 20 19 16 12 
22 20 16 14 12 10 10 8 9 5 8 10 13 12 14 16 15 18 17 16 20 18 17 19 20 21 21 22 20 22 19 23 23 25 20 22 19 24 23 23 22 22 20 21 20 24 24 25 20 21 24 22 26 26 25 23 23 24 29 24 22 24 23 24 18 21 18 18 21 19 24 18 26 18 21 22 21 17 12 12 
23 18 13 11 12 14 7 11 9 4 9 12 12 9 13 14 15 15 18 19 19 17 20 21 22 20 19 21 21 20 21 21 21 23 22 18 19 23 22 23 24 20 24 22 24 24 19 24 23 21 22 22 21 28 26 23 24 31 29 26 23 25 20 22 21 22 19 19 24 19 22 17 17 21 17 19 18 18 16 12 
17 18 14 12 12 8 11 6 4 1 6 10 13 14 13 13 14 15 19 20 13 19 21 22 18 20 18 18 20 19 21 21 24 21 23 22 20 23 23 21 24 22 22 24 23 22 20 20 21 19 24 23 29 26 23 25 24 28 28 26 23 25 22 24 21 20 23 21 23 17 21 15 19 18 19 18 17 16 17 15 
20 16 15 12 13 17 11 8 8 0 7 9 16 10 14 15 17 20 22 21 20 23 30 22 21 22 19 21 16 20 19 24 22 22 24 21 23 23 23 21 24 24 22 24 24 20 22 24 23 23 22 23 24 24 24 24 23 24 23 24 25 21 23 26 20 20 20 19 20 21 21 21 19 19 17 18 19 15 20 18 
17 18 15 15 11 13 10 8 10 5 10 9 11 13 13 13 13 17 23 18 18 17 26 24 23 21 21 20 21 21 30 25 20 21 22 23 22 24 22 22 23 23 23 21 22 20 19 21 22 23 25 26 24 24 26 27 25 24 24 25 19 23 24 21 20 21 20 21 23 19 19 22 18 20 16 17 17 16 19 12 
18 18 15 16 12 11 11 11 12 7 13 9 20 14 14 21 13 17 19 23 19 18 26 27 22 22 20 19 23 23 24 24 21 24 21 23 23 27 25 24 20 21 20 21 23 18 21 21 22 25 25 25 25 27 21 24 22 24 26 23 25 28 24 24 20 21 22 21 23 22 25 21 20 18 19 17 17 17 20 16 
19 17 14 17 15 8 11 13 12 9 8 11 21 15 19 18 18 18 20 24 19 21 23 19 21 22 21 21 22 22 24 23 23 20 22 22 21 22 22 24 22 19 18 20 26 19 20 22 21 23 23 24 24 26 23 25 22 26 28 25 25 22 23 22 21 23 22 24 24 21 23 23 22 20 22 20 20 18 19 15 
18 17 13 15 10 10 13 17 11 8 13 14 18 16 13 19 20 16 21 23 20 20 22 24 24 19 22 21 19 22 21 22 21 24 20 21 21 23 22 22 22 24 21 21 24 21 22 23 22 25 22 27 27 24 22 24 25 22 25 25 23 25 22 23 21 21 25 23 22 26 23 23 21 21 20 20 20 15 19 16 
19 15 11 10 12 13 10 11 11 9 12 12 16 15 15 13 19 20 20 23 19 24 23 24 23 20 20 18 20 21 19 20 20 20 20 22 21 24 20 22 22 22 22 24 24 25 20 21 20 24 23 24 23 22 24 23 23 24 25 23 24 21 25 21 24 21 26 20 21 19 20 20 21 20 17 20 18 18 21 14 
13 16 13 11 10 8 11 12 11 8 4 11 17 14 16 17 14 18 22 21 23 24 25 24 24 21 21 20 17 19 20 21 19 21 20 18 23 20 20 22 24 20 23 19 21 24 21 24 21 23 21 22 23 24 24 24 23 24 28 24 20 24 23 22 21 22 23 21 21 19 20 22 20 18 22 20 18 17 16 15 
16 14 9 11 13 10 13 9 6 9 11 14 19 13 15 17 16 19 16 22 22 24 29 25 22 20 22 22 20 19 17 18 20 21 21 20 19 21 20 21 23 20 21 22 18 23 24 24 19 20 22 24 24 23 24 24 23 23 23 23 24 25 23 22 23 23 23 20 17 19 20 20 22 19 20 19 18 20 17 14 
17 15 13 15 14 8 9 7 10 9 9 11 14 14 12 14 14 17 20 20 20 19 23 21 23 21 24 23 22 21 20 21 21 19 22 20 20 22 22 22 23 21 23 24 22 23 22 23 21 22 21 22 23 22 21 20 22 24 21 24 23 23 24 22 23 23 23 20 21 22 21 17 19 20 20 18 17 17 19 17 
20 18 15 12 11 11 10 11 10 9 14 11 18 13 14 16 16 18 18 22 17 19 20 22 21 25 19 20 21 22 26 21 19 20 23 21 23 24 24 24 21 22 24 23 23 21 22 23 22 25 23 21 23 24 22 25 20 24 26 23 24 22 22 24 22 21 22 22 22 23 22 21 18 15 22 17 19 17 13 17 
19 18 19 12 8 11 10 10 13 9 9 14 21 16 15 19 17 18 19 21 19 20 26 26 23 21 20 18 22 19 24 23 20 21 22 20 22 24 24 23 23 24 24 25 25 25 24 22 21 21 23 22 21 21 22 22 24 25 24 22 21 23 24 25 22 24 27 22 20 23 20 19 21 20 21 18 18 17 18 17 
21 20 12 14 10 11 10 9 10 7 8 13 17 15 22 17 19 17 16 21 18 22 23 25 24 24 23 23 19 23 23 19 19 21 22 21 25 22 23 25 24 24 28 26 26 25 19 25 23 23 25 23 21 25 24 24 21 25 22 23 22 25 24 24 25 21 22 24 20 22 22 23 22 24 20 17 19 17 16 19 
18 22 15 12 11 10 8 8 13 11 10 14 19 14 18 20 21 13 19 19 24 23 25 26 24 19 22 21 24 22 22 24 21 22 22 24 21 21 23 24 27 25 24 27 25 25 21 23 25 26 25 24 22 24 24 26 26 23 24 23 22 26 24 23 24 23 25 25 19 24 22 20 21 17 21 19 18 19 18 21 
15 20 13 12 11 15 8 9 13 7 8 15 14 16 18 19 14 19 19 20 21 23 24 27 25 26 24 24 21 24 24 20 21 25 19 23 22 22 22 25 27 24 26 23 26 23 19 23 21 23 26 23 21 23 23 24 23 25 24 23 23 23 23 25 25 25 24 22 24 21 21 22 20 20 25 16 20 16 14 14 
21 16 17 15 14 11 9 9 7 8 7 11 10 9 13 17 18 19 22 20 21 23 25 29 27 25 23 21 23 27 24 19 21 23 20 19 19 21 25 24 22 24 24 25 22 23 21 24 20 23 22 28 21 25 21 26 22 27 24 21 22 25 23 25 22 23 29 22 24 22 21 23 22 18 20 20 19 17 14 18 
18 17 9 16 15 13 11 10 11 11 15 16 16 12 17 19 20 18 23 24 22 25 25 29 30 26 25 25 27 25 23 24 24 24 25 23 23 26 25 23 25 25 26 23 27 27 25 26 24 26 24 26 25 26 24 25 25 26 28 21 24 24 23 25 22 21 27 25 23 22 22 22 23 21 20 19 20 20 17 18 
21 14 14 12 16 13 14 16 19 19 18 17 18 17 14 18 19 22 21 27 25 24 28 26 27 25 24 23 25 24 24 26 25 26 25 22 23 22 24 27 26 24 23 26 24 25 26 31 26 22 27 25 24 25 26 30 24 25 27 25 24 25 24 27 27 23 23 26 19 25 18 21 20 21 24 18 22 21 20 21 
18 16 10 16 18 20 21 18 22 19 18 21 18 15 17 21 19 27 26 26 21 26 28 29 27 26 23 25 24 27 26 23 25 23 25 21 22 25 24 28 25 26 23 27 26 25 23 27 27 25 27 27 26 27 25 23 24 26 24 26 25 26 23 25 26 25 22 21 24 20 23 22 19 22 21 19 24 19 19 19 
14 17 13 21 21 27 20 22 20 18 17 22 17 18 21 22 18 30 25 29 25 27 30 31 28 26 24 22 26 29 28 24 25 27 24 22 23 25 26 26 24 24 23 25 24 25 24 25 26 27 29 28 27 27 29 28 23 25 26 26 24 25 25 22 23 27 27 24 23 22 19 22 21 20 21 21 21 21 21 23 
20 22 28 21 24 28 30 30 30 25 28 24 24 20 16 21 20 25 23 28 28 28 31 31 28 28 25 28 28 27 29 24 26 26 24 23 25 27 25 27 24 23 30 28 27 27 27 25 24 26 27 27 29 27 27 28 26 26 27 27 22 23 23 25 22 24 22 24 21 20 22 22 21 19 22 22 20 19 23 20 
27 28 19 28 24 29 45 56 56 50 43 33 26 24 27 25 23 24 23 30 29 31 33 32 31 31 29 30 29 29 26 26 28 28 26 23 26 25 27 27 24 21 25 29 25 28 29 27 27 26 25 31 29 28 31 29 27 28 23 26 23 28 24 25 25 21 26 21 23 20 25 22 22 24 24 24 21 20 24 19 
25 31 23 27 20 27 46 64 72 66 69 66 60 53 40 33 32 32 35 31 31 30 35 32 34 32 37 30 31 28 28 29 31 31 27 24 22 29 27 24 29 25 27 27 28 30 28 30 28 29 30 35 32 35 28 28 25 27 26 26 23 28 25 26 25 25 27 22 22 20 19 23 20 25 24 23 21 20 27 22 
24 25 17 19 16 23 48 66 73 70 77 79 76 77 73 71 65 53 41 44 34 32 35 33 35 32 35 30 31 28 28 29 28 32 24 26 29 28 29 25 26 27 31 28 27 28 26 29 26 29 29 33 34 32 27 26 30 26 26 27 22 23 24 25 28 24 25 17 20 23 23 20 21 19 22 20 21 24 25 21 
22 25 21 20 15 23 46 70 69 75 76 80 85 83 85 87 80 82 81 76 62 55 47 41 38 35 35 33 28 30 31 28 29 28 32 29 28 30 28 27 31 28 28 28 29 31 27 32 29 32 31 29 31 31 28 33 29 29 29 25 23 26 30 28 27 24 25 21 21 23 23 20 21 20 21 22 21 18 21 20 
20 23 13 16 18 24 42 75 75 72 78 79 86 83 86 87 87 89 96 93 82 84 77 63 59 48 36 36 33 32 30 31 29 30 30 26 28 29 28 28 29 26 29 29 26 34 31 40 35 31 32 31 29 31 28 28 28 28 30 27 24 28 26 24 26 24 25 21 23 24 21 23 23 18 20 24 22 18 20 22 
22 16 12 14 18 21 45 68 73 74 78 81 84 82 88 95 96 95 101 99 95 90 86 83 81 71 61 54 50 40 39 33 32 34 31 30 30 31 30 30 28 26 28 29 31 35 34 36 33 34 30 31 28 26 28 27 25 30 28 27 26 26 27 28 27 25 24 24 23 23 22 22 20 19 21 19 22 20 16 21 
21 18 11 19 10 20 40 66 75 73 73 84 91 86 93 96 95 99 99 101 97 95 92 85 84 78 71 65 59 52 47 44 34 31 34 35 31 28 32 29 31 27 27 30 31 34 29 31 31 30 31 31 27 30 30 28 27 27 29 28 27 27 27 28 25 26 26 25 24 25 23 20 19 22 22 23 19 11 17 19 
20 22 15 12 14 20 40 70 75 78 79 85 93 91 97 97 96 104 101 102 101 93 95 86 85 83 82 70 67 65 65 56 52 41 39 34 31 30 31 27 29 29 30 33 35 35 31 32 30 31 32 31 31 30 30 28 28 29 28 29 29 29 25 26 25 24 24 27 22 26 22 23 19 22 24 18 18 16 17 15 
21 18 15 15 14 22 45 70 74 73 76 83 91 93 96 99 96 99 104 104 99 96 100 92 90 87 83 77 75 73 70 69 66 60 57 47 39 35 31 31 30 32 32 33 32 33 34 31 30 30 31 32 34 29 32 30 31 31 29 32 31 30 28 27 25 27 26 25 27 26 29 23 21 24 19 20 17 13 14 18 
18 14 17 16 13 14 43 71 77 77 76 87 93 97 97 100 98 103 103 107 102 98 108 97 94 91 83 77 73 75 72 77 70 72 70 70 56 57 43 37 33 30 30 36 32 33 32 29 33 32 31 33 35 31 32 32 32 30 30 31 28 32 29 28 28 31 29 27 25 25 24 25 23 22 23 21 22 15 18 13 
25 26 18 24 14 23 45 73 86 82 83 91 96 98 102 104 103 108 107 108 106 107 106 104 99 93 91 84 74 74 76 72 76 75 82 72 75 76 73 64 54 40 37 36 33 38 31 34 30 33 33 35 33 35 35 33 32 28 30 31 28 31 29 29 31 28 26 25 25 22 26 24 20 26 26 21 18 18 16 17 
30 28 19 26 27 27 42 74 88 85 85 95 94 98 102 102 101 107 111 110 106 105 106 104 101 92 91 83 75 75 74 74 78 79 80 80 87 85 83 79 77 73 63 53 47 43 36 34 29 32 33 34 34 33 35 35 32 33 31 33 32 29 29 27 27 28 27 27 27 27 26 22 22 21 22 23 26 18 17 17 
30 29 24 30 36 33 49 75 88 86 85 95 97 96 98 102 107 108 113 109 111 107 108 102 103 96 87 87 76 77 75 79 79 76 82 82 80 82 86 89 85 85 80 81 74 65 50 45 36 35 35 30 35 33 33 35 38 30 36 35 32 31 29 30 29 24 29 25 26 25 27 26 23 22 24 23 22 19 18 17 
28 30 23 30 39 42 55 78 95 93 92 96 100 102 105 105 97 110 113 113 109 109 113 108 106 103 100 92 79 81 78 80 78 83 81 80 80 83 82 85 86 87 88 86 86 85 81 72 66 51 44 35 36 36 39 39 37 35 38 36 28 30 29 33 27 28 26 27 28 28 24 24 21 23 26 21 19 18 20 13 
26 29 28 32 42 46 58 86 107 101 97 102 104 99 102 106 103 112 114 117 110 114 110 109 110 104 102 94 89 79 79 81 81 82 83 79 82 82 86 84 88 83 89 91 91 91 94 90 84 78 72 60 48 44 39 37 39 40 38 33 32 34 30 34 29 30 29 28 27 31 25 28 26 25 23 20 22 19 19 16 
29 30 24 31 37 37 52 87 113 108 109 109 112 103 105 106 102 113 116 119 118 113 113 114 113 109 110 102 94 82 80 79 80 85 80 82 82 84 82 87 88 90 92 92 90 95 87 92 94 90 89 86 74 66 60 47 45 38 34 35 32 37 29 32 29 30 26 26 27 27 28 27 22 24 26 21 21 16 20 16 
24 23 23 29 32 33 46 82 116 127 124 125 124 109 110 110 106 113 118 123 123 122 119 116 116 110 107 103 92 83 81 78 82 86 84 86 80 87 87 89 89 95 90 95 87 98 90 95 93 96 93 96 92 87 82 71 70 53 46 39 38 38 31 34 27 28 29 25 25 30 47 27 25 23 24 23 23 17 20 18 
20 28 21 17 29 29 37 53 85 115 133 122 134 122 118 118 110 116 117 128 125 123 121 120 116 114 112 108 94 84 81 79 81 87 88 85 82 86 87 90 98 94 91 94 93 96 94 96 100 100 100 93 91 95 96 88 83 74 71 63 47 40 38 35 34 34 30 23 25 23 27 21 22 22 26 24 19 17 21 16 
19 19 17 20 26 27 33 39 52 64 92 120 139 126 131 124 119 117 120 129 127 128 129 125 120 117 112 111 102 86 86 83 82 91 87 86 87 94 89 92 92 95 94 98 94 100 98 107 97 100 97 96 94 93 95 89 88 85 84 74 69 62 58 45 36 31 24 23 23 25 19 18 18 19 15 17 17 16 16 16 
19 17 13 17 21 22 34 41 47 41 53 74 106 134 152 136 130 129 130 134 133 136 136 132 128 123 120 119 107 92 89 87 86 91 89 94 91 94 97 91 96 95 97 98 102 99 97 101 98 99 100 100 93 98 95 90 90 81 86 79 79 78 71 57 46 33 31 23 25 24 21 22 19 21 21 21 20 12 15 10 
14 21 10 14 21 24 37 33 49 43 42 49 55 77 118 148 144 151 139 144 143 145 145 145 136 130 128 121 111 93 89 82 89 89 92 96 98 97 95 94 101 91 102 104 98 103 101 103 104 101 101 102 101 96 96 90 90 85 88 87 79 79 79 67 46 34 29 28 24 25 22 21 19 22 23 22 18 8 16 12 


