P2
80 60
47
27 27 27 24 25 27 29 27 29 33 28 30 34 31 29 30 28 27 27 28 29 30 30 25 31 28 30 31 33 32 31 35 35 37 34 36 39 36 33 32 33 32 37 34 31 27 33 32 36 33 34 32 30 35 30 28 34 39 36 28 28 27 29 29 25 25 19 23 25 24 24 22 21 20 25 20 23 18 18 17 
29 26 29 27 26 28 27 30 26 31 28 34 31 32 32 29 30 28 26 29 26 29 30 27 28 29 29 31 30 30 32 35 37 36 32 34 34 36 34 29 31 34 36 35 33 30 32 34 30 32 33 30 28 32 29 31 35 32 31 28 26 26 24 28 25 24 21 19 24 27 21 22 18 22 22 20 21 21 19 18 
26 26 26 24 28 31 26 27 32 30 30 36 30 25 30 32 28 27 28 32 29 27 32 28 26 32 34 30 31 30 35 35 34 36 37 33 35 33 33 29 32 32 33 32 30 31 31 28 31 34 34 30 30 32 33 31 32 34 26 29 26 26 23 29 24 23 19 18 21 25 21 22 20 21 22 21 17 20 16 21 
28 23 30 27 31 33 28 28 27 30 33 35 33 29 28 35 30 31 31 32 29 28 27 29 27 30 33 32 31 33 28 33 35 33 35 34 33 38 34 32 32 31 35 32 29 32 33 30 33 31 34 30 31 31 31 28 31 27 26 26 26 27 22 28 24 26 20 22 22 23 26 22 18 22 20 23 20 22 23 21 
34 25 30 29 31 30 29 31 29 30 28 32 30 29 29 32 32 30 29 34 31 29 32 29 29 32 36 35 31 31 32 33 34 35 33 34 34 35 38 34 32 33 34 34 31 33 32 34 32 35 33 31 30 29 28 29 26 28 29 27 27 27 26 30 29 25 18 25 26 24 24 23 21 18 24 19 20 23 21 19 
29 28 28 29 31 29 30 31 30 30 28 30 32 30 32 31 32 30 30 31 35 33 32 32 30 33 33 36 32 30 30 30 32 32 33 31 38 37 37 31 32 35 35 37 31 29 35 34 33 31 30 31 31 30 29 30 27 31 26 32 31 27 25 28 24 22 22 25 29 24 24 23 22 19 17 19 21 22 16 17 
29 29 29 29 31 29 31 31 31 32 29 32 26 29 28 31 34 33 33 29 31 32 32 30 31 31 34 31 28 28 33 31 32 33 32 33 32 34 36 32 32 33 31 33 28 31 30 33 34 32 32 35 31 30 25 26 31 32 33 31 31 29 26 26 25 24 22 25 25 24 21 21 17 20 19 22 20 21 18 16 
34 33 32 31 31 30 31 30 27 30 29 33 29 35 33 33 31 31 32 33 36 29 30 30 33 33 35 35 31 35 30 30 29 33 33 36 33 33 34 33 32 29 29 35 27 31 33 31 31 30 31 33 36 29 26 30 28 32 30 30 31 29 28 28 27 26 23 23 26 23 18 18 21 20 21 23 22 21 18 11 
34 32 35 30 32 29 30 28 27 31 29 31 35 31 30 32 34 30 32 37 32 29 31 30 32 30 31 33 33 31 29 31 29 33 34 32 36 32 33 30 30 30 32 32 29 28 31 30 29 30 33 33 29 30 27 33 29 29 26 31 28 22 26 24 25 25 25 23 24 26 21 20 20 19 19 19 20 22 14 17 
37 35 33 30 28 29 31 34 30 28 30 32 33 28 30 31 35 27 33 31 30 30 32 28 29 31 35 29 32 32 26 28 33 31 35 30 35 33 33 32 31 30 30 32 28 27 28 30 31 29 35 33 27 30 28 32 31 27 25 28 26 29 24 26 23 29 23 22 25 21 18 22 18 19 21 18 22 20 18 17 
30 32 32 32 30 31 34 29 32 28 31 26 31 28 32 30 27 30 29 32 29 28 29 28 29 29 30 32 34 30 27 30 31 33 31 31 32 32 33 32 29 27 29 30 27 28 27 26 28 27 33 32 28 27 27 28 27 25 26 26 26 24 23 23 23 23 21 23 22 24 19 20 16 18 17 20 20 18 19 19 
34 31 34 33 32 34 35 32 29 29 29 31 28 29 30 29 28 30 26 29 29 29 26 31 31 29 30 32 31 30 28 31 32 33 32 31 32 30 33 29 33 29 29 31 29 30 27 27 27 27 28 29 26 29 27 28 28 28 26 25 26 27 24 28 22 25 22 20 19 18 17 19 17 19 18 21 19 19 17 12 
34 32 31 35 33 31 30 33 30 27 29 30 29 28 29 29 30 28 27 31 27 30 31 28 28 28 31 29 26 32 29 31 33 34 29 29 33 31 34 30 30 28 31 26 29 26 29 25 28 26 33 28 25 26 28 27 30 31 26 26 26 28 27 25 25 22 21 18 21 23 9 18 17 14 19 19 16 20 16 14 
31 32 32 35 30 33 25 31 26 30 26 34 28 29 29 32 31 28 25 27 30 30 29 27 27 27 28 32 30 30 33 30 33 35 32 29 30 36 29 27 26 29 28 31 27 27 27 29 26 32 29 28 27 28 27 30 31 28 29 25 26 23 23 22 19 23 22 20 20 17 21 17 18 14 16 16 19 21 21 20 
32 32 36 32 30 29 31 32 27 27 27 28 28 26 26 30 28 28 28 27 26 28 27 27 27 25 32 31 29 32 29 32 32 35 29 30 34 31 33 30 28 29 29 29 28 27 28 26 30 30 26 29 29 28 27 29 31 47 30 29 27 24 23 25 20 22 22 23 22 22 22 20 17 16 13 18 22 22 20 18 
33 35 36 31 29 30 28 29 31 29 27 29 29 27 27 31 29 26 26 28 28 29 28 28 28 28 31 31 34 26 28 28 33 31 32 31 33 32 34 28 31 30 29 30 27 28 29 28 26 29 29 29 27 33 27 30 30 32 30 30 25 23 23 25 22 29 19 21 25 23 23 21 17 19 18 15 19 22 20 19 
33 34 36 33 31 32 31 28 25 26 29 29 29 26 28 31 29 27 27 27 25 28 27 26 28 26 28 29 33 30 28 31 32 32 29 32 29 30 29 29 32 28 30 27 28 28 29 27 29 26 29 27 26 26 30 31 30 31 29 25 25 26 22 26 24 23 20 26 24 24 26 21 20 21 17 20 18 22 19 20 
32 29 33 29 33 28 29 27 29 27 28 30 29 26 30 30 28 27 28 30 28 25 30 30 28 28 28 30 30 29 28 30 30 31 27 30 32 30 31 31 27 24 25 30 29 29 28 27 25 24 25 25 29 27 29 27 29 36 30 27 28 25 23 25 24 24 19 22 27 24 20 21 20 17 19 16 21 23 20 15 
33 35 33 34 32 30 31 28 26 30 30 30 28 32 31 29 28 28 27 29 26 30 27 28 28 29 30 28 33 32 29 28 32 33 33 30 35 33 31 28 26 28 28 31 29 27 28 27 28 26 24 30 29 28 26 27 27 30 27 23 25 24 21 24 24 24 21 23 27 20 22 19 18 17 15 16 20 21 15 16 
30 30 33 34 33 36 27 26 29 28 30 35 30 28 28 27 28 28 30 28 32 33 34 29 29 32 31 31 30 31 30 31 32 32 32 28 32 35 32 29 29 28 25 27 24 26 25 29 28 26 29 29 29 27 25 27 26 25 26 27 26 25 21 23 20 25 19 24 23 23 23 21 20 14 17 18 17 19 14 16 
31 31 33 31 31 28 27 29 25 29 27 30 29 28 28 27 27 29 25 27 27 31 30 28 29 30 32 33 27 29 39 35 30 31 28 27 31 33 28 27 28 29 28 27 24 27 24 24 25 26 25 28 26 26 26 23 29 25 26 25 24 24 23 25 24 23 23 24 23 22 26 19 16 15 19 18 17 20 18 18 
31 32 34 34 31 26 30 29 28 26 29 28 34 27 29 31 27 30 26 30 26 28 31 28 26 30 30 30 28 29 32 30 31 32 28 29 33 31 32 29 30 30 24 25 24 25 25 22 27 26 28 25 22 23 27 22 24 27 29 25 22 24 24 27 26 23 24 24 21 27 22 20 19 19 18 16 14 22 15 15 
30 28 33 34 31 28 28 31 28 30 25 27 29 29 29 26 30 29 29 31 26 27 28 28 27 26 32 31 28 29 27 28 32 30 28 26 30 30 29 27 26 26 25 25 22 23 28 24 25 27 27 25 25 24 25 22 22 25 25 23 24 23 24 26 26 25 21 23 24 25 21 23 22 17 18 20 13 19 18 14 
31 27 33 31 29 27 31 35 26 27 28 31 30 30 28 29 28 30 25 29 28 28 27 26 24 27 30 31 27 28 24 27 30 26 27 29 29 28 28 28 26 25 23 27 22 23 24 22 26 31 28 24 25 25 26 24 26 23 24 22 25 23 25 30 25 23 25 25 26 23 22 21 19 18 17 17 15 21 18 19 
34 33 34 29 28 32 28 31 31 29 26 31 30 29 29 28 30 27 28 28 28 27 27 26 29 27 27 27 28 25 25 26 28 26 27 27 28 28 28 27 24 18 26 25 28 28 25 28 25 26 27 25 23 26 23 22 26 24 26 25 24 24 21 28 25 24 22 22 24 22 17 17 21 19 19 20 16 18 19 15 
27 27 33 27 27 28 29 30 28 26 28 29 27 27 31 32 28 27 26 28 27 27 29 31 29 28 29 29 27 27 27 25 30 26 25 26 28 28 26 27 25 24 25 28 22 27 24 28 26 21 27 23 24 26 21 23 24 23 25 25 23 22 19 27 21 20 21 21 22 23 21 22 19 18 20 18 20 21 19 19 
32 28 32 32 30 28 30 30 31 28 27 28 27 27 29 29 27 31 27 30 27 26 32 32 28 27 28 29 27 28 25 25 30 30 28 26 29 26 27 25 25 24 22 24 23 24 25 24 24 21 25 21 21 23 21 22 23 23 21 23 26 23 20 22 24 22 21 19 25 21 21 19 19 17 18 16 20 21 17 15 
31 28 34 31 29 28 30 29 29 30 26 29 28 28 27 27 27 30 27 28 26 25 27 27 28 26 31 32 28 26 29 30 28 26 27 24 29 26 26 26 26 24 25 25 25 25 25 21 25 23 26 24 24 24 21 23 24 22 22 22 23 22 20 23 24 20 20 21 20 19 23 22 19 19 17 18 21 19 17 13 
30 30 32 30 29 31 26 30 27 31 29 28 29 26 27 27 25 27 26 29 24 27 27 26 25 29 31 30 27 28 28 26 28 25 24 26 27 26 26 27 25 23 24 24 22 23 24 25 22 21 22 27 25 20 22 23 22 19 19 23 24 21 19 24 23 21 21 19 20 20 22 19 18 18 19 15 19 19 15 13 
34 32 35 30 29 30 29 27 32 28 26 30 31 27 27 25 28 26 25 25 25 26 29 27 27 29 29 27 26 27 24 28 26 26 22 28 30 28 27 23 26 21 24 26 23 24 22 25 23 22 23 25 24 26 22 21 20 22 20 21 26 23 22 25 23 24 26 24 20 20 21 18 15 19 20 19 17 16 13 14 
30 32 34 32 28 27 25 31 24 30 27 30 28 28 28 28 28 28 27 30 28 27 30 26 28 29 30 28 27 28 28 27 29 29 30 28 31 27 26 24 27 23 26 28 24 24 21 26 28 24 26 26 20 25 24 20 23 19 19 20 26 21 25 24 23 25 21 23 24 22 22 21 16 17 20 17 16 17 16 13 
32 34 29 32 27 28 27 22 26 28 28 27 30 28 31 31 29 25 28 27 26 27 32 25 27 28 32 28 27 27 26 27 29 27 27 24 29 26 25 24 31 24 28 30 26 23 23 24 24 27 25 25 25 26 21 20 20 22 21 20 20 19 23 26 25 23 20 19 20 21 19 15 16 18 18 16 15 18 16 16 
31 32 33 33 32 29 25 27 27 27 29 28 29 26 28 29 26 26 26 30 28 25 24 27 25 28 32 27 29 27 27 29 27 27 27 26 29 28 26 24 23 27 25 24 26 24 21 22 22 25 24 26 23 24 22 21 22 22 23 20 19 22 22 25 23 24 22 24 22 21 21 17 16 17 21 17 18 16 15 15 
32 28 33 31 29 29 27 28 30 28 28 30 28 27 27 26 26 26 26 27 28 27 26 29 27 29 28 27 29 28 26 26 27 26 28 26 31 32 26 23 27 25 28 23 24 25 22 20 24 23 25 23 23 24 22 20 22 22 20 19 24 23 22 24 24 22 24 20 21 20 20 20 18 18 18 17 20 19 15 12 
29 29 30 32 28 26 26 25 27 28 27 27 27 29 27 25 29 27 24 27 25 25 28 25 28 29 29 30 28 27 27 27 28 27 24 26 30 30 27 19 23 22 25 26 21 24 24 20 21 21 23 23 24 23 18 21 21 25 21 21 18 22 20 21 22 22 20 19 22 20 18 19 19 15 18 19 17 17 15 12 
29 27 29 31 28 27 24 26 23 27 26 28 27 27 28 25 26 26 26 25 27 28 24 27 25 26 27 27 28 27 28 26 26 28 25 25 29 25 28 24 22 24 21 21 21 22 24 27 22 22 22 24 25 20 20 21 20 23 22 21 21 19 23 23 23 20 18 22 17 20 19 16 16 16 20 16 17 21 15 14 
28 29 35 31 27 26 28 27 23 26 25 27 29 23 25 28 28 28 29 27 26 25 26 27 24 26 25 27 25 25 26 26 25 26 25 24 27 26 27 24 25 23 23 24 22 24 21 23 22 22 20 23 24 23 21 21 22 25 23 18 21 21 19 22 22 22 19 18 20 20 21 15 16 17 16 16 17 18 13 14 
35 34 34 30 27 29 25 26 29 24 24 28 32 26 26 28 24 32 30 27 26 27 26 28 27 25 24 27 27 28 30 29 28 28 24 24 27 26 26 23 21 23 27 24 22 23 24 21 24 21 23 24 21 20 23 24 21 20 20 22 18 22 22 20 20 24 19 18 20 21 19 14 16 14 13 14 13 18 16 13 
29 35 37 30 30 31 28 29 27 27 28 32 27 24 28 25 28 28 26 30 28 29 28 29 27 26 28 25 23 26 27 27 28 30 26 28 28 26 24 23 21 22 25 22 22 22 24 23 23 24 24 24 25 24 23 21 21 22 18 19 20 19 20 21 21 22 20 23 23 21 19 18 15 14 17 14 16 21 18 20 
28 31 30 29 28 27 25 27 28 29 28 30 30 23 26 28 23 25 24 27 30 29 25 30 26 25 29 29 24 26 23 24 27 26 26 29 30 25 26 19 25 21 26 22 24 25 24 24 24 24 26 24 24 25 26 20 19 20 18 20 19 19 23 21 17 18 18 19 19 15 16 16 13 14 16 15 18 19 17 13 
30 28 30 28 27 27 24 26 29 30 27 28 29 28 28 28 25 24 26 26 26 32 26 27 28 24 36 28 28 28 24 25 28 29 26 27 29 26 26 18 23 17 23 21 20 21 24 22 24 22 27 30 26 29 19 20 19 18 16 20 21 20 17 17 18 19 13 17 15 18 18 17 14 16 18 15 17 22 20 17 
30 25 30 27 27 27 26 25 25 25 26 28 27 28 27 27 26 25 25 29 25 24 27 26 28 24 25 27 28 24 25 23 27 31 26 27 34 25 24 23 22 17 22 21 21 25 23 24 23 25 25 25 25 26 21 23 19 24 20 18 22 21 19 18 18 19 17 17 15 15 16 16 18 16 14 17 15 19 16 16 
32 31 30 29 25 25 26 26 26 25 25 28 27 28 29 26 27 25 25 29 27 27 26 26 31 27 27 27 26 22 24 26 26 27 26 28 30 26 25 23 24 20 17 22 24 23 25 24 23 26 24 26 22 25 24 19 22 23 19 19 19 20 20 24 21 21 17 18 15 16 14 11 14 12 16 16 16 17 13 10 
32 28 29 26 26 26 25 28 28 25 26 31 29 29 23 25 28 27 22 30 27 26 28 27 27 28 28 21 26 27 28 25 26 26 27 26 30 25 25 20 21 24 23 23 21 27 26 30 24 21 23 22 19 26 18 19 20 21 21 18 21 22 18 19 16 18 19 18 16 17 19 16 15 11 15 15 14 17 16 12 
30 27 28 29 23 27 24 27 25 22 25 29 28 30 29 29 26 25 28 29 28 29 29 27 30 27 25 24 22 24 27 24 27 26 24 25 26 27 23 19 25 18 22 22 23 23 24 24 26 21 23 22 18 24 20 18 18 22 15 19 19 22 19 20 19 23 21 15 19 20 13 13 12 12 18 18 16 17 15 14 
30 26 22 25 23 26 20 24 24 23 23 26 28 29 27 27 28 27 24 28 27 27 26 28 25 25 26 22 21 25 25 25 25 27 25 26 26 24 19 20 18 20 15 23 20 22 22 20 23 20 25 21 15 22 17 17 18 18 18 18 18 19 15 20 20 22 18 13 19 15 15 11 13 14 14 16 15 14 11 13 
29 24 23 22 22 21 21 25 22 23 22 30 26 25 26 28 28 26 28 25 24 22 26 23 23 24 26 21 19 22 25 22 24 22 23 23 25 27 20 14 18 15 20 20 21 25 21 20 19 21 22 21 17 19 18 16 17 19 15 17 18 17 18 26 18 17 15 16 15 18 14 14 15 13 14 12 10 14 10 1 
27 28 27 24 23 23 25 25 26 24 28 28 28 26 27 28 28 26 28 28 25 26 26 25 24 28 24 22 26 27 23 22 24 24 24 25 26 27 22 24 20 21 20 19 19 22 23 16 22 21 20 21 18 20 16 16 20 21 16 20 16 20 16 21 16 15 17 16 16 18 15 16 14 12 13 11 12 12 10 7 
31 24 27 24 22 27 21 22 25 25 24 27 27 27 27 29 28 20 25 25 27 27 30 29 23 26 24 23 24 26 24 24 24 26 22 23 28 27 21 22 19 18 18 19 19 19 21 20 20 19 20 19 18 20 17 20 20 19 18 18 18 19 17 18 16 16 17 21 17 17 13 15 13 10 14 9 14 16 10 10 
28 26 27 24 25 24 22 25 22 25 23 26 29 26 29 32 28 22 27 28 25 24 25 26 26 23 26 25 22 25 21 21 24 25 24 23 28 26 26 18 21 15 18 17 18 20 16 14 19 18 20 18 18 20 17 20 18 20 18 16 18 19 15 20 18 17 16 14 19 19 13 14 9 12 12 11 14 14 10 5 
30 25 30 25 24 23 22 25 26 25 28 32 26 27 27 28 26 25 28 28 23 24 25 22 22 24 23 22 24 24 20 19 25 25 23 21 30 25 25 21 17 17 20 18 21 20 17 15 15 14 19 16 17 19 19 19 20 20 19 16 19 19 13 19 19 16 13 16 17 17 15 13 10 13 9 11 11 11 10 9 
30 28 26 25 27 26 25 24 25 27 27 29 25 23 28 25 24 23 24 26 28 23 25 26 21 23 21 22 25 27 22 19 23 25 26 27 26 27 22 17 17 18 19 20 16 18 18 16 17 18 20 14 20 25 18 19 19 23 16 22 19 17 16 17 15 15 12 17 14 14 12 13 12 7 10 13 13 15 10 10 
31 25 26 28 27 26 27 23 23 25 21 23 26 23 24 24 21 24 23 28 21 24 24 24 26 25 27 22 25 23 21 21 24 26 25 28 28 19 24 16 18 15 19 21 19 17 19 18 18 13 21 15 15 18 19 17 22 22 21 17 15 19 16 16 16 15 15 15 18 12 14 14 10 9 13 11 12 9 8 6 
25 22 27 28 31 26 22 20 22 26 26 24 25 25 25 26 22 20 23 23 21 25 23 25 25 26 27 25 24 22 19 21 23 23 22 28 27 22 24 17 16 16 16 17 18 15 18 18 15 20 18 20 16 17 18 18 22 18 17 17 15 18 16 17 13 14 12 13 16 14 12 13 10 11 8 9 10 11 4 7 
27 22 25 25 26 22 29 25 24 24 24 28 26 22 25 25 23 21 21 24 23 21 22 21 24 23 25 24 25 20 22 22 23 24 19 23 24 24 19 16 17 16 17 16 15 16 17 19 16 16 21 18 14 16 18 16 19 17 17 18 14 16 16 16 12 15 14 12 14 14 14 13 12 9 11 9 9 9 5 6 
23 23 23 26 24 25 25 23 22 25 23 26 26 24 24 23 20 19 25 24 22 21 19 23 22 22 20 24 23 19 16 19 21 24 20 19 22 21 20 14 16 16 17 19 16 15 15 17 17 18 18 17 15 19 14 18 15 15 15 15 16 15 12 19 15 10 9 9 11 13 15 13 10 11 12 8 8 6 7 3 
25 26 26 20 24 23 18 22 25 24 23 28 32 24 28 24 24 21 23 29 21 21 22 24 19 22 20 18 21 18 16 21 22 20 21 21 24 21 19 18 14 15 16 20 19 16 18 13 18 17 19 17 15 16 13 18 14 16 16 11 12 15 12 12 11 10 9 10 8 12 11 9 6 6 9 9 7 9 4 5 
23 20 21 19 22 18 18 24 24 26 24 28 30 27 23 26 20 24 22 26 25 22 23 19 22 20 19 18 23 21 19 21 22 24 19 20 25 22 20 16 17 16 16 15 16 16 19 18 17 18 16 14 15 14 14 16 16 14 11 14 14 15 11 14 12 13 9 9 8 11 12 12 8 6 7 7 12 8 5 0 
23 19 23 23 22 24 18 21 24 36 24 29 24 23 24 23 22 23 25 23 21 22 25 21 20 20 17 16 23 23 22 21 20 23 18 22 25 21 19 17 18 16 23 16 14 15 19 17 18 18 19 19 18 19 16 18 18 18 14 15 14 12 10 17 13 13 11 10 11 8 9 9 5 5 6 7 9 5 3 1 
22 22 22 20 19 20 21 19 20 19 23 26 25 24 24 23 22 17 19 24 21 24 23 23 22 22 23 20 20 22 18 19 18 21 23 24 27 23 19 17 18 19 20 21 13 16 19 20 16 18 20 19 15 20 10 15 18 16 17 14 14 16 12 17 10 11 11 11 6 10 9 6 5 7 5 7 7 5 2 0 


