P2
80 60
35
20 22 27 19 23 26 25 23 30 28 31 28 27 33 27 29 28 26 26 25 28 25 26 22 24 23 22 25 21 23 28 27 25 23 22 19 22 24 20 23 23 23 23 24 22 24 22 27 27 26 25 24 24 24 22 25 26 27 24 22 22 21 19 19 15 19 13 16 12 14 13 16 16 13 18 12 13 7 14 10 
27 23 26 19 25 21 23 27 29 26 27 32 25 28 29 28 29 27 26 27 24 25 24 26 23 22 22 23 23 22 29 27 24 23 25 21 23 22 21 20 21 24 23 25 26 22 23 27 25 23 22 25 20 23 21 26 27 25 24 22 22 21 22 20 13 13 15 10 13 14 9 18 16 15 13 11 13 11 13 6 
27 23 23 17 23 24 26 26 31 25 31 28 24 23 30 28 27 27 27 25 27 27 21 24 23 25 27 23 25 24 30 25 23 27 28 21 26 22 21 19 19 21 19 21 22 22 23 22 23 23 23 24 25 22 27 23 21 24 21 21 19 18 18 16 16 15 14 12 11 11 16 19 21 12 13 12 10 8 13 18 
26 20 26 24 23 29 25 24 28 26 32 29 25 26 26 28 29 27 29 26 27 25 24 24 22 24 26 25 23 25 24 25 23 23 24 22 19 25 20 22 20 24 23 20 19 21 23 23 26 25 24 24 23 22 20 22 25 20 22 24 21 21 17 16 15 17 12 14 14 15 15 19 15 12 11 14 11 12 16 15 
28 20 26 21 23 27 25 28 25 25 27 29 25 28 25 30 30 29 27 27 28 28 25 23 26 24 27 25 22 22 23 25 20 22 21 22 23 22 23 21 21 23 23 22 24 23 24 24 22 25 20 22 24 20 21 23 21 22 22 19 23 21 18 21 15 14 16 17 16 15 12 17 14 14 13 12 10 9 14 11 
27 19 26 26 21 26 27 28 30 30 27 25 27 30 29 27 28 30 29 28 29 30 29 25 27 26 25 24 23 23 21 22 19 22 20 20 26 25 24 21 21 24 25 24 23 22 27 25 24 21 23 22 27 25 21 23 20 23 24 24 25 24 19 20 21 15 13 13 19 17 16 15 13 11 10 12 13 11 12 10 
27 24 24 22 27 26 28 29 31 28 26 29 25 29 30 29 34 29 29 29 28 25 26 23 25 22 26 25 21 20 24 24 22 22 21 22 20 21 25 22 24 22 22 20 23 25 24 22 23 22 21 29 27 22 20 22 22 24 30 22 29 26 16 18 18 16 14 16 16 11 10 17 13 16 10 13 10 11 15 11 
29 25 25 26 21 29 30 27 29 27 25 28 27 31 28 30 29 29 31 28 30 25 24 26 24 26 25 21 22 24 24 21 18 22 23 25 18 20 23 21 23 20 20 22 23 22 22 19 21 20 22 23 25 22 21 24 21 22 22 24 24 23 23 21 18 21 15 13 18 13 13 15 13 11 12 13 12 12 11 14 
28 25 30 28 19 33 29 25 27 28 25 28 30 25 28 29 29 30 28 29 27 24 25 26 25 22 25 24 23 23 25 20 21 20 21 21 20 23 21 22 20 21 20 22 23 18 20 25 24 23 22 22 19 25 21 26 22 22 20 23 21 19 19 15 16 16 17 15 17 15 11 12 13 11 13 13 12 9 10 8 
28 27 31 29 26 31 28 25 28 26 28 26 29 24 24 29 32 27 28 27 25 27 24 22 25 23 24 22 21 24 17 18 20 20 23 20 20 22 20 20 19 20 17 21 18 18 19 24 23 21 23 21 21 19 20 23 21 20 22 21 20 20 18 15 16 17 16 16 17 13 13 16 18 13 10 13 11 10 7 8 
27 26 25 31 25 29 31 29 31 25 27 22 27 24 30 28 30 26 25 26 25 22 22 24 24 21 20 21 22 20 23 22 19 18 21 21 20 18 22 21 18 16 20 19 18 19 15 18 20 20 22 22 20 19 22 21 20 18 19 19 20 19 16 16 16 17 15 14 15 11 13 15 14 14 10 14 12 8 11 8 
30 28 29 32 26 33 30 26 25 29 24 25 25 25 27 29 27 28 25 25 22 19 22 25 23 21 21 21 20 23 23 23 18 19 21 18 17 14 20 18 19 20 19 19 19 21 19 19 19 21 16 22 20 21 20 20 19 20 20 19 20 21 18 20 17 18 17 13 12 10 9 12 12 12 11 17 13 9 9 7 
35 29 25 33 28 28 28 26 26 26 25 25 24 25 25 27 29 25 26 21 25 24 21 21 20 22 22 21 19 22 22 23 21 22 20 17 18 20 26 21 18 18 18 18 22 22 22 21 21 22 23 22 19 21 18 21 22 22 21 18 23 24 22 18 15 15 16 13 14 16 0 16 14 8 11 12 16 11 9 11 
23 26 28 30 24 29 24 26 27 25 26 26 25 24 28 27 27 25 26 20 22 21 21 22 21 22 18 21 20 20 25 18 22 21 20 20 17 23 19 16 19 17 20 20 16 20 24 22 17 24 19 22 18 20 18 22 22 24 25 19 19 18 15 16 14 16 15 17 13 13 13 15 11 10 6 9 11 10 20 8 
25 27 29 30 25 29 26 28 30 24 24 24 26 26 26 29 26 27 26 21 19 21 20 22 19 19 19 20 18 21 23 21 21 22 19 18 21 21 18 19 15 20 20 19 18 19 20 18 24 25 20 22 22 19 21 25 24 29 24 21 19 18 14 19 13 14 16 15 15 17 13 13 12 10 8 15 14 13 18 16 
30 30 33 33 26 27 31 28 28 24 26 25 26 27 25 29 28 24 22 22 28 27 20 23 20 21 20 22 22 19 22 20 19 21 20 19 18 18 21 19 25 21 19 18 20 21 24 20 21 20 21 21 23 25 20 23 22 24 25 22 21 22 20 15 18 22 13 16 15 15 16 14 13 13 11 9 12 12 10 14 
30 32 31 31 32 29 28 27 26 25 24 26 24 23 28 30 27 28 25 24 25 25 20 20 19 20 22 24 23 21 23 23 21 21 19 18 16 18 17 21 22 19 20 19 19 25 21 19 19 20 19 21 22 21 24 23 23 22 23 19 21 20 19 17 18 16 13 18 14 15 18 16 16 15 10 14 10 11 14 11 
28 27 33 31 28 28 27 25 25 27 23 27 24 24 25 25 24 22 24 23 22 20 22 20 20 19 21 23 18 22 21 22 18 19 18 19 18 19 19 20 18 16 17 20 20 21 19 19 19 18 17 20 23 19 24 21 23 29 23 20 23 19 16 16 16 14 14 16 17 14 12 11 17 12 10 10 11 12 13 15 
31 28 32 29 26 27 27 28 26 23 28 25 24 26 26 29 27 27 26 24 19 23 21 21 23 23 19 23 23 24 20 21 20 22 23 21 20 20 18 20 23 21 18 19 18 17 20 21 21 17 18 21 24 21 21 20 20 24 23 19 21 19 18 16 16 18 16 15 18 8 11 13 18 11 8 10 12 7 14 11 
28 24 29 29 27 29 28 23 26 24 26 28 26 22 22 27 23 26 26 24 24 26 25 25 23 25 21 21 18 23 22 21 21 18 20 18 20 22 20 20 22 20 18 19 15 18 16 21 22 20 18 21 22 21 21 22 20 17 19 20 18 18 16 15 15 16 15 18 17 14 12 16 13 10 8 11 12 7 9 9 
27 25 28 27 21 27 27 23 25 25 28 28 25 28 27 23 26 26 24 23 23 22 25 25 22 21 21 20 20 21 32 21 18 18 19 16 17 18 19 19 20 24 22 19 15 18 15 18 19 20 19 20 22 20 22 18 22 18 19 21 20 18 17 16 15 19 14 18 16 16 15 18 11 11 9 10 11 9 9 8 
29 24 29 28 26 26 25 25 27 24 26 24 32 27 28 27 25 25 22 24 21 21 24 23 22 21 21 21 19 21 23 20 21 19 15 17 18 19 23 17 21 24 15 16 17 19 17 19 19 17 23 20 18 18 18 18 18 21 22 20 19 20 18 19 17 20 15 15 16 18 14 14 18 12 12 12 6 12 14 11 
26 23 29 28 29 27 26 26 28 25 25 26 26 26 28 27 30 25 27 24 22 22 23 22 21 21 20 23 18 23 22 19 21 17 18 15 18 17 19 20 19 20 16 15 9 17 15 17 18 22 20 21 20 20 18 16 18 19 22 20 21 18 18 18 19 18 16 15 16 18 13 17 16 12 11 10 7 9 11 16 
29 23 28 30 26 25 28 33 27 24 27 31 25 25 23 28 27 25 24 22 23 23 19 21 20 19 19 20 17 18 18 22 20 15 18 15 17 17 16 18 17 18 14 17 14 20 17 16 19 22 20 18 20 19 20 19 18 17 21 21 17 18 19 19 18 14 18 21 16 17 15 15 18 12 12 11 8 13 15 12 
27 27 30 27 27 24 26 24 29 27 26 28 30 24 25 26 27 26 25 18 23 20 19 20 21 18 18 18 17 18 17 18 15 17 18 18 17 20 17 16 18 15 16 17 19 20 20 18 19 19 18 19 19 20 16 16 20 18 22 21 18 19 14 19 17 17 19 15 17 15 15 12 15 14 10 11 6 9 15 11 
26 22 28 25 25 24 25 26 27 25 26 25 26 26 28 27 25 25 19 20 22 21 23 22 22 20 20 18 16 20 18 18 17 18 16 13 17 18 14 16 16 17 19 19 15 18 16 22 19 15 19 18 19 18 18 18 17 19 18 21 17 16 16 15 12 13 19 15 16 15 14 15 18 11 13 7 14 13 13 16 
25 23 27 26 24 26 28 26 26 25 24 23 26 27 25 27 26 27 22 22 23 22 23 22 21 20 20 19 17 19 18 17 20 18 17 14 13 16 15 15 14 17 17 15 15 17 17 18 18 17 18 17 14 16 16 19 16 15 18 19 19 18 14 16 16 16 16 13 18 13 12 15 17 13 10 11 13 10 13 13 
25 22 29 28 26 24 25 25 29 25 25 27 25 26 24 23 25 23 23 24 22 22 19 23 21 21 21 22 19 19 19 20 15 15 14 16 16 15 15 16 17 20 19 17 15 16 16 16 18 17 18 19 19 17 17 18 17 19 17 17 20 16 15 17 19 16 14 12 14 13 13 17 12 13 12 13 10 10 11 14 
26 24 27 25 24 28 24 31 27 27 27 26 27 29 24 27 23 23 22 23 17 23 18 21 17 20 22 19 19 19 22 17 16 12 13 13 16 14 15 18 16 15 18 14 18 18 17 18 16 17 18 20 18 16 17 19 16 15 15 17 18 15 13 16 16 14 15 12 12 12 13 20 15 11 11 7 13 10 11 11 
30 28 28 24 24 25 29 26 30 26 25 29 28 27 23 22 25 22 20 19 21 23 21 23 19 18 17 20 16 20 16 19 17 14 12 17 15 18 16 15 19 17 17 16 16 17 18 19 19 17 17 20 18 16 17 16 17 17 15 15 21 17 17 16 18 17 20 18 12 12 13 19 18 13 12 10 10 8 12 13 
29 25 25 24 24 23 25 22 28 25 25 27 24 26 24 25 26 23 21 24 20 19 24 21 20 20 22 18 15 18 22 18 15 14 19 14 17 14 14 15 19 17 20 18 17 13 13 18 19 19 19 19 17 19 17 15 16 15 15 16 20 17 16 19 18 21 15 16 17 12 14 17 15 10 9 10 10 9 8 12 
24 26 26 24 26 25 23 19 24 20 25 24 27 24 27 26 27 22 21 22 18 20 20 20 18 21 22 18 14 17 17 17 15 15 15 15 17 13 14 15 19 17 21 20 18 13 16 20 19 21 17 18 19 17 15 17 17 15 15 16 16 15 18 19 18 18 14 12 13 14 14 17 13 11 7 7 9 10 13 13 
25 26 26 26 26 25 24 28 31 22 24 24 25 23 23 27 24 22 21 19 21 18 18 23 21 18 20 19 17 20 19 19 14 13 17 16 13 16 13 15 16 16 16 15 19 16 17 18 17 18 16 17 17 18 16 17 16 17 17 17 15 15 17 17 14 17 16 16 15 16 14 12 14 10 12 12 9 9 12 15 
24 23 27 26 25 25 24 25 27 22 23 26 25 23 21 26 25 23 21 19 20 18 20 25 19 22 17 19 20 20 20 16 15 15 17 13 16 16 15 16 18 19 18 16 17 18 18 16 18 18 17 19 18 17 17 18 18 19 17 18 17 18 18 16 18 18 21 13 14 13 11 13 15 12 13 11 13 10 13 12 
25 23 31 26 21 25 22 23 22 24 23 28 24 24 24 23 24 23 22 20 19 18 19 20 22 19 18 20 20 18 16 18 16 16 16 15 16 15 14 15 14 15 17 18 15 19 15 18 14 16 18 20 17 18 16 18 16 17 17 15 20 19 15 17 18 16 16 16 14 11 10 14 17 9 14 12 12 9 11 13 
25 23 24 25 27 26 23 21 21 23 25 26 23 25 24 26 22 25 26 18 17 22 20 22 19 19 20 17 17 18 18 17 15 16 16 16 19 14 16 16 16 14 15 12 14 15 16 20 19 16 17 21 18 16 18 19 14 20 16 18 19 18 22 14 16 15 12 15 11 12 8 11 13 11 12 12 10 10 12 13 
24 24 28 27 23 23 24 25 23 24 25 24 25 23 23 24 24 23 24 21 19 18 22 19 16 17 16 19 15 16 18 18 14 15 15 14 15 17 15 12 15 15 15 17 16 19 16 20 16 17 16 15 20 18 15 17 16 18 20 15 19 20 13 17 16 17 15 11 11 12 11 11 14 13 11 13 12 11 11 9 
27 30 27 26 24 26 27 25 27 22 22 24 28 24 23 25 26 27 26 22 20 19 20 19 19 17 13 17 17 20 23 19 15 17 15 16 14 15 19 13 15 17 15 19 18 21 18 17 17 18 15 18 18 19 14 18 17 16 19 18 16 18 17 12 15 20 13 12 13 14 11 14 12 8 11 12 11 10 11 11 
25 27 30 25 29 26 26 25 26 21 25 29 23 23 24 26 24 26 19 24 20 22 23 20 20 16 17 16 14 17 18 19 17 16 16 16 15 14 18 16 15 17 17 13 15 16 17 18 16 18 15 19 19 18 18 18 17 16 17 17 15 16 14 16 14 15 15 16 14 13 12 16 11 11 11 10 10 12 11 12 
26 24 27 28 25 25 22 26 28 25 28 28 27 25 24 26 24 22 22 24 23 23 18 26 20 19 18 18 15 18 20 22 17 16 16 18 15 14 16 15 17 18 19 15 16 19 21 20 17 21 18 19 21 19 19 17 14 15 15 14 16 18 16 14 15 13 13 11 11 11 10 13 14 12 9 9 16 13 13 14 
26 22 25 25 26 23 22 22 25 23 25 27 28 29 24 25 21 23 22 20 18 19 19 24 20 21 26 18 16 14 17 18 19 19 14 18 14 15 13 12 14 13 15 12 15 17 18 19 21 18 21 24 21 21 13 16 14 14 12 14 12 15 16 12 14 14 8 10 9 8 9 13 2 12 10 11 11 14 19 14 
27 23 23 25 25 23 23 21 25 22 21 24 29 31 25 23 21 24 22 20 18 20 22 21 20 17 18 16 15 16 17 15 16 12 16 17 14 16 13 13 13 14 13 14 14 20 16 20 19 21 21 21 21 17 19 19 15 18 17 13 17 16 17 17 16 12 8 8 11 10 9 10 14 12 8 10 12 9 15 14 
27 27 24 24 20 22 23 22 26 21 22 27 22 26 26 28 24 25 24 21 19 18 19 19 21 18 19 16 14 15 17 15 15 17 15 21 17 17 15 18 18 17 12 15 16 17 20 22 17 19 20 19 18 19 20 18 16 18 17 15 16 19 14 16 14 14 14 9 7 9 6 9 14 10 10 10 9 10 11 8 
28 22 25 22 20 25 24 20 23 21 24 28 23 21 23 21 24 24 22 22 21 20 20 21 17 15 19 12 14 17 19 15 15 16 16 15 16 16 16 13 18 19 15 15 16 18 21 26 20 19 18 18 16 17 17 15 16 15 17 12 17 16 10 14 11 14 14 6 9 13 9 11 11 10 11 9 10 9 11 11 
22 25 24 21 19 23 22 22 22 21 21 29 26 28 25 25 23 23 22 22 20 20 23 19 21 17 15 14 12 16 16 16 16 16 16 14 15 14 14 14 18 14 14 14 17 17 20 19 20 18 19 18 17 20 15 16 14 15 11 14 14 16 15 16 14 15 15 11 11 13 10 14 14 6 9 12 11 11 11 9 
24 21 24 22 24 23 21 18 23 20 20 26 26 24 26 23 28 25 19 20 19 18 17 19 15 16 15 14 14 16 19 16 18 16 14 16 14 15 13 18 15 16 14 16 18 19 17 17 16 18 20 16 16 15 16 15 14 16 14 11 15 12 12 15 15 14 13 7 11 9 7 10 11 6 8 12 6 10 12 12 
22 21 23 22 18 21 19 20 21 19 21 25 23 19 26 24 24 26 24 18 19 17 18 19 17 13 14 12 12 15 20 16 15 13 13 16 13 13 11 11 13 19 14 14 18 19 15 16 17 15 16 18 16 14 15 15 13 15 13 14 13 15 14 19 9 10 14 10 8 11 8 12 13 8 6 7 6 7 6 10 
24 20 20 21 20 21 20 20 19 19 19 21 23 22 24 25 24 20 22 19 19 18 20 20 14 16 13 16 15 17 16 13 12 12 13 14 14 16 14 16 15 20 14 14 16 16 16 13 14 16 15 16 19 15 13 12 16 14 15 15 13 16 13 10 11 9 11 11 10 7 8 9 12 8 4 7 5 5 11 7 
28 21 23 20 20 21 20 25 23 23 22 24 23 24 25 27 24 23 23 20 19 18 23 23 15 16 15 15 17 14 16 16 14 15 14 12 14 18 13 15 14 14 15 14 17 15 17 15 16 17 16 17 16 12 14 16 18 16 15 14 14 18 15 15 12 10 11 11 9 9 8 12 9 8 6 9 8 8 9 7 
26 20 22 21 21 24 20 24 21 24 21 21 24 24 24 26 26 24 24 19 19 16 17 18 18 13 16 16 15 14 16 16 15 12 14 13 13 14 16 12 13 15 13 13 15 14 11 8 15 13 14 16 15 17 16 16 15 15 15 9 15 18 17 15 10 14 13 9 12 11 8 11 12 10 4 7 10 5 10 3 
24 21 23 20 22 22 21 22 23 20 22 23 20 22 23 26 23 23 20 16 16 16 16 16 17 15 12 11 14 14 15 15 15 13 13 10 12 16 15 15 10 12 13 14 16 13 12 12 14 12 16 13 16 15 16 15 16 13 16 12 17 15 12 17 10 12 9 8 11 8 5 8 7 11 2 8 6 6 5 5 
28 18 20 17 27 24 24 22 24 22 23 23 21 19 21 24 21 21 21 20 22 15 19 18 16 15 14 11 13 14 15 14 11 12 15 15 11 11 12 9 10 12 12 13 13 15 13 13 15 16 14 14 17 18 14 18 13 15 14 13 17 14 14 15 10 13 11 11 9 9 8 9 12 5 5 10 7 7 10 7 
22 22 22 25 23 25 21 20 24 19 21 22 19 19 19 21 22 19 19 19 17 19 16 15 19 14 15 12 13 15 15 15 10 14 12 13 11 9 12 10 14 12 9 12 14 14 14 16 15 11 15 13 15 15 17 15 18 16 19 15 13 13 13 11 10 10 12 8 11 11 10 11 13 6 7 4 6 3 6 8 
20 17 22 24 27 26 23 20 22 21 23 20 21 21 21 23 22 19 19 16 14 16 15 17 16 19 18 17 14 13 15 14 9 12 12 11 9 14 12 11 16 12 10 11 13 11 13 14 12 14 14 16 15 16 16 19 15 15 18 14 15 14 11 10 10 9 8 8 6 8 5 14 8 7 7 7 5 7 4 4 
20 16 19 23 21 21 23 21 21 18 23 24 22 18 21 24 21 21 22 17 15 12 14 18 16 14 18 15 13 12 14 12 8 11 9 9 10 12 8 7 10 13 13 10 10 12 11 17 13 14 15 16 16 14 18 15 16 13 17 14 13 15 12 11 8 11 9 7 8 11 9 8 10 5 6 6 7 6 5 4 
20 16 20 22 18 20 19 20 24 21 22 24 26 24 23 20 22 23 24 18 14 15 13 19 16 14 12 16 12 12 13 12 10 12 9 8 13 10 9 12 13 13 10 13 13 13 10 14 14 14 15 14 18 12 14 16 13 14 16 13 14 17 13 15 12 10 8 6 8 8 11 15 12 11 7 3 3 3 10 3 
19 21 19 17 17 21 17 20 26 20 22 24 31 22 23 21 22 25 21 23 18 14 12 14 11 14 15 14 11 10 14 13 12 10 8 7 9 7 10 10 13 11 9 10 15 12 14 10 15 15 13 16 15 12 13 15 12 12 15 10 11 14 15 9 10 7 6 6 8 11 10 10 7 5 7 8 3 4 3 4 
20 17 16 15 18 21 19 23 24 22 26 23 27 24 21 23 23 22 27 19 21 15 17 13 13 17 15 15 12 9 17 11 11 10 8 10 12 11 11 9 12 13 11 10 12 12 14 15 15 17 13 15 13 12 16 16 10 11 14 13 17 13 15 10 8 9 8 6 10 14 7 9 9 6 5 8 8 2 3 4 
19 14 17 20 17 17 17 17 23 29 23 21 22 21 24 20 19 18 21 18 17 16 20 16 15 8 7 12 14 12 12 12 7 10 12 15 12 11 10 7 11 12 14 8 12 12 13 14 14 14 14 16 16 14 15 14 13 15 17 13 14 12 11 11 11 10 7 8 6 6 6 6 10 5 4 5 5 4 0 0 
24 16 23 16 16 19 16 15 20 21 21 18 21 21 21 21 20 19 19 19 18 18 15 14 13 9 13 12 13 13 13 10 8 9 12 15 16 8 9 9 10 15 12 14 13 11 14 18 11 16 15 15 15 12 9 13 10 12 14 14 14 14 12 12 9 8 9 8 5 9 3 7 6 5 2 6 2 5 2 3 


