P2
80 60
235
45 46 41 44 48 51 52 56 59 61 59 61 62 60 61 61 61 59 57 53 60 60 56 55 56 57 58 60 60 59 60 56 60 60 58 59 54 57 56 55 56 57 56 56 57 55 52 53 53 51 50 50 55 59 63 63 64 68 66 61 63 66 64 62 63 62 58 60 63 61 62 59 62 63 61 59 58 56 58 56 
44 46 45 43 49 50 58 60 58 61 61 62 57 59 63 58 62 58 56 57 60 59 57 54 56 57 61 60 62 59 57 61 57 60 59 59 55 56 55 57 57 57 54 57 57 56 54 61 53 51 50 50 52 57 63 62 64 70 64 59 63 63 63 62 58 60 59 60 58 60 61 59 60 63 61 61 62 55 59 60 
48 43 41 43 51 51 55 56 55 59 64 63 63 62 64 62 61 61 59 56 63 59 58 56 58 59 63 59 58 62 58 63 59 60 60 59 58 55 55 58 57 56 57 58 59 54 55 57 54 52 49 51 53 58 62 61 63 63 66 63 60 61 63 60 65 63 60 61 64 60 64 62 61 62 63 62 58 62 61 55 
44 46 41 42 53 52 56 59 59 63 62 60 61 61 65 59 61 58 59 58 61 63 58 57 60 58 63 64 61 59 60 59 61 56 65 58 62 57 59 56 54 56 56 60 58 55 58 57 57 52 54 50 54 58 61 62 61 65 64 64 67 63 65 64 59 63 61 59 63 60 65 64 64 63 62 62 66 63 63 59 
47 44 42 46 52 51 54 57 59 63 64 58 64 65 67 62 59 62 58 61 60 61 62 59 61 64 67 60 59 59 62 58 58 58 58 58 56 57 61 55 58 59 57 57 59 55 60 58 52 52 54 53 55 59 61 62 64 63 63 63 68 64 65 69 65 62 63 64 65 65 65 64 63 63 64 64 60 62 61 57 
46 41 41 44 55 53 58 61 65 61 63 63 61 62 65 62 62 61 59 63 59 63 63 62 63 62 62 60 61 57 60 58 57 58 60 58 62 56 60 54 54 57 60 60 59 55 63 58 55 51 57 55 57 60 61 62 62 65 66 64 64 66 64 64 64 64 64 66 70 58 64 59 61 62 63 60 62 60 60 56 
46 43 45 48 53 56 55 63 66 65 66 65 65 63 66 62 65 60 63 61 62 63 63 60 60 63 65 59 62 59 59 60 57 60 60 63 61 58 58 55 59 58 58 62 58 59 58 58 56 52 52 60 59 62 64 60 64 71 73 64 64 64 64 63 66 67 65 66 66 63 63 63 62 64 64 62 62 56 65 60 
51 48 45 50 59 57 62 66 62 65 60 62 63 66 68 65 65 64 59 66 62 68 64 61 61 64 60 61 64 59 61 58 56 60 59 61 59 59 59 56 57 57 59 61 60 54 58 55 53 54 58 57 59 60 64 69 63 71 67 64 66 67 66 64 64 68 63 65 68 65 62 63 64 61 66 61 58 58 64 64 
53 48 45 47 54 53 59 61 62 66 64 62 63 61 64 62 63 62 61 59 64 63 62 61 63 61 62 60 63 60 61 58 56 59 61 59 60 57 58 57 55 53 54 57 58 54 54 55 53 51 55 56 57 65 62 64 65 66 67 63 64 64 66 61 62 65 65 64 66 66 63 62 63 64 63 57 57 56 64 60 
48 44 49 47 56 54 59 62 64 63 61 60 65 66 65 64 68 63 59 57 61 63 60 58 61 61 64 58 61 61 59 58 59 58 59 57 61 55 56 55 54 53 56 57 58 51 52 52 52 53 55 54 58 59 63 63 63 66 65 66 63 65 65 66 61 63 63 62 63 62 62 65 62 62 58 60 57 55 59 56 
45 47 48 48 55 58 62 63 64 63 64 64 63 60 66 63 61 61 61 56 60 59 59 59 58 62 64 62 60 60 61 58 57 58 59 57 61 56 58 56 56 52 55 55 55 53 56 55 52 54 53 57 56 60 60 64 64 66 68 67 65 65 63 65 62 64 65 67 63 62 62 62 61 61 61 62 61 56 63 58 
47 45 52 46 57 56 60 65 61 64 61 63 62 62 60 61 58 59 59 57 58 60 59 60 62 63 62 61 61 61 63 59 60 58 60 56 57 56 57 56 58 53 55 57 58 54 56 52 54 52 55 54 58 58 63 61 63 65 65 65 62 68 66 62 64 65 64 63 65 59 57 58 62 64 61 65 62 57 64 62 
46 45 49 53 59 57 59 58 62 61 65 62 61 60 63 58 62 55 59 58 62 62 59 58 61 59 60 62 60 60 60 59 58 63 56 54 57 53 56 52 55 52 54 56 59 53 57 55 54 53 52 55 56 57 61 62 62 67 64 64 64 65 68 65 63 64 64 63 64 61 55 57 60 65 65 65 57 62 60 60 
44 49 48 50 58 56 60 60 59 60 59 63 62 61 62 66 62 61 58 55 61 58 59 56 60 59 60 57 59 61 61 60 63 61 59 55 57 57 57 56 56 56 55 63 58 55 59 55 56 56 57 56 55 58 61 62 66 67 69 67 67 67 68 63 64 63 62 62 63 62 65 59 62 64 64 62 63 61 65 63 
45 49 46 50 56 57 58 60 58 58 60 59 62 63 64 59 62 61 59 58 60 57 57 59 59 60 63 61 59 61 61 58 57 60 59 57 55 55 53 56 54 54 54 59 55 55 56 56 53 56 56 56 55 57 64 63 70 79 67 67 65 66 66 63 68 62 67 64 63 60 63 61 64 64 63 60 61 63 60 62 
47 49 45 51 60 56 58 61 63 60 63 62 63 62 64 61 60 58 59 59 56 59 57 59 59 60 61 59 60 59 58 58 60 58 59 55 57 56 54 57 57 57 55 58 55 54 55 54 54 52 54 57 59 59 64 65 65 73 70 67 68 65 66 64 65 70 64 70 67 65 61 64 65 66 62 62 62 63 65 65 
43 48 48 53 56 58 62 63 62 58 61 63 60 60 65 63 59 58 60 56 58 56 58 59 59 59 63 59 60 59 61 61 57 61 61 57 55 54 55 56 54 54 55 56 54 53 56 53 51 51 54 57 57 62 64 65 67 71 68 65 67 66 64 64 63 66 66 68 69 67 65 67 73 67 62 63 58 60 66 67 
42 48 47 53 59 57 57 60 62 61 64 63 62 62 63 62 60 58 59 62 57 62 57 58 59 65 62 60 59 61 61 59 61 60 57 57 56 55 57 56 57 56 55 54 57 57 55 54 49 52 54 54 58 60 64 64 65 74 71 68 67 67 63 64 65 65 63 70 64 67 67 67 67 67 65 61 63 62 65 61 
45 45 45 50 58 58 60 58 57 60 59 64 63 63 63 61 59 61 61 62 59 63 62 59 60 62 63 58 58 59 58 59 61 62 58 56 59 57 59 59 55 56 54 58 56 51 55 55 53 53 53 55 60 61 64 64 68 70 71 68 68 66 63 67 66 66 66 71 65 67 64 68 65 65 65 64 62 62 65 64 
41 49 44 48 60 58 60 62 58 58 63 57 62 63 65 62 62 60 60 61 57 62 65 61 62 63 64 61 60 64 63 59 60 58 58 56 57 58 55 58 56 54 53 54 57 51 51 53 52 53 58 56 58 61 64 66 67 66 68 66 68 64 66 65 66 64 67 67 67 67 65 63 65 64 61 60 64 61 64 66 
44 41 45 49 61 62 58 60 60 60 60 61 66 65 64 59 62 61 59 59 58 64 60 62 63 60 61 57 59 60 62 61 60 57 57 56 55 54 57 56 55 57 53 52 57 50 51 51 54 54 54 57 61 61 65 62 67 67 69 68 68 64 68 67 69 65 67 65 70 67 65 65 62 67 62 63 62 62 64 61 
38 45 45 54 59 56 59 61 63 63 62 62 69 64 64 62 62 60 60 56 57 61 62 63 62 61 60 57 60 59 63 61 58 58 60 55 54 55 53 54 55 54 53 55 54 48 50 51 50 49 57 56 60 57 64 64 66 66 68 65 65 63 66 70 68 66 66 67 71 68 66 65 67 66 65 62 65 62 65 68 
39 41 41 54 59 56 60 62 62 59 62 64 63 64 65 59 63 60 60 58 59 60 59 57 60 62 62 61 61 60 60 59 60 58 57 55 56 56 56 55 54 54 53 54 53 50 52 51 51 55 58 58 61 64 66 66 62 68 71 69 68 67 67 65 69 72 66 66 69 66 68 67 66 67 63 64 63 63 67 63 
38 40 44 50 57 55 57 63 60 61 62 61 65 62 66 63 65 62 61 58 62 60 58 60 58 59 61 60 61 60 61 61 57 58 57 56 54 54 55 52 53 53 51 53 52 51 50 51 53 57 57 57 61 59 62 62 69 65 69 66 69 68 67 71 71 69 69 68 67 69 68 66 68 72 67 66 66 61 69 64 
38 40 42 48 56 57 59 63 63 61 61 61 63 60 65 61 63 63 61 59 61 62 62 59 63 60 61 64 59 58 60 58 55 58 60 53 57 54 52 54 54 53 52 55 60 48 51 51 55 55 53 58 58 62 65 63 67 69 68 70 68 70 70 64 71 68 71 70 72 69 71 67 67 71 66 66 67 64 68 69 
36 38 42 42 54 58 58 62 57 63 62 65 66 67 68 64 65 61 58 59 60 61 61 59 62 62 62 60 58 60 59 58 58 56 56 56 55 53 55 54 53 54 52 54 56 53 54 52 53 57 56 55 59 64 62 62 64 68 72 70 68 67 68 67 70 68 70 70 70 68 69 66 68 68 67 66 64 65 70 69 
35 35 38 45 58 57 58 59 58 61 63 63 63 63 65 63 65 64 58 62 61 63 69 61 63 62 66 63 60 60 61 57 59 58 58 53 52 52 52 54 54 53 55 53 56 53 50 52 53 53 58 59 60 62 64 64 64 68 68 70 66 69 67 68 71 72 72 72 68 69 68 69 67 67 68 66 70 67 69 68 
34 35 37 42 58 54 57 60 55 60 61 57 61 65 65 61 64 61 62 59 64 65 64 59 65 63 64 62 61 60 59 59 61 55 56 54 54 54 51 59 51 53 55 54 53 50 53 56 59 59 61 61 59 61 64 65 66 68 70 67 72 69 66 68 70 69 68 71 72 72 67 67 66 72 67 67 65 64 66 65 
32 35 38 43 57 58 59 58 61 58 63 59 62 63 68 64 62 60 60 61 58 61 60 61 64 65 63 64 64 59 58 57 58 58 53 53 54 54 55 58 53 55 55 56 56 55 59 65 64 64 64 59 60 62 64 63 66 66 69 69 70 70 68 69 71 72 71 72 71 70 72 68 68 66 71 66 68 65 64 66 
33 35 39 43 52 57 57 61 65 62 59 59 62 65 65 62 66 61 60 59 59 64 61 60 65 61 66 62 61 58 59 63 56 54 57 56 53 57 55 56 53 54 56 60 62 60 61 66 63 64 65 64 64 61 65 61 66 69 73 68 70 70 70 71 72 72 74 76 71 70 72 67 70 72 68 70 64 66 69 65 
28 31 35 39 52 52 57 63 61 59 60 62 62 61 66 65 64 62 60 57 60 62 61 62 64 66 63 59 63 60 60 57 58 59 56 55 54 54 56 58 60 63 63 68 62 61 63 64 60 67 62 59 62 63 66 69 67 69 69 68 70 71 69 71 73 73 73 76 73 68 75 67 71 73 67 69 68 66 74 67 
24 31 34 39 51 53 59 61 59 59 63 60 60 64 66 65 66 60 63 60 62 63 61 63 66 66 65 60 64 60 62 61 59 57 54 55 57 54 58 64 65 65 61 66 66 63 69 86 77 77 71 66 66 66 69 69 70 70 71 69 72 72 73 73 73 74 71 78 77 75 74 69 72 73 68 66 70 69 66 67 
22 26 32 35 47 51 57 58 58 62 63 61 59 63 66 64 67 65 60 64 64 68 64 67 72 73 68 62 63 60 63 59 58 56 60 61 63 63 62 64 61 62 66 68 68 66 71 109 101 100 94 85 75 71 71 73 73 71 71 71 73 73 73 73 74 76 74 78 82 77 75 69 70 72 73 70 69 70 70 69 
21 27 31 36 49 53 54 56 61 62 63 65 61 65 63 64 71 66 70 69 68 65 64 73 73 70 72 64 62 64 62 61 65 64 65 63 60 60 61 64 64 63 66 66 61 55 74 116 113 114 110 112 109 103 93 81 81 79 76 71 74 76 74 73 80 78 78 78 80 75 77 72 74 75 71 71 70 70 74 69 
15 21 33 30 45 56 55 58 57 62 66 62 62 63 66 68 71 82 97 106 111 94 74 76 70 66 66 65 62 63 67 69 63 58 62 59 61 59 63 63 64 60 56 58 58 60 86 119 116 116 119 121 120 121 124 116 108 105 88 80 81 78 78 76 81 79 80 79 79 76 77 71 75 76 71 71 71 68 71 70 
18 19 33 31 49 50 53 58 55 61 62 60 62 62 69 69 74 104 143 149 148 147 100 80 73 62 71 69 70 67 69 67 64 63 63 64 65 66 60 56 53 61 56 56 61 58 94 125 120 119 119 123 122 127 129 132 130 131 121 113 100 93 88 85 82 79 79 82 79 77 77 77 78 79 75 75 72 72 77 73 
18 22 29 30 44 49 52 56 56 59 64 63 61 60 65 68 81 118 149 156 157 154 122 77 68 72 79 76 74 67 68 64 65 65 65 63 59 60 58 51 55 53 54 55 57 59 103 124 122 121 122 123 127 128 131 128 133 131 130 132 125 116 115 109 98 92 90 84 85 79 78 79 78 78 78 75 74 73 77 73 
17 18 26 28 40 48 54 53 56 57 61 62 63 65 67 66 72 118 158 163 167 164 134 72 74 78 88 75 68 67 71 68 64 63 60 56 56 59 54 56 57 54 55 56 58 61 110 124 120 124 123 122 128 132 137 132 138 134 134 131 131 132 130 127 125 126 109 99 92 87 83 79 79 80 79 76 72 75 73 75 
13 17 26 26 39 47 51 54 58 61 62 64 61 65 65 66 73 118 169 194 199 175 140 77 85 87 82 82 74 70 70 67 61 58 59 55 57 55 57 57 54 57 57 56 60 65 118 123 124 125 128 127 133 134 135 134 135 139 134 132 133 129 135 132 133 132 135 128 123 113 101 90 87 85 80 81 78 76 80 75 
10 17 20 28 37 47 51 55 56 56 67 64 61 64 64 65 71 106 169 201 202 185 142 92 84 81 80 72 70 65 66 65 60 58 55 54 55 58 54 55 52 55 54 56 59 72 129 126 125 126 127 128 133 136 141 137 139 141 137 134 135 138 137 138 137 140 135 135 134 132 130 125 113 106 91 84 82 84 81 87 
8 13 15 22 32 44 45 52 54 58 60 61 61 66 63 66 72 92 142 162 164 157 138 87 72 70 72 64 66 61 59 63 60 60 58 55 57 54 56 54 53 56 53 55 58 84 130 126 126 124 130 134 135 142 141 140 142 144 138 138 134 138 141 138 144 139 137 137 142 137 141 136 138 134 121 115 100 91 93 84 
3 11 15 23 31 35 44 51 55 52 58 57 61 62 61 64 68 89 127 133 138 141 134 107 82 67 69 65 61 60 61 63 59 50 54 56 60 58 53 54 51 51 56 58 60 94 134 126 124 124 128 131 138 139 140 141 145 145 142 140 140 140 141 140 145 142 138 140 141 140 142 139 141 136 135 128 124 121 112 105 
6 9 19 19 31 38 44 48 53 54 58 56 62 60 63 64 75 96 119 125 130 132 126 121 113 81 68 62 62 61 64 59 60 55 57 57 58 56 58 52 54 54 54 59 64 106 135 129 127 128 127 131 134 137 145 143 145 143 140 145 140 144 145 146 144 142 137 141 145 144 144 138 138 139 137 135 133 130 126 126 
11 7 11 19 30 39 41 47 50 51 57 60 59 61 64 68 88 105 109 115 121 119 119 115 117 109 78 60 60 59 62 57 58 56 56 55 57 59 61 56 50 55 57 59 70 120 138 137 126 127 132 132 134 138 141 143 142 144 144 143 144 143 145 145 151 149 145 147 148 145 146 142 141 141 147 137 132 131 139 130 
1 6 10 15 27 35 38 46 47 50 56 56 58 60 66 74 95 101 103 105 114 106 112 108 109 105 97 67 61 58 59 60 57 55 57 59 62 62 65 58 59 56 58 62 80 130 139 134 129 129 132 135 134 138 142 139 145 144 143 141 143 147 150 147 154 155 150 150 152 148 147 145 145 145 140 140 134 136 136 136 
5 6 6 14 31 35 40 45 47 50 53 56 60 65 69 80 94 99 99 101 102 106 106 105 108 104 106 82 64 61 59 59 57 52 61 65 65 64 63 65 63 62 64 67 85 141 135 131 132 133 134 136 137 140 140 141 142 147 148 147 149 149 148 152 161 157 156 156 157 152 152 149 143 142 142 141 135 137 138 138 
2 8 10 15 21 31 38 43 48 50 52 57 58 62 67 79 90 88 90 95 97 99 102 103 107 101 105 87 64 57 54 53 55 58 60 62 63 63 63 61 66 68 70 73 96 145 137 133 132 132 132 134 139 142 146 140 144 150 147 150 148 148 154 148 157 158 158 157 155 152 150 147 150 144 143 138 139 138 137 144 
1 4 4 18 25 32 42 45 45 50 55 53 58 64 68 76 84 83 85 89 94 100 98 95 100 102 105 86 66 56 55 53 56 60 61 62 67 66 64 66 64 73 77 77 113 151 143 136 136 134 134 137 140 146 148 152 146 146 147 150 151 154 153 158 157 159 158 160 161 151 154 149 152 148 143 142 141 139 139 143 
0 11 4 15 21 35 40 46 45 49 54 55 58 64 72 75 80 82 84 86 93 94 101 99 101 93 86 66 61 58 56 57 53 58 62 62 67 67 64 69 71 75 74 77 131 156 144 139 139 135 140 141 142 148 148 149 152 148 149 147 154 154 156 158 161 158 160 160 159 157 152 151 150 150 144 144 142 138 141 145 
7 12 12 12 26 36 38 44 47 50 51 58 62 65 71 76 76 80 82 85 85 91 88 82 83 74 67 60 59 58 58 56 55 56 61 62 64 63 65 65 70 71 78 82 146 160 147 147 142 142 144 144 148 151 152 150 149 155 150 157 155 154 156 156 162 161 159 161 161 157 154 155 151 151 146 145 138 145 144 150 
9 14 17 15 30 34 43 48 49 57 55 57 61 62 64 68 73 70 70 71 72 66 67 67 66 57 67 62 59 59 57 56 58 58 64 64 64 62 64 64 69 68 73 84 168 168 152 155 148 148 150 150 151 155 155 153 152 156 153 154 157 156 157 161 165 162 162 162 164 158 154 155 153 152 150 145 144 142 148 152 
10 14 19 17 26 31 40 40 48 54 56 56 58 60 66 65 65 64 64 60 68 63 58 59 61 60 60 60 59 61 60 59 56 58 63 59 61 57 60 61 64 69 74 87 152 174 175 167 156 158 153 153 153 157 153 152 155 155 153 153 155 156 163 163 162 167 162 164 164 162 154 155 150 150 150 147 144 148 153 149 
14 13 13 17 28 35 44 45 49 52 56 58 58 60 66 63 66 63 62 63 61 61 61 60 64 60 63 58 60 61 60 60 60 56 57 60 58 59 58 58 66 68 69 78 111 148 180 189 184 166 164 160 159 161 164 158 157 157 164 156 157 158 160 163 162 165 166 165 163 163 163 156 159 156 150 145 150 148 157 149 
23 15 18 21 35 34 46 51 54 56 58 57 59 61 62 65 64 59 57 61 58 62 61 63 65 64 66 63 64 65 63 66 64 59 59 58 57 55 56 57 65 68 75 74 80 94 136 175 189 187 180 172 167 170 166 159 162 160 157 160 154 158 163 166 167 169 167 168 168 164 165 162 159 156 156 149 153 155 159 145 
35 25 25 24 31 26 35 47 51 60 58 56 59 58 62 59 58 62 57 58 59 60 64 62 66 67 75 65 68 63 67 68 59 57 55 50 53 53 53 57 62 69 75 78 80 79 83 114 141 165 185 190 184 178 177 162 164 166 162 162 156 162 165 167 169 171 169 171 168 166 163 172 158 158 155 153 148 155 166 136 
49 38 37 28 37 32 34 42 52 54 61 59 60 63 62 60 58 59 60 60 63 65 67 66 71 72 77 72 72 73 71 70 64 57 55 50 53 50 49 56 63 78 80 83 79 86 80 84 90 115 145 175 196 202 198 178 170 172 172 162 167 164 171 171 175 176 172 174 173 171 173 162 160 165 160 151 158 156 165 135 
70 61 47 44 39 47 41 49 54 60 60 59 65 63 65 56 63 60 60 72 66 69 72 72 72 73 78 75 75 72 71 67 64 62 58 52 50 50 52 57 68 79 80 81 85 86 90 79 78 79 94 122 170 203 214 199 194 182 177 174 173 172 180 177 179 181 176 179 177 173 169 167 167 165 162 161 161 168 159 137 
73 71 63 48 53 58 48 59 59 63 63 67 63 65 70 66 71 67 66 71 73 73 75 72 70 73 77 72 76 79 75 69 72 67 64 55 55 49 50 60 68 75 75 83 83 76 81 91 73 72 76 80 105 151 188 200 206 201 196 183 182 182 183 184 187 189 182 184 187 179 181 172 170 169 166 164 169 174 155 137 
76 74 74 65 67 61 64 60 63 67 65 68 70 63 71 68 68 66 67 68 66 73 73 72 76 68 74 74 77 77 76 75 75 71 69 65 60 57 56 65 73 70 83 76 77 76 77 80 76 76 73 71 80 91 123 151 182 205 220 221 201 197 195 191 193 193 191 185 189 184 180 174 179 168 166 164 178 174 153 135 
75 77 76 77 78 70 68 68 67 68 68 67 72 72 71 66 72 65 68 67 69 73 73 72 78 78 83 77 77 76 77 73 77 73 69 68 67 68 66 70 70 71 71 73 74 71 74 71 74 76 76 73 70 80 90 99 124 159 192 211 235 225 211 205 195 198 196 200 198 193 187 175 180 173 168 176 188 179 152 133 


