P2
80 60
283
144 147 145 140 137 138 131 124 82 68 88 104 111 105 106 110 115 106 110 108 114 117 113 112 112 114 115 112 111 109 105 123 120 117 122 127 128 129 126 124 126 126 127 125 128 126 131 122 127 124 123 125 122 125 122 122 125 123 121 128 131 132 134 130 134 133 134 131 133 134 133 138 136 137 136 139 138 135 137 135 
144 139 147 137 134 138 130 116 67 64 83 98 110 93 104 112 111 108 111 108 115 112 115 114 111 113 119 114 113 107 106 120 114 119 120 125 134 126 123 126 127 126 126 127 127 126 123 128 126 125 122 122 122 125 124 126 126 123 122 125 133 130 131 130 133 129 129 130 132 132 136 137 137 135 138 136 136 135 142 133 
148 142 145 138 139 139 132 110 60 52 76 97 110 93 106 108 108 109 116 114 116 113 114 116 117 116 117 113 110 106 106 121 116 117 124 125 132 126 128 127 129 128 125 126 129 127 126 129 127 123 125 127 125 126 119 124 120 119 125 125 129 129 130 135 134 130 133 135 133 132 138 137 140 135 139 138 135 134 142 133 
142 146 143 139 134 136 123 97 38 43 72 93 101 100 106 116 109 105 113 110 113 116 118 112 114 115 116 113 109 101 107 120 117 113 121 125 131 128 131 127 129 126 129 126 129 128 130 126 130 126 126 123 124 124 119 125 120 120 123 132 136 135 129 129 133 133 133 133 135 137 137 141 138 133 137 140 136 140 141 141 
147 146 142 140 134 131 123 84 38 29 65 91 100 93 107 114 110 111 118 113 115 113 116 118 116 116 116 112 107 103 109 119 112 114 121 129 129 133 132 128 128 127 130 128 125 126 130 130 127 128 127 128 125 124 120 122 121 120 129 131 132 133 132 134 133 134 135 137 134 135 136 138 137 134 138 138 138 139 138 139 
142 146 143 137 136 131 124 71 30 27 63 90 87 99 108 114 112 113 118 116 112 115 116 117 122 118 114 112 105 97 111 117 112 114 124 128 130 130 130 127 128 125 131 126 126 126 134 128 129 127 129 128 123 125 121 127 124 124 130 131 135 130 134 134 131 135 135 139 137 135 139 136 136 138 139 139 137 137 135 136 
141 144 144 138 133 130 117 64 28 35 61 87 93 104 112 113 116 110 117 114 117 115 124 120 119 114 117 112 102 105 109 118 112 115 123 127 131 129 129 127 126 127 128 130 126 129 130 129 128 126 128 126 123 123 122 126 125 128 125 133 133 133 134 133 131 134 132 137 135 136 135 135 138 137 141 139 137 137 135 139 
145 146 144 136 136 139 113 54 27 43 64 82 91 104 109 110 115 113 115 117 119 116 123 119 116 114 115 111 105 103 114 118 109 114 124 133 132 128 126 127 130 126 127 127 128 129 131 128 128 126 130 127 130 124 122 127 124 125 128 133 136 135 134 132 132 136 137 138 136 135 135 139 138 137 139 136 137 134 136 134 
148 149 148 141 134 131 106 52 30 48 63 83 93 101 110 111 113 113 116 116 117 115 112 119 114 115 116 109 105 108 118 117 110 122 128 130 131 128 127 125 127 126 128 126 128 127 130 126 128 127 128 127 125 128 121 124 122 126 127 133 132 134 136 132 134 136 136 136 133 138 135 133 139 135 138 138 137 132 136 134 
147 147 142 135 134 127 103 51 33 52 68 84 93 106 105 112 114 110 114 107 111 112 112 110 113 114 114 111 102 109 115 117 112 124 131 129 131 129 124 127 127 124 131 127 129 127 127 127 128 126 128 125 126 124 120 123 123 118 126 133 130 134 136 134 134 134 135 135 138 135 135 136 138 136 136 135 136 132 138 137 
142 146 143 135 133 127 101 35 30 47 71 83 83 101 104 110 104 102 112 112 110 111 113 111 115 110 115 109 101 106 115 117 110 122 128 127 128 129 126 125 126 123 125 124 128 126 126 125 126 124 126 129 123 124 121 125 122 123 125 132 130 135 132 134 131 134 135 139 135 133 134 134 142 131 134 138 131 136 141 136 
139 144 145 137 124 120 85 21 10 34 58 75 88 97 102 106 102 100 110 111 107 108 112 113 109 113 112 107 99 103 114 115 112 120 130 123 128 127 126 126 129 125 125 126 128 123 129 128 126 125 127 124 124 124 120 123 124 121 125 129 128 134 134 132 131 132 133 135 135 131 135 132 136 136 136 138 135 135 132 133 
146 146 142 140 121 120 76 8 7 29 43 68 85 98 96 97 99 99 108 105 109 111 111 116 111 110 114 104 99 107 116 116 110 127 127 122 125 125 125 123 126 124 128 128 129 129 129 128 125 124 126 123 121 121 119 122 122 124 125 128 132 134 135 132 133 133 134 133 133 133 128 134 138 135 138 135 135 135 135 136 
144 151 147 136 129 123 64 13 5 26 42 70 84 93 91 99 93 95 105 104 113 108 110 112 111 111 110 98 93 109 117 118 111 126 132 124 126 129 125 126 125 127 127 128 127 132 130 129 129 129 128 124 122 121 121 126 125 127 128 133 137 132 133 133 135 135 135 138 131 133 136 131 136 137 136 139 135 135 144 139 
147 147 148 139 126 124 58 6 3 20 35 63 77 86 90 90 91 93 104 103 105 107 111 113 105 112 107 95 101 114 117 112 109 124 128 127 127 125 123 126 124 126 127 126 124 127 128 128 130 128 124 126 120 121 123 127 126 139 131 134 132 135 131 134 136 136 136 136 135 136 133 135 140 137 136 135 134 135 135 134 
145 148 147 141 130 118 57 7 5 27 49 63 75 80 87 86 93 91 103 104 108 110 110 112 110 109 108 98 99 114 117 111 109 122 128 127 126 128 119 124 127 129 126 125 129 128 129 123 127 126 126 125 126 125 123 124 126 131 130 134 136 136 134 132 134 139 136 138 137 133 133 136 141 136 142 138 138 138 138 137 
141 149 148 139 125 113 51 6 0 28 45 60 70 80 84 86 92 93 109 109 108 108 107 109 112 110 111 98 102 112 114 110 112 129 130 130 129 127 124 127 125 126 128 127 126 130 127 125 124 124 125 124 122 127 122 124 126 130 128 134 133 132 135 133 133 138 134 137 135 137 137 142 144 135 137 137 132 137 137 134 
147 148 148 141 129 108 44 4 4 25 42 59 64 75 78 83 93 101 127 119 111 107 112 110 112 115 105 97 100 114 112 110 113 129 128 124 126 128 126 128 129 126 126 126 128 127 124 127 126 125 126 125 122 126 126 124 127 138 132 133 132 135 132 135 131 137 133 139 135 134 136 140 142 139 138 135 135 136 137 139 
144 144 145 141 131 105 40 0 5 20 35 55 64 70 76 80 85 109 120 114 111 105 112 114 110 107 107 97 102 109 114 111 116 130 129 127 128 128 129 127 126 128 128 128 127 126 127 127 125 124 126 126 125 129 119 124 125 126 130 135 136 132 134 134 138 137 134 137 136 139 139 135 140 135 137 136 133 135 135 138 
140 146 142 137 129 99 34 2 7 20 44 58 66 67 72 83 89 108 119 115 115 107 115 108 110 110 110 96 102 117 114 111 118 129 130 127 128 129 126 130 128 129 127 124 128 125 127 125 126 127 125 126 126 126 122 123 123 127 132 131 136 134 134 134 133 133 133 136 136 138 136 137 141 135 132 136 135 133 137 136 
139 146 139 136 129 96 23 3 4 25 45 61 68 68 79 87 102 107 117 109 111 108 106 110 109 107 105 95 99 111 119 109 118 130 127 127 126 128 128 128 125 130 125 125 127 125 126 123 125 128 127 127 127 124 124 120 125 125 128 134 135 130 135 135 131 133 134 137 138 138 142 136 140 137 137 137 131 134 139 136 
144 142 139 135 118 89 20 1 5 27 49 65 73 78 87 94 99 104 113 114 113 112 111 109 107 107 104 92 103 112 116 110 121 130 127 126 125 124 126 125 127 127 129 125 123 124 124 127 123 123 126 126 122 119 121 124 122 127 131 133 136 134 133 133 135 136 137 136 137 141 136 136 140 134 138 136 136 138 137 142 
141 141 138 137 114 83 16 3 9 29 50 65 69 82 94 94 99 98 107 116 114 114 103 101 106 107 103 94 106 115 116 114 122 128 127 127 126 126 127 128 126 126 125 123 122 124 127 124 125 127 127 126 121 123 122 122 126 126 130 135 140 133 132 133 136 140 137 137 136 137 138 138 143 136 137 138 135 137 141 137 
139 138 139 131 106 76 16 12 12 32 48 58 71 84 91 94 98 96 107 113 116 115 106 107 105 103 99 93 106 109 111 111 119 128 126 127 126 126 125 127 125 123 124 126 125 123 125 126 125 127 128 124 120 124 119 119 125 128 131 132 133 137 135 135 136 135 137 138 137 140 139 139 140 137 137 140 135 137 143 143 
141 139 137 130 99 73 16 11 21 33 52 61 72 90 92 90 90 91 106 111 112 118 110 102 102 101 100 92 107 110 109 109 119 129 129 126 126 126 126 125 125 124 126 126 125 124 126 127 126 126 124 125 120 125 118 124 123 125 133 133 133 136 135 135 135 137 138 138 134 136 137 135 138 140 136 137 139 136 144 144 
140 138 142 123 93 63 16 17 23 40 54 64 73 91 94 95 95 97 106 110 112 118 102 104 104 103 98 93 105 107 110 111 118 127 125 124 128 127 125 125 128 124 129 125 126 128 130 127 126 126 125 124 122 123 119 121 125 127 134 136 136 137 136 134 137 140 139 138 136 137 137 137 138 138 142 138 137 137 142 140 
137 134 136 122 89 62 18 22 26 40 55 62 74 86 94 95 93 93 102 109 115 115 108 104 102 103 100 95 105 110 107 111 128 129 128 125 126 126 124 125 126 124 128 126 127 126 130 127 126 125 122 125 121 120 120 124 124 128 133 135 134 138 132 132 134 137 139 140 134 137 136 137 139 137 137 137 140 137 139 136 
136 135 134 121 85 51 23 25 33 43 53 61 68 81 90 90 99 99 106 104 103 108 102 103 103 100 96 94 108 107 106 114 126 126 128 122 127 126 125 126 127 126 128 125 125 123 126 122 125 123 125 124 119 118 119 125 129 129 129 134 138 136 135 138 135 136 137 142 137 144 137 136 140 139 136 136 136 135 140 139 
134 133 133 115 82 53 20 31 33 47 56 60 65 74 83 93 94 88 99 104 90 96 97 101 102 100 89 95 107 110 104 116 124 128 128 124 125 125 131 131 128 126 128 126 129 125 127 126 124 124 125 121 119 117 122 123 126 124 131 134 137 135 138 139 135 138 136 140 137 138 140 138 139 140 140 139 138 139 139 132 
130 129 127 109 78 51 22 31 40 55 55 57 65 74 84 85 86 91 95 101 91 97 100 100 101 94 91 97 103 109 102 116 123 127 131 129 129 130 127 124 128 125 128 127 128 129 127 127 126 125 124 125 122 119 120 123 127 130 131 136 137 136 138 137 137 138 145 141 137 142 140 138 138 143 142 142 137 139 138 136 
96 102 88 87 76 42 23 39 37 49 52 57 65 71 81 82 85 85 93 98 89 96 101 104 100 97 87 97 103 106 104 116 122 128 128 125 125 129 126 128 128 127 130 128 128 128 125 125 127 125 121 123 120 123 120 125 134 129 131 134 137 136 138 139 137 138 140 143 139 140 141 139 138 141 142 137 136 136 139 137 
85 83 70 74 76 35 24 32 39 46 52 54 65 75 83 81 85 78 87 91 85 89 100 102 101 95 85 96 100 105 100 120 123 125 127 128 130 129 127 129 129 129 131 128 129 130 129 125 125 126 126 123 124 120 125 129 131 130 132 135 140 136 140 135 138 139 139 141 140 143 140 139 140 140 139 139 137 138 140 140 
80 72 66 66 68 26 17 29 38 43 50 53 60 74 78 79 74 74 81 83 88 91 98 101 101 96 90 93 96 98 97 117 122 127 127 128 127 129 126 128 131 129 132 129 129 127 126 126 125 125 124 124 125 125 124 128 134 132 131 135 140 137 138 138 138 141 140 144 140 142 141 139 141 139 142 139 140 137 138 138 
69 68 61 63 62 21 4 21 34 47 50 54 56 74 76 72 80 82 91 98 91 98 100 98 96 89 84 84 93 95 100 115 119 126 128 123 128 127 125 131 132 129 130 129 129 125 127 128 127 127 129 131 128 127 125 128 132 131 136 141 137 143 133 139 142 140 145 143 141 140 138 141 140 139 142 141 139 138 141 139 
61 60 60 61 51 3 6 31 43 46 51 52 56 68 72 76 111 118 125 128 124 128 129 121 115 99 81 90 91 84 96 114 116 125 130 133 133 135 131 135 133 131 129 128 129 133 131 127 128 132 131 139 128 131 134 132 135 135 137 139 142 141 137 141 141 142 144 143 144 141 141 142 142 141 146 141 140 140 140 138 
46 58 52 55 48 10 10 39 51 48 48 52 58 60 68 87 123 135 139 144 139 139 137 140 136 128 103 87 84 79 96 120 121 129 131 132 156 186 168 139 139 130 132 128 131 133 135 134 132 138 144 164 153 147 140 141 139 140 145 143 136 143 141 143 143 143 142 146 143 144 142 142 146 141 141 144 140 142 142 142 
45 49 45 53 43 19 15 40 48 46 46 46 50 53 68 111 128 135 144 143 145 145 146 144 139 140 114 87 82 81 95 118 117 128 128 140 173 227 209 151 139 133 137 130 131 131 132 129 130 133 153 179 183 178 177 165 152 145 145 148 147 143 143 143 144 147 145 146 141 143 141 142 145 141 145 145 144 139 144 140 
46 49 48 41 29 13 29 36 47 43 45 43 50 52 86 121 135 139 147 141 147 144 147 146 141 141 122 82 78 74 90 111 114 127 130 132 170 230 211 145 149 133 135 133 135 134 134 132 127 132 160 183 188 193 197 198 196 178 170 159 154 147 148 145 143 146 145 146 146 144 144 142 147 140 143 143 139 140 142 140 
31 40 36 28 46 53 53 46 48 45 44 46 53 63 111 133 137 139 144 151 142 148 146 148 149 147 132 84 72 73 89 113 117 125 131 130 164 198 192 152 137 137 135 131 132 131 131 126 126 134 169 187 193 201 204 205 208 201 201 191 171 157 150 149 150 145 148 147 145 145 145 145 146 147 143 145 143 142 142 144 
25 32 34 35 62 78 76 63 46 49 42 45 57 93 131 135 137 137 145 148 149 148 147 151 149 146 142 103 75 74 93 114 116 126 127 140 157 174 177 167 142 132 129 130 128 129 131 127 129 138 177 191 201 200 207 208 208 210 206 202 187 179 178 169 156 149 148 149 144 143 145 145 144 147 142 146 144 143 151 144 
37 41 54 49 63 80 76 67 50 49 43 48 82 126 134 142 140 140 147 147 144 144 148 149 150 151 155 126 80 74 93 115 122 122 129 143 159 164 169 163 158 132 128 127 128 127 128 129 128 142 185 194 197 208 205 217 214 213 204 201 187 184 191 188 188 180 165 155 151 147 144 147 141 148 145 149 146 146 153 145 
48 53 59 48 64 79 75 62 51 58 53 71 119 137 136 135 144 139 147 148 144 149 146 147 150 149 148 140 96 76 97 114 119 129 132 143 154 152 153 151 145 133 129 127 127 132 133 130 131 153 189 195 198 206 216 219 223 217 209 200 191 189 192 198 202 204 193 184 163 154 148 149 153 147 148 145 147 147 148 145 
88 85 91 82 78 86 82 78 75 75 74 110 133 142 138 136 143 142 148 147 148 149 149 151 152 149 147 133 125 102 103 118 121 127 131 136 144 141 141 132 132 132 130 123 130 135 141 140 140 166 195 201 203 210 219 222 224 217 213 203 191 195 198 199 204 210 206 200 192 176 154 155 153 147 147 144 145 144 144 147 
108 104 107 99 103 103 97 103 103 96 107 127 140 138 131 126 140 141 150 152 151 149 150 151 148 139 138 139 139 132 109 120 126 129 128 129 139 135 136 132 129 126 129 123 128 137 141 149 150 182 203 209 207 213 220 222 225 218 215 207 193 194 201 200 208 210 206 201 201 189 173 160 152 146 144 141 142 142 149 151 
102 106 106 99 98 100 106 106 106 113 114 135 140 136 131 126 138 140 146 152 152 148 149 153 147 138 133 130 137 142 129 126 124 127 128 128 129 131 130 129 128 124 128 126 130 133 141 143 146 204 215 215 208 210 219 225 230 219 216 206 199 199 196 201 207 211 211 203 200 194 176 155 150 147 140 142 143 141 143 144 
105 106 102 95 99 97 100 102 103 107 122 134 141 139 127 129 146 140 147 146 146 150 149 148 143 141 134 132 141 144 138 127 124 126 126 130 129 131 129 130 129 129 128 128 131 131 135 139 144 189 231 222 222 220 225 227 233 225 223 208 201 201 201 207 208 211 211 207 206 191 167 157 153 146 149 143 139 141 139 139 
103 104 101 95 95 99 96 99 104 103 116 135 142 141 137 144 145 143 148 145 147 150 148 149 147 143 136 137 142 147 141 130 125 129 127 126 130 133 133 132 136 133 133 128 128 130 132 137 142 164 194 235 227 234 239 243 243 235 230 209 205 203 205 210 215 212 217 207 200 192 168 152 152 146 148 145 141 141 140 142 
101 102 104 92 95 98 96 97 101 99 112 131 138 145 145 147 146 144 150 146 149 148 151 150 150 147 146 141 142 146 141 133 125 127 128 128 133 136 133 133 138 140 141 134 128 126 129 138 142 141 151 176 223 238 267 262 256 244 235 212 206 208 207 217 215 217 220 210 204 191 167 152 155 148 145 143 139 142 142 140 
100 100 101 95 98 103 99 101 97 100 108 130 137 144 144 148 146 145 151 148 148 152 156 153 152 153 150 144 143 142 139 135 120 123 129 127 132 132 139 135 138 139 141 135 132 131 132 134 141 147 148 150 157 200 257 275 272 256 242 211 212 212 213 217 221 219 221 209 205 190 164 158 148 148 144 143 143 141 140 138 
100 104 103 98 99 96 97 94 100 98 101 124 144 141 145 150 147 144 150 149 147 148 150 147 148 148 148 143 143 141 140 136 121 121 124 123 128 124 128 124 127 124 135 133 127 129 129 137 143 148 145 146 143 149 180 234 283 276 244 222 218 217 215 218 219 224 214 215 204 185 157 155 151 144 146 147 138 140 142 141 
100 105 104 99 98 98 95 98 102 102 103 125 141 140 141 149 142 142 148 146 151 148 151 147 151 145 151 145 142 141 138 138 129 121 131 123 126 127 129 121 124 126 133 125 134 133 133 133 136 138 138 143 143 145 151 162 206 242 234 224 224 227 219 217 226 224 224 219 209 188 155 151 149 145 149 147 141 142 142 137 
98 106 101 100 97 98 98 97 100 102 101 124 140 140 144 145 144 140 152 146 150 146 150 150 149 148 149 143 137 138 134 136 136 129 136 131 134 131 130 128 125 126 131 133 134 132 136 135 141 140 140 138 139 145 144 149 161 168 187 219 228 223 226 228 225 229 227 220 208 186 158 151 149 144 152 146 140 142 146 139 
101 103 102 98 98 98 97 99 97 101 105 125 137 142 142 149 146 144 153 151 150 148 148 149 148 149 149 142 142 133 134 136 135 140 139 145 147 141 140 133 136 130 129 134 133 134 140 137 134 141 141 143 140 143 143 146 150 150 160 177 213 230 232 231 227 231 225 220 213 182 158 150 149 143 148 145 143 142 146 139 
95 98 97 96 101 103 101 102 104 112 108 131 138 139 146 146 144 145 147 147 149 154 147 152 150 149 148 143 140 134 131 129 133 138 143 145 152 144 145 141 139 130 135 135 137 140 141 144 144 141 144 148 150 146 142 146 152 148 148 154 174 211 237 238 235 236 227 223 217 176 152 150 148 146 143 145 145 145 141 142 
98 97 99 97 98 98 99 102 122 131 125 130 141 145 147 147 145 141 148 150 151 148 152 148 151 149 152 143 141 135 129 134 128 141 146 146 153 156 156 146 145 137 135 138 136 136 143 151 147 149 147 153 169 178 156 141 146 144 146 150 151 165 219 244 241 250 238 226 217 179 155 149 148 147 144 145 141 140 147 145 
98 97 97 98 94 100 97 112 132 138 133 129 138 141 144 144 146 142 148 150 152 150 150 150 151 147 148 142 137 137 132 130 130 144 152 151 156 156 154 152 151 142 139 143 145 141 147 151 151 152 153 156 164 178 167 146 144 146 142 147 145 152 166 209 248 248 250 238 223 176 160 149 148 144 148 149 143 138 147 137 
96 97 101 96 94 94 92 117 134 143 134 131 144 139 144 145 145 141 147 150 151 148 149 146 144 144 144 140 135 137 132 132 135 145 154 147 154 156 152 152 151 143 145 140 144 141 147 154 158 154 155 158 159 164 157 156 158 149 144 147 146 142 145 158 204 247 249 244 220 174 152 145 147 148 147 151 142 140 145 140 
91 95 96 95 93 95 92 121 145 139 129 130 142 140 141 143 142 136 143 140 141 146 145 142 141 142 140 135 135 135 131 127 124 146 149 148 151 157 153 156 155 152 150 144 146 145 151 153 155 157 155 157 155 153 157 165 179 164 143 141 142 141 139 141 154 203 244 253 217 165 150 144 145 148 148 146 145 137 146 144 
97 97 90 90 90 100 97 122 143 147 133 125 135 137 140 140 135 134 140 143 141 142 144 144 142 142 142 133 134 131 132 124 129 148 151 153 150 155 158 158 157 153 152 147 149 151 150 148 154 153 157 158 159 156 164 170 177 172 157 146 141 141 138 138 151 156 194 220 193 160 145 144 150 150 147 143 141 136 145 144 
99 97 100 96 94 96 97 122 143 141 129 127 138 133 137 137 137 136 139 144 138 138 143 138 140 143 138 133 129 131 123 123 135 155 153 151 153 152 157 161 156 154 157 152 154 150 152 150 147 153 154 158 159 159 160 158 173 167 153 145 142 140 138 140 141 146 157 173 168 152 146 143 149 147 145 145 142 140 150 147 


