P2
80 60
148
104 77 24 12 9 12 8 12 15 31 36 39 48 60 73 76 80 91 94 94 101 99 102 104 104 111 104 112 111 116 115 117 121 122 124 123 125 126 125 123 127 122 127 134 134 128 131 130 133 130 135 132 132 132 134 138 138 129 132 125 121 106 107 109 119 125 127 123 127 126 125 122 121 129 133 132 135 133 138 138 
106 85 31 11 8 16 10 17 16 30 36 43 52 63 82 80 84 92 90 94 96 101 105 102 105 103 109 111 114 119 120 122 120 123 123 126 124 125 129 125 126 128 127 133 131 133 131 132 132 133 134 132 133 135 138 139 139 136 133 128 124 110 105 105 122 123 125 128 128 126 129 122 123 135 130 134 135 139 137 136 
114 83 24 5 6 12 10 11 19 33 41 43 54 66 73 78 79 93 85 91 95 98 97 100 101 103 112 116 119 129 125 122 120 124 127 124 123 127 126 125 127 128 128 129 129 130 131 132 131 132 132 128 130 133 131 133 136 135 130 129 127 109 102 106 119 126 124 126 128 128 129 120 119 130 129 134 133 138 140 141 
114 89 28 12 11 14 11 15 17 30 47 43 55 67 75 73 80 88 85 87 92 101 96 102 102 109 112 124 129 129 126 131 127 122 123 122 124 126 126 126 122 127 124 129 127 129 131 133 135 130 134 133 130 132 134 136 133 131 135 127 126 115 104 106 120 126 129 126 127 130 129 127 118 125 132 132 131 140 145 137 
107 91 29 12 11 15 9 12 17 29 39 41 54 63 72 74 82 83 88 88 92 98 99 95 100 110 128 132 131 133 138 140 135 123 120 119 123 123 127 121 123 126 125 131 130 134 131 134 132 130 137 133 132 133 133 134 135 131 135 128 124 118 103 110 121 128 128 130 130 127 128 120 124 129 128 132 132 137 139 136 
118 95 30 14 11 16 15 14 30 32 36 39 51 66 70 72 79 86 81 90 87 93 100 99 100 108 130 132 132 140 136 137 136 121 123 119 121 126 128 125 125 127 125 128 131 130 135 132 135 131 137 136 130 131 132 136 132 135 128 130 123 114 107 109 126 125 128 132 135 132 128 123 116 128 130 132 131 137 138 142 
120 101 33 2 13 13 14 13 25 35 34 40 51 60 68 68 81 89 83 88 90 94 97 96 99 107 122 127 130 132 131 126 134 120 120 122 121 123 126 121 122 128 123 129 130 128 130 134 130 129 135 133 130 132 131 135 133 135 137 132 128 116 102 109 125 127 128 130 131 130 122 122 117 125 131 137 134 137 133 141 
118 103 38 0 13 18 13 15 23 30 35 38 44 62 67 66 77 86 86 85 89 91 94 96 100 108 115 115 122 127 119 120 128 126 124 126 123 122 123 122 122 121 121 129 126 133 131 128 130 129 134 133 132 132 135 135 135 134 130 130 125 110 100 107 123 130 125 131 135 132 123 126 117 126 134 130 130 135 139 137 
122 100 43 1 15 20 14 12 21 32 34 34 41 51 64 66 82 86 87 85 86 94 95 100 96 98 114 111 120 123 125 121 125 120 122 121 119 124 120 118 116 124 121 126 125 129 127 131 129 128 132 130 132 131 129 130 133 131 126 132 121 111 101 102 121 126 123 124 132 131 122 127 120 133 132 134 126 138 136 141 
124 102 39 6 14 17 13 13 22 26 31 35 41 49 59 68 80 85 81 84 87 89 87 94 93 96 108 123 126 128 125 126 117 117 119 117 116 120 121 117 115 122 121 121 122 124 123 125 128 126 131 130 128 128 132 131 129 128 125 123 124 109 101 106 114 124 123 125 132 127 123 127 118 126 129 129 126 132 137 140 
123 106 43 1 18 22 14 13 19 29 28 31 33 46 62 66 76 84 84 84 87 87 92 93 96 97 107 120 124 128 128 122 118 115 116 117 117 122 117 120 117 121 117 123 124 128 126 123 125 125 130 128 128 129 132 130 131 129 127 124 118 103 97 108 121 124 123 129 132 130 125 125 123 127 128 130 129 137 136 141 
126 104 48 3 14 16 13 13 18 24 26 31 36 42 58 62 68 80 81 83 86 88 92 93 93 94 101 117 123 128 129 124 118 120 111 115 116 120 119 120 117 121 119 122 127 127 129 124 128 125 129 129 125 126 129 131 131 133 124 126 118 104 96 100 116 127 122 127 129 126 124 128 121 126 129 135 128 131 140 141 
126 108 42 10 15 17 13 8 18 23 25 30 38 51 61 67 73 82 85 85 87 91 90 93 92 100 117 124 121 127 128 126 124 123 115 119 116 117 121 118 117 124 124 120 129 128 129 128 128 126 130 129 127 126 128 127 130 131 129 129 124 103 103 110 121 124 126 126 125 126 118 126 120 127 127 135 136 134 138 140 
122 111 48 3 16 18 10 13 20 23 27 28 36 45 60 65 69 80 83 83 90 94 98 101 107 109 113 120 125 125 126 127 130 130 127 129 124 128 119 120 116 122 122 122 126 132 125 129 124 130 130 128 127 127 132 134 135 132 128 132 121 106 101 111 122 124 126 129 131 130 128 123 121 127 125 136 131 140 138 142 
124 112 54 2 17 12 11 10 16 22 24 24 34 45 56 61 78 80 81 87 95 103 105 112 111 112 113 111 113 120 119 124 126 126 131 134 135 136 124 119 121 121 121 120 126 124 126 124 125 130 129 125 126 127 131 134 132 140 131 129 120 104 97 104 120 130 124 130 139 128 124 123 123 129 123 136 130 134 140 141 
127 112 56 3 14 12 8 10 14 22 18 25 35 45 59 66 74 86 84 84 94 105 106 108 112 110 112 112 112 116 116 120 126 124 125 130 131 135 128 117 117 122 121 121 123 121 124 121 123 124 129 124 127 129 127 132 127 129 130 128 118 101 100 105 120 125 124 125 131 130 126 125 122 131 132 132 129 139 142 143 
130 114 56 8 16 13 6 10 14 21 20 31 38 45 61 66 73 83 79 89 100 101 102 104 112 110 113 111 112 114 113 119 126 125 129 130 130 129 130 123 121 119 121 117 124 126 123 123 123 123 126 127 128 132 127 132 133 130 128 127 122 104 99 107 121 127 125 126 131 126 129 126 130 128 128 131 131 138 142 143 
130 117 61 9 20 12 12 10 16 16 22 26 37 44 57 65 76 84 86 96 101 103 103 106 110 107 112 113 110 116 113 119 126 126 121 125 127 133 132 128 118 120 123 117 124 123 125 123 125 123 127 127 128 130 134 131 131 136 129 126 117 103 97 106 118 127 130 130 137 130 122 130 127 131 133 135 135 141 141 139 
124 112 65 11 18 12 10 8 11 14 20 28 31 47 61 69 77 84 88 93 101 104 104 106 108 107 109 110 110 111 111 118 122 122 128 123 128 131 128 126 117 120 117 119 122 122 120 123 124 123 127 125 126 129 130 130 130 127 129 131 118 99 93 108 119 126 126 128 129 130 126 126 121 127 129 134 130 136 141 142 
124 112 65 2 16 15 6 2 7 14 21 24 33 44 63 67 73 83 88 92 98 102 105 103 107 105 107 106 106 105 113 116 118 124 122 125 127 131 130 125 120 119 117 119 120 120 118 122 124 122 126 124 122 125 127 126 127 124 120 127 120 99 95 108 117 125 126 128 130 131 132 127 123 123 129 132 131 136 137 135 
126 114 64 9 15 15 10 8 12 16 22 26 36 48 58 62 75 91 94 92 97 103 105 104 108 107 105 107 106 108 118 118 121 122 124 132 127 131 135 128 119 120 118 118 118 121 120 123 123 122 124 125 124 126 128 127 127 124 124 125 115 98 94 111 121 126 131 127 134 132 131 128 126 132 129 129 131 136 139 141 
122 114 76 13 16 18 14 12 15 15 19 27 37 46 61 64 77 88 91 97 100 105 107 102 102 103 109 108 107 110 112 114 119 122 121 127 129 131 132 131 124 120 116 114 117 117 117 121 121 120 125 123 124 124 126 126 128 121 126 124 117 103 92 107 117 123 130 129 129 133 125 123 123 133 128 134 133 138 143 142 
120 109 72 14 15 13 11 18 21 17 20 28 36 48 58 64 75 87 97 100 102 102 104 97 100 102 104 109 108 110 111 113 116 122 121 125 125 133 131 132 125 117 117 114 117 119 122 123 119 119 126 123 122 126 126 126 130 125 122 123 115 101 92 111 121 129 125 129 131 129 127 129 124 129 126 136 131 132 141 142 
122 111 70 15 19 18 18 21 13 16 19 24 36 48 61 67 74 87 98 99 100 100 102 100 101 101 105 110 105 107 110 112 115 119 120 128 124 130 129 132 127 115 113 114 119 119 121 122 121 124 125 122 124 122 124 125 127 125 125 121 115 102 96 113 121 122 128 130 131 134 131 127 125 129 128 132 128 132 141 142 
122 115 79 11 15 15 14 18 18 15 23 28 35 48 61 70 79 95 102 103 98 99 104 102 100 104 110 108 106 108 108 111 113 113 119 125 122 127 134 134 132 119 117 115 118 121 118 122 119 121 121 121 121 121 123 124 123 123 120 119 115 98 99 117 126 125 128 129 132 132 127 126 127 130 133 136 136 137 141 143 
121 111 79 14 14 22 21 22 13 16 23 28 36 47 62 69 78 96 103 102 98 97 103 102 105 99 108 109 107 106 108 109 112 117 118 117 112 125 129 133 130 118 118 114 118 119 119 123 120 119 124 122 122 124 122 126 126 126 124 122 114 102 94 112 130 124 131 127 131 130 125 125 130 133 136 133 133 139 139 139 
117 108 79 19 11 20 24 25 18 16 22 30 37 48 61 66 79 92 102 102 96 97 106 104 102 105 107 111 102 107 107 114 111 113 115 110 104 118 121 126 126 116 116 117 118 118 116 119 118 120 122 120 122 120 121 125 125 122 119 118 115 98 97 108 125 127 125 128 126 127 126 123 124 133 133 131 132 142 142 137 
117 107 86 18 16 25 24 26 24 18 21 32 38 49 60 63 75 99 102 104 101 100 101 104 103 104 110 108 107 109 109 111 112 118 109 108 108 111 113 115 116 113 116 117 115 117 118 117 117 119 119 118 121 121 120 123 122 121 125 119 117 95 98 114 122 125 128 132 131 128 123 126 124 128 129 132 134 138 140 142 
122 109 85 21 15 25 25 24 23 21 24 29 41 52 64 63 77 94 99 105 102 105 105 106 105 107 106 106 106 106 107 111 115 115 110 108 106 107 110 113 110 113 113 115 115 115 117 118 117 121 120 118 119 120 119 123 118 118 123 122 114 101 95 114 121 129 128 127 131 133 124 127 124 132 129 137 129 139 145 142 
117 109 87 25 22 26 32 32 31 25 29 31 43 50 61 65 75 89 96 104 103 107 107 109 111 108 108 108 107 108 111 109 116 119 111 110 107 109 108 106 109 114 112 117 114 117 117 121 119 119 122 118 119 121 123 125 125 120 122 118 109 97 101 113 128 128 133 130 132 129 124 126 124 127 130 138 134 138 141 141 
116 108 89 25 15 28 36 36 33 29 31 36 43 53 62 70 78 84 82 93 100 104 110 109 110 111 111 110 106 108 106 110 116 116 114 105 106 109 106 108 109 113 114 117 116 120 116 117 118 119 124 119 120 119 125 127 123 117 122 113 110 102 99 120 122 129 132 136 132 132 128 122 121 132 132 135 133 139 145 144 
113 107 94 32 12 31 34 38 34 35 31 37 39 52 61 68 78 84 80 82 91 101 105 104 110 111 111 111 110 112 112 114 115 119 113 106 103 105 105 103 108 111 111 113 115 116 115 117 118 121 121 121 121 121 123 122 124 119 115 117 107 98 97 118 121 129 133 133 130 127 123 121 124 128 130 131 134 138 143 141 
111 104 90 40 15 24 38 38 37 35 35 37 44 50 58 68 72 79 78 82 93 102 102 104 105 107 112 107 109 111 112 113 114 114 111 105 102 104 102 104 107 110 111 114 114 111 114 117 113 119 119 121 115 120 125 120 120 117 120 115 106 98 96 120 123 122 132 133 134 123 124 126 122 131 129 136 135 139 142 140 
109 103 93 43 15 32 34 40 42 39 36 40 42 48 59 65 72 86 82 84 97 97 97 100 110 105 109 110 107 112 109 109 113 116 111 104 101 106 104 103 106 111 112 111 112 113 113 115 113 117 117 119 116 122 116 123 123 117 121 116 108 96 101 119 120 128 133 132 133 123 122 119 124 129 132 134 134 137 144 141 
108 105 93 44 19 31 37 44 41 40 37 41 43 51 55 64 74 83 77 84 91 97 98 100 104 102 104 107 104 106 107 106 111 117 110 103 100 102 107 103 105 111 114 109 114 118 115 118 113 117 116 116 119 119 119 120 121 121 116 112 107 95 100 120 120 125 131 127 132 121 123 123 125 130 130 136 134 143 143 146 
109 103 95 54 33 31 36 42 42 44 40 39 42 53 58 63 71 80 81 84 92 97 95 99 101 98 99 103 101 105 103 107 110 112 110 103 102 102 105 103 105 110 109 110 113 115 115 118 116 115 116 120 115 119 121 122 119 115 115 115 102 94 100 117 127 126 127 129 126 122 122 122 124 128 128 135 133 141 147 141 
104 103 97 55 18 32 37 44 45 46 39 44 44 51 59 60 73 78 79 83 92 96 99 96 97 95 101 102 101 103 104 103 107 111 111 103 104 103 101 100 106 109 110 110 112 113 111 114 114 116 119 120 118 122 121 125 122 117 115 114 101 93 101 116 125 126 133 129 132 119 122 119 125 129 127 130 132 139 146 144 
106 100 93 65 16 29 34 43 45 46 43 39 46 51 53 65 71 82 78 81 88 95 97 95 95 94 99 100 99 101 103 102 104 103 103 102 103 105 104 105 102 106 107 108 109 111 110 114 112 115 118 121 115 117 119 121 117 115 111 112 96 92 100 120 122 128 128 128 129 121 119 122 123 128 128 130 132 139 144 147 
106 105 105 70 21 27 39 49 48 48 45 43 49 53 55 60 70 76 81 83 89 97 97 96 94 103 102 102 100 102 101 101 106 102 100 101 104 103 107 103 103 108 106 110 110 112 113 116 115 119 120 119 119 123 123 121 119 116 117 109 96 89 103 118 122 126 125 127 131 118 120 119 123 129 129 136 136 143 143 146 
106 103 99 74 22 28 37 45 47 48 46 43 48 48 60 59 68 75 77 82 89 93 95 94 96 98 101 102 104 104 101 104 106 100 98 101 101 102 102 100 100 108 107 108 110 112 112 117 113 114 120 123 122 126 122 124 119 117 115 106 98 89 104 116 122 125 120 126 125 114 119 123 124 129 125 130 135 141 148 147 
106 105 102 85 29 30 33 46 48 43 48 45 48 53 54 60 72 79 76 78 86 95 97 94 97 98 105 101 99 102 102 99 103 97 99 101 100 103 101 99 102 104 108 108 109 113 110 114 110 118 120 125 117 131 126 121 119 115 112 109 94 91 106 119 116 122 125 125 123 115 117 121 119 127 124 135 136 143 146 147 
106 100 102 86 31 26 33 43 46 48 47 45 49 52 51 60 69 77 74 76 87 92 92 95 89 99 98 100 98 101 102 102 99 93 97 99 103 103 98 101 102 108 104 106 106 110 111 112 110 115 119 123 120 124 118 120 123 121 117 113 95 92 103 119 117 120 121 116 115 114 116 119 119 127 129 132 133 142 146 144 
102 105 101 91 34 29 36 41 46 48 50 46 52 52 54 61 66 70 75 74 83 90 94 91 99 95 99 96 100 102 99 97 95 93 98 99 99 102 96 97 99 102 105 104 106 109 112 111 112 116 119 119 114 120 119 120 121 119 115 108 98 88 104 115 119 116 119 113 112 108 112 113 120 120 125 133 138 140 146 148 
103 101 98 89 43 28 35 43 48 49 52 52 52 51 59 59 67 76 68 75 81 92 92 93 95 92 95 103 100 103 97 93 94 94 95 93 95 97 99 99 101 105 99 105 107 109 110 120 111 109 116 119 116 119 116 118 116 117 112 101 95 90 102 116 118 116 115 114 113 108 113 112 120 122 122 130 132 140 145 139 
104 101 98 89 40 25 29 36 43 50 51 46 52 54 56 60 63 75 74 75 80 88 90 91 95 94 97 96 97 101 92 90 92 92 94 97 98 98 97 98 100 100 101 109 105 105 114 112 110 112 112 118 117 118 116 116 114 116 112 103 94 95 102 111 114 116 112 113 109 108 113 115 114 123 124 127 129 139 144 143 
104 100 97 95 49 28 31 40 41 51 52 46 55 52 59 61 64 71 69 75 80 88 89 91 91 95 93 96 97 98 87 88 89 92 96 98 98 100 97 96 98 99 103 106 105 113 109 109 108 111 118 116 113 113 115 116 118 114 111 104 92 91 106 111 116 114 112 109 110 107 110 114 117 124 124 131 131 140 144 148 
100 98 97 96 53 24 23 38 40 49 50 48 55 56 60 59 65 70 71 74 80 87 95 89 94 94 98 96 95 87 85 86 91 95 90 97 98 99 98 96 95 98 103 105 108 107 106 109 107 111 115 115 113 115 116 116 115 114 112 104 92 90 103 106 111 110 113 113 108 109 111 114 118 126 122 125 135 139 146 143 
97 99 95 96 56 19 25 36 38 48 47 50 54 58 59 58 63 73 70 74 79 81 91 92 96 92 92 93 83 87 81 84 89 90 93 96 96 97 97 97 95 102 98 107 103 109 110 107 108 110 112 113 112 116 113 116 115 114 110 102 91 95 107 111 111 115 114 108 108 105 111 111 115 121 123 129 127 140 144 140 
99 94 100 96 65 20 19 34 38 44 46 47 52 56 58 60 62 70 69 74 75 80 88 86 86 90 90 79 79 82 81 83 84 88 90 94 94 98 96 96 98 98 99 103 105 104 105 106 104 111 111 110 111 111 117 111 114 109 106 97 90 92 104 103 111 112 108 102 103 102 110 114 115 124 124 125 134 138 147 139 
98 96 96 96 67 21 19 26 30 38 42 47 46 56 57 64 64 67 69 73 74 78 84 87 88 85 81 80 79 83 84 80 85 87 91 93 94 98 94 95 97 97 97 99 103 107 104 106 101 105 110 109 109 113 116 118 114 109 106 92 86 94 106 106 109 109 102 104 96 106 112 113 110 123 122 127 133 135 141 141 
95 100 89 88 69 22 10 16 16 30 34 43 41 54 54 56 62 65 68 71 78 77 81 84 83 77 80 77 77 80 79 82 87 87 90 89 90 95 92 92 93 97 96 99 98 99 100 102 95 104 107 107 103 108 110 111 109 108 105 91 87 95 103 108 105 103 102 100 94 99 107 108 112 118 122 130 127 137 140 142 
89 90 90 88 80 27 12 11 14 23 34 32 43 51 53 59 61 67 73 72 74 77 80 82 79 80 76 75 73 78 78 85 84 88 90 94 90 91 89 91 91 90 88 96 95 98 99 102 102 101 103 99 99 108 109 109 110 108 103 93 88 95 103 104 105 105 99 97 97 97 104 106 105 114 116 126 130 138 140 144 
98 93 86 89 76 27 7 14 10 16 25 35 41 48 48 57 61 68 67 70 70 73 82 81 80 78 76 75 74 81 79 84 87 83 86 86 87 87 88 92 88 90 89 93 95 94 98 101 98 97 101 100 100 106 105 106 109 107 104 92 85 95 99 104 106 101 98 93 98 101 104 107 102 113 113 123 130 131 140 139 
89 85 83 80 85 33 7 14 7 17 24 31 41 45 51 58 64 71 72 74 74 76 78 82 80 80 74 72 78 83 79 83 83 84 84 83 86 86 87 85 87 90 87 90 93 95 97 98 99 98 98 97 95 102 102 104 105 104 97 86 82 94 100 102 100 98 94 96 100 100 106 108 102 115 113 126 128 136 139 138 
89 77 76 82 73 30 10 5 8 21 31 33 39 49 54 59 60 62 65 70 70 73 78 78 75 73 76 74 76 76 76 78 83 80 79 81 80 83 78 82 82 85 85 85 85 90 88 92 95 88 95 92 94 95 98 100 101 96 91 80 81 89 99 102 101 98 96 90 93 93 106 101 106 111 118 120 123 132 135 142 
83 81 80 73 66 38 9 6 12 26 38 44 50 52 59 58 61 64 70 70 77 73 79 83 80 76 79 73 72 75 73 76 76 74 78 82 79 77 78 79 80 81 82 85 81 89 94 87 90 85 90 90 89 93 93 94 99 94 81 83 82 91 98 97 97 96 95 89 89 99 104 104 104 109 118 126 128 135 136 143 
81 74 75 73 68 38 1 6 16 34 43 47 54 57 59 57 59 62 66 74 74 75 75 76 78 78 73 71 69 75 68 70 76 75 76 77 75 74 76 74 77 75 76 79 79 79 80 83 84 83 87 85 87 85 86 93 89 83 80 80 82 85 99 93 95 96 92 85 94 105 102 108 104 110 114 130 132 140 136 141 
73 71 76 67 64 46 4 7 17 33 47 53 57 58 63 57 64 62 61 65 66 73 77 74 75 73 71 63 66 70 67 65 69 73 70 71 69 72 67 67 66 69 67 74 72 74 74 79 75 73 79 75 79 73 73 76 84 76 71 71 81 86 94 93 99 94 86 90 90 98 100 106 103 117 119 128 130 137 135 138 
71 73 77 64 62 41 10 10 16 37 47 49 55 60 58 52 49 54 51 57 59 63 69 65 59 54 55 55 65 60 57 58 58 56 62 59 60 58 59 59 59 59 60 61 65 65 65 68 68 70 74 76 69 73 76 79 76 73 75 73 77 88 93 90 97 93 91 85 92 98 100 98 102 112 116 127 131 135 134 137 
68 66 67 60 54 42 13 5 10 21 35 37 46 48 54 51 50 57 50 53 50 53 55 51 49 56 57 53 52 53 49 49 53 55 55 57 63 61 61 59 63 63 68 71 70 66 71 70 68 74 77 74 77 84 86 89 83 88 83 85 88 91 92 89 98 98 83 87 93 97 100 101 104 106 115 124 130 134 138 135 


