P2
80 60
51
41 44 42 37 36 41 40 39 46 42 41 41 39 41 42 40 38 38 37 38 39 36 37 37 36 37 39 38 39 38 38 37 39 45 38 35 37 35 38 38 40 38 42 44 42 38 36 37 38 37 33 35 30 36 41 37 40 40 50 38 39 36 38 36 37 32 37 33 30 29 30 30 31 32 29 30 34 28 30 34 
42 39 41 40 40 43 38 39 40 41 41 42 39 41 42 41 43 38 40 40 44 40 37 35 37 36 38 35 37 37 39 39 35 39 39 38 37 37 34 37 37 39 39 41 41 38 36 37 37 38 34 34 35 39 37 37 39 40 43 33 36 33 36 33 32 33 33 31 30 30 29 25 30 31 28 29 31 33 31 33 
42 42 34 39 41 41 39 37 41 42 41 41 39 37 46 40 40 39 43 38 40 38 40 39 38 38 38 36 38 43 38 41 38 39 40 36 39 38 36 36 37 39 42 41 39 39 37 36 36 35 33 33 35 40 36 37 39 36 37 34 36 34 32 34 32 34 32 35 31 28 32 28 31 32 26 26 29 31 31 31 
45 38 40 40 40 41 40 39 42 45 44 43 37 37 43 37 38 42 40 43 39 40 40 43 39 38 38 37 37 38 36 37 37 37 42 38 36 39 37 35 38 39 40 41 40 41 37 35 37 35 36 35 33 35 36 37 38 38 37 35 31 36 35 34 37 32 32 30 33 31 35 35 30 29 27 30 28 29 32 32 
45 39 36 45 42 41 41 39 43 43 39 39 41 37 40 40 41 41 39 43 39 39 40 37 38 38 41 40 36 38 38 35 37 37 38 37 37 38 42 36 36 38 40 39 41 38 40 37 37 35 34 34 32 36 34 40 40 35 37 35 36 35 35 39 34 32 33 36 34 32 32 31 32 32 31 28 27 29 27 28 
42 39 39 39 38 41 40 41 43 41 42 41 38 39 43 38 40 44 38 42 40 38 38 39 36 39 39 37 38 35 35 35 33 36 36 36 38 36 37 38 41 39 42 40 39 41 40 37 34 34 34 31 33 35 34 35 35 37 39 34 35 36 33 34 36 34 34 34 35 33 31 30 30 28 27 27 29 28 29 24 
38 43 37 38 41 39 41 41 44 41 42 42 37 37 41 42 44 43 41 41 42 39 39 37 35 34 38 36 36 35 42 39 33 37 36 41 34 37 39 37 39 39 38 41 38 37 37 35 35 33 35 36 35 36 37 34 40 39 48 40 36 34 33 31 34 33 30 34 30 30 30 27 28 30 28 28 28 24 26 30 
45 46 39 43 43 45 41 41 42 41 47 43 39 41 42 45 42 41 44 41 43 39 41 36 36 39 41 34 38 38 42 39 35 39 39 41 36 36 37 34 41 39 40 40 34 36 39 33 31 36 36 34 37 37 36 37 36 38 41 34 38 33 38 33 34 32 32 29 33 33 30 29 25 30 28 27 28 25 31 33 
49 47 43 46 45 45 43 42 42 45 45 41 40 36 40 41 42 41 40 46 39 38 38 35 40 42 41 38 37 36 39 39 34 37 39 37 37 37 35 37 40 41 38 35 37 36 36 32 34 32 35 33 37 38 33 33 36 35 38 40 38 38 35 36 32 29 32 31 27 32 33 28 29 28 24 28 31 24 29 31 
48 47 42 46 43 42 44 44 46 46 45 40 35 35 39 46 46 40 42 39 39 39 40 39 38 39 40 38 36 38 36 34 37 34 39 38 37 38 37 36 34 37 34 35 34 38 33 33 34 36 35 32 34 36 33 34 34 35 37 35 31 32 34 28 30 34 31 30 34 29 29 27 28 28 30 28 27 28 30 27 
49 47 41 47 41 42 45 43 42 47 43 41 39 41 38 42 42 37 41 43 38 38 37 42 38 38 41 39 37 38 35 37 34 40 41 36 35 35 40 37 36 36 37 35 35 35 35 35 34 34 34 34 36 32 33 33 34 32 35 32 30 34 32 34 30 30 31 29 29 30 29 30 27 31 28 28 31 26 24 24 
41 46 43 49 47 41 43 39 43 44 42 40 39 36 43 37 39 38 38 38 39 38 41 40 39 36 39 40 36 35 35 35 38 38 36 36 33 30 35 37 34 41 38 39 40 41 38 38 37 40 38 37 32 36 33 36 35 38 35 32 36 36 36 31 34 32 29 28 27 24 28 30 29 32 27 30 29 27 25 25 
44 44 43 51 48 44 39 39 41 41 40 37 34 40 39 39 39 40 34 39 36 38 39 38 34 38 36 35 34 35 37 34 35 37 35 34 34 35 37 37 36 37 41 39 43 39 38 39 37 40 43 37 35 32 36 34 41 38 36 34 32 31 32 33 34 32 30 25 30 27 17 28 23 26 29 27 28 27 23 26 
43 43 46 46 43 41 40 37 40 42 39 39 40 38 43 41 39 37 39 33 39 37 39 37 36 37 38 38 34 34 38 33 36 36 37 33 33 37 32 35 35 40 37 35 36 42 40 39 42 45 39 40 36 37 37 37 42 39 41 37 35 35 33 32 34 34 31 29 29 27 30 25 24 26 23 25 28 28 28 22 
44 43 46 49 41 45 44 39 43 40 40 40 37 36 38 36 37 35 36 35 34 37 38 41 37 39 39 40 35 34 36 31 35 35 36 34 31 32 33 35 34 36 37 35 34 36 39 37 40 39 39 38 35 38 36 39 41 50 41 33 36 36 33 33 33 34 33 29 27 28 31 27 25 27 26 25 29 28 28 27 
48 43 44 41 47 40 36 40 41 39 36 38 37 39 40 38 37 33 39 35 37 37 37 40 37 38 38 37 34 34 38 34 35 32 35 33 31 35 34 32 36 37 33 38 37 36 39 37 38 40 37 30 35 34 36 39 41 40 40 34 31 36 37 32 36 34 30 37 32 31 31 28 27 30 23 25 27 28 27 28 
45 46 44 47 40 37 34 37 41 36 38 38 37 33 38 41 36 34 39 37 36 37 36 34 33 33 34 38 36 35 35 34 36 38 36 32 33 33 35 36 34 34 34 34 35 38 37 38 39 37 33 33 34 34 38 38 39 40 39 33 32 36 34 33 32 32 31 31 32 30 33 26 29 31 24 22 24 28 29 25 
44 44 42 49 42 38 37 38 37 37 36 37 36 38 38 37 37 37 36 38 38 34 36 38 33 31 35 36 36 34 36 35 37 35 35 35 32 33 35 35 33 32 35 36 37 39 38 31 38 39 35 34 35 34 37 34 39 43 40 36 35 30 34 33 32 31 32 30 34 28 30 27 28 25 26 27 25 27 28 24 
45 46 41 43 44 42 40 36 40 39 40 36 36 36 36 41 34 35 40 36 36 36 39 37 35 33 37 37 35 37 35 34 36 38 41 37 34 34 32 38 35 39 33 39 36 36 36 37 36 35 35 33 38 36 36 34 37 37 33 33 31 32 30 31 28 31 29 31 33 32 31 28 26 25 23 23 27 25 30 28 
46 46 40 38 41 42 42 38 37 37 41 36 37 35 39 38 38 38 39 36 37 39 39 37 36 36 36 38 36 37 38 36 36 34 37 33 34 35 34 34 38 35 35 38 36 34 36 38 37 40 36 34 33 33 34 34 34 34 37 30 33 34 31 32 31 31 31 31 31 31 29 29 25 25 22 25 27 27 26 28 
45 42 43 41 43 40 40 36 38 43 38 36 36 37 38 36 36 39 38 34 36 37 37 36 37 34 36 34 35 34 46 38 31 33 34 32 34 33 33 34 35 41 37 37 34 37 36 32 37 36 35 35 33 33 33 36 35 34 37 31 32 32 31 32 33 29 31 30 33 32 29 30 24 26 22 24 26 24 28 26 
46 43 44 40 37 38 39 37 36 36 39 36 40 39 39 35 37 35 34 38 37 34 39 37 36 32 34 35 33 36 33 35 33 34 33 30 32 31 32 34 37 37 32 31 31 33 34 36 34 37 34 30 34 32 30 31 36 36 37 32 33 29 28 33 29 33 29 30 31 33 29 26 27 25 25 22 26 25 24 24 
46 45 41 43 37 37 39 40 41 38 38 34 38 40 40 37 37 39 38 38 35 34 32 34 34 35 34 34 32 31 33 32 31 33 30 35 32 33 33 37 32 32 31 34 35 32 37 33 37 37 36 32 30 32 29 34 34 33 34 33 34 28 32 32 33 31 33 30 33 29 27 28 29 24 21 24 23 27 23 22 
44 44 41 38 39 40 39 47 40 40 38 39 35 36 37 39 36 37 37 38 38 35 33 37 35 32 34 32 31 34 33 32 31 33 32 34 32 32 31 32 35 37 32 32 34 36 36 31 37 38 34 34 32 32 31 30 31 35 33 33 31 32 30 33 31 31 33 32 30 31 30 28 27 24 24 26 26 25 24 25 
43 44 37 40 37 41 42 39 43 39 37 38 38 35 39 38 37 37 38 36 37 36 33 31 36 33 31 32 32 34 31 30 30 29 32 31 32 33 31 31 30 32 35 33 37 36 34 35 37 36 35 33 30 32 30 29 32 34 36 32 30 30 31 30 33 30 30 30 33 31 29 23 25 27 24 22 21 27 27 27 
43 45 38 37 41 36 38 40 41 37 38 37 34 37 40 40 37 40 36 37 35 37 36 35 33 36 34 33 31 31 34 30 30 29 31 29 32 30 31 32 30 33 34 32 34 35 32 34 34 32 30 29 30 32 27 29 32 32 35 33 29 30 30 29 31 28 31 30 28 33 27 22 29 28 24 25 25 26 25 27 
41 40 39 39 39 38 37 41 42 40 35 35 34 37 39 34 37 39 36 37 37 36 40 38 36 32 34 34 33 31 33 30 31 31 34 30 32 30 31 32 28 35 35 35 34 35 32 32 32 32 33 28 25 30 26 29 29 28 32 31 28 28 27 27 34 30 28 28 30 29 30 27 26 27 22 22 27 22 27 26 
46 40 38 41 40 39 38 41 40 40 40 36 36 38 37 33 38 37 35 37 36 35 36 38 34 32 36 34 34 30 35 32 31 31 29 28 30 31 31 31 35 30 32 35 31 31 33 32 32 33 36 29 28 29 28 23 33 28 32 30 35 33 30 29 31 30 32 29 28 31 30 25 27 25 28 23 26 22 24 29 
37 46 38 42 39 40 39 41 40 43 41 38 39 40 38 37 34 36 36 40 33 35 36 35 33 36 34 32 39 33 33 33 33 29 32 29 33 30 33 33 30 31 32 33 33 33 33 32 32 35 32 25 27 28 28 28 29 28 29 31 30 30 28 29 32 30 29 29 27 29 32 26 26 23 22 25 28 24 23 23 
44 39 43 40 42 40 37 38 44 38 37 37 38 38 39 37 37 37 37 37 34 33 36 35 33 34 33 35 34 34 31 31 31 31 32 33 33 31 29 29 32 31 34 33 34 33 33 33 35 33 31 29 27 27 29 30 32 28 28 28 31 28 30 31 30 32 34 30 26 29 27 27 24 24 24 29 25 26 23 27 
44 42 42 39 38 36 39 38 38 40 35 36 37 37 36 33 37 36 33 36 33 33 36 34 34 34 32 33 33 32 32 31 30 33 34 32 30 29 32 30 32 33 36 34 34 31 32 32 36 33 30 27 25 27 28 28 34 30 27 27 31 31 32 30 32 30 29 30 30 26 27 24 24 24 24 25 23 25 22 26 
38 44 36 39 41 38 38 35 36 33 40 36 34 36 40 36 38 34 34 36 32 33 38 37 33 32 37 33 32 32 33 30 28 31 31 27 30 28 27 33 34 35 37 34 32 30 30 30 34 37 30 26 27 28 27 28 30 31 27 25 29 26 29 32 31 30 30 25 29 25 29 22 25 25 23 24 22 24 21 22 
42 42 41 42 41 38 37 38 39 36 36 37 34 35 37 35 35 36 35 34 33 33 38 38 34 35 34 32 34 32 32 29 31 28 27 29 31 30 28 33 30 35 37 34 32 31 32 30 31 36 30 25 25 27 28 28 28 29 29 27 24 28 27 28 30 29 30 27 31 27 29 26 24 25 21 22 22 21 23 24 
38 41 39 41 45 36 36 38 41 36 38 36 37 38 36 35 34 36 35 36 34 35 34 34 33 31 31 33 32 36 31 29 28 29 33 27 29 28 28 30 31 31 35 32 33 31 34 31 33 31 34 28 26 28 27 29 31 28 28 27 26 30 31 28 30 28 28 30 27 30 28 29 25 26 24 22 24 24 18 22 
39 44 41 41 38 37 35 38 38 37 36 37 36 39 39 40 40 37 35 35 33 33 36 35 35 36 34 34 34 33 34 33 29 33 31 25 27 30 32 28 29 32 33 33 33 35 33 34 35 30 28 28 26 24 28 29 31 29 30 23 26 28 29 29 30 28 28 26 27 25 28 26 23 27 22 23 24 21 19 27 
40 42 44 38 36 39 36 37 39 34 35 35 36 35 39 41 37 38 34 35 36 33 33 35 32 33 34 30 31 34 35 32 31 31 32 28 31 27 26 30 28 31 30 33 33 32 35 36 35 32 25 26 26 27 24 28 29 27 31 29 26 30 29 27 26 27 24 29 26 26 25 23 23 25 22 18 21 22 21 24 
39 37 39 40 35 38 34 36 34 36 35 36 33 37 37 36 36 37 35 35 35 35 34 34 28 31 29 32 31 33 32 30 31 32 32 29 29 29 27 29 29 29 34 32 29 29 33 30 30 28 24 24 26 27 24 29 30 29 26 24 25 29 27 30 28 29 27 25 27 24 24 20 21 19 18 19 21 19 19 22 
43 42 44 44 41 38 38 41 37 37 36 36 37 36 37 37 36 42 40 36 37 33 35 33 31 29 31 31 34 30 35 32 32 34 32 29 28 28 32 28 29 31 33 33 32 33 33 30 34 30 26 25 23 29 28 30 29 27 26 25 28 26 26 28 25 33 26 25 24 26 25 19 23 20 19 18 20 21 23 21 
43 41 47 43 42 38 39 38 39 40 36 38 37 35 38 38 38 36 37 35 35 35 36 33 33 33 29 31 33 28 32 31 29 32 31 28 29 28 28 31 28 33 32 34 32 34 32 36 31 31 29 23 27 26 28 24 27 27 26 25 25 27 26 27 28 26 27 26 26 26 22 20 23 21 16 21 19 24 28 25 
40 43 39 39 41 38 38 38 39 39 36 37 37 37 35 37 36 36 35 36 36 32 36 36 34 31 35 28 30 33 33 27 30 28 31 31 29 30 31 32 29 31 32 32 30 34 33 33 33 32 28 24 24 29 26 27 27 25 23 21 25 24 25 25 25 25 22 24 24 23 21 20 22 24 18 19 20 21 25 28 
40 42 39 38 36 37 37 37 37 40 35 36 37 41 40 38 36 34 33 35 36 35 34 36 33 32 37 31 30 28 32 28 29 32 32 31 29 29 28 29 29 29 32 31 33 36 34 33 31 30 31 29 24 29 24 26 24 27 26 23 23 25 24 24 23 20 20 20 20 23 23 23 23 23 20 19 22 24 28 27 
39 42 39 40 39 35 40 37 38 38 35 36 37 37 40 33 36 33 39 37 35 36 35 33 36 33 34 29 32 33 29 28 27 33 28 24 31 30 30 30 27 33 31 28 31 34 33 31 32 31 30 28 27 27 25 26 25 27 20 21 23 22 21 26 24 22 25 21 21 20 21 22 22 18 19 17 21 23 23 24 
46 42 44 36 38 36 38 38 38 33 35 36 35 37 40 35 33 36 33 37 34 34 35 33 35 33 32 30 33 29 30 28 26 29 32 31 29 30 28 30 27 31 29 31 30 32 35 36 36 30 27 24 27 28 27 26 29 27 21 22 22 24 25 25 23 25 23 21 21 23 19 18 21 20 17 16 20 19 19 24 
44 40 40 36 36 36 38 35 35 35 35 37 36 36 39 34 37 38 35 36 33 36 34 33 35 32 33 30 30 32 32 28 26 30 30 30 29 31 27 27 29 30 29 31 30 33 35 36 34 31 29 23 23 27 21 24 24 25 25 21 23 25 22 20 23 22 24 22 21 22 23 19 19 17 18 19 21 20 17 22 
39 39 40 38 38 36 34 38 38 34 35 36 35 40 38 34 32 34 32 36 38 36 35 33 32 32 30 28 30 30 30 31 30 30 30 25 27 27 27 27 31 29 29 29 29 37 38 32 32 28 26 21 22 26 23 23 21 25 22 24 23 24 21 21 21 24 24 20 24 23 21 14 16 19 17 17 18 19 19 14 
41 40 35 37 37 34 34 32 36 35 35 33 35 39 41 38 39 34 34 34 36 32 34 34 29 28 28 27 28 29 31 27 26 30 29 28 28 27 28 28 24 27 26 30 28 36 33 31 29 28 23 20 20 23 25 23 20 22 22 18 22 19 19 24 23 23 23 21 22 19 19 13 15 19 19 15 19 15 17 19 
42 40 31 38 33 33 34 35 32 37 38 37 36 37 34 36 37 33 35 37 35 30 34 32 28 29 26 27 31 29 29 28 26 28 26 26 29 26 27 25 23 28 28 30 31 36 34 30 29 29 22 22 21 22 24 21 21 22 21 20 21 19 22 24 18 19 21 21 15 17 19 13 17 17 13 16 17 13 19 16 
40 39 35 38 39 36 35 34 34 37 35 34 33 37 38 37 37 35 36 36 34 33 37 38 29 29 29 28 28 31 30 27 27 26 30 26 25 27 25 25 28 29 26 29 29 34 32 30 28 30 22 19 24 21 23 23 22 21 19 21 21 21 19 22 17 20 18 16 16 15 20 13 15 17 12 11 16 14 9 15 
40 40 33 34 35 35 35 35 35 35 34 36 36 37 40 38 37 36 32 33 34 33 38 35 30 26 31 27 28 27 27 27 28 24 26 23 27 29 27 27 24 27 24 26 27 26 30 27 26 29 21 21 21 21 21 21 21 20 25 22 20 21 19 21 18 18 18 18 16 16 19 14 16 11 12 12 16 13 15 11 
45 40 34 35 31 37 36 34 37 38 35 32 36 36 37 36 37 36 34 34 33 29 35 35 30 28 30 28 29 31 26 28 23 26 27 22 27 26 24 24 25 27 24 27 27 28 32 24 28 26 22 22 21 23 21 20 22 23 23 18 20 20 20 14 20 16 17 19 19 14 19 14 11 15 8 14 15 14 14 10 
39 38 33 35 38 35 35 33 36 34 37 33 32 32 38 35 36 36 34 32 33 30 33 30 31 27 27 28 27 26 23 26 26 23 27 22 26 25 29 24 22 24 28 28 28 32 25 26 24 23 17 17 20 24 22 21 19 21 23 18 17 18 16 18 17 16 14 13 17 15 16 11 9 10 11 11 11 10 8 10 
41 39 35 36 36 37 33 34 37 33 34 34 32 29 36 33 33 38 34 35 35 29 32 31 29 27 29 26 28 28 28 26 25 25 29 24 23 23 23 22 22 26 26 27 28 30 26 28 25 20 19 13 18 26 21 24 21 21 21 17 17 16 15 14 17 15 13 18 12 14 16 9 9 11 9 11 11 7 7 10 
42 37 35 34 37 37 35 36 36 37 35 34 30 31 36 33 33 33 36 34 29 32 29 29 31 28 32 29 28 29 27 25 25 23 27 25 22 23 23 22 25 29 23 26 27 30 28 27 22 23 19 13 17 22 19 21 19 24 26 16 17 16 15 14 17 16 14 13 14 13 14 9 10 9 8 6 12 5 6 9 
39 32 34 39 37 43 35 35 37 35 36 34 34 33 36 34 34 30 30 31 31 32 31 29 29 30 28 30 31 28 28 26 25 26 23 22 23 22 24 22 24 23 24 24 25 26 24 24 20 21 17 17 19 19 22 21 26 23 18 15 14 16 14 12 14 16 16 13 12 13 10 11 10 11 9 10 8 5 4 9 
37 31 30 37 38 34 34 33 36 35 35 39 37 35 34 34 32 33 35 32 28 29 32 29 28 30 31 30 27 24 28 25 29 28 24 22 24 24 20 22 22 22 23 25 24 24 22 19 19 18 21 16 19 21 22 22 23 20 20 18 18 15 16 15 14 15 15 12 10 12 15 9 9 13 5 9 12 9 3 6 
35 34 29 34 36 31 33 34 35 33 37 36 34 35 36 32 30 29 33 33 28 25 28 27 28 25 30 27 25 25 26 22 22 24 23 20 22 21 18 23 23 25 24 22 24 20 16 13 16 17 18 16 22 21 23 19 21 23 18 14 14 14 15 17 14 12 11 12 11 12 16 11 9 12 7 7 11 4 7 8 
34 33 36 33 31 32 33 35 34 35 35 37 39 34 35 33 30 34 30 33 34 25 30 26 26 26 24 25 25 25 25 24 22 22 22 19 22 22 21 22 23 19 23 23 23 20 18 15 19 17 14 14 17 17 15 16 17 19 17 12 13 11 11 13 14 12 9 9 11 9 12 7 8 7 5 7 10 8 4 6 
35 35 33 35 32 35 27 33 34 36 33 34 36 38 35 30 30 32 32 31 34 30 35 27 24 27 29 23 25 28 21 27 22 23 23 18 24 24 20 23 21 24 22 25 22 16 14 15 15 17 16 13 15 17 17 15 16 16 16 12 10 9 11 11 9 12 7 9 13 12 6 6 9 5 7 6 10 4 5 11 
32 35 27 37 34 29 29 35 36 33 35 33 29 33 33 30 31 34 32 31 34 31 28 28 25 23 26 25 26 26 22 24 24 23 23 24 21 21 20 20 21 21 22 21 19 14 19 15 17 19 14 14 15 12 16 16 13 11 16 16 13 13 12 13 16 12 5 8 8 9 9 6 8 7 7 4 6 7 0 6 
38 32 31 35 34 35 30 33 37 34 35 34 30 32 35 35 32 30 32 32 32 29 29 30 23 23 26 28 24 27 24 22 22 26 23 20 25 21 20 20 21 20 21 24 19 17 17 14 17 18 15 15 17 17 12 16 14 13 16 11 13 11 11 14 14 12 7 7 5 5 10 5 5 5 5 3 8 5 3 9 


