P2
80 60
46
34 36 34 33 30 35 34 37 36 38 34 38 36 34 34 32 34 31 30 31 35 32 33 30 34 30 33 33 35 34 35 34 38 38 36 33 32 33 30 34 36 34 37 35 35 33 29 25 33 30 29 28 27 31 29 31 31 31 40 30 31 29 31 28 27 29 28 27 25 27 24 26 28 28 26 29 29 24 27 29 
39 38 36 37 34 34 33 38 36 37 37 38 30 35 34 35 34 35 31 33 38 35 31 32 34 32 35 33 33 35 36 36 35 36 36 36 36 35 32 33 37 35 35 35 31 32 28 28 31 30 29 29 30 31 28 32 34 33 33 29 27 26 27 24 27 24 28 25 26 22 21 22 28 29 29 28 27 26 28 25 
37 39 33 32 35 36 35 31 38 38 37 39 31 31 36 33 31 30 35 33 35 33 36 32 33 36 35 33 34 34 34 38 36 36 41 32 35 35 34 36 38 36 35 34 32 31 28 28 27 28 25 27 26 31 27 30 30 30 27 30 29 28 25 24 27 22 23 23 24 23 23 26 29 31 26 25 25 24 27 27 
37 39 34 36 34 37 36 31 37 38 40 39 30 29 31 33 34 33 33 33 34 36 34 34 32 35 34 33 34 36 31 36 38 33 34 37 29 35 34 33 36 34 35 34 35 30 28 27 30 27 26 27 26 29 29 27 32 31 28 30 26 28 27 27 26 28 27 22 26 23 28 30 32 26 27 26 25 22 28 28 
41 39 39 35 33 36 34 32 38 38 39 36 33 33 31 35 37 29 35 38 34 36 33 34 36 34 36 36 33 34 36 36 32 34 37 34 31 36 40 31 31 34 35 34 34 32 31 29 30 26 26 28 28 29 28 30 31 27 28 27 32 27 29 29 27 27 26 30 29 27 26 26 27 26 27 26 27 22 24 25 
36 37 37 35 33 36 35 33 38 33 35 36 36 36 33 35 35 32 30 37 35 36 35 34 36 38 35 34 33 31 33 35 32 33 33 32 32 34 32 33 33 34 36 32 28 32 34 33 29 29 26 25 27 25 32 32 28 31 31 27 32 30 24 28 25 25 27 27 29 27 26 26 28 28 25 23 27 24 26 24 
36 37 37 32 35 34 39 35 38 37 38 37 34 34 31 34 40 36 34 35 35 35 34 31 35 31 35 34 35 33 32 34 31 32 33 35 31 32 34 35 35 31 32 32 33 33 29 30 30 28 29 30 30 28 31 30 33 35 39 29 30 30 28 27 27 23 25 27 24 24 20 24 25 28 28 21 22 24 25 26 
39 41 37 37 36 37 37 36 34 35 34 37 35 36 30 38 38 34 35 34 39 34 34 35 35 36 36 31 34 35 33 34 33 35 37 38 31 33 38 35 36 33 35 33 31 31 33 31 34 29 30 33 30 29 30 33 29 29 30 28 31 28 29 25 26 25 27 23 26 23 22 22 23 29 24 24 24 26 26 25 
41 38 41 39 36 39 41 37 37 38 35 34 35 32 33 36 36 33 35 40 36 33 35 34 38 35 37 33 35 33 36 36 32 31 36 34 29 36 35 32 31 33 29 33 33 33 35 32 34 32 34 34 32 31 30 30 31 28 32 33 31 31 28 25 24 29 24 26 22 25 19 22 24 26 23 23 27 22 19 21 
46 42 40 41 39 38 42 37 37 33 37 35 31 32 30 34 38 33 36 36 35 38 33 35 35 35 35 31 32 34 30 33 34 28 37 36 33 32 34 32 33 30 29 30 30 30 31 32 35 33 34 31 32 33 35 36 32 33 36 29 28 31 29 23 24 27 28 24 29 22 21 24 25 24 25 21 23 22 24 24 
42 45 42 38 43 40 39 37 33 37 33 31 35 33 33 34 35 37 33 35 33 32 36 35 37 37 34 32 33 32 32 33 30 30 32 36 31 31 30 33 30 29 30 29 30 30 33 32 33 32 33 33 34 30 34 33 33 31 30 30 29 30 27 30 27 24 28 27 24 25 23 24 25 26 24 22 24 21 21 19 
43 46 39 41 41 40 40 31 37 32 32 35 34 30 33 30 34 30 30 33 31 32 37 31 34 31 34 31 32 32 33 33 35 34 34 30 28 28 33 30 33 32 27 30 31 33 31 31 29 32 33 32 32 37 36 34 30 34 30 30 30 32 30 26 26 28 23 24 25 21 20 20 26 27 29 24 23 12 21 26 
42 42 41 43 40 36 34 32 35 31 31 32 34 34 28 29 31 31 29 33 35 32 33 32 31 31 30 32 29 31 31 33 32 30 32 34 28 31 32 31 31 29 31 29 31 32 33 31 32 28 34 34 31 32 32 31 33 32 31 30 29 28 29 27 27 24 28 25 26 23 12 23 20 22 23 21 23 20 23 20 
40 41 41 41 40 39 35 34 35 31 32 34 31 33 34 33 32 31 31 29 35 32 34 30 31 31 31 31 32 30 32 32 34 33 31 32 30 34 30 28 31 33 31 30 30 35 32 33 31 35 31 29 29 31 31 33 33 35 33 32 26 30 27 26 24 24 26 28 25 22 23 19 24 22 23 20 24 20 25 24 
42 41 41 40 42 40 34 34 31 33 32 34 32 30 30 31 32 31 31 29 28 33 34 33 33 31 32 30 33 32 31 32 33 30 34 30 30 32 28 31 31 32 30 31 29 30 32 29 31 32 33 34 32 33 31 35 34 41 33 28 30 24 27 25 23 22 25 26 27 24 24 22 24 23 25 16 23 23 25 26 
36 43 42 38 39 39 36 35 35 33 31 34 30 36 33 30 32 29 30 29 30 34 32 33 32 34 32 31 30 31 31 30 34 30 32 31 30 31 30 30 32 31 31 31 30 31 33 28 26 31 30 28 31 34 30 33 35 35 30 33 26 29 31 24 27 26 22 29 24 23 25 24 22 25 21 21 23 24 23 23 
44 44 40 40 36 37 35 31 36 32 33 32 30 31 33 32 30 30 30 27 31 35 35 31 30 29 33 33 31 31 30 31 33 35 30 33 28 29 30 32 31 29 27 30 28 35 31 27 28 28 30 28 32 35 30 36 31 35 31 30 26 29 28 26 22 26 24 29 27 20 25 24 28 26 23 23 23 22 23 24 
38 38 38 39 36 37 36 30 30 30 30 32 28 31 33 29 32 31 30 30 32 33 32 29 31 31 29 32 32 32 32 28 32 33 32 31 28 29 31 31 27 27 31 29 29 34 31 26 29 26 29 32 34 29 35 29 27 36 35 29 28 24 26 24 24 25 23 25 25 20 22 21 25 21 26 22 24 23 24 23 
40 43 37 37 38 38 35 31 34 32 34 31 30 31 30 33 30 30 29 31 32 30 33 32 29 31 32 32 33 33 31 29 36 31 36 29 31 32 30 29 29 32 29 33 28 29 29 28 27 28 31 29 35 31 30 29 31 32 30 25 28 27 24 23 23 27 24 27 26 21 22 25 21 21 22 19 22 19 24 21 
38 42 38 36 34 41 36 30 36 35 34 31 31 30 30 32 32 30 36 30 35 34 37 31 35 33 34 31 31 34 33 33 30 31 33 31 30 33 30 31 36 28 29 30 30 28 29 32 30 28 30 33 32 32 33 31 31 27 32 27 26 27 26 24 24 25 28 26 25 22 22 26 23 23 22 19 23 22 20 23 
40 41 37 33 36 34 37 29 33 33 35 31 30 31 31 31 30 31 29 30 31 34 33 34 33 32 33 32 28 29 41 33 29 28 31 29 32 31 29 27 30 33 32 29 28 27 28 26 29 27 28 31 29 30 29 29 28 28 29 27 26 26 26 22 25 22 23 25 27 21 23 25 22 19 21 22 23 20 29 24 
39 40 38 35 34 33 38 31 33 30 33 31 34 31 32 31 29 30 29 31 30 30 32 30 35 32 31 31 29 31 33 29 33 32 28 29 30 29 28 29 32 30 26 26 27 26 26 28 27 27 28 27 31 27 29 27 26 28 32 26 27 27 24 27 27 27 24 25 26 27 19 22 24 24 23 19 22 21 22 21 
37 38 35 34 34 34 35 34 37 30 31 34 35 31 31 33 31 29 32 30 30 31 29 33 33 32 30 30 30 29 30 30 30 28 29 28 28 29 28 33 31 29 26 27 26 24 26 24 27 26 30 26 28 29 26 28 24 29 28 29 27 22 27 26 27 24 27 26 26 24 21 25 25 20 20 20 18 18 21 21 
39 41 35 33 33 32 37 37 35 29 34 35 31 30 31 32 30 29 31 30 29 30 29 31 31 27 30 28 26 29 28 29 28 27 26 26 26 26 30 26 28 26 26 26 25 28 28 25 28 31 28 27 29 28 28 26 28 26 26 28 20 23 24 25 24 25 23 26 22 24 22 22 24 19 23 19 17 20 19 20 
39 40 34 36 32 33 38 32 33 33 32 35 34 31 28 27 32 29 30 30 31 32 30 29 32 29 28 29 30 28 27 28 28 26 28 27 25 26 28 28 26 26 27 29 32 30 25 29 29 30 28 29 24 27 27 26 28 28 26 28 23 21 26 24 24 25 27 23 25 22 23 18 25 23 23 21 20 20 21 25 
38 39 37 33 34 32 33 33 34 33 32 33 30 32 35 31 30 31 29 29 32 32 31 31 33 30 28 28 29 25 28 28 28 24 29 26 24 29 26 26 25 28 28 29 27 31 25 27 27 25 27 28 24 26 25 24 26 26 28 23 25 22 22 22 26 22 28 23 22 24 19 24 25 24 20 22 20 21 21 22 
39 37 37 34 33 31 35 34 31 34 31 31 32 32 30 31 32 32 28 28 30 32 35 33 30 31 29 29 28 29 28 27 29 27 29 23 28 26 28 26 24 28 29 28 26 26 29 25 26 22 26 30 24 21 23 26 24 24 22 24 23 23 21 19 22 23 22 22 20 23 23 21 24 22 23 19 22 21 24 23 
40 37 36 34 34 34 35 34 36 33 33 34 31 33 31 31 30 31 27 30 32 29 32 30 32 28 32 30 29 28 30 30 24 27 27 26 27 26 26 26 29 26 27 29 26 23 26 25 26 26 26 28 27 24 21 24 25 24 22 23 27 23 25 22 24 22 26 26 24 23 22 21 24 21 23 19 22 19 22 24 
33 40 34 36 32 33 34 34 33 33 31 35 31 31 31 28 29 30 29 30 29 30 31 29 29 33 32 30 30 28 26 29 29 24 28 27 29 28 26 26 28 26 26 27 26 27 27 24 25 26 27 27 24 23 24 23 23 20 22 21 24 24 22 24 22 24 24 20 23 19 24 23 21 22 19 19 21 18 18 23 
39 38 39 30 35 33 32 29 36 33 30 33 30 30 32 29 30 27 29 29 29 27 31 29 29 30 30 28 26 28 25 30 25 24 29 30 27 28 24 23 29 24 28 28 26 25 26 27 25 24 27 28 25 22 24 30 21 24 20 22 23 20 19 21 21 24 20 25 22 22 19 19 24 18 19 21 20 16 20 20 
40 41 38 37 34 31 33 30 29 35 28 30 33 32 29 29 30 27 27 28 28 27 35 29 32 31 30 28 30 27 28 25 26 27 31 29 28 25 27 26 28 27 29 25 28 26 24 25 28 26 28 22 23 23 25 23 25 22 20 18 22 23 24 21 22 24 24 26 25 19 18 22 22 21 21 17 18 15 17 17 
38 41 34 33 33 32 32 28 33 33 30 32 29 32 33 31 32 29 30 29 28 28 30 30 30 30 35 28 27 26 29 27 26 24 28 29 23 28 24 28 30 31 29 30 27 24 24 26 26 29 25 25 25 23 23 24 23 22 20 20 21 19 25 21 23 24 23 20 26 19 25 19 24 20 19 20 19 15 20 20 
35 39 35 37 37 34 32 33 35 31 30 33 31 31 28 31 28 30 30 27 28 26 28 28 34 33 33 31 28 27 27 27 29 22 25 27 23 26 25 28 28 30 28 27 27 23 23 25 25 25 27 24 21 23 22 24 22 25 23 19 21 21 20 21 22 23 26 20 24 22 17 17 19 22 19 19 20 16 17 22 
35 39 33 32 35 33 32 31 33 31 32 31 30 28 29 27 31 29 29 30 30 31 31 30 29 27 28 29 26 33 26 25 26 26 29 25 25 25 26 27 28 27 28 26 26 25 27 26 23 26 26 27 24 22 24 21 24 22 24 22 17 23 24 20 24 20 23 22 19 21 19 20 22 19 21 19 22 15 17 19 
35 37 33 33 33 32 31 29 31 29 29 33 31 33 29 31 31 30 28 31 31 30 32 30 32 32 29 30 29 28 29 28 27 26 29 24 24 25 27 25 24 27 26 25 26 29 26 22 22 25 26 28 27 25 27 22 22 25 24 18 21 20 22 21 24 21 23 21 20 19 18 19 22 21 21 20 20 15 21 22 
37 39 35 32 33 32 33 32 30 29 30 29 28 30 31 29 32 30 30 27 30 30 28 32 30 29 27 29 29 29 30 27 31 28 27 26 27 25 24 26 26 30 24 26 27 27 29 30 26 21 26 28 24 24 26 25 23 22 25 24 21 23 23 21 21 21 20 22 18 19 18 20 22 23 21 20 19 17 19 22 
38 34 38 34 32 31 31 32 30 29 32 33 30 29 29 30 31 32 31 28 28 30 32 31 30 29 26 26 28 29 28 28 27 28 27 23 25 26 24 24 26 28 24 26 24 26 29 24 26 24 23 25 21 23 20 21 19 24 23 16 19 19 19 24 22 20 22 24 20 16 18 14 20 21 17 16 17 17 22 18 
37 42 37 34 34 32 32 32 28 29 28 32 29 30 30 31 30 33 32 30 30 28 29 29 30 26 23 26 28 24 31 29 29 26 27 27 25 27 27 23 25 27 25 27 27 27 26 24 25 23 25 24 19 25 28 25 23 20 23 21 21 17 19 19 20 24 21 19 21 16 19 17 19 17 19 14 17 15 15 18 
36 40 39 36 37 34 34 32 32 32 31 35 34 30 28 30 31 31 29 33 28 32 32 30 31 28 26 29 25 27 28 30 26 31 30 29 26 26 32 28 29 29 27 26 27 27 26 26 24 26 27 26 21 26 26 19 22 20 22 20 20 22 18 19 21 20 23 23 25 18 16 18 20 18 16 18 18 19 21 21 
38 42 36 37 34 35 32 36 34 35 34 32 34 28 26 30 28 27 33 32 29 29 33 36 33 29 31 26 29 29 31 28 29 27 32 28 27 28 30 32 27 31 29 27 24 25 26 26 26 33 28 26 26 27 23 24 20 19 17 16 21 19 20 19 18 19 19 20 25 19 20 18 22 21 18 17 24 19 23 26 
37 36 37 34 32 34 28 29 32 33 32 35 32 33 31 31 27 28 26 29 29 27 31 31 32 31 32 29 25 26 25 26 28 28 30 26 26 27 27 27 27 24 27 26 27 26 26 26 26 29 31 29 24 30 21 23 22 22 18 17 19 21 18 19 17 15 15 18 13 19 15 17 20 22 21 17 18 23 29 21 
37 40 37 34 31 35 31 28 29 30 31 33 33 30 30 27 30 29 28 28 27 31 31 30 34 27 29 27 27 26 27 27 29 28 27 27 31 29 25 24 24 28 22 24 25 27 24 28 27 28 29 26 26 25 23 22 18 18 14 14 18 16 17 17 18 19 18 16 15 15 14 15 20 17 19 18 20 23 21 23 
40 42 41 33 33 30 34 31 27 28 32 33 31 31 33 30 30 26 29 31 29 31 31 30 31 30 25 28 27 23 25 26 26 28 26 30 28 26 23 25 25 24 24 24 28 27 29 27 29 27 27 26 22 24 24 19 21 17 19 16 17 22 20 20 19 16 17 16 17 18 13 15 23 20 20 16 19 22 17 25 
38 39 35 30 30 28 31 30 29 26 33 33 28 30 27 29 31 27 28 31 30 29 29 28 30 31 31 27 25 25 27 24 25 24 27 25 26 26 22 25 24 23 26 23 24 23 29 31 25 23 29 21 19 23 17 17 18 19 20 14 17 16 20 15 15 15 18 17 15 15 15 12 17 19 22 14 21 16 19 22 
34 37 31 29 28 26 29 31 28 24 28 30 28 30 29 26 28 27 28 30 32 28 27 29 30 29 24 24 26 27 26 26 28 22 26 25 24 22 22 23 25 23 26 24 24 26 28 26 27 25 26 22 19 19 18 18 15 16 14 14 16 19 16 13 14 17 18 19 17 16 10 13 16 16 19 13 19 15 13 16 
34 37 29 32 30 30 28 24 28 26 26 30 28 30 32 30 33 27 26 29 31 28 30 29 27 24 23 21 23 25 24 26 27 24 23 25 24 23 25 26 23 22 23 22 22 23 26 25 23 22 20 20 18 18 16 17 16 15 15 12 17 13 17 13 16 16 18 15 16 12 15 9 13 16 15 15 14 13 16 17 
34 36 25 29 28 27 30 30 26 27 30 34 31 28 26 26 29 29 26 28 29 27 27 28 28 27 22 22 25 25 25 25 26 24 25 23 20 24 22 25 25 24 22 23 24 25 23 25 25 25 19 20 18 17 15 16 17 20 12 15 14 14 18 16 14 12 17 15 10 9 14 12 17 12 18 14 14 11 14 9 
35 36 29 29 28 29 28 28 29 28 26 31 30 31 31 31 30 29 27 28 30 29 29 28 25 25 24 24 27 24 28 24 22 24 24 23 22 22 21 22 25 22 22 22 22 23 22 22 24 25 25 21 21 19 17 20 19 19 17 17 16 15 15 16 12 14 15 15 14 12 13 14 16 15 14 10 12 8 13 11 
35 37 28 28 23 30 32 30 29 28 28 30 28 31 30 31 31 29 28 29 29 30 32 28 27 27 28 23 27 25 24 25 24 24 22 22 24 25 26 23 21 24 18 21 22 21 24 23 20 23 22 25 18 20 17 17 17 16 16 17 15 13 16 14 12 11 13 15 13 12 10 11 16 14 12 12 15 11 13 12 
34 36 30 29 30 28 30 28 28 31 26 29 32 30 27 30 30 28 27 28 28 23 29 28 26 25 24 23 22 26 24 23 21 21 22 23 23 23 22 20 23 22 18 20 20 22 23 21 24 22 23 21 18 17 19 15 16 18 18 17 13 14 15 9 11 11 14 14 12 13 8 8 9 12 14 11 17 11 13 11 
33 32 25 29 29 28 30 27 32 33 27 28 28 29 32 27 30 28 32 27 24 26 29 27 31 24 23 22 24 24 23 22 21 23 24 20 22 22 28 24 22 18 21 23 21 20 20 20 18 21 21 22 17 19 22 17 16 14 19 15 16 16 13 12 10 11 11 9 14 9 10 6 10 7 15 12 9 8 9 11 
37 35 25 33 33 34 29 26 30 27 28 29 29 25 29 29 27 27 28 28 31 26 26 28 26 27 25 24 21 26 24 25 22 23 28 23 24 21 20 22 20 21 22 22 20 21 18 20 24 23 20 17 18 25 19 21 20 21 18 16 13 17 13 12 12 12 11 13 8 9 13 8 13 9 10 10 11 14 11 11 
35 33 30 31 31 32 28 31 24 30 29 28 28 24 24 26 30 28 28 29 24 28 27 26 32 27 28 23 23 24 24 22 24 23 26 26 19 21 20 19 23 22 16 22 21 23 20 22 25 24 22 18 18 21 21 20 21 21 17 13 15 13 13 10 11 10 14 9 10 9 9 4 11 8 14 11 12 3 8 4 
31 33 27 32 34 35 28 27 29 25 30 31 28 28 27 26 27 24 24 23 25 26 25 25 29 29 26 25 27 25 22 22 22 24 21 21 22 20 22 19 20 19 18 16 19 18 20 20 23 26 21 21 13 15 21 23 19 21 17 17 14 14 9 12 9 9 10 10 10 8 7 8 8 10 11 8 5 5 6 4 
34 31 24 31 30 29 31 28 25 28 29 32 33 25 29 28 27 27 30 27 25 21 25 26 28 27 29 27 25 20 22 23 22 20 20 19 18 21 17 18 18 19 19 19 19 15 19 21 23 21 26 19 13 15 21 16 17 17 16 17 15 18 11 9 9 9 8 9 7 6 11 10 12 10 11 7 10 7 6 10 
38 35 23 28 28 28 28 27 31 29 30 34 32 34 27 26 27 22 30 26 27 23 25 26 27 28 27 26 21 22 21 20 20 21 20 18 18 19 17 18 18 20 19 19 18 17 17 19 17 20 21 14 14 10 14 13 16 15 14 16 13 15 11 10 11 6 6 8 10 9 13 12 11 9 10 11 11 3 4 4 
31 33 26 25 28 26 26 25 28 27 30 32 35 28 28 24 27 27 24 29 26 23 26 25 23 27 23 25 21 19 20 21 19 21 20 16 19 20 18 18 21 16 18 18 18 18 19 22 19 15 15 12 11 14 15 16 15 14 14 11 11 14 7 6 7 5 5 5 8 11 7 8 6 6 10 13 12 7 3 5 
29 33 28 25 29 29 29 27 28 30 27 31 34 30 27 23 23 26 28 26 25 25 27 22 26 26 26 22 24 21 20 22 20 20 18 15 18 20 19 21 17 20 18 18 17 19 17 21 18 15 12 13 12 16 14 14 14 13 13 15 13 9 9 8 6 6 6 3 5 9 5 3 9 8 6 4 9 2 4 6 
32 34 27 25 28 27 24 27 29 30 29 29 27 28 27 23 26 25 24 24 29 25 31 24 23 24 18 21 25 21 16 22 20 19 18 21 19 21 20 16 19 18 18 21 15 17 20 14 14 15 12 14 8 15 13 14 14 13 14 17 14 12 9 6 6 8 4 6 4 4 4 5 6 5 7 6 5 5 7 9 
33 29 24 24 26 26 26 25 27 29 29 28 25 26 23 28 27 23 24 22 29 25 26 24 26 20 21 23 25 23 18 21 18 18 25 20 19 19 15 21 20 19 19 19 15 20 18 14 12 14 14 12 10 12 11 13 11 11 13 15 12 9 8 5 7 4 5 7 4 2 5 1 6 3 7 3 1 0 5 2 


