P2
80 60
35
27 28 25 20 22 24 23 23 26 27 26 25 19 24 24 24 22 24 20 23 25 26 24 22 22 22 24 26 27 26 23 23 26 30 28 24 25 24 22 21 25 25 27 24 24 24 23 23 23 24 23 19 21 24 25 25 24 32 28 21 20 21 20 17 18 16 12 14 15 11 17 14 16 12 19 12 12 10 12 18 
27 28 27 22 23 22 22 25 24 25 24 26 22 23 23 24 26 23 20 23 23 24 23 23 19 24 25 25 24 26 25 24 24 26 26 25 25 23 21 21 20 24 22 24 25 22 21 24 22 22 22 22 20 25 24 27 28 25 23 20 16 18 22 18 16 14 13 12 14 10 11 12 13 13 15 12 11 14 14 13 
28 24 22 19 24 24 25 23 26 25 26 25 21 22 24 21 22 23 22 21 23 25 24 21 19 25 19 22 26 26 24 24 23 26 25 25 25 24 23 19 18 23 20 20 22 19 18 23 25 19 22 19 19 25 29 26 22 24 21 20 19 19 16 14 15 13 11 12 14 16 14 14 17 14 11 15 8 10 8 11 
28 26 26 21 24 27 24 28 25 26 29 28 22 23 24 23 26 24 21 25 25 21 22 19 20 25 24 27 25 26 23 25 22 26 27 24 27 23 24 22 23 22 23 22 22 20 20 22 25 24 21 19 20 24 24 24 25 22 21 20 25 22 19 17 18 17 13 14 13 13 14 17 15 12 15 14 15 10 11 9 
32 28 23 24 25 25 24 26 27 25 27 24 23 22 23 28 25 24 23 23 23 22 18 24 23 25 28 25 26 24 21 23 24 23 21 25 25 27 26 25 20 22 24 23 23 22 22 26 22 26 21 23 23 23 24 23 21 23 19 17 22 20 19 21 20 16 13 18 16 14 17 15 12 12 15 15 17 12 10 9 
27 26 23 23 25 29 24 28 26 24 25 25 22 25 23 24 26 24 24 25 21 24 25 27 25 25 29 27 26 23 22 24 19 22 22 27 24 25 26 21 20 25 26 22 21 21 24 24 25 21 22 20 24 25 22 23 21 25 19 20 24 20 18 19 17 17 14 17 18 15 17 15 15 12 12 15 13 12 8 9 
27 30 29 26 29 23 24 27 27 24 27 23 24 25 23 26 30 27 21 24 26 26 26 26 26 20 24 26 23 24 23 24 23 26 24 27 23 25 22 23 28 22 23 21 24 23 22 23 24 23 22 24 25 23 22 23 24 26 28 21 25 24 20 18 19 17 13 19 17 16 12 15 13 13 11 15 13 11 6 7 
26 31 27 23 26 27 26 23 26 22 27 25 22 23 24 28 27 26 25 24 30 24 26 24 26 24 23 22 22 25 21 22 21 23 24 28 25 23 24 21 26 20 22 22 23 22 25 23 21 22 22 22 24 21 20 25 22 24 23 24 23 22 25 16 21 17 15 14 16 15 12 13 12 12 15 11 13 12 5 6 
33 29 31 24 28 26 27 25 22 25 26 23 24 21 24 26 25 24 24 28 25 24 26 24 24 22 24 26 25 23 25 21 21 21 25 24 24 22 21 23 21 20 20 19 21 19 20 23 23 22 23 22 22 23 21 25 21 24 21 22 23 19 20 16 17 20 14 16 15 16 13 15 13 13 12 10 14 9 8 3 
33 32 29 27 29 28 26 28 25 22 27 21 23 23 24 22 28 23 22 24 25 24 24 25 25 23 26 27 23 23 20 20 21 23 29 22 24 24 21 18 22 21 20 19 17 17 21 22 22 18 24 21 19 23 21 23 22 19 20 19 19 20 18 19 19 17 14 15 17 15 12 14 17 12 12 16 14 14 9 6 
35 35 29 24 25 26 31 25 27 28 24 22 23 18 24 23 24 24 23 25 21 24 24 24 23 22 22 23 23 21 23 22 22 21 25 21 23 20 20 20 20 19 21 20 19 18 18 23 20 20 22 20 22 22 23 25 20 18 21 17 17 17 16 20 18 15 14 17 15 16 11 11 14 14 15 11 11 11 8 11 
31 30 30 28 29 29 31 23 23 25 23 20 22 24 23 21 24 21 21 20 21 22 23 22 19 23 21 22 20 22 21 20 22 20 19 21 19 17 21 20 20 21 19 18 20 19 21 20 19 21 16 18 19 21 22 24 20 18 18 17 21 22 21 17 16 16 16 14 14 10 10 12 13 10 12 14 12 15 5 0 
34 31 28 31 27 26 29 24 19 25 23 22 24 21 21 21 24 24 20 22 22 23 22 18 23 24 23 24 22 24 25 20 24 24 20 24 21 21 28 24 18 19 19 16 20 22 22 19 21 20 23 20 18 20 18 21 21 21 20 18 21 21 23 17 15 18 15 14 13 15 1 15 15 11 14 14 12 10 7 12 
28 33 30 27 25 24 23 23 23 18 21 23 19 19 23 24 22 20 20 19 23 25 23 23 21 21 22 22 24 23 22 22 23 24 21 21 20 26 22 21 20 19 20 19 18 22 23 23 18 24 21 23 18 22 19 22 20 24 24 21 25 18 13 15 13 15 14 16 15 11 13 15 12 12 11 14 13 12 15 12 
26 30 34 29 27 24 23 25 23 21 23 21 19 21 18 21 21 20 19 19 18 21 22 20 24 20 22 25 20 21 20 19 22 23 20 21 24 24 20 20 17 19 20 17 17 17 19 19 23 22 21 19 19 24 20 23 25 33 27 22 20 17 21 16 14 16 16 15 17 17 16 16 15 12 11 11 13 13 12 15 
31 33 32 29 20 24 22 26 26 22 22 20 21 20 19 23 21 21 20 18 21 22 20 21 20 23 23 23 23 22 21 19 21 20 23 20 24 21 24 17 21 21 19 19 16 18 22 20 19 22 19 21 20 25 22 24 24 27 19 24 20 14 18 14 16 18 15 19 18 14 15 14 14 13 14 11 12 11 10 11 
29 30 29 30 25 23 25 20 23 20 22 20 19 19 24 25 22 17 21 19 22 22 20 16 22 21 20 22 20 23 21 20 20 22 23 19 19 18 21 21 22 20 16 16 17 18 20 20 20 20 18 18 19 20 23 24 22 24 23 20 20 21 19 17 17 16 13 17 17 14 20 18 17 15 11 12 13 10 10 8 
27 28 30 26 28 24 26 23 22 21 21 20 19 20 23 20 20 18 19 22 21 20 23 21 21 19 19 24 21 23 21 19 20 22 20 21 20 20 22 22 21 19 17 18 18 20 18 21 20 19 17 19 20 20 24 23 25 28 23 20 18 19 18 15 15 18 14 16 16 20 21 17 15 12 13 9 11 13 13 8 
27 29 29 24 28 25 21 22 23 24 24 18 20 22 23 22 22 23 20 22 19 20 23 23 21 21 21 25 24 23 20 20 19 22 26 22 27 21 20 23 21 22 20 20 19 18 21 21 19 19 16 20 23 25 20 21 20 24 21 17 22 16 15 17 18 17 16 15 17 15 13 15 16 11 12 10 12 10 11 4 
28 26 25 24 26 29 26 18 22 23 23 20 21 20 20 20 21 23 22 23 24 28 27 24 22 22 22 23 23 24 23 20 22 20 20 18 23 23 22 20 24 20 18 19 15 18 19 20 20 21 21 21 21 22 21 22 21 21 17 19 21 19 16 17 16 18 16 17 17 16 17 17 16 12 13 10 10 10 11 9 
27 31 24 24 25 25 22 19 22 26 24 23 19 21 19 21 20 23 19 19 24 23 20 24 25 23 23 22 24 24 30 20 18 23 23 20 22 21 20 22 21 24 21 19 16 16 17 19 20 19 19 19 19 16 24 21 20 21 19 21 21 19 21 18 16 17 15 19 17 14 13 18 14 15 10 12 13 12 10 8 
33 29 32 24 25 23 24 20 23 23 23 21 27 22 23 22 22 22 19 22 23 22 23 21 20 20 23 23 24 24 23 20 19 24 20 22 22 20 19 18 21 22 18 15 17 16 17 20 19 20 21 18 19 16 21 20 20 21 22 18 18 21 19 21 16 19 16 14 17 17 14 13 17 14 15 7 10 15 11 5 
27 30 26 25 28 23 22 23 24 20 19 20 18 22 24 20 21 20 21 22 21 21 22 20 22 23 23 21 20 20 22 20 22 19 19 21 23 18 20 20 18 17 17 15 19 14 15 18 16 19 19 16 18 21 16 19 17 18 20 19 20 19 20 16 20 18 15 14 16 15 14 15 19 15 13 14 5 7 12 6 
27 29 25 25 27 22 26 28 23 22 25 23 19 22 20 23 22 19 21 22 22 21 20 20 20 21 22 23 20 20 20 17 18 20 19 21 20 19 19 20 18 19 16 19 13 16 18 15 18 23 24 18 21 19 21 20 21 18 17 21 19 19 20 21 18 17 17 19 17 16 16 14 17 15 15 12 8 13 13 19 
28 29 26 25 25 23 26 18 29 25 23 22 24 18 21 22 20 20 21 18 22 20 19 22 22 21 18 20 21 17 17 15 15 19 25 21 19 15 17 18 15 15 19 18 17 18 17 19 20 18 18 17 18 19 17 20 18 19 20 18 18 19 18 19 19 19 15 17 18 13 11 14 16 17 14 14 12 10 12 13 
27 26 23 23 26 22 28 24 22 25 24 22 22 22 24 22 20 21 16 21 22 24 22 26 24 20 20 21 20 20 17 16 20 23 22 22 20 18 17 20 18 17 19 18 17 19 18 22 18 17 19 19 18 23 19 18 19 19 17 18 17 18 16 17 21 18 16 16 18 17 16 15 19 13 13 15 13 17 10 8 
28 27 27 25 24 26 25 25 24 24 23 21 20 23 24 24 20 23 17 19 23 20 25 25 22 21 23 22 23 21 21 14 19 20 23 20 20 17 16 19 18 17 18 15 16 17 17 20 21 17 20 15 18 19 20 20 17 18 18 18 17 19 16 16 17 16 16 16 17 15 16 15 17 17 15 11 15 14 11 13 
27 28 26 26 25 23 25 25 23 21 24 23 20 23 21 17 23 22 18 23 20 23 23 22 22 22 24 28 22 26 21 19 17 17 18 20 21 16 16 19 19 17 19 19 16 19 19 18 18 18 20 19 21 20 20 17 20 18 17 17 19 16 21 17 17 17 12 16 14 15 15 19 14 18 14 14 14 15 12 7 
24 29 24 25 24 21 23 25 21 26 22 23 23 25 21 22 17 21 18 24 19 22 22 22 21 22 23 24 21 21 21 17 17 20 18 21 18 17 16 17 17 17 19 14 17 16 20 21 17 24 17 18 17 17 18 18 17 15 16 16 22 19 15 21 16 16 13 15 14 18 13 16 15 14 16 10 11 14 10 12 
29 28 27 24 22 21 25 22 24 25 24 23 22 21 20 21 22 23 18 19 21 20 21 22 20 21 20 22 20 22 19 18 18 19 19 21 19 20 17 16 19 18 20 18 17 18 17 19 20 18 17 16 17 18 19 17 17 18 16 17 23 20 18 16 18 17 22 18 13 17 16 15 18 13 14 13 11 10 10 9 
30 30 26 22 23 21 22 20 21 20 22 22 22 22 22 19 21 22 18 23 21 20 24 21 20 21 22 24 20 20 20 17 16 18 24 22 20 17 17 19 20 19 21 21 18 12 16 20 20 20 20 16 15 20 19 19 18 18 16 17 19 16 20 18 19 21 16 18 19 16 15 18 18 14 13 11 13 12 10 12 
28 23 23 24 24 21 21 18 21 22 23 21 21 22 22 23 21 19 19 21 21 21 21 20 22 21 30 24 20 19 17 18 19 18 19 21 22 16 17 19 24 21 21 20 19 16 17 20 19 21 19 18 16 20 20 20 18 19 14 14 16 17 19 19 19 19 16 15 16 15 16 16 14 13 8 10 14 11 11 10 
26 27 26 29 26 25 24 21 21 22 22 22 22 21 18 22 23 21 19 19 19 21 20 20 22 23 22 25 26 21 21 19 16 17 18 21 21 18 16 18 19 23 19 16 20 17 19 20 19 20 18 20 17 19 19 18 19 20 16 16 15 16 20 15 18 16 15 16 18 16 13 14 14 13 15 15 17 16 8 8 
25 26 25 22 26 24 22 21 22 20 22 23 22 18 18 22 23 23 19 19 22 21 20 24 22 23 21 21 23 21 21 16 17 18 21 19 19 18 18 19 20 21 21 15 19 20 16 19 18 20 19 16 20 22 19 19 19 19 17 15 17 20 19 19 20 18 18 15 14 14 13 15 14 14 14 17 21 21 9 10 
26 26 24 22 22 23 22 18 18 19 21 24 22 21 22 19 23 19 19 22 20 20 19 22 23 21 19 23 23 20 20 18 18 19 22 18 21 18 17 20 15 17 19 20 20 19 19 22 16 19 18 20 23 19 18 17 18 20 17 15 19 19 17 16 18 19 17 17 14 14 13 12 17 15 14 20 19 16 9 10 
25 26 26 23 23 22 23 20 20 21 24 21 22 22 20 19 19 21 20 19 24 22 21 23 20 22 20 20 23 20 19 20 15 20 19 22 22 17 18 19 17 21 17 13 18 16 22 24 20 18 21 21 20 21 21 21 17 17 21 19 17 19 22 18 17 18 14 16 14 14 13 15 11 15 17 20 19 17 16 12 
26 27 25 23 25 22 21 21 19 20 22 20 23 21 19 19 20 22 21 21 23 22 22 20 22 20 19 23 22 20 19 19 17 20 17 19 18 20 17 19 16 18 18 18 19 20 18 21 21 20 18 19 21 19 18 20 18 18 19 16 19 19 17 17 18 18 16 16 13 12 15 13 13 15 15 24 19 18 11 8 
28 31 26 25 23 26 23 21 20 19 20 23 22 20 20 20 23 24 20 22 20 22 22 21 20 21 18 19 22 21 23 19 18 21 21 20 19 17 17 20 17 16 20 21 22 19 19 20 19 20 18 18 19 20 21 20 19 21 16 20 19 18 19 14 20 20 15 16 14 15 15 14 12 15 15 19 13 13 12 12 
27 28 32 22 27 22 24 23 23 20 23 24 22 19 22 20 20 24 20 20 21 22 21 21 22 18 19 19 20 21 18 18 18 21 19 23 17 20 19 18 19 21 19 17 19 19 20 20 17 20 22 22 24 20 23 22 19 22 19 16 17 18 16 19 17 17 19 16 16 15 9 14 14 12 14 16 17 15 12 12 
25 28 24 21 23 23 20 20 23 20 22 22 20 20 19 17 21 16 17 18 23 22 19 23 20 19 21 21 21 22 19 19 20 19 19 21 19 17 20 21 20 21 19 17 17 18 20 22 21 22 20 19 22 23 20 21 18 18 17 17 15 15 19 17 12 15 14 14 14 14 9 12 16 14 13 13 17 15 14 13 
29 26 25 20 21 20 19 20 22 20 21 21 21 25 17 19 19 18 21 19 19 22 20 23 21 22 27 23 21 21 20 18 20 22 20 20 19 17 17 17 19 17 19 15 16 17 20 18 21 19 22 23 23 23 17 17 18 18 17 13 14 16 16 16 16 14 12 13 11 15 9 12 10 13 13 15 13 21 21 13 
26 26 23 23 22 17 23 20 21 22 21 19 21 18 23 19 17 19 16 18 22 19 21 23 22 19 21 22 21 21 20 16 17 14 19 21 26 19 15 17 18 18 17 17 18 20 20 22 21 22 21 21 19 21 20 20 17 21 16 13 17 16 16 14 17 16 13 13 11 13 9 17 16 14 14 19 15 14 10 14 
28 28 24 22 21 19 25 21 22 19 22 21 21 21 22 20 17 19 19 20 21 20 21 23 24 21 19 22 23 19 18 17 16 19 18 24 23 20 21 19 20 19 17 18 20 19 23 23 21 23 21 19 18 21 21 21 21 23 17 15 17 17 18 18 19 18 14 14 12 12 10 11 16 13 16 16 15 14 11 10 
27 27 20 18 20 20 25 20 18 17 22 21 21 21 24 19 18 20 21 23 22 22 22 22 24 21 21 21 21 20 20 16 19 20 20 20 24 18 16 18 17 22 18 18 17 20 21 25 22 21 19 19 20 21 18 19 19 17 16 16 17 18 18 16 17 18 16 12 12 13 13 11 13 9 12 16 15 10 9 7 
26 26 20 24 17 17 22 18 22 22 20 21 22 21 20 20 21 19 19 20 23 21 20 23 22 19 20 20 18 22 16 16 19 20 18 19 18 17 15 16 23 17 17 16 20 19 24 22 22 20 21 17 18 21 18 17 17 17 12 15 15 16 17 17 15 19 15 16 13 14 12 10 14 10 13 12 12 9 7 8 
26 26 21 19 23 16 19 17 20 19 20 21 22 20 20 19 25 22 17 20 23 21 21 19 23 19 20 19 20 19 20 17 15 21 22 22 18 20 16 20 17 20 16 16 19 22 19 20 19 21 22 17 18 17 18 18 15 18 16 14 14 18 16 15 15 19 16 11 17 11 11 10 14 12 13 13 12 9 3 10 
27 23 21 18 18 15 16 17 20 14 19 19 18 15 18 18 23 19 21 16 21 21 19 19 19 20 19 19 18 18 21 14 17 18 19 19 16 18 15 17 18 17 17 19 21 23 19 20 18 19 19 17 17 17 19 17 14 20 14 14 16 16 17 16 12 14 11 16 20 10 10 11 13 8 10 9 10 6 4 9 
24 24 23 18 17 17 16 17 18 18 19 17 20 19 18 20 20 19 18 17 21 23 23 19 20 18 16 18 18 21 16 18 16 17 21 19 17 19 19 19 18 19 15 16 19 19 20 16 16 18 16 18 16 18 18 17 17 18 15 16 17 17 16 14 14 12 14 13 14 10 14 12 15 10 9 6 11 8 6 5 
24 23 20 18 19 16 16 17 20 19 19 18 19 20 20 22 21 19 19 18 20 23 25 22 20 17 18 19 21 18 15 16 17 18 20 18 19 21 16 18 17 17 14 14 18 15 21 18 18 18 20 16 16 18 18 19 18 21 19 18 17 16 17 17 15 15 14 14 11 15 11 12 11 8 11 8 9 10 6 7 
23 21 19 15 19 16 21 15 18 19 20 16 19 19 21 23 20 22 22 20 23 22 19 22 22 18 16 21 20 20 16 15 16 19 18 17 18 17 19 15 15 16 17 17 16 17 13 15 16 16 14 16 17 19 19 17 15 21 16 12 18 17 17 16 15 15 13 12 12 12 10 12 9 11 3 10 10 8 6 5 
23 23 19 18 18 16 19 17 17 18 21 21 17 18 19 21 19 20 20 17 19 19 19 20 18 20 16 18 15 18 14 16 17 18 17 15 17 16 19 16 14 17 17 15 17 16 17 17 14 15 16 12 17 19 18 18 15 18 14 15 17 15 15 19 15 14 12 11 12 13 10 11 9 7 9 8 10 8 7 4 
23 23 17 15 21 17 17 14 19 16 18 17 17 15 18 16 19 18 19 20 22 17 20 19 22 19 19 15 20 18 16 15 14 17 21 19 13 14 14 15 15 14 15 14 15 15 15 17 15 16 16 18 18 19 17 20 19 15 14 17 15 15 16 15 13 16 12 12 9 10 13 9 12 11 6 13 9 8 5 6 
26 24 16 19 18 18 19 15 19 17 18 19 16 18 16 17 18 18 17 19 15 21 18 17 22 19 19 16 19 21 17 16 14 17 21 19 19 14 17 15 18 16 12 14 17 14 17 19 16 17 16 13 14 19 21 18 19 18 19 15 15 13 17 15 14 15 11 13 13 14 10 11 13 9 11 11 10 10 9 6 
22 20 15 21 27 20 16 16 20 20 20 18 19 18 19 18 19 15 17 20 17 21 19 17 19 20 19 19 22 17 17 17 12 17 19 21 15 16 17 13 19 14 13 13 14 13 17 18 16 19 15 16 18 21 20 23 19 23 16 16 15 14 17 16 14 15 10 13 10 13 11 15 10 9 5 7 8 9 8 7 
18 19 17 16 21 19 19 16 17 16 19 16 16 16 17 19 19 18 19 16 16 16 18 21 21 21 22 23 19 16 16 16 14 15 18 16 16 16 13 15 12 16 15 13 15 14 16 22 16 16 18 17 17 18 23 22 21 20 16 16 15 17 17 15 14 14 11 12 9 16 12 8 10 6 4 9 7 7 5 7 
15 19 17 12 17 14 17 18 19 18 20 18 16 19 18 17 18 20 19 16 18 17 14 21 18 21 18 20 17 15 15 14 14 18 16 18 16 16 14 14 16 19 15 13 15 15 14 17 16 19 19 17 15 17 16 21 16 17 13 16 17 18 14 13 13 12 10 10 11 13 14 12 11 11 8 7 5 8 6 4 
18 20 15 13 16 15 18 16 18 17 21 19 29 18 17 16 20 18 15 19 18 18 16 14 15 16 18 17 14 16 15 16 15 14 15 15 14 15 15 15 18 17 16 13 16 12 17 15 17 20 18 15 16 17 16 17 17 16 15 16 16 14 10 13 14 14 10 11 8 12 9 8 10 10 10 10 13 6 10 9 
17 18 15 17 18 15 19 17 18 19 21 20 21 19 20 15 19 18 17 18 20 17 18 16 14 17 17 17 18 16 15 15 15 19 15 15 16 15 15 15 16 17 16 13 15 17 16 18 17 18 18 12 17 14 17 16 17 18 15 15 17 15 17 14 14 14 7 10 10 17 11 9 12 9 9 7 10 11 9 5 
20 19 17 18 16 15 18 16 21 16 19 18 17 17 19 14 15 19 11 17 15 17 21 16 16 13 15 15 20 17 14 14 14 18 19 18 16 15 15 12 17 14 23 15 15 13 17 16 21 19 15 20 14 18 17 18 16 21 18 14 16 17 17 14 16 11 12 12 8 12 10 10 11 8 12 9 7 8 5 6 
21 18 19 16 17 13 15 14 18 15 18 17 15 15 18 18 14 14 17 18 20 16 20 16 16 13 18 18 18 15 15 13 14 14 13 17 23 14 14 15 16 18 17 16 16 15 17 22 19 18 16 17 16 18 12 17 15 21 16 15 15 16 13 17 13 14 12 11 13 11 9 9 6 9 9 3 8 9 7 1 


