P2
80 60
43
27 30 29 30 30 25 29 33 31 34 33 33 33 33 32 34 28 27 29 31 35 31 27 28 27 26 28 32 31 31 32 31 34 34 32 29 28 33 30 33 31 32 30 31 27 27 26 24 31 28 30 28 28 30 33 31 34 36 38 31 26 23 25 26 20 21 25 18 24 24 25 25 26 25 25 27 23 27 20 25 
30 30 33 30 31 30 30 33 28 34 33 35 29 33 32 34 31 28 26 29 33 31 28 28 29 29 28 29 30 31 33 31 33 30 33 31 30 31 33 32 29 31 30 30 27 27 24 27 27 26 29 28 28 30 33 35 32 33 31 29 26 23 26 22 22 21 20 22 23 20 22 25 24 27 24 26 24 20 22 20 
29 32 29 31 31 32 31 29 32 32 37 37 30 29 34 33 30 26 29 32 33 33 33 28 26 32 32 29 33 32 34 33 31 32 33 28 29 33 33 32 26 32 33 31 28 26 24 26 26 29 27 27 27 31 31 31 32 33 29 28 29 25 24 23 23 19 20 26 22 20 24 29 24 24 22 24 21 25 22 21 
32 31 27 32 33 31 31 32 29 35 43 35 32 31 31 32 32 29 30 28 32 32 31 28 28 30 27 34 33 34 31 36 36 30 33 31 29 35 32 33 33 31 31 33 31 31 30 30 29 29 27 26 27 28 32 28 32 35 29 30 26 23 23 25 22 25 23 24 24 24 27 26 22 22 23 27 21 25 26 26 
34 31 31 35 32 28 29 31 29 33 32 34 30 29 28 32 28 22 32 31 33 32 33 31 28 30 31 32 29 30 30 30 29 27 30 31 29 33 39 33 33 32 34 34 35 33 31 33 32 33 32 32 29 30 29 30 29 29 29 29 27 23 22 27 24 22 21 26 26 23 24 26 21 21 24 25 21 27 22 27 
33 30 32 35 33 30 29 33 32 29 34 32 29 34 28 32 29 36 30 34 34 33 33 30 30 29 28 33 30 29 31 31 31 26 30 28 32 33 31 32 31 36 37 35 33 34 36 36 30 33 33 33 37 33 32 34 29 31 30 32 32 25 22 24 20 20 23 24 27 24 24 26 27 21 23 23 20 26 21 22 
25 31 29 31 32 28 30 34 32 33 29 32 29 29 30 35 32 28 31 31 33 31 32 30 30 26 30 28 28 30 33 35 29 29 30 33 26 34 34 33 32 32 32 36 33 32 30 34 32 32 34 38 37 35 35 34 37 41 35 35 28 24 25 26 23 21 24 23 25 24 22 24 25 20 25 24 22 24 21 23 
34 35 36 32 34 33 28 35 31 31 32 32 31 31 31 38 30 27 31 32 33 31 29 30 29 28 29 30 30 31 30 30 29 28 34 34 30 30 32 30 33 32 33 35 28 30 35 32 30 32 35 36 34 34 33 37 36 34 32 34 33 26 28 27 26 23 25 27 27 25 20 23 21 23 22 23 19 23 21 21 
34 32 32 35 35 30 33 33 28 34 30 31 35 31 32 32 33 31 29 34 29 29 31 27 27 27 28 31 31 30 32 28 28 26 30 30 29 32 31 30 29 31 29 32 29 28 28 31 31 32 32 34 32 30 30 37 33 35 32 32 32 28 26 25 23 24 27 26 25 26 23 25 21 23 21 22 22 27 18 23 
39 35 29 35 33 32 34 35 32 32 31 33 32 29 29 34 33 28 31 33 30 30 30 27 29 26 29 28 30 33 27 27 29 28 29 30 31 31 30 32 31 31 30 34 31 29 24 32 31 34 34 32 31 30 34 34 32 35 33 32 26 26 28 23 24 26 25 26 27 23 22 29 25 25 23 24 20 25 18 19 
37 37 34 38 32 34 34 35 32 36 30 29 31 31 28 37 34 29 33 30 30 29 30 31 27 29 27 27 29 29 27 29 29 28 29 30 28 28 32 29 28 27 30 29 31 25 31 31 30 29 36 35 32 32 31 33 32 34 31 27 28 25 25 23 23 21 23 23 23 26 23 22 23 25 20 23 20 27 24 17 
36 37 36 36 37 35 37 31 31 33 29 31 30 28 30 32 28 28 27 25 26 27 30 31 27 27 26 29 29 30 32 31 32 29 30 27 26 32 34 29 30 30 28 32 30 31 30 30 27 33 34 36 32 34 34 33 32 31 28 27 24 30 26 25 22 23 23 23 25 22 19 21 20 24 24 25 20 21 22 16 
36 36 33 39 37 32 31 34 27 32 30 29 32 29 28 30 31 27 25 26 26 27 28 28 27 27 28 31 24 30 28 29 30 30 29 27 27 30 30 30 29 28 30 31 35 28 32 30 31 28 35 31 27 31 30 29 30 32 28 29 27 27 26 24 22 21 24 23 21 23 14 22 22 20 21 23 24 24 20 20 
36 35 36 37 35 32 28 30 29 31 30 31 31 27 29 33 29 26 25 27 30 27 28 26 27 27 26 29 28 31 33 26 28 32 29 27 26 33 30 29 28 31 31 31 29 30 28 30 28 34 30 31 28 30 30 35 33 32 29 29 28 27 25 21 21 22 23 22 23 22 23 20 22 15 20 23 17 26 25 19 
37 35 36 40 30 34 31 32 26 30 28 31 28 30 29 32 28 24 27 28 26 31 28 28 29 27 28 28 28 31 28 28 29 28 29 29 29 29 31 28 26 29 32 31 26 27 28 29 29 33 32 30 27 28 30 33 37 40 31 27 27 24 22 20 19 20 23 25 28 23 24 22 24 19 20 23 21 30 28 21 
37 37 39 37 36 28 28 33 32 29 29 30 31 29 28 36 29 24 26 27 26 31 29 27 28 27 27 29 29 27 31 29 28 29 29 30 28 31 31 29 29 31 27 30 28 29 29 29 29 31 30 28 28 34 30 32 33 33 28 31 28 23 25 23 24 28 23 31 23 23 27 23 22 24 19 19 24 27 25 19 
35 41 36 38 36 32 29 29 27 25 31 32 30 26 30 30 30 27 26 30 28 26 29 26 27 23 23 31 30 29 27 28 30 31 26 30 26 27 29 32 30 29 30 27 26 35 29 28 28 31 30 31 30 30 29 35 35 32 31 29 27 28 23 21 22 19 23 28 23 22 25 27 24 22 21 23 19 25 23 17 
33 36 35 37 32 30 27 27 27 29 26 28 26 29 29 28 28 26 27 28 28 27 27 28 25 25 27 28 31 27 29 28 29 27 26 31 27 27 32 28 28 27 32 32 27 30 28 27 29 28 25 29 30 31 34 33 32 37 32 30 27 20 23 21 21 23 21 23 25 23 21 22 26 19 21 23 20 24 24 20 
36 36 31 38 34 32 31 28 26 28 31 29 29 29 27 33 28 28 29 26 29 28 27 27 26 32 29 28 30 30 28 27 32 29 31 28 28 28 31 27 26 31 30 32 27 27 28 27 26 27 26 33 32 28 31 31 32 31 27 27 25 21 21 22 21 23 21 28 26 22 23 21 19 20 21 22 21 24 18 23 
36 34 31 32 33 39 29 26 29 30 31 32 33 26 28 31 31 25 28 27 32 29 31 25 28 26 29 30 29 30 30 26 24 28 30 28 28 33 28 29 30 26 27 31 29 26 26 30 30 29 28 29 26 26 25 34 28 27 27 25 25 22 23 21 21 22 22 28 27 23 22 27 22 20 19 21 19 19 19 20 
31 37 33 33 31 31 33 28 26 30 32 31 27 29 28 30 27 24 23 25 30 30 29 25 26 25 26 28 27 30 40 31 26 26 26 27 28 29 28 30 29 34 32 30 28 26 24 27 26 29 25 28 23 28 29 28 29 27 25 26 25 24 24 20 23 21 21 25 24 23 26 23 21 21 21 17 17 22 19 20 
33 34 32 34 32 32 33 30 27 29 30 28 33 28 30 31 26 25 25 25 26 27 30 25 23 23 25 27 28 29 30 28 29 27 25 25 28 28 27 29 27 28 28 27 24 24 23 25 24 27 25 29 25 33 27 26 26 29 27 26 24 19 18 23 22 24 20 23 24 24 28 20 22 22 19 21 16 21 20 19 
34 34 32 34 33 28 29 31 29 31 28 28 30 30 28 31 28 26 29 25 27 27 26 26 25 19 24 27 25 24 26 27 25 26 25 27 24 26 28 30 27 27 29 31 35 22 25 22 28 27 26 22 25 28 31 28 25 25 26 27 24 22 22 23 23 23 23 23 25 22 21 25 22 20 17 21 12 20 19 17 
34 36 33 34 34 28 31 36 30 30 29 33 29 31 27 31 27 25 28 29 28 29 27 23 23 27 23 25 25 26 24 28 27 26 27 26 24 25 27 27 28 28 29 28 26 27 25 24 25 29 31 25 24 27 27 29 28 27 24 24 26 22 23 26 22 21 23 25 24 25 23 25 21 20 19 17 16 24 21 21 
33 38 36 32 32 30 31 34 31 32 27 32 31 29 27 28 31 27 27 26 28 29 28 25 27 27 23 27 27 26 25 24 24 24 25 24 22 28 27 28 25 23 28 27 30 25 26 29 28 28 25 23 24 26 26 26 25 24 27 27 20 21 24 23 20 24 24 23 25 23 20 22 22 23 20 21 17 22 22 22 
35 35 31 29 31 29 31 32 27 31 31 28 27 28 31 32 27 23 23 25 29 24 27 29 28 29 25 29 26 26 24 22 24 25 24 24 22 26 27 26 24 25 27 29 27 28 23 28 25 21 22 24 22 27 23 24 26 24 26 27 22 16 20 22 29 22 24 21 23 24 22 20 22 22 20 19 19 23 16 22 
30 33 31 34 30 30 28 32 27 30 30 30 30 28 26 28 27 27 25 27 25 27 30 28 26 26 24 26 26 27 27 23 27 24 27 23 24 25 26 25 20 28 26 27 24 24 26 25 25 22 22 23 24 22 24 26 26 22 22 23 26 18 18 18 18 18 20 23 22 20 21 21 21 24 20 18 19 20 22 18 
32 34 33 35 32 30 30 32 28 34 28 29 27 27 26 30 25 25 26 27 25 27 27 25 22 22 26 27 28 26 28 26 25 22 19 25 23 27 28 25 25 27 29 30 26 27 25 24 25 25 22 26 25 24 26 25 28 23 18 25 25 19 21 21 23 21 16 24 26 19 23 23 22 19 22 18 17 21 21 16 
32 36 30 29 34 29 30 31 31 33 30 33 28 29 28 29 25 23 24 27 27 28 27 26 23 28 26 27 26 28 26 23 23 23 18 27 25 27 27 23 24 27 26 27 26 26 26 25 26 24 23 24 23 23 24 26 24 21 22 22 26 20 16 26 22 21 18 22 20 20 23 20 21 19 19 18 18 23 17 19 
32 33 33 32 33 28 29 29 32 30 26 27 31 28 25 29 28 26 25 26 26 27 27 25 21 25 23 27 24 27 25 21 24 21 24 25 26 25 23 21 23 27 25 29 22 26 23 26 26 25 25 24 23 21 24 29 23 24 20 22 23 20 19 22 20 23 26 24 22 19 18 21 24 19 18 19 18 18 16 15 
32 37 36 35 31 30 34 29 27 33 23 27 25 30 25 31 25 24 26 26 25 25 30 29 26 25 25 23 29 25 25 21 21 25 29 25 24 25 26 23 26 28 31 29 24 22 22 22 25 23 26 22 22 24 24 24 27 21 20 22 23 22 20 21 22 19 19 21 22 19 22 26 21 19 19 17 17 17 19 14 
30 31 33 32 29 30 29 28 27 27 27 28 29 28 30 35 30 27 29 28 24 26 25 29 25 24 30 28 26 25 26 21 22 23 25 25 24 25 25 27 26 30 29 29 25 21 23 27 23 27 19 21 20 23 25 25 21 23 21 23 17 16 19 21 20 21 18 20 25 22 22 21 20 16 16 21 17 20 19 15 
30 31 31 34 32 29 26 32 27 26 27 28 28 29 25 30 23 25 24 22 25 26 25 26 23 22 25 27 27 22 26 24 25 24 20 25 23 25 24 25 25 28 26 24 25 22 23 23 23 21 22 24 17 20 22 25 22 23 21 20 21 18 17 22 19 19 20 18 25 20 18 20 20 19 18 22 20 21 13 18 
36 32 33 35 33 35 26 30 32 28 31 32 27 28 27 26 29 25 26 27 25 26 25 28 25 24 21 25 24 27 27 23 25 23 26 25 23 25 25 26 26 26 29 28 26 23 24 25 22 21 21 23 24 23 19 24 25 23 20 22 19 21 19 21 23 20 19 24 22 23 20 21 19 16 20 20 17 25 18 15 
33 30 31 31 31 28 29 28 27 28 28 31 30 28 28 29 32 22 24 29 27 27 27 26 28 27 25 29 27 28 29 24 27 25 22 24 23 24 27 20 25 25 27 27 26 28 24 24 21 19 19 22 27 21 25 23 23 26 23 20 19 18 18 19 20 19 22 21 20 18 18 22 21 16 18 18 19 21 18 15 
36 34 33 33 34 32 27 27 26 29 29 26 28 31 29 31 28 26 26 26 26 28 26 27 24 26 24 27 28 27 27 26 27 24 23 23 26 26 25 24 25 25 27 27 27 23 24 30 24 21 23 26 20 24 22 26 25 25 20 22 21 21 21 18 17 15 16 23 20 21 21 19 18 21 22 19 17 22 17 14 
32 33 36 32 30 29 28 25 25 29 28 30 29 26 27 28 27 26 26 25 27 27 26 27 24 20 20 24 26 28 26 24 23 24 24 22 23 25 24 23 23 27 26 26 27 23 23 25 22 21 21 22 22 22 19 24 21 21 20 15 22 19 17 21 21 18 18 20 19 18 18 17 20 17 16 18 17 18 16 14 
35 35 32 34 30 28 28 29 27 28 26 27 30 27 25 27 28 32 26 24 26 27 26 26 21 20 19 23 25 24 26 23 26 23 22 22 20 26 27 24 22 25 26 27 27 26 26 23 22 21 22 20 20 25 20 27 22 22 19 22 20 17 17 18 18 23 20 20 21 19 21 16 17 15 18 19 15 18 16 14 
35 37 34 34 34 31 31 31 30 28 29 29 30 22 26 30 26 28 26 27 27 27 27 22 25 25 23 24 22 25 27 24 24 24 23 23 21 26 26 27 25 26 27 24 24 24 23 26 22 22 23 22 22 25 24 23 21 22 18 21 18 17 16 15 18 19 20 23 21 21 20 18 18 16 13 17 20 21 19 16 
30 36 33 31 31 26 28 32 29 29 31 27 28 27 26 32 26 23 26 26 26 25 26 27 29 26 25 26 21 23 25 24 27 22 26 24 24 26 27 25 26 25 27 27 23 24 29 30 22 22 23 23 23 25 23 20 20 20 15 19 19 15 17 16 15 13 16 18 23 19 17 17 16 18 15 22 19 19 21 19 
34 33 32 31 28 25 28 26 26 28 28 29 27 30 26 33 26 22 24 25 24 28 26 24 28 23 27 25 22 22 25 22 25 25 24 26 22 25 23 24 23 22 26 26 24 23 27 28 24 21 23 27 23 25 20 20 19 22 18 17 16 17 14 17 13 14 12 17 13 18 12 18 18 18 18 23 15 25 29 21 
34 34 31 33 29 27 27 29 25 26 29 28 32 28 24 28 27 24 29 25 26 28 27 27 30 24 22 26 25 25 26 22 22 23 26 22 26 26 24 23 25 26 24 26 24 25 25 28 25 24 25 25 21 24 21 25 23 20 16 18 19 17 15 17 16 16 15 18 14 16 12 19 18 15 17 19 17 22 23 16 
31 34 35 31 29 25 28 25 26 24 28 29 28 26 28 29 27 25 23 26 27 27 29 25 29 25 22 27 22 26 27 22 22 26 23 28 23 25 25 24 25 25 24 28 24 23 25 30 24 22 22 22 23 22 24 19 23 19 17 15 18 18 17 20 17 16 15 18 16 15 13 17 19 16 16 17 15 20 21 12 
30 29 34 30 30 28 31 26 21 27 31 30 27 28 30 29 25 25 26 29 26 27 24 27 27 28 25 22 24 24 27 23 25 25 24 23 24 27 25 25 24 26 27 28 23 24 30 32 22 22 19 21 19 24 20 20 22 22 18 18 17 16 16 17 14 17 18 18 19 17 20 14 15 14 18 17 17 20 22 14 
32 30 34 28 27 25 27 29 25 26 28 29 29 30 32 28 26 24 22 28 27 27 24 26 26 25 23 24 23 23 26 21 25 21 21 23 22 24 24 21 26 23 25 26 24 21 29 26 22 18 20 19 18 20 19 18 19 21 15 19 19 18 16 15 13 19 17 20 19 17 16 15 13 14 15 19 13 18 18 12 
32 33 26 33 29 23 25 26 27 28 27 27 25 29 26 30 30 25 22 24 28 26 28 26 22 21 20 22 21 24 25 22 24 23 21 24 22 22 25 24 20 25 23 23 24 24 25 26 21 19 20 20 17 20 18 19 15 18 15 16 15 17 14 18 18 18 14 16 17 16 14 15 14 16 15 16 13 18 14 14 
29 32 24 28 28 24 25 25 22 25 27 28 26 25 27 32 28 27 24 27 24 23 28 22 25 23 21 20 21 21 24 20 23 23 22 22 18 23 23 22 23 22 22 24 27 24 23 27 21 19 19 20 18 19 19 18 17 18 12 14 16 13 17 16 12 14 16 18 18 14 15 14 13 13 12 15 13 15 12 15 
33 32 26 29 26 27 29 28 27 29 25 29 27 30 31 35 26 26 26 25 28 28 25 21 23 22 20 23 24 25 25 21 22 22 23 23 21 23 23 20 19 23 25 26 25 27 26 24 21 19 19 18 21 18 18 18 19 19 16 16 19 16 15 18 12 13 17 18 12 17 15 18 15 13 12 14 12 18 15 11 
30 29 26 26 25 28 27 27 24 28 26 27 28 30 30 32 29 25 24 30 23 27 31 27 24 22 21 22 23 25 20 24 21 21 21 22 22 25 22 23 17 21 23 23 23 23 23 18 17 18 17 18 18 18 18 18 17 19 19 17 18 16 15 16 12 13 13 19 16 15 12 16 13 9 11 15 12 17 11 10 
29 33 29 27 26 27 27 29 26 30 27 30 30 30 28 33 28 26 26 28 26 24 26 28 24 22 20 22 23 22 23 21 22 21 22 19 22 24 23 22 24 22 21 25 25 19 22 22 18 18 20 16 17 21 21 19 17 19 16 17 16 16 14 13 14 13 14 12 17 16 14 14 11 9 10 15 13 15 13 12 
32 33 24 29 29 23 26 26 25 28 27 27 25 28 28 31 30 25 26 23 24 26 26 23 23 20 22 24 22 23 22 21 24 23 21 18 23 23 24 22 20 21 21 25 24 21 21 20 15 15 14 19 17 22 20 20 20 17 18 18 15 13 12 12 11 13 13 11 13 13 12 13 9 6 13 13 10 16 12 8 
32 30 28 26 34 31 23 25 26 25 27 27 25 21 29 26 25 27 23 26 28 22 24 26 22 22 23 22 23 24 23 21 20 23 25 22 22 20 26 18 17 20 22 25 23 22 18 20 19 16 17 16 19 20 16 20 16 20 17 19 13 12 15 14 12 11 8 13 9 13 14 12 11 6 11 13 9 16 11 8 
33 31 29 29 28 27 25 25 24 29 24 26 26 25 22 25 27 22 25 24 22 27 22 23 27 22 21 21 21 24 23 20 21 19 23 23 19 17 23 17 26 21 17 22 22 23 22 22 18 13 18 15 18 19 19 18 18 20 19 12 15 11 12 11 11 9 12 10 10 11 10 8 8 8 12 8 10 9 6 5 
32 32 27 30 34 33 24 28 26 25 26 25 28 27 24 26 26 22 21 20 22 26 21 25 24 24 23 23 20 22 20 20 18 17 18 20 21 20 20 20 16 19 20 20 23 23 22 21 15 18 14 18 17 19 18 22 22 19 17 13 11 12 10 10 8 9 8 10 10 10 13 11 9 9 7 7 4 12 11 4 
30 29 25 27 29 28 29 28 24 23 30 31 27 24 25 28 25 26 26 24 22 21 22 22 23 24 26 23 18 19 23 20 19 17 18 17 18 20 18 17 22 18 20 21 21 20 20 22 14 12 19 17 16 19 19 18 19 16 16 13 15 14 11 8 10 9 8 10 7 14 11 15 8 9 10 8 9 12 7 9 
28 30 25 28 28 24 29 27 24 27 28 30 28 28 26 27 24 20 23 21 22 23 21 24 23 23 20 24 18 18 23 19 16 19 17 18 20 20 20 18 17 20 21 26 24 23 18 18 14 16 18 17 16 21 21 20 17 17 13 16 13 12 11 12 10 7 4 8 12 10 14 16 9 10 5 9 0 6 7 3 
26 29 25 27 27 24 22 27 23 29 29 31 35 28 28 29 24 24 22 29 29 22 23 21 21 20 19 21 19 19 20 16 17 18 18 18 18 21 19 18 19 18 20 25 25 20 21 16 15 10 16 15 16 17 18 19 17 16 15 11 12 8 9 9 7 6 5 7 7 9 9 11 9 4 8 9 5 10 8 4 
32 25 24 26 27 22 25 27 23 27 24 31 29 29 26 26 23 24 20 23 26 24 27 19 17 19 20 20 17 20 19 19 17 18 17 15 19 20 19 18 18 20 22 21 23 21 20 15 14 9 11 14 14 18 18 19 16 14 14 14 14 7 11 10 8 9 7 6 9 10 9 4 5 7 7 5 6 11 3 8 
23 25 19 27 28 21 27 25 28 26 26 28 25 27 24 26 23 23 23 24 25 24 24 20 19 19 16 19 23 20 19 19 19 19 17 18 17 20 21 16 17 21 23 22 23 17 18 16 12 11 11 14 13 16 19 19 17 15 13 11 13 9 7 6 10 9 4 8 9 6 6 8 10 6 7 8 5 11 9 2 
25 26 22 26 25 24 23 24 24 27 27 28 26 27 24 28 28 23 22 22 25 26 22 21 19 20 19 21 23 20 17 18 19 18 21 19 20 17 19 16 19 23 20 27 19 16 14 12 14 14 11 13 14 16 14 17 16 15 13 17 13 8 9 8 7 5 4 6 7 4 8 7 4 6 4 10 5 8 4 3 


