P2
80 60
259
46 47 45 32 31 30 49 47 44 45 47 31 45 50 59 63 58 66 64 61 65 68 63 61 61 65 66 65 66 66 63 63 64 66 65 66 62 67 63 63 63 65 65 63 64 64 58 58 62 58 60 57 55 59 62 65 71 70 73 70 69 69 71 70 65 72 67 63 63 68 71 68 68 69 67 68 73 68 62 61 
53 55 47 38 35 32 47 50 45 47 42 40 42 51 57 61 60 64 59 62 65 63 63 62 60 63 72 68 66 64 64 65 64 66 64 65 62 62 63 62 62 62 65 66 65 66 62 63 59 55 58 56 54 60 61 66 69 70 69 69 71 71 70 69 65 69 67 61 64 71 73 68 67 70 68 68 72 69 63 66 
47 51 43 37 32 37 48 48 48 45 46 37 43 57 55 59 58 64 62 63 68 65 65 62 61 66 70 67 65 66 62 67 65 65 62 67 66 63 64 64 64 64 63 64 60 64 59 62 60 57 57 58 55 60 61 65 66 65 70 74 70 69 69 68 67 70 66 65 71 72 71 69 69 71 70 68 70 72 65 66 
50 51 44 38 32 37 50 49 48 49 43 38 47 58 59 65 57 65 63 65 65 68 66 63 64 63 72 69 63 64 64 65 70 62 70 67 69 69 65 64 64 64 67 61 64 65 63 62 62 58 60 56 58 61 64 65 69 68 70 70 73 71 70 67 67 67 67 65 66 67 70 73 70 71 67 67 73 75 72 63 
53 52 40 37 35 45 51 53 50 52 43 41 52 61 64 65 59 64 63 66 65 68 68 66 65 70 71 66 67 62 61 62 66 64 64 70 64 68 70 62 63 64 67 63 64 64 62 64 60 59 61 59 58 64 64 65 66 68 72 74 73 71 73 73 70 69 68 69 68 69 70 71 69 72 68 71 72 76 66 69 
51 49 40 35 33 51 54 49 51 48 42 42 44 63 65 69 62 67 63 67 62 68 72 68 65 68 69 66 66 62 62 60 61 62 67 65 68 63 69 63 63 64 67 66 65 64 67 62 65 61 62 60 58 64 64 67 67 70 74 71 72 72 73 71 71 71 70 71 73 68 72 69 67 69 70 67 72 71 72 64 
50 46 38 35 31 47 48 50 47 46 44 47 48 61 64 68 66 66 65 70 69 67 69 67 67 67 71 68 66 62 63 63 62 64 64 63 66 66 66 62 64 63 64 63 62 65 64 65 62 57 57 61 61 63 62 64 70 76 78 71 72 73 71 69 70 73 69 70 72 70 68 70 69 68 71 71 74 71 63 67 
54 51 44 36 35 55 51 50 49 49 42 43 50 59 59 64 63 67 62 68 71 67 67 67 65 70 71 68 67 64 64 64 60 62 62 68 64 65 66 64 60 61 64 65 66 64 61 63 61 62 65 62 59 60 64 72 70 71 74 69 71 73 70 70 68 71 69 67 68 67 69 72 69 66 66 64 70 69 65 70 
54 49 42 34 29 48 51 50 47 53 47 42 52 53 58 65 60 67 66 67 68 65 66 66 68 68 70 67 67 64 63 62 62 63 66 67 65 64 66 62 63 62 62 62 64 65 63 60 61 57 64 60 57 65 63 67 69 70 73 72 68 73 74 70 69 71 72 67 68 70 69 70 70 67 66 60 72 71 69 69 
53 51 42 37 35 51 53 50 52 51 46 42 52 58 61 67 67 65 62 65 63 65 67 65 64 68 70 69 65 63 62 63 63 62 64 65 65 62 62 63 61 61 63 60 63 62 58 58 59 61 60 59 58 60 61 64 68 63 70 70 69 72 70 69 70 70 71 65 70 65 66 70 66 67 63 67 72 68 64 64 
52 52 45 34 35 57 55 51 50 50 45 43 46 57 63 64 60 63 63 64 64 65 65 66 65 69 71 66 64 65 65 62 64 62 67 66 64 63 67 62 60 59 65 57 61 65 59 60 59 59 60 57 57 62 62 68 71 67 73 71 70 71 71 69 65 68 70 69 65 70 67 70 66 66 65 69 71 67 66 69 
52 47 45 34 38 52 55 51 53 51 43 43 45 55 58 62 58 62 61 67 63 65 67 67 65 69 70 69 65 65 66 62 64 65 66 63 64 58 67 62 65 61 65 65 64 63 64 60 60 56 60 58 58 60 64 65 68 69 71 71 70 73 75 69 69 71 70 66 69 66 66 67 68 72 65 72 76 69 62 65 
56 46 39 41 38 48 48 50 50 47 42 42 47 57 60 63 59 63 63 66 65 65 66 68 67 68 70 69 64 66 65 66 64 66 62 61 62 60 62 60 62 63 63 60 68 63 64 63 61 58 58 58 55 58 63 66 70 72 75 71 71 73 75 72 68 72 68 65 67 70 62 69 70 70 71 72 72 74 65 66 
50 47 41 35 39 51 48 47 49 46 41 43 47 57 59 64 59 62 62 64 66 64 65 67 66 68 66 64 63 64 63 63 67 66 66 59 64 61 64 61 63 61 64 69 63 65 65 65 63 60 62 55 57 61 61 65 69 72 75 71 71 74 73 69 70 74 68 65 66 68 69 66 69 68 68 70 72 75 66 69 
45 50 43 32 41 50 45 52 49 45 37 40 46 53 60 58 60 60 64 63 62 61 64 66 62 64 69 64 63 60 63 62 61 63 65 62 61 59 63 63 62 63 66 64 62 66 62 61 61 60 65 58 57 60 64 67 72 84 75 71 71 71 73 69 71 71 72 68 68 68 67 71 68 71 69 65 71 74 64 68 
49 48 41 34 40 46 48 50 50 45 33 39 46 54 59 61 59 62 61 65 61 65 62 64 61 65 67 64 63 61 61 65 61 60 65 62 64 62 62 64 63 64 63 62 61 62 61 59 60 56 59 58 58 61 64 66 72 75 75 71 73 70 71 68 68 72 69 73 67 67 69 74 70 71 66 69 74 75 66 65 
50 51 42 30 37 51 50 53 47 45 39 36 46 57 59 67 60 63 63 64 63 61 65 64 63 65 70 66 64 64 63 64 66 66 66 64 64 61 64 65 62 63 65 62 61 66 62 60 57 54 60 59 60 66 64 66 72 74 73 72 72 70 71 70 69 68 71 70 68 69 68 76 77 71 64 67 70 71 69 65 
50 46 37 33 39 46 49 46 48 45 39 37 43 59 61 62 61 61 63 66 62 65 62 65 62 69 68 65 62 62 61 64 64 67 64 63 64 60 65 63 64 60 60 58 63 65 62 57 57 57 61 57 55 64 67 65 69 74 74 73 72 70 71 71 68 72 69 69 71 69 71 73 72 73 68 67 72 71 64 64 
48 44 34 35 36 50 51 49 48 42 39 40 49 60 60 64 62 65 65 64 63 64 70 67 67 69 67 64 66 63 62 65 67 68 64 66 66 64 67 67 62 63 62 64 62 62 60 57 57 55 58 55 62 65 66 68 72 73 74 74 73 72 73 72 70 74 71 72 74 70 69 75 71 69 68 68 71 74 68 69 
48 51 34 34 44 51 48 48 47 43 36 39 53 56 62 65 60 63 64 64 61 66 72 71 65 68 71 66 64 68 67 64 65 62 64 63 65 63 66 65 64 61 62 59 60 62 57 58 55 57 58 59 60 65 67 68 69 69 73 72 71 71 75 69 71 69 71 72 71 72 72 70 73 69 66 66 70 73 68 67 
47 43 33 30 43 49 47 47 46 43 37 39 53 59 62 62 61 64 58 62 64 65 68 70 67 66 68 66 63 63 66 64 63 63 65 65 63 63 65 62 62 66 61 60 62 60 58 61 56 59 60 59 61 68 68 68 70 69 75 74 72 71 75 70 72 71 69 71 71 74 73 72 71 73 67 66 73 72 68 69 
45 42 31 28 45 49 50 49 45 41 36 37 52 58 59 65 63 65 61 60 63 65 68 69 64 68 68 64 65 64 65 63 64 64 64 64 63 63 64 62 63 65 64 60 57 59 56 60 56 55 60 59 60 60 66 66 71 70 78 73 72 72 75 69 71 71 72 70 70 77 77 72 72 71 67 66 71 71 69 71 
42 41 28 30 45 47 50 49 44 39 38 38 49 56 61 59 64 63 62 61 63 64 65 63 66 67 71 69 64 62 63 62 63 63 62 66 63 62 64 64 63 61 62 61 64 59 57 60 56 58 58 61 62 63 66 66 67 69 73 75 76 71 74 70 71 79 71 71 70 71 70 73 73 71 68 70 73 69 69 68 
45 36 28 28 43 48 44 51 45 43 32 39 53 57 61 63 61 66 64 62 65 63 63 64 61 69 70 70 62 63 62 65 64 65 65 63 61 60 61 57 59 58 59 62 57 62 57 59 57 59 60 59 60 60 63 66 70 69 72 71 74 71 71 73 75 74 75 70 73 73 71 73 73 72 69 67 76 74 69 71 
42 43 32 26 38 44 44 46 47 38 36 38 46 58 64 61 63 66 63 65 67 67 71 67 65 68 68 69 63 63 62 62 63 64 65 61 64 61 62 62 63 60 62 62 63 55 58 58 57 59 55 60 60 62 67 66 72 71 72 74 73 76 75 70 74 77 75 74 74 73 72 75 73 76 72 70 74 75 72 73 
45 36 32 23 37 43 42 45 40 37 34 40 50 56 63 64 60 66 60 68 64 64 68 70 68 69 69 68 64 62 63 63 65 63 61 63 63 61 63 62 60 61 60 62 64 62 64 61 59 56 56 58 61 66 61 68 69 71 75 74 73 73 75 71 73 77 75 74 70 72 74 72 72 73 75 71 75 77 72 69 
43 38 25 23 40 43 44 42 42 33 32 40 53 53 65 61 61 65 61 67 64 66 72 67 65 68 72 68 66 63 63 63 63 65 65 63 61 61 60 61 62 62 62 59 62 63 59 60 57 53 60 59 60 65 62 67 69 69 71 75 73 74 74 71 74 76 76 76 75 72 72 74 73 72 71 70 77 73 72 71 
44 34 26 25 37 46 43 43 37 34 32 35 45 60 61 61 61 65 62 65 67 67 70 70 69 71 71 70 64 66 63 63 64 63 63 62 62 62 62 64 60 60 63 61 60 61 58 55 58 56 58 59 60 63 67 67 71 70 74 72 78 73 77 71 73 78 78 75 75 79 74 74 73 77 69 71 74 77 68 71 
43 34 26 20 31 38 40 42 37 27 29 30 45 53 59 58 59 62 60 66 63 64 68 68 68 69 69 71 66 65 63 63 64 65 62 58 61 61 66 65 59 60 62 61 60 60 60 57 56 58 59 59 59 63 64 65 72 69 74 74 75 74 74 75 73 78 74 74 75 74 76 72 71 68 75 72 77 74 68 71 
45 37 26 20 30 37 41 43 39 30 30 28 39 52 59 57 59 64 62 67 64 66 68 66 67 65 71 69 65 64 65 64 62 61 65 65 61 63 64 62 61 60 61 60 62 59 59 57 57 60 69 71 66 67 67 65 70 71 77 72 76 75 76 74 73 77 80 76 73 74 75 75 74 77 72 74 74 74 67 70 
41 34 25 20 27 40 40 35 33 25 25 31 42 52 61 62 59 63 61 66 63 67 66 67 68 69 72 67 67 64 66 62 62 65 65 63 65 62 63 65 62 64 63 65 62 64 62 64 64 65 68 72 67 70 70 69 70 73 75 76 77 75 73 73 73 79 75 79 73 76 75 75 77 78 70 71 77 76 72 69 
36 39 26 20 30 34 40 34 30 22 24 30 41 59 60 63 60 61 60 63 65 67 69 70 71 74 74 73 70 67 66 67 68 65 63 64 63 60 62 63 65 65 64 64 66 67 65 67 64 69 70 73 74 72 69 71 75 72 77 74 77 78 82 75 76 79 75 78 75 77 78 76 77 77 74 70 76 77 71 70 
39 35 30 21 29 39 36 34 27 22 23 31 35 52 57 61 61 62 62 66 64 70 67 73 73 74 75 71 69 66 68 67 61 62 67 65 63 63 65 64 64 66 73 70 74 70 68 69 69 96 96 90 80 74 74 76 77 73 76 76 81 79 78 80 78 78 78 80 82 80 81 76 76 76 75 76 79 79 71 67 
37 33 34 20 34 32 35 32 28 21 19 31 36 48 56 58 58 62 64 67 65 69 71 74 72 73 74 76 67 71 76 70 69 64 65 64 63 65 68 66 70 69 70 68 69 70 66 71 67 113 114 113 112 105 94 84 83 77 84 81 79 84 81 79 82 83 82 80 82 80 81 81 78 77 76 76 79 79 76 75 
32 31 24 15 28 36 34 28 23 17 20 27 33 44 57 55 58 63 60 65 67 66 73 76 73 85 87 81 74 82 69 67 71 65 66 65 69 68 73 70 66 68 70 72 71 70 64 60 72 118 118 122 121 122 125 120 118 108 96 93 83 83 80 78 85 84 86 85 83 84 84 80 78 84 76 75 80 80 73 70 
35 30 22 20 27 30 28 29 24 15 18 23 30 45 56 56 58 65 62 68 59 68 72 79 105 139 149 145 99 79 67 69 72 71 71 71 71 68 68 71 69 73 69 65 67 62 64 64 85 119 121 124 124 125 124 130 133 131 133 128 109 104 91 89 87 85 83 83 82 84 83 83 80 85 78 78 82 83 76 73 
29 33 23 16 23 22 28 24 18 13 16 24 26 45 55 56 56 65 64 66 64 68 72 84 123 156 163 160 130 78 65 74 81 77 74 68 69 71 71 68 70 66 66 60 63 62 62 64 93 128 124 124 124 129 133 135 137 136 143 142 139 130 128 122 110 103 94 88 91 87 85 85 83 84 81 81 84 83 76 78 
26 28 26 14 18 25 27 19 24 12 12 22 30 42 52 52 56 65 60 64 67 64 75 82 126 162 186 173 136 76 76 77 88 78 72 73 71 71 66 64 64 64 65 62 63 63 60 61 96 126 125 127 127 134 132 139 144 141 145 142 139 138 134 138 135 139 127 116 109 95 91 85 83 86 84 82 82 83 79 82 
46 41 43 33 38 29 25 24 19 14 13 19 24 42 48 55 54 63 57 65 63 68 69 78 128 191 206 196 143 88 86 90 84 78 72 66 68 65 67 66 65 64 64 63 61 63 60 62 109 127 129 130 131 133 135 138 145 144 145 145 140 139 142 139 142 140 141 135 135 133 119 105 97 92 86 87 87 89 83 84 
72 76 82 75 67 54 26 20 17 9 13 13 25 42 48 53 51 59 60 61 68 67 70 81 113 177 196 172 147 85 74 73 69 67 67 65 66 67 64 63 58 62 62 62 63 62 65 72 124 129 129 130 133 134 143 142 145 144 148 145 146 145 142 144 144 146 145 138 141 142 137 137 128 119 108 99 97 94 85 92 
78 86 83 79 77 70 34 22 15 10 8 17 20 42 48 55 52 59 61 64 62 66 69 79 103 144 154 148 138 88 69 68 69 65 67 65 66 60 64 64 59 62 63 60 63 63 63 75 128 131 129 134 134 142 141 144 146 148 149 149 147 145 145 144 146 148 143 141 148 143 142 143 146 141 129 127 125 114 101 90 
84 87 89 82 85 74 41 18 19 5 4 13 26 40 49 52 53 58 60 64 62 66 70 83 104 130 141 138 125 122 92 74 67 68 63 68 66 63 62 61 63 60 67 62 64 64 65 84 138 131 130 134 136 140 143 145 149 151 153 155 151 152 150 152 151 154 146 147 147 150 145 143 143 142 138 138 139 127 114 114 
88 88 92 86 85 81 53 22 15 9 9 12 23 38 46 52 53 56 59 62 62 70 70 98 115 113 125 121 117 118 113 99 75 67 70 66 66 63 65 61 60 63 65 65 65 62 68 95 141 135 133 133 134 139 145 145 150 148 149 155 151 156 154 156 156 153 150 146 150 150 149 145 142 144 141 142 141 127 123 119 
89 91 86 85 86 82 70 22 10 4 3 14 18 35 48 54 50 55 54 61 60 69 77 106 103 111 114 117 117 109 111 106 86 66 63 61 65 63 63 63 63 70 69 68 67 67 72 118 142 141 136 137 134 140 144 144 148 150 151 153 155 155 158 157 160 160 156 152 153 155 150 148 145 144 142 144 147 130 121 123 
92 88 91 88 89 84 77 49 9 0 1 9 16 38 47 55 51 58 54 59 64 64 86 98 96 103 106 112 104 104 109 107 97 70 64 64 63 60 62 65 68 70 72 70 70 72 78 128 145 137 136 138 136 143 143 147 153 154 152 153 154 159 158 158 160 162 161 156 158 153 154 152 150 147 142 145 145 129 122 124 
93 92 89 87 90 86 82 67 20 4 4 10 20 35 49 53 58 55 56 62 61 68 83 91 92 101 104 106 104 101 104 110 100 74 64 65 63 59 63 70 71 72 73 71 76 81 81 137 147 142 139 139 141 144 146 150 152 155 159 156 160 160 159 165 166 168 164 163 159 154 160 154 151 150 146 150 141 129 124 122 
93 95 87 85 87 87 83 71 38 7 3 12 22 38 45 57 52 56 58 60 64 72 83 86 87 96 100 103 101 99 95 92 73 66 64 61 60 59 66 66 72 74 76 73 77 81 87 152 145 141 139 144 144 147 153 147 155 157 158 160 161 160 164 161 165 167 167 162 164 157 157 154 154 150 152 150 139 130 124 125 
89 94 88 86 88 88 86 81 58 13 7 6 22 34 44 53 54 58 56 63 63 70 78 79 82 90 94 87 85 83 70 64 66 66 64 62 62 59 66 67 66 74 73 76 79 83 98 161 153 144 142 147 148 152 153 156 156 154 157 160 160 160 162 169 166 166 164 163 161 158 159 154 153 156 155 152 138 130 124 126 
92 92 89 87 91 87 86 81 73 40 8 13 22 37 43 51 49 55 58 62 69 70 78 76 72 76 75 71 71 67 62 65 63 64 62 61 62 63 66 69 69 69 71 71 80 84 107 175 159 153 155 154 151 158 154 161 161 157 159 159 160 167 171 170 172 169 169 164 159 160 159 162 155 157 155 157 135 129 122 124 
94 93 90 86 90 88 87 83 79 65 25 16 19 33 46 54 48 61 60 63 61 64 69 68 69 70 72 69 65 61 63 64 65 65 64 63 64 61 64 64 67 65 69 71 75 81 108 173 179 172 171 163 159 163 165 161 161 159 159 163 164 164 168 169 169 174 168 170 167 160 162 161 159 161 158 152 136 133 124 121 
92 95 92 91 90 88 86 85 77 72 55 23 21 25 43 55 50 60 58 63 62 63 69 65 67 67 75 66 64 61 61 62 65 62 66 66 64 64 66 66 64 63 63 66 74 78 90 128 159 191 192 188 176 170 167 167 165 161 165 162 166 166 167 170 173 172 175 171 168 164 164 164 164 168 166 154 136 134 127 123 
93 95 93 88 93 88 85 83 79 71 67 49 27 33 35 44 56 61 60 64 64 63 66 67 67 67 67 67 65 67 65 64 67 69 72 66 66 64 64 63 59 61 63 69 75 78 78 85 98 147 176 186 191 191 179 175 171 167 169 169 165 166 172 171 172 178 175 174 174 172 167 166 162 169 171 152 138 132 125 125 
93 92 91 93 94 93 90 84 78 78 73 73 55 39 36 44 52 63 60 61 63 61 64 66 67 68 70 67 67 67 65 67 71 68 70 73 69 67 62 57 64 60 61 68 75 86 89 79 83 92 110 143 174 198 209 210 186 178 179 172 173 173 181 178 178 183 182 177 173 174 175 167 170 174 175 147 138 137 130 127 
95 92 94 90 98 96 88 87 80 76 80 75 71 65 50 58 57 61 54 64 59 63 67 73 68 68 73 75 71 72 73 76 76 78 78 77 72 63 64 58 61 56 62 68 82 86 93 86 87 86 89 90 114 153 199 217 217 205 186 186 179 177 186 185 183 190 185 182 179 179 175 171 171 180 177 145 143 136 131 126 
90 91 92 91 93 93 87 83 76 79 83 77 83 79 67 63 57 63 60 66 65 67 73 72 70 77 86 78 73 75 79 79 78 80 79 76 72 69 67 56 58 59 59 77 81 82 85 83 84 86 85 84 84 99 127 172 195 213 212 219 197 196 194 196 194 196 194 189 186 184 182 182 173 190 177 144 141 141 135 133 
91 89 92 92 90 89 84 82 76 74 81 83 84 87 78 72 64 64 69 67 68 74 77 71 74 79 86 78 72 75 72 77 77 77 80 80 77 75 75 65 63 63 66 81 80 80 80 80 82 80 80 80 80 78 86 103 133 166 197 228 229 228 208 201 202 208 200 197 193 194 189 183 184 200 171 142 146 136 136 133 
90 92 93 93 92 90 82 78 72 80 81 84 89 87 82 77 70 69 69 76 73 74 78 73 69 73 77 76 76 75 80 75 79 78 79 78 76 75 73 70 72 70 71 72 77 78 78 79 80 74 78 78 83 78 77 82 93 104 133 175 224 242 243 237 219 215 214 209 204 201 193 193 195 208 170 148 146 147 137 137 
91 93 92 92 93 91 82 74 66 75 77 87 85 86 85 83 77 75 68 64 67 68 74 75 72 73 79 77 77 73 71 69 75 74 75 74 76 70 73 71 72 69 67 72 75 75 78 82 74 76 80 78 80 80 82 80 86 91 96 110 152 191 220 235 242 244 236 221 223 214 203 198 207 213 168 152 151 146 138 144 
92 97 92 94 95 89 83 72 69 66 70 77 80 85 83 81 79 77 67 67 66 70 72 71 66 68 70 69 70 68 64 66 69 66 71 71 72 69 70 68 65 64 70 62 69 69 76 73 76 75 77 75 78 80 88 84 86 83 86 95 97 110 141 182 216 251 254 246 241 221 213 203 219 209 161 150 153 146 137 147 
93 93 95 91 93 88 85 74 70 63 65 75 83 88 85 81 80 76 71 59 62 65 61 66 62 69 65 66 65 63 61 58 63 63 69 66 70 69 64 66 56 58 60 63 65 67 68 68 69 72 75 77 75 78 77 83 83 85 84 88 92 90 103 117 141 191 229 252 259 249 231 215 233 204 165 153 160 154 145 138 


