P2
80 60
40
26 27 26 21 27 29 30 27 28 26 29 29 28 31 26 27 24 25 23 24 26 26 26 22 23 20 25 24 28 24 27 25 27 26 27 25 21 25 23 24 25 24 26 26 26 27 24 23 25 28 25 22 23 24 24 25 27 27 23 23 21 19 23 17 17 15 13 18 18 14 16 11 12 9 19 13 14 14 13 11 
24 31 27 24 24 28 31 34 25 27 30 28 27 28 28 25 29 23 23 26 25 28 25 25 24 25 29 26 24 26 28 26 22 24 25 22 24 22 23 27 20 29 24 25 25 25 24 25 23 25 23 27 22 21 23 26 27 25 25 20 19 19 23 17 16 14 18 12 15 14 13 12 11 16 20 13 13 15 18 14 
28 25 25 23 24 26 27 29 32 29 31 28 20 27 29 24 23 23 25 22 26 26 22 22 24 27 25 24 27 24 29 29 27 27 29 24 25 24 24 24 24 25 24 19 26 24 23 22 27 24 24 22 22 22 26 25 24 22 22 22 16 19 14 14 16 17 15 16 15 13 15 16 18 15 15 17 8 16 14 12 
26 23 25 25 25 31 30 27 31 28 34 26 24 27 27 25 27 22 25 24 25 25 24 23 23 26 26 29 26 28 26 27 27 26 25 22 24 23 25 27 23 23 25 24 22 23 24 24 28 25 25 24 24 22 22 21 26 22 20 20 24 20 19 18 16 15 16 17 15 17 16 17 10 14 16 15 14 15 18 16 
31 24 30 28 27 30 32 33 28 26 28 28 26 27 24 31 25 23 25 25 26 24 21 24 25 25 29 26 24 24 26 27 23 21 27 24 25 25 28 25 21 23 26 24 24 22 26 25 24 27 23 23 23 21 23 22 21 22 25 20 19 22 19 23 18 13 17 21 16 16 14 13 11 13 16 13 12 14 17 11 
26 26 30 26 27 30 29 33 26 22 29 21 24 25 25 26 26 22 25 25 25 26 26 26 22 28 29 26 24 23 23 26 22 18 17 23 30 24 28 23 22 27 26 24 22 25 25 24 25 25 22 22 26 23 21 21 20 24 22 20 21 22 17 20 18 12 16 19 20 14 16 11 14 10 14 11 16 18 12 11 
25 25 27 25 28 29 33 32 28 29 26 27 25 25 25 28 28 28 24 22 27 25 29 24 25 24 25 27 24 21 24 26 23 21 21 25 23 24 26 22 25 22 23 22 22 25 21 22 26 23 23 28 26 22 20 19 21 26 25 24 23 22 21 17 18 16 16 18 16 16 10 11 11 16 13 12 10 13 11 8 
26 26 31 27 25 33 31 32 21 27 26 27 27 28 25 24 30 26 30 24 32 26 25 27 26 23 22 21 25 26 22 23 21 23 25 26 25 22 24 24 26 23 22 22 22 23 24 25 23 24 24 26 27 19 24 22 21 22 23 24 23 22 22 18 17 17 17 15 17 12 11 11 13 16 17 15 14 16 12 9 
32 29 31 26 30 32 32 33 24 31 29 28 29 24 25 29 27 26 25 30 26 24 26 27 23 23 25 26 26 24 26 25 24 21 26 24 25 23 22 26 23 21 22 23 22 20 23 24 24 25 25 24 24 23 23 25 21 24 23 20 21 20 22 15 17 16 19 18 17 17 15 13 11 12 16 11 15 11 13 11 
32 31 34 28 29 30 32 34 29 26 24 26 26 28 24 26 28 23 27 26 28 29 24 25 24 25 28 26 24 25 22 21 24 25 27 22 23 23 22 24 23 21 21 21 18 20 22 23 23 22 28 23 21 22 22 22 24 20 24 21 19 19 18 18 17 14 17 19 16 12 15 15 14 13 13 13 14 15 12 11 
34 31 29 31 29 30 36 32 30 29 27 20 25 24 25 25 26 26 26 25 25 28 24 27 25 24 24 24 24 24 25 27 25 21 25 23 22 20 21 25 21 19 23 21 18 21 23 21 24 22 23 25 22 22 23 23 21 21 23 19 19 18 18 17 19 14 15 20 17 14 13 11 11 13 11 11 16 15 15 6 
33 33 34 32 30 34 36 31 26 26 24 23 25 25 24 26 25 24 24 22 24 26 24 27 23 23 23 23 24 22 27 23 24 23 23 21 20 16 24 22 23 22 22 23 21 21 22 20 21 26 19 20 22 21 21 21 23 24 24 18 19 21 21 20 16 17 19 18 15 11 11 9 10 13 12 16 14 10 13 9 
40 31 31 33 31 34 32 30 25 23 26 25 22 23 20 25 22 25 22 20 23 26 24 22 20 25 23 25 22 26 27 25 26 24 23 23 22 21 27 24 18 22 22 23 23 24 26 20 21 21 24 23 20 21 18 20 26 22 22 19 20 22 23 19 15 14 17 17 16 16 0 11 5 10 15 12 17 15 11 10 
31 30 31 30 27 33 29 28 28 26 24 23 18 20 22 26 23 20 20 16 22 24 25 25 21 21 22 25 25 24 26 25 24 23 24 20 19 25 21 20 23 22 20 19 23 26 23 22 20 28 20 25 22 21 20 23 24 23 25 21 16 21 17 17 14 15 18 20 15 9 13 8 11 13 13 12 12 14 14 16 
29 32 32 31 28 31 31 33 30 26 23 21 20 22 21 24 22 22 22 19 21 25 23 25 23 20 25 22 23 21 24 26 22 23 21 22 22 18 20 23 21 24 21 20 20 19 23 20 24 29 21 23 21 21 19 20 26 33 24 23 20 18 21 18 15 15 18 20 16 14 14 11 12 8 11 14 14 16 16 12 
33 31 36 32 20 29 29 30 31 22 21 23 18 20 22 25 22 21 22 21 24 23 22 25 19 25 21 22 22 21 21 24 20 25 22 21 21 19 27 23 23 23 20 21 20 22 23 22 21 24 23 20 22 25 23 22 23 23 24 24 18 17 20 15 18 20 16 22 17 12 16 10 9 13 11 7 11 14 14 14 
28 32 33 31 30 31 31 27 25 23 25 21 23 20 23 26 22 21 22 21 25 26 21 20 21 20 22 23 25 21 27 24 23 24 19 21 19 22 22 26 21 21 20 19 19 21 22 20 20 22 22 22 21 20 26 25 21 25 25 20 19 20 19 16 17 14 15 20 19 16 18 14 15 17 14 12 14 16 14 14 
27 26 34 30 31 31 34 31 25 21 24 22 19 22 22 24 26 19 22 20 22 23 23 23 20 17 23 25 24 23 24 22 23 22 21 23 19 19 23 24 17 19 18 20 20 22 21 22 21 21 19 21 24 22 25 20 25 31 25 20 18 23 18 15 18 16 16 19 17 18 16 9 12 12 16 11 13 17 16 11 
29 32 32 29 29 33 28 31 23 25 28 24 23 23 25 24 24 22 22 21 22 27 23 23 23 20 24 25 26 25 23 25 24 25 25 22 23 20 19 25 23 25 21 21 25 19 23 20 23 21 19 24 27 24 23 20 22 26 24 18 21 19 15 17 16 14 15 20 19 10 12 11 13 13 14 10 13 13 11 12 
29 29 35 32 30 34 33 25 27 27 27 23 28 21 22 25 23 23 25 22 24 29 26 25 18 24 23 24 24 23 27 25 26 22 22 20 23 23 21 23 24 22 20 21 19 19 20 21 22 22 23 24 21 21 24 22 22 21 22 21 20 20 20 16 16 18 17 23 17 18 14 16 13 12 16 11 12 14 14 15 
29 27 31 25 29 30 30 26 24 23 27 26 21 23 23 20 22 23 20 19 24 23 20 22 20 18 24 22 24 24 30 25 24 20 22 17 20 20 21 25 21 24 22 20 19 19 19 20 20 24 22 20 22 17 23 19 21 19 20 20 19 20 18 18 19 16 18 20 17 15 16 14 10 13 11 12 9 16 13 13 
30 28 32 29 29 28 29 29 23 23 26 24 32 22 23 26 23 23 20 22 23 25 24 24 19 21 25 22 23 23 25 23 21 21 19 22 21 22 24 23 23 24 20 21 20 20 20 17 19 20 22 21 20 18 23 20 19 19 22 18 19 18 19 20 17 17 15 17 18 22 17 12 12 12 12 9 11 15 12 13 
27 30 33 29 30 28 31 30 23 24 26 23 22 28 25 25 23 19 24 21 21 23 22 22 23 20 23 22 23 21 24 21 23 19 24 18 22 18 22 26 23 20 21 18 17 16 17 18 20 24 20 21 18 19 18 17 16 20 18 19 23 20 19 19 20 19 17 19 17 14 15 12 13 12 13 12 10 14 12 15 
29 30 31 30 28 27 33 34 25 26 29 27 25 25 23 24 24 21 22 22 24 25 21 23 20 16 20 23 22 19 24 23 21 20 20 19 20 19 21 22 23 17 15 20 16 19 19 15 20 23 22 20 22 18 21 20 21 21 20 16 19 17 20 22 19 17 20 21 18 18 14 10 14 12 15 14 10 17 15 15 
28 31 30 28 26 29 32 26 26 27 25 28 27 23 26 24 22 21 24 21 24 23 20 23 22 22 19 21 22 17 21 21 18 20 23 19 19 16 17 19 19 18 22 19 20 20 21 21 21 22 23 21 20 21 19 20 20 19 23 18 16 19 16 19 17 20 18 19 18 17 13 12 13 16 14 12 11 12 17 19 
25 26 31 25 26 27 31 30 27 27 27 24 26 25 27 25 22 22 18 22 22 25 21 22 23 21 22 22 19 22 20 21 23 19 22 19 18 18 18 21 17 19 20 20 18 20 19 19 20 18 21 18 21 20 22 17 20 17 19 20 16 15 18 17 19 16 19 18 15 19 16 13 14 14 14 13 13 16 12 12 
27 25 31 27 25 33 31 31 24 23 25 22 23 24 25 27 20 24 21 21 24 24 25 25 22 22 20 22 21 22 20 19 23 21 22 16 19 16 19 19 18 20 19 16 16 20 18 19 17 18 21 19 17 16 18 15 19 17 19 17 16 18 17 17 15 16 16 18 20 15 16 13 14 13 12 12 17 14 14 13 
30 23 28 27 26 29 28 29 27 23 23 25 22 25 23 18 24 21 20 22 20 25 23 23 19 21 23 24 24 18 22 23 18 15 18 18 20 15 18 18 19 22 20 20 17 17 18 19 19 19 20 19 18 19 17 18 19 17 18 17 16 16 18 16 18 16 17 16 16 13 16 13 14 13 16 15 10 15 13 11 
25 25 28 27 27 27 30 32 27 27 23 28 23 26 22 24 19 21 21 24 20 23 21 24 24 20 22 23 22 20 22 20 21 16 17 19 18 16 20 22 19 18 18 17 20 21 22 21 16 21 19 22 18 20 19 18 17 17 20 18 15 17 15 19 18 16 15 16 16 16 14 13 13 14 15 12 10 15 13 13 
30 28 34 26 27 27 30 29 31 24 25 27 24 24 21 22 22 20 16 17 20 22 21 22 16 17 19 21 19 22 19 21 21 16 18 19 19 18 17 18 19 21 22 17 19 22 19 20 19 19 20 20 19 15 19 17 17 18 15 17 18 18 18 16 18 16 23 20 15 15 15 11 11 14 13 11 14 14 11 6 
29 24 31 26 25 27 29 27 24 23 21 26 24 25 21 23 23 22 24 17 22 19 26 25 20 20 23 22 21 21 23 22 19 20 25 18 17 16 20 23 23 20 23 21 19 14 17 20 23 20 21 21 20 18 19 17 17 16 14 17 18 19 17 20 19 17 16 20 18 17 14 15 13 13 12 12 13 13 11 10 
25 21 29 27 27 27 27 27 27 23 25 23 26 23 22 27 24 19 21 22 22 22 21 21 21 20 31 21 22 20 19 21 21 17 20 18 20 17 18 21 23 23 22 23 22 19 19 19 21 25 19 20 19 18 19 15 19 16 15 16 14 19 21 21 19 20 16 16 17 14 16 13 13 15 8 11 10 17 13 5 
25 24 28 32 28 29 24 27 27 22 22 23 20 21 20 25 25 21 20 20 20 21 17 23 20 22 23 23 21 22 23 21 18 18 22 18 18 19 17 21 20 22 21 16 23 20 18 19 18 22 22 22 20 19 20 17 17 18 18 15 15 17 18 17 18 17 18 19 20 16 14 11 15 14 17 13 13 12 11 9 
26 27 31 32 27 29 29 28 23 23 23 17 22 22 20 23 23 22 22 20 22 21 20 25 22 24 20 21 22 22 22 20 21 16 20 19 19 18 20 22 21 21 21 18 19 23 17 16 18 21 22 21 19 18 19 19 21 22 18 16 18 21 19 19 18 18 18 18 15 17 16 14 14 14 15 14 15 15 10 13 
25 27 29 26 24 28 28 25 24 23 24 27 25 22 24 23 25 21 23 21 21 20 19 21 25 23 23 23 24 22 22 22 19 22 23 16 19 21 20 21 19 20 20 21 18 22 21 20 17 20 19 21 19 17 17 16 20 19 20 17 16 19 17 17 19 20 19 19 20 17 15 11 13 11 13 13 15 15 14 9 
25 27 27 25 25 27 28 25 29 25 26 25 22 25 20 21 20 21 19 19 23 23 21 26 18 24 20 19 22 22 20 21 19 18 20 19 19 18 18 19 18 22 20 16 20 19 23 22 20 18 22 20 21 17 18 20 18 19 21 19 18 18 18 16 18 17 15 19 16 18 12 12 11 12 12 11 14 14 15 12 
28 26 30 30 27 29 27 27 24 24 24 27 25 21 22 22 21 20 23 19 24 22 23 22 21 22 19 20 21 19 22 23 19 20 21 18 19 18 19 21 19 18 19 21 21 20 21 21 19 22 20 22 22 20 20 19 19 19 20 16 19 18 15 18 16 20 17 15 14 13 15 11 13 14 16 13 13 20 14 13 
27 31 31 27 24 31 26 28 24 21 19 23 23 22 20 21 22 27 22 21 24 22 20 20 19 19 18 19 21 20 24 23 21 21 20 18 18 17 22 22 16 21 21 20 22 23 19 18 19 24 21 22 19 18 19 19 21 18 18 19 17 19 18 19 17 19 17 17 16 14 14 12 9 12 15 13 12 16 14 11 
26 28 37 29 28 29 30 27 27 23 27 24 25 22 25 22 21 24 21 19 21 21 21 23 21 19 19 19 20 21 19 23 20 20 19 20 18 18 22 23 17 24 18 18 18 18 23 19 20 20 20 21 22 21 23 16 19 19 19 17 15 16 19 19 18 17 20 19 17 20 14 9 9 15 11 11 12 17 14 12 
29 25 27 28 25 28 27 26 27 25 27 27 25 24 22 21 21 20 21 19 24 22 20 23 19 19 20 19 19 21 23 23 22 22 23 21 16 17 21 21 18 20 21 18 18 23 21 22 21 24 25 22 23 23 22 18 17 16 18 17 16 16 16 17 16 14 17 14 14 12 11 10 10 13 14 10 14 16 15 14 
26 25 30 28 25 27 27 28 26 26 24 23 23 27 23 21 20 19 21 19 20 21 18 20 21 22 28 22 21 19 22 18 22 19 19 22 19 17 19 19 17 17 20 18 16 19 23 21 24 23 25 24 24 23 20 17 18 14 19 17 14 17 16 14 18 8 13 15 12 11 12 11 5 13 15 9 13 18 20 14 
25 25 28 25 25 21 28 24 23 20 22 21 24 21 21 19 19 20 16 20 20 20 23 21 22 21 20 20 18 18 21 18 18 10 17 20 20 21 16 20 17 18 17 17 19 19 21 22 23 24 25 24 19 20 20 18 16 17 18 14 16 16 13 16 18 11 17 11 11 14 9 10 9 10 11 11 14 15 15 13 
30 28 32 24 26 23 24 28 24 22 23 23 22 21 23 19 20 20 21 22 20 21 21 22 25 22 20 20 22 17 18 20 17 18 17 23 20 20 19 22 20 17 17 21 21 20 23 22 21 25 23 22 21 21 22 17 21 19 19 16 17 18 20 18 14 18 15 15 11 13 12 6 9 8 13 10 10 13 16 16 
32 25 28 22 25 25 32 28 21 21 21 29 23 23 17 20 19 21 22 21 20 23 23 22 22 20 24 17 21 20 20 18 20 20 20 17 19 18 16 20 16 21 18 18 19 23 22 25 21 23 20 22 21 20 19 17 18 19 18 16 18 17 16 16 16 17 15 14 13 13 8 8 10 9 12 9 12 13 12 12 
20 25 24 29 21 22 28 28 21 19 19 21 21 20 18 22 23 20 20 20 22 20 21 21 18 16 21 18 18 18 17 19 17 19 19 19 20 18 18 16 20 18 19 18 18 19 22 22 24 19 22 19 17 19 18 15 16 17 13 16 14 18 17 15 14 16 16 12 14 13 8 4 6 9 10 10 12 12 11 7 
26 25 23 24 25 25 23 23 21 17 20 23 20 20 19 24 22 21 20 20 24 23 20 19 16 20 20 17 19 15 14 18 14 17 20 20 20 19 17 23 15 17 15 20 20 22 19 20 18 22 20 19 17 18 17 16 13 15 15 16 14 18 15 12 13 18 16 11 17 11 12 9 9 8 11 13 12 12 12 13 
24 22 24 22 24 23 24 25 23 18 21 25 21 18 17 19 21 20 21 14 21 20 20 21 20 19 18 17 18 17 20 19 16 18 19 17 16 19 15 17 17 18 17 18 21 25 20 19 18 19 20 21 20 15 18 16 15 17 14 15 14 17 16 19 13 12 12 15 14 12 12 9 11 7 10 8 9 14 9 11 
26 25 23 23 20 23 21 22 20 22 23 22 20 22 19 20 19 19 19 18 21 22 22 20 19 21 16 15 20 21 18 18 19 16 18 19 17 15 19 17 16 20 17 17 17 19 20 14 16 20 16 19 17 16 15 18 20 18 16 15 16 17 16 15 15 11 16 15 13 8 13 11 10 9 8 7 11 10 8 5 
24 21 21 22 22 23 24 24 20 19 22 22 19 21 22 23 21 19 19 18 20 22 27 22 20 18 20 19 22 18 19 17 17 18 18 19 19 20 18 21 18 17 17 16 20 18 22 18 19 21 18 18 19 16 16 17 20 21 20 19 17 18 16 16 16 15 15 17 14 13 10 9 10 10 10 9 9 12 10 6 
24 24 22 22 23 25 25 20 17 21 19 20 22 19 21 22 21 22 22 22 20 20 20 19 20 20 18 18 16 19 15 16 16 17 19 18 17 14 18 16 17 17 16 16 18 19 16 15 17 18 18 17 17 16 20 16 15 18 15 14 17 16 14 12 14 13 14 11 15 10 11 9 6 11 12 9 10 12 9 7 
25 22 24 23 18 24 22 20 23 20 22 26 20 21 19 20 20 19 18 16 20 19 17 17 16 19 16 18 16 12 16 17 18 16 18 15 17 14 20 18 14 17 14 14 20 17 17 17 15 15 19 14 21 19 18 18 18 16 17 15 19 17 15 15 15 14 13 14 14 11 11 9 5 6 5 9 7 11 9 4 
26 24 22 23 25 24 21 23 21 17 20 19 14 15 20 17 16 16 19 20 22 16 17 18 21 18 17 14 16 20 18 20 16 17 21 19 13 14 17 15 16 18 15 17 16 17 16 13 18 18 18 16 21 20 17 19 17 18 14 17 17 18 16 16 13 15 14 13 11 11 13 5 7 5 5 13 6 11 8 5 
26 22 18 24 21 27 26 26 24 20 22 19 16 18 14 20 17 17 20 19 17 19 19 18 22 20 18 16 17 17 17 21 14 15 17 17 18 13 15 15 19 17 11 15 16 16 19 17 18 17 19 16 17 16 19 15 20 18 20 16 17 14 15 15 15 11 13 13 14 12 10 10 9 5 10 8 9 8 7 6 
24 17 20 25 28 26 27 23 22 22 20 22 20 20 16 20 17 15 16 18 16 22 15 16 20 17 19 19 20 17 20 19 16 17 16 14 15 14 15 15 16 13 13 13 16 15 19 14 15 21 15 18 18 19 20 20 20 18 18 17 16 15 16 16 14 11 11 11 10 12 10 11 7 7 7 5 8 10 9 7 
17 16 21 22 23 28 29 20 22 15 21 20 17 17 16 21 17 16 19 15 18 18 17 18 20 18 21 19 18 15 19 19 15 16 17 15 16 13 13 14 12 17 15 15 14 14 19 19 15 19 18 18 17 19 21 18 19 18 20 17 14 13 14 14 13 10 11 12 11 12 13 6 6 7 10 7 10 10 10 6 
21 20 20 21 20 21 24 26 23 21 19 21 21 21 20 19 17 19 17 16 17 14 15 19 17 16 16 18 17 16 16 18 16 16 13 11 15 14 16 16 15 16 15 16 17 16 14 18 17 18 17 17 22 16 19 17 15 18 14 12 17 16 13 14 14 10 14 9 12 9 15 11 10 11 9 8 7 7 7 4 
20 21 24 18 19 20 22 24 20 20 22 21 27 18 19 19 17 19 15 21 21 19 16 17 15 14 17 17 14 15 16 16 18 14 17 13 13 13 14 15 17 15 13 13 17 18 17 15 17 19 18 18 19 17 16 16 20 15 17 11 14 14 15 14 14 12 11 12 13 10 11 8 7 8 8 8 5 12 7 6 
21 18 16 19 20 21 24 26 23 14 19 20 22 20 19 19 18 16 17 16 18 17 18 14 15 14 17 16 16 14 15 18 16 16 17 13 16 15 11 15 14 18 16 14 17 17 17 18 17 21 17 12 14 13 17 18 14 18 19 13 14 13 14 12 13 14 11 14 8 12 9 8 7 7 11 10 7 9 5 4 
16 15 19 20 17 22 20 22 25 23 22 23 18 18 18 16 13 16 14 17 18 19 19 18 15 13 13 14 21 14 14 15 16 14 18 15 16 12 16 13 12 16 25 15 16 14 18 17 20 17 18 18 17 15 16 17 19 15 17 11 15 14 16 13 14 11 14 12 11 9 6 7 3 5 9 7 9 8 6 4 
20 16 20 19 19 22 21 22 20 16 19 18 17 18 18 15 15 15 14 18 20 16 18 17 16 13 19 15 22 16 16 17 17 12 18 16 19 13 15 15 14 19 17 16 18 15 18 18 17 18 20 16 19 15 14 17 15 16 18 17 14 18 13 16 14 11 14 13 12 7 9 7 7 6 7 5 8 8 9 8 


