P2
80 60
43
31 36 29 29 35 33 35 35 35 36 36 34 35 34 32 33 30 29 28 34 32 34 30 31 29 30 30 33 34 31 34 32 36 36 32 32 33 32 31 33 35 30 32 27 30 29 25 25 29 31 28 28 28 32 29 31 32 35 36 30 30 27 27 27 28 27 26 22 25 24 23 23 23 24 27 28 25 25 24 22 
35 35 35 33 37 36 31 34 38 37 38 36 34 34 33 33 32 31 29 35 32 31 30 31 29 32 32 32 30 31 33 33 33 33 33 34 33 35 30 31 35 32 31 30 30 31 27 28 29 28 27 26 31 29 32 33 31 30 31 27 28 25 25 25 30 24 25 22 23 16 23 22 25 25 26 27 28 27 28 24 
37 33 30 31 35 34 32 32 38 36 37 37 39 30 35 32 29 28 29 33 36 35 34 30 30 33 34 34 33 33 34 34 34 33 35 33 35 37 32 32 31 32 31 29 28 27 25 28 26 28 24 25 30 32 29 30 30 30 27 26 26 25 24 25 27 22 23 25 21 21 23 28 22 26 26 25 27 27 33 23 
37 38 30 31 33 37 34 32 33 36 43 32 34 29 30 32 32 32 32 32 32 34 30 32 32 34 31 33 32 33 32 33 35 32 31 36 32 37 32 33 33 30 31 31 28 28 28 26 26 27 26 26 29 29 30 33 31 30 25 27 25 27 24 26 27 26 24 22 24 22 26 26 22 23 23 29 26 28 34 24 
40 34 28 33 34 35 35 33 34 35 33 32 29 30 31 32 33 29 32 34 34 32 31 33 29 34 34 35 34 27 32 34 29 29 31 34 32 36 36 33 31 32 32 31 29 29 29 29 27 28 23 27 26 27 28 33 28 26 29 26 27 24 27 30 29 26 24 23 29 19 24 25 21 21 27 29 27 28 29 22 
35 34 28 30 32 35 36 36 36 32 34 31 35 33 30 31 29 32 29 32 33 35 34 31 31 32 30 35 33 29 31 30 28 30 32 33 33 33 33 33 32 33 32 31 29 31 31 29 26 29 28 26 28 27 28 32 27 28 28 24 29 26 21 26 25 23 23 26 27 23 24 24 23 21 24 25 25 27 25 22 
29 36 26 30 36 36 35 37 37 35 34 36 32 30 31 33 36 33 34 33 34 31 33 30 33 31 31 30 30 28 33 32 32 31 32 34 32 33 32 33 33 32 30 31 30 29 29 29 27 28 27 30 33 28 28 33 32 35 34 30 30 25 25 27 26 24 20 23 22 22 20 22 20 21 23 24 25 23 27 19 
30 36 31 33 38 39 34 36 36 33 34 35 33 35 31 37 34 33 34 33 34 35 33 31 33 31 32 32 33 31 30 30 30 33 34 37 31 35 31 31 35 32 31 34 30 31 33 32 29 34 30 31 34 31 30 34 29 32 29 28 27 26 28 25 28 25 23 23 25 17 20 21 20 22 25 24 23 25 25 24 
39 36 31 37 38 36 38 37 35 35 32 31 36 31 32 33 32 31 35 37 32 32 33 32 32 31 34 35 32 30 34 30 28 27 33 33 31 35 33 33 30 31 30 31 31 30 29 33 30 31 31 30 33 28 29 35 32 31 34 32 30 27 29 22 23 27 22 23 24 24 21 22 20 21 21 24 23 23 23 19 
39 37 31 40 39 38 40 36 39 32 35 34 34 30 29 29 35 30 35 33 32 35 33 31 33 33 30 31 31 34 28 28 26 31 33 32 33 33 30 32 32 32 31 32 29 33 26 30 32 34 34 32 30 29 31 36 33 31 34 28 27 27 27 26 29 30 26 23 27 21 23 26 23 20 23 25 24 22 21 17 
41 39 35 38 39 37 38 36 34 36 32 29 31 31 30 32 32 31 30 32 32 32 33 32 31 34 29 30 32 29 28 30 27 29 30 34 31 33 30 32 28 30 29 31 29 29 31 33 31 33 31 32 32 30 31 33 27 28 29 27 27 26 24 29 26 22 24 29 19 23 21 22 20 23 21 24 23 21 25 22 
42 40 36 40 42 39 39 38 35 36 34 31 32 29 32 29 28 26 30 33 31 31 32 32 30 29 29 31 31 30 32 31 33 30 29 31 31 29 31 30 32 32 28 30 29 33 29 31 29 35 34 32 30 30 32 33 28 33 27 25 29 28 25 28 27 24 23 22 24 18 18 19 21 24 23 27 22 12 19 19 
39 38 40 39 42 37 36 34 35 33 32 32 34 29 27 29 31 29 25 31 31 33 32 31 29 30 30 33 29 30 31 29 31 32 30 32 30 30 31 32 29 31 31 33 34 29 34 30 28 28 32 30 27 30 32 31 32 30 28 26 25 26 26 27 27 25 26 23 24 22 13 21 20 21 22 25 25 19 21 16 
37 38 39 40 40 36 33 35 33 34 31 32 33 30 34 29 32 30 28 29 33 32 28 30 27 28 29 31 28 31 34 28 32 33 30 31 29 37 30 30 30 32 32 32 31 31 32 33 26 37 31 31 26 27 30 34 31 31 30 27 26 28 26 27 24 25 22 21 20 18 21 18 21 19 23 22 23 24 28 19 
39 39 39 39 37 36 34 33 31 32 29 33 30 31 27 29 28 26 29 27 28 31 33 30 28 29 30 31 29 28 28 29 30 31 30 31 31 30 29 31 27 29 30 30 27 29 31 30 28 31 31 28 28 29 30 34 32 40 31 26 29 24 24 23 23 22 26 23 26 18 23 19 21 20 23 20 22 23 23 16 
38 41 39 36 39 34 33 35 35 31 29 31 31 34 30 30 27 27 29 28 30 30 28 32 29 31 29 29 29 29 29 29 31 31 30 31 27 32 31 30 32 32 30 31 27 28 32 31 29 30 29 26 28 34 28 33 33 30 30 29 25 26 28 25 27 25 22 29 24 21 24 18 17 23 18 21 21 25 26 20 
38 42 37 37 39 35 34 35 37 32 31 31 31 30 29 30 28 28 29 29 30 31 33 27 30 24 25 31 31 29 29 29 31 33 27 31 28 27 28 30 31 29 28 29 27 34 30 27 27 30 29 27 27 28 28 33 30 31 32 28 24 28 27 25 24 23 22 25 25 20 20 21 22 19 23 24 23 22 25 19 
38 41 36 37 38 35 33 33 32 32 29 29 31 31 27 30 30 30 30 30 28 30 31 28 28 30 26 30 32 28 30 27 30 28 28 32 28 29 30 30 30 26 29 33 27 31 30 27 31 28 26 27 32 30 33 31 28 35 29 28 26 21 26 26 24 23 19 21 25 20 20 20 24 16 20 21 24 24 25 21 
35 36 31 35 36 35 34 33 29 29 30 30 31 30 25 30 28 30 27 30 29 31 32 31 27 33 23 31 28 31 30 28 30 31 33 31 30 31 31 30 29 32 28 30 27 28 28 25 27 28 31 25 32 29 30 29 30 28 28 22 24 24 23 23 24 23 22 24 24 21 20 22 19 18 20 21 20 19 19 18 
35 36 34 35 37 42 36 35 31 29 34 27 33 28 27 29 29 28 32 29 31 33 34 29 29 31 31 29 29 30 31 27 25 30 32 30 32 33 27 28 33 31 28 28 26 29 24 29 28 30 30 28 29 27 30 31 28 24 26 23 26 27 21 22 27 26 22 26 24 22 22 24 18 19 19 18 20 19 21 18 
36 35 31 35 36 34 37 31 30 30 32 30 31 28 26 29 29 27 28 30 28 32 32 30 28 27 31 27 29 30 41 30 31 27 30 29 32 30 28 28 31 33 31 29 25 27 29 27 28 28 28 28 27 25 27 27 26 27 26 25 24 22 23 24 25 21 22 23 23 22 26 25 17 19 19 22 22 17 19 20 
39 37 37 36 35 33 37 32 31 29 31 31 36 28 28 31 28 25 27 30 27 31 34 30 30 29 26 31 27 29 31 28 30 30 27 27 31 30 29 29 31 32 27 28 27 26 26 27 26 29 28 26 28 30 27 26 28 27 28 25 24 24 25 27 23 24 21 23 21 22 15 21 21 18 24 23 16 22 25 25 
34 36 34 34 34 34 33 37 31 31 29 31 33 28 28 29 29 28 28 33 31 31 29 28 30 29 26 29 27 25 27 26 29 28 26 30 29 28 28 32 26 30 28 26 33 24 30 24 28 29 28 24 24 27 26 28 25 24 28 28 25 22 24 25 26 27 26 23 25 23 20 24 23 18 20 22 17 19 24 27 
36 38 28 33 35 35 36 38 34 31 32 32 32 27 28 28 24 27 27 30 29 29 29 30 25 29 26 28 26 28 26 28 28 27 28 27 26 25 28 29 27 29 28 26 26 29 27 24 24 30 26 24 27 27 26 28 25 24 27 23 20 22 20 26 25 26 25 25 23 24 21 20 18 17 22 19 20 23 22 18 
33 38 32 34 31 35 35 37 34 34 29 32 33 29 27 26 31 28 25 30 30 32 30 29 28 25 25 29 27 26 25 25 26 26 26 27 25 28 29 28 24 27 29 27 28 26 28 29 26 31 25 25 27 24 24 27 25 28 30 25 22 19 23 22 26 24 24 24 25 21 23 19 19 22 21 21 22 20 25 22 
35 37 31 32 33 34 31 33 30 32 32 30 30 31 32 29 31 31 26 27 28 30 29 33 28 30 28 28 27 26 25 25 26 24 28 27 26 28 24 28 25 27 27 31 25 30 26 31 24 27 24 23 24 25 21 25 24 26 25 24 22 19 21 23 25 28 22 20 20 22 20 19 19 21 21 21 21 24 25 22 
39 36 33 36 33 31 36 36 33 34 30 31 32 30 34 29 28 29 27 28 30 30 33 31 27 28 28 28 28 27 27 25 26 27 26 24 26 27 29 26 23 27 30 30 25 27 26 26 24 25 24 25 25 22 23 27 21 22 22 24 24 21 20 19 23 22 24 21 19 20 22 20 20 22 23 21 23 22 24 23 
36 36 35 36 36 34 35 34 35 34 33 32 32 29 29 26 26 29 28 30 26 27 28 29 26 25 29 31 30 28 26 26 23 26 27 24 25 25 27 27 27 25 26 28 25 25 27 23 25 27 22 24 25 24 24 24 26 21 19 23 27 19 21 22 23 22 20 21 22 20 22 20 19 18 20 19 19 21 23 19 
34 38 33 36 32 35 34 37 33 32 31 31 33 31 30 30 26 28 29 29 26 28 29 27 25 32 30 30 29 29 26 27 25 24 27 28 26 26 28 27 26 27 26 25 27 26 27 26 25 25 24 22 23 22 23 27 23 20 22 20 22 21 19 26 22 23 20 20 20 19 22 21 19 20 19 16 19 21 23 19 
35 37 35 32 32 33 34 32 36 31 32 32 32 27 26 27 29 26 27 26 26 27 28 27 26 28 26 28 25 27 24 27 24 23 27 29 27 28 24 23 28 25 27 28 28 28 24 26 25 25 24 22 23 21 22 28 21 23 19 19 21 18 19 23 24 24 24 24 19 22 18 20 21 18 20 21 20 19 15 17 
33 35 33 32 31 29 33 32 30 34 27 30 30 30 23 27 26 27 24 25 24 25 31 25 27 26 28 29 27 23 27 24 24 27 30 29 27 24 25 26 26 26 30 28 27 27 22 24 27 27 23 19 20 21 25 24 25 21 19 17 19 20 21 21 23 24 20 21 20 20 19 21 21 17 20 16 18 15 12 16 
33 36 29 33 31 33 33 29 27 30 29 29 30 30 28 27 30 28 29 27 25 25 27 28 27 29 31 27 27 23 26 26 23 25 24 26 24 25 23 29 29 29 29 29 26 23 23 25 24 29 23 20 23 22 22 23 18 21 17 20 18 17 21 22 24 23 20 18 22 17 20 14 21 19 17 20 16 15 19 17 
35 36 33 37 35 34 32 34 33 29 31 29 31 29 25 28 28 29 26 25 27 27 28 29 27 28 30 30 26 25 28 25 25 23 21 24 23 27 23 28 29 28 28 25 25 24 22 24 24 23 24 22 19 20 23 25 21 22 19 19 19 21 17 23 24 23 24 15 22 18 18 18 16 20 18 20 20 18 17 18 
38 35 34 34 35 32 31 32 33 31 31 32 30 29 27 27 28 29 27 29 28 28 29 30 27 27 27 27 25 28 27 23 23 22 27 28 24 26 24 27 27 25 28 27 25 25 25 24 24 26 23 23 23 20 20 24 21 21 19 20 16 21 22 23 26 25 22 21 19 17 20 22 18 18 19 19 20 16 22 20 
30 36 31 32 35 34 30 31 32 28 30 30 31 31 30 31 31 27 26 29 28 28 29 28 32 29 27 28 30 27 29 28 26 24 28 29 26 24 25 24 26 27 28 28 27 30 26 25 21 24 22 23 23 20 22 21 22 23 20 16 17 20 20 22 23 24 20 22 18 16 17 20 21 15 22 21 18 15 21 21 
31 32 35 32 33 32 29 32 31 31 30 28 30 27 26 28 29 28 28 27 27 29 25 29 27 27 25 29 27 25 29 25 26 25 25 27 26 25 23 25 25 27 25 28 26 25 25 28 24 20 21 23 22 21 22 25 22 22 22 20 19 20 21 22 21 20 17 22 18 17 18 14 15 20 19 18 21 18 20 17 
37 35 39 34 33 32 31 31 30 31 29 30 30 26 27 27 28 29 27 26 30 29 28 29 24 28 24 26 31 26 27 25 25 22 26 25 27 26 24 24 24 27 23 27 25 26 25 25 27 22 19 21 21 21 18 23 20 21 21 15 19 19 19 24 23 22 20 20 18 17 18 17 19 18 16 18 19 18 20 19 
37 38 35 34 34 32 33 34 28 29 28 29 27 26 26 26 24 33 28 27 27 31 29 25 25 25 24 25 25 25 30 24 25 24 25 24 24 26 27 25 24 25 27 27 25 25 26 24 23 22 21 21 17 23 23 26 22 18 19 20 20 17 17 22 19 23 20 18 19 17 19 17 16 15 15 16 15 18 20 22 
37 36 36 34 36 32 35 32 31 30 29 31 32 27 26 27 26 31 27 29 28 32 29 28 28 26 24 27 24 24 26 25 24 26 25 26 28 27 30 30 25 25 25 26 23 26 24 25 24 24 22 20 19 21 23 20 21 18 20 17 17 20 16 16 20 20 20 20 21 16 17 16 17 14 13 19 21 21 23 20 
35 38 33 32 33 36 30 34 32 32 31 29 33 28 25 29 25 24 25 26 27 29 28 30 27 26 24 26 25 24 26 24 25 24 25 28 30 25 27 29 24 24 28 27 24 26 27 27 25 24 22 22 24 23 21 22 18 18 15 16 18 16 19 18 20 16 19 16 20 11 18 15 14 16 15 18 19 18 25 20 
35 34 31 33 30 34 30 30 30 31 32 28 29 30 29 30 26 25 25 26 27 27 29 29 25 28 34 25 24 25 23 23 27 26 27 27 26 26 24 26 23 23 25 30 26 24 28 28 25 26 23 23 23 27 19 22 19 18 17 14 17 18 15 18 19 19 14 15 10 18 11 15 14 13 16 21 21 21 29 20 
35 38 31 32 34 32 31 29 30 31 34 31 29 30 29 26 27 26 28 27 27 31 29 28 32 26 27 27 27 25 26 23 24 28 27 29 29 26 23 27 23 27 24 26 24 25 26 29 26 25 24 21 22 23 21 25 16 18 13 15 19 17 16 20 19 18 16 15 12 15 17 18 17 13 15 19 19 26 27 19 
37 35 37 31 34 31 33 31 32 28 31 29 34 28 29 30 27 26 28 29 28 28 28 29 28 29 26 28 26 23 25 24 23 27 27 30 26 24 25 27 27 25 24 29 24 25 27 28 24 23 22 21 23 23 22 19 21 18 17 17 18 17 19 20 21 19 14 14 17 14 14 15 17 13 14 17 17 18 20 17 
37 34 30 29 33 31 34 28 25 29 31 32 29 29 26 29 28 29 26 30 26 30 28 26 28 27 28 26 26 25 25 23 21 25 26 26 26 28 23 25 24 24 28 26 23 27 27 35 25 21 21 18 18 23 18 17 17 20 16 15 14 18 15 17 19 17 17 15 15 13 15 14 14 12 15 16 18 18 18 17 
34 36 29 25 29 30 34 36 27 28 30 29 30 30 28 24 24 26 24 29 30 29 25 29 27 25 22 25 25 23 26 21 26 26 25 24 23 25 23 23 27 23 24 26 27 25 27 29 26 20 18 19 18 20 17 20 16 16 15 16 17 18 13 17 18 20 15 19 16 15 14 15 11 15 16 16 17 14 19 17 
35 34 31 31 30 28 30 28 32 29 29 27 28 30 29 27 29 25 27 27 31 27 25 29 25 26 24 24 21 22 24 23 22 25 23 27 24 22 24 27 22 24 22 25 23 26 24 26 22 19 18 17 19 17 16 17 15 15 15 12 17 15 15 16 19 20 17 12 15 10 14 12 9 11 14 17 15 14 20 16 
32 34 25 31 29 29 25 29 25 27 33 31 31 27 28 30 28 28 28 27 26 27 27 28 25 26 25 22 23 22 24 22 24 24 25 27 22 24 22 25 22 22 24 23 25 27 25 25 23 23 18 16 19 17 15 19 17 16 10 12 17 12 18 16 15 15 14 11 13 11 15 14 12 12 14 13 17 11 14 4 
35 33 28 27 31 30 29 31 28 28 28 28 29 31 27 29 28 26 24 28 28 28 26 24 24 24 20 26 27 24 26 22 21 22 24 24 20 22 22 22 24 24 23 23 21 25 24 26 21 20 20 17 19 16 17 22 19 19 14 15 18 12 12 17 15 13 13 15 13 11 11 13 12 13 12 9 14 13 17 11 
35 35 29 28 26 31 32 31 26 29 28 29 29 28 30 33 29 26 24 28 25 29 33 29 25 24 24 22 25 23 22 22 22 22 20 21 22 27 23 26 21 22 21 22 19 21 26 26 19 19 18 17 15 17 19 18 17 16 16 15 15 16 11 16 14 13 12 14 12 12 11 11 15 11 10 11 13 11 15 10 
31 35 30 29 29 29 35 29 31 30 28 29 32 30 28 29 28 28 29 29 24 26 29 26 23 24 22 24 21 21 21 21 20 21 21 20 24 23 22 22 25 22 21 20 20 21 22 21 21 18 19 14 17 16 20 17 15 15 16 16 14 13 13 13 16 11 12 13 13 11 10 10 8 8 8 13 13 11 12 10 
28 31 22 31 33 28 31 30 30 28 29 27 27 29 28 28 31 27 30 27 24 25 27 27 26 24 23 24 23 22 22 21 23 20 20 21 24 23 24 21 20 20 19 22 20 20 21 19 19 16 15 14 16 21 18 19 17 15 17 15 15 14 10 15 15 12 10 9 12 9 10 12 9 6 11 10 11 8 14 7 
36 31 26 31 38 34 27 33 30 28 30 27 28 22 25 24 24 26 27 31 29 24 21 29 25 26 23 22 23 22 22 21 19 23 24 24 23 22 20 18 18 21 19 22 20 24 21 21 20 16 17 10 17 21 17 22 15 19 17 14 14 15 12 14 15 12 10 11 8 7 11 9 11 4 9 12 12 12 11 3 
37 31 27 29 33 32 28 28 30 32 28 26 29 26 23 23 27 24 27 27 24 27 26 25 28 27 24 24 24 25 22 21 22 22 22 26 21 19 19 21 25 21 16 22 21 22 22 25 20 18 19 14 18 17 18 17 17 19 16 13 13 10 10 13 14 10 11 8 10 7 11 4 9 7 10 10 11 5 9 7 
34 33 26 32 36 34 25 30 28 28 29 27 27 29 23 26 24 23 23 22 25 28 24 26 25 29 27 28 26 20 21 19 19 23 18 23 21 20 20 20 19 18 19 20 20 21 23 22 18 18 14 13 15 15 15 21 21 18 17 13 11 12 10 11 10 12 9 6 9 9 8 7 5 8 10 11 6 7 8 5 
32 31 24 28 32 28 35 33 28 29 30 32 32 24 28 27 26 26 28 27 24 23 23 24 27 28 28 27 24 16 21 21 19 21 20 20 17 22 18 20 21 18 19 20 20 19 23 25 19 14 18 14 19 17 16 19 19 14 14 12 17 15 11 12 11 11 10 6 7 9 10 8 6 8 10 8 10 9 11 5 
27 28 25 26 30 27 36 28 31 30 35 34 31 30 24 25 24 25 28 24 24 25 25 22 24 22 22 23 21 19 22 19 21 23 19 19 20 21 19 21 22 19 17 21 21 21 19 23 17 14 16 11 15 16 17 17 15 14 14 15 13 12 11 15 12 7 7 5 6 11 10 10 3 8 9 7 4 3 15 11 
32 29 29 24 33 27 27 28 29 30 31 31 37 28 26 25 25 25 24 28 25 25 21 23 21 23 20 22 21 18 19 18 21 20 19 19 20 19 19 19 21 17 20 21 19 20 21 17 18 12 9 9 12 14 16 19 18 16 12 9 10 10 6 7 8 7 3 4 4 6 5 7 4 4 4 9 7 10 9 6 
27 31 25 28 31 30 28 30 28 31 27 28 31 29 26 25 25 27 23 26 25 25 29 22 20 22 22 23 21 20 20 18 19 17 16 19 20 20 18 22 18 21 19 23 20 22 18 15 14 15 12 12 13 12 16 18 14 15 14 12 9 7 9 7 10 8 5 3 9 7 7 4 7 7 6 3 8 9 8 7 
29 30 24 29 31 28 24 26 30 27 29 29 25 26 23 23 24 24 26 23 28 24 26 25 21 22 19 21 28 18 18 17 19 20 18 21 19 20 20 16 17 18 19 21 15 16 14 13 14 11 14 15 13 13 15 17 13 12 15 10 10 6 7 8 11 12 3 4 5 0 7 5 9 3 3 4 8 5 9 2 
33 31 24 27 31 29 28 23 28 27 26 29 27 24 23 21 25 22 22 24 25 25 23 24 22 23 22 21 25 21 18 18 16 18 21 23 25 18 17 18 17 20 20 19 11 17 13 13 11 12 15 13 14 13 12 15 14 14 13 14 10 8 6 10 8 7 5 6 5 4 5 8 6 2 5 8 4 1 5 0 


