P2
80 60
47
36 34 35 31 33 29 31 34 30 31 35 35 34 33 33 32 31 29 30 27 31 30 25 29 30 30 29 31 35 34 37 33 34 32 31 31 33 34 32 31 33 30 29 30 29 28 26 26 34 32 30 28 30 30 31 32 32 33 37 30 25 27 26 28 28 25 19 22 25 25 22 23 26 24 25 25 27 24 19 24 
39 33 34 33 31 33 28 36 35 33 34 35 33 33 32 30 31 32 31 34 32 33 29 28 28 32 32 31 31 33 36 36 31 31 33 30 35 33 30 32 34 34 31 34 31 31 25 28 29 26 28 27 28 30 30 33 33 28 31 27 27 25 28 24 24 19 23 20 24 20 19 23 26 23 23 25 23 22 21 16 
39 36 27 34 30 31 30 31 37 32 34 37 31 28 33 32 31 30 30 33 34 31 30 29 29 31 32 29 33 36 39 34 31 31 32 33 34 34 31 33 34 37 36 35 31 28 28 29 35 31 29 28 28 31 28 32 27 31 27 28 28 26 22 25 27 20 16 23 21 21 22 23 26 24 25 26 27 22 20 22 
42 40 31 33 38 35 29 35 34 33 44 39 31 27 30 29 32 34 34 30 34 30 30 30 28 32 29 32 35 35 37 33 32 30 31 33 37 37 31 33 37 37 33 31 32 32 32 33 39 34 32 31 34 29 31 31 30 32 32 29 24 26 24 26 28 21 22 23 23 26 26 27 24 20 21 28 22 23 27 24 
45 34 29 35 33 31 33 34 33 32 35 38 32 28 29 31 33 32 31 31 31 29 32 30 29 30 33 36 31 32 33 32 29 29 32 33 34 34 34 35 36 37 35 34 34 34 36 37 38 35 34 31 30 33 29 33 33 29 30 30 24 29 26 29 28 22 18 21 28 21 24 27 23 22 22 23 23 23 24 19 
40 35 32 37 36 30 33 38 40 33 34 34 34 31 29 28 30 33 31 30 32 32 34 32 30 33 30 32 33 34 35 31 30 27 30 30 37 33 33 31 36 38 36 34 33 33 40 39 33 32 34 34 37 31 35 39 30 35 32 35 30 31 27 27 25 24 24 26 30 25 24 25 28 22 22 24 25 23 21 16 
41 35 28 38 36 31 35 38 41 36 33 34 28 29 30 31 38 35 31 33 33 31 33 29 30 30 33 34 32 26 34 32 29 30 30 31 34 34 33 33 37 37 32 33 33 32 32 38 36 32 34 38 34 35 34 35 37 39 39 34 29 34 30 29 28 24 25 29 27 23 20 23 26 20 21 23 24 23 23 19 
39 33 34 34 36 37 32 36 34 32 32 36 30 31 31 34 33 31 34 31 35 31 30 31 30 31 32 32 32 33 28 31 30 32 32 36 33 31 33 33 35 36 31 34 30 31 35 36 33 33 32 35 36 38 33 36 34 33 33 31 31 31 29 28 28 31 27 25 30 26 26 24 24 22 20 22 24 22 22 20 
45 42 38 34 36 32 35 38 32 35 34 32 34 32 30 28 31 31 31 35 29 31 30 31 29 31 29 32 36 32 31 31 28 25 31 31 32 33 32 36 36 33 30 33 30 31 32 34 34 31 32 33 32 34 32 36 31 31 33 34 32 28 30 24 29 27 26 26 26 25 22 25 23 23 18 27 26 23 19 20 
42 37 35 34 31 32 36 39 33 31 33 36 29 28 29 29 34 33 35 33 32 30 30 29 32 31 30 31 34 30 29 29 26 30 29 28 32 33 30 32 36 37 33 32 31 31 28 36 35 31 35 31 30 31 32 36 31 31 32 30 26 29 26 24 30 32 26 23 28 24 19 28 26 23 21 24 28 20 16 15 
43 39 32 38 36 36 37 36 36 32 37 31 31 30 31 30 31 32 33 32 30 30 29 31 29 31 31 31 31 30 30 30 30 27 29 28 30 29 33 34 35 36 33 31 30 28 33 37 33 31 32 32 33 33 32 35 32 27 32 28 28 28 25 27 31 27 24 25 26 23 23 21 25 23 18 24 26 24 20 17 
43 38 39 38 36 35 37 35 33 31 33 32 30 27 32 28 30 34 31 29 28 28 30 29 28 27 28 32 32 28 31 31 32 31 29 30 28 31 32 32 38 35 31 32 30 34 29 33 33 31 32 29 33 33 32 34 33 36 30 28 28 31 24 26 31 28 22 23 26 20 18 23 24 22 19 26 21 19 21 20 
47 38 39 40 39 37 34 37 32 29 30 33 32 28 28 27 31 28 30 28 29 29 26 31 28 28 30 31 28 33 31 32 29 31 28 29 29 30 30 30 33 33 32 33 34 29 35 36 31 27 33 28 34 29 33 28 35 35 32 28 30 32 29 27 29 25 24 24 25 27 12 23 25 18 20 23 23 24 21 23 
44 41 36 36 37 36 31 37 31 32 31 35 34 28 30 32 32 30 28 25 31 27 29 27 28 27 29 29 30 32 34 29 28 32 31 29 29 32 29 31 33 33 33 31 29 30 34 34 31 35 31 33 30 32 30 35 34 31 29 28 26 27 26 25 24 25 23 24 23 19 19 20 23 20 18 26 26 23 26 22 
44 35 36 38 32 33 33 37 30 31 32 30 28 27 26 27 27 27 26 27 26 29 26 29 28 26 28 31 28 32 32 28 29 27 27 28 31 29 30 31 33 32 32 32 30 30 31 32 32 30 29 29 27 27 29 30 36 39 30 26 23 25 25 21 24 20 25 23 24 21 22 22 23 18 21 25 24 23 23 17 
45 37 38 37 37 31 33 33 32 30 30 33 31 27 29 29 27 30 27 26 26 28 27 30 30 31 26 29 30 29 35 27 28 28 28 28 30 29 31 29 35 35 28 33 28 31 32 29 32 30 25 28 27 35 30 34 30 33 31 29 26 26 25 24 29 29 23 29 26 22 22 22 23 22 19 21 26 23 24 19 
46 42 39 40 39 36 33 34 31 28 29 31 33 29 31 28 31 29 30 27 30 26 25 28 32 26 23 27 28 30 30 29 28 32 24 28 27 27 28 35 36 35 27 28 28 32 32 33 33 29 26 31 29 28 30 35 30 33 31 28 23 30 26 24 26 23 22 25 25 19 25 26 28 20 17 22 21 22 23 21 
46 40 35 37 39 33 34 29 28 30 29 26 27 28 30 29 29 30 27 30 30 24 26 30 26 26 27 30 31 27 30 30 30 26 28 27 31 28 31 32 36 33 30 32 29 32 31 32 32 26 27 28 30 31 30 32 31 35 34 30 24 24 25 23 25 22 23 23 27 23 22 26 24 19 20 25 23 21 25 18 
45 37 34 36 37 32 33 33 29 27 29 29 31 27 27 27 28 29 31 31 29 28 29 29 26 29 30 29 31 32 28 29 28 29 32 30 30 31 28 28 31 35 29 31 29 30 34 32 28 26 26 26 35 29 30 32 28 31 30 28 24 27 24 25 23 25 23 24 27 22 21 23 22 21 19 22 21 19 20 20 
37 36 34 35 37 40 33 32 34 31 35 34 31 27 27 28 30 29 32 29 31 29 32 28 28 33 30 29 31 32 29 28 27 28 29 28 32 33 28 30 36 35 29 30 30 28 32 33 28 27 28 28 31 27 26 33 27 27 30 25 25 25 25 23 23 27 25 27 26 26 21 27 21 19 19 22 23 15 18 20 
39 36 36 37 34 30 34 28 29 31 31 32 28 28 28 26 29 30 28 29 28 30 29 26 27 27 30 30 29 29 38 31 25 26 27 27 31 29 28 29 35 39 33 28 27 29 33 29 28 26 25 26 28 27 29 28 29 27 27 24 22 25 25 24 26 24 23 26 26 28 27 27 23 20 19 22 24 19 18 21 
38 33 33 37 32 32 33 29 30 27 32 32 34 29 28 26 26 29 30 28 27 29 30 27 27 26 28 30 27 29 31 27 26 30 25 25 29 28 26 28 32 32 27 27 29 27 27 28 25 25 29 29 24 32 27 26 25 28 29 27 24 23 26 27 23 24 23 23 23 25 27 24 23 21 21 20 19 20 23 18 
37 34 33 35 31 31 30 34 31 32 28 29 30 27 29 26 29 27 33 28 27 28 28 28 27 24 26 31 26 28 28 29 27 23 23 29 27 26 28 29 30 31 28 27 35 25 30 28 28 26 27 25 25 27 31 27 23 24 29 25 24 24 25 24 26 24 24 23 26 21 18 25 23 21 17 23 14 18 20 19 
39 34 32 35 33 31 33 40 31 32 31 33 29 30 26 27 28 30 29 27 29 29 27 27 24 28 26 27 26 28 27 30 24 26 24 25 28 25 27 28 30 32 26 27 25 27 28 27 25 28 27 28 26 25 26 28 28 28 26 24 24 24 26 28 24 25 23 25 25 26 21 25 24 19 18 20 18 21 22 20 
38 35 35 31 33 30 36 34 31 32 31 32 31 30 29 26 30 30 27 26 28 30 30 24 27 27 26 27 29 29 25 27 23 24 25 25 28 26 27 28 27 25 26 27 29 28 28 28 28 25 26 27 26 25 26 28 22 24 27 25 23 25 25 23 24 23 22 23 25 23 21 22 23 20 19 21 15 19 21 23 
36 36 35 29 31 32 34 34 31 32 31 32 28 29 30 28 28 27 22 25 27 27 29 30 30 29 28 27 29 26 28 25 25 23 24 23 27 27 26 29 28 29 29 31 27 30 24 28 24 23 26 24 24 25 23 25 25 24 26 24 23 24 21 25 32 26 24 23 24 23 20 23 24 22 21 21 22 23 20 19 
35 39 33 34 34 29 34 33 29 29 28 29 29 30 28 27 26 30 24 27 27 30 32 30 26 27 28 29 27 28 29 26 26 25 24 24 26 23 26 27 26 28 27 29 26 25 27 25 25 22 22 21 25 22 23 27 23 23 22 22 25 25 22 20 23 22 22 22 22 19 22 22 23 23 20 21 23 17 22 16 
37 39 32 35 30 31 33 33 32 31 32 31 27 28 27 25 26 28 27 27 26 27 27 27 23 25 30 30 27 27 29 24 23 22 21 23 24 22 25 27 31 29 28 29 27 25 26 25 23 22 20 23 27 23 24 24 24 24 22 21 22 21 21 21 24 22 18 22 23 23 22 22 22 20 20 20 21 15 15 20 
38 33 32 31 33 32 33 34 31 34 32 35 30 30 27 26 26 29 28 29 25 26 27 27 22 27 28 29 30 28 29 27 25 21 21 25 25 25 26 28 28 28 27 29 27 27 29 24 23 24 25 25 27 26 24 23 23 21 26 20 22 25 21 20 24 22 17 20 22 22 23 21 21 19 19 22 22 15 16 17 
39 33 35 34 33 33 32 31 33 32 29 32 32 26 26 25 26 30 30 28 24 28 26 29 25 27 24 27 27 30 28 27 24 21 23 25 23 26 23 24 31 31 30 29 27 24 24 24 22 24 23 24 23 27 25 29 24 25 22 21 22 25 22 22 24 25 25 25 22 22 19 22 19 19 20 23 22 15 16 17 
34 38 34 34 32 29 30 32 32 31 27 30 28 27 24 24 28 28 27 24 25 25 28 27 25 28 30 25 29 26 29 24 23 24 26 26 26 24 25 27 29 29 33 28 27 27 22 24 24 23 25 21 25 23 22 22 29 23 20 18 22 24 23 23 25 22 22 23 23 22 22 26 22 18 21 19 21 14 19 18 
39 32 35 35 32 30 28 27 28 27 30 29 29 24 28 27 29 28 30 27 23 27 26 28 27 25 29 28 27 25 28 26 25 22 22 23 26 25 24 28 31 32 30 32 30 23 24 24 21 23 23 22 26 21 22 24 23 24 23 21 16 21 21 23 25 25 21 22 23 18 21 18 20 18 13 21 22 15 15 11 
33 35 32 34 32 30 27 34 29 29 30 29 27 28 24 27 26 28 26 24 25 25 25 28 26 26 30 30 28 25 28 24 22 23 20 23 23 25 24 27 33 29 29 27 28 25 22 21 18 21 22 22 19 22 25 25 20 20 22 17 17 22 21 24 27 26 23 21 22 24 17 19 22 19 17 22 22 12 14 15 
40 33 34 33 34 31 27 30 31 29 31 32 28 28 27 25 25 27 28 27 25 27 25 28 25 24 26 28 28 28 27 23 22 22 23 25 26 27 25 25 31 30 28 28 28 26 24 25 21 25 24 22 25 22 22 26 22 21 20 19 18 24 24 23 25 24 21 24 22 20 22 22 21 17 20 20 25 18 16 15 
34 33 30 35 32 32 28 28 30 26 28 31 28 27 28 27 30 28 27 27 24 26 26 27 28 28 27 28 28 27 26 25 25 24 26 23 22 25 29 24 29 29 26 28 29 29 23 24 20 21 26 24 24 21 23 26 26 25 22 16 17 20 17 20 24 21 22 21 21 18 17 23 20 19 18 22 21 11 17 16 
36 30 27 34 29 28 28 27 31 27 30 26 28 27 27 24 22 27 28 25 25 26 26 26 22 27 25 26 27 23 27 24 22 23 22 21 26 24 24 25 27 24 24 25 28 24 21 26 21 22 22 22 23 22 22 26 23 26 21 22 18 23 22 19 22 20 19 19 19 17 17 19 19 19 17 13 20 15 15 9 
35 32 33 34 32 28 29 29 29 25 28 31 27 26 23 25 26 29 28 25 25 25 25 29 23 23 24 25 27 25 26 25 23 24 22 22 22 24 23 26 27 28 27 26 27 24 18 18 19 19 21 22 23 24 21 23 22 21 22 16 21 23 18 23 20 23 18 17 18 15 16 17 20 18 14 17 21 15 16 15 
36 35 35 34 29 31 28 30 29 27 30 31 32 28 25 27 26 32 32 25 26 26 27 28 24 24 25 25 25 25 29 25 26 25 23 23 23 24 28 27 28 28 28 27 26 26 25 24 19 17 24 21 22 23 20 29 22 22 20 20 21 22 21 23 23 25 19 19 24 19 18 19 20 14 20 21 18 17 17 17 
37 34 34 35 35 32 31 33 30 27 28 31 26 25 29 26 26 31 29 31 25 26 28 26 28 24 25 23 24 25 27 26 23 25 22 24 23 24 28 29 28 28 27 24 23 26 23 26 23 22 24 22 26 20 24 24 19 21 21 20 16 21 17 19 25 24 22 21 22 22 19 19 17 18 17 17 21 21 18 21 
37 34 30 32 32 30 28 34 28 27 30 31 29 29 26 25 24 29 26 24 26 26 26 31 30 25 26 26 23 27 27 22 24 23 24 26 26 26 28 28 29 28 29 27 27 25 26 24 22 24 23 23 24 26 24 22 19 20 18 17 15 16 17 14 16 20 19 17 21 20 18 20 19 19 16 19 19 20 22 19 
33 33 32 35 31 31 30 30 29 27 29 27 27 29 29 26 26 25 28 26 24 25 26 29 26 27 31 26 24 23 25 22 26 24 24 26 22 26 27 26 25 26 28 28 29 24 23 24 22 22 22 27 27 25 21 21 18 21 19 15 15 23 17 15 19 18 17 18 17 16 15 20 18 18 18 20 16 21 22 17 
33 35 35 34 30 29 32 30 28 26 31 29 28 25 27 26 26 26 30 25 25 27 30 27 31 23 24 25 27 26 23 23 23 16 22 23 27 28 25 25 26 28 24 25 28 27 24 24 24 22 24 21 24 22 23 24 22 18 18 12 16 19 16 19 18 19 18 18 14 18 15 16 20 15 16 18 16 14 21 18 
35 34 34 34 32 29 29 28 30 26 29 35 28 27 29 24 26 29 29 27 27 28 27 27 25 29 24 24 28 25 29 21 20 23 22 27 27 27 25 27 30 30 26 31 27 27 26 24 23 22 21 21 25 24 26 22 21 22 21 18 18 20 19 21 19 20 19 20 20 20 14 17 18 17 17 20 21 18 17 19 
37 31 30 31 29 30 27 31 26 26 30 32 28 28 29 24 27 29 28 28 26 26 25 28 26 25 26 22 25 27 26 22 23 22 24 24 27 27 23 25 31 29 28 28 28 25 27 31 22 20 20 21 23 27 23 20 18 20 21 17 17 19 17 16 16 21 19 17 19 20 19 15 21 14 17 22 22 21 15 18 
37 31 28 30 28 28 30 35 25 25 28 33 29 30 28 24 26 26 26 27 31 25 25 28 27 25 24 28 22 24 25 22 24 22 23 22 24 22 23 23 30 28 25 29 28 27 24 24 23 19 20 21 21 21 19 22 18 19 15 18 17 22 17 16 17 20 16 20 19 18 13 19 15 17 16 17 18 16 15 15 
37 34 28 30 27 24 26 27 27 30 29 29 28 31 27 24 31 27 25 29 30 29 25 27 23 24 22 23 22 23 27 23 23 23 21 26 23 23 23 27 27 25 24 28 25 26 21 22 23 18 21 19 19 21 18 20 17 20 15 14 19 19 16 16 18 24 15 13 19 17 16 16 16 14 15 17 19 16 15 16 
33 32 27 26 26 27 25 27 24 25 30 32 26 24 27 27 28 31 30 26 24 24 28 24 24 24 23 21 24 24 25 23 21 21 21 23 20 23 22 22 26 25 24 27 28 28 20 21 20 18 18 20 20 19 18 20 16 21 14 15 17 18 20 15 15 18 16 17 11 14 15 14 15 13 15 18 18 13 15 17 
36 32 27 28 29 26 28 31 29 30 26 29 30 30 28 30 29 29 30 26 28 30 26 26 23 25 23 26 27 24 24 21 21 19 24 25 22 23 25 24 26 27 27 28 26 26 21 22 20 20 19 21 21 21 17 20 21 20 16 18 19 17 18 19 18 20 16 16 16 17 13 17 17 13 11 14 18 13 13 13 
41 30 31 26 25 26 29 31 28 31 28 29 29 30 27 28 29 28 27 25 25 30 32 28 25 24 25 23 24 22 23 22 20 21 20 22 26 26 23 26 26 29 27 28 24 23 19 19 20 18 20 20 21 20 18 21 20 18 20 18 19 17 17 19 18 20 16 20 15 16 11 16 16 13 12 13 15 14 13 14 
34 34 33 30 30 30 31 31 29 31 30 34 30 28 28 28 28 30 29 28 25 26 25 28 23 21 24 27 22 25 24 20 20 20 20 20 24 26 24 25 24 25 24 27 26 19 18 19 15 20 21 19 21 21 21 20 18 21 19 14 18 17 20 15 19 16 13 14 19 17 9 12 15 14 13 18 18 13 14 11 
35 28 23 31 31 26 30 27 27 27 28 32 27 26 27 26 28 28 28 25 23 25 25 23 22 22 23 26 25 25 20 21 20 20 19 21 22 23 24 22 20 23 26 26 22 21 17 15 15 15 17 16 19 22 19 22 19 18 18 11 17 17 13 15 17 17 14 13 17 14 13 15 12 9 12 15 17 11 8 14 
40 30 28 31 36 34 26 28 27 22 27 31 27 21 28 23 24 28 23 27 26 23 23 27 23 24 22 24 24 24 27 22 19 20 22 23 23 19 22 18 18 24 24 27 26 19 16 19 18 17 17 14 16 22 15 22 18 17 15 15 14 15 18 12 15 14 8 15 12 13 14 14 14 7 10 14 15 12 10 11 
38 31 24 31 32 29 25 26 29 29 27 25 27 24 24 22 25 25 25 26 20 24 25 26 28 22 24 23 24 26 26 20 18 20 19 24 21 16 23 20 26 25 22 28 24 21 17 17 19 13 15 14 17 16 18 19 18 16 20 13 13 14 12 11 12 14 12 10 13 11 13 10 9 7 9 12 12 6 9 7 
32 29 25 32 33 32 27 29 29 26 28 28 27 27 23 24 22 21 23 20 21 26 24 24 26 26 27 26 22 21 25 20 18 18 19 21 21 19 17 18 21 22 24 25 23 21 18 15 13 17 15 16 16 19 16 17 20 16 18 11 12 15 9 10 11 13 11 12 12 14 12 14 12 10 9 10 9 4 7 5 
35 31 27 28 27 26 29 27 28 26 30 29 25 22 26 22 23 23 29 26 21 19 25 22 23 26 27 24 24 20 20 21 20 15 17 19 17 20 16 16 25 22 24 22 21 19 16 18 15 14 19 14 18 18 18 19 20 16 15 11 12 16 14 11 14 14 10 12 13 13 11 14 13 11 11 7 14 10 10 9 
30 29 28 29 29 30 28 27 27 28 30 32 25 28 23 21 23 24 30 25 22 21 21 23 21 24 22 25 23 22 21 17 17 20 14 17 19 19 18 22 26 27 23 26 24 17 17 15 17 16 17 17 19 20 22 20 16 15 12 14 10 17 9 13 16 13 7 10 13 12 14 15 11 11 6 13 10 2 4 8 
29 30 26 29 26 24 24 28 27 29 30 31 34 29 25 24 24 25 26 27 24 20 23 23 21 23 20 21 19 21 20 16 19 20 18 17 16 20 21 18 26 27 26 24 24 18 13 14 17 18 17 15 17 20 19 23 15 16 14 9 11 11 10 6 12 13 5 8 9 10 6 11 9 6 8 14 13 8 6 0 
30 27 25 26 28 26 25 27 27 31 27 34 28 29 26 23 26 27 27 24 23 22 26 20 18 21 22 19 23 22 21 20 19 15 13 15 23 20 19 21 25 31 25 23 23 19 14 18 19 18 17 17 19 20 17 19 19 18 17 14 12 13 11 11 10 13 7 5 11 11 7 10 13 7 9 8 10 10 8 7 
29 25 23 28 28 25 25 27 30 32 31 31 26 27 24 19 24 27 27 27 27 24 25 20 19 19 21 20 25 20 21 18 18 18 14 20 20 19 22 20 26 28 30 23 21 19 13 18 14 15 18 21 20 17 15 18 14 14 14 9 11 13 8 11 12 15 5 8 10 5 9 10 14 9 6 11 11 7 7 9 
31 29 23 24 26 26 27 26 29 29 27 28 27 25 22 22 25 26 27 25 24 25 23 22 20 22 20 21 24 21 19 20 19 17 16 21 27 18 17 23 25 27 25 24 18 14 11 12 15 17 16 18 19 18 14 17 14 15 15 11 11 12 8 11 14 12 7 10 9 8 5 10 11 7 4 8 8 6 8 4 


