P2
80 60
148
141 136 143 139 138 143 138 142 144 136 140 137 141 140 135 136 141 134 136 133 137 137 135 132 135 133 136 138 137 136 134 136 142 140 139 139 136 133 132 132 134 134 134 135 137 133 133 133 137 138 130 132 134 132 134 134 140 141 143 135 131 134 135 131 128 128 130 129 128 125 122 128 132 130 132 130 129 130 128 127 
140 133 144 142 137 138 141 144 139 140 140 140 138 138 140 139 138 136 135 136 137 136 133 136 131 132 137 140 137 138 137 138 140 142 142 140 138 131 130 131 136 135 134 134 133 135 131 137 136 134 131 135 134 136 134 137 140 135 136 133 133 132 131 127 131 128 131 129 128 132 126 126 130 128 130 128 128 131 127 128 
143 138 137 138 136 137 138 137 142 139 144 138 138 134 136 137 137 134 139 136 135 136 139 135 138 139 138 136 137 139 140 142 140 139 141 139 137 131 134 132 128 136 135 132 134 133 132 134 137 138 134 130 133 135 134 134 137 133 130 132 133 131 130 129 127 127 126 131 129 127 127 124 125 124 125 127 118 127 129 118 
141 133 141 138 135 138 137 137 138 139 142 138 135 135 139 141 140 134 137 134 138 136 135 135 138 136 137 135 138 137 136 140 139 138 142 139 133 133 136 131 135 135 137 134 133 134 134 136 141 134 133 132 134 134 135 136 135 132 131 131 130 131 131 130 127 125 125 131 129 129 126 131 130 124 127 131 129 129 127 121 
146 133 139 138 135 139 140 137 142 139 139 136 134 135 137 139 138 137 136 136 137 138 135 137 135 136 138 136 138 138 134 140 138 141 137 136 134 132 135 134 132 134 135 134 135 135 136 136 133 137 131 129 133 136 136 132 137 133 131 131 133 129 133 132 128 126 126 132 129 129 128 128 127 124 130 130 130 131 125 125 
140 133 140 142 135 140 144 139 141 138 139 137 134 137 134 136 138 137 136 136 138 137 137 136 133 136 137 136 140 135 137 136 138 140 137 136 131 133 133 132 132 135 136 135 133 134 136 135 132 132 132 134 136 132 135 135 133 133 128 131 134 135 130 130 128 125 127 131 134 132 130 127 128 123 127 126 134 132 122 120 
141 135 140 139 137 139 140 143 141 137 138 141 138 136 135 140 142 137 140 136 137 135 134 135 138 135 136 138 134 135 138 136 136 136 136 139 135 133 133 133 135 136 134 132 134 134 134 133 136 134 131 137 134 134 136 136 137 136 135 134 132 131 132 129 127 124 125 133 133 130 125 127 125 124 128 129 125 130 123 121 
140 136 144 139 137 141 139 140 140 135 140 139 139 137 136 138 139 139 142 135 138 135 136 136 133 136 138 132 137 137 134 133 135 135 138 140 138 130 132 131 133 133 131 135 129 135 135 132 132 134 133 135 134 133 133 133 134 135 132 133 132 131 132 127 125 125 126 132 129 128 124 126 125 122 125 128 120 123 119 122 
148 140 142 142 140 141 143 143 138 143 136 137 139 136 134 139 142 134 138 135 137 134 132 136 137 140 137 141 141 138 139 136 134 134 141 139 135 132 133 133 131 133 128 132 132 132 136 132 133 131 130 135 133 130 130 133 133 131 134 138 134 132 133 128 128 128 127 130 127 127 128 123 125 121 121 124 124 126 121 121 
146 138 141 147 141 140 144 143 143 135 138 137 136 134 138 138 142 137 138 136 135 137 137 134 137 138 138 139 137 139 134 136 138 134 139 137 134 131 132 132 129 132 129 133 133 132 131 131 131 132 131 132 132 129 132 132 133 134 131 131 128 130 133 127 127 127 126 127 130 126 127 126 128 119 119 120 127 127 118 119 
145 138 144 145 143 145 143 139 139 137 137 139 137 134 137 135 137 133 137 135 133 133 134 134 135 138 136 134 135 132 133 136 134 133 136 133 130 127 131 132 131 129 130 130 130 131 130 131 132 132 132 132 132 131 134 131 134 130 128 129 129 130 126 126 125 127 124 129 127 128 124 124 127 123 123 125 120 124 124 112 
144 140 145 146 142 139 140 139 139 134 138 137 140 136 135 134 138 132 134 133 133 135 135 134 134 139 134 135 135 134 134 133 139 135 134 133 131 130 130 130 133 131 125 131 130 132 131 131 127 131 130 132 131 133 132 132 132 131 126 130 130 130 129 125 123 125 126 128 128 123 121 124 123 127 128 123 123 123 120 124 
143 138 141 142 141 140 141 137 138 133 137 137 137 138 134 134 136 134 131 134 135 134 135 133 135 133 133 136 131 133 135 134 136 138 135 134 127 129 133 131 131 129 130 130 131 129 135 132 129 129 133 132 130 126 132 129 134 128 128 130 132 128 133 127 126 126 124 126 124 124 113 123 121 125 126 123 124 123 119 120 
141 135 144 142 141 139 139 136 136 134 138 135 138 137 133 138 135 133 133 126 134 134 133 136 135 135 135 132 131 132 136 134 138 135 135 131 131 133 130 130 133 131 129 133 129 132 133 132 129 137 132 131 130 129 128 130 135 130 131 133 133 129 130 127 125 124 126 127 126 125 125 123 125 120 121 124 125 125 119 118 
143 135 145 145 143 140 141 139 136 136 134 136 135 133 132 136 138 131 134 128 129 131 134 132 134 136 133 135 137 133 132 135 134 134 136 134 134 133 129 132 134 136 132 132 131 130 133 132 130 134 131 133 130 129 130 129 137 144 133 133 130 129 128 127 123 130 125 128 127 124 127 127 125 122 123 124 125 130 127 122 
144 138 148 143 136 140 139 140 140 136 134 134 134 137 134 136 138 132 133 130 132 131 134 137 133 135 134 135 134 134 133 134 135 133 135 134 133 132 129 135 142 136 135 133 132 133 134 133 132 131 128 125 127 128 131 132 134 133 129 133 128 127 130 128 127 124 124 131 127 129 125 129 126 121 124 125 125 127 122 120 
143 140 147 144 138 137 137 136 137 136 133 137 133 133 134 134 135 134 133 129 133 135 132 131 134 133 130 136 136 135 132 135 134 136 134 132 132 133 135 139 138 135 132 133 136 139 137 134 134 133 128 129 130 132 130 131 136 135 130 129 129 129 126 125 125 126 128 129 129 127 129 127 127 119 120 123 121 123 126 120 
142 136 146 141 138 134 135 134 136 132 132 138 132 134 134 133 132 131 131 133 134 135 131 132 132 131 134 137 137 133 135 133 137 132 135 135 135 132 138 136 134 133 133 136 133 132 135 132 132 134 130 132 138 133 134 133 134 137 134 129 132 127 126 125 125 122 126 133 128 128 128 126 119 114 121 120 119 118 123 118 
144 141 144 141 137 137 139 138 136 134 136 136 135 133 132 134 133 134 134 129 133 133 133 133 132 132 136 140 137 134 133 135 137 133 137 134 135 134 136 134 134 134 129 134 133 132 133 132 131 133 130 131 136 133 131 130 134 134 130 128 125 127 128 128 123 127 124 127 128 126 126 126 124 113 116 114 117 115 121 119 
140 142 143 138 136 146 138 136 136 133 140 137 133 134 131 134 133 130 134 130 132 139 137 133 133 135 136 134 133 133 134 135 136 134 136 136 136 139 137 135 138 138 130 132 131 132 132 138 130 133 129 133 130 131 130 128 133 130 129 125 126 128 129 127 129 126 126 128 131 129 124 127 120 113 113 114 118 114 115 117 
143 138 144 136 138 139 138 132 133 136 135 135 135 135 131 133 138 135 131 130 131 135 135 132 135 133 131 132 132 132 141 135 132 132 133 134 134 135 135 134 134 138 134 132 132 129 131 128 132 127 130 133 129 129 128 129 132 129 129 125 125 127 127 124 128 125 126 126 127 129 128 125 121 115 117 116 117 115 114 114 
143 142 143 141 138 138 141 137 135 133 136 135 139 136 134 131 133 132 131 131 133 135 137 133 135 134 137 133 132 132 134 132 132 132 132 134 135 132 134 136 137 136 129 130 127 130 130 130 128 130 131 131 130 135 128 127 133 131 130 127 128 126 124 130 128 129 125 127 126 130 132 122 121 117 116 113 116 112 114 114 
146 140 143 143 138 138 136 142 138 137 136 136 136 138 134 137 134 133 134 135 132 131 132 131 134 135 135 136 131 130 129 130 131 133 132 136 131 134 134 140 133 131 131 130 131 128 132 128 129 129 130 129 129 129 132 127 129 128 128 129 130 128 129 128 131 129 126 129 129 127 124 127 125 115 112 115 117 116 114 115 
144 139 140 141 137 136 138 145 138 134 134 137 136 135 131 137 136 133 133 131 134 131 132 128 131 131 132 136 136 131 132 131 132 131 130 131 132 133 135 134 131 133 128 127 128 129 129 130 127 134 126 130 129 129 130 127 133 129 125 129 124 127 127 132 127 127 128 128 127 129 126 124 122 113 117 114 119 115 121 119 
144 139 139 141 136 140 137 141 138 137 135 137 135 135 132 138 139 136 134 134 135 131 132 132 132 130 134 132 131 132 127 130 132 128 132 130 133 132 132 133 129 126 131 128 133 130 131 129 130 131 128 128 125 127 129 128 128 130 124 125 123 125 123 128 129 126 128 127 128 127 124 124 121 117 117 118 117 114 117 115 
139 140 143 137 137 138 139 139 138 135 137 136 134 135 136 136 136 134 131 131 134 132 135 135 134 134 133 133 132 134 130 130 131 129 132 131 133 130 131 133 133 130 129 128 127 130 131 131 131 131 128 127 128 127 127 125 131 125 129 130 124 124 125 128 130 127 127 128 128 130 124 124 122 117 116 113 119 112 118 116 
142 135 142 143 135 137 139 134 137 133 137 137 133 134 132 135 135 136 134 130 136 134 135 133 135 134 133 134 133 132 134 127 132 131 137 131 131 131 132 132 131 131 129 127 127 129 131 129 132 128 130 128 127 125 125 129 130 127 125 126 127 124 123 126 128 128 125 128 128 124 122 122 122 119 114 114 113 111 119 119 
139 134 141 141 136 134 136 138 138 136 136 134 135 133 131 135 133 130 131 132 132 132 133 133 132 132 134 136 134 137 131 130 128 131 134 131 133 127 131 133 131 130 127 130 125 128 130 128 131 127 125 127 127 127 126 124 130 122 126 126 127 125 126 126 127 124 122 127 126 128 122 124 121 114 114 112 108 112 112 113 
136 136 136 138 132 141 137 138 137 136 137 137 135 136 133 133 133 131 133 133 130 130 133 130 133 133 134 134 137 134 133 130 129 128 127 130 129 130 131 134 130 129 128 128 128 126 126 128 125 125 128 118 125 127 124 125 127 126 124 125 125 125 125 128 124 126 125 127 124 125 124 121 120 108 111 110 111 104 110 114 
143 137 144 140 138 135 138 140 138 134 135 134 138 134 132 130 130 128 130 128 128 129 134 130 132 132 132 131 133 132 128 132 129 133 129 133 133 134 130 129 130 130 130 129 127 124 127 123 128 129 126 128 128 126 127 130 127 126 125 122 128 127 129 128 128 127 128 126 124 124 123 123 117 108 109 113 109 112 112 113 
140 135 141 142 136 133 139 136 136 135 140 133 136 134 129 130 133 129 130 128 131 129 132 131 133 132 131 133 132 134 132 129 132 132 134 134 128 127 133 130 131 128 133 134 128 125 123 126 129 127 126 127 127 123 128 123 135 126 121 123 127 126 129 128 129 130 125 127 125 125 120 123 118 112 109 106 110 109 112 111 
139 137 138 141 133 138 136 133 135 132 138 134 132 133 133 132 133 130 134 130 127 128 133 130 130 134 136 132 130 131 131 129 129 129 131 129 130 130 131 134 135 132 131 132 129 125 125 125 126 131 125 126 126 126 125 125 131 127 122 122 124 125 127 129 127 126 128 126 123 123 123 122 118 110 113 110 108 107 108 111 
137 136 139 138 138 137 135 136 139 134 137 136 134 130 132 131 135 131 130 131 132 131 133 130 132 131 134 133 132 129 130 127 131 132 129 129 127 127 131 133 131 131 128 127 130 125 124 125 128 128 126 124 126 125 127 126 130 125 123 125 126 124 130 126 124 123 125 125 128 125 122 123 118 109 113 110 105 106 108 110 
141 136 141 136 139 138 138 133 137 134 138 135 137 133 134 134 133 131 131 127 130 129 133 131 134 133 133 133 134 131 131 129 129 132 128 126 130 128 132 132 131 128 128 129 130 126 128 125 126 128 128 124 127 127 126 127 131 126 124 126 126 128 123 127 126 123 126 125 125 127 123 121 117 111 112 111 105 105 111 112 
138 136 140 138 136 135 133 134 131 137 134 135 134 135 131 132 132 132 133 131 129 131 131 131 136 135 131 138 133 131 132 132 132 130 130 127 131 129 130 132 128 131 131 126 127 132 127 127 129 126 126 128 128 126 129 126 129 125 123 124 122 125 126 125 125 122 121 126 124 123 126 125 117 112 111 110 110 107 112 112 
139 137 141 137 135 136 133 134 129 133 134 137 132 133 132 134 132 132 134 129 131 131 131 130 130 132 130 132 131 133 129 130 131 129 131 127 132 128 130 130 129 128 127 124 127 127 129 132 127 126 124 123 127 130 124 126 127 123 122 126 125 123 126 124 122 123 122 127 128 121 123 125 116 112 109 109 107 106 112 111 
139 136 142 139 138 136 133 135 134 132 133 133 132 133 133 132 134 135 134 130 131 131 133 130 131 130 128 132 130 129 131 131 132 132 130 130 131 129 131 133 131 127 125 124 125 129 127 126 124 123 123 124 126 126 125 125 127 127 122 124 125 126 122 126 123 123 122 122 122 120 123 123 117 109 109 104 103 105 108 109 
145 136 143 139 136 134 136 136 132 133 133 132 132 135 132 131 134 133 132 130 134 131 132 130 132 130 128 129 131 129 129 131 131 131 133 130 130 129 133 130 127 128 125 124 126 127 125 127 125 125 122 128 125 126 126 124 129 124 125 123 123 120 122 120 124 126 120 124 124 120 121 124 116 107 105 104 108 101 107 112 
139 138 147 141 135 139 139 138 137 135 134 133 138 131 130 134 134 132 135 133 131 130 131 133 132 131 130 138 131 130 132 128 132 130 131 132 131 129 131 131 125 129 128 126 127 126 128 126 126 127 128 129 126 127 127 125 125 122 122 119 121 126 122 122 124 124 124 126 121 122 123 124 115 102 105 107 108 105 110 113 
139 138 142 139 136 143 138 139 138 135 138 136 135 132 131 133 133 130 131 129 131 129 135 135 129 131 129 132 127 131 129 129 130 130 131 133 128 130 132 131 127 128 128 127 126 125 128 126 126 127 129 129 126 128 123 123 127 122 120 124 120 121 123 122 120 122 122 123 121 120 119 122 109 105 104 100 105 109 110 117 
139 137 140 137 132 136 136 140 138 130 135 135 136 134 133 134 132 130 129 130 129 131 129 132 134 131 127 128 126 127 128 129 131 131 131 129 132 128 130 125 128 126 123 125 125 125 127 127 126 128 126 133 128 129 127 122 127 120 121 122 119 119 121 121 120 118 118 120 119 119 115 119 115 105 104 104 107 106 113 108 
143 135 141 138 135 135 129 133 132 132 135 134 136 130 132 131 131 129 130 128 129 128 130 129 136 132 126 126 129 129 126 128 127 127 131 133 133 130 131 129 123 126 123 119 126 125 125 127 125 127 127 129 127 126 126 121 127 119 119 120 121 120 119 124 122 114 118 120 118 119 116 115 93 83 94 104 103 108 103 108 
139 137 142 136 134 137 133 132 133 130 134 133 132 134 132 132 129 132 133 130 129 128 132 131 131 131 130 130 128 129 127 125 129 128 129 131 130 130 132 129 126 126 121 122 123 121 127 125 125 123 122 126 127 124 124 124 125 119 121 120 121 120 123 125 121 120 116 118 120 114 115 109 52 32 74 94 101 100 102 105 
141 130 139 135 136 136 132 134 132 128 134 136 133 134 131 131 130 130 133 132 129 129 129 131 130 129 130 129 128 126 127 129 127 127 127 127 128 128 126 131 128 126 122 124 126 125 132 134 126 122 124 124 123 122 122 119 122 121 120 121 121 120 120 121 125 118 121 121 121 113 118 103 33 6 54 95 95 103 102 98 
139 135 138 132 132 134 133 137 135 129 131 133 132 137 132 130 130 131 134 130 133 130 134 131 132 131 126 128 128 128 130 130 129 127 127 126 128 128 129 129 129 124 123 121 125 123 125 125 127 124 121 123 122 120 121 119 120 118 119 121 116 120 123 121 118 118 122 119 120 119 111 100 26 4 45 96 100 97 101 102 
140 133 140 140 133 136 132 134 130 129 131 132 133 134 133 131 135 131 130 126 130 127 132 127 132 131 125 127 127 127 127 130 128 126 126 129 129 127 126 130 123 122 122 124 124 125 123 123 123 122 123 122 120 119 116 118 122 119 120 119 121 118 118 118 118 118 119 118 119 119 115 100 24 6 53 87 101 99 101 103 
136 133 135 132 132 134 134 134 130 129 132 129 133 133 132 129 132 129 133 128 125 129 131 130 129 127 126 128 128 126 125 123 128 125 124 126 127 127 127 126 124 124 121 124 124 124 122 123 121 121 120 121 121 118 119 117 118 116 117 117 120 118 121 118 117 117 115 123 116 111 114 95 26 2 54 85 94 96 95 99 
136 134 132 130 132 135 131 137 134 131 132 132 130 133 131 133 131 133 130 129 128 131 133 136 128 130 124 126 128 128 123 123 126 123 127 126 127 125 127 126 123 121 120 121 121 122 124 121 121 120 118 119 121 117 116 119 120 116 116 115 117 118 117 120 115 115 116 115 118 111 110 92 22 11 53 85 92 96 102 99 
138 133 135 134 129 134 134 137 138 129 130 133 129 131 132 133 130 131 128 127 130 130 136 131 129 127 124 123 125 126 125 124 125 124 130 123 129 128 129 128 122 123 118 121 123 119 121 118 117 116 115 117 119 117 117 117 121 113 118 117 115 112 117 117 114 118 116 116 113 110 112 90 17 6 49 85 92 99 102 96 
140 133 136 132 133 131 133 136 133 135 134 131 132 129 134 140 134 132 127 128 128 128 130 130 129 130 126 126 129 129 122 124 124 128 126 126 126 124 128 128 123 121 121 121 121 120 117 119 119 118 115 116 120 117 118 115 120 114 115 111 113 116 114 117 114 118 114 115 113 111 105 87 16 4 38 85 92 96 96 95 
135 130 132 132 133 133 140 133 131 133 132 130 127 133 134 131 133 131 129 126 128 127 128 127 132 127 123 124 123 125 122 122 127 125 128 126 121 123 128 125 120 121 120 121 123 116 120 119 116 115 116 118 117 119 116 114 116 118 113 116 115 113 114 116 114 113 111 113 113 109 105 80 10 0 46 83 91 94 95 101 
137 131 134 130 133 137 135 138 133 131 130 129 130 125 133 131 132 130 128 129 130 125 125 127 127 127 125 122 126 124 124 124 124 124 130 126 129 124 128 123 120 120 121 117 119 122 117 117 117 115 115 113 113 117 117 115 118 114 116 116 113 113 112 114 112 111 107 114 109 109 107 86 16 2 37 85 90 95 92 101 
141 131 136 136 131 139 138 137 133 134 130 130 125 125 126 129 130 130 129 126 128 125 126 129 129 127 124 127 127 125 126 124 125 122 125 126 127 129 127 126 121 115 115 119 119 121 120 119 118 117 118 116 115 117 117 117 120 114 118 116 116 113 110 110 114 109 108 114 112 108 107 89 38 19 54 87 91 99 98 105 
137 133 133 130 135 141 136 140 138 129 134 133 129 125 126 126 130 131 127 124 127 126 128 125 128 131 126 126 125 124 125 126 124 121 124 125 127 128 127 124 121 117 113 115 117 117 120 123 118 119 116 116 115 117 117 113 120 116 117 114 113 118 112 111 108 111 111 110 108 110 109 101 79 54 81 93 100 100 98 101 
138 130 136 135 137 131 135 139 134 132 133 132 131 130 133 135 131 128 128 124 125 124 125 123 126 127 127 125 124 123 120 122 121 126 124 125 127 123 118 119 115 118 115 114 117 117 116 116 117 114 113 114 117 113 115 112 116 115 112 117 114 113 110 113 111 109 110 106 109 107 110 108 96 89 101 104 103 101 101 102 
134 130 134 129 131 131 132 132 128 129 129 133 129 131 129 134 130 127 127 124 126 125 126 123 126 127 125 122 122 124 119 121 119 120 125 124 121 117 114 115 115 115 115 117 117 117 115 116 115 114 110 113 111 113 116 110 116 114 113 115 111 112 110 108 111 108 108 106 107 107 112 105 98 95 104 103 103 100 103 104 
131 127 131 132 127 130 127 133 130 128 132 130 135 132 128 128 127 125 127 127 125 126 130 123 126 124 124 123 120 120 120 119 121 118 121 119 120 112 113 116 117 115 114 112 115 112 115 117 119 115 111 112 112 112 110 112 116 111 111 112 111 110 112 109 109 105 108 107 108 107 102 105 95 96 105 108 109 107 106 102 
134 126 129 128 127 128 126 127 131 129 134 134 132 133 126 125 130 127 125 125 122 126 130 125 125 124 125 121 119 120 120 126 120 118 119 119 122 112 111 115 111 115 112 114 113 112 114 118 117 115 109 110 108 112 112 110 114 112 111 110 110 110 107 107 108 109 107 109 108 107 104 101 94 90 102 106 108 109 105 103 
132 130 132 133 131 128 129 138 133 130 126 130 129 129 128 128 126 129 127 125 125 125 127 122 124 122 121 124 122 121 121 119 122 118 122 122 119 114 113 112 112 113 121 113 112 114 116 115 115 113 108 110 111 113 114 109 113 108 107 110 107 108 110 107 108 110 108 106 108 102 103 100 96 89 104 104 107 109 101 103 
138 124 133 130 128 130 133 133 127 127 130 130 129 127 124 120 125 127 128 123 127 125 127 124 122 120 121 126 120 119 121 122 120 122 119 121 125 112 113 113 113 111 113 115 112 111 113 114 114 112 107 110 111 112 108 109 110 107 109 109 109 110 107 111 106 108 106 107 106 104 103 94 98 88 100 104 111 109 104 102 


