P2
80 60
35
25 23 21 22 26 21 23 25 31 26 26 24 23 22 25 24 24 21 22 24 22 23 27 22 25 22 23 26 26 24 25 27 27 24 32 22 23 25 22 26 21 22 25 23 25 26 21 23 24 22 25 21 22 27 24 26 27 26 19 23 23 18 23 24 25 19 13 13 15 14 16 15 12 18 17 15 12 9 8 9 
25 25 23 21 23 24 22 25 25 28 23 27 29 23 24 26 25 24 26 26 24 23 24 24 24 25 27 28 27 22 25 29 26 26 35 25 27 26 25 26 23 23 24 25 24 26 23 22 23 21 23 24 22 29 26 27 27 29 23 24 23 19 19 18 19 19 17 14 16 18 11 14 15 16 17 17 12 9 13 16 
21 26 24 21 25 25 26 25 27 27 26 24 24 25 26 28 23 21 25 25 23 24 24 21 22 25 24 25 25 28 30 29 29 29 26 25 26 28 29 26 23 23 22 22 24 25 21 22 24 23 23 26 23 27 20 26 27 27 22 22 24 18 18 19 18 16 16 17 15 18 16 17 13 14 16 16 16 10 11 15 
25 23 20 21 25 25 26 27 28 28 30 27 24 23 24 27 25 26 25 26 23 24 24 24 23 23 26 28 25 29 25 28 26 28 24 24 28 30 28 26 23 24 24 25 25 24 24 22 27 25 23 24 26 25 20 23 23 22 24 20 25 21 19 21 18 15 19 18 14 17 14 17 15 17 18 13 12 12 13 13 
28 23 24 25 22 22 27 24 28 31 29 26 28 24 24 28 24 24 27 24 28 24 25 24 24 23 32 26 26 26 26 27 23 22 24 22 23 27 29 28 25 25 30 25 26 22 22 22 22 25 20 24 24 22 23 24 21 21 22 24 22 18 20 26 22 17 22 16 20 18 16 16 13 19 16 15 15 12 11 13 
28 24 25 23 27 23 25 25 31 27 26 25 32 26 25 25 25 26 28 26 25 27 25 23 23 25 28 26 27 25 24 26 23 26 25 25 23 25 26 28 25 25 29 22 27 26 28 24 23 22 24 24 26 25 25 27 24 28 23 22 22 20 23 20 21 16 15 18 21 21 19 12 12 17 16 14 19 14 15 12 
27 22 27 22 28 25 26 27 26 26 27 26 27 28 25 27 31 31 28 29 24 28 28 25 24 23 29 28 27 24 24 26 21 26 26 26 29 28 22 27 28 24 26 23 24 24 24 22 23 23 23 24 27 26 23 27 23 28 29 25 24 18 21 20 19 17 16 23 19 17 14 15 13 13 15 15 13 16 9 14 
26 25 23 24 27 29 26 26 26 28 30 26 28 26 26 28 29 29 24 28 28 28 26 21 22 24 24 26 25 27 22 24 23 27 25 31 26 24 24 29 25 22 25 25 26 27 22 23 22 21 24 25 25 25 21 26 23 24 23 23 22 23 23 24 17 21 19 17 19 15 12 14 15 14 17 14 13 8 13 15 
30 31 26 25 29 29 27 24 29 30 23 25 29 26 25 26 26 27 25 28 25 25 24 25 24 23 24 29 27 24 27 24 24 28 25 27 26 27 26 25 22 25 21 26 24 22 22 23 21 20 20 24 22 29 22 27 23 22 24 27 25 18 20 23 18 18 19 16 19 14 15 13 12 15 11 13 9 11 10 16 
31 30 26 28 28 28 28 29 27 26 28 25 27 25 24 26 31 26 26 22 30 24 24 25 26 22 25 28 24 25 23 24 26 25 25 25 23 24 23 27 22 22 24 21 22 23 23 21 22 22 19 18 21 23 22 27 24 24 25 23 21 21 18 22 16 19 19 16 18 16 14 16 15 17 14 14 15 12 10 10 
28 32 28 31 25 27 31 25 27 26 26 28 27 24 24 25 34 22 28 26 25 22 26 23 23 25 25 27 25 24 22 26 25 27 25 25 24 23 23 26 23 21 22 21 23 22 20 20 21 21 20 20 23 22 24 27 22 20 19 20 24 19 19 19 19 19 19 13 15 16 12 15 14 13 14 13 12 12 12 13 
30 30 30 28 30 27 29 26 26 28 27 27 29 26 23 24 27 27 21 24 25 25 28 23 21 24 24 24 24 20 25 26 27 27 22 22 22 25 23 25 30 24 23 21 22 23 19 21 17 23 19 22 21 22 21 22 22 24 21 21 24 19 17 23 20 20 20 14 16 13 11 13 13 15 13 18 12 7 11 9 
31 26 25 31 27 25 28 27 24 26 30 24 26 23 23 24 26 20 22 24 24 25 26 24 22 24 23 24 24 22 26 25 29 25 24 21 21 24 28 26 23 21 22 22 26 24 25 20 21 19 22 22 18 20 21 28 25 24 19 19 20 19 22 19 20 19 19 18 13 18 5 14 10 10 17 14 7 14 11 12 
29 32 28 30 28 25 28 26 27 25 25 26 25 22 27 29 22 22 24 22 24 22 26 24 24 24 23 30 21 24 24 26 24 25 22 20 22 27 23 25 22 21 21 23 24 30 22 24 20 25 23 23 21 22 23 26 23 28 26 21 20 19 18 18 18 18 19 17 15 11 14 9 14 16 16 16 12 11 15 12 
31 30 26 29 28 28 29 29 27 24 22 24 24 19 24 22 21 23 22 20 21 23 25 23 23 21 22 27 24 25 24 25 25 26 22 22 25 25 23 25 22 25 25 24 26 25 23 22 21 24 22 21 20 25 24 25 29 33 25 23 21 17 20 16 20 17 19 17 8 15 15 14 11 15 15 12 14 13 13 15 
26 29 29 29 28 26 27 29 23 23 22 26 26 23 22 26 24 19 23 20 19 21 26 22 23 20 22 21 25 23 25 24 21 26 23 25 22 22 29 25 25 26 23 23 26 25 25 22 21 24 20 21 21 24 24 26 25 28 25 22 20 17 23 18 17 18 19 13 18 15 16 15 12 16 12 12 15 11 12 14 
30 32 28 30 28 26 26 27 24 26 24 24 24 22 24 25 23 21 24 21 21 21 22 21 23 23 22 22 24 22 23 25 26 28 24 21 22 24 23 23 21 25 22 21 21 25 24 19 24 21 20 20 19 24 29 26 26 28 26 22 21 19 20 20 15 19 14 17 21 19 20 16 20 16 13 13 12 11 16 15 
25 29 26 27 28 28 24 27 28 24 24 23 27 23 25 24 24 21 19 24 21 19 25 21 21 21 23 24 23 22 22 26 24 25 23 22 20 22 21 26 24 24 21 21 24 23 24 18 22 21 18 20 24 25 26 27 27 27 25 25 22 16 16 18 17 18 18 18 19 17 16 15 14 14 17 14 13 12 11 16 
28 31 28 29 31 27 26 23 25 22 25 25 26 25 23 25 25 25 22 22 22 22 22 24 22 23 23 24 27 22 24 25 26 23 26 21 22 27 25 25 22 23 21 23 24 23 21 22 21 23 19 20 21 25 23 25 24 25 23 21 20 18 16 20 16 21 15 19 20 18 17 16 15 12 13 12 13 13 12 11 
29 28 27 29 27 28 26 25 26 22 25 25 25 21 24 26 24 24 25 21 23 25 29 20 24 25 26 25 24 23 27 25 25 23 22 22 21 25 25 24 26 21 22 21 19 21 21 20 21 18 19 22 24 20 21 24 22 23 21 22 19 16 18 18 18 17 18 18 18 20 13 17 13 15 12 13 11 12 11 12 
30 31 28 29 27 27 27 27 25 25 26 24 27 22 23 24 24 24 23 23 25 24 26 22 22 23 24 25 23 26 34 26 25 24 22 19 22 23 23 25 24 23 22 22 21 24 18 21 21 21 18 21 24 21 25 22 25 24 20 22 23 16 18 17 16 16 19 19 17 20 20 17 16 11 15 9 11 11 11 21 
31 27 26 27 30 25 27 26 31 27 25 24 31 21 24 22 19 23 22 26 22 22 25 22 20 23 23 24 21 23 30 26 24 27 21 21 21 21 26 27 21 23 19 19 21 20 22 19 19 19 24 20 18 26 20 23 22 22 23 21 20 19 18 22 19 20 22 18 18 18 16 19 16 15 14 10 14 13 14 17 
26 30 27 29 25 25 28 28 30 26 27 26 26 24 20 25 20 23 21 27 23 22 23 23 25 21 23 25 20 23 23 23 25 21 22 18 19 20 21 27 21 20 19 14 20 21 20 17 18 21 21 20 19 20 21 21 20 21 22 21 21 17 19 23 18 20 21 17 18 17 15 19 19 16 16 12 12 12 14 15 
28 28 28 25 28 30 28 30 26 23 25 29 28 26 24 26 24 21 23 21 21 20 23 23 24 23 25 24 21 20 22 22 22 22 22 18 20 23 20 23 21 21 21 17 21 21 19 18 20 25 22 18 22 24 19 20 25 19 19 18 20 17 20 22 22 20 22 19 19 18 18 15 18 19 14 12 11 16 14 16 
25 23 28 26 25 26 26 28 27 25 25 25 27 22 27 21 21 20 24 22 20 21 20 24 22 21 21 25 20 19 22 22 19 22 19 17 18 19 20 22 23 19 23 20 25 23 18 19 20 21 19 20 20 23 19 19 21 20 17 19 20 17 21 20 17 17 21 19 19 15 15 14 16 19 16 13 12 17 16 17 
26 24 27 28 27 25 25 26 28 25 24 22 28 24 26 24 21 22 22 22 19 22 22 21 22 19 21 21 21 21 20 21 20 20 18 21 21 20 20 23 20 20 21 22 22 22 19 20 17 18 20 19 21 21 20 23 18 18 22 18 23 20 18 18 27 17 18 19 15 17 17 14 15 16 16 14 15 12 13 14 
29 27 26 25 27 26 28 25 25 28 24 22 22 23 19 21 24 23 21 18 20 21 22 22 23 24 24 24 19 20 22 18 23 19 21 19 18 19 18 24 19 21 21 21 24 21 17 16 18 20 19 20 22 22 20 23 21 19 19 21 19 18 17 19 16 16 18 19 17 16 17 15 15 17 17 13 13 12 16 15 
25 26 23 28 28 25 28 27 30 26 24 24 24 21 23 18 21 22 21 19 19 20 22 20 21 21 22 26 23 23 22 20 18 22 19 18 20 20 22 21 20 21 24 22 21 19 19 19 23 18 20 18 20 22 18 23 19 16 19 20 20 17 20 20 17 16 16 18 16 18 15 17 14 15 15 15 12 11 16 13 
29 27 25 27 26 25 28 29 29 28 25 23 22 21 20 21 20 22 19 19 19 20 22 17 20 22 22 22 26 21 23 21 17 21 19 20 18 19 19 20 19 19 23 20 19 19 18 19 23 22 18 21 20 19 18 21 20 20 20 18 19 16 18 22 18 19 18 15 17 19 15 14 14 15 17 11 12 11 15 16 
27 28 27 28 27 26 24 26 33 27 22 22 22 23 20 19 19 18 21 18 20 22 22 16 22 22 22 23 25 22 21 24 19 19 24 23 18 22 23 19 20 22 21 21 24 21 20 17 17 18 20 19 23 21 19 13 20 20 19 18 21 18 21 20 19 20 21 21 16 19 15 14 13 16 14 15 12 15 16 12 
30 30 25 26 27 23 24 24 29 26 24 26 26 20 23 24 24 18 21 19 17 18 23 20 22 21 24 22 23 21 23 21 16 18 22 19 21 20 20 19 20 22 23 22 23 23 17 18 21 19 19 20 21 19 21 19 19 19 18 18 20 17 18 20 17 21 23 22 18 16 18 17 16 15 14 15 11 12 16 14 
31 27 26 28 27 23 24 20 24 23 28 23 23 20 23 24 24 20 20 19 18 20 22 15 20 20 23 21 24 22 21 18 21 19 17 15 18 18 18 22 22 23 23 22 21 21 18 19 19 22 18 19 17 22 20 19 19 19 20 18 15 18 18 19 16 19 17 18 17 17 16 16 15 14 13 12 12 10 12 16 
23 27 25 25 27 22 24 22 24 24 23 21 24 19 20 22 22 18 20 19 18 18 21 20 19 20 22 21 22 20 22 18 21 20 13 17 16 19 19 23 21 21 24 21 22 22 18 19 17 19 20 20 19 22 18 19 18 18 19 16 18 17 19 17 17 21 18 21 23 18 16 14 15 13 14 12 14 13 11 8 
29 24 25 21 29 26 22 23 24 23 20 21 23 19 20 22 19 20 20 19 21 17 23 21 20 22 22 22 22 25 21 23 18 18 19 17 19 20 17 21 21 23 21 20 23 20 18 19 16 17 19 22 21 20 19 19 20 20 18 15 17 17 16 20 16 17 20 18 20 15 15 15 13 16 15 15 11 13 9 12 
26 24 22 23 24 23 20 21 25 24 22 23 20 18 19 21 22 19 21 21 16 19 21 20 23 19 19 22 20 24 21 23 21 20 20 19 19 22 19 16 18 22 23 21 22 23 20 22 17 18 17 20 18 22 18 19 22 23 19 17 20 15 18 19 19 19 17 17 17 14 15 16 16 16 15 15 15 15 6 14 
29 24 24 25 27 24 23 22 27 21 23 24 24 23 20 23 21 21 18 20 19 18 21 20 23 17 20 20 20 21 18 19 21 22 21 17 19 18 20 20 19 21 18 19 21 20 21 24 19 18 18 20 21 21 20 24 21 21 23 21 16 17 20 18 20 20 19 17 18 14 16 13 14 15 10 15 10 11 16 12 
23 24 24 24 28 25 21 27 24 21 20 21 20 20 22 18 21 21 20 18 19 19 20 19 20 17 18 23 19 18 20 23 19 21 17 15 20 20 17 17 20 19 19 17 20 19 20 20 18 18 16 22 21 19 20 27 19 23 20 20 19 16 20 18 18 20 17 14 17 16 16 15 16 13 15 13 14 11 10 18 
25 26 24 28 26 26 24 21 22 23 21 21 22 18 21 20 19 24 22 20 19 20 21 16 18 17 18 21 21 21 21 21 20 19 19 18 16 22 20 19 19 19 22 21 22 21 20 20 21 18 19 19 19 20 19 22 20 18 19 17 20 17 16 17 19 20 18 20 16 17 18 16 12 14 16 14 12 13 16 12 
28 30 32 25 26 28 22 24 25 19 24 22 21 20 20 21 20 20 21 21 20 19 21 19 20 20 19 21 20 20 22 20 18 22 21 18 20 20 25 25 20 21 22 20 22 22 22 22 21 21 19 24 21 24 20 23 24 20 20 17 18 18 19 19 17 18 19 18 17 17 16 14 15 15 17 11 14 14 16 16 
28 25 26 24 28 26 21 22 25 24 22 23 22 22 18 21 19 18 18 18 20 20 19 21 19 22 19 21 22 21 19 19 21 18 18 18 20 19 21 21 18 18 23 19 18 20 25 21 21 22 25 25 25 25 25 21 19 19 18 18 15 15 16 19 16 17 17 20 15 14 15 13 14 15 13 16 12 14 15 19 
26 28 24 24 23 24 22 23 25 19 20 22 23 23 21 19 20 16 19 19 19 20 20 24 23 20 26 24 20 21 19 23 24 22 18 18 15 20 19 21 18 19 22 20 23 22 23 23 20 23 24 25 25 21 19 22 19 19 20 18 17 15 17 17 16 17 15 16 15 14 15 14 10 16 16 16 15 15 21 18 
28 27 27 24 26 21 21 22 21 21 20 20 21 18 20 18 21 20 17 17 20 20 19 20 21 21 21 21 20 17 21 20 22 17 23 20 24 20 21 23 19 23 21 18 22 22 23 21 20 24 24 23 22 24 21 23 18 22 17 16 17 16 14 19 19 19 16 16 16 14 15 13 15 13 14 15 15 17 14 14 
31 26 24 27 23 23 24 20 22 21 20 22 20 23 22 22 21 20 21 16 19 19 19 19 20 21 22 18 17 21 19 19 23 18 18 21 20 21 20 22 22 24 19 21 22 21 21 23 23 23 25 22 21 24 19 22 21 17 19 17 20 18 21 21 17 20 16 17 15 14 11 18 13 15 15 16 14 14 15 17 
29 28 25 25 20 22 20 22 25 21 20 22 21 22 24 18 18 20 22 20 20 17 22 19 21 19 19 17 21 21 20 23 23 17 20 19 19 21 19 22 19 21 20 20 23 26 24 30 24 21 21 20 20 25 19 20 23 18 21 19 18 19 18 20 17 19 15 15 13 15 14 15 15 12 18 16 15 13 13 15 
22 24 19 21 19 21 21 19 23 18 21 21 24 22 21 19 21 19 20 16 21 20 20 18 21 21 18 18 18 18 18 19 18 19 20 21 19 21 19 19 18 20 20 16 24 24 26 20 22 22 21 22 18 22 18 20 17 19 16 19 18 17 20 20 13 20 17 19 21 14 13 15 14 15 13 17 17 13 11 15 
23 21 20 21 24 23 20 21 23 23 21 20 23 22 24 23 23 20 17 18 23 21 20 18 18 17 18 19 19 17 20 20 20 18 18 23 18 21 20 19 19 22 21 20 24 26 21 22 22 21 21 22 18 23 20 21 17 20 15 15 18 15 15 14 12 19 18 17 19 14 13 15 12 12 13 14 11 10 9 13 
23 23 24 21 21 19 22 23 21 17 20 19 21 20 19 20 19 21 16 19 16 21 22 17 15 18 22 22 21 21 19 18 20 18 19 19 17 21 18 20 20 19 18 19 24 30 22 19 22 19 21 20 20 22 19 21 19 19 18 15 18 16 19 16 16 22 18 21 13 17 16 13 13 11 16 10 13 9 10 14 
28 24 21 23 19 18 19 22 20 19 22 20 22 19 20 21 21 20 20 17 20 22 22 23 21 17 20 19 18 21 21 18 20 18 19 19 16 20 20 22 19 23 17 22 25 21 23 21 19 20 20 19 19 20 18 21 19 20 19 17 20 16 18 17 18 16 15 19 16 15 16 15 14 15 12 15 10 7 10 6 
27 28 19 21 16 19 17 20 18 19 17 18 20 19 20 20 23 18 20 16 17 21 26 21 19 20 20 19 20 19 20 20 18 20 16 16 17 23 18 21 19 20 17 17 21 20 19 19 17 18 17 20 18 19 18 22 20 18 19 18 19 17 17 14 15 14 16 19 17 14 14 13 14 13 12 9 13 6 11 7 
33 24 20 21 18 19 18 20 20 18 19 19 18 18 19 23 21 20 21 18 16 21 21 20 18 16 20 20 16 20 18 20 19 20 18 14 17 18 21 18 19 17 21 20 21 19 18 15 14 18 16 20 18 21 21 21 21 17 18 17 21 20 20 14 12 17 17 20 15 16 14 18 14 15 15 12 10 12 10 9 
26 25 21 18 22 17 14 18 20 20 19 17 23 19 17 20 20 17 19 20 16 19 18 18 16 16 19 16 21 16 15 19 19 19 15 15 16 23 21 18 15 18 19 20 19 18 16 16 14 15 14 18 18 23 21 22 19 17 17 16 17 20 20 14 16 14 15 15 15 16 14 14 13 11 13 10 10 11 10 7 
24 26 19 27 24 21 17 20 17 18 18 21 19 18 18 17 18 17 19 20 19 20 21 18 16 18 21 17 18 17 22 18 20 16 22 18 19 19 17 18 16 19 20 19 18 21 17 18 17 19 15 22 21 25 20 23 21 19 18 17 20 17 17 17 14 15 17 16 15 16 15 13 12 14 12 14 11 9 7 6 
31 23 19 25 21 20 20 20 20 19 19 19 16 18 19 19 19 17 20 18 16 20 18 18 20 19 18 20 20 19 17 15 18 16 17 17 17 19 17 19 19 15 17 17 19 21 16 16 18 20 17 19 21 24 22 25 21 21 24 19 19 18 21 15 15 18 19 15 16 15 15 13 13 11 17 8 12 9 13 13 
21 24 23 20 28 23 22 16 20 20 18 15 18 16 16 19 17 15 18 18 16 19 18 19 24 20 23 21 19 21 18 18 17 17 17 14 15 19 18 21 16 18 17 16 19 18 22 17 18 22 21 19 15 24 20 22 23 22 19 16 16 18 18 17 16 15 15 16 16 14 14 13 13 15 10 13 12 7 10 7 
20 21 17 20 21 24 21 16 20 22 20 23 19 15 20 18 14 10 17 17 17 16 17 17 16 15 22 16 16 14 14 15 17 17 15 13 13 16 14 17 19 14 17 15 20 17 18 17 16 19 18 18 15 22 22 25 21 21 17 19 16 17 16 18 15 15 13 11 13 16 15 14 6 13 13 11 10 4 11 10 
20 17 16 20 20 17 16 22 22 18 17 21 22 18 16 17 13 17 17 17 15 17 15 18 16 18 17 20 16 15 18 18 16 17 14 13 14 15 15 18 16 17 16 14 19 21 15 17 18 19 18 17 19 21 22 25 22 23 17 17 16 18 14 14 14 12 12 15 15 16 24 14 12 13 16 12 13 0 12 16 
21 20 18 19 20 18 14 17 17 18 16 23 27 21 18 17 16 18 16 15 15 14 17 16 14 16 19 18 18 17 15 17 14 15 12 15 13 17 16 17 17 17 16 17 18 18 19 18 19 19 15 20 18 20 19 23 21 18 16 15 18 15 16 16 17 14 13 13 16 16 14 13 13 10 15 16 11 11 10 14 
25 18 14 17 23 16 17 16 18 20 19 20 21 20 17 18 15 14 18 16 10 13 19 16 12 15 16 18 15 11 15 12 18 20 17 15 16 16 15 17 16 16 19 18 21 18 20 30 17 21 20 18 18 20 21 22 19 20 19 18 17 15 15 14 14 19 15 17 14 15 14 13 9 13 14 12 12 10 10 9 
24 18 17 16 14 13 15 18 17 16 17 17 20 16 15 14 16 14 14 15 16 18 17 19 15 14 16 18 20 15 15 14 15 18 13 17 17 18 19 19 13 16 13 20 20 22 16 15 20 23 18 21 18 19 23 22 16 17 17 20 17 15 17 18 16 17 17 16 18 14 16 14 12 12 13 10 12 15 9 9 
24 19 17 17 17 15 16 12 15 16 14 17 20 15 17 18 15 17 17 12 13 17 17 15 15 16 17 19 17 16 14 15 16 14 18 13 20 14 18 15 13 16 17 17 18 20 16 18 17 22 19 18 19 23 25 17 21 18 19 15 15 13 15 19 16 16 16 16 15 13 14 15 15 10 14 11 12 14 12 11 


