P2
80 60
240
42 46 38 37 49 47 43 51 59 62 54 57 57 57 55 56 54 59 55 49 58 58 53 51 54 57 58 57 56 59 60 51 54 56 55 54 52 57 54 54 51 55 54 55 56 54 48 48 50 48 50 50 54 55 62 62 63 67 69 63 63 62 63 62 62 57 59 57 54 60 61 57 62 62 66 61 58 55 56 59 
46 47 43 43 49 45 43 57 56 57 58 58 54 58 61 56 58 58 53 55 55 58 54 54 54 56 62 60 58 60 56 59 56 57 56 57 55 55 54 54 57 55 53 56 55 55 54 51 49 49 52 50 51 55 61 62 65 67 62 60 64 63 62 63 61 58 56 57 54 58 60 58 60 63 63 61 61 57 59 57 
46 45 39 42 48 47 47 49 55 56 55 56 58 57 58 58 55 58 57 52 61 57 55 53 56 58 61 60 59 61 56 58 57 56 56 55 56 58 55 57 55 54 54 55 54 53 54 53 48 51 47 49 52 56 61 61 64 61 63 63 59 60 62 60 64 62 58 62 60 59 62 60 61 59 61 61 59 59 62 60 
46 46 44 39 46 43 46 54 54 59 59 55 56 58 59 57 54 59 57 54 56 60 55 54 58 55 64 60 60 54 58 57 58 56 57 56 59 59 58 54 53 55 53 55 55 54 56 54 53 48 53 48 53 55 61 61 59 65 65 65 67 62 62 62 62 62 58 57 60 59 63 65 64 61 60 64 64 64 60 61 
52 48 42 43 47 49 49 50 54 60 54 57 60 61 65 60 58 59 56 61 58 60 59 57 58 63 64 57 60 58 59 55 55 55 53 56 57 58 60 56 57 58 55 56 56 55 57 54 47 50 53 52 55 57 61 61 63 62 65 65 68 63 64 68 64 62 62 64 62 63 64 61 63 61 61 64 64 65 59 59 
50 46 41 39 50 45 47 57 57 59 53 59 58 61 62 60 60 61 57 61 57 64 62 59 61 62 62 59 60 57 60 55 56 54 56 56 59 55 60 56 53 55 59 58 55 55 61 55 52 51 54 54 55 58 61 63 62 64 66 65 64 62 60 61 67 61 60 62 67 60 64 60 60 59 61 62 61 62 61 59 
49 47 43 44 47 47 50 53 62 60 61 62 59 61 59 58 63 57 58 59 59 59 59 58 60 61 64 60 63 57 58 58 54 56 55 55 57 57 58 55 58 55 55 56 52 57 57 54 54 50 51 58 58 59 61 60 66 71 72 64 62 64 58 59 67 64 60 62 63 62 62 64 63 62 63 64 64 57 64 59 
49 52 45 41 48 51 51 56 59 60 56 59 60 62 60 58 61 60 57 61 58 61 58 58 57 63 61 59 62 57 59 55 52 56 52 57 60 58 58 57 54 54 55 55 57 52 56 51 52 51 57 55 57 58 62 69 63 69 65 65 65 63 61 61 63 64 62 60 62 62 62 67 62 57 65 63 64 61 59 62 
52 50 42 40 48 48 50 60 59 65 61 60 62 57 59 56 57 61 59 58 64 60 59 58 60 60 60 59 62 57 59 54 54 56 55 58 58 56 57 56 53 50 51 54 55 53 52 51 50 50 56 55 54 63 60 63 62 64 65 64 63 62 64 61 64 63 63 61 62 62 61 60 63 60 61 60 62 58 61 57 
50 50 43 43 54 48 55 56 62 63 58 59 61 62 59 62 66 62 58 52 59 62 57 57 58 59 61 61 59 57 57 56 55 55 53 56 57 56 54 54 52 51 54 54 55 48 49 48 51 52 56 51 54 57 61 59 64 64 64 64 59 62 63 64 62 61 61 59 61 59 59 63 61 61 57 63 60 55 60 63 
48 49 44 42 52 54 59 60 62 60 59 61 58 57 64 60 60 61 53 55 57 57 57 58 57 61 61 59 58 59 59 57 55 55 57 57 57 55 55 56 55 52 53 53 54 51 52 52 50 53 52 56 56 58 59 62 67 65 67 64 62 63 60 64 63 59 59 64 59 61 61 59 60 58 60 63 61 56 62 57 
49 50 49 47 50 48 54 62 59 63 56 57 60 59 56 58 56 56 56 55 54 59 57 57 55 59 63 62 60 59 60 57 57 57 56 54 54 52 54 53 58 51 53 54 57 52 55 50 52 51 53 55 56 57 62 62 63 63 63 62 61 67 64 62 66 63 59 58 62 58 60 57 61 63 60 65 62 58 65 56 
51 47 46 50 54 51 56 57 63 60 60 59 62 58 60 56 57 54 58 56 58 58 56 56 57 57 59 61 57 58 59 56 56 61 54 52 56 53 54 52 52 51 51 54 59 52 53 51 51 53 53 54 54 55 60 60 63 67 65 63 62 64 65 63 65 62 59 60 62 60 56 59 61 62 63 65 57 64 61 60 
52 52 45 48 55 50 60 60 57 59 56 59 61 57 58 59 55 57 56 53 60 56 57 55 58 58 58 56 57 58 58 56 60 58 56 54 54 57 56 55 53 53 51 59 55 53 55 53 55 54 56 55 54 57 62 60 64 66 68 66 65 66 66 62 65 65 59 59 59 60 64 58 64 63 60 64 62 60 67 63 
49 52 42 46 56 55 52 55 58 61 58 58 56 58 59 55 56 58 56 55 56 56 54 56 56 56 59 58 55 59 60 54 55 57 56 53 53 54 54 56 51 51 52 55 52 53 53 51 53 54 57 52 55 58 63 62 68 76 68 66 65 64 65 62 69 62 64 62 58 60 64 62 62 64 65 61 60 65 63 63 
49 51 40 45 54 50 53 57 58 58 55 58 56 59 59 59 56 55 56 57 52 57 54 54 55 57 58 57 59 56 57 56 57 56 56 53 54 56 54 56 55 54 54 54 51 55 54 49 51 51 55 56 58 61 63 64 65 72 71 67 66 65 65 62 65 67 63 67 64 63 64 65 62 62 59 61 64 65 64 60 
49 47 43 45 48 51 53 60 60 55 56 58 57 55 60 61 58 56 56 54 56 55 57 56 58 57 61 58 58 57 60 58 55 60 56 57 55 54 55 55 52 52 53 54 51 53 53 52 47 50 54 55 56 59 64 66 66 70 68 66 66 65 63 61 63 65 62 65 66 66 62 66 70 62 59 63 61 63 62 60 
47 49 37 42 47 44 53 57 60 60 58 59 57 57 58 59 57 56 57 59 55 57 53 56 57 64 60 60 58 58 59 57 58 58 54 55 55 54 55 55 56 53 48 52 52 55 53 49 47 50 53 53 55 58 65 64 65 73 68 67 66 64 61 65 64 63 60 66 62 65 65 66 65 60 61 61 64 66 60 60 
49 46 38 45 47 50 55 53 55 57 55 59 58 60 58 57 56 59 58 60 57 59 59 56 56 58 62 57 59 58 56 56 56 59 54 54 56 55 59 59 54 53 49 55 52 48 51 47 50 51 50 52 57 60 62 63 67 67 69 67 65 63 61 65 66 63 61 62 62 64 63 66 65 59 61 63 60 61 61 60 
46 49 37 43 54 49 51 57 57 55 56 58 57 60 60 58 57 55 58 59 55 57 61 60 58 60 61 60 58 63 60 58 57 55 53 52 55 57 54 58 53 54 51 52 52 47 49 49 50 53 55 53 54 58 62 66 65 64 65 63 65 61 64 62 68 61 63 57 64 65 64 60 63 60 57 57 62 57 62 63 
41 45 38 44 49 50 49 56 55 57 54 59 58 61 60 56 58 58 56 56 55 59 57 59 59 57 60 55 57 57 59 59 58 54 53 53 52 54 54 55 53 54 50 50 53 48 49 49 51 55 53 54 58 58 62 60 66 65 68 68 65 61 65 65 68 63 62 62 66 65 65 62 62 63 60 58 60 60 61 64 
46 45 40 45 48 47 53 56 58 60 54 59 63 60 59 58 59 57 57 53 55 59 60 60 60 60 60 55 60 57 61 58 55 55 54 54 52 52 53 53 53 53 50 51 48 46 48 47 47 50 58 53 57 56 62 63 64 66 67 66 64 63 65 66 68 67 64 65 67 66 67 64 65 62 59 61 63 61 63 60 
40 40 38 45 46 49 51 58 60 57 55 57 61 59 60 55 61 58 58 55 54 57 56 56 57 58 62 62 58 59 57 57 56 54 53 53 54 54 54 56 53 52 52 51 53 47 47 48 49 56 57 56 60 63 63 64 64 66 69 67 65 67 66 65 67 70 64 63 67 64 65 66 65 63 59 62 64 63 64 64 
44 41 39 40 44 49 53 60 59 58 55 58 63 60 64 60 60 61 58 57 59 59 57 60 56 58 60 58 58 57 58 59 55 54 54 54 53 51 55 51 50 51 50 52 49 49 49 49 50 58 56 56 59 57 59 60 67 64 67 65 67 65 64 68 71 65 66 63 64 68 66 65 67 65 61 63 64 62 68 65 
44 44 34 40 45 47 53 59 63 59 56 58 59 59 64 58 60 61 61 58 61 61 60 59 61 59 61 62 57 56 57 55 50 54 54 52 55 52 51 54 52 51 51 54 53 46 49 49 52 56 53 57 58 62 63 61 67 67 69 68 66 68 65 64 70 66 67 65 68 67 69 67 67 66 64 65 66 67 65 73 
44 38 33 42 48 41 48 53 56 58 56 58 61 64 64 60 60 56 56 58 57 58 58 59 61 61 60 59 58 57 56 57 55 52 50 55 54 52 53 54 53 53 50 53 53 49 52 52 53 56 56 52 57 61 62 61 63 67 69 70 65 66 66 67 70 68 66 65 66 64 67 64 66 64 65 65 65 65 70 69 
39 35 30 40 45 47 52 60 55 58 53 59 59 64 64 60 60 61 56 60 57 62 65 61 62 62 64 61 58 58 59 54 56 55 55 52 52 52 49 54 52 52 51 50 51 49 48 54 56 57 57 57 57 61 61 64 64 66 66 71 67 68 64 64 70 70 67 68 65 65 67 67 65 65 63 63 68 64 73 67 
40 36 30 39 47 44 50 58 56 55 53 56 59 59 63 57 60 58 58 56 61 62 63 60 63 64 63 62 57 59 57 56 56 53 54 52 53 54 51 57 49 50 52 52 52 50 52 58 61 56 62 58 57 59 64 64 66 67 67 68 69 67 65 65 70 68 67 67 69 71 66 65 65 68 64 66 64 66 67 68 
39 37 30 33 47 48 52 55 59 56 55 56 57 60 61 57 58 56 59 59 56 59 59 61 61 63 63 64 59 58 59 56 56 57 50 51 51 54 54 58 51 52 53 54 55 53 60 62 61 63 62 56 57 60 62 64 65 66 68 68 68 67 67 67 71 68 69 69 68 68 71 67 67 62 67 65 69 65 66 61 
39 32 30 33 39 46 51 57 63 59 53 55 57 59 60 58 62 59 58 56 57 62 59 58 61 59 65 61 60 57 58 60 54 52 55 54 51 56 55 55 52 54 54 58 59 58 62 63 61 61 63 59 59 61 63 61 65 68 71 68 68 68 66 68 71 70 70 71 68 71 69 67 68 69 65 68 65 64 64 64 
31 29 29 29 42 44 48 55 58 55 54 57 57 61 60 59 62 61 57 57 58 62 58 60 61 64 63 59 59 57 59 55 55 55 53 53 52 53 54 56 54 54 60 67 59 57 60 64 65 64 61 59 60 61 64 68 65 68 67 69 70 69 65 70 72 70 67 71 69 67 71 65 69 69 64 66 67 69 69 61 
27 28 25 32 42 39 47 53 56 54 55 55 57 61 60 60 62 59 60 57 61 62 61 63 64 64 65 62 60 59 60 58 57 54 51 53 55 53 54 63 61 62 59 61 61 73 94 87 81 75 66 61 61 64 66 68 69 68 71 69 72 69 69 69 72 71 67 73 73 70 71 66 70 67 66 63 70 68 65 64 
25 24 23 33 37 38 48 57 56 54 53 57 57 59 62 59 64 66 58 62 60 64 61 68 69 72 67 62 61 59 62 57 56 55 57 57 60 61 63 63 58 60 62 65 62 84 111 105 105 103 97 87 73 69 71 70 70 70 70 71 71 71 71 72 75 73 71 74 79 73 74 68 70 69 69 70 71 71 66 67 
21 24 25 30 37 36 49 54 57 54 53 59 59 60 61 61 64 68 67 69 72 68 66 73 71 69 71 61 59 60 61 61 63 61 60 57 58 61 58 63 59 61 60 60 58 93 119 114 116 118 114 115 112 103 100 84 79 77 79 74 76 75 74 74 78 76 75 74 76 72 75 74 72 72 68 71 69 71 72 65 
19 19 20 25 35 30 46 56 55 54 56 56 56 58 61 62 67 70 94 114 128 124 88 71 74 64 65 61 61 59 65 67 60 57 58 58 58 58 60 66 54 53 53 56 60 102 122 113 116 116 121 121 118 124 129 121 116 105 93 86 78 78 74 78 79 77 77 75 76 74 78 69 73 73 68 69 69 70 68 67 
21 20 20 22 35 31 42 51 53 57 54 55 56 58 62 62 72 75 130 145 147 150 129 88 72 64 72 69 63 64 67 65 63 59 60 60 60 59 56 55 51 56 54 53 59 103 118 119 119 119 119 120 122 126 128 134 126 124 121 119 107 100 93 83 83 75 74 79 77 77 77 75 73 73 72 73 70 72 71 67 
17 20 14 22 32 31 41 49 54 57 56 54 54 59 59 60 70 84 137 148 158 156 145 78 64 74 84 74 76 65 68 63 64 62 59 56 55 57 52 51 53 52 52 52 62 112 122 116 120 121 120 124 126 125 133 133 131 127 128 132 127 124 119 116 108 94 86 83 81 79 79 77 75 74 73 74 75 74 71 71 
20 21 11 17 29 30 41 46 53 51 53 54 59 60 62 60 65 85 140 161 181 175 155 82 64 78 87 80 69 67 69 66 61 59 54 53 55 58 51 56 55 51 53 56 67 120 117 116 117 123 123 123 128 132 136 136 132 130 132 132 129 132 128 130 134 125 116 107 97 89 85 80 76 74 76 76 71 74 71 71 
18 17 16 19 29 27 44 48 54 57 54 58 55 59 61 60 67 81 135 185 199 198 153 99 83 84 83 80 66 63 62 63 58 55 52 53 55 53 56 58 53 55 54 56 74 125 121 117 122 124 130 127 133 132 136 135 136 136 135 134 132 132 133 133 136 128 128 130 130 122 107 97 90 85 80 77 76 77 75 73 
9 16 11 19 25 27 41 49 49 52 57 59 56 60 60 59 66 73 115 163 192 170 143 100 69 70 71 70 62 61 58 61 57 55 52 51 54 57 53 54 50 51 51 57 84 121 123 120 122 127 129 132 135 133 142 137 139 136 135 136 136 137 136 137 138 136 131 131 135 138 135 126 123 113 97 90 87 84 82 85 
18 13 7 18 22 29 34 48 52 54 56 60 58 62 59 62 64 69 110 129 140 142 141 110 74 70 70 66 63 58 60 60 57 58 56 54 56 54 55 57 52 53 50 57 99 127 126 122 124 126 132 136 134 141 143 142 140 140 135 137 136 139 139 141 146 137 136 136 145 142 141 134 136 133 128 118 114 100 98 87 
9 11 8 13 24 23 35 46 53 49 54 51 57 58 59 59 65 78 107 119 127 133 130 121 100 80 71 66 58 61 61 59 57 49 52 57 57 55 53 53 50 49 56 58 112 128 125 121 125 127 128 131 139 139 144 146 145 143 140 143 140 140 141 144 146 141 138 139 142 143 142 133 137 137 132 131 130 122 114 96 
8 8 6 12 20 20 35 43 52 49 53 52 54 57 58 57 67 93 110 108 116 119 119 118 118 108 81 63 60 60 61 56 55 53 54 55 57 55 55 53 53 51 52 62 121 130 128 124 126 127 129 132 134 137 144 142 145 141 139 144 141 147 145 150 147 142 139 138 143 139 143 132 135 134 130 133 129 130 120 112 
14 10 2 11 18 22 30 40 47 47 48 54 53 55 61 62 79 95 102 101 105 110 108 113 111 110 100 72 61 59 61 55 56 55 52 54 58 63 59 58 52 52 56 68 134 131 135 132 126 132 136 133 138 137 142 143 141 144 144 146 146 149 147 151 153 149 144 144 147 144 143 140 139 136 136 135 138 133 122 118 
11 8 7 12 21 16 28 40 48 47 48 52 52 53 63 64 86 96 95 94 106 102 103 105 105 107 106 84 61 55 57 58 53 52 53 59 65 63 62 61 60 59 60 75 141 134 133 131 129 133 134 138 136 138 143 141 145 146 145 147 149 151 151 152 156 152 148 146 150 147 143 142 142 140 135 138 138 133 120 115 
7 5 4 12 22 16 26 40 46 46 47 53 58 58 63 66 87 84 89 89 96 98 97 100 103 103 107 93 62 58 59 57 54 51 56 66 63 65 65 66 65 66 67 88 147 137 132 129 134 135 137 137 140 141 143 141 146 148 151 153 152 154 151 157 160 154 153 148 154 150 149 140 139 138 139 143 138 129 115 116 
7 8 0 10 13 17 28 36 45 47 45 54 56 58 60 69 83 78 83 82 93 96 96 96 101 102 107 88 63 55 53 53 53 57 57 64 64 64 62 62 67 70 70 105 152 133 134 132 132 134 136 140 141 143 147 142 147 152 152 155 154 153 157 156 157 156 154 152 154 150 152 142 145 140 141 140 146 131 125 117 
6 1 0 5 11 16 28 40 43 43 48 51 53 58 62 66 77 77 78 82 87 93 95 91 91 96 86 67 57 58 53 53 52 59 59 61 65 65 64 66 67 75 73 127 157 139 140 134 138 137 137 140 142 146 149 152 148 151 151 156 156 158 154 159 157 156 153 155 152 147 154 145 144 143 142 144 152 124 123 117 
4 10 1 8 10 18 28 39 40 45 45 50 53 61 65 64 69 72 71 78 86 90 91 77 71 64 61 60 57 56 55 56 52 57 59 60 65 68 63 70 70 74 71 142 159 143 144 138 142 142 146 143 144 147 146 150 151 150 154 154 154 162 157 158 162 157 155 153 155 150 150 147 145 147 143 150 145 125 117 116 
26 10 11 12 14 16 24 38 42 48 44 50 55 60 65 67 63 67 68 64 66 66 63 58 57 61 64 58 57 57 57 55 53 55 59 60 61 64 63 64 68 69 71 150 165 152 150 148 146 146 149 146 148 151 150 150 152 153 152 158 158 160 158 162 166 159 155 158 158 150 152 149 149 148 153 153 144 124 116 115 
53 18 15 11 16 14 23 39 45 50 50 49 55 57 60 60 59 62 64 60 62 61 62 60 62 60 63 58 57 60 56 55 56 55 60 59 58 59 62 64 68 65 76 140 177 172 168 162 154 155 154 153 154 153 154 152 153 155 156 159 160 163 161 164 167 160 156 157 158 153 151 149 151 151 152 158 139 126 118 114 
67 42 16 15 21 16 28 37 47 51 48 52 53 55 60 58 60 61 60 59 61 61 58 59 61 61 61 59 59 60 60 59 57 57 59 54 57 56 59 62 63 68 69 92 126 160 191 181 169 164 162 156 158 158 157 152 154 155 159 160 162 163 167 165 164 165 162 158 157 156 154 154 151 155 158 165 137 121 121 116 
75 62 37 21 27 23 23 34 48 49 51 52 54 58 57 59 58 58 60 58 57 60 58 59 63 62 62 61 62 61 59 59 59 55 52 54 54 58 57 59 65 72 71 75 78 104 149 172 186 179 174 169 167 161 161 158 158 158 165 162 162 166 167 165 164 167 164 160 160 159 161 155 156 159 159 163 136 123 121 119 
77 75 56 35 38 29 25 33 53 54 55 54 57 57 59 58 56 58 55 57 57 61 61 64 64 63 67 66 65 65 66 64 64 57 53 53 53 54 55 58 70 76 77 72 77 80 91 110 147 173 194 189 187 176 173 168 169 164 161 169 165 166 170 171 173 172 165 164 166 161 161 158 155 161 166 163 138 123 126 121 
78 76 74 60 46 30 28 34 46 58 55 55 56 55 58 58 57 60 55 55 58 63 63 65 67 68 76 70 70 67 71 68 57 53 48 48 52 53 53 60 69 81 73 75 83 76 73 78 88 116 156 193 205 201 192 179 172 171 170 172 168 173 173 173 177 173 167 168 166 164 164 168 157 167 175 157 133 123 123 123 
75 75 76 77 68 46 45 45 50 55 59 57 57 60 59 58 58 59 63 57 64 67 68 69 72 77 81 75 73 72 70 67 62 59 53 49 50 47 51 60 73 79 78 81 82 85 76 75 75 79 94 134 176 201 207 199 188 185 181 182 183 181 181 183 185 179 174 173 171 171 174 162 167 174 177 151 136 122 127 126 
73 78 77 74 79 70 58 58 58 61 59 59 65 59 64 58 67 62 65 72 69 70 71 70 73 71 76 72 71 72 71 71 70 67 61 55 54 50 49 67 76 75 71 75 80 78 77 73 71 70 77 78 104 140 174 192 209 206 203 196 194 187 191 190 192 187 181 180 176 176 172 168 171 180 185 151 136 131 127 128 
77 78 79 79 78 76 65 64 61 65 60 65 66 67 71 66 70 65 64 64 67 66 70 70 66 71 73 73 77 81 77 70 72 69 64 63 61 55 58 68 69 68 66 71 74 70 74 79 73 72 69 66 76 87 109 142 175 211 230 225 211 201 195 198 203 197 189 190 186 183 182 171 182 193 187 154 138 133 129 130 
74 79 77 82 79 75 73 70 67 69 63 66 66 61 64 60 61 60 60 62 63 67 69 72 73 72 72 71 73 69 69 69 68 69 66 65 64 66 64 66 67 65 76 70 72 68 74 74 76 73 74 67 67 74 81 90 118 155 201 239 231 229 210 211 209 208 198 193 193 188 184 178 199 198 177 147 142 131 131 129 
74 74 75 78 81 76 72 74 71 68 66 65 61 58 59 58 61 61 63 63 66 69 67 70 70 72 70 70 68 69 68 68 67 68 65 65 65 66 63 72 65 65 67 66 70 67 73 68 68 72 74 73 71 71 80 83 81 99 125 186 223 218 240 236 223 215 208 210 198 195 191 187 203 203 166 148 143 136 133 130 


