P2
80 60
144
134 131 137 134 135 139 133 134 127 133 132 122 118 117 124 120 120 116 116 115 115 117 118 115 113 116 107 110 114 103 106 93 67 49 49 51 83 120 129 126 128 130 131 131 131 132 133 137 131 132 133 133 130 132 130 138 130 128 122 124 123 130 128 132 129 128 129 130 131 127 128 125 128 131 128 127 122 122 119 112 
135 135 138 137 131 136 133 136 129 131 124 119 119 118 121 117 119 115 114 116 116 113 112 112 118 118 106 107 112 100 105 91 70 45 46 50 83 118 127 128 128 129 127 131 131 134 132 133 130 131 132 132 132 132 130 137 135 130 125 121 118 125 122 124 128 126 124 128 126 126 131 129 131 130 129 121 126 118 116 117 
137 136 137 136 137 135 133 132 128 128 122 121 119 120 121 117 111 115 116 114 113 114 108 116 110 111 107 106 109 101 101 90 74 48 47 54 85 122 126 123 126 130 126 126 128 132 133 131 130 128 129 134 130 129 131 134 129 130 117 118 117 120 125 121 123 126 128 130 129 125 132 127 130 132 126 124 120 116 118 115 
135 139 135 136 135 136 134 133 129 128 126 118 119 117 121 120 114 111 114 115 117 117 112 111 112 116 110 112 110 99 103 85 70 47 48 55 88 122 130 125 127 126 124 128 128 133 133 133 133 128 132 135 131 135 128 131 128 128 119 116 118 120 119 122 125 128 129 125 131 128 132 132 130 125 129 131 121 115 116 113 
136 136 133 135 137 139 138 135 130 133 122 118 120 119 120 121 116 112 116 116 119 119 117 118 118 119 121 115 109 101 98 89 67 45 48 60 97 119 129 128 125 131 130 125 128 133 136 134 132 130 133 135 134 131 131 134 132 127 119 119 116 118 122 130 130 132 130 132 129 131 131 131 131 130 127 129 128 121 120 115 
135 137 138 138 133 138 137 133 131 127 124 118 120 119 122 120 116 117 120 124 122 123 124 124 129 126 122 120 115 108 105 89 71 49 46 53 91 118 126 125 121 126 130 129 128 134 134 133 134 130 129 133 131 130 132 139 128 129 119 124 118 122 121 128 127 131 132 131 136 130 132 131 128 128 123 129 129 123 115 116 
135 138 135 137 136 134 133 131 127 129 123 120 118 117 124 118 129 125 128 126 126 123 126 125 124 123 122 118 119 111 112 96 72 52 44 50 89 123 127 123 124 127 128 127 125 133 133 133 128 128 130 137 133 130 133 132 126 130 126 127 127 131 125 125 124 131 131 135 135 132 133 131 130 128 128 130 127 122 120 119 
139 139 142 138 140 134 131 134 126 129 125 124 122 118 124 121 126 124 127 128 130 127 123 123 123 126 121 117 122 110 109 97 77 56 43 58 99 119 126 123 125 126 127 132 123 133 132 132 128 131 132 134 133 133 132 136 133 133 128 126 128 125 127 123 127 126 129 132 132 130 132 130 132 127 132 127 124 123 116 116 
141 141 141 141 140 141 135 134 127 134 125 124 124 117 124 120 126 125 128 127 126 127 123 124 124 128 117 114 114 111 112 100 84 52 46 60 100 123 122 124 123 124 127 128 128 128 135 133 128 130 130 134 131 137 131 132 131 134 127 131 125 126 123 123 126 130 125 133 129 130 128 131 133 131 126 129 123 117 116 115 
139 141 139 144 139 143 140 139 132 129 126 123 125 121 125 125 129 128 129 125 123 127 124 123 130 124 122 111 115 108 109 99 87 55 45 63 102 124 123 123 122 127 126 126 121 130 130 129 129 131 127 132 132 131 134 132 129 136 130 125 118 113 115 114 124 129 128 133 132 128 130 129 130 129 130 128 131 120 112 117 
141 140 139 143 140 141 144 132 132 134 128 133 126 125 132 126 129 129 129 124 127 124 126 121 124 126 121 115 119 108 107 99 85 58 42 60 97 122 125 124 125 124 123 125 123 130 132 130 127 129 129 130 130 132 129 132 128 128 119 117 114 114 113 113 119 125 125 135 131 130 128 131 129 134 128 130 125 121 117 114 
138 140 140 138 138 138 138 136 132 135 133 129 128 129 130 126 128 125 131 127 128 125 122 122 128 119 119 117 116 108 111 101 93 60 46 59 99 123 123 125 125 127 125 125 128 129 131 132 124 126 125 127 128 131 125 132 129 128 123 115 110 113 111 112 120 126 128 131 130 128 130 133 130 133 128 133 131 115 119 115 
139 138 138 142 140 138 138 131 129 132 131 127 129 125 127 125 124 125 122 127 127 120 121 118 116 116 114 114 115 112 109 100 89 64 45 61 97 122 126 124 123 126 128 127 128 132 134 132 124 126 127 127 126 126 127 129 124 123 120 116 105 108 113 117 120 129 127 131 131 128 118 132 132 129 133 131 130 126 118 116 
139 141 141 142 139 135 134 129 131 129 130 126 127 123 126 125 122 125 125 120 124 121 116 115 116 109 106 104 101 98 104 95 93 68 48 61 102 124 120 123 125 124 125 125 127 134 129 131 125 127 125 128 126 121 124 127 125 128 119 118 105 103 105 110 115 122 124 130 126 129 130 129 130 131 127 128 129 123 121 114 
141 143 142 137 139 134 134 132 126 129 125 128 123 121 124 122 126 126 122 121 119 118 113 111 106 111 105 97 102 98 104 95 93 69 46 64 104 121 121 121 121 124 124 124 125 126 133 129 127 126 123 126 124 123 124 126 127 135 122 107 103 101 100 106 114 122 126 129 123 132 129 130 131 130 128 131 131 131 123 114 
140 141 137 138 138 136 132 133 132 128 125 126 122 124 125 124 127 122 126 119 122 117 112 110 108 110 104 104 98 100 101 97 96 68 51 69 104 118 122 123 122 125 124 122 125 127 130 127 126 122 123 123 124 125 124 127 124 128 123 109 97 96 96 97 110 125 127 125 131 131 128 131 129 131 130 132 128 129 125 114 
137 138 143 137 139 137 132 134 127 130 126 125 126 125 128 125 128 126 121 123 122 119 112 106 105 110 106 99 99 95 101 96 94 69 53 78 106 118 121 123 124 124 127 125 124 131 131 128 125 126 121 129 126 123 125 127 123 125 124 112 103 94 93 103 108 122 127 132 130 130 133 130 135 133 128 132 128 129 123 118 
141 139 141 137 140 137 136 130 129 131 127 126 125 121 126 123 128 119 125 119 121 112 107 109 107 106 103 101 97 96 96 94 93 69 65 85 107 122 124 123 124 125 123 125 122 127 127 125 126 126 123 125 125 126 129 123 127 129 120 113 102 99 95 103 111 121 123 129 133 131 131 134 132 134 127 126 124 123 118 120 
139 138 138 138 137 136 138 131 126 132 128 126 124 122 124 129 123 121 123 122 118 117 111 108 108 104 100 98 96 88 97 93 90 65 63 84 110 122 124 125 126 123 124 125 125 127 127 128 125 125 123 124 126 126 123 127 122 119 119 109 97 96 96 102 111 121 127 130 133 130 130 130 133 133 125 126 127 124 118 117 
136 139 140 140 136 137 134 130 123 127 125 123 121 122 126 121 124 123 119 119 121 120 115 109 109 103 103 96 97 92 92 91 91 65 67 83 109 122 123 122 125 125 125 126 123 124 126 126 121 124 123 125 122 124 121 121 112 101 95 93 87 89 89 95 101 112 121 120 129 128 128 132 127 126 125 127 125 118 123 114 
137 136 134 136 131 136 132 128 129 128 131 128 127 124 124 120 120 121 119 121 126 122 120 118 118 109 109 103 107 101 107 93 92 68 71 83 112 120 118 123 120 126 126 123 121 123 123 124 125 123 121 121 122 120 119 120 110 101 93 85 81 83 86 91 94 102 118 126 129 131 130 130 132 125 127 125 123 117 119 119 
135 133 137 137 133 136 136 130 127 132 134 131 129 126 126 128 124 120 122 120 122 118 121 119 120 113 111 107 109 98 103 94 94 74 75 87 113 121 120 120 124 124 124 121 122 126 124 127 126 126 126 122 121 123 120 122 113 104 96 84 79 81 83 91 102 109 122 129 131 133 134 128 133 130 129 127 119 123 116 115 
134 136 134 138 133 136 135 129 130 131 130 131 129 121 128 127 125 121 124 122 119 118 117 114 117 120 108 104 108 98 97 94 89 83 75 92 113 119 120 121 120 123 125 120 122 123 126 123 123 128 122 120 117 119 119 116 112 105 95 85 83 80 76 84 99 112 115 124 130 130 131 129 131 131 127 134 121 120 120 119 
134 139 136 137 135 137 137 136 135 138 133 126 128 126 130 126 131 128 124 125 122 120 119 120 120 114 111 107 105 96 93 93 95 84 79 96 112 118 121 122 120 121 123 121 121 123 122 123 123 127 124 122 120 125 121 121 112 106 94 86 87 87 89 93 99 111 114 127 127 129 129 134 130 131 129 130 129 121 117 122 
135 135 137 134 135 141 135 135 131 135 132 126 130 127 129 126 127 126 124 120 122 120 116 114 115 114 108 104 106 95 95 91 85 84 85 96 114 118 119 120 120 122 120 122 122 123 125 123 128 123 123 122 116 120 119 117 108 100 91 90 98 91 84 85 104 116 115 124 127 127 128 131 130 131 132 125 127 122 120 126 
137 137 136 134 134 139 139 133 133 133 135 128 131 127 128 126 130 127 128 121 125 121 116 115 115 115 109 103 105 93 93 88 88 85 83 99 116 118 119 120 121 123 121 117 122 127 125 127 124 122 123 116 116 120 121 114 112 105 104 107 112 96 88 90 108 112 117 119 126 127 130 129 131 127 130 133 126 122 120 118 
139 133 135 133 136 141 137 139 136 134 133 127 129 130 129 125 132 125 125 124 129 122 124 117 117 116 113 107 111 96 93 86 93 84 81 99 110 117 118 118 122 120 121 122 123 124 127 122 121 122 117 115 116 116 116 118 115 115 111 106 98 95 98 103 105 118 115 126 128 122 126 130 129 129 133 131 127 120 119 120 
136 139 137 135 136 136 137 137 132 138 132 126 126 124 127 125 123 124 123 124 123 121 118 117 116 112 108 106 110 96 93 89 91 89 82 100 114 118 119 116 117 121 124 124 121 125 126 127 120 121 118 118 116 115 115 117 108 109 100 94 90 93 95 101 107 114 120 128 124 133 128 128 133 129 134 133 125 120 122 122 
140 135 140 137 136 142 135 137 130 134 129 127 121 124 128 121 125 119 118 120 119 112 109 114 107 109 106 104 116 101 96 91 91 87 87 100 115 117 122 122 118 122 121 121 123 125 126 123 123 128 116 116 112 118 115 116 105 98 92 95 86 88 88 97 103 101 119 129 128 127 130 129 132 129 130 127 128 119 121 119 
135 140 139 135 135 137 132 130 132 133 127 124 123 122 125 123 119 120 123 119 120 118 111 110 109 105 107 104 108 102 96 91 87 90 86 104 113 118 120 119 119 126 124 124 122 124 125 124 126 119 118 107 109 115 115 121 109 101 95 92 87 89 90 95 110 107 117 130 127 127 129 132 131 129 130 130 120 119 122 118 
138 138 136 136 134 132 133 132 129 133 124 123 126 119 127 124 125 119 122 119 119 111 106 108 106 104 105 105 108 97 97 85 84 90 89 106 115 118 121 120 120 122 124 122 120 124 125 125 121 120 115 113 109 115 111 114 104 98 96 97 94 103 100 97 108 109 118 125 126 127 132 128 130 130 127 124 119 117 118 118 
135 129 135 135 137 135 134 126 126 128 125 122 124 118 122 124 123 121 121 121 120 114 109 111 110 105 106 107 114 97 95 89 84 88 89 105 115 116 117 117 121 121 121 124 123 126 125 125 124 126 114 113 113 113 115 112 102 99 99 101 98 97 102 101 111 113 113 121 127 128 128 129 126 126 127 119 119 116 117 120 
135 134 132 133 135 138 132 129 124 132 128 123 122 121 125 121 124 121 122 120 117 113 109 110 111 105 109 104 107 96 96 89 90 89 89 105 116 115 118 120 119 118 121 122 120 122 122 123 120 120 112 112 111 115 110 111 102 103 99 95 91 91 91 99 100 108 109 119 127 124 126 125 127 127 131 121 120 117 119 116 
135 132 135 138 132 138 134 128 126 129 130 125 122 122 123 123 121 119 125 123 121 110 108 110 112 107 106 106 114 100 96 91 88 90 90 107 114 118 119 117 119 120 122 119 121 122 123 122 121 118 113 109 107 109 109 112 103 102 100 92 84 96 97 96 104 105 116 120 125 123 126 128 126 127 126 122 118 118 120 119 
131 134 136 134 134 139 137 131 128 130 127 126 123 121 123 121 125 122 127 124 124 114 107 109 112 103 104 109 114 97 92 84 89 86 93 109 116 118 119 120 116 123 121 121 121 127 122 123 116 118 110 108 108 113 112 111 102 107 96 95 92 91 93 101 107 113 109 118 122 123 127 130 129 127 126 124 117 125 123 114 
136 135 134 135 133 135 134 132 131 128 124 124 124 119 123 121 123 125 130 119 122 114 112 109 108 100 106 105 112 97 93 86 90 88 87 108 116 121 118 120 118 116 121 119 119 122 125 126 120 117 105 105 109 112 108 111 98 98 96 100 95 93 86 95 102 106 109 119 122 126 124 127 127 124 124 116 120 119 119 115 
135 140 136 136 135 138 133 129 133 129 128 127 120 122 123 125 123 124 124 121 122 116 108 106 106 102 104 108 109 103 95 90 88 91 91 107 115 118 121 119 121 122 121 123 119 122 122 124 122 122 108 105 111 114 113 105 95 92 84 87 91 86 87 88 89 104 108 118 121 122 122 125 131 125 124 124 120 125 123 116 
135 136 135 138 137 137 134 130 132 133 127 126 127 119 122 121 122 125 122 120 120 115 112 110 106 101 106 108 112 96 96 89 89 89 93 107 114 121 121 120 120 119 123 121 118 124 123 126 120 120 108 104 110 112 110 109 88 76 76 83 83 81 81 84 91 109 111 119 114 120 119 128 128 127 126 125 124 119 122 111 
133 134 137 134 132 134 133 128 130 132 127 124 124 122 120 121 125 124 124 122 118 110 107 110 105 100 102 109 110 96 92 88 88 91 90 105 116 119 122 118 118 121 120 123 118 123 123 125 124 118 108 102 111 112 113 110 93 77 72 76 76 76 83 93 95 105 109 118 120 116 120 123 121 123 123 124 121 123 124 115 
134 135 136 132 134 134 131 131 126 132 126 125 126 122 124 120 121 120 121 123 124 111 105 109 106 102 104 110 107 100 95 88 90 91 93 105 118 117 118 120 119 119 120 121 118 123 124 127 121 119 108 104 111 111 110 107 89 75 74 80 81 82 86 93 99 106 108 113 117 119 115 123 126 126 122 120 118 123 121 117 
133 131 133 136 131 134 131 134 126 131 125 125 122 126 125 122 122 121 119 120 120 117 105 105 106 109 112 109 113 99 95 87 90 92 91 110 115 121 120 118 120 121 121 121 120 129 123 125 124 117 107 107 108 110 113 109 86 73 64 69 66 76 85 84 94 107 111 118 117 119 121 126 123 122 122 120 124 126 123 113 
134 138 138 136 133 131 131 131 129 127 124 124 122 121 126 124 127 122 122 121 123 111 106 105 104 109 109 106 110 98 98 89 90 88 94 113 119 119 115 118 118 119 121 121 118 121 124 124 119 123 105 102 112 110 109 105 85 76 79 79 76 84 93 86 88 103 109 118 113 119 120 126 125 122 121 122 118 125 121 105 
135 137 140 134 136 134 133 133 126 126 124 124 122 120 124 119 124 116 120 123 118 112 107 105 103 112 108 106 108 97 95 88 88 88 94 110 118 120 119 119 119 119 119 121 118 123 124 126 121 119 103 100 108 109 107 103 88 70 69 67 76 89 93 95 101 106 112 119 114 118 116 122 124 119 121 119 118 120 118 100 
135 128 130 132 128 136 130 128 128 125 125 126 120 121 121 121 119 115 120 123 119 113 105 104 103 107 110 103 109 96 96 89 90 84 91 105 118 119 120 120 119 119 119 118 119 122 127 130 116 113 105 96 106 108 103 96 83 66 67 66 78 85 93 99 102 107 112 118 115 118 118 122 124 118 117 120 115 117 111 95 
130 132 131 130 130 131 135 126 123 127 123 123 121 120 122 124 121 118 123 119 126 114 107 103 105 105 108 105 105 98 96 86 90 91 96 109 115 117 121 117 118 121 122 120 121 123 128 126 118 116 98 96 106 107 103 100 79 72 78 84 84 87 91 100 104 115 114 119 115 115 118 119 121 120 117 115 114 118 109 97 
131 125 128 129 131 130 128 128 122 125 122 126 122 118 123 122 123 117 121 118 119 111 104 102 104 104 105 103 100 100 95 85 87 86 90 114 112 117 120 118 116 119 119 120 121 125 124 126 118 116 103 97 102 104 98 93 83 81 75 72 79 90 92 101 106 111 115 117 119 116 116 118 118 120 118 113 114 110 102 89 
127 131 129 128 129 129 128 124 123 123 121 123 122 118 128 126 120 119 124 118 119 113 106 104 105 105 107 103 110 98 92 89 94 89 95 112 115 117 117 117 118 120 120 121 121 122 122 124 120 114 98 92 105 107 106 97 83 70 74 79 88 99 98 100 102 116 117 119 119 115 120 123 122 122 119 115 115 115 106 84 
130 126 129 125 133 130 129 128 125 126 122 120 122 119 123 123 119 121 122 119 121 114 110 102 106 102 104 105 104 99 91 87 88 90 92 109 112 119 120 117 115 121 120 117 121 123 127 123 114 111 95 90 105 106 100 101 87 85 84 91 92 93 90 88 98 112 117 119 118 113 112 121 121 122 120 112 112 114 100 78 
133 132 130 130 132 127 130 132 125 124 127 121 116 121 121 122 120 119 122 117 120 111 109 103 104 106 104 107 105 99 94 90 88 85 90 107 114 120 116 115 119 118 119 117 119 124 125 120 117 108 94 93 100 104 98 93 91 92 93 97 99 94 68 59 83 109 118 121 119 119 119 119 121 120 116 114 115 118 92 74 
133 130 130 130 129 132 130 130 124 128 129 122 120 121 123 117 120 120 121 115 117 109 111 109 108 106 101 103 104 98 97 89 84 84 92 109 115 115 117 115 119 119 121 118 118 122 119 122 111 109 93 90 101 98 103 97 89 89 85 93 94 84 58 51 75 108 118 116 116 116 116 120 120 119 121 114 114 108 92 68 
132 135 135 131 130 134 127 128 122 129 126 120 120 118 127 119 120 118 118 117 119 112 110 108 107 103 105 102 101 97 96 87 85 87 90 105 114 116 116 115 117 121 119 120 117 119 120 119 116 107 88 90 101 102 100 99 82 75 72 74 73 56 45 48 75 101 106 116 117 117 117 119 119 121 117 114 113 104 88 67 
132 129 131 130 131 134 129 126 124 127 122 124 119 118 121 120 120 120 122 116 122 118 109 104 102 101 103 106 105 95 95 88 86 87 90 104 111 115 117 119 118 119 118 117 116 120 123 121 117 106 92 93 101 106 98 91 59 38 37 38 35 37 35 40 73 99 103 111 116 112 113 115 121 119 116 118 111 104 83 69 
133 131 132 132 134 132 130 125 122 130 126 123 121 120 121 122 119 121 118 122 120 114 105 101 102 105 104 104 107 97 96 84 84 88 91 108 116 116 118 117 115 119 118 118 116 118 122 127 116 105 94 91 102 104 100 92 60 34 28 31 28 31 33 37 44 65 68 85 98 104 105 114 115 119 113 112 106 99 71 63 
130 128 127 131 141 134 133 126 124 129 124 125 121 118 123 119 122 117 115 122 122 110 102 99 104 102 103 102 112 95 94 86 79 83 88 107 115 112 116 117 114 116 120 118 119 120 123 119 119 102 93 89 94 101 96 90 62 33 21 20 19 26 35 34 37 43 51 53 67 74 91 109 115 114 101 101 96 87 67 52 
128 125 128 130 133 131 129 125 128 126 125 121 122 117 120 117 117 116 116 116 117 110 101 99 102 104 108 106 105 98 90 86 83 82 87 102 110 114 117 119 115 113 118 120 117 119 120 120 115 103 93 91 100 97 93 93 63 29 18 23 20 26 27 29 27 44 45 41 49 54 82 101 106 105 83 81 73 71 63 57 
131 128 129 129 131 125 129 124 124 124 124 121 123 117 115 117 118 117 117 119 118 105 102 102 102 104 106 104 100 96 95 86 84 84 91 105 108 115 116 112 117 117 118 120 115 117 121 118 116 96 91 91 99 97 94 86 63 28 17 20 19 23 23 26 29 37 41 48 41 46 62 75 78 70 50 46 54 53 64 54 
129 130 125 127 127 125 126 125 125 129 123 125 127 120 117 117 115 118 117 122 120 108 101 101 100 101 105 105 102 92 90 84 88 81 97 109 110 116 113 113 119 120 117 118 118 119 119 119 115 99 78 93 98 93 93 86 59 24 16 16 12 14 20 20 22 35 36 44 38 47 51 51 47 37 40 46 51 55 52 53 
130 128 127 129 126 130 125 129 126 131 126 120 120 118 120 117 118 115 117 118 120 112 103 101 104 101 101 101 107 100 93 86 87 92 96 108 111 111 116 115 113 120 118 118 117 123 123 125 114 93 83 92 95 92 92 86 57 25 11 14 14 15 18 12 22 28 31 34 33 41 46 42 38 37 35 41 47 56 46 48 
130 123 124 128 125 126 130 127 124 125 129 123 120 115 118 113 117 116 114 118 115 108 102 98 96 96 104 101 106 98 93 87 84 85 88 108 108 116 116 117 118 118 114 118 115 118 120 122 112 90 77 86 94 93 89 84 52 20 0 10 7 9 11 9 16 23 27 29 28 35 34 39 33 29 34 37 45 47 51 43 
125 126 124 125 128 128 129 125 128 131 130 123 118 116 120 117 117 116 119 116 120 116 103 99 97 101 106 110 111 103 96 85 84 88 94 111 114 115 118 118 122 121 122 122 115 122 125 123 118 82 73 91 97 102 95 83 52 21 3 3 1 7 3 4 8 19 22 25 29 25 31 34 33 26 30 39 44 40 41 37 


