P2
80 60
149
144 140 141 140 142 144 142 140 146 137 144 145 147 139 145 143 142 140 137 139 140 139 138 141 140 137 140 141 138 139 139 139 140 141 138 141 138 140 143 141 138 138 139 138 135 135 135 137 139 135 134 136 136 134 138 135 137 142 142 139 138 134 140 131 132 133 138 133 130 134 129 134 131 134 133 134 139 125 129 132 
141 136 143 144 142 139 139 139 139 141 142 143 138 140 144 142 144 141 136 140 141 139 138 139 139 136 142 138 139 139 142 140 140 141 136 138 140 139 141 139 137 135 139 138 135 136 135 136 138 136 134 135 134 138 135 136 142 138 138 136 134 135 135 132 133 130 135 126 129 128 128 134 132 130 131 129 132 129 132 134 
138 137 142 145 142 141 139 141 142 142 143 144 137 136 146 144 140 140 138 139 138 140 141 138 140 140 142 138 139 141 139 141 139 138 139 139 139 141 140 140 136 138 138 135 134 134 135 135 137 136 136 134 135 137 134 136 137 140 137 136 133 132 132 131 132 133 131 129 129 130 131 133 131 130 132 133 127 127 128 131 
143 136 141 141 142 143 139 139 141 142 144 140 137 135 143 140 140 142 138 140 140 140 141 142 138 138 139 141 142 141 138 140 137 136 138 139 135 145 140 141 138 139 144 140 133 138 136 139 142 139 138 137 135 136 135 136 138 135 135 134 133 132 133 133 130 134 129 128 132 130 131 135 133 132 131 134 126 125 131 127 
141 139 138 143 141 141 141 142 142 145 140 142 139 137 140 144 141 138 139 139 139 142 142 142 139 142 144 138 138 139 137 138 137 136 137 140 138 143 142 140 141 136 138 139 136 137 137 138 137 136 136 138 134 136 136 134 136 134 139 135 135 132 136 137 132 134 132 131 134 135 129 135 132 130 133 129 130 131 130 130 
136 135 141 143 141 142 141 143 142 140 142 142 137 140 140 143 143 141 139 143 143 141 140 140 139 139 140 138 139 138 137 138 136 135 134 138 138 139 140 137 137 140 143 140 137 140 137 138 135 136 136 138 137 136 137 135 135 136 133 136 135 136 133 133 134 132 132 130 134 132 131 133 132 127 130 129 129 126 129 132 
139 140 140 140 141 141 142 145 142 140 140 141 138 142 144 141 144 140 138 142 141 138 143 137 136 136 140 139 136 139 140 137 136 133 137 138 138 137 138 138 136 138 137 134 135 138 136 135 135 136 135 139 134 137 132 133 139 141 141 139 137 136 135 130 131 133 133 137 129 130 127 137 134 132 128 130 126 123 132 130 
142 142 142 143 141 146 144 143 142 140 141 142 141 144 140 143 142 142 142 143 147 142 139 141 139 141 142 139 138 140 138 137 137 137 136 140 138 140 142 137 141 136 132 136 135 136 136 137 136 136 134 138 140 140 135 135 138 136 136 136 136 136 137 130 132 135 134 129 135 131 125 134 131 130 131 130 131 124 132 131 
146 142 144 142 145 144 147 144 144 141 140 140 138 136 140 139 144 143 138 144 139 140 140 140 141 141 141 139 142 139 138 140 133 133 139 140 139 140 143 139 134 136 135 135 135 135 136 136 135 136 135 137 136 135 133 134 136 135 136 138 135 134 136 133 132 134 136 130 130 131 129 130 134 131 128 129 131 128 132 128 
145 146 141 144 144 145 148 146 142 140 141 140 140 135 138 141 146 140 141 141 139 140 139 139 141 144 142 138 139 138 135 136 135 134 134 137 138 139 141 137 133 135 138 135 133 134 134 134 135 133 134 136 135 135 135 134 137 139 137 134 131 132 136 129 131 133 139 130 130 128 129 134 133 129 128 127 130 122 123 128 
143 144 144 143 145 144 149 143 144 139 138 136 140 136 141 139 142 140 138 141 141 142 138 141 137 138 138 140 137 138 136 138 134 134 134 137 137 140 143 135 131 133 135 132 131 132 133 135 136 134 134 134 133 134 133 133 137 135 133 135 131 132 130 132 130 129 135 131 130 128 125 131 134 133 130 130 128 123 121 126 
143 144 144 145 144 141 147 144 143 139 140 140 137 132 140 138 139 136 137 137 137 137 139 141 135 135 140 137 136 135 134 137 137 135 133 138 138 138 142 136 134 132 132 133 131 135 132 133 130 131 132 134 134 136 134 133 135 135 134 132 133 134 133 130 130 131 129 128 127 128 125 132 129 132 124 130 132 125 127 125 
142 144 145 145 148 143 141 140 138 136 139 139 140 140 137 137 139 139 135 139 140 139 137 141 138 136 137 136 134 137 137 136 135 135 133 136 135 137 142 134 134 130 134 132 135 134 135 135 133 131 132 134 132 132 135 132 137 135 132 134 133 132 134 130 130 130 129 128 128 132 117 133 129 132 129 127 133 122 125 124 
143 140 146 148 145 143 143 139 141 136 138 139 141 139 141 142 141 137 135 133 137 136 139 140 139 136 137 137 138 137 138 136 137 136 135 133 136 138 136 134 134 137 134 133 132 135 136 135 133 138 133 135 132 133 131 134 134 137 135 133 133 134 134 130 128 131 134 128 130 128 128 128 129 126 126 126 129 126 131 126 
149 142 147 146 143 141 143 137 142 138 138 140 140 135 138 137 140 135 134 135 135 138 137 138 137 140 137 136 136 135 132 133 136 134 135 136 136 133 137 138 138 137 140 137 136 135 134 136 133 135 135 130 132 137 132 134 135 148 134 130 132 133 131 129 129 130 132 127 129 127 130 131 129 129 123 124 123 124 129 127 
146 143 145 144 146 141 142 142 140 140 138 140 142 138 138 140 138 133 138 136 136 137 138 137 136 137 135 138 137 135 136 135 134 135 130 136 137 134 136 136 136 137 137 140 139 138 137 136 135 132 132 130 133 134 133 135 135 136 133 136 130 132 137 131 129 131 134 135 130 130 129 132 127 129 126 126 127 126 132 129 
142 145 149 143 149 141 139 137 139 135 136 140 141 135 140 138 136 136 135 134 137 138 137 136 138 136 137 137 136 135 136 136 136 137 131 132 135 134 137 137 136 135 139 140 140 143 138 136 132 132 133 132 134 138 137 134 136 137 133 128 129 132 131 131 127 130 132 132 129 131 130 132 129 129 127 122 129 124 132 127 
143 143 147 144 143 142 146 140 137 135 136 140 140 136 138 138 139 136 135 138 138 135 137 139 137 133 136 137 139 135 137 138 136 134 134 135 135 136 139 138 136 137 139 141 139 142 136 136 138 133 133 134 137 135 136 136 138 141 137 134 131 131 133 127 128 128 129 130 129 130 132 133 128 129 128 128 128 126 129 125 
144 141 144 146 142 142 143 139 138 136 139 139 138 134 136 141 138 140 136 136 137 136 138 139 138 135 139 139 138 137 136 136 137 134 137 136 135 136 138 135 139 139 140 142 139 138 136 136 134 133 132 134 139 136 137 133 136 139 133 132 130 134 130 130 127 131 130 130 130 130 125 129 133 130 126 122 128 124 126 126 
142 144 142 138 143 148 142 140 140 135 140 139 139 134 139 137 140 136 141 137 137 141 138 137 137 141 140 135 134 140 139 137 132 134 133 138 135 134 137 137 140 138 139 139 138 137 136 136 135 134 133 136 135 136 137 135 133 132 134 134 134 138 136 132 133 133 129 130 129 129 127 132 129 128 122 125 126 125 128 123 
141 139 142 138 142 141 142 138 138 144 139 137 139 134 139 138 136 139 134 137 136 140 136 138 137 137 137 134 136 137 148 137 135 133 132 134 137 135 138 136 138 141 138 138 135 134 133 130 133 132 136 136 134 137 138 134 134 134 134 132 134 134 134 128 131 132 133 126 128 132 131 134 128 129 121 124 123 121 124 123 
142 146 144 140 140 138 141 139 142 144 138 139 144 138 139 138 136 136 135 137 136 137 140 138 137 137 136 135 135 137 135 137 136 134 130 135 136 136 137 137 138 137 136 136 135 133 133 134 132 132 138 133 130 141 131 131 133 136 133 133 131 131 130 132 130 132 133 127 128 132 127 130 131 130 127 126 123 120 124 121 
144 144 140 144 143 143 140 144 143 142 138 137 141 138 140 140 137 137 138 136 138 136 135 137 138 136 137 135 137 131 134 133 134 133 131 135 136 134 135 138 136 135 137 135 136 136 136 132 133 132 133 131 131 131 134 134 130 133 131 133 136 130 134 132 129 130 133 129 130 129 128 132 133 129 126 126 126 124 125 117 
137 140 141 147 143 137 139 145 140 139 137 141 141 134 137 137 139 137 136 138 135 137 139 136 137 138 135 135 135 135 135 133 131 135 130 131 132 134 134 135 134 132 135 134 135 136 133 133 133 137 135 131 130 132 133 132 130 135 130 134 126 131 131 133 131 130 134 128 129 132 129 133 127 129 125 126 127 122 126 120 
140 140 140 141 140 140 138 139 141 138 137 141 138 136 139 136 140 136 135 137 138 135 138 138 138 133 136 134 135 133 133 132 131 129 129 131 129 134 133 132 131 131 137 135 138 134 132 132 135 131 129 130 129 130 134 128 132 134 130 133 128 130 131 129 129 131 132 132 129 129 128 125 128 127 127 124 122 123 126 123 
138 137 137 137 138 139 139 140 140 135 137 137 135 136 140 141 139 139 134 134 138 135 137 140 137 135 136 136 135 132 131 130 131 130 128 131 135 129 131 135 127 133 135 136 134 138 130 131 132 130 129 128 130 133 129 128 129 132 131 131 130 131 131 129 125 130 133 128 128 131 127 127 128 130 124 122 125 118 127 123 
141 138 141 142 141 138 139 138 138 138 135 137 138 137 137 138 138 139 136 138 139 135 141 141 137 135 137 135 133 133 134 129 132 130 131 132 133 133 133 132 132 133 137 134 132 136 130 129 131 129 130 129 130 132 129 127 128 130 128 130 130 130 131 128 129 128 129 125 128 129 125 129 129 129 125 123 127 124 124 126 
146 136 141 145 142 139 141 140 140 143 137 138 136 134 136 137 137 137 137 139 140 132 139 141 134 133 136 135 137 133 134 135 128 129 130 130 137 132 133 135 134 134 138 136 134 134 132 131 131 129 128 131 129 130 129 126 131 128 129 129 132 130 132 131 130 128 130 127 128 133 127 129 131 131 128 124 129 124 120 123 
138 141 141 142 142 144 140 142 139 139 134 140 139 137 136 138 136 137 138 137 137 136 137 137 135 138 136 136 136 133 134 133 129 127 129 130 132 134 134 133 132 133 137 135 136 133 131 131 127 128 131 131 127 130 127 125 128 129 127 128 129 129 130 126 127 131 131 127 127 128 127 130 129 128 124 125 123 123 120 115 
140 139 143 139 142 139 141 141 142 139 136 137 141 136 137 136 134 134 134 136 136 136 137 136 136 136 138 134 134 134 131 136 131 128 130 131 132 136 132 132 136 134 136 132 134 131 129 127 129 131 130 131 128 128 129 132 131 128 127 128 129 129 128 127 129 129 134 128 127 129 127 126 130 127 126 129 125 122 120 115 
144 136 142 137 135 133 139 138 138 136 140 137 137 135 134 135 136 132 133 132 134 133 136 134 137 135 135 131 133 134 133 133 131 132 134 134 132 131 135 133 133 135 139 135 131 128 127 127 129 128 127 126 127 129 129 125 132 127 127 128 128 129 131 129 129 130 130 129 129 127 124 131 124 127 123 122 125 122 114 115 
140 142 138 140 141 139 140 137 140 136 138 135 137 132 140 137 139 133 134 135 131 133 138 135 135 139 141 134 135 132 133 131 130 129 130 130 130 131 133 135 137 135 138 137 134 132 129 128 131 132 126 129 130 130 125 127 129 129 127 126 126 128 132 131 123 131 129 126 129 127 127 130 130 127 123 125 124 120 120 116 
139 138 142 141 142 140 140 138 139 136 134 139 138 133 135 136 138 136 134 138 136 132 135 136 138 137 137 136 135 133 132 132 129 130 127 128 129 130 133 133 134 137 137 134 136 131 128 127 133 131 130 129 126 129 128 127 130 128 126 127 125 127 130 128 127 128 132 125 127 130 130 130 128 126 123 124 121 120 115 109 
140 137 140 141 144 138 139 138 140 134 137 138 137 136 135 135 138 136 136 134 135 134 139 135 133 134 138 133 132 136 131 128 129 129 130 130 128 131 134 131 131 134 139 135 132 132 131 128 127 128 129 128 129 130 129 129 127 129 126 127 124 130 130 126 127 126 132 126 130 130 129 125 129 125 123 126 126 120 113 109 
142 138 141 141 139 138 138 138 134 136 137 138 141 136 136 138 139 138 133 136 134 135 140 138 136 139 134 136 137 135 134 131 129 128 130 132 131 131 134 130 129 133 137 135 133 134 131 133 128 127 126 131 129 129 130 128 130 131 128 124 127 128 127 128 128 127 130 127 129 128 131 129 128 128 122 126 128 119 117 114 
142 139 143 141 141 139 137 136 134 136 138 138 137 134 135 135 136 137 137 135 136 135 136 136 131 132 133 134 132 134 133 133 132 130 130 131 131 131 133 133 132 135 136 132 133 134 133 134 130 126 127 129 130 131 126 128 127 128 124 129 126 126 131 126 126 130 127 128 131 130 127 130 129 129 126 126 127 121 117 111 
140 137 145 142 140 138 137 138 135 135 133 137 136 134 136 137 138 140 138 136 133 133 134 136 131 132 131 133 137 134 133 135 131 131 127 131 130 131 132 133 134 133 136 129 129 131 132 129 130 127 127 126 129 130 127 126 127 131 127 128 125 130 128 128 126 128 130 128 128 126 121 128 127 126 121 121 123 118 117 112 
140 140 143 140 138 140 141 140 133 136 134 136 135 137 136 137 139 140 137 136 135 135 134 134 133 133 131 130 132 133 134 133 130 131 131 132 129 130 134 131 132 131 134 133 132 131 129 128 128 126 125 129 127 130 128 128 128 129 128 128 126 125 125 124 124 133 131 125 125 126 123 128 132 124 118 123 123 119 115 109 
141 139 148 142 140 140 140 138 137 137 137 138 139 134 138 138 138 137 136 136 134 138 138 137 136 134 132 132 129 130 132 132 130 127 128 131 132 133 132 134 130 136 139 133 133 128 128 129 128 127 129 128 128 129 129 126 127 124 127 126 122 129 128 127 124 130 131 125 124 125 126 129 131 125 120 122 123 120 115 110 
142 140 143 142 140 142 140 139 139 137 138 138 139 131 135 136 137 134 131 135 136 134 138 139 135 133 133 132 130 132 131 132 129 130 130 133 129 134 134 134 132 139 138 131 130 132 127 131 129 128 129 129 128 133 127 127 126 123 122 125 123 124 129 126 125 125 129 124 126 125 119 127 123 131 121 122 123 114 115 114 
144 138 139 140 138 140 137 134 136 134 136 138 139 135 138 138 133 134 131 135 133 133 136 138 134 134 138 131 130 130 129 129 130 131 126 131 130 131 133 132 131 133 137 135 132 130 131 127 131 129 132 134 129 132 131 127 126 126 123 125 123 124 125 120 122 122 123 122 122 122 120 126 123 127 126 120 122 119 117 109 
140 135 141 143 137 136 139 137 133 136 138 135 137 134 136 136 139 134 132 133 136 133 136 137 136 131 133 130 132 130 129 127 129 128 129 130 130 131 131 129 130 137 133 132 131 128 128 131 130 128 131 131 128 132 129 126 129 126 124 122 126 123 123 123 122 120 124 118 121 122 122 123 123 122 120 119 123 118 115 114 
143 139 142 140 138 137 142 137 138 135 137 136 138 133 139 138 135 134 136 136 135 135 138 135 136 133 131 132 134 133 129 128 131 129 128 134 128 134 132 130 130 132 133 133 129 131 133 132 131 124 130 127 129 128 130 125 125 125 123 126 124 128 129 127 125 126 129 122 123 124 123 128 127 122 124 123 116 119 110 107 
145 137 144 139 137 136 139 136 133 135 136 139 138 133 137 136 137 138 134 137 134 136 135 135 134 134 134 130 133 130 133 131 131 128 128 132 129 133 129 131 133 131 134 134 128 131 134 136 131 125 130 127 126 128 126 124 125 126 123 125 126 124 127 124 126 125 129 124 124 124 125 127 124 123 120 122 119 124 115 107 
136 136 140 136 135 137 139 136 134 133 134 135 137 136 139 134 134 133 133 133 139 132 135 135 137 133 131 130 130 130 132 128 127 126 126 128 127 132 129 130 134 129 135 129 126 130 130 130 128 126 125 123 124 127 125 123 125 126 121 123 123 127 124 121 124 125 130 123 124 121 123 122 122 121 120 120 121 110 101 104 
140 137 137 140 139 137 136 134 137 137 133 133 135 137 144 136 144 134 133 136 137 136 137 137 133 133 131 129 130 132 131 128 128 127 123 130 130 130 132 130 127 130 135 128 130 130 128 127 126 125 126 123 123 125 123 122 122 122 123 123 121 123 125 125 120 128 130 124 122 124 122 124 123 123 123 123 115 97 67 82 
138 136 133 137 136 137 138 141 135 134 135 138 136 136 135 138 140 139 135 138 136 134 136 133 132 132 132 130 133 133 128 128 128 128 125 130 129 130 130 131 130 133 133 130 128 129 125 126 126 123 123 125 124 125 125 123 123 124 124 123 122 122 128 121 122 124 127 125 122 124 119 120 123 121 116 116 118 78 23 42 
143 135 136 134 137 136 136 138 133 132 136 135 136 135 138 139 140 136 138 135 136 133 137 133 135 132 131 131 132 133 126 126 127 127 124 129 128 128 132 131 131 133 132 132 127 127 126 125 126 123 121 125 125 125 123 125 121 124 124 125 126 122 123 122 119 125 124 119 123 119 120 122 122 119 118 116 112 65 8 33 
137 139 136 136 135 136 137 136 134 134 134 136 137 136 137 136 137 136 131 136 134 136 141 137 137 132 132 129 130 128 128 128 124 123 125 126 128 129 131 129 126 126 129 126 124 123 122 123 123 120 125 122 122 123 123 122 121 122 124 125 121 123 125 122 118 119 126 120 121 122 119 122 117 120 116 118 112 54 13 33 
146 134 134 137 138 136 139 135 133 136 137 135 137 134 137 143 139 135 131 138 132 135 135 135 134 133 131 130 131 131 125 126 126 127 124 126 127 128 128 128 128 127 131 129 123 124 122 122 126 120 123 122 124 123 122 123 118 121 119 120 120 124 123 118 118 119 122 120 121 119 120 120 117 118 113 113 105 44 6 36 
139 133 134 137 141 139 141 134 137 136 135 135 135 136 137 139 141 138 135 137 134 132 138 135 136 130 128 128 129 129 126 126 125 125 126 127 126 126 131 129 127 129 132 132 123 124 123 125 121 121 120 118 117 122 120 124 122 118 122 121 119 123 119 119 117 120 123 118 121 118 117 116 119 117 117 111 102 37 8 46 
144 135 137 144 141 139 139 134 133 135 135 135 135 134 138 137 137 137 135 136 133 129 135 138 133 129 130 128 128 129 127 130 125 124 128 128 126 128 126 125 128 128 133 126 124 127 121 121 125 119 121 119 121 123 124 122 119 123 121 119 119 120 120 120 122 121 120 117 120 117 116 119 118 118 113 115 101 34 10 53 
139 131 139 141 139 139 135 135 132 133 132 134 134 130 133 135 133 133 132 133 131 131 132 137 135 135 129 132 129 127 128 129 126 123 123 126 127 130 128 129 129 129 131 127 125 126 125 123 126 123 120 119 123 124 121 123 122 120 123 121 115 119 121 118 114 121 118 113 113 118 115 118 118 118 120 112 102 19 10 45 
137 132 134 138 143 146 136 138 133 134 133 133 133 130 134 130 134 133 133 133 131 131 131 132 131 131 131 131 129 127 126 127 124 123 122 124 125 128 127 129 128 128 129 124 126 126 125 122 127 123 120 122 120 126 121 122 121 122 121 117 117 118 117 114 116 116 119 113 112 114 115 115 116 112 112 113 91 16 2 49 
139 131 133 135 135 136 137 137 134 132 135 138 135 129 136 132 132 132 132 130 128 126 131 130 128 132 133 129 127 126 123 126 124 126 120 125 124 127 125 125 124 129 131 124 120 122 119 120 121 115 121 120 120 124 119 122 117 118 118 117 117 116 116 111 113 112 118 112 112 115 116 122 116 113 112 105 81 4 0 40 
138 133 134 133 132 134 135 135 132 131 133 136 136 132 134 135 134 130 131 132 131 130 131 130 129 129 128 127 127 125 123 121 122 123 122 123 124 127 125 125 128 127 128 124 120 118 119 117 121 120 118 120 121 121 119 117 118 119 116 116 113 117 118 113 113 115 117 111 112 115 116 115 118 117 112 104 84 1 11 35 
134 137 135 132 133 140 134 134 133 134 133 136 140 133 134 130 131 131 131 134 132 131 132 129 129 128 127 124 124 125 122 120 123 121 118 125 124 128 128 126 130 123 124 121 119 121 118 119 121 120 118 121 122 118 118 117 116 115 115 117 116 115 115 117 114 113 117 111 111 114 114 116 113 114 108 109 83 31 16 62 
134 129 133 136 132 136 133 135 132 133 134 137 139 134 134 135 135 134 130 133 130 132 135 128 132 128 130 124 125 125 121 127 122 122 120 125 124 126 131 126 127 121 124 121 119 120 118 118 119 122 118 121 117 122 119 119 116 113 115 115 114 115 114 115 113 113 116 110 109 115 114 117 114 111 112 107 95 69 55 89 
132 132 129 133 134 132 132 134 133 135 132 134 136 135 131 128 131 131 130 130 132 131 134 129 127 127 127 127 128 127 123 123 124 119 119 126 122 127 129 118 118 118 122 120 116 120 121 118 117 117 120 118 116 113 115 111 113 112 112 119 115 116 114 115 115 113 113 109 109 110 114 114 113 111 107 105 100 90 94 101 
137 130 135 135 137 133 134 133 135 132 136 135 135 132 131 132 132 132 131 132 130 130 132 128 129 123 127 129 126 127 126 124 124 122 122 126 128 124 126 119 119 118 119 122 116 120 119 117 121 118 116 116 117 119 110 112 111 115 115 112 112 118 114 114 109 112 112 110 107 111 109 113 114 112 107 112 102 93 107 104 


