P2
80 60
253
49 49 49 46 49 47 46 48 44 37 30 28 36 43 45 50 38 43 44 48 55 62 58 58 64 59 64 62 64 67 65 65 64 64 62 62 61 63 65 63 63 65 63 63 65 62 63 64 67 63 62 60 61 58 60 62 63 63 67 65 64 71 73 69 63 62 64 61 64 64 66 64 69 67 72 68 71 67 65 69 
50 42 52 48 49 44 46 45 43 37 31 35 34 46 49 44 43 40 38 46 57 58 62 58 63 59 67 64 68 66 66 64 63 64 64 64 65 62 61 62 64 64 65 66 64 65 64 67 65 63 62 60 58 62 62 63 65 64 61 65 64 67 68 66 63 63 62 65 59 66 67 66 70 70 70 65 73 68 67 68 
49 49 50 47 47 46 47 44 44 36 30 33 32 49 48 46 38 35 39 45 59 56 62 60 62 62 70 63 64 67 64 68 67 64 62 67 64 64 60 63 63 64 64 63 61 64 64 67 67 63 64 60 62 60 58 61 60 59 64 68 65 70 67 68 65 64 61 67 66 65 67 68 69 70 67 68 66 68 70 71 
48 50 48 47 49 46 49 44 44 36 38 34 37 50 49 47 35 35 37 47 55 60 63 58 63 60 70 63 64 66 66 67 66 61 72 65 66 64 64 62 66 64 67 63 64 65 65 66 70 64 62 60 61 60 61 61 59 60 63 67 69 70 69 67 63 64 65 68 64 66 67 69 67 67 68 67 71 72 66 70 
56 53 50 48 50 48 48 49 48 40 28 30 40 49 51 49 41 40 37 50 57 64 66 63 66 67 71 62 62 64 64 64 66 61 62 66 67 64 68 63 65 64 65 62 65 64 63 68 65 64 66 61 57 63 58 60 59 60 66 66 67 71 71 73 69 65 67 69 68 67 66 68 72 70 69 69 70 72 70 69 
52 48 48 45 45 47 52 47 47 32 24 31 43 53 51 50 43 44 42 55 60 66 67 64 67 68 66 65 63 64 64 62 62 60 64 63 67 61 67 62 65 62 69 63 64 63 68 66 67 62 63 61 60 65 59 62 58 61 71 65 65 70 70 69 67 68 66 71 72 65 65 68 70 69 71 68 70 71 71 69 
48 46 49 51 47 45 47 46 46 35 25 34 39 50 46 50 47 44 46 55 64 63 66 60 66 66 68 64 65 63 64 62 63 60 65 63 66 66 67 62 64 62 61 62 60 65 65 69 67 63 62 62 61 62 58 59 60 70 72 70 67 70 66 69 67 67 68 67 70 66 63 68 70 69 71 68 71 66 69 68 
55 52 50 48 50 51 47 46 44 34 25 27 42 51 53 47 48 45 43 55 65 63 61 62 67 67 67 65 67 66 65 64 63 63 63 68 65 65 67 65 65 62 64 66 65 64 64 65 62 65 65 64 61 59 63 70 61 64 69 66 66 72 69 67 67 67 67 68 70 66 66 67 71 69 65 65 68 68 68 72 
54 50 52 48 50 47 49 49 45 39 24 32 41 45 48 48 41 45 41 54 63 62 59 61 70 65 67 65 68 65 66 65 62 64 63 68 66 66 65 61 64 60 63 61 65 64 62 64 66 65 67 61 62 59 60 62 62 64 65 66 66 72 72 67 68 66 68 67 67 68 65 66 70 69 69 63 66 67 67 66 
57 46 50 48 48 46 50 46 46 31 21 32 42 45 51 48 47 45 41 53 57 62 64 58 64 66 69 65 64 63 65 63 63 65 63 67 65 63 62 61 61 59 62 59 60 64 59 63 65 65 61 61 59 60 59 60 60 55 65 68 64 71 72 67 65 62 70 65 70 67 61 67 71 69 66 68 71 68 68 65 
49 50 51 50 49 48 50 44 43 28 22 32 39 43 50 50 45 44 42 56 60 57 62 61 62 66 67 64 64 67 64 64 64 61 64 64 65 63 66 61 63 59 63 61 61 64 62 66 66 63 64 61 61 61 59 63 62 59 66 65 65 71 70 68 67 62 66 69 65 66 64 67 67 67 67 69 68 67 67 68 
53 46 55 49 51 45 48 46 42 31 20 30 39 44 47 47 38 41 39 53 62 62 62 64 63 66 65 65 66 65 65 62 63 62 64 63 61 59 66 61 65 60 64 61 65 62 64 65 63 60 60 61 58 57 62 61 62 61 64 69 65 73 71 67 67 64 67 63 66 66 63 63 70 70 66 74 70 63 67 67 
54 48 53 56 52 46 43 45 39 31 18 28 38 45 50 47 44 41 41 52 61 62 62 62 63 64 68 65 66 67 64 65 62 65 61 63 64 62 62 62 61 62 63 62 67 62 65 65 66 61 63 62 58 58 60 64 59 61 67 66 64 70 72 71 66 65 64 67 67 65 57 67 69 71 72 70 70 73 66 70 
56 50 53 48 49 45 43 44 38 28 20 26 42 49 45 45 40 42 42 56 61 59 63 63 64 63 66 63 65 67 64 64 67 67 65 63 65 63 63 63 65 63 62 67 63 65 67 68 67 67 63 62 58 62 59 62 61 65 67 68 66 71 71 68 69 68 68 66 65 65 66 66 70 69 68 67 71 72 64 66 
55 45 52 46 45 46 43 43 42 23 23 32 39 45 50 46 40 40 44 53 62 59 59 63 63 62 64 64 65 65 67 63 63 64 64 63 61 61 64 63 63 62 64 62 63 66 64 66 66 63 65 60 59 59 61 61 65 76 68 68 67 70 71 67 71 68 70 70 67 66 66 67 69 69 69 66 68 71 68 70 
52 50 47 48 48 42 41 44 41 26 18 25 39 42 46 48 35 41 45 54 55 61 59 61 61 64 67 63 63 66 63 63 65 60 65 63 62 62 60 63 62 63 66 63 63 61 62 61 67 61 61 63 60 63 60 61 63 70 69 67 67 69 69 67 70 68 68 69 70 66 66 69 71 70 67 69 71 73 71 71 
51 49 52 45 44 42 46 45 35 19 15 26 36 45 48 45 35 39 43 51 60 56 64 63 63 62 71 64 63 62 66 65 65 67 64 65 63 61 61 63 63 64 66 64 61 65 64 64 62 62 61 62 58 62 60 59 65 67 67 70 68 68 70 68 66 65 68 70 68 67 65 71 79 73 68 68 70 69 69 66 
53 52 44 43 50 44 43 39 38 19 15 21 37 45 44 45 36 37 43 53 58 62 64 61 66 69 65 64 64 66 65 65 66 66 63 64 63 62 64 62 65 64 60 60 65 65 63 62 64 60 59 59 54 59 65 60 59 69 68 70 70 70 68 69 66 68 67 71 69 68 68 70 74 72 68 68 70 72 66 67 
56 49 45 46 49 46 42 39 34 18 17 31 38 47 46 41 38 40 46 56 63 61 64 61 68 65 65 62 64 65 62 64 67 66 65 64 65 64 66 67 63 64 61 67 63 62 62 60 62 61 61 59 63 62 62 60 63 67 68 67 66 67 70 68 68 69 69 70 68 67 66 71 71 67 68 66 69 72 66 71 
55 51 47 43 54 42 39 39 37 23 22 36 43 44 47 46 40 41 44 54 60 64 67 61 66 66 67 64 64 69 68 66 61 63 65 63 63 64 65 65 64 64 63 60 62 60 61 62 63 63 62 62 60 60 60 64 62 66 67 65 67 70 71 69 67 66 70 68 71 71 68 68 73 68 66 65 67 68 69 72 
53 44 47 44 45 43 37 37 34 21 21 33 47 47 47 43 42 37 50 54 61 62 63 67 63 63 68 62 67 65 68 65 66 64 65 63 63 62 64 63 63 65 63 62 63 60 59 64 64 64 60 58 60 59 62 58 61 64 67 70 68 68 73 70 69 66 70 69 71 69 68 69 71 73 67 69 70 69 69 70 
46 48 44 44 45 40 41 39 36 18 21 40 43 45 45 44 44 35 44 56 61 59 65 62 65 64 67 63 65 67 69 66 65 63 62 62 61 61 63 62 66 65 63 62 61 58 58 63 61 59 61 59 56 57 62 59 63 63 70 67 66 67 70 71 70 70 70 70 71 73 71 69 74 70 69 68 69 71 74 74 
43 40 43 49 46 40 42 38 32 16 17 40 43 42 42 41 41 32 45 53 64 59 66 60 62 66 70 64 64 65 64 64 64 63 62 63 60 63 61 64 63 63 61 60 63 59 60 63 62 61 65 61 61 60 60 61 58 65 72 69 70 72 72 70 71 73 70 68 70 70 67 72 74 70 70 71 72 73 69 75 
45 39 39 39 40 40 36 39 34 20 17 38 41 44 45 43 40 36 47 55 64 60 61 61 61 65 68 63 62 66 64 65 62 64 64 64 60 61 60 61 61 62 61 61 59 60 60 62 62 65 62 59 59 58 58 60 60 64 70 68 67 70 71 70 74 70 73 71 71 73 68 72 74 71 70 69 72 71 71 71 
46 41 39 40 41 37 37 36 34 16 13 34 39 46 43 36 37 37 44 53 67 64 64 66 66 66 64 67 64 65 67 63 59 63 64 61 61 62 60 62 63 61 63 63 63 56 60 63 65 63 58 60 57 57 58 60 62 65 69 69 68 74 73 70 74 69 75 74 73 73 70 73 77 75 69 71 74 73 73 74 
38 39 38 35 39 36 35 34 32 18 12 39 36 42 45 35 34 36 44 55 60 60 61 62 65 65 67 67 63 66 63 61 63 60 60 61 61 60 60 61 63 63 61 63 63 61 64 64 63 63 59 56 55 59 55 59 60 64 68 72 68 71 72 69 73 72 72 68 69 70 69 70 74 70 73 71 74 76 69 72 
40 35 33 33 40 35 37 33 30 9 13 34 36 38 42 35 34 34 41 54 59 60 64 60 63 64 68 64 64 64 64 62 62 62 66 61 60 60 59 62 63 60 64 61 62 62 60 63 62 61 60 56 56 56 56 59 59 63 64 68 69 72 71 68 72 72 74 73 72 68 70 71 72 69 71 70 74 70 72 71 
37 39 34 36 43 37 33 34 25 8 14 31 36 37 39 32 34 31 40 51 63 66 65 61 67 67 67 66 64 65 64 64 63 62 62 63 61 63 61 65 59 60 63 61 59 61 61 61 62 61 61 59 55 56 57 60 62 66 68 67 72 70 72 72 71 70 71 71 71 70 70 71 75 76 71 72 74 72 72 69 
41 37 38 35 38 35 33 31 30 9 14 24 32 39 38 33 31 32 39 56 58 62 61 64 66 66 69 67 66 67 64 66 61 62 62 61 62 63 64 63 64 61 61 62 61 60 63 61 61 60 57 57 54 57 58 62 67 65 72 70 73 74 73 73 72 71 74 74 73 71 75 70 74 68 76 72 74 73 68 73 
42 36 37 38 39 38 35 30 32 11 16 25 28 38 34 28 28 33 41 52 60 60 63 60 65 63 72 67 66 65 66 67 60 61 65 65 61 64 64 64 63 63 62 61 61 61 59 58 61 62 60 59 58 60 63 67 67 68 74 68 70 73 74 74 71 71 79 75 72 73 75 75 74 77 71 75 73 74 68 75 
36 31 32 33 40 37 31 34 27 12 13 26 33 34 32 30 26 34 37 52 62 58 60 55 64 66 69 63 68 65 65 65 64 66 69 64 63 63 62 66 63 63 62 65 62 64 60 62 62 62 62 60 60 65 69 73 70 72 70 70 71 75 71 79 73 74 75 79 74 73 74 76 76 76 71 72 75 74 75 72 
36 33 31 36 36 30 34 32 24 8 13 27 30 33 27 30 24 31 39 49 60 59 63 59 66 71 71 65 68 69 67 68 68 65 64 66 64 61 61 65 66 65 64 62 63 64 62 69 67 69 67 64 68 67 68 77 72 68 72 72 73 80 79 75 74 77 77 78 78 76 76 76 77 76 75 71 72 77 72 76 
30 30 34 35 31 34 31 30 25 7 13 25 27 31 26 24 19 34 36 51 56 61 63 65 69 71 70 67 69 70 71 68 64 64 64 70 64 67 64 65 61 64 69 64 66 69 66 68 66 69 68 70 78 92 85 86 79 71 73 73 79 79 76 79 78 77 78 82 87 79 77 75 77 77 76 74 77 78 71 75 
27 28 33 31 31 31 30 29 22 10 12 26 25 24 21 16 18 28 35 50 58 61 61 61 66 68 72 68 65 73 73 69 65 67 67 74 67 65 64 64 63 68 68 67 67 67 67 69 68 67 66 68 91 112 111 113 105 88 85 84 78 84 79 79 80 74 80 83 83 79 78 81 79 78 76 78 78 77 73 76 
27 27 32 28 28 27 31 27 25 3 12 20 24 25 22 15 14 26 33 45 55 58 62 58 64 65 72 65 71 86 102 111 90 72 72 70 64 65 65 67 68 69 70 69 71 69 71 68 67 67 64 64 98 119 119 120 123 122 118 117 106 98 87 82 83 78 82 80 84 81 83 80 81 83 78 76 79 78 75 77 
24 29 28 24 28 27 25 30 24 6 10 15 18 23 23 12 15 28 32 50 54 54 60 59 67 66 69 68 77 117 149 151 143 103 72 68 67 72 66 73 71 71 71 67 71 67 72 72 67 61 59 67 107 123 119 126 125 128 130 131 132 134 129 116 99 89 85 87 84 87 80 82 81 84 81 77 80 81 76 81 
26 30 26 34 34 32 28 27 26 14 11 16 18 19 14 13 12 21 28 45 54 54 58 53 60 63 69 66 79 130 158 165 158 103 69 69 81 77 73 69 73 68 67 64 64 63 65 63 62 61 60 70 111 122 126 129 127 130 131 139 139 138 137 135 132 125 116 110 99 93 84 87 84 85 82 81 87 83 80 82 
55 60 62 62 63 61 60 60 59 46 39 30 25 20 16 6 9 25 25 38 52 53 61 57 57 61 67 68 74 135 186 193 171 116 80 77 78 87 75 68 68 66 66 64 65 64 60 64 61 62 61 73 120 130 123 130 130 134 136 136 138 142 145 141 139 139 133 133 128 126 111 99 92 87 84 84 82 80 80 86 
77 78 83 74 78 72 71 71 71 69 64 64 23 20 16 6 7 19 24 40 54 52 57 54 61 63 70 68 74 124 183 199 171 123 85 80 75 79 74 71 67 66 67 64 64 63 62 61 63 61 63 81 127 126 128 130 129 136 137 141 143 146 148 144 144 140 141 140 138 140 135 128 121 114 105 97 87 90 85 86 
80 84 84 84 81 79 77 82 82 77 78 69 33 16 13 5 2 13 21 39 49 55 61 59 59 63 74 67 74 107 137 151 146 119 76 71 69 67 66 65 63 63 63 61 63 60 68 63 67 63 66 92 127 129 132 131 129 136 140 144 148 150 149 152 149 141 145 142 141 146 137 141 138 132 126 121 115 104 95 95 
85 85 87 83 82 80 79 82 81 77 78 73 39 18 11 5 0 10 22 37 52 51 57 55 61 69 76 66 74 102 122 135 132 129 102 77 67 63 64 64 62 65 63 63 62 63 62 65 64 63 68 98 134 135 132 133 132 135 140 144 146 146 149 148 147 146 146 147 153 145 141 143 136 141 135 135 138 130 119 107 
86 88 86 83 85 82 83 83 79 76 77 75 58 21 14 1 7 8 19 38 48 49 55 55 60 64 72 76 92 108 113 119 118 111 114 110 73 65 65 64 61 61 63 63 61 63 65 61 65 65 64 110 143 135 133 136 134 139 143 148 149 151 152 155 153 151 147 147 151 149 143 143 142 140 139 136 141 135 121 122 
92 88 90 87 86 81 83 84 81 79 80 79 71 39 13 2 2 11 18 33 50 52 56 54 59 61 72 75 93 103 106 110 112 111 111 112 93 67 66 63 63 61 61 62 65 70 66 68 67 63 67 119 136 136 133 136 135 139 142 150 147 154 153 155 155 150 155 150 155 155 145 147 146 144 139 143 143 135 127 122 
95 91 87 86 87 82 82 80 79 78 82 80 73 61 16 4 2 13 17 31 49 48 54 55 57 63 72 78 87 97 100 102 106 106 105 108 102 76 65 63 56 61 60 62 69 72 76 79 72 70 77 134 135 132 132 137 140 143 148 152 154 152 156 155 158 155 159 152 156 157 152 148 149 144 142 143 147 135 125 126 
92 89 89 83 86 84 86 81 82 78 79 78 76 69 30 5 4 14 18 33 51 44 54 55 56 63 69 81 81 90 92 97 99 99 98 105 99 74 66 60 61 58 61 67 71 70 76 80 76 77 87 141 136 137 133 138 143 148 149 153 151 155 156 157 159 158 162 159 160 157 156 155 149 147 146 145 151 133 124 127 
93 87 86 86 89 83 86 81 84 83 80 83 85 81 55 14 12 8 20 34 51 49 55 54 58 59 74 77 80 84 92 94 98 96 96 96 78 66 62 62 60 60 62 67 69 77 76 76 80 86 101 152 144 135 136 139 144 149 153 155 156 157 155 159 164 163 162 163 164 158 160 155 153 148 151 148 152 136 124 128 
93 91 84 84 85 86 86 83 82 85 81 85 84 81 69 35 8 10 19 35 53 53 55 54 61 65 73 69 73 83 80 80 78 75 74 67 66 62 61 59 62 63 65 66 73 69 77 76 79 83 109 159 148 142 144 143 149 153 157 157 158 158 160 158 162 163 167 166 168 159 159 154 157 151 152 153 156 131 127 131 
91 91 91 86 87 84 89 84 83 81 82 83 85 80 75 56 20 14 18 34 49 52 55 51 57 62 72 66 67 73 69 66 61 71 60 65 63 61 62 61 58 64 63 67 70 74 78 73 82 81 120 164 155 150 154 155 153 156 156 159 157 158 158 162 164 166 170 170 165 159 157 156 157 156 155 153 154 133 126 127 
93 90 89 90 90 86 89 86 83 83 82 82 82 87 81 73 42 21 14 35 48 50 61 56 61 61 70 65 66 70 66 66 66 63 62 66 65 65 60 64 63 63 64 65 68 70 77 73 79 80 135 179 168 176 158 161 160 161 162 159 159 162 161 164 167 167 175 171 168 164 162 158 161 159 157 163 148 136 127 133 
94 89 88 89 88 87 84 85 84 85 80 84 85 83 83 78 62 42 30 32 45 58 58 53 61 60 71 63 64 66 65 63 65 63 64 63 66 61 64 63 64 65 62 64 64 69 69 72 76 72 103 144 176 188 177 185 168 167 165 165 160 164 160 164 167 170 169 172 175 166 165 161 163 160 156 163 147 137 126 134 
91 94 90 89 88 86 82 86 87 85 83 82 81 84 81 80 71 68 44 36 41 54 61 57 64 60 67 60 63 65 62 64 65 64 67 68 65 64 67 66 69 65 62 61 63 64 67 71 77 79 83 88 129 172 186 189 185 184 175 167 169 166 163 170 172 169 177 177 175 168 167 169 169 166 163 173 144 139 127 131 
94 94 92 93 87 84 86 87 85 84 84 83 78 79 78 78 76 78 69 56 51 52 59 61 59 60 63 63 64 68 67 65 66 62 71 68 69 65 71 69 65 66 63 62 61 61 65 71 81 83 86 80 85 103 135 170 194 200 199 182 170 171 172 174 174 176 179 181 182 175 171 173 166 164 168 177 147 135 130 131 
93 89 86 92 91 88 90 89 86 85 85 81 79 80 79 79 78 80 74 78 70 62 64 62 66 65 68 63 65 71 68 68 70 70 73 78 72 76 72 72 75 68 64 63 60 58 62 71 88 90 89 86 87 90 92 112 150 194 222 208 195 189 183 181 182 187 189 185 181 183 179 178 173 174 173 174 144 141 133 136 
95 90 88 89 97 95 88 90 86 86 88 83 80 76 75 79 73 78 76 81 76 67 71 64 66 66 72 69 71 72 74 73 73 77 75 74 75 74 79 75 78 73 68 61 59 60 66 78 84 89 87 85 89 92 81 88 96 119 168 198 205 205 208 197 195 192 191 190 195 184 182 181 179 176 183 171 149 141 142 135 
92 90 90 89 94 91 86 91 87 85 88 83 81 69 68 72 73 76 75 81 83 72 73 69 71 69 82 71 70 71 72 72 72 74 76 75 74 78 80 80 81 77 73 73 63 61 69 78 82 82 89 83 81 84 83 82 85 87 100 133 165 200 224 227 219 208 201 202 202 197 190 196 186 184 192 173 147 145 137 142 
92 88 93 92 93 88 89 92 89 86 90 84 72 68 70 65 68 77 77 80 79 76 79 67 70 65 74 69 66 72 71 73 75 72 74 73 72 72 76 73 75 76 75 74 71 71 73 78 84 80 81 75 76 75 80 82 83 81 89 93 105 138 186 227 242 227 223 215 210 213 204 195 192 188 200 161 156 140 138 146 
92 93 95 94 91 87 88 89 85 87 85 82 81 68 66 61 65 75 76 86 81 81 81 73 65 58 68 67 67 67 63 68 71 69 71 72 69 68 65 68 69 73 69 69 72 70 72 77 81 76 75 72 75 74 78 81 84 84 82 86 89 95 117 158 199 223 238 231 234 222 212 206 201 202 212 163 155 149 139 148 
93 94 94 93 92 88 85 89 85 86 83 85 76 70 67 62 63 72 74 78 80 78 81 68 63 55 62 60 60 63 58 59 61 65 66 65 64 62 65 65 67 64 66 64 63 59 64 74 74 73 79 69 73 73 75 78 80 81 81 81 84 84 91 98 120 155 198 234 251 251 238 217 212 220 207 165 156 146 142 147 
93 92 87 89 92 86 92 88 88 84 84 85 79 68 62 62 59 65 74 82 80 81 82 71 52 50 53 53 54 52 52 52 57 54 58 58 59 61 60 59 61 59 65 57 63 59 68 67 71 67 69 69 70 74 80 76 77 81 81 82 81 84 81 84 92 101 121 158 213 247 253 236 229 229 205 158 159 149 148 152 
93 89 91 87 94 84 87 90 87 84 84 82 83 73 62 59 65 68 73 81 78 81 82 74 53 50 59 53 52 55 52 54 58 56 59 59 60 60 56 49 52 60 56 61 64 63 71 62 68 66 70 70 73 74 72 76 78 79 82 82 82 83 80 84 83 89 90 104 137 182 217 230 236 227 199 167 166 156 154 150 


