P2
80 60
43
27 34 33 29 30 31 27 28 32 35 34 32 33 32 35 28 30 29 32 32 31 28 33 30 30 32 31 34 36 32 33 35 31 33 34 32 33 32 28 29 32 32 35 34 34 31 29 34 35 38 34 33 32 32 30 30 34 31 38 31 27 29 30 25 24 24 23 23 24 20 23 26 24 27 28 31 28 29 24 32 
32 32 35 32 31 33 26 33 33 35 31 36 30 30 32 29 34 29 29 33 31 31 31 30 29 36 36 31 35 36 35 36 33 31 34 32 34 31 30 31 27 30 32 31 33 31 29 31 31 36 31 34 31 35 32 31 36 31 34 31 28 25 30 29 27 19 24 20 22 19 24 22 21 25 30 30 26 29 25 33 
29 31 33 32 30 27 27 27 38 34 34 34 32 32 33 30 28 33 34 32 37 33 32 30 29 37 35 33 35 34 35 37 30 34 38 34 36 33 31 30 28 31 33 33 33 30 29 33 33 33 34 33 30 33 33 33 32 30 29 34 29 27 27 25 25 21 24 23 21 20 24 23 26 32 25 29 26 30 28 29 
31 28 26 27 34 26 29 26 32 34 36 33 26 31 33 28 31 30 34 33 32 31 32 31 29 36 35 34 33 35 30 36 33 35 31 34 32 31 30 31 32 29 32 32 30 30 31 32 28 34 33 36 32 31 31 29 36 29 33 31 31 28 28 27 25 24 23 27 20 21 22 25 27 31 29 26 23 28 31 28 
31 33 30 35 31 32 29 30 34 30 32 35 30 30 30 32 35 31 31 35 37 33 32 32 31 34 36 35 35 33 32 36 32 32 28 34 33 36 35 31 32 30 32 33 34 32 31 34 29 33 31 31 32 32 29 28 31 29 29 29 27 27 27 29 24 25 27 28 28 24 24 25 24 25 34 30 28 26 25 25 
34 33 31 34 36 30 31 35 35 30 31 30 33 33 33 34 32 32 33 35 35 33 34 32 32 37 34 37 37 32 31 34 29 31 32 31 34 35 31 34 28 32 38 32 32 32 32 35 33 35 35 36 34 33 30 32 30 30 34 30 31 27 26 28 24 23 23 24 26 24 24 25 26 29 33 29 31 30 27 25 
36 38 33 38 36 31 30 33 33 34 34 32 32 33 31 35 38 34 34 37 36 31 34 29 30 35 37 39 35 34 35 35 33 35 31 34 30 36 36 31 32 31 35 31 34 32 32 35 33 33 33 37 31 31 32 31 28 34 40 32 35 30 28 28 26 22 24 24 26 25 23 25 28 30 27 33 26 27 26 25 
37 36 37 39 38 35 31 36 34 32 37 34 31 33 35 32 35 35 36 37 38 33 30 32 33 37 33 34 33 35 33 36 31 32 33 36 35 33 36 32 34 30 33 36 31 30 34 33 30 34 31 33 32 30 32 31 30 31 30 31 28 29 30 28 27 28 27 23 27 25 21 20 29 27 25 26 26 29 24 27 
37 33 35 36 35 34 29 36 31 34 29 29 33 28 30 31 35 33 34 39 32 32 32 31 33 32 34 34 35 32 31 34 30 31 35 30 33 32 30 33 31 29 30 32 31 31 30 32 33 36 33 32 33 31 30 29 29 30 32 34 30 25 27 29 26 24 27 26 21 25 18 22 24 29 25 25 24 26 22 31 
37 40 37 36 31 33 34 33 35 31 31 31 35 33 29 31 36 31 33 35 33 33 34 33 32 37 34 35 34 33 32 30 34 32 32 33 33 31 30 31 30 31 31 33 28 29 29 31 31 34 36 36 29 30 32 29 33 29 32 34 30 27 27 26 25 25 28 25 22 23 21 24 27 29 30 25 23 29 22 28 
38 40 39 38 35 37 40 35 39 35 35 31 35 31 34 30 33 34 32 34 34 35 32 34 31 39 37 30 35 31 32 37 33 30 32 35 32 30 32 34 26 29 29 30 30 32 28 30 33 34 31 35 30 28 31 31 31 27 32 32 30 30 28 28 25 25 24 26 22 25 20 20 29 30 28 30 26 29 23 30 
35 34 36 41 36 36 34 33 33 35 32 31 31 30 30 31 33 32 30 30 31 34 32 32 30 35 33 32 36 33 31 35 35 34 33 33 31 27 31 30 30 31 30 30 29 31 28 30 30 33 35 30 31 32 31 27 29 25 31 30 31 31 31 28 26 25 28 22 21 18 20 18 27 32 29 31 29 30 26 27 
42 32 31 38 36 33 30 34 30 34 31 32 32 30 30 32 33 31 30 31 32 33 30 32 33 34 34 32 35 37 35 35 35 34 31 33 30 32 36 33 28 29 32 30 31 32 31 32 30 34 33 33 30 31 28 27 30 34 29 32 29 31 34 29 24 24 25 24 24 22 12 22 22 28 31 32 22 30 25 29 
36 40 40 40 33 34 31 32 33 27 29 32 30 31 32 31 31 32 31 31 32 32 31 31 31 34 34 33 36 34 32 33 31 32 33 30 29 34 31 28 31 33 31 29 31 34 33 35 28 37 33 35 28 28 30 29 33 31 36 30 33 27 26 27 26 23 24 25 24 19 23 18 22 30 26 28 22 27 30 32 
38 37 39 38 30 26 28 30 31 31 27 29 29 29 29 29 30 31 31 30 27 31 33 32 32 34 32 33 32 29 32 33 32 35 30 32 32 33 29 31 30 31 31 29 30 29 30 30 30 36 33 34 30 29 28 29 34 41 37 30 30 26 30 28 24 23 25 25 19 21 24 22 22 28 26 27 22 28 25 29 
38 36 36 37 29 30 29 32 37 31 29 33 33 30 29 33 28 29 29 28 31 28 32 33 32 35 30 34 36 30 35 35 32 30 33 34 31 31 32 30 29 32 29 31 30 32 31 31 29 34 27 31 28 30 29 31 30 33 31 34 32 24 28 25 27 28 27 25 27 19 26 25 27 26 29 22 22 28 24 28 
35 39 39 38 35 33 33 32 35 30 27 33 30 31 33 33 31 26 30 30 32 31 34 32 31 32 34 34 38 35 31 35 31 32 31 35 32 32 31 34 33 28 29 28 29 32 29 30 30 31 28 30 28 32 36 34 32 33 32 30 28 28 27 29 28 25 25 28 23 26 28 25 29 29 27 28 20 26 30 27 
36 34 39 41 37 33 30 31 30 30 29 27 29 32 32 28 28 26 27 33 32 30 31 32 31 32 31 35 34 34 31 32 31 29 30 32 35 30 29 35 28 28 29 30 28 29 29 29 30 30 26 32 31 32 33 33 32 35 34 31 29 25 26 24 26 26 27 23 24 23 25 23 28 26 23 26 23 27 23 27 
35 37 35 39 38 35 32 31 33 33 30 30 31 31 33 29 28 31 28 31 28 32 32 31 34 33 31 31 35 33 31 34 32 33 34 30 35 31 33 34 32 32 31 31 30 30 33 31 32 29 30 32 32 30 30 30 30 35 29 30 30 26 25 28 25 25 26 29 27 23 21 21 30 26 25 22 22 26 21 26 
34 35 36 39 37 36 33 28 35 31 35 30 29 31 30 31 30 31 33 32 35 37 37 35 30 34 34 32 35 33 33 32 35 29 33 32 34 35 33 32 32 28 31 30 29 32 31 30 30 33 32 35 30 27 30 31 31 29 29 30 30 27 28 27 26 24 26 29 27 26 24 27 26 30 26 24 20 23 23 26 
36 37 36 37 37 34 31 33 35 34 36 32 31 32 30 31 31 31 32 33 34 31 31 33 34 38 33 36 36 36 43 36 32 34 33 29 34 33 29 34 33 33 33 30 29 29 27 30 29 32 30 32 37 29 31 31 30 31 31 31 30 27 28 29 25 22 26 31 27 25 27 25 27 30 26 24 20 24 26 26 
39 36 42 38 35 34 30 32 33 32 34 31 40 32 33 32 32 32 32 35 34 31 33 32 29 37 35 33 34 36 35 37 35 31 29 31 35 30 29 31 33 33 31 28 30 28 28 28 32 32 31 32 28 36 32 29 29 31 34 33 26 26 28 32 29 26 27 25 25 29 26 26 27 30 24 23 19 26 23 25 
36 30 37 37 36 30 33 32 37 33 28 33 31 32 33 28 31 28 28 37 32 30 32 31 32 36 33 32 31 31 33 34 36 28 28 31 33 30 31 34 30 28 28 28 25 27 27 30 28 34 30 31 27 30 32 28 29 27 29 31 30 25 25 30 31 25 25 23 25 25 25 26 29 31 25 25 18 25 26 31 
34 39 35 39 35 36 30 38 34 34 31 36 34 30 29 29 31 30 32 33 34 34 30 31 29 35 30 34 28 30 29 32 32 27 28 28 33 32 29 35 31 27 28 30 24 27 29 27 32 37 32 31 34 28 29 30 29 25 28 31 28 27 28 27 26 23 33 25 27 29 24 25 26 28 29 21 19 30 24 24 
37 34 38 37 35 32 34 34 39 35 33 36 34 31 31 27 32 29 34 33 36 35 29 28 29 34 29 28 32 31 27 30 28 26 30 32 30 29 28 28 28 29 30 29 31 30 29 31 30 35 31 28 30 28 28 28 31 28 25 26 29 28 25 24 23 28 28 26 28 25 22 20 26 30 27 23 20 20 24 28 
35 34 36 34 33 32 33 36 35 35 35 31 35 32 32 32 31 29 28 32 32 32 29 31 31 32 30 31 32 31 28 30 30 27 30 34 33 28 29 30 29 30 32 30 28 29 32 32 29 30 28 29 29 29 24 26 28 26 28 29 27 28 24 28 28 24 29 27 26 26 23 25 24 24 24 28 19 25 22 27 
36 34 37 41 35 33 35 35 35 32 30 32 34 31 33 31 32 32 32 34 31 31 33 29 32 33 34 33 34 31 31 30 30 28 29 30 32 30 28 28 26 28 30 27 28 29 26 29 30 32 30 32 27 27 29 30 27 27 29 28 27 29 28 30 25 23 26 25 26 23 24 24 24 28 24 24 21 23 19 25 
37 34 34 41 34 31 31 35 33 31 32 31 31 32 28 25 31 30 29 35 29 32 32 31 33 34 33 35 32 35 33 33 29 27 26 29 31 28 28 29 30 29 30 30 28 29 27 31 30 31 30 32 30 27 29 26 28 27 24 28 30 25 27 29 28 26 21 25 24 26 24 25 27 28 21 21 21 22 23 27 
34 36 32 35 34 31 30 30 34 34 33 30 27 33 29 29 30 30 28 33 28 33 33 34 30 35 33 32 37 31 31 32 31 27 26 30 29 30 29 30 27 30 29 29 29 27 32 32 30 32 30 33 30 31 27 27 26 25 26 27 29 24 25 28 28 23 28 23 20 24 24 24 24 20 21 21 19 22 22 27 
38 33 36 36 29 33 29 30 39 31 30 32 32 29 28 30 29 27 26 31 30 30 32 31 29 36 34 33 32 34 29 32 29 27 28 33 33 32 29 28 30 30 30 29 27 30 29 30 33 34 29 30 28 30 29 31 26 26 23 27 30 27 27 28 26 22 30 27 25 22 23 22 23 24 19 24 18 19 18 24 
35 34 35 33 34 33 28 32 35 30 30 33 32 35 33 27 31 30 29 32 29 30 38 31 30 36 34 32 30 32 30 29 29 27 32 33 31 29 30 31 32 30 32 32 27 31 25 31 33 32 29 32 29 29 29 25 26 26 25 27 30 26 29 30 27 25 26 27 27 23 25 27 21 20 19 22 16 25 17 19 
34 33 38 38 37 32 29 30 34 30 32 37 34 37 33 35 30 30 32 32 31 31 33 31 30 33 38 34 33 33 30 31 30 30 28 29 32 27 28 31 33 30 31 31 31 27 29 30 29 35 31 31 29 28 29 26 28 29 27 25 25 25 26 27 28 26 26 22 27 22 24 22 21 21 19 19 12 25 18 23 
32 35 33 39 33 35 29 32 36 31 32 34 33 31 31 34 33 33 30 30 29 29 28 30 32 33 31 34 33 30 34 32 29 28 25 32 30 27 26 29 29 31 30 27 31 28 26 28 28 34 31 33 28 27 28 27 27 28 27 25 24 25 28 25 25 24 26 24 25 22 20 22 21 27 20 20 19 24 18 27 
35 35 35 38 38 35 29 30 38 34 31 35 32 33 30 32 31 30 31 32 33 30 30 34 32 34 33 32 34 34 32 31 29 30 31 28 31 29 27 30 30 32 35 30 31 32 25 28 32 33 31 32 27 30 32 27 29 30 25 26 26 29 26 28 29 26 25 25 25 23 22 21 21 21 22 21 19 24 20 25 
33 33 38 38 33 31 30 30 30 29 32 31 34 32 31 30 34 31 31 33 32 30 30 30 32 33 29 31 32 33 32 30 28 28 30 27 29 30 26 31 31 31 30 32 29 34 29 29 26 29 33 35 33 29 26 24 28 26 28 26 26 27 27 28 26 25 27 23 23 24 24 23 25 22 19 20 15 23 19 21 
33 32 33 37 36 30 31 30 33 29 32 31 32 30 28 28 27 31 28 30 34 29 30 32 29 34 30 30 32 32 31 31 30 29 27 28 32 28 26 30 30 26 26 28 30 29 31 33 29 26 30 32 33 28 29 25 26 27 28 29 23 23 25 25 23 22 22 22 24 22 23 18 19 20 19 16 17 22 21 23 
32 30 36 36 33 33 29 30 30 27 31 28 30 29 28 29 30 34 34 30 30 30 31 32 28 29 31 31 33 31 30 31 32 27 27 27 31 30 27 27 28 28 29 29 29 31 26 31 29 31 27 29 29 27 26 25 30 26 26 28 24 24 25 24 25 24 23 21 23 18 21 16 20 22 15 19 14 24 24 22 
26 36 33 36 34 34 30 30 32 28 29 31 31 29 30 31 35 38 35 32 30 30 30 30 30 31 25 28 34 31 33 32 29 29 28 28 30 28 26 29 28 29 33 30 31 33 27 29 29 31 31 28 28 27 26 25 28 26 24 25 25 27 25 26 27 26 22 24 23 20 19 17 18 19 17 16 11 23 22 25 
31 34 40 35 34 33 27 34 31 33 33 32 32 29 30 30 32 34 30 31 31 32 32 30 29 29 29 29 34 30 28 32 31 29 27 29 29 30 34 29 32 31 31 30 32 31 26 28 27 29 31 29 31 26 27 26 28 25 23 24 24 24 24 28 27 25 26 22 23 22 22 19 18 19 18 17 17 21 21 25 
33 31 32 36 33 33 29 33 33 30 31 33 33 27 28 28 31 28 27 32 33 34 29 31 30 31 30 33 32 32 30 33 32 28 28 29 30 28 29 31 31 28 32 31 30 34 31 30 29 31 34 31 31 28 27 26 28 22 25 26 27 23 23 27 22 21 24 21 23 20 18 18 21 25 16 14 15 21 22 24 
31 32 32 34 34 28 27 30 33 29 30 33 34 34 32 28 28 28 30 32 31 29 31 30 31 36 36 32 33 28 28 31 31 32 28 30 30 29 28 30 31 28 31 28 28 29 31 32 31 29 34 37 31 31 27 28 27 21 23 23 28 26 26 25 21 18 20 23 22 21 19 16 19 18 18 16 15 23 24 27 
29 29 31 34 32 26 28 29 31 29 32 33 32 27 34 29 28 29 24 31 33 31 31 31 31 32 31 31 32 30 31 31 30 36 28 30 29 31 29 31 32 28 28 29 30 30 31 33 30 33 34 32 30 28 31 27 26 26 26 27 26 24 26 25 25 23 25 20 21 22 16 14 21 22 13 18 15 21 19 25 
31 32 34 32 32 31 25 26 31 31 30 29 29 34 32 31 30 26 28 32 29 27 30 32 29 31 30 31 34 29 29 31 30 28 28 31 31 30 28 31 33 28 28 29 31 33 30 31 31 34 32 32 29 29 28 27 27 26 28 27 24 26 26 28 25 23 18 21 20 20 17 10 17 15 9 15 15 22 16 18 
33 30 32 32 32 27 25 27 32 29 28 34 28 33 29 30 28 32 33 33 32 29 28 33 29 34 29 28 33 29 33 31 31 30 29 29 31 29 26 28 29 31 31 30 31 34 32 35 31 31 28 28 29 27 26 23 30 26 25 27 27 25 22 24 23 24 21 23 22 22 19 10 11 13 13 16 13 22 16 19 
32 31 32 36 26 28 25 31 32 32 29 27 32 35 29 31 31 30 28 34 33 33 30 32 27 31 30 29 28 30 28 32 31 32 28 30 29 29 28 29 30 30 30 28 31 31 33 32 31 29 29 28 27 26 24 22 25 25 23 27 23 24 25 27 23 24 24 20 26 21 17 11 11 16 16 14 14 16 20 21 
30 29 31 35 32 26 29 27 34 28 29 36 30 32 32 31 33 30 30 31 34 32 31 30 29 31 30 29 31 31 29 31 29 28 27 33 31 30 29 31 25 30 27 29 32 35 30 32 27 33 31 29 24 26 26 22 23 24 25 24 23 24 27 25 25 27 26 18 23 20 16 11 13 19 18 13 12 18 13 21 
31 31 30 33 30 27 24 30 30 25 29 31 32 27 31 32 31 29 30 29 29 30 28 28 31 32 25 28 32 31 31 29 29 27 27 31 27 26 23 28 26 28 28 29 32 36 30 28 26 32 27 29 27 23 24 23 21 23 27 29 23 23 27 25 22 21 22 25 20 18 14 10 14 13 14 7 8 14 9 23 
30 30 30 33 29 27 25 31 30 26 27 30 33 31 28 30 30 27 32 29 32 31 30 27 27 32 26 25 32 32 26 31 30 27 26 31 30 30 28 27 30 30 30 30 31 30 32 24 27 27 23 27 25 23 27 23 25 26 24 29 28 23 25 28 21 20 22 20 20 16 16 15 14 11 9 9 10 16 10 17 
30 30 32 31 29 26 29 29 29 29 26 31 33 33 32 33 31 31 30 33 30 32 34 31 29 31 31 28 30 29 30 30 26 29 28 30 32 31 26 31 30 26 30 28 30 25 29 29 27 28 25 26 24 24 28 27 26 26 28 28 29 26 22 27 25 24 23 22 22 21 16 9 15 14 10 13 11 16 14 17 
28 28 29 30 25 28 28 28 30 30 30 29 30 29 31 28 30 31 33 34 31 32 30 30 29 32 28 28 28 29 28 28 28 29 27 29 30 25 26 29 28 27 29 27 27 28 23 20 24 25 24 26 26 27 27 24 26 24 26 26 28 28 23 24 24 21 21 19 21 19 15 7 11 14 10 12 9 16 11 11 
26 29 30 32 28 28 28 28 29 31 29 31 29 29 31 29 30 31 26 28 29 29 29 30 27 31 27 28 29 28 28 30 26 28 25 26 27 26 28 26 24 27 31 25 26 28 27 22 23 24 28 25 26 24 27 23 24 23 26 26 27 23 22 25 21 21 22 18 21 18 15 8 9 16 8 11 8 13 12 19 
31 29 30 28 30 26 30 27 31 26 26 29 29 27 30 29 30 30 29 31 33 27 27 28 31 30 27 26 29 30 28 28 23 26 31 26 23 25 27 27 26 27 24 25 26 28 24 23 25 24 26 25 30 29 23 25 32 22 29 25 23 24 24 24 20 22 21 21 19 18 14 5 9 14 6 11 12 15 11 14 
27 34 29 32 29 29 27 25 30 29 26 29 26 29 28 27 29 27 29 27 26 29 26 30 27 30 34 28 28 30 27 26 25 28 26 29 28 23 29 28 28 26 24 23 26 26 24 25 25 27 24 26 25 25 27 25 29 25 28 24 25 21 24 24 22 19 20 21 21 19 9 7 8 8 9 8 12 17 7 14 
29 29 27 32 37 29 25 27 30 31 27 25 27 30 28 26 29 27 27 31 26 27 28 27 31 32 30 32 30 27 28 31 26 25 26 27 26 25 24 28 32 25 23 25 24 24 27 24 25 29 26 29 30 26 30 27 25 29 29 27 27 26 24 21 20 19 17 18 18 14 12 6 2 13 12 7 2 15 7 11 
27 25 30 28 30 27 25 27 30 29 27 27 30 31 27 27 27 30 28 29 28 24 26 26 29 35 33 31 29 25 29 27 26 25 22 23 27 25 24 26 23 28 25 23 23 25 25 28 27 25 29 28 28 30 31 26 28 25 29 27 23 24 21 21 17 21 20 18 17 16 14 4 7 10 4 7 4 11 7 13 
24 26 27 28 26 27 26 31 25 27 28 28 29 29 26 25 27 32 30 29 26 26 24 23 29 30 29 29 27 27 21 27 25 26 25 25 25 25 21 23 22 24 25 24 25 24 25 27 24 24 27 27 28 28 25 24 24 26 26 25 23 23 21 22 16 21 20 17 16 18 16 8 12 11 4 4 3 7 7 15 
25 32 31 29 28 26 27 31 27 29 27 30 39 29 31 29 31 32 30 34 34 26 24 27 26 31 30 27 27 26 28 27 25 24 24 26 28 25 24 23 24 27 24 24 24 25 25 26 26 28 26 29 25 26 26 26 27 26 26 22 25 24 24 22 21 18 19 17 15 13 8 9 6 8 9 12 8 14 11 17 
27 26 27 28 26 29 26 27 31 30 31 33 34 30 27 30 32 27 32 29 34 29 31 26 25 30 29 24 29 25 26 29 25 25 25 25 27 25 28 25 26 24 28 25 25 26 28 26 25 32 29 28 28 26 31 24 23 24 27 25 26 23 24 22 22 20 17 16 18 16 6 2 7 6 8 6 3 15 10 16 
23 27 27 29 26 23 24 26 33 29 26 31 27 27 28 27 28 26 26 31 30 28 28 30 25 29 25 28 28 28 24 29 29 25 24 28 26 28 28 27 24 29 34 26 26 24 25 29 27 30 27 27 27 25 32 23 24 24 26 27 24 23 25 22 21 18 21 16 13 8 6 0 8 8 8 6 8 14 12 7 
29 26 29 28 24 27 22 25 29 25 28 26 28 26 26 26 27 27 29 27 29 30 30 27 28 28 26 28 28 26 26 26 27 27 30 27 32 25 27 27 27 26 29 29 26 26 27 30 26 31 26 29 28 27 27 24 25 26 29 27 24 24 23 23 20 18 22 17 18 6 4 3 1 7 2 3 9 12 11 9 


