P2
80 60
309
33 24 30 57 69 73 80 92 101 98 99 108 106 107 107 108 110 113 108 103 114 108 109 105 107 108 112 106 100 98 95 109 111 116 110 116 117 127 125 127 126 134 127 126 127 122 123 126 126 126 124 125 128 130 131 130 135 134 130 131 125 127 129 129 123 123 117 118 124 128 127 124 125 125 130 131 135 127 127 124 
34 19 29 51 64 73 83 91 97 98 100 105 105 106 107 105 113 110 109 107 116 111 111 109 105 106 116 108 104 101 103 115 106 114 110 110 118 123 127 129 128 134 127 128 126 128 125 129 125 128 128 129 127 129 135 135 136 136 131 132 127 124 128 129 124 120 118 120 123 126 124 129 130 129 132 129 135 128 123 132 
20 12 20 44 60 70 76 87 96 97 97 99 106 106 103 104 103 104 108 109 115 108 105 108 108 109 115 107 103 102 103 117 109 117 108 114 120 124 124 128 129 127 130 126 126 125 124 128 126 125 127 130 129 130 129 130 133 128 128 127 128 128 126 127 125 117 118 121 124 126 126 125 127 128 126 130 135 130 126 132 
17 7 17 29 48 69 79 89 94 89 97 102 103 101 101 106 102 106 108 106 112 114 108 111 109 110 114 109 99 98 105 114 115 114 114 113 126 122 126 122 129 129 129 128 126 125 128 126 129 128 128 126 129 129 130 134 132 128 128 131 135 126 124 124 119 117 117 122 124 128 125 129 124 127 126 131 133 131 130 130 
13 10 9 26 42 61 78 92 96 90 93 97 101 101 103 106 104 110 108 109 110 111 109 109 108 111 115 108 95 94 107 112 113 109 107 115 125 130 128 127 130 130 130 126 126 127 129 130 125 127 130 126 130 129 129 133 133 128 129 128 133 127 129 130 124 120 121 127 123 126 125 125 127 129 129 132 132 129 126 134 
14 10 11 22 39 61 77 85 92 91 93 96 98 105 103 104 108 109 112 113 110 112 112 111 111 109 114 106 96 94 109 111 111 111 109 111 128 127 128 128 127 128 130 127 128 126 134 130 130 130 129 128 128 127 130 135 131 133 129 132 130 124 128 124 120 121 121 129 132 127 126 129 129 128 130 132 133 131 127 133 
16 4 4 25 37 57 73 80 83 85 92 101 94 98 99 98 106 106 107 107 108 107 110 107 108 112 114 104 99 96 106 112 106 108 110 117 126 125 128 126 127 129 127 127 123 128 128 130 130 128 128 128 127 126 129 130 132 136 137 128 128 126 123 126 120 120 121 124 123 126 124 125 126 127 131 129 131 129 129 128 
9 4 13 31 42 57 69 76 78 77 83 91 92 98 98 96 102 103 107 109 113 107 107 107 109 110 111 102 89 92 107 111 108 106 107 116 127 126 126 127 127 129 125 128 125 126 128 128 124 130 131 128 132 125 131 136 131 132 132 127 128 123 128 126 121 122 122 122 127 131 123 128 126 127 130 127 130 128 126 130 
13 4 14 32 50 55 62 75 80 77 87 89 98 98 99 102 106 101 104 108 111 107 103 110 108 110 108 100 92 96 112 108 103 105 102 115 126 127 124 126 127 127 125 127 129 126 127 127 126 126 132 130 130 131 127 130 131 129 129 130 128 127 125 126 121 120 122 121 125 129 121 121 129 125 126 127 129 125 126 130 
9 9 14 33 50 52 67 73 79 74 81 85 100 104 108 112 110 105 101 99 105 112 107 107 106 106 111 99 92 99 106 112 102 106 103 115 129 121 123 126 125 127 125 124 125 126 124 127 124 128 130 124 130 128 133 130 131 122 130 127 127 127 126 127 120 117 124 126 128 126 122 127 127 124 125 129 130 127 127 133 
15 11 17 31 43 55 72 69 73 76 76 89 94 112 118 117 115 109 105 101 104 106 102 106 104 105 108 103 96 98 107 109 102 106 103 115 127 126 127 125 127 126 127 124 124 123 126 129 124 125 128 128 130 129 130 135 132 131 129 127 127 126 127 129 122 117 124 127 130 125 123 124 124 127 130 130 131 126 125 132 
14 6 25 30 41 53 65 65 68 66 78 85 97 108 110 115 107 105 102 98 104 104 106 110 103 106 105 97 93 97 107 111 108 108 106 115 124 120 125 125 127 127 128 126 126 127 126 127 123 124 129 127 127 124 129 129 133 126 129 129 126 127 128 127 123 118 120 121 125 125 121 123 125 133 126 132 134 128 127 129 
10 3 11 32 38 55 57 69 66 72 76 80 94 107 105 104 105 100 99 96 105 105 104 105 102 105 106 99 92 100 111 110 107 110 104 117 125 122 124 124 126 125 127 127 127 127 129 127 124 126 130 125 127 122 128 132 132 132 131 127 126 125 129 126 123 118 122 123 115 131 123 122 126 124 131 132 130 131 125 129 
5 6 10 27 37 50 57 66 70 68 80 78 92 104 107 113 104 96 96 96 104 104 99 106 103 105 104 92 87 102 108 108 106 108 107 117 125 122 122 122 126 125 127 124 128 127 129 128 127 128 129 128 127 126 128 129 131 129 128 129 126 125 125 124 124 121 119 125 124 124 124 122 125 127 127 128 135 136 128 124 
8 5 11 28 37 53 58 67 70 69 76 90 99 108 108 110 112 101 103 98 100 100 99 104 103 104 101 92 89 102 105 110 104 107 105 112 124 121 120 126 127 129 129 127 126 127 130 128 126 131 128 128 127 128 130 133 136 135 135 129 129 126 122 122 122 119 121 124 125 126 123 124 127 129 129 129 130 133 124 131 
0 4 10 26 36 52 62 69 73 75 87 94 100 103 106 109 107 108 108 102 102 100 97 101 98 102 102 91 91 103 104 107 102 106 106 118 126 120 121 127 126 128 126 125 125 125 125 127 126 125 128 127 129 127 128 131 134 134 132 129 129 123 124 124 122 122 120 122 128 126 124 129 125 128 126 130 132 133 127 127 
5 6 12 26 39 57 60 69 74 80 88 91 93 92 95 108 106 111 110 107 105 97 98 103 99 103 103 94 88 104 106 113 107 110 107 118 124 119 118 123 126 130 126 124 123 125 125 125 125 127 127 128 127 130 130 130 134 132 130 128 124 127 124 122 120 120 124 127 126 128 125 131 134 127 126 129 128 133 128 128 
5 2 7 27 43 50 60 65 77 80 82 91 97 91 90 103 103 102 110 108 105 102 99 101 101 108 97 92 88 102 106 110 107 110 109 119 126 124 126 126 131 129 127 127 128 129 126 126 128 123 127 126 123 128 134 132 133 137 129 132 126 124 126 127 124 125 118 131 127 133 127 133 130 129 134 128 131 131 128 129 
5 2 12 31 41 51 64 68 75 75 87 91 92 93 95 97 99 108 111 103 109 103 101 102 101 100 98 87 89 107 107 111 106 108 112 120 127 128 126 128 129 129 129 130 125 125 125 123 123 125 126 127 131 130 128 132 137 131 129 130 129 125 126 124 123 119 121 129 131 131 129 130 126 128 129 133 134 130 130 129 
9 11 16 34 48 57 61 68 82 78 87 87 93 96 97 99 106 110 112 108 105 102 104 102 99 101 100 92 88 108 109 111 105 105 111 122 128 128 125 124 128 128 128 125 123 123 123 126 123 128 127 129 131 128 129 130 131 127 128 128 129 124 122 124 122 120 123 123 128 135 128 128 129 127 128 127 130 130 127 133 
12 8 14 34 43 54 64 69 85 80 83 86 98 96 94 99 107 105 110 108 108 100 98 104 99 97 98 88 89 107 110 108 108 105 111 122 128 128 124 125 128 133 125 126 126 125 126 126 124 129 128 128 130 129 130 129 130 125 130 126 127 123 128 125 121 120 122 125 132 129 128 132 127 130 128 127 131 132 132 131 
22 11 16 39 47 57 71 77 87 84 83 89 101 98 95 98 104 108 113 106 107 97 99 102 100 99 98 92 92 102 111 109 102 106 110 118 123 125 125 125 131 130 128 123 123 123 124 124 122 124 129 125 129 133 128 130 131 128 130 126 129 126 125 127 124 122 123 128 132 137 131 133 129 131 128 131 131 131 132 138 
25 21 23 47 49 54 63 74 85 81 84 91 101 96 92 95 102 100 109 104 102 98 96 100 95 99 98 88 89 103 109 108 105 104 108 121 122 123 123 122 126 128 126 123 121 123 124 125 125 126 128 126 132 129 127 130 131 126 131 128 129 127 127 123 123 126 123 128 128 132 131 133 133 127 128 128 131 131 129 135 
31 24 23 39 46 55 61 74 78 82 88 88 94 94 95 98 97 97 96 94 98 98 98 96 94 96 90 84 92 103 107 105 102 103 110 120 124 121 124 124 124 129 123 122 123 122 122 125 123 128 131 128 131 128 128 128 130 128 128 126 127 123 126 127 126 123 127 127 131 132 127 132 131 130 127 131 135 132 131 135 
31 25 25 39 50 55 64 65 68 69 82 83 92 95 97 95 97 95 94 91 95 94 94 98 98 98 91 78 91 94 104 104 98 99 110 118 121 123 121 126 126 127 126 126 125 119 123 128 126 125 127 128 128 130 127 128 130 127 128 124 129 122 127 128 125 123 127 127 128 130 132 130 129 133 131 134 135 135 133 134 
40 24 30 39 51 57 62 65 65 69 82 84 91 92 94 94 97 98 92 90 91 92 93 101 96 99 93 85 91 101 104 100 99 97 106 121 123 126 126 125 128 130 127 126 129 129 127 132 127 128 125 123 128 131 125 129 131 127 126 126 125 123 126 124 126 126 127 130 130 131 128 130 130 130 135 133 138 135 133 134 
36 27 30 43 50 54 59 59 64 66 79 81 89 88 88 93 94 95 90 90 90 92 101 98 97 96 93 85 91 101 103 100 99 99 110 119 122 121 122 125 124 126 127 125 127 125 126 125 122 126 126 124 126 124 125 130 128 125 125 128 124 122 123 124 127 123 132 128 132 129 128 129 129 126 132 130 135 134 132 132 
34 40 27 39 52 54 59 62 64 66 76 82 92 89 84 86 92 92 90 89 91 94 97 98 94 96 90 88 92 102 102 98 97 102 106 121 120 119 123 129 126 126 127 125 124 125 126 125 123 125 128 124 126 128 125 128 130 128 127 125 129 122 125 124 124 123 125 127 131 128 132 129 130 135 131 134 133 133 133 135 
37 34 30 40 50 50 54 61 64 66 73 78 78 84 79 83 84 89 87 89 86 92 93 95 94 90 90 86 92 99 98 101 94 101 107 118 120 121 126 131 127 130 126 126 127 123 127 125 121 125 132 127 125 125 126 128 129 125 126 125 127 123 121 124 124 125 126 131 131 131 134 133 131 134 133 133 140 134 134 137 
36 36 36 41 45 50 55 55 62 65 73 80 76 80 76 75 78 83 82 82 88 89 91 92 93 89 85 85 92 96 97 98 89 93 109 120 120 122 125 126 127 125 129 125 127 125 124 120 123 125 126 126 128 126 126 128 128 125 126 123 124 121 125 126 123 124 128 134 132 134 130 134 133 133 132 135 133 132 130 128 
34 33 34 39 45 48 51 59 62 61 72 83 83 75 72 73 78 78 76 84 83 89 89 95 90 93 86 83 90 93 94 94 87 100 108 119 123 126 122 125 128 127 131 129 128 126 125 127 125 127 128 126 129 125 126 129 128 126 125 122 125 123 124 129 124 123 127 134 130 134 133 135 133 134 134 135 134 136 134 130 
28 28 36 43 47 47 52 56 51 65 72 76 78 74 72 73 76 74 80 79 84 88 91 92 94 93 92 84 88 91 90 91 88 96 109 122 124 124 125 127 130 131 131 129 129 128 127 129 130 132 129 126 130 127 130 134 131 130 125 127 127 129 133 133 132 131 128 134 135 139 134 133 133 133 136 133 139 139 132 132 
18 18 31 43 42 48 52 54 55 61 73 72 75 72 69 69 74 74 80 81 82 88 87 92 91 93 85 79 81 89 87 84 82 96 107 121 121 123 126 130 128 131 134 133 128 129 129 130 129 129 129 127 130 126 128 132 131 127 124 129 134 134 131 138 133 134 133 134 142 140 135 133 134 134 136 139 138 139 135 137 
15 18 27 40 40 48 51 50 53 53 63 68 70 64 68 68 73 76 81 83 83 88 87 89 91 87 82 75 79 88 85 80 79 91 105 115 117 120 124 125 129 132 137 136 135 133 133 138 126 131 130 128 128 129 128 129 132 127 132 133 137 158 156 147 142 137 136 136 135 140 137 143 136 135 136 137 140 138 136 135 
4 26 30 42 42 50 56 54 53 53 63 65 68 73 90 103 110 113 115 114 120 118 118 119 118 110 101 93 85 80 80 82 75 89 106 115 117 122 127 128 133 143 183 200 187 155 130 132 130 131 134 132 132 130 135 133 137 137 133 133 147 175 180 179 174 161 153 143 144 142 140 142 138 138 138 136 143 139 135 140 
16 33 34 45 50 54 54 52 52 51 58 56 65 84 121 126 132 136 131 131 127 133 132 135 131 126 133 128 102 84 82 78 74 88 103 116 119 121 121 130 133 153 203 223 223 164 137 146 133 140 134 132 136 133 133 136 135 130 127 131 148 179 189 192 187 186 190 185 175 166 153 144 144 142 142 144 143 145 142 145 
21 36 40 49 46 46 47 52 50 44 50 59 63 100 124 131 134 136 141 140 135 140 133 137 134 138 138 132 110 91 77 77 75 88 99 114 118 121 126 121 133 148 223 255 235 167 146 150 145 138 132 133 135 133 133 135 131 125 129 129 158 179 187 192 190 194 196 194 198 204 191 180 164 155 149 147 148 145 141 143 
18 36 38 42 43 44 44 40 42 38 43 49 82 118 129 130 134 148 141 139 142 143 144 142 136 138 142 140 115 85 77 68 69 88 102 112 118 122 124 126 131 146 203 225 218 170 141 144 138 138 130 128 133 131 131 133 135 129 129 130 166 184 187 195 195 199 198 201 210 209 209 203 195 186 178 163 153 150 146 149 
22 30 36 43 44 45 43 41 45 41 48 57 98 128 129 135 138 140 140 142 143 143 143 143 142 143 144 141 131 93 72 72 71 87 101 112 120 120 124 126 132 143 184 195 199 176 136 131 131 135 135 129 132 130 132 132 131 131 127 135 178 187 196 195 196 201 200 207 208 214 207 209 202 201 196 195 185 170 159 154 
30 29 36 44 42 45 49 45 45 46 64 74 118 133 132 134 139 141 141 141 147 144 145 148 140 141 149 141 135 110 77 73 68 86 96 110 117 119 122 122 130 160 172 175 175 179 165 144 133 130 134 132 131 129 131 131 130 124 123 136 184 188 191 197 201 202 203 208 210 218 215 211 206 203 201 199 200 194 182 177 
60 57 43 45 44 43 45 43 41 41 56 91 125 139 134 136 140 140 145 143 147 141 144 147 143 146 152 146 139 122 80 68 66 84 98 111 117 115 122 124 139 158 163 165 168 172 172 158 131 129 129 127 133 131 131 131 130 125 127 146 184 186 189 198 202 207 207 211 215 218 211 211 205 206 199 204 200 198 190 193 
72 76 50 43 45 42 38 40 44 45 60 110 133 142 139 135 142 142 143 144 144 143 144 145 146 145 152 147 141 127 92 74 72 85 103 119 120 119 122 128 144 154 161 161 164 169 170 168 137 133 125 130 128 129 132 134 135 130 126 157 193 193 196 200 203 209 206 214 215 225 221 217 216 210 208 205 200 199 186 195 
77 73 50 44 45 38 39 42 51 56 86 118 137 138 141 137 137 138 141 140 143 145 143 146 145 147 148 143 137 139 118 78 73 85 99 112 118 116 124 127 141 148 155 155 157 162 154 147 133 132 127 129 128 130 139 136 136 130 133 169 197 196 197 204 207 210 208 209 219 224 223 220 215 211 205 204 204 195 188 196 
85 77 57 55 49 45 43 47 53 65 113 134 145 142 138 140 141 139 142 139 146 146 144 147 143 145 149 146 142 137 137 102 76 79 101 112 123 120 125 128 131 140 140 139 145 139 140 141 130 135 130 127 130 134 138 140 141 139 148 187 211 200 204 207 212 212 214 215 222 229 223 225 218 214 210 208 211 200 188 195 
81 69 49 52 51 52 54 54 63 97 128 134 138 145 139 144 146 145 143 143 151 142 146 148 147 145 151 146 141 141 139 132 92 94 103 115 121 125 127 127 129 131 136 133 131 133 132 135 128 131 129 126 131 134 138 139 146 146 151 198 211 206 207 209 215 214 217 218 224 231 225 223 217 216 210 209 211 200 190 189 
81 74 64 66 66 58 64 72 97 120 136 143 148 147 145 141 144 142 144 147 148 147 145 148 144 143 153 147 142 140 140 139 123 106 103 121 124 122 126 129 130 130 130 129 130 132 129 134 128 130 129 125 130 130 135 138 143 148 161 213 218 213 212 217 214 217 218 224 228 234 230 231 224 222 218 216 215 203 193 193 
89 91 79 80 78 77 80 92 117 129 138 146 149 149 141 145 145 144 143 145 150 150 147 147 146 147 157 144 137 141 138 137 135 129 121 121 123 118 126 121 128 128 130 126 129 130 127 128 123 128 125 124 130 129 133 134 142 149 165 226 242 226 224 222 223 217 220 227 232 235 231 236 226 223 223 223 219 203 192 200 
104 100 96 96 99 101 106 119 127 130 138 144 139 138 134 143 148 147 143 149 152 150 146 147 147 151 149 138 131 129 137 137 135 141 131 127 122 123 122 122 122 129 128 125 129 129 134 125 128 128 127 128 126 128 128 134 139 141 147 187 238 244 237 237 232 225 223 225 230 233 236 234 232 228 227 226 220 202 194 195 
107 103 96 102 101 100 114 130 131 132 135 140 127 130 136 144 147 149 152 146 150 150 152 152 148 148 147 137 131 128 130 142 140 139 135 128 129 122 123 127 127 128 128 127 133 129 132 131 130 128 132 129 125 124 125 134 143 143 146 149 175 212 244 254 247 236 235 230 232 241 238 243 235 236 229 232 222 201 199 198 
107 101 98 107 100 105 114 130 132 136 134 135 116 121 137 140 143 143 146 147 144 146 147 146 142 145 148 139 130 125 128 134 139 138 135 131 129 124 125 125 129 130 133 131 134 135 135 140 138 136 138 132 128 127 127 133 142 145 142 146 151 154 185 238 265 258 254 256 248 250 247 249 241 240 235 239 221 205 197 200 
103 100 100 103 102 101 117 138 136 134 135 129 111 117 133 147 144 143 144 146 146 142 149 142 145 142 150 139 133 128 128 132 139 141 139 137 129 122 126 126 133 131 137 130 135 136 139 143 139 140 140 138 132 129 125 136 148 150 151 151 158 149 149 170 213 242 266 271 266 259 255 254 250 246 244 249 217 206 197 205 
104 100 98 102 100 107 119 133 137 134 133 130 113 118 136 143 145 145 149 144 150 146 147 147 144 145 149 142 135 129 128 138 140 142 142 137 131 124 124 121 127 130 133 132 133 133 135 138 137 144 144 140 139 137 136 138 145 151 148 149 151 151 145 148 154 177 228 277 288 280 269 268 261 255 253 255 218 204 201 206 
101 98 94 101 101 104 126 132 135 136 138 133 133 135 144 143 143 146 149 148 148 147 148 150 147 147 150 146 142 143 138 139 139 139 140 139 129 115 113 114 124 118 123 124 123 127 129 131 130 133 135 136 137 139 134 136 142 143 148 146 148 145 146 144 144 147 163 210 257 293 296 294 280 267 261 259 221 210 202 209 
103 95 94 102 104 105 116 137 135 132 138 140 138 144 140 145 146 146 147 145 145 150 149 151 148 147 151 146 144 146 145 143 139 141 139 139 125 109 113 114 119 119 122 120 122 123 123 126 123 125 124 122 126 126 129 134 138 138 138 142 139 140 141 142 142 141 144 154 178 224 275 309 304 276 271 262 223 210 206 210 
98 96 95 102 103 101 121 130 139 140 139 138 140 144 146 146 147 151 145 149 149 148 148 148 147 147 157 147 144 145 147 145 140 142 138 136 132 116 111 110 117 120 121 123 120 120 122 119 116 121 121 128 130 132 131 132 134 135 138 139 137 138 141 142 140 141 137 146 150 168 196 264 288 296 289 259 221 215 212 212 
97 96 99 102 100 99 109 126 135 140 145 145 144 150 145 145 143 150 150 146 151 151 148 145 148 149 154 149 145 147 146 146 141 140 138 137 136 127 112 110 120 126 125 124 120 124 123 124 122 120 125 128 130 128 131 138 138 135 139 140 139 139 140 138 139 140 141 143 145 154 159 175 213 249 272 241 231 216 219 220 
94 96 101 103 96 93 107 129 128 139 141 141 155 151 145 147 148 152 150 151 149 151 147 147 145 146 151 144 144 145 142 144 135 135 134 133 131 131 121 121 124 129 129 124 126 126 128 128 127 129 126 126 135 134 132 135 139 137 137 136 139 138 141 140 142 140 139 140 141 149 146 150 155 174 190 208 219 229 228 222 
98 94 94 101 97 94 102 125 135 139 141 147 149 154 146 147 144 148 149 149 149 146 149 148 148 144 149 145 143 147 142 140 134 137 135 131 135 131 128 129 129 124 130 130 130 131 132 142 126 131 131 129 134 130 139 139 141 139 138 139 144 142 143 143 144 142 138 138 139 148 148 145 146 152 157 160 187 218 230 233 
99 95 94 99 96 101 100 120 133 136 144 145 147 152 144 141 146 146 147 148 147 147 149 148 145 145 150 145 143 141 143 142 135 135 132 130 128 130 130 133 136 138 143 135 137 134 139 139 135 135 134 136 138 133 138 139 142 138 138 140 138 141 140 145 149 145 143 138 139 142 143 141 143 139 144 148 160 174 209 230 
97 94 96 97 94 91 104 113 132 133 147 142 146 151 144 140 148 146 146 148 146 146 150 148 145 141 148 145 143 145 139 143 134 138 129 129 129 129 136 133 140 142 142 144 147 149 151 149 143 140 137 135 138 136 134 137 141 143 145 142 142 145 143 150 149 144 146 149 147 141 141 146 140 141 140 141 151 150 165 208 


