P2
80 60
46
38 42 37 36 34 32 38 35 34 36 38 34 37 32 34 32 34 32 33 37 34 34 32 32 27 27 33 37 31 34 37 32 39 39 38 35 34 36 32 35 37 32 27 30 31 29 33 29 32 29 27 32 30 31 31 35 38 39 42 35 41 31 32 29 29 27 25 24 25 27 24 24 24 25 27 30 23 27 27 22 
40 40 36 31 35 36 32 34 36 36 40 39 31 35 35 34 34 32 35 35 33 33 31 33 29 29 31 31 33 35 35 35 34 33 35 31 38 35 31 34 36 36 30 34 31 31 28 29 28 29 26 29 30 33 32 36 34 34 35 33 32 27 26 26 29 25 25 22 26 22 26 23 25 26 27 26 25 30 31 22 
37 41 31 32 36 34 36 32 40 39 37 38 33 30 36 35 31 29 33 33 33 35 35 31 30 35 35 36 35 37 35 37 35 34 36 32 35 35 33 33 32 36 32 30 29 29 28 31 30 30 26 29 30 32 30 35 32 32 30 31 30 28 27 27 27 24 21 22 27 24 25 27 28 29 27 27 22 28 31 20 
45 40 35 34 36 36 38 37 32 38 46 35 32 31 33 34 35 35 35 33 32 35 33 35 32 34 34 35 35 38 31 34 36 35 36 36 34 35 35 35 36 35 35 34 33 32 32 30 26 27 28 28 31 28 31 34 33 32 29 34 30 27 27 28 27 28 23 25 28 27 27 27 24 24 22 25 24 26 31 25 
46 39 33 37 33 34 39 34 37 37 34 36 31 33 35 33 35 30 36 36 36 33 33 36 34 32 36 37 31 31 36 35 34 32 34 36 37 36 38 37 38 38 33 34 33 35 32 33 34 33 31 32 30 31 29 33 31 29 30 29 30 27 27 32 30 26 25 26 31 28 26 31 26 27 27 27 24 29 29 22 
36 36 35 35 36 36 39 38 36 37 36 33 35 36 34 33 32 36 32 37 35 38 36 34 35 35 34 37 32 32 33 33 32 32 34 32 38 35 36 36 36 38 36 35 34 38 38 37 33 36 35 35 38 32 32 38 29 32 31 31 31 30 27 29 26 25 26 27 32 29 30 27 30 26 26 24 26 29 25 24 
37 39 37 35 40 36 37 37 39 36 36 36 33 34 36 35 38 34 37 36 34 33 37 33 33 33 36 32 31 31 35 33 35 33 31 34 30 38 35 37 34 35 33 35 34 35 35 36 34 34 37 40 42 40 34 35 38 38 39 36 31 31 29 30 28 28 24 26 26 28 24 25 25 19 25 26 26 28 29 23 
38 41 37 37 37 38 38 39 37 36 34 35 31 35 32 37 34 33 38 35 37 36 33 34 32 34 35 34 34 33 33 32 33 32 34 38 36 31 33 33 38 34 38 36 33 34 40 38 32 33 34 38 39 38 34 40 35 34 36 34 34 33 32 28 29 28 29 25 28 27 26 24 25 27 25 24 24 26 27 25 
37 43 37 38 40 39 40 38 32 38 37 34 37 32 36 34 34 32 36 38 34 32 35 34 34 33 39 36 33 30 35 32 34 31 33 35 36 35 34 33 33 36 32 33 32 32 34 36 33 33 33 38 37 34 33 39 35 34 33 41 33 33 32 27 26 28 28 27 25 29 26 25 23 24 25 24 26 28 25 20 
43 45 36 39 37 38 43 36 36 35 37 35 36 31 32 34 37 32 36 34 34 36 33 34 35 34 31 33 31 34 32 32 32 32 34 32 36 36 32 33 33 35 33 33 30 31 32 33 32 34 35 37 35 35 35 37 33 34 36 33 30 31 30 28 28 29 29 26 29 28 26 27 25 23 26 25 24 24 22 16 
43 45 38 39 39 40 43 37 38 38 34 31 35 33 32 37 34 33 35 36 30 34 35 35 34 36 32 30 34 30 31 34 32 32 31 34 33 32 32 36 33 33 34 32 31 28 35 33 32 36 35 35 37 34 34 36 34 30 36 35 31 29 29 30 29 26 26 26 26 30 23 24 23 30 25 29 23 23 26 11 
40 41 41 42 40 40 43 37 38 37 35 34 33 32 35 32 34 32 30 33 30 31 34 33 32 32 31 32 28 31 34 33 37 33 33 30 32 35 34 35 36 35 31 31 33 35 33 32 30 34 37 38 36 35 32 37 32 33 30 33 32 31 30 28 27 26 27 28 25 25 23 23 23 27 27 26 24 17 23 18 
40 38 42 44 41 39 35 36 37 38 33 32 36 30 31 31 32 30 30 33 30 33 32 33 31 31 30 34 29 31 31 31 33 35 32 33 34 33 33 35 31 32 31 34 36 33 40 32 32 30 37 33 32 33 33 35 32 33 34 32 29 29 30 31 27 25 27 27 28 27 16 22 25 22 25 25 29 27 26 14 
43 41 40 41 40 37 35 34 36 37 36 35 34 31 35 33 33 30 30 32 34 36 31 32 31 32 34 34 30 35 35 31 38 37 32 31 32 35 34 33 32 33 33 33 30 36 36 35 31 39 33 35 32 31 33 37 35 34 37 35 32 30 29 28 27 25 25 24 25 23 25 20 23 24 25 23 26 28 31 20 
46 37 42 39 38 37 36 35 32 38 33 34 31 33 30 30 32 29 30 32 28 34 35 34 32 30 31 33 30 33 31 30 34 33 32 32 34 28 34 32 30 32 32 32 31 31 33 32 31 35 32 33 31 33 31 38 38 43 35 29 33 25 26 25 24 23 27 25 27 26 27 21 24 22 22 20 27 29 27 18 
39 43 42 39 44 38 36 38 36 34 34 33 34 34 32 32 31 31 30 29 30 31 31 33 31 32 31 32 29 29 33 30 32 33 32 31 31 33 30 32 33 34 28 35 31 31 34 32 30 31 30 31 30 40 31 35 34 33 33 33 29 28 29 28 30 27 24 34 26 27 28 23 21 27 24 19 24 29 27 23 
37 45 39 40 40 35 35 34 35 32 33 33 33 27 31 31 29 29 31 31 31 32 35 32 31 26 30 30 31 30 30 32 34 34 29 31 29 31 32 32 34 32 28 31 28 35 32 31 29 30 33 31 29 32 32 36 32 33 35 33 27 29 28 26 25 25 22 29 30 26 27 22 29 26 23 23 21 23 31 24 
40 39 39 42 39 35 35 34 30 34 32 31 31 31 34 32 31 32 33 31 33 30 32 34 31 30 30 32 31 31 31 30 34 30 28 32 32 32 32 32 31 30 31 34 30 34 34 29 31 30 31 31 35 30 34 34 31 37 34 34 29 27 27 26 25 27 23 23 28 29 25 24 27 22 23 24 22 29 26 16 
40 41 39 43 40 38 39 37 32 32 35 32 30 31 30 32 30 34 33 31 32 34 31 33 30 33 31 34 32 32 31 33 36 33 34 32 32 31 33 32 34 36 30 34 30 31 33 29 27 31 34 31 36 33 32 33 31 32 28 29 27 26 28 26 25 27 23 26 27 25 25 25 22 23 24 23 20 23 24 18 
38 41 38 38 37 46 35 31 34 36 38 33 33 29 32 33 32 31 34 30 32 35 36 33 34 34 35 33 32 31 33 31 32 32 32 31 34 35 30 32 35 34 29 30 29 31 27 32 27 30 31 32 33 31 30 33 32 27 30 30 29 29 26 25 26 26 24 29 25 27 24 29 23 22 23 21 21 27 20 19 
39 40 37 38 36 36 36 35 32 33 34 31 31 29 30 29 29 28 30 33 32 33 32 33 29 28 31 30 31 33 43 32 31 29 32 28 33 32 30 30 33 36 30 29 30 30 31 28 28 31 31 32 31 29 30 30 32 29 29 33 25 28 29 26 29 22 25 25 23 26 31 24 22 24 22 20 19 22 21 18 
40 38 39 37 36 37 38 34 33 33 35 31 37 34 31 31 28 30 31 30 30 30 35 31 31 31 30 29 30 32 31 31 34 34 31 28 31 30 31 33 31 32 28 30 28 28 29 29 26 31 30 30 31 35 30 32 28 34 31 30 26 27 28 28 27 27 24 26 24 29 25 22 25 23 24 19 21 26 25 20 
36 40 40 36 37 34 35 37 36 36 33 32 34 33 31 29 31 30 35 34 30 33 28 31 31 28 29 32 30 27 30 29 31 31 27 32 31 30 33 35 30 31 30 29 38 25 30 27 29 31 27 29 30 30 32 32 27 25 30 31 29 25 28 29 28 27 26 27 27 26 25 25 28 22 21 20 18 23 24 23 
40 38 35 37 36 38 39 38 35 33 34 34 33 33 32 30 30 32 32 34 31 31 28 30 28 30 28 28 29 29 27 29 31 28 28 25 30 27 32 28 29 30 27 29 30 29 29 25 28 34 28 26 28 30 28 30 29 28 28 27 24 27 25 29 25 24 25 26 25 24 24 24 24 24 20 24 20 27 25 21 
37 39 35 36 36 36 37 37 34 35 31 33 34 29 30 30 34 31 30 34 33 32 30 29 31 30 27 31 29 25 26 27 27 28 25 26 25 30 29 30 30 28 30 28 31 27 29 29 28 31 25 29 29 27 28 27 27 28 29 28 24 25 26 25 26 25 27 26 27 23 23 21 25 27 23 22 22 22 26 21 
39 37 33 33 33 35 34 32 32 32 33 32 30 28 35 32 30 30 28 28 29 29 30 32 29 32 30 29 27 26 26 27 31 27 27 25 27 28 27 28 27 30 28 30 29 31 26 30 27 27 25 26 27 30 23 28 29 25 28 26 25 25 23 27 26 27 25 24 21 25 24 22 22 24 24 22 21 25 25 20 
40 37 36 39 32 32 38 36 33 34 31 29 32 33 34 30 30 30 29 29 30 31 32 33 30 30 29 30 27 28 28 27 32 28 29 25 29 28 28 30 24 30 27 27 28 27 29 26 28 25 25 26 26 24 24 29 26 24 25 28 25 24 24 21 23 22 25 24 22 25 24 21 22 26 23 22 23 24 27 19 
37 35 36 38 35 31 36 34 35 34 35 32 30 32 32 32 30 30 30 31 28 30 31 30 30 28 31 32 28 29 31 29 26 27 27 25 27 24 28 29 28 29 29 30 28 28 29 26 23 27 24 28 27 26 24 27 29 24 24 28 28 25 27 24 26 24 22 25 27 26 24 20 24 22 24 20 21 21 23 18 
37 41 33 38 35 34 36 37 34 36 32 34 32 31 31 30 29 29 29 32 29 30 29 29 25 32 32 30 29 30 28 28 28 26 26 28 29 27 28 30 28 29 28 26 30 28 29 27 25 28 26 24 25 24 25 28 26 23 24 25 26 24 22 27 25 25 20 23 22 25 26 23 24 25 16 18 19 22 18 16 
37 36 38 36 35 34 37 33 39 34 33 33 32 31 30 29 29 28 30 29 30 29 28 29 28 30 28 28 29 29 27 26 28 25 27 29 27 30 24 25 29 29 27 30 27 30 27 26 27 26 26 28 28 27 26 32 24 24 20 24 24 23 23 25 26 24 27 27 22 26 21 24 23 22 23 22 22 20 20 11 
42 37 39 39 35 33 37 35 32 37 30 32 30 31 29 28 28 30 27 27 29 29 33 31 29 30 29 29 29 27 30 28 26 28 31 30 29 28 29 30 31 30 32 30 30 27 26 25 26 28 25 24 23 23 27 30 29 24 21 23 27 25 26 26 24 25 22 25 25 23 24 24 24 23 22 17 19 22 22 18 
39 42 35 38 36 37 34 32 30 33 32 33 32 33 32 30 31 29 32 30 28 30 29 29 29 30 32 30 27 25 29 27 27 27 27 27 28 29 26 32 31 35 31 30 29 24 27 27 27 29 24 24 27 25 24 27 25 24 22 25 23 20 26 27 26 24 22 24 27 24 25 17 24 21 21 22 20 21 23 18 
34 40 33 40 37 34 34 34 32 34 32 32 33 32 29 30 29 30 28 28 29 28 28 31 28 29 33 31 28 25 28 26 28 26 23 25 25 27 27 27 30 29 28 29 29 25 26 25 23 27 23 27 25 24 24 27 24 27 23 23 23 22 21 25 24 25 23 22 25 24 19 19 20 21 21 20 20 19 24 14 
38 34 36 36 37 36 32 30 35 33 35 33 30 29 31 30 30 29 30 29 29 29 29 30 28 26 31 28 27 30 29 24 26 25 26 26 26 27 27 28 29 27 29 27 26 27 27 25 24 23 23 27 25 24 23 24 25 21 24 24 22 26 25 26 26 23 23 24 23 23 22 23 20 22 22 21 20 20 19 16 
37 41 38 38 36 35 33 32 32 29 37 32 31 33 33 34 31 30 28 32 29 31 32 29 34 30 30 32 33 30 30 27 30 26 29 28 28 28 29 24 28 30 29 28 30 29 28 27 26 28 24 27 27 24 25 28 27 27 24 22 27 26 24 24 23 23 22 23 23 28 21 20 23 22 24 21 21 20 23 17 
40 38 38 36 36 35 31 34 33 34 33 30 33 29 33 30 30 28 32 29 28 29 28 30 27 31 29 31 30 27 31 26 30 28 26 25 29 26 26 29 29 30 26 25 30 26 27 31 26 24 22 27 27 24 24 30 30 28 26 24 24 25 25 24 20 22 17 22 20 22 23 20 21 22 21 20 20 21 24 19 
41 40 37 38 34 33 32 32 29 32 35 32 30 28 28 28 29 31 28 26 29 30 29 30 26 28 26 27 30 27 30 28 29 27 25 25 26 29 27 27 28 28 26 26 26 27 26 26 28 25 21 23 25 26 21 25 22 25 23 19 22 22 22 25 24 24 20 21 21 21 21 18 23 22 19 20 21 20 24 13 
38 41 36 38 37 35 34 33 31 32 31 36 32 29 31 29 27 35 30 30 27 30 29 28 27 26 25 26 27 27 29 27 29 27 26 25 25 27 28 27 26 27 28 27 27 28 28 24 24 23 23 25 23 27 22 29 25 22 23 25 23 19 20 21 22 26 21 21 22 24 21 17 19 18 20 17 19 22 20 13 
36 39 38 37 39 36 37 34 32 34 32 36 32 27 30 29 27 32 32 32 27 32 31 30 31 27 26 29 25 26 29 26 27 29 28 28 30 27 31 32 29 31 28 26 25 27 28 28 26 26 22 24 26 25 26 28 25 23 22 24 20 23 18 19 21 22 22 24 25 21 22 18 20 20 17 14 21 23 24 16 
36 41 35 39 37 37 33 36 32 33 32 35 34 28 28 32 28 26 29 28 28 28 29 32 30 29 29 29 26 27 28 24 28 26 27 28 28 26 30 29 27 30 28 28 25 26 31 31 27 29 24 25 26 28 24 25 22 22 21 19 21 17 20 20 19 18 19 18 23 18 17 18 19 22 16 17 20 23 26 21 
36 38 34 35 31 35 32 31 31 31 32 34 32 31 31 31 29 27 27 28 27 27 29 31 28 29 35 28 25 24 26 27 30 28 28 28 27 28 27 29 25 24 26 27 25 29 30 31 28 28 24 29 25 29 23 25 23 22 21 19 18 21 15 19 16 19 17 20 15 20 14 16 22 17 20 20 21 23 31 18 
38 35 36 32 34 33 35 32 32 31 35 35 32 32 30 28 29 28 34 28 29 31 30 32 34 29 29 28 27 26 26 25 30 30 28 26 28 27 26 27 30 28 24 27 26 27 31 32 28 27 26 23 27 26 23 28 26 20 19 19 22 20 17 23 18 19 16 18 16 19 13 17 21 19 17 19 19 26 24 11 
37 38 38 33 34 34 35 32 32 29 33 33 33 33 32 31 27 27 27 30 28 32 30 31 33 30 26 30 27 26 26 26 30 27 30 29 28 26 25 29 32 30 25 29 28 28 33 31 29 27 25 25 26 26 25 26 24 21 19 22 23 21 22 23 23 21 16 19 21 19 13 16 23 17 18 18 18 22 22 17 
37 37 36 33 35 32 33 31 30 35 36 39 31 30 32 29 31 28 30 31 31 34 28 30 29 31 32 26 25 28 28 26 26 27 26 27 28 28 24 28 29 30 28 30 27 29 32 38 29 24 23 25 22 28 21 22 20 23 22 21 19 21 17 20 16 20 22 22 21 22 21 14 16 18 20 19 21 22 23 15 
33 37 34 31 31 29 33 33 31 33 32 35 30 34 31 28 26 26 28 33 31 30 25 30 30 27 29 26 25 26 27 25 31 25 24 24 24 26 27 25 27 25 27 26 26 27 32 32 29 23 20 23 20 23 19 22 19 22 15 21 20 19 15 20 19 20 20 22 23 22 16 16 14 18 17 18 17 21 19 16 
34 34 30 35 29 28 31 31 33 30 31 29 31 33 33 31 32 27 27 30 33 29 28 29 24 25 25 23 21 25 29 25 27 26 23 27 26 24 28 29 24 28 25 23 25 27 28 29 24 23 18 22 22 22 20 23 17 20 19 16 19 16 16 20 18 21 17 15 18 17 17 14 15 16 18 16 17 16 14 13 
35 38 25 33 29 31 29 28 28 32 33 33 30 29 31 32 30 28 29 31 30 26 31 27 28 25 24 24 24 23 27 23 27 26 26 25 22 27 24 25 24 24 23 26 29 25 28 27 26 23 17 23 21 21 19 25 19 19 15 17 20 17 19 16 14 17 17 16 19 14 15 16 15 16 13 17 16 12 17 4 
35 35 30 29 31 31 30 32 31 30 29 32 28 32 32 31 28 28 30 29 31 33 29 27 26 27 23 24 26 27 26 25 24 26 24 24 23 22 24 26 25 29 25 25 24 27 28 26 23 23 20 21 23 19 19 23 19 20 18 17 20 16 16 20 16 16 15 17 14 16 17 16 16 17 14 12 14 15 19 9 
36 34 32 29 30 32 33 33 29 30 29 29 31 32 32 32 31 30 28 29 26 30 33 33 26 25 27 26 24 25 22 24 24 23 22 21 24 26 24 26 23 26 24 22 21 23 27 23 21 22 18 21 18 19 19 22 20 18 20 18 17 19 18 20 16 14 16 16 15 16 15 13 16 14 13 13 13 13 19 7 
34 37 30 28 31 32 33 32 33 33 29 32 34 31 31 30 30 29 30 30 27 25 29 28 25 25 26 29 22 24 21 23 22 22 23 21 26 24 25 23 26 25 22 23 24 22 24 24 25 19 18 18 19 18 21 20 18 19 19 17 16 17 17 17 16 12 13 14 16 15 14 12 10 13 9 19 16 13 16 9 
37 34 27 33 32 29 33 29 31 32 30 30 25 30 30 30 31 31 31 28 26 26 27 27 28 23 25 26 23 23 23 22 23 22 21 21 24 24 26 24 25 23 22 24 24 22 25 22 19 18 19 18 19 22 21 23 21 16 18 19 18 16 13 17 14 16 12 12 14 14 10 12 8 9 10 13 12 11 11 4 
39 32 29 37 36 33 28 32 29 29 31 30 30 25 30 26 26 28 29 31 30 25 24 30 26 27 25 25 23 25 22 22 22 25 26 22 26 22 24 20 24 24 21 25 24 24 26 24 23 19 17 17 23 22 17 23 22 24 19 21 17 14 17 17 15 17 11 14 11 12 13 11 12 7 12 17 12 11 12 4 
38 34 28 32 32 34 29 30 29 34 29 27 30 29 27 27 29 27 30 28 25 29 28 29 28 27 26 25 25 24 24 22 23 25 24 24 22 21 23 22 27 23 18 24 22 24 26 28 24 22 19 18 20 20 20 23 23 23 21 18 16 13 17 15 13 10 13 11 13 14 13 8 13 10 11 13 14 9 11 8 
32 36 28 35 38 35 31 30 30 30 28 28 29 29 27 27 26 26 25 25 23 29 26 25 27 28 28 30 24 22 23 22 22 25 20 22 26 21 22 20 21 20 20 20 23 23 24 24 19 22 15 17 20 20 20 23 26 24 20 19 14 16 13 14 8 13 10 11 11 12 13 10 8 12 11 6 8 9 8 5 
34 33 29 30 32 32 35 30 30 30 32 35 31 25 29 29 28 29 30 29 26 25 24 27 26 28 27 26 24 19 24 23 23 26 20 21 22 23 19 20 22 22 20 22 21 22 26 27 20 15 16 18 21 20 20 23 24 20 21 19 22 17 14 12 11 10 10 11 13 14 12 8 10 11 10 8 10 9 13 0 
28 32 27 30 31 29 33 31 32 32 32 32 31 33 27 27 27 24 28 27 25 24 26 24 23 25 24 26 21 20 23 20 20 22 20 21 21 22 20 21 20 21 19 23 23 23 22 22 19 16 13 17 18 16 17 23 19 20 17 19 18 16 13 15 12 7 9 6 10 15 14 12 8 11 7 7 6 7 10 4 
31 30 31 28 31 27 29 29 29 33 33 32 39 32 32 27 27 27 27 31 26 27 25 24 23 26 23 25 20 21 22 18 24 22 21 19 22 20 21 24 24 21 23 22 21 22 25 19 19 13 10 13 18 16 18 23 21 18 21 15 15 13 10 13 11 6 5 7 11 11 9 9 7 7 9 11 9 11 7 5 
34 31 27 28 30 29 28 28 29 32 28 31 32 30 28 28 26 27 24 29 25 27 29 22 23 24 24 25 22 20 21 20 22 23 17 18 23 23 21 23 18 23 23 22 23 20 21 18 17 16 11 16 15 17 17 19 19 16 17 19 13 12 11 12 9 8 7 7 10 15 7 8 10 8 9 8 7 9 3 0 
35 30 28 31 31 28 28 28 29 29 33 32 29 28 28 25 23 25 26 27 30 27 28 26 22 19 19 23 26 20 20 20 21 22 20 21 21 21 22 19 21 22 19 22 20 20 22 14 16 15 14 16 17 21 21 21 17 15 17 16 15 10 8 10 11 9 4 9 8 9 8 7 9 5 6 8 7 8 13 7 
34 34 27 31 30 28 28 26 30 31 27 33 27 28 26 25 27 25 28 26 28 25 23 25 23 21 22 23 25 23 18 20 20 19 22 23 26 21 19 22 21 25 22 20 14 14 16 14 13 15 17 18 16 18 14 17 17 17 16 17 15 12 9 11 9 6 6 8 8 10 4 4 5 4 7 9 5 8 9 6 


