P2
80 60
255
49 51 47 42 41 41 30 28 42 44 44 41 45 41 38 50 51 62 64 56 62 63 59 56 60 61 61 60 61 63 61 62 61 63 60 61 58 60 59 62 60 64 62 60 62 61 58 60 63 58 60 57 55 56 58 59 64 67 72 70 68 68 68 67 62 67 66 60 64 68 68 60 67 65 68 64 68 65 63 66 
52 52 49 44 43 37 31 27 39 47 46 43 43 41 41 46 54 61 56 59 59 62 62 58 57 58 66 63 64 59 64 62 59 65 61 59 59 58 59 57 61 61 60 63 62 63 60 61 61 57 61 57 54 56 57 62 66 67 67 69 69 69 66 66 64 68 65 60 62 69 67 65 66 67 68 62 68 68 66 64 
48 53 45 43 41 34 24 26 42 47 47 44 47 37 40 49 46 59 58 59 65 62 62 58 59 61 66 62 61 65 62 67 64 64 60 65 61 62 59 61 62 59 59 61 59 63 61 63 59 60 61 58 56 55 54 61 65 63 67 72 71 69 68 68 66 67 62 65 64 63 69 65 68 66 68 64 64 70 65 68 
49 53 49 44 39 37 27 27 42 47 48 43 46 34 39 51 49 60 59 60 61 63 62 58 61 59 68 61 59 63 63 63 66 60 68 63 61 62 62 61 61 61 63 59 61 63 63 62 65 61 59 57 56 56 54 62 65 64 65 67 72 68 67 65 63 64 63 64 62 65 66 68 65 67 66 64 69 73 67 63 
51 56 48 48 44 37 29 37 43 47 44 44 45 38 43 53 53 54 59 62 61 62 64 61 63 66 69 61 58 61 62 61 63 61 60 62 62 62 66 60 62 61 63 60 62 62 61 62 60 57 59 56 56 55 53 63 65 60 66 68 67 67 68 70 67 66 64 66 65 67 66 66 67 68 68 67 67 72 68 68 
53 53 42 40 36 37 28 33 47 49 47 46 49 45 45 52 52 62 60 62 63 64 63 62 65 65 67 60 61 62 63 61 61 61 64 62 63 58 66 59 59 61 66 62 62 63 67 62 64 60 59 58 56 58 57 64 62 63 68 68 66 67 67 69 69 67 65 69 67 64 67 66 68 68 70 63 68 70 65 68 
51 49 46 42 34 35 27 27 40 46 44 46 45 44 44 50 61 59 63 62 65 63 64 61 65 64 66 62 62 61 63 61 61 64 62 59 64 62 63 58 61 60 58 59 59 64 62 62 64 58 56 58 58 57 55 61 66 71 72 68 67 69 66 67 68 67 64 65 67 65 66 66 69 66 70 67 67 69 63 68 
52 53 49 43 43 41 30 38 45 45 47 45 48 48 44 50 59 61 60 60 67 62 61 64 63 66 66 63 62 61 61 60 59 62 58 63 65 62 62 61 59 59 60 61 63 63 61 60 62 61 62 59 57 55 59 69 66 64 67 64 65 71 66 67 65 67 65 65 68 66 64 65 68 65 65 62 66 68 65 68 
52 52 51 45 40 38 26 39 42 49 48 48 45 40 42 51 53 58 58 61 65 63 59 61 67 64 64 63 65 62 65 61 60 63 62 62 62 62 62 58 61 59 59 59 61 63 59 60 59 60 62 57 57 57 59 65 67 70 69 65 65 67 71 67 68 66 69 67 67 67 63 63 68 67 65 59 64 64 66 65 
53 49 47 47 33 33 34 36 43 45 41 45 43 37 43 48 57 58 57 55 61 60 60 58 62 63 66 62 60 61 63 61 59 61 61 59 61 60 58 58 58 57 59 57 60 60 55 58 58 57 60 55 55 53 56 60 64 60 68 66 64 69 67 65 63 62 68 62 66 63 60 64 69 66 63 63 65 65 64 61 
50 51 48 45 33 33 33 34 44 42 44 46 37 37 45 46 51 57 58 58 58 59 58 60 60 63 66 61 62 61 63 62 61 60 61 60 59 59 63 57 58 57 61 56 59 62 57 59 60 58 57 55 54 55 56 64 67 64 68 66 66 68 67 66 65 62 64 65 62 64 62 64 64 64 63 65 65 65 65 59 
50 51 50 46 42 34 29 40 47 45 46 45 40 42 37 46 49 55 56 57 61 60 61 63 61 63 64 63 61 62 63 61 62 61 62 58 59 55 64 56 61 58 60 60 62 60 61 60 58 57 58 57 55 50 60 60 65 65 65 68 64 72 69 65 66 61 66 63 63 64 63 61 67 69 61 68 68 64 64 64 
51 48 50 51 38 31 28 37 38 42 49 45 44 40 41 50 51 55 57 59 62 62 60 62 62 62 67 64 62 63 63 62 58 64 60 58 58 56 60 57 58 59 58 59 65 60 62 59 57 59 60 57 51 54 56 61 67 67 68 65 63 69 71 68 64 64 62 64 66 65 58 65 67 68 68 68 65 71 66 68 
48 51 50 45 34 28 24 32 41 41 44 45 44 42 41 49 52 55 57 57 62 58 61 60 62 61 64 61 59 62 61 60 62 64 63 58 60 57 60 59 57 57 59 64 60 61 61 61 62 61 60 55 54 56 54 61 64 64 67 67 66 68 68 66 67 68 64 63 64 63 63 61 67 66 65 65 67 71 66 62 
51 47 51 44 34 31 26 34 42 42 44 43 40 40 44 46 51 56 60 57 60 58 58 63 61 59 63 61 60 60 62 62 60 62 62 59 57 56 59 61 56 58 63 61 60 64 61 61 63 59 61 56 52 54 57 63 67 76 70 67 67 67 68 66 69 65 68 68 66 63 64 65 66 68 68 61 66 70 66 67 
53 51 45 43 36 32 25 40 40 41 38 46 40 40 44 45 54 57 58 60 59 61 58 61 58 63 64 61 59 62 61 62 61 59 61 59 60 59 59 61 59 61 60 59 60 60 59 56 61 57 62 58 56 56 57 61 66 72 71 67 69 67 69 66 69 66 65 68 66 64 65 67 66 69 65 65 69 70 66 66 
49 48 48 42 27 27 25 42 38 40 45 42 37 40 44 54 51 56 58 61 61 55 60 60 60 61 67 61 61 61 61 62 61 64 63 60 60 57 59 60 58 59 61 60 58 62 62 57 57 58 58 57 54 57 59 60 68 67 67 68 68 67 69 65 65 63 65 66 65 66 65 67 75 71 64 65 66 67 64 61 
48 50 44 42 33 26 20 35 40 38 41 43 39 40 39 48 53 53 60 62 59 60 60 58 59 63 63 62 61 61 61 61 60 65 61 60 60 57 63 58 61 59 55 58 61 62 59 56 59 55 57 54 48 53 61 61 63 70 68 70 68 68 66 66 65 66 64 65 68 68 67 69 71 70 66 64 68 70 62 64 
45 49 45 41 38 30 25 39 37 39 43 43 37 44 43 49 54 57 62 59 61 61 65 59 65 64 62 60 62 61 60 61 63 67 60 62 62 62 62 64 59 63 57 63 58 60 58 56 59 53 57 54 57 54 59 61 67 70 71 72 69 67 68 67 66 66 66 66 65 68 68 70 69 65 66 65 65 72 66 66 
49 50 45 37 32 24 21 43 39 39 42 42 40 38 42 51 55 61 61 60 58 63 66 62 64 65 66 63 61 66 65 64 57 62 61 59 61 60 62 62 61 61 59 56 58 60 56 57 57 56 59 55 54 55 59 63 64 66 68 67 69 68 70 67 66 62 67 67 67 70 68 66 70 65 63 63 64 65 66 68 
46 43 44 37 28 24 19 37 36 42 41 38 42 44 40 44 58 59 58 56 59 62 62 65 63 62 65 60 60 61 64 61 58 61 61 60 59 60 61 57 59 62 56 57 58 58 56 56 57 57 56 56 53 53 62 62 64 63 69 69 67 66 69 68 68 66 66 66 67 69 66 67 69 70 66 63 65 70 66 70 
45 46 45 37 33 20 20 40 41 40 39 43 42 44 41 49 55 60 56 54 62 61 63 62 63 63 65 62 62 60 65 63 60 62 61 60 57 59 60 58 62 63 59 57 55 59 54 55 55 55 62 55 55 52 62 64 66 66 70 69 64 66 68 68 69 68 66 67 69 75 70 67 71 67 66 62 67 69 69 67 
39 42 37 41 34 20 21 46 35 35 42 40 39 37 44 44 52 57 57 56 61 58 62 59 62 63 67 64 59 61 60 61 59 61 59 60 57 59 60 60 59 58 56 59 64 57 55 55 55 57 61 57 56 57 60 63 62 64 70 70 69 71 70 68 68 70 66 65 65 69 65 70 71 68 66 67 68 70 69 72 
44 46 40 33 26 17 16 45 37 40 39 39 35 36 46 51 52 63 60 59 65 59 60 61 61 66 67 62 60 60 61 64 58 62 62 59 55 59 59 54 56 56 54 61 55 59 54 55 56 59 58 54 55 53 57 60 65 65 69 69 66 67 69 69 72 69 70 66 69 71 67 70 71 69 66 64 70 72 67 68 
43 44 42 33 26 20 18 40 38 44 40 37 39 41 42 46 56 62 58 60 64 65 65 63 63 64 64 65 59 61 64 60 58 62 61 57 60 58 59 58 56 58 57 61 60 54 56 58 58 56 52 58 55 53 57 58 66 66 67 69 68 71 71 67 72 68 70 73 70 73 69 71 73 73 69 67 70 72 71 70 
43 43 39 32 30 18 20 43 35 36 40 38 38 41 44 49 55 62 56 59 61 59 63 64 64 65 65 65 60 59 61 59 63 59 58 58 59 58 58 56 57 57 57 59 61 60 62 59 58 58 56 51 54 56 53 61 63 66 72 72 66 69 71 66 68 68 68 66 68 70 70 68 73 70 72 66 71 73 72 71 
43 40 36 32 23 18 20 33 36 33 35 33 38 35 42 48 53 57 56 60 58 64 67 62 63 64 68 63 62 60 60 59 57 62 61 59 55 58 56 57 58 58 60 58 59 60 58 57 57 53 56 53 48 55 55 60 63 63 66 71 67 70 70 67 70 70 72 70 68 70 71 68 70 68 68 66 72 71 69 70 
42 43 35 38 26 20 17 38 33 33 34 29 33 35 42 44 50 58 57 61 62 64 64 67 66 66 66 65 60 62 62 61 59 60 60 57 58 59 58 60 57 57 60 56 57 61 55 55 57 57 55 51 53 53 60 63 64 65 68 68 73 67 69 69 70 69 70 70 70 68 70 69 72 74 65 68 71 72 68 72 
42 39 37 29 21 18 14 32 33 30 31 28 29 33 37 44 49 56 55 58 60 59 64 64 65 65 68 65 63 62 60 62 60 62 58 55 59 58 61 60 60 56 55 56 59 58 57 54 53 57 54 50 54 55 59 63 66 64 68 68 71 72 70 71 69 70 72 72 70 71 73 69 70 65 74 68 72 71 65 65 
42 39 38 31 22 17 15 36 37 34 32 23 28 32 34 43 54 56 55 57 61 61 63 65 66 61 68 65 62 62 63 64 57 60 62 61 58 61 60 59 58 59 57 57 59 60 56 52 57 57 60 61 64 61 64 59 68 65 72 69 71 72 71 73 69 70 77 73 70 73 72 71 72 75 70 72 70 72 65 71 
38 40 34 28 26 16 13 31 29 31 29 25 27 28 39 46 52 56 54 56 57 60 62 62 64 65 68 61 65 61 63 60 60 63 62 60 61 59 59 62 61 61 60 62 60 62 57 60 61 57 65 64 63 61 68 71 66 70 69 69 74 73 69 77 72 72 72 76 72 72 72 73 74 74 70 69 73 73 72 67 
37 39 31 29 23 14 14 35 28 27 25 22 25 29 39 50 55 58 56 54 61 64 66 64 67 69 71 66 66 64 65 66 64 63 59 61 59 59 58 60 63 62 60 60 62 62 61 64 65 67 68 69 70 71 68 71 71 68 70 71 76 75 78 73 73 75 73 76 73 73 74 73 74 74 73 68 71 74 68 71 
34 35 33 29 22 15 14 31 26 25 24 20 21 27 36 42 57 58 55 58 59 66 63 68 67 69 68 66 65 64 69 65 60 61 63 61 60 61 61 59 60 61 66 64 71 68 64 67 63 66 94 91 77 75 69 70 74 69 71 77 77 78 74 77 75 74 76 77 83 78 76 72 74 72 73 71 73 76 72 71 
31 36 32 27 19 12 13 27 23 24 21 17 22 22 29 42 54 52 58 59 59 62 61 66 66 69 72 70 64 69 68 63 67 65 63 63 59 61 60 59 60 66 66 65 65 67 65 66 63 69 109 114 107 105 96 83 83 76 78 79 74 82 76 74 79 74 77 76 79 76 76 73 76 74 73 72 73 76 71 70 
27 35 31 22 21 13 12 24 22 21 18 14 17 20 24 37 47 56 54 57 58 60 62 64 66 73 79 85 83 76 69 81 66 70 66 63 60 60 64 65 66 66 68 66 68 68 67 59 58 72 118 121 118 122 121 114 118 108 104 93 83 85 81 79 79 77 80 77 78 79 80 75 75 81 75 73 76 76 71 73 
27 32 31 26 15 15 7 23 20 22 19 9 15 17 27 33 44 58 58 61 51 60 64 68 70 73 118 137 138 118 89 69 66 69 67 63 65 67 66 70 65 70 67 64 66 62 62 62 59 83 116 123 121 119 119 127 126 132 130 129 115 110 90 87 86 82 82 78 80 83 80 78 80 82 78 76 77 80 72 74 
29 33 28 24 20 11 8 18 17 20 20 15 10 15 23 34 46 56 53 52 56 60 60 65 68 82 139 153 155 153 99 70 65 76 74 68 67 66 67 65 69 63 64 62 63 59 59 59 59 90 123 124 121 122 126 127 130 132 135 140 135 129 125 119 109 108 95 88 85 84 81 78 82 82 80 77 82 80 74 78 
28 34 29 25 24 22 14 19 20 17 14 9 19 13 20 32 46 57 51 54 57 58 65 63 67 83 151 170 176 161 103 71 73 87 81 68 68 70 67 62 62 59 62 61 62 63 57 56 61 94 125 123 122 126 129 130 134 137 141 141 136 137 134 135 134 135 130 117 108 99 90 81 85 85 82 78 78 78 80 80 
57 59 59 52 55 54 46 31 26 21 10 11 14 9 17 35 41 52 52 55 55 59 61 64 70 84 142 193 192 171 112 80 82 81 78 67 68 62 64 62 61 61 60 59 60 62 58 57 64 106 128 126 126 125 130 132 137 140 142 142 142 139 138 139 137 137 135 133 132 126 125 108 101 96 85 85 84 85 79 81 
70 78 76 70 70 75 69 63 32 18 17 5 7 11 15 30 43 52 54 51 56 63 65 68 68 77 129 166 167 157 117 76 70 69 65 62 63 64 61 59 55 57 58 58 61 59 61 57 67 115 128 129 126 126 135 135 139 141 143 143 144 141 138 142 143 137 138 131 134 140 132 129 133 120 107 98 93 95 84 86 
75 82 77 77 72 73 72 72 41 15 12 4 7 15 18 29 39 51 52 53 57 60 60 66 67 80 121 135 138 137 122 86 65 67 64 63 64 56 60 60 55 60 61 57 60 61 59 59 70 122 129 126 127 133 135 140 144 144 142 144 142 145 145 140 144 143 140 139 144 140 138 134 141 136 129 126 122 113 104 97 
81 84 81 73 77 77 77 70 53 15 7 3 4 12 15 24 45 50 52 53 55 61 61 63 67 88 118 130 126 126 120 113 90 69 61 63 64 61 60 61 60 56 62 60 60 63 61 59 79 129 132 128 135 131 134 141 144 145 146 149 147 148 148 149 147 147 144 141 144 147 141 140 142 141 136 133 130 123 114 108 
87 86 83 80 78 79 82 74 66 23 11 0 4 9 19 25 36 46 50 52 53 61 56 66 77 97 114 111 109 116 114 114 105 86 69 61 64 59 61 57 56 57 59 62 62 64 59 66 87 135 129 129 129 129 139 139 145 141 146 149 146 152 149 150 153 146 148 145 148 145 142 138 143 142 140 137 134 125 118 121 
88 87 81 81 80 82 77 80 67 45 8 6 4 11 15 24 38 45 47 51 55 59 63 69 83 97 103 104 101 102 110 107 110 98 71 60 63 61 57 58 54 62 67 65 66 64 66 70 99 140 136 134 130 133 138 139 144 148 149 151 150 150 151 153 157 154 151 147 152 151 145 144 144 142 142 139 136 128 121 121 
87 88 82 77 80 83 83 80 73 60 15 0 7 10 15 23 38 50 45 52 57 59 60 64 81 92 97 98 90 98 102 106 99 102 79 59 63 58 61 56 58 67 70 70 68 71 70 76 115 144 136 135 133 138 138 143 149 149 150 150 148 151 154 155 158 157 157 154 156 155 151 149 147 146 141 140 136 127 122 125 
88 88 83 79 84 83 83 79 81 73 38 4 7 12 18 26 40 49 49 52 53 58 62 68 83 86 92 94 93 96 99 101 101 98 77 65 62 58 57 59 62 66 68 69 73 77 77 79 129 146 140 135 135 137 139 144 149 151 152 153 155 156 152 162 162 161 160 161 158 155 156 148 150 148 146 145 135 129 122 124 
90 92 81 80 82 83 81 80 80 71 56 15 5 11 9 24 37 46 51 52 62 58 63 65 78 81 90 91 91 92 90 88 81 77 61 56 58 57 59 53 63 68 70 69 72 74 77 83 142 144 140 140 140 140 146 145 150 155 153 156 157 156 162 158 167 160 163 159 161 157 153 147 152 149 150 146 131 130 125 128 
88 89 85 81 81 84 87 81 80 75 67 43 15 10 14 27 41 47 45 51 54 57 63 64 69 73 81 82 77 80 71 66 62 68 61 58 59 55 58 58 60 69 68 71 71 77 84 87 159 150 140 144 144 146 151 152 152 152 153 155 154 157 159 165 165 159 163 161 158 155 155 147 149 153 152 146 130 128 121 126 
88 90 82 81 87 86 85 84 79 74 66 62 24 14 14 26 33 46 50 51 55 59 67 62 67 65 71 67 66 66 63 64 62 62 60 58 58 58 55 59 60 64 68 65 71 76 80 92 173 160 154 151 146 150 152 156 157 154 155 155 155 161 165 165 169 162 165 160 158 157 156 157 151 154 154 149 129 127 123 128 
92 91 87 84 84 86 83 83 81 76 72 74 55 19 18 31 36 49 51 52 53 59 62 61 63 63 68 63 63 63 64 62 61 63 61 58 60 57 60 58 62 63 61 65 68 75 75 92 152 173 174 176 158 159 160 160 157 155 155 159 159 163 160 166 170 169 165 165 164 159 158 157 157 159 157 146 131 134 123 123 
91 95 85 85 87 87 81 84 84 81 77 70 68 49 26 29 34 54 55 54 59 58 63 60 64 63 70 61 61 61 61 60 63 62 63 61 62 60 64 61 62 62 59 62 68 72 76 82 100 143 180 189 179 177 171 166 170 162 163 163 162 165 163 170 174 167 170 168 171 164 161 161 162 165 167 143 133 136 124 127 
92 91 88 87 85 84 85 81 77 77 75 69 73 70 49 34 34 46 58 57 61 59 60 61 62 64 62 63 61 63 63 61 62 68 67 62 62 63 64 59 55 60 58 62 67 70 75 82 81 89 114 151 172 187 188 197 176 168 172 166 160 166 166 172 174 175 172 170 172 166 163 161 161 169 169 146 133 131 129 130 
90 91 87 84 88 88 86 84 77 79 76 75 80 75 70 54 40 51 55 58 60 57 60 62 62 62 67 62 61 65 65 65 65 67 66 69 65 69 60 56 60 55 54 60 64 74 84 82 83 81 86 95 113 152 185 205 200 192 185 177 175 174 174 179 179 182 178 173 172 170 167 162 167 173 174 141 133 134 132 135 
92 90 85 88 91 93 85 86 80 77 78 76 80 79 75 74 60 56 49 60 57 61 64 67 64 65 68 66 67 68 68 73 71 75 72 75 69 67 63 56 61 54 55 54 65 75 87 85 86 85 89 87 82 94 127 177 211 210 196 200 187 185 182 185 186 183 182 179 178 176 175 165 170 179 172 140 141 134 134 137 
87 87 88 85 89 89 85 83 76 76 76 69 83 77 80 77 69 64 57 61 60 63 67 66 68 70 79 70 69 71 75 76 73 77 76 73 72 74 71 63 55 57 56 59 70 76 83 82 82 82 88 84 80 81 85 103 140 173 197 214 212 212 201 196 194 198 189 191 185 184 178 177 175 185 168 140 139 138 132 134 
88 86 89 86 86 86 86 84 75 72 74 71 75 81 80 76 69 71 68 63 63 67 66 67 67 68 78 70 70 73 72 74 74 74 75 74 72 76 73 73 65 66 63 67 70 80 76 78 78 78 80 76 76 72 80 84 93 110 139 181 214 233 219 209 208 202 206 198 193 193 186 179 186 197 160 138 145 131 137 140 
86 91 90 87 88 88 87 84 73 73 67 68 76 77 78 73 77 79 71 76 67 67 65 64 62 65 71 71 69 70 70 70 74 72 74 72 70 70 69 69 70 71 66 66 72 71 76 76 77 72 76 71 77 75 76 73 82 84 88 115 153 200 227 231 229 227 214 206 199 202 188 188 190 204 161 147 141 143 136 139 
87 92 88 87 90 90 84 83 73 69 63 64 68 70 76 75 77 76 78 78 64 57 64 60 64 64 72 70 68 64 65 67 68 68 67 65 67 62 64 65 67 65 63 64 66 70 74 79 74 72 75 73 74 73 77 80 78 79 84 86 96 118 154 191 224 242 240 237 225 216 201 198 206 213 158 149 149 143 138 145 
92 95 86 85 89 85 88 82 77 67 64 59 66 66 70 76 75 75 76 76 61 58 54 60 60 57 63 58 60 57 59 61 62 62 61 59 63 61 61 63 61 61 68 56 60 63 72 70 73 70 73 70 73 72 79 76 77 81 79 83 81 90 92 116 160 195 230 250 250 229 215 207 215 203 156 150 150 143 146 141 
92 91 89 83 89 84 84 82 79 68 70 64 68 66 69 77 76 77 75 78 59 57 50 58 55 53 56 58 54 55 53 56 54 61 58 57 59 56 57 57 51 57 57 55 58 59 65 63 65 69 73 73 71 72 69 74 77 79 81 85 79 86 88 91 99 123 165 211 247 255 241 219 233 193 159 149 159 152 148 144 


