P2
80 60
210
50 45 42 39 44 51 50 59 61 64 66 62 63 64 61 62 62 65 63 66 63 61 60 58 63 64 63 58 61 61 64 64 63 59 63 61 61 57 59 60 59 60 59 61 58 54 53 50 55 57 53 48 52 54 54 64 64 57 60 60 62 58 64 65 60 60 59 59 60 58 60 61 60 63 65 64 65 63 57 60 
51 49 42 44 44 49 54 59 61 65 63 61 61 62 61 63 65 66 60 64 64 61 63 59 62 63 61 61 59 66 64 63 59 60 62 60 61 58 61 60 59 60 55 61 58 58 58 56 53 57 53 45 57 58 57 63 64 59 61 64 58 57 62 61 60 60 59 57 62 57 58 62 63 62 67 62 64 65 62 58 
46 51 41 39 44 47 52 57 60 63 64 60 60 65 64 62 65 64 65 63 63 59 60 61 61 65 60 60 62 61 61 65 57 59 63 59 62 61 62 59 63 57 56 58 54 56 56 55 55 57 55 44 54 57 47 60 58 61 62 63 61 62 61 60 60 57 57 56 57 61 63 61 62 65 64 61 63 62 62 58 
54 46 43 38 44 51 52 61 63 67 66 61 60 64 60 59 65 65 65 66 61 62 60 59 60 64 63 63 61 62 62 60 57 59 62 60 61 61 58 60 60 58 55 58 58 55 55 56 57 58 51 46 57 55 51 60 57 55 61 60 64 63 61 61 58 58 60 58 63 63 59 64 61 61 60 59 61 68 59 60 
54 48 47 41 44 47 52 65 61 65 64 63 59 62 62 63 65 63 66 65 62 60 61 62 62 66 65 62 60 58 63 61 61 61 59 60 63 60 65 61 60 58 58 57 55 58 57 55 55 56 52 53 52 59 53 64 57 58 63 60 60 63 62 66 59 60 57 62 64 64 64 64 66 62 65 62 65 62 61 55 
56 47 45 42 44 48 54 63 65 64 63 65 60 64 64 61 65 64 63 66 63 63 61 63 64 67 64 60 61 57 63 60 60 57 64 58 60 60 63 63 62 60 63 55 56 58 60 55 55 55 51 49 55 58 56 66 57 63 59 64 65 64 65 65 62 59 60 61 67 65 62 63 64 64 62 63 64 66 56 61 
55 51 50 42 44 49 55 57 60 63 63 60 61 63 61 61 65 65 62 67 64 62 65 60 65 64 63 59 58 61 59 59 59 63 63 62 60 59 61 60 60 61 61 60 57 57 56 54 53 55 52 50 60 57 52 62 60 64 66 63 64 65 63 63 62 57 58 60 61 63 60 65 60 62 62 63 63 60 57 59 
55 57 47 44 47 51 51 61 62 62 65 61 65 66 59 62 65 67 66 65 67 62 60 64 63 65 63 62 61 64 62 54 59 62 64 65 64 61 61 62 61 61 57 61 57 57 58 55 55 54 53 51 61 55 53 62 58 60 65 64 58 63 65 64 60 61 57 56 64 58 60 62 62 63 62 60 61 62 57 60 
57 55 50 48 50 54 54 61 63 68 64 63 65 66 62 61 66 67 66 65 63 61 65 63 66 65 64 61 63 59 62 57 59 61 63 62 66 59 62 60 58 60 56 59 59 59 56 59 56 54 52 47 52 59 53 60 59 59 64 63 61 62 63 63 63 61 59 60 59 61 56 62 64 65 63 60 59 63 65 60 
56 54 53 49 54 52 58 64 63 62 68 64 65 62 64 63 69 66 64 64 62 63 62 62 64 66 64 61 60 60 58 59 60 60 62 59 64 58 58 60 58 59 57 56 56 56 55 53 53 54 52 50 58 56 58 60 60 57 66 65 62 63 59 63 63 61 61 59 63 60 58 61 63 63 60 59 65 63 61 57 
58 57 51 48 51 53 62 63 64 59 64 62 62 63 61 62 64 67 64 62 59 61 65 60 61 65 63 61 59 59 61 58 58 59 62 58 61 56 57 59 57 55 58 55 53 53 56 51 53 53 54 54 55 57 57 61 58 57 60 60 61 60 61 61 60 61 60 60 62 63 58 60 61 63 62 58 62 62 61 58 
60 60 51 51 50 55 54 63 62 63 62 65 64 63 63 63 61 64 63 64 59 61 62 64 61 64 62 58 58 61 61 60 61 63 59 58 58 59 57 61 59 60 58 58 56 55 57 56 51 54 53 51 53 58 56 63 59 57 63 58 60 62 61 61 58 61 61 59 63 61 58 59 65 63 57 64 62 65 64 59 
61 61 49 48 46 56 53 62 62 64 64 63 65 64 61 64 62 62 64 63 60 63 62 61 61 62 62 60 63 59 61 58 60 64 60 59 59 59 59 59 57 58 57 57 59 56 58 55 53 54 51 51 54 55 54 59 60 58 62 63 61 62 66 60 59 62 61 59 59 58 50 64 58 59 61 61 66 64 62 63 
56 59 50 48 49 51 53 63 63 61 61 61 63 66 60 64 60 63 63 64 63 62 60 61 64 61 58 59 59 58 62 61 61 62 63 61 58 58 57 60 55 55 54 59 59 57 55 61 51 58 52 48 52 57 55 63 63 60 63 64 61 64 64 63 62 59 64 62 60 60 60 63 66 61 57 61 65 64 57 60 
57 58 51 48 47 44 50 63 62 64 62 62 60 60 63 62 61 62 65 62 62 61 59 63 60 60 59 59 59 58 61 60 59 59 58 60 58 58 58 59 59 55 55 58 58 55 58 53 53 57 49 46 52 53 54 64 62 65 66 60 59 63 61 61 60 62 62 61 63 61 59 60 62 61 57 61 62 64 60 58 
52 56 50 48 50 48 51 62 64 61 60 62 59 59 62 64 65 64 63 62 60 62 59 61 62 63 58 57 58 57 61 60 60 57 57 59 60 55 55 64 57 57 58 59 55 58 56 56 52 56 50 46 55 58 55 61 60 60 66 61 60 60 64 62 62 60 60 57 64 64 60 64 64 64 63 58 63 67 63 58 
56 63 49 48 49 47 53 61 63 62 61 63 62 65 60 63 65 62 63 63 60 59 61 61 65 64 64 59 60 62 58 62 59 62 62 60 61 57 57 64 57 58 56 56 54 55 58 55 51 54 52 51 53 58 61 62 60 63 66 66 62 60 61 61 61 62 63 61 62 65 65 64 70 65 63 60 65 66 67 60 
56 56 51 46 51 51 55 60 65 65 60 62 60 60 63 63 63 61 61 62 61 62 62 60 65 59 60 63 61 56 60 61 59 62 61 61 59 57 58 60 57 57 54 59 56 54 53 54 51 54 51 50 59 58 61 64 64 65 65 63 59 61 59 62 60 63 60 62 65 65 60 65 65 65 61 60 62 66 64 62 
49 60 53 49 50 53 57 54 60 60 67 64 59 62 61 60 63 65 66 64 62 61 60 63 65 63 64 58 62 58 65 59 60 61 58 59 60 60 61 61 59 56 57 59 55 57 54 52 53 53 50 48 59 59 55 60 58 62 61 62 58 60 61 61 60 62 61 64 65 64 62 63 65 63 60 61 66 65 63 60 
54 57 53 44 47 54 52 64 58 59 63 63 61 59 63 64 65 65 64 67 62 62 70 63 64 65 61 61 58 59 65 62 62 64 59 59 61 59 60 58 61 61 57 59 57 57 56 52 53 54 51 53 56 58 51 64 57 58 61 65 65 63 62 66 61 64 62 58 63 64 63 63 66 64 62 62 65 65 60 64 
54 56 51 43 47 49 52 52 59 60 63 62 63 63 58 58 63 64 63 63 63 61 67 62 66 63 63 60 59 61 72 62 61 58 59 61 61 60 59 60 61 59 56 58 56 52 50 52 53 55 52 47 55 57 58 59 56 57 61 64 58 62 63 64 63 60 61 63 65 62 63 62 64 65 66 58 64 67 63 62 
56 53 46 45 49 48 57 62 65 60 66 62 66 65 62 62 63 63 64 65 63 63 66 62 66 66 63 62 63 61 64 62 58 63 61 63 60 59 62 62 58 57 56 55 56 53 51 52 56 52 54 52 55 55 55 62 60 59 65 62 64 62 64 63 60 63 66 63 64 66 66 65 67 66 62 59 64 68 60 65 
54 52 47 47 45 48 54 63 63 63 61 64 64 64 59 60 63 62 63 65 62 61 63 58 63 64 62 60 63 61 63 63 60 62 59 60 60 58 59 61 55 56 55 54 50 52 53 53 52 54 51 52 58 60 56 59 58 59 64 62 65 62 60 59 63 65 64 64 64 66 65 63 67 66 61 61 63 64 63 60 
48 54 45 45 41 46 54 70 63 63 62 63 63 62 61 64 66 62 67 63 60 63 61 63 61 62 61 61 60 59 61 60 60 61 60 57 58 56 58 56 56 55 54 52 55 51 52 49 49 57 54 49 59 55 52 59 61 53 60 63 62 61 58 64 64 63 67 64 64 68 64 67 68 63 62 60 63 65 63 63 
46 52 46 42 42 46 54 59 66 61 67 62 62 64 63 64 62 64 66 69 61 62 62 62 63 63 62 58 62 60 59 60 58 57 59 59 59 59 56 60 55 55 52 56 60 57 50 49 50 53 53 51 54 53 53 60 58 54 57 61 62 60 62 62 66 63 66 60 64 65 66 68 68 65 64 65 63 64 64 65 
48 46 48 41 40 46 52 63 64 65 59 65 62 63 66 64 67 64 67 65 65 63 65 62 63 62 61 61 60 57 60 58 58 58 59 58 61 56 59 60 59 55 54 56 55 57 53 52 49 53 49 50 52 60 57 63 56 59 66 64 62 66 63 63 64 65 65 64 66 64 62 66 69 67 64 64 64 67 63 64 
45 52 49 40 43 40 53 60 61 62 63 61 61 60 64 62 66 67 65 66 64 62 67 64 64 65 63 61 60 59 56 57 60 56 60 60 60 58 59 60 55 62 55 54 57 56 56 53 52 51 51 49 58 56 55 60 59 54 61 61 62 65 63 62 63 64 63 64 66 65 65 63 70 65 66 60 63 67 61 63 
48 51 47 41 42 45 52 59 64 61 62 63 63 63 62 65 64 67 61 61 61 63 62 62 64 64 63 64 64 62 58 59 60 59 60 59 61 57 57 60 56 55 59 57 54 55 55 49 48 52 50 48 54 54 57 58 54 56 64 64 64 62 65 62 64 66 65 63 65 69 64 66 67 65 62 60 66 64 65 68 
52 50 49 43 38 40 50 58 61 60 62 61 62 66 61 62 65 63 63 66 62 61 63 65 64 68 65 62 62 61 62 57 59 60 62 59 60 58 58 64 57 57 57 59 57 53 54 49 51 56 51 48 55 57 58 62 56 59 62 63 62 66 63 67 64 66 66 68 64 68 66 67 67 67 64 64 65 67 64 68 
49 49 49 40 36 44 48 56 65 63 62 65 61 65 60 63 64 65 63 62 61 65 64 64 63 65 65 62 60 59 64 61 60 61 59 62 59 59 58 58 60 61 58 61 58 56 54 49 49 52 49 50 57 58 59 66 59 61 65 62 65 65 66 67 67 68 70 69 68 66 69 66 69 65 68 63 62 65 64 63 
45 48 44 35 38 44 49 57 63 63 63 61 62 65 64 62 65 63 60 62 61 62 62 66 65 67 62 60 60 62 62 60 57 59 59 59 62 56 59 58 56 57 58 60 55 55 53 52 53 51 53 49 54 59 58 62 60 58 63 63 65 65 66 68 70 68 69 69 66 68 67 66 68 69 65 62 65 66 62 60 
45 49 43 36 38 37 47 55 61 62 65 63 64 66 64 65 69 63 62 62 63 66 65 63 65 64 64 61 63 64 61 60 59 60 62 60 60 55 57 59 58 59 59 58 60 56 56 55 60 68 62 61 62 65 56 67 59 58 67 66 64 69 68 68 72 66 69 69 69 69 66 68 71 65 65 64 68 68 65 64 
42 48 47 36 37 36 42 55 61 61 61 64 65 65 62 61 65 63 64 63 63 65 65 65 66 65 65 61 63 62 61 57 57 59 57 62 60 57 59 60 60 60 59 60 58 58 58 56 57 65 65 62 62 64 62 64 58 60 63 64 63 67 68 71 71 70 68 71 75 70 70 66 72 72 67 65 66 68 67 65 
43 46 40 34 37 35 38 51 61 60 58 64 62 61 59 66 68 66 67 64 64 61 65 65 66 68 67 62 62 66 62 58 57 59 57 58 57 58 59 59 57 57 60 57 59 63 60 58 56 61 61 64 62 66 59 67 58 63 64 62 65 71 66 71 71 73 70 71 70 70 67 72 72 68 67 66 68 69 67 67 
39 42 37 32 32 39 38 46 59 59 61 64 60 63 62 64 67 65 66 67 64 61 64 66 72 66 66 64 63 61 60 61 57 63 63 56 61 59 57 61 57 61 63 65 63 66 66 63 65 66 63 63 63 63 59 65 63 66 65 60 67 68 68 70 69 72 69 70 71 69 70 68 72 69 72 64 69 72 69 64 
38 39 34 29 31 37 40 45 53 58 59 62 62 64 62 64 65 69 68 67 65 63 67 66 65 66 62 61 62 62 62 63 63 62 61 59 63 59 59 61 60 64 64 67 62 65 65 66 73 89 79 74 69 72 62 70 65 62 68 69 67 71 68 70 72 71 67 71 70 73 65 74 75 69 73 70 72 71 67 71 
36 36 34 28 29 31 37 45 50 59 58 61 60 63 64 64 63 71 66 66 64 66 64 67 69 66 64 63 58 60 65 61 60 61 62 60 64 62 64 65 65 68 66 64 66 58 61 57 74 107 107 109 99 95 75 74 68 68 70 70 69 70 67 70 69 74 70 65 74 72 70 73 72 73 71 70 73 73 74 69 
36 36 31 27 28 35 35 47 55 59 63 61 62 57 62 62 65 73 65 70 67 65 68 70 67 69 63 64 62 65 65 60 58 63 62 62 65 65 62 68 66 68 67 70 61 61 60 54 79 116 116 114 117 115 113 111 94 83 83 76 74 74 71 77 75 79 72 73 73 74 72 73 76 72 74 71 72 74 72 73 
32 36 39 24 27 33 34 39 50 59 62 62 60 59 61 63 63 70 65 72 70 68 69 66 71 76 71 67 64 65 66 62 62 60 63 65 68 63 64 68 65 64 63 61 54 59 55 56 79 118 117 117 119 122 117 124 121 113 117 106 91 87 75 77 72 74 77 72 75 73 73 77 77 74 71 70 75 78 73 71 
31 33 29 22 27 23 31 37 46 54 61 59 58 61 64 62 64 65 68 69 73 75 93 91 86 76 69 70 69 71 64 64 68 71 68 65 69 64 66 68 66 61 59 61 55 60 58 57 85 118 115 118 124 126 123 126 126 121 133 126 121 117 109 101 89 87 77 76 77 77 76 77 79 76 75 74 77 79 76 71 
30 31 25 21 19 25 28 33 42 53 59 59 60 63 60 62 64 68 66 71 94 134 150 149 133 94 85 69 68 70 72 69 69 71 71 68 65 65 64 63 60 59 59 58 56 58 59 58 93 120 123 123 122 129 125 128 127 123 131 132 127 127 127 125 119 115 104 91 85 80 77 79 77 80 73 74 78 81 80 76 
30 32 27 26 18 20 24 29 36 46 58 58 63 60 59 63 66 72 70 80 115 147 158 164 156 121 78 70 78 75 75 68 71 70 67 63 69 60 59 60 56 58 57 57 58 59 59 63 98 122 122 121 127 128 126 130 134 128 133 135 132 130 128 133 124 127 124 120 116 110 94 87 83 82 80 78 80 77 80 78 
29 24 29 18 14 18 22 30 38 47 54 56 60 60 60 61 65 67 67 81 114 151 160 166 170 122 74 76 83 82 78 67 68 65 66 64 62 59 62 58 58 58 56 56 55 59 62 61 103 123 126 120 127 128 127 135 133 128 138 135 132 135 134 136 130 130 130 128 132 129 124 117 110 96 90 85 83 85 79 77 
22 23 20 13 19 17 18 24 31 46 53 60 59 62 59 59 64 67 70 80 110 161 191 201 181 135 81 81 83 81 77 64 62 62 63 61 59 60 58 61 54 57 56 57 58 57 63 73 105 126 122 122 125 130 125 136 131 131 139 135 138 139 138 138 136 136 133 133 135 138 133 135 132 125 117 110 101 94 85 81 
20 22 18 10 9 14 12 22 27 43 48 55 56 60 63 63 63 71 70 77 104 167 210 209 184 145 87 72 72 70 67 65 64 62 63 62 60 57 63 62 57 57 58 57 56 61 60 71 113 131 122 123 126 128 128 130 132 134 138 137 137 143 137 139 137 138 137 141 139 137 136 133 135 131 128 125 126 123 111 97 
19 21 21 14 10 8 10 17 28 41 47 55 55 61 59 62 64 64 63 70 88 133 164 162 155 140 89 67 61 64 62 61 59 62 63 62 62 57 59 61 55 57 58 57 56 63 60 71 117 127 121 120 126 125 126 133 132 133 136 135 135 138 139 139 140 143 138 143 142 141 140 135 136 137 140 132 132 128 126 124 
16 19 19 10 5 6 10 13 22 38 48 55 51 63 62 60 65 67 68 75 77 114 135 140 144 137 127 92 67 67 60 62 61 62 63 59 60 60 62 60 58 60 58 56 61 62 62 71 126 129 124 123 126 127 124 133 135 136 137 142 138 138 140 137 141 141 141 148 140 143 142 136 141 140 135 126 131 136 128 131 
12 14 13 8 7 9 5 16 23 38 47 52 57 58 59 63 62 65 66 72 88 118 127 129 130 127 122 115 99 78 62 61 59 58 60 58 60 58 59 62 62 67 61 62 59 60 64 75 131 127 123 125 131 130 129 134 134 138 140 141 141 144 144 144 143 144 145 146 148 146 143 140 141 142 139 137 133 137 129 129 
14 14 16 10 4 7 7 20 18 36 46 53 53 61 59 61 65 67 63 81 105 112 120 121 121 118 116 116 106 100 65 59 56 59 59 56 58 59 61 65 63 66 64 67 66 66 68 84 135 133 127 128 128 136 130 140 142 137 142 142 139 146 144 144 145 151 148 151 146 147 146 144 145 141 140 135 141 138 133 139 
18 9 11 9 5 9 4 12 16 34 41 46 53 60 61 61 64 65 68 89 99 104 109 109 114 112 109 107 105 103 79 63 56 56 65 57 60 59 65 70 67 64 66 70 71 72 74 90 138 136 129 125 133 136 134 142 142 141 144 147 147 149 148 148 150 151 151 157 153 149 148 143 146 141 141 137 137 140 135 133 
14 14 10 4 4 7 4 13 15 32 39 49 52 55 56 58 62 64 69 93 95 94 100 104 108 108 105 106 106 100 98 64 58 59 60 59 57 58 69 72 68 70 66 71 74 77 76 99 144 136 132 126 132 138 137 146 143 141 147 146 148 153 145 148 153 154 153 153 152 154 148 145 148 142 139 140 137 142 136 141 
13 9 9 5 11 4 6 10 15 27 40 49 45 53 57 59 61 64 74 87 91 89 98 100 106 106 104 102 104 102 92 65 60 61 64 62 52 60 68 69 67 72 68 71 77 76 76 112 149 140 135 133 139 139 142 146 141 144 152 149 149 149 149 154 154 154 153 153 156 152 153 149 152 147 141 145 145 142 145 141 
4 8 6 4 7 4 5 8 15 28 37 48 46 55 56 56 63 65 74 87 87 84 96 95 108 105 101 99 102 98 74 62 63 59 58 59 57 62 63 68 67 70 72 75 78 80 80 122 158 144 141 138 142 145 146 152 149 148 153 149 143 150 152 154 156 156 155 154 153 154 151 149 149 149 143 144 144 145 144 141 
9 4 1 1 9 11 4 8 8 30 42 45 52 47 51 58 63 68 71 81 81 85 93 95 104 100 94 90 76 67 62 60 61 58 61 60 58 58 62 66 66 70 67 73 74 75 80 133 162 153 151 145 149 150 153 152 155 153 150 150 147 151 155 157 157 158 158 155 158 157 154 153 153 148 144 145 146 149 145 149 
31 5 3 2 12 12 8 10 10 28 41 45 51 51 52 55 59 67 66 74 76 72 84 78 78 77 74 66 62 61 62 61 57 59 60 57 58 59 61 60 64 64 70 68 70 72 78 131 175 175 158 157 154 160 152 154 155 151 152 148 146 151 155 156 160 159 155 157 158 156 156 154 150 149 147 149 148 144 148 148 
58 21 7 3 7 6 13 13 13 26 37 50 56 54 58 57 59 64 65 73 69 67 65 70 69 68 66 64 61 61 60 63 56 62 63 60 59 58 62 63 60 62 66 72 69 75 76 100 143 178 190 175 165 163 158 163 157 151 154 149 148 151 151 158 160 165 158 165 161 164 165 154 154 153 148 152 153 149 153 154 
73 43 17 0 6 6 12 14 13 24 38 51 60 56 58 59 61 66 65 69 67 64 66 66 65 65 64 64 59 64 60 56 57 62 63 63 60 58 56 58 63 61 62 68 69 78 81 79 93 130 168 183 187 176 166 170 158 158 155 157 152 150 155 156 160 165 160 166 164 166 160 158 158 154 150 152 154 153 151 149 
77 59 25 4 6 4 10 16 13 28 36 51 54 55 58 60 54 61 65 64 63 64 63 61 62 64 62 61 61 67 61 65 63 66 64 61 64 56 57 63 57 62 59 65 71 77 88 83 80 96 109 139 168 188 184 182 170 159 159 158 157 159 158 158 160 163 166 164 169 166 161 157 159 159 152 150 148 157 159 149 
83 78 55 18 16 15 18 24 21 28 34 43 58 58 58 57 59 60 59 66 60 63 65 61 65 63 64 64 66 70 68 70 67 70 70 69 60 57 58 60 61 58 58 63 71 82 82 83 81 89 89 86 115 153 178 207 196 179 172 168 166 165 163 161 166 167 169 168 172 169 165 162 164 163 157 149 160 159 160 159 
79 76 68 36 21 14 20 20 22 27 26 43 56 57 52 50 58 61 55 64 60 58 61 59 63 67 61 67 62 66 69 72 70 75 71 70 70 58 59 58 57 50 60 67 70 81 78 74 76 86 86 74 85 99 131 181 182 204 190 173 171 166 162 161 165 170 166 173 174 171 169 167 165 159 164 158 158 159 165 152 


