P2
80 60
100
11 11 13 7 9 8 9 11 13 12 13 12 13 14 13 16 14 15 11 12 11 13 9 11 15 16 11 9 13 10 14 15 18 14 13 15 15 13 12 13 8 11 15 10 12 12 9 11 18 16 15 14 16 17 14 13 14 11 14 12 8 10 14 15 10 8 10 7 4 8 8 9 9 13 14 11 8 9 4 9 
14 13 15 15 14 11 12 13 12 17 10 13 15 13 14 15 14 15 12 12 13 11 14 12 14 14 11 14 14 14 17 16 14 14 13 13 13 15 12 11 13 10 14 15 11 15 11 12 13 12 16 16 13 13 16 18 15 9 14 8 10 12 11 10 11 10 10 6 5 6 3 11 7 13 16 15 7 11 5 10 
12 14 12 15 12 9 15 13 17 16 14 11 12 12 13 15 13 16 14 12 13 13 12 9 13 13 12 12 13 11 13 18 14 13 15 15 15 15 14 13 7 12 12 10 12 13 12 12 18 14 10 13 10 12 14 15 15 11 13 10 12 11 9 10 11 7 10 5 3 7 13 12 7 9 9 8 18 9 2 10 
12 14 13 10 10 13 11 11 16 18 18 11 11 12 12 13 13 14 13 15 15 10 12 14 14 14 12 11 18 15 11 14 16 15 14 13 14 15 12 13 9 13 13 11 13 15 12 12 21 16 15 17 15 13 17 15 9 10 13 11 15 15 11 13 11 8 8 8 7 6 11 16 4 9 8 13 6 10 8 4 
11 11 14 11 9 12 8 14 10 18 13 11 11 10 12 18 13 11 15 10 14 14 13 13 13 14 13 13 12 11 12 14 13 12 7 15 15 10 14 10 13 11 18 13 13 14 15 11 15 14 13 16 15 13 14 14 12 11 11 8 12 12 10 12 11 10 8 8 8 9 8 9 9 7 9 9 7 5 7 11 
12 13 11 12 10 9 10 12 16 14 12 12 14 13 12 13 14 14 14 18 10 16 16 16 15 17 13 12 12 13 14 13 13 12 13 15 14 14 15 15 9 15 17 13 11 16 15 13 18 15 16 14 14 13 14 16 12 15 8 11 14 15 17 14 10 8 12 8 11 14 9 7 5 9 8 11 7 12 2 7 
12 13 15 12 9 11 11 13 12 18 15 15 14 12 12 15 17 15 14 15 13 15 16 11 17 18 14 14 15 14 11 10 14 10 11 15 12 13 14 14 13 17 17 14 12 15 14 13 18 14 16 18 12 15 14 13 11 17 21 12 15 14 12 11 13 9 8 9 8 10 6 6 5 8 11 7 6 6 3 5 
15 14 13 12 13 15 14 14 12 18 14 9 10 12 9 15 15 15 13 17 18 18 16 17 18 16 18 13 15 14 9 8 8 8 13 16 13 11 16 14 14 18 14 14 11 13 16 11 17 10 11 16 18 12 14 14 15 13 11 13 16 12 11 14 9 13 10 7 8 6 8 9 9 5 7 8 9 4 6 4 
18 16 16 15 17 15 16 12 16 15 11 17 13 11 13 11 15 17 14 17 14 14 15 13 12 18 15 12 18 11 12 9 10 13 13 16 16 11 12 15 7 11 13 11 12 12 12 13 18 15 11 18 16 16 17 14 11 13 14 16 16 13 13 12 15 12 10 9 5 6 5 10 10 9 8 7 4 5 2 6 
17 20 21 17 13 13 17 16 13 10 14 15 13 10 13 17 21 15 13 14 14 15 15 14 14 17 16 11 13 15 9 9 12 13 14 12 14 10 12 15 13 11 11 10 11 12 7 13 20 12 12 14 17 15 18 12 7 10 12 11 12 13 9 16 13 7 7 4 6 7 9 7 5 9 6 5 10 5 0 4 
19 21 19 17 16 15 20 14 17 14 15 14 13 12 13 17 14 18 13 11 13 12 16 14 12 14 8 12 12 13 9 12 20 11 9 11 11 11 13 14 11 15 13 11 9 10 12 12 15 12 12 14 11 12 15 16 10 12 11 11 15 13 11 14 13 8 10 9 4 8 6 10 5 8 10 8 5 6 3 5 
18 18 19 12 14 12 15 18 16 12 14 12 14 10 10 13 11 11 10 11 10 12 14 14 13 12 10 9 10 9 12 13 14 13 11 10 11 13 11 12 14 9 11 11 11 10 15 12 15 12 12 12 10 9 13 15 9 10 10 10 7 11 10 15 8 9 9 6 3 4 6 4 9 6 6 10 5 10 5 7 
23 17 19 21 13 13 14 16 12 19 16 12 13 10 14 15 10 9 9 8 11 14 15 13 10 10 13 13 13 12 12 10 16 15 11 9 11 10 14 18 11 11 12 8 12 11 14 10 13 14 11 12 9 9 10 14 13 12 13 8 10 7 12 13 12 11 12 6 4 7 0 12 6 3 4 7 15 10 5 6 
19 19 18 17 17 13 15 16 12 15 16 13 11 13 13 18 12 12 14 13 11 15 13 13 16 13 11 11 12 10 10 12 11 15 12 11 10 13 11 14 9 10 12 14 12 15 12 16 17 15 13 14 11 14 12 13 17 13 13 11 9 10 11 11 12 8 11 12 4 5 6 7 8 6 8 8 6 7 7 4 
17 15 19 15 13 13 15 14 12 8 13 11 12 7 17 12 11 6 11 11 11 11 11 13 10 14 10 12 11 10 11 11 9 11 14 10 7 11 11 11 8 9 13 7 13 12 10 13 16 15 16 14 12 12 13 15 14 24 16 11 11 9 11 11 13 8 10 10 6 10 5 6 7 5 5 8 5 2 1 8 
20 19 17 14 14 10 14 16 16 13 10 13 10 10 11 16 12 10 12 9 7 14 10 10 13 16 12 12 11 9 10 10 9 9 13 11 9 9 9 10 11 12 13 10 10 12 11 9 13 14 11 13 15 12 15 14 13 13 14 12 9 10 10 11 11 11 11 9 7 7 4 7 7 7 6 7 4 7 2 10 
17 23 23 16 16 11 11 15 16 10 13 15 11 10 10 12 9 10 10 11 10 13 8 13 14 15 14 18 15 11 9 11 12 13 10 13 11 11 9 11 9 9 13 9 9 16 12 10 12 10 10 11 13 13 16 12 14 14 15 12 10 11 10 12 15 7 9 7 6 7 7 7 10 7 3 7 5 4 9 7 
20 19 22 18 14 14 11 17 15 18 14 13 11 7 12 12 9 10 10 12 11 14 10 14 14 13 9 15 17 11 10 13 11 9 12 9 11 10 9 13 13 13 13 10 13 14 9 12 13 9 11 10 13 15 16 12 11 19 14 13 9 11 7 12 8 10 8 9 8 8 7 9 6 9 6 6 6 7 9 9 
19 18 22 13 16 11 14 12 13 13 11 14 12 9 13 12 11 11 14 12 8 14 16 16 13 12 12 11 13 9 13 11 15 9 15 12 9 10 11 12 13 12 13 12 12 12 11 10 13 9 13 12 17 15 13 11 13 15 17 10 10 10 9 9 11 5 12 9 8 6 11 9 10 8 5 7 3 6 7 7 
18 18 20 20 15 15 16 11 13 13 13 14 12 12 13 13 12 14 10 13 12 15 19 14 13 13 13 11 9 11 16 17 12 12 11 11 9 13 13 12 13 14 15 12 13 11 9 12 15 14 10 11 15 12 12 13 10 12 14 10 9 11 12 12 11 11 14 7 7 7 12 11 9 8 5 9 5 8 6 10 
18 18 17 19 16 17 14 12 18 11 16 14 12 11 15 12 13 16 12 10 14 13 15 16 13 15 11 10 13 15 21 16 14 10 12 13 12 13 12 14 10 14 15 10 11 11 11 9 16 15 15 14 13 11 16 13 13 10 13 10 11 13 13 10 9 10 15 9 9 7 7 14 7 6 6 5 4 7 4 3 
21 19 16 17 16 12 16 15 14 12 18 13 18 14 12 17 12 16 11 11 9 15 17 18 15 13 12 13 13 12 12 14 13 12 8 10 12 12 14 11 10 13 11 8 8 7 10 10 13 17 10 10 11 13 9 14 15 12 13 12 10 14 11 11 12 10 11 10 8 11 9 8 7 7 10 6 5 8 3 7 
19 16 17 18 18 12 13 16 13 12 12 17 12 10 11 15 12 12 9 13 11 12 15 14 14 17 13 11 12 9 9 13 10 10 10 12 10 10 10 13 11 9 11 4 6 7 8 10 11 13 11 13 11 11 10 14 13 10 12 10 9 11 8 7 11 11 7 9 7 10 8 7 9 8 5 6 3 7 5 3 
15 14 15 16 14 16 17 20 15 14 14 14 11 10 11 16 14 11 11 14 13 10 13 12 12 14 10 12 11 10 12 12 10 12 11 11 11 10 8 10 7 13 11 7 8 7 11 7 13 14 14 13 13 9 11 14 8 9 11 9 9 11 6 9 11 9 13 10 5 13 10 7 7 6 9 6 5 6 5 5 
16 17 19 14 18 13 17 17 20 17 14 12 12 12 13 12 14 16 14 13 8 18 15 16 14 12 11 10 11 10 5 10 10 10 11 11 11 8 8 12 8 11 10 7 11 11 8 7 12 12 8 12 12 9 10 12 9 10 10 12 11 9 11 7 10 5 13 12 5 7 9 8 9 7 7 7 2 8 8 10 
18 12 20 17 14 11 17 21 18 16 13 16 13 15 16 14 16 15 14 17 12 12 16 18 15 13 12 9 10 9 10 9 10 8 9 10 8 13 8 13 6 9 10 8 11 14 9 12 12 8 8 13 12 10 9 8 10 11 15 14 7 13 14 11 10 7 11 10 6 11 8 11 8 9 7 7 7 4 4 13 
14 15 16 14 12 12 19 18 16 13 14 15 17 11 14 16 15 17 7 11 10 12 16 16 12 16 10 11 11 9 9 7 11 6 9 10 8 9 11 10 7 9 11 9 10 12 9 10 11 8 11 13 11 7 12 12 9 8 7 11 9 13 8 11 8 7 11 5 9 7 7 6 7 9 8 10 4 8 5 9 
18 16 18 16 14 13 15 14 14 14 14 13 12 10 14 14 10 15 9 12 12 13 15 15 11 11 15 13 9 14 9 9 9 7 7 8 9 8 11 6 7 10 12 9 8 8 10 9 11 8 8 13 10 7 9 10 5 8 5 9 7 8 13 11 8 9 9 11 4 12 8 5 8 8 5 5 4 8 6 9 
18 17 23 17 13 13 16 18 14 17 15 9 13 14 15 17 14 12 11 13 11 13 13 16 12 15 7 11 13 12 10 6 8 7 10 10 11 8 7 9 9 10 9 8 8 10 9 10 10 9 9 9 11 8 11 12 5 9 7 9 9 6 7 12 10 7 14 9 5 8 7 8 7 9 7 4 7 7 9 8 
24 19 20 20 11 14 17 15 19 13 13 12 14 14 18 16 16 13 10 14 14 14 13 16 14 16 12 12 11 10 12 12 9 8 7 10 10 11 9 9 12 13 11 9 12 11 10 7 10 10 9 9 11 9 10 10 10 10 9 7 7 11 7 12 11 9 14 10 6 7 6 5 8 11 6 9 3 7 6 3 
19 18 19 19 13 14 18 16 15 13 14 11 13 12 15 16 16 12 10 14 13 12 13 15 15 14 11 12 14 17 11 9 8 9 10 7 13 7 10 9 7 12 12 11 14 12 8 9 14 12 10 4 12 10 9 9 8 9 7 4 8 11 10 15 13 8 10 7 6 7 6 5 6 11 6 5 5 7 3 6 
17 14 19 17 16 13 15 17 14 17 17 16 16 16 15 14 17 13 11 10 12 15 14 14 14 14 14 10 10 11 11 9 12 9 11 8 8 8 10 9 10 11 12 9 12 11 8 10 11 15 9 8 9 9 15 10 9 6 8 6 10 11 10 10 11 11 12 10 7 8 7 8 8 4 8 5 4 4 3 3 
18 17 23 15 15 13 14 14 16 15 12 15 16 13 10 14 13 13 12 9 10 15 14 16 14 15 13 13 10 10 10 10 11 8 5 9 7 7 10 10 11 12 11 9 14 9 8 8 15 14 11 9 9 7 9 10 9 9 7 7 9 9 8 12 13 13 10 8 9 6 7 7 7 7 8 4 4 1 2 0 
17 17 19 17 16 13 15 17 17 16 15 14 13 13 14 16 14 14 13 11 12 11 15 19 17 15 13 13 13 16 8 9 10 12 9 7 8 8 7 9 11 15 12 10 11 9 8 8 13 11 11 12 8 8 9 13 10 8 7 5 7 10 7 10 10 10 14 8 6 7 3 11 5 8 8 6 5 5 3 3 
16 16 18 18 16 16 14 21 19 13 16 14 15 14 16 19 18 14 16 14 13 12 15 15 16 16 12 13 15 11 11 12 10 9 10 12 9 8 12 14 8 12 15 10 13 14 11 9 12 11 10 11 9 10 9 13 9 11 9 7 7 9 9 10 13 9 9 10 5 6 8 11 10 5 7 5 7 12 5 5 
16 16 24 17 15 18 13 16 21 18 16 14 14 16 16 17 15 15 14 15 8 15 17 15 15 13 13 13 12 11 11 14 12 12 12 9 9 7 9 10 11 14 13 11 10 10 10 14 12 11 12 10 11 10 10 12 8 9 9 10 10 11 10 10 10 12 10 10 6 8 4 11 9 8 7 4 4 10 5 8 
21 21 21 21 17 19 20 21 18 16 16 15 15 15 14 19 15 16 16 16 16 16 17 16 15 15 11 13 16 11 13 11 9 9 10 9 9 12 9 11 7 11 10 11 10 10 7 9 13 11 12 13 9 11 9 9 7 9 8 10 11 12 6 7 13 11 8 7 10 9 9 7 7 6 9 8 6 8 6 7 
21 22 21 20 21 17 17 21 18 17 19 17 17 15 18 12 14 21 16 15 15 19 17 19 13 13 11 10 13 12 11 13 10 11 11 9 8 9 10 10 12 11 12 11 9 8 7 9 11 10 16 11 12 9 14 12 9 9 8 7 11 12 10 9 13 15 13 7 4 10 6 9 6 7 5 9 6 11 7 6 
22 22 25 22 23 22 20 18 19 19 23 19 19 17 16 19 17 18 15 17 17 16 17 19 14 14 12 12 12 12 12 11 11 10 10 11 12 10 11 7 10 11 14 11 9 11 12 8 12 11 10 15 14 12 12 13 10 10 9 8 11 11 6 10 11 9 9 9 5 7 8 7 6 8 6 11 7 10 7 8 
22 22 23 23 20 22 22 20 21 22 20 21 21 18 15 17 18 18 13 15 19 15 16 19 17 18 14 14 13 13 10 11 15 12 12 10 8 7 10 13 9 13 13 10 10 11 15 9 14 11 11 17 13 12 13 13 10 12 4 8 7 13 7 9 11 9 9 7 4 9 7 7 9 11 10 11 10 10 9 13 
23 25 24 23 21 21 22 20 19 19 21 21 20 24 17 20 20 16 18 16 15 18 17 17 19 20 19 14 16 10 12 12 11 13 10 9 7 12 11 9 10 13 14 10 13 13 7 12 14 14 14 19 16 16 11 9 7 9 6 8 5 8 7 12 10 7 9 5 7 6 7 6 2 10 8 8 9 11 13 10 
25 22 25 25 19 21 21 23 20 18 21 20 22 22 19 22 17 19 15 19 18 17 17 19 21 18 22 13 14 10 11 11 11 14 9 13 12 12 10 11 10 13 14 11 12 13 9 11 13 17 11 13 13 14 13 11 11 9 7 4 10 6 9 11 13 8 7 3 5 10 7 8 7 3 6 6 6 11 6 8 
31 25 31 23 20 22 21 20 21 21 22 27 25 21 21 20 22 16 19 19 17 17 19 20 20 22 16 17 13 11 12 10 14 10 12 14 14 12 10 14 11 12 12 11 12 10 11 13 16 12 13 12 12 13 12 12 12 10 8 8 8 12 9 12 10 9 8 5 5 6 7 5 9 7 9 8 9 9 13 11 
31 24 25 25 20 20 22 24 24 20 22 26 24 23 20 22 21 21 23 19 17 18 20 19 19 18 16 15 16 15 12 13 14 12 12 10 10 12 12 11 8 11 11 11 9 15 13 18 14 13 11 9 11 13 9 11 7 10 9 9 9 11 8 10 9 6 7 6 5 8 5 7 6 4 5 10 6 6 8 10 
27 29 29 26 24 21 24 27 24 23 23 23 24 21 22 21 23 24 19 19 20 16 20 21 18 17 16 17 17 12 12 12 12 12 11 12 11 8 10 13 10 11 12 10 14 13 12 15 17 10 11 13 13 8 9 8 9 9 14 10 7 11 9 9 9 10 10 11 6 5 6 4 5 3 8 8 7 6 6 7 
50 42 30 26 28 23 26 23 25 21 21 24 23 23 27 27 22 20 18 21 23 21 19 22 19 17 14 15 14 15 12 13 13 9 14 13 10 10 8 12 13 11 12 11 13 16 12 11 17 12 12 13 10 10 13 10 8 7 8 7 8 7 11 7 11 9 8 9 7 7 5 5 5 6 9 6 4 5 1 9 
74 68 61 41 33 24 29 23 22 26 23 22 26 23 29 29 22 24 21 22 20 20 22 21 18 20 19 15 13 13 11 11 13 10 11 14 11 11 10 10 9 11 11 10 15 18 12 10 16 13 11 10 12 10 12 8 7 10 9 9 8 12 9 13 10 9 11 9 9 5 8 5 5 6 9 6 2 5 5 4 
78 78 78 66 63 53 42 31 27 21 21 23 26 28 28 28 22 22 23 25 22 19 22 24 17 18 18 16 15 16 11 9 9 9 11 12 13 9 11 13 7 14 13 11 12 14 14 13 15 7 9 17 11 11 10 11 10 8 10 10 10 10 10 10 13 6 9 9 10 10 10 8 8 10 8 5 4 6 5 5 
79 86 86 78 78 73 71 59 42 31 28 24 30 24 27 26 26 23 23 19 17 18 21 21 18 18 16 17 21 18 12 11 12 13 10 13 10 11 9 13 9 12 11 11 14 16 11 10 15 10 9 13 11 10 11 15 12 8 10 9 6 15 10 14 11 8 13 8 9 8 6 9 7 6 6 7 3 7 9 7 
81 84 83 75 77 73 73 70 68 57 49 40 33 24 27 23 26 24 20 17 14 13 18 16 15 14 15 13 12 13 11 9 12 11 12 10 11 10 10 13 11 10 8 9 10 16 8 7 9 8 12 13 15 11 15 11 10 9 9 7 9 10 11 11 10 8 10 5 5 4 7 7 6 10 9 6 2 2 4 2 
84 86 86 82 79 78 74 77 73 69 68 64 52 35 28 26 23 24 18 16 14 14 11 15 15 14 13 10 14 10 9 11 13 10 13 12 11 9 11 8 10 11 11 11 11 13 9 8 9 8 9 13 14 11 14 11 8 9 7 9 10 13 9 11 13 10 7 5 10 7 7 8 5 6 9 8 4 6 4 4 
87 90 86 85 88 79 82 79 74 73 73 69 63 43 27 26 24 23 20 14 16 15 14 17 14 13 8 10 5 9 8 9 10 11 13 11 4 10 3 9 7 13 11 10 11 10 10 8 13 9 9 8 14 12 14 17 11 9 11 11 7 10 11 10 13 11 8 7 6 10 6 9 12 8 7 10 5 0 2 4 
87 89 91 86 86 83 85 76 74 75 71 70 68 50 32 23 23 21 19 15 21 17 18 11 16 15 13 10 9 10 7 11 13 10 9 12 8 7 10 6 6 11 8 7 9 10 9 8 13 10 9 10 9 10 17 15 8 9 13 7 9 8 9 12 9 10 9 8 3 6 8 7 3 5 5 6 1 2 1 4 
88 89 93 87 93 90 84 82 76 77 74 71 68 52 31 26 22 20 20 19 14 15 18 15 18 16 15 13 13 11 7 10 6 9 7 8 3 4 6 6 6 6 5 7 10 10 10 7 14 10 9 11 13 11 11 11 12 13 11 8 10 11 6 12 10 7 10 8 6 7 6 9 6 9 7 10 3 4 4 5 
85 87 93 89 89 86 84 80 76 76 77 72 69 59 27 24 21 22 17 15 15 15 19 18 20 19 19 14 15 10 9 12 14 9 7 7 8 5 5 5 8 8 9 9 6 11 5 7 9 8 11 11 8 12 11 12 12 8 7 7 7 10 7 7 8 8 7 6 5 9 7 9 9 4 7 8 5 6 5 3 
86 88 94 91 90 85 89 84 77 79 80 78 74 59 30 27 20 22 19 18 15 17 16 17 20 16 14 16 14 15 3 17 9 12 9 9 11 8 4 8 3 7 8 9 9 11 6 6 9 8 9 11 13 10 13 12 11 8 3 8 7 11 7 10 9 5 11 9 7 10 14 7 7 8 9 14 12 3 7 7 
91 93 95 92 92 89 91 87 85 80 77 78 77 67 38 24 23 22 20 20 15 17 17 20 16 13 13 14 15 13 8 11 14 11 8 11 13 8 11 9 8 9 6 5 8 8 7 10 13 8 9 9 8 10 12 14 8 8 8 7 9 7 8 5 12 12 8 4 4 8 8 7 9 7 8 8 6 7 3 5 
91 93 97 95 96 88 94 91 86 83 84 80 80 68 37 25 18 17 18 18 18 16 21 18 17 15 13 18 13 12 11 14 9 10 12 13 17 11 9 15 10 15 12 9 8 9 10 15 15 8 9 12 9 10 11 10 8 7 9 5 8 11 14 9 11 11 7 7 5 8 5 8 4 6 8 5 3 4 2 8 
95 95 96 97 95 94 94 92 88 89 84 80 77 70 45 25 24 17 19 15 15 17 18 19 15 15 13 15 16 13 12 14 9 10 12 14 10 11 12 12 12 10 13 6 7 6 6 13 11 11 13 14 10 9 14 10 7 7 9 11 7 10 9 12 9 8 5 3 6 10 5 6 6 7 4 3 5 4 3 8 
94 95 100 97 96 95 95 95 87 87 86 80 75 70 46 22 17 18 16 18 12 15 20 22 16 20 15 15 13 11 9 12 12 11 17 13 16 10 12 11 9 13 11 8 6 11 9 8 14 11 11 11 12 11 13 12 5 6 9 5 8 11 6 9 5 7 6 5 2 4 3 6 5 8 5 5 6 5 6 10 


