P2
80 60
173
154 153 150 151 145 151 150 149 149 146 145 147 143 147 143 144 143 143 139 136 135 134 127 100 73 75 80 108 145 161 161 158 159 158 162 164 165 164 163 162 162 163 159 163 160 165 165 165 162 157 155 154 151 154 158 167 167 168 165 163 167 164 166 162 156 158 160 159 152 146 149 144 151 145 137 116 83 47 18 1 
155 154 158 152 146 152 148 153 153 150 146 145 148 146 146 145 140 146 140 137 135 130 131 105 82 78 85 109 144 158 162 160 162 159 161 165 159 162 165 165 160 163 163 161 163 169 165 162 163 163 153 153 154 154 158 162 169 169 171 162 168 164 161 158 156 161 161 158 152 147 153 151 155 151 140 112 85 45 20 6 
155 150 155 156 150 148 151 150 149 147 145 146 147 145 141 143 143 141 137 131 137 128 122 105 77 80 87 115 149 156 159 157 157 161 163 163 162 164 162 160 161 165 164 161 160 166 164 166 161 159 148 149 151 153 158 165 163 169 167 162 167 163 161 159 160 159 162 159 154 149 152 146 151 150 135 117 89 48 22 1 
156 153 152 150 152 149 153 147 150 145 148 143 145 142 149 148 142 140 139 135 138 131 128 103 78 77 90 120 152 159 159 157 159 158 165 160 162 166 165 163 160 163 163 159 162 166 163 164 161 155 149 151 150 147 152 162 162 166 166 166 165 162 160 161 161 157 161 157 153 151 151 153 147 144 137 113 86 45 14 3 
158 157 152 153 147 148 150 148 153 152 150 151 152 150 148 149 147 147 144 142 141 133 130 106 82 83 86 122 148 157 154 154 157 157 160 164 163 165 169 162 160 162 162 162 163 167 165 163 158 153 156 150 151 153 160 162 162 162 162 166 165 165 165 167 162 165 163 160 154 153 152 151 150 145 143 117 87 46 19 3 
154 155 153 155 148 146 149 153 156 154 155 150 157 153 153 153 147 148 149 142 141 139 131 109 79 76 83 115 150 154 157 156 156 155 156 165 161 162 164 161 157 162 164 159 160 166 167 165 160 158 152 155 157 157 158 159 163 166 161 165 166 168 167 165 163 161 165 159 160 156 148 153 150 145 139 122 88 48 13 0 
157 157 153 154 152 153 154 150 158 158 157 154 155 154 151 149 154 152 152 143 141 137 134 119 83 77 86 121 152 158 157 156 155 158 160 161 160 165 166 160 157 163 162 159 158 166 168 166 160 159 159 160 161 157 160 165 163 173 169 167 166 162 163 163 162 163 168 163 157 158 150 151 153 146 141 123 89 55 23 10 
156 157 160 157 153 155 152 150 159 155 156 155 157 153 153 149 150 149 147 144 144 143 138 123 91 77 88 121 154 155 157 155 155 159 161 164 163 162 164 160 159 162 160 162 157 166 166 170 158 163 158 155 161 155 153 166 163 168 169 169 168 161 165 159 160 164 163 161 160 152 141 147 156 150 142 122 94 55 21 4 
157 158 156 157 155 157 150 148 156 161 157 158 158 150 155 153 153 152 146 139 140 142 137 124 96 77 88 127 147 156 155 152 155 161 163 163 162 164 164 158 159 160 158 161 160 166 163 165 159 157 151 149 148 153 151 153 161 168 166 170 168 163 163 159 160 165 162 162 153 151 147 152 153 155 144 119 92 55 22 4 
162 164 161 162 158 161 157 160 159 163 160 159 155 157 151 153 154 151 144 138 142 137 137 128 98 76 93 127 155 153 156 153 154 156 162 162 162 161 165 162 158 159 162 157 159 161 162 162 161 160 146 149 149 146 146 146 154 166 160 168 164 160 163 158 158 163 161 159 157 150 144 151 149 151 143 115 93 53 25 0 
163 164 165 164 160 162 166 159 166 163 158 160 157 154 153 152 152 147 147 139 139 139 137 125 99 74 90 131 148 150 155 149 156 154 159 157 157 161 163 160 156 159 156 156 157 162 162 158 156 152 143 143 140 140 142 151 157 165 160 162 164 163 160 161 160 164 167 163 159 152 144 151 150 151 144 119 90 56 20 3 
166 166 164 163 159 161 163 158 162 158 157 160 151 156 146 151 146 150 148 144 139 132 138 125 93 76 89 126 151 153 154 155 155 155 156 155 158 161 161 159 155 160 156 157 162 158 158 157 152 150 145 140 136 137 142 152 155 164 164 169 167 165 162 163 164 167 166 161 156 152 150 146 158 153 144 122 94 54 25 6 
164 165 164 165 159 158 159 159 163 156 154 153 158 153 148 144 144 141 144 139 141 135 137 121 97 80 90 128 155 152 156 158 155 156 158 159 156 161 167 158 157 156 160 157 160 162 162 161 154 154 151 146 139 137 142 148 151 165 161 163 165 164 167 161 163 164 169 165 157 154 139 149 155 151 141 124 96 59 29 7 
165 164 165 165 160 162 163 159 163 160 154 149 147 144 138 141 136 135 132 130 135 129 133 125 106 82 91 134 148 155 155 154 157 160 165 159 157 158 163 159 156 159 158 159 160 165 161 155 150 151 142 141 130 130 139 146 155 165 162 167 167 163 161 158 163 166 166 162 157 152 147 151 157 155 142 121 101 56 20 6 
165 164 165 163 161 159 161 164 156 160 149 152 146 141 141 137 136 134 129 126 130 127 130 127 100 84 95 137 150 153 155 154 155 157 155 159 155 159 158 154 155 156 158 159 157 158 161 157 153 155 143 132 128 128 134 142 154 170 161 164 161 163 162 162 161 165 166 161 155 152 154 152 156 155 140 120 101 61 26 10 
163 162 163 162 156 158 157 157 159 153 146 153 146 144 135 139 131 134 130 125 128 126 125 118 91 90 102 135 151 154 155 153 155 154 157 160 154 156 162 156 154 158 154 153 150 156 154 153 151 151 144 133 124 124 128 136 153 163 164 165 165 159 161 158 159 162 158 159 162 153 151 150 155 151 137 119 99 55 24 11 
162 162 164 159 159 159 156 158 159 154 151 147 144 140 137 139 131 134 128 129 128 126 128 120 102 98 104 140 151 154 155 151 155 156 156 160 154 159 161 158 153 156 155 156 152 161 156 153 154 145 140 140 130 128 135 146 153 161 163 166 166 164 162 162 161 161 161 167 160 154 156 154 163 148 136 118 97 62 27 13 
168 164 162 159 158 157 162 157 155 156 149 149 142 133 133 133 128 129 127 121 128 121 129 122 102 104 108 140 148 153 151 151 152 154 160 158 155 158 162 158 152 153 154 153 154 154 152 150 151 151 141 131 129 127 135 140 151 167 162 164 164 162 161 160 160 162 163 163 162 157 153 151 149 147 132 113 94 54 24 11 
167 163 164 159 156 160 162 156 155 151 146 147 143 136 131 133 125 130 129 123 121 124 125 124 112 105 108 141 150 152 153 154 154 156 158 158 156 158 163 160 155 154 151 154 151 153 149 149 142 135 130 124 125 128 127 139 143 153 156 162 164 162 160 159 163 161 167 163 163 158 151 155 154 144 128 111 93 59 24 12 
162 163 166 166 160 165 159 154 158 152 150 147 145 143 140 136 134 137 134 128 126 128 130 121 116 107 116 143 151 154 152 154 152 153 156 157 153 156 162 158 154 157 151 153 154 151 149 149 133 128 116 119 116 121 121 128 128 146 156 162 162 159 159 159 157 165 167 160 157 157 151 151 149 143 129 110 94 46 28 13 
167 166 164 167 160 164 159 154 157 157 153 148 153 145 144 145 146 138 138 132 138 133 130 124 120 113 115 144 147 156 158 153 151 151 156 158 152 158 160 159 154 155 153 151 153 147 151 148 137 127 114 115 108 117 123 128 131 149 156 160 160 158 158 155 159 160 163 162 156 159 154 157 148 143 130 112 98 55 25 8 
167 163 163 163 157 164 160 157 160 154 155 153 156 149 142 145 139 138 136 133 130 128 126 122 115 111 123 148 152 151 152 154 152 152 157 154 153 154 160 158 151 151 148 148 148 150 148 147 139 124 114 116 112 116 110 120 127 145 150 159 160 159 160 155 163 161 162 164 155 157 158 151 154 142 128 111 92 55 19 11 
162 163 163 160 163 162 160 156 160 156 150 153 151 143 145 144 141 136 136 131 124 124 123 121 116 114 120 144 149 149 150 153 153 150 153 156 152 154 158 160 152 150 150 145 152 146 149 143 137 127 115 115 115 113 117 124 131 147 147 155 163 156 156 155 157 165 162 164 154 154 158 152 153 143 126 112 91 51 22 10 
168 161 164 163 158 158 161 161 163 159 149 150 148 146 145 144 145 140 135 126 128 124 124 123 121 117 122 148 147 146 152 152 151 154 152 158 148 158 159 155 150 148 147 148 145 150 150 145 131 127 122 119 121 119 117 125 139 146 154 160 162 158 157 156 159 163 167 166 157 155 154 154 152 141 128 113 94 45 21 12 
164 161 164 166 157 160 164 162 163 156 152 153 153 148 149 148 145 140 136 130 130 126 120 121 120 118 130 143 150 147 150 149 151 149 156 153 151 154 158 154 150 152 146 149 148 152 152 144 137 130 132 133 129 121 115 125 137 147 148 158 159 160 160 160 164 163 162 161 158 158 158 156 154 138 122 107 94 47 24 6 
164 160 160 161 157 159 155 158 162 158 152 156 156 147 152 149 144 143 139 131 128 126 122 121 121 118 128 149 149 147 148 146 150 150 155 155 152 154 157 154 150 151 145 148 149 148 148 148 143 139 135 136 132 126 120 124 139 148 148 157 161 157 158 158 166 160 164 161 157 158 156 153 151 136 122 111 91 45 17 11 
167 162 158 162 156 160 160 159 160 154 149 154 154 152 146 147 142 138 137 132 130 124 130 127 119 123 132 148 152 150 152 148 152 152 156 155 151 155 155 154 152 153 148 145 148 146 147 143 139 143 132 128 131 129 131 138 143 149 151 158 155 158 159 158 160 162 162 161 159 152 154 157 148 137 121 110 91 42 21 12 
168 165 162 161 157 160 154 163 161 156 154 151 149 143 142 144 138 141 137 133 133 128 124 125 120 125 135 148 150 146 149 147 149 151 154 156 154 154 157 153 151 153 147 144 148 148 146 146 135 134 122 122 119 120 123 138 139 144 151 157 162 155 160 156 160 163 165 162 154 159 152 158 149 135 118 108 87 41 21 6 
164 160 167 159 155 160 157 155 157 157 147 148 143 141 137 135 133 133 134 135 135 124 124 125 122 123 135 151 151 150 148 148 152 149 153 155 154 152 159 157 150 154 141 141 147 149 145 141 131 125 123 122 121 122 120 130 133 140 146 154 157 157 158 158 159 160 163 163 153 157 156 151 143 131 121 108 85 38 23 5 
168 161 164 156 157 156 153 153 158 159 151 149 145 140 133 137 133 134 137 135 136 130 126 125 124 122 132 148 148 152 147 151 149 150 153 154 149 154 156 154 151 149 144 141 147 143 142 138 133 130 128 128 125 122 130 135 138 144 147 157 158 154 159 157 163 158 161 162 153 155 150 152 146 128 117 107 80 33 23 5 
159 161 161 158 154 154 155 152 159 155 148 150 144 134 135 139 131 135 137 134 133 124 124 125 125 125 134 151 147 152 151 148 147 149 154 154 152 153 156 152 152 150 141 140 143 152 147 145 134 136 130 133 131 130 131 140 140 143 144 150 156 155 158 157 159 161 159 161 151 155 153 148 140 127 114 103 82 36 20 11 
163 156 158 162 156 157 155 156 153 156 151 150 145 135 133 136 139 134 143 130 129 123 125 125 126 124 141 148 149 148 147 150 150 147 151 154 151 156 158 153 153 147 141 137 146 145 146 137 131 136 129 128 128 125 126 132 139 146 142 153 156 156 156 157 163 161 159 163 154 160 148 153 139 125 115 102 74 30 19 10 
162 159 159 158 155 157 153 155 157 157 154 155 149 140 134 141 131 136 139 137 136 127 125 122 127 128 141 149 149 149 150 148 150 151 154 157 151 150 154 158 152 151 141 138 146 144 144 139 130 127 121 117 120 117 126 132 132 140 140 153 154 155 156 158 162 160 161 158 156 156 153 149 144 124 115 99 75 33 25 13 
158 157 159 162 155 157 151 156 156 155 151 154 143 135 133 136 130 130 139 138 137 126 126 125 126 128 140 151 149 154 150 147 147 148 151 153 150 153 154 152 150 150 141 139 142 147 143 139 133 133 126 123 121 124 125 137 138 141 143 152 154 159 156 157 163 161 160 157 158 159 154 150 133 118 111 99 69 30 26 16 
160 159 160 159 155 159 154 151 159 154 150 157 142 138 134 136 133 130 141 139 139 125 128 125 123 126 135 151 149 150 149 147 149 149 153 155 148 153 156 154 147 149 141 136 142 148 144 139 131 128 129 128 129 123 127 139 140 140 142 147 156 153 159 157 161 160 159 157 157 157 156 150 132 114 104 96 64 33 28 19 
162 161 160 157 158 160 154 157 159 155 154 154 147 140 137 135 133 132 140 139 142 130 126 126 125 127 139 152 149 149 150 151 152 153 153 154 152 157 155 154 150 149 141 135 142 145 146 144 131 126 126 128 129 129 126 135 131 139 149 156 156 155 155 155 159 155 156 159 157 164 157 150 130 116 107 96 63 30 31 25 
164 159 161 158 158 160 154 155 159 154 152 153 143 139 135 137 133 133 136 129 133 129 125 120 120 123 135 147 151 152 151 153 151 149 153 152 149 153 157 150 151 148 138 134 141 142 145 135 117 119 108 116 117 120 115 116 122 136 142 150 155 150 151 154 154 160 159 160 152 154 151 143 128 110 103 88 55 22 30 29 
162 158 159 161 157 158 157 154 158 159 153 155 152 136 138 136 131 132 135 131 132 126 127 122 123 126 139 152 148 148 153 149 151 147 155 155 148 157 161 154 151 147 140 136 139 147 142 135 117 108 108 109 112 111 114 123 123 139 145 150 154 152 149 153 158 163 159 160 156 158 149 147 123 110 104 85 54 30 34 30 
164 159 163 158 158 158 158 155 161 153 155 159 149 139 139 135 131 134 138 132 138 127 122 124 122 124 139 152 148 148 152 150 151 148 155 156 152 156 160 157 153 148 137 134 139 146 142 137 125 110 112 115 113 113 117 127 130 138 140 149 151 151 150 157 155 154 160 158 160 155 157 146 123 105 104 85 55 29 39 36 
162 158 160 159 156 159 156 153 156 157 156 159 149 138 136 137 128 132 138 131 138 128 124 123 126 125 138 153 149 151 151 149 150 150 153 154 152 153 156 154 150 146 135 133 141 142 142 132 113 108 107 110 107 114 124 132 130 139 145 149 152 151 150 151 157 151 158 158 153 156 153 137 121 106 100 83 46 29 39 36 
160 157 160 158 155 156 154 156 156 155 149 153 146 140 132 135 129 134 137 133 135 129 124 121 124 129 144 151 151 150 153 147 153 152 152 153 149 155 157 156 152 144 136 131 137 142 137 131 115 106 107 109 108 115 120 120 127 138 142 149 150 148 144 151 156 156 158 158 150 153 151 135 110 104 99 83 47 32 39 40 
164 161 162 158 157 158 153 152 156 152 150 155 145 137 131 136 135 135 136 133 133 127 124 124 125 126 136 150 148 148 150 152 149 155 154 157 156 155 155 155 151 145 133 132 136 139 139 132 117 118 117 116 109 118 123 123 127 142 141 149 149 146 146 154 153 153 155 154 151 152 149 132 115 95 96 80 40 33 41 39 
158 164 167 158 157 159 156 154 155 154 151 154 146 142 133 136 132 136 139 133 134 127 123 123 121 125 139 148 149 149 150 150 149 151 153 157 150 156 160 153 152 143 132 132 138 140 138 132 114 105 98 104 110 121 127 136 135 143 142 146 150 151 150 153 152 152 151 155 148 152 142 130 108 96 96 79 39 35 35 39 
161 159 159 159 154 158 156 155 156 154 148 155 151 140 133 131 129 132 138 134 138 128 122 123 121 120 138 151 148 152 151 152 151 149 151 151 155 155 156 157 148 145 130 128 137 142 138 137 119 103 98 107 111 121 127 133 137 142 147 149 149 145 142 151 153 154 154 153 153 150 144 121 103 102 92 70 38 35 37 41 
158 158 158 159 156 153 151 155 153 156 151 156 149 139 134 139 132 134 138 134 138 132 125 124 125 123 133 148 147 150 148 150 151 153 152 154 152 154 156 149 148 142 129 131 137 141 138 132 111 115 113 115 112 118 128 138 136 144 146 149 148 150 145 150 153 158 153 151 150 149 142 121 104 101 94 67 37 33 41 41 
160 155 155 155 152 152 148 152 155 157 153 157 148 136 136 136 136 135 136 130 135 126 121 126 125 123 139 144 146 149 150 149 148 149 150 153 150 153 157 154 145 143 126 127 137 141 137 130 117 116 112 115 109 125 129 136 141 147 148 149 152 150 150 149 153 154 155 154 151 151 140 117 101 98 96 70 37 32 36 42 
164 158 156 154 152 150 150 151 154 150 149 154 148 141 138 134 129 132 134 133 133 131 127 126 122 127 137 145 147 153 152 150 151 149 153 154 150 152 156 154 149 140 120 127 135 145 134 131 111 110 107 114 121 128 129 130 137 146 149 149 146 150 149 146 153 153 152 153 151 151 141 115 104 98 93 65 37 27 38 46 
162 159 154 152 152 155 152 151 153 150 147 156 147 138 133 136 127 132 139 132 137 132 130 128 122 125 137 146 146 151 149 150 150 149 155 153 151 154 155 152 141 135 121 125 136 136 141 130 119 124 118 128 127 128 123 122 130 149 149 145 148 148 147 153 153 152 153 150 151 145 138 111 102 100 92 57 33 30 39 39 
160 157 157 153 150 149 152 154 155 151 146 154 146 136 135 139 130 133 138 134 131 131 131 127 125 123 128 145 148 151 149 148 149 148 149 150 150 154 153 152 145 136 120 125 133 138 131 126 122 122 121 126 123 124 103 97 108 143 147 149 147 147 148 151 152 150 152 152 150 143 131 109 103 98 90 55 30 25 37 37 
159 157 156 155 151 149 150 151 154 153 152 152 148 140 137 140 137 136 139 131 136 128 125 128 124 124 128 145 145 152 147 147 148 147 151 153 152 151 154 149 143 138 118 124 129 137 127 124 118 115 118 125 122 111 92 83 106 141 142 148 149 149 150 152 152 149 153 149 147 138 129 106 103 100 95 56 32 26 37 38 
159 160 159 155 153 157 152 149 151 150 151 149 148 145 139 139 134 135 133 134 131 132 128 122 123 124 132 142 148 150 148 145 149 147 150 153 149 151 151 150 147 135 115 126 134 134 130 122 109 100 99 106 96 87 75 80 109 136 139 145 149 148 148 145 149 147 148 149 146 142 127 104 99 90 87 47 34 28 39 41 
159 156 155 151 153 155 149 148 153 153 150 153 147 142 137 133 129 132 131 133 137 127 125 126 126 122 132 146 145 149 148 150 149 149 158 152 147 151 153 154 143 135 114 122 131 134 128 120 96 68 58 62 63 67 67 74 102 132 131 139 145 144 142 146 146 149 152 150 149 139 122 100 94 93 79 45 29 27 30 42 
158 153 157 154 154 155 150 151 155 156 151 153 146 138 131 131 131 130 132 136 135 131 126 126 125 123 126 142 147 148 148 149 151 148 152 153 150 152 155 151 143 132 107 123 129 133 128 115 91 55 53 56 54 64 67 68 76 96 98 106 119 131 134 144 147 146 145 140 143 129 113 101 92 90 76 34 19 18 30 46 
159 157 158 157 159 157 154 151 154 152 149 151 152 139 132 131 127 130 132 136 133 130 122 124 126 121 124 143 146 146 146 149 148 148 151 149 149 150 155 150 143 129 111 124 128 131 130 116 95 58 51 53 52 58 60 66 72 76 77 84 85 99 116 140 141 142 134 127 129 125 108 99 94 91 74 33 18 18 33 44 
156 153 153 155 153 154 153 149 152 155 153 149 149 136 133 132 128 130 131 136 132 133 125 123 119 117 129 144 149 147 148 146 147 150 148 152 146 149 150 153 143 128 111 124 123 129 125 122 92 58 51 49 53 57 58 65 65 76 72 76 78 81 105 126 135 135 107 96 100 102 103 95 92 84 63 23 13 13 33 42 
157 153 154 152 151 150 150 146 148 150 150 149 151 140 131 130 128 131 130 135 132 132 125 124 119 118 124 139 147 149 149 148 148 148 150 150 145 150 149 145 142 129 111 121 120 126 125 118 92 57 50 49 50 50 54 56 68 64 68 75 74 79 78 94 94 99 82 78 81 91 97 90 85 79 52 20 5 12 31 36 
157 154 148 154 149 150 148 150 154 153 150 154 158 138 130 130 129 133 132 135 135 132 129 127 123 119 128 141 143 147 148 148 150 147 151 152 149 149 153 150 143 127 109 116 126 127 126 120 96 57 42 46 43 47 51 53 58 63 65 73 68 72 74 75 75 77 70 74 80 89 90 87 85 77 44 16 4 9 21 32 
159 151 150 153 150 151 147 151 154 151 151 155 154 145 130 133 137 127 131 137 134 130 127 124 120 122 127 140 146 147 146 148 148 151 149 151 147 149 152 149 140 124 103 118 121 129 126 119 90 61 40 41 39 45 43 49 54 57 59 63 65 68 68 72 73 69 64 69 81 87 85 86 81 74 39 12 3 3 20 28 
159 152 148 149 151 150 149 149 155 151 154 150 153 139 130 128 126 130 133 134 136 133 130 125 119 117 131 144 149 146 147 148 149 146 149 153 149 151 153 149 140 122 102 117 124 132 123 117 95 59 38 33 36 38 41 47 49 52 49 61 59 60 68 61 68 65 63 68 73 82 84 80 78 64 24 7 4 4 19 23 
156 152 150 152 145 147 146 145 149 151 148 152 146 141 128 125 127 129 131 136 133 135 131 127 120 118 132 143 151 152 147 149 148 147 149 153 152 149 152 151 144 122 105 112 124 129 120 115 92 56 36 36 31 34 39 39 37 47 52 50 52 56 60 57 61 63 59 68 75 79 79 74 66 54 20 3 2 11 21 26 


