P2
80 60
35
19 24 21 17 21 21 21 22 27 25 22 21 23 21 25 16 18 19 23 20 19 20 20 20 20 21 20 19 20 24 24 22 19 20 26 20 23 25 21 22 22 22 26 28 25 23 24 26 24 21 19 20 24 19 24 21 23 21 28 20 15 18 18 16 14 11 12 13 10 10 12 11 11 8 15 12 9 11 11 15 
23 23 27 21 20 24 20 23 26 24 19 24 24 21 21 19 26 22 22 22 20 21 20 21 20 22 22 23 21 26 20 23 22 20 24 22 23 23 23 22 19 21 24 26 25 22 22 22 21 20 17 21 17 22 24 27 29 24 22 18 16 16 19 14 12 9 11 12 8 8 9 12 8 11 15 10 10 11 15 14 
24 23 24 24 21 19 23 22 28 21 24 22 21 20 23 22 22 24 23 18 23 23 22 19 21 22 24 21 24 25 24 24 21 25 24 25 25 26 22 22 19 24 22 23 24 20 23 24 23 22 21 18 22 21 23 21 22 23 21 20 21 19 16 11 15 7 11 10 11 10 13 15 17 11 11 13 8 9 12 16 
21 25 24 21 21 23 23 22 26 26 25 22 20 21 22 18 22 24 23 23 23 19 21 20 19 24 21 24 21 26 20 22 22 22 24 23 23 24 21 24 19 22 23 23 20 22 22 22 24 21 23 20 22 22 21 20 25 21 22 21 22 18 15 12 11 10 10 13 11 10 11 16 16 12 13 13 10 13 13 9 
24 24 23 21 24 27 22 22 25 20 24 21 22 19 18 22 22 21 23 22 23 22 22 22 24 21 26 23 20 23 20 21 22 20 22 22 20 28 25 22 19 22 22 25 24 20 23 23 22 21 19 21 22 18 21 20 19 20 22 18 17 19 16 22 15 11 12 17 14 12 13 14 12 11 16 12 12 9 14 12 
24 23 23 24 23 29 23 25 26 21 20 18 23 21 25 24 26 21 24 23 21 23 23 24 23 25 24 24 22 20 21 21 17 20 23 21 21 26 23 22 18 26 27 24 20 22 26 26 21 22 23 23 24 22 22 20 19 20 22 18 21 17 19 16 12 13 10 13 16 11 16 14 12 11 14 13 12 10 10 15 
23 30 25 25 24 24 24 23 22 23 21 23 24 23 20 25 28 25 23 23 21 21 26 20 22 21 23 25 22 23 23 24 21 22 25 22 20 23 23 22 23 21 24 20 24 23 26 24 25 22 21 25 24 22 21 21 19 27 27 20 23 18 17 15 17 10 12 15 12 10 8 14 12 12 8 13 15 12 10 12 
26 27 27 22 22 27 24 24 24 21 22 24 22 24 24 23 25 24 28 22 27 23 20 22 22 26 20 21 19 23 19 22 22 22 23 27 23 23 24 20 25 21 22 23 20 22 25 23 19 17 22 24 26 22 22 23 20 21 23 20 20 20 20 14 12 14 11 12 14 9 9 10 11 12 10 11 8 10 10 12 
27 26 27 26 23 26 25 25 23 26 20 20 23 21 24 25 25 22 22 29 22 21 23 24 22 22 22 24 21 22 21 22 20 21 24 21 23 22 24 21 21 20 20 23 21 20 23 24 22 20 22 21 22 20 21 20 23 23 23 25 20 17 18 15 15 14 15 14 10 12 10 14 9 12 10 10 9 10 10 14 
29 28 26 27 24 28 27 26 27 22 24 21 22 21 23 24 29 23 24 23 24 24 22 22 22 23 24 23 24 24 22 19 23 24 27 20 22 23 22 20 22 23 22 27 17 18 22 24 25 21 23 22 19 22 22 21 26 20 23 21 19 18 16 14 14 16 15 13 13 11 12 14 14 13 14 13 12 10 13 9 
29 27 28 26 25 28 28 26 29 27 22 22 24 21 24 22 24 24 22 22 21 22 22 22 21 23 21 20 22 21 21 21 22 22 21 22 21 22 25 22 17 19 21 22 19 20 23 23 21 21 21 20 22 18 24 23 18 17 19 18 18 19 17 15 18 12 11 16 13 11 11 11 16 16 11 13 12 11 11 3 
26 29 29 30 25 28 30 23 26 23 22 20 21 23 22 20 22 21 21 18 21 21 22 20 21 23 21 21 17 22 18 21 21 21 21 20 18 20 22 23 20 22 22 21 20 20 23 23 20 19 21 17 17 20 20 21 23 20 22 20 18 19 17 17 14 17 14 11 11 8 7 10 14 14 13 13 14 13 8 13 
31 25 23 28 25 27 26 23 23 23 19 21 23 20 21 20 22 21 19 19 22 23 17 19 20 23 23 22 20 26 23 22 24 23 19 21 22 24 28 23 21 22 22 18 21 21 23 22 19 18 21 19 21 19 21 22 22 20 23 19 20 20 21 18 15 15 13 12 12 14 1 14 12 11 11 11 14 17 7 13 
26 30 30 29 27 27 22 22 27 19 17 23 23 21 22 21 23 21 19 16 23 20 21 19 21 22 19 21 21 23 20 21 22 21 22 20 15 29 21 20 23 23 22 21 21 23 25 23 18 23 21 22 19 18 20 22 24 22 24 18 20 19 14 16 13 16 13 14 13 11 10 13 10 14 9 12 15 15 14 15 
26 35 30 27 21 29 20 25 26 21 18 18 23 21 17 18 18 21 22 17 19 22 22 20 22 20 20 22 19 21 20 23 22 24 19 17 23 25 22 20 19 22 23 19 20 19 20 21 23 23 20 19 20 22 20 22 27 32 27 19 16 16 18 15 12 12 12 16 11 12 11 12 10 11 11 12 11 15 12 14 
27 31 30 26 18 25 23 26 27 18 16 19 23 20 19 21 20 20 20 18 20 20 17 20 19 22 20 20 22 22 22 21 19 18 21 21 21 21 24 20 21 25 20 24 21 20 24 21 15 19 20 21 19 23 21 23 23 24 23 23 17 15 19 12 16 17 13 13 14 11 16 13 15 13 13 12 14 14 9 12 
29 30 30 29 25 26 24 21 25 18 18 22 24 19 22 24 22 20 19 18 21 20 19 18 20 20 23 21 21 22 21 23 21 23 21 20 19 21 22 21 22 21 19 19 19 21 23 21 19 18 16 20 19 19 23 25 21 24 23 19 19 17 18 16 16 13 12 15 14 12 15 16 16 15 10 12 12 10 8 9 
23 30 28 28 25 25 22 24 22 19 19 17 19 21 21 20 20 18 19 23 21 19 22 21 21 20 20 23 17 24 22 22 21 20 19 20 20 20 24 22 19 20 17 21 20 20 23 21 20 18 15 19 22 24 24 23 24 26 25 19 19 18 18 13 14 12 16 18 14 13 13 15 14 11 9 11 10 13 14 10 
24 28 28 28 25 27 24 20 23 22 21 20 22 20 22 21 21 24 19 22 19 22 23 22 23 20 20 20 21 23 19 23 21 20 24 20 20 23 20 21 22 22 21 21 21 19 24 23 21 17 18 20 26 23 20 22 21 27 23 19 19 19 16 17 14 15 15 15 16 12 10 11 14 11 10 12 9 13 8 12 
26 26 28 26 27 29 23 20 23 20 22 24 22 21 22 20 21 20 25 21 20 24 24 22 22 24 21 19 18 21 22 21 22 19 23 18 21 23 22 20 22 19 20 21 19 22 23 19 20 21 21 19 22 19 21 24 21 21 19 17 16 18 17 14 14 14 13 17 16 14 12 16 11 11 12 10 10 9 12 9 
26 26 27 23 24 25 23 19 22 18 22 24 22 21 20 15 23 20 21 20 21 18 20 21 23 25 19 19 22 23 29 23 21 21 21 18 21 21 21 21 23 23 21 21 19 19 19 17 16 18 19 18 23 16 22 20 20 23 17 16 18 16 19 15 14 14 13 18 13 14 13 15 10 13 10 12 7 13 8 11 
24 23 27 26 24 27 26 19 24 21 20 18 27 22 21 19 25 23 21 20 21 22 25 21 19 21 23 20 20 23 24 23 21 21 21 17 21 24 20 20 22 25 19 20 21 17 20 17 20 23 19 16 20 24 21 19 21 21 23 19 17 19 20 17 16 19 17 16 16 20 13 14 15 15 11 10 9 14 16 14 
26 26 28 27 28 28 26 22 26 23 19 24 19 23 22 20 22 19 23 21 19 19 20 20 22 20 21 21 18 20 20 21 22 16 19 16 19 20 21 23 18 20 17 18 17 16 18 19 16 21 18 17 18 22 19 17 19 19 21 20 19 17 16 16 19 16 12 15 14 16 14 16 19 16 11 14 8 10 17 17 
27 30 28 32 25 25 26 27 25 22 22 24 25 21 19 20 22 19 22 20 21 22 20 20 21 24 20 22 17 19 18 21 21 19 18 17 15 19 21 22 21 21 16 20 15 18 23 17 17 22 23 18 20 17 20 18 18 18 17 20 18 17 18 19 17 14 19 18 16 15 15 18 17 11 14 10 10 17 13 15 
23 25 31 24 26 26 25 20 29 23 23 24 24 21 22 19 21 22 22 19 23 22 20 17 19 22 20 20 18 20 20 19 18 15 21 19 18 17 15 17 18 17 20 19 22 19 19 21 20 19 17 17 17 17 19 18 18 19 20 17 18 19 17 19 17 22 17 17 14 15 11 14 11 14 10 12 14 8 9 12 
22 27 29 23 24 26 26 24 25 24 24 23 23 22 23 20 20 21 16 18 19 23 19 21 22 21 20 20 18 17 18 17 18 17 17 18 19 20 18 21 18 17 17 22 20 20 20 20 19 16 18 18 18 19 17 18 20 19 20 17 16 18 18 16 21 17 16 17 14 15 13 18 15 10 9 13 13 15 11 13 
21 27 28 25 24 25 29 23 23 22 18 20 21 18 24 19 20 21 20 19 22 20 24 19 23 22 22 17 21 19 19 16 18 16 19 18 19 18 21 18 19 20 17 18 19 18 19 18 15 19 19 22 16 15 16 16 18 17 21 18 18 19 16 19 15 15 14 13 14 13 16 16 12 13 11 11 12 12 12 12 
25 25 25 28 23 23 22 22 27 23 20 19 21 21 21 15 22 20 19 21 20 21 23 20 19 22 20 23 20 22 18 20 17 16 15 16 18 18 18 18 20 19 20 23 21 18 19 16 18 16 18 19 19 17 16 15 20 20 14 15 18 16 17 15 15 14 10 13 11 18 14 18 11 14 9 13 12 10 11 13 
20 25 24 24 23 22 21 26 27 23 19 22 22 24 18 17 19 19 18 22 19 21 20 19 19 21 21 21 21 19 19 17 18 15 16 14 18 19 18 19 18 18 21 21 19 20 21 19 18 16 18 23 17 17 17 16 19 16 17 15 17 16 15 15 16 14 11 11 12 12 13 15 12 13 13 9 8 12 12 15 
27 23 26 23 19 23 24 22 27 23 19 23 22 23 19 19 19 17 18 20 20 20 23 20 19 21 20 20 18 21 16 21 18 18 17 18 21 23 19 17 19 18 21 23 20 18 20 18 19 18 16 17 18 17 20 17 19 19 16 16 19 18 17 16 19 13 18 18 9 10 14 13 12 11 8 12 9 12 10 8 
26 23 24 23 20 22 23 20 21 20 18 22 22 22 21 17 21 18 17 20 21 18 25 21 20 25 23 19 18 18 19 19 17 17 23 18 21 18 21 20 21 20 25 23 18 16 16 22 21 17 20 20 16 18 20 18 17 17 19 17 18 17 18 20 18 15 13 15 17 12 12 15 12 13 12 11 9 9 12 9 
22 22 23 26 24 22 24 20 20 20 23 22 20 22 22 23 20 20 19 23 19 20 21 20 21 23 24 18 19 20 16 19 18 17 17 18 21 17 18 18 24 22 21 22 22 17 22 20 17 24 16 17 18 20 19 15 18 18 18 16 15 17 18 17 17 16 12 12 16 12 11 13 14 11 9 10 8 10 12 12 
23 25 23 30 24 24 20 22 25 21 21 21 22 19 19 21 21 19 19 19 19 18 16 20 21 20 20 19 19 19 18 18 17 15 16 20 19 17 17 17 17 21 20 18 21 17 20 20 16 21 20 19 21 18 17 18 20 19 18 16 14 19 18 15 15 13 17 13 14 12 11 14 14 13 11 13 12 10 8 9 
24 22 26 26 24 23 21 19 23 20 21 21 22 19 20 21 23 21 20 18 21 20 18 21 20 21 21 19 20 21 20 19 18 18 19 17 19 18 18 18 18 22 24 19 19 20 20 19 18 18 18 17 15 19 18 18 22 21 19 18 17 20 14 17 16 16 15 13 11 10 11 12 12 14 14 11 13 13 10 11 
23 24 22 25 21 22 23 20 21 21 21 21 22 21 20 21 24 21 20 21 21 17 18 18 24 22 20 21 20 23 19 18 19 18 20 17 19 19 19 19 16 21 23 23 19 24 22 21 14 16 18 19 17 17 19 17 25 23 23 13 16 18 16 14 15 14 15 11 13 11 14 13 13 11 10 12 12 10 11 12 
22 22 26 24 24 21 24 19 22 18 23 22 22 21 19 21 19 20 21 17 21 19 21 21 21 22 21 17 22 20 19 19 18 18 18 16 19 18 20 20 17 23 19 20 18 17 24 22 17 16 19 18 19 18 19 19 23 25 23 19 14 16 16 15 13 14 11 14 12 13 12 13 10 9 11 17 12 12 9 11 
23 27 29 29 23 26 22 20 21 18 19 21 23 19 21 18 20 22 22 24 20 19 23 19 20 20 20 20 20 21 20 21 21 18 18 18 20 20 19 19 19 18 19 21 18 21 19 21 17 19 16 18 21 19 20 17 24 25 21 20 17 16 16 14 17 14 15 10 14 10 12 12 11 13 10 10 10 13 15 13 
23 29 29 25 22 29 23 21 23 22 20 19 22 20 20 15 23 25 21 21 21 19 21 22 22 22 16 18 20 19 21 19 18 18 19 20 17 21 20 19 16 21 20 24 20 23 22 20 19 18 20 17 19 21 23 19 28 23 18 20 19 20 16 13 16 15 12 15 14 10 11 15 10 11 10 8 10 11 14 13 
23 27 31 24 25 25 23 24 24 22 20 19 20 19 22 19 21 25 22 22 25 20 22 20 20 19 16 17 18 20 20 17 17 18 18 16 18 19 25 19 18 21 19 20 19 21 22 21 17 18 21 20 22 20 21 19 25 21 16 18 16 14 17 13 15 15 14 11 12 12 10 13 6 9 10 8 13 10 13 15 
23 26 25 27 25 22 22 24 25 18 23 22 23 17 19 19 19 18 18 20 22 22 18 23 21 20 20 18 18 21 19 21 20 18 17 20 18 18 21 20 18 21 22 22 19 20 23 21 20 21 20 22 21 19 18 20 20 16 19 17 17 13 16 15 13 12 12 10 11 8 7 11 12 11 11 10 13 12 14 20 
24 24 23 25 22 24 19 22 23 22 21 22 20 24 21 20 21 18 17 20 20 19 20 20 20 23 24 20 17 20 20 17 20 21 20 18 17 18 20 17 17 16 22 20 19 21 24 20 22 19 22 26 21 23 19 19 21 17 20 17 16 17 16 8 9 8 8 10 9 7 8 14 9 13 10 11 14 14 24 11 
24 23 23 23 20 22 23 23 20 22 19 20 24 23 21 19 20 20 16 20 19 19 19 22 22 23 21 19 18 21 20 17 15 21 22 16 18 21 17 18 18 16 17 18 18 19 23 22 21 22 21 24 22 21 19 21 20 17 22 15 13 16 16 13 12 10 10 6 8 8 8 13 12 12 10 12 11 12 13 17 
26 26 28 22 20 22 21 18 22 18 19 21 20 21 21 19 21 18 20 21 18 19 17 20 20 23 19 18 20 19 19 17 18 20 18 18 18 19 20 19 20 19 17 22 21 21 25 19 20 20 21 19 22 21 21 19 23 20 20 15 14 16 17 14 13 12 10 8 7 10 8 11 10 11 8 7 11 11 9 13 
26 23 25 22 19 22 23 22 23 17 20 24 21 22 19 18 21 22 21 21 20 21 20 17 21 23 19 19 19 20 21 18 19 18 19 15 22 18 17 19 17 21 19 21 18 23 23 27 23 20 18 18 21 19 21 19 24 17 17 17 16 17 16 11 9 11 11 10 11 9 10 11 9 9 9 10 9 13 8 14 
22 23 22 26 19 21 23 20 22 18 16 18 22 21 20 21 22 19 19 21 23 23 22 22 18 20 21 17 17 19 20 18 19 20 18 19 18 20 18 16 20 19 19 18 18 18 29 26 25 17 19 18 20 20 16 17 20 17 15 14 17 16 14 11 9 13 12 11 10 11 9 16 9 10 9 9 12 10 13 16 
26 23 25 23 25 21 20 17 21 18 19 20 23 22 22 19 24 21 20 21 22 20 21 19 20 20 16 16 17 19 20 20 16 18 17 21 21 19 17 19 18 21 19 19 20 20 26 22 16 21 19 21 19 17 19 16 18 16 18 16 14 16 15 12 11 14 9 8 11 7 8 11 9 10 11 13 12 8 12 10 
24 24 24 21 20 22 15 16 24 15 17 21 21 18 21 18 21 21 20 17 20 19 19 18 20 21 19 16 18 20 22 16 18 17 17 20 16 20 16 19 16 17 20 19 23 26 25 25 15 17 18 20 18 18 19 16 16 18 14 15 14 13 16 13 8 9 9 17 16 12 6 12 11 9 10 7 7 8 10 8 
22 23 22 21 20 20 15 19 21 18 18 19 21 21 17 20 21 18 21 19 22 20 22 19 18 19 14 17 20 19 17 19 20 18 18 19 19 21 20 19 19 20 19 19 19 19 24 17 18 19 17 18 17 18 17 15 18 17 13 15 16 16 13 11 9 10 12 13 11 8 13 13 11 10 8 4 8 7 6 14 
21 23 19 18 21 19 19 20 18 17 15 17 19 19 20 22 22 21 20 18 19 21 23 23 20 17 18 17 17 18 17 15 17 19 16 18 19 22 17 20 15 19 18 17 20 15 20 20 18 17 18 18 16 16 16 18 17 18 16 16 13 17 14 13 11 9 10 13 9 11 6 13 9 7 5 8 6 10 10 7 
22 23 23 19 17 17 17 16 22 21 17 16 21 18 21 22 21 21 25 20 20 23 20 20 20 19 17 18 15 18 15 17 16 17 18 16 18 16 19 17 17 17 17 17 18 20 16 16 15 13 16 18 19 20 19 17 18 17 17 12 16 16 14 12 12 9 9 9 11 8 8 10 6 9 7 7 5 9 4 8 
19 22 20 21 20 19 16 18 20 17 16 19 21 20 21 23 21 19 19 18 15 20 17 19 18 20 15 16 15 17 18 17 15 17 17 17 18 16 20 17 14 18 19 16 18 18 20 18 15 14 17 16 18 15 18 17 17 14 15 16 16 15 14 13 9 10 12 9 10 9 8 13 7 6 9 9 5 7 9 2 
24 26 21 17 22 18 20 16 22 18 18 18 18 18 20 19 23 17 22 22 20 17 18 18 21 19 17 13 17 18 14 16 16 16 22 18 14 16 17 14 16 15 15 18 19 18 18 17 16 14 17 17 18 21 15 18 17 19 16 16 16 16 15 16 11 12 12 14 8 8 13 12 10 8 8 10 6 10 8 10 
22 21 20 25 16 18 20 17 23 18 17 18 17 18 16 14 19 18 19 18 14 17 16 16 16 19 18 15 16 18 16 16 14 16 17 16 17 15 19 14 18 17 14 16 20 17 19 19 17 14 16 15 14 16 20 16 19 17 20 13 13 13 13 15 12 12 10 13 10 9 8 9 5 5 10 7 7 4 1 6 
22 20 17 24 23 22 19 17 23 20 20 18 20 18 18 18 19 17 18 18 17 18 15 16 20 18 18 18 19 16 17 16 15 14 17 16 14 16 16 15 19 17 14 18 16 15 19 16 14 16 15 17 18 17 18 20 19 17 19 17 14 15 13 11 13 10 7 10 6 9 9 13 8 8 6 6 6 9 7 5 
19 23 18 16 19 19 16 20 20 16 19 16 17 17 16 14 18 15 16 16 18 16 14 16 21 19 20 20 17 13 15 15 13 14 13 12 16 15 15 14 13 17 18 15 16 14 16 17 14 16 16 16 17 16 20 19 20 17 16 15 14 14 13 14 9 11 7 7 9 9 11 15 7 6 9 9 4 3 6 8 
19 17 16 18 15 19 16 18 18 17 20 18 20 19 18 14 15 19 21 17 18 18 14 16 18 16 16 19 14 16 14 16 15 15 18 13 13 16 14 13 16 16 14 17 16 13 15 15 15 16 16 20 17 16 15 17 15 18 15 16 16 15 12 16 8 11 9 6 8 9 12 11 8 11 3 3 3 4 8 8 
17 17 17 14 13 17 16 19 17 20 16 19 27 19 19 15 19 18 17 23 22 16 15 15 16 19 17 16 12 15 15 17 14 13 13 14 13 15 16 13 15 16 14 16 18 15 17 13 15 15 16 16 14 15 16 14 17 14 15 13 15 12 10 14 11 7 6 7 5 9 8 9 7 9 11 10 4 4 10 10 
13 17 16 15 14 18 18 18 20 19 17 20 20 18 19 14 19 18 18 19 20 18 21 15 13 17 15 16 15 14 14 13 14 13 14 13 15 17 16 14 15 17 17 18 16 15 18 20 16 18 18 15 16 14 19 14 16 14 18 15 15 14 13 10 10 11 7 7 8 9 5 9 9 5 5 5 4 6 9 7 
18 13 16 15 16 14 15 19 22 18 14 17 19 18 19 11 17 18 15 16 16 18 19 18 15 15 14 12 15 18 11 14 16 15 14 14 15 15 17 10 13 17 24 17 18 13 19 15 17 18 17 15 14 15 20 12 16 16 18 13 12 12 13 10 13 7 8 11 8 4 5 9 8 7 7 7 5 6 5 7 
20 21 14 16 14 17 12 13 20 16 14 14 17 15 17 10 17 14 14 18 20 18 17 16 15 14 14 14 17 18 17 14 15 12 15 16 21 17 14 14 15 20 17 19 18 16 19 19 14 18 16 14 15 17 11 16 19 18 16 15 11 16 9 14 8 8 7 9 10 3 7 8 4 9 6 0 6 6 6 3 


