P2
80 60
46
28 34 33 30 31 33 32 35 39 35 37 33 36 36 34 35 33 34 34 32 28 30 30 28 29 28 25 27 26 26 26 26 25 25 24 27 28 25 24 21 22 24 26 25 22 25 23 24 27 24 29 27 29 27 25 25 30 28 30 19 19 22 23 21 18 22 17 14 22 18 15 20 20 20 24 19 19 16 22 17 
30 39 37 31 34 31 32 34 34 36 35 33 33 36 35 35 37 35 32 33 29 28 30 27 27 25 33 25 24 26 26 26 28 26 24 24 26 26 22 22 21 24 25 24 22 24 21 25 25 21 28 28 27 28 26 27 29 24 29 24 23 21 20 17 18 19 15 17 21 19 14 17 19 20 23 19 15 19 22 16 
31 38 35 33 35 31 37 34 40 34 40 37 32 31 36 36 33 36 28 31 32 30 28 24 27 29 29 25 26 25 28 28 27 27 25 25 28 27 24 22 20 25 21 22 23 24 23 21 24 27 27 30 25 29 26 26 24 24 24 22 25 20 22 18 17 17 17 21 18 20 18 20 23 18 20 19 33 18 21 11 
32 36 34 31 36 36 35 35 37 38 41 35 34 36 34 34 30 38 34 34 32 28 28 27 29 27 30 26 26 28 27 28 29 26 23 24 28 29 21 22 25 21 26 23 22 24 24 23 28 29 28 26 27 28 23 24 23 23 23 23 21 24 25 19 18 19 15 18 21 17 19 23 22 19 19 21 23 15 24 14 
33 40 34 36 36 36 39 34 42 37 41 36 34 37 32 39 35 37 34 32 33 28 32 27 30 30 34 26 28 28 24 25 25 25 24 26 26 29 27 24 23 24 26 23 23 25 25 27 26 31 29 28 27 25 26 27 24 23 23 20 24 25 25 23 20 21 17 20 19 18 18 19 18 20 26 21 20 20 22 12 
36 36 35 34 36 37 36 38 40 35 34 36 34 36 34 35 35 36 32 33 28 30 31 31 32 31 29 26 28 24 23 23 26 25 22 26 24 26 27 23 22 25 27 24 21 27 26 20 25 25 27 25 25 24 25 25 25 24 23 24 22 24 25 19 22 19 21 22 27 22 22 17 17 19 21 20 21 21 22 15 
33 39 32 33 37 32 35 36 39 36 35 37 33 36 37 36 38 37 34 32 29 33 31 28 28 27 28 27 28 23 23 25 23 24 23 27 24 25 24 22 25 22 22 20 26 24 21 22 26 22 25 29 25 24 26 24 29 28 30 25 23 21 23 19 20 17 22 23 20 18 17 19 17 19 22 20 20 20 20 12 
35 39 38 33 37 37 36 38 38 34 39 34 35 36 40 38 39 38 37 36 36 33 27 25 30 30 27 27 24 26 25 22 23 22 24 28 26 23 23 21 26 22 20 26 21 21 24 24 24 24 26 28 28 27 26 27 22 24 24 26 25 23 25 19 17 21 20 17 22 15 16 19 18 18 23 21 22 17 18 11 
36 42 40 35 38 36 38 38 37 38 35 33 40 38 36 35 35 38 34 39 32 32 30 28 28 25 29 28 28 28 23 23 26 24 26 27 26 25 24 23 24 20 20 24 21 22 22 20 22 23 27 25 24 27 24 29 27 23 21 24 25 24 23 17 20 19 21 23 21 14 15 17 14 15 20 24 17 17 21 11 
38 44 44 37 39 40 41 41 38 35 40 37 34 43 33 36 40 37 35 34 32 35 28 30 29 27 26 26 24 27 24 25 26 22 26 22 25 25 24 22 21 22 22 22 19 22 21 20 22 23 26 23 23 24 24 24 25 22 27 23 23 19 19 18 19 25 19 19 23 19 16 21 20 18 22 22 22 19 20 14 
40 44 40 37 36 40 44 39 41 36 39 32 36 39 34 40 38 38 35 32 30 31 31 26 25 23 27 25 25 24 25 26 27 25 23 23 24 22 21 21 24 23 23 21 21 20 21 19 21 24 26 26 23 24 25 24 25 23 21 19 23 24 22 20 21 21 22 17 20 19 17 16 19 20 22 19 20 18 19 14 
40 46 40 35 39 40 41 39 37 35 39 30 34 39 34 36 37 37 33 30 28 32 25 27 26 25 25 25 25 25 23 24 25 28 19 21 24 25 24 23 25 20 22 20 20 20 20 17 22 21 23 23 24 25 23 24 25 23 21 20 20 25 23 19 24 22 15 18 21 18 15 16 17 20 20 21 19 13 25 16 
43 45 44 35 39 38 35 38 34 34 36 37 33 36 33 38 37 33 26 29 29 31 23 27 26 23 25 23 25 23 23 22 25 23 23 23 22 25 28 20 23 20 22 22 21 23 24 22 22 25 25 22 24 23 24 24 25 24 22 21 23 23 25 20 19 21 20 16 19 18 6 18 15 15 20 20 15 18 22 17 
38 44 44 38 36 36 39 36 36 32 37 36 34 38 35 38 32 33 28 27 28 27 22 27 23 26 24 22 24 24 24 23 26 25 22 23 25 24 20 20 20 20 22 21 19 25 24 25 22 27 26 26 20 25 25 22 27 29 23 25 22 23 20 17 21 19 20 20 18 18 26 18 20 18 21 21 23 18 21 14 
37 41 42 35 37 37 34 38 35 33 31 36 34 37 33 35 32 36 33 29 25 28 24 29 26 23 23 26 24 21 23 21 24 25 21 22 24 24 21 21 23 20 19 18 20 21 22 23 24 26 27 26 24 28 24 24 32 43 28 24 22 24 23 15 18 20 19 23 21 21 24 23 19 14 19 18 23 20 21 14 
37 41 41 34 35 36 36 37 36 31 33 33 33 36 31 36 32 33 31 24 23 27 23 24 29 24 25 21 23 24 20 21 21 20 19 22 20 21 21 21 21 20 21 22 22 22 23 21 23 25 25 22 22 26 27 24 28 28 23 23 22 23 23 16 17 21 21 25 26 21 22 22 20 19 20 17 22 17 20 12 
38 43 40 38 34 34 36 34 33 31 36 32 33 36 35 33 33 32 26 25 22 23 23 24 26 22 24 22 22 23 24 22 23 22 20 22 19 24 21 18 22 20 17 20 18 20 24 20 21 21 23 21 24 25 26 24 30 26 25 22 20 23 21 18 18 19 19 21 21 20 22 23 22 22 19 16 15 17 24 16 
35 39 38 36 36 35 36 34 35 31 34 31 33 36 35 36 35 32 27 26 23 27 24 25 22 21 23 22 21 24 21 22 21 21 18 22 26 23 21 25 22 19 22 18 17 22 20 20 24 21 21 21 23 24 26 24 25 32 24 24 23 21 20 18 19 21 18 21 22 21 19 20 20 19 17 20 18 17 22 15 
38 41 39 33 38 38 33 33 37 30 35 32 31 35 34 36 36 34 33 28 27 26 23 27 26 22 27 22 24 23 23 20 24 24 24 24 24 26 21 22 23 23 20 24 20 21 22 21 23 22 22 23 27 26 25 23 23 27 22 21 22 21 21 17 19 22 20 20 24 21 19 23 20 18 19 19 17 15 23 19 
37 40 35 37 36 39 36 32 36 30 39 32 31 36 35 34 35 32 31 26 28 32 30 26 27 28 28 23 23 25 26 23 25 20 24 20 25 24 23 21 24 21 19 22 18 20 21 22 23 22 23 25 25 27 25 24 26 24 20 21 21 24 24 20 22 22 21 26 24 22 19 22 22 19 20 17 16 18 21 15 
34 39 35 37 37 32 35 34 32 30 37 34 31 36 33 29 32 33 26 25 26 24 23 25 27 25 27 24 23 24 32 24 23 21 24 20 22 22 20 23 23 26 24 21 19 20 17 20 21 20 20 24 22 24 28 20 23 22 22 20 20 20 24 19 19 18 19 19 20 19 18 27 22 20 18 18 17 21 23 20 
35 37 34 35 33 33 35 33 32 32 35 36 35 36 33 32 30 33 25 24 25 22 26 26 24 23 29 23 23 24 25 25 23 24 18 23 22 23 24 21 22 23 19 19 19 18 19 17 18 25 23 21 19 22 23 23 23 23 25 21 20 22 22 20 22 23 24 19 18 24 20 23 20 20 19 18 19 18 25 17 
32 36 37 33 35 33 33 35 37 31 35 32 32 32 37 35 33 34 29 28 25 23 23 24 23 23 22 24 21 23 24 24 25 20 20 17 21 20 22 21 19 20 16 15 17 14 18 19 22 22 21 21 20 20 25 24 19 22 22 18 23 21 23 19 22 22 22 25 24 19 21 23 22 19 21 16 14 16 20 16 
32 36 35 31 35 33 38 45 35 31 34 35 32 36 32 33 31 31 29 28 25 26 20 28 24 24 25 22 22 19 26 23 24 21 16 17 21 21 21 24 21 19 19 20 16 17 19 16 18 25 30 24 22 25 21 22 24 18 21 22 23 21 24 22 20 22 26 24 23 22 22 21 22 25 21 17 17 19 24 19 
31 38 38 30 32 36 35 34 37 33 36 34 34 36 30 30 33 29 27 25 25 26 24 25 25 22 22 22 24 22 27 20 22 19 20 20 22 20 20 18 18 19 18 18 23 20 20 20 20 19 23 25 22 26 21 22 23 18 22 22 23 18 22 16 18 21 24 23 24 20 20 21 22 20 20 18 19 19 27 20 
32 35 38 30 31 32 35 33 35 32 36 31 30 35 37 36 29 31 27 26 25 23 26 23 21 22 27 22 25 23 23 21 18 19 18 22 21 21 21 19 18 16 19 18 18 20 18 18 21 18 22 20 22 21 22 26 21 22 19 20 19 22 24 21 18 19 21 24 23 17 24 21 24 22 23 23 20 20 24 16 
29 35 34 33 35 35 35 31 33 30 33 29 30 34 36 33 32 32 27 23 22 28 29 30 26 22 27 24 22 22 24 20 20 18 21 21 21 22 18 17 17 17 18 19 17 19 17 15 19 21 21 22 19 23 21 23 19 19 18 20 23 21 21 18 19 16 22 20 22 17 24 21 20 20 23 19 19 20 22 18 
32 35 36 33 38 34 31 36 33 34 32 31 30 33 30 30 30 31 26 25 21 26 28 25 26 25 25 22 22 22 20 21 17 19 19 21 21 22 19 18 18 19 18 21 19 17 17 19 21 19 21 23 22 21 21 21 19 17 17 18 22 17 22 19 17 19 26 21 21 21 21 25 21 22 21 18 21 20 28 12 
30 31 34 33 32 35 29 38 35 30 29 29 27 34 35 30 30 30 26 26 24 25 21 23 25 23 25 21 23 21 21 21 18 19 16 17 20 21 19 19 19 16 19 16 19 20 19 19 20 23 21 24 21 19 21 19 22 19 20 18 22 20 17 18 20 18 20 19 21 20 18 24 20 18 18 20 20 20 20 15 
33 37 39 31 35 29 29 32 35 28 30 27 27 30 32 33 27 28 25 25 23 23 23 25 24 22 26 21 22 20 18 21 20 22 16 20 18 25 18 18 18 17 19 19 17 19 19 18 19 19 22 24 20 20 21 26 20 18 16 18 22 19 22 19 22 21 32 24 24 22 22 22 18 17 20 21 22 17 23 12 
31 38 36 30 35 31 29 32 32 28 30 30 28 34 30 33 30 25 25 25 19 24 22 26 24 24 24 22 21 18 21 20 20 23 22 19 20 17 19 18 18 18 24 25 17 18 17 18 18 18 23 21 18 21 21 19 20 18 18 18 22 18 22 19 20 22 24 20 24 20 21 23 20 18 21 22 18 16 17 17 
30 34 34 29 33 30 30 31 31 29 34 29 29 31 32 32 31 28 24 21 19 21 22 24 23 23 29 22 21 19 21 20 18 19 18 16 19 16 17 21 22 19 19 22 19 16 18 19 18 23 21 20 17 22 24 19 20 20 17 18 19 19 20 22 21 20 18 20 22 19 17 19 18 16 19 17 16 17 19 15 
32 36 36 32 31 36 27 32 28 27 34 29 28 33 30 31 28 26 24 20 22 20 22 24 25 23 25 26 21 21 22 20 22 17 17 19 20 20 17 20 19 23 20 18 18 16 15 20 18 22 25 18 21 24 21 24 18 20 19 17 18 18 21 19 19 19 18 25 26 20 18 21 20 19 20 17 20 18 21 15 
25 33 35 31 31 31 30 29 30 28 31 28 29 33 31 30 29 22 25 19 20 19 22 25 23 22 21 20 21 25 21 21 20 17 16 16 17 20 17 17 20 20 21 20 20 18 19 18 21 21 23 24 19 22 22 22 17 20 17 16 19 23 20 19 22 23 22 24 22 19 18 19 18 19 26 23 21 20 23 12 
32 32 33 29 30 27 28 29 29 27 30 29 30 34 26 29 29 25 19 23 23 19 22 22 23 25 23 21 21 22 20 25 20 20 21 17 17 20 20 20 19 19 21 19 17 21 20 19 17 24 20 23 23 24 24 22 21 22 23 17 19 20 19 20 23 23 21 20 21 20 19 19 22 20 20 22 21 18 22 15 
34 29 30 32 34 27 28 27 31 28 29 26 30 35 31 28 27 29 20 23 22 19 22 22 24 21 24 20 23 19 21 19 20 19 19 18 19 19 18 21 19 21 16 17 20 16 20 17 18 20 24 24 20 24 23 22 22 22 19 24 18 19 21 21 21 21 18 21 20 20 19 21 20 21 24 15 20 20 24 20 
27 34 30 30 32 27 25 29 29 29 30 29 30 31 31 28 27 25 25 19 21 21 20 24 22 23 19 21 25 21 21 21 20 20 17 19 20 21 18 18 17 17 22 20 17 18 18 16 16 20 20 23 21 21 24 21 25 21 17 18 19 17 23 18 21 22 25 18 21 22 19 20 20 21 20 20 19 19 23 16 
26 34 34 28 31 27 25 28 31 25 26 25 27 31 27 29 26 33 23 21 19 20 22 20 21 23 18 16 26 18 22 18 19 19 17 20 21 19 17 18 19 19 19 18 19 18 18 15 17 19 22 18 18 21 23 22 21 17 18 18 20 19 20 18 18 21 19 18 23 21 17 20 17 19 19 18 20 20 23 17 
30 35 36 26 29 28 26 32 32 27 33 28 29 30 30 25 27 27 21 21 17 19 21 24 20 20 18 18 23 17 18 18 18 18 19 19 19 18 19 21 19 19 21 18 19 19 18 19 21 20 20 20 21 24 24 24 22 16 19 18 18 19 20 15 17 23 23 22 26 19 17 17 17 18 20 17 21 21 26 20 
25 31 29 27 27 28 29 28 28 27 29 28 25 30 27 27 26 21 17 18 22 21 19 24 22 23 21 22 24 22 19 20 18 18 18 18 19 19 19 20 19 19 21 19 18 19 19 19 22 23 26 23 24 25 26 20 22 18 17 17 16 14 17 18 17 20 19 17 24 18 19 20 19 19 19 22 21 22 31 23 
25 34 31 22 26 26 29 28 28 25 28 23 21 32 27 24 21 24 17 17 19 18 24 25 21 20 26 22 22 18 18 20 22 19 18 18 21 19 20 17 18 13 14 18 15 15 18 19 21 23 23 26 24 23 24 23 21 18 18 18 17 23 16 14 19 18 16 17 17 17 18 21 18 23 20 20 26 23 34 28 
22 28 29 24 25 26 28 27 28 25 27 23 25 29 25 23 21 22 15 19 22 18 24 22 22 20 24 20 21 19 18 19 19 19 17 19 20 18 17 17 15 14 14 15 16 18 19 19 22 19 22 24 21 25 24 22 18 20 20 19 16 21 18 19 19 18 18 17 24 16 18 20 22 20 21 24 22 24 23 20 
32 31 31 26 22 26 28 25 26 24 27 26 25 33 30 27 24 21 19 19 19 18 20 23 20 20 20 19 20 18 17 17 18 17 16 20 19 19 20 19 19 16 16 19 20 19 20 19 21 21 26 21 21 24 23 21 23 18 21 19 18 23 20 20 20 21 23 22 20 18 17 23 21 19 20 19 21 20 21 22 
27 29 27 25 25 22 24 27 27 25 26 27 27 30 30 24 22 24 21 21 17 17 19 22 20 19 20 18 20 18 18 21 14 18 15 16 19 18 16 16 15 18 16 18 16 19 17 23 21 22 22 19 19 24 22 22 19 21 18 16 18 21 19 16 17 18 19 21 22 16 20 25 21 18 21 18 19 16 24 18 
22 29 25 24 23 23 21 26 24 23 27 28 25 30 24 24 24 21 23 20 18 19 20 22 19 19 18 14 20 16 17 16 17 15 15 17 16 21 21 17 19 15 16 15 18 21 20 19 20 21 20 18 21 20 22 21 18 17 16 17 17 18 18 16 14 20 20 21 25 19 20 21 19 21 20 18 19 17 21 20 
23 26 24 21 19 16 22 23 24 18 27 23 24 28 29 28 25 23 19 20 20 18 21 20 20 17 17 15 19 18 21 16 15 18 15 20 18 19 17 15 17 15 13 16 20 20 19 20 19 19 18 19 20 21 21 22 20 19 18 15 19 18 18 19 18 19 23 22 24 16 20 18 17 16 21 20 20 16 24 12 
23 26 24 14 16 18 22 24 26 21 25 23 23 26 25 24 25 23 19 17 19 14 21 22 23 18 19 16 18 17 14 15 18 17 18 17 22 19 17 16 17 18 14 16 19 23 15 16 18 18 18 21 22 23 22 19 18 18 18 15 20 20 20 17 13 20 21 25 17 22 21 19 20 17 22 16 22 16 19 9 
22 26 22 21 22 23 21 23 23 21 27 24 28 28 27 23 26 21 18 19 16 17 21 19 18 17 19 15 21 19 18 14 18 17 20 17 17 20 17 17 18 19 15 15 14 16 20 18 19 19 20 19 19 20 18 20 21 17 18 17 21 19 21 19 17 17 18 21 20 20 18 22 21 20 17 16 17 16 17 16 
26 27 22 16 25 21 21 24 24 25 24 22 23 29 26 23 26 20 18 16 14 18 24 19 19 14 19 14 21 16 16 14 16 17 15 16 16 19 16 20 17 14 12 16 15 16 15 15 17 17 20 19 18 23 21 21 21 25 16 20 19 17 20 19 17 21 20 21 22 19 16 22 19 18 19 18 19 14 21 16 
21 27 22 16 25 18 18 23 26 21 22 23 23 25 25 25 22 21 16 18 14 18 24 25 20 18 20 16 19 14 16 13 20 18 17 16 18 18 17 16 19 15 15 15 16 17 15 13 14 20 19 19 19 23 23 21 22 17 23 16 19 20 19 19 13 19 20 23 21 17 20 20 19 22 15 16 19 16 21 16 
20 26 22 16 20 20 23 21 24 20 26 22 25 27 27 26 23 18 16 14 15 13 18 18 16 19 17 16 21 16 13 13 15 19 17 15 16 18 19 17 16 15 16 17 13 15 17 14 12 19 18 19 21 22 24 21 24 21 18 20 20 20 19 16 14 18 18 19 20 18 19 23 22 18 18 19 18 16 16 18 
23 25 23 17 20 20 19 18 24 21 23 20 20 25 21 24 18 16 13 15 16 15 19 19 14 16 16 14 22 13 18 15 14 9 20 16 22 22 17 15 15 17 15 17 14 16 16 13 16 17 21 16 21 23 24 24 22 21 16 19 18 17 19 17 15 18 20 20 20 19 18 19 22 15 21 22 17 14 18 13 
20 26 23 23 18 18 20 22 22 23 23 26 22 25 22 23 19 13 13 12 11 17 20 13 18 16 20 13 18 15 15 15 13 13 13 13 15 16 16 14 17 13 14 13 13 15 16 15 17 20 18 18 19 22 27 25 23 20 25 17 19 17 19 15 18 20 20 24 18 21 18 17 17 19 21 14 18 14 19 12 
20 21 21 22 24 25 17 21 27 18 24 20 22 24 21 21 20 11 5 12 10 16 19 16 19 17 17 20 20 14 12 13 12 14 11 14 13 15 17 13 13 13 15 16 13 15 16 13 15 17 20 16 20 22 22 20 23 23 19 15 19 18 17 15 16 19 20 23 22 21 20 22 15 17 21 15 18 18 15 15 
23 18 19 18 19 22 20 20 26 23 28 18 18 26 18 21 14 15 12 9 9 11 14 17 19 15 23 17 16 15 10 15 12 14 15 14 15 15 13 15 13 15 11 14 14 16 15 13 15 15 22 16 23 23 24 21 24 22 17 17 18 16 15 15 18 20 19 22 20 21 27 16 13 22 19 18 17 14 20 13 
14 18 18 14 18 21 20 20 26 21 20 22 23 23 20 20 17 13 6 11 9 11 11 17 15 12 18 16 17 14 14 13 13 11 11 15 15 14 14 14 14 13 13 13 17 18 17 13 19 21 17 18 21 20 24 23 19 22 17 17 16 16 16 15 16 17 17 19 17 20 24 20 16 21 19 17 15 8 22 14 
15 19 19 14 18 18 20 19 21 19 22 21 26 27 19 19 14 10 7 9 9 10 14 16 15 13 21 14 15 10 11 18 13 12 13 13 13 14 15 13 13 9 8 12 11 11 14 14 21 22 19 21 21 19 21 27 21 18 15 19 19 17 18 14 16 16 16 19 17 15 20 21 18 19 18 20 19 16 19 13 
15 21 19 12 17 15 16 16 23 22 22 20 22 26 19 16 18 10 9 7 10 11 16 12 12 13 16 18 15 14 11 11 12 13 9 15 12 16 16 12 10 9 17 13 9 12 15 13 17 22 23 21 23 24 22 22 20 18 17 18 18 19 16 17 16 19 15 22 22 19 16 16 16 16 14 19 18 17 19 13 
13 20 16 14 12 12 13 18 21 30 17 18 22 20 17 19 13 10 9 7 8 12 14 15 12 9 14 15 19 13 13 10 10 13 9 14 12 17 12 8 12 13 13 13 10 12 12 15 17 18 23 23 23 23 24 24 17 15 19 20 17 18 17 16 16 18 16 16 20 19 20 19 18 15 19 15 18 17 17 13 
10 15 15 10 13 13 12 15 23 14 19 17 17 19 18 17 11 8 7 0 6 13 18 12 12 10 13 13 16 9 8 10 11 14 12 13 19 17 14 9 10 12 9 16 16 12 12 12 11 19 15 20 22 25 23 21 18 18 16 16 15 18 18 17 14 17 17 18 21 13 18 16 15 13 15 17 19 13 15 14 


