P2
80 60
175
159 170 167 167 167 166 168 169 167 164 164 164 164 159 157 161 156 159 161 158 144 135 123 114 107 84 24 6 17 10 14 11 21 31 41 50 58 66 82 83 84 91 96 102 105 105 105 110 113 114 114 114 119 117 126 126 123 124 124 127 124 128 128 129 126 129 125 129 127 129 128 131 133 133 136 134 131 130 127 133 
161 174 171 170 169 166 167 173 170 169 164 164 163 164 153 164 157 160 159 160 149 138 124 118 111 87 21 6 15 13 11 16 17 34 40 45 62 70 80 83 86 91 94 99 100 104 103 108 114 115 115 116 118 116 122 125 126 122 126 124 126 128 127 123 125 123 125 129 130 126 130 126 131 134 137 136 132 135 130 124 
157 166 168 168 170 170 167 169 168 169 164 161 162 162 157 163 156 159 158 160 141 134 120 113 115 88 16 4 15 12 12 12 16 27 39 46 56 72 78 80 87 88 91 93 95 103 106 117 115 115 115 112 119 115 119 125 123 120 122 123 128 129 126 127 123 124 125 127 128 129 130 128 131 136 133 135 130 134 133 124 
157 169 170 166 172 170 172 170 169 170 169 163 162 163 160 163 158 158 161 157 144 128 123 120 112 90 23 11 20 11 15 15 21 31 39 40 54 75 80 82 83 87 90 96 100 106 112 119 121 119 116 118 116 112 116 122 121 122 122 123 130 127 128 123 121 119 125 125 128 129 125 133 131 129 132 136 131 134 130 127 
160 168 168 168 171 173 167 170 168 171 167 164 164 165 165 162 158 161 162 161 149 133 124 119 113 92 19 14 20 11 13 17 27 33 39 40 56 71 84 83 85 88 91 94 107 120 124 123 126 128 127 129 120 119 118 121 119 125 122 124 126 126 129 130 126 128 128 129 128 132 129 127 131 133 133 135 131 133 130 132 
153 165 165 169 166 165 166 168 170 166 166 163 164 168 161 159 156 159 161 160 143 132 125 121 118 88 18 11 18 11 12 16 26 37 44 38 50 66 78 85 81 86 92 91 108 121 127 127 134 135 135 133 120 110 119 122 117 126 123 125 126 125 125 126 125 123 125 131 136 130 127 131 130 131 131 136 131 132 128 125 
158 170 166 170 168 165 164 168 168 167 166 166 166 166 161 153 157 159 166 160 145 129 125 118 124 88 20 14 20 14 11 15 27 38 41 41 48 64 71 80 79 90 89 95 102 120 126 126 132 129 133 135 121 111 118 120 118 123 131 125 125 129 125 125 124 123 125 131 130 130 126 127 130 131 130 135 133 129 131 123 
163 171 172 165 169 171 167 166 167 168 167 167 166 168 162 156 153 158 164 159 144 130 126 125 121 94 21 14 21 10 13 17 25 40 41 46 50 60 75 78 83 86 86 94 104 114 119 115 126 122 123 125 120 113 119 125 120 123 120 126 126 125 127 125 125 126 124 127 133 125 121 129 129 129 134 132 128 129 128 127 
162 171 171 168 171 171 167 170 169 172 166 169 169 162 165 157 156 158 160 153 138 128 126 125 122 90 22 13 22 9 10 12 23 34 38 41 43 54 75 74 81 85 85 89 95 106 113 112 115 109 122 120 118 112 112 117 118 118 121 125 124 123 124 121 120 124 120 123 126 126 123 130 131 130 130 132 128 129 127 127 
157 171 168 171 171 171 167 172 168 167 167 162 163 164 155 154 158 163 161 150 130 125 123 126 116 85 17 15 18 12 8 10 23 31 36 32 40 49 69 74 77 79 82 85 90 110 112 113 121 120 119 121 112 110 112 116 116 116 116 120 121 124 121 120 118 122 123 124 125 123 122 128 127 131 129 130 131 129 126 123 
158 169 166 172 169 171 172 169 168 167 164 167 163 162 160 156 157 160 159 148 130 122 126 126 123 88 18 15 18 10 9 14 24 30 37 36 41 48 70 74 83 83 84 91 93 105 122 121 122 123 123 117 111 106 111 117 114 117 119 118 122 121 123 120 121 119 123 124 125 127 122 126 129 129 131 133 129 129 126 125 
159 170 168 168 170 169 166 168 170 164 165 161 162 164 156 157 159 162 155 143 125 125 124 126 120 82 15 18 16 12 7 10 25 31 32 36 37 47 62 72 80 86 84 88 90 101 119 125 125 120 128 109 106 109 109 113 115 116 117 120 121 121 121 118 120 120 124 123 122 125 121 124 126 129 128 135 132 131 129 127 
141 160 162 171 169 169 167 169 164 165 161 162 162 163 160 160 157 160 154 146 125 125 123 119 120 82 16 14 14 8 6 13 25 34 32 33 36 49 65 74 79 89 86 86 94 111 118 121 124 121 125 111 106 101 107 114 113 113 116 116 115 117 122 116 120 120 124 120 122 121 111 127 126 125 126 131 130 129 127 130 
145 162 168 167 168 166 164 167 168 167 160 159 159 161 158 162 158 155 153 144 124 121 123 121 116 80 11 11 17 7 5 10 20 26 31 30 38 45 66 74 80 81 88 96 101 121 117 118 119 125 119 114 109 107 110 114 115 118 118 118 118 116 121 120 120 121 125 121 122 123 124 121 127 127 127 131 129 128 129 125 
144 163 168 164 168 168 169 169 167 169 161 163 156 159 157 159 159 152 153 144 123 122 120 120 116 81 10 15 17 4 5 13 20 29 28 32 38 52 58 69 89 98 104 104 107 113 116 119 120 121 115 119 120 115 118 121 119 127 121 118 118 119 122 119 120 119 123 123 122 121 121 119 126 123 130 130 129 126 128 130 
151 161 164 166 168 165 167 169 171 169 159 164 159 162 156 157 158 157 154 138 119 122 117 119 116 84 16 14 18 8 6 15 23 27 31 32 39 51 63 83 98 103 103 105 107 106 111 112 114 113 115 118 123 122 126 128 130 120 119 117 117 119 121 121 117 119 123 118 124 123 121 123 126 125 128 130 127 131 130 129 
147 161 164 163 166 168 165 168 166 169 157 162 161 163 157 157 158 156 148 135 116 118 120 118 112 79 13 15 19 10 5 12 22 29 31 29 41 52 68 87 98 102 107 104 106 108 106 106 111 112 116 119 121 123 128 128 129 135 120 118 119 114 120 120 116 117 121 123 120 125 122 122 132 124 125 127 125 128 128 125 
153 164 164 164 169 166 168 167 163 164 163 164 163 160 157 158 157 160 147 135 115 119 121 120 115 81 14 14 19 9 5 12 18 27 28 32 37 57 69 88 99 101 102 103 105 107 105 108 111 111 114 118 122 120 128 127 128 131 125 117 115 112 119 117 116 117 120 120 120 124 124 126 127 126 129 129 127 126 128 131 
154 165 164 166 167 166 165 166 162 165 160 165 160 162 156 158 154 158 151 131 114 117 121 125 115 82 13 14 21 8 8 16 20 30 36 33 41 56 67 90 97 101 102 104 104 105 103 106 109 111 113 115 122 118 123 126 126 130 126 116 119 116 115 115 116 118 120 122 123 121 123 123 130 124 126 127 125 126 125 123 
150 165 164 165 167 165 165 167 165 163 161 160 163 161 159 158 159 160 151 128 114 123 125 124 114 76 15 16 17 8 11 15 22 28 32 32 42 54 68 90 99 102 100 101 103 100 101 105 107 114 108 112 118 118 119 125 121 125 123 118 116 115 115 117 117 117 120 119 127 123 122 122 125 126 127 129 122 125 125 128 
156 158 162 164 168 161 168 166 161 165 160 166 161 160 157 159 156 157 149 129 113 118 120 120 117 74 15 13 17 9 14 13 17 22 30 27 38 53 70 93 96 101 100 101 98 98 100 102 112 107 110 113 118 113 123 128 123 122 122 117 116 111 117 118 118 115 119 121 122 124 121 124 128 126 128 128 128 124 128 128 
155 154 162 164 169 166 171 166 167 168 166 165 168 159 156 160 157 157 146 128 114 119 119 122 112 80 15 14 17 8 13 17 23 23 27 33 42 52 65 87 98 99 97 99 99 98 99 104 106 111 114 118 116 118 119 127 125 127 126 118 119 112 118 116 116 117 123 120 121 123 124 126 126 125 126 128 126 128 127 127 
146 154 159 163 166 165 164 168 165 166 164 159 165 162 158 157 154 157 138 122 112 117 114 115 112 79 16 14 17 12 10 15 18 25 29 28 36 56 67 92 97 97 95 98 96 94 103 103 109 111 111 118 117 116 119 126 126 127 130 121 117 111 114 116 116 119 122 120 121 127 125 125 123 126 124 127 124 124 127 125 
150 155 160 161 169 161 170 175 169 166 161 161 162 159 155 159 153 151 139 119 110 118 117 117 109 76 14 17 18 8 11 13 17 20 29 31 40 58 72 91 99 94 95 99 100 99 105 106 111 112 113 116 118 114 117 126 128 124 131 122 112 114 113 114 114 116 123 122 119 125 122 123 124 119 128 127 127 127 125 122 
150 151 155 160 159 160 164 165 168 163 156 163 157 155 152 156 152 149 137 118 108 111 117 115 110 74 11 15 18 10 11 14 17 18 26 31 42 58 68 90 93 92 92 96 98 101 103 105 107 105 109 112 114 110 120 124 123 123 124 125 112 111 111 118 115 117 118 120 121 118 116 120 124 123 125 127 123 125 125 122 
154 153 157 157 163 159 161 168 165 164 160 159 159 158 157 160 156 152 139 114 110 114 114 115 109 77 16 19 19 11 15 14 17 20 27 34 45 57 69 85 90 97 95 99 102 102 102 106 103 103 104 108 115 115 118 126 126 128 131 124 112 112 114 113 122 117 119 116 119 119 119 122 125 122 127 129 125 123 125 123 
146 152 157 159 162 156 166 168 164 161 158 157 156 158 156 159 157 147 140 116 107 116 117 119 107 78 18 19 23 20 17 16 20 26 35 33 43 58 67 82 94 98 101 103 102 103 104 105 105 107 108 113 113 113 118 130 129 128 127 127 115 112 109 116 114 117 117 116 119 120 119 120 125 125 128 126 124 124 127 122 
147 146 156 156 160 159 165 167 164 165 158 160 156 159 161 157 150 153 135 115 108 113 111 111 105 72 17 21 28 22 19 17 23 25 32 37 48 57 67 80 93 100 99 101 101 104 101 101 102 106 106 107 111 109 115 126 128 126 129 126 114 111 112 110 114 112 116 115 117 116 119 121 123 124 126 124 127 126 123 126 
150 146 154 159 162 158 164 165 165 164 158 159 157 161 157 158 155 149 128 116 108 111 110 112 103 74 16 21 27 24 18 23 25 23 34 39 45 58 76 86 95 101 101 104 101 103 101 102 103 108 107 102 106 104 106 119 121 126 129 123 113 112 113 110 115 113 119 115 117 120 118 116 122 124 126 125 124 123 125 127 
151 153 161 159 165 161 163 164 168 165 156 157 158 161 156 159 158 147 130 110 107 113 111 110 106 69 15 26 29 28 26 24 24 29 37 43 51 64 74 96 100 104 102 102 99 102 101 103 108 106 109 106 112 102 103 112 112 114 118 109 109 109 111 109 115 114 122 120 118 117 117 120 123 122 127 129 122 124 125 118 
145 149 151 157 161 157 162 163 164 165 159 160 160 160 159 160 156 150 127 109 106 109 109 111 101 71 18 25 34 36 31 28 28 37 39 43 55 64 73 98 102 102 105 104 104 105 104 101 103 107 111 110 113 102 102 107 105 105 104 107 110 110 111 114 114 113 116 121 115 118 120 117 122 123 123 124 125 124 119 119 
133 137 147 156 159 159 164 165 161 161 161 156 157 157 160 156 158 149 121 109 102 109 111 106 100 71 22 27 34 33 31 33 29 35 38 41 53 59 78 97 102 103 106 105 105 103 102 106 107 108 109 108 110 101 99 102 101 103 103 108 106 109 113 110 112 114 117 117 113 119 115 120 123 123 124 124 122 121 122 117 
134 139 148 154 159 158 163 161 158 161 160 159 159 158 157 158 155 147 120 107 103 110 109 109 100 70 22 22 35 36 37 29 32 36 41 40 53 63 76 94 103 104 108 109 107 108 103 104 105 110 107 110 107 95 102 102 102 102 104 104 108 108 113 111 111 112 116 114 119 114 115 116 122 120 124 124 122 121 120 118 
137 140 146 156 159 155 159 163 164 158 155 155 156 157 154 155 154 148 119 104 103 105 105 105 102 74 23 30 36 45 38 34 37 38 39 44 50 64 73 95 98 101 104 107 108 106 106 107 105 108 109 109 109 98 96 103 102 100 102 105 106 109 109 106 108 112 116 118 116 118 116 123 125 122 123 121 121 123 126 121 
131 141 143 155 155 153 159 158 162 157 152 155 152 155 155 153 153 146 115 104 99 102 103 105 104 70 21 25 37 43 40 34 37 39 40 45 53 66 74 89 97 102 104 105 106 107 105 108 110 106 106 107 109 97 96 99 102 106 104 103 106 106 109 109 110 112 113 117 115 116 118 122 122 121 125 125 122 127 121 119 
142 146 152 158 161 158 157 158 160 157 154 158 154 154 153 152 151 144 119 109 99 101 107 106 101 69 24 27 37 41 42 40 44 44 45 47 52 62 77 93 95 100 98 101 103 102 107 112 109 107 102 111 105 96 99 103 101 100 104 107 109 107 108 109 111 110 114 115 113 120 123 120 121 120 122 125 123 124 126 119 
134 139 151 157 154 154 160 157 161 156 155 155 155 155 153 152 152 149 117 105 101 107 107 105 99 74 22 29 38 42 43 40 44 48 47 46 54 66 79 92 92 97 96 101 101 100 103 101 104 107 104 111 108 101 101 100 102 104 105 104 108 107 110 107 109 111 114 115 116 114 116 118 119 120 122 124 125 123 123 120 
138 134 144 158 160 157 160 159 157 159 154 156 153 155 152 153 150 143 115 105 99 104 106 108 102 71 25 30 39 40 46 44 44 48 46 46 56 66 73 92 93 91 96 101 96 99 100 101 103 103 102 105 105 98 101 103 98 103 104 106 104 103 108 110 109 111 113 112 114 117 113 117 116 120 119 124 120 119 122 120 
137 146 153 158 159 154 157 158 161 157 155 156 153 152 151 148 148 140 108 103 100 103 105 104 101 75 23 28 34 39 45 45 46 48 46 48 54 62 80 91 92 88 92 96 98 97 99 101 100 102 103 102 105 96 102 103 100 97 101 102 105 106 106 108 108 110 112 115 116 111 114 114 115 117 117 124 124 122 122 123 
138 147 149 159 157 159 160 159 159 157 160 157 150 152 151 149 141 135 109 103 98 105 103 101 104 77 24 28 38 42 47 47 45 50 47 47 52 64 72 84 90 90 90 96 95 95 99 103 102 103 101 101 105 99 101 102 99 97 106 107 107 106 107 106 111 111 112 112 112 112 114 117 121 122 120 125 121 123 119 128 
146 146 148 154 162 161 157 158 154 159 159 155 154 156 156 153 146 132 108 101 98 104 104 107 107 80 31 27 35 42 48 46 52 50 47 50 54 65 76 90 92 90 91 92 96 98 97 100 100 102 103 103 105 101 100 102 104 99 99 104 104 104 108 105 107 109 112 108 109 112 111 117 116 123 121 123 122 124 126 122 
143 153 153 157 159 163 161 158 154 156 151 150 154 158 153 152 146 135 107 98 97 104 106 108 104 84 32 34 40 42 48 52 53 52 48 50 55 67 76 87 90 90 91 95 93 95 99 102 100 104 102 104 108 97 98 99 100 99 101 102 100 105 108 104 104 105 107 109 108 112 114 118 122 118 121 122 123 122 127 118 
144 150 154 155 161 157 157 155 155 155 153 156 149 151 150 149 146 132 106 102 97 101 104 100 106 79 28 33 38 42 50 50 52 53 54 53 55 67 77 88 91 90 90 91 94 95 102 103 100 106 105 108 108 98 97 101 97 96 101 104 104 103 110 105 102 107 110 110 107 111 113 114 119 120 120 122 125 121 124 116 
146 147 144 151 157 157 155 157 153 157 158 158 151 150 149 149 147 133 104 103 100 105 104 105 101 83 27 32 40 41 52 51 53 49 50 55 57 69 74 88 90 92 91 91 92 95 101 112 105 109 105 105 98 93 94 100 99 97 99 101 102 102 101 99 107 108 109 108 108 111 113 117 118 119 121 123 118 122 121 117 
134 132 123 147 157 155 159 154 155 156 157 151 148 153 152 153 148 127 100 102 103 104 104 104 102 78 27 30 35 40 53 50 57 52 53 46 55 63 79 88 89 89 88 94 94 96 103 105 107 105 104 100 96 89 94 96 95 97 101 101 101 104 105 103 105 109 105 107 106 111 114 114 115 119 125 124 122 123 121 114 
131 113 103 143 155 155 156 154 151 153 148 151 150 151 155 150 147 127 96 97 97 99 103 103 100 82 26 28 38 38 51 54 53 49 53 50 57 65 73 87 86 86 90 92 93 99 100 105 107 102 100 92 88 89 91 98 95 96 99 101 101 101 102 103 107 108 105 108 109 112 113 115 119 117 121 123 120 122 121 117 
117 97 94 138 154 156 154 155 151 155 151 151 151 152 150 152 146 124 97 99 97 101 102 99 100 78 31 26 37 37 47 51 54 54 52 55 56 69 75 83 87 85 87 89 94 99 96 101 98 103 94 91 88 88 94 97 94 96 96 96 102 103 104 102 101 104 107 109 111 110 110 113 119 118 120 120 116 125 121 111 
73 74 90 133 146 152 152 154 151 154 150 151 150 149 152 155 145 120 93 97 94 100 101 100 100 81 26 23 34 42 46 50 51 52 55 51 58 64 77 86 85 88 84 91 94 94 101 100 97 95 84 88 88 88 94 99 95 98 97 100 100 99 101 98 103 103 108 110 109 107 109 111 118 119 119 116 114 117 117 112 
55 66 85 127 135 144 150 153 151 152 148 150 148 149 149 147 141 121 84 97 96 98 100 98 99 81 30 20 30 35 43 52 50 55 53 54 58 63 71 88 89 86 89 88 91 90 98 90 88 86 86 86 88 88 93 96 95 96 100 100 100 101 100 100 101 104 109 109 105 108 107 110 117 120 118 117 117 116 117 110 
56 61 70 95 107 106 129 144 138 150 144 149 146 141 132 141 139 115 81 93 89 96 97 98 97 82 27 20 26 30 43 49 52 53 56 53 62 66 71 85 86 85 86 87 89 89 81 83 80 81 84 86 89 86 93 96 94 96 95 99 104 100 103 101 100 104 104 106 107 106 107 111 118 118 123 118 117 115 114 102 
55 60 57 61 70 73 84 100 110 143 146 146 142 122 112 127 131 102 79 92 91 95 94 94 98 78 27 19 22 26 36 43 48 51 54 54 57 64 70 82 83 89 90 88 91 83 78 82 82 84 84 85 87 88 94 96 97 95 98 98 102 102 99 101 100 100 103 105 104 105 109 113 116 114 119 119 114 114 114 104 
50 54 57 50 66 65 68 74 86 130 140 142 131 104 86 100 98 86 84 91 89 95 93 93 92 77 30 14 20 19 35 42 44 45 53 53 55 60 67 77 83 83 84 89 85 79 78 81 81 83 79 82 89 85 90 92 87 93 98 98 99 100 99 95 98 99 105 104 103 106 107 112 113 114 114 118 114 114 107 101 
49 51 53 50 59 59 64 65 80 97 112 124 99 84 77 79 77 69 74 86 90 90 90 90 92 75 21 13 14 12 23 35 42 43 49 53 58 61 67 82 81 85 83 88 79 78 78 81 82 81 84 85 87 86 84 89 95 93 97 101 97 99 96 97 97 100 103 101 105 104 107 110 109 112 113 114 112 109 113 102 
45 50 45 51 64 59 62 63 63 69 75 76 77 76 76 75 72 68 70 87 87 89 90 90 92 78 23 10 14 7 18 34 34 41 48 53 57 58 66 75 80 80 84 81 75 76 76 79 80 86 84 85 87 85 87 91 95 97 94 91 95 96 97 96 97 97 106 102 105 104 106 107 111 112 112 116 110 111 110 102 
47 39 36 50 56 52 55 60 59 66 65 72 68 74 75 69 65 62 67 78 81 87 85 82 82 71 28 6 14 9 15 25 36 48 46 49 57 58 66 78 82 77 78 78 73 77 75 78 79 82 86 84 88 83 86 91 93 92 94 87 96 95 96 98 93 97 100 102 102 103 105 102 108 106 108 108 105 109 106 101 
39 39 36 42 46 43 54 52 56 55 61 62 67 69 69 65 62 62 66 77 80 88 81 82 79 72 19 0 11 9 17 31 38 42 50 52 54 57 66 75 81 82 80 78 74 79 77 76 81 82 81 83 86 82 85 90 92 93 90 94 93 97 94 89 89 95 99 99 101 103 104 100 104 103 108 110 103 107 106 101 
35 37 32 38 39 45 46 49 49 52 50 57 68 67 61 62 61 58 63 80 74 85 85 79 73 65 17 5 11 18 24 36 42 51 50 57 60 58 64 76 82 83 79 78 74 74 77 78 80 77 78 81 83 82 84 89 87 85 89 88 90 91 92 91 94 89 96 91 99 99 98 100 103 104 102 107 104 104 106 96 
33 27 27 31 36 37 39 43 45 46 49 49 55 55 56 59 55 52 63 72 76 80 84 79 77 61 14 3 13 21 39 47 49 54 59 58 62 61 65 79 79 79 80 75 72 77 77 83 77 79 79 78 80 79 82 84 86 85 84 86 90 91 87 87 89 90 89 93 94 96 95 94 100 100 101 101 100 103 103 95 
34 34 27 26 32 25 39 36 39 42 41 41 44 47 49 47 44 45 53 71 72 78 80 78 66 55 17 5 13 23 40 44 50 57 62 60 61 63 70 77 82 81 80 75 75 73 73 77 78 77 75 81 80 75 77 83 82 83 81 84 83 83 85 82 87 85 87 86 92 88 86 90 95 98 94 94 92 95 97 89 
34 34 28 27 29 33 36 37 37 42 41 41 42 47 45 44 45 44 46 64 69 71 71 71 64 56 19 1 11 17 37 43 54 54 52 57 61 60 63 70 80 79 75 75 68 69 71 73 70 72 71 71 75 69 73 79 72 76 77 75 76 75 76 75 78 79 79 85 85 84 87 82 90 90 90 91 85 93 88 82 


