P2
80 60
46
29 30 32 32 33 30 30 32 35 34 34 32 37 32 33 34 33 34 30 30 29 30 34 32 31 31 30 25 28 27 30 26 28 19 23 25 22 20 16 20 22 26 25 21 19 23 24 24 23 21 28 23 23 21 22 22 21 26 29 20 22 23 23 20 16 18 16 14 14 15 12 17 18 15 15 21 14 13 19 15 
28 32 36 33 34 30 32 34 31 37 32 34 31 33 36 36 32 34 33 32 31 34 33 31 31 28 34 25 27 27 26 26 22 23 23 22 23 20 19 20 21 22 26 24 21 25 22 25 24 20 26 25 24 23 23 23 27 23 25 20 21 20 22 16 18 16 14 11 15 17 14 14 14 14 18 15 12 13 22 18 
26 33 35 36 36 35 33 39 36 34 37 35 33 30 33 33 32 34 30 35 37 34 35 29 31 32 29 26 28 27 27 28 26 24 26 23 25 21 23 21 22 27 21 22 24 23 22 20 23 22 23 25 21 22 21 22 24 26 20 21 23 22 19 16 15 15 16 16 14 17 18 13 17 15 14 15 27 15 18 18 
30 29 29 30 36 36 37 34 33 36 36 33 31 33 35 33 29 33 31 32 31 32 34 32 33 30 27 25 27 28 27 27 25 24 23 22 23 23 19 21 23 23 26 22 21 24 23 21 24 25 26 24 20 22 21 19 21 21 21 21 20 21 20 17 17 17 14 15 18 15 17 18 17 13 12 15 16 15 17 18 
38 37 35 32 32 36 38 33 36 36 36 33 32 31 32 40 32 33 33 33 32 35 36 32 32 31 32 25 26 27 24 23 22 21 20 24 24 25 26 23 23 24 25 22 23 24 25 26 22 26 25 25 22 19 20 23 19 23 20 19 20 19 21 18 18 19 17 18 18 18 17 15 15 16 16 16 13 14 19 16 
31 36 34 32 36 40 34 35 36 29 34 30 30 35 31 36 34 33 31 32 29 32 36 36 33 30 32 24 28 23 21 22 23 20 19 23 22 20 23 23 20 25 25 23 22 26 28 24 22 23 23 23 22 21 20 20 21 21 19 21 19 21 21 15 17 19 17 15 21 18 17 14 11 14 13 15 15 18 17 14 
33 35 37 33 37 40 37 35 36 33 32 33 32 33 35 37 38 35 32 35 34 35 38 35 32 27 30 30 28 25 23 22 22 22 22 25 21 25 21 20 24 25 21 21 26 26 23 22 25 21 25 30 24 22 23 22 23 28 25 19 20 23 21 18 18 16 23 17 17 18 16 12 12 13 18 15 15 17 16 14 
33 35 35 32 36 41 37 39 36 33 36 32 32 33 35 40 35 38 37 34 41 35 35 34 32 31 26 27 23 28 25 22 22 20 22 24 19 21 21 21 26 23 21 26 21 22 24 25 21 22 23 25 24 20 19 20 19 18 19 20 20 20 23 16 17 18 20 14 17 14 11 13 15 12 18 13 14 13 18 16 
34 36 36 35 37 35 38 35 35 38 35 33 34 32 34 33 38 38 32 40 36 34 37 32 29 25 28 26 26 28 25 22 23 20 22 24 24 22 22 21 23 21 19 23 23 21 22 21 21 21 23 23 18 21 19 21 21 18 17 19 21 23 19 17 18 19 19 21 17 14 11 13 12 11 15 17 10 12 18 17 
37 37 37 36 38 41 39 38 34 33 36 33 31 33 32 34 37 34 32 36 34 36 36 34 34 27 25 25 24 27 26 24 23 20 20 18 21 21 21 19 21 21 24 23 21 20 21 22 22 21 22 22 19 20 20 19 20 18 23 18 24 22 18 17 16 19 17 15 18 16 12 13 18 15 15 15 18 13 20 11 
39 36 36 36 36 42 41 36 39 33 37 31 29 32 33 31 35 35 29 31 33 33 37 32 27 25 27 25 24 23 24 24 23 20 20 18 21 18 21 20 23 23 21 19 19 21 21 18 19 22 23 21 18 19 21 21 18 19 19 16 20 23 20 19 18 18 17 12 12 16 13 12 12 14 13 15 13 16 15 16 
35 35 39 39 40 40 39 38 36 36 37 32 33 31 30 33 30 35 33 32 31 35 34 33 30 23 24 24 24 24 23 24 23 19 21 17 20 22 21 21 24 21 21 20 22 20 19 14 18 18 18 20 19 18 20 20 19 20 20 19 22 23 19 16 19 17 14 14 15 14 12 13 15 13 15 17 15 10 17 13 
39 40 44 38 39 40 38 34 32 35 34 33 29 31 29 32 33 33 29 33 32 35 33 31 30 25 24 23 23 25 24 22 22 18 20 18 15 21 24 19 22 22 21 21 21 21 21 19 19 19 22 20 18 19 18 19 18 21 18 20 23 23 23 15 19 15 14 15 22 16 2 14 11 11 13 16 13 18 17 17 
37 35 46 38 36 35 38 33 34 32 35 30 29 28 31 33 33 30 33 32 32 32 31 31 29 26 22 21 22 24 24 22 21 23 20 20 17 23 20 18 20 18 22 20 19 22 23 23 18 24 24 23 19 19 20 20 23 24 21 21 21 20 17 14 16 14 15 15 16 15 12 11 12 14 15 18 12 13 17 16 
39 36 35 34 37 37 32 34 34 34 30 32 30 27 32 34 30 33 30 32 30 32 32 30 25 20 24 21 21 19 22 19 22 22 20 19 23 22 21 17 21 21 16 19 19 20 20 22 20 21 27 25 20 18 18 22 29 37 24 20 22 18 18 14 17 20 20 18 14 16 14 11 11 10 11 12 19 14 21 16 
32 35 36 35 34 35 33 33 34 31 29 30 28 28 28 35 30 29 29 29 29 33 31 30 24 19 23 21 21 23 20 19 18 19 18 19 18 18 16 17 19 20 18 19 21 21 22 20 21 19 24 20 18 18 21 23 23 26 19 19 18 22 21 14 15 20 18 20 19 16 16 14 15 13 12 12 15 13 18 15 
33 42 37 36 39 33 34 31 31 30 31 30 28 30 27 28 30 30 31 33 28 30 29 29 27 19 25 25 20 24 23 23 23 22 19 19 16 18 16 14 18 20 16 20 17 21 25 21 18 20 23 22 19 20 21 22 23 24 24 19 17 21 19 18 18 19 16 16 18 19 18 16 17 16 14 13 13 13 20 20 
34 36 40 39 35 34 34 30 32 34 34 30 31 28 29 32 30 31 27 32 30 31 31 31 25 23 19 23 23 24 22 25 20 19 18 19 18 16 17 21 19 20 19 19 19 22 20 21 20 18 23 20 21 18 23 21 21 30 22 22 21 20 20 17 19 18 12 19 17 19 16 17 17 13 14 17 16 17 16 15 
30 35 39 36 38 36 29 30 31 32 31 29 27 27 27 29 31 30 29 32 30 31 31 29 24 22 22 22 28 23 21 21 21 18 21 18 18 18 18 18 20 21 17 21 21 21 21 20 18 17 21 22 25 23 18 19 19 25 20 19 21 20 16 14 18 18 16 17 17 16 15 16 16 13 12 12 13 13 18 16 
32 34 34 35 36 40 32 29 30 30 34 29 29 28 31 29 29 32 30 32 32 34 35 33 26 25 26 22 23 24 26 22 20 18 18 18 20 18 19 18 21 20 17 20 16 19 22 20 20 18 22 22 19 18 19 19 19 21 18 18 17 20 17 13 18 16 17 16 17 18 14 14 14 11 13 11 12 12 14 17 
29 31 33 35 37 33 32 30 27 31 32 30 24 26 27 26 28 30 30 33 33 28 32 30 24 23 24 22 22 24 31 21 18 17 21 16 19 19 17 19 20 22 21 19 16 18 16 18 18 17 18 21 19 18 20 17 17 17 18 17 20 21 19 18 18 16 16 17 15 19 17 17 17 12 13 13 10 14 16 15 
29 31 33 35 33 34 32 30 30 28 31 30 33 28 28 27 25 30 27 32 32 27 31 29 20 20 25 22 20 23 22 22 18 20 16 15 18 18 21 16 21 24 18 16 17 17 16 17 13 20 20 20 15 15 18 17 17 20 20 16 18 22 19 18 23 19 17 14 13 20 15 17 14 15 15 10 8 16 21 16 
29 33 35 34 35 32 32 33 32 31 32 31 27 28 28 29 26 28 29 28 34 25 26 28 23 18 21 22 20 20 19 18 18 16 17 14 19 18 20 18 17 20 14 14 16 13 17 18 18 18 20 19 18 12 16 17 15 17 16 15 18 16 18 20 20 20 19 17 20 16 16 17 15 15 15 14 8 11 18 18 
28 32 33 32 31 32 33 36 32 29 32 30 27 27 25 27 25 26 27 31 28 25 25 26 22 22 24 19 19 19 19 16 18 15 16 14 15 16 17 17 18 20 18 19 15 17 20 16 16 20 22 18 18 17 13 14 15 17 16 17 18 18 19 18 17 19 22 17 16 20 16 15 14 17 14 13 11 13 18 18 
30 34 34 29 33 32 33 29 33 32 30 29 25 27 24 23 26 26 25 28 30 31 31 26 22 20 20 18 21 20 18 16 18 15 18 14 16 19 14 16 17 17 17 16 21 18 18 19 17 16 18 19 17 18 16 15 18 17 17 16 16 19 18 15 15 18 19 14 17 17 17 13 18 14 12 15 12 12 19 21 
30 29 36 32 34 32 31 30 32 30 29 28 27 26 29 28 25 27 24 27 26 28 28 25 19 20 18 20 20 16 18 16 14 15 15 16 17 15 14 15 16 18 16 17 19 19 19 16 20 15 19 16 17 14 16 14 13 16 17 17 15 20 19 14 17 18 18 18 13 16 18 16 16 16 16 15 14 15 19 19 
30 29 31 33 30 32 35 27 31 29 30 24 26 27 27 27 29 31 25 25 29 24 30 27 20 16 21 19 19 21 20 16 16 14 21 15 16 15 12 16 15 16 16 16 18 19 17 12 16 14 18 16 16 16 15 15 10 15 16 15 19 20 17 16 15 15 17 12 17 15 16 17 18 16 14 15 13 17 17 13 
31 28 36 34 34 32 31 31 29 34 28 26 26 27 25 18 28 27 26 25 28 25 27 25 20 21 20 20 19 19 19 18 15 16 15 15 16 13 14 15 16 19 19 21 19 18 16 14 18 16 19 17 15 16 16 16 13 9 11 14 19 17 19 17 17 17 14 14 14 17 14 17 17 16 17 15 15 15 18 13 
26 28 35 32 31 28 30 34 33 28 28 27 26 27 25 24 26 27 27 27 26 27 26 23 18 17 21 19 21 20 19 20 15 13 16 15 15 13 14 16 15 16 18 15 20 17 18 18 19 19 17 19 17 14 14 15 12 11 14 11 16 19 17 16 15 14 13 14 12 17 13 13 9 14 12 14 15 15 16 13 
31 35 40 30 30 30 28 30 32 30 29 24 25 24 26 27 24 28 25 28 26 23 29 27 21 19 22 18 15 21 18 20 15 15 15 16 21 15 16 15 17 18 20 17 16 15 19 15 13 16 20 19 18 16 17 20 15 15 12 12 17 17 18 16 16 18 24 16 15 19 16 16 14 12 11 16 15 13 17 11 
29 38 34 29 31 28 27 30 30 28 31 24 25 28 26 28 27 28 29 32 27 27 30 26 20 24 18 19 18 19 18 17 16 18 19 15 16 14 14 16 17 19 24 23 17 15 17 19 17 15 21 25 16 13 15 16 14 15 11 14 18 17 18 22 15 16 21 16 18 20 14 16 15 12 12 14 13 13 18 16 
31 34 31 31 35 28 31 25 28 27 30 25 24 26 26 27 31 29 28 27 23 28 27 24 23 23 21 18 21 19 17 18 14 15 18 15 13 13 13 18 20 17 18 21 19 15 18 18 17 20 19 19 14 18 18 15 15 16 12 13 17 17 18 19 18 16 18 14 20 19 15 13 14 13 12 10 12 14 19 14 
30 36 35 35 32 35 27 30 28 30 28 27 25 24 25 28 24 26 27 26 25 24 24 25 23 21 18 19 23 22 20 17 14 15 16 16 15 15 14 17 18 23 19 17 19 17 15 19 14 18 19 18 15 19 18 18 15 15 16 14 16 18 18 16 17 18 17 19 19 17 14 16 16 15 11 16 16 15 17 17 
29 29 30 31 30 30 25 25 27 27 27 23 22 25 24 25 28 26 27 23 26 23 26 28 22 18 15 16 23 25 19 16 15 12 15 12 14 16 15 15 18 19 19 21 19 18 18 19 17 15 18 18 13 17 16 17 12 15 14 13 15 18 16 15 19 17 19 17 17 17 13 14 13 16 17 16 17 15 16 15 
26 28 30 29 29 27 27 26 24 28 23 24 26 24 23 24 28 29 28 27 25 23 25 21 20 20 16 18 19 20 16 17 16 17 18 12 14 12 14 11 16 18 19 17 17 19 18 17 15 15 17 18 15 15 16 15 13 18 15 13 17 18 16 19 17 17 18 15 15 16 13 12 15 15 14 16 15 14 15 15 
25 21 28 30 29 28 27 23 27 23 26 22 23 26 26 23 23 28 25 30 24 20 23 24 17 17 19 15 18 18 15 15 17 15 14 12 16 14 10 15 14 18 11 14 19 15 18 16 16 15 16 20 16 14 16 15 16 16 13 16 15 16 17 18 17 16 15 15 14 17 14 15 14 15 13 15 15 14 17 17 
25 29 30 29 28 27 25 26 24 26 26 22 22 22 22 20 22 27 27 28 25 21 24 20 16 16 17 17 17 18 17 17 18 15 15 15 14 16 12 13 14 15 17 17 17 16 17 17 14 16 15 19 18 13 16 13 15 14 13 15 17 17 20 16 20 19 17 14 18 17 16 12 14 14 12 13 14 14 15 18 
26 30 31 29 28 28 26 25 27 23 23 21 22 23 22 24 23 31 26 25 23 24 23 18 16 17 14 13 18 17 22 14 15 14 17 12 15 15 13 14 16 18 16 18 19 16 18 18 18 15 17 18 16 15 17 18 15 15 13 14 18 17 19 17 16 20 18 17 16 17 14 14 11 13 12 16 15 13 17 15 
26 33 34 27 27 25 25 26 24 26 28 23 20 23 23 23 21 28 25 24 23 22 21 24 13 15 15 16 18 17 15 19 14 14 18 12 13 13 16 15 15 16 17 17 19 17 15 18 16 17 16 16 18 16 16 15 14 13 13 13 13 16 19 14 13 19 21 17 15 15 13 12 11 15 15 11 17 17 22 22 
24 28 29 29 28 32 26 24 24 26 22 23 19 20 21 24 23 26 26 24 24 21 21 20 15 17 13 18 19 22 17 17 13 12 17 15 12 15 15 17 16 15 19 18 17 16 20 17 17 19 21 20 19 17 20 14 15 17 10 14 14 11 14 17 15 15 17 13 15 15 14 15 13 15 13 18 15 16 24 20 
23 32 28 28 26 29 26 23 24 24 21 22 19 23 24 21 22 25 23 23 22 23 19 21 17 16 18 17 19 19 15 14 19 16 17 14 16 16 16 14 14 14 16 19 15 14 17 20 16 17 20 25 18 17 17 17 13 12 13 14 17 18 16 14 16 17 17 11 9 14 12 13 11 17 13 14 19 17 26 19 
23 25 31 25 26 24 25 24 25 23 21 22 23 23 22 23 23 25 21 24 24 18 22 18 19 16 18 16 16 16 15 15 17 18 16 16 21 15 13 15 15 15 14 16 17 18 20 20 17 17 19 21 16 18 18 17 14 18 11 11 12 17 17 19 15 16 17 10 16 12 15 15 13 13 15 17 16 23 25 18 
25 30 28 24 22 24 22 22 23 21 24 22 19 24 23 22 21 21 22 22 22 21 20 18 12 16 19 13 16 17 13 13 14 16 15 17 13 16 13 15 17 17 15 18 19 18 20 21 17 20 20 16 14 14 15 17 16 14 15 8 10 20 20 19 17 17 16 12 13 13 13 13 16 10 16 12 15 16 18 17 
25 28 26 21 25 28 22 23 23 21 19 24 20 23 21 21 18 23 25 27 23 18 20 17 17 18 16 12 16 17 15 17 12 16 17 13 16 11 10 12 13 15 15 18 18 20 16 22 19 15 19 15 15 16 13 15 15 15 12 12 15 19 20 16 15 14 15 9 15 17 14 13 13 13 14 17 17 14 21 19 
20 25 21 21 23 22 23 23 21 19 22 21 19 22 19 21 23 20 23 23 22 20 18 16 13 15 14 10 17 14 14 14 13 12 15 13 11 14 11 11 14 16 15 18 19 16 20 17 14 17 14 16 17 13 14 13 10 13 11 10 14 17 15 16 12 16 15 12 14 15 10 10 12 14 13 19 15 13 16 13 
22 22 20 20 19 23 19 21 18 17 22 21 18 20 21 21 26 22 23 24 21 20 17 12 15 13 12 12 15 13 17 13 11 12 14 15 16 12 11 10 12 14 14 18 18 20 19 18 14 16 17 16 12 12 15 10 10 13 12 10 17 18 16 15 18 15 16 13 17 15 13 9 12 11 16 13 14 14 16 16 
19 22 20 11 18 21 17 17 20 21 20 21 18 21 20 23 23 23 23 21 20 16 17 17 15 12 13 12 15 14 12 12 15 12 11 12 13 12 10 10 15 14 12 18 19 20 16 16 13 15 15 16 13 14 13 12 10 14 13 9 17 19 17 16 9 19 16 17 13 17 13 13 13 10 14 8 13 11 14 15 
16 20 19 18 17 21 21 20 19 20 20 20 17 19 20 21 21 21 21 21 16 19 20 16 15 11 10 16 14 16 15 11 13 12 13 11 14 11 11 13 16 16 13 16 17 17 20 17 14 16 15 17 13 15 11 10 12 13 12 9 15 14 17 18 15 16 14 13 14 18 13 13 14 12 13 10 12 12 17 17 
17 20 16 18 20 21 18 21 20 20 17 16 17 19 25 21 23 20 21 22 19 17 24 15 14 7 10 9 17 13 11 10 10 9 14 10 10 13 11 15 14 13 11 15 16 18 14 12 12 14 18 16 13 14 11 11 13 14 11 13 12 17 16 18 15 18 13 17 17 15 10 13 13 12 12 18 12 9 18 11 
15 17 19 15 18 20 18 18 20 19 15 16 15 17 24 22 21 24 23 22 19 20 18 15 8 9 8 9 14 12 12 9 13 9 12 11 11 12 12 12 13 15 14 16 15 19 14 11 7 12 15 14 13 15 15 15 12 12 13 10 15 17 16 15 13 14 15 16 18 14 14 14 12 14 8 15 12 11 16 15 
19 21 20 15 20 21 15 16 18 18 23 18 18 20 20 24 22 21 19 21 19 19 16 11 11 8 8 13 16 13 14 10 13 13 14 10 9 11 12 10 14 12 14 15 13 14 16 14 12 11 12 13 12 14 14 13 13 11 11 12 14 16 19 14 15 17 14 13 14 13 12 13 11 12 12 15 13 13 14 16 
21 20 19 16 18 18 16 16 16 17 18 16 12 16 16 21 18 23 20 20 17 16 16 10 8 7 6 8 18 11 11 9 9 6 20 13 13 9 7 6 12 9 11 14 13 13 16 15 13 15 17 15 14 12 12 13 9 11 12 12 11 16 14 14 12 16 12 14 12 14 10 14 10 10 12 15 18 11 16 13 
17 17 20 22 20 18 17 16 16 20 17 16 12 18 16 19 17 19 18 17 13 15 16 7 12 11 10 7 12 15 10 8 12 9 12 9 8 8 5 6 10 10 10 13 11 14 14 14 16 14 14 14 16 13 14 15 14 13 14 11 15 15 15 12 12 14 11 14 11 15 13 11 10 12 14 15 12 12 13 9 
14 19 19 21 24 24 16 14 20 20 17 15 13 12 18 21 18 18 19 18 15 14 13 4 9 9 10 11 15 13 10 9 10 10 8 8 7 9 7 5 10 10 12 16 12 9 14 13 11 13 13 17 18 21 17 17 16 16 12 13 16 15 16 13 12 15 14 11 12 16 11 12 9 14 14 13 15 12 15 10 
17 17 17 19 19 22 16 18 21 20 17 14 13 16 16 19 16 19 20 16 16 14 13 7 8 2 10 12 13 10 5 10 11 11 9 8 6 7 5 6 8 9 11 13 12 7 12 15 11 13 12 16 17 13 18 20 19 18 11 15 16 15 13 10 13 12 13 8 11 13 14 8 7 13 12 15 15 13 13 13 
14 18 16 14 15 16 16 15 16 17 14 14 16 17 18 20 14 19 17 20 16 10 11 7 4 1 4 10 14 10 7 9 11 9 10 7 6 7 4 6 9 10 12 12 11 12 13 11 10 12 10 16 15 12 15 16 11 16 9 15 15 16 16 14 15 12 12 8 11 13 14 12 10 15 9 13 11 12 20 14 
11 16 15 11 14 15 15 14 16 13 14 15 24 17 17 16 17 18 18 16 12 10 8 4 3 7 3 10 10 6 5 14 11 8 8 7 8 7 6 7 8 13 9 12 12 12 14 12 12 12 9 17 15 8 7 11 14 16 8 13 15 17 16 11 15 12 9 12 11 13 12 10 10 12 14 15 11 12 17 15 
6 16 15 11 18 15 14 14 17 15 12 17 15 17 15 15 20 18 18 16 17 10 13 4 0 2 2 7 11 9 9 11 8 8 9 9 8 7 5 6 9 11 15 17 7 14 14 12 12 15 13 15 15 11 12 11 9 10 11 11 17 17 13 14 18 14 12 12 16 16 10 10 8 13 13 18 14 16 17 18 
8 19 16 10 10 15 17 12 15 21 15 12 16 11 14 21 17 14 17 16 15 12 13 4 2 0 1 10 11 8 10 9 10 10 6 10 7 8 3 7 10 10 19 13 13 11 11 13 13 12 13 16 10 12 13 10 8 8 10 14 13 17 16 11 16 14 15 11 17 14 12 8 10 11 12 15 14 13 19 17 
10 17 13 9 14 12 13 12 15 10 18 14 13 14 14 20 16 14 13 15 12 11 13 3 2 0 0 10 9 7 4 8 10 7 7 7 12 10 8 8 8 10 11 16 15 12 13 10 10 12 11 18 12 12 14 11 8 10 9 10 12 16 15 12 13 16 12 11 12 12 12 10 10 8 14 17 15 12 14 11 


