P2
80 60
37
23 22 23 25 22 25 22 26 28 22 25 25 25 26 24 21 21 23 20 23 21 22 24 18 20 21 21 23 23 20 24 24 25 25 25 20 18 22 20 21 22 25 24 25 23 25 20 22 26 25 22 21 23 23 22 22 24 22 27 21 17 17 20 20 19 15 10 12 14 9 16 11 11 10 15 11 9 4 11 16 
22 25 26 25 28 24 24 27 27 28 23 27 22 25 22 21 24 22 23 24 23 24 21 22 21 24 24 23 21 23 23 24 22 21 23 20 20 19 20 21 16 25 22 25 25 22 23 21 24 22 21 21 21 21 21 25 29 24 22 17 15 15 17 18 17 15 13 10 11 9 13 10 9 12 14 11 9 8 9 8 
24 21 24 25 27 26 24 26 28 22 26 29 22 25 25 22 23 22 22 20 23 23 22 18 22 27 21 22 23 21 23 25 22 24 26 22 22 22 22 22 20 25 19 21 25 20 20 20 25 21 20 21 20 23 23 22 23 23 20 21 13 16 13 15 17 12 10 13 12 14 16 12 13 12 11 15 7 10 8 8 
26 24 23 25 26 27 25 27 28 24 28 32 22 25 24 21 24 19 23 25 22 20 20 20 18 25 21 24 23 21 22 26 23 23 23 20 20 22 21 25 22 21 22 21 20 20 19 20 26 25 22 21 20 21 21 20 23 17 18 17 20 15 15 16 16 13 12 13 13 12 16 13 8 13 11 13 11 8 9 10 
29 21 27 27 29 28 26 28 26 27 25 27 23 24 24 26 23 22 22 24 22 22 22 21 22 24 25 22 19 21 22 23 22 20 24 22 21 21 25 23 19 23 23 22 25 21 22 23 23 29 23 23 25 22 20 20 23 19 22 17 16 17 18 20 19 13 15 18 13 16 14 12 12 11 14 10 12 10 10 11 
26 23 25 30 24 29 24 31 29 27 24 26 25 27 23 23 23 24 24 26 22 25 23 23 24 25 24 24 21 20 20 24 19 20 23 20 24 22 28 24 20 23 25 24 23 23 27 22 25 23 24 21 25 22 21 23 20 20 20 18 20 20 18 18 19 16 19 15 17 14 17 13 11 11 10 10 13 13 7 10 
26 25 27 28 29 29 27 29 26 26 24 25 25 24 22 25 27 24 22 25 25 22 25 19 23 22 23 24 21 19 23 24 25 21 22 22 20 26 23 22 23 21 21 21 21 25 20 20 24 21 22 25 24 22 20 20 20 23 27 21 21 20 20 16 18 17 17 14 14 12 12 11 8 13 9 12 12 9 5 9 
27 26 27 29 28 31 29 26 24 25 25 26 26 28 23 25 28 26 27 25 28 22 20 22 25 28 21 21 22 23 20 22 22 22 24 24 19 22 24 20 25 20 20 22 20 21 23 22 24 22 22 23 25 19 22 21 21 23 22 23 19 18 22 16 19 16 13 13 17 12 10 9 11 13 14 13 11 10 6 12 
30 27 30 27 29 28 29 30 21 26 26 26 26 21 22 25 24 25 24 27 24 22 24 22 22 23 23 21 22 22 23 22 22 20 24 22 17 22 22 23 19 22 21 20 22 17 21 21 24 24 22 23 22 21 22 24 20 21 20 20 20 17 19 15 17 20 16 15 14 16 13 10 7 9 12 10 13 7 7 8 
28 31 29 29 29 30 26 30 24 22 24 23 25 24 20 23 27 22 24 24 26 26 21 21 23 22 22 24 22 21 18 20 23 24 27 20 20 20 20 19 21 21 20 20 18 18 20 21 24 22 27 22 17 20 20 20 20 16 20 17 14 17 16 17 17 19 14 15 14 10 12 13 12 9 11 13 13 10 9 9 
32 29 25 31 30 30 31 25 26 28 25 25 25 23 21 24 26 21 23 24 23 23 22 22 21 22 20 20 21 20 23 21 20 20 21 19 19 17 17 20 16 19 20 21 19 18 20 22 21 20 21 21 20 20 22 22 16 18 20 16 16 16 14 18 18 16 12 15 11 11 10 10 11 12 13 9 11 8 9 10 
31 28 31 32 30 30 31 24 22 24 23 24 26 24 23 20 22 23 22 24 19 22 21 22 22 22 20 20 19 19 21 20 23 19 20 19 16 13 20 20 20 19 20 21 21 19 22 20 21 22 18 17 19 19 21 19 21 18 18 18 16 18 20 22 17 15 15 12 11 8 9 8 9 9 9 14 10 4 6 9 
37 30 31 33 30 30 29 23 20 21 23 24 24 21 19 24 20 23 20 20 21 21 21 17 20 25 20 22 19 23 23 20 26 21 17 19 18 18 24 21 15 20 19 20 21 19 21 21 19 19 22 21 18 18 18 18 21 18 18 16 19 19 21 16 14 17 16 12 15 15 0 9 7 6 11 15 11 10 8 15 
30 29 33 34 28 30 24 23 24 20 19 23 21 21 21 23 21 19 20 18 20 21 21 20 20 19 19 21 23 21 23 21 22 21 21 16 15 23 19 17 20 18 19 19 20 21 21 20 17 23 18 24 17 19 19 19 21 21 22 18 18 15 12 18 13 15 13 20 13 11 12 6 8 11 9 10 10 10 10 12 
30 29 31 32 27 29 25 26 22 19 19 22 23 22 22 20 20 21 22 17 18 20 20 20 22 20 22 19 20 18 22 22 23 23 19 19 22 20 18 20 17 22 18 18 20 16 18 18 23 24 19 19 20 20 19 21 25 31 22 20 16 17 18 18 14 16 17 15 15 14 13 10 11 10 10 14 12 11 11 12 
31 30 33 31 23 27 26 28 25 19 18 21 21 23 20 23 22 21 21 20 20 19 19 23 19 24 20 20 20 20 22 21 21 21 20 18 17 17 25 18 19 21 17 23 20 18 21 19 18 21 22 20 23 23 21 24 23 23 21 22 16 14 17 13 19 22 14 20 16 13 16 12 12 13 13 8 12 10 12 17 
30 30 31 31 29 26 26 20 21 18 19 23 24 22 20 26 20 20 21 19 21 19 20 16 20 21 20 22 19 20 21 22 21 20 17 17 14 21 20 19 18 19 19 17 18 18 19 19 20 20 20 20 20 19 23 22 21 22 22 20 15 17 15 17 16 16 13 20 16 13 15 13 14 14 12 10 10 11 10 13 
25 26 33 32 30 27 27 24 22 20 17 23 24 22 24 18 21 19 20 21 20 17 19 20 21 23 19 21 18 21 23 18 21 20 18 18 16 16 22 21 16 20 19 18 20 19 17 20 19 19 18 20 20 20 22 23 24 26 22 17 15 18 16 15 14 16 13 16 14 14 16 11 12 10 13 9 10 10 8 12 
28 28 32 28 30 29 24 26 20 21 20 20 24 25 22 20 21 21 23 23 16 20 20 23 23 23 18 23 22 22 22 22 23 21 24 19 20 20 17 24 21 25 19 20 22 17 21 18 20 17 17 22 23 21 20 19 21 24 21 17 17 17 15 15 18 16 14 16 15 14 12 11 13 9 11 9 9 8 10 7 
28 27 30 35 31 30 27 21 25 21 24 20 22 24 20 21 19 21 23 21 22 26 24 25 23 24 20 20 20 21 23 23 24 21 20 17 20 19 21 21 22 20 18 19 17 16 19 19 21 22 21 22 19 18 18 21 21 19 17 18 17 17 19 15 18 18 16 20 15 15 15 12 11 9 10 8 10 11 11 9 
27 25 29 30 27 26 24 21 22 23 22 26 22 21 19 20 21 21 20 17 21 20 19 20 22 23 21 21 21 20 28 22 22 19 20 15 17 19 19 20 18 23 21 19 17 16 16 18 19 20 19 18 19 15 22 18 21 18 19 19 17 18 17 16 15 16 15 18 13 12 16 13 9 10 9 11 12 12 7 12 
31 28 30 32 29 28 24 23 23 22 22 20 30 23 21 24 23 21 20 24 21 20 23 19 22 21 22 20 19 18 22 21 24 20 15 17 19 20 21 18 19 23 17 17 19 17 14 18 20 18 20 18 16 14 19 20 18 17 21 18 16 17 18 16 17 18 17 13 14 18 15 12 16 12 13 10 9 12 12 11 
25 26 31 31 29 25 25 25 25 23 19 21 22 24 23 20 20 19 24 23 20 20 18 19 21 24 20 19 20 18 21 19 25 18 19 14 18 17 19 20 19 17 17 16 18 15 14 16 20 19 19 18 16 18 16 16 19 19 17 16 18 16 20 19 20 20 15 17 16 14 15 16 12 13 13 13 6 6 7 12 
27 28 31 28 29 24 26 30 23 23 22 24 23 19 21 21 20 19 22 20 22 20 19 17 20 19 16 19 18 17 18 21 21 17 17 17 16 17 18 19 19 15 14 18 13 16 17 13 17 20 20 18 21 18 18 19 19 18 17 15 16 16 19 23 18 17 17 18 15 15 15 13 12 13 14 11 9 11 14 13 
27 28 29 30 29 24 26 22 26 23 19 24 25 21 20 20 19 19 20 17 22 19 18 20 22 20 16 18 18 15 17 16 18 16 21 15 16 14 15 16 17 16 20 16 19 16 19 17 20 18 21 19 19 17 18 17 18 18 19 15 11 18 18 14 17 18 18 13 13 15 10 12 12 15 15 12 11 8 14 12 
27 23 27 29 28 23 25 23 23 26 23 21 24 23 23 21 19 18 17 21 21 22 18 21 21 20 19 20 16 19 14 17 21 17 16 15 15 15 17 19 16 17 17 19 17 18 18 18 20 17 19 17 17 19 18 17 18 18 16 15 12 13 16 16 17 17 15 13 14 17 17 11 13 10 12 14 11 13 12 12 
28 26 31 30 24 26 24 26 23 24 21 21 21 21 21 26 20 21 20 20 20 18 22 22 21 20 18 20 19 20 20 14 19 17 20 14 17 14 17 16 16 17 17 16 17 16 17 17 18 17 18 16 13 16 17 15 16 17 17 17 14 16 17 14 16 16 16 13 17 10 15 12 11 13 11 12 13 11 12 9 
26 26 28 32 28 24 24 26 26 22 21 24 22 23 19 15 23 21 16 21 20 19 21 21 18 21 20 21 19 18 19 17 16 15 14 14 17 14 15 17 17 20 18 19 16 15 14 18 16 14 18 21 17 18 17 17 19 15 16 16 13 15 18 16 17 14 12 14 13 13 14 14 10 12 12 15 9 8 12 8 
27 25 29 27 28 26 24 27 21 26 25 23 21 25 19 22 18 17 19 21 17 20 21 20 24 22 17 20 18 18 19 15 19 14 15 15 13 15 18 19 15 17 17 14 19 18 19 18 17 15 17 21 16 18 19 19 17 14 16 16 17 15 11 15 15 15 12 14 13 12 14 13 9 10 12 9 9 9 8 7 
30 28 34 26 26 24 26 25 27 24 23 22 22 22 16 20 20 18 19 17 18 17 17 18 18 19 17 19 15 19 16 17 17 16 14 16 16 17 15 17 17 19 19 16 16 18 16 19 19 17 18 18 17 13 17 17 17 15 13 16 16 16 14 16 17 17 21 16 13 13 15 12 9 9 13 11 11 8 4 6 
29 27 29 26 25 24 24 22 22 21 21 23 22 23 20 21 18 20 22 20 18 17 21 21 20 22 22 20 17 17 19 18 18 17 20 15 16 15 17 19 20 20 22 22 19 13 15 20 20 17 20 21 16 16 16 18 15 15 13 16 17 14 17 21 19 20 15 19 16 14 18 16 10 11 13 13 12 10 9 8 
28 24 27 28 27 21 22 18 23 19 21 22 19 22 20 22 20 17 18 21 18 18 19 18 20 22 27 18 17 17 15 18 20 18 17 15 16 14 15 18 19 19 21 20 19 16 16 18 19 21 18 18 17 16 16 16 18 15 14 15 13 16 17 19 19 20 14 14 14 11 14 10 11 12 7 9 10 10 6 7 
28 24 28 31 27 27 20 21 23 21 21 21 21 20 17 21 22 19 17 18 18 17 15 21 22 21 20 19 18 18 19 17 16 15 19 17 16 16 14 18 18 21 17 18 20 16 15 18 16 19 18 22 19 18 19 15 17 17 15 14 14 16 18 15 16 16 15 15 16 14 12 9 12 10 12 11 9 9 7 12 
26 25 28 29 26 26 22 22 22 21 20 23 24 20 17 20 20 19 18 17 19 18 18 22 21 23 17 17 19 18 18 14 17 15 16 16 14 15 16 17 19 20 19 17 19 20 15 13 18 21 18 18 20 18 20 18 18 17 15 15 13 18 17 19 18 15 17 16 13 10 13 10 12 11 14 10 13 12 7 8 
27 26 28 29 24 25 23 19 22 20 20 23 23 23 21 19 20 19 18 21 19 17 17 18 23 21 18 20 19 20 19 17 18 18 19 12 15 17 16 18 16 20 20 21 18 20 19 20 16 17 17 19 18 17 16 16 19 17 16 13 13 14 15 16 16 17 15 17 14 12 13 10 11 10 11 11 13 10 8 7 
24 25 25 31 27 24 23 20 25 23 22 23 24 25 18 18 18 19 19 19 20 20 19 22 16 21 18 16 18 18 19 20 17 15 16 15 17 14 14 17 17 22 16 14 20 15 19 20 19 17 19 20 19 16 17 18 17 17 17 15 15 14 16 17 17 16 14 15 13 12 14 9 10 11 11 12 14 10 9 10 
26 23 29 29 27 25 20 20 20 19 20 23 25 22 17 19 18 23 21 19 20 17 20 18 20 18 15 17 18 16 16 18 17 18 17 15 14 16 16 18 16 19 16 18 16 18 17 18 20 18 15 20 19 17 17 18 17 19 18 15 15 14 16 18 16 17 15 14 11 10 13 10 10 13 13 11 10 14 8 8 
27 28 28 29 25 26 21 21 19 20 18 21 23 21 18 17 20 24 23 18 19 18 17 17 17 19 15 18 19 16 22 18 18 20 15 16 14 15 16 17 16 17 19 17 18 20 15 16 19 17 18 17 17 17 18 17 19 15 16 17 14 15 17 14 18 21 14 16 14 11 15 12 6 12 10 10 7 11 11 10 
26 28 36 29 29 26 24 20 21 18 22 24 20 19 20 19 19 21 18 19 18 19 21 20 19 17 18 16 14 18 15 18 17 17 13 16 14 16 16 17 14 20 17 16 16 16 19 17 18 18 21 18 19 19 21 17 19 17 17 14 13 12 16 17 16 16 17 16 14 13 14 12 9 9 8 11 11 12 8 8 
26 26 27 28 24 24 21 22 23 18 21 22 20 20 18 19 19 16 18 17 22 20 16 22 19 17 17 15 16 19 17 19 19 17 17 16 14 13 18 19 15 24 18 17 17 18 19 19 21 20 22 20 21 19 19 19 18 13 16 14 11 12 14 16 13 12 14 11 11 12 10 8 12 11 11 10 13 10 13 15 
24 25 28 26 27 22 19 21 22 22 20 21 22 27 19 18 18 16 20 20 19 18 17 24 18 20 26 19 17 15 19 17 19 17 17 16 16 15 17 15 17 19 18 16 15 15 20 18 22 18 21 25 22 20 17 18 18 13 16 13 11 15 14 13 15 13 14 13 10 11 14 12 9 12 11 9 9 16 19 14 
23 20 26 26 24 18 20 21 18 20 20 21 25 21 19 18 20 20 15 18 19 16 19 20 19 17 18 18 17 15 17 15 17 11 14 20 20 16 12 16 19 19 16 15 16 18 18 22 20 20 22 23 20 21 18 20 16 16 15 9 14 12 16 14 18 14 10 11 10 12 9 12 12 12 12 11 10 10 12 13 
26 26 27 26 23 18 17 18 20 17 20 22 20 21 18 19 16 19 19 20 18 18 18 18 24 19 16 17 18 16 15 16 16 16 16 18 16 18 17 17 21 18 15 19 19 16 20 21 21 20 21 20 21 19 19 18 18 18 16 15 13 17 19 18 16 18 12 11 10 11 10 9 9 7 10 8 9 9 12 14 
28 24 27 27 24 22 19 20 17 17 20 26 19 21 18 18 16 20 22 21 19 19 21 20 20 17 19 14 18 17 19 16 18 18 17 15 17 16 13 18 18 21 16 17 18 20 21 23 21 21 20 18 17 20 16 15 18 16 16 16 17 17 16 15 17 14 15 12 13 10 12 10 7 9 8 10 11 8 9 8 
26 24 27 30 18 19 22 18 18 20 18 21 23 21 18 18 18 19 18 19 23 19 19 21 16 18 17 15 15 19 16 17 18 18 16 15 18 16 15 14 18 17 15 18 20 19 22 21 23 19 21 19 17 14 17 16 17 17 12 15 13 16 16 15 16 18 15 13 14 13 10 9 7 8 11 8 10 9 10 9 
26 27 25 27 23 19 18 17 20 18 18 22 24 20 18 18 20 18 17 20 20 19 18 17 19 17 17 17 17 16 18 16 13 15 18 17 15 17 14 16 13 19 15 17 19 17 19 20 19 20 21 19 18 18 17 17 15 12 12 14 13 15 14 14 14 17 14 11 13 10 12 8 8 8 9 12 9 9 9 9 
23 20 23 22 21 20 17 19 21 15 17 22 23 17 19 19 22 20 22 17 18 16 19 18 17 17 15 14 14 17 17 15 18 16 14 16 12 15 13 15 16 20 17 18 20 22 19 20 19 17 19 18 17 16 16 16 15 15 11 15 13 14 15 17 11 14 10 11 8 10 12 8 9 8 10 8 8 12 8 7 
26 22 22 23 20 19 16 19 16 14 18 19 21 20 19 21 18 20 22 17 19 18 20 15 18 17 13 13 16 17 17 15 17 14 17 16 13 12 15 16 17 22 14 14 22 18 19 12 18 20 16 20 17 17 15 17 19 15 13 17 13 15 16 12 17 11 12 12 9 9 14 8 9 7 8 5 8 6 10 5 
26 22 23 22 22 21 18 20 17 19 17 20 18 20 21 21 19 21 19 17 19 22 26 19 17 17 15 16 18 16 16 16 16 17 17 16 16 16 16 18 17 17 15 17 21 16 19 18 19 17 17 18 17 16 17 16 17 20 19 17 17 18 15 18 16 16 15 13 12 13 11 9 5 8 13 9 9 9 4 6 
29 21 25 24 21 22 18 17 17 19 18 16 20 20 19 18 19 19 21 22 21 19 18 17 21 18 14 18 15 16 15 15 17 16 16 15 14 14 16 16 14 20 14 16 17 15 12 12 17 16 14 15 16 17 17 18 15 14 16 13 15 15 15 15 14 16 12 11 11 8 11 10 4 10 12 9 6 8 7 5 
26 23 22 25 15 21 18 18 18 19 20 21 20 18 17 16 20 20 18 19 16 18 15 16 16 17 13 15 15 13 14 15 16 12 12 11 15 13 16 15 15 18 14 15 20 15 14 13 15 14 16 17 17 17 18 16 16 16 16 17 15 15 13 16 17 15 12 9 12 9 12 9 5 6 7 8 8 5 3 5 
26 23 22 23 23 21 18 19 20 17 16 17 17 14 18 15 16 16 19 21 20 17 18 16 21 18 17 15 14 16 16 15 14 13 19 14 12 13 16 15 18 19 14 15 18 15 17 15 22 14 18 17 19 20 18 20 21 15 15 16 15 15 17 17 14 16 12 14 8 9 14 6 8 7 7 14 10 13 6 9 
30 25 24 24 21 24 19 17 20 17 15 21 16 19 13 17 16 16 20 21 17 17 17 16 20 21 17 15 16 14 14 16 12 16 17 15 16 13 14 15 19 17 11 14 18 13 18 18 19 15 19 16 14 17 19 20 20 17 21 14 14 12 16 16 16 12 12 13 13 11 10 10 8 8 12 10 7 5 7 11 
23 22 20 27 25 22 19 18 19 18 16 21 22 19 17 16 15 15 21 20 14 17 14 15 19 18 16 16 17 16 17 15 12 15 17 13 13 12 14 10 17 13 11 14 16 14 18 14 15 18 16 19 16 18 18 21 21 16 15 15 13 14 14 15 12 13 9 9 9 13 9 11 6 8 9 8 6 6 11 6 
22 19 21 21 20 23 21 17 18 17 16 19 16 21 17 18 15 16 19 19 16 14 14 14 20 19 19 17 15 13 15 16 13 15 14 12 13 14 11 12 13 15 13 14 14 13 15 16 15 16 20 17 16 18 20 20 18 16 17 14 13 12 14 12 12 12 10 10 8 13 12 8 7 5 9 8 6 7 6 11 
20 19 21 20 19 19 18 19 18 19 17 25 21 20 19 16 14 18 19 16 18 14 13 16 16 16 14 18 14 12 14 15 14 14 12 11 11 12 13 13 13 18 13 13 16 16 12 14 17 16 18 17 17 16 16 18 12 16 13 13 13 14 15 13 12 13 10 7 9 8 11 10 8 11 6 8 5 5 7 7 
19 20 19 21 18 18 18 18 21 18 18 21 31 19 19 17 14 18 15 22 18 17 14 13 14 17 14 16 11 14 13 15 13 13 11 10 11 11 13 13 19 20 16 14 16 13 17 15 20 17 17 17 17 13 17 16 17 16 15 11 12 14 13 13 13 13 10 10 8 10 10 5 4 7 11 9 5 1 6 9 
20 19 16 19 18 19 17 21 21 17 19 20 22 19 17 16 18 17 15 17 20 15 16 12 13 15 14 15 14 11 13 14 16 15 14 10 15 14 10 14 10 20 16 15 16 13 16 18 21 17 16 15 14 12 20 15 17 17 14 17 13 12 16 11 14 15 10 6 8 12 8 7 8 8 8 8 7 7 6 8 
19 19 16 19 18 18 15 17 19 22 18 20 20 18 13 13 12 17 15 18 17 17 18 14 16 13 10 12 16 14 14 13 16 12 13 12 13 12 15 8 16 15 24 16 16 14 16 16 20 16 17 17 15 18 16 16 17 16 18 13 12 12 17 11 17 11 12 10 9 7 6 6 10 6 11 6 7 7 4 2 
23 17 20 16 16 17 14 17 17 17 17 15 16 16 13 16 11 16 15 19 20 15 18 14 14 13 13 14 17 14 13 14 16 12 14 12 16 13 14 13 15 18 15 17 16 15 15 18 16 17 18 16 16 15 12 15 15 16 18 14 13 16 13 13 13 13 12 10 10 7 6 5 8 8 6 5 9 6 5 3 


