P2
80 60
298
148 146 148 151 148 150 145 143 142 126 80 51 72 102 111 103 110 118 114 117 122 122 116 119 120 121 121 121 123 120 122 121 113 112 121 128 126 123 133 137 134 139 134 138 134 135 139 132 137 134 135 135 133 137 135 137 137 134 128 129 127 130 130 135 134 133 135 139 140 139 141 142 142 146 148 144 143 137 141 139 
151 149 153 147 146 150 149 144 137 125 70 42 58 98 112 100 117 118 115 117 124 121 116 120 121 121 128 122 124 123 120 120 109 113 124 128 127 123 132 136 138 140 134 139 138 137 137 136 134 136 133 132 134 135 136 138 139 136 131 127 131 128 128 132 135 130 135 139 138 138 143 145 145 144 149 145 143 144 142 138 
149 148 158 149 149 151 145 142 137 117 57 35 48 87 104 100 108 114 120 123 126 119 117 121 124 124 126 123 123 125 122 121 107 113 125 128 124 123 133 136 139 141 136 137 140 137 137 139 136 132 134 136 133 136 133 136 134 132 132 127 127 125 129 136 134 129 137 141 137 143 147 145 144 142 146 143 144 146 140 143 
153 153 151 150 145 152 145 142 137 113 51 30 42 84 99 101 110 114 122 122 121 127 122 122 123 128 129 126 124 124 120 119 110 108 124 126 126 125 135 138 140 141 138 141 136 136 138 135 139 134 135 134 136 135 133 136 133 131 129 133 130 129 129 135 136 131 139 141 139 140 146 145 142 142 145 144 146 145 145 141 
155 152 149 150 145 154 149 140 140 111 43 29 46 80 102 101 111 119 121 121 120 127 125 126 125 126 133 127 120 120 117 115 110 112 125 127 125 133 141 140 139 142 140 141 137 137 140 138 138 136 135 135 137 136 133 137 134 130 133 132 128 130 132 137 138 133 144 148 140 141 144 147 144 141 145 145 147 146 146 142 
146 152 149 147 149 149 148 137 136 106 42 30 54 80 94 96 113 120 116 121 121 125 121 121 126 126 125 127 121 119 119 113 108 109 120 123 125 126 146 143 138 140 141 139 139 139 143 137 138 137 136 136 139 139 139 139 135 133 134 133 130 127 133 141 136 134 140 148 146 145 148 148 142 145 144 147 146 145 144 147 
149 150 149 147 147 149 143 138 137 105 41 31 53 78 94 97 116 114 119 122 125 122 122 121 122 125 125 127 121 123 120 115 111 107 122 129 125 130 141 142 138 142 138 139 139 140 140 138 139 137 134 137 135 136 137 137 136 138 132 132 130 129 132 136 135 135 138 142 144 141 146 145 143 142 149 146 145 144 146 138 
148 149 149 151 149 155 146 138 131 101 40 38 61 81 94 96 110 115 116 120 124 123 122 119 123 127 124 125 123 121 120 113 109 107 122 126 127 128 135 140 137 137 137 138 140 139 139 136 138 137 137 138 140 136 139 140 134 136 133 131 130 133 135 135 135 138 139 146 142 140 146 144 143 144 145 142 146 143 142 137 
149 154 149 153 149 148 144 135 131 97 29 32 61 79 95 97 113 114 114 116 122 119 116 121 125 123 122 122 124 124 120 112 112 109 121 125 124 126 135 137 136 138 136 137 137 138 137 136 136 136 139 136 135 138 136 138 132 133 133 133 126 131 132 135 136 138 141 140 140 142 140 144 145 144 145 144 142 137 139 139 
150 148 154 153 150 149 144 130 132 93 24 19 55 74 87 98 108 106 108 107 116 117 114 118 119 121 123 123 124 118 118 112 108 111 121 124 122 133 133 136 137 136 137 136 138 137 136 137 138 135 137 133 137 135 135 137 134 130 128 134 128 132 134 137 136 137 138 142 140 141 140 144 143 144 142 141 143 140 138 135 
145 148 152 150 148 149 148 132 127 89 15 9 36 57 82 92 102 103 106 103 115 114 111 117 119 119 121 121 123 121 118 110 107 115 121 125 123 129 138 137 137 136 135 138 137 136 133 133 137 134 134 137 135 135 136 137 133 132 130 131 127 128 131 137 136 134 140 143 138 139 144 141 144 141 142 146 139 143 139 137 
142 147 151 150 149 150 144 133 127 80 14 7 34 46 71 88 95 101 102 103 108 111 111 116 115 121 119 125 121 118 118 111 106 114 120 120 122 131 136 136 139 138 136 138 138 137 138 138 137 131 136 134 137 137 133 136 134 131 130 129 125 131 133 138 138 133 141 141 140 139 142 143 141 145 143 148 144 146 144 135 
146 145 148 157 152 149 141 130 128 78 12 5 24 43 72 80 91 93 102 99 109 113 107 114 118 115 124 122 120 117 119 109 104 115 122 117 121 130 138 133 135 137 137 140 141 140 138 136 137 134 140 133 134 132 133 136 136 134 131 129 129 131 137 137 135 133 141 142 139 141 138 146 142 143 143 141 144 143 141 139 
145 144 153 151 151 150 144 135 128 75 12 6 23 48 68 81 84 87 98 104 117 111 109 110 114 115 117 121 115 119 117 111 108 110 120 116 117 130 137 134 135 137 136 139 138 143 138 139 138 140 139 134 133 134 135 138 135 133 131 132 132 128 132 133 138 134 138 145 139 142 146 143 142 144 140 142 142 144 144 138 
139 142 150 153 147 149 139 137 127 73 8 3 26 49 64 73 77 87 94 110 120 116 109 109 109 113 117 117 119 119 115 105 107 116 118 115 116 127 133 135 133 138 136 139 134 136 137 137 138 137 134 137 133 133 136 136 139 142 134 134 128 131 133 136 141 137 143 145 138 138 144 141 142 143 144 142 144 143 140 139 
140 134 150 154 150 148 143 135 127 71 9 7 25 48 67 71 73 79 98 116 129 123 108 110 115 113 116 117 118 120 114 105 105 115 119 115 118 133 126 137 137 139 136 136 137 136 139 135 138 135 138 135 137 139 132 138 136 137 136 136 131 131 136 134 136 138 138 146 141 139 145 144 145 145 145 143 145 146 143 140 
139 129 152 153 146 148 146 134 124 70 8 8 19 41 64 71 77 78 94 116 118 111 99 106 110 111 117 115 118 117 115 106 102 120 122 116 125 133 136 139 133 139 136 136 134 137 137 136 136 135 135 132 135 137 137 137 137 135 133 134 127 130 139 135 135 136 140 145 138 142 143 151 147 145 143 141 140 143 143 142 
131 126 145 154 148 148 145 134 123 67 4 4 22 40 62 66 77 82 95 114 117 112 108 109 111 119 113 116 114 117 110 104 108 121 120 116 125 133 137 139 137 136 136 139 138 138 137 135 136 133 134 136 133 134 137 136 137 141 135 132 130 134 136 135 137 138 140 148 144 140 144 148 148 145 144 142 146 142 144 141 
121 117 142 152 145 151 145 132 114 62 7 3 21 43 65 74 85 100 109 108 117 116 116 117 112 111 113 111 117 115 113 104 107 123 122 117 125 134 142 139 137 140 136 139 139 135 135 131 133 132 135 134 138 137 134 138 135 136 135 131 128 135 137 137 139 138 140 144 141 144 147 148 144 144 145 143 142 143 142 139 
114 118 140 147 146 147 144 134 114 60 5 0 20 43 62 78 91 96 103 104 109 121 120 118 110 112 117 115 114 116 112 99 106 117 120 116 119 136 141 142 139 141 137 135 139 134 137 134 133 134 134 133 136 133 134 138 132 132 132 129 128 132 138 137 133 136 136 141 143 144 146 144 145 144 144 141 145 140 144 140 
122 121 136 144 147 149 141 135 106 55 2 1 21 39 65 80 87 93 95 98 108 112 116 118 113 110 113 115 110 113 115 103 102 118 119 117 119 134 137 139 138 144 136 135 138 135 137 132 136 135 135 134 136 137 140 134 135 128 130 131 127 129 133 136 137 134 138 142 143 145 149 147 144 143 145 143 144 140 146 140 
122 124 132 145 143 147 142 134 104 57 10 5 26 50 65 78 80 87 93 93 106 112 114 112 113 111 110 111 112 112 112 105 103 119 115 116 118 127 134 137 137 140 136 136 134 136 133 137 134 135 136 135 135 135 136 134 131 132 133 132 128 130 132 138 139 137 142 142 141 146 145 147 145 143 145 143 144 143 144 140 
127 128 130 146 142 143 143 134 98 53 5 10 25 45 72 81 89 86 91 97 100 108 109 114 116 109 109 113 111 110 110 103 98 120 116 115 118 134 133 139 136 137 134 136 134 134 138 134 136 137 136 136 136 134 134 133 132 128 133 132 131 131 131 136 138 141 142 145 140 143 147 146 145 142 144 146 144 145 141 141 
121 121 130 141 142 141 139 140 100 49 12 10 24 48 74 93 89 91 94 96 103 106 110 117 118 107 108 112 111 110 106 100 104 121 116 115 118 134 131 134 136 137 135 136 137 135 134 134 136 135 137 135 133 134 132 132 133 133 131 129 127 129 134 136 139 137 145 145 142 144 146 149 146 144 147 144 143 143 143 147 
116 116 127 135 136 142 140 132 95 47 20 20 33 53 71 87 94 94 98 98 103 107 103 109 109 105 109 107 109 108 104 96 100 116 116 113 115 135 133 135 135 136 135 138 138 140 136 137 135 134 133 132 132 136 132 135 134 129 134 132 131 129 132 137 137 142 144 146 142 143 145 146 144 147 146 145 148 145 148 146 
104 114 128 135 136 138 138 120 88 45 22 22 36 56 69 82 89 91 95 92 104 104 97 102 103 103 106 108 107 105 102 96 99 113 114 113 121 133 133 133 135 138 136 139 136 138 137 136 132 135 133 133 134 137 132 131 130 129 126 129 128 130 132 137 143 140 143 144 141 145 144 147 146 144 148 146 148 144 146 141 
105 112 127 137 136 137 138 120 83 44 21 30 38 51 65 72 78 88 94 96 103 104 102 99 101 105 108 106 108 106 99 100 101 115 113 112 116 133 131 134 135 137 138 138 140 136 138 137 135 135 133 135 133 131 131 136 132 129 126 131 128 131 133 139 139 140 143 146 139 141 144 147 144 145 147 145 149 145 142 141 
108 126 131 137 136 137 137 116 87 42 26 33 35 52 65 68 84 86 92 93 102 100 98 98 104 107 107 109 108 105 98 100 101 114 113 108 120 131 131 136 136 138 137 139 137 135 138 133 134 135 134 132 133 132 134 136 131 127 130 131 130 131 132 139 139 140 144 149 147 147 148 146 146 149 148 145 145 143 144 143 
113 121 127 136 132 135 134 113 87 43 23 36 42 50 67 73 78 79 86 91 92 92 93 96 100 106 103 105 107 106 102 94 97 113 109 109 114 134 135 137 136 139 138 138 141 138 137 134 137 134 136 130 135 133 134 133 130 124 125 129 129 130 132 140 141 140 143 149 143 147 152 148 145 150 148 148 147 147 141 147 
107 91 110 119 117 127 124 106 88 45 27 39 42 51 60 69 75 81 84 84 89 92 91 93 96 98 103 104 103 105 92 93 96 110 107 108 117 128 131 134 136 138 135 138 140 139 137 137 136 136 134 133 134 133 131 131 130 129 126 131 128 130 138 140 141 141 147 146 144 149 149 148 143 148 147 150 144 145 139 140 
75 80 81 84 90 94 84 86 78 43 25 42 45 49 54 62 73 77 83 83 88 88 85 88 96 99 101 101 102 104 92 87 94 108 104 105 115 131 133 135 135 137 140 139 139 136 137 136 136 136 134 135 134 134 132 133 131 129 126 134 131 131 138 143 141 139 145 150 145 148 150 150 145 149 144 145 142 148 140 137 
64 72 74 77 83 70 71 78 76 35 20 32 44 50 54 60 68 70 82 80 87 84 84 91 96 99 99 101 102 100 90 92 95 100 98 102 116 131 131 134 137 139 138 141 140 136 140 137 137 137 137 131 133 134 134 136 134 139 137 136 135 136 144 138 145 142 145 149 147 150 152 150 148 147 148 147 146 146 144 140 
62 61 73 73 75 72 68 77 72 28 8 26 40 52 56 56 68 75 80 82 78 82 88 95 98 103 105 103 103 102 95 85 89 99 95 99 111 127 132 134 135 140 146 147 145 148 142 134 134 135 135 135 135 134 135 138 141 157 152 144 144 142 143 144 145 145 148 153 149 153 153 151 150 150 147 148 149 145 145 142 
53 53 71 69 70 67 62 65 69 26 0 21 35 52 53 57 68 74 77 77 83 113 123 135 134 139 138 135 133 133 127 105 95 95 88 94 111 126 128 137 135 144 176 205 182 148 145 139 136 138 139 140 137 140 135 138 143 177 186 186 175 170 155 154 155 152 159 157 152 154 151 157 148 149 151 149 148 149 146 145 
57 44 63 55 60 57 58 65 63 13 6 32 43 49 56 58 61 70 70 71 91 130 136 143 148 149 144 148 145 144 145 130 88 89 87 96 109 122 129 135 138 144 195 243 215 153 143 142 142 141 139 141 136 138 136 137 142 184 188 191 198 198 195 191 178 163 159 162 157 156 154 154 152 151 153 149 148 150 150 146 
40 45 50 44 49 51 53 61 57 18 11 38 45 47 52 53 57 64 66 68 115 138 142 150 150 149 151 151 148 148 149 144 101 90 85 89 107 123 127 133 135 147 191 258 222 158 162 153 145 141 139 136 135 134 132 136 153 187 192 197 201 204 211 212 212 206 195 180 164 161 157 158 154 153 150 145 153 149 150 148 
40 40 44 39 44 43 44 52 49 25 19 32 46 52 44 48 50 56 57 70 133 142 143 149 148 153 153 154 153 153 152 151 106 88 80 91 104 123 127 126 138 143 177 207 205 159 153 142 144 140 137 136 136 135 133 133 156 186 191 205 206 210 211 215 217 217 205 197 182 180 175 163 158 155 155 152 153 153 150 148 
41 39 40 42 39 47 45 41 41 20 27 41 48 50 50 46 50 55 64 96 143 142 148 150 147 151 152 157 152 150 153 150 124 90 81 83 103 123 131 132 136 146 176 189 190 177 148 139 140 137 137 134 135 134 138 142 168 194 195 205 208 211 220 222 220 221 212 202 194 195 198 190 181 167 165 158 152 157 153 155 
40 37 38 36 29 35 33 34 44 54 66 66 51 53 50 50 49 56 77 125 144 147 146 150 153 156 153 154 151 154 151 149 141 96 79 84 107 120 127 131 136 156 169 173 178 180 168 139 138 137 136 136 134 136 134 138 176 198 197 204 209 212 223 227 222 218 216 203 192 199 201 205 204 198 188 174 161 157 154 155 
39 30 29 30 25 28 27 35 56 74 79 82 54 50 48 44 52 59 102 136 148 147 149 152 152 153 156 157 155 157 153 151 141 123 78 84 109 121 125 129 134 153 159 168 166 164 164 140 135 135 134 133 138 141 139 141 184 196 205 210 210 216 225 228 225 221 213 207 192 199 205 206 207 210 204 200 191 173 164 156 
57 43 41 39 32 35 45 53 65 75 82 79 62 56 52 53 58 83 128 145 152 151 146 153 156 160 162 158 154 156 155 156 148 145 111 89 112 127 127 130 137 150 151 153 147 144 147 138 138 136 136 142 145 150 145 158 201 203 207 215 213 219 228 229 226 226 222 206 198 202 203 207 204 210 212 213 205 201 195 175 
66 57 51 46 46 44 51 56 60 74 79 76 62 67 67 58 77 118 140 145 147 150 149 154 156 155 159 159 154 155 155 154 149 151 140 114 118 126 132 138 136 145 142 150 144 142 145 137 136 139 136 142 146 148 152 165 212 209 214 216 216 222 230 236 230 227 216 211 198 207 213 213 216 219 213 214 211 204 200 196 
72 71 82 76 75 80 81 82 80 82 91 84 87 84 82 87 110 135 145 143 143 147 150 158 157 160 158 154 154 161 157 147 146 144 146 151 128 130 134 130 134 141 140 141 143 139 139 138 138 135 134 143 142 142 148 172 230 222 221 224 219 228 240 242 234 230 229 213 202 207 215 218 220 220 216 216 217 210 204 200 
89 90 104 98 102 105 104 100 105 99 104 108 109 113 107 110 131 139 146 142 131 142 149 157 157 161 160 161 161 156 157 143 134 145 148 150 144 131 134 133 132 137 137 139 138 139 142 145 140 136 135 139 137 139 146 162 218 240 231 239 228 231 245 246 242 241 229 214 204 209 215 224 219 222 219 218 219 209 205 196 
93 104 104 105 101 109 108 105 106 102 102 102 110 111 112 115 134 141 145 137 132 135 147 157 159 157 159 156 154 154 154 146 135 141 148 148 150 137 137 131 134 136 136 141 145 141 148 144 138 139 134 136 138 136 139 148 158 188 234 253 238 245 255 257 249 244 241 218 214 212 218 221 224 224 225 220 217 211 203 198 
109 103 108 104 104 104 103 103 105 105 104 106 109 111 113 118 139 137 146 140 126 149 151 156 158 160 157 156 155 156 152 149 138 139 148 149 152 141 136 139 136 142 139 145 144 148 151 147 146 141 138 132 132 132 146 147 150 153 171 219 260 261 273 270 263 251 244 220 212 216 221 226 224 228 233 226 217 214 207 193 
109 109 106 99 102 104 104 103 102 104 102 104 110 110 110 119 136 142 147 143 146 150 153 157 158 158 162 156 156 159 155 149 143 148 147 149 151 143 137 138 137 143 142 144 146 148 149 150 150 151 144 136 135 137 149 154 153 157 153 159 184 246 285 277 282 265 254 227 215 219 222 229 229 229 233 230 218 215 207 199 
107 109 109 102 101 102 104 102 104 102 100 102 105 108 107 116 136 141 150 149 159 156 156 155 155 158 158 157 155 158 154 152 151 155 150 152 151 145 130 131 125 138 139 142 146 145 150 145 144 138 138 137 137 139 150 156 152 148 149 153 147 166 210 271 298 287 256 232 221 219 227 230 236 236 235 227 221 220 211 190 
112 106 105 103 101 109 107 104 105 99 100 102 105 112 105 112 130 139 147 150 155 157 163 160 158 159 157 156 160 157 154 154 153 156 155 153 148 149 134 123 127 131 132 132 139 137 136 132 133 134 134 132 134 138 137 149 148 142 147 145 149 147 161 185 229 259 252 236 227 226 229 237 238 239 236 231 230 218 204 190 
107 107 105 102 103 102 105 101 106 103 103 105 108 108 109 109 126 142 147 146 154 155 156 158 157 159 157 158 159 156 157 154 154 154 149 151 147 146 140 127 130 134 139 140 138 139 134 128 136 135 138 135 137 140 140 145 141 143 141 149 147 146 152 151 163 182 201 230 232 232 235 245 236 237 236 233 225 221 211 189 
102 106 106 103 100 98 102 102 107 102 103 104 107 106 103 103 119 135 147 146 152 154 156 156 159 155 158 157 155 155 155 153 153 155 153 149 145 144 144 142 136 141 148 146 147 145 144 137 138 138 141 142 142 147 143 147 145 146 145 149 148 145 146 153 157 154 162 183 224 238 243 243 242 240 245 236 226 224 213 177 
110 106 105 102 102 101 102 101 106 101 101 101 105 104 105 103 113 135 144 143 155 157 155 162 159 158 158 156 155 154 154 154 153 152 155 149 144 144 142 145 142 147 153 160 155 150 147 141 140 144 141 139 143 151 147 151 150 149 149 154 150 148 147 149 151 152 155 163 174 215 244 250 246 246 241 241 233 221 216 171 
107 104 104 101 99 99 105 105 102 102 102 101 103 109 105 103 116 139 148 148 155 156 154 159 156 156 157 157 159 155 154 155 153 153 149 146 142 138 142 142 150 147 153 166 161 157 160 147 146 146 145 143 143 150 151 158 153 151 157 168 175 168 152 149 149 148 154 158 154 170 213 251 255 253 254 246 236 230 223 173 
105 101 102 100 100 102 105 105 101 101 98 101 104 109 108 105 114 138 142 143 153 156 153 160 161 160 156 155 158 158 154 154 155 151 149 148 140 136 136 142 153 153 156 167 167 164 162 153 150 143 148 147 146 151 157 162 163 159 159 167 174 187 168 148 147 145 154 151 148 157 166 207 248 266 261 248 244 237 223 173 
105 104 106 96 100 99 101 104 100 99 99 101 105 110 112 112 120 135 142 145 149 153 155 161 158 160 163 156 159 154 153 153 150 152 148 145 139 133 139 150 150 161 157 165 162 161 159 161 155 147 148 148 150 149 151 158 161 162 166 165 170 178 174 159 151 147 150 146 147 149 156 164 192 246 264 260 246 242 226 173 
101 100 106 102 98 98 101 99 101 103 101 103 105 113 127 137 128 134 143 146 152 153 156 159 160 162 159 158 154 155 153 151 150 150 146 145 140 133 134 140 155 157 160 163 166 163 163 157 155 150 149 150 148 151 151 159 161 164 163 167 162 169 163 156 165 166 157 151 149 148 155 153 158 184 236 262 260 241 220 166 
106 106 105 98 96 96 95 99 98 103 103 102 113 122 140 139 141 139 144 146 150 154 155 156 154 159 156 155 153 154 149 150 151 150 144 143 142 137 135 139 153 157 159 163 166 167 166 163 162 156 156 154 154 152 153 159 161 164 161 168 164 162 158 165 176 182 172 154 149 155 150 150 151 165 185 226 255 254 209 165 
105 102 103 96 96 96 101 99 103 101 100 100 105 121 145 146 146 135 141 143 150 150 152 152 153 156 154 153 153 150 146 146 146 149 143 144 146 140 137 145 155 159 157 162 167 171 178 170 162 159 156 157 156 158 157 156 162 162 165 169 167 162 158 167 177 182 177 160 147 146 152 149 149 157 159 169 211 233 194 155 
107 103 104 99 93 95 103 99 102 102 101 102 103 117 144 146 140 137 133 142 143 147 150 151 150 154 152 151 152 149 146 146 146 147 144 144 141 137 136 156 163 168 163 161 163 164 178 171 170 161 158 159 157 157 158 157 157 158 160 163 163 164 162 166 171 170 157 154 148 146 149 147 150 149 152 149 159 169 169 149 
106 101 108 100 101 99 98 97 102 99 98 100 104 121 144 144 141 139 136 138 144 142 145 146 146 150 149 149 147 149 143 143 143 145 141 142 143 132 132 153 162 165 163 160 162 165 177 168 172 163 162 161 162 164 157 157 158 156 156 158 158 160 158 162 159 157 160 154 148 150 147 147 147 150 146 151 151 149 152 146 


