P2
80 60
265
53 53 49 55 54 53 53 51 52 57 58 56 58 58 58 57 56 53 56 49 47 44 56 50 62 54 56 59 68 72 71 71 72 70 71 74 73 74 73 75 76 74 74 74 76 74 75 71 75 74 73 73 73 70 75 74 75 78 69 73 69 75 77 73 74 81 72 75 72 76 78 79 78 80 81 76 80 78 77 76 
50 49 51 56 56 53 55 55 53 56 60 59 56 58 57 58 61 54 56 52 46 44 56 56 60 57 59 62 66 70 73 74 71 70 75 74 76 74 74 78 76 76 73 77 73 77 74 75 74 74 75 74 73 75 78 76 77 80 75 72 71 72 75 76 73 79 74 71 74 78 77 77 78 83 81 80 80 78 76 74 
46 52 49 54 55 55 50 49 54 55 59 55 59 58 57 58 57 55 57 45 47 44 56 55 60 60 57 62 64 79 67 75 72 74 76 73 76 73 75 76 78 75 75 75 71 75 75 76 74 74 74 75 75 74 74 73 74 76 74 74 72 72 75 79 74 75 74 76 78 77 83 77 77 82 81 82 83 83 75 76 
46 48 47 54 53 54 52 51 56 54 59 57 63 57 56 59 55 54 57 50 40 44 59 58 60 60 61 60 66 75 73 73 77 72 80 76 79 75 78 75 77 75 78 74 75 77 78 75 77 76 74 76 76 73 75 78 70 75 75 74 76 72 78 75 73 77 74 74 77 79 78 81 76 83 82 78 80 86 81 78 
48 51 46 55 53 56 51 53 54 52 56 57 58 57 62 59 54 55 50 48 42 46 58 58 61 61 62 62 64 74 69 73 72 72 73 76 78 77 78 77 77 76 75 78 74 76 77 77 74 75 77 75 74 77 74 77 74 73 74 72 74 72 78 83 78 79 74 78 78 77 79 79 78 80 84 81 82 83 79 80 
46 45 44 50 51 55 56 55 56 52 57 57 58 61 62 62 58 56 53 49 40 46 62 63 64 59 60 61 66 73 70 72 72 72 73 72 78 75 79 76 75 78 79 76 75 77 80 77 79 76 77 77 75 76 76 80 77 77 77 73 72 71 79 79 77 79 76 83 83 76 80 77 80 81 83 82 83 84 82 80 
40 49 45 53 48 54 52 51 58 58 58 61 56 59 59 60 60 56 56 47 46 48 60 57 61 56 54 62 65 76 70 71 72 72 74 73 78 75 79 75 78 77 73 76 74 78 77 78 76 77 74 79 77 76 75 75 78 83 83 76 74 70 76 76 78 80 74 79 80 78 80 79 78 82 83 82 83 81 80 84 
43 48 50 52 50 59 59 64 60 57 54 54 59 60 59 58 64 54 56 50 44 53 58 54 61 59 53 64 69 75 73 70 69 73 70 75 77 77 77 77 75 77 74 77 76 78 77 74 73 80 79 80 81 75 79 81 75 79 78 73 72 76 77 77 75 82 77 79 82 76 80 82 80 86 80 78 80 78 79 85 
40 43 45 49 50 57 73 69 65 65 62 60 57 60 58 59 61 50 52 42 43 51 61 54 62 58 54 64 73 77 75 70 72 74 72 76 78 78 75 75 78 76 76 75 77 75 75 77 76 76 79 77 78 78 74 78 75 76 75 75 72 78 80 75 80 82 77 78 78 81 79 77 79 80 83 78 77 77 74 79 
38 43 42 49 43 60 73 78 72 64 57 57 59 54 56 61 62 53 47 41 35 52 58 57 60 59 54 62 71 74 69 71 71 72 75 77 78 73 75 75 79 75 77 75 75 75 73 75 76 77 75 73 74 75 75 74 75 70 73 74 69 75 79 78 75 77 76 77 79 78 75 80 77 80 77 80 78 80 78 75 
34 39 42 44 50 59 76 65 67 56 51 56 55 57 56 56 53 49 52 44 37 49 57 53 58 54 57 62 67 76 70 71 69 71 74 72 77 73 80 74 77 74 74 73 73 76 74 74 74 77 76 78 75 75 72 76 77 74 77 73 70 74 75 78 76 76 76 82 79 75 76 79 77 77 81 80 79 82 79 77 
37 36 42 48 48 55 69 70 68 53 51 53 54 56 50 55 48 54 45 36 33 55 57 57 59 54 57 65 70 76 73 74 75 73 73 73 75 76 78 75 77 76 74 74 75 74 74 74 74 74 74 76 76 71 75 74 75 73 73 73 69 77 78 78 76 78 76 77 76 76 76 77 80 82 79 85 83 79 79 79 
33 40 39 52 53 59 72 69 63 54 51 52 50 52 53 51 54 45 45 38 35 53 57 55 57 51 57 61 68 73 73 72 72 75 69 71 77 73 75 74 75 74 74 74 75 74 75 76 73 76 76 76 73 70 73 76 74 76 73 71 71 76 82 81 78 78 78 78 78 76 67 75 78 79 85 85 83 81 74 73 
35 38 52 58 58 62 65 66 66 62 61 56 50 52 52 58 49 48 50 32 41 53 56 54 58 53 58 62 66 74 68 71 73 76 74 72 75 75 73 74 78 75 75 78 75 77 76 77 77 79 78 76 73 72 72 74 74 77 73 73 72 77 81 77 80 80 76 78 76 75 76 74 77 80 82 82 81 85 76 74 
34 48 55 60 60 61 57 61 65 64 63 65 59 52 52 51 52 44 42 35 35 50 57 58 52 52 55 62 69 71 71 70 70 72 73 71 74 73 74 75 77 74 75 77 73 77 76 75 77 79 76 74 73 73 74 76 76 85 76 74 71 75 78 77 77 79 80 80 78 77 79 78 78 84 80 79 80 85 75 79 
39 51 55 58 57 56 56 55 62 57 64 63 65 55 53 54 50 43 40 35 34 55 53 56 54 49 59 66 70 73 70 71 69 72 76 73 76 75 74 77 78 75 76 73 72 74 77 72 77 73 76 75 74 76 74 77 77 78 76 76 72 76 80 77 76 82 78 81 82 77 79 80 80 79 82 83 80 83 80 79 
38 47 53 56 55 56 51 58 56 57 58 60 61 53 54 55 54 50 46 30 34 49 55 56 56 51 63 65 72 70 71 70 76 77 76 75 77 76 75 74 75 74 78 73 71 77 75 74 73 75 74 75 76 74 76 75 80 76 73 73 70 75 78 76 76 79 80 81 79 80 83 82 87 81 79 81 79 84 79 82 
43 47 48 56 53 54 51 48 60 59 63 62 64 58 55 53 52 44 46 36 39 56 55 57 59 59 59 66 71 72 72 71 75 76 73 74 76 75 76 76 79 76 73 75 76 76 75 72 74 73 74 73 70 75 79 73 73 79 75 74 70 74 74 79 77 82 75 80 81 81 82 84 82 83 84 79 80 83 78 75 
45 48 49 56 53 53 52 54 53 54 62 64 64 57 53 50 48 46 46 34 33 55 58 54 56 53 60 67 72 71 69 75 74 77 74 74 77 77 75 79 80 79 73 78 74 74 74 70 73 73 75 72 76 75 75 76 75 76 76 73 72 76 77 80 79 82 76 80 80 79 81 82 79 81 82 81 81 83 80 80 
46 51 49 53 55 50 50 50 53 56 61 61 65 52 50 51 48 45 42 42 31 57 63 57 55 57 63 70 70 77 72 74 72 73 75 76 78 77 77 78 80 75 75 73 73 74 70 72 74 75 73 76 75 74 76 76 72 73 73 70 71 75 75 80 80 77 78 80 82 80 81 79 81 80 79 78 79 80 80 79 
50 48 46 54 50 53 50 51 56 53 60 59 69 58 50 47 54 42 39 35 32 54 57 55 57 50 57 69 72 72 77 71 73 72 74 75 75 76 77 75 79 76 72 74 73 73 75 72 74 76 76 74 74 72 75 70 78 71 75 74 75 76 81 79 77 79 80 80 81 83 83 81 78 84 82 80 81 83 81 80 
47 51 45 54 49 54 52 48 54 53 56 60 73 55 50 48 51 43 41 33 29 54 60 55 53 51 64 71 68 73 73 70 72 74 76 75 75 74 75 77 78 78 74 74 72 72 71 73 72 74 77 73 72 75 74 72 73 75 77 71 74 74 78 81 83 81 77 84 84 86 82 84 80 84 81 81 81 82 79 79 
41 49 49 58 52 50 55 54 52 52 55 53 57 47 45 48 48 42 38 35 32 54 52 50 48 49 59 74 70 73 71 71 72 74 73 76 76 74 74 79 78 75 74 74 73 71 72 73 73 77 76 75 76 72 74 73 71 72 74 71 77 77 80 77 81 84 81 79 83 83 80 83 83 81 80 79 81 86 79 77 
33 38 46 55 50 49 49 56 53 51 52 45 45 49 52 51 48 45 42 32 35 53 53 51 50 52 60 69 70 70 70 73 73 75 73 75 75 73 75 73 76 74 73 73 72 73 70 72 72 74 79 74 76 73 71 71 72 74 73 71 71 74 76 79 79 81 83 81 87 85 85 85 83 82 82 83 85 83 84 84 
29 31 37 46 51 47 48 49 53 51 46 46 47 48 48 48 47 43 38 33 44 51 54 53 50 52 58 70 71 70 72 70 69 73 75 73 75 75 72 76 75 74 76 75 75 68 72 75 74 76 71 74 71 72 73 71 72 72 73 74 74 75 81 82 81 84 82 85 84 85 83 83 82 87 85 83 82 85 81 86 
28 30 41 44 46 47 43 45 44 50 45 45 47 49 46 47 48 45 29 32 42 56 56 51 49 49 60 72 69 70 70 68 72 71 72 74 76 73 74 76 77 76 72 74 74 75 77 75 75 77 75 72 74 73 69 73 71 73 74 72 72 76 80 80 83 81 81 81 81 80 81 82 81 85 89 85 81 83 84 85 
27 30 35 44 42 42 41 42 46 45 43 40 45 42 48 49 46 40 31 26 47 52 57 52 50 49 59 69 69 69 72 67 73 73 73 71 73 75 73 75 76 72 79 73 76 75 73 73 73 72 72 74 72 72 71 73 70 72 70 71 72 75 79 76 78 84 81 81 83 82 83 83 83 81 83 81 84 84 83 81 
28 31 34 43 44 41 37 40 36 40 44 43 45 45 42 45 43 35 30 27 46 56 53 46 49 51 59 71 69 71 70 68 71 71 73 73 72 72 75 79 75 74 75 73 74 72 73 71 73 72 74 72 70 70 71 72 70 71 70 72 78 75 79 81 83 82 82 84 84 87 84 80 84 86 83 85 82 83 82 83 
26 31 35 41 39 34 31 32 37 36 38 40 40 43 41 43 43 34 30 27 38 48 51 47 43 47 56 69 69 71 67 72 70 74 72 72 76 73 77 78 78 75 73 74 72 72 75 73 71 71 71 71 71 71 70 69 71 69 72 71 73 76 78 81 81 84 80 82 86 82 87 85 84 84 87 82 86 83 79 87 
26 28 40 41 35 30 27 28 31 26 33 37 38 41 41 41 40 33 23 26 34 47 47 42 43 41 58 66 68 68 70 72 70 69 73 75 74 75 76 77 78 75 75 74 72 73 73 69 72 73 73 74 73 71 69 70 69 71 71 72 74 78 81 85 82 85 90 85 84 85 85 84 81 84 84 89 82 84 81 84 
22 27 35 40 33 25 21 29 27 30 34 34 37 36 38 40 41 34 20 26 31 45 43 38 39 46 58 67 70 68 69 69 72 73 74 74 77 75 74 78 78 76 80 79 76 73 71 74 75 72 71 72 71 71 70 74 75 75 76 77 77 80 79 87 83 84 82 88 85 84 87 87 85 88 82 86 83 86 85 82 
19 31 34 31 27 24 28 22 25 28 32 32 33 36 37 42 39 28 26 22 26 44 45 36 40 44 55 64 72 70 70 71 73 72 73 77 79 74 76 77 80 77 76 78 76 72 72 73 74 75 74 71 76 73 74 79 81 82 83 83 84 83 87 84 83 88 83 89 88 88 87 86 86 87 88 81 86 86 81 81 
16 29 36 31 23 26 24 26 28 26 31 31 35 35 38 40 40 27 24 24 27 42 39 36 39 46 53 65 69 71 70 71 72 72 76 78 77 78 77 82 81 80 81 79 76 78 75 74 76 76 75 77 78 74 77 82 90 89 88 88 86 84 86 88 85 86 88 92 98 91 90 84 87 90 90 88 83 87 82 84 
16 25 28 23 24 21 21 21 26 29 29 35 35 35 33 37 37 29 19 22 24 39 36 31 30 38 54 62 65 72 69 69 74 74 75 86 88 93 80 80 83 83 80 77 75 74 75 76 75 77 79 79 78 78 77 83 118 118 125 116 98 89 90 86 90 90 91 91 89 91 89 94 87 90 91 88 86 87 85 83 
15 20 26 23 25 26 37 33 38 35 44 49 52 51 48 47 46 36 31 23 24 33 34 24 30 34 44 59 65 68 67 72 71 74 83 124 152 154 122 95 82 83 84 81 79 81 82 75 81 79 81 82 78 74 80 85 128 131 132 133 130 131 122 109 97 90 94 89 92 90 91 90 90 93 90 87 90 90 86 85 
13 17 19 42 65 71 70 70 72 70 73 78 83 75 77 76 72 69 58 49 28 32 29 22 29 29 46 58 63 66 70 71 76 77 83 135 169 174 153 92 84 79 84 81 82 81 83 83 77 77 74 75 70 70 74 95 128 132 133 141 133 141 145 144 134 127 112 104 97 96 92 92 92 93 92 91 89 89 87 85 
11 14 15 61 81 86 82 79 83 80 81 86 82 80 80 84 84 81 84 76 32 33 28 17 24 32 45 55 65 69 65 71 73 72 82 144 203 206 153 92 96 90 88 88 82 81 81 79 78 71 72 75 71 72 75 104 128 134 140 143 143 141 145 149 153 156 144 138 128 115 103 96 94 94 94 95 92 93 89 90 
1 13 31 68 85 92 86 83 89 85 86 91 94 87 88 86 85 90 86 80 46 29 29 16 19 28 42 55 59 66 66 68 76 74 81 128 183 186 153 102 90 96 87 85 78 78 76 76 74 76 74 75 75 74 73 108 134 134 142 144 146 147 148 154 158 165 154 156 151 143 137 130 113 104 101 97 93 94 91 99 
0 3 55 80 86 91 91 88 89 89 91 90 88 91 85 93 90 88 85 88 50 27 27 13 20 27 40 56 59 66 63 69 72 77 81 106 142 149 140 107 82 77 78 79 75 76 75 72 75 75 79 76 76 72 78 116 136 137 142 147 147 148 152 154 159 163 158 155 155 154 146 144 140 135 123 112 103 100 98 95 
1 28 74 89 85 93 92 92 91 90 97 93 94 93 89 95 90 89 92 86 74 33 23 19 20 32 48 59 58 67 65 71 74 75 85 110 135 135 124 131 102 82 77 78 76 76 81 76 76 74 80 78 75 73 83 128 137 138 145 146 147 153 155 162 160 163 160 158 154 158 155 149 146 145 141 134 121 113 107 104 
12 43 86 91 84 88 87 91 92 91 95 94 94 97 90 94 93 88 92 91 83 44 25 15 20 31 48 58 63 63 61 68 72 75 97 114 120 119 124 123 124 97 75 79 74 76 75 75 76 77 77 77 78 79 85 137 142 138 140 147 154 158 160 160 163 167 163 163 163 159 154 153 149 149 146 142 133 131 132 126 
14 58 88 89 90 89 86 94 92 90 91 96 98 97 94 92 95 91 98 92 84 69 24 12 19 25 44 60 63 65 62 70 74 85 101 111 112 114 113 120 119 109 79 77 75 76 78 73 80 77 77 77 78 77 93 146 148 144 147 153 157 162 165 165 167 169 164 168 165 163 157 153 151 152 149 141 135 141 135 135 
26 72 91 93 93 92 93 90 94 93 98 90 98 94 96 96 93 92 92 94 92 78 40 17 19 27 42 55 58 70 67 70 73 81 94 100 108 112 110 114 119 110 79 78 74 75 75 77 84 81 81 82 79 80 111 151 146 143 148 155 153 162 162 173 172 172 168 168 169 166 160 155 154 152 148 142 138 137 138 140 
48 75 88 92 97 94 89 89 87 89 93 99 97 95 94 97 93 90 92 94 92 85 63 18 17 27 42 53 59 65 67 65 76 83 88 95 101 106 102 101 90 83 77 77 73 75 81 82 84 84 85 87 86 89 126 154 148 146 151 158 162 160 167 167 171 175 171 171 173 166 160 161 154 155 151 141 133 139 136 138 
78 89 94 96 95 95 92 90 87 85 91 96 97 94 93 97 99 93 93 94 95 82 84 41 21 25 44 59 59 65 66 71 74 76 81 86 89 87 80 79 78 75 73 76 75 74 78 84 86 84 88 88 91 96 134 154 153 152 154 159 165 166 170 170 172 176 173 169 174 169 167 164 155 156 157 139 137 136 141 140 
86 91 90 96 96 92 91 91 92 87 91 95 99 99 97 98 98 93 96 95 88 89 85 70 40 27 44 56 65 67 69 73 78 73 77 82 81 76 76 77 76 80 73 73 73 72 73 81 84 84 87 88 94 95 149 157 155 159 159 165 165 164 168 169 172 176 178 177 175 171 170 165 161 162 156 143 135 138 140 142 
87 95 93 94 92 97 90 90 91 91 89 96 98 99 95 99 96 93 96 96 93 88 89 78 73 50 49 57 66 70 63 66 75 74 76 76 76 73 77 75 77 75 77 74 69 71 79 77 77 79 81 88 94 95 169 165 166 167 169 170 171 164 171 174 175 176 178 180 178 175 170 166 168 165 161 141 139 141 138 142 
94 97 95 96 98 99 97 94 92 90 94 97 99 100 97 97 100 96 95 93 88 92 91 84 85 74 53 53 65 72 62 69 72 76 73 74 77 74 76 76 78 77 75 77 74 75 80 73 81 77 79 83 88 98 163 189 182 176 172 177 172 167 170 175 175 179 179 186 183 176 175 168 170 174 161 144 141 144 144 148 
97 92 93 95 94 100 98 93 91 91 94 96 98 99 95 99 100 97 92 89 81 91 94 86 89 85 80 64 68 70 65 68 71 70 72 74 78 76 75 81 78 78 79 79 77 75 81 73 74 74 77 80 80 91 115 159 193 196 188 183 180 175 176 177 182 185 184 187 184 181 177 175 172 181 157 148 143 145 145 150 
93 95 92 91 91 95 94 94 97 94 95 97 99 97 101 98 101 96 96 87 74 82 83 80 87 88 88 83 72 71 68 68 72 68 76 74 80 75 78 76 86 80 83 79 78 79 75 71 76 71 75 80 87 90 93 103 129 168 196 205 196 183 181 180 185 197 187 192 192 186 184 176 178 183 159 146 144 151 141 149 
99 99 82 78 83 95 95 97 99 95 94 98 101 101 101 101 96 92 91 88 73 75 78 80 90 90 93 87 74 73 70 71 75 76 81 80 87 82 86 84 89 86 86 85 87 83 76 71 73 72 77 85 95 99 96 102 103 113 146 200 222 211 193 195 195 196 197 196 198 190 183 182 184 187 157 152 147 149 148 154 
97 87 71 74 76 97 95 98 92 94 98 99 99 96 99 98 95 94 93 84 75 74 76 77 91 93 93 91 80 77 76 78 77 79 86 80 83 84 89 87 89 88 89 89 91 84 84 76 72 75 78 86 99 104 100 104 106 101 103 134 175 202 219 217 207 208 205 209 205 197 191 186 190 192 164 153 146 146 146 155 
98 82 62 69 91 96 95 94 93 93 97 96 97 98 97 99 94 92 96 92 78 75 75 78 90 93 93 92 86 80 70 71 71 72 78 79 81 82 84 85 90 86 90 93 90 91 89 79 83 79 84 93 96 97 98 98 100 93 97 103 113 138 193 232 235 230 221 218 212 204 200 200 200 194 159 152 150 152 153 156 
95 71 64 69 92 98 94 95 92 92 99 97 99 98 97 98 96 91 91 92 80 75 77 80 94 93 93 94 85 83 67 66 70 72 76 75 80 77 81 79 87 78 83 83 84 81 83 85 83 81 86 86 90 88 89 92 94 91 93 94 96 98 121 170 215 246 235 236 227 219 207 204 213 192 161 156 158 154 155 161 
92 67 65 71 92 98 96 95 95 96 99 98 103 97 95 98 97 96 93 94 92 85 83 89 94 93 103 94 83 72 59 60 60 65 69 65 70 70 75 76 78 72 74 83 77 75 74 75 75 73 82 86 90 93 90 90 92 95 94 96 91 92 98 104 133 183 221 253 254 237 224 222 220 192 165 159 155 158 157 159 
96 80 73 81 97 99 93 93 96 95 101 102 100 99 99 98 95 93 97 93 94 98 92 86 94 96 97 96 84 83 63 55 63 62 65 65 69 65 68 70 74 72 63 71 66 70 71 72 74 74 76 75 82 81 90 92 86 91 94 96 95 94 93 95 102 114 150 203 253 265 246 230 233 189 169 161 161 156 161 164 
91 96 89 97 97 98 94 94 95 95 100 99 107 101 100 96 98 93 97 98 99 99 95 91 93 94 98 93 86 84 71 56 59 64 65 65 69 66 65 69 73 66 60 63 70 74 74 75 78 76 75 75 79 80 86 88 88 87 91 92 94 93 97 91 98 101 108 129 179 227 240 246 236 183 172 168 165 168 159 157 
96 99 93 100 99 100 98 97 95 99 98 103 103 101 99 98 99 94 97 98 99 98 101 94 95 92 95 92 86 83 75 70 54 65 67 69 73 72 73 74 75 72 67 64 71 82 83 84 75 82 80 80 79 80 86 89 90 89 87 88 92 93 95 94 94 102 97 104 115 138 183 209 206 190 175 173 171 169 166 169 
97 98 97 101 100 104 101 96 98 97 102 100 101 100 98 95 96 92 98 97 97 98 99 92 94 92 95 91 82 80 78 74 63 63 72 75 79 74 73 75 76 73 82 73 74 75 82 80 82 77 81 82 86 81 87 84 88 91 92 90 88 89 87 91 94 96 95 97 104 103 112 133 147 159 180 177 177 174 173 173 
96 101 94 102 100 103 99 100 98 97 101 101 103 99 97 96 101 94 95 94 94 94 96 91 92 91 93 88 81 82 76 76 73 67 74 77 82 75 81 79 77 76 79 77 73 75 77 76 80 83 82 84 87 84 83 88 87 91 96 94 92 91 88 92 93 91 94 96 94 96 98 99 97 116 148 176 187 180 176 173 


