P2
80 60
136
121 123 117 121 120 114 108 103 102 111 108 111 113 114 110 115 116 117 115 118 117 115 115 110 113 121 122 123 117 122 124 121 123 124 126 114 118 123 124 124 120 124 127 122 124 123 127 122 124 123 124 127 127 124 121 126 127 128 128 123 127 125 122 120 121 118 115 116 117 116 120 119 115 113 117 108 113 110 113 113 
121 120 122 118 118 113 107 105 105 108 107 111 115 114 114 114 115 116 113 117 118 114 115 110 113 119 121 121 119 121 121 124 121 126 124 115 120 123 125 123 121 121 124 126 124 124 123 124 123 123 125 123 123 124 125 129 127 126 126 122 122 120 119 122 118 115 114 117 113 113 116 115 114 112 115 111 113 112 114 112 
117 122 120 119 122 116 104 104 104 104 106 114 113 118 114 116 115 116 113 117 119 116 112 114 112 119 121 123 119 121 121 121 121 126 130 121 121 125 125 125 124 122 123 122 123 127 125 127 125 127 127 126 123 126 125 126 124 124 125 123 124 124 120 123 119 115 116 118 117 116 119 117 112 115 114 114 127 115 117 114 
119 123 118 120 124 112 107 105 105 106 106 113 111 111 112 115 116 114 114 114 116 116 113 114 116 116 120 120 118 121 122 122 123 127 125 117 123 126 127 123 127 121 124 124 124 124 127 124 127 126 123 128 126 122 123 124 123 123 123 126 128 124 124 121 117 115 117 118 122 115 117 123 111 115 117 110 114 115 116 120 
116 121 119 120 119 114 105 103 105 108 104 107 113 113 114 117 114 111 112 116 113 112 114 114 116 119 124 121 118 124 117 118 118 119 122 120 121 126 128 123 122 122 122 122 124 123 127 129 123 125 124 126 125 121 124 126 126 122 126 124 126 122 119 124 119 115 119 121 117 117 116 118 113 114 118 115 111 111 116 116 
118 121 117 122 119 113 106 105 108 106 103 111 111 113 111 115 111 114 112 118 114 116 116 113 117 120 120 122 118 121 122 115 117 120 118 118 120 127 127 122 124 124 121 116 121 121 127 125 124 124 126 127 124 122 125 128 122 123 124 127 124 123 123 124 119 116 118 121 122 119 119 117 113 112 115 112 111 115 117 120 
118 121 119 119 120 115 103 104 106 106 104 113 108 111 108 109 114 113 111 114 115 115 113 114 114 118 119 117 119 119 117 117 118 122 123 120 124 123 124 122 122 122 119 122 122 123 124 124 124 124 125 129 127 126 125 126 124 128 132 124 124 122 121 120 120 117 117 122 118 119 116 117 112 114 116 114 110 112 113 115 
121 123 119 121 118 118 105 101 106 104 99 106 111 109 108 112 113 111 111 112 120 113 109 112 113 122 118 119 118 120 117 117 115 122 122 121 122 126 125 122 120 121 121 122 123 126 122 121 120 125 127 123 127 124 126 124 124 127 127 121 125 123 122 121 118 121 114 119 118 118 113 117 111 113 112 110 111 109 111 118 
119 122 120 122 120 114 106 103 105 104 101 107 107 107 108 111 112 113 114 116 112 111 110 111 113 117 117 119 121 120 122 114 121 121 120 115 121 122 122 120 118 119 120 120 122 125 121 121 120 125 126 126 124 126 122 124 122 123 125 120 123 121 122 120 118 113 120 119 117 117 118 117 113 114 116 108 110 111 112 118 
121 122 121 119 118 116 102 99 105 105 104 107 109 102 109 111 113 108 110 109 113 109 106 109 110 117 116 122 116 118 114 115 116 120 117 117 119 121 118 120 118 118 118 120 121 121 122 119 118 124 124 123 125 122 121 123 122 117 124 123 122 121 121 122 117 119 119 121 122 117 115 117 111 111 111 110 110 112 111 117 
118 121 115 122 121 109 86 79 94 104 107 106 108 103 103 106 111 109 109 109 110 109 105 105 112 115 116 115 116 118 118 114 116 120 117 113 119 121 118 121 118 118 120 117 119 120 119 119 118 121 126 125 121 121 122 121 123 122 125 123 122 121 121 122 116 116 118 121 116 115 117 118 111 112 112 113 115 111 113 113 
119 122 119 128 118 102 39 34 78 100 103 104 106 106 103 105 106 104 104 108 112 107 105 107 107 114 116 116 115 117 118 114 117 124 114 111 116 118 118 119 119 118 120 118 119 119 120 121 121 120 121 122 123 118 123 122 123 126 123 122 121 122 124 119 118 115 115 117 116 112 111 114 113 115 115 116 114 107 112 114 
119 123 121 123 117 96 10 14 63 97 98 105 101 104 103 102 100 101 104 104 108 106 105 107 106 115 113 119 113 118 113 114 117 121 117 111 117 124 118 117 119 117 118 115 119 120 123 123 121 120 125 121 120 117 121 122 121 123 121 123 124 122 127 118 119 111 117 120 117 114 106 114 110 112 117 114 116 116 116 111 
118 124 117 116 114 92 10 3 60 92 93 97 101 102 99 103 102 103 102 103 109 104 105 104 107 111 112 111 109 112 113 113 114 121 114 110 118 128 117 119 118 114 116 116 117 120 121 120 122 128 123 120 119 116 120 123 122 125 124 121 124 121 121 121 117 115 118 121 114 110 112 110 111 114 114 110 116 112 116 113 
122 115 116 115 114 91 0 7 53 89 94 96 99 99 99 101 101 102 98 104 105 101 104 106 103 113 110 110 110 114 114 112 114 119 113 110 118 120 115 118 116 116 116 115 115 119 119 120 119 123 121 122 124 120 118 123 123 136 122 120 118 119 120 120 116 113 120 120 117 113 114 113 114 112 111 110 110 118 113 111 
120 121 119 117 112 94 6 7 50 87 92 96 99 99 100 101 100 100 99 96 103 102 101 99 107 111 108 111 110 111 112 109 111 114 112 109 114 115 115 116 116 115 115 115 115 117 116 118 119 117 118 118 121 120 121 121 119 125 125 119 121 121 120 117 118 114 117 114 116 111 114 118 116 114 113 108 109 112 111 114 
122 121 117 116 115 100 12 5 43 83 92 98 98 97 100 100 100 99 97 95 100 96 98 99 103 110 107 110 110 110 108 110 109 117 110 112 114 119 112 115 112 113 117 113 114 115 116 116 115 116 117 118 118 117 116 121 121 124 124 118 119 118 114 119 114 113 113 117 115 115 117 120 125 118 116 110 106 113 114 113 
116 120 115 120 110 97 16 4 38 82 90 96 98 99 99 97 99 99 96 94 99 97 98 100 100 109 105 109 108 109 110 108 114 113 106 108 115 114 113 115 113 112 113 111 110 111 115 111 114 115 115 115 120 117 121 118 118 125 120 118 116 116 115 115 115 111 109 115 115 116 118 123 121 116 118 109 110 114 110 110 
116 119 114 120 113 104 18 4 24 81 89 98 98 101 97 98 97 97 96 96 97 96 101 99 102 110 111 106 108 106 111 109 113 115 112 111 117 115 115 117 116 110 109 111 109 108 112 113 114 113 115 117 118 116 117 121 119 121 119 119 118 115 112 118 113 112 110 121 118 117 117 118 116 114 116 112 112 112 114 114 
120 119 114 116 116 104 22 1 18 72 93 96 100 97 102 101 98 94 92 89 95 101 99 100 104 108 111 109 109 111 111 109 111 114 110 107 116 114 113 116 111 112 107 108 108 109 110 110 112 112 117 113 116 116 114 118 117 117 119 113 117 114 114 112 112 107 110 117 116 117 118 119 115 113 115 112 110 110 114 117 
119 114 114 114 111 99 27 3 10 60 93 96 102 105 102 93 94 95 91 88 90 97 97 100 102 108 104 106 107 112 113 107 110 112 107 111 114 115 114 111 107 109 108 110 108 107 107 108 112 115 115 116 117 115 118 114 113 116 119 117 114 114 115 115 112 109 112 116 116 115 119 117 114 109 113 110 113 113 114 113 
114 117 111 113 111 99 33 0 6 54 94 98 108 104 101 88 86 92 90 85 95 93 96 94 99 106 104 105 106 108 110 105 104 109 108 109 112 115 119 111 108 110 106 105 108 109 107 109 113 114 113 114 117 115 115 116 113 113 116 115 118 113 117 115 115 111 114 118 119 119 119 118 116 114 113 108 112 110 116 114 
114 115 111 120 111 102 54 14 21 66 92 103 106 109 104 93 85 88 90 84 91 94 93 95 97 104 105 105 105 108 108 101 106 108 105 109 112 117 112 109 105 106 107 106 110 107 108 110 110 112 114 113 116 116 114 114 113 114 115 111 118 116 115 111 109 114 119 122 116 116 119 117 118 116 114 110 111 113 114 117 
118 114 112 113 112 107 92 62 45 93 104 103 108 104 104 101 99 89 91 88 91 92 94 93 97 105 104 105 102 106 101 104 105 108 105 109 112 113 109 105 106 103 104 106 111 110 108 109 109 117 115 112 114 112 113 115 113 113 116 115 112 114 114 114 110 112 120 122 119 118 116 118 116 113 112 111 112 114 117 119 
115 116 112 110 110 105 99 90 95 102 103 107 106 106 104 105 104 94 92 88 90 92 91 94 97 101 102 106 98 101 102 99 101 103 103 106 112 111 107 107 104 101 104 105 106 111 107 109 112 113 111 114 111 110 114 110 114 112 115 112 114 114 113 114 112 114 118 117 118 117 117 119 114 118 116 111 113 115 122 122 
110 113 110 111 108 106 100 91 99 104 106 107 107 105 107 104 100 102 93 91 94 95 90 92 94 99 102 99 100 100 99 97 99 102 97 108 112 103 106 105 104 106 106 105 105 107 107 110 111 112 111 111 111 110 109 112 111 112 118 113 114 114 111 110 112 115 116 119 121 113 117 115 115 114 115 109 113 112 115 114 
110 111 107 107 111 108 102 88 98 101 107 108 105 103 105 106 103 101 97 94 96 92 95 91 95 98 98 100 98 100 99 100 100 99 100 105 108 101 105 106 104 105 105 104 106 104 104 109 108 110 111 111 111 108 107 110 108 109 114 114 113 108 111 106 114 114 115 117 114 114 112 115 114 112 114 110 108 111 114 118 
106 112 108 109 111 106 101 92 94 101 101 103 103 101 104 106 99 101 101 101 100 96 93 95 93 102 100 100 99 100 100 97 99 97 101 105 104 102 105 107 97 102 103 104 103 104 104 103 106 109 110 109 108 106 108 107 109 110 113 110 113 111 108 109 115 112 111 118 115 119 114 114 113 114 112 108 109 110 111 111 
108 112 109 108 110 107 102 94 93 101 103 105 103 105 103 105 104 102 102 101 101 101 96 94 95 96 99 103 101 100 102 102 104 105 99 104 110 104 105 107 99 102 104 100 102 102 106 102 106 112 109 109 108 107 108 111 108 107 110 109 113 111 109 111 114 112 116 116 114 113 115 115 115 112 111 106 109 110 112 109 
110 110 110 111 109 109 99 98 101 104 102 102 103 103 102 103 102 100 101 97 102 102 100 96 99 106 107 106 102 105 104 106 103 102 103 106 106 105 103 103 101 103 104 105 102 106 104 107 105 109 107 106 107 105 107 106 109 109 114 111 111 109 106 110 114 114 119 117 116 115 117 113 116 113 112 114 110 109 110 109 
108 113 108 109 108 110 101 97 94 98 102 104 103 104 103 104 107 104 99 98 100 102 102 104 103 109 108 107 107 105 106 105 104 103 99 103 107 101 101 102 99 107 107 105 105 105 104 108 104 105 105 106 109 106 107 110 109 109 111 107 109 108 108 112 113 111 113 113 114 112 113 116 112 112 111 109 109 109 113 111 
108 117 109 108 106 106 101 103 94 94 101 104 103 103 104 105 107 103 102 99 101 98 102 103 106 107 109 107 106 104 104 108 107 105 98 106 105 101 100 101 105 104 104 104 104 106 107 104 106 110 106 105 107 108 109 111 109 109 110 107 111 112 108 113 115 110 111 115 116 116 115 117 114 111 111 106 108 105 113 110 
104 111 108 110 107 106 105 101 97 90 104 102 103 103 103 104 105 103 99 100 104 102 103 105 107 109 107 108 108 109 109 106 107 103 102 108 104 100 100 100 100 105 107 103 102 105 107 104 107 106 106 107 107 105 107 111 109 108 108 108 110 107 111 111 116 111 111 114 117 117 115 117 113 111 110 108 104 108 113 108 
106 108 108 107 109 103 103 101 99 92 100 103 101 102 103 104 106 107 100 103 102 99 104 102 106 109 108 108 106 109 105 107 106 103 97 105 105 99 98 100 98 103 108 105 103 103 103 105 102 107 108 106 106 106 105 107 108 108 107 107 107 110 110 112 115 111 113 113 113 114 116 122 110 110 110 109 110 112 109 110 
109 110 112 105 108 107 101 97 98 90 98 105 104 101 102 103 106 104 102 102 103 105 101 104 103 107 106 106 106 109 108 106 106 104 97 106 104 97 97 98 100 101 103 105 104 104 102 102 104 106 108 108 108 107 107 108 107 113 108 106 104 108 113 115 113 110 114 112 115 114 116 113 112 111 110 108 110 109 110 110 
108 112 109 106 106 111 103 99 101 91 94 102 103 101 100 104 104 105 104 103 105 104 105 102 106 105 105 104 104 107 107 107 104 101 99 103 104 99 97 97 99 100 102 100 103 103 101 104 103 107 110 109 110 105 106 112 109 111 107 109 105 107 111 113 116 109 113 119 116 113 116 115 110 110 109 107 111 114 112 112 
102 109 106 106 108 108 101 97 100 94 97 102 102 100 101 100 106 107 103 103 102 104 103 102 102 106 104 104 105 105 107 105 106 102 100 103 105 101 97 92 98 96 100 99 101 103 102 104 102 106 109 107 109 106 109 107 109 105 106 111 106 106 110 114 117 111 114 115 116 112 112 112 110 111 111 105 112 110 113 111 
106 112 106 107 106 109 102 99 98 97 93 99 103 100 100 102 104 108 102 101 105 105 104 102 105 106 104 100 103 107 106 107 103 96 98 106 101 97 95 98 97 96 102 99 100 104 102 104 102 105 106 107 108 106 109 111 108 108 108 106 107 106 111 111 113 114 113 114 114 113 110 110 108 108 112 109 111 110 113 117 
107 114 116 108 105 109 101 101 99 97 96 105 102 102 101 103 105 108 104 104 103 103 102 104 103 108 103 102 103 104 107 105 106 101 98 102 100 95 96 94 96 95 101 99 100 102 102 103 103 105 105 105 111 105 108 106 111 110 110 112 112 112 110 115 116 114 113 113 114 114 113 113 109 108 109 106 107 108 114 112 
105 110 109 109 105 104 100 98 100 96 107 108 101 100 99 103 105 105 104 100 101 104 102 105 106 106 106 106 103 104 105 103 104 103 99 102 100 100 95 96 97 97 96 99 98 104 109 106 105 107 106 108 113 109 112 111 114 113 115 117 115 113 115 113 112 111 113 113 116 112 109 109 107 107 110 105 112 112 115 115 
106 110 104 109 107 106 101 98 96 95 102 104 103 103 102 103 105 107 103 103 107 102 103 103 104 106 107 105 104 104 103 104 105 105 106 101 101 101 100 97 100 100 99 98 100 105 109 110 106 110 114 116 117 119 120 120 117 119 116 117 116 118 116 113 115 113 113 112 114 113 112 112 111 109 110 107 112 108 119 114 
104 111 107 116 108 106 102 98 97 97 100 101 101 103 100 105 103 104 102 101 102 104 103 106 104 108 107 104 102 105 103 102 102 100 104 107 101 100 102 103 102 102 105 102 103 110 112 116 115 117 123 121 127 120 119 121 125 119 116 119 117 116 117 117 115 111 112 111 115 111 111 109 113 107 110 108 107 106 112 117 
106 106 113 104 106 103 100 96 97 97 98 100 99 102 101 102 102 105 103 104 102 102 103 105 102 105 103 104 99 102 101 98 99 97 101 103 101 101 102 102 100 103 104 105 112 113 119 122 121 122 125 123 124 117 117 121 121 115 117 117 120 121 118 117 115 111 114 114 112 111 111 110 109 109 109 105 106 109 111 114 
106 109 108 109 106 106 100 96 95 99 101 104 104 101 105 101 103 102 104 102 104 104 105 103 99 100 100 99 98 100 100 97 98 96 101 104 102 104 101 106 105 105 113 113 116 118 121 131 122 123 123 123 124 117 119 118 116 118 119 118 121 117 117 118 118 110 112 114 115 111 110 111 109 109 110 107 109 109 113 115 
104 109 104 104 110 105 100 97 98 100 100 101 104 107 103 103 102 105 101 98 102 97 98 96 97 100 96 100 95 100 100 97 94 97 103 103 103 103 101 104 105 111 113 115 117 118 120 124 122 123 123 122 121 117 120 117 119 121 120 119 120 118 119 121 113 110 112 116 113 109 111 111 111 108 111 109 108 109 111 110 
105 108 105 107 110 101 102 101 101 100 100 98 101 101 102 98 100 101 98 97 97 95 96 96 95 98 97 97 97 97 99 98 97 93 101 102 100 103 101 103 106 111 115 115 118 122 122 120 119 123 122 122 119 115 116 121 117 116 119 115 117 116 118 115 114 112 113 115 112 109 109 110 111 110 112 108 110 109 108 112 
104 111 104 105 105 106 99 104 100 96 97 100 100 97 98 100 96 97 96 96 98 98 97 99 94 99 100 98 95 98 97 97 99 96 103 102 101 105 100 102 105 109 115 114 117 118 121 121 119 123 121 119 120 115 116 118 117 117 117 116 116 115 117 115 111 114 111 112 113 110 110 113 108 111 113 107 112 111 113 108 
107 109 107 106 107 107 105 106 103 100 100 101 101 97 99 98 99 100 102 100 101 98 100 97 92 103 102 98 99 101 99 101 98 97 101 101 100 105 104 104 107 113 114 116 119 119 120 118 118 123 117 116 118 117 118 120 119 121 119 114 118 117 115 118 113 112 114 113 114 112 112 112 105 111 111 101 109 114 108 108 
107 111 103 104 106 110 109 106 105 98 105 102 105 100 100 99 104 108 102 103 99 104 107 100 96 103 103 101 98 104 102 99 99 98 100 99 99 105 104 105 108 113 112 117 118 119 115 116 115 121 121 120 120 117 117 122 121 121 118 117 118 121 116 118 116 114 112 114 115 115 113 115 110 109 111 110 109 110 112 111 
104 111 107 110 108 108 108 108 105 99 106 104 105 103 104 106 106 105 103 101 100 104 103 103 97 101 105 99 102 104 104 101 100 103 101 99 99 105 103 105 107 108 112 114 117 118 116 118 117 119 121 117 124 122 119 122 119 120 120 120 120 117 115 117 112 114 114 115 115 115 114 118 111 111 113 108 110 109 111 111 
104 115 106 110 113 108 111 106 106 103 107 105 107 103 108 104 102 107 105 102 101 103 102 103 100 104 101 100 105 103 101 99 103 104 102 100 101 102 103 105 106 109 114 113 116 118 114 113 114 120 120 118 122 121 120 120 118 123 120 119 121 118 117 113 113 109 114 114 117 113 113 116 112 112 111 110 110 114 110 108 
108 113 110 112 111 113 109 106 106 102 105 103 104 106 107 107 107 105 107 103 108 106 105 104 101 106 103 105 104 102 103 98 102 103 106 97 102 101 103 107 107 111 109 114 113 115 116 117 115 120 120 118 121 120 120 120 118 118 122 122 118 117 116 116 113 110 114 115 114 114 116 115 114 109 113 109 111 109 109 109 
107 108 109 109 112 113 108 107 106 103 105 109 107 105 107 108 107 108 107 107 105 104 106 109 107 108 104 101 102 104 104 104 102 102 103 96 100 100 104 105 107 110 111 112 113 114 113 117 115 119 122 118 121 121 121 124 119 121 128 120 121 116 117 117 112 113 113 112 112 114 113 116 106 110 113 104 111 108 110 110 
112 111 106 111 118 110 111 107 104 101 106 106 111 106 108 111 109 107 106 107 106 108 107 107 108 109 106 106 102 105 106 104 105 103 104 94 102 100 105 105 104 107 110 111 112 112 117 115 117 117 121 121 122 121 121 124 123 122 123 122 120 121 120 114 110 112 114 113 115 113 115 114 113 112 114 108 108 111 112 107 
106 109 108 109 110 111 108 108 105 102 106 106 109 105 108 109 109 106 106 107 105 105 107 110 106 112 110 105 104 103 104 104 104 105 96 95 101 101 102 103 102 105 107 107 110 110 112 116 112 116 119 119 121 122 118 122 121 119 121 119 122 120 118 114 112 113 114 113 114 113 120 113 111 112 111 104 107 106 110 106 
109 106 106 110 112 112 108 107 107 107 103 107 110 110 112 107 108 112 113 106 108 109 109 109 107 110 108 105 105 106 105 101 102 104 100 94 99 102 102 102 102 106 107 111 113 112 112 115 113 116 119 117 119 120 118 121 120 121 124 118 119 115 115 114 117 115 114 114 113 117 116 112 110 110 111 107 107 106 115 107 
108 109 108 111 109 109 108 107 105 105 104 106 113 109 108 112 108 111 110 113 111 108 110 110 108 112 105 109 106 104 106 105 103 104 99 96 97 101 102 106 104 107 113 108 110 112 116 116 113 113 116 117 118 117 118 120 119 122 119 120 120 115 114 115 115 114 112 115 118 113 113 115 111 108 111 109 107 110 110 109 
108 109 109 112 114 108 111 109 110 108 106 103 111 107 105 110 108 111 112 110 110 111 108 106 107 106 106 105 108 105 106 102 103 105 103 98 101 103 108 105 107 107 110 107 110 111 113 114 114 118 118 116 116 115 118 118 119 118 120 118 120 121 119 116 115 113 113 112 115 114 116 114 110 110 109 111 107 111 108 111 
105 111 105 113 111 110 109 110 110 116 106 106 109 110 107 108 111 109 110 107 109 108 107 110 104 108 107 104 108 104 100 102 103 105 101 99 102 102 104 102 102 107 110 106 107 111 114 113 113 115 117 112 114 115 117 119 117 116 118 119 116 120 118 116 113 114 110 112 114 113 113 114 110 107 111 105 108 109 108 110 
106 106 108 113 113 111 106 109 106 107 103 104 107 109 105 107 109 112 111 109 105 106 108 106 104 108 106 104 107 107 105 104 105 107 108 105 107 104 105 101 100 106 102 105 104 109 111 110 111 114 117 116 114 110 115 116 116 116 118 118 116 117 118 116 112 110 110 112 110 112 114 115 109 108 109 104 108 107 106 102 


