P2
80 60
38
16 19 21 18 19 22 19 19 23 21 20 16 14 17 14 14 16 20 14 17 20 17 17 16 15 18 16 15 20 21 19 19 19 20 16 18 19 19 18 20 17 21 21 20 20 20 20 14 18 21 19 20 20 23 26 23 25 23 24 21 17 16 16 17 14 14 14 11 10 12 10 9 9 11 10 7 8 7 8 8 
18 25 21 20 18 19 17 19 23 20 17 18 18 18 19 18 21 19 18 16 23 18 16 13 13 18 20 17 18 21 19 22 22 16 20 20 20 19 21 24 23 22 22 20 20 21 18 21 20 19 18 20 22 22 26 27 26 24 22 20 17 17 15 15 20 13 15 8 7 9 7 12 12 12 11 9 12 8 12 10 
18 20 20 24 22 18 19 17 20 22 18 20 14 18 19 19 17 21 17 18 20 20 14 18 17 20 16 19 18 23 24 23 21 21 20 18 20 21 23 22 22 22 23 21 20 20 21 20 22 22 23 19 16 20 24 25 20 21 23 21 17 18 11 17 23 19 14 12 10 12 18 12 11 12 11 13 13 9 18 8 
26 21 23 23 22 18 18 17 21 26 20 18 16 22 20 13 22 22 20 16 20 17 21 18 20 15 19 19 20 20 27 27 25 18 16 19 25 19 25 23 22 22 23 23 20 21 25 20 26 21 19 25 19 24 24 26 22 21 21 22 21 18 17 14 16 13 13 14 12 11 16 20 17 14 13 11 10 11 13 7 
28 24 23 19 22 23 20 19 20 22 20 21 20 23 21 22 19 21 16 20 19 22 21 22 23 20 25 18 21 21 23 23 21 17 19 21 23 22 28 25 25 23 25 24 20 23 25 22 22 22 20 22 20 22 26 26 20 20 19 19 24 18 16 19 16 13 18 15 10 13 16 16 13 18 13 16 12 11 15 14 
21 20 22 23 21 21 21 18 27 22 21 22 16 19 23 20 20 23 18 22 23 22 23 22 24 20 21 21 21 23 23 22 21 19 20 21 20 21 24 25 24 26 25 20 21 23 31 26 22 21 24 23 22 23 23 30 25 21 24 23 18 17 15 19 18 16 16 16 18 13 15 16 12 12 16 12 12 9 11 11 
23 20 22 23 25 21 20 19 26 22 22 23 19 22 20 20 25 22 25 20 22 25 22 25 23 21 19 21 23 22 18 20 19 19 19 18 23 19 24 24 24 22 21 22 23 24 26 24 25 23 21 23 23 25 23 30 24 28 29 22 22 18 15 19 18 17 19 19 15 13 13 13 13 16 14 17 10 9 12 10 
24 25 24 24 26 28 21 23 26 22 21 22 19 19 19 20 20 21 21 21 27 21 19 26 21 21 19 24 21 22 21 18 18 18 19 22 20 22 27 27 23 22 22 22 23 23 24 23 22 24 25 25 26 25 24 27 24 22 22 18 20 18 18 16 18 17 19 17 14 17 11 13 16 15 9 10 7 8 9 10 
23 24 25 21 24 24 22 20 24 23 22 21 19 22 20 17 24 22 21 17 21 19 19 22 21 25 22 18 22 24 24 17 18 19 19 20 21 26 23 20 22 19 22 21 22 25 22 20 21 23 24 25 21 24 25 25 22 23 21 20 18 20 18 16 18 17 18 17 15 15 13 12 15 12 10 8 11 7 10 11 
22 26 24 24 25 22 22 21 21 21 20 21 19 20 19 20 25 19 18 17 22 21 20 21 19 19 17 23 22 21 20 19 19 19 18 19 19 19 20 20 19 18 24 21 21 21 22 20 21 22 18 20 21 22 22 26 23 19 19 19 16 19 20 18 18 19 19 14 15 15 13 14 14 13 9 12 11 0 10 11 
24 24 22 22 28 26 28 21 23 23 22 20 17 19 19 20 21 17 20 15 20 20 20 18 19 20 18 20 21 19 21 18 20 18 15 17 21 20 24 24 21 20 18 18 19 22 20 21 19 21 20 18 20 19 21 25 24 20 21 18 18 18 16 18 16 16 19 18 11 12 10 13 12 13 9 18 9 6 11 11 
25 29 31 27 25 27 24 24 20 23 22 22 20 21 20 18 21 18 18 19 21 20 20 20 16 19 17 19 19 23 23 21 19 20 15 20 18 19 23 21 21 20 21 19 19 20 21 20 21 22 19 19 19 15 22 21 22 20 20 20 19 20 15 17 18 15 15 18 12 10 9 13 17 14 11 16 13 10 10 11 
24 25 29 30 26 21 22 19 21 23 19 23 19 18 17 17 17 18 17 17 20 19 17 18 18 16 17 23 18 21 21 19 24 23 18 16 21 17 20 21 20 23 22 21 24 22 25 20 23 23 23 20 19 18 22 23 21 21 20 18 19 16 20 18 17 13 16 13 10 13 5 8 15 12 15 17 9 9 9 10 
24 25 30 28 26 24 20 19 20 21 19 20 19 19 17 19 18 18 17 17 21 17 18 19 19 16 18 18 17 19 18 20 19 23 18 16 18 19 22 21 22 23 24 20 20 25 24 21 23 26 24 19 19 17 19 24 22 22 21 21 20 18 19 16 17 15 16 14 9 12 13 11 13 11 10 12 10 11 9 9 
23 27 27 23 24 22 21 19 21 19 18 18 18 20 15 17 20 19 14 15 16 17 19 23 20 17 16 17 18 20 18 18 18 19 17 16 17 16 20 18 21 24 21 20 20 22 21 20 22 22 21 20 18 21 20 27 25 33 23 22 20 20 16 19 17 16 17 17 10 11 10 11 14 13 11 11 7 11 12 12 
23 26 29 31 24 21 21 21 24 20 19 20 18 21 15 19 19 18 15 16 17 18 16 18 18 17 18 17 17 20 21 20 17 19 19 17 17 14 20 21 21 23 20 20 19 22 21 19 21 23 19 18 22 23 23 25 22 25 24 18 19 17 17 13 15 15 16 16 16 12 9 14 14 13 11 13 9 12 10 12 
21 30 31 28 28 20 23 21 22 21 19 21 16 19 17 21 18 20 15 15 18 16 17 19 19 17 18 17 18 19 22 20 19 20 21 18 16 17 20 22 20 23 21 18 18 19 22 18 19 19 19 21 20 21 19 23 22 27 24 20 19 20 16 16 18 14 15 12 14 12 11 14 33 13 14 12 6 12 10 10 
24 26 31 25 26 23 27 21 22 19 22 20 21 21 17 19 20 18 19 19 19 19 17 19 17 16 18 19 17 23 23 20 20 23 17 17 21 19 20 22 19 22 19 20 19 19 17 18 18 20 17 21 21 22 25 28 25 27 24 19 19 17 14 18 17 15 14 14 13 14 11 16 12 14 13 10 10 10 12 10 
27 29 27 28 26 26 25 20 22 21 21 23 17 20 15 19 19 19 21 19 19 20 21 21 21 18 19 18 19 19 23 19 22 22 23 22 22 18 23 23 23 23 20 24 21 20 20 20 18 16 17 21 22 23 24 27 27 24 23 17 21 19 16 17 16 17 15 20 14 17 14 17 14 11 10 12 11 11 11 14 
25 26 24 22 25 26 22 21 20 22 21 19 21 19 23 19 21 20 19 19 17 21 25 20 20 19 20 19 20 22 22 19 19 21 20 18 19 18 21 23 23 21 18 20 18 20 20 20 20 17 19 20 22 21 22 24 22 24 21 19 23 19 15 16 16 12 15 15 14 16 13 13 13 8 9 9 7 5 5 8 
24 25 27 22 26 24 24 19 22 19 20 22 19 24 20 18 15 18 18 16 17 20 16 20 22 20 18 16 21 24 24 24 22 20 18 18 21 19 22 20 20 23 21 20 18 18 21 17 19 21 19 19 22 22 23 21 20 15 23 18 19 18 16 16 16 14 18 18 16 14 13 12 10 15 9 9 11 6 4 7 
23 27 29 26 24 23 26 19 21 18 21 21 24 24 20 16 18 19 18 15 19 19 19 18 21 18 15 18 18 19 23 19 21 20 17 17 20 20 19 19 19 22 21 19 16 19 18 17 18 18 21 19 20 22 23 23 19 19 21 17 20 17 17 19 18 18 18 14 14 19 15 13 13 14 10 9 11 7 12 9 
24 29 30 28 29 31 22 24 23 21 18 24 23 25 19 19 20 24 18 18 18 21 18 17 19 19 18 18 19 22 24 24 25 19 16 17 23 19 21 21 20 18 19 20 20 15 16 18 17 20 21 20 21 24 23 24 18 19 19 20 24 24 16 15 17 23 18 19 13 17 13 16 17 14 13 14 8 11 11 10 
27 26 27 28 28 23 20 27 23 22 23 23 22 24 20 23 19 22 20 14 19 19 19 19 19 18 17 21 22 19 19 19 21 19 21 17 19 18 19 19 15 21 18 21 17 17 18 20 19 24 19 20 23 25 24 21 20 21 22 18 20 18 18 21 17 19 20 17 11 15 16 12 13 14 12 12 11 10 16 16 
23 25 25 25 24 23 21 24 24 22 19 19 22 22 21 19 22 23 17 18 21 18 17 17 21 18 19 21 20 20 18 21 18 17 17 18 19 16 20 20 19 18 19 20 21 20 18 18 19 20 15 18 17 23 19 19 19 21 20 20 17 17 18 12 18 19 24 18 17 13 17 16 12 17 12 11 11 9 13 17 
26 28 29 28 27 28 21 18 22 20 19 20 21 23 22 22 20 21 21 19 21 19 18 20 19 20 18 20 20 20 21 21 18 17 14 18 18 16 21 18 20 19 19 21 19 20 20 20 18 17 20 18 16 22 20 20 18 19 19 21 16 19 17 17 20 18 19 13 14 15 15 16 13 16 15 12 8 14 12 10 
26 28 27 27 28 27 25 21 22 22 19 18 20 21 20 21 23 20 20 19 20 21 24 21 20 19 18 17 17 23 21 13 19 18 18 14 19 18 17 18 18 19 19 21 20 21 19 22 20 19 20 19 18 17 18 21 22 20 17 21 18 19 16 16 19 18 19 19 15 16 15 14 16 14 10 11 12 11 14 9 
25 28 27 27 28 23 24 22 22 21 18 19 18 19 19 21 20 21 19 20 18 21 18 22 20 19 19 20 17 19 22 17 18 18 15 18 16 17 18 17 19 18 20 17 18 21 19 18 19 20 20 18 16 17 18 21 19 17 18 19 20 17 16 17 18 13 17 17 14 17 12 16 12 14 12 9 8 10 12 10 
26 31 27 26 27 25 24 25 21 20 19 19 18 18 21 21 18 21 21 21 20 19 18 21 21 20 18 19 18 19 17 18 20 16 14 16 16 13 21 20 18 19 18 20 18 18 19 18 18 20 18 16 18 17 17 19 18 18 17 16 18 17 15 17 16 16 18 19 16 16 15 14 13 11 10 13 10 9 10 9 
26 26 30 28 26 28 25 23 27 22 22 19 18 23 20 17 21 20 16 20 20 18 16 20 20 19 19 22 19 17 19 18 18 16 17 17 17 20 18 19 19 19 21 19 19 18 19 19 20 19 20 18 15 17 17 21 17 19 21 19 18 16 13 17 16 18 22 17 13 15 14 14 16 12 13 16 7 6 9 7 
27 30 27 26 28 24 22 22 24 23 19 20 17 21 18 20 23 19 19 20 17 19 21 18 19 22 20 21 19 20 20 17 18 17 16 16 16 16 17 17 18 18 23 19 21 23 18 23 19 20 18 16 21 18 17 22 16 17 19 18 18 16 17 19 16 17 17 19 16 14 15 17 14 13 11 10 8 8 10 9 
26 28 27 26 29 28 25 22 26 21 20 21 17 21 18 22 23 20 17 18 19 19 19 19 21 22 21 21 19 19 21 22 19 18 17 18 21 17 18 20 22 21 21 21 20 23 18 19 20 22 19 19 19 20 20 22 22 19 18 14 16 19 15 16 17 16 18 17 15 16 15 14 14 13 11 12 8 11 10 5 
27 27 29 27 28 23 22 22 23 20 22 19 21 22 22 20 22 21 17 21 21 20 19 21 23 20 19 21 16 22 23 22 19 17 18 15 20 16 20 19 19 19 22 21 19 21 22 19 19 22 18 19 18 18 19 23 20 18 17 15 20 17 18 17 17 15 17 19 19 17 14 14 12 11 9 9 7 9 12 6 
24 26 30 31 26 25 23 23 24 24 20 23 19 20 17 20 22 24 19 20 20 19 21 22 23 20 20 20 18 24 20 19 19 16 16 18 16 18 23 22 20 22 24 22 22 21 20 21 21 18 16 19 17 17 19 20 19 17 18 17 19 21 15 16 16 20 15 15 15 16 16 10 13 11 12 12 10 14 8 11 
24 27 27 29 26 26 22 21 25 24 20 23 20 21 19 18 20 24 20 21 20 22 20 19 20 20 18 20 20 20 21 22 18 16 17 16 21 17 19 22 21 23 23 20 19 22 22 16 18 18 15 20 19 19 21 23 21 20 17 19 18 16 16 17 18 17 19 20 16 15 13 13 11 13 8 12 11 5 9 8 
25 26 28 29 29 28 24 22 24 21 22 23 20 20 21 22 21 21 21 21 23 21 20 20 22 16 19 19 19 19 21 19 20 16 18 18 19 18 20 21 22 21 20 18 21 20 23 20 19 17 17 20 20 19 21 26 19 18 16 18 16 18 16 18 19 14 16 16 15 15 10 14 14 14 10 12 9 12 10 11 
26 26 28 28 27 28 24 24 22 23 25 19 17 17 20 17 20 23 19 19 22 18 20 19 21 16 16 17 20 20 18 18 19 15 18 15 19 17 18 20 21 20 17 20 18 21 17 20 20 20 17 20 18 20 22 21 22 15 19 15 16 15 13 17 16 18 15 14 15 14 16 14 14 12 12 13 10 9 11 6 
28 33 29 27 27 28 25 23 23 22 25 21 23 18 20 20 20 24 20 19 25 21 19 20 24 17 19 15 16 20 22 20 19 18 17 17 17 18 19 20 20 18 20 22 20 20 21 19 21 21 17 20 20 24 20 22 18 12 17 17 18 15 14 15 18 17 16 15 15 14 11 13 12 13 10 13 13 9 7 10 
28 29 38 30 28 27 25 26 23 25 25 25 22 21 20 20 20 24 19 22 20 22 20 21 20 21 18 19 19 20 20 19 21 20 18 18 17 16 19 18 18 21 20 20 18 22 19 21 19 20 22 20 23 24 22 21 17 15 17 17 17 15 13 15 17 14 14 15 13 15 14 10 10 11 12 12 11 10 18 15 
27 31 30 33 28 24 25 25 25 26 33 27 23 21 19 22 23 21 20 19 23 26 21 23 25 21 21 23 18 24 19 20 21 20 17 17 19 22 20 21 21 19 22 22 17 23 21 19 21 22 21 23 24 23 23 21 19 17 18 16 18 16 15 17 20 17 18 16 12 18 13 12 11 12 11 14 12 9 16 18 
30 29 28 28 28 24 22 25 24 23 25 21 21 22 21 21 22 23 22 19 24 22 20 23 22 21 22 20 21 18 18 20 21 20 19 20 21 16 19 18 19 23 21 21 16 23 21 20 21 20 23 23 23 28 27 24 19 21 17 16 16 17 16 16 17 14 15 17 14 11 13 9 10 16 14 16 12 9 20 18 
26 27 34 26 25 23 23 25 24 23 22 21 21 23 22 22 21 21 20 19 22 21 19 22 22 21 22 22 18 21 19 20 16 19 13 20 19 18 19 20 19 22 23 23 19 21 21 22 21 22 23 23 23 22 23 25 23 18 17 17 15 15 15 19 17 16 15 12 13 15 12 12 14 10 13 13 12 5 8 16 
28 25 35 23 27 24 24 25 23 26 23 22 24 21 20 22 20 21 18 17 23 25 20 23 23 20 18 20 21 19 22 19 20 18 18 20 21 18 21 20 19 17 18 20 18 20 24 21 25 23 22 22 22 25 21 23 21 15 17 19 19 20 19 20 20 15 13 14 13 13 13 14 10 7 11 11 10 9 9 12 
27 20 24 26 25 26 21 21 22 22 20 24 20 25 21 19 21 20 18 19 19 21 25 23 19 19 14 19 23 22 22 19 20 19 18 19 17 18 19 20 21 18 19 17 19 24 23 29 21 22 23 22 20 18 21 23 19 18 17 19 17 17 17 18 16 15 16 14 13 12 11 13 14 10 8 9 9 9 10 11 
22 25 25 26 21 21 22 18 19 25 22 21 21 20 21 19 21 20 18 20 21 18 18 18 17 18 19 19 15 20 22 18 16 18 15 16 18 19 21 18 20 18 16 18 20 21 24 23 22 21 22 21 16 18 21 17 17 17 17 16 17 18 14 15 13 15 17 13 13 13 11 11 14 10 8 11 9 8 13 6 
25 26 28 23 29 19 21 23 21 23 19 24 21 25 24 20 24 22 19 20 21 21 19 19 19 18 17 19 19 19 18 17 18 15 18 21 19 19 18 17 19 18 17 17 19 21 23 21 21 22 21 17 18 18 19 18 18 17 17 18 16 17 14 17 15 16 18 19 16 13 14 11 11 9 14 12 10 6 4 8 
25 25 25 26 24 24 23 19 22 21 19 22 20 24 21 20 23 22 20 20 23 24 19 20 21 20 18 18 18 17 18 16 20 17 14 17 19 19 18 16 20 19 22 18 17 20 22 19 23 21 17 20 19 17 18 19 20 20 18 15 17 15 16 14 13 17 17 18 13 11 11 13 14 14 11 8 9 12 12 9 
24 24 23 25 26 24 24 24 22 19 21 20 23 22 22 23 24 22 20 20 22 22 21 21 19 20 17 18 21 23 18 16 18 18 12 19 19 18 21 20 20 20 19 21 21 21 24 19 19 20 19 17 19 18 17 23 18 19 16 15 19 17 13 17 13 15 14 18 10 12 15 14 16 14 8 10 9 7 5 8 
23 28 25 23 23 26 23 22 21 20 21 22 22 22 21 24 23 22 22 19 21 19 27 22 20 20 17 17 18 19 18 17 15 15 15 15 17 20 16 20 18 20 19 21 22 22 23 20 20 21 18 18 16 19 19 23 22 17 17 16 18 16 11 17 15 16 14 12 12 11 15 16 15 13 11 12 4 9 10 7 
23 27 27 25 24 21 24 20 23 21 20 22 22 21 25 24 23 20 22 17 19 20 21 22 21 20 16 18 21 20 22 20 19 18 15 20 18 20 21 18 19 17 21 19 20 21 20 18 18 18 17 18 21 20 19 23 17 18 18 18 18 18 11 14 14 14 12 14 12 13 12 16 14 13 7 12 7 13 5 9 
23 28 28 21 27 28 24 22 24 21 24 21 21 24 21 22 23 24 21 19 23 19 20 20 22 17 16 20 17 22 22 18 15 22 19 19 17 15 19 19 20 17 18 16 19 21 19 19 21 18 18 21 20 21 21 22 18 22 15 16 18 16 13 17 11 12 14 15 13 13 11 15 13 13 10 15 8 7 6 5 
24 24 30 24 28 27 21 21 20 19 21 23 21 24 22 20 21 22 21 21 24 19 18 20 20 20 17 17 18 18 22 17 14 19 21 17 16 15 18 19 16 17 18 20 18 20 19 18 17 18 15 20 19 19 20 20 25 21 20 17 17 15 13 15 13 11 15 14 11 13 9 13 12 11 10 12 7 8 4 7 
21 22 25 26 27 26 23 22 18 19 21 23 21 21 20 20 21 20 20 20 19 19 20 20 22 21 16 18 14 21 18 18 16 15 16 16 15 17 17 16 21 16 18 18 16 16 19 17 18 18 17 16 18 20 20 20 19 21 19 14 18 17 14 13 12 14 11 9 9 14 10 12 9 12 5 7 1 6 8 5 
22 22 25 22 31 28 22 21 20 19 18 20 21 23 20 21 19 19 18 18 20 20 20 23 22 19 17 20 17 17 16 19 17 18 14 14 14 16 17 15 14 14 18 18 17 17 20 17 18 19 20 19 19 20 20 23 21 18 16 20 17 17 11 15 10 13 15 11 11 12 13 12 10 12 9 5 6 2 9 3 
22 25 25 23 26 25 21 23 21 21 23 21 22 21 22 17 22 19 17 18 19 20 19 21 20 20 22 18 18 18 15 15 16 15 15 15 15 15 13 17 15 15 16 18 14 18 18 15 16 18 17 19 18 22 20 21 17 19 17 17 16 14 11 11 11 15 13 13 11 10 11 12 10 7 9 7 4 4 7 8 
21 25 23 26 23 21 21 19 22 24 24 23 24 26 25 17 23 18 21 20 21 20 19 22 19 19 19 19 17 18 17 17 15 16 15 12 14 13 16 17 18 17 20 19 17 17 20 18 17 18 18 17 19 17 17 19 18 19 18 20 16 14 14 14 17 12 17 13 11 12 11 12 8 8 7 10 4 4 2 6 
18 24 26 29 25 23 19 19 23 23 21 25 30 24 21 21 20 20 17 20 21 22 19 18 18 19 14 15 17 17 14 13 15 14 13 15 16 15 17 14 16 15 16 16 16 18 19 19 19 17 18 18 17 20 19 18 19 18 17 14 19 17 17 16 13 14 13 11 10 8 7 15 11 12 9 7 5 7 6 4 
20 26 21 22 23 20 20 20 22 23 21 24 25 23 21 16 16 19 16 16 21 20 19 15 15 17 15 14 16 20 13 15 17 15 11 14 13 15 17 17 15 15 15 17 17 16 19 23 17 20 16 18 19 17 19 19 20 17 17 15 17 18 15 16 14 14 12 11 12 11 13 11 8 10 10 13 10 7 5 6 
21 24 20 23 22 23 23 23 24 22 24 21 21 21 16 16 15 16 18 17 19 18 18 19 16 18 11 18 17 17 14 14 14 15 16 13 16 15 17 16 15 17 25 17 17 20 23 19 18 19 17 17 18 20 22 25 21 17 16 18 14 16 10 15 15 12 14 9 12 14 7 9 11 9 7 8 8 1 6 2 
24 21 22 23 20 18 22 17 21 20 16 20 19 19 17 15 15 15 16 14 16 15 16 17 15 12 12 16 15 14 14 12 11 13 14 15 15 15 15 15 15 18 13 16 17 17 20 18 18 16 14 14 16 19 14 19 16 16 16 15 17 13 11 12 10 11 12 9 9 7 6 7 8 4 4 7 8 5 3 3 


