P2
80 60
148
137 138 136 140 138 136 137 136 137 134 135 135 135 134 132 134 132 130 132 133 132 134 132 134 131 133 136 137 138 135 134 136 136 135 132 132 134 132 133 130 131 132 135 133 136 131 129 131 138 128 128 134 131 133 132 131 131 132 138 131 130 130 131 127 127 129 128 125 126 125 125 132 125 125 132 127 129 125 125 127 
138 138 134 140 135 138 137 134 135 134 135 137 133 137 134 134 133 133 132 133 134 133 132 134 132 135 135 137 135 137 136 134 133 136 133 131 133 134 133 132 132 132 132 134 132 133 131 132 135 131 128 130 131 132 130 129 134 130 132 128 130 130 126 127 129 127 126 126 122 126 126 125 125 122 131 125 131 131 126 126 
136 137 134 137 136 136 136 137 138 134 136 133 133 129 135 134 132 132 133 132 132 134 135 132 135 134 136 134 135 135 137 139 136 135 135 133 135 133 135 133 126 134 133 132 134 131 130 132 132 129 133 130 130 130 128 130 130 132 127 132 128 129 129 129 126 125 124 124 120 123 127 126 120 126 129 127 127 129 126 127 
142 135 135 138 137 137 136 138 136 137 137 134 131 129 130 131 132 132 135 136 133 137 134 135 135 138 135 136 135 136 137 131 136 135 135 134 132 132 135 130 131 133 135 135 133 135 129 133 138 131 131 128 131 130 130 131 129 127 126 127 129 130 130 130 128 125 123 121 121 124 126 129 122 121 125 129 131 128 131 125 
144 135 134 138 134 137 138 133 136 138 135 137 130 132 135 135 132 134 135 134 133 134 134 137 136 136 135 136 134 134 134 132 132 131 131 132 132 135 136 135 130 133 134 131 134 132 133 134 131 130 131 128 129 131 131 129 132 128 130 130 129 128 131 135 129 129 124 122 119 122 123 125 119 120 127 126 127 127 129 126 
138 135 137 139 137 137 135 136 138 134 132 135 133 134 131 136 131 136 135 133 135 135 135 136 134 137 135 136 135 135 131 132 133 130 131 133 133 130 134 130 130 133 135 133 132 138 133 134 132 128 132 131 131 126 131 129 131 128 127 129 129 130 131 129 127 125 122 121 126 119 123 122 120 118 124 124 126 126 127 131 
140 136 134 137 137 139 141 140 140 135 135 137 134 133 131 136 139 139 139 137 133 132 132 133 135 136 135 136 132 130 133 133 131 134 134 135 135 133 131 134 136 134 130 130 133 134 129 131 134 127 130 134 131 129 130 131 131 133 127 131 131 131 130 128 127 126 125 124 124 122 123 123 125 123 125 126 127 128 130 124 
145 137 138 138 137 142 139 137 136 133 132 136 137 137 129 129 136 138 139 138 137 135 134 135 133 136 133 133 131 135 130 128 131 130 133 135 133 133 133 130 131 131 130 133 133 131 133 130 132 129 131 131 134 131 125 130 128 130 131 128 129 130 131 128 126 129 129 123 127 121 124 122 123 123 126 123 126 122 124 124 
146 143 138 139 140 137 142 140 134 137 134 134 131 133 131 135 134 133 134 135 132 134 133 134 135 137 135 137 136 135 138 134 131 130 133 133 131 131 134 133 129 130 128 133 136 128 130 132 129 125 130 135 130 128 129 129 131 127 130 131 129 129 131 127 124 126 124 123 124 123 127 122 122 123 127 123 127 125 129 129 
145 137 137 141 140 141 140 139 139 133 132 136 133 131 131 134 136 134 134 135 132 135 133 134 137 134 135 134 137 136 133 134 136 136 136 138 136 131 134 133 127 130 131 130 135 129 126 130 132 129 126 131 128 129 128 129 129 129 132 129 128 128 129 125 125 129 125 122 126 123 122 121 124 123 125 124 125 127 130 129 
141 141 137 140 141 139 143 134 136 135 133 132 132 130 130 134 132 134 135 134 130 129 131 134 133 137 135 135 132 132 135 138 137 135 135 136 131 135 133 134 133 129 130 130 130 128 125 129 130 126 127 128 128 128 127 127 128 126 125 127 132 126 124 125 124 125 120 123 122 120 119 122 119 122 125 123 126 127 125 125 
141 144 139 143 142 139 136 133 135 131 133 133 130 132 132 132 133 133 134 132 131 133 132 134 130 136 133 134 132 131 135 137 138 138 134 134 135 134 135 133 134 131 132 132 128 131 129 128 128 127 126 130 128 132 126 127 129 128 124 127 127 128 128 124 125 122 119 122 122 115 117 119 120 125 128 126 127 126 127 128 
139 143 143 142 139 142 138 134 135 130 132 134 130 131 127 129 130 130 129 133 131 133 132 133 132 135 133 136 130 134 135 136 138 136 133 136 132 134 138 133 133 129 135 133 136 130 131 132 129 125 132 130 131 125 128 128 133 124 128 126 128 129 128 124 125 121 118 113 112 113 102 117 119 124 126 124 124 126 126 126 
141 141 144 148 141 139 138 136 136 131 133 133 130 132 129 135 130 130 132 126 132 131 132 130 130 134 132 132 131 134 137 136 139 139 134 131 130 135 132 132 131 130 132 132 130 134 131 129 128 133 133 132 130 125 125 126 132 131 127 129 128 129 128 123 120 121 119 116 115 113 115 118 119 121 125 121 124 126 127 131 
145 139 139 145 138 137 136 135 136 132 134 132 129 130 128 136 132 130 133 128 127 132 132 134 131 135 131 134 133 129 134 135 135 137 133 133 133 132 132 132 128 131 133 131 131 128 129 129 129 129 127 129 127 126 126 131 131 143 129 128 127 125 125 125 122 123 120 118 119 114 119 119 120 124 124 123 121 125 127 126 
141 140 144 144 142 138 136 135 136 133 133 132 130 131 129 133 132 127 132 131 130 131 132 134 133 134 133 133 132 133 135 134 134 134 130 134 132 130 128 132 133 131 132 132 129 130 128 126 130 124 127 127 128 124 128 130 131 129 127 130 125 125 128 127 124 118 119 125 119 115 119 118 118 125 124 120 124 124 126 129 
139 141 141 141 140 137 136 132 133 131 132 131 131 129 132 133 131 130 131 127 129 132 133 132 131 133 133 133 132 135 133 135 137 139 132 132 131 131 130 133 128 128 130 128 132 131 126 123 124 124 123 126 125 126 128 127 133 130 127 123 124 126 126 126 121 124 119 117 119 115 115 114 120 118 123 121 119 125 126 125 
142 145 139 142 137 134 132 130 131 127 130 134 129 129 128 130 127 130 130 131 131 131 131 131 130 131 130 134 131 132 134 135 138 134 133 132 131 130 131 133 128 128 126 131 128 129 127 125 126 120 123 126 131 126 129 126 129 133 131 124 127 126 127 124 124 120 114 115 118 113 116 117 118 120 128 120 122 122 121 126 
139 140 139 139 137 136 137 132 132 127 132 131 131 129 128 129 129 130 133 129 128 129 132 134 131 134 131 133 132 131 136 137 137 136 134 130 130 130 129 131 129 129 127 130 126 126 127 127 125 122 125 125 130 127 127 125 131 129 124 126 123 125 125 125 123 121 117 117 118 115 112 112 118 119 120 123 122 122 119 121 
142 141 136 137 135 140 135 133 134 129 133 132 131 128 127 129 129 128 131 130 130 134 135 132 133 136 133 130 130 132 137 137 135 133 134 131 130 132 130 126 133 130 130 128 127 125 123 127 123 125 124 129 129 125 126 124 126 123 126 123 124 125 125 126 124 124 119 113 115 113 113 113 114 118 116 121 119 122 121 124 
138 141 139 134 135 135 135 132 130 131 130 130 129 130 126 130 127 132 129 127 128 131 133 133 132 131 133 134 129 132 141 139 133 131 132 131 129 129 128 128 129 133 130 128 127 124 122 121 125 121 126 127 128 124 125 124 126 125 125 122 123 124 126 123 124 122 119 113 114 109 118 112 115 116 120 120 121 122 121 120 
139 141 135 137 134 133 134 129 133 129 129 132 134 131 130 129 127 128 129 129 129 130 135 130 132 130 131 130 129 131 135 133 133 133 128 131 128 128 124 130 126 128 126 126 124 125 122 124 121 121 124 126 124 126 125 127 124 122 127 123 123 125 122 125 123 121 117 113 112 111 114 112 112 118 120 119 120 119 120 120 
141 142 140 139 136 135 133 133 133 132 129 129 132 132 131 131 128 131 130 130 129 130 133 129 130 132 129 131 130 129 130 130 133 132 128 131 126 127 127 129 128 125 125 119 124 122 125 122 123 122 127 123 125 121 125 121 123 121 124 126 128 120 124 123 125 125 117 113 113 110 110 115 114 114 117 119 120 119 119 118 
138 138 138 135 136 136 136 138 132 127 130 130 130 129 124 129 129 126 129 130 127 126 128 131 129 132 129 128 130 130 133 134 135 130 128 128 128 129 126 125 129 126 123 121 124 124 122 123 123 128 125 126 123 122 122 121 125 123 121 124 125 123 123 126 125 124 118 111 112 111 111 113 114 115 120 121 119 119 118 117 
143 139 137 133 134 134 134 134 133 129 128 132 129 129 126 129 129 128 129 130 127 128 128 129 130 128 129 127 125 127 129 132 131 127 129 125 124 128 126 125 122 121 125 122 128 124 121 124 124 125 123 123 122 124 125 122 125 124 123 125 121 122 123 125 124 122 117 114 117 111 107 109 115 121 121 118 118 120 120 120 
137 136 132 136 134 135 135 132 133 129 129 131 125 127 128 132 128 130 130 127 127 127 129 132 131 132 131 127 127 128 130 127 131 128 122 128 126 124 124 126 121 123 123 124 121 125 123 125 123 121 122 121 123 124 120 118 122 122 128 127 122 121 123 125 128 122 116 113 111 108 108 111 111 117 119 113 113 118 122 120 
139 137 134 134 134 135 135 128 133 130 129 131 129 128 126 127 128 129 127 127 128 129 131 129 131 130 128 129 127 127 130 129 130 129 127 124 123 124 123 124 120 119 122 122 122 123 123 122 125 122 121 123 122 122 119 121 122 120 124 122 121 120 120 123 122 121 110 109 109 110 106 111 112 117 116 114 116 115 118 121 
136 135 136 140 134 132 132 137 134 130 129 130 127 130 127 127 128 129 128 130 128 128 132 132 128 128 131 130 129 132 130 130 128 129 126 124 127 124 124 126 123 125 123 127 124 122 123 123 122 121 120 126 124 121 120 121 124 119 122 121 124 122 124 122 122 118 113 113 111 109 104 111 112 117 115 115 113 117 119 120 
137 138 134 138 132 134 136 131 134 131 128 133 131 132 129 127 128 128 130 131 127 128 131 128 128 132 129 130 130 129 131 130 130 125 124 125 125 123 123 125 122 124 125 126 124 121 120 124 121 120 125 113 121 121 119 120 121 121 116 120 121 122 123 125 122 119 113 110 107 108 107 113 110 114 114 115 118 115 117 117 
140 137 136 135 140 135 132 132 135 128 126 131 130 129 127 127 127 127 129 129 125 126 128 131 126 133 132 129 127 128 127 132 130 127 123 126 124 126 122 122 123 127 123 121 123 122 121 118 122 121 123 125 121 120 120 120 120 119 118 116 123 123 123 125 122 119 112 110 108 104 106 109 110 108 111 116 112 114 113 115 
138 137 134 136 131 130 134 131 128 126 121 130 128 130 122 127 126 125 127 123 126 125 128 129 128 131 129 126 124 127 127 130 130 127 128 127 121 123 123 124 121 123 128 121 124 118 119 120 122 121 122 122 118 119 122 117 121 118 118 117 121 122 123 124 122 119 108 109 108 100 104 110 111 113 114 110 111 113 114 115 
136 137 135 138 132 134 132 129 129 126 128 129 127 127 128 128 127 125 127 125 123 122 126 128 127 130 131 125 126 126 129 129 127 126 124 122 124 122 121 126 128 129 123 123 125 118 116 119 120 120 120 122 122 121 117 120 123 119 117 119 117 118 121 120 120 117 112 108 107 103 104 108 109 114 110 108 110 110 113 111 
135 136 132 134 133 134 131 130 128 127 128 130 128 125 124 127 129 128 127 126 125 127 127 126 127 131 127 128 126 128 130 127 128 123 122 121 121 121 121 125 125 125 122 121 125 119 117 120 123 117 118 122 117 116 117 119 120 118 119 117 116 117 122 118 119 116 109 108 110 102 104 107 109 110 111 110 110 110 114 113 
136 137 132 135 135 137 134 131 132 128 129 128 130 126 125 127 128 127 126 125 126 130 132 132 128 128 130 126 128 132 127 127 126 126 122 121 121 122 122 122 123 123 127 125 128 122 119 118 118 120 120 122 123 120 120 120 123 121 119 120 117 121 120 120 118 114 109 105 104 103 101 103 109 109 111 111 110 110 111 113 
137 137 136 135 135 131 131 132 127 131 128 130 127 129 126 127 128 128 129 127 125 130 129 129 128 132 130 129 130 132 131 132 128 126 124 124 123 122 121 122 120 124 126 126 126 127 118 119 118 116 120 124 124 117 120 119 122 120 119 115 115 118 121 120 120 110 105 104 104 101 103 108 109 109 112 113 113 110 110 112 
136 133 136 133 133 135 133 132 127 129 126 129 126 128 126 128 125 126 128 124 123 126 127 126 126 127 126 124 126 128 129 129 128 125 124 123 121 121 123 123 121 123 122 121 123 121 121 122 119 116 119 120 122 124 118 121 119 117 117 120 120 119 121 116 115 106 100 101 104 101 97 106 108 108 110 108 109 112 109 112 
137 136 135 138 132 132 132 134 128 126 127 127 126 128 126 128 125 130 128 125 122 123 128 126 126 127 123 129 123 128 131 131 131 124 119 119 121 121 120 124 120 120 123 119 116 120 119 119 119 115 119 119 119 119 116 119 117 119 118 116 118 120 117 115 114 97 72 79 97 98 100 105 103 104 108 104 106 105 107 112 
139 138 136 135 132 133 134 132 126 127 124 127 127 129 124 121 126 133 128 125 124 127 131 128 125 125 125 122 125 127 130 128 127 125 123 121 119 120 121 121 121 122 123 122 122 121 117 120 118 117 119 120 118 118 119 119 119 118 119 118 116 116 117 115 113 70 21 48 90 98 99 106 104 104 103 102 104 105 111 111 
137 139 141 138 133 133 134 132 130 130 130 127 130 127 123 128 127 127 128 127 124 127 128 131 126 125 124 127 123 125 129 127 127 122 117 121 123 117 124 120 119 121 119 121 122 119 118 121 119 117 119 122 119 117 120 117 117 115 116 114 113 116 114 114 112 52 10 41 83 89 95 104 103 100 102 103 104 106 114 107 
137 137 135 133 132 135 131 129 131 127 127 127 128 127 123 125 128 126 124 126 125 124 128 131 126 126 127 125 121 125 126 128 126 125 120 123 118 121 123 122 121 123 120 121 118 120 118 120 120 117 120 122 121 117 119 116 116 114 115 113 114 114 116 114 108 44 0 39 85 90 94 102 101 104 103 99 103 106 113 110 
136 134 133 134 130 135 129 130 129 124 125 131 124 128 123 126 123 125 124 126 124 125 126 130 124 125 126 124 122 122 126 127 128 125 119 118 120 118 119 117 118 119 117 117 119 119 119 119 117 116 119 124 123 121 118 115 118 112 112 113 114 114 114 110 102 36 0 39 78 86 90 98 98 103 101 99 101 105 111 108 
139 133 135 134 130 132 128 128 125 127 127 128 126 127 128 126 127 124 123 125 126 124 126 125 128 124 122 123 122 122 125 126 125 122 124 120 118 119 122 119 117 120 117 116 120 115 117 118 120 118 118 120 118 117 117 113 115 113 111 113 113 113 113 112 105 32 4 42 78 87 92 101 99 99 99 99 100 105 109 109 
139 133 134 133 132 132 131 129 127 125 128 128 126 127 125 125 124 126 128 126 123 124 129 129 129 127 123 122 124 127 126 125 124 125 121 124 120 118 119 119 118 119 115 118 118 115 117 116 117 114 116 117 117 119 119 114 114 112 108 112 117 115 113 114 104 32 4 47 81 88 92 101 98 97 100 97 102 101 107 106 
138 134 135 131 132 132 131 126 129 130 125 131 127 127 126 124 125 125 127 130 126 125 127 126 127 127 126 123 124 125 130 130 124 125 121 122 123 122 120 120 119 121 118 117 120 118 120 126 118 113 116 115 116 118 114 115 115 114 112 113 114 116 113 115 103 30 6 44 82 88 92 100 97 99 103 98 100 100 101 105 
134 132 132 131 129 130 129 128 126 123 124 127 125 130 126 124 126 125 126 124 126 123 124 128 126 125 122 122 122 124 128 128 126 122 118 122 121 120 120 121 121 117 116 116 120 117 118 118 116 110 113 112 117 113 111 109 111 111 112 111 109 112 115 107 92 20 5 30 79 87 92 98 98 98 98 101 101 98 98 97 
135 132 133 129 131 131 128 124 128 127 125 124 122 127 127 125 129 126 124 124 124 121 127 126 123 125 121 122 119 125 125 130 126 124 116 122 121 118 117 119 115 116 115 117 117 116 115 114 113 109 112 111 116 109 109 110 111 110 109 108 108 112 111 108 92 18 4 29 79 87 95 99 98 98 102 95 94 94 95 100 
133 131 130 134 127 130 130 129 132 127 127 125 126 128 123 126 125 124 123 126 124 122 127 127 123 123 125 121 124 124 127 126 125 123 116 116 117 114 117 120 113 118 115 116 116 114 114 115 116 113 110 118 110 108 105 109 109 110 107 110 109 110 111 108 90 27 9 38 74 86 97 100 98 101 102 94 93 90 94 90 
132 130 128 129 127 128 127 128 126 124 122 125 127 128 125 127 125 123 126 123 121 123 126 127 122 122 119 119 119 126 125 124 121 117 115 114 114 114 116 116 115 118 114 113 114 112 114 113 113 109 109 113 110 107 107 111 111 108 108 108 109 107 111 108 100 63 33 62 85 88 96 102 100 99 94 90 92 87 90 94 
133 133 130 129 128 128 127 125 126 125 124 125 125 126 125 128 124 123 125 124 123 124 129 130 123 124 122 120 120 122 126 122 118 118 116 116 116 116 116 117 114 116 113 112 111 110 111 110 111 106 108 112 107 110 107 108 109 109 106 107 108 107 107 108 101 87 80 86 90 93 95 100 104 100 90 89 89 86 93 92 
133 132 128 127 129 127 126 125 127 125 126 126 124 125 124 132 125 126 124 124 120 122 125 124 120 123 122 120 121 122 120 118 118 115 114 115 116 114 112 116 115 113 113 109 114 108 106 108 109 108 107 112 109 110 109 110 107 107 109 106 105 106 107 107 98 96 91 97 96 99 101 104 100 100 92 84 89 81 91 93 
133 126 126 129 130 126 131 128 129 126 124 126 124 125 126 122 124 123 125 121 123 119 123 121 124 122 120 120 120 118 114 113 114 112 115 115 116 113 116 113 111 113 112 116 112 108 107 110 107 107 108 112 113 110 110 107 108 113 105 110 106 107 105 107 103 94 94 101 99 100 103 105 98 106 101 83 90 84 91 87 
139 131 128 128 132 131 132 130 131 125 124 123 124 126 125 125 121 124 125 125 124 121 126 125 121 124 121 120 121 121 116 113 111 112 117 114 114 115 112 111 113 111 113 109 112 109 105 107 110 108 106 109 110 113 107 108 106 109 110 111 110 106 104 108 98 95 95 103 98 102 104 107 102 102 104 98 91 84 94 93 
136 127 129 133 131 130 126 132 132 126 123 125 120 125 124 123 123 121 128 128 119 121 123 124 123 123 120 120 119 118 113 115 113 113 113 113 115 112 114 111 114 109 107 110 110 108 105 108 111 107 109 109 107 109 110 110 108 109 112 109 107 105 105 100 100 98 94 101 103 101 106 104 101 103 105 93 93 90 98 88 
132 129 127 126 132 135 126 126 127 124 125 124 126 124 122 118 121 122 124 123 117 118 127 124 122 123 123 122 120 117 114 113 113 109 109 111 111 111 112 110 110 109 111 108 106 106 106 108 111 104 107 107 110 110 109 107 110 108 109 106 104 107 103 102 96 93 98 104 102 106 108 109 102 104 100 97 97 96 96 93 
131 128 125 129 128 126 128 127 125 123 128 125 123 125 126 121 121 121 120 121 120 119 124 122 120 123 122 119 117 119 113 112 109 110 109 111 110 109 110 112 109 108 110 108 105 107 107 107 108 102 106 106 108 106 105 108 105 108 106 106 106 108 104 103 95 97 91 99 103 101 105 105 102 105 99 97 101 100 99 89 
128 127 127 128 124 125 128 127 124 122 122 126 124 123 122 123 118 118 121 122 120 120 119 121 118 122 119 117 118 117 114 109 108 110 108 111 112 111 110 111 108 110 109 110 108 107 104 106 110 102 105 104 106 108 107 104 107 105 104 107 104 107 105 99 96 96 91 99 100 101 108 109 102 102 103 94 101 98 101 90 
125 127 130 127 125 126 122 123 124 121 123 123 129 125 122 118 119 124 122 121 118 122 124 121 120 120 118 120 120 117 117 108 110 107 109 111 113 112 108 112 110 109 109 105 107 106 104 108 111 110 106 106 105 105 104 107 108 106 104 107 107 102 104 100 98 98 94 100 102 103 106 109 104 104 100 104 102 101 108 96 
127 126 124 125 125 124 124 122 125 123 124 125 126 124 119 119 116 123 120 123 119 123 127 119 119 120 120 119 117 117 114 111 112 110 108 111 113 115 111 112 108 111 103 107 105 105 105 108 113 106 110 106 105 106 104 104 106 105 104 104 102 102 103 102 99 97 91 95 97 99 101 105 100 104 102 100 102 103 100 101 
128 129 125 126 125 129 126 124 125 121 121 125 122 123 118 118 117 122 118 120 119 120 123 121 120 117 119 120 119 116 114 110 114 114 109 116 115 115 114 110 110 108 109 103 104 107 106 110 111 108 106 107 104 104 108 105 105 103 104 106 104 104 103 98 99 96 89 96 98 98 100 108 100 101 104 99 100 98 98 100 
131 126 124 123 124 123 125 123 124 121 120 122 122 122 118 118 117 120 120 119 121 120 122 119 117 118 118 123 117 117 114 112 112 115 114 117 120 113 113 110 110 109 108 103 104 105 105 107 110 105 103 105 105 105 106 104 108 103 107 103 105 103 101 100 97 97 91 97 100 102 105 105 102 101 105 101 102 101 101 101 


