P2
80 60
52
35 39 37 35 39 43 42 41 43 44 40 43 43 41 39 41 39 34 36 39 40 41 37 35 37 40 38 38 41 39 36 38 39 42 37 36 37 37 36 39 38 38 34 44 41 36 34 37 41 38 39 32 32 35 36 41 36 43 46 38 34 35 33 33 32 31 32 32 29 27 25 28 30 28 31 27 28 25 22 23 
36 34 38 39 40 40 39 42 39 43 41 39 40 43 41 40 42 40 37 38 41 39 36 36 37 38 39 38 42 37 42 40 40 40 38 37 38 35 38 35 39 38 41 43 36 36 32 35 37 37 35 35 33 39 39 37 37 40 40 38 36 36 33 30 32 32 31 27 24 24 31 28 30 27 28 26 28 29 25 29 
35 38 38 37 37 44 40 39 41 45 45 42 39 39 44 39 40 39 39 39 41 41 40 36 38 39 41 37 43 43 44 41 39 38 40 36 39 37 37 36 34 39 33 42 38 32 33 34 35 35 35 34 34 38 35 32 35 36 38 36 35 34 30 35 32 32 30 29 23 24 31 25 29 27 29 27 26 27 26 29 
43 36 39 37 40 46 41 41 37 44 44 43 36 37 38 38 40 41 41 41 42 42 40 41 32 40 36 41 43 39 36 37 39 37 40 40 36 37 39 38 38 36 39 42 33 35 31 34 37 35 36 35 33 34 37 34 35 35 36 36 36 33 33 34 38 32 28 30 25 23 30 30 28 26 27 31 27 24 28 30 
43 35 38 42 40 42 45 44 42 44 43 42 41 39 42 39 40 38 41 42 41 43 38 39 39 39 39 40 42 39 37 38 37 37 36 37 37 40 40 38 36 38 41 39 39 35 35 34 34 36 34 35 33 35 37 36 38 33 38 34 36 34 36 37 36 32 29 34 34 28 32 26 27 29 30 29 30 31 28 29 
38 38 39 40 38 43 44 42 44 42 45 44 37 41 38 40 44 40 43 45 41 42 39 41 41 40 41 41 42 37 36 39 38 38 35 36 40 38 39 35 39 39 42 43 38 37 34 36 34 36 36 37 37 32 37 34 36 38 34 38 38 36 33 31 35 34 28 31 34 30 34 29 30 27 30 28 27 29 28 26 
38 36 40 36 44 42 44 46 45 41 42 46 40 42 39 42 45 40 43 44 43 39 41 35 38 37 40 41 41 36 41 37 34 38 36 39 34 39 40 36 37 40 38 38 36 36 34 30 35 35 35 36 38 34 37 35 39 43 46 39 38 36 32 32 31 32 30 31 30 28 32 27 29 26 29 27 30 21 23 27 
39 40 44 39 42 44 45 42 40 42 43 44 44 42 40 42 43 44 44 40 45 38 38 39 39 39 42 38 41 40 40 37 33 35 36 40 36 37 41 37 39 36 37 39 34 35 31 30 33 35 33 34 37 38 36 34 36 37 39 38 37 36 39 32 32 34 30 27 28 27 26 24 27 23 27 31 28 22 26 32 
41 42 40 43 43 45 52 45 39 43 44 40 43 39 37 37 40 42 39 39 41 36 36 37 40 39 39 39 44 38 39 34 33 36 33 36 34 35 39 37 34 37 36 37 36 34 32 30 31 35 34 37 33 35 33 34 38 37 39 40 36 36 35 33 33 29 30 31 29 22 27 24 28 26 28 29 27 24 19 29 
45 40 43 42 42 42 48 46 42 40 42 41 41 39 36 41 45 41 41 40 38 43 36 37 41 39 38 38 40 41 34 34 35 35 34 35 33 37 36 37 34 36 34 37 33 32 28 28 36 33 33 32 33 31 37 35 36 37 36 35 34 36 31 31 30 31 30 28 28 22 27 27 31 24 29 25 28 23 17 28 
41 42 42 42 40 44 45 43 41 41 43 40 40 42 39 41 41 40 40 42 41 40 36 39 38 38 36 38 40 36 33 36 34 36 35 33 34 34 36 35 34 34 34 35 31 30 24 29 33 32 34 32 32 31 35 33 36 34 34 36 32 33 29 33 35 28 28 31 30 19 25 29 27 28 28 27 27 23 16 29 
41 43 45 45 44 44 46 42 44 40 40 41 41 34 41 39 38 37 40 36 37 39 34 39 37 34 38 35 43 33 32 32 37 37 33 36 32 37 35 35 34 36 31 36 31 33 28 28 24 34 33 34 32 35 33 33 32 34 34 34 32 34 34 29 32 29 27 26 24 22 25 25 28 30 28 27 29 22 19 32 
42 41 45 45 43 45 44 42 38 38 43 40 38 39 35 37 38 41 36 38 41 38 34 37 36 34 37 40 39 39 36 35 35 41 38 34 32 35 40 34 36 33 35 35 34 32 32 32 32 32 36 34 32 29 33 33 33 35 32 33 35 33 34 30 31 30 27 26 27 24 16 23 21 25 28 26 27 24 21 24 
40 41 44 45 43 41 44 39 41 38 40 41 40 39 39 40 38 37 37 32 40 37 35 35 36 34 36 39 38 37 37 34 36 36 36 35 34 37 34 34 33 31 36 37 33 37 35 35 34 37 37 36 32 30 31 33 35 35 37 36 34 32 30 27 32 31 28 28 28 24 26 24 26 23 27 23 29 25 21 25 
43 36 48 44 42 45 42 41 38 40 40 43 37 36 37 38 38 39 36 34 35 38 34 38 37 33 35 37 41 35 34 34 37 37 34 34 33 33 36 34 37 33 36 37 36 35 37 38 39 40 40 33 36 35 35 36 37 49 37 32 32 31 28 28 32 28 30 32 27 26 28 26 25 26 25 25 27 24 22 30 
45 42 46 44 44 41 41 41 37 37 40 42 38 40 37 37 36 34 37 37 38 41 35 36 34 34 36 36 41 37 36 32 34 35 34 33 32 33 36 34 33 36 32 39 36 34 38 38 36 35 37 31 33 34 38 40 39 38 36 38 33 34 35 29 32 29 27 36 29 25 28 25 28 23 25 26 27 25 24 28 
40 42 48 43 43 42 40 35 38 36 39 39 38 36 40 37 36 33 36 34 42 40 35 32 36 31 35 39 43 39 35 36 35 38 34 32 32 32 33 36 35 35 31 36 34 36 36 37 35 37 32 34 35 36 40 37 37 39 40 33 34 36 34 30 33 30 30 33 26 26 29 26 28 26 25 23 26 20 27 27 
41 40 42 44 41 39 41 38 38 37 37 37 39 36 37 36 38 35 36 39 39 36 33 34 34 31 35 39 39 34 35 36 36 37 35 33 32 32 37 36 33 34 33 37 35 37 34 33 38 34 33 34 35 34 39 33 37 42 40 37 34 34 32 31 31 29 24 31 29 26 29 25 26 29 27 25 23 23 24 24 
40 41 43 44 40 41 41 38 38 38 40 38 38 39 35 39 34 36 35 36 37 37 36 38 36 32 34 38 39 37 36 35 38 35 39 34 34 36 35 32 32 35 29 38 32 34 33 37 34 37 36 34 39 35 40 34 36 37 36 33 34 30 30 26 29 30 24 31 31 27 29 28 24 24 25 25 27 21 23 25 
42 41 43 39 44 50 43 41 37 34 40 41 39 35 36 35 38 37 40 37 41 40 36 36 34 39 37 36 38 38 34 38 32 34 35 34 33 34 33 35 34 33 33 35 32 31 31 38 36 38 38 34 34 36 37 33 34 36 38 33 32 32 29 33 33 30 28 29 31 27 26 27 24 24 21 25 28 23 20 24 
40 39 39 39 42 40 42 35 36 40 38 39 35 38 37 35 37 38 35 38 34 37 35 37 37 34 34 36 38 35 46 37 31 34 33 35 33 34 33 31 35 38 35 38 31 30 33 32 36 34 36 35 32 33 36 36 32 33 36 31 32 31 28 27 33 29 31 30 29 25 26 28 24 24 23 23 25 23 21 23 
44 41 42 39 38 38 42 36 39 39 41 39 43 44 39 37 35 36 35 37 36 38 39 36 36 35 36 36 36 39 36 35 33 34 31 34 34 34 34 34 35 36 30 32 32 30 33 36 34 36 37 31 32 33 34 31 34 34 35 32 31 31 26 31 32 31 28 31 29 30 27 23 28 25 27 24 25 23 23 29 
44 39 40 43 42 41 40 42 38 37 40 39 40 41 37 35 35 38 37 36 41 37 32 35 35 34 34 35 36 32 34 32 33 32 32 36 33 35 31 35 33 33 32 35 28 30 35 33 35 35 34 33 29 33 36 32 31 34 32 34 31 27 29 29 32 31 29 29 29 27 26 26 29 26 24 25 23 23 20 22 
41 40 42 38 40 38 40 46 37 38 40 41 39 36 36 36 37 37 35 38 38 35 34 34 34 32 34 36 36 35 34 33 34 30 29 29 31 33 32 32 31 36 29 34 32 34 33 31 35 38 35 33 32 31 33 27 31 34 33 34 29 30 31 33 30 31 32 29 25 27 25 27 27 24 25 26 24 25 20 22 
41 39 39 40 38 41 42 42 42 41 41 42 37 36 35 36 38 37 34 35 38 36 34 36 36 35 34 34 37 31 32 33 33 31 32 30 31 33 30 29 30 30 29 33 34 33 33 35 36 34 38 31 27 29 32 29 32 33 33 33 28 28 28 27 31 32 30 29 26 26 29 23 27 22 24 24 22 23 20 27 
40 39 38 38 37 38 39 39 39 38 40 38 37 38 40 36 37 36 35 36 39 36 36 37 37 34 34 34 36 30 33 30 31 31 30 30 32 29 29 33 28 28 29 34 29 34 31 34 34 32 31 29 28 29 29 27 29 30 35 33 32 29 28 29 29 30 28 27 24 29 27 22 25 25 25 24 25 21 21 27 
40 36 38 37 39 37 40 39 40 39 39 39 37 38 36 37 36 38 36 37 39 37 42 38 36 32 36 35 36 35 33 28 31 32 31 30 31 33 32 31 27 31 29 32 30 33 33 34 33 35 33 28 30 28 29 28 31 30 32 33 29 29 26 26 30 31 27 26 27 25 25 25 25 22 24 21 28 25 20 28 
42 35 40 42 38 38 42 42 40 40 38 40 37 38 35 34 37 36 35 38 39 36 36 36 33 33 36 36 39 32 34 32 29 31 32 28 29 30 29 31 31 31 30 35 32 30 30 31 34 32 29 30 28 29 27 28 29 27 31 29 33 29 27 27 30 28 25 29 25 25 26 23 26 26 26 25 25 21 24 25 
35 41 40 40 38 41 42 40 41 39 38 41 40 40 37 35 35 34 36 37 36 34 35 35 33 34 37 36 37 35 35 31 31 31 29 29 29 30 32 30 30 29 32 34 31 30 29 33 31 33 31 30 26 29 30 29 27 30 29 29 30 28 27 30 28 30 26 29 26 24 27 21 24 24 22 25 27 21 19 27 
41 39 45 37 41 39 39 40 41 40 42 43 39 37 38 36 35 33 36 36 35 38 37 36 32 34 34 34 37 35 32 33 32 29 30 31 31 33 30 28 30 32 32 33 33 30 30 33 35 33 31 33 29 28 30 31 32 28 31 29 32 29 28 30 31 30 33 29 24 26 25 22 26 21 23 24 23 21 17 23 
44 39 40 38 34 38 39 38 37 40 38 40 38 38 33 35 36 35 35 37 35 34 35 34 38 37 37 36 35 33 34 31 32 34 33 33 32 28 31 30 33 34 38 36 33 31 25 30 34 34 36 26 24 27 32 29 33 29 28 31 31 29 29 30 28 31 29 29 27 22 26 24 25 26 28 24 28 21 19 27 
37 35 38 36 38 40 41 37 40 41 40 38 37 35 37 35 39 33 37 35 35 34 34 35 34 36 41 36 37 35 33 30 28 31 28 29 29 29 28 30 35 33 35 34 32 31 29 28 32 34 29 30 29 28 27 27 29 29 25 28 28 29 30 32 29 32 27 29 28 24 26 23 26 24 26 26 22 21 21 24 
39 35 40 40 40 42 39 39 38 41 38 38 38 36 35 36 36 34 32 35 35 32 34 36 35 33 35 35 35 33 33 32 29 30 28 28 28 29 30 31 30 33 32 34 32 33 30 27 33 34 32 29 25 27 29 29 27 28 28 29 25 26 26 25 30 29 26 24 26 25 25 24 24 22 25 22 21 17 20 25 
39 34 38 38 40 37 38 37 37 37 40 41 35 38 34 34 37 34 35 34 35 36 34 35 33 32 33 34 33 35 32 28 30 30 31 27 27 29 27 29 31 30 31 32 32 30 30 28 32 30 31 27 25 26 29 28 26 29 27 27 25 28 28 26 29 27 27 27 25 21 26 21 24 20 27 24 26 21 18 19 
37 37 39 40 39 36 37 40 32 36 39 39 38 36 35 37 39 35 33 35 33 35 35 35 34 34 34 37 38 33 34 32 29 29 32 27 29 28 30 28 27 29 32 33 32 31 29 32 31 30 28 30 28 26 28 29 28 31 28 25 27 27 25 28 31 26 25 26 23 22 23 21 25 23 24 24 24 19 18 22 
36 37 41 39 36 40 36 36 37 38 39 33 36 37 36 36 38 36 37 32 32 35 32 34 32 31 33 33 32 34 33 32 30 31 29 29 32 28 27 31 30 31 24 31 33 33 30 32 34 28 27 28 28 27 23 29 25 28 27 29 26 26 28 27 27 28 23 30 24 24 23 23 23 24 25 22 26 21 21 22 
34 37 41 41 38 37 37 36 34 38 38 35 38 36 37 33 35 39 37 33 34 34 32 35 31 32 30 31 36 35 32 32 31 32 29 30 30 31 27 28 29 29 28 29 27 29 28 28 31 28 26 28 27 27 27 29 26 30 30 31 27 26 26 28 28 28 24 27 26 22 23 20 22 22 19 20 21 17 17 24 
39 40 42 39 36 38 43 40 36 41 40 39 38 40 33 35 35 40 38 35 39 36 35 33 32 30 30 31 37 33 35 33 29 30 31 29 29 29 32 28 30 30 27 27 29 29 28 28 33 29 27 30 24 27 30 28 28 29 31 27 27 24 22 24 25 32 27 28 24 21 23 21 22 20 17 20 21 17 21 19 
39 37 48 41 41 42 40 39 36 36 36 37 38 34 34 37 37 37 36 35 39 39 35 35 32 32 30 32 34 31 33 30 29 29 29 30 30 32 31 31 27 33 27 26 30 31 31 32 32 28 30 27 26 27 31 26 27 28 27 25 24 26 23 25 27 29 25 29 24 23 23 19 25 19 17 19 17 19 16 21 
42 39 40 37 39 40 40 38 36 38 40 38 37 34 34 34 36 35 35 34 35 36 35 35 35 32 32 31 33 33 33 31 29 30 32 31 28 31 31 31 28 29 27 29 31 32 28 32 34 31 31 29 26 28 27 26 25 24 22 25 25 25 26 23 25 25 23 24 24 22 20 19 20 21 20 17 21 17 20 26 
37 37 38 37 35 40 37 38 34 38 38 39 39 39 38 37 32 36 32 32 34 34 33 35 33 31 38 33 32 30 30 29 30 34 30 32 28 28 29 27 28 27 29 33 30 31 32 30 34 31 31 33 29 29 27 24 23 25 27 23 25 24 24 21 22 21 18 22 18 20 18 18 23 20 22 21 24 21 27 26 
35 36 41 37 36 34 35 37 36 35 40 37 37 36 36 33 36 36 33 36 33 34 33 35 36 31 32 29 34 31 30 28 28 31 29 28 30 29 27 27 25 30 27 31 25 31 31 30 33 31 31 29 27 29 25 24 20 25 22 22 26 21 22 23 23 20 19 19 19 17 19 20 20 18 20 15 21 20 19 23 
40 36 42 38 36 38 40 37 36 34 37 35 36 36 36 33 34 35 36 38 36 34 34 32 37 32 31 31 35 32 30 28 28 30 28 32 27 33 28 27 27 28 28 32 30 30 33 34 31 26 29 25 28 26 26 24 25 25 25 24 23 25 25 27 25 24 20 20 21 19 18 18 19 15 19 20 21 18 17 22 
41 36 41 36 37 37 37 35 32 35 40 39 38 35 35 34 32 35 34 39 37 38 33 32 34 31 34 30 33 33 36 30 29 29 29 29 28 31 27 28 29 28 29 31 32 27 32 40 33 29 31 24 23 27 24 21 24 25 25 23 23 24 22 25 26 27 21 22 18 15 20 17 19 15 18 19 21 21 19 22 
36 34 41 35 36 35 37 39 35 32 35 37 37 39 36 34 33 31 35 39 37 37 35 34 35 29 31 28 36 32 34 27 28 29 28 27 25 29 26 27 30 26 29 29 31 30 32 34 32 26 25 22 22 23 23 20 23 24 23 23 23 25 20 23 23 25 24 24 21 19 16 14 15 17 17 20 19 17 15 22 
39 36 41 37 36 37 40 35 37 37 39 36 37 39 40 34 37 36 34 35 38 33 37 34 30 28 29 32 33 33 33 28 28 31 27 30 28 28 29 29 27 28 27 29 30 32 32 30 30 26 25 23 22 21 20 21 22 21 24 21 23 21 20 25 25 26 23 22 22 18 17 16 18 17 21 18 18 16 12 20 
37 36 35 37 34 39 37 36 33 36 37 40 37 38 36 35 34 35 35 36 41 29 33 35 30 29 30 30 37 28 28 28 26 30 27 27 30 27 29 27 29 28 25 30 29 31 26 34 33 27 22 24 21 22 22 20 22 25 24 25 22 23 23 23 24 21 19 22 15 16 19 12 17 15 16 17 19 12 8 16 
37 33 35 36 35 36 39 35 36 35 36 38 36 37 39 38 35 36 37 35 37 35 36 32 31 27 28 29 31 34 28 28 26 30 29 26 26 27 28 26 27 27 26 27 26 30 27 29 28 25 25 21 22 19 22 26 25 23 23 23 23 19 20 22 21 22 20 18 16 12 16 15 18 16 15 14 15 13 11 15 
36 37 35 34 31 36 39 38 34 37 37 40 37 37 39 37 36 37 33 35 35 35 36 37 30 27 29 28 33 30 29 26 27 27 28 23 28 26 27 24 27 27 23 27 24 23 27 29 25 24 24 22 21 19 22 21 21 20 25 24 20 19 17 20 18 19 18 18 16 14 12 14 15 14 19 15 16 10 9 10 
41 36 37 33 35 36 37 36 37 38 38 37 38 38 37 43 32 35 35 37 31 33 32 34 28 28 28 32 34 33 28 27 27 28 26 26 26 25 26 23 27 26 23 25 24 26 24 22 25 24 24 21 19 21 23 20 18 22 23 25 21 22 20 16 21 21 20 16 14 12 12 9 9 13 11 16 14 8 5 14 
35 33 35 35 35 32 37 33 36 39 38 37 35 35 39 35 34 36 35 31 28 31 33 31 31 28 28 29 33 29 25 25 25 28 26 26 25 21 26 28 22 24 24 23 25 22 24 27 27 23 21 17 18 22 24 21 22 18 25 20 20 21 18 17 19 17 15 15 13 11 18 9 10 7 14 14 14 6 5 15 
37 36 37 41 35 37 36 35 29 35 33 35 33 36 34 35 33 36 36 33 35 27 29 33 30 29 28 30 30 30 27 27 24 26 31 26 24 26 24 20 24 24 21 27 24 24 24 23 27 24 21 21 19 22 22 23 25 19 26 16 11 15 15 15 18 17 14 16 13 12 10 9 11 9 10 14 16 7 2 13 
36 30 35 32 38 36 38 33 32 38 36 35 34 32 33 29 29 31 33 30 33 27 30 31 30 31 31 30 31 26 27 25 25 28 27 25 28 25 25 24 24 24 18 24 25 21 24 25 27 27 24 19 19 24 22 21 21 22 25 20 16 16 13 16 18 17 14 12 11 10 14 10 7 8 11 8 13 4 3 12 
33 29 33 38 40 42 34 33 32 33 36 34 36 31 32 34 30 30 34 31 31 26 30 31 28 33 32 32 32 28 27 24 22 27 21 24 25 23 23 22 25 20 22 23 24 24 23 28 25 25 21 19 19 19 21 24 21 21 24 17 18 18 15 14 15 17 17 14 12 9 14 10 8 5 7 11 11 4 4 10 
31 33 34 34 38 34 34 35 30 37 36 34 39 34 34 32 33 33 33 35 26 27 27 28 28 31 34 28 32 26 28 25 25 27 23 23 21 25 22 19 22 22 22 23 24 24 23 29 25 21 21 19 18 18 24 23 20 20 25 20 19 16 13 12 14 15 15 14 10 10 12 4 10 6 9 8 9 6 0 11 
34 29 33 32 34 33 35 32 35 33 36 39 38 35 31 34 33 30 32 32 35 31 28 29 29 28 32 32 30 26 25 23 24 25 22 25 24 21 23 21 24 23 23 24 24 26 24 22 20 19 17 18 20 19 22 22 22 22 19 18 17 14 12 13 16 14 8 11 8 9 14 11 10 10 10 9 11 2 3 10 
27 33 36 33 36 37 35 33 29 35 36 32 42 36 31 31 30 32 32 33 37 31 32 29 29 28 26 28 31 26 24 21 24 21 21 22 21 26 23 20 24 23 23 21 24 21 21 21 21 20 20 16 19 18 20 19 21 20 21 18 16 12 9 12 14 12 10 12 10 9 12 8 9 8 9 12 9 2 6 9 
30 29 38 34 31 36 32 36 33 37 35 35 39 36 35 31 33 32 31 33 35 30 32 28 29 25 30 27 27 25 21 27 24 23 24 19 26 23 21 21 21 25 22 24 23 18 14 17 16 20 19 18 17 19 20 19 17 20 20 13 15 14 14 12 14 12 7 9 10 11 10 7 8 5 8 7 11 0 1 6 
30 30 31 31 31 32 33 37 33 36 38 29 34 34 30 30 32 32 29 32 35 32 29 29 26 23 26 29 30 25 25 23 23 22 22 26 23 22 21 19 21 24 24 24 22 18 17 16 15 16 17 17 16 14 20 17 16 15 18 17 13 12 12 10 17 12 7 7 8 5 11 8 10 5 3 5 11 0 2 8 
37 25 37 32 34 36 35 31 34 36 36 35 31 33 34 31 31 32 30 33 33 26 30 29 27 25 25 29 28 26 26 22 22 24 23 22 25 22 20 19 21 23 22 25 20 19 17 16 19 19 17 15 16 17 16 18 13 16 18 13 13 14 10 11 11 12 6 11 4 4 8 3 9 3 5 4 9 3 0 3 


