P2
80 60
180
167 167 163 160 162 155 155 157 156 150 157 153 150 148 151 151 144 146 140 140 139 138 130 126 103 76 75 80 117 154 160 158 160 160 164 162 161 160 162 164 162 164 167 165 161 163 163 156 151 152 150 162 166 166 167 169 171 168 164 165 162 165 164 160 143 150 150 153 139 116 95 47 25 24 26 26 48 58 74 70 
171 171 167 164 158 159 152 156 154 153 155 152 149 148 150 147 148 145 143 142 142 134 135 121 106 80 79 74 121 156 161 157 159 161 161 166 159 161 158 166 162 165 163 165 163 163 162 155 150 149 156 161 168 168 169 169 171 168 166 159 160 166 161 160 143 149 148 153 140 113 94 51 21 19 17 22 43 45 63 73 
170 170 169 160 157 156 152 155 152 154 153 149 147 148 148 145 140 145 143 140 139 133 128 126 107 81 75 79 126 154 158 157 161 162 163 164 161 164 164 161 164 165 162 159 160 161 160 156 155 152 156 160 164 169 167 169 169 167 165 162 164 165 161 159 149 146 150 150 132 113 103 49 14 14 15 19 39 47 55 60 
171 169 161 163 160 154 151 157 155 154 154 147 149 150 150 149 142 144 143 143 141 134 133 122 108 83 76 85 131 154 157 157 158 159 162 164 159 164 165 165 165 163 162 162 166 164 160 160 158 151 150 155 165 163 163 167 166 163 166 161 168 168 164 159 149 147 156 154 133 113 99 50 18 14 10 18 37 39 49 49 
171 167 162 164 162 152 153 156 155 153 152 150 146 148 147 150 142 146 145 144 137 133 133 122 109 83 78 84 135 157 158 156 156 155 160 165 159 162 163 164 166 162 166 164 160 162 166 164 151 152 151 158 166 167 165 164 165 168 165 161 165 167 163 168 155 151 160 154 140 118 99 50 18 13 13 21 31 36 46 48 
169 168 166 163 161 157 153 157 156 153 150 150 151 155 155 152 148 148 149 150 142 140 137 126 113 78 75 84 138 151 158 156 158 159 162 161 157 162 162 161 163 163 167 164 161 165 165 160 156 150 151 162 166 168 163 168 170 172 166 164 166 164 169 165 157 153 160 158 142 117 101 42 18 15 15 21 27 39 46 42 
167 174 165 166 162 155 151 155 157 154 157 158 155 158 159 156 159 156 156 152 150 142 139 128 112 82 68 78 142 155 159 157 153 155 160 161 161 162 163 159 164 163 161 164 160 162 162 160 161 152 152 159 163 167 166 168 171 174 170 169 166 170 167 167 156 154 155 157 141 113 97 44 14 10 16 12 26 31 42 46 
170 170 169 167 159 163 149 160 158 156 157 158 154 160 160 156 155 155 153 154 151 144 141 134 120 81 73 81 139 155 153 154 156 156 159 161 158 162 158 161 166 163 163 165 159 159 163 161 161 156 157 163 163 164 164 168 171 171 167 166 167 169 170 164 155 154 153 153 139 118 98 43 17 14 17 8 14 24 40 46 
172 173 167 167 164 156 152 160 154 159 155 162 158 160 157 154 157 156 151 152 147 144 137 132 122 83 69 83 145 159 158 153 159 158 158 159 159 157 158 159 163 161 164 161 160 163 164 160 161 160 158 161 157 161 167 168 169 168 167 168 167 167 168 162 150 156 152 155 138 113 101 45 20 10 16 4 14 27 38 42 
174 173 169 170 164 161 159 162 158 158 164 159 161 162 157 157 159 153 153 151 147 143 140 132 125 82 69 93 145 155 155 152 153 157 159 158 162 160 160 160 162 158 161 162 157 161 160 162 160 157 149 154 158 166 168 169 168 168 165 165 167 166 166 163 149 151 153 153 138 113 100 45 18 17 13 1 16 28 43 54 
176 170 167 170 165 164 166 166 165 163 162 164 160 163 161 158 154 152 149 151 141 142 137 132 126 89 68 98 149 157 154 157 155 154 157 155 155 160 161 161 160 160 158 159 157 159 157 155 151 150 143 151 147 158 167 166 169 165 165 163 166 164 163 163 149 152 154 152 139 114 100 44 15 12 16 3 14 31 46 55 
171 172 170 171 166 165 164 168 162 163 162 161 161 157 156 156 153 153 149 148 144 143 137 133 124 89 67 91 147 153 156 156 153 159 158 157 156 161 157 158 159 159 158 160 156 157 158 152 145 139 137 144 148 157 165 167 168 167 166 163 164 166 167 162 152 153 153 156 138 110 104 45 13 11 14 6 12 27 44 58 
176 172 169 172 164 165 161 163 162 161 159 159 162 158 156 151 146 147 142 144 143 137 138 136 125 92 66 102 148 153 157 153 153 158 159 156 155 157 159 158 158 158 158 157 158 159 156 153 151 146 139 145 154 155 160 168 167 168 166 161 169 166 169 161 156 154 153 161 141 112 93 45 21 16 12 5 16 32 42 51 
173 174 171 165 164 164 160 162 163 162 160 159 158 156 158 145 140 139 139 135 138 131 130 131 127 93 72 103 145 152 155 153 156 157 161 154 156 158 154 154 159 156 157 158 156 161 153 153 147 140 133 143 150 156 160 170 168 169 166 167 167 167 163 160 151 152 152 157 135 112 105 43 21 13 8 8 20 31 46 44 
171 174 168 167 159 162 156 164 160 161 156 161 158 155 149 141 137 135 132 135 132 126 127 127 122 97 78 101 146 152 154 151 153 157 156 157 154 155 153 150 153 157 158 159 154 154 154 150 141 136 126 135 141 157 160 167 171 180 169 159 167 165 167 160 151 149 156 151 131 115 103 43 22 17 7 10 18 26 37 42 
171 174 172 167 164 158 160 164 162 156 160 161 156 153 149 142 134 136 133 139 130 125 125 128 122 106 86 114 149 155 152 151 153 155 155 159 157 157 156 158 159 157 153 155 151 153 153 152 144 126 123 130 147 158 161 168 168 171 168 165 167 169 167 161 148 156 155 153 132 118 107 42 21 18 12 8 25 28 38 39 
171 175 167 166 164 159 158 162 155 155 159 156 154 151 146 142 132 135 129 132 129 126 123 121 118 109 92 119 145 155 154 151 153 155 155 158 154 153 157 152 153 153 155 157 150 152 152 148 138 126 125 133 145 152 161 172 171 169 168 162 162 169 166 160 149 153 153 150 125 115 103 44 21 13 14 5 17 25 36 33 
165 174 166 166 165 159 159 162 157 156 157 159 155 148 150 144 134 135 135 133 127 128 126 124 122 115 92 125 146 152 151 153 154 154 155 154 153 154 156 159 155 150 156 155 150 152 149 145 135 127 124 129 146 154 162 164 167 174 167 162 167 164 163 163 147 152 152 147 125 114 106 48 22 13 9 8 16 23 35 33 
169 171 171 166 162 164 160 161 161 156 155 158 156 154 149 144 139 137 137 135 129 126 125 125 121 115 94 128 153 153 151 152 149 156 157 160 155 155 155 159 156 151 154 155 148 145 135 125 121 122 122 126 138 151 159 162 165 163 164 162 166 165 161 158 146 153 151 140 125 118 100 40 18 11 12 7 18 24 35 33 
168 169 166 167 163 164 158 161 161 159 161 158 156 155 153 151 145 142 141 141 140 135 135 124 121 116 103 133 149 153 152 153 153 152 153 155 150 154 154 157 154 154 154 154 149 143 135 123 114 115 114 120 128 143 159 158 161 164 164 164 165 163 163 159 148 153 156 140 122 115 104 43 23 11 10 5 14 23 37 35 
167 168 166 166 163 163 158 158 161 156 160 160 156 153 156 151 145 143 143 138 137 129 126 125 118 112 100 137 144 155 156 151 152 152 151 153 153 154 150 156 155 150 153 151 144 140 130 118 112 112 113 116 128 147 158 159 163 161 163 162 164 167 166 160 149 154 152 140 125 114 102 41 18 9 7 9 16 24 42 40 
166 171 164 166 164 162 161 162 159 159 158 161 162 155 153 149 145 141 140 140 133 127 128 122 121 117 115 135 147 151 152 152 151 152 150 152 152 153 154 157 153 151 151 150 144 145 127 117 114 115 117 118 135 150 149 157 167 163 161 162 164 163 161 159 153 153 151 141 122 115 99 36 21 11 0 6 16 26 32 39 
169 168 164 168 164 163 161 162 163 158 157 160 157 157 153 151 142 143 143 141 134 124 125 123 118 117 119 135 151 149 152 153 152 152 155 153 151 151 152 155 151 149 151 145 136 139 129 120 121 123 121 118 140 145 147 156 164 162 159 158 167 167 162 161 150 162 155 141 120 117 103 40 22 13 10 1 17 25 37 37 
174 168 165 166 163 163 161 166 163 159 157 159 157 156 153 152 141 141 142 138 135 129 124 124 119 115 111 139 148 151 150 151 150 151 151 152 150 152 153 153 152 146 151 148 145 137 127 130 132 138 120 120 135 145 147 153 162 161 159 161 164 165 156 162 155 154 155 136 118 118 95 35 21 11 6 4 15 19 37 38 
166 169 164 165 162 164 161 166 163 160 159 154 155 156 154 149 142 144 144 141 129 130 123 125 117 119 110 142 147 150 152 148 149 152 152 154 152 152 151 156 151 142 148 148 147 139 142 137 134 131 130 131 141 145 148 152 164 160 156 158 165 164 161 164 153 160 153 136 117 114 89 29 18 10 10 4 16 26 39 42 
169 168 165 159 158 162 160 166 162 159 159 156 153 155 155 147 142 143 139 139 135 133 122 121 118 119 106 144 145 149 149 147 147 148 150 151 156 149 153 152 147 143 146 149 143 141 138 129 123 124 119 130 142 148 154 155 162 163 161 159 164 165 163 155 153 157 152 132 116 114 86 31 20 9 11 3 19 24 32 46 
167 167 163 161 164 164 163 161 156 156 153 154 155 155 147 141 136 137 138 136 136 135 128 119 119 121 111 141 149 147 148 146 148 153 150 150 150 149 150 151 141 139 143 146 142 135 125 125 126 122 117 129 131 135 150 158 166 160 157 158 163 163 158 154 150 158 150 126 115 109 80 23 15 4 7 6 21 21 36 45 
167 169 165 165 164 160 155 162 158 157 154 153 152 154 150 134 136 140 138 135 132 133 119 124 121 122 117 143 149 147 149 149 148 150 150 152 150 149 153 149 143 138 145 146 140 136 131 133 131 124 121 134 141 139 146 158 155 158 161 160 164 163 160 155 149 154 145 124 110 113 77 26 17 16 10 7 13 24 37 46 
167 169 166 162 162 163 152 161 156 155 153 153 151 153 151 139 136 135 134 137 130 134 120 123 119 120 115 144 148 148 149 147 148 148 152 150 149 150 153 155 142 137 142 143 139 136 134 127 131 130 128 135 136 140 148 155 156 158 159 157 159 162 161 156 149 154 143 122 112 107 74 24 19 12 12 8 13 22 37 52 
171 171 166 162 162 161 155 163 160 158 155 154 153 155 152 142 137 136 133 132 131 134 123 123 119 119 120 148 151 150 149 148 148 149 151 149 147 152 152 152 142 138 146 142 142 135 129 125 129 130 131 130 139 141 146 156 160 155 158 154 162 160 161 155 152 152 145 121 113 107 76 26 19 19 16 9 17 22 36 49 
168 168 166 163 163 160 156 159 156 155 156 153 155 152 153 143 138 135 135 133 131 135 124 124 121 121 117 145 149 147 148 146 146 150 151 152 148 149 150 153 141 137 145 147 141 136 134 133 122 120 118 131 140 134 150 152 157 157 152 156 159 158 157 160 155 154 139 121 109 100 67 25 22 20 18 11 21 26 46 54 
166 168 163 161 162 162 157 157 157 156 155 155 153 153 149 139 136 135 129 134 133 136 125 122 120 121 120 144 148 147 152 149 150 150 147 151 148 149 148 146 134 131 146 149 140 136 142 133 130 128 121 127 141 144 145 154 156 156 153 155 159 162 158 160 154 148 131 113 109 101 61 23 23 25 21 12 19 28 46 49 
167 169 166 160 161 160 157 160 162 155 156 156 153 152 151 140 139 136 128 131 130 137 125 125 119 121 120 149 148 148 149 148 149 147 150 149 150 150 152 151 137 133 151 145 142 131 132 133 127 129 123 126 133 139 146 155 155 150 154 153 159 157 157 159 154 152 125 117 108 101 55 24 29 23 22 19 26 33 44 57 
165 169 165 164 161 159 157 158 158 157 154 154 153 154 151 143 137 134 129 133 134 138 121 125 120 120 122 151 145 152 150 148 147 148 151 152 149 149 148 151 136 130 148 146 140 125 111 108 118 127 122 124 128 135 148 150 153 151 156 150 156 163 158 157 153 146 126 113 107 92 49 27 29 26 25 21 26 40 51 60 
170 167 167 164 161 161 158 159 161 152 156 159 154 150 149 140 138 135 133 132 132 136 123 121 118 117 121 147 148 150 148 152 148 148 150 149 149 147 150 149 132 132 148 144 140 125 110 111 108 105 111 124 127 138 150 151 154 154 152 156 154 159 158 160 154 149 119 111 102 90 51 32 34 32 32 24 30 43 53 61 
166 169 165 161 158 157 155 159 154 155 152 153 153 152 148 137 137 133 130 128 135 129 123 122 119 118 117 145 149 148 148 150 151 151 149 150 147 148 149 153 134 127 144 143 136 120 109 113 112 111 110 126 131 138 147 151 151 148 154 154 155 159 153 158 153 138 116 111 98 88 45 29 32 34 35 25 34 43 53 49 
167 168 164 163 161 158 155 159 156 156 157 155 153 153 142 138 133 133 132 126 136 132 121 121 116 116 122 146 150 146 149 152 150 148 149 149 150 150 149 153 131 131 136 144 134 120 111 104 105 105 115 127 135 142 152 160 148 150 148 153 158 157 155 155 148 136 113 107 103 77 48 31 37 33 35 31 35 42 56 60 
169 169 168 166 165 161 158 161 158 156 155 154 155 152 149 134 138 136 134 134 132 131 124 118 115 117 117 144 148 145 150 151 150 150 151 151 148 151 152 149 127 133 138 140 132 121 104 113 110 110 127 121 123 145 150 151 146 151 151 153 157 152 151 156 148 136 110 104 97 79 41 35 40 37 43 34 38 48 54 53 
169 165 168 159 160 155 154 158 155 156 156 154 152 153 148 134 128 134 135 134 135 131 122 122 117 115 119 142 147 146 144 147 147 149 150 149 149 149 152 145 120 129 137 140 128 116 97 102 101 120 125 128 136 141 147 156 145 149 151 156 153 154 154 150 145 125 105 102 95 72 35 29 38 38 46 37 38 43 55 60 
168 167 166 159 165 159 155 160 157 155 154 154 155 156 148 135 133 138 135 134 138 134 122 125 119 117 123 149 148 149 150 149 148 153 149 150 148 150 149 148 123 119 139 140 131 115 105 101 106 119 123 142 146 144 151 155 150 150 152 152 158 154 153 151 144 124 107 105 97 68 36 30 37 43 49 42 41 46 60 74 
165 166 164 160 160 160 154 160 155 155 155 155 154 156 149 138 130 132 134 133 136 134 125 121 118 121 127 150 147 144 147 149 149 150 151 151 148 150 149 147 118 121 141 139 127 115 103 106 114 113 128 143 147 144 149 149 149 145 147 149 150 152 150 150 134 118 111 100 95 66 36 35 33 49 48 40 42 52 75 70 
166 167 164 163 160 159 154 160 151 154 152 151 154 154 147 138 138 132 130 135 134 131 125 122 118 120 123 150 146 145 148 149 147 146 153 155 157 152 148 146 115 114 137 139 124 115 116 116 107 122 129 136 142 148 153 151 158 152 145 148 146 153 153 152 135 110 103 101 94 58 34 30 43 47 48 43 47 51 71 68 
167 168 166 160 159 159 157 156 154 156 154 150 153 153 145 134 132 130 132 132 133 132 125 123 120 121 121 148 144 148 148 152 150 152 150 157 154 149 150 142 111 115 138 136 125 116 114 113 121 125 130 132 136 148 156 152 152 150 150 150 153 153 154 152 131 111 104 102 93 56 35 31 38 47 54 42 46 51 66 70 
167 164 162 157 159 161 149 158 155 152 155 154 152 155 147 134 131 128 132 134 133 131 127 122 122 123 117 148 150 143 149 149 149 148 147 150 151 148 145 144 110 115 136 135 122 120 126 125 127 135 126 123 118 147 155 150 152 148 150 151 150 152 151 152 125 115 104 104 91 51 34 31 41 39 50 46 47 49 64 76 
165 165 161 159 162 155 157 160 159 153 153 151 152 156 153 136 134 136 133 136 134 132 120 118 118 119 117 146 143 146 147 150 147 149 150 151 148 148 149 143 110 114 134 136 120 122 125 128 128 129 112 93 108 142 147 150 153 150 148 145 151 153 147 147 123 108 104 100 91 48 37 27 39 46 50 40 46 48 62 68 
163 162 160 159 160 159 153 159 156 153 152 153 154 152 153 143 139 133 134 136 134 129 124 121 119 121 111 142 143 145 147 150 146 147 152 153 150 151 145 139 107 116 133 137 125 117 109 108 115 104 81 85 109 137 141 145 152 146 149 148 150 154 150 142 120 104 102 100 86 47 38 32 41 53 56 48 47 54 63 74 
161 164 159 157 158 158 153 154 150 149 153 153 153 155 151 143 134 135 137 139 133 133 126 121 121 120 120 146 148 149 148 148 149 150 149 150 148 148 148 141 109 116 136 135 118 105 71 66 70 68 68 73 101 128 131 136 147 144 145 143 148 147 149 141 109 103 97 98 82 38 35 31 43 48 54 47 51 54 65 73 
159 163 157 161 158 156 153 156 152 147 151 152 154 155 150 138 131 128 130 133 130 131 126 120 121 121 111 141 147 149 148 150 148 148 150 150 149 149 145 142 104 120 134 132 116 102 65 59 62 60 57 66 80 81 107 104 117 132 147 145 146 135 136 131 104 97 99 98 82 38 37 32 42 51 54 46 50 62 62 69 
159 159 159 163 160 155 152 156 150 152 150 151 150 155 147 135 131 128 127 130 131 135 133 122 117 120 107 144 146 150 147 145 144 146 147 148 150 149 141 136 107 116 131 131 120 105 60 53 54 54 56 66 68 73 76 85 85 108 139 137 133 105 112 117 99 97 100 96 68 30 31 35 45 49 49 44 51 54 66 67 
162 165 161 164 158 160 153 156 153 149 151 152 150 152 148 138 134 132 130 133 135 132 128 123 118 117 114 145 145 146 149 148 145 147 149 150 151 150 142 135 105 118 133 128 116 108 57 49 50 50 54 59 69 68 72 75 78 89 101 111 100 79 79 93 93 97 99 90 62 25 31 29 48 49 48 48 50 56 63 71 
163 166 161 159 160 155 153 152 153 151 148 149 147 149 145 131 130 129 130 129 134 132 124 119 118 117 120 146 143 147 151 145 146 145 148 146 145 146 144 134 99 118 130 132 116 104 59 47 46 48 50 58 63 68 67 77 74 78 78 86 82 74 76 76 85 78 93 88 53 25 26 26 41 52 47 42 52 55 61 67 
158 163 159 162 157 158 149 152 151 149 151 149 148 151 150 130 132 130 128 130 135 130 128 122 119 118 120 142 144 146 145 147 145 150 151 149 149 145 143 130 100 115 130 129 114 99 55 42 48 47 52 56 59 64 70 74 72 76 77 76 81 64 72 76 81 88 94 87 51 22 14 21 32 38 43 46 51 55 61 71 
158 160 159 159 161 161 154 156 149 151 153 150 148 149 147 128 130 131 132 133 136 135 126 121 118 119 123 140 145 147 146 145 148 146 146 151 148 144 140 131 97 112 126 129 111 100 60 39 42 41 46 48 52 57 60 67 69 72 77 74 75 64 73 80 81 85 90 80 34 14 16 11 27 38 43 41 47 56 59 71 
159 161 158 159 166 159 152 152 152 153 150 149 148 148 146 132 130 128 131 133 132 137 128 124 121 117 119 146 142 144 144 147 145 144 150 149 149 146 143 127 95 102 125 123 112 101 59 34 35 39 40 40 49 56 57 65 70 67 68 65 70 70 72 78 82 79 84 71 32 14 16 13 30 35 47 42 50 55 71 76 
161 161 159 162 160 154 153 156 151 152 152 152 151 149 147 128 127 126 128 135 135 137 125 121 122 119 125 142 148 145 147 147 144 151 150 151 145 142 139 119 89 106 121 121 110 95 55 36 31 32 34 39 42 52 48 59 59 60 62 63 66 66 68 75 74 82 77 64 18 9 17 21 33 39 48 44 52 55 71 74 
161 158 159 156 154 152 151 151 155 150 154 149 150 148 150 126 125 128 128 135 135 135 125 124 120 118 121 142 144 145 142 145 146 149 149 147 143 140 137 111 92 99 123 117 108 95 60 34 33 30 29 36 40 44 42 49 51 54 55 54 60 63 62 75 71 78 69 55 12 6 26 31 42 49 45 47 55 51 73 72 
157 160 160 160 156 152 150 154 153 151 151 150 157 149 154 127 122 125 129 137 137 135 128 122 118 119 118 137 146 146 142 143 147 149 148 148 144 143 136 113 87 106 122 116 106 92 62 41 39 39 37 41 46 44 44 48 46 48 44 49 51 52 54 70 70 74 72 53 10 14 29 38 50 52 56 54 60 57 74 70 
156 156 157 159 157 154 150 152 148 148 152 149 149 151 150 130 115 124 127 137 136 134 128 125 114 120 115 143 141 142 142 144 144 148 148 149 145 141 136 106 78 114 123 116 109 95 62 41 39 36 40 43 46 53 53 52 56 58 52 49 54 54 58 66 72 71 64 40 13 8 29 42 51 54 56 55 61 57 72 74 
158 158 154 156 156 157 149 148 150 149 150 148 148 145 149 131 124 124 129 136 137 134 131 124 117 115 118 141 144 143 141 143 144 146 147 145 142 146 136 103 81 118 122 117 108 93 63 43 34 32 38 38 42 50 46 57 54 58 60 57 61 62 67 67 61 61 58 36 13 10 29 42 47 56 59 53 57 61 66 69 
158 156 154 154 157 153 149 149 148 151 151 152 149 147 151 131 127 128 127 130 135 137 130 124 116 113 123 146 140 143 141 145 142 148 144 147 145 142 132 104 79 120 120 113 104 99 66 39 37 35 35 37 47 47 43 53 47 51 52 53 57 59 60 56 57 52 56 31 11 10 32 41 53 56 59 56 56 60 59 61 


