P2
80 60
138
123 121 118 118 122 122 118 121 121 123 122 118 118 117 119 118 116 120 119 121 123 122 121 122 126 124 124 127 128 128 130 129 132 130 125 126 125 125 127 132 128 132 132 130 130 128 129 131 131 130 130 129 127 128 132 133 132 132 134 127 128 122 125 123 121 126 123 114 117 112 115 113 114 114 110 114 113 110 109 112 
122 120 119 115 122 119 118 121 121 125 120 119 116 116 116 121 122 120 122 124 121 124 121 124 125 126 128 126 126 131 128 130 126 125 127 126 128 125 124 130 128 130 130 129 130 128 129 131 128 127 129 126 124 132 131 131 133 134 130 126 125 125 125 122 116 124 118 115 110 110 111 109 110 114 113 113 110 114 107 109 
120 120 118 118 119 122 118 118 122 122 118 121 117 115 118 119 118 123 123 123 123 125 121 126 123 129 125 129 128 131 129 132 134 126 127 128 128 128 131 131 129 131 129 129 130 128 130 126 126 130 129 127 127 129 133 131 131 130 130 126 126 126 120 122 119 121 121 120 112 111 114 112 112 113 110 117 113 110 104 113 
117 123 116 116 123 120 123 120 122 120 122 119 118 116 119 117 120 122 125 124 122 125 120 122 125 127 129 131 128 129 127 127 129 130 125 125 127 129 126 129 130 130 131 129 131 130 130 126 131 130 132 128 127 129 133 133 132 132 128 123 131 128 126 123 121 121 119 118 115 112 112 111 112 113 113 113 113 115 110 112 
129 122 119 122 123 122 122 117 121 115 111 114 117 119 119 122 119 122 124 126 124 125 122 125 122 128 130 128 127 129 132 131 128 123 122 125 126 129 129 131 128 130 133 132 131 129 132 132 130 130 128 127 128 125 129 132 130 126 125 127 125 125 125 125 118 121 120 117 117 111 112 109 111 110 115 113 110 111 108 112 
128 124 120 121 125 120 122 119 119 110 108 106 112 120 117 121 120 121 126 124 122 126 120 124 124 126 128 128 130 125 129 127 127 128 122 124 126 127 129 132 130 133 133 129 131 130 135 133 130 129 130 126 130 129 131 133 129 132 130 126 128 125 130 122 117 124 119 118 120 112 115 111 109 108 112 114 113 115 104 111 
126 125 122 120 123 122 126 117 117 116 115 107 113 115 120 121 122 127 125 126 124 123 121 124 121 125 126 129 130 128 128 127 126 123 126 126 126 128 131 132 133 131 130 132 132 128 130 128 130 128 131 133 128 130 130 133 132 133 133 128 131 124 124 124 122 124 126 120 114 111 112 110 111 111 110 114 113 111 108 108 
130 123 121 119 124 125 124 119 114 116 115 108 115 117 120 121 121 124 126 126 127 125 122 122 123 127 125 128 126 128 127 127 125 125 124 130 128 125 131 134 133 131 131 131 130 127 130 128 130 128 129 132 130 130 134 138 130 130 129 128 128 125 127 122 120 127 121 118 115 110 111 109 113 109 112 112 110 111 108 115 
132 126 121 124 124 123 125 119 115 116 108 108 114 116 117 120 121 123 123 126 121 123 122 123 122 125 127 129 127 127 128 127 126 122 124 125 125 126 131 130 127 130 127 129 129 129 129 129 126 129 128 129 129 133 130 132 129 128 128 128 128 125 125 118 124 123 123 121 113 110 109 108 112 109 111 109 112 110 108 111 
132 129 129 127 124 122 123 120 116 113 112 109 111 120 117 119 126 125 124 126 125 123 125 124 125 124 128 127 127 129 130 124 126 123 124 125 125 126 127 131 128 130 128 128 127 128 128 127 130 128 130 129 127 129 133 134 129 121 131 127 125 124 123 120 121 125 124 117 113 113 110 111 112 113 112 112 111 112 108 112 
129 130 129 126 124 123 131 116 114 116 111 107 110 117 119 121 123 124 122 123 121 124 123 125 123 124 124 125 127 128 129 128 126 126 119 124 124 124 127 133 130 129 129 126 128 126 126 127 126 127 125 126 127 128 132 131 129 125 128 125 125 125 123 123 122 126 124 121 112 115 110 111 113 113 111 113 111 114 109 113 
134 129 129 124 127 124 126 116 116 112 109 108 111 117 118 120 122 124 121 124 121 124 122 124 123 126 125 128 125 125 130 129 127 122 123 122 123 122 129 130 128 128 129 127 130 127 127 127 127 126 124 128 127 127 132 133 128 130 126 123 126 124 123 125 124 126 121 119 112 107 106 107 112 113 111 119 111 113 107 114 
138 130 126 124 127 123 120 116 113 111 109 107 114 117 117 120 120 121 117 122 121 123 119 123 120 126 124 124 126 128 132 126 124 122 122 122 122 126 133 131 129 128 127 124 132 130 127 128 126 125 127 127 125 127 129 130 129 130 128 125 125 127 126 121 120 121 119 116 112 110 99 108 108 108 109 112 109 115 110 112 
132 129 128 127 122 122 123 112 116 110 107 108 111 116 119 119 118 119 118 119 125 121 119 121 121 123 126 125 122 127 127 125 126 124 123 121 122 130 124 124 127 128 126 128 125 130 128 129 124 131 128 128 125 127 130 132 131 129 128 126 124 124 121 120 121 122 118 116 109 106 108 106 106 111 110 113 113 113 109 112 
135 132 129 128 124 121 117 116 116 112 105 108 113 119 116 120 118 122 120 120 120 120 121 123 123 121 125 127 123 125 125 124 123 123 124 122 124 129 125 129 122 126 126 125 126 126 127 125 126 128 128 126 125 128 131 132 135 132 129 125 122 121 124 118 118 123 120 115 112 109 110 108 109 110 107 109 111 113 110 112 
135 137 136 128 122 122 116 112 118 109 102 108 117 119 117 119 119 123 119 119 120 121 120 122 121 125 124 123 125 124 129 124 122 122 122 123 124 126 128 127 125 128 125 127 126 127 128 125 125 128 123 123 125 131 130 134 129 130 129 127 123 122 127 122 118 125 118 120 113 111 110 110 113 111 111 109 111 114 105 113 
134 134 129 129 124 121 116 112 111 106 104 109 116 118 118 121 119 120 120 119 118 122 118 119 119 121 124 124 121 126 126 122 124 121 123 123 123 123 126 127 126 127 126 123 123 130 125 125 124 124 125 123 122 128 130 133 128 132 128 123 121 123 121 121 120 123 119 115 114 110 112 108 114 113 109 108 109 112 114 112 
130 127 130 128 125 120 113 111 111 107 105 109 115 115 117 117 120 120 119 120 121 117 117 119 118 124 124 125 124 126 124 122 122 121 120 122 124 123 127 129 124 123 123 126 126 125 125 123 125 123 123 123 129 126 135 132 127 131 128 124 124 122 121 120 117 119 112 115 112 111 111 106 113 110 109 111 109 113 108 114 
136 133 131 129 127 120 113 113 110 109 108 111 115 118 117 120 122 120 122 121 119 120 119 124 122 123 122 124 126 125 126 123 121 121 126 120 125 126 125 126 125 127 126 128 128 125 128 123 125 123 123 123 128 127 127 126 124 130 126 122 125 121 118 120 120 119 115 115 113 110 109 109 111 109 108 109 109 110 108 110 
136 129 127 125 123 123 113 107 111 108 108 108 117 115 116 118 119 123 120 120 119 122 123 122 122 122 124 120 123 123 131 123 123 119 123 120 124 125 126 127 124 124 126 124 124 125 125 123 125 123 124 122 124 127 128 129 129 123 122 122 122 124 120 116 118 121 117 116 113 111 112 110 114 110 108 108 108 108 107 109 
133 130 129 127 125 117 112 108 106 107 108 113 119 117 116 117 118 122 123 123 117 120 116 121 121 122 121 120 122 129 132 125 120 120 122 120 122 125 123 126 124 129 123 125 121 122 122 124 120 119 121 123 124 125 130 125 125 123 121 122 121 121 122 118 119 118 117 115 112 110 111 113 111 110 109 108 109 110 109 112 
134 130 130 128 124 116 113 106 108 104 111 107 122 117 114 119 117 120 119 121 117 119 118 118 116 123 123 119 124 125 125 123 120 119 117 121 122 122 129 126 124 127 123 121 122 121 120 123 120 123 122 121 122 128 127 125 124 124 124 119 119 119 122 120 117 120 117 112 111 111 111 110 113 108 108 107 106 112 109 117 
135 129 128 126 124 116 112 110 107 107 100 111 117 116 116 117 118 120 120 124 116 114 117 116 112 122 120 125 121 125 120 119 120 116 117 119 122 123 126 126 121 122 122 121 121 119 123 122 120 124 120 121 119 124 124 128 120 122 122 118 121 117 120 121 120 120 117 116 116 110 109 112 116 111 104 109 107 108 108 108 
134 132 131 127 124 115 112 116 108 105 107 109 116 114 115 115 119 119 118 118 119 117 116 116 117 123 120 123 119 122 117 117 120 117 116 119 121 120 122 126 123 125 121 124 122 121 122 120 122 126 125 119 122 123 126 125 122 121 124 122 123 117 120 119 117 117 116 115 115 110 110 111 113 114 113 108 108 111 113 114 
132 130 129 125 124 115 113 113 111 108 106 113 117 116 112 112 117 118 115 119 119 118 114 117 119 122 119 122 123 122 119 115 118 116 120 121 120 123 120 124 119 120 121 121 123 122 123 122 123 121 120 124 122 123 124 124 122 120 124 121 123 121 119 116 120 119 116 114 110 110 109 109 113 112 107 107 107 107 111 113 
132 129 127 121 118 119 111 110 103 106 112 114 115 115 118 116 116 116 112 117 113 117 117 119 116 121 118 119 120 121 118 116 118 117 118 122 121 120 121 123 121 122 122 123 120 122 123 124 122 125 121 122 123 125 121 125 121 120 119 121 119 117 119 116 119 114 115 118 109 107 113 110 113 110 110 111 109 111 109 120 
135 129 125 121 119 115 111 109 103 108 108 111 112 116 117 116 118 118 118 115 117 117 118 120 118 122 118 120 120 122 119 114 118 118 120 116 118 120 118 122 119 124 122 121 119 122 121 118 119 120 120 120 121 121 121 122 120 118 119 120 117 116 116 116 117 111 112 113 111 109 112 109 117 113 112 108 113 110 109 110 
134 125 129 122 121 108 104 111 104 103 108 111 112 115 114 112 115 115 114 116 112 115 115 117 118 122 120 121 121 122 114 114 115 114 116 118 121 116 118 119 122 122 123 121 120 121 119 120 119 117 122 119 120 121 119 121 117 115 116 120 116 115 117 117 116 112 110 116 112 113 110 110 110 110 106 109 108 109 108 113 
131 130 126 120 116 109 104 109 105 107 110 111 113 120 114 114 112 114 116 117 111 115 112 115 116 122 117 119 117 122 117 111 114 116 115 116 120 118 119 123 117 122 122 118 120 120 121 121 119 121 121 122 119 120 123 121 116 114 118 119 118 118 115 117 114 113 111 110 107 109 110 110 108 108 109 106 105 109 107 110 
133 128 128 120 114 107 107 108 107 107 111 112 115 118 111 113 110 113 114 112 111 110 116 117 120 117 116 118 115 122 116 116 114 116 115 119 120 118 119 119 120 122 122 120 120 117 122 121 121 118 122 119 120 122 121 120 117 115 117 116 122 118 118 118 117 116 119 114 110 109 110 110 110 103 104 108 109 105 105 107 
135 129 126 124 120 107 105 106 103 104 107 110 113 115 112 111 111 112 114 113 111 115 121 117 117 120 117 118 118 119 121 115 116 115 120 119 120 118 121 120 119 121 127 124 119 123 118 124 121 119 121 122 120 120 125 119 116 117 114 118 120 115 118 121 115 116 114 114 111 109 109 111 110 107 105 106 105 108 104 108 
132 133 121 121 121 105 107 105 104 100 110 112 112 114 113 116 114 113 114 114 111 114 115 113 117 119 122 114 115 122 113 114 113 115 117 118 119 118 117 123 123 121 120 123 121 115 118 119 120 121 120 119 119 120 121 120 117 116 113 114 114 116 116 118 117 116 114 111 109 113 110 107 111 107 102 108 105 108 109 110 
126 126 123 126 113 106 106 104 107 106 108 110 110 111 110 111 112 111 114 113 113 114 113 114 116 120 118 117 116 118 118 114 115 113 113 118 118 116 116 121 118 120 122 116 122 117 116 116 118 120 118 122 119 123 121 118 116 115 118 115 113 114 120 116 113 110 114 110 110 108 110 107 109 107 106 106 108 105 106 111 
122 122 120 119 112 105 104 100 102 103 110 112 109 113 113 110 111 110 110 112 111 111 111 116 118 117 117 116 115 120 116 113 114 114 115 114 116 116 117 119 119 122 121 119 120 119 117 119 117 116 120 120 117 121 120 117 117 120 116 113 114 117 118 115 113 113 113 111 109 108 106 108 108 109 108 109 109 109 105 110 
125 121 123 121 110 104 105 98 102 103 108 110 110 112 109 110 112 111 110 115 112 113 111 116 118 117 112 117 113 115 113 115 114 116 116 113 118 117 115 118 117 117 118 119 119 119 119 117 116 117 119 121 118 119 117 120 118 116 118 111 116 116 115 117 115 114 113 109 108 107 108 107 110 105 105 107 110 109 106 110 
127 123 121 120 114 107 104 95 107 99 112 106 112 113 110 106 109 111 110 113 110 111 113 115 114 113 113 113 113 113 114 115 117 114 116 116 117 116 115 117 117 116 116 118 119 116 120 120 119 118 115 120 118 118 117 116 118 116 116 116 112 112 114 116 112 111 111 109 105 109 106 107 110 107 107 105 110 108 111 110 
126 124 120 120 109 103 105 99 98 100 109 106 108 111 107 109 109 111 111 109 114 112 111 115 112 111 111 112 111 115 112 112 115 113 114 115 118 115 113 117 114 117 118 117 115 116 113 117 115 117 116 117 118 119 117 118 116 115 117 117 114 116 114 111 114 113 109 108 109 106 110 104 107 105 105 105 105 109 107 111 
125 124 122 122 108 107 105 99 106 95 106 106 110 107 107 106 110 115 110 111 110 111 112 114 113 112 110 109 111 114 115 113 115 112 116 115 114 115 114 117 115 117 119 120 117 115 117 118 119 118 118 119 118 119 118 119 114 116 114 113 112 113 115 112 112 112 110 110 110 106 108 106 105 106 104 104 106 107 110 111 
124 126 125 124 107 103 103 99 102 101 112 106 107 108 108 109 107 113 109 106 107 114 110 116 112 112 108 111 111 111 110 113 112 115 114 114 114 113 119 116 116 120 119 121 116 116 119 117 116 119 119 122 119 122 120 119 112 117 114 113 113 113 114 112 107 110 111 110 108 106 106 109 102 104 104 105 107 108 110 115 
126 123 122 118 108 107 101 99 102 102 102 105 108 107 104 106 105 109 108 109 107 113 111 116 111 110 109 109 110 116 108 113 115 115 116 116 114 114 115 118 118 118 118 116 115 114 122 118 119 120 119 124 123 121 119 116 111 115 112 114 112 108 110 113 108 111 107 107 107 103 106 108 104 108 105 107 108 113 111 117 
123 121 120 118 104 102 99 99 100 101 106 104 104 107 108 106 106 106 106 107 107 108 111 115 113 114 115 110 109 111 109 112 114 114 113 115 114 113 113 116 115 115 117 117 113 115 119 120 120 121 122 123 121 119 117 116 113 113 113 112 111 116 111 107 107 106 104 108 105 104 104 107 99 108 105 107 107 109 115 116 
126 122 119 114 104 101 100 92 101 99 105 103 108 104 105 106 107 108 104 105 108 107 110 114 113 112 111 110 108 107 110 111 113 114 117 113 115 114 111 116 112 118 114 113 114 115 119 119 120 119 121 122 118 119 115 118 113 114 113 109 111 111 111 109 108 106 105 104 106 104 107 107 108 106 102 106 108 106 107 114 
129 126 123 114 101 97 98 91 96 98 102 102 104 106 106 103 104 104 106 110 108 107 109 114 111 111 107 107 109 110 109 111 113 112 114 115 114 116 113 116 117 116 115 117 117 115 119 118 117 119 121 120 118 118 114 115 115 113 109 111 108 113 114 112 107 106 106 105 107 100 105 106 108 103 102 104 104 106 106 109 
128 123 122 112 99 98 95 89 97 96 102 105 104 105 106 106 104 104 106 109 108 106 108 111 110 113 109 103 108 112 112 112 111 113 112 114 116 113 113 116 113 117 114 115 114 115 119 122 116 117 118 118 116 117 114 114 114 112 112 110 109 111 111 108 106 106 107 103 104 105 106 102 101 103 105 104 108 106 107 107 
125 126 122 113 98 96 95 85 96 98 96 101 101 104 104 103 103 101 104 106 108 106 109 109 108 109 105 105 106 111 107 110 113 113 114 113 112 112 113 112 116 114 113 114 115 115 119 120 119 117 117 119 113 115 110 111 109 112 113 108 107 109 109 108 106 106 106 107 106 103 104 104 103 103 103 105 108 106 106 108 
125 122 115 115 98 95 93 91 97 92 99 103 105 102 106 103 109 106 103 107 107 105 109 111 109 104 107 105 105 108 110 108 108 112 111 118 114 115 110 112 111 114 113 116 117 115 116 118 114 116 119 120 114 117 113 112 108 109 112 108 110 111 108 111 106 107 107 104 105 102 106 104 103 103 105 105 104 105 107 106 
126 121 120 102 96 93 91 91 96 95 98 100 102 100 101 103 103 106 105 102 103 105 104 110 109 107 104 102 104 108 108 109 109 109 111 113 109 113 109 110 112 111 112 114 116 119 117 116 117 119 117 119 114 114 114 111 114 111 107 107 109 110 112 107 101 105 104 105 102 104 101 104 103 104 104 103 105 109 101 106 
127 125 116 110 98 94 88 91 94 91 99 98 100 101 99 101 103 104 105 101 103 104 108 109 109 108 106 104 105 111 107 107 110 110 112 114 112 113 113 113 112 118 111 111 113 115 118 116 116 112 115 117 115 113 112 108 111 113 111 105 110 109 109 109 100 103 100 103 101 105 105 102 105 103 99 100 107 106 100 104 
124 125 115 107 99 94 93 93 92 98 94 98 103 102 101 102 100 99 103 102 104 102 113 109 106 104 106 104 105 107 107 109 109 110 111 111 110 112 112 113 114 113 110 112 114 111 115 113 113 115 118 117 115 114 113 110 113 110 110 108 110 112 109 102 99 102 100 104 103 104 102 103 101 101 102 98 106 106 104 103 
129 121 116 106 98 94 97 93 96 97 98 97 103 100 99 102 100 106 106 103 104 106 110 110 108 106 104 104 106 108 108 106 108 110 113 111 111 109 113 112 110 115 111 112 116 113 112 111 112 118 114 115 114 117 113 110 108 108 114 110 107 114 106 106 99 101 103 101 102 105 104 103 102 104 105 102 106 104 105 106 
130 129 114 112 96 93 94 95 96 97 99 99 99 100 99 102 100 101 101 100 102 105 106 108 103 107 102 103 106 106 104 107 106 110 110 109 110 108 111 113 110 112 113 112 115 114 113 112 111 113 112 115 110 114 111 111 111 110 110 108 110 111 109 104 101 101 101 102 103 101 104 105 99 103 100 103 107 107 105 104 
130 122 117 108 98 96 96 98 97 97 99 94 97 98 97 97 98 98 99 103 103 104 105 105 103 106 99 104 103 105 106 106 111 105 115 112 109 109 110 111 108 109 111 112 112 112 111 112 113 113 115 113 111 114 110 114 109 110 105 108 107 106 107 102 96 99 102 102 101 100 106 100 101 101 101 107 108 106 100 105 
127 125 115 112 96 90 90 93 100 102 96 98 99 95 94 96 96 99 99 99 96 102 104 106 107 106 106 103 104 107 104 104 106 107 110 109 109 108 108 108 110 111 111 110 109 112 112 113 113 112 114 114 109 111 109 113 112 109 111 105 107 107 108 102 97 99 98 99 103 104 104 98 101 99 101 104 105 104 98 100 
125 118 114 108 98 93 90 91 96 100 102 98 96 97 96 97 98 99 100 101 97 100 100 102 104 106 102 101 101 104 105 105 102 105 109 109 106 104 110 107 107 108 106 107 109 109 113 111 113 115 112 115 109 110 109 108 110 111 112 106 109 108 105 101 97 97 99 97 99 103 100 102 98 100 100 101 107 106 97 99 
121 121 114 105 96 91 93 89 95 98 101 97 98 98 93 94 96 94 95 95 96 96 99 103 104 104 104 106 102 100 102 104 104 105 106 103 103 106 103 105 108 105 104 106 106 111 104 110 108 112 111 112 110 107 109 111 112 109 108 107 105 105 104 96 98 96 95 92 98 102 100 98 100 98 96 102 103 106 96 101 
121 116 111 104 91 89 90 95 93 96 96 99 102 100 97 95 94 98 96 95 94 95 95 101 100 102 100 101 97 101 100 103 103 104 106 105 107 104 104 105 107 106 107 107 108 106 109 108 108 112 112 113 110 109 108 111 108 110 103 107 105 106 104 99 99 96 95 95 96 99 104 101 99 100 98 102 101 102 101 104 
117 117 111 95 87 85 92 91 93 96 98 97 107 102 99 94 91 95 94 98 94 93 91 98 97 100 100 98 98 99 101 104 104 104 104 106 103 104 103 105 108 105 104 106 108 106 108 110 112 110 111 111 106 107 107 109 107 107 104 106 106 106 100 96 96 97 93 96 102 99 100 97 100 100 102 105 100 101 98 99 
114 116 109 70 71 81 84 90 95 97 97 101 103 98 101 100 88 91 93 94 95 90 88 95 95 97 97 102 100 103 99 102 103 105 103 103 103 104 105 106 108 104 106 106 108 109 107 111 110 113 112 110 105 107 106 108 103 106 105 101 107 103 95 95 94 97 93 94 103 100 98 97 96 100 101 107 103 109 98 99 
117 114 102 49 26 52 82 82 97 99 96 97 99 97 98 98 101 91 92 97 91 91 91 98 95 98 97 98 98 99 99 106 108 106 106 105 106 107 104 104 105 107 113 108 109 109 106 112 107 111 114 112 107 109 107 106 104 108 104 101 104 104 99 95 96 97 97 97 102 99 99 97 100 99 100 105 104 105 99 101 
116 109 106 41 0 15 57 88 98 97 100 98 97 93 94 92 101 97 92 91 89 90 88 96 92 95 98 99 99 101 100 101 106 105 106 107 108 108 107 105 105 105 105 110 108 108 108 112 109 113 114 109 108 108 104 109 104 107 109 103 102 104 99 96 97 95 96 97 104 96 98 95 98 100 100 105 101 103 97 102 


