P2
80 60
121
24 24 25 19 22 20 19 19 20 21 16 20 21 17 14 14 15 17 19 13 15 20 11 11 13 15 10 12 14 16 18 11 12 9 12 14 12 17 12 17 18 19 22 22 21 21 19 18 22 23 20 24 26 27 30 31 29 30 29 25 26 28 28 23 22 26 25 20 19 20 21 20 25 23 18 21 17 17 19 23 
20 26 24 19 20 18 19 20 22 22 19 20 19 17 22 12 13 15 15 17 16 19 11 12 14 13 13 15 13 13 14 14 11 13 13 13 12 16 14 19 19 20 19 24 20 21 20 21 22 20 24 21 24 25 26 30 34 32 27 28 25 26 26 21 21 24 22 21 18 18 18 18 21 22 21 19 19 20 16 21 
20 23 25 20 18 17 19 21 21 20 20 20 18 19 20 14 11 17 15 16 20 18 13 16 13 13 14 16 13 13 14 14 12 14 16 13 13 16 17 19 20 18 17 18 20 20 18 22 20 24 21 25 27 26 29 27 27 26 29 28 26 26 24 24 24 22 22 19 21 20 22 23 23 21 23 20 15 19 21 22 
26 25 25 18 20 20 20 21 18 22 24 18 20 20 20 13 15 17 16 16 15 18 16 15 15 12 19 14 14 13 17 13 13 12 0 12 15 21 17 18 19 20 21 19 21 20 22 20 25 23 24 23 25 21 28 29 26 29 28 25 29 23 26 21 24 21 25 18 20 18 20 24 24 23 21 22 22 22 18 15 
27 26 24 20 24 24 18 19 19 20 17 21 22 22 23 18 15 16 15 19 14 18 17 16 18 21 16 14 14 14 13 12 14 10 13 12 13 18 23 16 21 20 22 18 20 21 23 23 25 26 28 26 26 26 29 29 28 25 26 29 31 26 26 30 24 21 24 24 21 25 24 22 22 26 22 23 20 19 20 18 
23 23 25 19 22 22 23 21 22 23 17 21 19 20 23 17 17 19 19 22 14 19 19 18 18 19 15 14 15 17 13 11 10 10 14 12 15 17 20 15 17 20 24 20 21 20 31 23 23 25 29 32 29 26 26 30 28 28 31 29 28 25 26 28 26 27 24 27 30 18 25 24 23 23 23 21 19 20 23 16 
25 23 26 21 24 24 22 20 27 23 22 24 19 23 23 17 20 17 18 20 18 19 17 15 18 16 16 17 16 14 16 11 10 11 13 12 16 20 19 16 21 19 20 22 21 24 23 22 24 25 23 30 29 28 28 31 29 34 37 30 28 26 28 25 25 27 25 26 27 19 21 22 22 23 25 23 20 17 21 20 
27 31 26 23 24 26 21 23 19 21 21 20 21 22 19 18 18 19 16 20 22 19 15 19 19 19 15 15 17 14 11 11 9 9 11 15 16 18 19 16 18 20 19 19 23 23 24 24 23 28 29 28 30 28 30 35 29 34 32 29 30 29 28 25 25 29 26 25 27 20 21 22 22 21 20 22 22 19 21 23 
26 31 31 25 21 24 23 22 22 26 26 19 21 21 18 17 18 17 18 21 17 20 17 18 17 17 15 16 17 13 15 12 11 13 16 14 16 17 20 17 16 20 20 19 23 24 23 22 24 26 30 28 28 27 26 33 31 28 29 30 28 28 32 23 24 25 30 26 23 24 23 22 23 25 21 21 19 18 18 20 
28 31 29 29 25 24 25 22 23 22 22 24 21 24 21 16 20 19 18 21 17 19 16 16 15 14 15 17 17 17 17 13 10 14 15 13 18 17 18 17 21 17 19 19 21 21 19 19 24 27 27 27 28 29 28 29 30 30 30 31 27 28 32 28 26 25 28 23 26 20 21 24 24 22 22 24 21 18 23 19 
29 27 28 25 24 27 29 22 23 24 24 24 20 21 20 16 15 16 19 17 14 16 15 14 16 15 13 15 16 16 16 11 11 13 11 13 17 17 18 17 22 16 19 16 20 24 21 24 24 24 25 28 28 27 25 30 30 29 33 28 29 27 27 28 25 24 27 27 24 22 21 23 25 23 20 24 21 19 17 17 
28 30 28 26 25 28 24 21 22 23 19 21 24 22 19 16 13 13 17 18 14 17 15 16 12 15 12 15 16 13 14 11 11 13 14 14 13 24 21 19 22 18 19 21 22 20 22 24 24 24 25 27 29 25 28 29 30 30 31 26 27 30 26 24 27 23 24 27 23 21 17 21 25 25 23 30 25 28 18 19 
30 31 33 27 25 24 24 19 23 22 23 21 21 19 17 16 15 15 18 17 17 17 15 17 14 16 13 16 12 15 14 12 14 15 10 9 14 16 19 16 20 17 22 20 26 22 22 25 23 24 26 25 26 23 28 32 30 33 29 26 27 27 33 27 24 25 24 24 25 20 15 21 27 23 25 26 22 26 15 20 
30 34 35 25 26 29 20 23 20 22 20 22 19 21 17 19 13 15 16 16 18 16 14 11 14 17 13 12 13 13 12 12 13 15 13 10 10 20 17 18 21 18 21 21 22 23 26 26 27 30 26 29 26 26 26 32 32 32 32 29 28 28 28 27 26 25 24 26 22 20 23 18 26 27 23 24 21 24 18 22 
30 33 32 25 24 25 23 21 21 22 19 20 20 21 18 16 15 14 15 14 12 13 12 15 14 16 12 14 13 15 14 11 9 13 12 11 13 18 15 19 16 19 20 24 20 25 22 21 29 28 26 26 28 27 29 32 33 45 34 31 28 26 27 28 30 28 29 26 24 19 19 24 24 26 24 20 20 21 20 24 
28 29 34 25 23 23 22 23 23 20 19 20 19 20 18 20 15 12 15 14 10 13 11 13 13 11 13 14 14 15 13 13 9 13 15 10 16 16 17 22 21 21 23 19 19 24 24 19 26 26 27 28 32 28 30 30 30 35 32 33 31 28 31 26 25 32 26 33 26 22 20 24 24 26 25 25 22 22 19 20 
31 32 34 25 24 24 22 23 20 20 13 15 20 18 17 17 15 15 13 17 13 8 14 15 14 16 12 13 13 17 15 15 11 15 17 13 13 18 19 19 17 19 22 20 19 22 24 22 23 24 26 28 31 28 32 32 31 34 34 30 28 29 28 29 25 27 26 25 25 21 24 25 34 27 22 24 18 15 19 19 
27 30 31 24 25 25 24 22 21 18 19 19 18 19 20 17 14 14 15 17 14 15 12 13 13 20 11 15 10 13 15 10 14 17 14 12 13 16 19 22 20 22 17 20 24 25 23 20 21 23 28 29 29 28 33 31 30 38 35 32 27 28 26 26 26 28 23 27 25 21 24 28 26 24 25 23 19 18 18 20 
29 31 31 28 28 25 24 21 18 20 16 19 19 18 17 14 10 15 17 20 14 17 18 16 15 14 12 11 14 13 12 14 13 15 15 16 18 20 23 24 20 21 17 21 22 21 21 16 22 25 22 29 31 31 32 30 32 28 33 29 29 26 29 28 26 26 26 28 23 23 24 27 24 23 23 23 19 21 19 21 
29 35 30 25 27 25 25 21 19 18 19 17 15 21 18 17 14 17 20 19 13 20 21 17 14 15 16 14 11 13 14 9 11 15 14 12 15 21 22 21 22 20 19 18 21 19 20 22 23 27 26 28 31 28 29 30 31 26 29 30 30 27 28 25 26 25 26 25 22 21 22 23 26 24 21 19 21 17 17 22 
30 29 30 24 27 27 21 17 20 18 16 19 20 24 17 15 14 12 16 16 13 18 13 17 14 15 13 9 13 14 14 14 8 12 13 13 14 16 20 17 21 23 20 20 23 20 20 20 22 28 25 28 32 25 28 28 27 28 28 32 29 24 30 29 29 28 27 27 25 21 20 22 26 26 23 23 19 18 19 19 
29 31 32 29 25 26 27 21 21 23 15 22 27 22 19 18 16 15 16 13 14 17 19 16 16 14 13 11 12 14 13 11 14 13 16 14 15 20 18 19 22 22 22 18 19 22 20 22 23 25 29 28 30 29 31 28 29 29 32 29 30 28 29 30 31 27 27 27 25 30 26 27 26 26 24 23 22 20 18 22 
29 29 29 30 25 25 23 23 20 21 14 16 20 19 18 15 14 14 19 16 14 15 11 15 11 14 14 12 11 12 13 13 13 13 12 13 15 18 18 19 20 21 19 19 20 19 21 22 23 27 26 31 33 29 30 29 28 29 32 29 32 31 30 26 27 29 28 26 26 24 25 28 29 24 23 23 23 22 21 26 
30 31 30 23 22 23 22 32 21 21 14 22 16 17 21 20 16 15 17 15 16 14 13 13 11 14 12 16 10 12 11 13 10 11 14 13 14 17 16 17 16 20 18 20 21 20 20 22 24 29 29 29 29 27 27 31 29 28 32 27 29 27 30 29 30 28 30 28 27 24 25 26 29 27 23 23 27 24 17 25 
31 33 28 23 24 23 24 21 22 21 18 19 19 18 18 15 13 16 17 16 13 15 14 12 14 13 13 14 11 10 8 11 8 13 12 10 14 17 15 17 18 16 19 21 22 21 20 20 26 25 26 29 28 30 31 29 30 29 28 29 29 31 29 31 30 27 31 32 29 27 25 28 25 28 23 23 26 25 19 25 
30 31 32 22 24 25 24 24 20 22 19 19 19 25 21 15 15 16 18 19 14 15 15 15 17 14 11 12 13 10 12 9 10 11 14 13 14 16 17 17 20 20 18 22 22 24 25 24 23 27 25 28 28 27 31 30 28 31 33 32 30 27 31 28 30 29 31 29 26 24 27 25 29 27 27 27 25 27 24 26 
29 30 32 27 24 26 24 23 19 23 21 20 22 22 20 17 17 15 16 17 16 18 20 18 16 18 17 13 9 12 9 7 10 15 13 10 14 17 17 17 20 18 21 20 22 23 22 24 26 26 28 30 27 28 29 32 31 30 32 31 30 29 29 26 31 32 32 31 27 26 25 27 28 28 28 24 25 23 20 25 
33 31 27 24 27 27 23 23 19 22 19 21 19 19 19 17 14 15 18 15 16 18 14 16 16 17 13 15 9 13 12 8 12 11 12 12 15 16 17 22 16 19 20 20 21 21 22 21 25 25 25 30 26 27 29 34 28 27 30 31 32 25 29 29 29 30 29 27 27 22 23 26 26 28 29 27 24 22 18 24 
32 32 28 25 26 26 22 23 21 19 19 18 21 19 19 15 14 14 15 18 13 14 16 14 14 14 10 15 12 10 11 8 12 13 10 13 15 17 19 21 18 19 19 21 20 23 24 23 22 26 25 26 26 27 27 27 28 25 31 29 30 28 30 30 28 29 28 30 23 24 27 25 25 25 28 25 25 26 21 17 
33 33 32 26 23 25 22 22 26 25 18 16 20 21 18 16 16 17 13 17 14 17 12 15 15 14 12 14 10 11 9 14 11 13 17 13 15 21 20 19 18 20 20 23 23 22 24 24 26 26 27 29 25 26 31 31 28 31 33 31 31 30 29 28 31 27 33 32 29 26 24 29 29 29 23 24 21 23 21 21 
33 29 31 24 23 24 23 22 22 24 18 22 18 17 21 19 16 16 16 15 13 16 9 19 13 18 12 13 11 14 12 17 18 21 17 15 17 23 22 21 17 22 25 26 23 26 25 25 24 29 27 30 30 30 30 34 30 28 32 31 31 30 30 34 31 27 31 31 29 23 27 25 27 30 26 21 24 25 19 24 
34 34 31 26 25 23 23 24 20 21 20 19 21 22 20 17 20 14 17 14 14 19 16 17 19 19 15 15 14 14 20 27 25 26 23 23 22 24 21 22 24 23 24 25 21 26 22 27 27 31 29 30 32 29 32 33 34 30 33 30 33 31 32 30 31 33 31 34 35 26 27 27 32 28 25 25 27 26 23 24 
32 31 31 26 25 23 22 23 21 18 20 19 21 20 20 17 18 18 14 18 16 18 18 19 18 19 13 17 13 22 27 25 24 23 22 21 22 25 25 20 20 21 24 26 25 27 25 24 27 28 27 33 30 30 30 35 30 32 29 30 32 30 30 29 33 31 33 34 35 29 28 28 28 27 27 28 27 27 25 27 
31 32 34 28 27 25 23 24 22 22 20 23 20 18 20 17 17 18 16 17 18 15 14 17 17 17 17 21 23 29 23 23 26 22 24 23 20 25 25 23 22 25 26 24 24 25 25 25 26 28 27 29 30 31 32 32 35 32 33 30 33 33 32 30 34 33 31 35 33 29 29 29 28 28 28 29 26 29 25 24 
28 34 36 29 26 26 26 25 25 24 23 22 18 20 18 17 18 16 16 17 16 17 19 15 19 24 23 24 21 20 22 22 26 25 25 22 17 19 21 22 25 24 26 25 27 27 26 27 26 29 28 32 34 30 35 34 35 35 33 35 32 32 36 31 34 32 33 33 31 29 29 26 32 33 29 28 27 26 27 25 
32 34 33 26 27 26 24 24 22 25 21 21 19 21 21 17 18 21 16 18 17 17 21 22 31 24 21 19 19 22 24 26 26 29 27 21 18 22 22 26 23 27 25 27 27 27 27 30 29 29 29 33 34 30 33 36 33 32 36 34 34 32 34 34 33 32 36 34 31 29 28 29 29 32 26 34 25 30 25 26 
35 33 32 27 28 29 27 23 21 22 22 19 18 22 17 18 19 22 18 18 21 25 29 25 23 22 17 21 28 28 25 27 18 24 27 22 21 24 24 25 27 25 25 24 26 29 29 30 29 31 33 33 34 35 34 35 38 33 36 34 34 30 36 33 34 35 33 33 37 32 29 29 30 29 29 27 28 29 25 23 
33 37 35 29 25 30 28 22 23 23 22 22 21 22 21 18 17 24 21 29 26 28 25 22 17 22 25 26 26 39 46 46 36 36 26 20 20 19 24 25 24 26 26 28 29 29 27 30 30 32 35 35 39 35 37 38 36 35 38 37 33 32 35 33 38 37 34 35 35 30 31 29 33 32 31 28 28 31 29 26 
32 35 36 28 28 30 28 25 27 24 21 22 23 20 19 21 20 31 29 26 24 26 24 23 25 29 22 21 20 53 66 64 62 56 45 31 21 21 28 27 25 27 30 28 30 31 31 31 31 36 37 37 40 37 38 38 36 37 38 37 37 33 35 33 35 35 37 38 36 31 30 31 30 34 32 30 30 34 31 36 
28 36 30 26 28 26 24 26 25 24 27 24 23 23 21 27 29 28 25 21 24 26 22 31 27 23 19 18 24 66 70 73 72 68 62 58 57 46 40 30 28 25 30 28 28 31 31 30 31 35 39 38 39 39 39 39 37 37 35 37 35 34 38 35 36 37 35 35 31 36 32 34 29 33 30 32 31 33 31 39 
28 33 32 28 26 27 24 25 24 22 22 23 26 33 30 28 23 20 20 23 29 28 25 21 19 18 22 17 28 65 76 74 76 74 74 70 74 65 67 58 47 44 33 32 34 32 30 33 32 37 37 44 40 43 43 43 38 38 38 35 35 35 40 34 36 36 35 36 38 32 30 33 36 33 32 32 29 32 39 35 
30 32 33 32 22 26 23 24 24 25 26 28 33 35 31 20 20 22 29 29 25 28 13 16 17 19 16 21 29 70 77 77 79 76 75 74 79 78 78 74 70 74 68 53 48 38 36 36 34 39 36 39 38 39 42 44 40 41 41 34 39 35 39 39 36 37 35 34 35 34 30 33 37 33 33 31 34 34 32 36 
32 35 35 26 23 24 25 27 27 33 35 35 30 25 22 20 22 27 29 26 24 21 16 17 17 19 17 20 36 76 81 81 79 77 80 81 80 83 85 81 79 82 82 77 69 65 61 50 41 42 36 44 39 41 43 45 43 40 37 41 41 40 41 41 39 37 38 37 37 36 34 33 37 34 34 35 33 34 33 36 
31 30 30 25 28 25 29 30 30 36 29 27 21 29 27 26 28 24 21 20 19 19 16 19 13 16 15 18 38 76 82 79 77 78 77 76 79 83 85 84 83 87 85 84 82 80 76 83 68 66 56 49 42 42 45 45 41 42 41 39 42 40 44 42 41 39 39 39 39 35 34 36 40 37 31 33 33 35 34 37 
31 30 28 31 32 32 33 31 31 27 20 25 28 33 34 25 21 19 19 17 22 14 13 17 16 16 16 18 42 84 85 86 78 78 77 80 82 84 88 85 84 87 87 86 89 84 88 89 81 84 80 78 67 59 53 44 44 44 44 41 41 39 43 38 41 43 43 40 41 37 38 38 40 38 35 36 36 33 33 36 
31 31 37 34 38 34 30 27 25 28 27 29 35 35 29 20 23 20 20 20 15 17 17 14 15 16 15 21 47 83 84 84 78 78 82 85 84 88 87 86 89 89 88 90 89 90 90 85 84 92 88 89 87 80 79 69 59 52 46 44 42 38 44 42 40 43 42 42 43 35 38 36 40 37 39 39 39 36 35 33 
38 44 43 36 30 25 26 25 29 32 30 30 28 24 19 21 19 17 15 17 16 17 16 14 17 17 14 19 50 82 81 80 80 80 81 83 84 85 86 85 86 86 90 89 89 93 91 88 86 90 89 93 93 90 91 93 85 82 72 61 53 47 47 42 40 45 43 41 39 37 38 36 41 39 39 37 36 36 33 35 
45 46 39 32 27 30 33 36 28 27 24 22 22 23 21 20 18 17 16 16 16 18 17 12 13 17 14 18 54 92 85 81 79 82 78 80 84 87 91 90 85 91 89 91 91 92 97 93 93 91 87 92 91 97 95 99 96 98 85 86 83 74 66 56 45 47 46 48 44 39 36 40 41 42 40 36 38 38 34 39 
48 41 33 28 29 34 32 29 25 23 21 21 23 23 21 19 18 18 15 17 18 17 22 18 20 16 11 18 63 91 86 84 82 82 83 82 86 90 89 90 89 88 90 92 96 98 97 93 93 94 95 96 95 99 98 102 100 96 98 96 100 96 92 84 77 67 58 48 46 39 42 41 45 42 38 39 35 40 35 38 
46 43 41 34 38 33 28 24 22 23 22 21 20 18 24 22 18 17 19 15 15 17 18 14 17 16 14 23 69 90 89 86 85 84 85 85 82 91 89 90 89 87 89 93 92 96 92 95 92 93 98 98 102 102 101 104 101 101 98 101 101 102 100 97 97 96 89 83 70 53 48 47 41 44 45 41 41 40 33 34 
51 48 46 38 31 26 23 23 20 24 20 20 19 21 22 18 17 19 21 17 16 16 15 16 18 17 13 28 77 94 87 81 86 86 87 85 86 90 90 88 90 89 94 93 92 97 93 95 96 98 99 98 103 102 101 105 103 101 103 102 102 100 100 99 100 101 100 99 94 83 77 71 60 55 49 48 40 42 29 36 
48 43 41 31 29 27 24 23 21 21 20 19 18 16 22 17 16 17 20 17 19 17 15 17 16 14 15 28 78 94 88 86 83 83 85 82 81 84 92 88 89 92 95 93 93 95 95 96 96 100 98 100 100 99 101 103 106 105 105 105 101 100 102 99 99 101 104 106 100 96 93 93 86 75 73 60 48 44 34 36 
39 32 28 28 28 26 25 23 17 21 20 21 21 18 17 18 15 17 15 19 18 18 16 18 18 18 19 36 85 94 86 85 83 82 84 84 83 89 87 85 91 93 94 95 92 97 100 97 101 101 101 102 103 102 104 109 105 106 114 110 108 107 104 99 101 102 105 104 97 101 99 98 100 93 88 85 79 63 51 48 
34 29 30 26 33 31 25 24 19 22 19 20 21 21 19 17 16 16 19 18 18 20 15 16 19 16 26 40 94 96 89 89 85 84 85 83 83 88 89 88 92 90 94 95 98 99 101 101 100 103 104 104 105 106 104 111 110 108 108 108 108 106 106 104 103 105 104 105 102 100 101 102 101 98 92 89 90 84 78 70 
27 27 26 24 22 25 23 20 20 20 20 19 20 19 18 16 17 20 19 20 23 19 15 20 19 21 30 44 96 95 93 85 85 87 87 84 84 88 88 90 92 92 90 96 97 98 98 100 101 100 104 107 106 107 107 110 109 108 109 110 108 107 110 105 107 111 106 109 104 101 105 103 99 100 96 94 94 92 87 87 
28 30 29 23 22 22 21 19 21 20 24 22 18 24 21 18 17 21 24 22 24 24 17 23 23 26 29 46 104 98 93 88 87 86 85 83 84 90 88 91 93 96 95 98 101 99 102 101 102 102 104 103 106 105 108 108 108 112 109 108 113 109 110 107 109 107 110 109 105 104 107 103 104 104 99 97 97 87 87 89 
31 31 32 25 22 24 20 19 17 23 20 18 25 22 24 20 20 22 23 29 26 26 25 25 27 24 26 52 106 103 90 86 85 85 85 88 87 90 90 92 94 96 93 97 99 100 102 103 104 105 107 104 107 108 106 109 112 113 107 113 114 109 117 108 110 111 109 110 106 105 101 104 106 104 100 97 94 94 83 86 
31 30 26 18 20 23 22 18 20 22 20 20 23 23 24 24 27 24 25 28 27 26 28 27 25 30 30 58 113 105 96 88 88 87 87 85 90 92 94 97 96 97 98 97 100 100 105 108 106 105 109 109 110 109 110 112 114 114 111 110 117 111 115 112 113 112 107 111 109 108 106 105 105 106 101 100 97 92 90 89 
39 40 29 17 22 21 24 22 19 23 21 16 21 19 25 21 25 24 27 28 25 25 27 28 30 33 34 69 115 106 96 90 88 88 91 87 90 96 94 97 98 98 110 100 103 108 107 105 107 106 108 110 112 112 116 115 115 111 116 116 114 115 115 114 114 111 110 111 109 108 108 105 109 101 101 98 100 91 89 93 
53 39 30 26 21 21 22 21 21 19 19 18 24 25 23 22 27 25 28 27 27 27 27 27 34 36 33 79 121 108 93 89 92 92 93 93 95 95 96 97 99 101 103 105 104 110 112 105 110 108 109 110 111 112 113 116 116 116 118 117 119 111 116 115 116 110 111 115 109 104 106 109 104 98 100 100 102 96 88 93 


