P2
80 60
142
120 123 124 125 122 121 118 121 120 120 122 115 117 117 120 121 117 121 121 121 120 121 119 115 120 116 113 116 116 111 117 122 121 119 124 124 123 122 123 127 124 125 126 126 130 132 131 136 133 127 130 127 128 132 128 127 125 129 125 125 124 128 123 121 121 122 122 120 118 119 118 117 116 121 119 116 111 110 111 118 
122 124 124 121 122 121 118 126 121 121 120 119 118 116 120 116 122 122 121 122 121 123 121 119 121 115 111 113 112 112 121 122 123 125 124 124 125 126 124 126 125 126 130 131 130 134 133 136 131 127 133 131 127 131 133 131 128 129 125 125 123 126 123 124 120 118 116 120 118 120 117 117 116 118 117 118 118 112 113 117 
124 124 120 122 123 123 121 126 121 122 119 120 121 118 120 121 122 118 120 124 124 125 122 121 118 116 113 114 113 114 121 126 121 124 126 125 123 127 122 125 124 130 131 130 131 135 131 136 132 133 130 128 126 131 130 125 124 127 127 128 127 128 123 127 121 122 120 120 121 119 121 118 119 122 121 122 119 116 118 115 
122 126 123 123 122 122 119 122 123 121 125 121 122 118 122 118 125 121 121 122 123 123 121 120 120 110 114 114 109 113 122 124 122 124 127 123 127 128 128 128 127 125 131 127 133 133 132 134 136 131 131 129 126 125 127 126 124 126 122 129 129 122 126 124 123 121 120 124 122 125 118 122 118 119 119 116 118 115 115 115 
124 125 125 125 125 123 120 124 123 125 119 122 124 120 123 126 121 123 121 124 122 121 119 115 120 115 115 114 110 119 123 127 124 122 124 126 127 127 125 128 121 127 132 130 135 134 134 136 132 128 132 129 129 126 130 131 126 125 127 128 129 125 126 128 122 121 122 122 122 124 122 118 117 121 122 116 118 115 117 121 
125 121 126 123 127 124 120 124 124 124 119 121 121 123 123 119 120 126 120 124 123 125 122 118 119 113 112 115 112 116 118 123 122 122 123 123 126 124 123 126 125 126 128 128 133 132 137 135 132 128 131 132 132 126 127 127 124 126 128 130 131 126 126 127 125 121 121 124 126 122 120 118 120 118 119 117 115 117 116 117 
123 126 126 123 125 127 123 124 128 125 124 122 123 125 122 122 130 125 125 124 125 123 120 121 116 112 110 111 116 120 119 122 122 123 122 124 127 127 124 128 127 127 132 129 131 134 136 132 131 131 133 132 131 128 125 128 124 129 134 128 129 127 126 126 126 121 120 121 124 119 118 120 120 120 116 118 116 115 115 116 
125 125 124 126 127 131 123 126 125 125 124 120 124 124 124 122 125 121 121 124 128 122 121 122 116 111 107 112 110 118 122 121 122 121 123 124 126 125 123 125 121 128 129 132 132 132 131 130 127 130 131 127 130 127 127 131 125 128 127 126 126 128 126 124 126 123 119 123 124 120 121 117 116 119 114 112 113 116 117 115 
126 128 125 126 124 130 124 126 124 127 123 125 122 123 123 122 125 123 121 123 121 123 117 119 111 114 107 110 114 118 124 123 121 126 122 124 126 127 124 122 117 127 129 131 131 132 129 130 127 129 128 130 128 135 130 132 129 125 123 128 126 125 125 124 122 121 125 123 121 122 120 121 118 119 118 118 113 114 113 115 
126 126 129 125 129 127 122 128 128 123 122 125 124 123 122 122 126 125 120 123 125 121 117 118 109 112 108 110 114 119 120 123 120 120 121 121 120 119 121 124 117 123 131 129 130 130 130 129 126 129 127 125 127 128 128 127 121 115 125 124 128 125 123 121 123 118 118 125 122 120 117 120 115 120 116 115 113 111 112 114 
122 125 126 131 124 126 128 124 124 123 121 125 121 120 126 123 123 119 119 117 118 122 115 109 110 112 106 111 114 116 119 119 119 118 119 121 122 121 120 122 120 124 127 127 126 130 127 129 128 126 129 125 125 125 123 127 126 126 128 125 121 120 123 121 119 119 116 122 117 115 115 117 117 118 116 117 112 108 110 113 
125 125 123 125 126 123 121 123 125 123 120 120 118 118 117 119 122 116 117 120 117 120 119 114 108 106 106 109 116 115 121 121 115 120 119 120 118 117 120 120 123 124 128 127 129 126 125 127 125 124 126 124 123 121 126 124 123 125 126 123 125 124 121 122 125 117 114 119 119 111 114 115 114 120 118 119 116 105 114 113 
124 132 124 129 127 126 122 123 122 119 120 119 121 116 116 119 118 119 117 118 117 121 115 107 108 106 107 108 114 116 117 120 120 119 118 118 116 118 122 118 117 124 127 125 131 129 131 128 129 129 125 124 121 122 126 127 124 126 124 125 124 124 126 120 125 116 112 121 119 120 107 114 114 116 119 117 120 114 113 114 
122 126 127 128 125 126 120 120 121 115 115 119 119 117 117 119 119 118 119 120 118 119 114 104 106 103 98 111 114 113 115 119 117 118 121 117 118 121 117 117 118 125 126 124 128 135 128 128 130 130 126 123 121 124 121 125 126 128 127 125 125 128 125 122 123 118 118 120 116 115 116 113 116 116 116 115 115 111 110 112 
127 129 126 124 126 124 119 120 121 122 119 114 117 117 117 118 115 117 114 117 118 117 110 107 104 104 100 111 115 115 117 117 114 115 118 119 116 116 116 117 117 121 131 124 126 129 126 131 125 124 124 121 123 122 127 127 128 142 128 124 122 124 124 121 118 117 118 116 121 116 115 116 117 117 115 120 113 113 111 116 
127 127 126 126 123 121 118 123 124 119 113 117 118 116 118 117 114 118 119 116 114 117 108 102 104 104 102 110 114 113 114 114 118 116 120 116 113 113 116 115 120 122 126 126 126 130 126 126 124 122 124 123 122 124 125 127 123 130 131 123 122 123 126 122 121 120 116 117 120 117 117 116 118 121 118 118 114 117 117 116 
125 122 123 121 123 121 119 121 118 117 115 117 115 116 113 118 117 119 113 116 113 110 110 99 102 103 102 110 112 114 112 115 111 119 120 115 113 115 115 118 120 122 122 121 126 130 123 122 123 114 123 120 119 124 127 125 124 127 128 124 123 125 121 120 118 115 115 118 117 115 117 115 124 120 118 117 113 118 114 113 
124 127 124 127 121 123 120 121 117 117 117 118 117 112 117 116 117 115 116 112 115 115 106 101 101 103 105 112 111 109 112 115 116 115 117 119 114 115 116 122 119 122 122 123 123 124 123 123 122 118 118 122 120 125 127 124 125 133 130 122 120 121 118 116 117 114 113 116 118 115 116 118 116 116 114 114 112 115 113 114 
130 127 120 127 128 121 121 121 116 119 117 118 114 115 119 117 111 115 117 118 114 115 106 103 101 104 107 110 113 111 116 116 114 114 119 118 114 116 114 122 118 122 122 122 124 120 123 124 121 116 120 118 125 122 126 126 124 125 125 123 125 122 118 122 120 118 118 122 119 117 118 115 114 118 112 115 110 116 112 113 
125 127 120 125 128 125 116 121 117 116 115 116 117 116 118 120 116 116 116 114 116 117 109 103 105 104 110 110 110 109 114 115 116 113 115 116 110 117 117 120 119 120 121 121 123 122 119 122 120 117 122 122 121 124 124 128 121 122 123 126 122 122 121 116 117 115 119 121 116 117 116 119 114 114 112 113 114 110 112 115 
124 125 122 124 120 121 116 123 116 115 116 119 118 122 118 115 114 116 115 115 113 111 100 102 102 102 105 109 109 108 114 113 111 113 114 115 111 115 115 119 119 123 121 118 124 120 117 120 119 118 117 122 125 128 126 122 123 123 120 123 122 121 123 119 118 114 118 120 119 118 114 115 113 111 113 114 113 112 113 119 
121 122 120 121 118 118 118 119 115 118 115 115 123 118 118 112 113 117 118 109 113 106 92 91 95 101 101 107 111 109 112 110 112 111 114 115 111 109 109 115 116 120 119 117 120 118 115 120 118 118 117 121 121 124 126 122 120 119 121 121 122 122 121 119 117 115 115 122 120 122 121 114 116 117 113 114 115 112 112 116 
119 124 121 124 121 119 118 119 114 114 111 114 114 117 113 112 111 114 115 114 107 84 25 43 89 100 101 107 106 106 108 108 111 109 112 112 109 109 112 115 115 115 119 117 118 116 116 119 117 118 120 119 122 123 121 120 119 118 117 120 121 120 122 115 117 119 117 117 115 121 120 116 117 117 115 112 113 114 113 108 
121 120 121 123 120 116 114 121 114 112 112 112 115 113 116 116 114 117 113 112 112 68 5 33 89 96 99 105 105 105 102 107 108 109 110 107 104 109 110 114 113 117 117 118 117 116 116 118 112 119 116 120 121 123 122 122 124 119 120 120 116 119 121 118 119 118 119 115 119 118 119 115 116 117 114 115 113 114 112 115 
117 119 117 116 115 116 115 119 116 116 114 113 115 112 113 112 112 111 117 112 98 50 0 39 89 93 102 102 104 103 103 108 106 104 109 105 105 106 111 113 113 111 114 115 118 116 118 114 115 113 112 119 118 117 122 121 120 120 116 117 117 117 117 116 117 114 115 117 113 114 114 114 113 115 115 112 111 112 111 117 
117 120 117 117 116 116 113 116 115 114 114 113 112 113 117 113 111 111 110 113 97 28 2 53 87 98 104 105 101 102 105 107 107 106 104 103 107 104 109 114 116 115 112 115 115 118 114 119 112 111 109 117 116 126 120 119 119 117 118 121 117 120 117 116 120 116 117 116 113 116 116 115 111 117 116 116 114 111 112 113 
116 115 114 116 118 116 116 113 110 112 114 110 111 111 114 112 111 111 112 108 89 19 14 57 86 93 104 100 102 101 104 106 103 103 104 103 105 105 108 111 111 113 116 111 115 116 116 117 109 109 108 118 113 118 115 120 115 117 119 119 119 113 115 115 116 115 115 115 113 116 114 112 110 113 112 113 111 111 114 112 
114 115 116 116 119 114 111 114 112 108 109 107 110 109 113 108 111 113 110 108 81 13 14 70 89 97 99 104 102 101 100 103 103 101 106 103 103 106 109 111 110 112 115 114 112 117 116 114 110 107 109 119 118 120 115 116 115 114 114 117 114 114 117 118 117 115 115 119 116 116 113 112 110 113 117 110 110 110 112 111 
118 116 115 109 117 113 113 116 113 108 106 109 107 108 109 110 108 110 110 104 69 10 21 80 97 94 98 99 98 98 100 101 101 104 102 99 103 104 109 110 110 113 114 110 112 110 112 118 109 106 111 116 115 115 110 115 110 113 112 113 113 115 115 113 117 117 116 119 114 115 114 115 111 110 113 110 111 108 115 112 
120 116 118 111 115 116 113 112 114 110 108 106 109 109 108 106 104 109 110 98 59 5 20 73 89 96 97 99 97 97 97 105 100 102 102 99 103 105 108 110 108 111 113 111 111 115 113 113 109 105 112 119 113 113 112 118 116 115 111 114 114 114 113 113 112 116 118 118 112 112 109 111 113 112 113 110 108 112 108 115 
118 117 113 115 117 116 112 112 112 107 108 109 108 108 107 109 113 108 101 98 45 0 16 73 96 98 98 100 98 97 98 101 99 101 102 97 107 103 110 110 109 114 117 112 113 115 112 112 112 103 116 115 114 111 115 117 114 113 109 112 111 114 116 119 112 115 112 117 115 113 113 111 111 113 114 113 106 110 110 109 
117 118 120 116 117 111 111 113 113 107 105 104 105 107 104 108 109 106 103 91 29 2 16 73 97 94 101 101 100 92 96 98 96 99 98 98 106 105 108 108 112 113 113 112 112 112 112 109 111 110 116 114 114 113 113 116 115 110 107 112 110 112 112 114 112 109 110 118 118 119 117 113 112 113 111 107 109 108 107 109 
110 114 113 115 112 110 106 112 105 111 104 104 105 106 103 106 106 105 102 87 19 3 22 79 98 100 100 103 95 92 96 95 96 95 98 97 100 104 107 108 109 113 114 110 110 115 112 108 108 108 114 113 112 113 114 114 112 111 107 107 111 113 113 114 114 110 110 116 118 114 115 112 111 111 109 108 111 108 110 112 
111 110 114 110 113 107 108 111 107 105 105 106 104 100 104 104 104 108 99 92 36 12 44 85 97 97 98 99 98 89 92 93 96 94 96 96 100 103 107 110 109 111 115 110 108 111 109 107 105 107 114 114 114 112 111 111 111 109 108 107 109 111 111 113 116 110 111 114 114 111 113 112 108 106 108 110 109 108 109 112 
110 112 111 110 111 110 109 110 107 108 103 108 103 104 105 103 103 104 99 93 67 51 76 93 97 100 98 94 91 93 94 91 92 93 93 96 101 104 107 110 108 112 111 110 110 110 108 106 104 111 117 113 111 112 113 113 108 112 107 109 108 112 113 116 112 109 109 112 112 111 112 109 111 108 111 109 108 104 111 110 
112 111 110 112 114 109 107 109 109 103 102 104 100 100 103 105 101 105 106 95 87 89 89 98 99 101 98 90 87 90 93 92 92 90 95 96 101 101 103 106 107 107 108 111 108 106 105 107 107 108 115 114 108 108 113 112 108 109 108 109 108 110 111 111 111 108 109 111 110 109 112 109 107 111 110 106 105 113 108 110 
111 110 107 108 111 111 106 112 109 108 107 104 102 102 104 103 103 107 107 98 94 92 97 99 104 102 101 93 89 85 91 90 89 93 94 96 100 103 105 101 105 106 107 105 109 106 102 109 107 110 117 115 108 109 111 107 111 109 107 108 110 109 109 112 112 109 108 111 114 110 110 109 108 111 110 110 109 109 111 111 
110 111 112 110 111 109 109 114 109 106 106 103 106 101 105 102 105 109 104 89 95 99 101 101 107 100 101 100 89 87 90 92 91 92 91 93 99 102 106 107 107 102 108 105 104 105 103 107 109 113 113 110 109 110 107 111 107 106 107 109 110 107 108 109 111 110 108 112 108 110 105 105 107 107 110 110 108 108 108 110 
110 111 114 111 108 108 105 109 107 106 110 108 104 104 103 103 101 110 102 90 95 100 101 106 105 102 103 98 99 91 90 92 92 95 88 90 97 102 108 104 101 106 105 103 105 106 103 106 107 114 116 110 111 109 109 108 109 106 107 110 109 108 105 109 111 107 106 109 108 107 108 107 107 108 108 106 108 109 109 112 
106 111 110 108 108 107 105 108 107 105 113 107 103 107 103 101 101 107 103 93 95 100 102 103 103 106 105 102 96 93 90 91 91 87 91 93 97 100 101 99 98 101 102 103 100 104 106 103 108 112 110 110 110 111 113 108 105 107 108 107 108 102 108 106 108 106 106 106 109 109 108 106 106 107 106 107 109 108 110 120 
109 111 106 109 106 107 106 108 108 108 104 104 107 107 101 102 101 106 101 94 91 99 100 104 103 101 102 102 97 94 97 96 94 92 94 94 96 98 96 98 99 101 101 100 101 106 103 107 113 112 113 113 108 115 112 108 107 107 104 107 107 107 109 106 108 106 104 106 108 108 106 107 104 109 109 108 108 109 114 116 
106 111 111 109 108 106 108 109 107 105 102 105 104 101 102 100 102 101 105 96 91 101 98 105 103 102 101 103 98 100 101 100 92 90 94 96 98 99 96 99 97 101 105 102 100 105 105 109 110 110 112 107 110 108 108 108 108 106 105 107 107 106 109 110 108 102 106 108 108 107 111 103 108 105 108 106 106 114 109 118 
107 110 113 105 108 106 102 109 105 106 104 105 101 104 105 103 101 102 98 94 86 104 102 103 107 99 101 100 102 100 101 101 95 91 92 98 100 101 101 103 98 102 98 100 102 101 106 108 113 113 114 108 107 105 107 111 107 104 104 108 108 111 108 112 107 105 103 108 106 109 107 107 104 106 108 106 107 112 108 114 
111 108 109 104 104 107 102 103 103 103 103 102 103 104 104 100 101 98 98 95 88 94 99 106 100 102 100 102 103 98 103 103 98 90 93 98 99 100 100 103 100 101 101 98 101 101 101 120 117 110 107 105 106 104 104 108 104 103 105 107 112 110 112 105 110 105 103 109 108 108 108 107 102 108 105 107 105 106 108 113 
110 109 105 106 106 103 103 100 100 104 102 97 104 104 102 98 99 104 97 90 91 99 99 100 105 102 97 101 103 102 100 102 100 100 101 102 103 103 102 104 102 104 102 100 101 102 103 112 116 107 107 106 105 102 107 108 103 105 105 104 108 108 110 109 110 105 105 106 108 106 108 102 104 103 103 107 108 110 111 113 
109 106 106 106 107 103 99 105 100 103 101 100 101 107 101 98 104 100 96 89 92 96 97 103 103 104 101 101 103 100 103 99 99 100 102 104 103 106 101 104 102 105 110 102 101 102 101 108 109 105 107 104 106 104 106 105 101 103 104 105 107 108 106 111 109 109 104 106 108 107 106 106 106 106 107 105 108 109 108 117 
107 105 102 102 105 103 98 102 102 100 96 102 103 106 101 100 99 101 96 92 87 100 97 100 105 103 99 102 102 99 102 104 99 99 101 102 104 103 103 105 105 104 110 101 96 105 106 110 109 105 103 105 106 104 104 102 103 101 101 103 104 102 106 107 109 102 104 105 102 104 105 104 105 108 103 103 107 109 106 106 
104 107 99 97 99 104 104 108 102 102 98 103 101 105 101 99 98 96 93 96 87 96 99 100 98 100 98 100 101 101 101 101 100 101 103 101 104 104 105 105 103 110 110 100 98 99 104 109 109 103 104 104 100 104 105 103 102 105 101 102 102 105 105 105 104 103 104 105 102 104 106 104 105 106 104 102 105 104 103 112 
104 103 101 100 103 103 104 104 105 100 100 101 102 105 101 98 96 104 91 93 84 100 102 101 100 100 99 101 101 99 100 101 100 100 103 102 102 106 104 106 102 106 105 97 96 97 100 107 103 102 104 102 101 102 103 107 104 102 100 101 105 102 107 103 106 100 101 104 102 104 103 105 103 106 105 104 105 101 106 105 
102 109 100 102 104 104 100 104 99 100 102 101 100 99 104 101 100 95 89 91 89 100 97 101 101 97 96 99 102 98 102 102 101 103 102 101 102 104 105 106 102 107 105 99 92 95 102 110 100 93 98 100 101 102 105 105 103 104 100 102 105 104 105 105 102 101 103 104 104 103 106 106 102 100 99 105 106 102 102 105 
100 106 104 106 107 103 103 105 103 102 100 100 100 102 102 98 98 90 89 92 95 98 98 100 101 97 99 99 101 99 102 102 101 103 103 104 99 102 106 106 104 107 108 98 92 95 106 106 100 96 96 100 101 102 104 102 102 103 101 104 104 107 103 101 103 99 103 103 102 105 102 103 102 102 104 105 105 106 105 103 
99 101 104 103 105 105 99 106 101 99 97 100 98 101 101 99 96 90 93 92 100 97 96 101 100 100 100 102 101 99 100 101 101 105 105 101 107 101 101 103 102 104 107 95 90 99 106 102 99 96 99 100 99 102 101 104 97 100 104 105 101 102 103 103 100 99 101 103 101 102 102 103 101 104 107 107 103 97 103 104 
106 103 102 102 109 110 104 107 106 102 102 103 98 100 100 98 94 93 94 90 93 99 98 102 100 104 102 100 101 99 100 103 98 103 103 103 102 100 101 108 103 104 105 92 88 99 106 104 98 95 101 97 101 102 107 105 106 99 102 103 104 105 105 101 100 103 99 101 98 102 102 101 99 102 107 103 102 104 99 104 
105 105 104 104 113 107 104 103 104 103 103 100 102 102 103 100 94 95 93 96 94 100 99 101 103 104 102 104 105 102 101 102 102 104 103 103 102 102 102 106 101 103 97 91 93 98 109 104 96 95 99 99 99 102 105 107 106 102 102 102 102 105 105 103 100 103 103 99 104 103 105 103 97 107 105 104 102 104 104 107 
104 103 103 109 105 110 108 109 104 103 105 106 103 105 106 99 94 92 94 97 96 101 97 99 101 99 107 101 101 101 99 102 101 100 103 100 99 102 102 105 103 105 95 89 88 101 103 103 94 92 101 97 102 103 103 107 106 103 101 96 101 103 102 105 102 100 105 101 102 99 106 99 101 101 104 104 101 102 104 104 
101 102 105 107 111 107 105 108 105 108 105 106 105 106 106 101 99 95 99 96 98 100 98 102 103 101 100 104 102 98 101 102 100 99 102 100 99 101 99 99 98 105 96 93 92 103 98 99 93 94 97 99 97 101 106 105 100 101 98 101 100 104 101 102 104 101 103 102 103 107 105 103 103 105 105 103 102 98 105 108 
101 104 107 110 107 106 105 108 108 103 107 112 113 106 104 105 97 100 94 97 93 97 94 95 100 99 96 102 106 98 100 103 95 100 98 101 99 98 98 100 100 100 98 95 97 105 100 101 99 93 99 98 101 103 101 108 105 106 103 108 112 110 111 107 109 107 109 106 110 107 109 107 103 107 106 106 103 103 100 106 
106 107 105 107 109 105 105 107 108 106 102 110 105 107 102 103 100 96 94 94 94 94 94 92 92 92 92 95 95 95 96 95 95 95 99 93 93 97 97 94 95 97 99 87 98 105 98 112 101 99 100 100 104 107 102 108 108 107 112 114 116 116 115 114 114 112 108 109 111 110 113 108 106 109 104 107 104 105 102 109 
102 103 104 105 109 107 106 107 104 103 105 103 105 105 102 99 100 97 96 95 94 94 91 97 95 91 93 93 95 91 91 93 94 96 94 92 96 95 97 93 95 95 93 91 99 104 103 104 102 103 105 109 112 116 117 117 113 113 114 120 115 114 116 113 112 113 110 110 111 112 111 107 109 109 108 104 108 100 104 108 
104 104 104 104 103 105 105 111 105 104 103 105 104 106 102 99 97 100 95 95 96 95 95 94 97 96 95 94 94 95 94 96 94 95 97 96 95 93 95 95 93 95 95 91 101 102 101 104 100 102 105 114 116 117 118 115 115 114 116 116 116 116 117 113 111 107 107 108 110 108 109 109 108 106 108 107 108 101 103 106 


