P2
80 60
137
26 24 21 22 17 18 17 17 17 18 17 20 20 16 20 21 20 16 19 16 13 17 12 13 8 13 13 13 14 12 12 12 10 11 12 9 8 12 7 11 13 20 20 22 18 20 17 19 21 19 19 22 26 26 24 25 28 29 29 28 29 28 25 24 25 25 21 21 20 19 20 17 23 29 25 17 18 19 20 20 
22 22 21 20 19 23 17 18 15 19 21 19 18 17 24 17 17 17 18 18 13 19 12 13 12 12 16 15 16 10 13 14 10 12 13 12 10 9 10 14 14 17 22 18 22 19 15 19 21 18 19 20 25 23 22 29 31 31 30 27 25 25 24 20 24 25 20 19 18 19 19 19 21 24 20 18 20 21 23 20 
25 23 21 22 18 19 19 20 16 16 19 18 17 17 19 16 15 19 18 18 18 20 15 15 12 13 15 16 13 12 12 17 12 13 13 13 10 9 12 14 18 14 17 18 19 18 20 21 20 20 19 19 25 24 28 24 26 25 29 29 26 26 22 22 26 24 20 19 23 18 22 23 21 22 22 23 18 20 23 18 
26 22 23 18 21 20 22 21 20 22 25 17 19 20 19 15 16 19 18 18 15 20 18 17 14 14 20 17 16 12 16 15 13 12 0 11 12 14 14 17 16 18 20 16 22 20 24 21 26 23 23 21 24 25 26 27 26 28 26 29 32 24 24 21 24 22 23 21 23 20 21 24 22 21 21 19 24 25 24 19 
31 23 22 20 23 24 18 18 17 19 17 19 23 20 22 19 18 17 16 18 16 19 18 18 15 17 19 15 14 11 13 13 12 8 11 11 11 13 18 14 15 17 19 16 19 20 23 21 23 25 25 26 25 23 25 25 28 23 30 29 31 26 25 28 25 23 23 22 24 23 24 21 21 27 22 21 20 20 23 22 
28 23 23 20 21 21 22 22 21 18 17 20 19 18 25 18 19 19 20 22 15 21 20 19 13 17 17 17 15 11 12 10 9 9 12 11 15 11 20 10 13 14 21 20 21 20 26 20 22 22 25 27 27 25 23 27 27 28 29 30 29 23 26 27 24 25 23 21 26 19 26 22 26 26 23 22 20 22 18 18 
29 22 22 21 25 22 20 19 22 22 20 22 18 19 22 18 18 18 18 22 19 19 19 17 16 16 17 18 16 12 10 10 9 11 12 9 13 14 13 14 20 18 19 22 19 22 22 21 24 22 20 28 26 26 24 27 30 33 37 31 29 26 26 24 25 27 23 23 26 21 20 24 24 25 24 21 22 19 22 26 
28 29 22 26 25 25 22 22 20 21 22 20 18 21 21 17 19 22 17 20 22 21 17 18 17 19 18 17 18 13 10 11 9 10 10 13 13 12 16 13 19 19 19 20 23 24 21 23 20 23 26 26 30 25 31 29 29 34 33 31 29 27 25 23 27 31 21 22 28 22 21 24 23 22 21 19 22 22 19 28 
28 29 25 28 22 27 23 22 22 21 24 19 21 21 19 17 21 19 20 22 18 19 20 19 18 18 18 15 19 13 13 12 9 13 13 11 10 12 14 14 14 18 22 17 23 22 20 19 24 22 27 28 30 29 24 29 29 31 32 32 26 28 28 22 28 24 24 28 24 24 24 24 24 27 23 17 19 18 21 23 
29 29 24 29 23 26 20 20 22 21 19 21 21 23 20 19 22 19 17 19 19 19 15 16 12 14 19 20 17 15 12 12 11 11 14 11 15 11 15 11 16 17 24 17 21 18 19 20 24 22 24 27 28 26 27 28 30 30 31 32 27 26 28 28 27 24 24 23 28 21 21 26 25 23 23 21 21 18 21 25 
31 25 26 26 25 27 26 21 26 21 22 23 19 21 21 18 17 17 19 20 17 17 17 14 14 14 18 19 17 12 9 9 11 13 10 11 13 12 13 16 16 13 18 16 19 24 20 23 24 22 23 26 28 23 25 28 28 30 31 30 29 28 26 29 26 24 25 28 25 24 20 24 24 25 21 20 23 19 20 20 
28 28 27 25 26 26 23 23 22 20 19 20 22 18 19 18 16 13 16 21 15 17 14 17 10 18 13 22 19 11 14 11 12 12 12 10 8 13 14 17 18 17 18 21 23 20 21 22 26 24 22 25 26 22 26 27 30 27 30 28 28 28 27 26 28 22 22 27 23 20 20 21 24 25 21 29 23 22 20 20 
31 28 30 31 27 25 21 18 21 21 23 20 19 19 19 16 17 18 17 17 18 17 15 18 14 15 14 20 15 14 15 15 16 14 9 9 10 8 17 12 17 14 25 22 26 21 22 24 25 23 24 24 26 25 25 28 28 31 28 29 28 27 32 30 24 27 25 23 24 20 17 24 25 23 24 24 21 26 21 18 
29 33 31 26 28 30 19 21 18 17 20 23 19 20 18 21 17 16 16 15 17 15 14 17 13 16 15 13 14 12 11 13 12 14 12 8 9 15 13 14 18 17 23 21 22 21 24 24 29 30 27 29 25 25 25 27 32 29 31 29 29 25 30 26 27 26 27 25 23 21 26 19 26 22 21 22 23 25 23 18 
27 29 28 25 23 23 20 20 18 18 18 19 19 21 19 16 17 17 15 16 12 15 11 15 13 15 15 13 14 11 13 11 10 12 12 7 10 11 12 16 16 16 23 22 18 22 22 19 28 25 28 27 26 23 26 29 34 43 30 31 27 25 28 27 31 25 29 27 28 18 22 24 24 25 22 16 23 25 23 22 
26 29 30 26 20 24 20 23 21 19 19 20 18 20 20 21 15 16 17 17 13 14 14 14 9 13 16 15 15 10 11 14 12 10 13 8 9 8 12 18 19 20 22 21 18 21 21 18 26 22 26 29 28 26 26 29 33 33 32 33 31 26 27 27 26 30 24 36 29 25 19 26 25 23 23 23 26 26 20 20 
29 27 29 25 22 20 21 21 18 17 19 20 17 19 24 20 15 16 17 17 13 9 15 15 13 14 19 15 13 11 12 13 10 14 15 8 8 11 11 18 16 15 23 20 19 22 20 23 23 21 25 25 26 26 29 30 30 32 33 32 31 28 25 26 26 26 24 28 30 23 25 27 33 24 19 20 18 21 25 21 
30 27 26 26 23 24 20 22 19 18 20 21 20 19 21 18 17 14 16 19 13 15 14 15 14 21 11 14 13 9 12 12 11 12 9 8 10 12 13 17 18 20 17 17 22 23 20 20 22 21 24 27 27 28 30 29 31 38 33 32 31 25 26 24 26 25 22 27 23 24 26 27 26 24 24 20 21 20 22 19 
28 26 27 27 26 24 23 21 17 18 18 19 20 18 21 17 17 16 18 21 14 17 19 17 15 15 16 11 13 10 12 13 12 13 10 12 14 15 17 18 14 19 15 21 20 17 19 20 22 21 21 27 28 30 28 27 35 34 33 31 30 26 27 25 25 26 23 28 24 23 23 25 23 24 22 22 23 25 24 18 
28 33 29 27 26 24 24 20 16 17 24 19 19 20 21 20 16 19 20 18 13 20 22 20 15 16 16 16 13 14 13 10 10 11 13 10 12 16 13 20 21 17 16 16 22 18 21 23 24 21 24 29 30 29 28 30 30 30 33 27 32 26 28 25 26 24 24 25 27 28 23 23 26 23 22 18 24 20 24 19 
32 27 27 30 29 29 21 18 17 21 20 24 21 21 20 20 16 14 17 15 12 18 18 19 16 17 15 11 16 11 15 13 8 7 11 11 12 11 14 13 18 22 19 17 19 21 19 23 22 23 21 29 30 25 29 25 29 28 30 34 30 23 30 27 29 28 26 27 29 25 24 25 26 26 21 22 22 25 21 25 
28 29 27 32 25 25 24 19 19 22 19 25 27 20 20 19 18 16 16 16 14 18 21 20 16 14 15 13 15 12 10 11 11 8 13 11 9 13 11 15 19 18 18 17 17 18 19 19 23 22 26 27 28 23 27 27 30 32 33 28 29 27 29 28 29 26 26 26 28 29 25 29 27 26 24 21 23 21 24 20 
29 26 26 30 27 26 23 24 19 20 17 24 20 20 19 16 17 18 20 16 13 16 17 16 10 14 15 16 13 10 14 13 11 12 9 9 11 11 13 18 18 16 19 17 17 18 18 22 23 26 26 27 31 27 27 26 29 28 32 30 33 33 28 26 27 27 26 25 28 27 27 29 28 26 22 24 21 24 25 29 
29 28 30 29 24 25 22 33 21 20 22 22 23 20 22 22 21 19 19 15 16 16 17 15 11 13 14 16 14 10 9 13 9 8 11 9 8 10 13 15 16 18 21 20 19 19 18 22 25 27 26 27 28 26 24 28 29 29 33 29 32 26 32 28 30 29 25 26 30 29 26 28 28 26 24 24 28 23 25 29 
29 30 27 23 26 23 25 23 21 19 21 21 22 19 22 16 18 18 20 19 15 18 19 16 13 16 17 17 13 11 11 13 5 7 10 6 9 8 11 14 17 14 19 21 22 16 21 23 25 23 24 27 28 29 28 27 30 31 30 29 29 30 31 26 32 27 27 29 31 28 27 26 26 30 24 22 27 26 26 28 
28 30 32 26 28 28 24 27 19 19 20 20 22 25 21 19 18 19 21 21 14 15 19 17 14 16 16 12 15 11 10 11 7 5 8 9 11 11 14 14 15 20 18 20 24 21 25 27 25 26 24 26 28 28 28 27 29 30 31 34 31 29 31 28 32 31 29 26 27 26 28 25 26 27 28 25 26 28 27 27 
26 28 32 30 28 28 25 23 18 21 22 21 21 22 22 20 19 19 17 17 16 18 23 20 16 17 19 15 10 8 9 7 10 9 10 6 10 11 13 17 18 15 22 18 23 22 20 26 25 26 27 28 26 25 28 28 29 29 33 33 33 29 29 27 31 31 31 30 31 26 29 28 28 29 25 21 30 24 24 27 
31 28 24 28 29 29 22 23 21 21 20 20 22 18 22 21 21 18 20 17 13 21 18 18 17 19 17 17 13 7 11 11 11 7 9 9 11 12 14 21 15 19 21 20 21 21 21 22 25 23 26 31 25 27 27 31 29 27 33 34 36 27 29 31 32 29 30 31 32 31 28 30 27 33 26 25 26 24 26 25 
33 29 24 27 25 29 22 25 21 20 20 19 20 18 21 15 17 18 19 23 14 13 18 18 17 17 15 18 15 11 10 13 9 8 7 10 17 13 17 20 21 20 19 23 21 23 24 24 23 23 23 27 26 26 26 26 30 30 35 36 34 29 29 32 31 33 30 33 30 28 31 27 29 25 28 26 29 24 26 27 
36 32 28 26 25 29 24 24 25 26 20 19 20 19 20 21 17 16 17 21 12 17 17 17 15 16 18 18 14 11 10 13 5 6 18 22 18 19 20 19 24 21 20 24 25 22 22 26 28 25 26 29 28 26 28 27 30 32 33 33 34 30 30 31 33 29 34 34 31 28 31 32 28 30 24 27 25 25 25 22 
35 29 30 23 25 24 26 25 22 26 22 22 18 15 21 19 21 20 17 19 15 17 14 21 17 18 16 14 16 12 11 13 10 18 27 21 21 21 22 25 26 23 24 24 23 30 24 26 26 29 26 29 28 31 26 31 32 30 32 34 30 29 31 35 34 29 31 29 33 25 29 26 28 30 28 27 27 28 26 24 
32 34 29 26 27 23 25 24 21 22 22 19 19 22 21 20 20 16 17 18 15 20 18 21 16 19 17 18 15 12 14 20 22 23 24 23 22 19 23 27 27 23 23 24 23 25 23 25 27 30 27 28 31 29 31 31 33 30 32 33 32 32 32 30 32 31 29 33 38 30 28 28 29 29 25 26 29 30 29 27 
30 29 29 26 25 24 25 23 20 20 21 18 20 19 19 16 19 19 17 20 17 19 18 21 17 20 16 20 17 17 22 21 18 15 19 20 21 21 25 22 22 21 23 26 24 27 24 25 25 27 25 31 27 28 28 32 30 32 33 33 34 30 29 30 33 30 31 31 37 31 31 27 28 29 28 27 26 29 26 26 
36 32 30 29 26 27 24 24 21 21 22 23 18 18 22 17 20 20 18 19 17 17 15 17 16 16 23 25 23 26 23 18 22 16 21 22 21 24 23 23 22 23 24 24 27 27 26 25 27 25 28 29 31 31 30 31 34 32 35 31 36 34 32 31 33 35 31 33 33 30 33 30 29 30 27 29 27 29 29 30 
33 32 32 29 26 28 25 24 20 22 24 21 19 19 19 17 19 19 20 21 17 16 22 18 19 23 24 26 23 19 19 24 20 21 30 23 21 26 18 21 21 22 24 24 25 27 25 29 28 26 28 31 35 30 34 32 37 39 34 35 36 33 35 32 36 33 32 31 34 29 33 29 33 31 27 27 26 25 26 23 
35 28 31 28 28 29 26 23 19 21 24 22 20 18 21 16 21 22 21 22 17 17 24 26 25 22 25 23 18 20 23 27 29 39 33 24 25 26 23 27 22 25 23 26 26 26 27 30 28 26 28 34 33 30 29 35 37 34 36 38 37 31 35 33 35 32 34 33 34 31 33 33 31 32 31 31 30 34 27 27 
36 32 30 29 26 30 25 22 21 20 24 23 20 21 19 20 20 25 22 21 21 26 28 24 18 23 21 23 26 21 20 26 39 60 62 55 45 38 28 31 23 24 26 26 25 29 29 31 31 29 31 33 33 36 34 33 39 34 40 39 35 30 34 36 34 36 33 33 38 34 32 33 32 31 32 28 31 32 24 23 
31 33 27 31 27 30 27 18 23 22 23 23 24 20 22 20 20 28 30 28 25 27 26 22 18 21 26 27 20 15 11 18 45 71 72 65 60 59 56 50 37 32 29 30 31 30 27 30 30 30 35 34 37 35 36 37 36 35 39 36 38 32 34 35 36 39 33 35 36 32 33 31 34 32 32 29 31 30 29 27 
35 33 34 29 31 31 25 24 26 25 24 24 23 19 21 25 25 30 24 27 24 27 25 24 24 24 28 20 14 11 12 20 56 76 77 73 70 72 71 73 62 60 58 44 39 34 32 36 33 35 36 36 43 37 36 36 39 38 43 41 40 34 39 36 37 37 34 38 38 35 33 32 33 34 33 31 31 33 34 35 
35 41 42 38 30 32 27 26 22 24 33 26 27 27 29 30 25 26 26 26 25 27 26 32 28 21 22 22 13 14 13 24 66 76 76 72 76 78 76 77 75 75 76 73 69 59 51 40 39 41 43 40 40 39 41 39 39 39 38 41 39 35 38 39 39 39 39 37 35 39 34 34 33 36 34 31 38 33 36 37 
39 44 33 37 34 32 26 25 24 24 27 27 33 32 31 24 25 23 27 22 27 27 25 25 19 18 24 18 18 12 12 22 66 80 77 74 78 73 77 79 77 84 81 81 84 82 78 72 61 54 47 48 41 45 42 41 43 41 37 40 40 36 39 37 38 37 36 35 41 36 36 35 39 36 34 35 36 34 42 43 
39 43 30 36 30 27 22 25 24 27 28 31 32 30 28 22 26 27 30 31 23 21 18 18 14 19 18 18 14 12 11 25 73 81 77 76 82 76 78 79 83 83 86 86 89 90 88 86 80 77 74 66 58 49 43 43 42 43 41 42 44 37 38 41 40 38 36 36 39 37 35 35 38 36 35 33 38 37 36 41 
40 35 33 29 26 30 25 29 27 33 32 28 28 25 25 23 27 24 30 24 17 19 19 20 18 18 17 18 13 13 16 31 79 77 83 81 79 80 84 81 82 84 86 87 89 90 93 92 89 85 82 88 84 78 74 62 54 48 44 48 45 41 43 45 39 36 40 36 40 40 36 35 37 36 36 34 35 34 40 39 
40 34 30 31 33 36 33 34 35 34 27 32 28 31 31 28 26 23 22 19 19 22 20 20 16 18 17 16 16 14 18 34 82 81 82 78 79 79 83 84 84 86 88 89 90 93 95 99 94 92 92 93 89 91 88 91 80 75 67 57 53 39 45 46 47 39 39 42 37 42 38 36 41 38 34 34 37 40 39 38 
39 29 31 38 39 45 37 32 22 23 28 27 31 29 33 24 21 21 21 20 20 17 16 17 16 17 18 18 15 12 16 39 82 82 81 81 80 81 84 83 86 87 88 88 91 94 97 98 97 94 95 97 93 92 95 90 91 93 89 83 77 67 53 52 50 44 45 41 41 41 41 39 41 38 36 38 39 40 39 37 
37 30 34 41 47 46 34 27 24 31 25 27 31 30 28 19 23 19 22 20 14 18 17 15 12 15 17 16 14 12 18 45 84 82 82 82 78 80 84 89 89 86 86 89 93 92 95 97 94 96 96 92 95 92 95 92 95 96 96 95 94 89 84 77 75 61 52 52 44 41 41 39 42 41 44 39 41 38 39 42 
37 37 46 52 46 46 34 35 31 31 27 26 25 22 22 24 19 20 18 20 16 18 18 16 12 18 18 15 14 11 20 46 88 83 81 81 81 79 81 85 87 88 90 92 91 96 95 97 99 95 94 95 97 95 97 96 100 100 102 99 97 97 100 96 94 89 84 71 58 45 44 39 45 40 40 37 39 38 43 45 
47 45 51 57 45 49 45 43 27 24 23 22 27 28 23 24 21 21 20 18 15 21 20 16 12 16 16 18 16 15 17 54 89 87 81 81 83 82 84 88 85 90 91 92 90 92 100 98 98 95 91 96 96 98 100 101 104 102 98 103 102 99 101 99 97 100 97 97 89 75 69 65 52 53 41 38 43 39 40 39 
56 54 56 51 49 46 35 28 22 22 26 23 26 25 22 21 21 18 18 18 19 16 23 20 16 15 18 16 17 16 22 64 90 86 86 82 84 86 85 88 88 90 89 93 95 97 98 95 97 96 97 99 100 99 102 101 107 104 104 104 103 100 105 104 103 101 103 98 99 96 95 84 82 73 58 53 49 43 44 44 
60 44 46 42 34 35 25 24 21 20 22 25 24 20 24 22 18 19 20 16 15 17 19 16 16 18 17 19 18 18 21 76 91 89 84 83 81 87 84 88 90 87 91 92 94 98 94 96 98 95 100 101 102 102 104 103 108 104 104 109 109 105 104 104 107 105 102 104 106 100 99 99 100 97 91 75 70 59 53 46 
51 37 31 26 29 29 26 23 20 24 22 20 20 21 21 20 19 20 18 18 15 17 22 18 15 18 16 17 16 16 25 81 91 89 89 86 85 84 85 85 88 88 95 97 95 99 100 100 97 100 100 98 103 104 105 106 110 109 107 107 107 104 105 109 106 100 100 103 108 103 101 101 102 100 98 89 87 79 73 63 
59 42 33 33 28 27 23 25 19 22 20 18 18 17 17 18 16 18 20 19 17 21 22 21 18 18 17 19 15 15 28 88 98 85 88 86 85 83 85 86 87 91 96 94 98 96 98 100 101 99 99 101 103 106 105 106 111 111 111 110 106 106 108 108 105 105 107 108 107 105 105 102 102 102 99 97 92 91 88 83 
85 65 50 32 31 25 25 23 19 18 21 23 21 18 18 18 16 19 19 23 22 22 26 27 22 24 22 20 22 21 29 95 92 88 88 87 82 87 83 84 88 92 91 94 93 96 100 103 105 102 103 105 105 106 109 107 110 112 118 114 113 107 108 108 105 107 108 106 105 104 106 106 106 104 97 97 96 91 91 82 
95 83 72 55 46 33 31 27 18 22 18 19 21 18 18 17 17 22 23 24 20 24 27 29 23 23 28 24 25 25 41 108 95 92 86 85 86 85 86 87 89 90 93 95 100 100 103 104 104 103 104 106 106 108 108 111 117 113 114 118 114 107 111 110 107 109 109 105 110 106 106 106 104 105 99 97 98 95 89 87 
93 89 80 73 57 38 31 24 21 18 22 19 20 18 21 16 19 22 24 26 23 28 28 27 23 26 31 29 28 27 42 110 98 93 94 85 86 88 89 90 91 93 94 99 100 101 101 104 107 103 107 109 109 108 111 112 115 116 115 117 114 109 112 115 110 111 111 111 110 110 107 109 105 104 97 96 96 94 94 93 
81 89 82 76 76 46 29 20 22 20 23 22 19 20 20 18 17 21 27 25 24 27 25 28 25 30 33 32 31 30 50 113 106 91 91 89 86 86 88 93 92 96 97 100 103 103 103 105 104 104 106 107 108 107 111 112 118 116 120 117 119 115 115 114 115 111 113 111 111 109 109 107 104 105 98 97 98 93 94 94 
83 82 79 77 74 65 42 20 20 25 22 23 27 18 22 15 17 24 26 35 28 27 28 25 26 27 30 33 36 32 56 123 101 92 95 92 92 89 91 95 93 96 96 99 106 105 106 108 108 104 107 107 111 110 107 111 117 117 121 124 122 116 120 118 117 117 114 115 109 110 109 106 107 106 102 98 98 99 94 93 
80 81 75 72 70 68 52 26 21 21 19 22 22 19 21 14 25 25 26 27 26 24 29 29 23 27 30 34 38 32 70 120 102 97 95 92 92 93 92 99 98 98 101 102 103 102 107 109 109 107 110 112 112 110 111 112 119 118 119 120 123 115 119 116 120 115 116 115 112 113 110 108 107 107 101 99 99 96 96 96 
74 81 69 73 69 71 63 41 25 23 21 19 22 20 22 15 21 29 29 28 22 25 29 30 24 32 27 39 38 31 81 127 103 100 98 96 92 96 98 101 102 104 112 104 106 107 107 108 109 107 110 111 113 113 117 112 119 117 122 122 121 118 118 121 121 115 116 112 116 114 111 108 110 105 100 98 104 95 94 90 
73 74 69 72 67 68 70 43 27 18 21 18 23 23 16 16 22 26 27 26 22 25 26 28 27 27 33 40 34 37 93 137 107 104 99 99 103 101 98 103 99 100 109 107 108 114 116 110 112 106 109 112 113 112 114 114 118 122 122 122 121 115 119 121 120 114 114 116 115 114 112 111 108 100 100 102 104 99 95 97 


