P2
80 60
148
128 130 126 127 131 125 127 129 127 133 127 127 126 125 127 127 126 128 130 132 128 129 128 129 131 134 131 133 137 136 136 133 137 136 132 131 132 132 136 135 135 137 140 138 138 137 136 135 138 134 136 134 133 133 135 137 140 142 148 136 134 130 133 131 127 125 129 125 121 123 119 115 120 120 123 122 119 115 115 115 
131 129 127 123 129 126 124 134 135 133 128 129 124 127 128 127 127 128 131 131 129 131 128 134 133 132 132 133 137 137 140 135 136 136 133 132 132 132 131 133 136 135 139 139 138 137 135 137 136 134 137 133 132 132 135 143 142 140 142 133 133 134 131 133 128 128 124 122 122 119 120 118 118 119 121 118 117 123 121 118 
131 130 126 127 132 126 127 134 132 134 130 129 126 122 127 124 128 131 129 132 134 131 131 133 129 137 133 135 138 137 137 136 140 139 134 134 134 134 136 134 138 137 137 137 139 135 136 134 136 135 136 130 136 135 137 138 138 139 138 135 134 133 127 130 128 127 127 129 119 126 124 122 123 123 119 120 119 117 118 118 
131 128 128 123 130 124 126 128 133 130 132 127 125 128 130 124 128 130 132 133 131 133 131 130 133 132 135 139 137 139 133 135 138 138 130 133 134 134 131 132 140 136 137 138 138 138 137 134 141 135 139 138 134 135 139 142 140 138 133 135 138 134 132 132 129 128 128 128 123 122 122 121 121 123 117 119 118 120 121 118 
132 130 128 127 123 131 126 121 131 124 124 124 128 127 130 129 128 130 132 134 136 131 131 132 131 135 137 135 137 137 136 138 136 133 130 134 135 137 136 134 135 138 139 138 136 139 138 136 139 136 137 135 136 135 137 139 139 136 134 135 134 135 133 133 128 128 129 126 123 121 122 117 121 121 122 119 114 115 121 116 
133 132 127 127 132 127 126 129 127 130 118 117 126 132 128 129 131 130 134 132 131 134 130 128 131 134 135 131 138 135 133 136 137 133 131 134 138 134 135 138 137 137 140 134 139 140 140 137 137 137 135 135 138 135 135 141 137 142 137 139 138 134 138 133 128 130 129 130 128 123 124 120 122 124 120 123 118 122 117 120 
133 133 132 129 133 129 130 126 129 124 123 120 121 129 132 127 132 131 132 131 130 131 132 128 128 131 132 133 136 133 135 133 134 133 130 134 132 135 134 135 139 138 137 137 138 140 136 135 136 134 137 138 136 135 135 141 140 143 139 136 137 132 132 131 130 128 131 130 125 122 122 119 122 124 118 120 119 118 116 118 
134 132 128 129 131 129 128 128 124 122 121 117 122 127 126 127 132 129 135 131 133 130 132 131 128 132 131 133 137 135 134 133 132 134 130 134 134 132 135 135 139 135 138 138 139 136 138 135 138 134 134 136 135 135 138 145 138 139 137 137 134 132 133 127 128 131 130 123 122 119 117 116 121 119 120 120 114 116 116 115 
139 135 130 130 133 125 127 124 126 124 122 116 126 125 128 129 129 130 132 136 131 130 131 134 132 130 133 136 138 134 134 134 134 130 132 131 131 130 136 135 135 136 135 135 138 136 136 135 132 132 133 134 137 137 135 141 137 137 136 138 136 132 130 128 128 130 131 127 121 124 121 119 119 116 119 119 117 116 115 114 
139 135 135 132 129 126 126 127 126 121 124 119 126 129 127 125 132 130 130 130 133 129 130 132 137 132 133 134 138 136 136 132 134 130 129 128 133 133 132 132 139 133 136 136 136 133 133 136 133 132 133 133 132 132 137 142 139 132 135 135 132 129 129 126 128 129 129 128 124 121 121 116 119 119 118 118 117 114 115 118 
136 136 138 129 129 124 134 126 125 122 120 117 126 124 131 127 129 127 127 130 129 128 127 131 131 131 130 130 135 131 134 134 134 133 126 130 129 130 131 134 135 133 137 134 133 132 132 133 131 131 134 130 132 133 135 139 138 133 134 133 129 131 129 128 128 127 128 125 122 121 116 116 117 116 117 116 117 115 116 117 
140 138 137 134 129 124 130 126 123 119 120 113 121 128 129 126 127 128 127 128 126 129 128 128 129 128 130 133 132 130 133 132 134 128 127 127 126 125 133 132 138 132 133 133 136 133 132 129 130 130 131 130 130 132 138 141 138 138 135 131 131 132 129 128 130 127 125 125 118 116 114 113 120 118 118 122 118 117 116 116 
141 138 135 133 131 121 122 126 120 121 119 118 125 124 125 126 126 126 126 129 129 130 128 128 127 131 129 133 135 132 133 132 132 131 126 127 127 130 134 132 135 134 134 134 132 135 134 132 131 132 132 132 127 133 137 140 137 137 133 134 133 132 133 126 127 125 126 122 119 121 103 115 115 115 120 118 111 117 117 116 
138 139 140 132 127 118 128 122 122 119 119 117 118 124 126 127 126 127 130 127 132 130 128 130 128 128 129 131 132 132 131 131 134 131 129 128 128 135 131 129 133 133 132 136 134 137 136 136 131 134 132 133 129 131 136 138 139 141 138 135 133 131 129 125 127 127 128 127 119 117 121 112 116 115 121 120 117 115 116 117 
140 141 134 130 123 115 119 124 121 119 112 116 119 124 124 124 125 127 128 123 128 130 125 131 131 127 129 134 134 129 132 131 132 132 130 129 130 131 129 132 133 133 133 133 132 136 133 131 134 132 134 130 131 133 134 139 142 145 138 133 131 128 131 125 125 126 126 126 119 118 118 115 117 114 116 117 119 113 115 118 
139 141 138 133 122 115 121 125 123 120 115 119 123 125 123 124 126 127 126 126 127 130 126 128 128 127 134 129 131 132 131 131 131 127 126 131 127 128 132 130 135 130 133 134 135 136 133 134 130 131 130 132 133 135 135 138 140 138 137 132 130 129 130 128 127 128 125 128 119 118 118 117 119 117 119 117 117 113 119 121 
138 137 134 131 125 121 122 123 121 119 112 117 123 127 122 125 124 124 127 126 128 127 124 126 127 126 130 130 130 130 129 128 130 129 127 128 127 129 133 131 135 131 132 131 132 136 132 132 131 130 130 129 130 133 136 140 139 139 138 132 127 130 126 128 128 125 126 122 122 120 122 118 120 121 115 118 115 116 118 120 
137 136 134 133 124 121 120 118 117 116 115 113 118 122 123 122 124 126 126 127 130 124 125 127 123 125 130 130 132 128 131 131 130 124 125 130 128 129 135 132 135 129 131 132 133 134 129 132 127 126 128 128 133 132 138 139 136 140 136 132 130 126 126 126 122 124 120 124 118 120 120 116 119 117 116 120 118 116 116 118 
137 138 135 130 124 120 119 120 115 116 117 118 118 125 122 125 126 125 127 126 125 129 125 130 126 128 127 129 131 129 129 129 130 126 129 127 130 127 131 131 131 133 131 130 134 134 133 129 131 124 128 128 132 129 133 135 132 135 133 128 127 124 125 126 125 124 125 124 120 119 116 114 119 115 118 117 113 110 115 116 
137 134 135 130 124 123 121 116 117 116 117 118 122 123 123 125 125 130 127 127 127 127 128 127 127 130 130 126 130 130 133 131 130 128 127 126 130 130 131 129 133 129 131 132 130 131 131 129 131 128 127 127 127 129 132 138 137 132 132 130 127 129 127 124 126 122 124 125 122 120 118 117 120 117 115 116 113 114 114 112 
139 135 135 127 120 117 119 122 117 119 114 118 124 123 123 120 124 130 129 130 129 126 125 127 127 131 131 125 130 132 141 132 127 127 126 125 128 131 129 131 132 133 133 130 128 132 130 131 129 125 128 128 131 128 134 133 135 133 132 132 129 128 127 126 127 124 124 123 118 123 118 126 123 120 118 116 113 115 113 116 
140 139 132 125 121 120 120 124 118 117 118 120 126 123 120 124 125 127 129 128 125 126 128 127 124 129 131 129 129 131 132 131 127 126 123 127 127 128 134 129 131 133 131 127 127 129 128 127 129 128 128 127 127 130 131 134 132 133 133 129 125 128 127 127 124 125 126 119 122 124 121 117 121 118 117 117 111 115 119 118 
141 138 136 127 117 116 117 123 120 118 121 125 123 123 122 124 124 125 131 131 125 120 124 125 123 130 129 130 130 128 128 128 127 126 124 125 126 128 131 130 132 131 128 126 127 129 129 127 130 130 127 129 126 128 131 136 129 128 133 129 129 123 125 127 127 128 126 122 122 123 123 121 120 116 118 117 111 116 120 118 
140 138 135 130 120 121 118 131 118 114 119 124 124 122 122 122 125 125 126 124 127 123 122 126 123 127 127 128 127 125 127 127 124 126 122 125 127 128 128 129 128 130 128 130 128 129 127 125 129 132 129 126 128 128 136 133 129 131 132 127 127 126 127 126 125 123 127 123 121 123 120 119 118 119 121 115 112 115 118 119 
139 133 132 129 124 121 118 121 120 114 114 122 124 123 121 119 124 122 122 123 126 124 119 122 124 126 124 127 129 128 125 124 124 125 124 127 126 125 126 127 128 126 130 128 134 132 129 128 130 126 128 127 127 131 129 131 130 129 129 126 127 128 124 124 125 124 126 120 119 123 120 119 119 118 117 114 110 113 116 121 
139 136 130 123 116 117 116 120 114 116 114 121 121 123 127 122 123 123 119 123 122 124 123 121 121 125 127 126 128 128 125 123 122 126 124 124 128 127 125 127 129 126 129 129 130 133 129 128 128 126 128 127 126 128 129 130 127 128 127 128 126 126 124 123 126 119 122 127 121 119 120 116 120 116 118 117 114 116 117 116 
140 132 127 122 114 116 118 117 117 116 118 122 121 122 126 121 125 124 123 123 125 123 125 124 124 125 125 127 129 126 125 120 123 123 123 123 125 125 125 126 126 127 127 128 129 131 126 125 129 125 127 125 123 125 132 131 123 126 127 127 127 123 122 122 121 118 120 117 120 123 120 116 121 116 116 114 114 113 118 120 
136 131 131 122 121 115 114 117 116 113 116 120 121 122 122 116 123 121 121 123 121 123 125 122 124 126 128 129 128 128 127 122 122 124 122 124 125 123 125 124 126 127 130 129 127 133 129 126 128 123 127 125 126 128 131 130 125 123 125 127 127 122 122 123 124 121 117 120 119 123 117 119 121 117 114 114 116 114 117 117 
137 135 130 120 116 113 112 125 118 115 115 121 121 121 118 119 119 120 120 123 119 125 117 121 123 128 124 125 124 126 127 119 118 123 123 125 125 124 126 128 122 125 127 126 127 127 129 127 128 127 125 129 124 128 130 131 125 124 126 125 126 125 122 123 124 119 120 116 115 121 120 116 114 116 115 115 110 114 115 116 
141 135 129 119 110 111 113 117 118 113 113 117 119 121 116 119 119 119 118 117 119 121 122 122 125 125 122 122 121 124 122 121 122 122 124 122 126 126 125 125 124 126 128 126 125 126 124 125 129 123 126 126 128 125 131 127 126 124 124 124 124 124 122 125 125 120 129 119 118 120 117 115 115 114 113 116 115 112 116 116 
141 134 132 118 117 113 114 117 116 112 111 118 119 120 119 119 121 118 117 119 118 120 126 121 125 127 125 122 121 123 124 119 122 122 126 124 124 122 127 127 126 126 132 130 127 129 123 127 129 123 125 126 124 125 131 131 124 125 123 124 125 122 123 127 121 121 121 119 119 115 117 117 114 120 118 116 110 112 112 113 
137 133 125 117 116 115 115 119 111 107 114 125 119 121 120 121 124 120 120 119 117 120 122 122 123 129 126 121 121 122 122 119 119 123 122 121 122 124 124 125 131 125 125 129 127 124 127 123 128 128 124 124 124 126 127 129 125 123 122 122 121 120 122 124 122 121 119 116 116 121 114 114 116 115 115 117 112 114 114 114 
140 132 132 118 112 116 114 123 115 112 113 121 117 117 118 117 119 116 119 117 118 117 118 121 122 126 124 123 120 122 124 121 120 120 117 121 122 122 121 124 129 125 127 124 126 126 123 123 124 124 124 125 123 125 128 125 124 123 124 122 120 120 123 121 120 120 119 115 121 117 119 117 118 114 113 113 112 110 116 116 
130 131 128 114 113 114 114 116 113 106 112 119 117 117 117 118 123 117 117 117 118 119 118 123 124 122 125 122 122 125 124 120 120 121 120 118 121 124 124 125 125 127 129 127 128 128 126 124 122 121 126 124 124 125 126 123 124 128 123 124 121 122 121 120 121 120 121 117 115 116 115 116 116 117 115 116 115 112 115 118 
133 128 132 116 112 111 109 110 110 105 110 117 115 118 114 117 122 117 118 121 118 118 116 120 124 125 122 123 122 122 122 118 120 122 122 119 123 123 123 122 126 125 127 125 125 124 126 124 123 123 124 123 124 124 126 125 126 125 128 119 123 123 121 122 124 119 119 118 117 116 115 114 118 114 117 113 114 112 114 118 
132 130 123 116 111 113 111 108 111 104 115 114 116 118 115 114 119 117 117 119 121 116 117 123 120 124 122 118 120 123 119 119 126 119 120 122 122 123 122 124 125 124 121 124 124 123 126 124 122 122 120 124 123 127 127 126 126 125 125 124 118 120 120 122 120 117 118 118 116 118 115 113 114 116 113 112 116 114 114 115 
136 124 122 117 112 111 110 112 106 105 112 111 114 115 114 114 117 117 118 116 119 119 119 119 120 118 120 118 120 123 120 118 124 121 120 121 124 123 122 120 123 122 125 126 124 128 122 122 123 123 124 124 125 124 128 128 124 124 128 125 120 120 121 123 121 117 115 120 118 117 119 115 113 115 115 112 110 116 115 117 
133 128 124 114 112 108 113 112 112 103 111 116 117 115 114 112 116 122 119 117 117 119 119 118 120 120 118 115 120 121 122 116 119 120 119 120 120 122 122 122 119 121 125 125 122 124 125 125 127 122 123 125 124 124 127 127 122 123 124 123 121 119 121 121 118 124 118 118 118 117 118 114 112 114 110 113 111 114 115 118 
130 132 129 118 113 109 109 113 109 104 123 112 113 113 114 115 115 118 117 114 114 118 117 119 121 121 119 118 118 116 116 117 119 121 120 116 119 120 124 121 123 122 124 123 121 124 126 127 120 122 125 125 121 128 126 125 120 122 123 122 121 120 119 119 115 117 118 119 115 120 112 113 112 113 111 113 112 112 116 120 
131 129 125 111 110 109 110 116 109 102 108 113 112 109 109 113 113 114 117 114 116 119 114 119 121 119 118 115 119 120 113 119 121 121 119 119 119 119 122 120 122 122 127 122 121 124 127 124 125 126 123 128 128 128 129 126 119 121 120 121 118 111 117 118 117 114 113 113 115 112 113 112 114 117 111 113 110 116 115 120 
129 129 125 111 106 109 110 111 107 104 110 113 109 111 114 111 115 114 117 112 111 112 114 116 120 121 125 115 114 118 115 115 120 122 118 119 118 119 120 121 121 119 122 122 121 124 123 125 125 126 125 131 128 128 123 123 120 120 121 118 119 120 116 116 115 113 110 115 114 114 112 115 111 117 112 112 112 113 122 120 
132 127 123 108 108 106 105 111 106 103 108 113 112 112 116 113 114 114 107 113 115 115 114 117 122 120 119 116 115 118 115 116 120 121 118 120 118 120 118 120 118 123 122 119 123 122 126 125 126 123 126 128 125 127 127 124 121 123 118 119 119 117 118 119 118 113 110 111 110 112 113 111 115 113 110 112 114 116 119 120 
130 127 125 106 105 104 104 107 103 100 110 112 109 111 112 109 113 110 111 114 115 115 114 116 119 119 116 116 115 117 114 116 119 119 120 121 118 120 120 119 119 121 122 124 125 122 128 123 125 123 123 126 124 125 124 123 121 120 121 120 119 118 121 119 118 113 111 111 114 111 110 113 116 111 109 110 107 112 116 116 
132 126 118 105 103 104 104 105 103 103 112 111 110 112 111 110 115 111 114 112 112 114 113 114 119 117 116 110 115 116 117 116 118 119 118 117 119 117 119 119 120 122 119 121 125 125 126 127 125 124 126 123 122 123 121 123 120 122 118 117 118 118 117 115 114 113 113 108 112 114 115 111 114 112 110 112 109 113 114 114 
130 127 117 102 100 100 105 107 104 100 104 109 108 109 106 111 113 110 113 111 115 113 114 112 116 119 114 111 116 118 113 115 122 120 119 117 117 121 120 117 121 120 122 120 124 123 127 126 127 122 125 123 121 124 119 121 120 119 122 118 117 116 115 116 112 111 112 114 114 112 112 113 114 115 111 109 112 111 117 115 
132 125 121 107 101 103 101 107 103 100 105 109 109 108 111 110 114 111 111 115 115 116 113 117 116 113 116 112 115 115 116 116 115 120 117 121 117 120 118 116 118 117 120 123 124 124 127 125 124 122 124 124 121 122 123 120 119 117 120 116 119 117 115 116 117 111 115 113 110 112 114 108 111 112 111 113 110 110 115 115 
134 121 122 100 103 102 97 101 101 97 106 110 108 106 108 109 110 111 110 110 114 111 109 114 118 116 111 113 111 114 113 113 119 114 115 119 117 117 115 115 119 116 118 123 124 127 122 120 124 121 120 125 122 119 122 119 121 118 115 113 116 116 115 113 114 110 108 111 109 113 107 108 109 112 109 107 111 111 110 113 
131 124 114 102 101 101 98 102 98 97 106 107 107 107 107 109 109 106 109 108 109 111 112 113 116 112 112 112 111 114 111 113 119 117 116 117 118 115 115 118 119 119 115 120 118 123 123 121 121 119 119 121 122 120 119 116 118 118 117 116 117 114 116 115 109 108 107 108 107 112 112 108 110 108 107 104 111 108 109 112 
131 125 109 95 104 98 106 106 98 100 101 107 106 106 112 108 109 105 109 106 108 108 114 114 116 111 114 111 112 111 109 111 113 116 115 116 114 119 115 116 121 115 116 121 122 119 122 118 119 119 120 121 119 122 118 121 118 117 117 117 116 119 114 113 109 107 106 108 111 109 109 108 107 108 108 104 112 108 112 109 
131 121 106 96 99 98 103 106 101 98 103 105 105 105 110 109 108 111 108 110 112 111 111 113 115 112 113 110 114 113 108 106 112 115 115 113 117 117 118 116 118 118 121 119 119 121 118 117 117 120 118 117 119 122 121 117 117 117 117 114 114 116 113 114 106 104 107 109 106 112 109 110 107 111 106 107 108 108 108 112 
130 126 112 99 102 103 100 106 102 105 101 100 104 105 107 108 110 107 108 106 109 111 105 112 113 114 111 109 111 110 108 110 112 117 112 114 114 114 118 117 117 116 120 119 117 120 119 115 117 116 115 120 116 119 117 115 119 116 115 116 117 115 112 110 108 102 106 110 111 109 109 108 107 107 107 107 109 108 108 108 
131 119 106 98 104 99 107 109 109 107 105 104 102 104 104 103 106 105 111 108 111 109 103 111 113 111 107 108 109 109 110 110 115 112 120 117 117 115 116 113 113 116 118 117 118 119 118 116 118 117 119 118 119 122 119 121 118 115 114 118 115 113 112 111 105 103 108 108 107 111 111 107 109 105 107 111 108 110 111 109 
131 117 100 102 99 98 98 107 105 109 106 107 103 103 107 101 104 102 106 105 104 108 107 109 111 110 112 110 110 111 106 108 109 113 114 113 115 114 113 112 116 115 118 116 115 120 119 117 119 116 118 119 119 119 120 120 119 116 120 118 117 112 113 114 106 104 104 104 104 113 113 106 110 105 107 108 107 110 105 109 
127 118 107 97 106 100 101 99 100 107 107 107 107 106 103 103 102 102 105 104 104 105 103 105 110 114 112 110 111 110 110 107 108 114 114 114 111 110 113 110 115 114 114 114 115 117 119 116 117 118 117 121 120 120 120 120 119 118 118 118 117 114 114 107 103 103 106 103 109 114 109 107 104 107 104 107 109 111 111 107 
123 115 109 97 98 96 100 101 99 105 108 104 102 110 105 101 99 100 100 99 103 101 101 106 110 112 112 113 109 105 107 106 111 114 108 108 110 111 108 108 114 111 111 112 112 116 113 116 114 114 116 117 120 116 117 120 116 115 114 116 114 111 111 107 106 100 103 103 106 121 108 102 106 104 105 111 109 110 107 106 
127 115 95 86 87 94 95 104 103 105 102 104 108 108 109 100 98 101 104 103 103 101 98 102 105 110 107 108 107 105 103 103 112 111 111 115 111 110 110 109 116 112 116 116 115 116 115 113 114 115 114 118 117 118 116 117 112 115 111 112 111 111 109 109 105 100 102 103 109 112 114 106 105 110 107 111 107 110 106 108 
123 118 82 62 78 92 94 99 104 101 103 103 111 108 110 104 100 105 102 106 103 99 97 98 105 107 106 103 109 102 106 106 114 112 111 112 112 110 109 111 114 112 113 114 114 114 115 112 117 116 114 116 116 113 113 116 114 114 114 112 111 110 110 107 103 98 103 104 112 109 111 104 105 109 107 114 108 109 108 109 
123 113 72 28 39 79 93 100 98 105 103 108 106 102 106 104 104 103 102 100 103 100 97 98 100 106 102 107 107 107 102 108 110 111 108 112 112 110 111 111 115 110 117 112 113 116 115 115 115 114 113 115 117 112 113 114 111 113 112 113 113 110 106 102 101 105 105 108 110 112 106 104 109 110 105 109 108 112 106 105 
117 107 64 11 6 49 86 95 99 99 104 105 110 106 102 99 105 108 103 100 99 100 94 99 101 101 102 102 105 102 103 104 112 113 109 109 111 111 108 112 112 113 124 115 112 114 113 115 113 114 115 116 112 112 115 114 110 111 111 111 109 108 107 102 105 102 107 106 111 108 106 108 108 109 107 109 108 113 107 106 
120 104 59 6 0 15 61 91 99 100 105 109 107 108 106 100 101 105 107 99 100 98 91 95 98 102 103 103 106 104 103 107 110 110 112 111 114 114 111 111 112 110 110 117 113 114 115 114 112 117 116 117 116 114 113 116 111 112 117 113 110 111 108 104 103 102 104 103 111 105 105 105 108 106 105 108 107 109 106 104 


