P2
80 60
30
19 22 19 18 18 17 18 16 24 19 22 20 18 19 19 21 20 18 15 18 20 17 19 18 16 17 16 16 18 16 14 16 19 20 20 19 21 21 20 17 18 17 21 18 17 23 19 20 20 20 23 20 20 22 23 22 21 22 20 17 15 14 20 16 15 11 12 13 12 12 8 8 12 15 13 12 11 10 8 8 
18 20 21 17 16 18 16 20 17 21 22 22 15 17 22 18 18 21 18 18 19 16 18 16 17 13 19 17 17 21 16 18 17 17 20 21 21 19 19 18 20 17 19 19 17 19 19 18 19 19 21 20 18 21 20 24 22 20 23 18 14 13 15 15 13 12 14 9 12 10 8 6 10 12 10 12 9 12 7 10 
17 19 18 21 19 18 21 18 18 20 22 20 17 17 16 20 17 19 21 18 21 18 16 15 12 17 16 20 17 19 21 18 20 20 19 20 23 20 22 21 17 20 16 15 17 18 20 15 18 19 18 16 19 20 19 22 22 18 18 14 15 12 13 13 12 9 13 13 9 12 11 6 9 9 10 11 15 9 8 8 
19 20 19 19 20 19 21 20 18 20 22 23 21 19 21 20 21 22 18 18 16 18 18 17 13 17 18 20 19 19 16 17 18 18 18 19 25 13 21 18 20 16 21 19 18 22 21 18 20 19 18 21 20 20 18 18 18 18 20 16 20 16 16 12 13 11 13 12 13 11 10 11 14 11 11 8 10 12 11 11 
21 18 18 19 17 19 21 19 18 20 21 16 20 17 19 21 20 19 20 21 18 15 19 16 17 17 20 19 20 19 15 16 17 18 15 21 20 23 23 20 17 18 23 23 18 16 22 18 21 19 19 21 22 18 19 20 17 15 17 19 17 12 16 20 16 12 16 12 12 10 8 12 12 11 14 7 9 10 8 7 
22 19 15 21 21 20 21 21 20 18 21 19 19 19 22 18 19 18 19 21 17 19 19 18 16 18 20 19 20 15 16 18 16 19 20 19 22 20 20 23 21 24 23 19 18 22 23 20 18 19 21 28 24 22 22 22 18 21 18 16 16 16 18 14 19 10 16 17 19 16 16 8 10 9 10 11 9 11 10 9 
24 22 23 21 20 21 20 21 19 21 22 21 19 21 20 23 24 23 22 21 19 19 21 19 16 19 17 19 19 17 14 16 16 19 16 22 24 23 20 22 20 18 19 23 21 19 18 18 20 15 22 26 26 22 21 22 19 23 24 21 19 15 20 11 16 14 15 16 13 15 9 6 8 10 9 11 9 9 6 10 
25 24 22 21 20 20 20 15 19 23 22 21 20 22 20 24 23 21 20 20 23 16 19 18 15 19 15 19 20 19 15 15 15 14 18 22 21 21 22 20 20 15 20 24 18 20 20 20 18 17 19 22 23 20 18 24 20 19 19 20 16 16 21 18 15 17 16 12 11 9 8 11 11 11 11 9 12 6 9 10 
22 24 21 21 18 22 19 18 22 19 18 20 21 16 18 20 20 20 19 18 20 21 22 20 16 19 16 18 21 15 15 12 17 19 19 20 25 18 21 18 18 17 15 20 16 19 18 19 19 16 16 17 21 23 20 21 17 14 17 18 16 15 17 15 15 14 15 10 12 9 8 10 7 12 8 9 8 8 5 6 
27 25 23 21 24 20 22 22 20 19 19 18 15 18 17 22 24 21 20 19 18 19 17 18 19 17 16 17 18 17 11 12 18 18 16 20 19 19 17 17 16 17 16 19 13 18 18 16 18 18 15 17 24 20 22 18 17 16 20 17 13 16 14 13 11 15 15 12 15 13 6 10 10 12 8 9 10 10 3 12 
26 26 27 27 20 24 26 20 20 19 19 18 18 18 17 15 21 17 14 18 19 16 19 18 18 13 13 16 19 14 15 13 15 18 16 18 20 18 19 18 17 15 15 16 14 15 17 15 17 18 16 20 23 18 20 19 16 13 19 14 16 11 14 18 12 11 15 10 11 12 7 8 11 12 8 8 9 11 0 3 
26 26 23 23 25 23 25 19 19 19 20 20 18 19 19 17 18 22 17 18 19 19 18 16 17 14 14 15 16 16 17 15 16 17 17 17 19 20 19 18 21 18 16 16 14 18 16 15 15 17 15 16 21 15 18 20 18 14 18 15 16 14 15 14 16 14 17 12 10 10 5 5 9 10 8 13 9 7 7 5 
25 26 22 26 21 22 22 18 20 21 25 22 16 21 18 20 20 18 14 18 18 18 19 15 18 14 15 17 16 15 15 14 17 17 16 19 20 18 22 19 19 16 18 18 18 18 21 17 18 19 19 16 16 13 17 22 16 15 16 18 12 14 20 13 14 13 15 15 9 11 2 9 7 10 10 12 8 8 5 13 
24 26 25 23 25 20 24 17 17 16 20 20 19 16 21 23 18 20 16 19 18 18 20 19 15 16 16 17 16 17 14 14 17 19 17 17 18 21 18 17 18 17 17 19 17 23 19 20 18 20 20 20 18 15 21 17 19 18 19 17 14 14 13 13 12 13 15 14 12 8 11 6 9 8 10 12 10 11 8 4 
24 26 24 23 19 20 20 21 17 17 16 18 17 16 21 17 17 18 17 12 18 17 19 18 16 13 15 20 17 16 12 13 17 19 14 15 21 21 16 16 17 19 19 17 19 18 15 17 19 20 16 18 19 19 17 19 22 24 20 18 15 14 16 14 15 13 14 12 12 14 8 10 9 9 9 8 10 11 7 11 
25 24 24 21 18 18 19 21 18 18 19 19 17 19 17 21 18 17 16 16 15 16 19 16 13 16 13 15 15 15 13 15 15 16 14 15 18 17 23 20 20 19 17 21 15 17 18 16 19 17 16 15 20 17 19 19 21 21 22 21 12 14 20 15 12 15 15 7 16 12 9 9 12 9 9 9 10 12 4 11 
20 23 22 22 20 18 18 20 17 17 16 18 16 16 17 21 18 18 13 16 19 13 15 15 16 12 10 15 16 13 13 14 17 19 15 18 18 18 18 17 17 18 18 18 14 18 18 14 15 15 17 17 21 15 25 21 21 20 22 17 11 17 16 16 11 10 15 14 12 14 13 9 10 10 7 8 12 10 11 7 
22 23 25 22 21 20 20 17 14 13 18 18 18 17 19 16 18 18 17 16 17 13 20 17 15 13 14 16 17 13 14 15 18 18 14 16 20 17 17 21 20 16 15 16 14 14 15 16 17 15 16 18 22 20 22 21 19 22 22 20 14 14 14 15 14 10 15 12 14 12 13 11 9 6 7 11 11 10 3 10 
23 29 21 22 24 19 19 18 16 15 16 22 19 20 20 19 20 19 16 15 16 17 19 20 13 13 11 15 17 13 13 15 18 22 22 17 21 20 18 20 16 19 16 20 16 16 19 16 18 17 16 19 28 18 20 20 16 16 19 14 15 14 15 15 14 14 15 18 13 12 11 9 13 10 7 8 5 7 2 4 
24 22 21 20 24 18 19 17 18 18 20 19 20 18 18 18 17 17 18 17 19 19 22 20 15 15 16 16 16 13 16 13 20 18 17 16 21 21 18 18 19 16 17 16 16 15 15 17 20 17 17 16 21 17 19 17 18 14 17 16 14 13 14 16 15 13 15 13 11 12 10 8 9 13 8 6 9 10 2 3 
25 22 22 22 23 21 17 20 15 20 20 20 19 17 19 16 19 19 17 20 18 18 23 17 17 19 17 18 17 15 25 17 18 16 20 16 21 19 19 20 21 20 22 17 16 18 16 18 18 14 15 19 20 19 23 21 18 18 20 18 16 15 14 15 15 13 16 14 13 14 17 11 15 11 11 6 10 10 5 11 
27 23 22 22 24 18 21 18 18 16 21 20 25 16 19 18 19 20 14 19 19 13 19 17 14 19 17 16 18 18 16 17 17 17 13 17 20 19 23 19 19 19 14 16 17 14 15 14 20 16 19 17 19 21 17 17 20 17 20 14 12 16 18 16 12 16 18 14 13 13 13 16 11 11 8 7 8 10 10 11 
25 26 23 24 20 17 17 22 21 20 18 21 18 21 19 17 17 18 19 18 17 14 16 17 14 17 14 17 15 14 12 14 18 16 17 17 21 16 19 19 16 16 14 13 12 13 17 15 17 18 16 17 19 16 19 17 18 14 19 17 18 13 16 16 13 14 16 13 12 9 11 12 13 12 9 9 8 12 7 12 
22 19 21 21 22 21 21 27 19 16 20 22 18 18 19 16 17 17 19 16 15 17 15 14 15 18 13 16 12 13 11 13 17 18 15 15 16 16 14 17 16 13 15 14 11 14 16 13 18 19 19 18 19 16 12 18 19 17 12 13 14 15 18 16 14 13 18 12 11 13 11 9 12 12 8 7 5 11 8 9 
19 19 21 20 19 19 19 19 21 19 20 19 20 18 20 16 15 15 18 19 17 17 17 16 16 14 11 12 14 15 11 12 14 15 14 15 18 17 14 17 17 15 15 17 18 17 15 12 17 16 14 16 17 15 15 16 18 16 14 15 15 15 14 16 13 16 20 12 13 12 11 12 11 12 10 10 10 12 12 10 
21 18 21 23 20 21 20 19 19 17 18 20 22 19 22 21 17 18 18 18 15 16 20 16 15 15 13 14 15 15 12 12 13 15 13 18 19 16 16 15 16 15 16 18 14 18 16 17 17 16 16 14 16 16 16 17 14 15 17 16 15 12 14 15 18 17 18 14 10 9 12 9 14 11 9 11 12 12 9 10 
21 19 21 22 21 23 21 17 18 21 19 18 17 19 17 19 18 22 18 19 17 18 20 19 17 17 16 15 18 17 12 11 15 17 18 16 19 16 16 17 17 15 15 20 16 17 17 15 17 16 17 18 21 13 14 18 15 14 15 16 15 15 14 16 15 14 19 16 14 16 15 11 12 14 11 11 11 10 9 5 
19 23 21 23 19 20 24 19 19 16 16 17 18 17 18 17 19 21 15 17 16 16 18 16 17 15 15 18 18 18 15 15 12 16 13 16 19 18 17 16 16 16 19 20 14 16 18 15 16 14 17 19 20 14 16 18 14 15 14 14 13 16 19 15 13 11 13 14 10 13 12 14 13 10 10 10 10 11 6 3 
25 22 21 25 23 20 20 21 19 22 17 19 19 20 17 18 18 18 14 19 19 15 17 17 18 16 16 17 17 18 15 15 14 15 16 18 19 16 17 16 16 17 22 21 15 15 18 18 17 17 16 20 19 18 16 16 17 14 16 15 13 18 14 17 14 14 15 13 12 16 12 9 13 11 9 9 10 12 9 7 
27 25 25 23 25 21 21 17 20 20 21 20 19 21 19 17 18 18 16 16 18 17 19 17 17 17 17 17 16 16 15 15 13 14 13 19 19 15 15 19 17 18 16 20 18 17 19 13 17 16 18 19 20 15 19 10 13 13 17 12 12 18 17 17 17 13 24 18 12 14 14 7 12 13 9 10 11 9 5 9 
25 27 23 21 19 18 17 20 18 18 21 20 18 16 20 24 20 16 16 18 15 12 13 13 16 17 15 14 16 17 15 12 12 15 18 14 19 15 16 17 18 15 21 17 16 18 13 16 23 15 16 19 17 16 15 16 15 15 15 15 16 14 15 15 17 15 18 15 14 14 12 11 11 11 6 6 8 10 8 11 
22 25 21 23 26 19 19 16 16 19 20 19 18 17 19 23 20 16 13 17 15 15 18 15 14 16 18 17 18 15 15 16 15 16 13 15 17 17 17 18 19 17 17 19 17 15 15 15 19 17 15 17 17 17 18 16 15 14 16 13 11 15 16 18 17 15 16 18 13 13 13 12 12 12 9 8 8 11 7 9 
22 21 23 23 22 19 18 20 18 17 16 19 15 16 19 20 19 17 18 16 18 12 16 17 15 16 17 16 16 17 14 13 14 17 9 16 15 17 17 20 18 18 20 20 15 15 13 13 17 17 19 17 18 16 17 17 15 15 15 12 16 16 18 18 13 17 17 17 17 14 12 8 10 12 7 10 12 11 3 6 
24 23 21 22 22 22 20 17 18 18 17 20 18 17 19 20 18 17 17 14 19 13 18 17 16 16 14 16 17 20 15 14 15 15 15 10 19 17 17 18 19 20 19 17 17 13 16 15 16 17 17 18 17 16 16 18 14 18 13 15 14 18 14 17 18 16 18 15 15 12 11 10 11 15 11 11 11 13 9 7 
23 22 19 18 17 20 15 15 17 17 18 19 21 18 18 19 20 18 16 19 14 14 14 17 19 14 15 16 15 17 14 15 16 17 16 13 17 16 16 13 15 18 18 19 14 18 18 16 13 15 15 19 16 18 17 15 18 17 18 10 14 12 13 16 17 15 16 13 15 11 9 10 10 12 9 12 11 14 8 9 
22 22 18 21 19 21 18 18 18 17 17 17 21 19 21 18 19 18 18 21 16 16 17 17 16 16 13 14 16 13 12 13 16 20 16 11 20 17 13 18 14 14 16 16 17 16 18 17 18 13 15 20 18 19 19 17 15 19 16 18 12 14 14 17 17 17 16 16 15 13 11 9 12 10 10 11 8 12 10 11 
21 21 23 23 19 20 20 17 20 18 18 17 16 20 18 16 19 21 18 17 21 15 15 17 15 13 13 17 15 13 14 16 16 19 14 12 20 17 14 16 16 13 17 19 15 18 14 15 19 16 15 21 20 15 18 17 15 16 16 17 13 12 17 17 18 18 16 15 14 13 10 9 10 11 11 9 9 11 7 9 
22 25 23 22 23 21 20 19 15 18 21 17 19 18 20 15 18 22 18 20 18 15 18 16 14 14 15 15 18 16 17 13 16 20 15 15 16 18 16 16 17 17 19 20 13 17 17 14 20 16 17 16 19 16 18 19 18 14 13 12 15 8 14 15 15 19 18 17 14 14 11 14 15 11 9 11 10 9 8 8 
19 22 30 18 21 20 20 19 20 20 20 20 15 19 19 13 17 18 14 17 17 17 16 15 14 16 14 15 16 14 11 12 13 19 14 14 17 16 18 18 17 19 16 15 13 16 16 16 17 16 18 18 20 18 18 19 18 13 15 16 11 12 18 14 13 16 18 14 10 13 12 13 13 9 10 6 13 12 8 13 
20 21 20 20 23 21 17 17 19 19 19 18 17 22 16 18 20 18 14 16 19 17 15 16 14 17 14 17 17 17 11 15 17 16 13 17 18 15 17 20 19 16 18 17 14 17 20 17 20 18 21 20 23 17 19 18 15 16 16 15 12 11 17 16 13 12 16 13 15 15 10 11 12 14 6 12 10 11 10 12 
19 20 20 18 19 22 19 21 19 15 16 20 17 20 19 18 18 16 16 16 17 15 16 16 15 15 18 18 16 16 14 14 19 19 15 18 17 16 16 18 17 14 19 18 15 17 17 17 18 21 23 22 23 16 18 19 15 16 15 16 12 13 17 13 14 12 16 12 12 11 11 12 8 11 11 9 14 16 13 14 
21 22 20 18 19 19 16 16 16 18 17 20 17 16 17 14 20 19 14 15 16 14 16 15 18 17 14 15 15 12 13 14 15 14 19 18 23 17 18 16 17 20 16 13 14 19 17 17 17 18 23 20 20 17 15 18 16 15 15 12 15 13 15 16 17 13 13 9 15 10 8 11 14 10 11 12 15 17 8 16 
22 23 25 19 19 19 18 18 18 19 18 20 19 17 19 18 18 19 18 15 17 15 15 17 16 16 16 14 13 18 12 13 17 17 16 19 20 19 17 17 19 17 19 21 16 21 19 20 21 19 20 17 21 17 17 20 18 15 17 13 12 13 16 21 17 14 15 10 12 12 11 13 9 8 8 6 9 14 7 9 
26 23 21 20 18 21 19 16 19 17 16 22 17 18 20 17 14 19 22 18 16 16 17 18 16 13 17 14 17 15 13 15 18 15 18 16 19 18 16 15 18 17 14 16 16 21 20 24 20 20 19 15 20 17 18 17 17 15 18 11 14 15 15 13 15 14 14 12 11 14 12 8 12 6 10 12 11 12 9 10 
21 20 17 18 17 18 21 15 17 18 20 18 22 21 21 18 20 21 17 19 21 15 20 14 16 17 13 13 14 14 11 14 16 17 16 19 18 18 17 15 18 14 17 16 18 22 22 20 21 19 19 18 19 17 19 17 16 16 13 15 15 14 14 16 13 18 18 15 15 10 10 5 9 14 9 12 13 10 9 11 
24 20 16 20 20 15 16 16 18 19 18 21 16 20 26 24 23 22 19 18 18 16 17 17 16 15 12 13 14 13 13 13 16 18 17 20 19 18 16 17 14 19 16 17 17 21 18 20 21 16 20 18 18 18 19 17 13 11 14 14 15 17 12 16 9 17 19 16 14 14 10 6 8 11 14 11 11 12 5 7 
20 20 18 17 16 15 16 18 19 18 19 20 17 18 20 21 17 18 16 18 16 18 19 17 15 15 16 14 15 17 13 10 17 17 17 19 17 17 16 17 15 17 13 17 17 27 17 19 20 19 16 20 21 15 18 16 16 16 15 13 10 19 15 15 12 17 16 16 12 11 11 6 10 9 12 9 12 14 7 5 
22 23 15 19 15 17 19 18 17 16 18 19 20 20 22 19 20 21 17 16 17 15 21 22 16 15 15 13 15 16 12 13 15 16 17 14 17 20 18 16 14 21 14 15 19 17 20 17 21 17 20 19 20 15 15 18 14 13 17 14 14 21 16 15 14 13 16 15 12 14 11 7 10 13 5 8 9 8 2 9 
23 21 16 15 18 16 18 16 17 14 18 17 17 19 20 22 18 17 15 15 17 18 21 21 15 15 13 15 16 17 13 12 14 15 13 14 18 17 15 16 15 14 15 19 17 19 15 18 17 16 16 16 17 17 17 19 15 15 17 15 13 19 13 14 13 11 18 14 14 12 8 6 10 9 8 9 10 8 4 6 
21 21 20 19 13 19 17 18 16 16 18 17 18 14 20 21 20 20 20 19 16 17 18 16 15 13 12 15 13 16 13 12 13 19 15 13 18 13 17 15 16 12 14 16 16 16 16 14 14 15 14 16 18 16 18 17 17 14 16 14 15 17 16 16 10 15 14 14 12 12 12 8 10 12 5 8 6 10 5 7 
20 24 19 18 19 15 17 17 19 16 16 16 17 20 19 22 19 22 18 20 16 15 16 15 15 13 16 14 13 14 12 11 13 18 15 13 20 22 21 14 13 15 13 18 17 11 14 15 14 14 14 20 19 18 19 19 12 15 14 15 14 17 15 15 15 13 16 13 15 10 11 11 11 11 6 9 10 7 6 4 
20 22 16 19 21 18 16 17 15 15 16 19 18 15 19 20 19 19 18 19 19 16 12 13 15 13 12 15 15 14 13 12 14 13 18 17 19 17 18 14 14 17 14 18 18 17 14 14 16 16 16 18 20 23 18 22 14 16 15 15 13 14 16 15 13 13 16 13 12 12 10 7 11 10 9 13 11 9 3 3 
19 20 21 21 20 20 21 15 16 19 19 18 16 18 17 13 18 14 17 17 15 15 15 12 13 15 14 15 14 14 12 11 12 16 13 13 18 14 13 13 13 14 13 14 16 14 16 18 18 15 17 18 19 19 17 21 18 19 22 18 13 14 15 16 13 14 17 13 13 12 11 11 9 8 8 10 10 9 1 10 
19 20 19 20 22 20 19 17 15 20 19 14 16 15 18 16 15 17 19 16 14 15 15 16 18 15 16 15 18 17 10 10 14 14 13 14 17 15 13 15 16 13 12 12 14 13 17 13 17 18 19 17 18 20 18 20 20 19 16 14 13 14 15 15 14 12 13 16 14 16 17 6 9 8 6 10 9 10 8 9 
20 17 17 18 19 20 19 18 17 18 18 18 16 18 20 20 18 18 19 16 16 10 16 14 12 15 16 16 14 12 11 13 15 17 12 15 16 16 11 14 18 14 14 14 12 14 16 16 12 15 17 17 19 18 20 19 18 16 16 17 11 12 12 13 13 15 13 11 13 12 15 7 8 12 9 7 8 8 7 8 
18 15 15 15 17 16 15 15 14 17 15 18 19 19 17 17 15 18 16 18 17 15 12 13 14 13 15 16 15 10 12 12 14 14 12 12 16 13 13 16 16 13 12 16 12 13 13 15 16 17 15 15 18 13 20 19 17 17 17 14 13 14 12 12 16 10 10 10 12 14 19 9 14 12 8 9 7 7 7 9 
13 16 14 14 17 13 13 15 16 18 18 21 26 20 20 16 16 17 16 19 15 12 14 14 9 12 11 13 14 10 10 12 12 13 13 14 15 14 13 14 17 11 14 13 12 13 18 15 19 13 14 19 20 12 11 18 17 15 17 13 12 16 14 13 15 11 11 9 13 12 10 4 9 12 7 15 7 8 6 8 
19 16 14 14 15 16 16 16 17 18 17 17 21 19 17 15 16 18 19 14 17 11 21 13 9 10 15 15 11 12 12 10 12 14 11 12 18 13 11 16 10 16 15 17 13 17 17 29 16 14 18 13 21 13 18 17 13 15 15 13 13 16 14 16 12 15 16 10 12 14 11 10 9 10 9 10 8 9 3 7 
15 9 14 16 10 12 15 13 16 18 17 19 15 18 17 15 17 17 15 17 16 18 18 16 13 12 13 14 16 9 8 10 10 16 10 16 19 14 13 10 13 14 16 16 15 12 13 15 19 16 17 18 17 13 21 17 11 14 16 15 10 14 14 14 14 14 15 11 9 7 7 9 10 8 6 11 6 4 5 8 
15 10 15 12 16 13 16 13 17 14 21 19 17 16 18 17 17 18 18 17 12 13 12 13 10 8 10 15 12 10 10 13 11 16 15 14 22 12 16 15 15 19 14 15 13 17 17 17 20 17 13 16 20 15 19 20 19 15 15 14 11 15 12 14 14 9 15 11 11 15 8 7 11 11 8 8 8 5 6 6 


