P2
80 60
176
22 21 20 15 13 16 18 16 14 15 16 12 12 12 16 13 14 12 13 10 16 15 10 13 10 14 8 9 13 10 13 12 12 11 10 10 7 8 7 5 5 8 9 11 12 14 12 14 12 14 13 15 18 22 25 23 24 26 20 22 21 22 20 18 17 21 16 14 12 19 15 16 24 16 18 15 14 15 13 12 
15 19 19 15 16 15 15 16 13 16 17 17 14 13 19 13 15 13 14 12 18 17 8 12 12 9 14 13 14 13 12 14 12 9 11 12 9 5 7 8 9 6 8 11 11 14 12 12 15 14 16 15 15 21 20 22 27 23 24 20 20 20 15 18 15 18 12 14 12 16 16 15 16 17 16 16 16 18 19 15 
17 19 19 17 14 15 16 16 15 12 19 17 13 15 18 15 13 14 14 14 19 18 12 13 11 9 14 14 8 13 12 14 14 12 10 9 10 6 12 10 10 6 6 8 9 11 12 16 14 16 15 13 17 23 24 19 21 21 24 21 19 20 15 15 18 19 16 14 15 13 19 18 16 15 18 20 16 16 12 21 
24 19 19 15 21 16 18 17 16 21 22 15 17 16 19 12 13 16 15 15 16 17 12 12 15 10 16 14 14 13 13 14 13 9 1 8 12 10 11 8 10 6 12 7 12 10 16 16 19 18 18 15 18 20 21 21 20 24 23 21 24 22 18 15 18 17 20 12 15 17 17 20 18 19 18 18 20 18 18 17 
24 20 23 21 20 22 16 16 13 17 17 14 18 17 21 18 15 15 12 15 14 16 14 14 15 14 16 11 11 11 13 10 14 9 8 10 9 7 13 6 10 6 10 14 12 13 15 14 19 18 19 17 19 20 22 21 24 19 23 24 25 21 21 24 21 21 21 18 17 21 20 19 18 19 15 21 15 16 16 16 
21 19 22 20 17 20 19 18 17 17 15 19 14 16 21 17 16 17 16 18 16 19 18 18 14 15 12 12 10 12 12 11 13 7 10 9 13 10 14 8 8 7 12 11 14 11 21 17 16 17 18 19 22 23 21 22 21 24 24 23 21 20 18 18 22 21 19 17 22 18 24 19 19 16 19 21 18 17 17 15 
26 20 21 17 20 19 17 16 19 18 19 19 16 16 18 13 15 14 17 19 18 16 15 15 16 14 13 14 13 14 10 9 13 9 11 11 10 9 8 8 10 8 8 13 10 17 18 17 19 15 16 18 21 23 22 22 24 27 29 22 23 19 18 19 19 21 17 19 21 19 16 19 18 17 19 20 18 13 17 17 
24 27 21 22 21 20 20 20 17 18 19 16 16 18 20 12 16 18 16 17 23 19 13 15 16 18 15 14 14 12 9 10 9 8 9 11 10 7 10 8 8 9 10 11 14 17 13 17 16 18 18 20 24 23 27 25 24 26 24 24 24 23 20 18 19 23 18 18 21 19 17 18 18 15 17 17 15 16 16 19 
25 27 29 23 21 19 19 20 18 18 23 18 17 17 15 13 17 19 17 17 17 18 18 16 16 17 13 10 14 14 14 11 9 11 11 11 12 10 11 8 8 8 8 12 13 13 13 14 18 16 21 17 21 26 21 24 24 21 23 24 24 21 21 17 21 22 24 17 19 20 20 17 20 16 17 15 14 14 17 19 
25 24 22 22 18 21 19 20 20 19 19 18 17 18 18 16 21 18 13 16 19 17 12 13 11 14 13 14 14 14 10 10 11 8 9 8 13 9 8 6 8 3 9 10 12 9 13 13 15 19 15 17 19 22 22 20 21 22 23 23 23 22 21 20 19 24 20 15 19 15 17 19 21 16 20 16 15 14 16 16 
25 21 26 21 20 22 23 19 23 18 21 23 15 17 17 15 13 15 17 15 15 15 13 11 14 12 14 15 12 14 13 9 11 11 7 10 11 6 9 8 7 5 8 9 9 14 14 15 18 16 16 17 19 20 22 23 21 23 26 23 22 23 19 21 19 21 23 20 14 21 18 17 17 22 16 17 17 18 14 15 
24 23 25 22 20 23 17 22 18 17 17 19 18 15 15 15 13 11 13 15 14 14 11 15 11 15 10 16 13 13 13 10 11 9 10 9 5 9 11 8 9 8 9 9 14 13 13 15 16 18 18 16 20 19 21 23 23 20 23 21 19 23 21 18 22 20 18 20 20 18 19 16 15 18 18 26 19 14 17 20 
26 23 27 25 22 18 19 14 17 18 20 17 16 14 15 12 14 13 12 13 16 13 11 14 10 12 10 12 10 13 13 11 13 10 8 7 8 2 8 4 7 4 11 11 14 12 15 14 18 17 18 16 20 19 19 21 20 25 22 20 22 21 23 20 19 20 19 18 15 18 14 17 17 16 21 24 17 18 13 19 
25 32 28 24 20 25 14 18 15 15 17 20 15 15 13 17 14 12 13 13 17 13 11 13 10 12 11 8 11 10 11 10 12 11 9 6 6 10 8 7 5 6 12 14 13 15 15 18 18 20 19 19 18 20 21 22 25 25 24 23 25 22 22 19 21 21 21 17 15 18 21 14 18 18 15 20 18 16 12 15 
19 27 26 19 15 19 16 19 15 16 14 13 13 13 15 13 16 14 12 12 13 12 8 14 13 13 10 9 10 12 11 9 11 10 9 6 7 4 5 7 6 7 11 12 10 14 13 15 18 19 17 18 20 19 23 23 26 36 23 25 22 22 18 22 24 22 22 18 19 16 17 18 19 18 18 16 16 18 17 14 
22 26 29 20 16 19 16 18 18 15 16 17 13 14 14 17 12 13 13 14 13 14 10 11 12 11 9 9 12 8 10 12 11 9 10 6 8 5 5 8 9 9 11 10 10 14 13 13 18 15 17 18 22 22 23 23 26 29 26 24 25 20 20 19 20 24 19 30 16 18 15 22 22 19 20 21 20 18 22 20 
27 27 28 22 21 17 19 19 15 14 16 16 14 13 19 16 15 15 15 15 15 7 12 14 15 13 11 8 10 12 10 12 10 11 12 9 8 5 7 8 5 10 12 11 11 13 13 14 15 15 18 18 21 23 22 23 24 26 25 23 24 21 18 21 19 22 20 19 19 19 17 20 30 19 14 20 14 17 19 21 
27 25 25 20 17 17 18 17 15 15 18 18 15 12 18 15 14 10 12 16 13 15 10 12 13 17 9 10 9 10 10 10 12 12 9 8 8 5 5 8 8 10 9 9 10 16 12 13 15 16 17 19 21 24 25 23 24 30 28 26 25 20 18 19 20 22 18 20 20 21 19 23 21 21 19 18 16 15 15 19 
25 26 25 23 23 21 17 16 10 16 17 18 17 14 16 13 14 12 14 19 15 16 16 13 14 13 13 8 11 12 11 13 12 14 9 12 12 7 10 11 7 9 10 13 14 12 12 14 15 15 15 18 25 24 25 23 26 27 27 26 24 21 18 20 21 27 20 21 20 20 21 22 20 18 19 21 18 18 16 19 
24 29 27 25 21 21 21 18 13 14 18 16 15 16 18 16 17 17 17 15 13 21 20 16 14 12 13 12 12 14 13 8 12 9 11 9 10 9 9 11 11 9 9 10 12 11 12 15 17 18 16 20 23 24 24 25 22 23 26 24 27 22 18 19 21 19 20 20 22 22 18 18 19 17 19 15 19 17 16 20 
23 27 26 24 23 22 18 15 12 15 19 22 16 17 16 16 14 12 13 14 13 14 15 15 14 14 10 8 11 12 13 10 8 7 7 7 10 4 8 5 9 11 11 10 11 12 12 14 17 19 16 19 23 23 26 18 25 23 24 25 26 20 21 23 20 22 21 19 21 21 20 20 24 20 19 19 15 18 16 21 
22 25 26 27 22 18 21 15 14 16 15 20 21 16 18 15 16 13 15 14 12 14 16 16 16 12 12 10 12 13 10 11 12 9 10 6 6 7 6 7 9 10 11 10 10 12 11 13 15 17 21 19 20 20 23 22 21 23 26 25 24 21 20 22 21 21 21 23 20 25 22 22 23 19 19 18 17 19 20 21 
25 23 25 27 24 20 19 18 11 16 15 22 17 18 18 13 14 15 17 11 13 16 12 12 12 13 12 12 10 12 10 11 12 9 7 6 6 6 5 7 8 7 10 11 7 12 11 14 16 19 19 21 23 23 23 21 21 21 25 25 29 26 21 21 20 28 21 22 21 21 21 23 24 19 19 21 16 17 20 23 
26 27 26 24 20 20 19 23 13 17 21 21 18 16 19 18 17 16 15 14 18 14 12 12 11 12 12 13 10 8 10 12 11 9 9 5 4 4 6 4 4 6 9 11 11 12 11 14 19 21 19 19 23 22 20 21 24 21 24 25 26 22 22 24 24 25 25 20 21 22 21 24 22 23 20 22 22 20 21 27 
24 28 26 19 20 19 18 19 15 19 18 20 17 16 18 15 17 17 16 15 16 16 14 11 13 13 11 12 7 9 10 10 8 10 6 4 7 3 3 6 8 7 10 13 15 8 13 16 19 20 16 18 21 26 25 21 23 23 27 23 25 26 24 20 24 23 26 23 26 24 24 23 23 24 21 19 25 19 25 26 
22 23 27 19 21 18 18 18 16 17 16 18 17 21 17 13 15 14 17 16 16 13 14 10 13 12 9 9 10 10 11 9 7 2 4 6 7 2 5 5 6 8 9 11 13 14 16 17 19 20 16 18 21 23 21 22 22 24 26 26 24 24 21 22 24 25 25 21 19 23 22 22 20 19 24 23 22 19 22 20 
25 25 26 24 21 22 19 19 16 17 19 19 15 15 19 16 15 16 13 16 15 16 21 16 14 13 16 11 8 8 10 7 11 10 7 3 3 0 3 6 8 7 11 11 12 15 13 20 19 18 18 19 18 23 20 24 23 24 24 26 28 27 24 22 24 26 26 24 20 22 21 22 22 21 20 18 23 19 22 17 
27 26 23 23 26 22 18 20 16 20 16 17 16 16 18 16 20 16 17 17 15 20 15 15 17 16 14 14 9 9 11 10 9 5 7 5 6 0 2 10 3 9 14 13 12 14 13 16 18 18 18 19 18 23 22 23 26 20 26 26 29 24 21 22 24 27 25 26 22 24 22 23 22 24 20 21 22 19 20 27 
26 26 25 21 23 23 21 21 18 17 18 16 16 16 18 10 18 15 15 18 12 13 14 14 15 14 13 14 11 11 9 9 10 7 3 2 4 4 6 10 12 14 13 15 9 16 16 15 16 18 17 18 22 22 20 20 25 23 25 24 29 23 19 24 25 27 24 26 22 24 30 24 20 20 25 23 24 19 19 21 
29 28 29 21 23 23 21 20 22 23 16 16 18 15 18 18 16 16 15 16 15 18 13 14 14 13 15 16 11 11 9 12 8 4 6 4 6 3 10 14 17 14 15 15 15 18 16 19 20 19 16 20 23 22 21 24 26 25 29 23 28 25 20 25 24 26 28 26 24 26 28 26 27 27 21 23 22 20 20 24 
29 26 29 19 24 22 21 20 18 22 18 20 15 16 20 17 18 16 13 15 15 17 10 20 15 17 12 11 13 10 13 9 9 9 11 3 6 10 18 21 21 20 18 24 19 22 15 21 21 22 17 22 23 25 24 26 29 25 26 28 27 27 24 25 28 25 25 26 22 23 24 23 23 26 22 23 22 22 20 27 
31 28 27 22 26 18 20 22 19 20 21 19 16 18 19 18 18 13 16 13 17 18 15 17 16 19 14 14 12 12 12 13 13 10 9 12 15 14 15 19 24 21 23 22 20 19 17 21 24 24 22 21 25 25 27 26 26 25 28 27 28 29 26 26 28 30 25 28 28 27 25 22 23 23 24 23 22 24 20 25 
26 27 27 24 23 21 21 20 19 17 19 18 15 14 18 15 16 17 12 17 15 16 15 17 17 18 13 14 11 12 12 12 14 11 16 12 15 14 16 17 22 21 25 24 17 17 18 17 20 22 20 22 22 25 23 27 24 25 23 27 28 27 23 24 25 27 27 28 30 26 27 24 22 22 25 25 22 23 24 22 
28 28 29 25 24 23 20 22 19 19 20 21 17 14 17 12 19 18 16 17 16 13 12 15 15 14 14 13 12 20 17 17 19 16 16 12 14 15 16 21 23 24 25 20 18 21 18 20 20 21 21 22 25 27 25 26 27 27 30 27 27 31 24 25 26 30 28 30 28 27 30 26 24 24 24 25 23 24 21 27 
26 28 31 26 21 21 21 22 20 18 22 18 13 14 15 14 18 15 17 18 16 16 16 13 17 15 14 13 11 19 19 18 14 13 16 16 18 18 19 21 20 27 19 18 19 22 20 22 20 21 23 25 28 26 27 26 28 29 28 31 28 27 28 26 30 29 28 26 28 27 29 24 29 27 22 27 21 19 24 18 
28 27 29 26 26 24 22 23 18 18 23 18 15 15 20 16 18 18 18 17 14 13 16 16 19 16 20 19 18 14 19 20 18 20 20 17 16 37 36 35 33 31 21 20 19 19 22 23 24 24 22 25 28 26 25 30 29 29 31 31 28 28 27 29 29 30 28 27 29 28 28 27 26 28 27 29 22 25 24 20 
26 30 28 25 24 25 26 19 19 20 22 19 15 17 18 16 19 19 18 17 17 14 11 14 17 19 16 16 18 17 20 18 20 12 10 13 23 58 54 52 48 42 32 23 22 21 25 28 24 25 24 27 29 31 29 33 35 31 33 32 30 27 27 30 31 35 29 27 32 30 29 30 28 27 28 26 26 25 21 26 
27 30 29 28 23 26 27 23 22 22 22 18 21 18 20 16 19 21 19 19 21 22 25 21 17 17 19 20 19 19 21 22 13 12 11 8 22 67 63 68 63 61 56 50 43 39 30 31 27 28 25 29 27 31 32 32 32 31 33 30 32 30 28 29 33 36 30 31 29 28 32 28 31 29 29 28 27 26 26 31 
28 31 31 28 25 27 31 30 28 27 23 21 19 19 21 18 17 20 19 23 24 26 21 19 20 21 20 19 18 16 16 13 11 9 7 8 24 72 71 72 68 71 69 69 65 63 55 49 40 35 38 33 32 32 34 34 33 34 33 33 32 31 31 31 33 33 32 31 29 31 29 30 29 30 31 29 27 28 29 33 
30 31 30 27 22 25 35 30 24 24 34 23 18 18 19 19 17 21 27 22 22 22 18 22 22 20 23 21 16 17 12 13 14 11 8 5 40 75 68 73 72 73 73 74 75 76 76 74 71 65 53 49 43 38 42 34 33 33 32 30 35 30 32 34 36 33 35 32 29 31 31 31 29 33 32 28 31 31 32 34 
42 50 43 37 26 41 32 23 22 22 24 19 18 24 21 19 22 20 24 18 24 21 21 23 24 23 21 17 15 10 10 12 12 12 10 12 40 72 71 69 74 79 74 77 77 78 77 81 81 81 79 72 64 62 55 48 40 37 32 31 37 34 34 33 33 32 35 30 36 31 33 32 29 33 31 33 32 29 37 35 
66 81 75 63 33 44 27 23 24 21 25 24 20 31 29 22 29 24 24 23 23 26 19 22 16 19 17 17 11 9 11 14 11 10 7 15 54 77 71 71 75 75 79 79 77 85 85 86 83 85 84 81 78 78 75 69 56 53 45 43 43 34 38 35 36 35 30 31 31 33 31 31 32 31 31 29 32 31 31 36 
109 113 108 87 50 50 26 22 21 24 29 24 26 28 23 19 22 18 27 27 22 23 17 16 17 14 13 11 11 11 12 15 15 10 12 17 58 76 76 71 75 76 78 79 82 84 89 88 89 89 87 86 83 82 87 81 81 74 72 65 55 50 42 42 37 34 33 32 31 30 33 33 28 31 32 29 31 31 34 33 
124 121 117 109 84 50 24 19 16 33 44 35 27 27 28 22 22 23 23 22 21 18 17 18 14 15 12 12 13 12 15 11 11 11 10 14 68 77 74 75 77 78 80 82 83 86 89 95 92 93 91 91 86 83 89 87 89 85 85 83 81 70 60 61 53 46 37 36 35 32 35 37 33 34 32 31 35 34 35 32 
122 126 123 128 94 40 26 22 28 40 45 37 24 25 31 28 25 21 22 19 22 15 15 16 17 15 14 13 12 11 13 14 13 11 11 18 78 78 76 78 79 77 81 81 84 89 90 94 95 92 94 94 90 86 94 90 92 91 87 92 88 87 78 81 76 71 62 51 49 41 38 40 38 33 32 34 36 34 37 36 
127 127 135 131 101 43 25 27 39 42 41 37 34 34 30 21 22 19 21 17 17 15 13 14 11 14 12 12 9 11 13 13 8 9 13 24 83 79 75 79 82 77 79 84 85 90 91 92 90 94 96 95 91 90 93 90 87 89 92 90 95 90 90 88 91 92 81 74 70 58 54 49 41 34 37 35 40 33 35 37 
145 153 160 150 105 57 30 37 42 44 41 43 26 23 24 24 19 18 17 19 18 16 14 13 11 14 14 10 9 8 11 9 10 10 10 30 83 77 75 77 81 80 85 83 82 87 90 93 95 92 91 95 94 94 94 92 92 96 99 94 101 95 94 94 96 101 97 91 90 81 82 75 58 50 49 38 43 36 36 42 
161 170 176 155 113 67 41 39 37 38 37 33 23 22 21 22 21 18 17 15 15 18 18 13 12 15 11 11 9 10 10 7 8 11 12 35 89 80 76 82 80 81 80 83 85 88 92 92 94 92 88 91 91 95 93 96 95 92 93 99 100 99 97 99 97 99 97 99 97 91 93 92 78 80 68 59 55 44 40 42 
159 164 168 146 103 76 40 33 24 25 28 19 21 23 20 19 17 16 17 16 16 14 20 16 14 11 9 8 10 11 11 13 13 11 14 45 94 84 78 81 81 82 82 83 86 92 92 89 95 94 93 94 93 96 97 99 102 95 97 99 100 97 96 99 101 99 101 98 96 97 98 95 92 93 88 84 75 70 61 45 
145 143 135 120 103 79 47 35 23 23 19 20 18 19 26 18 16 16 16 12 14 13 14 10 13 11 13 12 11 12 11 13 11 10 14 54 92 86 76 80 84 79 80 83 82 88 91 88 93 93 97 92 95 99 99 99 102 99 98 105 104 98 95 99 104 106 102 99 99 99 99 97 97 98 100 91 85 82 79 72 
105 109 111 101 98 80 64 47 29 29 23 20 16 20 18 20 21 17 17 14 13 12 13 15 10 14 16 14 14 8 13 11 12 12 23 64 94 81 81 78 85 80 86 87 84 90 92 93 95 96 97 97 99 99 101 104 104 103 101 104 104 97 96 102 101 101 104 101 101 101 98 99 98 98 97 96 89 85 83 84 
99 101 102 101 92 80 80 68 47 39 25 17 16 18 21 17 16 16 17 14 16 12 12 16 17 15 18 13 12 14 13 16 11 15 28 76 98 81 83 81 81 83 86 88 89 87 92 92 97 97 97 96 98 101 101 105 106 100 107 105 104 102 102 104 100 103 105 104 101 103 101 101 99 98 100 94 94 88 91 86 
86 95 91 90 86 86 81 72 64 52 39 24 16 21 21 15 14 16 14 15 15 15 14 20 19 19 18 18 20 17 18 20 15 17 27 85 96 89 82 79 84 85 85 87 85 89 95 93 96 100 102 99 99 104 106 104 106 106 114 106 108 101 100 106 103 110 107 103 99 104 102 105 102 102 95 95 93 89 87 92 
77 79 75 81 85 85 81 74 65 66 50 32 20 18 19 16 17 10 13 15 12 16 18 25 23 22 21 20 20 22 23 23 20 26 30 94 99 89 82 79 86 84 88 87 91 94 94 97 99 97 101 99 101 106 105 110 111 109 108 109 108 106 104 108 104 111 105 104 101 102 104 104 100 104 96 95 95 92 90 90 
70 72 75 77 74 75 75 70 67 64 63 40 27 14 20 14 14 16 13 12 16 13 21 23 22 25 25 24 22 21 24 27 24 25 38 106 96 86 85 84 86 87 88 92 93 93 97 97 103 99 100 104 99 104 109 108 109 109 109 112 112 106 108 111 109 111 106 108 106 102 105 110 97 100 97 97 92 93 94 97 
57 70 69 65 72 68 70 65 64 64 67 57 29 23 21 13 13 9 14 13 13 16 19 25 22 28 25 23 22 22 27 26 29 27 43 107 97 86 79 84 83 91 85 96 96 97 97 98 101 102 105 104 101 103 106 110 111 109 113 115 114 115 111 112 116 114 112 110 107 105 109 108 103 104 94 97 95 90 90 97 
60 69 67 68 64 68 65 63 62 67 68 64 48 23 21 7 17 9 13 18 16 17 19 19 24 24 22 23 22 21 25 31 32 32 51 117 98 88 85 88 92 92 88 91 100 97 101 105 104 104 107 102 106 105 108 109 110 105 112 118 118 116 118 114 114 114 112 114 108 111 110 107 106 104 102 97 95 95 90 94 
51 60 59 56 60 64 58 60 56 64 66 64 39 22 18 9 16 11 12 16 15 13 21 22 22 24 21 17 19 22 28 30 28 30 67 119 104 93 87 92 94 91 96 98 95 97 104 108 105 106 106 105 105 106 110 111 114 111 111 109 118 111 111 112 116 115 113 113 111 115 109 109 106 107 101 99 96 96 90 99 
49 57 53 56 56 62 63 65 59 60 64 58 34 16 20 10 13 8 15 14 14 16 19 22 22 21 18 18 20 20 23 30 24 32 84 127 105 93 95 96 102 96 108 100 104 104 106 107 109 106 108 104 101 110 114 110 113 113 113 112 113 114 111 117 116 115 114 110 114 113 112 110 109 105 102 98 104 94 97 96 
49 56 55 55 59 56 67 59 60 59 57 39 21 17 13 12 16 11 11 16 18 18 20 18 21 17 21 19 21 20 25 29 25 30 74 129 113 105 101 104 103 105 108 105 107 105 113 111 112 104 104 105 104 109 112 110 112 112 118 120 123 115 117 118 116 113 113 116 113 115 111 110 106 101 99 100 105 97 91 95 


