P2
80 60
44
30 25 28 26 24 24 25 27 26 29 27 28 28 27 25 26 26 27 24 23 30 26 26 28 26 27 24 26 26 26 28 26 29 30 27 27 26 30 25 30 25 29 30 29 29 29 29 26 26 26 27 29 32 34 31 35 35 34 36 31 26 26 27 27 22 24 18 18 20 20 20 20 22 21 18 16 15 16 22 17 
21 24 28 28 24 26 25 27 27 28 22 27 24 27 29 25 30 24 28 26 29 26 28 21 23 25 28 27 24 25 28 30 28 28 28 27 29 28 27 28 28 29 29 27 29 30 27 29 28 25 27 29 28 31 33 36 35 34 30 27 26 24 21 21 22 20 17 17 19 17 15 19 21 20 20 19 15 15 19 9 
28 31 26 26 26 25 27 27 28 25 24 28 26 28 28 27 24 27 27 27 28 27 24 28 23 27 27 28 27 30 29 30 28 30 30 27 29 30 30 29 30 29 29 26 28 30 31 31 30 31 30 28 27 30 31 32 33 33 32 29 26 27 24 27 25 22 18 20 20 19 24 21 18 22 21 22 15 16 27 15 
31 28 27 25 25 23 27 26 30 29 29 28 25 30 25 25 30 29 31 28 29 27 29 27 29 24 29 28 28 26 28 27 29 28 27 29 31 29 32 27 32 30 29 28 29 32 33 32 34 30 29 31 31 33 31 33 31 34 31 29 29 27 25 25 23 21 20 22 23 19 24 24 21 21 21 20 17 19 23 17 
33 29 28 29 28 29 27 26 27 29 29 26 26 29 30 31 28 29 28 30 26 26 30 30 31 27 31 26 29 27 28 26 27 26 29 30 30 32 32 25 28 31 29 28 28 31 31 32 31 31 30 30 30 32 33 33 29 29 27 28 30 27 24 27 24 20 20 21 19 22 22 20 22 23 21 21 15 18 20 12 
29 26 29 29 29 27 29 29 35 29 31 29 25 29 32 31 27 31 27 32 29 29 32 29 31 27 28 28 26 27 26 27 26 27 28 27 28 31 31 29 30 30 30 27 30 30 37 33 33 31 33 32 33 32 29 36 31 30 33 30 27 25 24 25 27 20 20 21 29 20 21 22 23 22 22 18 13 17 23 14 
35 25 29 28 29 28 28 29 33 28 28 32 29 30 32 29 34 28 31 28 29 32 30 31 29 32 27 27 28 26 28 25 26 28 29 29 32 30 33 29 28 30 29 29 31 33 32 32 34 33 32 33 34 34 28 37 33 39 38 31 30 25 26 28 28 24 23 26 25 25 21 22 24 22 20 20 16 17 25 21 
30 34 30 31 30 34 30 32 32 31 29 31 29 28 30 32 30 32 36 29 33 29 31 34 31 30 28 28 31 30 26 25 23 30 29 32 29 32 29 30 31 29 29 28 32 31 31 31 29 34 36 32 36 32 31 38 34 32 33 29 29 28 27 25 28 24 22 26 27 23 24 22 22 21 20 16 18 15 26 21 
28 33 32 31 29 30 32 31 30 29 29 30 29 30 29 28 31 29 33 31 27 27 30 30 30 29 31 26 30 31 31 24 25 30 26 30 31 32 31 25 28 26 28 26 31 33 29 29 29 33 34 32 32 34 30 35 30 30 32 30 28 26 27 25 28 22 24 22 24 21 21 21 20 20 16 15 12 15 20 12 
31 31 32 30 29 30 32 30 31 30 29 29 27 28 28 28 36 30 31 26 31 28 27 29 26 29 27 30 26 29 25 26 28 28 28 28 27 26 27 27 25 23 28 28 30 30 30 29 30 32 31 30 33 30 30 34 31 28 28 28 25 28 27 30 26 25 26 22 25 22 23 22 22 20 17 18 17 16 25 16 
31 28 31 28 32 31 36 31 31 30 30 30 27 28 30 27 30 27 33 26 30 27 28 27 26 27 27 28 30 28 30 27 26 27 25 29 30 30 28 28 29 26 26 25 29 31 28 30 28 31 31 28 31 29 27 34 34 29 30 26 25 26 25 28 25 22 25 24 21 21 20 22 21 22 18 23 17 18 24 19 
30 35 36 36 31 32 31 32 30 31 27 31 28 29 29 25 29 28 26 26 26 26 27 27 23 29 25 28 27 29 29 26 28 28 25 28 26 28 30 28 28 27 28 28 27 29 29 29 29 31 28 29 30 26 31 33 33 30 29 27 26 29 24 28 28 22 22 25 22 17 18 19 21 23 19 24 21 18 21 17 
32 33 36 34 31 30 29 27 31 30 25 30 28 26 27 27 24 26 26 25 25 26 28 27 24 25 28 29 25 26 27 27 28 31 26 28 29 26 28 27 26 29 28 28 32 30 33 29 31 31 29 29 28 28 31 33 31 33 28 26 27 26 28 27 27 20 23 21 19 21 13 16 20 20 22 23 14 20 21 15 
33 32 37 33 31 33 27 28 28 29 26 28 27 27 27 28 28 26 29 25 28 25 27 27 26 24 26 24 24 27 26 25 27 31 27 26 29 29 29 27 28 27 27 28 27 33 33 32 32 34 32 30 28 29 29 35 32 35 30 28 29 26 29 25 28 23 22 22 18 19 22 16 18 22 18 19 19 19 23 14 
29 36 35 30 29 27 27 28 30 28 27 27 26 29 26 26 28 27 28 25 26 24 28 29 26 26 24 24 28 26 27 26 25 28 25 26 29 26 29 28 26 29 29 28 29 32 28 32 30 32 31 27 28 30 29 36 35 44 32 29 27 26 25 26 27 24 21 22 19 20 19 17 22 22 21 19 15 16 25 12 
30 33 34 34 29 29 29 30 32 28 27 30 27 30 23 28 27 26 25 24 26 25 25 24 26 24 27 24 26 25 26 26 25 27 27 24 28 23 25 27 27 28 28 26 28 32 31 29 31 30 29 28 29 30 30 35 34 35 31 28 27 26 26 24 26 25 22 21 24 20 19 21 20 23 19 21 15 21 23 14 
32 34 35 32 32 26 31 29 29 30 28 28 24 27 25 29 27 29 25 24 25 26 27 27 25 25 24 26 28 25 26 26 27 28 30 28 26 27 28 28 27 28 30 26 26 31 31 28 28 28 29 29 27 28 28 32 34 36 33 29 29 28 24 28 26 24 25 21 24 20 24 23 31 23 22 21 16 21 22 16 
33 31 36 30 32 30 32 28 28 26 29 27 26 27 25 27 29 26 28 26 24 26 25 27 24 23 27 27 26 25 28 26 28 31 25 25 30 26 28 30 27 29 27 28 27 30 27 28 28 29 28 29 28 31 33 34 32 37 34 30 27 24 22 26 26 22 21 21 21 21 20 23 22 21 21 16 16 16 26 17 
33 33 33 33 29 31 28 25 25 25 25 28 26 28 24 28 27 25 27 26 24 24 26 25 25 23 28 24 27 23 25 25 30 28 27 28 30 24 29 31 30 27 22 26 26 31 25 27 27 24 26 29 31 27 30 35 33 33 31 27 30 26 24 25 25 25 20 24 23 23 23 22 20 18 16 19 17 17 18 11 
36 29 33 31 30 31 29 32 25 29 25 29 28 27 32 28 29 26 27 26 24 25 31 28 28 26 29 26 30 28 28 27 25 27 29 26 27 28 27 29 27 27 25 26 25 29 27 29 28 26 27 27 30 28 28 34 30 29 29 27 29 27 22 25 24 19 23 20 21 20 23 20 21 18 17 15 14 14 22 12 
29 32 33 32 33 31 30 27 28 27 29 30 27 33 30 26 27 27 26 23 24 27 28 28 30 26 26 25 27 28 29 29 27 27 27 26 28 25 29 27 27 31 28 26 26 27 30 26 27 28 26 28 28 29 31 29 29 26 28 27 25 26 23 25 24 22 19 25 23 22 21 20 18 22 16 14 16 12 22 17 
36 31 33 33 33 30 33 27 26 28 27 30 32 31 29 25 26 26 27 24 25 25 28 27 29 24 25 24 26 25 27 25 24 28 25 27 28 25 26 26 26 28 30 24 25 28 26 27 26 27 31 27 29 30 29 32 30 27 30 26 26 25 25 26 25 26 22 23 25 26 27 20 21 19 19 15 12 16 17 17 
32 32 31 36 30 30 30 30 27 26 25 30 30 32 27 25 26 26 27 25 24 25 28 25 25 24 25 24 26 24 24 25 25 23 24 26 28 26 26 26 24 26 26 25 30 25 25 26 25 28 29 26 26 27 28 32 26 29 28 27 28 29 24 23 24 24 22 25 21 23 22 22 24 20 15 17 15 15 24 14 
32 31 33 32 29 28 30 37 26 28 28 32 27 30 28 29 29 27 26 24 28 27 26 25 26 25 25 25 25 24 25 25 24 26 27 27 25 28 23 25 24 28 25 26 24 26 25 27 28 31 29 25 31 31 28 31 29 29 28 25 27 25 25 28 24 25 25 23 22 23 24 21 22 23 16 21 17 16 25 16 
32 33 32 31 28 29 29 31 28 31 29 30 29 30 29 28 29 30 25 26 28 25 25 25 27 27 27 26 27 25 25 24 26 24 27 24 27 23 26 26 27 25 24 24 29 27 24 27 29 27 29 25 23 31 28 28 29 30 27 27 24 24 25 22 26 23 25 23 25 22 26 22 21 23 18 15 15 16 25 20 
33 34 34 29 31 32 29 31 28 29 24 32 29 28 32 30 30 28 30 29 26 26 25 28 28 29 27 27 26 26 24 24 26 25 23 25 25 23 23 27 25 26 25 26 28 30 29 30 28 26 30 23 27 33 28 30 27 29 28 27 25 26 24 23 26 26 24 18 23 22 25 24 19 24 21 20 13 18 25 17 
31 29 30 29 33 33 30 32 28 28 25 26 28 28 28 29 27 27 28 28 26 25 32 28 26 29 28 24 23 27 27 20 24 26 23 22 27 26 25 23 25 26 24 25 28 31 29 31 31 28 27 26 26 27 25 31 29 27 27 29 26 25 25 24 25 24 23 25 21 23 22 23 21 19 18 16 17 14 20 17 
33 33 34 29 31 29 30 30 25 27 24 28 26 26 27 29 26 26 27 28 25 29 25 30 29 30 28 27 24 26 27 24 24 24 22 25 24 25 27 25 23 23 27 25 25 30 29 26 26 27 28 23 26 28 27 30 28 26 28 26 27 25 23 24 25 20 25 26 21 23 21 21 18 21 20 18 14 15 26 16 
33 34 30 31 26 30 31 34 26 27 26 28 28 28 28 27 27 27 28 29 30 25 28 30 30 26 27 27 26 25 24 24 26 25 22 24 26 22 29 27 26 23 26 25 26 28 27 27 27 29 26 20 24 27 25 30 28 24 24 23 24 24 23 26 26 23 23 24 23 22 23 22 18 21 20 18 16 15 19 12 
34 33 35 33 30 35 30 29 35 30 27 28 26 32 29 25 28 26 25 27 27 25 27 29 28 28 26 28 25 22 25 26 25 26 28 25 24 28 25 26 25 26 28 27 27 26 28 28 27 28 29 25 26 27 27 31 27 27 30 26 24 24 23 27 27 23 26 21 20 22 25 23 21 23 18 20 15 13 18 15 
35 36 34 29 30 29 30 31 31 28 26 31 26 26 25 26 28 27 25 26 24 26 29 27 24 28 29 28 27 25 26 24 25 27 25 25 23 25 25 24 24 26 28 25 26 32 27 31 27 28 26 23 30 28 26 30 25 26 27 26 22 24 27 26 23 21 23 25 22 19 29 26 23 21 17 16 13 14 18 11 
32 36 35 33 31 32 31 33 29 27 28 32 26 29 26 30 31 26 27 25 24 28 26 27 27 31 29 28 28 26 25 26 25 26 26 24 26 23 24 25 26 27 29 27 26 30 26 28 27 29 28 27 31 28 28 30 31 29 26 21 24 25 25 25 24 21 25 24 22 21 27 22 22 21 18 19 14 18 25 14 
34 31 34 32 33 29 31 32 28 26 26 28 30 30 29 28 26 27 26 28 25 29 26 30 31 29 27 27 24 28 27 26 24 23 27 22 27 22 25 24 25 24 28 26 27 31 28 26 28 29 28 27 30 29 27 31 27 27 28 24 26 21 26 25 23 20 26 30 26 23 23 20 22 19 16 17 16 14 20 16 
26 31 32 35 32 26 29 31 29 28 25 31 25 26 27 28 28 28 25 27 28 26 30 29 30 27 28 26 26 29 26 24 23 24 25 23 24 24 27 27 25 25 28 28 30 31 27 30 30 26 25 24 28 27 26 28 30 26 26 25 24 23 23 24 25 27 23 22 24 20 24 19 20 16 17 17 15 18 19 13 
32 33 34 31 30 30 28 32 29 31 25 30 27 29 26 26 28 29 27 29 26 26 26 29 30 28 28 27 28 28 27 27 24 25 25 24 29 25 27 26 24 27 26 26 29 30 28 25 28 28 26 28 27 30 28 30 30 28 26 26 22 22 24 25 24 23 26 24 24 21 23 22 17 18 15 17 16 13 16 10 
33 34 34 31 34 32 29 30 29 30 29 31 27 29 29 29 28 31 27 29 29 26 25 28 29 25 29 24 27 25 27 24 24 24 27 25 25 26 25 29 25 23 26 23 27 28 30 29 29 25 27 28 29 25 27 32 28 27 24 26 22 24 21 25 25 22 23 22 23 22 20 18 18 19 16 18 12 19 21 12 
31 27 31 31 30 30 31 31 31 28 30 30 24 27 28 25 29 30 28 27 28 25 27 25 26 25 25 25 25 28 26 25 25 24 25 23 28 26 26 20 26 25 22 25 24 26 24 28 27 27 26 28 28 28 29 31 32 27 28 24 22 22 21 24 25 22 22 22 26 22 21 16 19 21 16 18 15 15 19 13 
38 34 31 30 31 34 31 30 30 28 31 31 32 26 29 27 29 31 29 27 30 27 28 29 31 23 26 22 22 25 27 26 27 26 26 24 26 24 24 27 24 24 26 26 28 27 27 27 28 27 26 27 30 30 28 30 31 25 28 25 22 22 23 22 23 24 22 21 21 20 18 18 17 16 15 15 11 16 19 13 
32 33 40 33 30 31 30 33 29 30 29 31 31 28 24 28 27 30 28 28 24 29 26 29 27 28 25 27 24 25 27 23 26 27 26 24 25 25 24 25 25 26 28 25 27 28 26 27 27 27 30 25 29 29 30 28 28 25 25 26 21 22 22 22 23 21 22 19 20 20 20 14 12 16 17 17 14 19 23 15 
32 31 33 36 31 28 29 33 33 32 36 32 30 28 27 29 30 26 28 27 25 29 27 31 30 30 30 29 25 27 25 24 25 28 26 22 26 27 27 27 25 24 29 25 24 30 28 28 28 28 30 29 32 31 29 30 27 25 27 25 24 22 22 23 25 24 21 18 19 22 21 19 15 16 18 17 16 16 25 19 
36 34 33 31 32 31 28 31 30 29 33 30 28 30 27 29 27 27 30 28 28 26 26 28 27 30 31 25 27 23 24 22 25 29 27 24 24 23 25 25 25 27 28 25 23 30 28 28 28 29 30 29 31 35 34 32 30 29 26 22 22 23 23 23 25 20 22 18 19 18 21 19 14 19 17 17 18 16 28 20 
30 31 35 34 30 31 30 31 33 29 27 30 29 31 29 30 28 27 27 27 25 25 28 30 27 29 28 28 25 25 26 25 25 27 22 25 25 26 24 25 25 26 27 26 27 29 29 32 30 29 28 25 28 28 28 33 30 28 26 25 22 22 22 26 24 21 20 18 20 20 21 15 19 15 18 14 15 13 20 13 
34 30 39 28 29 27 30 30 28 30 27 29 31 28 27 28 28 28 27 26 29 29 27 29 29 27 25 29 27 25 25 24 26 26 26 28 26 27 27 26 24 22 25 24 25 26 31 30 32 29 28 25 26 27 26 29 29 24 24 27 26 26 27 28 25 17 19 17 20 18 20 16 14 15 11 16 16 12 22 14 
31 31 30 32 28 30 27 28 27 26 27 30 27 29 30 26 27 25 27 26 25 28 32 30 26 27 26 26 27 26 27 23 26 25 26 25 24 25 27 26 25 22 26 24 26 30 26 36 29 28 32 27 25 25 28 28 27 25 26 25 24 21 20 25 20 20 17 19 19 17 19 17 17 17 12 14 12 12 18 18 
31 29 28 26 27 26 27 28 27 31 28 29 29 27 30 27 29 25 26 26 26 23 25 28 25 28 27 25 23 24 27 23 22 26 23 25 26 26 24 25 24 23 23 25 29 29 30 32 29 27 27 27 27 24 29 25 24 25 24 23 22 24 18 23 19 18 22 19 17 19 19 15 16 16 13 16 14 12 15 12 
31 28 31 28 31 24 26 29 27 27 20 29 26 31 32 28 28 27 28 28 25 25 24 26 26 24 24 26 24 27 24 22 24 24 26 26 23 23 25 23 21 22 25 23 24 29 28 29 27 29 32 25 28 26 27 27 28 25 22 23 20 22 23 21 20 20 20 21 20 16 18 13 15 16 20 17 10 15 18 18 
29 28 30 28 25 28 29 27 26 27 25 29 26 29 26 28 28 28 27 26 28 29 27 27 27 28 28 24 26 23 24 20 25 24 23 24 27 26 23 24 24 24 25 20 24 30 27 28 30 27 26 27 26 25 27 30 25 26 25 23 22 23 23 20 21 19 20 19 18 17 17 17 21 18 13 8 13 14 20 9 
30 29 27 29 24 29 27 30 27 25 25 27 29 28 27 26 27 27 26 24 25 26 28 27 24 27 25 23 26 26 24 23 26 25 21 25 24 26 25 27 23 22 25 23 27 27 32 26 26 24 26 24 25 25 26 31 27 27 25 22 22 21 20 24 19 19 18 22 18 18 18 15 15 17 13 11 5 8 14 7 
31 30 29 25 28 27 25 25 27 23 24 29 26 28 27 26 26 28 27 25 28 27 33 28 25 24 24 23 23 22 24 23 21 23 24 24 22 26 21 25 23 23 22 24 28 29 30 27 25 23 27 24 24 26 27 30 30 23 24 24 22 23 20 24 20 17 18 18 15 14 16 14 16 17 15 11 4 11 14 5 
29 31 27 27 27 27 29 24 26 25 25 26 27 26 32 29 24 23 26 25 23 25 27 27 26 26 23 23 21 22 24 24 25 23 23 27 24 25 26 24 22 23 25 24 26 29 27 25 23 24 29 24 26 28 28 29 25 24 26 25 21 24 21 18 19 19 15 18 14 12 15 15 15 18 11 11 6 11 14 7 
29 29 29 29 30 29 29 28 27 27 26 25 24 28 27 24 26 28 28 25 27 27 24 27 26 25 25 23 26 25 24 22 23 25 22 24 24 24 26 26 25 21 25 23 26 27 25 26 27 24 26 26 27 29 29 29 24 26 23 23 24 20 20 23 20 16 18 16 17 14 16 17 14 17 11 13 4 13 13 4 
28 27 32 28 28 26 28 24 25 22 25 29 27 27 26 28 26 28 27 27 29 24 25 29 26 25 24 22 25 24 25 24 21 25 28 25 23 23 26 24 21 23 24 24 24 25 26 26 25 26 23 24 25 28 27 28 31 27 26 25 22 20 22 22 19 17 17 20 14 16 14 14 14 15 11 13 7 5 10 5 
32 23 31 31 25 28 26 29 23 27 26 30 26 26 27 27 27 25 29 26 26 26 28 29 29 28 24 26 22 24 24 25 22 24 24 24 22 25 22 23 25 25 24 22 22 25 29 26 27 28 27 23 23 28 29 27 28 29 26 23 22 20 21 19 18 15 14 13 11 14 14 17 13 14 7 7 3 7 13 4 
30 26 26 25 33 30 28 27 23 25 24 26 27 30 26 28 28 27 25 26 27 27 30 31 29 26 26 27 25 24 24 27 25 27 23 24 24 24 23 22 23 21 25 21 25 24 27 27 28 26 27 22 23 27 27 32 31 26 24 24 24 20 17 19 17 13 16 15 18 16 17 15 14 13 11 11 9 3 13 2 
26 22 27 26 27 30 27 27 28 25 27 29 26 30 28 25 28 25 25 24 25 25 29 30 27 29 29 25 25 25 23 22 23 24 24 22 25 25 24 25 22 21 20 24 23 22 25 25 24 24 26 24 25 29 27 28 25 25 23 23 20 17 21 20 17 12 11 14 18 14 18 20 13 6 8 8 7 7 10 6 
28 24 27 30 29 25 26 27 28 30 29 33 31 34 34 27 27 27 28 26 25 25 28 28 25 26 28 26 26 25 25 24 24 22 23 22 22 22 21 22 23 24 25 26 25 24 25 28 25 25 28 17 23 23 25 25 24 26 25 23 19 18 18 19 21 11 20 16 18 13 20 15 10 7 10 13 7 5 7 5 
25 26 31 32 34 27 30 29 26 29 25 30 40 30 29 26 28 25 27 29 27 27 28 27 26 27 24 26 25 24 22 20 24 26 22 22 23 23 23 21 25 23 25 22 26 27 28 29 27 26 26 22 25 27 25 25 27 26 23 21 23 17 22 19 18 15 17 16 14 16 17 16 12 9 9 7 5 6 10 5 
27 29 24 29 31 26 27 28 29 30 29 34 34 31 29 30 26 25 27 27 27 26 28 25 24 24 23 23 25 25 24 22 26 24 22 23 23 26 26 26 24 24 24 25 26 25 28 36 28 27 25 23 27 23 24 28 26 26 25 20 24 21 18 19 21 14 12 11 14 15 17 14 14 13 7 7 4 6 6 3 
29 27 25 31 34 24 30 31 28 28 26 32 30 29 26 23 27 28 27 24 26 25 29 29 24 24 21 26 26 21 22 21 23 26 25 25 24 23 23 24 24 26 33 22 25 29 33 29 25 27 24 28 26 27 30 28 24 25 20 22 20 20 16 18 21 16 15 14 15 14 11 14 12 12 7 8 5 5 6 4 
32 26 27 25 29 25 25 23 25 27 21 28 29 26 26 25 26 24 26 24 25 23 25 27 22 22 21 24 24 22 23 21 21 24 25 25 27 27 22 23 22 26 23 22 28 27 29 28 25 23 24 20 24 26 20 22 21 22 21 19 16 13 12 15 11 13 11 12 9 8 11 10 7 5 4 5 8 4 3 0 


