P2
80 60
291
154 153 151 155 152 151 147 144 150 150 144 147 141 141 129 82 58 75 101 111 105 115 120 120 119 118 121 122 123 122 123 125 125 127 127 125 116 107 118 124 123 123 130 136 135 137 140 136 140 138 136 139 137 141 140 140 142 143 145 139 139 135 135 132 129 128 120 126 133 139 143 139 139 141 144 145 143 147 144 142 
153 152 152 153 149 148 146 151 145 149 145 146 145 139 130 68 51 64 100 109 105 111 120 121 116 120 128 124 126 121 123 126 123 127 126 127 114 110 119 127 122 125 133 136 136 140 140 139 138 141 141 140 137 140 145 140 144 142 141 136 143 134 133 130 131 126 126 129 133 135 142 139 142 145 145 146 147 143 139 143 
149 155 153 152 155 157 147 147 148 149 145 147 147 138 124 57 37 55 99 111 104 114 119 123 122 119 127 122 124 125 125 127 120 127 125 127 114 109 121 127 124 124 132 138 138 140 140 142 139 139 142 141 137 142 140 138 142 141 140 136 139 137 133 133 130 129 130 135 135 141 141 142 142 142 145 142 146 152 149 145 
149 156 152 149 151 153 145 147 150 148 150 146 144 133 113 47 31 49 93 104 103 122 123 121 122 120 123 123 122 119 125 129 123 123 127 123 113 107 120 128 122 124 136 137 138 140 141 140 142 140 139 137 138 141 143 140 138 140 142 138 143 136 134 131 131 131 128 128 139 141 142 146 142 144 143 146 148 148 146 147 
154 155 148 149 147 148 148 147 148 147 145 146 141 133 109 40 26 46 82 103 107 117 124 128 125 117 126 122 121 120 128 127 123 123 123 127 111 113 125 127 120 125 133 139 139 138 143 139 139 138 140 138 142 143 140 141 139 138 141 137 140 137 134 134 133 135 133 131 137 141 142 144 141 143 146 144 145 148 142 142 
153 155 147 152 147 145 145 144 149 146 147 145 138 130 104 35 26 56 79 99 105 121 123 125 129 120 125 124 121 123 129 129 124 122 122 123 112 111 123 125 119 124 138 137 137 139 145 142 141 143 143 141 140 143 141 142 140 140 142 140 139 134 132 133 131 134 132 139 147 140 140 141 141 142 144 145 147 150 147 146 
151 153 150 150 147 148 141 143 145 150 149 143 140 135 100 31 35 57 82 95 104 119 124 124 120 122 126 126 121 122 124 130 123 123 123 122 111 113 123 126 122 127 138 137 138 144 142 144 138 139 143 142 140 142 143 141 141 146 141 139 138 135 134 131 131 133 134 138 140 142 138 140 142 143 147 146 148 145 142 141 
151 157 153 150 152 149 142 144 146 149 148 145 139 130 93 34 34 65 78 99 106 115 121 121 119 123 123 125 120 119 121 119 121 123 122 125 108 116 122 125 121 126 134 139 138 143 144 140 138 141 143 141 144 141 142 145 141 142 142 140 142 135 135 130 131 136 135 138 140 140 147 142 140 145 145 145 146 151 143 141 
160 158 156 150 147 145 143 147 149 150 144 144 141 128 83 29 34 66 81 94 106 117 116 121 121 121 122 120 124 123 124 122 121 124 123 121 106 115 120 123 121 124 135 140 137 140 140 139 139 141 143 139 142 145 141 143 140 141 139 139 137 138 136 133 130 133 134 134 141 143 140 140 144 144 143 143 145 143 141 144 
152 155 153 153 146 145 144 150 152 144 141 144 139 125 77 28 34 58 79 91 99 114 115 115 115 118 121 120 121 122 118 122 122 122 123 116 109 116 121 122 118 124 136 135 140 141 136 140 140 141 143 137 142 142 144 139 142 141 139 142 137 139 140 132 132 135 134 135 138 141 143 144 143 146 142 139 148 148 141 147 
150 152 150 151 145 145 147 145 149 147 143 140 130 118 69 14 14 38 65 85 99 106 108 112 110 113 117 119 121 117 116 119 120 121 121 118 105 116 121 120 118 126 135 134 137 138 136 137 138 139 140 141 140 143 141 143 138 141 143 136 138 135 133 131 129 133 135 137 138 136 137 140 143 143 139 144 146 146 145 144 
154 153 152 149 146 141 143 147 148 142 142 139 135 114 59 7 0 29 47 76 94 103 104 111 104 111 115 117 119 119 121 120 120 123 121 114 103 118 121 119 116 122 135 135 137 137 141 138 137 139 141 141 140 141 140 140 139 140 139 137 140 136 134 130 128 132 132 138 139 138 140 139 139 145 143 147 147 142 141 141 
152 151 148 154 143 138 144 145 144 147 142 143 135 114 54 5 11 26 52 78 93 99 101 107 106 104 113 116 117 118 123 121 120 125 116 112 103 113 119 120 117 126 135 139 143 140 140 137 137 137 142 139 138 139 140 140 142 140 138 136 141 135 137 129 130 132 135 136 138 138 130 140 139 144 146 147 148 147 142 140 
146 153 150 148 145 142 136 145 148 145 147 142 135 110 49 12 7 28 57 78 86 96 96 103 103 102 111 115 111 117 120 121 121 124 120 110 104 119 119 117 117 129 136 137 137 141 139 140 141 143 141 142 138 140 139 142 141 141 142 141 138 137 140 131 134 134 135 138 137 137 138 139 139 145 142 144 147 147 144 139 
149 153 147 145 141 138 131 147 150 144 143 142 137 105 45 5 10 31 61 68 79 86 93 100 97 100 110 113 116 116 117 118 117 122 115 113 104 117 118 116 116 128 135 135 134 140 140 140 139 141 141 141 139 139 141 142 145 151 144 140 137 137 136 130 133 133 137 136 137 138 142 143 141 144 143 143 146 147 144 143 
150 152 145 147 137 129 126 141 154 144 146 140 138 111 47 9 13 27 51 68 76 84 88 97 96 100 116 121 124 122 117 120 120 119 117 108 105 120 114 111 116 130 135 133 135 135 142 140 140 141 143 141 141 142 141 143 141 146 145 138 138 136 133 130 132 138 136 136 140 140 143 143 144 144 143 141 146 148 145 144 
152 151 144 141 137 126 128 148 147 144 143 140 132 103 34 7 12 27 51 65 75 74 85 90 94 99 125 128 127 121 117 118 117 122 118 108 104 121 117 112 116 128 135 135 134 140 140 136 135 139 140 138 139 143 144 142 144 144 140 140 136 132 135 129 131 134 135 139 141 142 141 148 147 142 143 141 143 148 147 144 
150 150 143 145 130 117 126 139 145 144 142 142 136 102 33 7 8 25 49 71 72 79 88 89 94 99 119 124 129 120 117 115 121 122 116 105 107 126 116 115 118 133 132 135 136 140 136 135 137 138 141 139 139 143 144 140 141 145 145 141 134 135 133 129 134 136 132 141 142 142 143 146 142 146 146 142 149 146 144 141 
147 150 141 141 121 113 116 134 145 143 139 141 133 99 30 1 9 32 53 70 72 83 89 94 95 103 122 125 126 114 113 117 123 122 116 107 110 122 121 117 121 133 135 134 135 137 137 136 135 135 140 140 140 142 140 140 141 141 142 142 137 136 134 130 135 136 134 138 142 144 144 146 141 145 146 141 145 148 144 144 
147 148 138 136 122 116 120 137 146 141 142 139 130 94 21 4 9 27 56 73 74 80 86 100 109 114 126 130 126 121 121 116 117 120 115 107 113 122 119 114 123 134 135 133 134 136 137 136 138 139 139 139 139 138 142 141 138 139 139 137 137 133 135 130 132 134 134 137 142 142 144 144 145 143 140 141 143 145 148 144 
144 146 136 139 130 122 122 133 144 143 141 137 130 92 28 1 10 30 54 70 73 76 87 109 111 112 117 124 122 127 133 120 114 120 114 104 112 123 118 116 120 137 133 133 134 138 137 137 140 140 140 141 142 139 142 138 142 139 140 139 137 134 135 131 130 133 135 137 143 142 147 145 142 144 144 142 143 146 148 143 
145 145 136 137 124 120 125 135 140 142 141 139 127 89 23 2 14 29 57 69 74 79 89 102 107 108 116 118 118 124 131 121 116 116 111 102 114 116 116 113 125 135 135 133 133 135 135 139 139 140 139 139 139 143 144 139 139 139 142 137 137 136 135 133 134 136 134 137 144 145 144 147 142 143 145 145 148 150 148 148 
144 148 134 137 123 115 122 130 137 139 139 142 120 90 21 8 15 34 57 73 70 78 90 97 101 106 112 115 117 123 125 123 115 115 107 100 111 118 115 116 123 132 134 134 131 138 137 136 137 140 141 139 142 142 143 139 139 141 141 136 138 135 135 129 135 137 134 138 141 142 143 146 146 144 143 145 148 150 146 145 
145 140 130 126 109 113 116 133 138 141 139 135 109 75 25 17 21 36 60 71 73 79 98 105 100 104 111 118 120 121 124 119 113 118 108 99 113 119 114 114 121 135 133 136 136 137 139 137 138 141 142 138 139 141 142 137 143 139 139 138 134 135 136 132 136 137 140 141 145 144 144 145 145 143 145 148 146 149 148 147 
147 139 128 119 104 107 119 135 140 137 136 133 107 74 29 22 29 40 61 72 72 83 103 110 106 104 111 112 117 119 125 115 108 110 102 98 108 117 110 114 130 129 135 134 133 135 137 140 139 141 138 140 137 141 140 137 141 139 139 140 140 135 135 126 136 138 140 139 144 146 146 146 144 146 142 147 148 146 152 148 
141 137 131 118 99 104 115 135 135 136 138 129 100 73 33 30 33 44 65 71 72 76 95 105 107 108 113 113 114 116 125 115 108 109 100 98 113 120 110 113 125 130 134 135 135 139 141 140 137 139 138 136 138 140 139 137 137 139 141 140 137 137 131 133 135 138 139 140 141 141 145 143 144 147 148 146 147 148 149 150 
144 129 125 119 102 110 127 132 131 134 135 127 99 65 29 33 34 43 60 71 71 80 88 97 104 104 113 111 114 112 108 110 110 108 100 97 109 116 107 112 125 132 135 134 137 140 138 139 137 138 136 137 137 139 139 140 140 136 138 135 139 130 131 131 135 140 139 139 140 143 143 144 144 143 145 144 149 146 149 145 
140 127 123 122 104 110 119 128 133 132 134 126 92 66 30 32 40 45 57 69 75 78 81 96 99 102 110 109 110 105 105 104 108 107 97 99 107 114 108 112 123 133 135 134 134 139 139 136 136 138 141 142 136 138 139 137 138 136 136 134 139 132 131 134 137 140 138 143 145 150 144 143 144 147 145 147 148 148 146 148 
138 126 116 118 108 107 95 113 124 123 125 120 91 64 30 39 37 41 58 67 66 72 78 93 95 98 104 105 108 107 102 103 107 110 95 98 105 113 109 113 124 132 136 136 136 138 140 138 138 138 139 139 138 139 139 136 140 135 138 136 137 131 131 135 135 141 139 142 145 147 146 146 144 148 148 147 151 151 146 144 
143 121 118 110 70 77 77 84 98 95 86 89 82 64 25 36 41 43 56 63 67 74 79 89 93 92 102 98 99 101 100 107 104 103 92 97 110 112 105 111 126 130 134 136 134 138 138 136 136 139 141 141 140 139 137 133 139 137 138 135 135 132 133 133 137 137 141 143 142 147 147 147 144 147 150 152 146 150 145 148 
141 123 111 102 61 64 67 75 79 73 67 76 80 53 24 35 41 43 50 60 62 67 77 92 90 90 96 90 92 99 99 102 102 103 93 101 106 109 100 107 126 132 136 136 138 139 138 138 139 140 139 140 139 138 140 136 139 136 136 136 135 131 134 137 140 140 140 146 149 145 148 148 144 149 146 148 148 150 149 148 
146 123 114 102 69 58 64 69 73 72 63 72 78 50 20 30 40 44 53 61 63 68 80 91 91 87 92 95 97 97 98 103 104 100 90 94 103 101 96 111 126 132 135 140 138 139 139 139 141 142 143 140 141 142 141 140 138 140 139 134 136 135 141 135 141 144 142 146 150 149 151 149 146 147 147 149 151 153 150 148 
138 115 109 99 54 52 60 64 67 66 60 70 71 36 9 20 34 43 56 60 64 67 77 91 86 98 104 102 100 106 110 106 106 103 91 103 101 99 93 106 124 129 138 138 139 145 137 141 142 144 140 141 141 138 141 141 140 139 139 142 149 143 146 147 144 145 144 149 150 151 153 146 149 150 151 149 150 153 151 147 
133 112 104 93 52 49 49 54 58 59 49 65 65 25 7 24 39 42 54 62 60 64 72 82 99 133 144 139 137 143 141 139 135 126 104 94 96 92 86 104 123 131 136 138 140 151 170 163 146 146 144 142 142 142 139 139 142 139 144 146 164 167 159 151 148 148 147 151 150 152 150 153 149 151 150 151 150 153 152 147 
128 108 104 97 52 37 39 42 49 46 49 61 57 26 8 41 43 45 57 61 63 65 72 81 125 137 147 143 146 149 151 150 147 143 141 105 95 88 90 103 122 131 135 135 138 178 227 214 157 147 146 146 144 143 146 142 145 145 144 158 184 191 193 185 175 163 156 154 157 156 153 153 158 154 149 149 152 154 151 149 
134 104 102 99 50 36 37 40 39 41 42 53 51 30 14 35 45 49 52 54 52 57 64 108 138 139 149 149 149 150 153 152 153 150 147 107 92 88 84 100 122 127 133 136 141 182 248 245 159 159 151 147 145 145 145 144 142 141 143 154 183 196 202 205 206 207 198 187 175 167 161 158 158 156 152 151 154 153 152 156 
138 102 95 100 56 36 33 44 42 44 48 47 40 25 19 42 47 49 51 51 54 60 72 128 139 143 147 149 153 155 156 155 153 151 152 126 90 85 83 97 120 127 130 136 140 171 215 214 165 154 151 145 144 143 145 140 139 133 140 157 195 196 204 208 213 220 213 218 208 191 176 165 163 160 157 157 157 154 155 154 
132 100 94 95 53 28 28 29 37 36 35 38 41 54 60 64 44 55 55 55 54 66 105 140 141 143 149 150 149 152 156 153 153 156 153 141 92 84 82 96 121 128 131 134 142 174 188 192 170 151 144 141 141 143 142 141 144 138 141 168 193 199 205 211 216 221 217 215 215 200 193 187 183 171 166 157 156 156 157 154 
125 94 94 93 58 27 24 33 27 24 26 30 55 73 85 80 57 52 51 51 53 77 132 143 149 150 151 149 151 152 153 156 156 154 154 148 111 82 83 98 118 124 131 136 149 170 176 179 182 173 146 148 145 144 141 141 140 139 142 177 197 200 207 215 218 223 224 218 217 203 196 192 198 204 189 180 168 162 163 156 
130 101 89 93 64 38 36 38 34 33 37 49 68 72 87 79 57 49 51 51 68 120 146 152 149 148 154 153 153 155 153 157 159 157 151 151 135 90 81 97 116 123 127 136 149 163 171 174 176 169 147 142 143 142 145 143 141 137 141 184 200 204 214 219 222 227 224 224 214 203 198 199 198 209 205 208 203 187 181 166 
127 93 84 96 66 50 42 47 46 39 47 57 61 78 83 76 57 58 61 63 108 141 150 153 148 154 158 154 152 154 156 158 158 159 150 154 147 118 87 102 121 125 130 135 145 154 156 155 150 150 143 144 142 144 142 145 146 142 147 197 206 208 216 221 230 233 230 224 221 203 199 200 201 211 212 214 220 216 209 187 
128 105 89 90 78 72 80 84 76 73 76 84 79 85 88 80 77 77 79 105 133 148 148 146 146 152 158 155 153 151 154 157 160 161 148 153 154 144 108 105 119 130 134 137 142 148 148 146 144 146 142 143 139 141 148 146 149 151 165 206 210 211 222 221 232 232 227 226 219 206 202 201 207 215 214 214 221 216 210 199 
129 107 98 97 88 96 102 98 101 103 102 100 109 101 108 109 107 102 108 131 141 149 147 132 136 151 159 153 155 159 159 160 157 154 138 143 149 151 142 118 125 130 133 134 139 142 142 143 141 142 144 141 139 141 147 150 152 157 176 218 220 221 222 225 233 233 233 228 220 206 204 207 212 213 214 217 216 215 213 206 
115 107 101 104 97 105 100 103 102 102 104 108 106 111 111 111 114 111 114 136 143 148 142 131 142 149 157 154 154 155 159 156 155 154 139 138 144 153 147 138 126 128 132 132 136 141 144 145 141 140 144 142 139 143 144 143 148 153 182 230 235 230 230 230 240 240 234 231 223 210 208 211 210 220 214 220 220 216 212 204 
99 104 100 106 100 105 105 104 104 104 103 105 104 105 110 110 112 111 116 135 146 146 139 133 148 150 154 155 151 154 156 157 156 155 141 140 141 153 149 142 135 130 134 134 136 141 147 144 142 146 142 145 141 142 140 138 146 153 164 209 248 238 243 235 246 248 245 240 231 216 208 215 216 219 223 222 223 217 217 204 
97 99 100 101 107 103 106 103 103 102 102 104 105 106 109 108 107 102 114 138 144 149 148 144 149 150 157 154 156 156 157 157 154 155 146 145 147 153 152 149 138 135 137 138 138 145 143 146 152 151 147 150 143 140 138 135 141 152 153 158 185 242 257 254 261 261 254 251 238 216 215 216 218 224 226 226 222 219 214 204 
101 104 100 99 102 104 103 100 102 98 98 103 112 106 105 105 106 102 113 135 144 151 152 153 151 153 162 157 153 156 154 157 155 158 152 155 152 152 150 146 142 137 135 136 141 149 149 152 156 157 151 154 147 142 138 137 148 153 157 153 161 169 213 272 283 282 271 263 241 220 221 220 224 229 231 232 231 224 218 203 
102 102 100 103 104 107 105 102 100 100 105 105 109 109 109 108 108 104 113 132 140 148 152 156 156 154 159 154 153 158 156 156 157 160 155 157 156 153 150 145 141 131 130 132 140 137 147 144 148 145 151 152 147 144 145 143 151 156 158 162 163 151 154 186 249 291 289 276 246 222 223 226 225 231 232 233 231 229 217 204 
101 104 101 104 102 103 101 102 97 98 103 103 108 110 110 112 106 108 113 129 141 148 158 157 155 154 155 153 157 159 158 160 156 158 157 160 154 153 148 145 143 128 125 125 135 136 137 134 133 130 139 138 137 142 138 146 149 152 152 151 155 154 152 157 173 218 278 282 244 226 231 228 229 234 232 235 231 227 215 207 
105 104 106 106 104 103 100 97 97 100 102 103 107 105 108 110 105 107 107 127 139 150 156 158 152 152 156 153 155 157 158 155 157 157 155 157 153 154 147 142 147 137 130 137 137 139 138 136 139 134 137 143 141 145 148 142 142 148 146 153 153 150 151 149 157 165 182 224 231 229 234 235 235 235 234 234 231 228 219 209 
108 105 106 104 104 105 96 98 99 98 101 100 102 104 105 107 106 104 106 125 141 147 153 156 155 150 159 152 155 155 157 158 155 159 157 157 153 150 146 142 142 145 141 138 144 145 146 150 145 146 143 140 147 152 148 151 143 147 151 151 152 148 148 152 153 156 158 165 180 219 237 235 242 242 242 239 234 232 220 211 
107 107 106 106 104 105 96 95 95 99 102 101 103 102 107 105 104 105 111 128 146 147 152 161 156 154 157 154 151 155 154 154 156 156 160 154 151 147 143 137 140 144 145 144 153 158 156 157 153 150 148 145 144 153 153 151 154 156 156 158 155 153 150 151 152 157 153 156 160 173 218 239 242 245 246 244 238 233 231 207 
107 107 102 105 103 106 100 97 94 97 102 102 101 104 107 105 104 105 110 134 140 146 151 157 157 154 162 152 157 155 157 156 153 157 153 156 150 147 142 133 137 139 143 148 147 164 167 159 158 154 150 148 146 153 152 154 159 157 163 158 160 166 170 157 149 155 151 151 151 161 180 218 250 254 251 245 244 243 229 206 
105 105 103 106 111 108 101 99 93 97 98 101 101 104 107 107 119 129 127 132 141 148 154 160 156 156 161 155 157 158 157 158 159 156 155 156 148 148 142 133 134 137 146 149 153 166 166 167 164 161 154 152 149 154 156 158 166 162 162 164 163 167 186 187 155 152 148 152 152 153 159 172 214 255 256 249 253 247 236 208 
104 103 103 104 108 105 103 100 92 95 104 101 102 100 105 107 129 139 144 138 142 146 153 158 154 153 165 152 156 152 154 155 155 157 155 152 145 144 142 133 134 140 150 157 161 165 169 165 162 160 156 154 153 155 153 153 157 165 167 164 168 167 181 184 165 156 148 150 151 152 153 156 166 205 249 262 256 254 243 201 
102 105 103 106 107 103 100 96 98 94 100 104 100 104 104 110 129 145 146 137 140 147 150 152 149 155 156 154 153 153 153 153 152 152 152 150 146 144 138 136 131 136 150 158 158 164 172 168 165 165 158 157 156 156 158 154 159 166 168 170 169 171 170 169 168 163 167 156 152 152 154 145 154 158 201 247 261 251 250 199 
104 110 107 103 105 106 99 97 96 98 102 104 106 104 105 107 134 143 146 137 139 146 151 150 148 147 151 151 152 151 151 151 152 151 152 149 147 142 139 140 135 137 149 154 155 164 173 177 170 170 164 160 161 159 159 157 157 165 168 170 168 167 166 164 167 177 186 179 154 156 150 147 151 155 162 206 246 259 245 191 
102 108 106 105 105 106 102 101 98 99 100 108 103 104 109 114 144 147 144 134 136 145 145 147 146 144 147 150 149 147 150 147 147 151 150 150 143 143 138 139 129 136 144 149 155 162 170 180 172 172 166 164 162 159 162 157 159 161 163 169 174 171 168 165 177 187 184 178 161 153 154 146 148 156 150 160 200 247 235 176 
104 108 103 104 106 105 105 100 98 104 101 102 102 102 110 119 148 147 143 133 135 138 141 146 143 141 149 145 147 146 150 147 146 149 148 145 143 141 137 126 128 146 157 161 165 163 165 171 174 168 167 168 164 163 163 161 159 160 163 166 167 166 165 165 170 176 167 161 156 153 149 150 149 150 152 153 156 184 182 168 
106 105 104 103 106 108 105 100 101 97 101 100 103 100 102 119 147 145 145 129 131 133 138 140 141 143 146 145 145 149 149 147 143 148 144 142 140 136 131 119 129 147 157 160 160 162 162 168 167 169 165 166 165 166 167 162 159 163 165 165 164 163 165 163 165 164 158 157 156 154 153 147 149 153 152 154 151 155 157 154 


