P2
80 60
37
30 27 24 21 22 28 25 24 26 23 28 24 23 27 26 21 22 24 20 24 25 25 26 23 23 23 22 25 27 26 26 25 25 25 25 21 24 25 22 24 23 25 25 26 24 26 24 24 25 24 23 24 24 24 24 23 25 24 30 22 20 21 20 20 18 16 13 14 14 12 17 12 12 9 19 10 15 9 13 10 
31 28 30 23 25 26 25 25 24 27 23 26 24 24 25 21 26 26 21 25 24 26 22 24 20 25 26 27 24 28 27 27 25 23 25 23 27 24 23 22 19 24 24 24 26 22 24 24 24 21 22 25 23 22 22 26 28 24 24 19 17 19 18 17 16 16 15 12 12 9 14 11 9 9 12 13 10 12 10 10 
29 24 26 20 26 26 24 25 28 27 26 28 22 24 26 24 23 23 23 21 26 26 22 20 21 27 20 25 25 26 25 26 24 23 26 24 25 28 24 21 18 25 23 22 24 21 20 23 25 19 23 23 23 23 23 24 24 25 21 22 18 19 15 14 16 14 15 15 14 15 16 14 13 12 13 13 10 11 9 10 
31 26 28 24 28 31 24 27 27 27 30 29 22 25 24 21 28 24 22 25 25 24 23 21 22 26 23 26 25 29 26 27 24 25 23 22 26 24 25 24 22 22 24 23 22 22 21 23 25 23 22 22 21 22 23 22 26 20 19 19 23 20 17 17 18 19 13 15 15 14 16 16 9 14 17 12 13 10 11 10 
37 26 27 26 29 26 22 25 27 27 27 26 24 25 23 28 26 24 24 25 25 26 23 26 24 27 29 25 23 24 24 25 24 20 23 22 26 31 27 24 19 24 25 24 25 22 22 26 24 26 21 24 25 22 21 21 23 22 22 19 18 20 16 20 22 16 16 19 17 16 15 13 11 15 17 13 16 12 10 12 
33 25 28 26 27 30 20 29 27 29 26 24 24 26 24 25 27 25 24 27 25 28 25 26 25 26 29 27 26 24 23 23 18 22 23 21 25 26 28 23 20 27 27 24 25 22 26 25 26 20 22 22 27 25 21 24 23 23 22 20 23 19 18 20 19 19 15 17 18 16 17 14 12 13 12 12 15 15 9 10 
27 29 27 26 29 26 24 28 26 26 26 24 27 26 24 25 28 26 23 27 30 29 27 24 26 23 25 27 22 24 25 24 22 23 23 24 22 27 25 24 24 24 26 22 25 26 24 22 25 23 22 27 27 24 21 22 24 25 27 24 24 23 19 20 21 19 17 17 16 14 11 13 9 16 15 11 12 14 10 8 
30 29 27 23 28 31 27 26 25 26 27 26 26 25 25 26 29 27 29 25 32 27 25 27 29 27 25 25 23 26 23 23 22 22 25 26 25 25 26 22 27 22 22 22 25 25 29 25 25 20 22 29 27 20 22 24 22 25 23 25 22 22 24 18 22 19 17 17 19 14 10 11 13 14 17 11 16 15 10 10 
37 28 29 22 27 28 27 27 24 25 26 28 26 22 26 27 25 25 26 29 25 26 27 25 24 24 26 24 24 25 26 22 22 21 25 24 24 24 23 26 19 23 21 21 22 20 25 26 24 22 23 24 24 21 23 25 25 23 23 23 23 21 19 15 17 20 17 18 17 15 12 13 8 13 14 9 14 11 5 10 
35 31 30 24 26 25 26 31 25 24 27 22 25 23 25 23 28 23 25 25 26 26 23 25 26 23 25 24 23 24 20 20 22 23 28 22 25 24 22 21 22 22 22 20 18 19 21 23 23 19 26 24 20 21 20 21 23 19 21 19 18 21 17 18 19 21 15 18 16 13 14 13 13 14 14 15 14 14 6 16 
35 29 25 27 28 25 30 27 29 33 26 23 25 18 25 23 25 23 24 26 24 26 25 25 23 24 23 24 25 22 23 23 21 22 24 21 24 21 21 21 19 20 23 22 20 20 20 23 21 20 22 22 23 20 23 22 18 19 22 19 19 20 16 18 17 16 15 17 12 13 11 9 12 14 15 9 12 14 6 13 
33 29 32 28 29 28 31 26 27 28 25 24 23 24 25 22 23 25 22 23 26 26 25 25 25 25 22 22 23 26 23 21 24 21 25 23 23 16 22 22 20 23 22 22 21 21 23 22 21 22 19 22 22 22 21 22 23 19 21 21 22 21 20 19 17 18 18 14 13 10 12 9 10 15 12 15 13 19 8 10 
37 31 30 29 28 26 28 23 26 25 25 23 25 21 22 23 23 24 21 23 23 25 25 23 24 28 22 24 23 28 28 21 24 24 23 23 22 22 27 24 17 21 21 21 24 22 23 22 20 20 23 23 20 21 20 20 22 21 21 21 23 22 21 19 16 21 17 13 15 16 0 9 11 13 14 12 13 14 10 11 
28 27 26 26 24 26 23 25 27 21 22 25 19 21 25 25 24 21 21 22 24 25 23 24 22 21 22 23 24 25 24 20 23 24 23 18 19 29 22 21 20 22 21 21 21 24 23 22 19 24 20 24 20 22 21 22 24 26 23 23 22 18 14 18 15 17 14 20 14 12 13 8 9 12 11 11 13 14 14 10 
30 27 27 23 25 23 22 24 29 24 23 25 20 20 19 23 22 22 21 21 20 20 22 20 24 20 20 23 20 22 22 22 23 24 21 19 24 24 21 22 19 23 21 20 22 19 20 21 23 21 19 21 22 22 20 22 26 32 24 21 20 19 21 19 15 15 17 16 16 13 11 9 10 12 11 10 14 15 16 15 
36 29 24 19 20 24 22 25 25 23 22 21 23 16 20 24 22 22 19 16 22 21 20 25 21 24 22 21 25 23 22 20 21 21 22 18 21 21 24 20 19 23 22 22 19 20 25 20 19 19 19 19 23 23 22 24 24 22 19 24 19 16 17 15 18 20 15 21 17 14 16 12 10 13 14 8 14 11 12 15 
32 31 23 24 26 23 23 20 23 21 22 23 19 17 22 24 23 19 20 20 24 21 19 18 23 21 22 20 21 22 23 20 22 22 20 19 16 20 21 21 19 22 17 18 19 18 21 21 19 17 19 19 19 20 23 24 23 24 23 20 20 18 17 19 17 18 13 18 17 13 17 15 14 17 14 9 11 10 10 9 
29 29 32 23 27 24 26 23 23 22 21 22 21 19 21 17 22 19 20 24 22 21 23 21 20 18 17 22 21 23 21 18 20 21 19 19 18 21 22 22 17 20 19 20 21 22 19 21 20 16 16 20 22 21 22 21 25 27 23 20 18 19 16 17 16 16 14 17 13 16 16 13 12 11 14 9 12 13 11 9 
28 28 30 24 26 26 21 24 24 24 23 20 18 21 23 24 23 24 22 22 23 23 22 22 21 19 19 24 23 24 24 21 21 22 25 21 23 22 20 24 20 25 22 21 24 19 22 20 19 16 15 22 25 22 20 20 22 25 21 21 21 17 14 16 20 16 15 15 17 13 13 12 11 11 13 8 10 11 9 11 
30 30 30 25 27 29 25 18 23 23 24 21 22 21 22 22 22 23 21 21 25 29 26 26 22 23 19 22 21 24 25 22 24 21 22 17 23 23 24 23 21 21 19 20 18 20 20 20 20 19 20 23 22 19 20 22 22 20 19 21 19 20 18 17 18 19 16 20 18 16 16 13 12 10 14 10 10 11 11 12 
32 31 28 24 26 28 22 19 24 29 25 24 23 22 20 23 22 22 21 20 25 24 20 26 25 24 24 22 25 25 30 22 22 20 23 19 21 22 21 23 19 26 24 20 18 19 17 19 19 19 20 21 24 16 24 22 22 19 19 21 21 21 18 18 16 20 16 20 17 14 20 15 11 14 12 11 12 17 12 10 
33 28 34 26 27 27 23 22 27 25 25 23 31 25 25 22 24 24 21 24 23 24 26 26 22 22 24 25 25 26 26 21 21 23 20 19 23 23 20 21 21 26 20 16 20 17 18 21 21 17 21 21 22 17 22 22 22 19 22 21 19 22 18 20 16 20 18 15 19 20 18 16 16 14 14 7 11 18 14 10 
29 29 30 25 29 25 24 24 25 23 21 23 20 23 23 21 22 21 23 22 24 23 25 22 22 22 21 22 19 24 23 22 23 19 20 17 22 19 22 21 18 19 20 17 21 16 16 21 16 18 18 19 23 19 17 21 17 18 19 20 20 16 19 18 19 18 16 17 17 16 15 14 14 13 13 12 8 12 12 11 
31 31 30 24 29 27 27 29 26 28 24 24 21 21 22 23 22 22 22 23 24 24 22 23 23 21 22 23 22 22 20 20 21 19 19 18 20 19 20 22 20 18 16 23 16 18 20 16 17 21 25 17 25 22 18 21 22 17 18 21 18 20 19 23 18 19 18 23 18 16 16 14 12 13 15 11 9 16 16 15 
30 30 29 25 28 27 28 22 29 27 24 23 27 21 23 23 23 20 23 21 24 23 20 25 23 23 18 21 22 22 19 18 17 19 23 16 20 18 18 21 19 19 22 19 19 19 21 20 20 19 18 20 21 21 19 19 20 17 18 19 20 20 17 18 19 22 19 19 18 15 11 14 12 17 15 9 8 12 13 16 
28 27 28 25 28 27 25 26 24 26 24 25 25 23 24 23 23 21 18 22 23 26 21 23 24 21 19 22 20 21 19 18 21 18 19 18 21 19 19 21 19 21 21 19 18 21 20 22 17 16 21 19 19 22 18 19 21 17 19 22 18 19 16 19 21 18 18 19 18 16 19 15 13 13 15 12 12 15 8 10 
29 28 29 25 29 29 23 27 24 24 23 22 22 22 25 25 22 25 19 21 25 22 25 24 22 23 21 21 22 22 23 16 19 19 21 17 21 19 19 20 20 23 19 16 18 19 18 19 21 16 20 19 18 17 16 18 20 17 20 19 19 20 17 17 18 17 18 19 19 18 17 16 12 17 15 10 14 13 11 12 
29 26 29 25 27 25 23 26 26 23 23 24 23 24 20 16 23 22 19 23 21 27 23 23 20 26 21 23 20 21 22 19 17 16 16 15 21 20 18 19 19 21 21 21 18 17 16 19 17 17 18 20 18 18 19 17 21 16 17 18 18 17 18 18 18 17 15 16 14 16 14 16 12 13 16 13 12 14 13 12 
27 29 26 24 25 25 24 27 22 28 24 24 23 26 22 20 19 22 17 23 21 23 23 22 22 23 20 26 21 21 22 19 18 17 17 19 18 19 19 19 17 21 21 16 20 19 21 21 18 20 17 19 18 18 16 18 19 15 18 19 21 17 14 18 16 18 14 16 14 15 15 14 10 16 16 10 9 14 10 12 
30 28 30 23 28 24 25 26 27 25 24 24 23 22 17 20 22 22 15 20 24 22 22 23 21 21 20 23 20 23 20 18 18 18 20 20 20 21 17 18 19 22 20 18 18 19 18 21 20 18 16 19 19 16 18 19 19 17 17 18 21 23 18 17 19 19 24 18 14 14 16 13 11 12 17 13 13 11 8 9 
29 25 29 24 27 24 22 23 23 23 22 23 23 25 19 21 20 20 20 23 24 22 25 23 21 22 22 21 17 21 22 17 18 17 22 19 20 18 18 20 19 22 22 24 20 12 16 22 20 17 21 20 19 18 18 19 17 15 17 17 17 20 19 19 19 23 17 18 17 15 16 14 11 13 15 11 13 12 8 10 
31 25 26 24 26 23 20 19 24 20 23 22 20 22 21 24 21 19 19 21 22 22 21 19 22 22 29 20 19 21 18 19 21 18 19 16 19 17 18 21 21 21 23 20 20 16 18 20 18 19 20 19 19 18 16 18 19 16 13 16 16 17 18 18 19 20 16 15 15 15 15 12 12 13 9 9 11 12 10 10 
28 26 28 26 28 27 23 21 23 22 23 23 23 21 19 23 23 20 19 20 21 21 20 22 22 23 22 23 23 23 22 19 17 16 20 17 20 19 15 18 18 22 20 17 22 17 19 20 16 19 21 22 19 18 19 17 20 19 17 17 14 17 19 16 18 18 17 16 19 17 14 11 12 13 15 9 11 13 9 14 
27 27 23 22 26 27 23 24 27 22 23 22 23 19 18 25 24 23 19 20 23 21 20 24 22 25 21 21 23 22 22 16 18 17 19 18 18 18 19 20 19 23 21 17 20 20 17 19 19 18 19 18 22 19 20 20 20 20 17 17 17 21 19 20 20 16 19 16 14 12 14 14 10 15 16 11 14 16 12 12 
28 28 28 22 23 25 23 22 24 22 22 24 22 22 22 20 25 21 21 23 22 21 19 21 24 23 21 23 22 23 21 20 18 18 21 14 21 20 18 21 16 21 21 20 21 20 19 23 18 17 18 20 20 19 19 20 21 21 19 17 20 20 18 18 18 19 18 17 15 13 12 12 11 15 14 11 14 13 10 11 
26 26 24 23 27 24 23 21 24 24 24 24 23 22 20 21 20 21 21 21 25 23 21 24 19 24 20 20 21 21 21 21 16 19 18 19 21 18 17 20 18 22 18 14 22 18 22 23 19 19 21 22 22 19 21 21 20 20 21 21 18 20 19 17 19 19 16 18 14 14 12 12 13 15 15 11 15 17 14 12 
26 27 27 24 26 25 23 22 22 21 21 20 25 20 19 18 20 24 22 22 23 22 24 22 22 22 19 21 21 22 19 19 19 20 18 17 17 20 18 19 15 20 18 18 20 20 21 20 21 20 17 19 24 19 19 21 22 18 20 18 18 20 16 19 18 20 17 19 14 12 14 11 10 15 15 12 13 19 10 18 
28 31 28 25 25 27 23 22 22 20 20 22 23 21 21 22 23 25 23 22 22 23 22 22 20 23 19 19 22 22 25 20 18 20 19 20 21 20 18 21 16 21 21 21 22 20 19 20 20 19 18 18 22 19 20 20 21 16 17 19 19 18 20 16 18 22 17 17 16 14 16 13 9 14 12 11 10 15 9 15 
26 28 35 23 28 25 24 22 24 23 23 24 21 19 21 22 22 22 20 20 23 23 22 22 22 20 19 18 20 22 20 19 18 18 15 20 19 20 19 20 17 23 20 19 20 20 20 21 18 17 20 20 22 19 22 22 20 18 17 15 15 16 18 19 17 18 19 17 17 13 14 13 9 12 12 12 13 14 13 17 
23 28 28 21 25 24 17 22 23 20 23 23 19 22 19 18 21 17 19 19 24 24 18 23 19 18 20 19 20 24 19 20 20 19 17 17 20 17 20 21 17 22 20 18 20 21 21 23 20 20 19 19 23 21 21 20 20 16 16 17 15 14 16 17 13 16 15 14 13 12 10 8 14 13 13 8 14 13 9 20 
26 26 28 23 21 21 20 21 24 22 22 21 22 26 19 19 20 18 23 20 21 23 20 23 19 23 28 22 20 20 20 18 19 19 18 18 19 18 19 18 17 19 19 17 17 19 21 20 21 18 22 25 24 21 17 17 20 16 18 15 14 17 16 15 16 14 14 13 10 13 12 12 6 13 12 7 11 15 20 16 
26 27 25 24 24 20 23 21 19 22 24 23 26 20 22 19 19 22 17 19 22 20 21 23 22 21 23 20 18 20 20 17 19 12 20 20 25 20 16 17 19 20 17 17 19 20 19 24 21 21 23 23 22 21 19 21 16 18 16 15 17 15 16 14 17 15 13 12 11 12 10 14 12 13 13 11 15 13 14 15 
27 29 28 27 24 21 20 22 22 20 24 21 21 21 21 19 18 20 20 20 21 22 19 22 25 21 20 19 22 20 19 18 17 19 18 21 23 21 21 21 20 20 17 20 20 19 23 23 20 20 21 19 21 20 19 23 21 20 18 16 16 19 19 19 17 20 14 13 12 12 9 12 11 11 11 8 12 11 15 14 
28 30 24 19 22 21 21 21 19 18 21 25 20 20 22 19 19 22 23 22 23 23 21 22 23 22 21 16 21 22 22 18 20 19 20 18 21 19 18 20 16 21 18 18 20 21 21 25 22 21 19 19 20 20 17 19 21 17 18 18 17 19 17 15 18 19 16 13 14 12 12 11 8 10 11 11 15 10 10 15 
25 26 21 24 17 19 21 18 20 19 19 23 22 20 19 20 21 20 20 22 24 20 21 23 19 20 20 18 18 22 19 18 20 19 17 17 19 18 17 17 19 18 17 17 22 21 23 22 25 19 20 19 21 16 17 19 19 17 13 16 15 18 17 17 16 19 17 16 16 15 10 9 9 10 13 10 12 13 12 16 
30 25 23 22 23 20 20 17 21 19 19 22 21 19 22 19 22 20 19 22 24 21 21 20 21 21 18 17 19 20 23 18 14 17 21 21 16 20 16 20 16 21 17 18 20 20 21 22 19 19 23 19 19 18 17 18 18 14 14 16 14 18 15 15 15 18 18 13 15 12 12 10 11 10 12 12 11 10 10 11 
25 23 22 20 20 19 17 19 22 18 19 21 21 15 17 19 22 21 22 16 23 20 20 20 21 21 18 15 17 18 21 16 18 17 19 17 16 21 16 19 18 20 19 18 22 24 21 21 20 18 20 20 18 16 18 17 16 16 11 17 15 16 17 18 12 15 11 16 13 11 12 7 11 9 12 8 8 10 12 12 
26 25 22 17 18 22 17 18 21 21 20 20 19 21 21 20 20 21 20 17 24 24 22 19 22 21 16 17 19 21 18 18 18 18 20 19 18 20 19 18 17 22 16 16 21 20 21 17 19 19 16 20 19 18 18 18 21 17 14 19 17 17 17 14 16 14 16 17 13 11 14 11 13 9 11 7 12 8 13 4 
25 23 24 16 21 17 17 21 18 22 18 20 23 21 21 23 22 20 19 19 22 26 26 24 20 19 17 20 21 20 18 17 15 19 19 17 20 22 17 19 17 19 17 17 20 16 21 20 19 18 17 18 17 17 16 19 20 21 20 18 18 18 16 18 15 18 16 17 12 15 11 11 8 7 12 9 11 13 7 10 
27 22 20 16 20 20 20 17 19 20 20 16 20 20 22 23 20 21 22 21 23 22 20 22 22 19 16 17 19 19 17 15 17 18 16 17 19 19 21 17 13 19 17 18 17 18 15 14 18 16 17 18 17 19 19 18 16 16 18 14 17 15 15 16 14 17 16 13 12 9 11 11 6 9 7 9 11 13 9 10 
26 25 22 19 18 19 20 18 18 20 22 22 20 19 19 19 21 19 19 17 19 20 19 19 17 18 14 16 16 17 17 18 18 18 18 14 19 17 19 17 15 19 18 16 19 16 18 15 13 14 18 15 17 18 17 18 18 18 15 16 20 16 16 16 14 15 14 12 14 12 11 9 5 8 10 8 9 9 6 7 
25 22 22 18 22 20 17 19 20 17 18 18 18 15 18 16 18 18 18 19 24 18 19 20 21 19 17 17 16 18 18 16 18 17 21 16 16 15 16 16 15 18 16 14 18 17 16 17 18 15 16 19 19 18 15 20 22 17 15 18 18 18 16 17 14 16 13 15 11 12 15 7 8 7 8 14 10 10 7 6 
25 24 20 18 19 22 16 14 20 18 17 20 16 17 15 18 18 17 18 20 17 21 18 19 22 22 18 15 18 18 17 17 13 18 19 18 19 15 14 16 20 19 14 16 18 14 18 19 18 13 16 16 15 18 21 18 22 17 19 17 17 16 18 17 14 13 13 13 14 12 10 9 6 10 14 9 9 10 9 7 
21 20 18 21 28 24 17 16 20 19 19 19 18 18 17 18 19 14 19 21 18 22 22 19 21 19 18 15 19 19 20 18 14 17 18 15 15 17 17 14 19 16 15 14 18 15 19 19 18 18 15 19 18 19 19 21 20 18 15 18 17 18 15 15 14 14 11 12 10 13 11 11 5 9 12 9 8 11 2 6 
18 20 18 17 22 22 17 15 19 18 18 20 14 18 17 19 20 18 18 16 16 18 18 22 20 22 23 20 19 19 19 17 14 15 16 12 17 18 15 14 11 17 15 14 16 15 17 23 15 16 19 18 17 18 20 20 20 18 17 16 15 15 14 15 13 12 12 14 10 13 13 7 6 9 13 10 7 8 4 7 
20 18 19 15 17 18 17 18 20 19 20 22 16 20 20 16 19 22 19 18 19 17 14 19 16 18 16 18 17 18 15 15 14 17 15 11 15 17 15 15 12 17 15 15 18 16 14 19 16 17 18 19 18 17 16 22 18 18 13 18 17 17 14 16 11 14 10 10 11 10 13 12 9 13 10 6 5 8 3 5 
19 23 18 11 19 17 18 17 20 19 20 20 27 20 18 17 18 18 16 22 20 19 16 15 18 16 17 19 15 17 13 14 14 13 14 12 14 16 16 16 17 17 17 15 19 15 19 17 20 16 18 19 17 16 18 18 19 16 15 13 14 15 10 12 13 16 12 13 10 11 11 10 9 9 12 9 5 7 8 8 
22 16 14 15 14 18 15 18 19 20 20 21 21 20 19 16 22 18 16 19 22 17 18 15 15 19 16 19 19 14 14 14 16 17 17 11 15 16 15 15 11 19 17 13 17 17 17 20 19 16 17 14 15 14 21 18 17 14 13 15 16 15 12 11 13 15 7 11 10 12 9 8 9 8 11 7 8 6 6 7 
19 17 15 13 14 17 17 15 20 20 17 19 20 15 14 14 13 16 14 18 19 20 21 17 17 13 13 14 19 17 17 13 17 16 13 14 17 15 16 12 17 17 26 16 16 15 17 18 20 17 16 19 17 17 16 17 19 17 15 14 15 14 16 12 18 12 12 13 10 8 7 9 9 6 11 7 9 6 3 6 
23 18 18 13 15 17 15 13 17 17 14 16 16 13 16 19 13 15 14 19 20 18 20 18 18 15 16 15 17 16 16 14 17 14 16 15 18 17 17 16 16 19 17 17 16 15 18 20 17 18 17 19 19 16 12 18 15 17 16 16 15 18 11 16 13 17 14 13 11 9 7 11 6 9 9 2 8 7 8 7 


