P2
80 60
36
20 24 20 19 22 21 19 21 20 20 23 19 21 24 23 22 20 23 24 21 20 21 16 20 18 17 17 20 17 22 18 19 23 23 19 18 20 20 16 15 21 20 22 20 20 26 28 22 28 21 21 21 21 19 21 22 24 16 18 20 16 17 20 19 11 14 13 12 14 14 12 14 14 14 11 11 12 9 4 1 
19 25 23 19 20 21 18 21 24 24 23 24 24 24 25 24 21 22 21 20 22 20 19 20 18 16 21 18 19 21 22 22 20 21 19 23 20 23 15 15 18 21 20 23 25 28 26 24 21 23 22 22 19 20 23 24 20 17 19 18 17 17 19 15 14 15 12 14 12 13 8 11 11 14 12 12 10 9 1 6 
24 25 21 23 22 23 24 22 22 24 25 24 21 24 23 21 17 24 19 23 23 21 20 21 15 16 20 18 18 20 21 24 22 22 21 20 21 24 20 20 17 21 17 23 24 26 29 25 26 28 29 26 19 20 19 21 22 15 17 17 20 15 16 18 13 12 11 11 12 13 12 13 12 10 12 11 15 11 6 2 
22 25 22 21 24 25 21 22 22 23 25 25 21 24 21 24 23 22 21 23 24 23 18 20 20 18 19 21 19 21 20 21 20 20 18 20 22 26 22 20 21 21 20 23 26 27 32 29 36 32 28 25 18 19 17 17 17 17 17 19 24 18 18 17 13 13 13 13 15 14 13 16 8 10 12 11 10 10 10 5 
28 25 22 20 23 25 19 20 24 24 25 24 20 25 23 26 21 22 22 25 24 19 22 24 19 18 22 20 18 18 16 19 18 18 19 19 23 23 21 16 19 19 22 22 26 29 33 32 30 36 33 29 27 21 19 18 17 17 18 18 20 18 18 19 13 17 15 15 16 14 11 15 14 7 15 9 10 8 8 16 
26 26 24 24 23 22 22 25 24 23 22 18 21 25 22 20 23 24 26 27 20 23 21 20 19 18 23 20 18 18 17 18 18 19 20 21 24 23 20 18 22 24 24 26 29 31 33 29 31 29 31 29 31 21 21 21 19 19 20 20 19 20 20 19 14 14 17 12 18 16 12 14 10 10 10 10 10 12 10 3 
23 21 27 24 22 23 21 22 22 24 26 23 21 23 22 24 24 24 24 24 24 20 22 19 21 18 23 23 19 19 18 19 19 19 17 24 22 25 23 22 23 23 23 23 23 29 27 27 27 27 28 30 27 22 19 18 20 22 24 21 19 18 19 16 16 15 15 20 14 13 11 11 11 11 10 13 10 7 9 11 
29 28 23 24 26 26 21 22 19 21 23 22 21 25 24 23 23 27 26 23 26 21 19 23 20 21 23 21 18 24 19 18 19 20 21 26 23 20 23 22 22 22 20 24 17 22 26 22 23 23 22 22 22 20 18 20 20 17 19 20 20 18 20 18 15 17 15 15 14 10 8 10 11 12 8 13 11 9 4 8 
25 27 27 27 24 25 26 28 24 25 22 25 23 26 23 21 26 26 22 24 24 21 23 22 24 24 24 24 25 22 23 21 21 27 22 24 25 25 24 22 22 23 24 23 21 21 27 28 24 25 21 24 24 24 22 21 21 20 21 22 18 19 20 17 15 17 17 13 13 13 10 12 13 7 10 12 7 10 3 5 
24 26 24 27 27 25 23 26 23 25 26 23 24 21 25 26 26 23 22 20 22 24 26 24 26 25 23 23 22 25 21 24 24 27 27 25 26 26 26 25 23 25 24 23 24 24 28 29 23 23 21 22 23 24 23 20 21 22 21 19 20 21 20 16 13 14 17 14 13 12 12 13 8 9 12 11 10 10 7 6 
25 26 30 29 27 29 28 23 27 24 27 22 25 22 26 22 23 23 21 21 21 24 26 25 23 22 22 25 26 24 22 24 23 26 24 24 26 23 26 26 25 24 27 24 26 26 28 28 26 26 24 21 24 25 21 25 23 23 23 19 21 21 21 22 15 19 19 15 13 15 11 13 11 10 12 9 9 10 9 8 
27 29 28 30 25 25 22 28 19 18 26 23 23 22 21 21 21 21 20 21 21 19 25 21 21 20 23 21 23 22 23 26 27 24 22 26 24 22 24 25 25 27 24 22 26 27 31 28 24 24 24 21 23 20 21 22 26 18 19 20 19 20 20 19 15 19 15 17 14 13 11 11 13 14 12 15 9 9 11 7 
28 25 29 29 25 26 22 27 25 20 24 24 22 20 24 17 20 19 18 20 21 22 22 22 20 19 22 22 23 25 23 24 23 25 24 23 24 23 27 27 23 25 24 23 31 29 29 28 25 27 24 22 21 21 20 21 21 20 20 19 18 22 21 19 19 17 16 13 13 19 4 15 11 16 13 17 18 11 10 9 
28 25 31 24 27 22 23 24 22 21 20 26 23 21 21 24 21 20 21 17 24 24 22 22 21 22 24 22 23 26 22 23 24 26 26 23 27 28 24 26 24 27 24 24 25 27 31 29 22 27 27 26 21 23 23 22 26 23 23 23 22 18 20 18 16 16 20 18 12 13 15 13 15 13 12 16 13 12 8 7 
29 30 28 28 24 23 21 25 26 19 19 24 23 20 23 18 18 18 17 18 20 24 26 22 19 20 22 23 21 23 24 24 21 25 22 23 24 24 24 25 24 24 25 21 26 25 29 28 22 25 25 25 19 22 21 24 26 26 26 23 19 19 22 20 15 16 19 18 18 18 12 11 13 11 14 14 13 10 8 8 
27 31 28 25 23 24 17 25 24 19 20 25 20 19 20 20 17 19 19 17 18 20 23 21 20 23 23 20 22 23 23 24 21 22 22 23 24 21 25 23 25 21 21 23 25 25 27 26 22 25 22 20 23 20 22 22 22 25 23 21 19 21 20 19 17 17 18 18 14 19 16 14 13 10 10 12 11 9 6 5 
28 28 28 27 25 22 20 24 21 19 20 20 20 19 21 21 18 19 19 19 19 22 21 21 21 23 23 22 20 27 21 24 26 25 21 23 24 23 22 25 20 24 22 22 23 25 26 25 21 22 25 21 21 23 23 20 20 21 23 21 19 20 14 20 15 17 13 16 15 16 13 15 11 10 10 9 14 10 10 9 
31 32 28 31 25 25 25 25 24 18 24 21 19 20 22 21 22 19 22 20 19 20 23 20 21 19 21 23 20 23 21 24 24 23 21 22 23 21 23 26 24 23 23 23 27 27 26 25 25 21 20 23 23 28 22 22 22 26 21 22 17 20 18 18 13 14 16 16 11 14 15 12 15 12 9 12 10 11 9 9 
28 30 26 27 26 26 24 21 19 18 23 23 21 20 22 22 21 21 20 17 18 21 24 25 19 18 22 21 22 24 25 22 29 23 25 24 24 24 24 25 25 25 23 27 26 25 25 23 22 21 22 24 25 25 21 19 21 21 21 19 19 18 19 17 15 18 15 15 14 18 17 12 14 12 12 13 9 9 9 10 
25 24 26 21 24 24 22 21 21 19 19 21 22 18 20 21 20 19 19 20 20 25 27 22 20 23 24 21 21 24 22 24 24 24 22 23 26 25 23 22 25 26 27 24 26 24 26 25 20 22 20 22 21 22 17 19 22 14 18 19 17 16 19 17 17 14 16 17 13 16 14 12 10 9 8 8 10 10 9 5 
28 27 28 26 23 24 18 20 22 20 23 22 21 20 20 19 20 21 22 20 21 21 24 23 24 23 23 24 20 27 34 25 23 21 22 20 27 24 23 23 24 27 24 22 21 22 25 24 23 22 23 20 20 20 20 18 18 19 16 20 18 18 21 15 15 14 16 15 14 16 12 14 14 10 9 8 10 8 10 12 
27 27 23 25 25 24 22 23 23 21 24 22 27 22 22 18 19 19 20 21 20 20 24 23 22 22 21 21 24 24 27 24 24 24 23 23 24 25 27 26 18 24 18 20 20 20 27 26 23 22 24 18 22 32 15 19 20 21 17 16 18 18 17 19 13 14 15 15 11 18 10 16 16 12 12 11 11 7 12 9 
27 24 27 26 23 23 23 27 25 20 22 21 24 22 20 20 20 19 19 23 17 21 22 22 22 20 23 22 22 19 25 24 25 21 23 22 22 24 23 30 19 21 20 21 19 21 25 26 23 24 21 23 22 23 19 19 20 19 21 17 20 15 19 18 17 18 16 20 17 15 14 16 13 12 15 10 7 9 10 13 
24 29 25 25 23 22 25 27 23 22 24 21 19 23 24 23 21 23 20 22 20 20 20 22 19 18 23 25 19 20 22 23 21 22 22 22 21 23 23 23 23 23 23 22 22 19 25 22 26 28 23 22 24 20 18 17 19 20 18 18 20 18 18 23 17 16 19 17 19 17 15 15 14 10 12 8 11 10 8 9 
25 25 23 24 23 24 20 26 28 21 22 24 21 20 22 19 20 18 18 23 18 23 23 21 22 21 23 22 21 22 19 20 21 21 22 21 20 22 22 21 22 21 22 22 25 23 25 21 23 25 20 19 19 20 18 18 19 19 18 19 17 14 17 20 20 17 18 17 13 16 13 15 14 13 12 12 10 13 10 10 
22 23 26 21 24 23 24 24 22 20 21 22 22 21 25 18 19 19 18 21 20 20 24 22 21 21 24 19 19 18 19 18 19 21 19 20 22 23 21 21 23 22 21 22 25 25 25 24 24 22 22 17 22 21 16 17 18 20 26 18 14 20 15 17 15 15 17 16 14 15 16 15 12 11 10 10 11 8 9 7 
23 24 23 23 25 21 22 22 22 19 21 24 20 20 17 18 22 21 19 19 19 20 25 24 22 20 22 21 18 21 21 19 21 20 22 21 23 19 19 22 22 21 21 24 24 23 23 23 25 26 21 19 17 18 17 19 18 16 17 19 17 19 19 17 11 12 16 17 10 17 16 12 13 12 10 11 7 8 10 8 
24 25 25 25 24 24 24 22 24 19 22 21 20 21 21 19 18 20 19 18 16 20 23 20 22 22 25 22 20 20 23 20 21 21 21 21 23 20 20 20 20 22 24 24 22 23 24 24 25 24 17 16 20 18 16 15 19 16 14 16 18 16 15 19 15 14 17 17 13 17 15 13 11 9 9 9 9 9 7 8 
23 23 26 25 24 29 21 22 22 21 22 19 20 21 20 20 18 19 19 21 19 17 20 22 20 23 22 23 23 24 22 19 21 19 19 21 23 22 19 21 22 23 23 21 22 25 25 21 26 25 20 16 18 18 15 16 19 18 16 15 15 18 19 18 16 13 15 15 12 14 11 14 12 7 11 13 9 9 8 14 
25 29 26 25 23 25 21 20 25 19 21 20 21 19 20 21 18 18 17 22 19 19 23 21 21 21 22 20 22 20 21 22 21 19 19 21 19 23 20 22 20 24 21 24 25 24 21 20 22 20 22 18 18 19 16 17 17 15 16 14 18 16 17 14 16 15 13 17 11 14 11 13 10 13 10 10 9 7 8 5 
26 28 27 27 24 23 22 23 21 18 23 20 24 20 22 23 22 16 19 20 20 21 20 22 21 23 23 22 18 23 18 21 18 17 20 21 22 19 20 26 19 25 25 22 25 21 21 22 24 21 22 16 15 18 16 19 18 16 12 14 20 16 18 20 14 16 17 16 12 14 13 11 15 13 8 9 8 9 7 7 
22 27 22 26 21 22 23 21 21 21 24 21 23 19 22 22 22 23 19 20 19 22 23 24 21 22 23 21 20 23 20 21 17 19 19 18 20 19 18 24 24 26 23 23 22 23 26 23 20 24 17 15 17 20 16 16 19 15 16 15 15 19 18 16 13 15 20 17 12 19 13 10 15 8 10 5 10 10 8 8 
26 27 25 28 24 27 21 25 28 19 20 23 25 22 22 22 24 25 20 19 19 19 22 21 23 24 24 24 20 23 22 21 18 22 17 18 21 21 22 21 25 23 29 23 23 23 24 25 23 20 22 17 19 17 16 15 17 17 17 15 16 18 16 16 16 17 18 15 17 19 14 12 14 11 10 11 11 9 9 6 
22 28 24 23 29 27 23 22 25 24 22 22 21 21 22 22 21 19 22 19 17 20 21 24 23 24 21 24 22 28 21 23 21 18 20 17 19 22 19 23 21 26 26 22 23 25 22 26 20 24 18 22 20 20 15 18 19 18 13 17 16 18 16 20 18 13 23 18 15 14 11 16 17 13 11 9 12 10 10 7 
24 25 25 19 24 22 18 23 24 19 21 25 22 22 21 20 22 21 21 21 20 17 20 22 25 22 21 20 21 23 18 19 22 20 22 21 21 23 21 17 19 23 25 21 23 26 26 29 21 22 19 18 16 18 17 18 19 18 17 12 16 15 16 19 16 17 17 13 11 15 12 12 13 10 12 10 14 12 10 13 
25 26 23 26 22 24 19 21 24 20 21 22 24 20 22 21 18 21 21 19 12 17 20 20 22 19 17 20 22 19 23 20 23 22 18 20 20 22 21 21 19 25 22 22 23 21 25 29 21 19 20 19 18 20 16 18 18 14 14 14 15 16 16 17 16 13 15 15 11 13 9 12 12 13 11 13 9 11 9 6 
24 24 23 23 22 24 23 23 21 20 21 24 22 24 21 21 22 24 20 20 18 21 21 22 20 21 16 21 18 24 22 21 17 22 17 19 21 23 19 21 20 20 21 22 22 22 24 22 22 20 20 19 18 18 16 16 19 16 14 12 19 18 15 18 13 15 17 15 16 11 11 12 11 8 9 10 8 10 7 4 
24 25 27 26 24 25 21 24 20 19 21 21 21 21 22 20 22 23 19 19 19 19 21 24 20 20 19 21 19 20 22 21 19 21 19 21 21 19 21 22 22 21 21 21 23 23 23 20 21 20 20 18 20 16 19 19 17 13 12 12 17 14 17 17 13 18 15 17 15 11 9 14 14 10 11 11 11 10 9 9 
25 25 32 27 25 22 21 21 24 21 23 26 24 21 19 20 21 21 21 21 20 20 19 20 19 18 19 18 23 24 22 21 21 22 18 20 23 19 23 21 23 23 24 20 24 25 25 20 20 20 22 18 20 19 18 20 15 15 16 16 13 13 15 17 12 14 15 14 13 18 13 12 13 11 11 12 11 12 11 10 
24 24 27 24 19 23 20 19 22 21 26 21 24 20 18 21 21 17 19 18 19 19 21 23 22 21 20 21 19 24 19 21 21 23 20 20 20 19 19 27 18 22 21 24 20 20 29 23 25 23 22 18 24 19 17 17 14 16 11 14 16 17 14 14 13 13 13 12 13 15 11 12 10 12 11 10 12 12 14 14 
20 25 22 24 21 24 21 18 20 21 22 20 21 22 19 20 19 20 18 17 17 16 21 23 22 22 23 21 18 21 21 21 24 20 19 18 18 21 18 21 19 19 20 17 25 22 24 25 27 23 21 23 22 22 20 15 17 13 13 15 13 12 14 15 13 12 13 12 10 11 9 11 7 8 10 8 14 14 8 9 
22 22 26 23 25 21 21 21 17 20 21 20 23 22 21 20 16 19 21 19 17 19 22 21 23 22 20 19 21 19 18 21 23 20 20 19 21 23 21 23 20 20 21 24 22 23 27 25 27 23 20 22 19 21 18 16 17 12 12 14 13 13 15 17 17 10 11 8 10 9 11 12 14 11 11 10 11 11 11 10 
26 23 27 22 22 21 18 20 17 20 20 22 21 23 24 19 17 18 19 19 18 19 18 19 19 20 20 19 19 20 20 20 21 17 21 22 21 23 18 20 20 21 19 20 24 22 25 24 21 20 20 15 19 21 19 15 20 14 15 13 13 17 14 19 11 11 15 12 11 12 9 12 9 11 8 10 14 10 11 6 
26 22 23 19 19 22 16 21 22 19 22 22 22 22 19 17 16 19 20 21 17 20 20 21 16 19 19 18 17 19 18 21 23 19 21 20 20 22 18 23 20 20 20 23 22 25 29 31 23 20 19 15 16 18 14 15 19 13 11 11 13 16 15 16 16 12 12 11 9 11 9 11 7 9 9 12 15 7 10 9 
22 23 26 24 24 22 18 20 17 17 20 19 21 21 18 19 20 18 21 20 22 21 21 18 19 20 18 17 18 18 19 20 21 21 19 18 20 20 20 21 21 19 20 21 23 23 27 24 23 19 19 17 16 15 12 14 14 13 12 15 12 14 16 14 12 13 14 14 13 14 9 10 10 11 10 10 9 8 8 9 
25 23 24 18 25 19 18 18 18 18 20 23 20 21 22 23 20 20 20 20 18 20 22 21 21 18 19 14 16 22 19 21 19 18 20 21 20 22 18 20 18 22 19 23 22 22 24 19 22 22 18 16 14 12 19 13 14 14 12 12 15 15 13 13 11 13 12 14 11 11 14 9 10 6 10 5 8 7 9 10 
24 22 20 17 18 17 14 17 18 14 19 17 21 20 23 22 20 19 20 20 17 19 21 21 19 19 18 17 17 20 15 19 18 20 20 21 19 19 18 18 20 18 19 18 26 23 24 23 20 21 17 17 17 15 13 15 16 11 11 13 12 13 15 15 10 15 13 13 12 11 8 14 9 6 8 7 8 5 7 4 
25 25 20 18 15 21 15 18 19 17 20 19 20 19 23 21 20 17 20 18 20 21 24 23 19 18 22 18 16 21 19 19 20 17 19 18 19 20 20 16 17 21 16 20 26 22 27 26 24 20 17 17 17 12 14 15 14 14 10 14 15 12 14 13 12 12 15 12 11 11 9 10 10 8 7 10 7 5 7 1 
23 27 21 20 17 19 16 22 18 19 19 21 21 23 23 21 20 21 21 20 20 20 25 21 20 17 19 16 18 20 17 17 16 18 18 20 20 22 18 19 20 18 15 19 23 21 26 21 17 22 18 17 15 16 14 13 15 9 12 11 12 12 12 11 11 10 13 14 11 11 9 10 8 6 8 4 8 5 5 9 
19 22 19 19 18 20 17 19 17 18 18 18 17 20 23 23 19 23 21 22 18 20 22 22 19 19 18 19 16 19 17 16 17 17 17 18 18 20 19 21 21 15 17 20 22 19 22 18 19 20 15 15 17 15 15 11 14 13 12 10 14 14 13 16 10 13 12 11 10 9 9 10 10 7 6 9 6 5 7 3 
21 24 21 16 18 18 16 16 16 18 20 20 18 22 23 20 18 21 20 19 17 18 19 16 18 17 18 16 17 20 17 17 18 19 16 17 20 20 20 20 14 18 19 17 20 19 23 18 20 21 17 15 15 14 14 13 14 9 11 13 15 15 11 13 10 11 12 11 8 12 8 6 6 10 7 8 7 5 3 3 
22 23 21 19 23 18 18 19 18 16 21 20 20 21 21 20 20 17 18 19 22 17 19 17 17 20 17 16 15 20 16 19 20 16 23 20 19 17 19 18 18 16 17 17 20 18 22 17 19 22 15 15 13 19 14 16 14 13 12 12 12 16 16 15 10 11 13 10 10 10 13 10 8 10 9 11 6 2 2 6 
19 22 19 21 22 20 18 17 17 20 20 17 17 19 20 17 19 18 18 19 17 19 20 18 18 17 18 18 16 21 17 17 22 17 17 20 18 20 16 19 18 18 17 21 21 19 20 17 21 18 19 15 16 14 14 17 20 15 17 12 16 14 14 11 10 12 11 10 9 11 14 9 9 6 7 7 6 3 5 3 
25 17 23 21 27 21 22 20 16 19 20 18 18 18 20 21 16 19 16 18 17 18 17 17 19 19 21 19 19 17 16 18 18 18 17 16 17 18 18 19 12 16 17 17 19 17 21 18 17 19 17 16 16 18 17 15 19 18 13 11 12 15 12 11 11 11 14 11 8 11 12 8 9 8 5 10 6 5 8 3 
21 20 19 22 23 20 16 15 18 16 22 19 18 19 18 19 18 14 19 18 19 18 17 17 18 19 26 20 18 19 15 16 15 15 16 16 18 19 15 19 18 15 16 17 22 18 19 19 19 18 18 14 13 18 14 14 14 14 12 12 13 10 9 14 7 10 8 9 6 11 7 7 4 3 6 5 5 2 4 0 
14 17 20 24 18 17 19 18 20 15 19 19 23 20 16 17 14 17 17 19 16 19 17 21 17 17 17 21 18 18 15 13 15 17 17 15 17 17 14 15 15 17 16 15 18 15 21 16 18 16 17 14 17 16 13 15 18 14 9 10 11 14 10 13 9 10 9 9 8 16 14 14 7 9 6 7 5 1 8 7 
17 21 19 19 18 18 12 17 18 15 18 21 25 24 17 17 16 17 19 20 18 15 16 18 16 15 17 17 16 18 16 16 16 17 16 16 17 20 12 17 14 20 16 13 19 19 21 16 20 17 14 13 14 16 13 15 13 10 12 14 10 13 9 12 10 11 14 9 11 13 9 8 9 5 8 9 6 7 3 3 
26 20 19 16 18 17 15 18 19 20 20 19 21 22 17 17 18 17 19 16 16 16 20 22 19 15 16 16 14 13 14 16 15 19 17 14 16 17 14 17 16 18 17 19 19 19 23 25 21 18 16 14 14 17 12 13 16 12 10 12 12 11 13 11 12 12 7 11 12 10 7 13 10 6 6 6 6 9 3 5 
17 19 20 16 15 19 16 15 20 21 19 18 20 22 19 18 14 14 15 17 17 18 19 22 17 16 15 12 17 16 13 16 15 16 13 16 17 20 16 22 15 17 18 16 17 16 20 19 22 20 18 16 15 16 14 9 15 9 9 10 10 11 10 12 8 8 11 5 8 8 8 9 6 6 8 8 6 1 3 6 
21 18 23 19 15 22 17 18 20 23 17 20 22 20 19 20 16 14 14 17 19 18 22 24 19 18 19 15 17 18 15 17 14 19 16 20 21 21 20 22 16 17 22 22 19 20 24 21 26 23 14 18 21 15 21 16 13 9 8 10 12 11 16 11 11 13 14 11 7 14 9 10 12 9 5 8 10 9 10 8 


