P2
80 60
166
144 145 130 135 117 94 77 70 97 135 146 155 152 155 157 155 154 156 152 154 159 160 157 152 153 150 154 151 153 156 158 163 163 162 158 159 159 154 145 139 144 142 127 103 73 17 25 37 49 63 76 88 98 107 98 113 120 121 118 121 122 127 123 126 128 132 125 123 122 123 129 132 125 126 129 128 129 119 121 125 
142 143 134 130 121 99 73 69 96 138 150 153 148 151 153 151 154 154 152 156 159 157 155 152 152 143 148 149 148 157 156 158 160 159 156 156 159 153 142 136 145 145 127 100 67 22 18 25 39 57 66 87 97 100 99 109 123 114 118 115 121 120 118 124 123 127 120 120 123 120 125 129 127 129 131 126 125 124 123 126 
135 137 136 130 118 101 81 72 93 135 140 150 149 153 150 157 153 156 155 155 154 157 155 150 151 145 146 148 148 157 157 162 162 156 157 156 159 153 143 138 143 142 124 94 72 19 11 17 25 45 56 71 82 93 99 109 112 117 115 114 118 119 118 119 122 122 124 119 121 125 126 125 127 129 126 127 127 123 126 128 
140 142 132 132 123 99 83 77 94 140 149 146 150 152 150 156 155 158 152 157 158 159 155 156 153 145 143 147 151 156 157 157 157 157 162 158 159 157 150 140 145 144 126 97 77 24 12 9 20 43 49 57 67 88 84 110 108 114 110 115 121 119 119 120 121 122 125 123 120 119 125 130 127 124 126 126 126 126 130 126 
135 139 128 125 117 101 81 73 92 140 148 147 149 154 149 158 154 157 155 151 154 156 158 153 150 145 151 149 146 157 156 156 156 157 154 157 158 156 150 143 146 143 122 92 73 18 6 7 14 36 43 51 59 78 94 103 112 112 110 110 115 123 118 117 119 124 124 122 124 123 125 131 123 125 129 132 129 120 127 126 
141 138 132 131 121 103 86 78 98 138 153 147 153 156 154 158 157 156 157 159 157 159 152 155 159 145 145 146 153 154 155 154 157 155 156 154 158 155 146 141 145 143 123 98 70 12 6 8 17 34 39 50 52 73 94 106 114 111 112 111 114 116 114 114 116 119 121 123 126 120 130 127 124 126 126 127 127 123 129 127 
142 144 126 122 119 102 82 76 101 142 143 154 147 151 154 162 159 156 153 158 158 156 158 158 154 143 143 147 148 153 156 157 157 158 160 154 158 149 150 141 149 142 117 98 68 14 6 5 16 23 35 44 52 75 86 105 111 114 111 106 114 111 111 113 115 118 119 120 121 119 121 127 125 126 128 126 132 123 128 129 
153 152 135 131 122 109 81 75 105 144 150 153 148 150 149 157 154 156 152 158 160 155 158 157 154 145 143 149 148 154 152 154 157 160 157 158 157 155 151 144 149 144 118 98 71 12 5 8 11 26 35 43 53 70 83 98 105 109 110 105 109 112 111 115 112 121 122 117 119 119 120 121 124 126 123 123 124 122 124 130 
154 153 134 140 124 111 84 75 105 148 146 152 151 148 147 154 154 156 156 156 160 158 156 154 156 150 149 150 153 158 152 156 158 161 159 158 159 158 152 146 147 143 119 100 71 11 10 8 8 18 34 46 54 74 83 98 102 101 102 106 106 113 113 112 114 119 126 121 119 121 125 123 123 123 125 123 125 121 122 126 
155 153 141 138 134 117 86 74 107 143 152 151 150 150 149 153 156 155 154 153 156 156 153 153 156 153 157 152 151 158 156 159 160 162 159 158 162 158 149 148 151 144 121 101 75 18 6 1 6 25 36 48 55 78 78 94 98 100 96 100 108 111 109 109 118 122 127 129 123 122 124 124 122 122 124 119 120 118 124 125 
152 152 138 140 135 121 89 78 109 143 149 149 145 151 152 151 156 153 154 153 158 152 151 154 156 154 147 145 144 155 151 155 152 163 158 158 159 155 153 150 146 147 125 105 76 11 10 6 7 23 40 50 62 70 77 90 92 90 93 94 99 108 109 111 118 128 134 130 133 127 124 121 118 122 122 124 125 122 121 125 
151 154 137 136 137 122 92 82 105 141 148 148 148 148 148 149 150 152 152 155 155 153 154 154 149 139 135 135 138 148 153 160 158 160 159 154 158 152 154 149 148 144 122 106 78 16 9 7 8 22 34 46 62 69 77 84 89 93 93 95 96 109 104 108 118 130 139 130 132 132 121 119 123 121 125 127 124 127 127 124 
154 148 139 148 136 126 95 80 108 143 145 148 147 148 148 150 147 153 148 150 155 152 150 154 145 136 135 136 136 148 156 156 156 161 162 156 156 155 152 147 151 143 120 109 82 22 14 9 11 23 34 48 59 66 70 87 94 89 91 93 99 108 111 107 118 133 145 138 136 137 122 121 118 117 122 120 123 118 123 121 
149 149 137 141 136 125 96 73 112 139 144 148 146 147 143 148 147 151 147 147 152 151 148 149 147 143 130 134 134 144 148 155 159 166 159 152 157 154 147 146 149 143 118 110 81 20 7 8 10 26 32 42 54 70 69 86 85 90 89 89 95 103 103 104 112 126 138 135 135 129 123 116 115 123 122 122 119 118 123 120 
144 139 128 136 126 119 94 76 110 143 144 146 142 144 143 151 148 150 149 144 149 151 146 148 140 133 124 121 129 143 152 157 154 158 158 155 156 149 145 143 147 141 116 108 81 19 11 10 10 24 30 36 48 67 70 83 85 99 86 85 92 99 103 102 116 117 130 133 128 125 122 115 123 119 121 120 121 119 122 126 
138 140 124 132 126 120 101 86 119 141 141 147 142 148 146 148 149 149 147 141 150 147 146 145 142 131 117 115 122 146 151 157 157 157 155 154 154 150 147 142 148 138 116 109 78 18 8 7 9 23 26 33 44 63 66 81 82 91 88 89 88 98 99 101 111 125 133 137 133 125 115 117 119 119 117 117 119 116 125 122 
135 139 130 131 126 126 108 100 118 142 141 144 145 147 144 153 148 148 148 146 147 150 143 147 143 133 132 122 126 145 150 155 154 160 155 157 154 151 148 145 147 135 122 107 84 28 6 7 7 21 28 33 44 61 73 82 86 88 85 85 90 97 98 99 112 129 135 131 134 124 118 121 123 118 119 117 119 119 122 121 
135 141 128 131 125 121 113 98 117 141 143 146 143 147 140 150 150 148 148 148 149 149 146 141 144 135 122 119 126 140 146 157 157 160 154 154 154 154 145 146 150 132 112 114 84 21 9 6 7 19 25 33 38 61 72 80 84 96 88 85 92 96 102 109 119 131 135 136 135 133 121 124 123 119 118 116 115 119 121 121 
141 137 123 123 126 125 113 98 120 147 142 148 144 146 143 147 146 148 152 144 149 148 142 140 125 113 114 112 120 131 144 155 154 161 158 151 157 153 150 148 152 132 115 112 86 21 9 3 6 17 22 31 42 63 73 82 83 85 84 87 99 111 112 115 122 131 131 131 131 130 129 131 128 128 126 120 119 121 121 120 
144 142 134 133 125 123 116 106 125 141 143 145 142 145 138 152 151 149 148 145 146 149 145 138 124 109 110 110 113 134 142 155 155 156 159 152 157 154 152 148 151 130 116 110 81 21 11 4 5 17 27 29 47 61 69 83 78 84 86 93 107 110 111 116 114 119 123 121 130 128 125 137 135 132 122 117 118 114 119 128 
146 144 137 135 125 123 112 112 127 141 146 147 145 146 145 147 149 147 147 145 148 146 141 137 125 112 115 114 113 134 146 153 153 156 152 151 155 153 150 150 150 127 112 109 84 20 10 5 2 19 28 32 44 63 71 82 81 89 86 97 103 112 111 113 115 116 120 123 130 129 131 135 129 126 131 118 118 113 121 125 
141 143 132 132 123 119 114 109 126 143 142 148 148 149 143 148 147 146 147 147 147 145 138 134 121 115 119 119 112 134 142 150 150 155 155 146 155 154 152 146 145 127 112 103 80 21 7 0 2 15 26 29 40 60 69 79 80 84 94 96 104 105 112 113 119 116 119 121 128 123 125 133 129 129 127 118 117 118 118 116 
143 141 129 131 119 122 117 109 132 142 146 147 145 146 145 149 150 148 148 146 142 143 136 133 127 132 130 124 117 131 141 149 152 153 152 151 154 153 152 147 143 122 109 103 76 18 10 3 4 15 26 32 43 62 67 80 79 86 89 97 101 106 105 110 111 123 119 125 122 129 128 129 130 128 127 121 121 115 117 122 
143 140 129 129 116 116 115 111 132 141 143 144 142 144 144 148 147 146 143 139 142 143 142 137 137 124 117 118 117 130 140 152 151 156 155 150 156 148 146 142 139 123 102 105 80 21 6 2 5 18 25 28 44 62 68 77 79 83 87 95 99 104 102 109 110 121 120 122 120 124 128 131 129 128 126 120 114 118 115 122 
142 145 122 126 121 120 120 112 134 142 143 142 141 145 146 150 146 147 147 139 138 139 140 134 126 118 121 116 120 124 134 145 149 154 151 151 154 150 146 143 134 114 110 103 78 21 11 4 4 13 21 32 43 57 71 76 80 87 97 98 103 104 106 106 107 116 119 122 122 124 128 128 133 132 125 117 118 116 120 123 
138 135 135 133 119 117 118 110 132 148 142 141 141 146 147 148 147 146 143 137 139 137 135 139 129 121 121 116 120 133 139 146 147 147 149 148 153 149 143 144 132 115 107 107 81 24 12 4 8 16 24 25 43 62 67 78 78 91 98 98 102 108 101 105 112 114 119 119 123 125 126 132 130 130 130 116 114 118 113 119 
140 134 130 131 124 126 119 111 130 143 142 147 141 146 147 146 144 147 147 135 134 136 139 134 129 129 123 123 124 135 135 149 146 149 151 147 152 149 146 143 134 110 104 103 82 23 12 9 10 15 23 31 44 63 69 78 80 92 98 96 92 105 98 108 107 114 118 116 119 120 122 128 133 127 127 116 115 114 118 118 
136 136 131 133 118 117 117 116 134 139 145 145 138 143 142 146 144 147 143 138 134 137 138 131 125 123 123 118 119 127 134 145 147 149 150 146 151 149 147 144 134 109 104 100 72 17 16 12 11 18 22 33 45 61 67 82 82 94 95 96 94 102 102 105 109 113 118 112 115 120 123 128 134 133 124 118 118 114 119 120 
137 137 130 130 124 121 118 112 131 143 141 144 141 147 144 144 146 145 146 137 130 133 135 135 129 121 120 120 123 131 132 141 143 147 147 146 152 147 149 144 126 110 104 99 74 21 18 16 10 25 26 41 45 65 72 82 87 91 100 99 98 107 102 108 109 118 116 114 117 121 123 121 128 129 125 112 114 115 116 117 
140 138 133 132 123 119 120 114 131 141 143 140 143 144 140 143 143 145 143 135 129 128 136 133 128 121 122 123 117 126 132 146 144 149 147 142 149 147 142 140 124 110 99 95 74 17 17 22 19 28 34 36 47 61 69 76 81 89 95 97 106 106 107 111 110 118 119 113 118 117 120 118 122 120 118 114 113 117 113 117 
136 131 129 134 126 119 119 114 131 140 143 144 141 144 141 148 144 146 141 131 133 132 136 128 113 103 105 117 106 118 131 140 144 147 150 145 154 147 147 140 122 100 103 95 72 22 24 27 26 30 33 44 52 65 73 82 82 84 88 89 99 106 106 112 111 118 116 119 119 114 116 114 111 114 115 114 112 111 116 117 
132 133 128 136 129 119 123 112 132 145 143 145 138 143 138 148 146 144 143 134 127 128 132 129 114 105 110 105 112 121 128 142 141 145 143 142 150 148 146 139 125 106 98 98 73 24 20 27 30 37 40 46 52 65 71 80 82 83 79 86 99 107 104 111 110 116 115 112 121 116 116 115 109 110 110 111 109 109 117 116 
136 135 128 137 124 120 119 114 128 140 142 144 140 143 143 145 144 146 145 129 126 128 128 125 109 103 103 103 113 123 133 140 145 144 141 144 147 145 147 141 121 101 102 93 71 27 28 29 33 38 38 46 53 67 74 78 82 82 82 90 96 105 103 108 109 116 116 113 116 114 117 112 107 109 111 109 110 108 114 112 
129 130 129 136 125 120 119 116 132 140 141 140 140 141 141 145 144 148 146 132 127 127 128 128 110 99 104 105 110 118 125 142 144 143 145 144 146 144 141 134 115 104 96 94 71 28 28 31 33 40 44 46 50 65 70 79 84 80 81 92 95 104 99 104 106 113 117 114 114 114 111 105 108 109 109 108 109 107 115 116 
130 133 128 134 122 119 121 108 133 139 142 146 140 140 139 144 142 146 143 128 125 128 128 124 107 96 97 105 115 120 131 139 145 138 145 142 146 140 145 135 113 101 98 91 69 29 26 35 38 42 43 46 52 64 71 78 81 84 81 87 96 101 97 101 104 110 110 107 114 113 107 106 110 108 107 106 108 109 115 115 
134 135 132 135 122 121 119 110 125 142 141 143 142 140 139 143 146 147 143 133 120 121 123 127 105 96 94 110 116 130 135 138 138 143 140 141 147 144 144 130 107 95 98 92 70 26 30 40 40 44 45 49 54 66 70 78 78 83 85 92 93 97 99 100 103 107 109 112 114 112 114 109 106 108 109 109 109 114 114 113 
137 137 128 138 126 117 117 114 125 140 144 145 138 141 136 144 146 146 148 130 122 121 122 121 105 104 111 109 119 131 133 145 142 147 145 139 144 145 142 132 108 98 91 93 69 27 29 38 38 48 44 49 54 67 69 77 78 80 81 91 95 97 96 101 102 107 108 107 108 108 109 107 108 108 107 107 108 108 113 113 
132 136 130 140 130 123 118 116 124 140 143 145 145 140 142 143 145 148 143 131 119 125 126 124 108 101 104 117 123 126 133 144 143 146 144 143 146 146 141 132 108 91 96 90 68 33 29 38 43 47 49 47 54 64 71 80 74 83 81 91 93 94 95 98 105 108 104 101 105 105 107 111 107 105 105 107 105 110 113 114 
134 137 136 136 126 127 120 117 125 142 142 145 143 142 138 140 145 145 141 130 113 115 123 125 115 111 117 120 117 115 118 140 146 144 147 142 142 145 146 126 105 97 90 90 70 30 31 38 49 47 50 49 58 63 71 78 75 80 86 90 97 96 99 100 99 100 100 95 97 100 102 102 102 105 107 108 108 107 110 115 
135 139 131 134 131 128 118 118 121 140 141 144 140 143 139 142 143 146 145 127 113 115 125 125 117 116 115 120 103 105 110 137 141 144 141 143 143 141 144 125 100 94 89 90 64 28 32 37 45 48 55 54 59 67 65 73 71 79 84 87 96 96 99 96 98 105 97 95 96 93 96 101 104 106 102 107 108 107 114 117 
131 139 129 137 126 123 121 117 119 137 139 143 143 143 140 144 142 143 145 134 114 114 122 120 111 106 105 91 76 69 104 129 136 139 141 138 142 135 137 118 98 91 91 91 65 26 28 41 49 52 52 55 54 64 66 70 73 72 82 82 88 93 94 97 94 98 96 89 94 92 97 99 101 100 103 103 104 107 116 114 
136 141 132 131 125 124 117 113 111 136 140 140 140 145 139 143 145 149 146 133 111 111 123 119 100 61 56 55 58 63 74 88 95 114 124 138 144 121 125 109 95 86 85 88 65 24 29 39 47 55 54 52 52 65 69 70 76 75 78 79 90 92 95 97 94 95 89 88 91 91 95 97 97 99 104 103 105 105 113 115 
138 141 135 132 127 124 120 112 108 137 138 138 139 145 140 143 142 141 142 128 108 110 118 118 98 59 49 49 48 62 58 70 74 84 95 118 117 89 84 80 81 80 86 80 61 21 25 36 49 53 52 53 49 65 66 73 73 73 82 83 93 95 98 93 88 92 89 89 90 93 95 96 95 96 101 101 101 103 111 112 
137 135 127 133 129 126 115 112 113 132 138 145 141 142 141 145 142 144 139 133 111 111 116 117 97 62 43 48 48 54 58 62 69 72 77 77 77 77 74 73 85 88 84 82 58 19 24 39 43 50 52 54 52 65 67 67 74 69 81 85 91 91 91 86 80 90 84 89 91 91 96 97 100 98 97 100 101 103 107 111 
135 136 126 133 127 118 118 111 112 133 141 142 139 144 142 143 144 144 142 134 112 112 117 115 101 63 42 43 43 48 53 62 61 67 69 69 73 71 76 74 76 82 83 82 57 18 18 30 37 43 49 57 52 67 65 67 72 76 78 83 90 91 84 82 83 88 87 89 91 89 95 95 96 94 96 98 100 102 106 108 
132 134 125 130 128 120 117 116 107 127 139 144 141 142 140 145 145 142 141 129 109 103 120 115 103 68 41 40 41 49 48 58 65 66 64 66 73 70 68 69 72 83 81 77 55 13 11 19 31 39 51 52 55 61 66 71 68 73 77 76 83 86 79 79 79 89 85 89 89 91 95 95 91 99 98 97 95 96 100 107 
132 130 126 129 128 126 117 109 111 130 138 140 140 144 141 143 144 142 142 131 109 101 119 119 105 72 42 36 38 45 44 50 49 57 62 62 65 64 66 63 74 79 75 70 45 3 9 13 26 40 50 50 51 63 66 70 73 74 73 70 76 79 77 77 79 87 86 86 93 87 90 91 95 97 97 94 98 94 101 101 
130 135 125 128 126 124 115 113 111 128 137 141 140 142 141 144 140 142 143 130 107 103 117 119 106 73 38 33 32 39 37 42 46 51 54 58 62 63 59 61 68 78 70 68 38 5 10 21 37 40 44 51 53 65 66 76 74 75 71 70 76 73 71 74 76 84 80 81 86 79 87 93 91 92 95 92 92 93 99 102 
131 131 126 129 127 124 121 114 114 130 136 141 137 144 140 149 143 143 138 130 102 105 113 116 103 74 35 27 26 27 30 33 37 42 45 48 57 52 53 51 72 70 67 59 34 4 9 30 40 49 53 51 56 64 67 75 76 72 72 71 73 71 75 81 81 87 83 82 82 81 89 91 92 92 92 89 92 95 95 95 
129 135 129 134 127 126 120 111 114 120 135 141 141 141 139 146 141 143 138 131 98 100 111 115 102 72 41 23 24 27 27 28 30 34 38 38 44 41 43 49 65 66 66 59 30 4 5 29 45 50 52 56 54 63 66 73 71 70 69 68 74 72 73 78 75 87 78 77 83 77 86 85 88 86 85 87 89 86 97 93 
132 136 127 133 128 126 119 113 113 122 136 141 135 142 134 142 143 140 137 126 96 96 112 113 106 83 44 31 28 27 29 30 37 38 39 39 44 44 44 45 56 68 63 55 34 5 7 35 45 53 55 56 57 60 59 68 68 69 67 65 71 70 68 72 70 75 76 76 83 76 84 83 84 86 88 90 90 89 94 90 
134 131 123 139 131 128 112 110 114 123 137 137 135 140 137 143 139 146 140 129 98 92 111 112 103 83 47 25 27 29 29 32 37 39 48 43 51 47 50 59 55 56 52 43 23 4 4 29 40 50 53 57 52 58 54 59 57 59 58 57 63 60 57 63 62 70 73 77 87 88 97 102 105 108 113 113 114 106 113 113 
137 128 126 132 133 127 121 113 110 118 135 137 136 138 138 145 142 144 140 132 101 88 108 108 105 84 50 26 28 29 27 29 32 37 40 44 46 46 50 52 48 47 46 49 28 3 10 29 37 47 54 56 53 61 60 60 59 58 69 59 61 62 59 59 55 67 81 107 125 130 132 135 136 141 142 137 138 139 140 139 
130 129 118 137 141 132 120 114 117 119 133 139 136 141 138 142 140 140 140 133 96 82 95 107 104 82 51 27 24 23 24 28 30 31 39 34 38 38 40 38 41 41 43 47 41 15 20 30 37 47 50 55 59 66 65 68 71 69 68 62 64 65 65 64 63 72 104 122 142 142 153 147 149 150 145 145 148 147 146 147 
125 126 121 134 135 127 118 110 112 117 133 138 137 140 136 140 140 137 135 129 93 74 97 106 106 82 60 24 19 19 16 22 20 27 28 28 31 30 29 32 31 35 36 35 33 30 30 32 44 45 51 55 59 67 65 69 66 66 66 65 69 70 71 71 74 90 111 136 148 151 154 149 151 151 156 152 149 150 154 152 
127 129 120 128 125 127 118 117 117 118 131 137 140 139 138 136 135 139 136 129 101 78 99 108 99 83 62 30 19 21 20 28 23 28 28 23 25 27 29 24 27 24 29 31 44 49 61 65 47 50 49 55 57 64 59 58 63 62 62 61 67 79 71 78 85 109 132 139 151 152 160 157 155 155 153 156 154 148 160 159 
130 130 122 131 127 129 120 113 113 118 131 142 139 136 135 140 139 142 138 134 101 75 93 103 102 83 61 38 30 35 30 37 30 33 34 30 32 25 27 24 27 25 46 57 76 76 81 83 68 54 53 53 52 62 59 62 60 65 59 61 70 74 81 79 101 135 139 147 150 155 157 158 155 157 159 159 157 157 163 159 
135 135 124 131 129 129 123 111 112 111 134 141 137 138 135 136 145 140 138 135 108 72 90 104 99 85 72 43 42 37 39 37 39 39 43 40 39 36 36 32 36 47 65 75 90 89 91 91 78 57 56 55 49 59 53 58 62 62 63 64 71 73 76 88 117 143 152 154 157 155 153 160 163 158 161 159 161 158 160 161 
137 139 128 136 128 125 128 114 113 112 127 140 134 138 139 139 137 140 137 132 106 71 86 107 105 84 68 46 43 40 41 41 43 46 46 36 44 44 43 45 54 61 75 82 90 89 95 94 82 63 61 61 61 64 60 65 61 65 64 64 67 76 79 99 125 147 154 151 151 155 157 160 160 164 163 161 161 157 164 163 
141 141 128 134 131 125 121 114 111 112 123 135 134 140 133 136 136 139 139 133 110 73 87 107 104 85 75 50 43 44 42 44 43 50 48 41 48 44 46 58 63 73 80 75 89 92 100 93 86 69 70 69 64 67 66 72 65 66 67 63 67 77 84 111 137 150 152 151 153 155 160 159 161 165 161 161 163 162 161 163 


