P2
80 60
44
32 29 30 26 24 25 27 28 27 30 30 29 27 27 27 28 31 26 26 26 27 28 27 27 28 28 25 28 34 29 29 25 31 29 28 27 27 28 28 27 22 25 28 29 29 30 30 29 32 29 27 27 30 31 30 34 32 32 27 31 27 26 27 26 23 25 20 22 16 17 21 19 19 21 20 19 13 14 21 19 
26 26 30 25 26 27 26 26 30 28 27 29 25 26 29 26 30 24 28 27 32 27 29 22 25 25 28 26 28 27 23 30 30 28 27 25 26 28 27 28 29 26 31 26 29 30 30 33 30 26 28 28 27 30 36 38 34 33 29 28 28 26 25 25 25 20 19 20 17 15 17 18 20 21 20 19 16 15 21 12 
29 30 28 25 28 26 28 27 28 29 27 31 25 29 29 31 29 25 28 29 32 30 24 27 23 27 25 29 24 30 26 34 27 29 32 28 26 33 24 27 27 27 30 26 27 31 30 34 32 31 28 28 25 29 31 32 32 32 31 31 27 24 25 27 23 21 20 21 19 17 23 19 19 19 19 21 14 18 19 20 
31 29 28 25 27 27 30 27 33 30 31 30 25 31 28 29 32 27 30 30 29 26 33 26 29 25 26 27 29 29 30 30 28 25 27 30 29 36 31 31 30 27 30 29 29 30 34 31 38 29 30 29 27 29 29 32 31 33 32 31 32 27 26 28 25 21 21 24 23 17 21 27 22 21 22 21 16 16 23 14 
34 28 30 26 32 30 27 27 30 31 28 31 30 31 32 31 33 29 27 31 27 31 30 32 29 30 30 29 28 29 26 29 25 23 28 30 29 35 35 27 27 27 30 28 31 31 32 35 34 31 31 30 28 27 35 33 30 31 29 31 32 27 25 28 24 16 24 24 22 22 24 20 21 24 22 24 11 17 21 16 
31 27 29 28 31 27 27 31 34 31 31 30 26 30 31 34 30 29 27 36 31 31 32 29 30 28 28 32 27 32 26 27 26 25 29 29 26 32 28 29 29 27 30 27 30 30 37 33 34 30 32 32 32 31 33 35 30 30 33 31 29 25 25 26 28 21 22 26 30 22 24 20 24 21 24 19 13 17 19 18 
35 24 29 31 31 30 30 30 32 29 30 32 29 31 31 29 35 26 30 30 29 31 29 31 29 30 27 30 30 28 26 26 27 27 29 29 32 30 32 29 27 28 29 28 31 33 32 33 35 33 32 31 32 33 32 35 33 36 37 32 30 26 27 29 27 25 25 28 23 22 18 23 24 22 20 20 16 17 22 15 
33 37 32 32 31 36 30 33 33 31 31 33 27 29 29 31 32 30 32 31 38 31 31 32 31 31 29 29 30 31 27 27 26 29 30 33 29 30 32 29 29 28 29 29 30 31 33 33 31 33 35 32 35 31 34 39 34 32 32 28 29 28 31 27 28 23 24 23 26 24 22 23 22 20 19 17 18 14 20 14 
35 36 35 34 30 32 32 31 31 32 32 34 30 31 31 30 31 29 32 32 33 31 30 30 31 30 30 27 31 31 30 28 27 27 29 31 31 32 29 26 26 26 28 27 31 33 32 32 31 31 32 33 32 37 34 36 30 32 32 30 28 29 32 26 31 25 27 25 25 23 23 24 20 20 18 19 12 15 16 21 
31 34 32 32 33 33 31 32 32 33 31 30 31 30 31 29 36 29 31 29 32 30 29 31 27 28 28 31 29 30 24 29 31 30 31 30 29 28 27 27 26 24 28 29 29 30 31 31 32 31 31 30 30 30 34 34 30 31 30 33 26 28 30 30 25 25 28 23 25 23 23 22 23 23 19 23 13 15 19 17 
34 33 31 31 36 33 35 32 34 35 31 31 29 29 31 31 31 27 33 28 32 29 29 29 27 29 27 29 31 29 31 31 30 28 29 30 30 32 28 27 28 28 27 25 30 32 29 32 31 31 31 30 28 30 29 34 35 30 33 30 30 28 29 29 26 26 28 29 23 21 23 21 21 21 18 24 16 16 20 16 
36 38 40 36 33 30 31 36 31 32 32 32 28 30 29 29 30 27 26 29 27 31 26 29 23 28 25 30 28 30 31 28 31 30 29 29 27 29 30 27 29 28 29 27 27 30 30 30 32 31 30 29 30 26 31 34 31 30 28 31 28 29 27 29 28 24 22 23 24 18 21 17 19 22 19 26 19 16 21 17 
34 33 35 36 31 30 31 30 30 30 27 32 28 25 28 28 25 24 25 27 28 29 29 26 26 25 25 30 26 27 25 28 29 29 26 29 27 25 28 27 24 29 28 29 32 30 34 30 32 30 29 29 28 27 31 31 31 32 28 27 30 27 30 26 26 21 21 22 21 21 14 18 21 21 19 23 16 18 19 19 
35 36 37 34 34 35 29 30 28 29 27 29 27 28 27 31 30 26 27 29 30 27 29 27 26 24 27 29 28 28 25 28 29 30 28 26 28 30 29 27 29 29 29 28 29 34 32 33 35 36 34 30 27 28 30 33 31 34 30 31 30 26 29 26 27 24 23 24 21 19 20 17 20 20 19 19 16 18 19 15 
31 36 36 31 32 28 28 28 30 28 28 28 23 30 27 30 29 26 30 27 27 26 29 29 25 27 23 27 28 30 27 29 29 28 26 26 26 26 27 30 27 30 30 29 30 33 30 33 34 33 33 29 26 31 30 35 34 43 31 29 28 26 26 27 26 21 23 24 19 22 18 19 20 20 18 20 13 16 22 18 
32 36 35 34 32 31 31 31 33 28 27 30 27 31 28 33 28 26 25 27 27 26 25 24 26 28 29 26 29 28 28 29 30 27 28 26 26 23 27 28 26 28 29 27 29 32 32 30 32 31 28 29 30 30 31 34 33 35 32 30 29 26 27 23 26 26 22 27 24 20 19 21 20 23 19 20 16 20 21 14 
33 34 40 32 34 27 32 29 29 29 29 28 24 28 27 30 28 28 25 25 29 26 27 27 24 27 27 26 29 27 29 30 28 29 30 29 25 26 30 29 27 28 31 25 27 30 30 28 31 29 31 29 31 30 29 31 33 37 35 30 29 28 25 27 25 23 26 22 22 21 23 23 30 25 23 21 15 20 19 18 
38 35 38 32 32 32 32 30 30 28 30 29 30 26 30 29 27 26 28 28 26 27 24 27 26 24 26 28 26 27 27 30 30 31 26 27 29 27 26 30 28 26 29 28 28 31 28 28 32 31 27 29 32 31 34 33 31 38 34 31 28 25 24 25 24 24 26 23 21 21 22 26 24 20 20 19 15 16 21 17 
37 35 35 34 34 33 31 26 30 27 29 31 27 27 27 30 29 26 26 29 27 27 26 27 27 27 31 26 30 26 28 30 34 28 28 28 28 27 31 32 29 28 26 28 27 29 28 27 31 26 28 31 30 28 31 34 32 34 31 29 31 26 24 24 25 25 24 25 22 23 22 22 20 19 16 22 15 16 17 17 
36 33 34 32 36 32 30 30 27 29 28 29 27 30 33 30 30 27 30 29 27 31 32 28 29 27 28 28 30 30 33 31 30 27 29 28 28 29 30 29 27 29 27 27 26 29 28 31 31 28 28 27 29 29 29 33 29 31 29 29 29 26 22 25 25 20 24 22 23 22 25 23 20 18 19 16 12 15 19 18 
34 31 37 29 35 31 29 28 29 27 29 31 28 34 31 28 27 29 27 28 28 30 29 28 28 28 27 26 28 27 31 32 31 26 30 27 27 26 31 28 25 29 27 27 27 27 30 28 31 29 28 28 29 31 32 28 27 28 27 29 25 24 24 25 23 23 24 26 25 21 23 20 18 22 16 16 13 13 19 16 
35 33 39 31 34 30 33 28 28 29 29 31 32 32 29 26 31 26 27 27 27 28 29 28 28 26 27 26 27 28 27 29 26 26 28 28 28 27 29 28 25 28 30 26 28 28 26 28 28 27 32 26 28 31 29 32 27 28 30 28 29 25 26 26 25 27 24 24 24 25 26 21 22 17 18 18 16 17 20 18 
34 35 32 34 32 32 29 33 30 29 24 31 31 32 29 24 26 25 25 28 29 29 27 26 24 26 25 27 28 25 26 27 27 23 25 28 25 27 27 26 24 26 27 23 31 24 25 26 27 29 30 26 27 27 28 32 27 29 31 29 29 30 25 23 25 28 22 27 21 22 22 22 23 18 18 18 16 17 16 19 
33 34 36 33 35 30 31 40 29 29 27 31 29 32 28 31 30 28 27 27 29 27 25 25 26 27 25 30 26 26 26 28 28 26 30 27 25 27 25 25 24 28 25 26 25 25 25 28 29 34 28 27 30 32 27 31 28 29 30 29 28 23 27 29 25 24 27 25 21 23 25 21 20 22 17 22 19 14 19 16 
34 32 35 31 32 31 30 32 30 33 27 29 29 31 30 29 30 28 27 29 31 26 25 26 27 28 26 29 29 27 26 27 27 25 26 25 27 26 27 24 27 25 25 25 29 28 26 30 31 28 27 27 29 30 29 27 27 31 27 29 25 25 26 25 26 24 26 25 24 23 26 24 20 21 18 18 16 17 21 23 
34 33 36 31 31 31 29 29 29 29 26 31 29 29 33 31 29 29 30 31 31 28 25 29 27 28 27 28 28 27 26 26 27 25 22 26 24 25 25 27 24 25 27 27 29 29 29 30 31 25 28 28 27 31 28 29 25 29 28 28 27 25 24 24 28 25 23 21 21 21 23 20 19 23 21 22 15 18 21 15 
34 29 34 31 32 33 31 31 29 29 28 26 28 28 28 29 29 25 27 31 30 28 32 29 26 29 26 26 25 28 27 23 25 25 24 25 26 26 25 25 25 25 25 26 29 29 26 33 32 27 27 27 25 26 25 28 29 28 26 31 27 26 25 25 27 25 23 22 23 21 25 21 21 19 15 18 14 15 19 22 
33 35 37 31 35 32 31 34 26 29 27 29 26 26 27 29 26 26 26 29 28 30 27 29 30 29 27 27 25 26 28 25 27 23 23 27 22 27 28 25 23 23 26 26 26 29 28 26 28 27 30 24 25 26 28 29 26 26 27 29 28 26 24 25 26 24 27 24 19 22 22 19 18 21 18 19 13 16 21 21 
36 39 34 30 33 31 32 34 28 29 27 29 28 28 29 28 28 26 27 31 30 28 27 28 30 25 27 28 25 27 25 27 26 23 22 24 24 25 29 29 25 22 26 27 26 29 28 27 29 28 27 25 24 25 27 28 27 26 25 25 26 26 22 26 27 25 29 23 22 23 25 23 18 18 19 18 15 14 16 19 
35 35 38 32 30 34 31 30 35 31 28 28 26 29 30 27 28 27 27 30 28 27 27 27 28 26 26 28 25 25 26 26 25 25 27 26 24 28 26 26 26 27 26 28 28 28 29 29 28 27 28 26 26 27 27 28 26 27 29 28 27 24 23 24 26 24 31 26 21 21 25 23 18 21 20 22 13 15 16 16 
35 36 34 31 35 32 31 31 34 31 28 30 25 27 25 27 28 27 25 27 26 28 27 28 25 28 29 28 28 27 25 25 25 27 25 25 22 25 26 24 23 27 31 27 28 32 28 32 28 27 27 25 29 28 27 30 25 26 27 26 25 25 26 24 23 24 24 25 24 19 25 23 20 20 18 17 12 15 16 16 
34 35 34 35 33 32 30 32 30 31 29 30 25 28 27 28 31 26 26 25 29 27 25 28 29 29 28 30 27 26 28 28 27 25 24 25 28 26 25 25 26 29 30 28 26 30 27 29 28 30 28 25 28 27 29 27 30 30 26 22 24 26 25 24 28 22 26 24 24 23 23 22 21 20 18 19 14 14 16 16 
34 32 36 33 33 32 29 30 29 26 27 28 28 28 28 29 27 27 27 31 31 30 26 30 30 27 27 27 26 29 28 26 26 23 27 23 28 24 29 25 26 26 31 27 27 29 28 28 29 30 28 27 27 28 27 29 28 28 26 24 27 22 25 25 24 21 26 27 26 23 23 21 19 17 17 16 13 14 17 20 
29 33 36 34 35 28 30 31 29 28 28 29 25 27 28 28 29 28 27 31 32 28 28 29 29 27 27 28 28 32 27 27 24 23 25 26 24 26 28 28 27 27 30 29 30 29 28 31 30 26 26 24 26 26 26 27 29 26 27 26 26 23 23 23 26 27 22 24 24 21 25 20 18 18 17 18 14 16 16 17 
33 31 34 33 34 31 30 32 32 33 27 30 26 28 25 27 30 28 28 29 31 28 27 28 30 27 27 28 28 29 28 31 26 24 26 23 29 26 28 29 26 28 25 27 28 31 29 27 29 28 27 28 25 29 29 30 30 28 25 26 26 24 24 26 24 22 26 26 25 23 23 21 19 21 17 19 15 13 15 15 
36 34 35 34 36 33 32 32 33 30 32 30 27 29 29 30 29 28 27 31 30 28 25 27 30 25 26 27 27 26 28 27 27 24 27 26 25 26 28 29 25 28 26 22 28 29 31 32 32 27 27 29 28 25 29 32 27 27 25 26 24 22 22 25 24 23 25 24 23 21 21 20 19 21 17 18 11 17 15 15 
36 29 35 34 33 32 31 32 29 29 33 30 26 27 28 26 30 29 28 29 30 26 27 26 26 24 25 26 27 26 27 26 25 25 26 24 27 27 25 22 26 28 27 25 26 27 30 30 29 28 26 28 28 28 30 31 28 26 28 24 25 22 21 24 23 24 24 21 22 20 21 19 20 19 19 20 13 15 17 13 
37 35 34 32 34 35 32 30 32 31 32 31 30 27 28 30 29 31 28 28 33 29 28 29 30 23 26 23 23 27 26 25 27 25 27 26 25 29 26 28 26 25 28 26 27 29 29 32 29 29 26 27 30 29 30 31 30 25 26 25 28 20 23 23 24 26 25 22 18 19 22 20 19 19 15 18 12 16 17 18 
36 33 44 31 32 33 31 33 30 31 29 30 31 29 25 29 27 29 27 32 27 30 27 28 27 27 25 26 25 25 26 27 27 26 28 27 24 25 27 26 24 26 28 26 27 28 26 28 28 26 29 26 31 28 30 29 28 24 24 26 24 21 22 22 23 23 25 22 20 19 21 15 18 17 17 17 12 18 25 16 
38 33 37 35 35 31 31 31 33 31 37 32 29 27 26 29 30 26 26 26 31 30 26 30 30 31 30 30 27 28 27 28 28 27 26 24 25 27 27 28 23 26 29 27 25 30 29 28 30 29 32 29 29 29 28 29 27 27 25 25 25 23 22 23 26 24 22 20 20 22 20 17 16 15 16 17 14 15 23 21 
37 35 33 28 34 33 29 30 31 29 30 30 26 32 28 28 28 27 26 28 30 27 26 27 27 28 30 27 27 24 24 27 27 26 28 25 25 23 25 24 25 27 27 26 24 31 29 30 28 29 28 31 30 34 33 30 29 28 24 21 23 23 23 21 25 22 20 22 20 19 21 19 8 17 18 17 13 14 26 19 
32 34 36 32 31 29 29 30 32 27 28 27 27 30 30 28 28 26 28 27 25 26 28 27 27 28 28 28 26 26 25 26 26 26 22 25 27 26 24 24 25 27 26 26 27 31 29 32 27 29 29 29 30 29 28 31 28 28 23 25 24 21 24 24 25 23 22 18 18 21 19 13 19 13 17 16 14 11 18 17 
36 32 36 30 31 26 27 28 31 30 27 29 29 27 28 27 28 28 28 27 29 29 26 28 28 26 25 30 25 25 26 28 29 24 26 29 27 27 28 25 26 23 24 24 25 27 32 31 31 28 31 30 28 27 26 28 28 24 24 28 27 24 27 26 24 20 21 18 20 19 20 16 16 17 15 15 9 13 18 17 
30 31 33 30 31 31 27 25 31 28 30 31 26 29 29 27 28 25 27 27 28 28 30 29 27 26 26 25 27 27 25 27 24 26 25 26 24 24 27 24 23 24 27 24 24 28 28 38 31 29 31 29 26 26 29 26 26 24 22 24 23 23 21 23 22 23 18 17 18 16 18 16 15 15 12 15 6 14 16 17 
30 29 30 27 31 27 27 23 27 27 29 28 29 30 29 27 29 25 25 29 30 24 25 27 25 27 25 26 24 25 25 22 25 24 22 25 26 26 24 23 25 23 22 24 24 27 30 34 33 28 28 27 27 23 28 25 26 26 23 23 23 25 19 20 20 23 22 18 15 18 19 16 16 16 12 15 11 10 18 15 
32 28 34 30 36 26 26 28 31 28 22 31 26 32 30 27 30 27 27 31 26 26 24 26 25 23 24 29 27 26 26 26 28 24 26 27 22 25 23 22 22 23 25 23 26 25 25 31 29 29 33 28 26 26 29 27 26 26 23 25 25 22 23 21 22 22 23 22 21 17 19 17 15 15 18 18 11 12 16 14 
31 27 28 28 26 30 25 27 28 28 26 29 27 30 26 30 29 25 27 28 32 30 26 27 28 26 28 25 25 24 24 22 24 25 22 25 24 23 22 23 22 24 25 22 24 28 27 29 30 28 26 25 28 25 25 28 24 25 25 24 24 22 22 19 21 20 19 20 16 18 20 17 19 17 14 13 7 12 12 8 
31 31 29 29 29 30 28 31 28 28 28 26 30 29 29 27 29 27 28 29 28 28 29 29 28 25 24 25 27 26 25 25 27 24 22 23 24 26 25 27 25 24 27 25 27 28 30 26 27 26 27 25 26 25 26 29 26 26 24 23 24 21 20 21 19 20 17 21 17 15 17 16 15 17 13 13 7 9 13 9 
31 32 30 28 30 28 28 30 27 27 27 30 26 29 27 28 27 25 28 29 29 26 32 29 29 25 26 27 24 26 24 24 22 23 23 23 23 27 23 25 24 22 24 22 26 29 31 29 30 24 26 24 24 27 27 28 27 23 24 23 23 23 19 21 19 21 21 19 15 14 14 16 15 16 15 16 6 12 13 11 
31 30 29 27 29 27 30 26 26 26 28 28 29 29 33 29 27 24 29 28 27 27 27 29 29 25 23 25 24 26 25 25 25 25 25 27 25 26 27 24 21 19 24 25 26 26 26 29 28 25 27 23 26 29 29 28 26 23 26 25 21 21 22 16 21 21 16 18 13 12 17 15 14 15 12 14 7 9 10 6 
31 30 30 28 32 29 25 27 27 28 28 27 27 31 29 28 28 28 29 31 29 27 25 28 27 24 24 27 27 26 24 20 23 22 23 24 25 23 25 25 24 20 25 22 24 27 25 27 31 26 27 23 25 28 29 27 22 27 22 24 24 21 17 20 19 16 18 17 15 13 17 15 13 16 10 14 4 10 11 7 
28 26 33 23 30 28 31 23 25 23 27 29 31 32 28 30 30 25 27 29 30 24 24 27 27 25 24 23 26 25 25 26 21 25 27 24 23 23 24 23 19 22 23 23 22 24 26 27 26 25 25 25 24 26 27 26 26 26 26 24 22 21 19 17 19 17 17 18 15 15 14 14 11 15 9 15 5 7 7 8 
31 28 33 34 30 36 34 30 28 29 30 30 29 28 28 28 29 27 26 30 26 26 25 28 29 27 25 27 25 27 25 27 23 24 24 24 21 24 23 24 22 21 24 24 24 25 28 27 28 26 25 24 23 29 28 28 27 28 25 22 23 21 21 17 16 18 15 14 11 15 13 15 13 15 7 9 3 7 9 5 
36 30 30 29 40 34 29 30 26 27 30 27 27 29 29 29 29 25 24 27 30 27 25 28 28 26 27 25 27 27 25 29 25 25 22 25 22 25 23 22 21 21 23 23 25 25 28 27 28 25 28 24 24 27 28 31 29 26 24 24 24 21 18 18 17 17 20 14 17 16 16 14 14 13 11 10 7 2 9 11 
30 27 33 31 32 35 29 31 28 27 30 31 27 31 30 27 29 24 24 25 23 27 26 30 26 30 30 25 25 27 23 23 26 25 23 22 23 20 20 22 20 19 19 23 23 23 26 26 25 24 25 26 28 27 26 27 24 26 23 25 20 18 19 18 18 17 17 13 15 10 18 26 14 11 11 9 4 6 8 7 
33 29 31 29 32 28 29 28 30 29 30 32 30 32 35 29 31 27 29 24 26 25 25 27 26 26 26 27 24 26 24 25 23 21 24 22 22 22 20 21 21 22 22 26 25 24 24 26 24 21 26 22 26 22 24 26 23 25 23 23 19 17 18 17 18 16 20 16 14 10 15 10 12 8 11 13 3 3 6 10 
33 29 32 32 30 27 28 28 29 30 28 31 38 30 31 30 31 25 26 32 31 28 26 29 26 27 22 29 28 26 23 23 23 24 22 23 21 21 20 20 21 22 23 18 24 26 25 27 25 23 25 23 25 25 24 24 25 25 22 20 22 16 22 18 17 19 17 13 13 12 14 13 13 12 7 9 0 3 7 4 
29 30 29 26 30 27 28 27 29 27 30 32 30 30 29 27 28 24 25 27 28 26 26 25 24 23 21 22 25 26 21 21 25 22 23 24 19 23 23 23 23 21 20 25 25 23 25 32 24 27 23 23 26 20 24 26 27 24 24 20 20 20 19 18 18 18 16 13 12 12 13 11 12 12 7 11 1 4 3 5 
30 30 27 25 28 25 30 32 29 31 29 31 31 30 28 26 29 26 28 29 28 26 26 29 25 23 20 27 27 25 23 24 22 25 23 23 23 23 23 22 20 23 32 22 23 28 30 28 26 25 23 23 23 24 30 28 23 22 20 20 18 18 16 18 20 13 13 11 17 12 10 13 11 9 9 11 5 3 3 6 
28 28 27 26 31 24 25 27 28 27 22 26 26 28 29 28 26 23 23 24 27 25 26 27 22 22 20 26 24 23 22 22 21 20 22 24 25 26 18 22 19 20 20 24 25 26 28 26 26 22 22 19 22 25 21 24 22 21 22 19 15 13 13 15 10 12 11 10 7 8 10 8 4 3 7 8 2 3 2 1 


