P2
80 60
311
155 155 146 147 149 149 150 147 152 147 144 141 133 86 30 31 55 85 96 94 118 121 121 122 119 119 122 122 119 130 128 128 124 126 128 127 124 121 105 121 131 131 128 131 137 136 140 139 144 138 139 141 143 142 143 143 147 149 148 143 143 144 144 138 136 138 130 128 127 129 133 136 137 141 144 149 147 146 141 142 
156 150 150 146 148 148 148 149 144 143 144 143 131 84 26 31 58 83 97 96 116 120 122 122 117 124 130 123 124 125 133 129 124 123 128 128 126 118 106 123 132 130 129 130 134 138 140 142 142 140 141 142 139 142 148 144 150 151 145 141 143 139 141 136 137 135 133 128 125 128 133 136 140 143 144 147 145 147 142 145 
153 155 148 145 146 151 147 145 146 146 139 135 124 76 28 35 59 78 93 97 119 118 120 122 123 124 131 121 123 126 132 135 122 127 129 126 123 112 109 124 133 130 128 129 135 140 138 144 142 139 144 144 143 142 142 142 147 146 145 144 142 142 141 141 139 134 135 131 129 129 136 136 138 144 141 145 147 148 149 145 
158 159 147 144 148 151 150 148 147 147 144 143 121 77 30 47 60 83 94 97 115 124 121 120 123 126 131 123 123 124 128 130 127 122 131 127 126 114 112 124 131 129 129 133 136 141 141 142 146 143 143 142 142 142 145 146 146 146 145 147 146 143 143 140 134 137 135 130 129 136 137 142 140 142 142 147 145 149 146 151 
158 157 148 147 148 159 154 152 148 144 141 136 113 62 36 46 66 82 96 99 116 119 124 123 121 126 129 123 123 123 124 124 121 123 123 128 123 116 114 127 132 128 130 136 137 140 144 143 143 142 142 142 144 144 143 144 147 145 146 145 146 143 144 143 135 139 137 131 129 133 135 141 139 143 143 147 144 149 146 143 
156 152 144 143 152 156 152 146 147 142 138 140 111 52 24 40 67 89 93 103 111 116 121 122 121 121 128 122 122 121 121 120 123 119 122 123 123 111 116 129 128 128 133 135 136 139 149 142 141 143 145 145 143 145 145 148 146 148 147 144 145 139 142 139 139 142 139 136 134 136 137 137 137 142 146 147 143 147 144 142 
158 149 144 141 147 150 152 147 144 142 139 137 111 43 13 32 56 73 89 95 112 115 118 117 117 122 128 122 121 122 121 123 124 121 125 125 121 108 122 125 130 128 129 135 136 143 142 143 143 145 146 143 144 144 147 145 149 152 148 145 144 142 142 140 137 140 138 135 134 133 135 137 135 142 146 145 144 145 147 145 
161 158 148 144 149 155 150 147 144 142 137 138 105 37 8 26 48 65 84 96 114 113 113 110 113 121 124 121 119 122 124 124 123 120 122 128 121 110 117 124 130 125 128 134 138 141 142 142 140 143 145 146 150 145 149 148 146 148 146 144 145 141 145 142 138 139 140 134 136 134 136 141 140 143 146 145 142 145 146 143 
161 154 149 144 154 151 148 147 145 145 135 137 101 27 6 15 41 55 76 93 109 110 108 111 112 119 124 117 123 125 124 119 120 122 124 124 117 108 117 123 128 123 130 137 135 136 139 143 142 140 146 144 145 144 143 146 144 150 145 145 141 142 142 139 140 140 135 132 135 138 133 138 140 143 143 144 141 141 141 145 
157 151 148 144 150 151 155 151 149 145 135 133 97 23 5 18 39 61 76 87 101 105 107 105 105 118 121 116 122 122 119 122 124 122 122 125 119 107 116 125 129 121 128 135 136 137 136 139 142 142 145 140 144 143 143 143 147 149 146 145 143 140 143 139 139 137 140 130 137 134 133 139 139 145 143 143 144 143 141 141 
152 149 140 138 143 155 160 149 148 145 135 136 91 18 9 15 41 63 74 89 95 99 98 106 109 110 117 114 117 118 118 123 121 123 124 123 113 109 114 126 129 122 128 137 137 137 138 139 141 142 142 146 144 144 141 146 146 148 146 141 142 140 143 139 138 137 137 132 132 135 133 137 137 144 137 147 140 144 141 145 
158 147 139 130 142 149 152 150 147 141 136 134 83 17 6 17 39 62 71 78 89 96 101 116 112 113 116 115 116 117 119 121 123 121 122 120 112 106 117 121 126 120 128 136 134 137 140 141 141 139 143 141 143 140 141 142 146 145 146 141 142 142 143 139 136 136 135 131 133 131 134 135 138 144 141 150 144 140 138 144 
155 144 133 131 133 149 153 148 147 144 134 126 81 18 4 18 37 60 68 76 91 93 107 121 125 115 118 114 113 118 120 118 120 123 119 121 111 104 117 124 123 116 130 140 137 138 140 140 141 141 144 141 141 140 143 144 145 147 142 143 141 138 145 140 136 135 140 133 130 132 128 139 136 145 148 149 142 149 138 143 
149 141 132 127 136 153 152 153 148 141 141 122 74 17 3 24 30 53 67 73 83 91 102 117 121 121 116 115 107 119 118 119 122 121 121 116 110 110 121 119 122 118 133 139 138 137 141 141 145 142 145 143 141 141 142 143 144 146 149 145 140 142 142 139 138 136 136 132 131 134 133 134 137 145 142 144 143 146 144 146 
147 128 118 118 126 152 145 149 147 143 138 119 70 13 4 20 28 56 68 71 79 90 100 116 115 114 114 112 108 114 115 119 117 118 118 116 107 109 119 121 119 120 133 137 136 137 140 140 142 142 138 140 142 140 144 144 149 155 148 144 141 139 143 141 137 134 138 131 130 135 134 139 140 143 143 147 143 147 141 143 
147 124 113 119 126 147 150 150 148 137 133 114 67 13 4 16 31 58 68 73 84 92 106 118 111 113 112 109 112 114 114 118 118 118 119 114 105 110 115 124 122 124 134 133 133 137 138 139 144 139 146 143 144 142 142 147 146 150 150 147 143 142 142 137 137 137 134 135 136 134 136 141 142 146 146 148 145 150 146 152 
144 128 126 115 126 143 148 150 145 141 132 105 55 13 3 21 37 63 70 81 96 96 104 112 117 116 121 109 110 113 114 118 115 122 118 115 106 111 122 125 123 125 137 138 134 138 138 138 139 140 143 141 143 143 144 146 149 150 144 144 141 140 143 136 137 136 138 134 134 135 136 143 148 147 143 147 142 147 144 147 
142 131 124 124 138 145 145 144 146 139 136 107 53 9 0 21 32 62 75 85 99 100 107 107 114 117 124 122 112 113 116 115 120 120 120 113 105 113 120 125 122 123 135 138 138 140 138 138 141 139 142 139 139 142 148 143 147 155 145 144 139 139 143 138 136 137 133 134 135 139 137 144 145 145 145 146 144 148 144 145 
142 130 127 128 133 151 148 146 142 140 126 103 45 11 6 25 36 70 81 87 94 103 108 112 111 117 124 117 118 113 113 115 122 122 119 115 105 117 120 126 123 127 137 140 135 136 137 140 139 137 141 143 145 144 144 146 146 148 148 146 142 139 140 138 140 138 135 135 135 135 139 144 140 146 145 147 145 147 146 142 
138 130 122 122 135 141 144 151 143 135 125 96 44 11 4 25 46 68 80 86 95 98 106 101 105 114 122 120 118 115 115 114 118 117 117 109 105 118 121 127 122 127 137 138 135 136 137 138 143 140 141 143 143 143 142 142 142 145 144 141 141 139 142 139 138 137 134 132 137 138 139 139 141 145 144 143 141 147 144 145 
138 125 120 125 134 139 143 145 140 137 115 91 39 22 10 21 43 69 82 90 95 94 100 106 107 112 119 120 112 113 114 117 115 118 115 112 104 117 124 123 120 129 132 136 134 137 140 138 140 143 143 144 142 140 144 140 145 143 147 147 142 139 142 136 135 135 135 134 135 137 141 142 141 144 145 146 141 147 146 147 
131 112 112 121 127 142 141 144 140 137 112 92 38 25 16 30 50 70 89 91 97 95 101 102 106 111 121 122 116 110 115 114 115 114 113 104 101 116 124 120 122 127 137 136 133 136 136 139 137 140 144 142 141 144 143 142 144 144 146 143 141 140 141 137 136 136 135 133 140 141 139 141 144 145 145 145 145 145 147 148 
126 109 108 122 134 136 142 141 138 135 103 90 33 30 24 32 51 72 84 94 96 98 100 99 102 110 119 114 111 108 113 114 115 115 111 106 102 119 115 120 120 125 134 136 134 136 136 139 139 141 144 142 145 143 142 141 142 143 144 144 146 141 142 135 139 139 138 134 139 139 141 143 144 145 144 146 142 147 146 149 
126 101 107 119 125 137 142 143 137 131 102 84 35 31 34 40 49 69 81 86 100 100 101 102 102 110 115 102 104 112 107 112 112 113 116 103 101 115 117 117 118 127 133 140 137 136 138 139 140 142 145 141 142 142 142 140 144 146 143 142 139 141 139 138 138 137 140 137 140 140 139 144 143 144 142 146 146 147 149 151 
119 105 104 121 132 136 138 138 140 127 86 75 32 29 36 39 53 71 73 79 93 100 98 100 103 108 111 100 103 104 108 110 108 110 105 102 97 116 113 118 120 126 137 138 135 129 136 143 144 140 138 141 139 143 140 140 143 146 145 145 142 140 143 129 138 137 138 136 138 141 140 141 142 149 147 148 144 148 149 149 
126 110 110 120 132 138 141 140 133 127 92 73 27 34 43 41 52 68 73 72 87 93 95 99 99 108 111 97 97 102 105 109 108 107 104 98 105 115 115 115 119 126 139 137 137 139 139 145 141 141 142 137 142 142 140 144 141 144 144 144 139 139 139 135 136 138 137 134 138 140 139 140 142 147 149 149 147 151 146 145 
124 116 114 100 122 135 133 135 128 124 85 77 30 36 40 42 53 66 67 72 85 95 98 97 98 102 110 102 100 103 105 106 109 107 106 96 104 115 111 113 118 124 140 140 135 137 139 142 141 137 141 142 142 140 141 143 142 144 145 143 143 139 139 135 135 138 138 136 136 138 139 141 144 146 147 148 146 149 145 146 
114 85 87 83 97 107 110 122 111 103 90 73 29 34 43 43 55 65 66 70 83 94 94 94 94 103 111 99 96 99 104 106 107 107 98 97 105 117 112 111 112 126 140 137 131 136 138 137 140 139 143 141 139 141 141 140 142 141 143 140 144 139 140 136 138 139 136 136 141 144 142 142 144 150 145 150 146 149 148 147 
110 70 66 75 76 85 84 81 71 81 80 64 21 32 43 47 52 61 65 66 79 85 89 91 90 96 104 98 96 101 102 102 105 106 95 89 105 114 114 111 116 127 139 136 134 136 140 138 140 139 141 140 139 139 140 140 141 142 142 141 140 140 139 135 133 140 137 138 140 140 143 143 144 150 147 148 148 149 144 150 
111 65 64 68 69 84 80 74 66 81 73 58 18 33 41 43 50 60 59 63 79 86 90 88 87 88 96 92 93 97 100 105 104 100 100 94 105 113 107 100 114 129 138 135 137 137 139 139 139 141 142 143 144 141 140 141 143 142 142 141 141 139 140 137 132 136 142 138 142 144 143 143 143 149 150 153 145 150 146 146 
109 65 61 63 67 77 77 75 63 74 71 57 14 23 38 43 54 58 57 62 78 86 86 83 83 90 96 92 94 98 98 100 102 103 99 92 100 110 101 103 114 133 139 139 135 138 138 139 141 142 141 141 142 140 141 142 142 142 140 143 139 137 139 139 137 134 138 142 139 143 144 145 147 150 148 150 145 151 148 154 
106 61 53 57 66 69 69 65 61 68 70 47 6 16 30 46 58 60 59 63 77 82 83 89 92 97 106 104 104 108 105 106 106 103 98 88 99 104 95 102 114 130 135 139 135 138 141 140 142 143 146 141 142 143 143 145 144 142 143 140 142 140 147 140 142 145 140 143 147 143 146 147 147 149 150 151 150 156 147 147 
104 55 48 50 56 61 67 63 58 64 62 34 9 27 37 44 57 61 62 62 74 79 77 85 121 136 144 136 135 138 140 134 130 124 122 102 101 98 90 96 113 130 139 140 136 138 142 148 156 152 150 148 143 141 143 144 144 145 145 141 146 147 150 156 155 149 154 145 146 145 148 145 149 154 153 153 148 155 153 153 
98 52 39 44 47 50 48 48 52 59 57 31 7 36 46 51 56 58 59 61 70 67 74 93 127 141 155 149 149 153 148 149 148 144 148 134 102 93 89 95 112 128 137 136 136 142 148 198 221 194 154 150 147 140 141 143 144 146 148 148 147 149 155 176 187 177 165 155 153 151 145 150 147 153 153 153 151 154 154 145 
104 57 38 35 41 45 52 46 43 51 50 39 13 36 42 54 55 57 57 56 58 65 73 115 140 149 153 149 148 153 151 153 148 146 151 139 107 93 87 93 111 128 134 134 134 143 152 218 255 218 154 159 152 146 145 145 146 150 146 147 146 143 160 191 198 198 197 193 180 164 155 157 158 156 155 153 153 157 151 154 
99 60 37 35 38 44 44 46 44 45 43 34 22 40 45 49 57 54 52 53 54 57 83 140 144 149 153 151 156 155 155 157 153 152 153 151 109 99 84 91 108 129 136 135 136 139 156 219 257 222 160 161 154 146 149 151 148 150 146 146 138 143 171 195 202 203 206 209 212 210 195 184 166 166 161 154 156 163 156 155 
102 62 31 37 38 42 39 42 40 37 44 44 45 60 45 52 58 61 59 56 64 73 111 145 146 148 155 153 152 159 155 156 155 154 159 152 123 94 85 87 110 124 136 134 133 140 152 196 214 205 163 154 154 150 149 147 147 146 144 141 142 141 172 196 202 208 208 217 218 218 218 220 209 195 178 169 166 167 163 154 
98 60 27 30 27 35 33 29 32 30 53 78 84 88 55 50 53 63 50 51 63 83 135 145 145 147 155 151 150 153 157 156 156 156 156 153 137 95 84 87 109 125 134 133 132 140 150 183 194 194 170 147 146 147 145 145 146 144 144 144 140 142 182 196 205 216 211 211 222 225 222 223 215 210 201 187 173 169 159 162 
99 72 36 36 39 40 32 31 41 47 65 76 85 88 67 52 56 56 47 57 74 120 145 146 150 153 154 152 150 154 153 158 157 156 158 155 150 107 82 85 109 121 133 134 133 144 159 178 185 187 189 166 149 145 145 146 143 147 142 143 140 143 192 199 205 214 216 217 226 229 225 229 218 218 208 196 198 195 184 171 
98 74 45 46 43 47 44 42 50 56 81 78 88 86 72 54 59 61 58 62 105 137 147 153 150 151 158 153 154 156 154 158 158 157 155 158 152 138 84 92 108 125 131 132 133 145 166 169 176 178 186 173 151 145 147 144 144 143 143 139 146 155 200 204 207 216 218 219 227 234 228 229 218 216 206 201 203 204 206 204 
97 86 65 59 58 65 53 61 62 61 63 83 83 89 67 67 69 67 69 96 139 146 152 152 151 159 158 155 152 155 157 157 159 161 158 160 156 150 116 95 115 127 131 135 132 148 151 160 158 160 157 157 148 146 143 142 146 148 147 147 150 167 205 206 212 219 222 225 237 238 230 232 223 218 210 206 208 210 211 216 
97 92 88 86 98 96 85 92 89 86 88 92 94 97 86 84 82 89 97 129 143 151 148 151 150 157 163 155 154 153 154 157 160 161 157 155 156 153 144 115 115 125 134 135 136 143 146 152 153 151 144 149 146 143 142 141 150 152 150 154 165 185 214 212 212 221 221 226 235 237 233 229 225 221 208 207 206 211 213 213 
101 85 101 101 105 110 105 105 107 100 106 106 106 112 108 111 110 108 124 137 148 150 146 133 146 157 160 153 153 161 162 161 161 157 156 145 150 152 149 146 124 130 134 135 138 140 142 147 146 146 145 146 146 140 142 142 150 151 150 157 163 208 222 215 218 223 224 229 235 234 233 230 225 219 208 206 206 208 210 212 
110 97 106 112 107 109 106 104 103 101 107 114 111 117 110 113 113 123 131 141 151 151 132 134 144 158 162 156 157 160 162 159 161 156 156 137 146 153 152 148 139 135 136 134 133 140 144 150 144 144 143 145 144 142 140 141 146 150 153 157 169 220 236 226 231 230 229 229 237 240 235 234 229 223 209 206 205 212 209 214 
110 111 110 110 105 112 107 107 104 105 106 108 110 114 112 109 116 126 135 146 152 149 136 127 146 154 162 155 154 159 158 162 159 154 151 143 143 151 151 149 150 140 139 135 136 138 142 148 143 143 145 146 144 143 139 142 148 148 148 155 166 213 241 238 238 243 235 232 244 249 240 245 234 229 212 211 212 218 214 219 
111 111 108 106 111 110 104 104 105 105 107 107 111 114 112 112 113 123 137 146 148 151 133 136 149 156 160 155 156 158 158 160 159 159 154 147 143 145 150 154 158 143 143 140 136 143 143 149 146 148 147 149 147 148 144 145 143 146 149 154 156 169 206 244 254 253 243 244 255 255 252 252 243 239 219 211 217 217 217 223 
113 113 108 103 106 107 103 103 102 100 104 109 109 112 107 109 112 121 140 147 149 151 141 150 155 154 165 157 154 161 155 157 156 158 156 150 145 151 151 153 158 145 145 139 138 145 146 149 149 151 151 153 153 153 154 140 145 142 145 155 154 156 170 187 243 273 253 260 270 264 260 254 252 240 224 221 218 221 219 227 
112 114 108 106 107 109 106 110 106 102 108 108 106 112 108 107 109 119 137 146 153 157 156 154 157 155 160 157 154 159 157 156 156 161 157 157 157 157 154 153 153 150 146 137 137 140 148 147 150 150 154 154 155 155 152 148 142 143 147 162 168 156 164 157 175 211 265 286 285 277 275 267 264 249 226 221 222 225 222 228 
112 112 105 104 105 106 105 107 108 104 104 106 106 112 108 114 108 115 135 145 151 153 163 163 156 158 162 156 157 160 158 159 156 158 160 157 158 158 154 155 158 151 140 127 134 134 141 140 141 144 143 146 149 153 148 152 147 146 152 156 158 160 165 156 157 165 192 255 292 301 293 284 272 245 225 229 228 226 225 224 
115 116 106 106 103 104 103 102 103 103 103 105 109 110 112 114 108 111 130 144 152 151 156 158 156 160 161 155 155 158 160 157 160 157 158 161 162 157 154 153 155 147 138 129 124 132 134 135 139 139 139 134 141 145 143 143 142 143 146 159 158 156 158 156 150 160 160 179 223 281 311 301 281 244 230 233 228 231 226 232 
116 108 106 105 105 102 98 104 106 103 103 105 107 107 109 109 110 113 122 140 151 151 156 155 157 155 165 155 159 158 158 160 159 157 163 161 161 157 153 154 154 151 149 129 132 133 140 136 139 144 140 133 139 148 144 146 147 147 147 148 154 152 153 152 154 154 157 157 172 196 255 288 285 244 238 233 238 233 227 235 
118 110 109 104 103 104 101 106 103 101 104 103 104 107 106 107 108 112 124 141 153 151 160 161 157 157 161 156 156 156 158 155 156 157 160 157 159 156 149 152 150 147 151 144 134 140 144 143 150 149 143 139 142 145 149 148 151 154 150 153 153 154 156 154 150 157 155 156 162 163 182 214 229 237 237 243 234 230 234 237 
117 108 105 108 101 104 104 106 104 102 103 102 105 110 105 107 107 110 123 142 149 151 159 159 160 158 164 157 156 158 156 157 159 157 155 159 157 156 147 148 149 143 150 152 133 144 151 150 160 159 153 149 154 153 148 152 154 152 157 158 158 156 158 153 149 153 156 154 161 161 167 174 177 199 229 242 241 242 238 241 
114 107 105 105 107 108 103 105 102 104 104 105 105 111 107 108 106 110 122 142 148 154 158 163 158 157 161 157 157 159 158 157 159 156 158 160 158 155 145 148 147 142 148 147 144 145 157 164 167 163 161 156 151 156 149 151 154 159 156 162 161 158 158 157 155 155 154 152 154 154 157 162 159 169 193 234 244 249 244 243 
112 111 101 102 101 106 102 99 101 101 106 106 104 107 105 107 106 111 132 144 150 153 157 159 156 159 167 158 157 154 158 159 157 158 158 157 157 154 149 146 143 139 142 145 147 153 157 167 171 169 162 166 160 156 154 153 153 157 157 161 165 160 161 156 160 170 166 157 154 153 157 164 155 159 169 189 224 250 247 247 
111 109 107 102 102 101 96 97 102 97 105 107 107 108 106 117 124 130 134 139 150 151 155 161 155 158 165 157 157 160 158 158 158 156 156 157 157 151 142 142 139 138 145 147 146 161 162 164 170 172 165 165 167 159 154 154 158 161 159 165 167 164 161 155 161 174 185 184 165 153 156 154 157 155 159 164 184 222 253 257 
113 108 106 102 99 101 97 98 98 99 104 104 112 109 106 130 143 144 132 144 150 152 159 158 157 153 161 157 155 158 156 156 158 154 157 154 155 150 141 144 145 137 145 147 152 161 167 167 169 169 170 164 168 158 159 156 160 159 158 162 166 166 167 160 167 173 183 198 180 157 151 151 153 156 155 162 157 181 221 260 
112 108 105 103 101 103 100 101 99 101 103 102 106 110 110 138 153 150 143 142 149 151 157 157 154 154 159 155 155 155 152 154 152 156 157 154 154 153 142 148 150 143 145 151 151 159 168 175 165 168 170 165 164 161 159 160 162 162 158 163 163 166 172 166 170 175 179 185 175 160 153 151 149 156 155 154 156 161 176 226 
113 108 105 103 103 101 100 101 104 105 102 103 105 108 113 141 148 152 143 141 148 149 156 156 152 152 161 154 153 154 153 152 149 152 152 154 154 151 147 148 147 145 146 147 150 153 166 169 171 171 172 167 168 163 161 162 162 162 161 160 163 166 170 172 175 173 171 168 169 163 161 166 162 154 153 154 148 156 156 172 
112 109 106 104 104 105 105 101 102 100 103 100 109 107 114 141 154 155 141 143 148 147 154 151 148 155 156 149 152 152 147 154 150 150 151 151 155 149 144 147 145 145 145 153 152 161 166 166 168 171 174 173 171 168 171 166 168 167 167 166 162 168 172 170 175 175 171 171 168 165 170 189 186 165 155 158 151 155 156 155 


