P2
80 60
270
160 154 164 158 157 158 151 149 152 152 154 150 150 146 152 146 143 138 119 57 67 86 111 113 104 113 119 123 125 125 126 131 133 125 129 132 130 129 126 130 129 123 127 125 115 108 131 126 131 127 128 133 141 141 145 146 146 145 144 142 141 140 143 137 136 137 131 134 133 141 137 137 139 133 136 130 131 127 129 129 
158 155 158 160 154 158 153 151 152 153 154 150 149 147 155 150 144 140 116 48 52 73 103 113 104 110 123 126 126 122 126 127 128 128 130 129 130 127 126 126 127 126 125 124 116 115 123 132 128 126 128 135 141 141 146 147 147 145 143 140 143 142 139 137 139 136 133 132 136 141 138 139 140 136 135 133 132 126 135 135 
159 159 159 155 153 159 157 146 149 152 152 151 152 146 153 149 142 136 106 43 41 62 95 108 104 114 123 126 126 125 129 129 128 129 128 129 128 127 128 128 131 127 126 125 116 115 125 131 128 127 123 135 145 142 143 146 143 144 143 139 144 140 141 141 138 137 137 138 137 141 139 137 137 137 134 133 136 132 135 130 
159 155 156 156 154 161 154 152 149 155 152 151 152 147 151 148 141 136 98 35 28 54 93 110 101 117 120 126 126 126 129 129 130 125 127 129 130 130 129 128 127 122 125 123 117 115 128 127 135 126 126 135 145 144 147 145 144 143 143 142 144 141 139 142 141 139 139 137 140 140 143 142 138 140 134 136 134 129 134 130 
161 154 159 155 153 158 154 148 155 151 146 151 150 148 149 146 142 129 91 33 23 45 85 108 103 112 120 127 127 128 128 124 129 124 127 129 129 131 130 128 127 124 127 122 114 113 128 128 128 129 127 134 140 141 142 145 143 143 144 143 143 141 141 142 138 139 140 142 138 143 139 139 137 134 133 134 134 132 133 132 
158 155 158 158 153 155 157 149 153 152 151 147 150 149 149 146 141 136 86 28 27 48 78 105 105 119 122 130 135 126 129 125 127 126 126 132 137 131 130 126 124 126 128 122 118 112 129 128 131 127 130 139 144 143 147 149 145 146 143 143 146 143 140 142 137 142 137 144 142 141 142 139 139 137 135 135 135 133 134 131 
163 156 155 154 152 156 151 146 153 155 152 152 150 149 153 143 143 129 84 30 27 48 77 97 100 115 119 128 125 125 129 128 128 126 130 127 138 129 130 129 127 126 124 122 115 114 127 129 128 128 131 139 144 142 149 147 144 148 149 139 143 140 141 138 140 140 139 140 143 143 142 140 139 138 136 138 135 131 133 131 
160 158 157 158 153 158 147 145 146 154 150 152 150 147 146 138 136 130 85 28 33 50 71 90 100 122 121 128 125 126 131 125 126 126 129 131 129 129 127 129 129 124 124 124 115 115 127 127 126 126 129 138 145 143 144 148 141 149 146 144 143 142 142 141 140 144 139 143 143 141 142 140 139 136 133 137 133 129 130 131 
162 157 157 157 155 151 150 147 147 152 151 149 150 144 144 138 133 127 84 29 38 52 65 90 98 115 117 125 126 123 125 123 127 127 128 126 129 128 126 128 127 124 123 121 115 112 125 128 128 124 126 138 144 143 145 145 142 144 142 140 141 144 144 138 141 142 137 139 139 142 140 136 139 136 131 130 133 128 131 128 
158 156 161 156 154 152 154 147 150 151 149 151 150 145 146 141 139 121 79 27 37 55 72 90 93 110 114 122 122 121 122 124 122 125 125 127 128 126 125 125 127 121 123 120 113 113 125 124 127 126 125 133 144 144 143 143 142 141 141 142 143 141 142 138 138 139 143 138 140 138 136 137 138 137 131 131 130 126 128 128 
159 155 157 157 157 156 156 147 148 152 151 148 147 145 150 141 137 123 78 23 37 56 73 94 94 112 114 120 119 117 121 122 124 126 126 126 126 126 125 128 127 124 119 118 114 114 122 124 127 124 126 136 140 144 144 146 144 143 142 145 141 139 140 143 141 138 137 141 134 140 138 135 137 133 134 135 133 128 128 127 
158 157 162 156 152 155 151 143 147 150 152 151 147 142 143 137 133 119 73 18 23 47 64 89 89 107 108 119 116 114 122 121 125 127 128 125 126 125 127 126 123 121 122 121 112 113 127 127 128 126 129 134 143 144 144 143 142 142 143 141 142 141 140 139 140 139 139 139 138 141 139 136 138 134 134 136 134 134 131 132 
160 155 161 158 151 151 148 139 148 151 149 147 146 142 140 134 137 121 68 14 11 36 51 73 89 101 106 115 112 114 118 118 123 123 129 123 123 124 124 123 123 125 124 121 116 112 127 128 125 124 128 132 142 137 143 140 143 146 141 139 144 140 145 138 138 141 137 137 136 140 132 137 139 136 135 135 134 132 129 128 
158 155 157 155 155 154 145 137 147 150 150 148 144 144 139 134 127 118 64 5 10 27 39 60 83 101 103 107 105 108 117 117 121 121 123 122 123 126 122 125 126 121 123 119 112 114 124 128 128 126 126 133 139 141 142 144 144 146 142 142 143 142 141 140 139 141 136 141 136 137 140 134 138 136 135 133 134 130 124 129 
157 158 158 154 152 153 142 138 145 147 145 145 145 144 139 135 130 112 65 5 7 19 35 58 78 98 98 105 108 104 113 112 116 119 122 121 122 122 122 123 125 121 122 120 111 113 124 127 127 127 123 134 137 139 141 145 145 153 143 141 142 141 141 141 141 142 137 140 136 138 138 137 140 133 133 131 132 128 131 131 
158 154 158 156 157 148 144 142 149 146 143 146 147 146 141 139 133 110 63 5 6 18 32 56 76 92 91 99 104 108 112 118 117 116 119 119 122 121 122 123 121 123 122 116 106 112 123 124 121 118 125 131 141 141 141 145 144 145 146 146 142 141 142 137 140 141 141 138 139 138 138 141 143 136 135 131 133 131 130 124 
159 158 158 156 153 149 147 140 143 144 145 148 145 146 146 141 136 119 66 8 3 17 37 54 75 86 94 95 99 107 124 127 122 121 120 117 121 121 123 124 122 124 122 119 110 115 121 125 119 117 121 132 141 141 146 143 146 147 144 143 143 143 142 139 137 138 140 140 138 140 139 143 145 136 136 136 131 131 137 130 
156 157 158 156 152 152 145 134 136 147 147 148 147 144 141 139 134 117 67 13 5 14 40 60 74 88 82 92 95 118 128 129 132 117 116 120 120 122 119 125 124 125 118 114 106 116 124 122 119 116 120 131 137 143 147 141 144 151 145 143 145 140 138 139 137 141 139 142 137 139 140 142 140 136 135 134 133 130 133 131 
156 154 154 154 149 151 146 128 132 144 144 150 148 146 147 138 135 120 73 8 6 23 36 63 71 82 84 88 95 115 120 128 128 117 119 118 118 121 124 126 124 124 121 119 107 110 122 119 119 115 119 132 142 143 145 145 142 145 144 141 142 140 137 141 139 139 141 140 139 142 141 143 139 141 134 133 130 131 134 127 
153 155 156 152 149 148 145 131 127 138 144 146 146 145 144 141 137 116 73 10 8 23 33 52 69 79 80 86 90 112 122 124 118 112 116 114 119 123 121 124 122 122 120 115 107 110 121 124 119 120 121 133 140 139 142 142 143 142 142 140 144 139 139 138 138 137 137 135 138 140 141 141 139 136 131 133 129 128 132 127 
154 155 159 148 150 149 143 124 122 137 146 146 149 146 149 137 135 116 72 13 4 17 30 52 69 76 79 88 101 113 128 124 115 114 116 120 115 120 120 123 122 124 120 115 107 107 123 121 123 121 123 136 143 140 145 142 143 141 142 142 144 138 139 141 140 140 138 138 138 143 142 137 141 135 131 133 130 132 139 130 
156 151 155 147 147 144 140 120 120 135 139 148 154 149 146 138 133 112 67 12 4 15 27 43 73 80 87 97 104 112 124 123 124 120 118 115 117 118 120 121 124 120 119 112 104 110 121 121 122 119 125 136 139 138 143 142 142 142 145 142 144 141 139 140 142 139 140 137 140 145 146 140 141 137 133 134 131 130 137 132 
153 151 147 145 142 138 120 108 107 129 137 145 148 146 147 143 132 108 72 11 0 16 27 47 67 88 94 101 107 103 110 115 122 124 122 115 113 116 116 120 118 117 117 111 98 107 121 119 120 121 123 133 143 138 140 142 141 141 144 142 144 141 141 138 139 142 138 138 139 141 141 139 140 138 134 135 132 132 136 129 
151 147 151 147 141 135 121 105 111 125 134 141 145 144 148 144 132 109 75 12 4 13 24 48 72 90 90 100 102 100 103 115 118 121 124 119 111 113 117 120 119 116 112 113 99 110 116 120 120 123 126 133 140 139 140 144 144 142 140 140 141 142 143 140 142 140 140 140 137 139 141 140 138 136 131 134 130 132 134 128 
149 152 149 142 141 137 125 115 113 124 132 144 145 143 150 141 133 106 73 11 3 17 26 45 71 90 90 98 101 99 104 109 117 119 122 118 112 113 114 117 119 114 113 111 100 107 120 122 118 119 123 132 139 137 143 142 142 141 145 140 142 143 140 137 141 141 140 139 142 140 142 139 139 139 130 137 134 129 136 130 
147 148 148 143 139 136 132 118 118 125 133 143 145 142 148 141 129 101 68 9 2 11 22 46 76 93 91 95 92 98 104 105 111 115 123 121 111 111 113 115 115 113 115 110 103 110 120 123 119 121 123 130 137 139 142 140 140 141 144 142 144 141 138 139 143 144 141 139 140 144 139 139 138 136 136 132 133 130 135 133 
148 143 146 136 139 135 130 114 120 128 129 142 146 141 144 141 125 101 71 15 3 12 29 50 84 95 94 95 94 98 102 107 111 114 124 123 109 109 112 115 113 115 114 108 101 108 119 122 118 121 119 133 138 135 139 144 141 142 142 142 143 143 140 137 141 140 143 139 139 140 140 137 137 138 134 132 133 132 135 129 
147 147 147 137 138 135 124 118 119 123 128 139 140 141 144 140 125 96 71 14 12 15 26 52 85 100 94 98 97 99 102 105 110 108 120 119 107 108 110 114 114 113 115 111 101 110 120 117 117 118 123 135 138 138 141 141 140 142 142 142 141 139 138 142 143 143 143 142 141 141 141 141 138 139 135 131 131 130 134 133 
152 148 150 135 138 137 130 118 118 128 124 138 141 140 146 143 122 94 68 22 16 15 27 51 86 99 96 100 103 100 105 108 111 103 110 111 105 108 114 116 114 110 116 110 101 110 117 120 116 117 120 137 137 139 144 141 145 140 141 142 139 138 138 141 141 143 141 142 142 146 142 137 137 134 134 135 130 130 132 136 
150 148 152 136 132 135 120 111 112 119 123 135 137 139 142 142 117 91 65 21 22 25 36 54 73 86 93 99 95 103 105 111 107 104 104 105 107 111 112 111 113 114 113 109 97 111 117 121 117 118 123 135 136 138 141 138 141 144 142 140 143 136 142 143 143 141 147 142 139 145 141 139 137 133 131 136 130 130 137 137 
151 151 151 133 134 134 112 101 108 117 124 141 137 140 143 137 117 90 62 22 27 30 36 55 74 82 89 94 95 99 104 104 106 106 104 104 103 108 109 112 112 111 114 107 97 118 115 120 117 116 121 135 137 139 140 147 143 143 140 143 142 138 140 142 140 143 142 144 142 141 143 144 136 138 134 136 131 133 134 127 
143 147 145 133 128 129 110 96 103 115 121 135 134 136 140 138 115 86 62 22 30 33 36 52 70 83 89 93 93 95 99 103 107 102 100 101 103 107 107 113 115 110 111 111 97 113 115 119 114 117 122 133 140 138 141 145 144 143 144 140 143 139 141 137 140 142 142 143 143 141 144 142 140 136 130 130 131 129 133 134 
147 144 147 134 125 129 106 95 106 119 124 135 135 138 143 135 110 87 60 25 35 37 40 56 72 80 86 91 90 92 96 96 102 100 99 102 102 104 103 111 113 110 112 108 97 113 115 118 114 116 122 137 137 137 141 145 141 142 141 138 147 139 143 142 141 145 142 146 138 144 147 139 139 139 134 131 133 133 134 133 
148 149 146 130 126 125 109 101 115 121 127 137 134 136 139 135 108 88 65 27 33 39 40 54 66 80 84 91 88 94 98 97 101 98 99 98 102 104 104 110 111 109 110 107 92 112 114 116 111 115 122 135 138 138 140 143 144 141 141 142 143 145 140 141 142 145 144 145 142 146 142 139 138 136 137 132 131 133 136 134 
145 144 149 129 119 120 119 101 117 119 124 137 135 129 136 134 109 90 68 26 35 43 44 52 68 78 84 87 88 92 94 97 97 95 99 99 99 101 105 110 110 109 111 105 91 112 113 113 108 112 118 134 138 137 143 143 144 146 141 141 142 143 140 143 142 144 142 143 142 140 143 141 143 139 134 136 135 136 139 140 
150 146 146 130 114 124 121 109 114 96 106 129 130 124 138 129 106 87 77 25 32 44 42 52 65 75 79 86 87 91 98 98 94 91 95 97 99 101 104 108 108 104 106 104 92 107 114 116 105 112 118 132 137 140 143 145 144 146 144 144 141 146 140 144 142 142 142 144 142 145 142 140 140 137 135 138 137 143 141 136 
148 148 149 126 118 125 116 83 87 75 84 93 95 108 116 97 96 89 72 23 38 42 44 50 57 75 79 83 88 89 97 93 88 86 95 97 95 99 100 105 107 105 103 99 92 107 111 109 103 107 115 132 140 139 145 145 144 143 145 143 145 142 141 144 142 145 143 143 142 144 143 141 143 143 143 145 145 143 149 137 
150 146 142 131 110 123 107 56 67 69 73 76 80 77 79 68 81 86 69 21 31 38 47 52 58 71 79 84 83 84 89 84 85 85 93 93 95 97 100 103 106 105 103 97 88 104 105 103 98 105 114 128 136 140 147 145 144 145 145 149 145 144 145 141 143 144 146 142 145 147 147 145 146 145 150 159 153 152 144 143 
145 146 147 134 108 121 110 63 60 63 68 69 75 75 75 71 75 79 61 14 17 37 41 48 58 71 76 84 82 84 81 82 85 84 92 89 94 96 98 105 101 103 103 100 89 104 102 101 93 104 114 131 137 138 144 144 148 151 151 157 152 149 148 143 142 146 146 144 147 150 146 144 148 149 155 181 182 179 174 158 
144 148 150 133 103 117 109 62 53 63 63 62 68 69 70 62 71 72 63 7 8 27 39 52 62 68 75 85 81 83 76 79 85 86 94 93 101 104 106 111 110 106 112 102 95 102 106 97 95 101 108 128 137 139 144 144 148 158 201 213 186 150 147 147 146 147 149 147 145 147 149 148 143 145 156 191 198 197 204 196 
141 144 147 138 104 117 106 65 52 53 56 57 60 67 64 58 66 67 56 3 9 27 38 50 62 72 81 82 78 69 72 77 87 119 132 134 140 141 142 143 145 138 141 140 136 120 100 97 92 100 110 129 136 143 142 145 148 172 232 242 200 153 153 156 150 149 147 146 147 147 143 144 136 145 164 199 197 203 213 206 
143 145 146 131 102 112 112 65 40 41 42 46 49 59 60 47 64 64 49 1 17 42 42 52 60 70 73 78 70 67 67 77 100 138 146 146 149 149 151 152 154 146 150 152 155 140 103 95 88 100 106 125 134 138 141 147 148 175 249 262 214 162 163 160 153 148 144 143 143 143 143 138 142 145 175 197 204 211 209 212 
143 141 146 131 95 110 108 69 33 33 31 36 36 44 46 46 57 57 42 10 19 38 46 51 56 63 63 62 56 59 61 77 124 139 150 155 157 156 157 155 155 154 156 151 156 145 104 92 86 96 102 126 135 135 141 144 152 168 215 224 211 162 154 151 146 145 142 140 142 144 141 139 141 150 177 202 205 209 216 212 
146 141 142 131 94 108 103 71 30 30 34 36 39 42 48 47 47 52 43 14 17 32 45 54 54 61 56 55 58 58 63 84 137 145 152 153 157 158 157 158 157 156 157 158 161 156 122 98 86 94 105 123 132 133 137 143 147 166 194 203 201 182 156 144 143 143 142 141 142 141 139 140 141 148 189 200 204 209 218 216 
141 138 137 130 88 101 102 78 37 35 29 34 39 44 49 46 43 41 33 11 29 33 43 53 59 61 57 59 56 62 73 112 142 146 153 152 155 158 160 158 155 155 158 158 163 159 140 96 85 93 102 122 127 131 137 141 152 172 184 189 191 188 170 143 142 143 145 140 143 142 140 142 141 150 190 202 204 212 219 219 
142 137 137 134 90 97 107 82 38 31 24 28 33 33 42 39 36 35 38 33 55 59 45 54 60 61 56 58 54 66 87 124 148 149 153 154 156 160 159 159 158 155 156 163 165 163 147 106 86 92 104 124 132 131 137 142 155 169 173 176 184 184 177 154 144 140 141 140 146 149 148 146 145 156 197 205 209 216 218 220 
143 136 134 130 86 93 97 83 37 22 17 19 26 26 28 31 26 28 57 74 79 77 54 53 57 58 54 55 57 68 97 139 150 154 154 151 156 157 160 158 160 158 159 160 164 161 155 127 88 95 104 118 131 131 141 142 156 163 166 171 177 171 167 144 140 141 141 140 145 149 151 148 157 170 202 208 210 217 221 218 
139 136 136 129 89 86 102 84 44 24 23 24 28 28 32 34 33 44 71 75 85 84 65 56 54 57 53 58 60 73 123 143 153 154 155 153 158 158 160 162 159 158 160 158 165 163 157 147 111 94 103 120 130 133 138 146 149 153 156 158 152 151 143 142 138 139 141 142 147 148 153 156 162 187 214 213 217 219 222 220 
135 135 135 131 89 90 101 85 55 35 33 33 35 37 40 46 52 55 71 78 89 85 69 62 61 64 57 59 70 105 141 151 153 156 158 158 156 161 159 160 159 159 158 162 164 163 155 151 140 108 106 122 131 136 139 145 149 150 152 149 148 147 143 142 141 139 140 143 144 151 152 161 169 202 222 222 219 225 227 221 
136 135 134 134 91 84 97 82 66 42 38 40 45 37 44 50 53 58 68 75 85 72 64 66 66 70 68 72 92 131 150 152 157 154 160 156 157 159 161 162 161 158 164 162 164 161 155 151 151 140 112 123 135 136 142 146 145 147 144 142 146 141 141 142 141 142 140 143 148 146 152 162 165 212 235 233 228 228 228 221 
135 135 134 129 102 76 100 85 69 58 52 56 63 55 62 65 69 68 72 80 86 82 80 75 83 83 84 88 123 141 150 156 157 155 162 159 160 162 161 159 161 159 162 164 167 155 149 154 153 153 142 129 137 140 143 145 141 143 139 144 145 139 140 143 143 141 140 143 147 145 150 156 161 202 243 253 244 240 236 222 
137 135 136 133 111 86 96 87 80 83 83 94 93 91 101 102 94 97 102 97 104 103 106 106 104 109 111 119 138 148 152 150 146 149 166 158 162 163 163 165 161 161 163 166 159 150 143 145 154 160 154 145 139 143 144 142 145 145 145 147 147 144 146 146 144 142 141 142 142 144 148 151 152 165 189 230 252 256 255 237 
137 129 133 130 114 97 103 91 86 94 98 100 104 102 108 107 107 109 110 110 113 112 109 114 117 120 117 136 147 150 152 143 131 146 159 160 162 165 162 162 163 160 159 164 159 149 144 142 151 159 158 153 140 142 145 148 145 147 151 148 150 151 151 151 145 149 144 139 138 138 146 156 157 158 159 178 205 249 270 259 
127 123 124 128 119 107 107 100 93 100 100 104 106 104 109 107 106 111 109 103 111 112 112 116 117 120 121 144 149 151 152 135 137 148 158 160 159 161 160 162 165 155 159 164 163 150 144 143 151 158 156 159 148 145 150 153 155 155 155 153 157 155 152 156 158 152 152 142 141 143 150 159 163 165 158 160 167 190 233 261 
110 114 107 106 105 105 107 103 111 108 110 106 109 103 110 109 105 106 108 106 108 109 108 111 115 118 132 148 150 148 154 131 133 151 159 157 158 159 160 162 161 157 157 162 161 152 141 140 149 160 160 158 156 144 146 145 151 153 152 155 158 150 154 158 157 158 153 149 146 149 153 159 163 165 162 163 155 157 171 198 
105 99 99 98 97 101 110 105 109 110 109 106 108 103 108 108 104 105 108 107 106 108 111 108 109 117 131 144 151 150 151 137 141 153 158 158 159 158 157 161 160 157 157 162 163 162 151 149 153 162 155 156 152 139 137 139 141 146 142 145 150 152 145 146 146 149 152 149 144 145 156 157 159 155 154 158 153 151 155 158 
102 103 102 99 97 105 106 101 107 114 107 109 114 104 106 105 102 103 105 105 108 107 108 108 110 110 127 146 150 150 153 152 156 160 161 159 162 160 158 161 164 155 158 159 164 162 163 161 159 164 159 158 151 137 130 133 139 140 137 138 144 142 141 136 139 141 140 143 146 145 147 151 152 153 151 156 153 153 152 153 
104 102 102 99 99 106 106 102 107 112 108 103 106 103 111 109 107 107 106 107 108 107 107 110 111 113 122 143 150 150 151 154 159 160 164 159 162 160 163 161 164 160 164 163 163 163 165 166 160 159 157 155 155 146 132 135 139 140 140 139 145 138 137 132 137 148 140 140 143 146 147 142 150 154 151 150 148 151 152 151 
105 102 103 102 99 103 110 102 110 115 105 104 104 100 108 111 107 108 110 109 109 105 109 110 112 114 113 139 149 150 149 158 161 163 164 163 164 166 165 162 165 163 165 162 168 164 165 166 160 160 159 156 154 153 144 137 141 145 144 143 142 141 139 140 137 145 146 147 145 148 152 148 152 148 150 150 147 146 149 142 
106 103 104 104 104 106 105 104 106 108 105 99 103 98 105 108 103 106 110 104 107 107 105 104 109 113 111 132 146 150 148 155 162 163 163 164 165 162 162 162 163 162 165 161 163 163 158 161 158 161 158 152 150 155 154 145 145 149 149 143 145 141 140 141 144 145 143 147 148 154 153 152 156 148 151 151 155 154 147 144 


