P2
80 60
39
24 26 25 21 23 25 28 29 29 29 32 28 31 31 27 28 25 29 27 31 27 28 27 23 25 24 25 27 24 24 26 25 27 24 24 26 26 26 21 23 22 23 28 28 26 25 25 26 27 25 26 28 26 29 26 22 25 29 27 26 23 19 20 20 18 17 14 19 15 17 14 17 17 17 18 16 11 14 11 8 
26 26 26 24 23 24 30 29 27 31 29 34 29 32 31 28 29 30 29 31 28 29 27 24 25 26 25 25 24 23 28 24 27 22 26 25 25 27 20 23 19 26 28 27 27 26 25 29 24 24 23 28 22 29 24 26 29 27 28 25 21 22 23 19 16 15 16 14 13 15 14 18 11 18 18 15 12 16 11 9 
27 26 26 23 21 29 29 29 29 27 32 30 30 28 30 26 25 27 27 27 30 29 29 27 26 26 26 25 24 24 25 25 27 25 28 25 26 27 20 20 17 25 25 24 24 22 22 25 25 23 25 23 25 28 30 23 25 25 23 24 21 22 18 15 17 17 14 17 15 18 15 18 19 17 17 15 8 13 13 14 
29 23 25 24 24 29 29 29 28 30 31 33 31 27 26 27 27 24 28 31 29 26 26 26 25 25 28 28 23 24 24 24 26 25 27 24 25 30 22 24 21 23 27 23 21 24 24 24 26 26 27 25 23 27 26 22 25 23 26 24 21 20 17 18 18 19 17 16 21 18 17 20 15 14 13 16 12 14 15 13 
30 22 24 22 24 27 26 30 28 28 28 32 32 29 25 30 28 25 31 33 28 29 27 27 28 26 27 27 22 22 26 26 26 23 22 25 25 27 22 24 20 22 26 23 24 25 26 26 23 28 27 24 24 26 21 22 23 21 27 23 22 21 21 22 19 16 18 21 17 18 17 16 13 12 18 15 14 12 11 11 
29 24 28 28 26 28 27 30 29 30 29 27 31 30 29 31 30 31 30 31 30 31 30 27 29 28 27 26 24 22 21 23 22 23 21 26 29 28 23 22 21 27 29 26 23 26 28 24 27 24 26 24 28 27 25 22 22 25 27 24 26 24 18 21 18 17 18 20 21 18 19 16 14 16 15 15 17 17 12 9 
28 27 27 26 28 26 31 29 29 29 29 31 31 29 33 28 36 30 32 32 32 27 29 24 26 26 27 27 23 21 27 28 26 21 22 28 27 27 24 22 24 26 26 21 24 27 23 25 27 23 23 30 26 28 22 24 24 22 29 23 26 23 18 21 20 18 19 21 18 17 11 16 15 17 17 14 14 15 15 12 
29 28 27 27 27 33 31 28 31 25 30 30 29 32 31 33 29 31 32 31 36 28 28 29 26 29 28 24 24 25 23 22 21 21 25 30 22 25 23 22 23 23 27 27 27 24 26 25 23 22 26 27 29 25 24 24 25 25 24 27 25 23 24 23 20 21 17 17 21 17 14 15 15 16 18 15 14 15 13 15 
34 29 29 27 28 30 33 31 25 31 30 31 33 31 33 29 31 30 30 34 31 31 31 28 26 25 27 26 23 24 27 24 24 22 23 25 23 27 19 24 22 22 25 24 27 22 23 26 23 24 26 26 25 26 25 26 25 26 25 27 21 18 24 20 15 19 18 20 17 17 12 15 18 16 17 14 15 12 13 9 
35 31 30 28 27 33 35 30 26 24 27 30 30 29 27 28 36 30 31 30 29 31 32 29 26 24 27 26 23 23 17 22 25 22 26 25 26 24 20 24 20 23 22 22 21 23 22 27 25 23 28 26 22 28 22 23 29 21 29 24 22 19 19 20 20 19 21 19 18 17 14 19 19 14 21 16 12 13 11 9 
32 27 25 28 31 30 35 32 32 26 31 23 27 30 31 27 31 29 28 30 28 28 26 27 24 22 23 24 23 23 23 26 21 21 22 23 25 25 22 21 18 20 22 22 21 22 21 22 21 24 24 23 22 24 23 21 20 20 24 23 24 20 18 19 19 18 15 21 16 15 13 15 14 13 13 13 15 13 14 17 
31 27 30 31 28 31 32 31 30 29 27 28 28 27 30 26 28 30 28 28 27 28 29 26 25 23 23 23 23 21 22 23 23 19 22 23 21 19 22 20 17 22 25 21 21 22 21 20 21 23 19 22 21 23 23 20 20 22 24 21 20 23 20 21 21 20 19 16 13 13 11 10 12 11 16 17 13 6 13 9 
38 30 28 34 27 30 30 29 26 30 26 30 30 26 27 28 30 28 28 27 28 28 26 25 22 24 23 24 22 25 21 26 25 23 21 22 21 22 26 23 17 23 23 20 24 24 25 23 21 23 25 23 20 22 21 20 23 23 22 24 24 23 24 20 17 17 18 18 17 18 2 14 12 13 19 14 14 14 8 14 
32 32 27 32 26 31 27 27 27 27 26 32 28 25 28 27 26 24 29 25 29 26 26 25 24 22 21 23 23 24 25 21 26 24 21 22 23 25 20 16 19 20 22 21 21 23 24 23 20 26 22 24 18 24 20 25 24 24 24 23 23 20 18 20 16 18 18 19 17 14 14 14 12 13 15 13 16 14 18 14 
32 32 31 31 25 29 28 30 29 25 26 26 27 28 24 28 27 26 25 27 25 27 25 24 23 22 21 22 21 23 22 24 22 22 21 23 24 24 20 22 17 22 25 21 23 22 22 20 23 27 21 22 23 25 22 23 28 39 27 23 21 22 18 20 16 18 18 21 16 16 15 14 14 17 13 15 14 14 14 15 
35 29 33 29 22 28 30 30 29 23 27 27 27 27 25 30 29 25 25 29 28 28 25 28 23 24 19 23 23 20 22 21 22 21 24 21 24 26 21 21 24 21 22 22 23 23 22 22 21 22 22 20 22 28 22 23 26 26 27 25 20 19 19 18 19 24 18 17 19 15 18 15 14 16 14 9 14 14 15 16 
33 34 32 29 29 28 29 27 25 25 26 27 25 25 27 28 27 27 26 26 28 24 26 23 23 21 22 25 24 25 22 22 20 22 21 20 19 22 18 22 19 21 22 20 19 25 22 21 21 21 20 20 21 23 25 23 25 26 25 21 21 19 19 19 19 19 14 20 18 18 20 15 18 16 14 14 10 12 15 13 
30 28 31 30 25 28 28 26 23 26 27 26 26 25 27 26 24 22 25 30 26 24 27 26 21 21 22 27 21 20 23 23 23 20 19 23 23 20 19 22 17 19 21 21 21 20 20 21 21 21 19 21 23 26 24 22 26 30 27 22 24 20 18 18 17 15 17 19 17 18 17 15 17 15 15 11 9 14 13 19 
32 30 30 28 28 25 27 27 25 25 29 25 27 29 25 26 25 27 28 28 24 26 27 25 24 24 24 25 25 24 23 24 25 23 24 22 24 27 18 22 20 23 22 23 21 19 21 20 22 19 20 20 27 25 23 20 23 26 24 22 23 20 18 17 17 19 17 19 20 14 15 14 17 13 12 12 15 11 11 13 
31 27 28 31 28 30 29 23 28 24 26 27 27 25 24 24 24 28 28 29 28 29 29 27 23 28 23 23 21 23 24 23 22 20 22 19 24 26 21 21 22 19 21 21 18 20 20 22 22 22 20 22 23 23 24 23 23 19 20 24 20 19 18 17 16 15 18 23 19 18 14 18 16 11 14 13 13 11 13 12 
31 27 28 26 25 29 30 25 23 25 27 28 27 27 27 24 27 27 25 25 29 28 31 24 24 28 26 24 23 21 31 25 24 21 19 19 22 21 20 23 21 25 23 23 18 20 17 20 21 20 20 23 21 23 23 21 21 21 23 21 20 19 18 18 17 18 18 23 17 15 17 16 13 14 13 14 11 12 10 13 
32 25 28 31 27 24 28 26 26 25 26 27 35 29 27 27 26 26 24 26 26 28 26 23 23 24 24 24 19 22 24 19 25 23 17 22 21 24 20 19 20 24 17 19 19 20 19 19 20 18 20 21 19 21 21 20 20 21 25 20 19 17 19 21 18 20 18 18 17 20 16 13 16 17 17 13 7 13 14 11 
29 27 29 28 28 30 28 27 28 28 25 28 26 28 30 26 26 26 29 26 26 24 26 23 24 24 22 23 19 22 23 19 23 19 19 21 24 18 21 21 18 19 18 18 13 18 17 19 20 25 21 22 22 24 20 16 21 21 21 21 21 20 22 21 22 19 16 19 19 18 17 18 15 16 15 12 6 13 16 12 
29 28 31 29 28 26 31 32 29 26 29 31 27 29 25 28 29 28 29 26 25 26 24 24 22 22 22 21 18 19 20 23 21 18 19 22 24 22 18 21 18 17 18 20 16 20 20 21 21 23 23 20 22 21 21 19 19 16 21 21 19 20 22 23 21 16 21 24 19 18 17 14 19 14 17 12 8 16 16 13 
30 32 31 28 24 28 30 24 32 30 26 30 30 25 26 24 28 26 27 27 27 28 25 23 22 23 22 20 20 18 20 19 17 19 21 20 20 21 15 17 15 16 21 20 23 20 22 20 23 21 20 21 19 22 18 17 21 21 23 20 17 17 15 19 20 20 18 18 20 17 12 12 17 21 16 13 10 12 17 14 
30 27 29 26 24 26 29 28 28 25 27 29 29 26 30 26 25 25 20 24 25 25 26 26 24 24 23 21 18 19 20 19 21 18 17 18 20 16 16 19 17 18 21 23 19 23 20 22 20 16 20 18 21 23 19 15 18 19 20 20 17 15 20 17 16 18 20 18 19 18 16 15 16 19 22 13 14 15 13 15 
28 25 27 27 23 27 32 28 28 27 27 26 27 27 27 27 26 31 26 28 24 25 26 24 21 21 24 23 19 20 18 18 20 21 20 18 20 17 17 16 16 17 23 18 17 18 19 20 18 18 18 18 18 20 18 16 17 16 19 19 20 18 18 17 16 18 15 16 18 15 16 16 17 16 21 12 14 12 16 17 
30 24 27 29 24 27 28 29 30 28 29 28 28 29 24 20 25 25 25 28 25 25 24 23 23 23 24 25 21 20 20 20 18 14 16 19 20 17 15 18 15 20 21 20 17 18 18 21 20 20 19 20 21 21 18 16 18 18 19 18 20 17 19 17 19 18 15 15 15 18 16 14 16 16 15 14 10 12 19 10 
30 26 27 28 27 28 27 31 24 27 28 29 27 28 24 25 24 26 26 28 23 27 22 23 21 24 22 21 21 19 22 15 18 15 15 17 20 18 16 18 16 15 20 19 18 18 19 20 18 19 18 21 20 19 18 16 17 14 16 19 19 16 16 20 18 16 17 14 16 16 14 12 13 15 16 11 9 12 16 11 
30 30 29 27 26 29 30 31 30 29 28 30 28 28 23 24 24 26 22 26 26 25 24 26 20 24 22 22 19 19 18 21 19 15 15 21 20 22 16 17 18 19 22 21 16 19 19 21 21 19 18 22 18 19 17 16 19 18 17 16 21 19 20 19 19 20 24 20 17 15 18 17 14 15 17 13 13 11 11 8 
31 28 28 26 24 25 30 28 24 26 26 29 25 28 26 24 26 24 25 26 25 22 27 22 23 24 23 21 19 20 21 19 17 15 21 18 22 19 17 17 16 20 25 22 20 17 15 22 22 19 20 21 18 21 20 13 20 18 18 20 22 18 17 22 19 21 15 20 20 18 14 14 13 12 12 13 10 10 12 9 
27 28 29 24 25 26 25 24 21 24 27 25 27 27 28 26 26 24 27 30 22 23 22 23 21 23 25 20 19 18 18 19 18 17 16 17 19 18 15 16 20 20 23 22 25 17 17 20 20 23 20 19 20 23 17 15 18 18 17 15 18 14 18 20 20 20 16 18 19 16 14 15 14 13 13 9 9 11 12 8 
26 29 24 29 25 28 25 27 28 25 26 27 27 25 24 26 24 24 24 26 23 21 19 22 22 20 23 22 21 20 20 19 16 13 18 18 17 19 14 18 16 20 23 17 21 18 17 18 15 19 18 19 18 21 17 17 19 19 19 17 15 15 18 19 14 18 17 20 20 17 15 13 16 12 14 12 10 10 13 9 
27 26 27 26 26 28 28 25 25 25 26 26 28 26 21 25 27 25 25 26 26 22 25 28 20 23 18 21 22 21 19 16 19 16 18 18 18 18 15 18 18 20 21 19 19 20 18 17 18 19 20 20 19 21 18 18 20 19 18 19 18 18 19 20 19 18 17 15 15 14 15 14 14 13 21 10 16 12 11 11 
28 26 31 27 21 25 25 29 20 25 25 29 29 28 24 24 26 26 26 28 23 21 24 23 25 23 20 22 23 21 20 21 19 18 19 18 18 20 14 17 13 19 21 21 17 22 17 20 16 20 19 22 20 19 19 17 18 19 18 18 21 19 17 18 19 17 18 18 16 16 13 14 16 13 16 12 15 10 12 10 
25 24 27 25 25 27 28 26 26 26 27 26 25 28 25 24 24 27 29 24 22 23 24 25 20 24 20 20 21 19 19 21 19 18 17 18 21 16 15 16 17 16 19 12 19 18 21 23 19 18 19 19 21 19 20 17 16 18 20 18 18 17 21 18 18 18 13 20 13 17 12 11 13 12 16 14 12 14 15 12 
27 28 27 28 25 23 28 24 23 24 27 27 26 26 26 24 24 28 28 27 23 23 23 21 20 19 17 20 18 17 21 19 17 17 16 17 19 17 15 13 17 16 20 18 18 19 17 19 19 19 14 17 22 21 17 17 18 18 21 15 20 16 16 17 17 19 17 16 13 14 14 12 14 18 13 14 13 15 11 10 
28 31 29 28 25 27 27 28 27 23 25 25 27 26 23 23 26 30 27 25 26 23 23 21 19 20 16 17 20 18 23 19 19 19 16 18 18 17 17 16 13 17 18 19 18 21 19 17 18 19 17 19 19 21 17 18 20 18 19 18 19 19 16 18 18 21 16 16 16 16 13 12 11 12 13 12 10 10 14 9 
27 30 30 25 27 24 29 26 26 21 27 27 24 22 26 25 26 29 23 29 25 25 24 22 21 18 16 16 16 16 18 19 16 18 16 18 17 21 17 17 14 19 19 16 15 15 19 19 19 19 17 19 19 20 19 17 19 17 19 16 15 14 14 18 16 17 17 19 16 17 13 14 10 13 10 12 11 12 12 11 
22 27 27 26 25 25 25 28 26 24 28 27 24 24 24 23 25 23 24 26 26 25 19 28 20 20 19 17 16 19 19 19 17 17 17 17 17 18 16 16 17 19 20 16 18 20 19 20 18 21 21 21 22 23 23 17 15 14 15 15 16 16 15 17 15 17 13 15 12 10 10 11 13 14 11 9 15 10 11 15 
30 26 25 23 24 26 24 23 26 24 27 27 28 29 23 24 22 23 23 24 22 22 22 24 21 21 28 17 16 16 18 17 21 19 18 21 17 17 14 15 14 13 18 16 20 19 21 19 21 17 24 25 22 25 18 16 16 13 14 16 15 15 14 13 12 15 14 15 9 12 11 12 0 13 16 12 9 15 20 14 
27 25 27 25 24 24 26 21 27 24 25 27 25 25 25 24 21 24 22 25 24 26 23 24 21 19 20 19 18 19 17 16 16 16 19 22 21 18 13 14 13 17 16 19 20 23 19 22 21 22 24 23 22 23 22 16 18 20 20 17 18 16 15 18 16 15 16 12 12 13 9 12 13 16 17 12 10 13 14 11 
29 27 28 24 23 24 22 24 23 22 25 28 24 27 29 25 24 26 24 25 24 24 25 20 26 21 22 18 17 18 16 16 16 18 15 23 21 18 15 20 17 16 17 18 21 19 21 24 18 20 21 20 21 23 24 15 19 19 20 14 16 18 16 18 15 16 16 14 13 12 10 10 13 9 11 9 11 11 8 13 
30 26 25 25 22 28 25 22 22 23 27 30 26 30 24 23 24 25 26 27 27 24 25 23 20 21 21 15 18 19 19 17 20 16 17 18 19 17 16 15 15 21 18 19 17 19 24 26 19 20 20 19 19 22 19 16 19 20 17 17 18 16 14 17 14 14 15 14 14 13 11 10 8 11 12 12 12 11 12 12 
25 24 23 26 19 23 23 26 22 23 21 27 27 28 25 24 26 24 25 26 29 24 25 23 20 20 19 19 16 16 17 17 18 17 16 17 21 20 14 13 16 15 17 19 20 20 22 22 22 17 20 20 21 23 17 14 17 16 14 15 17 16 16 18 16 17 17 14 15 13 11 10 12 10 12 11 10 11 10 10 
27 26 24 23 23 25 24 21 23 20 23 27 26 26 26 22 24 27 23 25 25 24 22 22 19 19 20 16 17 15 18 17 16 18 17 19 20 20 16 21 10 16 14 20 17 20 20 20 21 19 20 17 19 20 17 16 14 18 16 15 14 17 13 19 14 16 14 12 15 12 10 11 12 10 12 12 6 9 11 7 
27 25 23 21 20 23 24 23 20 20 23 29 26 21 23 23 25 26 27 23 24 22 24 20 22 18 19 15 15 15 17 13 17 12 14 15 14 17 13 14 13 16 20 15 18 22 17 18 18 18 18 19 16 18 16 13 14 17 15 17 17 14 16 21 12 13 14 12 11 13 12 10 12 11 10 7 7 9 5 2 
25 24 22 24 19 20 24 21 19 20 26 22 26 26 27 25 27 24 25 27 26 23 25 21 18 21 16 18 16 20 15 15 16 13 14 17 14 15 15 16 14 18 17 17 19 21 19 16 19 19 18 16 17 17 17 12 21 17 15 16 15 16 13 17 12 15 14 14 14 11 10 11 12 10 6 8 7 7 9 8 
28 24 25 20 20 20 21 23 21 25 25 26 22 26 26 26 26 26 26 26 23 26 28 24 19 20 17 18 17 19 14 16 16 14 16 15 17 19 13 18 15 16 16 18 19 18 18 18 18 19 17 17 17 16 16 17 20 19 17 18 16 17 16 19 14 12 13 15 13 11 8 11 8 13 10 7 11 7 7 8 
30 22 23 20 19 26 19 19 21 23 22 22 24 27 25 26 25 25 28 26 23 22 22 22 23 18 18 18 16 16 16 13 17 15 15 15 17 16 15 14 15 16 16 15 15 15 13 11 16 15 15 14 15 19 19 16 17 16 16 15 17 16 13 16 13 14 14 13 14 11 11 10 9 10 5 9 9 7 5 0 
28 24 24 20 24 22 23 24 21 23 26 25 26 26 24 24 24 26 23 24 23 22 23 22 19 21 14 15 16 14 15 15 16 14 15 15 17 18 16 15 11 16 16 18 18 16 16 17 15 12 17 14 19 21 18 15 19 15 19 15 19 16 15 17 16 15 11 13 15 12 10 8 7 12 7 10 9 7 7 4 
29 22 24 21 23 25 29 24 24 22 25 27 25 22 21 23 23 24 26 27 25 22 23 22 18 21 18 14 18 15 16 15 13 14 17 18 15 17 12 13 10 15 18 18 14 17 16 18 16 17 17 15 18 24 16 19 14 16 16 19 16 15 17 18 13 13 12 14 12 11 9 7 10 10 6 11 10 8 7 5 
30 24 25 27 23 26 25 28 24 22 22 24 25 22 19 22 21 21 23 24 19 23 20 19 21 19 18 13 16 13 16 17 12 15 14 17 15 14 12 11 14 13 15 15 15 17 16 18 16 12 17 16 14 18 20 13 20 18 22 17 14 15 15 13 14 10 14 11 14 11 12 10 7 7 9 8 8 4 6 8 
22 22 21 27 27 28 23 22 24 26 24 24 25 23 21 23 23 21 23 22 21 20 20 21 19 20 20 17 16 12 14 13 12 14 13 15 16 16 10 11 14 14 10 14 17 16 15 15 12 17 16 19 17 22 16 18 18 18 19 15 15 15 12 14 13 13 7 12 10 11 9 12 9 9 8 6 4 10 11 7 
28 20 20 23 20 25 27 24 22 20 28 26 24 20 21 23 21 24 23 25 22 21 18 18 19 18 20 18 17 12 14 14 10 11 10 12 13 14 8 11 11 12 16 15 16 16 15 17 14 15 17 16 15 18 18 17 20 20 19 15 16 13 14 13 9 11 12 12 10 11 12 8 8 7 9 6 6 7 8 8 
26 20 18 23 19 24 22 21 23 26 23 26 27 25 24 22 22 24 23 25 21 20 18 21 18 15 15 19 13 13 14 13 13 13 10 11 14 14 9 13 10 16 15 15 18 15 13 15 15 15 18 15 17 16 16 16 18 17 18 16 16 15 15 13 14 11 12 10 9 11 14 13 9 12 9 5 4 7 6 10 
22 23 20 20 18 22 21 23 22 23 25 26 32 22 24 22 21 26 25 30 25 21 19 18 14 18 15 15 13 11 14 13 14 11 12 11 15 12 9 14 11 17 17 13 18 14 16 16 16 14 15 16 15 18 17 17 17 14 14 14 13 13 16 10 12 10 9 11 12 10 11 7 10 9 9 9 5 8 5 6 
24 18 17 19 18 21 22 24 23 25 28 28 29 25 25 22 23 23 26 24 24 22 21 17 16 17 17 15 14 8 13 11 14 10 11 11 15 12 11 7 8 17 18 14 15 14 14 16 18 20 15 13 15 16 18 14 14 13 15 15 14 14 13 14 11 13 10 13 13 11 7 8 7 7 7 9 6 7 1 2 
23 17 15 20 17 18 20 23 21 31 23 24 24 22 21 18 20 20 22 24 25 23 23 17 16 15 12 11 15 11 12 12 13 12 12 11 15 13 10 8 8 16 20 13 14 15 13 15 16 15 14 17 16 19 15 13 14 16 18 15 15 12 14 15 13 8 10 13 11 3 4 7 8 7 7 7 5 8 0 1 
27 15 18 17 15 17 22 23 22 19 23 21 20 22 20 18 21 18 18 24 25 22 20 17 15 15 16 13 14 13 14 12 14 10 15 11 16 12 11 11 7 18 17 15 15 13 15 18 14 15 15 16 18 18 11 12 13 13 17 16 14 14 13 14 10 10 9 13 12 3 4 9 7 6 5 5 1 6 7 2 


