P2
80 60
128
118 120 115 124 120 119 116 116 118 117 118 118 117 115 115 115 111 109 111 112 117 115 112 113 112 111 113 116 110 109 114 116 117 115 115 111 115 114 112 113 118 117 119 118 117 112 108 116 117 111 110 114 110 115 113 113 109 115 122 114 111 111 113 108 110 114 109 108 108 104 105 104 107 108 112 108 107 107 103 106 
120 118 116 122 121 117 119 114 113 119 116 117 116 115 116 115 114 113 112 113 117 113 110 115 109 111 111 114 111 116 117 115 112 118 115 111 114 113 114 110 117 115 116 119 113 112 110 112 111 114 111 115 111 117 109 110 114 116 117 112 111 113 109 107 108 108 109 109 108 105 104 101 105 105 107 107 111 111 104 110 
118 121 116 119 117 113 116 115 115 114 116 115 117 113 116 113 112 115 111 112 113 111 112 114 109 114 110 115 111 115 114 116 114 113 117 113 115 112 113 114 111 115 116 114 112 108 108 112 109 114 115 114 108 112 108 107 110 114 110 110 109 109 106 109 108 108 105 108 105 106 104 103 104 103 105 110 102 107 106 107 
119 118 111 118 119 115 117 114 115 117 116 116 116 108 113 110 113 112 112 117 115 115 111 114 112 112 113 114 113 114 116 111 114 112 120 113 115 112 111 110 117 113 118 116 110 108 106 111 114 112 112 112 107 109 112 111 109 111 111 111 108 110 108 109 107 108 107 107 104 107 111 108 104 102 104 106 110 106 106 107 
120 116 114 119 114 115 119 118 116 114 119 115 112 112 115 112 110 114 113 113 114 111 111 115 113 112 114 116 112 113 114 112 112 113 114 112 114 112 112 113 114 115 115 115 113 110 108 113 110 115 115 112 108 115 111 112 110 111 114 109 109 112 109 110 109 112 110 109 105 108 107 102 103 103 107 107 106 110 106 109 
120 119 118 120 116 117 119 118 116 116 115 117 116 115 114 111 114 116 115 113 117 115 114 114 113 112 113 116 116 112 111 111 111 110 113 111 114 112 112 112 117 115 115 114 114 114 111 113 112 112 112 114 113 112 113 111 112 111 110 112 113 112 110 110 110 114 111 112 113 106 108 102 104 102 105 106 105 108 104 108 
123 120 118 118 120 119 118 120 123 115 119 120 113 113 114 115 117 116 114 116 117 113 115 113 114 111 110 113 109 112 115 113 111 112 115 115 115 114 112 115 117 115 112 114 114 113 108 110 113 108 112 117 111 114 112 113 115 115 111 112 114 113 112 108 110 109 109 109 110 105 104 105 102 105 104 105 105 109 104 107 
121 118 116 117 120 119 117 120 117 110 114 116 117 114 113 113 116 118 117 118 117 113 111 114 110 114 112 115 114 111 110 106 112 113 113 117 113 111 115 113 117 112 112 115 109 111 111 108 109 112 115 113 111 113 108 114 116 116 114 110 110 111 108 107 110 114 108 108 107 103 103 99 103 103 108 104 104 104 102 106 
126 122 118 121 120 117 120 121 116 113 115 115 116 112 114 113 114 117 117 116 112 113 111 111 114 112 115 116 116 113 114 110 111 111 115 114 113 110 112 115 112 112 113 112 110 107 109 109 111 109 111 113 109 113 111 112 113 110 113 113 110 109 110 108 115 110 110 109 107 105 106 101 102 104 103 104 104 106 105 102 
125 123 118 121 121 117 123 124 121 115 112 116 114 110 115 115 117 112 114 115 113 115 110 112 115 110 114 116 114 112 107 111 114 109 111 114 111 111 109 113 112 113 111 111 112 108 105 108 111 111 109 111 110 110 109 110 112 112 111 110 108 109 108 105 109 117 109 107 108 103 103 102 103 102 102 102 101 104 100 107 
125 119 116 124 123 120 126 122 119 117 112 118 116 114 114 113 110 112 114 114 110 112 112 114 113 113 111 115 112 109 110 116 112 111 109 110 110 114 114 113 114 111 111 107 105 106 106 107 109 110 112 111 111 111 108 112 110 106 109 108 110 109 104 104 108 111 109 107 109 105 102 100 104 103 104 101 102 104 100 102 
123 124 121 123 122 118 115 117 118 114 114 112 119 112 114 110 111 113 113 110 112 113 112 113 111 112 112 113 111 111 111 111 114 113 112 112 112 113 110 111 115 109 107 109 108 109 106 108 106 110 112 110 110 111 107 112 108 110 106 109 109 111 108 106 107 110 106 106 104 97 100 100 99 104 107 103 104 101 103 100 
126 122 115 125 120 118 118 115 114 110 113 114 113 114 114 112 110 113 109 112 111 111 112 112 113 113 110 112 108 112 111 111 111 113 112 114 107 111 113 109 113 109 108 109 109 107 109 111 108 109 110 111 109 106 111 111 108 108 111 108 108 110 111 105 107 109 108 102 103 101 92 97 98 105 104 100 103 107 101 101 
123 123 125 126 119 118 115 115 113 110 114 117 112 114 115 115 112 107 110 107 112 112 109 111 111 110 109 110 108 114 109 110 114 112 114 111 108 111 109 110 111 110 112 111 107 113 108 110 110 118 110 110 106 106 106 111 114 110 109 110 109 109 106 104 105 109 106 107 106 102 100 102 101 103 103 103 102 108 104 105 
124 125 122 124 122 116 118 116 113 111 115 115 114 112 113 111 111 110 113 106 111 111 110 111 108 110 109 112 112 110 109 108 112 111 111 108 110 109 109 114 113 111 111 114 112 111 110 111 112 114 113 113 108 109 109 110 115 128 112 111 109 107 104 104 103 107 109 106 109 105 107 103 102 103 103 103 101 107 102 105 
124 121 120 122 119 116 115 117 114 111 111 114 113 112 113 109 109 109 112 110 112 112 108 112 111 110 111 108 110 107 109 108 111 109 111 110 110 107 106 110 116 111 109 112 112 110 112 112 114 109 109 109 107 108 112 112 113 112 113 110 106 107 108 106 107 104 109 113 105 105 103 104 100 103 105 101 104 105 102 107 
124 125 122 121 119 113 113 113 115 110 110 111 112 110 116 111 108 110 109 106 111 107 109 109 111 110 107 112 111 112 110 110 111 113 112 109 113 111 108 113 112 110 108 110 113 118 115 115 110 110 108 112 111 110 111 113 114 113 115 107 107 110 105 105 104 107 110 109 109 106 106 101 103 102 101 99 100 106 101 102 
126 124 120 124 118 114 120 114 112 108 111 114 113 109 111 109 107 109 109 112 111 110 108 111 107 104 110 113 114 110 109 110 113 109 110 110 112 109 111 113 109 110 108 113 112 113 112 112 113 109 110 110 114 113 113 115 116 119 115 111 106 106 109 104 106 105 101 110 107 108 105 101 103 104 105 100 100 104 99 101 
123 122 119 122 121 116 115 114 113 109 112 112 113 109 112 109 106 110 113 109 110 111 110 112 110 108 111 112 111 107 110 111 112 111 112 109 108 109 110 111 111 110 108 113 111 112 110 113 113 109 111 112 115 111 112 112 117 113 111 107 107 107 109 104 104 110 109 106 105 107 103 102 101 99 100 101 100 105 100 100 
126 123 117 118 118 121 114 115 115 110 114 115 115 109 111 108 109 111 112 112 114 115 112 111 113 113 112 113 112 111 113 111 108 109 111 110 109 111 107 108 115 110 108 111 107 110 112 113 112 111 111 114 111 110 112 113 110 108 109 108 105 109 110 107 108 112 109 104 106 105 103 102 101 101 98 102 99 103 104 105 
121 122 117 120 117 116 118 112 113 116 113 113 118 111 110 111 110 113 110 110 111 111 110 112 111 111 109 115 110 109 118 113 109 107 113 111 112 112 110 108 113 114 110 112 111 107 113 111 111 109 111 113 114 110 111 114 110 109 109 107 106 108 109 105 109 111 107 106 105 109 109 102 101 100 107 99 104 104 103 104 
121 125 119 118 117 113 115 114 112 113 111 114 119 111 111 109 108 110 109 113 115 111 112 110 111 109 110 111 109 109 111 111 111 110 111 110 109 108 106 112 110 112 108 109 108 110 110 114 109 110 113 111 109 110 106 111 109 110 111 109 105 106 103 107 112 112 111 105 104 105 106 100 101 102 102 101 101 102 101 103 
121 123 120 123 115 112 113 116 112 114 112 113 112 110 112 112 109 111 109 112 116 110 107 107 111 110 110 110 107 106 106 108 109 112 108 112 106 107 105 111 112 107 106 107 108 107 111 110 110 110 110 109 107 106 107 106 108 104 107 108 108 105 109 106 109 113 109 106 106 106 101 105 103 100 98 101 99 103 101 100 
120 121 116 120 117 113 115 120 116 108 112 112 113 110 109 110 110 108 110 110 112 108 107 108 108 108 107 109 107 105 110 110 109 107 108 106 109 109 105 109 109 108 105 108 107 109 109 109 109 114 110 112 107 108 107 105 109 104 106 106 106 106 105 106 105 110 110 103 104 103 104 102 99 100 99 102 101 102 96 103 
123 122 118 117 113 115 118 117 116 114 113 113 115 111 110 108 109 108 111 115 114 112 106 110 110 106 108 108 107 107 111 108 107 105 110 106 106 109 107 107 104 104 110 108 110 109 109 110 111 111 108 110 105 105 107 109 108 106 106 109 102 107 105 107 108 109 110 106 106 106 101 100 98 106 106 100 102 105 102 104 
121 119 117 117 116 113 114 114 113 111 111 107 113 109 112 108 109 111 111 111 110 110 110 113 111 107 110 108 105 107 108 107 108 105 107 107 107 106 105 109 104 106 106 111 110 110 110 113 110 107 108 108 107 107 106 106 106 108 110 107 104 105 106 105 108 106 107 106 104 106 103 101 99 103 103 98 99 104 105 106 
121 119 117 118 119 113 116 112 114 111 110 111 113 112 112 107 107 111 109 108 114 109 111 109 111 108 108 108 106 106 107 106 110 107 111 106 108 103 105 107 107 104 106 110 109 110 109 109 107 106 109 108 103 106 104 106 105 103 107 104 106 104 104 105 107 109 106 105 103 105 102 101 101 103 102 98 102 101 99 105 
119 117 119 121 118 114 115 119 116 110 112 112 114 109 113 110 109 109 107 109 111 109 108 109 110 106 110 114 107 103 106 106 103 105 105 106 107 106 106 109 107 106 108 112 109 109 109 109 105 107 108 110 107 105 104 104 105 104 103 104 106 107 105 103 105 105 106 105 104 102 102 102 101 102 99 99 98 102 101 101 
120 118 115 119 114 113 115 114 115 112 113 110 113 114 112 107 110 111 110 113 108 108 108 107 108 108 107 111 109 108 107 105 106 104 106 107 106 106 105 110 109 105 107 113 111 109 107 109 108 108 109 95 103 105 104 107 103 105 99 103 102 105 106 108 106 107 105 102 107 104 103 103 99 98 100 100 102 103 100 100 
125 123 120 118 117 113 115 115 116 111 112 112 115 111 110 109 107 111 109 111 108 109 108 112 106 109 110 108 110 108 106 111 108 110 109 108 108 110 104 102 108 110 108 110 110 107 107 105 108 110 108 107 105 103 103 106 103 105 103 100 107 105 108 106 107 109 101 105 104 104 104 100 103 97 98 100 99 103 100 105 
122 120 120 120 115 111 113 115 112 112 115 115 113 111 109 105 109 107 108 105 109 107 108 112 108 109 108 108 107 106 106 106 108 108 107 106 103 103 105 107 108 107 110 108 107 104 106 108 107 108 109 107 106 103 106 105 104 104 102 101 102 104 109 107 109 108 103 105 103 102 99 102 100 103 99 98 98 101 98 101 
120 121 114 118 113 111 114 113 109 110 112 112 114 111 113 108 111 110 108 107 107 106 105 109 106 109 114 108 105 107 106 107 105 106 108 107 107 107 104 108 112 113 108 112 109 105 108 105 106 111 107 107 103 104 102 104 102 103 101 101 100 102 107 106 108 111 108 102 104 102 101 103 100 101 98 96 98 100 97 102 
120 118 115 113 113 113 113 113 108 110 111 114 113 108 112 110 107 111 107 108 109 108 109 107 108 110 107 109 109 110 107 105 104 106 104 104 105 106 107 109 109 109 109 109 108 106 105 105 110 108 106 105 99 102 102 107 102 103 104 103 99 101 103 103 108 111 103 104 105 101 101 99 102 103 100 99 99 99 99 99 
125 122 119 116 116 112 112 112 113 110 113 111 115 109 112 109 108 108 108 108 109 109 110 109 109 108 108 108 108 108 108 103 103 106 108 104 105 104 104 107 109 108 107 110 111 106 109 106 105 107 106 105 105 103 104 107 106 106 103 103 100 105 103 104 105 106 110 103 104 103 103 95 102 103 103 99 98 99 101 102 
116 116 116 118 114 110 111 112 111 108 110 111 114 111 110 108 109 107 110 107 107 108 107 109 107 109 108 110 109 110 107 105 108 106 105 106 105 106 104 109 103 109 107 108 108 108 104 105 104 102 105 106 105 99 105 102 104 102 102 98 99 103 103 102 104 101 105 105 103 104 102 100 99 101 106 100 100 102 97 99 
119 115 118 118 117 109 114 112 110 109 111 113 111 109 110 107 106 108 111 109 109 109 108 111 109 107 106 109 110 109 107 109 108 108 110 105 107 106 110 108 108 106 108 106 106 106 110 109 102 101 106 106 104 106 103 107 106 101 104 105 103 102 106 101 104 105 106 106 107 102 99 100 99 101 104 100 103 103 97 97 
117 117 119 119 115 113 111 111 109 109 110 111 112 111 109 107 108 111 112 107 104 105 107 112 107 106 105 107 106 104 107 105 109 106 106 106 105 107 108 110 107 106 105 106 103 107 108 103 106 103 103 103 105 104 103 104 103 105 104 101 100 102 101 101 102 106 103 102 103 101 100 95 99 98 99 96 97 98 94 98 
119 120 118 118 114 111 114 112 110 111 109 107 115 111 109 106 109 113 110 107 109 109 108 107 106 104 106 104 107 105 109 106 105 105 109 105 102 105 104 104 105 105 105 106 108 108 104 105 102 101 102 105 101 104 103 102 103 100 102 102 100 100 99 98 104 108 101 101 100 99 98 96 98 94 95 95 101 100 97 96 
120 117 119 118 121 116 114 115 115 108 113 110 112 108 108 109 108 109 110 109 109 109 109 111 107 107 104 107 106 104 106 104 106 109 109 107 106 106 109 108 106 106 106 107 111 108 109 106 103 104 103 105 105 104 105 104 103 101 102 97 98 101 102 100 101 105 106 106 101 99 99 96 98 97 94 95 93 101 95 99 
120 118 117 119 118 118 118 111 114 110 112 110 114 108 108 109 106 107 108 109 109 108 112 112 107 107 107 106 108 105 106 105 106 106 108 103 105 106 105 107 106 109 108 108 109 107 109 107 104 105 107 106 104 100 104 105 103 100 98 99 98 99 101 100 99 104 101 104 100 101 99 97 95 101 102 95 93 103 99 100 
119 117 113 119 120 116 110 111 111 106 112 111 114 111 107 105 106 108 108 110 106 109 106 111 108 106 104 104 104 102 104 102 109 108 106 104 104 104 102 102 103 104 104 104 107 111 108 108 106 104 107 111 103 104 104 100 100 99 97 98 100 100 100 97 99 97 98 98 102 97 94 95 98 95 95 95 93 101 102 101 
121 119 122 118 119 109 109 111 108 107 109 112 111 108 108 106 108 107 108 109 109 108 107 111 114 105 106 106 103 104 104 103 105 108 108 107 105 104 105 105 103 106 106 107 109 105 107 110 106 107 108 106 103 102 105 101 103 100 99 100 100 100 99 100 103 100 101 97 99 97 94 96 95 96 96 98 94 102 96 100 
121 119 118 118 119 115 113 111 110 109 109 114 113 109 112 110 106 105 110 108 107 108 110 114 114 107 105 107 105 106 104 101 107 108 108 110 107 105 102 106 105 105 102 107 108 109 112 107 107 100 107 105 104 103 102 103 101 100 98 102 101 100 101 102 100 104 100 98 99 96 94 93 96 96 100 94 96 96 97 92 
119 121 113 117 120 115 114 112 107 111 108 115 112 110 110 105 107 106 109 112 110 109 105 110 108 108 108 103 106 109 107 106 104 103 103 105 107 106 103 106 104 107 103 108 107 110 112 115 106 101 105 102 101 103 100 100 100 100 101 99 102 100 97 98 103 106 103 98 101 95 94 97 94 97 95 100 95 98 88 78 
118 117 112 120 116 110 112 109 106 106 109 111 112 110 110 106 108 108 108 107 111 107 107 107 109 106 102 107 105 104 109 102 106 103 106 103 105 103 104 107 105 104 106 104 110 108 108 108 104 100 102 101 100 100 96 98 99 96 97 102 96 96 99 97 96 102 100 98 97 94 92 96 95 93 96 102 99 99 84 53 
122 114 113 114 114 113 110 108 109 110 107 107 110 110 111 107 108 106 108 108 109 103 106 104 105 105 103 104 104 105 105 104 104 105 103 103 103 100 101 103 103 101 101 106 108 108 105 103 101 102 101 100 96 96 94 97 98 94 97 97 98 98 98 98 99 98 100 98 98 95 94 93 92 95 97 95 90 95 81 45 
115 117 114 117 113 110 111 111 109 108 109 109 110 111 109 108 107 106 107 108 106 105 108 104 102 103 105 101 105 102 102 101 102 104 103 103 105 102 102 102 102 102 102 103 107 108 104 104 100 102 98 103 96 95 93 97 93 95 96 94 96 94 99 95 97 99 96 98 95 92 91 94 92 94 99 92 92 91 79 39 
116 116 112 113 114 112 110 107 107 109 108 109 113 113 109 108 108 111 107 110 107 109 108 106 104 104 101 104 104 104 101 101 102 101 107 102 104 102 101 102 102 102 98 106 104 107 107 103 101 99 98 100 98 98 95 104 99 94 96 95 97 93 97 99 97 101 99 92 96 92 92 93 92 94 96 95 92 90 82 32 
117 115 112 114 113 112 111 108 111 108 108 112 112 110 112 107 109 111 105 107 111 108 110 110 107 103 103 104 102 100 101 102 101 101 101 101 103 103 102 101 102 102 97 104 105 104 104 103 98 98 97 99 99 96 97 102 99 97 96 96 97 93 94 96 97 99 98 93 94 92 90 89 90 94 96 89 91 90 78 21 
119 117 110 114 118 110 112 109 110 108 112 111 110 108 109 112 110 107 109 107 109 110 107 110 105 105 102 104 106 102 101 102 103 101 102 101 101 103 101 102 104 100 100 103 105 102 102 101 100 97 99 99 94 99 98 101 94 95 98 95 93 95 93 92 96 97 95 92 95 90 89 88 87 91 91 88 91 87 74 12 
117 109 111 114 118 110 114 110 111 111 108 111 111 106 107 106 111 108 106 108 108 107 106 106 103 102 102 103 104 103 100 99 102 102 103 102 102 101 102 99 100 101 101 104 106 104 101 101 96 98 100 96 98 98 96 95 96 98 93 95 94 94 94 91 92 94 92 90 93 89 89 87 85 90 90 88 93 84 70 9 
118 113 110 109 119 112 117 109 108 108 106 108 110 106 107 105 107 107 109 109 111 106 107 109 103 103 103 104 102 103 103 100 97 101 107 100 100 99 97 98 101 99 101 100 104 103 99 99 96 95 96 97 95 103 95 98 94 95 95 92 92 92 89 93 91 92 91 93 89 87 88 89 87 88 89 88 85 90 70 8 
121 114 115 115 118 116 113 111 110 107 111 112 109 104 105 102 107 106 109 108 107 107 106 107 107 102 102 105 102 101 101 101 101 101 103 102 103 99 100 96 104 97 96 101 107 105 98 99 97 95 98 98 98 98 97 99 96 93 97 92 92 91 90 87 92 98 91 91 95 87 89 84 84 89 89 85 85 82 62 0 
114 114 112 115 121 121 113 113 110 105 109 111 109 108 105 103 104 106 106 103 106 101 103 109 105 105 104 108 104 102 99 100 101 100 99 99 100 97 98 100 98 99 97 102 103 103 103 100 96 96 97 96 98 98 103 100 100 95 94 90 91 91 90 88 90 94 93 90 92 89 91 87 85 89 87 84 86 82 63 7 
117 113 111 117 118 113 116 112 108 109 114 108 110 109 109 106 106 103 104 106 108 100 103 104 108 105 107 104 103 99 97 100 99 101 101 100 101 99 96 100 100 102 101 99 105 102 98 98 91 93 97 95 100 99 100 98 95 90 91 92 94 95 92 90 90 93 92 91 91 89 88 83 82 89 88 88 84 83 69 42 
117 114 112 112 115 110 113 110 104 105 110 111 114 108 110 106 106 105 105 105 108 105 102 107 103 101 105 102 99 98 99 97 98 99 100 101 100 96 96 99 102 101 98 104 106 98 98 94 93 94 92 97 97 98 100 95 98 91 93 92 88 91 90 88 94 91 89 89 86 90 90 87 85 86 92 88 86 79 73 69 
112 116 112 116 111 109 110 109 105 108 108 112 120 109 109 103 104 105 106 107 105 103 108 101 101 99 99 101 100 98 100 96 98 97 98 100 97 94 96 99 102 98 98 99 98 92 91 92 94 94 95 95 94 93 94 97 93 93 89 87 88 87 87 85 86 86 88 90 90 87 84 85 83 88 90 90 86 82 74 69 
112 113 108 113 114 111 109 110 106 107 105 109 114 108 103 102 100 105 107 105 105 104 107 103 100 100 104 102 100 100 96 100 99 97 99 97 98 98 95 98 98 98 95 99 96 91 89 93 92 93 94 92 96 93 91 94 90 88 89 89 87 85 86 86 87 92 87 81 83 86 83 84 81 87 86 86 84 85 75 77 
113 110 109 115 112 110 112 108 105 108 108 107 111 105 104 103 103 104 104 104 104 103 103 102 101 101 98 100 100 96 98 94 99 101 97 99 100 98 97 97 97 98 100 100 93 89 89 95 90 93 92 95 93 92 95 91 89 86 88 91 85 87 86 85 88 88 88 83 80 84 81 84 85 83 86 82 80 78 73 70 
116 113 109 112 111 108 107 108 104 107 107 107 108 105 100 101 102 105 105 106 102 104 104 101 101 98 99 104 97 96 98 95 100 101 102 101 102 96 99 94 100 97 97 97 95 91 91 93 94 93 92 94 92 93 92 94 93 87 90 86 86 86 85 88 87 88 89 85 83 83 85 79 81 85 87 84 81 78 74 69 


