P2
80 60
36
20 25 23 30 21 19 20 22 20 22 24 23 22 23 25 25 23 24 23 26 23 22 21 19 20 24 22 21 21 21 21 21 23 24 21 16 22 18 18 23 23 22 21 16 21 20 23 23 24 24 22 24 21 24 21 22 20 17 19 17 19 21 23 17 16 18 17 13 16 16 12 15 15 14 16 14 18 16 11 12 
25 22 26 26 24 25 23 28 23 26 27 24 22 18 29 28 23 21 22 24 22 20 22 21 23 23 26 20 21 24 25 24 24 21 24 22 21 18 20 21 23 23 21 22 20 24 23 27 20 22 24 23 22 24 24 22 23 21 21 17 21 19 16 18 16 14 14 14 17 12 12 14 14 16 19 21 21 16 9 8 
28 32 21 28 18 23 25 27 27 28 30 23 21 24 29 26 23 21 23 25 26 23 21 20 20 22 24 20 23 23 22 25 26 23 22 23 22 22 22 21 19 22 19 20 20 23 28 23 23 22 22 21 20 22 20 22 22 20 18 19 19 19 18 17 17 13 13 14 17 12 16 16 12 14 14 17 31 13 15 15 
25 34 23 25 22 25 23 26 26 23 30 25 20 22 26 24 24 21 24 25 24 19 20 21 20 23 21 23 24 23 21 24 23 20 21 22 25 21 23 20 20 21 18 20 22 24 25 23 26 24 20 21 20 21 19 18 17 18 20 17 24 22 20 19 18 15 15 17 12 15 15 20 12 13 18 13 13 13 13 12 
30 24 22 25 20 22 24 27 28 24 24 20 22 23 27 28 27 25 29 24 24 21 22 24 23 22 25 21 20 21 20 23 22 20 17 19 22 21 22 19 22 22 24 24 22 26 26 24 20 25 21 23 23 21 19 19 19 18 22 20 20 20 18 19 16 17 17 15 16 15 13 19 15 12 18 15 13 14 14 11 
23 27 22 24 23 22 23 25 25 22 23 21 23 23 23 21 22 24 26 27 23 25 21 23 25 22 24 22 23 20 19 18 22 21 22 18 23 20 22 22 23 25 25 22 20 24 28 23 23 22 21 20 24 20 22 21 18 22 22 23 23 22 21 17 18 17 18 16 19 18 18 19 12 11 13 14 12 14 12 17 
24 24 21 23 18 23 26 24 22 23 27 23 24 21 22 24 27 25 21 25 21 22 27 25 21 23 25 25 23 21 16 19 23 21 21 22 22 22 21 23 22 25 21 24 21 22 24 21 22 21 24 25 23 25 23 20 21 24 23 22 21 22 20 17 17 16 18 18 19 15 13 12 16 13 16 15 12 13 12 12 
25 30 23 25 24 28 24 27 23 22 26 23 21 22 20 27 26 25 25 24 26 26 23 23 20 25 22 23 22 25 20 17 21 20 22 26 22 18 22 22 26 22 18 21 20 23 26 23 22 22 21 22 23 21 21 22 19 22 24 23 19 20 19 18 17 19 17 16 16 12 11 13 16 15 15 13 14 12 12 13 
26 29 25 25 24 22 27 25 24 23 23 23 24 25 23 19 26 24 23 25 26 22 26 24 24 24 23 21 25 20 22 20 23 22 21 23 23 18 22 23 20 22 23 21 22 20 24 24 22 21 21 22 19 25 20 19 21 20 21 21 21 21 22 16 17 21 17 16 17 14 12 13 16 12 15 12 11 15 9 10 
27 28 26 26 29 25 27 26 24 24 25 21 23 23 23 28 29 23 26 22 23 24 26 24 21 24 23 22 20 25 24 23 25 21 23 22 19 19 19 21 18 18 19 19 22 21 21 21 23 23 18 20 19 20 19 19 16 20 21 22 22 20 17 16 16 16 17 14 18 13 11 17 14 14 15 11 14 15 16 17 
27 31 28 29 29 26 30 30 23 29 25 26 25 21 23 24 22 27 21 21 23 23 24 21 19 20 19 22 25 21 17 21 24 22 20 17 20 15 21 20 19 22 19 19 18 19 21 21 23 18 22 19 19 20 18 21 17 17 22 17 20 17 16 17 15 16 15 15 15 12 9 15 13 11 16 15 13 12 12 13 
28 33 30 28 24 25 24 31 25 23 24 24 22 21 20 19 20 24 20 23 21 22 20 19 20 22 21 24 22 22 20 22 22 20 20 20 19 20 22 21 23 20 21 16 20 20 23 19 20 20 21 21 19 18 18 21 19 16 19 19 18 19 18 17 16 17 15 16 14 11 14 13 11 15 12 15 16 14 8 10 
21 28 36 35 24 28 23 26 23 22 24 22 21 22 24 20 22 21 18 21 22 23 22 20 19 21 19 20 22 23 20 20 26 21 17 19 19 17 20 21 22 21 19 19 20 24 24 20 22 22 21 20 16 19 18 17 18 20 21 18 17 18 23 19 15 17 16 13 10 13 0 17 9 11 12 12 18 16 11 12 
27 30 30 28 29 24 28 25 23 23 21 23 20 22 25 22 20 21 19 19 26 21 21 22 19 19 20 16 22 20 21 21 23 22 20 18 21 23 18 21 23 20 20 19 20 21 21 22 18 24 20 22 17 17 21 22 21 21 22 19 18 19 19 15 14 16 16 15 12 11 12 13 13 11 14 15 16 13 9 10 
30 30 26 28 26 22 26 25 23 23 22 21 24 21 25 21 19 20 20 18 22 22 21 21 19 20 19 20 19 20 20 22 24 21 20 18 20 22 19 20 22 21 19 20 21 21 21 21 19 19 20 19 19 20 19 20 23 24 24 17 19 20 19 16 16 17 16 17 16 14 13 10 11 12 14 14 16 10 16 10 
27 30 28 31 23 24 21 30 23 21 24 22 20 20 20 23 22 19 20 24 21 20 23 24 22 22 21 22 22 23 20 22 23 19 18 23 21 19 20 22 20 23 21 19 21 19 21 18 17 22 18 18 22 20 20 20 20 23 24 19 17 22 21 18 18 18 19 13 17 16 13 15 11 13 14 13 18 16 17 13 
28 33 28 30 24 21 24 30 23 19 24 24 24 21 22 23 19 23 21 21 22 22 21 21 23 23 23 23 21 25 19 21 24 21 19 21 20 20 20 18 19 20 21 20 19 22 20 18 17 18 19 22 19 20 18 23 20 23 22 21 19 20 17 18 15 14 17 16 16 16 14 16 17 11 12 12 14 14 15 10 
31 29 31 29 25 27 25 26 27 20 22 24 20 20 22 24 21 19 22 23 22 20 22 22 21 18 19 20 21 23 19 23 23 21 22 19 18 16 20 24 19 18 18 19 22 22 22 20 19 17 17 20 17 22 24 24 21 28 21 22 17 17 17 17 17 14 13 16 18 14 15 15 14 14 12 13 13 16 16 15 
24 32 27 33 26 25 26 23 23 21 24 23 23 19 25 26 18 23 25 23 22 20 21 26 18 20 23 21 23 20 23 18 24 21 23 21 19 16 19 20 21 22 18 21 22 20 21 18 19 18 18 20 22 21 22 20 21 23 21 20 19 18 15 19 20 16 16 18 16 15 16 20 15 12 12 14 12 15 9 10 
25 28 26 25 26 26 23 25 22 21 21 23 21 19 23 26 23 22 25 24 26 23 27 23 20 27 19 23 22 19 23 22 26 21 19 19 19 18 20 20 23 20 21 18 21 18 17 19 19 19 17 22 20 21 17 17 21 17 19 24 17 19 18 16 18 17 13 13 12 15 15 16 14 11 13 13 16 13 8 11 
26 30 27 28 27 28 24 25 23 22 25 22 20 21 23 18 23 22 26 22 26 24 25 24 20 24 20 19 22 23 32 23 22 16 18 19 20 20 21 18 21 25 19 17 18 17 18 17 16 19 19 21 19 19 19 21 19 20 18 20 18 18 19 17 14 17 15 16 15 16 14 17 18 12 12 12 15 13 11 13 
25 30 23 28 24 22 26 26 22 20 24 20 28 25 22 20 21 21 21 27 21 24 24 23 23 22 20 18 22 20 23 22 22 20 17 18 20 19 22 18 18 25 17 16 18 16 19 18 17 19 18 17 20 25 18 18 19 17 21 17 18 19 20 19 22 18 15 16 15 15 18 18 15 12 13 13 12 9 11 10 
25 31 24 27 22 22 27 26 23 20 22 23 23 21 23 20 21 20 22 22 22 21 21 19 20 19 21 18 20 16 21 23 22 16 18 17 18 16 17 22 24 19 16 16 23 17 20 19 16 20 16 18 16 19 21 18 17 18 19 18 18 16 20 17 17 18 15 19 15 16 14 15 14 11 12 10 9 9 13 14 
24 26 24 25 22 24 27 30 21 22 25 23 21 20 24 25 21 24 21 20 20 20 19 21 19 17 20 21 20 16 19 20 20 18 17 19 17 14 20 19 19 21 16 15 20 16 22 15 17 23 17 19 18 15 15 16 19 15 17 15 19 17 17 16 16 15 20 16 13 16 15 16 14 13 14 10 9 10 12 13 
23 24 22 22 23 24 23 25 27 24 26 22 23 21 24 19 19 20 21 21 21 22 21 20 20 17 19 19 22 19 15 17 18 14 19 15 16 17 15 18 17 20 18 15 19 18 18 15 18 16 17 18 17 19 16 16 18 17 13 15 17 15 18 16 19 15 17 16 11 14 17 16 14 11 12 9 10 12 13 10 
23 24 24 21 22 21 23 26 22 22 23 24 22 22 26 21 21 19 21 20 19 21 23 23 18 24 20 20 17 16 17 16 16 18 15 16 19 16 16 18 20 19 18 15 18 19 19 19 15 14 16 18 21 18 15 16 14 17 22 14 17 17 17 14 14 16 16 16 14 12 11 14 12 14 15 12 6 14 11 16 
22 24 25 27 27 26 28 24 24 24 22 21 22 22 23 23 22 20 22 19 19 18 25 22 20 22 19 19 21 19 20 19 18 16 17 17 18 15 14 17 20 19 17 16 18 18 18 17 17 15 15 19 18 20 15 18 15 15 16 14 18 18 18 12 14 18 17 14 11 14 13 11 12 14 12 13 9 15 10 16 
24 23 25 28 23 24 28 26 25 27 22 20 21 20 22 23 20 18 22 22 20 20 22 19 21 24 23 22 18 20 19 17 18 15 17 16 17 16 16 16 18 18 18 18 18 18 17 17 18 16 15 17 16 15 15 14 16 15 13 15 19 15 15 17 15 15 19 17 12 17 15 15 11 14 12 9 12 12 13 12 
25 28 27 26 21 22 22 24 25 25 26 20 24 23 20 24 20 20 23 26 20 17 20 22 18 26 20 20 23 21 22 17 19 18 17 16 18 15 17 17 20 19 18 17 16 17 19 17 17 21 16 14 17 13 17 18 14 16 19 14 16 17 18 18 15 14 16 16 14 17 14 14 13 8 16 10 12 12 11 14 
27 31 30 25 22 25 20 23 26 21 22 22 22 22 23 22 19 22 24 23 23 20 22 20 18 22 20 18 22 21 22 19 18 19 18 16 18 17 16 17 20 21 17 17 17 16 19 16 18 17 19 13 15 15 16 22 14 15 15 13 19 20 18 17 16 14 14 19 14 15 14 12 13 11 11 14 9 12 11 11 
27 29 27 30 25 24 24 23 24 22 25 19 23 24 24 22 24 19 22 22 21 22 23 26 19 20 20 23 20 20 19 17 17 17 20 16 18 15 19 18 16 21 20 21 20 14 20 17 18 20 18 16 17 16 14 17 14 17 10 11 16 18 18 17 19 16 20 18 16 17 15 13 15 14 12 11 13 13 11 10 
25 26 28 27 19 24 23 23 21 23 27 24 23 20 23 23 23 22 21 24 21 20 25 25 19 19 22 20 20 20 21 21 19 17 15 15 15 14 15 19 20 22 19 20 19 19 19 19 19 22 18 15 16 18 17 17 16 15 16 14 13 15 19 15 18 17 17 17 16 15 14 14 14 10 12 11 12 12 14 13 
22 25 26 27 24 24 24 23 25 22 25 24 23 22 21 22 22 21 22 22 19 20 22 24 19 21 20 19 21 19 19 19 20 17 16 18 17 15 16 20 18 22 20 19 17 20 17 18 17 16 18 16 16 15 14 17 15 17 15 16 17 17 16 19 16 17 17 14 17 14 12 13 14 13 15 12 10 11 11 12 
24 24 24 26 24 25 21 25 22 21 24 21 22 20 24 24 20 21 24 20 20 22 25 26 21 23 22 18 20 24 18 19 19 17 17 15 14 16 17 19 20 22 19 18 22 22 20 17 18 17 18 19 18 18 17 18 17 18 16 12 17 17 17 16 18 16 21 16 15 13 10 14 13 11 14 12 11 11 10 14 
25 24 26 25 25 21 23 23 25 21 20 22 21 25 25 24 24 23 21 24 23 20 22 20 24 21 22 20 21 19 19 18 20 16 19 21 20 14 18 16 19 20 20 20 21 25 23 17 18 17 14 17 15 16 18 18 18 17 16 11 16 15 16 18 20 19 17 14 16 14 12 15 16 11 12 12 14 12 14 17 
26 27 21 28 22 24 23 23 24 21 22 20 22 23 25 23 23 23 21 22 17 18 22 21 19 19 20 21 19 18 19 20 21 23 16 21 20 15 16 19 20 22 20 17 18 22 23 23 19 19 19 21 18 19 17 19 17 17 14 16 18 15 17 16 20 17 14 15 16 16 9 17 17 13 15 14 13 15 13 16 
26 27 24 29 23 27 24 27 24 19 20 21 23 23 24 21 22 22 23 22 22 21 22 22 19 21 20 21 17 19 20 20 20 19 15 15 19 15 14 19 20 17 18 17 19 19 22 17 18 17 18 20 18 18 19 17 17 15 13 14 16 15 18 17 16 15 14 17 17 13 12 15 14 12 13 12 14 12 8 13 
27 30 27 28 26 24 25 25 22 21 25 24 25 20 24 26 24 29 22 21 23 21 21 23 21 22 22 24 19 18 21 17 19 18 17 16 16 14 18 18 21 22 18 18 23 20 24 19 17 18 20 18 21 16 20 19 18 15 15 14 16 16 16 16 16 16 19 14 14 15 9 17 15 15 15 13 17 13 15 15 
27 26 31 25 25 22 22 25 22 23 26 24 24 26 24 21 24 24 21 24 18 21 22 21 20 22 22 20 21 20 18 19 23 21 16 16 19 18 19 16 20 17 17 17 20 19 18 17 16 18 17 19 19 18 22 20 18 15 16 14 19 13 15 13 16 15 18 14 12 14 11 17 11 10 17 14 15 18 15 14 
24 28 24 27 23 28 26 23 24 22 26 25 23 21 24 22 22 19 19 18 22 22 25 20 21 20 20 24 24 22 20 18 22 24 16 15 16 18 20 20 21 21 18 18 18 16 26 16 19 19 20 18 23 22 21 20 16 15 15 13 16 19 18 15 16 12 16 11 15 12 13 13 11 12 14 12 16 13 15 16 
22 26 24 28 20 25 26 21 23 23 21 24 19 21 22 24 19 18 20 19 21 18 23 20 20 20 22 18 19 19 18 18 25 21 14 16 17 19 17 20 17 19 16 15 20 18 19 18 20 21 19 22 20 21 20 16 14 14 15 12 12 15 15 13 14 16 16 10 9 13 9 13 9 12 14 11 15 14 17 13 
23 28 27 28 25 22 22 25 20 21 22 20 25 22 20 20 22 17 21 20 18 18 20 21 21 20 20 19 19 15 19 18 22 15 15 20 16 16 17 20 18 20 17 16 17 18 21 20 19 19 19 19 19 19 17 15 12 15 14 10 15 16 13 12 16 13 12 10 13 10 13 13 13 12 11 12 15 15 11 14 
28 28 29 22 21 22 22 22 20 21 23 24 25 21 22 21 23 18 22 21 20 22 19 21 19 22 20 19 18 17 17 20 21 17 16 21 19 17 17 16 20 21 19 18 23 20 21 22 20 19 23 20 17 19 19 19 19 16 16 13 14 18 15 18 12 14 12 12 16 10 11 15 15 10 10 12 15 16 14 16 
25 34 23 24 21 25 24 25 21 22 23 27 26 23 24 22 20 21 23 21 22 23 25 22 20 19 22 20 20 18 18 22 22 17 18 15 17 15 15 16 18 18 18 20 22 22 23 27 19 19 20 18 21 19 18 18 15 17 15 15 18 15 20 14 16 14 13 10 13 14 11 14 13 13 12 11 12 15 18 14 
25 27 27 25 25 26 24 24 20 19 22 21 22 17 22 24 27 22 25 22 25 22 20 20 20 20 19 19 17 18 16 20 20 19 17 18 16 12 18 17 19 17 21 18 19 24 23 22 21 19 19 21 15 17 14 14 16 14 14 15 14 15 19 14 16 15 17 15 13 14 10 13 12 10 12 10 15 13 12 11 
22 27 22 21 24 22 23 22 18 19 20 24 22 20 27 26 27 23 23 25 24 23 24 21 17 18 20 14 15 17 17 19 20 16 17 17 16 14 16 18 16 20 16 16 21 23 20 18 18 17 18 17 16 13 17 13 13 13 12 13 15 15 14 13 16 16 17 15 17 14 10 10 12 12 12 10 8 11 13 14 
24 25 20 18 20 18 19 20 18 16 18 20 23 20 25 24 22 22 21 21 22 21 24 19 17 18 23 18 17 20 16 16 17 18 15 17 15 15 16 15 16 18 17 18 22 20 20 17 18 17 16 20 16 17 16 15 19 16 15 13 15 15 18 12 15 15 15 16 16 14 10 13 10 9 11 8 9 10 10 17 
24 24 22 25 18 26 23 25 21 20 21 22 21 23 25 24 26 21 21 25 21 23 23 21 17 19 19 17 18 21 18 15 20 16 18 13 17 13 14 14 16 21 17 21 19 20 23 17 20 14 16 17 18 9 16 18 18 18 13 13 13 17 15 17 17 15 13 13 14 15 14 15 10 11 9 9 10 9 8 11 
21 25 28 25 22 20 23 26 23 22 22 18 24 20 24 22 23 25 21 20 18 21 27 20 18 21 19 19 18 19 15 17 18 17 16 17 19 19 17 15 17 17 16 18 20 20 22 19 16 19 17 16 19 14 16 20 17 12 12 12 16 19 16 19 15 14 17 13 14 13 10 17 14 9 10 8 13 10 6 12 
21 25 23 22 18 22 22 22 22 25 24 20 21 21 25 26 21 21 25 21 21 24 24 22 18 17 18 18 18 19 16 15 15 18 19 14 17 15 18 18 19 19 15 17 19 18 22 15 17 17 18 18 19 20 18 17 15 16 12 11 17 15 13 16 9 14 13 14 15 9 13 13 13 10 9 8 13 11 10 9 
22 27 24 24 22 23 19 23 18 20 23 21 21 22 24 24 21 22 22 26 22 22 21 21 19 17 16 18 19 16 19 18 17 18 16 17 15 14 17 14 19 17 15 16 15 17 19 14 16 13 19 17 18 18 17 16 17 15 10 16 15 18 14 15 15 11 12 12 15 13 13 11 10 10 8 11 14 10 9 8 
22 30 24 24 23 21 24 19 18 22 25 20 21 22 25 23 20 18 21 23 22 23 19 17 16 19 17 19 17 19 18 16 19 18 22 19 16 17 13 16 16 18 17 18 20 16 16 14 16 14 19 19 17 22 17 19 20 13 15 18 14 16 14 16 10 12 13 15 11 13 8 9 10 10 11 10 11 10 4 8 
25 27 25 23 24 24 22 25 22 22 25 19 20 21 22 18 19 18 21 20 20 24 20 19 16 19 19 20 18 20 18 18 20 16 16 16 15 16 16 13 18 20 16 16 17 15 14 15 18 15 17 18 18 18 17 21 22 16 19 12 16 16 16 13 14 13 12 13 15 12 13 11 10 8 10 9 13 7 6 8 
25 22 24 21 25 27 23 22 22 21 18 21 20 22 19 21 19 18 18 20 22 22 22 19 20 19 18 18 20 17 16 16 18 16 17 16 15 10 15 15 14 17 15 14 17 15 16 15 16 16 15 15 20 18 16 17 21 19 17 16 12 17 16 13 13 11 13 12 12 14 13 11 11 12 11 10 8 8 8 8 
21 21 17 22 22 22 20 23 23 20 25 19 21 21 20 18 16 17 18 20 17 22 21 20 16 17 23 18 21 16 15 15 15 16 14 14 14 12 13 15 16 16 13 13 15 15 13 15 16 14 18 16 14 20 16 15 19 16 14 13 13 14 13 14 11 11 13 12 11 12 14 10 10 8 11 3 8 9 10 7 
13 20 23 20 20 17 24 26 20 18 24 23 24 21 22 20 19 18 20 22 20 21 23 22 16 17 19 19 16 17 14 14 16 15 15 15 15 10 13 13 15 18 12 15 13 15 16 14 16 15 18 14 17 16 16 18 17 19 15 13 14 17 13 16 13 10 12 11 11 14 17 12 10 12 12 7 10 9 12 14 
15 24 19 15 17 20 18 25 18 23 21 24 29 26 21 23 18 19 20 22 18 22 19 17 14 14 18 14 14 16 14 16 15 16 13 14 15 14 14 15 12 16 13 14 17 17 16 17 20 13 14 20 15 18 19 18 16 16 15 13 16 17 14 14 14 13 14 13 9 12 10 9 15 9 11 7 11 11 12 7 
19 20 18 19 18 23 19 21 20 22 21 17 25 22 24 22 22 19 19 18 20 18 23 18 14 16 14 15 16 14 15 15 12 17 15 13 12 12 13 14 18 19 14 16 14 16 17 22 18 17 13 19 13 16 15 17 14 12 14 12 14 15 16 13 15 13 14 9 11 13 8 10 11 10 9 11 11 12 10 8 
19 21 20 20 20 25 23 21 18 18 21 21 27 20 21 21 19 19 17 17 18 20 23 17 16 14 18 15 17 15 13 14 15 16 16 15 13 13 14 17 18 19 12 15 14 17 16 18 21 17 18 20 16 17 21 18 16 14 14 15 14 15 14 14 14 12 14 9 12 12 10 14 11 6 10 9 8 10 6 7 
21 20 19 19 19 24 18 23 19 20 26 20 27 17 22 22 20 20 15 20 19 22 18 21 17 16 15 16 16 16 13 14 14 15 14 20 16 18 17 17 18 17 20 18 15 18 20 18 20 18 17 18 22 17 20 18 15 14 12 12 14 16 14 15 13 12 11 10 9 13 7 14 8 8 9 9 9 3 8 15 


