P2
80 60
136
112 108 104 108 104 109 110 108 111 116 121 114 118 117 120 120 118 118 116 116 120 118 120 121 120 121 123 119 117 125 118 115 120 120 122 121 118 122 123 118 119 121 125 122 122 121 119 122 124 122 122 119 120 121 121 123 122 124 124 119 118 118 122 119 118 122 112 110 110 112 110 108 113 111 114 108 111 109 106 107 
115 109 108 108 104 105 110 115 116 120 123 118 117 117 122 123 121 120 116 119 122 123 122 119 122 123 123 124 120 122 117 117 122 122 122 121 122 121 123 118 120 120 125 122 122 122 119 122 125 123 121 119 122 124 122 123 127 124 124 118 116 121 120 117 116 116 114 113 108 112 111 111 109 113 114 110 108 108 107 103 
117 108 105 107 104 109 114 114 116 120 120 117 117 116 120 119 118 119 115 118 121 123 120 119 122 121 125 122 123 125 119 118 121 123 125 121 120 123 121 121 121 126 123 121 122 123 120 125 127 127 123 120 123 127 125 121 122 124 123 122 120 123 118 118 117 116 114 112 110 112 113 116 113 114 116 110 114 111 111 109 
115 111 107 104 104 106 112 115 114 120 121 119 117 119 120 121 121 119 118 121 120 121 122 122 123 120 125 119 125 125 118 119 122 124 122 121 120 128 126 122 123 121 122 122 120 123 121 123 129 126 124 125 126 124 120 122 124 123 122 121 123 119 121 119 117 117 115 112 111 115 114 119 113 114 115 113 115 112 110 107 
113 110 106 108 104 112 112 112 117 121 117 117 117 118 120 121 120 117 116 119 118 123 122 118 123 123 125 122 124 120 117 115 119 120 121 122 123 124 125 121 120 121 123 121 123 121 124 123 125 128 124 125 121 126 124 123 126 123 127 120 123 120 121 122 116 118 115 113 114 113 114 112 116 114 115 113 110 112 107 107 
114 105 103 107 106 111 113 112 116 121 120 117 112 117 120 122 116 119 115 119 120 123 123 121 122 124 123 121 122 121 114 115 118 119 122 124 119 123 124 121 121 119 123 120 121 117 126 126 127 125 125 126 124 124 122 124 122 122 123 122 120 121 119 118 118 113 113 114 117 111 116 115 116 110 114 113 111 112 108 107 
115 106 105 107 107 109 111 107 111 118 118 115 116 119 117 117 121 117 115 119 121 120 118 124 121 123 122 119 122 121 113 114 118 119 118 122 123 123 124 120 120 119 122 117 120 124 122 125 124 126 120 126 121 126 122 124 123 127 129 121 120 118 118 120 117 116 115 114 114 111 110 112 113 115 110 110 107 105 103 109 
116 108 107 109 102 114 113 111 114 119 119 113 114 119 119 119 120 114 114 118 124 119 120 123 122 121 122 119 122 119 113 113 118 119 120 124 121 122 124 120 121 119 121 120 121 119 121 122 121 125 123 123 125 123 122 121 123 126 126 119 121 120 121 118 120 120 113 114 117 112 110 112 112 111 112 108 109 107 107 110 
116 109 106 106 104 111 115 113 112 118 121 114 116 118 119 117 117 115 116 118 118 119 119 119 119 121 119 119 121 118 117 114 119 121 122 119 121 121 124 117 119 119 123 120 120 123 121 122 122 123 122 123 123 124 124 122 122 120 120 118 115 117 119 120 118 116 116 115 116 113 112 116 114 109 111 105 105 107 107 106 
116 110 108 106 103 111 111 112 115 118 117 113 113 116 118 118 124 111 113 117 119 121 116 119 119 119 119 119 119 118 111 113 118 119 124 119 117 119 123 118 118 117 119 116 121 120 120 118 123 126 123 121 121 123 123 120 123 110 120 117 118 121 121 118 118 115 114 114 116 109 110 114 108 110 111 112 108 107 111 110 
114 108 103 106 107 108 116 111 111 116 116 116 114 113 117 114 115 111 111 113 115 117 117 116 117 118 118 115 116 118 111 116 119 119 118 117 117 120 119 118 119 117 119 114 117 121 117 119 124 122 123 120 119 120 120 120 122 120 121 119 116 116 117 117 115 114 113 113 110 109 112 114 112 108 109 113 108 109 106 104 
114 107 106 108 102 109 113 109 111 113 114 110 114 112 113 112 114 109 110 114 116 116 112 117 114 117 117 115 116 115 114 115 121 122 118 115 112 116 119 120 115 117 118 116 119 119 118 120 121 121 119 120 118 118 122 121 121 121 118 115 117 119 118 118 114 116 111 113 112 106 109 112 109 112 110 117 111 105 109 106 
115 107 101 107 103 110 108 108 108 111 113 111 109 113 111 109 108 109 111 111 114 117 115 113 112 117 116 117 118 115 114 117 121 122 118 115 114 118 124 114 116 116 119 117 122 120 121 119 121 123 121 121 117 118 120 121 122 118 119 116 118 119 121 116 117 114 112 110 109 110 103 113 109 116 116 115 112 113 111 104 
111 108 98 107 100 108 108 105 104 110 110 110 110 112 110 112 112 111 111 112 113 113 115 115 112 113 111 114 113 112 111 116 119 124 119 115 115 118 117 114 117 115 119 116 118 123 120 121 123 126 121 117 118 120 117 120 120 122 120 117 119 117 119 118 117 116 114 114 109 108 110 109 111 112 111 111 109 107 110 106 
116 102 102 102 98 104 103 105 106 108 110 107 106 113 111 108 108 107 108 110 111 111 113 115 110 113 111 112 113 111 110 115 118 119 118 115 115 114 115 117 117 117 118 115 117 119 117 119 120 124 120 119 119 119 118 121 123 136 122 118 112 115 119 119 116 115 112 111 113 109 109 109 115 111 114 113 105 110 107 108 
112 105 103 104 100 105 105 103 108 109 108 105 107 108 109 110 107 106 106 107 111 113 113 109 114 115 114 111 114 111 109 114 118 118 118 117 114 114 116 113 116 118 116 117 122 119 117 118 121 122 120 119 118 121 119 119 120 123 124 116 118 121 119 115 118 115 114 112 112 109 111 109 114 113 113 110 108 113 114 109 
105 105 101 100 101 104 101 99 102 106 108 105 103 107 106 108 109 109 104 109 110 110 109 110 111 112 110 109 112 110 106 115 116 119 117 114 115 113 116 112 113 114 118 114 116 121 118 116 118 120 119 115 118 121 120 118 121 123 123 116 119 116 116 117 111 115 114 111 111 111 111 114 121 112 111 112 108 109 109 106 
108 106 102 104 100 103 102 104 103 105 106 105 105 103 106 107 105 107 105 107 109 108 112 111 108 111 109 110 109 109 108 113 117 120 116 117 114 115 114 116 116 115 115 113 118 116 117 115 115 121 115 114 118 122 121 119 119 125 120 115 117 114 116 112 114 113 113 112 111 112 109 115 115 111 111 110 106 109 107 105 
110 107 97 105 102 104 103 101 102 102 103 105 104 108 107 108 106 105 108 108 109 111 112 111 110 111 113 109 118 105 107 116 122 118 118 115 114 113 116 118 116 114 114 114 115 112 115 114 119 118 116 117 124 122 121 119 122 121 119 118 115 115 116 119 116 113 112 114 112 112 110 111 113 112 108 113 106 109 108 110 
100 85 87 103 105 106 100 98 96 104 105 105 103 106 106 108 104 104 105 107 109 114 112 113 113 112 115 110 113 107 110 115 120 117 115 117 113 117 116 115 114 114 114 113 112 114 115 113 117 118 118 116 120 117 117 119 120 118 119 115 116 118 116 113 113 111 111 115 112 111 111 116 112 109 107 110 110 107 108 106 
73 35 58 99 95 101 101 102 99 99 106 104 104 107 109 105 102 104 105 108 109 109 111 110 112 108 109 109 112 107 115 112 119 119 115 113 111 112 115 112 111 113 111 110 114 111 111 111 116 119 117 117 122 120 119 117 119 118 120 117 118 117 113 114 114 110 114 113 112 111 109 113 109 108 109 112 109 107 108 107 
45 8 34 93 92 96 102 96 100 99 103 100 107 107 104 104 102 104 103 104 106 110 113 108 108 109 109 109 109 103 107 115 116 115 111 112 110 114 107 112 110 113 112 110 113 112 108 114 116 119 115 115 120 117 119 116 116 116 117 116 117 114 114 115 112 114 112 113 112 116 111 114 114 106 108 107 109 107 108 106 
50 0 32 97 93 96 98 97 100 97 100 103 101 109 106 106 103 101 103 106 107 108 108 110 108 110 108 108 112 103 107 112 114 111 114 111 109 111 113 107 111 109 111 110 114 109 111 114 114 115 117 118 117 117 117 114 114 116 118 116 117 116 118 114 113 118 113 112 113 109 113 111 111 112 108 110 109 107 109 106 
46 2 26 86 88 99 98 102 97 98 101 101 100 103 104 106 101 106 104 104 106 107 107 109 108 108 107 106 108 105 103 112 115 112 110 112 108 108 108 107 108 110 111 112 111 112 111 114 115 119 119 116 116 115 114 115 116 116 116 117 120 115 117 114 113 118 117 112 113 112 111 111 110 110 109 110 108 108 110 108 
41 4 25 80 89 94 97 100 98 98 97 101 101 102 105 103 101 99 103 106 108 106 106 110 108 107 108 107 107 103 105 111 113 112 112 108 109 108 109 108 108 107 108 110 114 110 113 110 115 117 116 114 115 112 116 112 114 116 119 114 114 117 114 114 119 114 115 115 114 111 112 112 114 114 107 109 106 105 106 112 
44 4 28 83 85 95 94 97 93 99 97 96 97 101 105 101 97 98 101 106 103 105 107 110 106 107 109 104 107 101 106 109 111 112 110 107 110 103 106 108 107 107 110 109 109 111 109 115 116 114 113 114 112 116 113 112 114 113 115 112 116 112 113 117 119 120 114 114 115 110 111 112 115 110 110 112 111 107 102 107 
52 1 23 79 90 97 94 97 93 96 101 98 95 95 100 101 99 100 101 103 103 106 110 107 108 104 106 103 102 104 104 112 111 108 109 105 105 100 106 103 108 104 109 108 111 107 110 113 111 113 113 112 113 113 111 112 112 112 116 114 114 112 112 112 118 118 117 115 116 115 114 115 112 112 112 110 111 107 106 104 
52 7 17 75 94 94 95 97 93 94 95 93 91 92 97 99 98 101 101 103 103 104 107 106 105 104 107 105 103 105 103 109 107 108 108 103 102 102 106 105 102 105 108 107 107 106 108 107 110 111 110 111 112 110 109 108 111 112 116 112 113 112 116 114 118 117 113 115 114 118 111 115 112 113 113 114 110 111 109 108 
54 2 10 66 91 93 98 100 95 93 93 93 89 90 95 95 98 97 99 99 105 102 105 109 105 104 102 101 104 101 103 111 109 108 106 106 103 104 107 106 103 102 107 106 107 104 108 107 109 112 112 109 111 111 107 111 111 111 110 108 108 112 113 118 116 116 115 116 114 115 114 113 113 112 113 109 111 110 109 107 
54 7 10 54 93 98 98 99 99 93 94 90 86 92 92 94 92 94 97 98 100 102 104 101 104 103 104 105 101 98 101 112 109 106 105 107 102 102 105 102 105 106 107 106 109 107 108 109 110 112 110 112 109 110 110 109 111 111 112 105 110 111 115 114 116 116 119 115 113 113 113 111 110 111 113 112 107 109 111 109 
64 11 6 45 94 100 99 101 95 87 92 90 84 84 89 92 96 93 93 96 100 100 101 105 102 103 101 101 100 100 104 108 110 105 105 102 100 100 105 101 100 105 111 108 106 112 106 110 109 109 109 109 111 111 109 109 113 110 107 105 109 112 114 114 113 116 113 114 113 113 110 115 112 112 108 110 107 109 108 107 
68 10 14 54 94 97 100 99 99 85 83 82 82 88 91 93 95 93 95 97 98 100 100 102 103 102 104 101 100 96 105 107 107 106 103 105 104 100 103 101 106 107 106 107 109 109 108 108 111 114 109 107 110 114 108 110 111 112 109 105 110 115 114 112 114 113 114 116 115 114 111 114 111 110 110 107 106 109 109 109 
84 41 29 79 98 100 102 102 95 87 87 84 86 85 92 90 92 90 90 98 99 100 101 103 102 103 100 98 99 98 104 110 109 105 105 103 100 101 103 101 101 101 109 104 105 109 106 105 109 110 110 107 107 110 110 113 112 113 107 106 108 114 116 115 116 115 114 113 116 114 111 114 112 106 107 108 109 109 110 104 
103 82 76 97 99 99 99 102 98 97 86 84 86 85 92 92 90 92 89 97 95 95 98 97 98 97 97 98 97 101 107 108 107 105 100 100 99 99 103 103 101 100 105 104 104 107 107 106 105 110 106 112 112 108 107 109 109 111 108 105 109 114 114 115 116 114 114 113 114 112 110 115 109 108 109 109 109 108 108 105 
99 89 93 100 102 104 99 103 103 101 90 93 85 84 91 88 90 90 89 95 93 95 96 100 97 97 98 95 97 99 105 108 104 101 101 100 101 101 103 102 101 104 103 104 106 106 105 106 107 109 109 110 109 110 110 107 111 109 105 107 111 113 115 114 114 113 114 112 112 113 112 112 111 107 109 107 105 107 105 110 
106 90 95 101 107 107 103 101 101 100 99 102 86 86 93 93 90 92 94 92 94 95 94 98 96 94 96 97 94 98 104 106 105 104 99 101 102 97 101 101 99 100 106 102 104 104 103 107 109 110 107 109 110 107 109 110 112 109 106 107 109 112 114 111 115 114 115 113 113 110 109 109 107 108 105 110 106 112 108 110 
101 93 89 100 101 105 102 102 102 100 102 95 96 89 95 91 90 91 90 96 93 94 94 94 95 94 98 95 96 95 104 106 103 104 100 99 99 99 100 94 100 101 102 102 104 101 101 108 106 109 108 111 110 107 108 107 111 106 107 109 110 111 109 112 118 115 112 114 113 109 110 109 109 108 110 110 109 110 111 107 
103 98 92 101 104 103 104 101 99 101 102 99 102 99 97 96 96 93 91 93 96 94 97 99 99 95 100 96 95 95 103 105 102 101 97 98 98 99 100 99 98 98 104 101 104 103 102 105 107 109 106 105 109 110 108 111 108 105 106 107 110 109 112 111 116 118 112 113 108 111 108 107 105 105 108 110 108 110 108 108 
103 105 96 104 102 103 101 103 99 104 104 103 98 98 99 99 96 97 93 97 96 98 99 100 102 100 100 99 94 94 102 104 104 101 99 97 97 96 105 99 98 98 104 100 101 103 102 105 106 111 106 110 111 110 107 109 109 105 107 111 109 109 111 111 115 115 112 111 108 109 108 108 108 109 108 105 107 108 111 108 
106 100 90 99 104 103 100 103 102 103 112 105 98 99 96 98 98 97 97 99 100 100 104 104 104 105 106 101 92 93 100 102 102 99 96 97 99 100 102 98 98 98 102 105 100 104 105 105 108 109 109 109 113 113 110 108 106 105 108 108 108 110 109 110 110 115 113 110 111 108 108 112 106 110 111 109 109 110 114 115 
106 104 95 95 101 106 98 98 100 104 105 101 99 101 99 101 102 101 100 97 98 99 103 102 104 104 107 100 93 94 103 103 100 100 99 98 98 96 99 96 99 99 105 103 103 105 102 103 104 109 108 115 113 116 110 109 106 106 107 110 109 111 112 110 112 113 109 110 107 106 107 113 106 109 108 112 109 108 119 114 
101 102 95 88 102 104 100 99 99 101 102 100 99 103 99 105 101 97 100 97 99 99 102 103 102 104 106 101 90 94 101 103 96 95 98 97 102 100 96 95 96 101 104 100 101 103 103 108 105 108 107 109 111 111 107 107 107 106 109 107 110 112 109 109 110 111 112 111 107 107 108 108 110 106 108 107 108 108 111 110 
102 100 101 86 95 97 96 95 98 102 105 102 101 102 100 101 101 102 100 97 97 101 101 102 106 101 104 100 92 89 101 103 94 96 97 99 97 99 103 97 96 98 100 100 102 102 107 106 105 110 109 109 107 106 107 107 107 105 105 110 111 111 112 113 112 111 107 110 108 107 107 110 105 106 108 106 109 109 112 107 
98 98 98 90 91 100 95 95 96 101 101 104 101 102 100 101 100 100 100 98 100 100 101 104 102 102 103 98 90 90 102 98 96 93 94 96 97 96 99 97 99 98 99 98 104 104 102 114 107 108 107 106 109 105 103 104 103 107 109 108 112 112 113 114 113 110 106 110 104 106 106 109 104 108 107 107 107 106 110 109 
102 98 93 84 92 95 97 91 93 100 101 100 99 100 99 99 101 102 101 98 101 100 102 105 101 103 102 96 90 94 101 99 93 93 92 94 96 97 98 98 95 96 100 99 103 103 103 109 109 108 106 104 107 104 105 105 104 110 112 111 109 109 111 112 116 114 111 107 108 102 107 106 106 107 104 112 107 109 109 107 
98 94 92 87 93 94 95 94 95 98 102 101 101 102 103 102 104 101 101 99 97 98 98 103 101 101 104 95 89 88 103 99 97 90 97 97 92 93 96 95 96 95 101 99 102 104 106 102 106 109 109 106 108 104 100 104 104 105 110 107 108 112 111 118 114 115 111 109 109 107 106 107 108 105 110 110 107 109 108 106 
102 95 97 88 87 94 92 93 96 98 101 104 104 106 102 102 100 102 97 100 101 101 98 100 105 101 100 95 89 88 97 100 95 91 94 94 93 96 96 95 95 95 99 96 98 101 101 103 105 108 107 108 109 108 102 102 109 111 109 109 106 111 115 111 110 112 110 110 105 104 106 108 107 109 108 107 105 108 106 102 
97 100 93 91 85 95 98 96 94 100 100 103 101 100 102 105 99 99 100 100 101 99 102 102 99 103 104 95 90 93 98 103 95 91 90 92 93 95 97 96 97 99 96 99 99 101 104 104 102 108 110 111 112 111 108 108 113 113 111 108 111 111 112 110 109 113 111 110 107 107 107 108 107 109 109 102 103 106 109 105 
98 94 89 91 90 96 97 96 98 96 100 99 98 101 99 103 100 104 98 99 98 103 105 103 100 101 100 97 89 92 101 99 95 90 96 95 91 94 96 97 98 99 98 95 98 102 101 108 105 108 110 110 114 112 111 114 117 112 109 110 108 110 110 114 110 112 108 109 107 105 105 107 105 106 108 105 106 101 106 101 
95 94 88 93 94 96 95 98 94 97 101 102 100 101 104 104 101 98 96 98 97 101 101 101 102 101 98 95 93 94 101 96 97 96 97 95 94 95 94 99 96 97 104 102 103 108 106 114 114 114 114 112 116 123 113 113 114 111 112 113 111 113 113 113 106 109 109 111 106 106 106 109 107 106 104 108 106 104 101 106 
98 95 87 97 96 95 99 94 96 99 96 101 102 101 101 103 101 100 99 101 98 102 99 102 100 95 97 94 92 96 97 97 96 98 99 101 92 95 93 96 98 99 103 103 111 119 113 114 117 116 111 113 116 118 116 113 115 115 110 111 114 113 112 111 109 109 107 105 105 104 105 107 106 104 104 107 107 106 106 101 
101 96 89 92 96 97 94 95 97 96 99 99 98 103 101 103 100 99 98 96 101 98 94 94 96 97 96 93 89 94 100 98 98 97 104 99 96 97 97 101 107 105 111 110 115 114 114 119 116 116 117 112 115 117 112 116 121 115 121 113 110 110 111 109 108 108 110 109 106 109 107 104 107 106 106 108 107 100 104 104 
102 90 91 92 95 98 99 97 98 97 101 100 96 99 100 104 98 97 96 95 95 95 95 96 97 98 97 89 88 96 99 99 96 97 99 99 99 106 105 104 110 108 109 113 112 115 116 114 117 118 115 112 117 118 118 117 117 117 116 113 111 111 114 111 112 110 107 106 105 102 106 106 107 104 106 103 105 104 106 100 
100 95 91 95 105 102 98 93 96 96 99 95 98 99 100 97 98 93 95 92 95 92 95 97 97 97 96 90 88 96 99 98 99 96 101 98 103 107 111 109 107 108 111 112 115 112 115 114 116 118 116 115 116 115 116 116 117 114 115 115 110 113 114 112 112 111 109 106 108 105 106 107 109 109 107 107 105 104 107 104 
102 99 96 98 97 97 93 95 97 98 100 97 96 96 95 97 97 97 92 93 91 92 96 97 97 101 100 91 95 96 98 98 100 98 97 100 100 107 109 109 109 108 113 112 113 112 112 116 117 118 116 115 116 120 117 116 116 116 116 110 113 112 113 114 111 111 113 112 106 108 110 112 106 106 109 106 104 106 105 105 
100 103 92 97 95 94 90 90 86 95 97 99 97 98 100 96 97 97 96 91 94 94 95 99 96 98 98 93 89 94 96 97 97 97 98 100 104 106 108 106 107 109 110 113 116 110 113 116 114 118 116 115 116 116 114 115 116 116 113 111 112 111 114 113 112 112 111 108 105 111 116 111 108 105 107 109 103 104 108 107 
103 102 97 97 91 93 91 89 90 96 99 100 106 98 94 96 94 99 93 95 95 98 95 99 96 96 94 94 95 95 97 98 96 99 98 100 99 104 107 106 109 110 108 110 111 112 117 114 119 119 115 114 118 118 114 117 114 113 113 108 111 115 114 113 114 112 111 109 109 108 109 110 107 105 104 105 102 105 105 107 
104 95 96 98 97 94 90 90 96 98 100 99 100 97 96 99 95 97 96 93 94 96 97 95 94 92 93 91 91 93 95 94 97 99 101 100 104 103 107 106 107 108 111 107 110 111 112 121 119 120 116 117 118 115 112 115 117 116 116 111 111 112 113 110 113 113 108 107 109 110 110 108 108 104 105 106 104 106 101 100 
105 97 97 99 96 98 92 90 94 97 97 98 97 100 99 98 99 98 94 94 94 95 94 100 96 96 92 90 94 93 89 94 97 98 98 100 104 106 109 106 109 111 114 108 112 112 115 115 120 121 116 119 119 116 116 116 115 113 112 112 109 113 107 112 113 113 111 111 108 111 110 107 110 105 106 107 106 102 101 102 
102 94 95 99 100 99 95 96 97 97 99 101 98 101 99 99 91 98 95 99 95 90 98 98 96 95 95 91 94 96 90 94 97 97 100 104 107 104 108 103 106 112 111 109 110 112 112 116 116 119 117 114 118 115 117 113 117 115 116 114 111 112 111 109 112 107 107 107 106 104 108 108 106 103 103 103 109 99 102 104 


