P2
80 60
105
15 14 15 13 12 13 14 13 14 17 18 16 17 18 14 17 19 13 16 12 14 16 14 14 17 19 16 15 16 14 19 17 20 17 16 20 17 18 15 17 18 14 20 16 22 16 16 17 20 17 22 15 18 22 20 19 24 16 19 15 13 17 18 15 16 10 14 12 11 13 9 9 14 13 18 17 12 14 12 7 
19 14 16 17 12 17 16 14 17 19 14 20 18 17 15 19 14 16 17 15 14 16 17 15 18 14 16 16 18 20 21 19 15 16 19 18 18 15 17 15 21 15 17 20 17 17 16 16 16 17 20 20 16 20 22 21 22 15 21 13 18 18 18 17 14 15 13 10 11 13 10 14 12 18 18 16 17 12 8 8 
16 18 19 17 15 13 20 18 16 20 19 19 19 16 18 20 18 15 16 17 18 21 18 15 16 16 16 17 16 19 19 18 16 17 20 17 19 20 20 18 17 16 12 16 17 18 18 16 20 17 16 16 17 16 17 20 20 16 18 17 19 19 16 16 16 11 9 12 14 15 13 12 14 16 16 14 27 15 12 13 
18 20 16 17 15 18 16 12 16 17 20 19 15 19 17 18 20 16 18 18 17 17 14 14 16 19 16 20 21 20 19 17 17 16 20 17 20 23 21 18 18 18 15 18 18 20 17 18 22 22 18 17 14 18 18 18 16 16 19 14 20 18 18 19 16 13 11 12 15 14 14 17 11 12 13 14 13 17 9 7 
19 19 16 16 17 18 13 18 17 24 23 18 16 15 16 22 22 17 17 16 18 16 17 18 16 19 20 18 20 17 16 18 14 19 11 18 18 18 19 19 23 17 23 21 21 17 22 17 19 17 18 19 19 19 20 19 18 16 17 18 22 20 16 20 19 18 14 12 16 17 14 15 16 10 18 14 13 10 6 10 
21 20 17 16 14 17 15 15 19 25 18 18 18 17 12 18 20 18 20 19 13 20 18 17 19 19 19 15 16 16 17 16 15 15 18 16 18 21 21 23 19 20 21 24 19 21 19 19 18 16 21 18 19 19 22 21 19 21 13 17 22 21 20 16 16 14 16 10 17 19 13 13 10 10 15 16 14 15 10 15 
23 19 19 19 14 18 15 15 17 20 20 21 21 19 16 19 24 21 18 18 18 18 20 16 17 21 16 19 18 16 17 16 18 17 17 19 17 19 23 18 22 18 19 21 18 20 21 19 21 15 21 22 16 20 20 17 20 24 27 17 19 22 19 12 17 15 12 15 14 14 11 10 11 10 18 14 12 8 10 12 
22 18 15 18 18 21 17 16 17 18 18 18 19 19 9 19 22 16 19 21 20 18 15 18 17 20 18 17 20 21 18 13 13 19 18 21 18 16 19 18 24 18 16 22 17 17 19 17 20 15 19 18 22 19 19 18 23 18 19 17 18 17 21 19 13 16 13 11 14 12 10 13 13 11 16 15 12 10 11 9 
24 19 18 17 18 20 17 18 20 19 14 19 19 19 15 17 22 18 18 19 18 19 18 14 17 18 16 16 17 18 17 12 15 20 19 17 19 18 17 16 18 15 17 21 19 16 18 18 18 17 19 20 17 21 20 18 19 19 17 18 19 19 18 14 16 17 15 14 12 12 7 13 15 13 15 13 11 10 10 10 
22 19 18 18 17 22 18 16 20 17 16 18 18 16 14 18 24 15 19 18 17 18 21 16 19 20 17 15 14 18 14 14 14 18 19 17 18 16 22 18 22 16 17 16 19 18 15 18 20 18 17 17 17 17 20 15 18 17 16 17 20 21 16 15 12 12 13 10 15 14 12 11 12 12 11 13 12 9 8 11 
25 22 21 20 22 22 22 17 21 18 17 20 19 16 17 18 18 19 14 15 18 17 19 17 16 19 16 16 17 16 15 15 16 18 18 14 16 17 17 18 19 16 18 16 15 14 18 18 17 18 17 18 16 17 19 20 19 17 16 17 20 20 15 14 15 14 13 12 16 17 6 12 10 12 13 14 13 10 7 8 
21 18 23 19 19 18 18 17 17 15 15 17 18 16 14 14 15 14 14 15 13 14 18 15 14 16 14 15 15 16 17 16 15 18 14 14 16 18 16 16 18 13 15 17 14 17 20 17 15 16 15 18 17 17 18 15 15 15 17 14 13 17 14 14 11 13 14 11 13 10 10 9 8 13 13 16 11 17 6 7 
22 17 23 24 19 21 15 16 16 19 17 21 19 16 15 18 16 17 14 13 15 18 17 15 13 13 14 15 17 19 18 15 18 19 16 13 17 17 22 17 18 17 16 15 19 16 20 15 18 16 19 15 12 15 16 18 21 18 18 14 17 15 19 18 14 16 13 9 11 12 0 11 12 9 13 13 21 15 9 9 
20 18 30 21 23 18 17 14 16 16 14 16 17 17 12 17 14 13 18 15 17 20 18 16 14 14 14 15 19 16 17 17 15 21 20 16 13 19 16 17 15 14 16 19 17 20 20 19 16 16 18 17 13 16 17 18 22 18 17 15 15 14 16 15 16 12 13 14 11 8 9 9 11 11 15 13 11 9 6 7 
21 20 24 22 16 19 17 17 15 12 13 16 15 14 16 14 15 11 13 13 14 17 17 14 13 19 13 16 14 16 16 17 13 18 19 13 16 17 18 18 18 13 16 12 19 18 16 18 17 16 17 18 13 15 17 21 22 27 21 17 15 15 17 14 14 15 15 10 12 17 7 9 11 8 9 12 8 5 10 5 
23 21 19 18 15 18 15 16 16 14 10 16 14 13 14 17 17 13 13 13 13 21 15 14 15 16 13 14 16 13 17 14 12 15 18 15 12 14 17 13 18 15 14 15 16 16 17 16 16 17 16 14 16 17 21 18 19 19 21 16 15 15 15 15 15 16 12 10 14 14 8 11 11 10 10 10 10 11 6 10 
22 22 22 19 17 17 14 16 15 14 14 20 16 17 14 19 17 13 14 15 14 14 14 14 15 18 18 17 14 16 13 16 13 17 17 17 16 17 16 16 15 14 14 15 15 18 19 15 14 12 16 14 17 20 21 17 21 18 20 18 14 16 14 14 17 12 12 11 13 14 13 11 17 9 10 11 11 11 9 10 
21 18 22 19 18 21 16 19 16 18 14 18 17 12 14 18 16 10 16 16 13 16 14 13 15 15 12 15 16 15 15 16 14 18 19 15 17 16 16 17 18 13 18 17 18 16 14 17 18 13 15 14 15 20 19 16 18 23 18 16 12 16 12 15 12 15 9 13 13 15 11 11 11 11 9 13 11 9 9 9 
21 20 25 21 17 20 19 16 15 15 14 15 16 14 14 14 17 15 17 17 14 16 21 18 14 14 15 14 13 14 16 14 15 18 23 16 16 16 16 17 18 16 16 20 17 16 16 15 17 10 15 15 19 21 16 18 18 18 18 14 16 12 15 13 16 12 11 13 16 14 11 12 12 10 10 10 8 9 9 5 
22 18 24 18 17 20 14 14 13 14 13 16 17 14 15 15 16 13 14 14 15 20 22 14 15 18 16 15 12 14 17 15 13 17 17 15 14 16 15 16 19 18 15 18 17 15 15 15 16 15 15 14 16 15 17 15 16 15 17 15 18 16 17 16 13 11 12 10 15 14 11 13 10 10 10 10 9 9 9 5 
24 21 18 22 16 20 17 14 16 16 16 17 14 17 15 16 17 16 16 15 17 17 18 17 17 17 16 16 16 16 26 16 14 14 16 15 15 17 16 15 16 18 16 16 17 12 16 14 16 16 16 15 16 15 19 17 19 17 16 16 14 16 16 16 14 13 15 13 15 14 8 14 12 9 13 11 6 10 11 13 
23 22 18 19 20 17 20 18 18 14 16 19 23 18 16 18 16 16 17 15 15 18 19 18 18 17 17 16 18 17 16 14 12 17 14 15 14 16 19 17 15 16 14 12 12 12 12 15 15 14 14 15 14 18 15 17 15 17 16 13 15 17 16 15 14 14 14 13 14 17 17 12 11 12 12 10 9 12 9 5 
21 18 22 21 16 14 19 20 16 17 14 19 16 17 17 18 16 17 18 16 16 15 16 15 14 16 17 14 20 16 16 16 13 13 16 19 15 14 17 21 18 14 12 11 13 15 15 15 12 12 15 16 13 18 16 17 16 16 18 15 15 16 16 12 17 15 10 14 14 11 10 13 14 10 12 11 7 7 10 6 
20 17 22 22 16 21 18 21 19 18 17 19 16 16 16 23 18 16 16 18 16 14 13 16 14 14 16 15 15 17 16 14 13 14 18 15 12 15 15 15 18 15 14 12 15 13 16 13 16 18 15 16 16 16 14 16 16 14 17 14 13 15 12 14 18 16 16 14 14 16 13 13 11 9 15 12 9 9 7 9 
18 18 17 17 17 21 18 17 22 22 22 17 17 16 17 15 16 14 18 18 16 19 17 16 16 18 13 14 15 14 11 12 13 11 17 15 12 12 13 15 15 14 14 13 17 17 14 13 12 15 15 14 12 15 15 13 14 15 13 14 15 15 15 10 15 16 17 14 12 11 12 11 13 15 18 10 8 12 12 10 
19 14 20 19 16 15 17 18 18 20 17 19 18 18 20 16 17 16 20 22 15 15 20 18 17 16 15 16 16 13 14 11 11 14 12 15 14 13 13 15 14 14 18 14 18 20 19 17 14 13 13 13 15 12 14 13 15 16 17 15 16 18 14 11 14 13 14 15 15 12 10 11 11 11 15 13 8 8 9 7 
20 17 20 22 19 18 21 17 17 22 18 17 21 16 20 21 21 19 14 16 15 15 20 18 15 18 14 16 16 14 13 11 14 9 15 16 13 13 14 14 19 15 19 15 15 17 16 18 15 11 14 16 13 12 17 15 17 14 14 13 16 16 11 13 12 15 15 11 13 12 10 10 13 9 13 12 10 11 12 9 
21 19 22 20 19 19 17 15 18 19 19 19 17 18 20 17 18 16 15 17 16 16 17 18 15 14 18 19 15 18 16 13 14 12 13 15 14 13 14 14 16 14 19 14 17 16 19 15 14 13 12 15 13 13 13 15 12 14 10 15 14 13 16 15 11 16 16 12 9 18 10 11 12 8 16 16 11 9 9 13 
22 21 23 19 19 18 17 18 15 18 16 19 19 20 19 18 19 14 16 19 15 16 15 17 15 18 13 17 19 21 15 10 13 14 16 14 15 16 14 15 19 15 15 15 15 15 16 15 15 12 12 12 12 15 17 16 13 14 13 13 14 15 13 14 13 14 14 11 11 12 8 10 13 9 12 12 10 9 13 10 
25 22 26 21 16 19 20 17 19 16 14 19 19 19 17 18 20 17 14 16 16 16 18 17 16 16 16 16 16 16 18 15 13 13 13 13 15 16 16 13 18 17 16 17 19 18 16 13 15 14 14 12 14 15 14 18 16 14 14 13 13 15 14 17 16 15 18 16 12 13 10 11 12 12 11 14 11 8 10 10 
24 23 25 21 20 19 19 20 16 18 18 15 19 17 20 19 22 15 15 15 15 16 17 19 18 16 15 18 17 17 14 11 11 13 12 12 18 14 14 14 15 19 18 18 19 20 15 16 16 15 13 9 12 15 16 14 15 14 11 9 15 16 14 15 18 14 14 12 11 13 13 11 12 14 11 10 11 11 8 10 
21 18 24 21 19 21 19 18 18 22 20 21 21 19 18 19 20 16 15 16 18 19 19 15 15 17 18 15 16 15 15 14 11 15 14 15 13 14 14 13 17 16 20 20 18 15 15 16 17 16 14 12 12 13 17 16 15 11 13 11 15 17 13 13 15 18 15 14 15 14 13 11 13 9 14 11 11 10 8 11 
22 21 23 20 19 20 19 18 21 21 16 20 21 18 18 20 19 15 17 13 14 18 17 17 16 17 17 15 17 15 16 13 14 14 12 14 14 15 17 15 17 16 17 20 23 14 14 16 17 15 17 14 13 15 14 15 15 14 13 11 14 14 16 14 18 19 15 13 20 13 9 10 14 11 13 10 10 8 9 12 
24 20 21 21 21 19 17 18 19 19 19 21 21 19 19 22 19 17 18 15 16 15 18 18 18 17 18 16 18 22 14 14 15 18 14 13 16 17 15 13 17 19 20 19 19 15 16 15 13 14 15 17 12 16 16 19 17 14 14 11 12 15 16 16 14 15 17 14 19 18 10 17 13 12 12 11 10 9 7 9 
22 21 21 21 21 21 15 19 20 21 21 19 20 20 20 23 23 20 19 19 16 15 16 16 20 21 17 17 20 17 16 17 14 14 15 16 14 14 16 13 16 19 19 21 20 19 16 16 17 14 12 16 13 15 15 16 16 18 14 11 14 15 16 16 17 14 12 12 13 14 7 13 16 9 13 11 11 14 8 7 
20 20 22 22 20 20 17 19 21 21 21 19 19 22 19 23 24 20 21 19 15 16 21 17 22 18 14 15 15 15 16 16 18 18 16 12 12 15 14 14 17 14 19 18 16 17 20 21 16 12 20 16 15 16 16 16 13 15 14 14 15 16 15 16 13 17 13 13 12 14 5 12 13 13 14 13 11 11 10 12 
23 19 23 23 19 24 21 19 21 20 20 20 19 20 18 22 22 22 20 21 17 17 17 18 18 18 13 16 17 14 17 15 16 17 16 14 14 17 16 17 15 14 15 16 16 17 16 14 17 14 17 17 14 16 17 14 14 14 12 17 14 17 12 15 15 15 12 11 15 11 9 12 13 10 18 13 10 12 8 9 
25 23 26 24 23 24 22 23 20 22 20 23 22 21 22 18 20 24 23 20 20 22 20 20 17 16 14 15 16 17 18 18 14 17 15 14 15 16 17 17 19 14 23 20 18 14 15 15 17 15 21 16 14 16 19 17 16 14 13 13 12 16 16 14 14 18 16 11 13 15 9 12 12 11 11 11 11 10 10 11 
26 25 31 24 23 25 23 22 24 20 25 24 22 22 21 23 21 21 24 20 22 21 23 21 21 19 16 15 19 20 18 15 15 16 14 15 15 16 20 14 15 15 20 19 18 18 17 16 17 17 15 16 19 16 18 17 17 15 15 12 18 13 13 15 17 15 10 13 12 15 13 12 12 10 15 15 9 10 11 14 
26 29 27 26 24 27 24 22 21 23 21 24 23 21 18 22 23 20 19 18 23 22 22 22 19 21 17 17 16 22 17 16 19 18 20 16 14 14 16 18 15 17 19 16 17 17 20 18 18 15 17 20 16 18 19 19 17 18 10 12 14 19 13 13 15 15 13 12 13 16 13 11 14 13 17 16 13 13 13 15 
31 26 28 28 22 27 25 22 26 26 25 23 24 28 20 22 25 22 22 22 21 21 25 23 24 20 25 18 19 18 19 18 17 22 17 20 15 18 17 16 19 18 19 18 22 22 16 20 20 14 18 23 21 22 19 15 17 18 15 13 14 20 15 16 15 15 14 13 15 15 10 11 11 14 16 12 15 15 22 11 
28 25 29 28 22 23 23 24 25 28 24 24 26 24 20 24 25 22 24 20 18 20 26 24 22 22 20 19 19 18 18 16 17 20 23 22 17 20 17 15 17 19 17 19 20 20 15 19 18 18 18 18 16 21 20 15 18 16 12 11 17 17 13 16 18 15 13 11 12 14 8 9 13 10 12 13 12 19 13 14 
36 29 33 29 23 24 26 23 24 25 22 27 25 26 24 25 23 21 25 23 20 21 24 25 24 23 22 21 16 15 17 16 16 16 18 20 18 19 15 14 17 17 20 20 20 16 19 22 20 14 20 17 14 18 16 16 18 18 13 12 13 16 16 17 18 18 14 11 14 10 8 10 16 13 15 13 14 11 14 15 
34 28 27 28 25 26 23 28 24 24 23 28 29 25 25 23 25 22 27 25 21 21 22 23 20 21 17 18 18 19 19 19 17 17 18 14 16 16 14 15 17 17 17 18 15 20 18 26 19 16 19 14 15 18 14 14 14 16 15 11 15 17 16 17 17 14 12 11 14 15 9 12 13 9 11 13 13 10 10 11 
35 26 30 27 26 26 25 26 23 24 24 28 29 27 26 26 25 25 25 24 24 20 25 22 23 22 19 19 18 17 17 15 16 17 16 18 15 14 16 17 16 17 18 18 20 18 20 20 20 15 17 17 15 14 15 13 15 15 14 14 13 17 15 14 16 15 14 17 15 11 10 7 11 8 14 11 10 9 11 9 
35 28 26 26 27 27 27 23 26 28 24 28 26 29 32 29 29 24 26 25 24 24 23 24 20 20 20 19 17 15 20 18 16 15 19 17 14 13 14 16 18 15 16 19 18 18 18 17 17 14 18 16 13 16 18 15 15 13 11 10 16 14 16 14 16 17 14 14 16 17 9 10 11 7 12 11 10 8 8 11 
43 32 30 25 23 25 26 25 27 28 28 26 29 31 28 28 28 27 26 26 25 28 24 23 20 23 21 20 20 20 17 18 17 18 16 18 16 17 15 15 18 16 16 16 21 18 16 17 16 14 14 17 15 15 16 13 14 14 13 14 13 15 18 17 17 15 14 13 18 12 10 10 12 9 12 9 8 8 11 10 
72 55 47 36 25 32 27 26 29 27 26 27 30 29 32 32 29 23 26 25 25 27 26 25 20 20 20 18 19 21 20 13 15 16 16 17 17 14 18 16 14 17 16 21 18 19 20 15 19 12 15 15 15 14 15 14 17 13 13 15 13 16 14 13 17 13 14 15 15 17 10 11 11 10 11 12 7 7 8 6 
81 75 78 70 56 42 38 31 31 31 27 28 31 30 31 30 28 30 29 25 25 25 29 27 21 22 21 19 20 19 18 16 16 18 17 18 13 15 15 17 17 14 16 17 19 19 19 16 17 16 14 18 13 17 19 18 19 14 15 14 12 18 17 15 16 14 15 13 16 12 9 10 13 10 14 10 9 6 6 7 
85 82 83 79 78 77 67 54 41 38 29 29 30 30 30 29 28 27 29 27 28 26 28 24 23 20 21 17 17 20 17 16 16 17 18 15 15 15 16 16 15 13 16 20 14 17 15 13 13 14 17 15 15 18 20 16 17 14 12 13 11 16 16 14 17 11 15 14 14 13 9 9 11 12 14 10 6 4 8 4 
87 86 83 83 82 85 77 76 75 65 47 46 33 32 32 28 28 28 28 25 26 22 16 17 22 24 19 17 23 20 15 15 19 19 19 16 14 17 17 15 19 14 17 20 17 18 15 15 16 15 14 17 17 17 21 15 15 13 12 16 15 17 12 15 15 14 12 13 14 15 12 9 14 9 13 11 10 12 5 4 
86 86 85 86 91 85 84 82 85 81 74 68 56 48 36 32 28 29 28 24 22 20 18 12 16 19 16 15 13 15 16 14 16 20 19 17 11 16 11 15 16 16 15 19 19 13 14 14 16 13 16 14 14 19 18 19 16 14 15 16 14 21 16 17 13 13 11 14 15 14 11 12 13 11 14 13 10 5 7 6 
84 85 86 84 89 87 88 81 80 84 79 84 75 70 61 40 29 26 28 30 24 19 21 14 15 17 17 13 13 16 13 19 18 17 14 14 15 14 14 13 15 14 15 15 16 14 15 15 19 13 15 15 11 16 18 17 15 14 18 13 13 14 14 15 12 14 15 11 11 13 9 10 8 10 10 11 8 6 6 10 
87 84 93 91 96 93 86 84 83 85 81 78 75 76 71 52 26 25 28 27 18 18 20 19 21 16 14 16 15 14 12 13 13 14 13 12 10 13 13 12 16 11 10 15 16 13 16 17 17 14 17 17 15 16 15 17 21 18 18 12 16 19 15 13 13 14 13 11 13 13 12 14 11 15 14 11 9 6 9 7 
89 88 90 92 90 93 84 87 83 84 84 79 77 78 74 53 26 24 27 26 21 20 20 17 20 17 18 15 14 13 12 12 15 17 12 10 14 13 13 11 11 12 16 14 17 15 14 15 13 10 16 16 11 16 18 18 20 14 14 13 12 14 16 12 13 13 8 8 12 14 12 14 15 12 11 10 11 8 9 10 
87 88 93 92 90 92 92 87 83 88 83 83 83 77 72 61 28 26 25 27 22 22 19 18 20 22 15 16 15 16 9 10 11 15 15 10 12 11 12 10 9 12 11 15 13 16 12 14 13 12 16 15 16 13 15 15 21 14 10 15 14 17 13 15 14 11 11 11 12 17 13 9 15 12 13 13 13 5 9 8 
88 93 93 91 91 91 91 86 85 85 82 85 85 83 75 61 32 26 25 28 21 22 19 17 17 18 15 17 15 16 10 10 13 16 13 13 11 8 9 12 14 11 13 13 15 12 13 16 18 12 15 15 11 14 13 18 15 14 14 14 15 13 12 9 15 11 12 12 14 14 9 9 15 10 15 12 12 8 8 6 
92 91 95 93 95 92 94 90 90 93 87 86 85 80 78 74 34 22 27 24 25 22 24 22 17 17 18 21 17 15 16 14 12 17 17 13 16 12 10 15 14 15 17 20 17 14 15 22 17 13 15 18 12 15 15 13 15 12 13 12 14 15 16 12 12 15 8 11 11 14 4 13 8 11 13 12 15 8 6 7 
90 97 97 98 100 97 98 95 94 95 87 87 84 80 77 73 35 23 23 25 22 25 25 19 17 19 15 16 20 17 16 16 12 17 16 19 15 16 16 13 19 13 20 18 13 11 10 17 17 13 16 17 9 14 18 16 15 12 14 14 16 14 14 13 16 11 11 8 12 13 7 11 13 11 14 12 10 10 11 8 
93 91 99 99 105 99 97 95 94 94 91 90 84 84 75 71 33 23 22 19 15 21 22 24 17 22 21 20 19 16 17 14 12 14 20 19 23 17 17 20 18 13 16 18 16 16 15 15 18 14 16 15 15 17 17 17 14 14 12 9 14 13 13 14 13 11 10 9 5 10 5 8 12 12 12 12 13 11 11 9 


