P2
80 60
168
20 15 24 16 11 11 12 15 16 14 14 14 13 16 16 15 13 10 14 9 14 14 7 14 16 13 13 13 16 16 14 8 14 11 8 13 9 11 13 12 15 5 10 10 13 6 5 7 8 6 8 11 15 17 16 19 20 23 18 17 17 19 19 20 17 14 10 13 12 15 19 12 15 16 19 17 18 16 15 18 
12 18 20 20 15 14 16 15 15 15 16 17 12 18 22 15 16 13 11 14 17 11 11 11 15 12 17 15 15 16 14 13 12 14 14 13 10 12 13 12 14 15 9 10 10 8 7 11 7 4 8 8 13 13 16 21 22 21 19 14 15 19 16 17 14 16 12 11 10 12 15 14 13 19 18 16 15 19 14 15 
16 16 24 19 16 13 17 21 15 17 18 17 15 20 19 14 12 16 11 14 19 15 12 15 15 14 18 17 15 18 12 14 13 14 13 13 14 11 14 16 14 11 12 10 11 6 6 9 8 6 8 7 13 14 17 19 18 17 18 17 16 19 15 21 20 13 15 13 13 14 19 14 17 17 18 18 12 15 17 17 
15 18 21 19 20 16 18 21 16 20 20 17 15 21 20 11 14 16 16 17 17 16 15 15 15 14 19 19 20 13 14 15 14 13 12 14 18 15 17 12 13 12 12 10 13 7 9 9 12 7 10 12 16 15 16 19 15 20 19 17 21 16 20 17 17 14 16 15 15 15 18 19 14 16 17 18 16 23 20 20 
23 20 25 21 20 25 17 15 15 17 19 18 20 20 23 20 16 16 14 19 14 17 16 17 17 19 23 16 15 15 12 13 15 14 11 11 11 12 18 13 18 14 13 13 14 10 12 12 10 9 13 11 16 15 16 20 17 18 19 17 22 18 19 23 18 16 16 18 17 17 22 15 15 18 20 21 18 17 16 17 
19 16 20 18 15 18 21 21 20 19 15 19 16 19 24 18 18 18 17 21 16 16 15 18 18 19 18 18 16 19 14 14 13 12 13 12 16 10 18 11 14 13 15 12 15 8 16 12 11 7 12 11 16 17 15 20 18 20 21 18 18 18 19 20 18 16 15 20 20 12 20 15 16 15 21 17 14 17 17 19 
21 21 24 19 18 17 18 20 20 18 17 24 16 20 22 16 18 13 20 19 21 17 16 17 22 19 19 18 16 19 16 15 14 14 15 13 14 14 16 10 15 11 11 12 7 12 11 13 9 9 9 13 18 15 13 19 19 27 27 18 18 20 19 19 21 18 18 18 21 15 17 18 17 16 19 21 17 15 19 19 
22 23 26 23 21 24 18 20 16 15 17 18 17 19 20 15 19 19 19 17 19 15 16 19 19 19 18 18 18 16 12 11 10 11 12 11 14 12 14 14 14 14 11 14 14 8 12 11 7 11 13 11 15 14 20 23 21 24 20 19 23 23 22 17 20 19 17 18 20 18 17 16 14 15 16 14 17 19 17 23 
24 21 25 24 21 19 22 20 17 18 23 19 18 17 18 14 18 18 16 19 19 14 15 16 21 17 16 14 17 18 18 12 9 14 11 14 13 14 14 12 13 10 11 11 14 8 10 9 11 11 15 13 18 18 14 21 20 22 19 19 16 22 20 20 22 17 19 18 17 17 20 16 16 18 17 15 19 18 18 22 
22 22 25 23 20 22 22 24 22 17 17 18 19 20 19 20 21 17 14 20 20 16 13 17 16 15 17 18 16 17 15 13 11 14 12 13 15 13 12 10 13 10 10 11 11 6 6 6 8 11 15 16 17 17 17 19 19 20 21 18 15 21 19 20 15 17 20 16 18 18 18 18 19 17 15 19 15 12 18 15 
23 22 26 21 21 22 25 23 22 17 20 22 17 18 20 17 19 17 15 16 15 12 14 15 16 16 19 17 17 17 15 10 12 13 13 13 13 11 15 13 16 11 11 8 12 9 9 11 8 10 13 18 20 15 17 22 20 22 20 20 19 21 20 21 20 16 18 20 17 15 17 14 14 15 16 22 19 20 18 22 
21 24 26 21 19 22 21 24 17 19 18 18 18 19 16 15 17 13 15 15 14 14 14 19 15 16 18 19 19 18 17 11 11 13 13 14 11 12 13 11 16 11 12 9 13 7 11 9 8 11 14 13 18 13 17 20 20 20 20 20 16 23 22 18 22 17 17 16 18 16 17 14 16 19 18 24 18 18 21 18 
26 25 28 28 23 21 20 20 19 17 19 21 17 17 19 14 15 13 14 16 18 13 14 14 16 15 16 19 15 17 16 13 15 17 10 9 11 9 13 9 12 10 11 10 12 5 12 10 11 10 12 15 15 12 19 20 21 22 20 16 19 19 24 21 18 17 19 19 18 14 12 16 18 18 22 22 14 20 13 20 
26 25 25 25 27 22 19 20 17 16 15 20 17 18 18 17 14 15 14 14 19 11 14 13 16 15 14 14 15 16 14 15 14 17 12 8 11 13 15 11 12 13 10 11 13 9 11 11 12 15 15 15 14 14 17 21 21 23 22 21 24 21 22 21 22 17 17 17 16 17 21 15 15 18 20 21 16 21 20 20 
23 23 26 23 18 21 18 19 16 17 16 17 15 17 21 15 14 12 14 15 14 8 9 15 15 13 16 15 15 17 15 9 11 13 13 12 10 11 12 13 10 11 12 11 8 8 9 9 12 14 12 13 13 12 18 22 25 35 24 22 20 22 20 22 24 20 20 20 20 16 18 14 17 17 20 17 15 21 17 21 
20 23 27 24 23 19 18 21 20 17 18 18 14 18 16 17 13 12 13 15 13 13 10 15 16 13 16 13 15 16 11 14 11 12 12 11 13 10 12 11 14 13 9 8 7 8 9 7 12 12 13 16 18 16 19 21 22 28 24 23 24 21 19 19 18 22 17 25 19 15 20 17 17 17 18 21 18 19 20 19 
22 25 27 22 22 19 21 22 17 16 15 19 16 16 20 18 15 12 14 14 15 7 14 15 15 14 16 14 15 15 15 16 10 14 14 12 11 9 12 12 10 12 12 9 6 7 9 6 9 10 13 13 18 19 19 22 20 25 24 21 20 23 18 22 18 19 15 20 23 18 17 18 27 20 16 23 15 18 21 20 
26 22 25 20 20 20 21 18 18 18 18 17 16 18 18 15 14 13 14 16 13 14 11 16 14 20 16 16 14 16 16 13 14 16 14 12 13 9 12 13 12 13 9 6 11 11 6 7 7 7 14 13 16 18 20 19 22 29 25 21 22 22 17 19 19 20 16 20 19 17 21 22 21 20 20 18 17 21 19 21 
23 20 24 24 21 23 20 17 15 17 18 19 15 19 21 16 14 16 18 18 17 13 16 16 19 14 19 15 12 16 11 14 14 18 12 13 13 14 14 15 13 12 7 10 9 6 6 7 6 10 12 12 18 18 20 20 23 22 25 25 21 22 18 21 20 22 19 21 19 17 21 22 15 17 21 20 15 20 19 19 
24 26 25 26 22 25 20 19 16 13 17 17 18 18 21 18 15 17 17 17 13 16 21 18 19 16 18 17 11 14 18 11 13 14 12 10 13 13 15 15 14 10 7 7 11 3 5 9 7 10 12 12 17 16 17 22 20 21 23 20 23 21 20 21 21 16 18 19 20 22 22 18 18 18 16 15 19 20 21 24 
22 24 26 21 23 26 19 19 17 17 18 19 22 22 20 16 17 13 13 15 14 15 14 19 20 17 18 15 16 16 17 15 10 12 11 12 9 12 13 12 12 15 8 7 11 4 6 7 8 12 13 13 16 16 22 19 21 21 21 23 21 21 21 22 23 19 20 22 22 20 28 18 18 22 19 21 17 20 18 25 
22 24 24 28 23 22 25 17 20 18 16 20 23 20 18 16 17 14 14 13 13 15 16 17 17 15 18 17 14 17 18 14 13 14 13 10 10 12 11 10 12 13 8 9 8 4 4 7 4 12 14 14 17 11 18 21 20 21 22 22 21 20 22 25 22 17 21 22 21 25 24 20 20 19 20 19 17 19 13 23 
19 21 21 26 21 17 22 20 15 15 16 20 18 20 18 14 16 16 17 15 13 15 14 14 18 17 19 17 15 17 16 14 13 12 11 12 10 10 12 13 13 10 8 8 7 3 6 8 11 13 14 14 19 18 21 24 19 19 24 20 20 25 22 22 22 24 23 21 21 22 23 19 19 19 19 24 20 20 24 22 
20 21 22 19 20 20 17 28 17 18 17 20 21 19 21 18 19 14 17 16 19 14 14 15 15 16 18 18 12 14 13 15 11 10 12 10 9 6 10 11 10 9 6 7 7 4 3 6 11 16 15 15 19 15 17 20 21 21 20 21 21 20 21 24 20 22 24 21 21 25 23 20 24 24 21 20 20 26 25 25 
20 22 23 20 20 20 20 22 20 17 18 20 17 16 20 14 15 18 16 16 17 13 16 16 21 15 17 21 16 14 15 12 11 13 11 8 8 9 8 10 13 9 9 11 11 0 4 7 13 13 10 13 16 19 19 20 22 23 22 21 20 25 25 20 23 20 23 24 24 23 23 20 21 26 22 19 19 22 21 25 
20 23 29 19 22 21 20 20 16 18 17 22 20 24 21 18 17 16 15 19 16 14 15 19 19 17 17 17 16 15 15 11 11 11 8 9 10 8 11 11 9 10 7 7 10 5 8 10 13 13 14 14 17 19 18 20 21 24 22 23 23 24 23 23 28 20 23 23 22 20 23 21 21 23 22 22 19 24 19 26 
21 19 26 23 22 22 21 19 17 18 18 21 18 18 23 19 16 17 15 18 16 16 22 19 18 16 22 19 15 15 13 9 11 15 10 8 11 7 9 10 10 8 10 5 7 6 7 15 13 13 16 16 16 18 15 23 21 23 22 22 23 25 22 24 24 23 25 26 22 21 24 22 21 21 22 20 23 21 25 26 
23 23 23 20 22 20 18 19 15 17 14 18 16 19 21 17 18 15 17 17 19 16 18 16 20 20 16 16 13 15 12 9 11 10 10 10 8 8 10 12 5 7 9 5 5 7 13 13 14 14 15 14 12 14 20 22 21 17 23 20 26 23 19 24 25 21 23 25 25 30 24 21 19 26 20 22 20 20 25 25 
23 23 22 21 21 20 19 20 20 16 16 17 18 20 18 14 14 16 17 19 14 12 16 17 17 20 16 15 16 15 12 10 12 12 8 9 7 11 13 13 9 10 9 9 14 17 19 18 20 18 19 15 18 16 17 19 23 21 23 21 25 22 21 26 25 25 25 25 24 23 28 22 21 18 26 20 23 23 25 19 
24 24 27 23 19 25 20 24 24 20 15 17 18 19 20 18 18 18 16 16 16 17 15 18 19 18 21 20 15 14 11 15 8 9 11 11 9 12 12 12 11 9 11 15 19 16 21 21 20 16 22 20 19 16 20 18 22 21 27 21 25 24 23 24 27 24 27 28 22 25 26 21 24 25 24 26 23 24 22 24 
21 23 23 20 20 24 24 24 21 22 18 20 19 20 21 19 18 18 17 17 16 17 16 21 19 20 20 17 16 15 15 12 11 14 11 9 7 11 14 16 16 19 19 21 18 13 16 23 21 20 20 16 18 21 20 26 24 23 24 23 26 27 23 27 26 24 24 28 25 23 26 23 25 23 25 23 22 22 25 24 
20 23 22 23 21 19 21 24 19 17 21 19 19 21 23 19 21 16 20 18 20 17 16 17 21 20 20 18 19 17 14 16 13 12 9 14 14 12 14 19 21 18 17 19 24 27 17 24 26 24 21 17 18 18 24 26 25 22 24 26 26 26 27 27 25 28 24 29 28 23 28 22 24 24 24 22 24 27 24 27 
20 23 25 20 20 22 20 21 20 16 18 21 19 20 24 18 20 18 16 23 18 15 16 21 22 20 20 17 19 16 17 13 11 15 16 15 17 20 20 21 18 16 20 24 45 53 42 39 28 21 21 24 22 20 23 26 23 25 25 25 28 28 26 28 27 29 26 31 32 28 30 22 24 21 26 25 26 25 24 23 
25 23 23 22 19 21 21 19 22 21 20 26 19 23 25 16 21 22 25 27 24 18 17 21 23 17 18 19 17 20 20 16 16 18 19 17 12 16 18 20 20 19 21 17 57 64 61 64 59 51 39 30 32 27 24 26 28 25 31 25 26 31 28 28 30 31 29 31 30 26 32 26 24 26 27 28 27 26 26 26 
16 23 30 23 18 20 24 24 20 22 26 24 24 25 27 21 23 30 23 26 25 21 19 20 22 19 17 17 19 22 25 24 16 17 14 17 16 17 23 16 14 11 11 20 66 71 69 65 69 70 68 61 56 37 33 29 29 30 28 27 29 31 29 30 33 27 31 31 32 30 32 26 28 30 28 25 25 24 25 27 
17 20 26 21 24 23 26 24 18 23 36 47 61 68 68 41 28 30 30 23 15 21 16 19 24 21 23 24 24 23 22 20 14 16 17 22 20 16 14 10 10 13 11 25 71 72 71 75 80 71 72 74 73 68 62 60 42 36 36 32 26 30 31 34 31 27 29 32 32 31 32 28 27 30 28 29 27 30 25 30 
19 21 27 22 22 25 22 25 22 31 58 93 100 106 108 80 44 43 22 23 21 23 19 22 25 22 24 29 22 19 17 20 18 19 18 16 12 11 9 11 12 8 12 29 74 70 73 77 79 77 75 77 80 83 81 82 79 67 61 47 37 34 35 36 35 33 31 32 34 35 31 29 28 28 29 30 29 29 27 31 
20 22 22 22 21 22 23 22 25 34 75 107 118 116 114 100 70 34 23 23 26 31 30 30 27 26 30 20 22 24 26 20 18 14 10 9 11 14 11 13 13 11 12 42 77 76 74 76 76 78 80 76 84 83 88 90 86 80 82 74 71 57 43 40 42 39 32 34 34 32 34 29 31 30 32 32 29 30 31 33 
17 20 25 19 21 22 24 25 30 33 79 110 116 120 120 111 64 27 23 29 40 38 35 24 25 22 22 29 20 20 13 13 14 11 9 10 10 9 11 12 13 9 17 53 81 74 78 79 79 81 83 82 86 89 90 91 87 86 84 80 82 78 76 69 56 49 41 37 33 32 33 31 29 32 32 35 29 33 32 35 
16 17 23 21 20 23 21 24 26 31 85 121 136 142 147 126 71 26 30 38 41 45 31 32 30 26 32 22 16 20 13 14 9 14 9 8 12 12 10 10 9 13 14 58 79 74 80 77 80 85 84 88 88 87 92 93 90 88 88 83 84 83 84 87 85 78 66 61 44 44 39 36 30 35 34 33 32 35 35 41 
15 18 20 17 17 20 16 23 21 29 71 128 160 168 165 117 86 35 43 40 40 34 32 31 30 25 27 19 16 16 15 13 13 14 11 10 8 8 13 10 12 12 16 74 82 75 77 82 85 83 88 91 90 92 94 95 94 90 87 85 85 87 88 88 89 85 86 83 80 67 60 40 44 39 36 38 33 33 44 40 
14 18 22 20 18 16 15 21 23 25 59 124 160 166 159 114 88 41 31 26 27 22 18 23 19 22 25 22 16 16 13 15 12 7 8 10 13 11 12 10 9 11 23 81 81 77 80 80 82 86 88 89 93 91 91 95 96 94 93 86 91 89 93 94 91 90 86 87 86 87 87 75 64 54 47 36 35 36 34 38 
12 15 24 17 15 15 19 21 24 24 47 96 114 120 109 105 85 32 25 21 20 16 16 23 24 22 22 17 15 18 14 18 11 12 14 14 12 10 15 10 12 13 34 85 79 82 81 82 83 86 88 91 92 93 96 95 97 96 93 92 89 98 96 100 95 88 90 88 94 95 97 86 88 82 67 60 49 42 42 44 
14 11 17 18 15 15 18 18 16 21 38 84 90 100 97 95 86 57 33 25 20 16 19 20 17 18 19 15 15 17 17 12 11 12 10 10 13 12 16 11 10 14 45 85 83 81 85 89 86 86 90 92 92 93 96 100 99 97 96 94 95 97 98 98 98 96 93 94 95 95 98 94 94 93 100 85 80 67 61 55 
15 12 16 12 12 14 12 18 17 23 56 78 86 88 98 88 82 83 65 44 28 16 17 20 20 18 19 18 13 14 13 13 11 10 10 14 12 13 16 11 13 15 61 89 87 81 85 84 85 86 89 93 93 92 99 97 99 98 98 94 94 97 95 97 100 96 100 97 96 99 98 96 95 97 93 92 91 91 86 79 
11 11 18 18 16 16 14 19 21 41 65 73 75 82 83 78 79 74 72 64 41 21 15 20 19 16 19 18 16 14 14 14 12 10 15 17 14 10 15 11 14 24 74 91 85 81 83 83 86 88 88 89 94 91 97 94 97 99 98 97 99 98 96 101 106 102 100 104 102 101 106 96 96 97 100 97 94 93 94 92 
9 11 17 15 10 19 16 20 29 54 62 64 68 74 73 72 73 70 68 69 55 33 20 16 18 14 18 13 10 14 11 9 11 17 16 17 16 13 17 13 14 28 88 94 83 79 85 83 88 84 87 90 94 92 98 97 98 97 98 100 101 103 104 102 105 101 103 103 101 99 104 98 102 99 100 95 95 93 95 90 
7 12 9 12 10 13 17 20 34 47 54 56 59 60 63 64 67 65 65 64 64 43 24 14 13 15 16 13 14 14 12 14 16 22 18 18 19 16 21 20 17 34 96 96 87 82 87 86 88 85 87 90 94 97 99 102 100 101 100 102 101 104 102 106 105 105 104 105 102 102 107 100 99 101 99 98 96 93 94 91 
11 10 8 14 11 12 17 27 41 43 48 49 52 61 66 62 62 62 63 63 63 55 39 18 16 12 12 15 14 14 19 20 17 20 21 21 22 23 26 25 25 45 107 94 93 85 86 86 94 92 93 90 98 100 99 107 104 102 104 102 104 103 108 107 111 106 107 109 104 106 109 105 102 101 101 101 95 97 95 96 
7 13 14 15 12 14 16 27 42 43 44 51 52 57 62 62 58 62 60 59 60 56 38 18 18 14 15 13 12 19 21 20 19 20 24 23 21 27 33 29 31 60 107 98 91 89 87 92 98 91 98 96 106 106 104 105 105 103 102 106 107 106 107 106 110 113 111 113 111 109 110 108 106 103 109 101 96 94 95 96 
7 10 16 14 13 15 22 32 35 37 44 45 49 51 58 59 54 58 62 63 62 48 30 18 18 11 17 14 13 17 20 17 21 20 26 25 23 26 36 33 30 79 113 96 94 91 90 93 93 101 99 100 103 104 106 108 108 107 105 106 108 107 107 109 114 109 113 112 111 109 113 108 105 103 103 103 97 97 95 96 
13 14 13 13 14 16 20 26 30 36 38 45 41 48 59 55 53 55 56 55 53 26 16 16 18 12 14 11 13 19 17 18 19 22 26 23 22 26 34 29 27 95 113 98 96 90 93 94 96 99 100 100 103 105 104 108 108 107 108 108 109 109 113 112 111 113 113 114 111 112 115 110 104 101 106 105 99 98 92 94 
12 7 15 13 19 17 22 27 26 29 38 48 43 48 55 53 49 51 44 35 26 18 15 17 19 15 14 9 16 19 16 18 17 21 21 24 21 31 34 32 33 115 113 104 95 96 99 98 102 101 104 104 107 107 109 110 108 107 116 110 108 112 112 113 112 115 116 113 111 114 116 111 110 109 105 105 101 99 95 99 
9 8 13 20 24 24 21 21 24 25 36 36 38 41 42 38 32 27 19 25 16 16 18 20 19 17 15 16 16 17 18 19 17 22 21 26 20 32 31 28 47 136 121 110 105 104 99 105 103 108 108 106 108 111 107 112 112 110 109 113 109 110 112 116 117 116 115 114 113 113 119 113 106 108 108 102 106 99 99 99 
5 10 15 23 19 21 22 17 20 17 22 24 23 26 28 20 24 22 18 20 17 15 17 22 18 16 25 17 17 15 16 16 12 16 18 16 17 24 27 26 50 122 132 133 117 112 108 111 111 111 109 111 112 110 111 109 111 114 110 110 109 111 115 119 118 120 116 117 115 116 118 117 107 109 105 104 98 100 101 102 
4 13 18 14 15 15 18 15 17 12 24 22 18 23 22 19 18 16 16 14 19 15 17 19 20 20 23 17 18 19 16 14 13 13 14 15 17 22 21 25 39 82 116 139 152 130 120 116 113 113 113 110 112 110 113 111 112 115 111 112 113 117 116 118 123 121 119 120 115 120 122 112 111 109 107 108 106 99 103 107 
10 8 15 19 14 20 11 14 13 18 17 19 23 24 22 15 17 14 16 23 22 17 19 17 21 18 20 21 16 15 14 11 9 13 12 16 15 22 26 31 31 42 65 103 142 148 148 137 128 119 120 115 117 114 110 109 115 111 111 112 114 114 122 122 121 122 124 122 116 116 118 113 111 114 111 108 102 106 103 104 
7 11 17 15 9 14 9 18 14 16 19 20 20 22 21 16 19 17 18 21 21 20 21 25 23 19 23 22 16 16 8 9 8 11 10 11 14 20 31 39 37 28 41 55 90 120 139 155 141 136 127 124 121 117 113 114 113 112 113 110 115 116 119 126 124 123 120 121 117 119 122 116 112 115 110 110 107 106 105 109 
8 12 15 9 12 14 18 17 15 16 16 18 20 20 22 14 18 17 18 26 22 22 27 28 30 24 25 27 15 13 8 8 8 9 9 11 19 25 42 40 35 33 47 40 51 67 106 126 148 148 146 139 133 121 122 118 115 115 117 111 111 117 119 128 127 124 124 120 125 121 123 119 113 116 111 110 110 104 107 110 
9 14 14 15 16 12 18 17 15 15 18 19 22 25 22 20 29 23 24 30 27 26 29 33 33 31 31 30 20 18 14 12 8 13 7 12 22 28 36 43 39 36 42 42 37 38 60 85 122 136 160 165 151 135 125 122 121 122 119 118 121 121 121 127 127 122 122 128 124 122 123 121 114 107 110 116 116 105 106 108 


