P2
80 60
175
20 18 14 17 12 14 14 19 17 20 19 18 20 20 23 22 24 21 17 16 21 17 22 20 16 16 18 17 20 15 19 19 18 16 18 14 16 15 17 17 21 17 20 18 18 20 19 19 22 19 17 17 18 19 23 24 26 21 15 14 14 17 20 18 16 17 15 15 14 13 14 10 17 14 18 15 16 13 10 6 
19 17 20 16 19 16 19 21 20 21 18 20 17 21 21 21 19 20 19 17 21 16 20 17 17 17 19 15 17 20 19 19 15 19 20 15 14 16 18 18 19 18 20 19 21 20 20 21 18 21 21 18 18 18 22 26 22 18 20 17 17 15 18 17 18 10 11 14 10 10 10 16 14 13 19 16 16 13 12 6 
20 16 19 17 18 18 26 21 21 21 19 17 20 19 23 24 20 17 22 17 19 19 18 16 17 17 19 16 17 16 19 21 17 16 19 16 15 21 21 18 21 20 19 19 17 19 17 17 21 19 19 15 19 18 18 18 20 17 18 18 16 16 15 17 13 10 10 13 9 12 18 14 16 14 17 14 16 13 4 10 
20 17 16 15 19 20 19 19 18 19 22 20 15 20 17 21 23 19 22 21 20 18 17 16 18 20 18 17 22 19 19 18 17 15 18 15 16 20 19 18 18 19 19 21 18 17 19 21 23 21 19 18 16 14 21 20 16 17 18 18 21 20 20 18 15 15 12 15 11 13 15 18 11 16 16 17 12 13 13 13 
17 18 20 16 16 18 20 23 19 22 20 15 17 17 21 25 20 19 21 20 20 17 17 21 19 19 21 16 18 16 18 18 16 15 15 16 16 18 21 19 22 20 22 20 21 19 22 21 20 21 20 19 19 19 20 22 19 18 17 17 17 19 18 20 16 14 15 18 16 17 20 16 15 14 21 16 14 10 12 11 
18 17 20 18 18 16 17 23 21 22 18 17 18 21 24 21 18 21 24 22 22 20 20 18 20 18 20 20 19 14 19 17 16 15 17 14 18 20 19 18 20 23 25 18 19 19 21 23 21 20 22 19 20 18 20 25 22 20 14 20 19 20 20 18 18 14 16 15 17 18 15 13 12 15 16 13 12 15 9 7 
21 18 21 17 19 18 19 20 21 20 18 20 20 19 20 21 24 22 18 21 21 20 20 15 19 21 22 19 22 16 15 15 17 15 16 20 15 19 18 19 24 18 20 21 19 16 20 23 20 19 21 22 19 18 24 22 20 23 28 19 17 20 18 15 20 16 13 16 13 18 17 13 11 10 15 16 12 10 6 8 
20 23 20 18 20 23 17 22 18 21 19 17 21 21 19 23 21 23 20 21 21 23 22 21 18 20 22 18 23 21 16 15 14 14 18 20 15 17 20 20 26 21 17 18 18 17 23 17 20 15 19 19 21 16 20 27 19 17 19 21 19 20 22 19 18 19 13 15 14 10 15 14 10 13 15 16 13 10 4 4 
21 19 19 20 20 18 19 21 21 21 16 18 20 22 23 20 21 20 22 19 20 21 25 20 23 21 19 17 20 17 19 14 16 16 18 16 17 18 18 17 20 18 19 17 17 18 20 23 18 21 18 19 19 18 20 23 21 23 18 20 20 19 19 18 17 17 12 15 9 13 11 12 15 10 17 14 9 12 6 7 
23 18 20 17 23 22 20 22 19 17 20 17 19 21 20 24 25 19 21 18 19 21 23 20 19 19 21 16 14 16 18 14 13 13 19 17 16 17 16 15 21 16 17 15 17 19 16 19 21 20 18 17 20 15 17 18 17 17 18 19 19 22 14 19 14 12 14 10 13 10 13 14 12 11 12 10 12 9 10 5 
23 20 20 21 21 21 25 23 20 20 19 17 17 21 23 19 19 22 19 17 19 19 19 18 18 19 17 17 16 15 13 16 18 15 17 13 13 14 18 18 18 17 18 17 15 17 17 17 18 17 19 16 17 18 17 22 19 16 16 14 21 22 14 16 19 14 15 16 10 12 8 11 7 13 15 13 11 12 11 4 
21 22 24 22 22 20 21 22 16 18 18 18 19 21 20 20 19 18 17 20 21 23 19 17 18 18 17 15 14 17 17 15 15 16 16 15 13 17 17 18 24 18 18 18 17 19 20 19 18 19 18 17 15 16 19 20 17 17 17 16 17 17 16 15 14 15 18 13 13 9 10 10 12 13 12 19 14 12 10 5 
25 20 23 26 22 20 17 22 18 19 17 17 17 22 20 21 18 18 17 16 24 22 20 18 16 15 15 15 18 16 16 15 15 15 17 11 15 15 19 17 20 20 16 18 19 19 22 17 19 19 19 15 13 14 18 21 19 17 17 15 16 16 20 17 15 17 14 12 9 11 0 11 6 14 13 16 28 13 7 8 
17 23 25 20 21 18 17 19 18 20 16 16 19 22 19 24 21 16 19 14 21 25 16 18 18 13 14 13 19 16 16 16 17 17 16 15 13 15 14 17 20 18 15 16 18 21 21 23 15 19 17 17 15 16 17 23 23 18 20 16 13 18 15 18 18 12 14 16 10 8 13 10 12 15 18 15 13 16 3 6 
24 25 21 22 18 19 21 21 18 16 14 18 22 18 24 20 16 16 17 14 19 19 18 18 16 16 13 16 18 13 15 17 14 13 15 15 11 16 16 18 21 17 19 15 19 18 18 20 19 20 17 17 15 12 19 24 23 30 21 16 16 15 15 19 13 15 15 14 13 13 12 11 15 15 11 17 14 7 7 12 
26 27 22 20 26 18 18 20 23 20 17 19 16 21 22 22 20 19 20 18 18 20 17 18 17 16 18 18 16 15 17 17 14 13 16 14 11 14 13 18 21 19 18 15 20 17 20 19 16 20 16 16 16 17 22 22 20 23 22 19 16 19 19 19 19 15 15 16 13 13 12 14 17 15 19 19 10 14 11 9 
25 26 25 19 22 17 15 20 18 19 16 18 16 20 22 21 18 20 17 18 16 21 17 18 16 19 17 18 16 16 16 17 17 18 14 17 14 18 16 19 18 18 19 15 15 20 21 17 15 14 15 16 17 18 23 19 19 19 22 17 16 18 17 17 16 14 15 14 14 13 14 12 18 13 13 18 13 12 11 11 
22 23 24 22 21 20 17 23 22 23 18 17 17 17 22 20 20 17 18 20 18 13 16 17 18 17 17 19 19 16 16 17 17 18 19 13 12 16 14 19 19 17 20 13 18 20 18 18 16 15 16 17 16 21 26 23 19 25 19 17 15 17 15 17 15 15 20 15 14 17 15 13 9 12 14 13 12 13 11 14 
21 22 24 24 22 19 21 21 17 18 18 17 18 19 22 19 20 18 20 19 17 18 21 18 17 16 20 18 19 14 20 16 21 15 17 16 12 18 16 16 21 19 20 20 17 16 16 14 18 14 17 16 20 19 19 23 19 20 20 15 18 17 16 17 15 13 13 16 14 13 15 11 15 12 14 11 12 11 11 9 
17 20 25 19 23 22 22 18 19 17 17 18 16 14 19 21 17 19 19 19 19 21 24 16 17 18 19 15 14 15 20 22 12 18 16 14 15 18 16 17 22 20 19 21 17 15 16 18 18 18 14 16 17 15 19 21 18 15 16 15 16 15 19 18 15 15 15 13 11 13 15 14 12 13 14 13 11 11 12 10 
20 24 25 24 21 23 19 15 18 16 19 17 16 19 18 18 16 19 20 16 19 18 23 18 19 18 17 15 17 17 29 20 15 14 15 15 12 17 16 17 19 20 19 14 16 14 15 18 17 17 17 16 16 16 20 21 19 17 16 16 13 16 16 16 12 13 15 15 15 14 14 13 11 12 18 11 9 13 9 12 
25 23 21 22 22 23 20 21 21 17 17 19 24 22 21 22 19 20 18 19 19 24 23 23 21 19 17 18 18 17 20 19 16 17 17 16 15 18 18 21 19 18 19 14 14 12 18 20 16 18 17 15 19 17 18 21 15 16 20 17 15 19 17 18 13 12 16 14 16 15 19 14 15 13 19 16 10 12 6 10 
22 17 21 22 20 17 20 24 21 22 18 19 22 24 24 19 20 19 20 22 23 18 17 19 18 20 18 17 19 13 18 20 19 14 15 17 14 17 17 22 19 15 16 15 23 13 16 19 16 17 18 17 14 18 23 19 16 16 17 17 18 16 14 18 16 16 15 18 17 15 15 16 14 17 15 14 11 15 10 8 
19 20 20 22 21 19 25 26 19 19 18 19 19 18 23 24 20 19 18 19 18 19 20 19 21 19 19 17 17 15 18 19 18 15 17 14 11 16 15 16 17 16 19 17 18 15 18 19 16 18 17 17 18 15 14 18 17 12 15 14 14 16 15 18 18 12 18 16 12 15 15 15 11 15 17 13 12 10 6 10 
19 20 21 18 27 20 20 26 25 19 19 18 17 18 23 19 21 21 21 20 16 25 20 18 21 19 16 18 17 15 12 16 15 11 13 17 13 14 14 16 18 19 17 14 18 17 16 16 15 19 16 14 13 13 15 16 14 15 17 19 15 15 13 17 18 19 19 13 13 14 13 15 15 15 14 12 12 16 13 11 
20 20 22 20 23 21 23 24 21 24 19 20 21 20 28 23 20 22 23 21 21 23 24 22 22 21 19 16 19 13 18 15 13 13 12 12 15 15 13 17 18 14 18 14 18 20 15 19 16 16 16 14 15 14 16 18 15 15 19 19 19 16 15 17 16 15 18 14 14 15 13 15 15 17 19 14 9 15 13 8 
20 18 21 22 23 22 24 28 21 19 20 19 19 20 24 24 23 20 18 17 18 21 27 21 21 23 19 21 19 15 13 12 18 12 16 16 13 15 15 16 18 17 17 15 15 20 20 17 16 14 15 16 14 14 17 18 15 14 16 15 16 19 14 17 16 14 19 13 15 12 12 10 18 17 17 12 13 16 10 11 
22 22 21 23 24 24 25 25 24 22 19 20 22 21 25 25 18 23 19 21 19 18 19 18 23 18 22 21 19 17 17 15 15 13 13 13 15 13 16 17 19 19 19 16 17 20 21 15 14 14 14 16 16 12 14 21 15 16 14 17 15 15 14 17 14 16 18 15 13 14 16 11 12 19 18 15 11 15 9 12 
23 23 25 25 20 21 23 23 23 20 22 18 22 26 24 21 21 20 19 25 20 19 22 19 18 22 17 18 22 17 18 14 13 15 17 14 15 16 16 18 20 16 20 15 15 19 19 17 15 16 14 14 14 15 19 20 13 17 18 13 16 14 15 18 16 13 15 14 13 15 14 13 12 9 16 13 11 12 9 14 
27 25 29 26 21 22 23 25 25 20 21 20 18 24 23 23 21 21 19 19 20 21 21 20 20 18 20 17 21 15 20 18 15 14 14 16 13 17 18 17 19 18 19 17 18 18 19 16 17 18 16 11 13 12 16 24 17 16 17 14 17 19 13 18 16 19 22 15 13 10 16 11 13 11 14 13 11 10 10 11 
28 24 28 28 25 24 22 26 23 19 22 21 21 22 28 24 26 20 18 18 20 22 20 20 21 22 21 18 18 19 17 16 14 15 17 14 15 16 16 18 18 18 22 19 19 18 15 18 17 18 15 12 12 13 16 18 16 15 14 13 14 16 14 21 21 16 16 17 11 18 13 14 14 18 13 12 16 12 11 9 
26 28 29 24 25 22 23 24 26 25 20 22 23 23 25 25 26 20 20 18 22 23 24 22 21 19 22 17 20 16 17 17 14 13 17 16 12 13 15 17 21 18 18 18 19 15 16 17 16 19 18 13 15 14 19 17 17 14 15 13 15 17 16 17 19 13 17 16 13 11 16 13 14 15 18 15 15 11 12 9 
28 28 30 25 26 25 23 24 25 25 20 23 22 23 25 27 27 22 24 19 22 23 21 22 22 23 23 20 19 19 19 18 18 16 14 16 15 16 17 20 24 19 21 19 20 16 16 18 17 18 18 15 13 13 15 22 18 17 14 13 12 17 16 19 18 16 15 16 15 12 14 13 14 18 17 12 13 11 8 11 
29 28 28 29 27 24 27 30 24 25 23 25 26 22 25 27 24 26 25 21 23 27 24 27 24 24 25 19 23 25 20 18 19 17 15 13 13 16 21 22 26 26 21 22 21 19 18 18 15 19 16 19 16 17 18 25 19 19 16 15 15 20 17 20 19 17 19 18 15 13 12 16 15 23 17 11 16 14 14 11 
32 31 27 29 35 27 27 30 24 23 25 26 23 26 27 27 28 27 23 26 24 24 24 26 28 28 22 24 25 25 19 19 21 19 18 17 15 19 18 22 27 23 24 22 26 21 21 21 16 21 17 18 17 15 18 26 19 19 19 15 15 18 13 20 20 19 21 19 15 17 13 16 19 18 18 16 15 14 12 12 
34 29 33 31 30 29 27 28 29 26 26 26 21 27 26 24 26 27 28 24 22 22 28 26 26 21 25 26 25 19 19 22 21 19 17 16 16 17 18 21 23 24 19 18 19 18 20 21 23 16 16 15 19 17 16 24 13 16 18 15 18 17 15 18 19 20 17 18 11 13 10 17 16 17 15 15 17 19 9 13 
34 35 34 33 37 33 33 32 29 30 25 29 28 29 30 28 28 30 28 26 25 25 28 25 24 26 22 25 21 23 21 20 21 20 21 19 16 17 18 19 20 22 19 21 22 18 21 21 23 19 17 17 16 20 20 17 18 18 17 20 17 22 16 18 16 20 20 15 17 13 16 16 16 15 16 19 14 19 16 12 
36 42 36 35 37 38 32 33 30 28 29 30 30 27 32 25 26 33 29 27 28 27 24 28 23 24 23 22 23 22 23 19 20 22 21 19 17 18 20 19 24 19 21 21 19 17 22 20 22 18 19 17 18 14 24 24 19 19 17 13 15 20 18 22 16 18 20 16 12 16 13 14 17 17 17 19 14 14 13 12 
73 60 56 38 40 41 32 35 34 30 29 30 32 30 29 31 26 28 26 27 29 27 28 26 25 24 24 22 28 22 23 19 22 22 20 18 18 18 17 23 20 21 23 22 19 19 20 19 18 19 18 18 19 17 22 25 20 16 17 18 15 18 14 21 17 20 19 17 11 13 12 14 14 20 19 20 13 14 13 17 
81 72 63 48 46 42 36 32 36 30 31 33 30 32 28 29 31 26 27 23 30 25 29 26 26 28 26 25 23 22 22 21 25 23 24 19 17 17 18 23 21 20 22 22 22 18 25 19 19 20 19 18 20 19 17 24 20 18 12 15 14 18 15 16 20 18 20 15 12 11 13 14 10 17 18 16 13 17 12 16 
90 84 63 65 61 50 43 40 33 35 33 32 32 33 30 29 29 28 29 25 27 27 31 28 32 29 34 25 25 20 23 22 24 25 21 21 16 20 22 22 24 21 22 20 25 21 19 19 19 20 19 24 22 24 18 18 16 17 15 12 13 19 16 19 19 12 15 15 11 12 13 11 16 19 19 13 16 18 17 15 
89 82 69 66 69 64 60 53 37 34 31 34 33 33 31 33 33 28 26 29 27 27 28 27 28 30 28 26 24 22 23 23 24 28 21 21 20 20 20 23 26 23 22 21 21 20 19 22 17 24 20 20 20 18 20 22 18 20 16 12 14 17 16 17 19 14 14 13 15 15 13 13 14 16 16 13 14 17 18 12 
92 86 75 68 68 69 69 75 60 58 41 39 33 37 34 33 34 31 29 26 28 29 29 28 30 32 33 30 23 23 25 22 24 26 24 21 21 21 22 21 27 21 21 22 26 20 22 22 23 26 21 18 18 19 21 22 20 18 18 15 15 17 19 18 14 15 15 15 14 10 14 11 12 17 15 19 17 20 19 13 
94 86 72 65 70 69 73 80 73 73 62 55 42 40 36 33 32 31 30 31 33 31 27 28 30 25 31 32 30 24 23 23 24 26 23 21 20 20 24 23 27 22 22 20 23 25 24 31 24 25 24 20 19 18 18 23 17 20 17 16 19 19 16 16 18 12 16 13 13 12 13 13 13 18 19 19 18 15 14 11 
94 88 72 68 67 75 72 79 74 76 79 76 70 56 46 36 34 36 34 31 32 29 31 32 32 30 25 28 28 24 24 24 24 24 21 23 20 20 25 24 28 22 26 22 26 23 24 22 23 20 23 18 17 14 18 20 16 19 18 18 16 20 15 18 19 11 15 14 10 10 11 10 12 17 21 21 16 14 12 18 
96 97 76 72 74 74 76 77 80 82 75 82 84 87 81 61 48 35 38 31 31 34 29 28 34 33 28 28 27 29 26 30 25 21 26 24 20 20 21 24 27 25 22 23 24 21 21 22 20 25 21 20 18 19 19 21 14 16 18 13 19 17 18 21 19 20 15 13 14 15 15 12 14 19 23 19 15 14 12 15 
101 91 81 72 71 75 73 79 77 79 83 86 86 91 88 86 76 62 47 36 37 32 30 30 29 29 33 24 26 31 27 29 21 24 24 24 18 21 20 23 23 23 23 23 24 24 23 19 18 21 20 17 19 18 18 21 21 19 18 19 18 16 15 17 15 16 20 17 9 11 12 13 12 12 18 11 12 11 11 14 
100 103 84 72 75 74 79 82 83 81 81 83 90 91 91 90 87 77 75 59 44 37 34 35 31 26 28 29 32 24 23 23 24 25 27 23 22 21 22 23 25 27 21 23 22 22 25 18 21 23 22 16 19 16 17 21 24 21 20 16 20 21 14 17 15 17 15 14 13 11 13 10 14 16 14 15 13 13 11 11 
105 100 87 78 77 76 78 85 85 83 82 84 89 90 90 91 88 90 85 78 72 60 48 33 30 29 28 25 28 26 23 26 25 25 23 24 20 21 17 23 27 24 22 20 28 22 25 18 19 18 16 18 15 15 18 21 16 16 15 15 19 18 14 17 19 15 13 15 12 13 15 12 15 12 14 19 14 11 12 10 
115 111 95 81 78 80 76 85 83 85 85 83 92 89 94 91 88 92 92 84 87 81 75 62 43 37 31 29 28 25 25 27 27 28 27 20 19 18 20 22 25 22 25 26 25 22 24 23 15 19 16 17 22 22 26 23 18 15 18 12 18 18 15 15 21 13 12 15 11 12 14 12 13 17 20 15 15 13 10 8 
109 113 97 80 82 79 81 85 84 88 83 89 87 88 94 94 91 90 91 87 87 86 81 76 70 56 44 30 30 26 21 25 24 27 25 19 16 19 20 18 22 22 20 23 27 21 22 21 16 19 15 15 18 16 23 22 15 16 18 16 18 16 15 16 21 18 13 15 15 14 17 12 15 11 20 16 18 13 8 9 
119 114 101 94 86 81 83 85 84 84 87 88 89 92 95 94 96 92 91 90 90 87 84 80 80 73 65 54 38 30 24 26 28 29 29 21 8 14 11 14 18 18 19 18 23 19 18 17 20 19 21 10 17 16 22 23 15 15 19 17 16 14 16 19 17 17 12 13 11 12 12 11 16 14 15 22 17 15 9 9 
121 120 114 92 85 85 82 88 85 92 88 91 91 93 99 98 94 96 95 90 93 86 82 84 81 77 75 69 60 43 29 28 25 27 25 19 12 14 16 17 20 17 17 20 17 15 18 14 19 18 17 18 15 16 23 25 18 19 22 15 17 17 17 20 21 17 15 15 14 12 14 13 10 13 14 13 10 12 7 14 
126 118 120 92 91 89 89 89 90 93 90 90 92 97 104 99 96 92 93 94 88 88 90 83 81 81 79 78 62 44 30 26 27 26 22 15 14 16 16 16 19 15 15 14 16 17 20 18 18 16 17 14 17 20 22 25 25 20 21 18 20 16 17 17 19 17 15 15 13 10 15 17 15 20 16 15 10 12 11 9 
135 126 129 110 91 91 87 90 89 95 93 97 99 99 102 101 98 98 94 93 93 92 91 87 89 83 83 75 68 40 25 27 28 27 21 16 13 15 14 16 21 18 16 15 13 15 16 15 15 14 18 13 17 21 21 25 26 16 18 16 17 18 13 19 19 15 11 13 10 12 14 16 15 17 15 16 12 13 8 3 
144 137 139 114 91 86 87 92 91 96 95 100 104 101 103 101 98 94 96 97 97 92 87 89 87 81 78 74 66 44 26 24 26 26 24 17 16 17 14 19 18 20 15 18 15 16 15 14 16 16 17 17 15 15 22 21 24 15 14 16 13 17 12 17 16 13 13 13 12 15 17 9 12 17 22 13 19 11 10 12 
159 154 148 126 96 86 89 94 92 97 97 100 109 103 106 105 100 105 100 100 96 95 91 85 83 79 81 76 63 42 27 22 22 24 24 17 15 16 17 18 19 20 20 19 17 19 19 20 20 23 19 19 19 16 16 23 19 12 15 17 17 15 15 15 27 18 11 15 12 12 12 11 16 18 23 18 14 16 10 10 
175 168 157 135 101 92 91 95 94 97 97 104 105 106 109 111 105 106 96 101 98 96 98 90 84 84 80 76 66 45 30 22 21 26 22 16 18 18 18 23 26 24 22 23 24 20 22 32 22 25 15 20 16 17 16 21 15 15 15 13 17 16 17 16 22 13 14 13 10 13 10 12 14 13 17 15 18 11 5 8 
165 168 175 149 111 94 94 101 98 101 99 100 104 106 111 114 106 100 100 100 103 101 93 96 87 88 82 75 75 44 27 28 22 24 22 17 14 17 18 21 26 20 24 22 24 20 21 24 26 24 17 17 17 16 22 21 17 14 13 16 16 14 15 21 19 14 11 11 12 11 10 12 15 11 17 11 13 12 8 8 
96 135 156 149 117 97 96 97 99 100 103 98 102 105 115 110 103 107 103 99 100 98 92 86 85 86 84 78 65 48 25 25 24 19 21 17 20 15 15 19 25 20 21 21 24 20 19 19 18 23 14 13 18 16 16 18 16 12 14 12 12 12 13 14 17 9 9 11 7 7 9 8 9 13 9 13 16 11 8 9 


