P2
80 60
55
36 39 37 35 36 37 35 38 37 39 41 38 37 37 40 36 39 40 37 41 41 40 41 40 43 45 45 46 45 43 45 49 44 45 44 47 47 48 46 46 45 45 48 48 48 48 49 46 50 48 46 47 49 46 49 49 49 51 52 47 46 46 45 42 39 39 33 33 32 33 32 32 33 29 33 32 28 23 27 27 
44 42 38 36 36 38 38 40 40 40 40 42 37 37 41 39 42 38 40 42 41 44 43 43 44 45 47 49 45 45 48 49 43 44 48 48 47 47 49 48 46 47 49 47 47 49 47 48 48 50 46 45 51 50 48 49 52 49 49 45 46 45 45 41 40 43 29 33 32 31 31 27 30 32 32 34 27 30 31 22 
36 40 36 36 36 34 39 41 38 42 43 40 36 36 40 40 36 42 41 41 45 45 44 41 38 46 43 47 43 46 47 51 45 47 49 47 47 47 52 48 44 47 47 45 45 44 43 43 46 47 47 46 49 49 52 50 49 44 47 45 44 44 42 43 40 36 31 32 33 31 32 31 35 34 28 30 30 27 28 28 
38 37 40 33 38 36 43 39 35 40 43 38 37 33 37 37 41 41 40 42 40 42 39 41 44 44 42 47 42 47 45 48 43 48 49 47 48 48 51 47 45 47 47 45 46 49 48 48 49 51 49 46 49 48 48 48 45 46 43 47 47 47 44 44 43 39 31 35 32 32 32 31 31 30 28 32 26 27 27 27 
41 46 40 39 39 42 41 42 43 40 40 40 35 35 39 43 44 44 43 45 45 43 42 42 44 47 49 45 44 49 49 44 44 42 44 48 46 49 50 47 45 46 48 49 48 46 51 48 48 49 49 46 50 49 48 50 44 47 43 46 49 48 43 48 44 41 31 37 35 32 32 33 32 32 30 30 30 30 28 29 
43 45 41 39 41 39 38 45 41 39 37 38 39 37 39 43 43 43 43 45 42 47 42 45 44 46 47 48 45 49 48 45 39 51 46 45 49 50 50 50 47 49 53 45 48 47 52 52 50 51 48 49 51 51 47 50 47 48 45 45 47 48 51 43 42 39 30 38 38 35 36 32 32 28 32 30 31 29 28 34 
46 45 41 39 40 42 40 43 39 37 38 37 36 39 43 40 46 44 41 40 44 43 42 41 42 44 45 48 45 43 46 46 42 44 46 47 48 50 53 50 49 46 49 46 49 51 48 47 50 49 50 51 52 50 49 50 47 51 51 48 51 50 45 44 45 38 31 34 35 33 28 31 29 32 27 31 29 28 25 27 
48 41 41 39 39 40 45 44 38 38 40 37 41 41 40 42 44 41 44 42 46 44 43 42 42 45 43 47 43 48 46 46 41 41 48 51 51 49 53 49 51 43 50 51 49 48 50 49 51 49 50 49 52 50 47 55 46 49 49 52 49 48 48 44 44 42 34 33 34 34 30 31 33 29 31 30 28 29 27 29 
47 47 41 39 40 46 51 44 39 41 38 39 42 38 40 43 45 42 41 48 43 45 42 43 44 43 45 48 50 46 48 41 42 41 48 49 51 48 48 51 44 47 45 47 47 47 47 49 50 47 49 52 50 47 48 51 47 44 46 52 45 46 44 43 44 40 33 36 33 35 30 33 31 28 28 27 28 26 28 27 
46 46 46 42 40 42 46 47 39 40 39 40 40 40 37 40 45 41 42 46 47 44 43 46 50 45 47 49 47 50 47 41 45 43 48 47 50 50 49 46 45 46 46 45 45 46 45 46 49 48 47 49 48 50 48 49 46 40 51 46 45 46 41 41 41 41 33 37 34 31 30 30 32 32 30 28 31 27 31 30 
40 47 45 41 41 41 50 44 38 41 39 37 39 37 42 41 40 39 41 43 40 41 43 43 41 43 42 45 49 46 43 45 44 43 46 48 47 44 48 47 44 45 45 44 44 44 46 43 45 46 48 47 49 48 47 51 46 43 46 43 42 46 41 40 40 40 31 36 33 32 29 33 32 28 28 31 27 25 28 23 
45 44 45 44 41 41 45 44 38 37 40 37 36 36 38 37 42 41 39 42 42 42 43 41 41 43 41 43 43 42 42 42 45 44 44 45 44 42 49 46 45 45 46 44 44 44 45 43 45 47 47 47 50 48 48 49 46 43 46 41 44 47 41 44 43 40 28 32 28 28 26 28 31 29 27 35 29 23 26 33 
52 43 43 42 45 40 42 44 36 40 38 36 38 35 39 38 37 39 36 40 42 42 39 42 43 43 41 42 44 43 42 42 42 44 43 44 45 48 51 49 44 46 43 46 46 44 46 44 47 45 47 50 51 48 46 45 44 46 42 42 44 49 44 39 39 36 29 35 30 35 18 28 28 25 29 29 25 26 32 28 
42 46 45 43 39 41 45 41 40 37 35 40 34 35 37 40 36 38 35 38 44 40 42 41 40 39 46 43 43 44 40 42 43 46 45 43 44 51 47 42 44 47 42 44 44 45 47 45 44 48 48 48 48 47 46 47 45 45 45 44 42 41 40 39 38 36 27 36 28 26 28 24 29 26 27 27 28 28 29 31 
41 44 43 40 39 38 39 42 38 39 36 36 36 37 36 38 38 39 39 38 41 40 42 43 42 40 41 45 41 41 40 40 43 46 44 43 46 46 46 46 42 44 42 42 44 44 44 42 45 45 46 46 48 46 44 47 46 53 47 43 41 41 41 36 37 35 28 36 30 28 29 28 31 25 26 26 32 27 27 28 
50 48 46 41 34 37 38 38 40 38 37 37 37 37 38 42 40 42 37 37 37 41 39 42 44 41 42 39 42 42 41 41 42 40 42 43 45 44 48 44 44 45 43 45 44 44 45 44 43 45 45 44 50 48 45 47 46 48 46 46 42 42 44 39 37 37 28 33 34 31 30 29 29 27 28 26 30 25 27 24 
44 51 44 41 38 37 42 39 38 38 38 35 39 35 38 41 37 36 38 37 37 42 36 40 40 41 41 43 42 43 38 40 40 40 41 43 42 44 46 45 44 44 44 42 40 50 43 41 42 45 41 42 50 43 47 47 45 46 45 42 39 42 40 40 39 37 27 34 34 34 34 29 31 29 26 27 29 23 31 25 
40 43 43 40 40 41 42 40 36 36 37 36 34 33 37 38 36 35 36 38 39 36 35 38 38 39 40 43 44 43 39 39 41 40 41 43 45 44 46 44 39 40 42 42 43 43 42 42 43 41 42 41 49 46 49 46 44 47 45 41 44 39 38 37 36 35 28 34 33 33 32 24 31 26 25 29 26 26 29 25 
42 42 44 43 41 39 39 38 34 36 40 35 34 35 39 39 39 35 37 38 38 37 39 43 39 40 39 40 43 41 38 37 41 43 44 43 45 43 42 43 43 42 41 45 42 42 43 41 44 42 41 44 52 46 43 43 42 46 43 41 41 38 37 39 37 34 26 33 34 33 28 25 27 27 27 24 26 26 30 25 
45 44 44 42 44 44 42 34 37 38 42 38 35 36 37 37 38 37 38 38 38 42 44 40 41 41 45 41 40 40 43 40 43 40 43 42 45 45 45 43 43 42 42 44 42 42 43 42 43 43 43 45 46 44 44 48 43 42 40 40 39 42 41 38 38 36 26 36 34 33 31 26 26 28 27 25 25 25 28 26 
43 43 50 45 44 39 39 40 34 42 39 36 38 37 37 37 36 38 39 38 39 39 39 42 41 40 41 42 42 40 49 42 40 39 43 43 45 43 44 43 44 44 44 44 40 39 39 40 40 39 40 43 46 42 47 40 42 42 43 40 42 42 40 39 34 32 28 33 33 31 32 33 31 31 29 25 23 26 29 29 
50 43 46 44 39 41 40 38 37 36 41 37 41 34 36 40 36 36 35 39 37 38 38 38 37 37 43 40 39 40 40 40 40 39 39 47 46 42 43 42 44 42 41 39 40 38 39 37 43 40 41 42 45 43 44 44 41 42 44 40 37 40 39 40 39 33 30 35 36 35 31 31 27 27 25 27 27 26 30 26 
46 43 44 41 39 39 42 40 43 41 38 38 37 38 39 38 36 35 37 42 36 34 39 40 38 38 39 40 39 40 38 41 40 37 41 41 44 44 45 42 40 39 40 36 37 36 37 39 41 43 41 42 42 43 43 44 38 40 40 38 43 41 39 39 38 34 29 34 33 32 31 31 35 27 26 28 27 25 29 28 
46 45 43 42 41 40 39 47 38 38 38 41 38 35 39 37 36 36 36 39 35 37 35 40 39 39 38 40 35 35 32 37 38 39 36 37 43 40 40 43 41 40 39 40 35 38 39 35 39 44 43 42 45 42 42 40 39 37 39 40 42 41 41 37 36 32 30 34 32 31 29 28 28 31 28 27 28 27 31 30 
42 44 45 43 39 40 42 41 41 39 37 38 36 36 37 36 36 35 37 37 37 36 34 37 38 38 37 38 38 34 33 36 38 41 41 43 41 41 41 40 39 37 40 41 42 40 40 39 41 41 46 43 44 43 39 44 41 39 41 38 40 41 37 35 36 37 31 35 31 32 26 29 29 29 27 27 30 24 32 25 
43 41 40 40 39 40 42 41 35 38 40 39 33 38 38 37 35 34 31 38 35 37 37 37 39 35 38 40 36 35 34 35 40 36 37 43 42 41 39 40 40 40 41 40 39 43 40 42 39 40 43 42 42 43 38 42 38 38 39 39 38 37 38 35 33 33 30 37 31 29 33 30 32 27 28 29 27 26 29 26 
42 43 44 39 40 44 44 39 37 42 39 36 35 35 39 37 36 35 33 35 37 35 39 40 39 37 37 42 36 37 34 36 38 33 42 40 42 40 40 39 37 39 38 41 38 41 38 36 39 39 43 43 40 38 39 40 36 36 37 38 38 37 35 35 31 30 28 33 32 30 31 29 31 23 27 28 29 30 31 23 
44 43 45 40 43 38 40 40 37 41 36 36 34 36 35 31 32 31 34 35 32 35 36 39 38 38 39 40 37 41 35 37 36 34 40 43 41 38 40 37 39 40 40 41 40 40 37 38 41 41 44 43 42 39 37 38 36 35 36 37 37 37 36 35 36 27 25 34 32 29 30 30 30 28 25 29 29 27 26 30 
43 45 41 41 39 41 39 40 37 41 38 38 36 38 34 34 30 30 31 38 32 36 36 39 36 36 40 39 35 37 36 33 33 38 39 43 38 40 40 38 36 36 40 39 38 39 39 40 41 40 43 45 40 36 37 39 35 34 39 37 37 39 35 35 33 28 26 30 27 30 30 27 27 27 26 25 26 23 27 23 
49 44 42 38 35 38 39 39 44 41 37 37 37 35 29 33 31 31 31 35 32 35 37 36 37 37 35 39 32 36 35 36 36 37 38 40 42 38 39 37 37 38 40 38 39 37 41 37 41 40 42 39 40 38 38 42 35 38 34 34 37 39 37 35 33 31 32 36 32 31 30 26 27 22 25 28 28 25 23 24 
45 41 43 38 37 37 37 37 37 40 35 35 36 34 34 32 31 29 28 36 33 38 41 38 38 34 35 38 34 33 35 32 34 35 41 40 39 35 42 41 37 39 45 40 39 42 37 42 42 39 40 40 41 38 38 39 33 34 36 36 38 36 37 34 34 29 27 33 32 32 29 27 24 28 26 26 26 24 27 19 
45 44 38 39 41 38 37 40 37 39 39 35 35 31 32 32 32 30 31 35 31 33 37 35 34 38 40 36 33 34 32 37 33 36 38 39 39 38 39 38 40 39 38 40 40 35 36 37 38 44 40 38 36 37 35 37 34 36 34 35 34 36 34 35 36 32 28 30 31 35 27 28 27 25 24 29 27 25 25 23 
45 41 41 45 41 41 37 39 36 40 39 36 33 33 32 30 32 31 34 36 32 33 33 35 33 34 37 37 34 34 34 36 34 34 35 38 36 34 37 38 37 40 39 34 39 37 35 36 37 43 41 40 36 38 42 36 34 35 36 35 34 34 37 35 29 31 31 32 33 33 27 25 29 25 23 28 32 23 26 23 
41 41 40 41 41 39 35 37 38 37 38 37 31 32 31 31 30 29 29 33 30 35 33 34 33 31 34 36 31 32 34 35 35 33 36 34 37 36 40 38 37 40 39 36 39 37 37 35 39 41 42 36 36 36 37 36 37 39 34 34 34 36 34 31 33 33 29 31 30 32 26 24 25 30 29 27 29 26 27 26 
39 40 43 39 37 38 36 35 35 33 38 36 35 32 28 30 32 30 29 34 32 34 32 33 36 34 33 38 32 30 35 32 34 34 41 37 38 35 36 37 36 36 34 37 38 37 38 37 35 38 39 38 34 39 35 37 37 38 36 32 35 37 35 29 31 27 27 30 30 32 28 24 28 25 27 28 29 25 24 22 
41 40 38 37 39 37 39 35 35 34 39 35 33 32 31 24 27 28 31 32 30 33 34 36 32 30 33 31 31 32 32 35 36 34 37 36 39 35 35 36 35 35 34 32 37 34 39 39 38 39 37 39 40 37 36 36 35 37 35 38 32 32 34 30 28 29 25 30 29 32 27 24 27 25 27 29 26 25 27 20 
40 39 40 40 37 39 39 38 34 34 37 33 29 25 28 28 30 31 31 31 33 34 33 34 31 29 32 33 30 32 34 34 33 33 36 34 39 35 33 37 32 36 35 34 35 35 34 38 36 39 36 37 40 35 35 34 32 35 35 36 32 34 31 30 31 29 26 33 29 28 29 23 21 25 25 27 26 27 27 24 
36 44 43 40 39 41 41 36 35 32 36 34 32 25 27 23 30 34 31 32 32 34 32 30 30 28 29 29 31 32 37 35 34 34 36 35 36 33 33 33 32 36 37 37 36 34 35 35 38 39 38 36 34 36 36 37 35 31 32 34 34 33 34 29 30 31 27 29 31 27 25 21 23 25 24 25 29 19 22 28 
40 45 51 42 41 39 37 39 38 35 42 34 26 24 27 28 26 31 30 31 30 33 31 33 28 30 28 31 28 30 35 35 34 35 34 36 36 34 38 34 33 33 37 36 37 34 38 36 38 43 41 38 36 38 37 37 32 33 34 32 31 31 31 30 27 28 28 31 30 30 24 20 21 23 24 28 28 20 26 25 
46 43 42 39 38 39 37 40 38 34 38 34 29 22 24 26 26 27 27 31 30 32 30 35 29 29 30 30 29 31 34 35 34 34 36 35 37 33 36 37 33 35 36 33 34 37 40 36 40 45 37 40 37 36 36 36 33 32 31 32 31 31 29 30 25 28 25 28 27 26 25 24 23 28 24 28 28 25 26 24 
43 44 43 39 38 38 38 37 36 34 36 29 25 28 28 25 26 25 26 29 26 30 31 33 28 30 31 32 26 32 34 35 35 35 38 34 34 32 36 34 32 31 34 33 34 35 39 39 41 41 41 45 37 36 35 36 31 29 31 31 29 32 29 26 27 26 22 26 25 26 23 23 22 24 27 27 28 27 34 24 
41 42 42 37 38 35 36 33 36 36 34 30 28 26 26 26 26 26 27 29 30 31 32 32 29 27 29 29 28 27 33 32 32 32 37 32 37 34 33 33 30 34 32 31 34 36 37 38 40 41 39 40 36 35 34 37 31 31 31 30 29 28 27 27 24 24 21 23 26 25 25 24 26 22 24 26 28 25 27 22 
42 44 42 38 34 38 38 34 38 34 35 28 26 25 28 25 25 24 27 29 29 30 28 31 28 29 26 26 26 29 30 31 31 32 33 33 36 37 34 31 31 31 31 34 34 37 39 39 40 40 39 35 35 34 35 33 33 33 29 31 30 31 31 31 28 25 21 24 30 22 20 20 25 22 22 26 25 22 28 21 
44 39 40 37 35 38 34 35 37 36 35 29 25 24 25 22 25 25 28 30 27 25 27 27 26 28 28 23 25 27 33 33 32 30 32 32 36 33 31 30 31 34 31 32 33 34 39 43 38 41 34 35 33 33 30 34 32 32 30 30 29 31 29 24 23 26 24 21 29 26 24 19 21 24 22 22 25 21 24 23 
40 43 39 35 36 35 37 38 36 36 30 29 25 23 19 22 22 24 24 25 29 29 27 29 26 25 24 23 23 29 33 33 31 34 33 34 32 32 32 30 31 31 31 31 34 35 41 40 37 40 35 32 33 31 32 33 30 31 29 31 28 28 26 24 25 27 25 26 28 26 22 21 24 22 25 26 22 17 19 22 
39 39 37 35 37 34 33 34 32 33 30 28 21 21 26 24 23 24 22 26 27 29 27 28 25 23 26 23 22 27 34 30 29 31 32 35 34 32 30 31 27 30 30 34 37 36 37 37 36 36 38 33 32 31 32 32 29 29 27 27 30 29 24 25 26 26 26 23 28 23 24 20 23 24 25 26 24 19 17 16 
38 38 39 35 34 35 33 34 34 35 31 26 26 20 25 24 25 25 23 24 31 29 27 27 24 23 21 24 21 29 33 34 30 29 29 33 31 32 29 28 30 28 32 33 36 39 35 36 36 37 33 34 33 30 28 32 27 28 28 25 26 28 26 21 23 25 22 29 27 26 20 22 23 20 27 21 24 14 21 16 
40 42 38 33 29 32 32 36 32 39 28 26 19 22 21 22 24 22 22 22 27 29 27 26 25 21 23 24 21 32 30 27 28 34 30 29 35 30 32 30 29 31 28 32 32 34 36 33 36 36 32 32 32 28 29 28 28 30 28 27 25 25 24 25 21 22 20 26 26 23 22 20 24 23 26 19 22 15 22 21 
37 39 35 35 36 34 36 34 36 36 23 19 19 17 20 23 22 22 24 25 23 27 31 26 24 20 23 24 20 26 28 25 28 29 32 29 31 32 31 29 30 27 25 31 33 31 36 33 36 33 31 30 30 29 28 33 29 30 29 29 26 23 23 20 20 23 21 27 27 24 20 22 22 20 26 22 21 17 21 17 
40 36 36 34 34 31 33 35 35 33 28 20 17 16 19 22 21 23 25 23 26 27 26 27 24 21 19 20 19 25 25 25 29 27 33 28 32 28 31 30 30 30 29 31 32 32 29 31 32 35 31 25 31 30 31 29 27 28 30 25 25 28 19 23 19 21 20 20 26 21 22 20 20 20 21 21 20 17 13 18 
35 40 35 35 35 30 33 33 34 33 26 21 9 14 18 22 19 20 18 21 26 23 21 23 20 23 19 20 21 24 27 28 30 28 31 29 29 28 33 26 27 30 32 29 31 32 31 32 32 31 28 25 27 30 30 32 27 26 23 25 25 24 20 20 18 20 21 22 24 21 21 18 17 21 20 21 20 16 18 19 
38 41 36 34 37 33 38 36 33 32 29 17 14 16 16 17 19 14 21 26 28 27 21 25 21 23 19 21 19 24 28 27 30 28 35 34 30 29 30 25 24 27 29 30 32 30 31 30 31 32 29 27 29 32 26 34 28 29 26 25 22 22 21 15 18 21 21 26 21 21 22 20 20 22 20 23 21 15 19 13 
42 39 39 39 37 37 34 37 37 37 24 18 18 14 12 15 15 15 19 21 19 23 23 23 23 22 21 21 21 28 28 25 26 30 28 28 28 29 27 22 29 27 28 30 29 29 31 32 34 30 28 27 29 28 30 32 30 28 30 26 23 22 18 20 17 22 22 23 23 21 19 19 20 25 21 24 18 12 15 19 
43 35 37 36 41 36 32 34 34 36 24 17 21 14 16 15 17 16 17 18 18 24 21 23 19 20 20 23 22 26 27 27 24 27 31 28 26 25 27 26 22 25 25 25 27 27 31 31 31 32 29 28 31 28 28 32 26 31 27 25 22 22 17 16 15 21 19 19 21 21 19 20 18 21 23 19 17 18 15 16 
37 37 36 35 35 34 37 33 35 35 20 15 14 21 19 17 14 11 14 16 19 20 21 19 20 21 23 26 23 22 25 26 25 27 27 26 26 25 24 24 25 24 27 25 24 27 26 32 30 32 29 26 28 29 28 30 30 28 25 22 21 20 17 15 17 20 18 18 19 22 20 19 21 20 22 20 18 17 20 16 
37 35 36 31 36 37 32 39 32 35 24 14 18 10 24 16 15 16 15 17 17 20 16 20 17 18 19 21 17 25 24 26 22 24 24 26 29 24 24 22 23 26 26 29 25 25 28 30 29 29 29 25 29 26 26 32 26 23 22 23 20 21 15 17 16 21 16 21 18 18 23 22 21 24 18 19 13 12 20 16 
32 36 33 29 33 37 33 31 34 31 18 15 20 12 17 18 15 19 13 18 15 19 15 19 15 16 17 18 16 19 24 22 25 22 24 26 25 26 24 24 26 25 25 26 26 25 30 29 32 32 26 25 26 23 24 28 26 25 25 23 20 19 13 14 19 23 18 20 19 21 20 18 22 23 22 19 16 14 18 13 
31 36 34 26 31 32 31 34 36 35 17 13 17 12 13 13 18 17 16 14 16 19 16 15 12 14 15 17 17 18 21 24 24 23 22 23 27 22 23 22 27 22 25 23 25 25 27 30 30 29 25 24 23 22 25 25 23 25 22 22 21 18 13 18 14 22 16 16 22 22 19 17 20 19 17 18 17 15 13 16 
31 35 34 29 30 27 33 32 34 34 14 10 13 11 12 7 10 15 14 16 17 16 16 15 15 14 16 20 19 21 20 20 26 24 23 24 27 23 24 21 22 24 31 24 26 25 25 29 27 28 26 23 22 24 26 23 23 23 21 22 18 16 13 15 18 22 15 17 20 17 16 17 22 18 14 17 16 14 13 11 
33 31 36 30 24 31 30 30 32 21 0 0 3 5 12 8 10 12 14 16 15 18 11 16 14 18 16 17 17 20 21 22 22 23 24 25 29 25 24 23 22 23 22 29 27 26 28 28 28 30 25 19 24 21 25 29 22 23 25 19 16 16 12 14 19 22 14 20 18 18 18 16 21 16 13 16 14 15 14 9 


