P2
80 60
256
160 155 158 148 149 152 150 143 143 149 154 154 148 154 146 144 140 136 135 116 74 30 29 42 65 84 95 101 110 121 119 129 130 129 128 127 124 129 127 132 133 128 125 127 129 122 125 121 114 102 110 123 129 126 130 131 139 144 148 143 139 144 145 140 137 137 134 131 134 136 135 136 140 138 139 141 138 135 136 134 
156 160 157 150 145 151 152 145 144 148 150 155 150 148 147 143 142 134 137 114 74 30 33 52 67 82 93 103 112 117 117 125 125 125 128 127 124 124 123 131 136 128 132 126 126 124 124 124 111 102 111 121 127 126 132 132 143 147 146 138 142 143 138 139 139 132 133 134 134 134 135 138 137 141 141 142 140 135 141 135 
160 157 157 152 146 152 151 148 142 149 152 149 150 150 147 145 138 138 140 122 71 28 30 50 80 93 96 103 115 117 118 123 122 124 126 127 124 125 125 129 128 131 125 125 126 124 124 124 110 102 113 124 128 127 128 132 139 145 148 140 140 146 142 139 140 133 134 139 136 137 138 141 139 142 138 143 143 138 138 135 
158 158 154 151 146 151 148 140 142 151 155 150 147 152 146 149 141 137 138 112 65 29 31 46 68 94 98 101 109 116 117 122 122 120 122 124 125 127 128 128 129 129 126 126 125 128 126 122 118 104 114 123 127 125 127 134 140 144 144 142 143 144 144 140 138 133 137 137 140 137 141 143 140 139 136 142 144 136 141 136 
158 154 151 148 142 147 146 136 147 148 150 150 147 146 148 145 135 131 135 114 59 18 18 42 62 86 92 99 102 111 112 113 117 117 119 121 121 125 127 127 126 127 128 125 124 126 124 126 111 103 118 123 128 123 130 134 136 144 145 145 141 146 147 142 140 136 139 139 140 140 138 140 137 139 140 139 139 137 137 133 
155 158 154 146 143 148 147 139 147 147 151 145 149 148 146 140 137 129 131 106 49 9 4 29 50 68 81 97 101 107 107 113 114 115 117 120 119 123 123 123 127 128 128 126 127 125 127 123 114 104 114 124 128 122 129 137 139 143 147 143 143 141 144 140 138 138 134 140 145 140 139 137 140 139 139 140 140 135 136 137 
158 155 150 149 143 148 146 135 140 147 149 148 148 149 147 143 138 135 137 102 44 11 5 22 38 57 77 98 104 104 108 110 112 111 120 117 123 121 126 124 129 127 123 129 124 125 127 123 112 102 119 125 128 124 129 132 139 143 150 143 141 142 142 137 137 135 134 137 140 142 138 138 137 139 138 138 141 136 136 133 
157 155 154 147 144 152 143 138 140 148 152 148 146 148 149 143 136 137 133 102 43 13 5 17 39 55 75 92 98 104 102 107 110 110 113 118 120 120 120 125 128 125 122 128 125 121 126 119 110 101 120 126 131 125 125 132 136 150 144 143 143 139 141 139 138 137 136 137 140 136 138 138 136 138 139 138 135 137 135 131 
158 156 156 155 147 146 146 144 140 152 151 156 154 149 151 141 143 137 137 100 45 13 3 15 35 56 74 90 96 98 102 105 109 114 113 117 119 122 121 119 125 125 126 126 126 125 124 123 107 101 121 125 127 128 126 128 139 144 145 141 141 143 143 140 139 138 138 136 139 137 138 139 140 139 136 136 138 135 137 130 
156 154 156 153 145 151 152 137 143 148 149 153 147 148 149 148 144 138 133 93 40 14 2 13 39 62 70 84 89 93 97 104 110 112 116 114 116 118 119 122 124 124 124 127 124 124 124 118 113 103 119 122 126 124 123 127 133 142 142 142 142 141 144 141 137 137 138 139 140 138 137 137 138 140 132 135 138 134 135 130 
157 157 150 148 146 149 155 138 134 136 147 150 146 150 150 149 141 139 139 100 41 13 0 17 40 69 71 82 85 91 94 103 119 121 121 113 112 117 118 121 125 123 120 123 125 123 120 118 109 98 119 122 123 122 122 129 138 144 144 143 140 141 144 141 138 138 139 140 135 137 137 139 138 136 135 139 140 135 135 135 
161 156 155 149 145 147 150 134 130 137 143 152 145 150 149 144 139 138 132 102 40 11 1 19 34 61 69 81 80 84 91 108 125 128 125 117 112 113 117 118 125 121 122 124 124 123 124 118 108 102 123 123 123 116 120 130 137 146 141 139 142 144 145 145 141 136 137 137 136 137 136 134 136 140 137 143 138 133 135 138 
155 154 152 153 142 144 146 122 122 132 141 149 148 148 146 142 141 138 134 98 38 13 3 18 36 56 64 79 76 85 91 108 126 128 129 117 110 112 114 116 123 122 122 123 126 123 122 117 103 99 120 122 121 113 122 127 139 144 140 141 142 146 146 144 137 135 136 138 136 136 133 135 139 141 139 138 140 137 139 137 
152 153 152 146 142 145 142 126 118 127 143 146 145 148 146 146 135 138 126 94 37 9 2 15 31 51 62 74 71 78 87 103 121 121 120 107 108 114 111 115 120 121 119 122 123 125 120 120 106 106 119 122 123 118 121 129 139 146 142 143 144 141 139 142 141 136 136 139 136 134 137 135 139 137 134 139 140 134 132 137 
152 155 151 146 140 141 131 119 116 120 134 145 147 147 146 144 139 139 120 95 33 9 0 16 26 45 63 80 78 80 90 105 120 113 119 107 109 110 108 113 119 119 120 121 118 123 119 115 107 104 116 124 122 121 123 134 144 151 147 142 142 142 143 138 139 137 137 139 137 136 136 137 138 140 136 136 140 135 135 132 
155 154 153 145 145 137 123 110 114 119 135 145 144 145 145 144 135 135 119 94 30 10 2 12 28 51 66 80 85 92 98 116 116 114 120 113 114 113 112 113 116 120 117 121 124 120 121 113 105 101 121 123 124 120 122 133 141 148 146 144 139 145 144 138 139 138 140 141 142 140 137 139 140 137 137 136 138 136 136 135 
153 155 152 147 140 137 128 105 112 113 127 141 141 144 142 142 143 141 115 98 28 7 0 11 27 49 71 83 92 97 99 106 113 110 119 115 121 122 112 112 115 122 120 124 124 119 121 113 105 105 120 126 126 119 129 134 142 148 145 144 144 143 146 146 137 135 138 140 141 139 140 141 142 138 139 141 136 137 141 135 
154 153 153 143 138 137 127 111 113 106 131 141 140 142 143 146 138 136 114 97 30 7 0 10 28 51 63 91 92 93 96 106 113 110 114 117 119 121 112 115 114 118 112 121 119 117 117 111 100 105 117 122 123 124 128 133 137 149 145 142 145 141 145 141 137 136 140 141 143 138 140 142 139 137 140 140 137 134 135 133 
152 151 150 146 136 135 132 110 115 120 132 140 140 144 144 142 139 137 117 91 27 10 1 13 27 52 69 87 90 97 96 104 105 106 114 115 120 124 120 118 116 117 117 120 117 116 116 109 98 106 117 120 128 122 125 135 136 144 145 143 144 145 142 142 139 139 140 141 139 139 138 140 139 138 137 138 135 135 134 131 
150 153 152 141 133 139 130 116 112 123 131 140 141 142 140 143 136 132 109 92 29 13 7 13 27 53 73 89 87 93 95 102 98 107 113 112 114 120 119 114 115 116 118 116 119 113 116 110 101 105 120 122 122 120 124 134 140 141 141 141 144 144 142 141 137 138 142 138 139 138 143 140 138 138 135 135 134 135 132 136 
151 149 148 140 132 137 127 113 114 122 133 139 143 144 145 140 136 129 108 89 25 12 9 15 29 51 75 93 89 94 96 100 100 104 109 113 118 125 120 112 116 114 115 116 118 113 116 103 100 105 119 122 121 119 124 133 138 139 140 142 146 142 141 141 136 139 139 141 142 138 138 141 140 138 136 134 137 137 139 138 
151 148 151 133 132 133 130 118 116 117 131 138 146 147 143 137 139 129 100 87 29 12 14 17 36 58 79 95 92 91 95 98 105 104 105 110 117 123 120 112 112 112 116 113 116 115 115 109 102 102 119 122 119 131 123 131 134 142 143 142 145 140 142 140 141 138 140 140 142 144 138 141 139 139 137 134 137 134 137 132 
150 149 143 132 127 134 125 114 118 122 124 136 137 143 143 141 133 126 99 82 26 18 13 17 37 62 82 98 92 93 97 99 104 104 107 108 112 121 119 112 111 112 113 113 111 110 112 103 98 107 117 119 121 118 119 130 138 139 141 143 142 141 144 140 137 142 138 140 140 142 139 140 140 139 136 138 138 137 133 132 
150 150 146 137 128 131 116 107 115 114 121 135 136 139 140 142 135 124 98 78 23 22 22 26 42 60 82 96 93 93 96 100 102 105 110 105 103 109 112 107 111 111 110 112 113 112 113 100 96 104 118 120 119 119 118 130 138 140 142 144 143 143 142 140 140 139 142 141 142 142 141 140 140 137 136 137 142 135 134 135 
149 149 143 129 121 129 108 96 106 113 119 131 137 136 141 136 134 122 92 77 26 29 26 25 41 54 74 92 92 90 90 96 100 104 106 102 101 103 102 106 113 107 112 113 113 111 114 105 96 100 114 116 117 112 122 129 134 141 142 142 143 141 142 140 140 139 141 142 140 140 142 138 138 140 136 137 140 136 137 135 
147 148 143 126 122 126 108 99 102 113 123 132 134 138 140 138 134 115 91 77 25 28 35 33 40 60 69 79 83 92 93 95 96 103 105 106 100 97 100 105 109 108 108 111 111 114 108 105 92 105 113 115 117 116 121 131 137 143 144 141 143 140 143 143 143 140 140 139 139 142 138 141 137 143 141 143 138 137 138 133 
144 144 142 126 121 125 113 93 97 112 126 134 134 134 134 135 130 114 90 74 27 31 39 35 44 57 61 78 84 92 88 94 98 96 103 101 98 94 98 101 103 110 108 112 112 110 107 104 92 102 112 118 114 112 118 132 133 138 144 141 139 144 143 139 142 139 138 139 139 138 138 139 137 139 139 136 139 136 135 137 
148 150 144 125 123 123 109 98 107 120 130 135 130 134 134 133 127 114 91 81 29 32 41 38 45 62 69 76 76 86 87 96 95 94 99 98 101 95 96 101 108 108 106 113 111 110 109 99 88 103 113 117 115 112 116 133 136 140 141 143 141 143 141 143 141 141 143 142 143 141 140 138 140 141 136 138 138 135 139 134 
149 151 144 123 117 124 109 100 109 119 124 129 127 137 132 135 129 109 90 78 29 24 40 39 44 58 67 77 79 83 87 91 93 94 98 97 97 96 99 105 102 105 109 110 110 107 108 97 88 109 112 112 111 112 120 132 141 141 140 141 141 143 141 143 140 142 141 141 141 142 139 139 139 139 141 140 140 137 134 134 
149 147 148 119 115 124 114 101 118 101 101 129 132 132 133 132 124 103 87 75 28 30 39 40 46 58 65 73 74 84 83 90 94 93 94 92 93 95 99 100 104 107 106 109 108 107 104 96 87 107 113 112 113 105 123 131 136 139 141 140 145 137 143 143 141 141 145 141 141 142 140 144 139 136 139 142 137 138 136 136 
147 147 143 118 111 122 111 93 97 79 86 106 106 111 129 114 108 94 82 69 22 26 43 44 47 56 60 70 74 80 81 86 88 93 91 86 89 95 94 99 97 105 110 106 109 112 103 96 87 102 108 108 104 104 118 129 136 140 139 140 139 138 142 143 140 138 143 141 143 142 143 143 140 139 139 138 138 139 132 130 
146 148 147 117 108 121 99 62 65 70 76 76 78 84 94 84 76 81 81 70 20 28 38 45 48 53 60 74 72 82 82 87 89 86 87 83 86 94 89 98 104 103 104 109 109 106 98 89 86 103 106 105 103 103 120 127 136 137 140 138 143 138 143 139 141 140 139 140 142 143 141 141 140 140 139 138 136 135 137 137 
145 143 144 117 107 117 104 55 56 59 70 70 69 75 79 66 64 76 79 71 20 22 30 42 48 55 59 67 75 78 79 83 89 79 85 82 84 90 90 98 100 103 105 108 106 107 98 92 85 101 101 105 100 101 118 130 133 137 137 140 145 141 143 143 141 142 143 142 148 144 142 138 137 137 137 137 139 137 139 137 
144 144 139 116 106 113 106 53 54 55 65 65 64 75 69 63 59 76 72 67 13 13 22 37 46 53 60 67 69 80 79 86 85 75 81 81 82 88 86 93 97 99 100 104 104 106 103 92 81 98 99 101 96 98 114 125 134 135 136 139 142 142 144 143 145 142 145 141 144 143 140 135 139 138 140 137 138 138 144 139 
146 142 143 120 106 112 106 48 45 46 60 65 60 65 63 60 55 70 71 59 7 7 20 33 47 53 59 67 71 79 77 80 74 72 78 78 83 85 92 99 98 100 106 102 104 107 99 90 86 100 103 92 94 97 120 129 134 140 135 139 145 147 145 150 152 145 146 146 145 142 144 142 142 142 141 143 142 141 147 142 
146 145 142 118 97 109 105 54 44 47 54 55 53 61 63 57 53 68 68 51 2 7 20 31 49 56 59 72 67 75 76 75 76 67 82 91 105 108 109 118 119 122 122 120 124 116 116 107 103 98 96 92 93 96 116 129 132 139 139 140 143 147 167 198 193 163 151 145 150 148 147 145 142 145 142 146 141 143 145 145 
144 147 140 116 93 107 104 56 37 34 48 48 44 54 54 49 51 65 66 46 3 13 33 42 53 56 62 64 67 72 66 69 70 70 77 114 134 138 135 143 147 146 143 144 149 141 144 143 136 112 96 90 91 94 111 125 131 133 135 143 150 149 189 227 237 196 154 152 157 152 150 147 145 148 147 144 146 141 142 139 
140 143 138 117 88 108 105 58 33 28 41 39 37 39 43 38 44 65 58 44 4 16 37 44 50 46 56 64 59 60 60 62 67 71 87 127 138 145 147 152 153 150 152 151 153 151 151 148 150 127 101 87 89 92 111 128 127 134 138 143 144 150 196 256 256 198 159 157 160 150 148 147 144 142 143 143 141 136 134 140 
141 145 142 120 85 111 103 67 33 29 35 35 36 44 42 42 45 51 48 47 14 20 30 42 53 52 55 57 53 51 49 56 61 65 106 131 141 153 151 155 158 153 154 154 154 152 155 155 150 134 102 86 89 90 111 126 133 136 139 139 147 148 191 243 243 197 158 157 153 148 144 146 143 140 142 139 140 141 141 142 
145 141 141 119 79 102 104 69 36 27 35 37 36 39 40 41 40 46 44 32 22 27 32 41 52 57 53 59 57 58 51 55 64 74 130 138 144 148 155 152 158 156 156 157 157 156 157 154 157 142 110 90 88 90 110 125 129 134 138 140 144 150 180 207 214 189 158 146 147 147 144 144 141 143 139 140 141 143 140 153 
142 142 140 117 70 100 102 75 33 28 29 26 30 35 32 33 31 32 37 35 17 42 48 43 51 59 60 62 55 55 54 65 70 100 140 145 148 154 151 152 159 157 159 160 159 162 156 155 157 153 124 90 87 98 109 124 128 133 134 137 142 157 182 191 191 191 179 157 147 144 143 141 136 138 141 141 140 141 148 155 
139 142 139 121 70 96 100 73 34 22 29 21 19 30 27 18 26 28 33 48 64 78 69 53 51 56 58 56 55 56 54 65 78 118 143 146 153 153 156 157 158 163 158 161 160 157 156 159 157 153 139 96 86 91 111 127 129 133 132 134 148 164 180 181 186 185 184 170 147 142 141 139 142 141 136 138 140 143 147 165 
141 139 138 119 65 93 100 78 36 21 23 23 18 27 24 22 16 24 38 66 74 85 80 66 46 53 55 55 51 56 56 67 88 128 148 153 153 152 155 155 158 160 158 158 157 157 160 162 156 152 146 108 89 91 109 124 130 129 130 137 150 162 173 176 176 174 183 177 157 145 140 137 138 139 137 143 139 141 146 168 
144 137 135 122 66 92 97 77 44 27 35 35 28 36 31 33 34 46 58 71 78 90 83 68 52 56 56 56 55 57 63 76 117 140 150 152 156 152 152 158 161 161 159 162 160 162 164 166 155 155 153 131 94 92 108 123 126 133 140 141 149 156 165 171 171 172 175 166 152 144 142 139 141 142 140 145 149 146 148 181 
138 140 134 120 64 83 98 79 54 37 43 39 31 43 35 34 45 53 58 69 83 86 83 67 64 61 60 62 54 61 67 104 132 145 153 151 154 154 156 158 160 155 159 159 162 162 164 163 159 156 155 148 106 95 107 121 132 134 140 139 150 153 155 154 153 152 148 146 146 139 139 142 140 141 144 148 152 151 160 199 
137 133 134 126 70 83 100 80 63 41 46 46 42 45 42 43 48 53 60 61 76 85 80 66 70 73 67 70 66 71 90 126 148 150 154 154 156 157 153 154 162 163 159 161 163 164 161 160 158 153 157 150 135 109 115 129 126 135 140 142 148 145 146 148 142 141 140 145 148 141 140 140 137 145 150 148 152 159 163 211 
136 134 132 120 76 76 104 86 70 58 69 71 75 71 66 67 66 66 64 72 84 91 84 80 81 81 82 84 78 91 118 143 149 151 152 152 154 156 153 155 157 159 159 162 163 164 161 161 157 156 156 153 152 137 128 128 134 140 140 144 142 145 149 142 143 141 142 143 142 138 139 139 142 148 145 147 151 160 170 223 
134 136 134 124 88 87 100 85 72 77 95 92 95 99 96 101 94 94 102 93 99 102 101 98 102 103 101 102 103 119 135 146 154 151 152 148 155 157 155 159 158 161 159 162 166 163 165 163 159 145 150 151 156 152 149 137 136 141 142 143 142 143 140 142 141 139 142 143 147 138 141 142 140 143 146 146 149 156 184 237 
133 137 137 125 100 92 102 88 84 88 106 99 102 107 100 105 101 104 110 103 109 112 116 111 115 116 116 116 121 134 141 150 152 152 142 142 155 161 158 157 165 163 160 161 166 163 167 157 154 140 143 149 151 151 150 148 142 137 141 138 141 142 141 139 137 138 138 142 142 140 138 145 141 143 143 148 150 152 176 214 
130 133 129 127 105 100 108 92 97 103 105 107 106 107 106 107 102 109 109 108 111 113 115 111 119 116 114 118 128 143 148 151 153 146 131 144 153 159 158 163 168 164 163 163 163 163 162 156 149 137 141 143 155 156 160 162 144 139 142 144 150 140 144 143 144 146 147 150 151 145 147 146 141 144 137 148 150 153 160 163 
107 111 107 106 108 85 108 96 108 100 110 103 104 103 102 104 104 104 106 106 109 111 107 108 116 114 114 117 130 142 148 151 151 138 127 140 159 160 160 161 160 159 163 165 164 159 164 159 154 139 137 139 152 154 157 160 144 141 145 149 150 147 154 149 151 147 153 156 158 152 156 149 143 140 138 145 150 156 154 152 
105 102 104 100 97 94 103 102 111 106 111 105 102 105 103 103 97 103 107 104 113 109 109 109 110 110 114 121 135 142 146 148 151 131 137 142 160 158 159 162 162 163 163 164 164 161 160 159 155 140 139 139 148 154 162 159 156 146 145 145 149 148 153 146 146 150 153 153 161 160 155 153 141 141 140 148 157 163 161 153 
103 101 100 96 95 99 108 102 105 107 106 104 100 104 103 104 99 105 104 104 108 108 105 104 114 112 110 124 140 147 146 155 150 136 137 148 156 156 158 159 160 164 159 163 160 158 162 160 157 144 140 141 153 157 162 163 150 140 142 142 146 151 148 145 139 146 150 151 159 154 153 153 150 145 142 153 154 156 160 155 
101 99 106 99 103 99 109 100 111 108 107 104 103 105 101 98 101 102 102 104 106 108 104 108 113 110 108 122 137 145 145 153 154 146 148 151 157 160 160 158 166 163 159 162 164 160 165 161 157 152 151 152 158 159 164 164 152 137 137 137 140 140 141 139 138 139 140 145 148 147 151 149 147 141 146 156 155 155 154 153 
102 105 104 106 103 102 103 97 109 104 109 102 101 100 102 100 100 102 103 107 105 106 107 107 111 115 111 123 139 144 146 150 153 151 158 153 158 161 161 159 160 161 159 161 160 158 157 159 158 156 163 158 163 157 161 160 152 141 127 134 137 134 134 136 135 135 137 132 135 136 140 137 141 135 139 142 145 148 151 151 
100 102 104 97 96 101 107 100 107 105 111 104 103 101 101 100 100 106 104 106 108 106 105 106 108 113 112 114 130 145 146 150 153 153 158 157 155 156 157 158 160 162 161 162 162 160 162 161 160 160 157 158 161 159 162 157 154 152 128 135 135 140 136 136 134 137 139 133 132 137 149 142 138 142 139 144 140 141 150 147 
102 107 103 96 94 99 102 99 107 109 107 105 107 100 100 99 100 106 107 105 111 110 107 107 106 108 107 113 124 145 145 155 156 152 160 157 159 159 160 162 162 162 163 162 164 160 165 162 162 161 161 161 154 156 159 157 155 153 138 133 141 140 144 137 137 136 138 138 136 137 144 144 141 140 141 147 144 144 144 145 
104 104 105 98 95 102 104 102 104 105 106 102 98 98 101 100 107 107 106 106 109 108 107 106 110 112 108 110 120 137 145 150 156 153 161 159 156 158 159 159 160 162 163 163 162 159 161 165 160 158 158 162 158 155 159 153 152 154 150 140 144 143 140 141 143 140 138 141 140 141 142 143 144 145 144 146 145 144 142 149 
106 103 107 101 100 99 109 102 111 111 106 99 98 102 99 101 100 104 107 102 109 105 105 105 107 109 111 109 114 139 139 151 154 153 157 160 159 160 160 161 163 166 165 163 163 162 164 163 159 157 160 161 159 155 154 154 152 154 153 150 146 150 149 144 148 145 142 142 144 143 147 142 146 145 147 149 145 148 150 148 
108 104 106 102 101 102 108 103 107 105 105 99 95 96 93 98 99 100 105 99 104 107 101 102 108 109 103 106 107 131 135 150 152 150 155 160 162 163 156 159 163 167 165 162 162 163 161 160 156 158 160 157 158 155 154 154 147 151 152 150 155 148 150 156 154 148 154 149 145 148 151 149 145 147 149 151 145 152 151 150 


