P2
80 60
264
161 155 157 153 153 155 159 154 149 152 154 153 149 154 153 152 151 148 147 140 139 123 72 20 33 45 67 86 107 103 113 128 132 137 134 134 127 128 132 131 133 137 134 133 129 128 131 127 129 124 125 117 115 125 134 136 135 134 138 134 141 151 148 143 145 143 140 137 139 141 141 141 138 142 145 139 145 138 142 146 
156 160 157 152 151 159 162 155 149 149 150 153 150 153 156 151 152 148 143 138 141 117 69 27 34 51 70 86 104 104 114 129 128 131 134 132 129 127 129 132 135 139 141 131 129 132 129 131 125 122 125 118 114 120 138 136 141 133 137 135 143 146 143 146 146 136 139 141 139 140 142 143 140 144 144 142 146 139 146 144 
162 155 160 154 152 160 163 156 148 151 151 152 152 153 152 155 149 148 146 142 139 124 61 23 42 59 77 88 105 103 119 127 125 129 132 134 131 130 130 129 131 138 132 132 128 130 129 130 128 124 126 118 118 121 135 137 138 132 135 136 144 150 146 144 147 139 141 144 141 140 143 142 143 147 145 144 145 142 145 141 
163 158 153 156 153 159 160 151 147 154 157 153 151 155 154 155 148 149 146 142 141 117 70 26 37 66 81 95 104 106 116 126 125 126 128 131 131 129 132 133 132 132 133 131 128 131 131 128 131 127 125 120 114 117 133 138 133 131 134 142 146 149 146 145 145 138 143 140 141 143 143 143 142 143 144 144 146 138 146 143 
160 155 153 154 151 158 161 150 151 150 151 152 149 154 155 153 145 148 143 141 137 117 60 27 43 62 75 97 102 106 116 120 119 121 123 127 127 126 133 131 130 130 129 131 128 131 129 132 127 126 126 118 116 114 135 135 133 130 135 138 142 147 146 146 144 140 146 143 141 144 144 143 138 143 146 141 143 141 142 141 
159 157 156 153 153 157 158 149 150 147 150 148 152 153 152 150 148 149 140 140 138 113 54 21 30 57 70 93 101 104 113 117 117 119 123 126 125 124 129 127 129 130 130 131 130 132 132 129 128 128 121 118 112 118 136 138 133 134 132 137 142 145 146 145 141 144 139 145 149 144 144 141 142 144 145 143 147 141 146 144 
159 157 153 155 151 156 158 149 144 145 150 153 153 153 157 150 153 150 143 139 141 107 43 10 18 44 54 74 92 96 109 120 115 117 125 123 126 120 130 127 129 129 128 131 127 132 132 130 129 127 125 116 111 116 139 138 134 137 140 137 143 147 144 143 145 141 141 142 144 144 146 141 142 142 144 142 149 142 142 141 
160 155 155 155 149 160 157 148 145 150 152 153 152 149 155 149 147 150 146 141 136 101 42 3 12 42 49 66 82 97 108 112 115 112 117 124 121 119 127 127 128 129 127 130 128 127 133 129 126 126 123 120 114 123 132 140 132 139 135 137 145 146 143 142 142 141 140 143 145 142 145 140 138 142 144 141 142 143 143 141 
161 156 155 156 153 157 155 151 143 148 148 155 153 151 155 147 149 148 145 140 132 103 31 7 8 33 43 55 82 98 107 110 110 112 115 118 120 117 125 124 125 125 128 130 129 130 130 130 125 125 122 117 113 131 137 132 131 130 132 138 138 146 147 142 144 142 146 141 144 143 143 143 140 142 145 139 143 139 144 140 
159 153 157 159 153 157 159 146 142 146 149 155 149 151 153 151 154 151 141 140 128 99 27 5 11 24 36 56 82 93 99 109 106 111 115 120 117 115 122 122 123 124 124 129 129 130 128 127 127 128 119 113 111 127 137 133 131 130 131 136 143 147 146 141 144 143 142 143 144 141 142 143 139 141 140 137 142 138 138 142 
158 158 154 154 151 155 164 148 146 150 150 155 150 155 157 156 153 148 146 144 132 96 26 11 12 25 46 59 80 92 97 107 106 109 110 115 112 112 122 122 122 124 122 128 131 127 125 126 127 123 123 115 112 126 136 135 131 129 130 138 144 147 144 146 142 142 139 142 139 141 141 144 140 143 141 142 144 138 144 142 
163 157 156 155 148 153 160 154 148 145 145 150 150 154 157 150 155 149 142 146 130 96 24 8 7 24 41 65 74 87 92 100 104 114 116 119 115 112 116 118 123 123 122 125 129 127 127 128 130 122 120 113 109 123 136 132 127 125 130 134 142 149 143 143 146 137 140 143 140 139 143 139 142 145 141 143 144 138 142 143 
156 156 155 159 149 152 157 145 143 136 140 142 149 150 152 148 149 150 142 147 132 97 26 12 7 22 40 61 73 82 92 98 101 118 128 123 119 118 114 119 119 123 122 129 133 128 128 129 124 122 117 112 110 120 131 130 124 124 128 134 142 145 149 142 143 139 141 143 140 138 135 141 142 142 144 140 147 142 141 140 
158 155 156 152 149 152 153 145 140 133 135 140 150 152 151 150 146 149 140 143 129 93 18 7 11 28 36 59 71 80 85 92 99 125 128 129 129 118 113 116 119 124 120 127 129 133 125 130 128 128 119 112 108 122 128 130 124 128 130 137 144 146 147 140 145 142 142 142 142 138 140 139 140 142 144 141 144 141 143 142 
158 155 154 154 148 149 155 141 135 127 130 139 145 151 152 149 150 145 141 144 123 97 23 13 9 27 32 58 73 79 80 88 95 116 122 129 123 114 110 113 119 120 122 124 123 127 127 126 125 122 117 113 105 124 130 133 133 136 134 143 146 145 147 143 144 142 145 144 143 141 140 144 141 144 146 142 143 138 141 144 
156 156 153 152 151 148 153 142 142 124 122 139 146 150 151 150 148 145 140 143 117 95 25 12 10 26 34 51 68 79 80 89 92 110 121 120 115 106 111 114 114 119 120 121 125 127 127 130 125 122 117 113 103 125 131 132 128 132 133 147 141 145 147 138 141 143 146 146 148 146 142 146 145 143 142 139 143 139 142 139 
159 155 155 155 146 149 152 133 132 120 123 133 147 151 149 149 152 148 143 145 116 91 15 5 9 24 38 47 68 80 80 93 97 114 123 122 117 104 112 114 115 120 121 123 124 126 124 125 124 121 117 115 106 124 135 134 133 135 133 140 143 148 146 143 140 140 143 143 146 144 144 145 145 142 143 143 140 140 145 142 
157 157 155 152 146 148 148 126 117 113 118 129 140 151 150 150 149 146 141 141 110 92 22 3 11 26 32 58 71 83 88 102 108 115 122 122 116 113 117 119 114 119 114 121 122 125 124 123 122 120 117 111 103 125 135 132 128 132 134 138 145 144 144 138 143 141 144 145 143 143 143 146 141 142 145 139 143 139 140 142 
155 155 152 154 144 147 147 123 114 108 112 127 141 147 150 148 149 149 144 139 112 89 22 8 11 22 35 57 75 96 95 105 105 109 117 121 117 119 127 125 116 117 116 121 122 121 121 120 124 116 114 112 106 130 133 135 125 126 134 139 144 148 143 139 141 142 139 141 144 142 143 146 142 146 144 140 144 140 142 143 
155 154 153 149 145 148 147 123 114 113 113 127 135 147 145 148 147 144 144 136 105 87 22 4 8 20 35 56 76 93 95 104 100 108 109 112 115 117 124 124 119 116 118 120 122 119 122 122 122 117 113 111 104 122 129 134 126 124 130 138 142 146 145 137 141 138 141 144 144 143 146 142 140 141 141 140 139 140 140 139 
155 150 152 147 138 144 149 128 120 123 121 129 138 150 149 145 149 146 142 132 106 91 20 10 7 21 31 59 78 93 102 104 100 104 106 115 116 115 124 124 122 115 117 118 119 119 119 119 120 118 114 113 107 126 131 133 127 125 133 139 144 143 145 142 141 137 143 143 147 143 143 144 141 143 142 138 142 141 147 142 
155 150 151 147 138 138 148 131 123 125 121 132 145 149 148 146 147 145 140 133 106 81 19 5 8 24 36 57 82 92 99 102 103 101 105 112 115 114 126 122 121 116 116 116 115 120 121 120 120 115 112 112 115 128 131 130 127 130 134 141 144 143 148 144 146 142 144 144 148 150 147 146 141 142 143 140 143 139 145 146 
154 154 148 149 132 143 148 129 125 120 120 135 138 148 148 148 148 145 140 127 102 76 18 8 12 26 39 62 89 93 95 101 97 104 107 110 112 113 126 124 124 114 115 116 112 116 118 120 119 120 110 108 118 126 132 128 125 128 139 140 144 145 146 144 146 145 143 145 145 146 144 146 143 148 144 140 145 143 144 140 
155 151 151 147 132 140 147 131 128 126 123 132 133 144 146 150 147 147 139 124 101 76 19 12 15 25 38 65 91 97 97 100 95 102 106 109 108 111 123 127 124 113 111 116 117 118 118 117 123 117 106 107 118 126 128 130 124 126 133 145 146 144 146 143 144 143 146 147 148 146 146 145 144 145 143 142 145 140 145 144 
150 152 148 143 132 139 144 127 124 123 121 124 134 142 146 143 148 145 140 117 95 73 20 18 20 27 40 66 89 93 92 102 98 96 103 106 107 106 121 129 125 111 110 115 115 119 120 118 119 115 105 100 121 118 127 129 126 124 134 140 144 146 146 142 148 142 147 147 146 143 149 143 142 146 142 142 145 141 144 146 
151 151 147 143 128 137 143 119 111 123 120 125 134 139 147 144 147 142 138 116 92 63 22 23 21 30 47 66 88 96 95 96 97 101 102 107 106 105 111 120 117 114 109 114 116 118 116 119 115 115 103 99 117 125 128 125 125 123 137 140 143 144 145 145 150 146 145 145 143 145 142 145 141 147 146 143 143 142 144 138 
150 145 145 140 127 134 142 106 95 108 111 122 131 136 140 144 144 144 138 110 92 68 29 27 31 35 49 63 87 96 95 101 98 97 107 108 105 104 103 104 107 109 107 115 114 116 114 116 116 109 102 95 113 119 126 130 119 124 135 140 144 146 146 142 146 145 144 144 142 142 142 144 141 145 144 141 145 141 144 140 
150 151 148 147 129 133 137 109 101 102 114 119 126 137 139 138 141 141 138 109 94 68 27 31 38 41 53 67 74 88 95 102 96 96 103 108 106 102 100 101 105 107 108 113 113 116 116 114 114 110 103 97 118 120 124 128 119 121 138 143 143 145 145 145 148 145 148 147 145 142 144 143 141 145 143 140 141 139 143 139 
151 148 147 144 122 132 136 111 103 103 118 120 127 142 136 139 142 134 128 103 88 61 25 32 41 44 45 62 73 83 90 96 96 96 103 105 101 101 104 105 101 105 107 112 113 113 115 114 113 109 101 95 111 121 125 124 122 120 134 140 140 145 143 145 145 144 144 145 144 144 144 144 142 142 143 141 142 139 137 138 
154 150 151 140 120 129 135 107 102 109 120 125 133 139 139 140 139 136 125 95 84 61 28 33 43 43 45 62 72 84 86 94 94 94 98 98 101 102 103 102 102 108 108 110 113 112 114 115 111 108 102 96 116 116 125 123 120 122 133 137 143 142 146 143 147 142 149 147 146 147 144 146 140 146 147 144 145 135 137 141 
149 149 147 139 120 127 136 112 99 110 122 127 133 139 139 139 139 138 129 93 89 61 28 40 46 47 46 62 70 80 86 92 90 95 99 101 96 99 103 99 98 106 107 108 113 119 114 113 115 104 102 95 113 119 126 119 120 123 134 137 142 141 145 144 147 145 147 145 145 145 144 147 141 147 144 144 146 141 140 142 
153 149 149 138 123 125 133 115 99 113 114 107 133 139 135 137 141 134 120 93 87 58 29 36 46 49 47 61 71 81 86 92 88 89 96 97 96 97 98 100 103 104 105 109 112 113 108 112 110 105 95 93 117 117 125 118 116 120 133 134 142 142 144 140 146 146 144 145 145 145 147 143 144 144 144 139 143 139 145 143 
151 147 145 140 119 123 134 113 109 114 97 87 126 127 134 134 138 125 118 96 85 57 25 36 52 55 47 60 68 77 84 87 87 92 95 97 94 95 98 100 100 102 106 108 109 113 111 112 112 104 99 95 112 118 125 115 115 120 134 135 143 142 144 145 146 144 146 148 150 146 147 143 142 146 145 141 146 142 140 143 
147 145 146 141 115 121 131 100 78 75 75 75 93 95 100 122 119 97 100 90 83 54 25 33 45 51 50 59 66 79 84 90 88 88 92 96 91 86 92 95 97 104 102 105 106 112 111 110 110 101 98 94 112 118 116 111 114 119 133 136 141 147 145 143 145 145 146 146 147 145 143 145 143 146 147 141 146 140 140 145 
151 147 147 141 115 117 129 96 61 62 67 77 75 75 81 89 84 69 83 85 82 54 25 30 51 52 48 55 66 79 84 87 86 87 93 92 86 85 93 94 96 99 102 103 105 113 110 114 108 102 100 96 114 113 116 113 113 124 130 139 145 145 147 144 146 144 146 146 149 146 145 144 145 148 145 144 145 143 143 146 
150 148 147 142 120 119 125 103 61 59 66 65 70 71 81 79 78 66 83 84 81 49 16 27 42 48 49 60 62 78 81 88 89 86 96 90 86 84 92 94 92 99 102 101 103 105 109 112 109 100 97 97 112 112 115 113 110 122 135 139 141 144 148 145 144 145 149 147 148 151 149 144 143 146 145 144 144 144 144 144 
149 151 147 137 123 112 126 103 63 52 60 60 64 68 71 76 73 66 80 83 75 45 7 19 33 46 50 56 67 79 82 86 83 85 89 86 80 81 91 92 93 100 98 100 104 104 109 110 107 100 94 96 111 112 109 105 108 120 134 144 144 144 144 145 146 145 153 150 149 148 150 147 147 150 147 143 146 141 145 144 
144 147 144 140 116 111 125 103 65 49 59 56 61 62 65 68 68 66 66 79 71 35 10 8 24 39 50 61 65 71 77 83 83 85 83 80 79 79 91 96 95 98 100 100 104 106 104 105 104 100 91 94 105 109 108 105 111 120 134 144 140 143 144 142 146 152 157 154 150 156 156 152 147 147 146 142 146 141 145 151 
147 148 146 142 109 107 121 102 61 44 50 53 56 60 57 62 62 59 63 76 65 30 7 16 40 47 55 60 67 70 75 82 80 76 78 75 77 83 99 107 109 116 113 122 120 118 122 122 115 110 96 106 106 104 108 104 112 122 136 137 139 143 143 143 151 162 191 192 172 160 153 147 146 147 147 140 147 145 152 148 
145 143 146 135 110 102 116 99 60 32 42 43 46 47 49 53 52 50 62 65 59 29 0 32 49 55 55 61 68 71 73 70 69 69 72 73 78 99 130 140 138 143 145 146 145 148 146 143 141 139 137 132 111 106 98 99 103 117 128 137 138 142 143 142 150 180 221 229 212 171 159 153 147 153 149 147 154 148 150 152 
149 147 145 137 106 100 117 106 64 33 35 30 38 43 45 47 47 45 56 66 54 24 2 27 54 58 60 59 61 66 70 65 67 67 73 74 78 112 143 150 151 154 154 158 155 157 158 155 148 152 153 151 132 109 102 97 102 114 133 134 136 144 146 144 152 188 248 258 226 177 165 155 149 155 152 151 154 150 157 147 
143 146 144 137 107 93 116 100 70 32 33 33 33 44 42 42 48 46 54 53 53 38 4 25 44 57 60 55 61 63 60 57 56 65 66 64 95 126 148 152 159 163 153 158 161 156 156 157 157 156 160 156 144 105 99 101 103 115 130 133 140 146 149 147 153 184 245 264 231 178 166 166 161 155 154 149 151 148 148 147 
147 145 144 136 108 87 116 100 74 35 36 29 33 44 48 46 43 43 49 46 41 45 22 35 42 53 57 55 55 61 61 65 61 60 69 78 116 141 154 156 162 161 158 158 161 162 157 162 160 155 160 157 149 107 96 97 103 114 129 135 142 146 151 147 153 175 217 228 219 172 157 152 148 155 150 149 145 148 147 145 
149 141 141 137 110 87 111 100 75 35 30 33 30 38 37 40 38 40 38 40 41 30 30 51 51 55 55 61 62 64 63 63 61 71 76 97 138 146 155 157 161 165 162 159 163 164 164 170 160 161 161 162 158 117 92 91 105 116 135 136 137 141 146 150 164 180 198 206 208 190 161 154 148 150 147 144 150 146 146 144 
145 144 140 135 109 77 111 99 78 35 24 27 25 32 33 29 32 30 33 36 50 62 72 76 75 54 54 58 60 61 60 63 62 68 83 111 143 151 155 150 157 159 158 158 163 169 169 167 165 162 163 163 157 138 95 93 105 117 132 138 141 146 142 150 170 182 190 193 199 199 176 155 146 148 148 140 145 145 150 145 
142 139 139 135 110 73 106 96 81 37 23 27 26 29 31 27 29 27 28 35 61 77 90 90 85 57 50 58 60 58 60 61 63 72 86 132 147 152 156 153 159 161 158 164 163 164 165 163 163 160 166 162 160 148 105 94 101 118 130 139 137 144 141 153 168 175 185 186 193 192 185 167 145 148 149 144 145 144 145 149 
140 139 138 131 109 70 98 98 83 50 31 33 37 37 33 36 29 37 42 54 69 73 88 92 87 68 57 61 58 59 58 60 68 70 104 139 143 153 160 158 157 164 159 164 162 167 164 164 161 164 162 161 163 152 129 97 102 118 134 136 138 142 145 146 163 169 177 182 180 181 181 163 144 147 146 142 146 140 151 151 
141 139 138 132 112 71 99 95 84 53 41 42 42 46 40 40 43 49 57 58 73 77 82 91 84 76 64 65 59 65 62 66 73 91 129 149 152 152 159 156 157 161 159 164 166 165 167 165 162 159 160 164 163 160 147 109 106 123 129 136 136 144 144 149 160 160 171 170 168 169 166 156 144 146 146 139 146 142 151 153 
141 136 141 130 113 71 93 95 85 59 46 46 47 48 45 46 46 49 58 57 66 83 90 93 82 71 69 66 70 70 68 79 86 117 145 153 152 157 159 156 156 161 157 160 165 166 166 163 161 161 161 162 159 161 157 126 112 122 134 133 138 144 144 146 155 153 158 157 152 155 150 149 144 146 144 141 146 149 157 151 
135 136 137 133 121 74 94 94 94 69 62 65 71 68 68 66 65 68 70 68 74 85 88 86 85 77 79 74 80 78 78 88 111 137 153 158 156 154 164 162 160 163 163 161 163 167 163 161 162 161 161 160 160 163 166 154 124 124 131 138 141 145 146 145 148 147 153 146 152 149 149 148 143 146 139 143 146 148 148 151 
140 135 136 134 121 85 102 97 95 82 86 90 95 95 96 98 99 98 99 99 96 98 98 100 105 101 101 97 96 95 97 110 133 147 155 156 153 156 164 162 159 159 163 166 167 166 166 163 163 162 162 160 160 161 159 164 144 128 135 139 143 144 149 143 147 144 147 148 147 146 146 148 146 146 148 143 145 150 144 149 
137 136 138 131 125 100 102 99 96 93 100 105 108 109 111 110 106 113 108 113 113 115 113 112 116 119 116 116 115 119 117 134 146 150 164 155 157 154 162 163 161 162 162 166 164 163 166 165 163 164 162 156 158 158 163 165 163 147 147 139 144 146 143 139 142 142 145 148 150 145 144 149 140 148 154 142 146 142 145 151 
133 131 130 127 122 106 104 101 99 96 106 106 104 110 107 113 107 111 108 114 113 115 113 114 119 118 114 120 119 119 128 144 149 152 153 156 144 143 159 161 163 164 159 168 164 164 168 165 166 161 162 155 145 152 159 168 161 157 156 144 144 148 145 142 136 141 144 146 151 147 148 148 146 147 147 144 147 141 147 155 
108 104 112 108 108 102 107 107 104 103 108 109 108 108 107 108 110 109 109 110 112 115 109 114 118 118 114 118 120 124 136 150 152 153 156 147 129 141 156 160 167 166 163 170 170 168 170 168 164 165 160 151 146 149 155 166 167 165 160 152 147 149 144 145 147 146 149 150 155 151 155 151 148 149 146 140 141 134 143 149 
105 102 105 98 101 102 110 101 107 113 117 113 110 107 111 107 107 105 108 111 109 111 109 114 116 120 117 118 119 126 141 147 152 154 158 140 128 129 158 160 162 166 162 167 166 166 164 166 165 163 162 153 145 150 150 161 162 165 162 156 153 145 149 149 148 151 154 154 155 161 165 156 153 158 151 142 138 139 145 147 
104 102 107 101 98 103 113 107 112 108 118 111 109 108 111 107 107 107 110 110 111 110 110 109 112 118 116 116 115 132 142 154 154 154 159 146 128 139 160 161 164 166 163 166 168 167 169 167 167 163 163 155 150 150 157 162 170 166 166 154 150 156 150 149 155 151 158 157 159 162 168 158 158 161 157 150 144 136 147 153 
102 103 105 100 97 104 109 100 109 111 111 114 117 112 109 103 106 105 108 107 110 110 109 109 110 114 110 113 115 132 143 152 153 155 156 145 142 147 161 162 163 159 165 163 166 166 170 169 167 165 163 164 151 148 162 167 171 165 164 152 146 150 147 146 151 151 152 153 155 157 162 159 161 160 164 155 152 144 148 158 
103 104 103 100 97 104 109 104 108 112 114 111 108 110 108 106 109 105 107 111 111 111 108 107 108 113 110 112 115 130 141 151 157 157 159 153 145 152 162 162 160 164 164 165 167 164 167 170 167 162 164 165 160 161 164 163 164 170 164 148 135 136 138 139 145 146 144 149 146 146 152 148 150 152 156 150 149 146 146 156 
111 104 102 102 101 103 113 104 112 115 114 111 109 109 108 106 106 110 107 112 112 114 108 109 113 115 112 111 115 128 139 157 157 156 159 161 160 162 166 165 164 166 166 167 169 169 170 168 165 163 167 165 166 169 171 167 164 169 164 153 131 138 138 139 140 138 142 141 142 147 150 142 134 140 143 137 147 141 144 150 
110 103 107 103 104 106 113 105 108 112 111 107 104 105 102 105 106 108 114 108 109 113 106 106 109 117 108 111 110 119 135 151 152 155 154 160 168 162 164 163 166 166 167 165 167 170 168 166 162 165 165 161 168 165 163 169 166 168 164 160 143 133 137 138 141 135 139 140 141 144 147 137 138 149 142 143 146 141 140 141 


