P2
80 60
131
107 111 110 110 108 109 114 110 110 114 121 118 116 115 114 118 120 119 125 120 122 127 127 119 120 121 121 121 120 120 121 123 122 122 121 118 119 121 119 122 120 120 122 122 122 124 122 120 121 120 120 123 123 124 121 122 123 124 123 118 117 114 118 121 121 117 111 107 110 112 115 112 109 112 115 110 109 106 106 104 
110 109 112 109 107 109 114 116 111 118 115 116 118 113 117 114 122 116 127 122 123 128 126 119 121 123 126 119 121 118 120 121 120 121 118 119 118 119 121 122 121 120 121 124 119 124 124 120 123 120 120 120 119 119 123 125 125 122 128 118 116 115 118 121 118 114 111 111 108 112 112 110 112 112 113 115 108 107 105 107 
107 100 106 106 104 111 112 119 114 120 120 116 117 116 117 117 119 116 123 119 127 124 123 122 120 122 125 123 120 117 120 127 119 123 124 119 118 122 119 123 123 120 121 122 119 122 122 124 123 123 122 124 120 120 126 123 119 125 127 122 119 118 115 124 120 115 112 113 112 110 115 112 110 112 112 114 122 112 117 111 
106 106 108 107 109 108 118 115 115 117 123 114 113 118 119 114 119 115 123 118 124 123 123 120 123 118 122 120 121 120 118 128 122 123 123 117 118 122 125 125 121 119 122 123 119 120 123 121 128 122 121 125 122 118 122 120 121 121 124 124 123 119 117 117 114 112 112 112 112 112 114 118 110 113 115 111 110 113 111 115 
103 108 111 105 106 104 115 110 115 115 113 109 115 119 118 121 118 115 122 119 114 120 124 123 122 121 123 121 120 120 117 121 120 120 119 120 120 120 123 122 120 119 118 118 122 120 123 123 122 122 118 122 122 121 123 122 122 118 123 121 123 116 118 122 115 113 110 112 111 109 115 113 114 115 113 117 110 107 108 112 
111 109 106 109 104 109 118 116 115 114 115 116 113 117 118 117 118 116 123 121 121 126 122 120 125 122 121 120 118 120 118 117 123 121 120 119 121 122 121 125 122 117 123 121 118 120 123 126 123 121 121 124 123 123 124 124 122 118 125 123 120 120 121 120 118 112 113 111 116 114 118 113 115 112 112 111 107 111 112 112 
110 106 109 107 109 113 114 116 114 117 116 112 114 121 115 115 125 115 122 124 124 124 122 123 123 124 123 118 118 116 115 122 118 124 118 120 123 121 124 122 120 119 122 120 118 123 122 122 123 120 123 124 124 124 122 124 122 128 131 120 118 119 119 121 118 117 112 115 114 111 115 114 111 110 113 117 107 109 109 112 
109 106 112 108 105 113 120 114 111 114 115 113 115 116 115 113 117 113 120 118 123 119 119 121 123 122 120 119 119 116 117 124 119 118 121 120 120 122 119 118 119 120 121 121 118 120 123 122 120 119 121 120 124 122 123 122 122 123 124 118 122 121 116 120 121 117 110 115 117 114 113 109 110 109 111 113 105 106 109 113 
112 106 109 107 106 115 122 114 113 117 118 111 117 116 113 117 116 117 125 115 118 121 120 120 122 123 121 118 121 117 121 125 118 120 118 117 121 122 120 117 115 120 121 122 115 123 121 121 121 120 121 125 123 124 120 123 119 121 121 122 117 120 119 120 122 115 112 114 113 111 114 113 113 111 113 112 109 108 108 110 
112 105 107 106 101 108 113 112 112 113 114 110 112 110 112 116 117 111 122 114 117 119 122 116 118 119 117 117 115 114 117 123 118 118 120 118 117 119 119 120 120 115 120 118 117 118 120 120 118 118 120 123 122 119 120 118 120 114 123 119 118 117 118 118 116 111 114 113 115 108 110 114 110 108 110 112 106 107 108 111 
109 105 106 104 106 112 119 110 109 115 108 109 111 110 110 111 114 106 113 112 113 116 119 115 116 116 117 117 112 113 120 125 118 118 117 114 117 117 115 117 116 114 117 114 114 120 120 119 119 120 119 123 118 118 120 120 121 118 119 117 116 116 116 121 114 113 115 116 111 110 112 110 110 109 108 112 110 110 107 110 
110 107 107 110 108 109 119 113 110 113 112 107 110 108 111 109 113 105 116 118 116 118 117 116 113 116 115 117 113 111 121 125 119 118 117 109 112 116 115 118 121 118 116 119 117 119 121 117 120 117 118 120 120 115 121 118 117 120 118 115 118 116 117 118 119 111 110 110 110 108 109 110 111 111 112 127 113 109 106 107 
108 112 109 111 105 111 112 110 105 111 107 107 107 108 108 110 111 107 114 115 116 117 116 115 116 114 115 118 109 112 118 118 119 118 117 111 113 115 117 117 118 116 118 119 119 121 124 118 119 121 120 117 117 117 121 121 120 117 118 116 117 117 120 117 113 109 112 109 111 107 104 109 108 110 112 119 116 109 108 112 
105 113 102 105 104 109 114 107 105 105 107 106 109 104 106 110 112 105 115 114 116 113 114 110 112 113 111 115 109 110 111 120 117 119 116 112 115 117 114 118 118 117 117 119 115 122 122 119 122 123 119 119 118 121 121 120 120 121 120 118 120 117 117 119 115 113 108 110 110 107 113 109 111 111 109 113 105 108 111 108 
104 105 109 106 99 102 107 109 105 106 109 102 103 106 105 107 110 109 112 112 113 111 113 116 107 112 112 113 112 111 118 118 115 115 115 112 113 115 114 121 114 117 116 118 115 121 120 117 119 121 119 119 118 119 120 122 124 131 121 122 116 117 115 118 115 112 111 110 108 108 110 107 114 110 110 112 108 112 107 109 
110 108 108 103 100 101 107 107 106 108 108 103 104 107 107 106 110 109 113 111 111 116 112 110 111 114 112 112 108 110 119 118 116 116 115 114 110 112 115 116 115 115 116 115 117 116 119 117 120 121 119 118 117 122 121 121 119 124 124 118 117 116 116 115 115 115 113 111 112 108 109 111 112 112 108 109 107 111 111 108 
114 104 107 101 99 98 108 100 103 103 103 99 101 102 105 107 106 104 106 111 109 115 109 109 110 111 109 111 111 109 114 115 113 116 115 112 112 113 111 113 111 111 115 114 113 120 120 114 117 113 117 117 116 120 122 120 120 121 122 117 117 116 113 117 112 111 111 114 111 112 111 109 117 112 110 108 105 110 110 108 
107 105 108 105 102 100 109 106 103 99 105 99 101 103 106 105 109 103 108 110 110 114 112 111 109 113 108 110 110 109 118 121 117 116 114 112 113 111 112 118 117 116 113 113 112 115 117 116 113 115 113 116 113 118 123 116 116 124 118 115 116 113 113 114 113 110 106 109 109 112 114 115 113 110 110 108 106 109 108 108 
95 90 91 102 104 102 110 102 98 101 104 101 100 105 102 105 105 102 116 111 111 112 115 113 112 115 112 110 109 105 114 123 117 118 116 111 113 113 117 123 119 114 113 113 112 114 114 116 116 114 118 117 116 120 116 118 117 120 122 116 115 113 110 116 116 109 110 113 110 111 112 109 108 109 107 110 103 107 109 109 
82 58 68 98 104 102 107 98 100 100 107 98 105 105 109 107 108 104 111 106 110 116 113 113 112 115 114 110 110 106 118 123 115 117 115 112 112 115 113 122 115 114 113 113 111 114 113 113 114 113 118 116 117 116 118 118 115 115 120 122 115 115 113 114 113 109 108 112 109 108 110 109 110 105 106 105 103 106 108 114 
49 17 47 95 99 93 102 104 98 97 102 101 99 110 103 103 103 100 109 105 105 111 112 110 112 109 108 108 108 107 125 116 112 117 112 110 109 111 110 115 111 111 113 112 111 111 112 111 115 115 114 115 116 117 118 113 119 116 119 120 118 111 114 116 113 110 110 111 111 110 111 108 110 107 107 104 104 108 112 110 
35 7 38 85 97 94 103 97 99 97 98 96 105 102 98 99 102 101 104 105 105 109 113 109 106 108 108 105 105 102 116 120 111 112 114 108 109 107 112 111 107 111 109 109 109 113 111 112 113 113 115 113 114 117 117 115 112 111 119 114 114 110 115 113 115 113 110 112 114 116 112 110 109 109 108 102 103 103 109 109 
35 0 32 89 95 92 101 97 98 94 92 99 96 101 101 100 101 98 107 104 102 107 110 106 107 106 106 107 106 102 115 115 113 109 111 106 106 107 110 112 107 107 107 108 109 110 114 112 110 111 117 113 113 114 116 114 112 113 116 111 114 115 116 116 113 115 117 113 111 114 116 113 113 112 111 106 107 108 105 111 
40 7 32 81 93 97 104 102 100 96 96 97 100 99 100 105 101 103 106 107 105 108 110 106 107 109 105 104 103 107 117 115 109 110 108 105 107 108 107 111 107 110 111 114 106 115 114 116 110 115 112 113 114 112 112 115 114 113 116 115 118 114 116 116 117 112 116 113 114 119 117 113 114 113 110 111 104 108 109 108 
41 7 24 78 88 93 101 100 100 98 95 95 97 96 100 103 102 96 104 101 104 105 107 108 106 105 108 107 104 103 111 116 112 112 109 102 107 105 104 107 106 106 108 113 111 113 111 110 112 114 112 114 110 109 114 112 114 111 117 115 113 115 117 116 119 116 113 113 114 116 119 119 110 114 111 110 105 108 114 116 
48 5 24 74 89 94 94 95 95 97 96 93 93 95 95 101 98 95 103 103 104 109 107 109 107 105 105 106 104 102 115 114 108 109 104 104 104 102 102 106 107 104 106 110 111 112 111 112 112 109 113 113 110 112 113 115 113 111 119 115 113 117 115 119 118 117 113 112 114 112 115 115 112 113 112 109 107 113 112 115 
55 6 15 67 89 93 102 95 97 93 96 94 95 92 92 100 97 98 105 100 105 108 113 104 107 104 104 106 104 103 115 119 108 108 108 102 103 100 100 103 107 108 109 108 109 109 112 111 110 110 112 109 109 108 109 115 112 110 116 113 111 112 113 113 115 117 114 113 114 117 116 110 113 113 114 114 113 109 112 116 
61 7 10 56 86 93 97 101 92 94 91 87 91 91 88 94 97 93 103 102 102 108 105 106 105 107 107 104 102 102 113 114 104 103 106 100 101 103 101 104 101 101 104 107 108 107 110 105 110 109 109 110 111 110 109 107 112 108 112 112 112 114 112 114 117 116 113 113 116 120 115 108 109 112 112 111 108 110 109 112 
72 9 8 40 79 92 100 100 99 98 90 92 91 86 83 94 96 91 100 102 104 105 107 105 103 106 101 103 102 99 111 109 105 106 104 99 102 104 105 109 103 102 106 102 105 107 108 104 108 109 108 109 110 109 107 107 111 108 108 107 111 113 111 118 116 116 113 114 113 112 116 115 112 110 116 108 108 112 110 111 
70 12 10 32 84 95 99 100 106 99 93 82 88 88 83 94 92 91 96 98 102 107 106 105 101 103 105 102 98 97 108 112 104 104 103 100 100 108 100 105 105 103 104 105 104 105 107 108 109 108 108 109 107 110 111 108 108 110 110 108 112 116 112 115 117 115 115 113 113 109 113 110 114 111 111 111 103 108 109 111 
77 24 8 32 84 97 101 103 101 95 88 84 85 86 82 95 93 89 91 97 105 105 107 104 101 106 102 104 100 98 111 112 104 105 103 98 100 101 101 106 100 106 108 108 104 107 108 109 111 106 106 108 113 109 112 111 109 109 109 110 112 114 113 117 114 115 112 114 113 114 116 113 109 112 108 109 104 109 108 109 
88 57 27 60 93 97 105 101 102 96 90 80 88 88 82 91 95 90 96 96 100 103 105 103 101 103 101 101 100 98 107 110 104 104 103 97 102 101 103 103 106 104 107 106 109 107 108 106 108 113 108 107 109 110 114 112 107 107 114 110 113 114 113 120 122 113 114 113 115 115 112 110 110 108 110 111 107 107 112 109 
101 90 61 85 98 104 103 102 99 99 98 90 91 88 84 88 94 89 91 97 98 103 101 100 99 100 96 101 100 100 106 109 106 102 103 95 101 100 101 105 103 106 106 108 103 108 108 105 109 104 110 105 109 108 109 110 108 106 109 110 108 115 113 115 119 116 110 113 116 117 112 112 111 105 105 109 101 106 109 109 
101 100 95 96 100 100 104 101 103 102 100 94 91 90 83 93 96 89 88 98 98 95 99 97 98 99 98 96 96 101 107 106 105 102 97 93 100 99 100 104 102 103 104 104 103 104 103 103 105 106 107 111 105 107 108 108 106 107 107 109 110 113 112 117 118 112 112 110 113 114 115 115 107 106 111 105 103 107 104 111 
103 100 96 93 101 103 104 105 102 101 98 99 95 91 86 93 94 87 89 89 91 94 96 96 97 99 99 96 99 99 107 107 104 100 99 95 95 97 99 103 102 102 102 102 101 104 103 104 105 106 106 105 106 108 106 106 106 108 107 107 110 113 112 114 115 111 110 109 113 114 111 108 111 108 111 105 102 106 105 106 
100 98 94 93 100 104 101 103 104 101 97 98 95 95 95 98 95 90 89 94 96 97 100 96 101 101 100 102 100 97 108 107 102 100 100 94 95 97 98 102 99 100 101 102 100 102 104 104 101 105 103 107 108 107 108 108 108 107 108 109 108 111 110 112 113 109 112 112 114 108 109 107 109 109 107 105 99 111 110 110 
102 96 90 99 96 103 104 101 99 102 100 97 98 94 97 96 95 89 93 95 95 101 100 100 98 100 102 101 98 94 104 104 101 95 99 92 97 97 95 97 100 97 99 99 103 105 102 101 103 102 104 107 107 107 109 103 107 101 110 109 110 106 105 112 113 110 111 111 114 109 108 106 106 106 107 102 105 111 112 108 
107 100 98 99 98 101 104 103 102 101 102 100 97 94 95 97 101 95 96 97 98 102 103 101 102 101 105 98 97 94 107 108 101 97 98 96 97 100 97 101 98 97 102 103 102 105 103 103 105 105 103 107 108 109 108 110 106 107 110 110 110 108 107 109 113 112 110 110 110 108 104 104 106 105 107 111 108 110 110 114 
101 106 106 100 92 98 105 104 100 104 103 103 100 98 97 100 103 104 99 103 98 104 103 101 103 104 103 100 97 93 104 109 100 101 98 93 98 97 98 101 96 97 102 99 101 105 102 103 104 103 107 108 110 104 110 105 108 105 111 115 108 107 108 111 113 112 111 110 107 108 108 106 106 106 108 108 103 105 106 110 
102 103 104 102 95 98 103 101 101 99 107 103 97 95 97 97 101 99 99 98 99 105 106 105 104 104 105 105 97 96 107 106 101 98 94 91 102 97 96 101 97 101 98 100 99 107 107 103 105 106 107 107 110 108 110 105 105 105 115 116 107 107 109 112 110 108 108 109 108 109 110 105 105 106 108 112 105 109 109 115 
103 103 100 100 94 98 103 103 99 101 100 101 99 102 94 103 105 101 105 101 104 102 107 102 103 105 111 105 99 93 104 104 97 98 95 95 97 102 100 97 98 97 98 102 100 107 106 105 107 106 108 112 108 113 111 103 104 108 113 113 112 113 109 113 111 111 110 109 111 110 106 106 106 107 108 112 107 109 124 113 
101 106 99 99 92 93 102 102 103 105 103 97 100 99 97 102 103 98 102 102 103 107 104 102 103 109 109 104 97 93 101 106 93 94 94 96 97 102 101 106 98 99 100 102 101 108 110 108 108 104 106 108 113 110 107 105 110 106 110 109 110 110 112 116 112 110 109 108 109 104 109 102 106 104 106 112 104 105 113 114 
100 97 102 95 91 96 101 104 99 102 103 100 99 100 96 99 103 97 100 100 102 106 106 101 107 106 103 102 98 89 104 105 98 94 90 96 96 98 100 102 97 95 98 97 99 105 109 109 107 108 106 110 106 104 105 105 105 102 106 110 109 111 111 116 113 108 109 107 106 108 110 106 104 104 106 113 106 108 113 110 
99 100 97 97 91 95 100 97 96 99 104 97 97 98 101 97 99 100 103 104 103 104 106 105 101 103 103 100 100 94 108 104 94 92 91 91 97 97 97 104 102 96 98 96 97 104 105 112 106 105 105 107 108 106 105 105 105 108 111 111 112 108 113 115 114 108 106 107 108 110 110 109 105 106 107 112 107 105 107 112 
97 99 99 99 94 90 100 96 99 101 99 96 102 100 99 98 100 100 101 101 106 104 104 105 107 105 102 99 97 93 105 103 94 96 94 89 96 98 95 100 101 102 99 99 98 103 102 104 108 106 104 108 107 109 115 107 112 112 114 112 111 112 111 120 112 108 108 108 110 108 110 107 107 108 108 109 107 108 108 108 
97 99 97 95 96 89 96 100 98 98 100 98 99 103 104 101 104 101 100 102 99 103 102 103 106 105 102 101 97 93 104 102 97 94 92 90 93 93 93 98 95 98 101 99 101 103 104 103 105 107 110 114 111 110 111 112 109 109 113 110 112 111 111 119 112 112 107 111 109 110 110 105 107 107 111 110 104 107 107 111 
97 101 94 92 91 82 93 93 94 95 97 100 105 102 97 103 100 99 101 100 104 101 103 102 103 102 105 101 92 94 98 99 97 96 93 89 92 95 89 96 92 96 100 97 98 102 107 111 110 111 112 114 109 112 110 113 112 111 113 112 110 108 112 118 109 108 109 107 105 107 112 107 110 106 107 109 105 105 108 109 
99 98 96 91 87 87 102 100 96 96 98 98 104 102 98 103 103 96 106 101 103 102 106 100 99 104 104 99 99 97 103 102 100 94 93 87 94 96 96 97 96 101 99 104 107 113 115 115 114 115 112 113 114 113 112 112 113 114 115 109 111 112 112 112 111 110 109 107 107 108 109 108 109 107 109 104 103 107 108 108 
94 97 97 94 90 93 104 96 96 94 99 98 100 102 95 99 104 103 102 100 99 108 109 102 102 102 102 102 98 96 104 100 95 97 94 93 93 98 96 103 104 106 105 108 112 114 114 115 113 114 113 115 114 115 114 116 120 115 114 113 114 110 111 113 111 108 107 105 110 109 110 108 108 107 106 104 103 102 105 102 
97 102 96 95 94 91 100 99 99 97 97 95 100 98 100 104 101 96 101 102 102 107 107 105 105 103 101 102 96 96 105 104 97 98 98 94 93 104 104 109 108 103 108 112 113 117 120 117 116 114 116 111 114 117 116 119 115 114 113 116 116 112 109 111 108 108 104 108 109 112 111 112 110 106 107 108 102 104 103 106 
96 104 98 97 96 89 99 96 98 98 96 95 100 101 98 98 104 99 107 105 103 103 102 102 99 102 97 94 95 92 101 98 97 99 96 96 98 102 108 111 109 106 116 115 117 120 118 116 117 115 114 113 114 116 118 119 116 113 117 115 113 111 110 109 107 106 107 105 109 106 111 106 107 106 105 110 106 108 104 106 
99 102 102 92 96 93 95 96 98 98 100 96 97 101 105 105 97 103 103 98 100 97 96 96 97 96 97 95 95 92 100 98 96 97 102 94 103 106 107 110 108 111 112 117 113 119 119 116 111 114 116 112 117 119 121 118 114 115 123 119 112 112 109 111 111 107 107 108 108 110 111 105 108 106 106 113 107 102 103 103 
101 97 100 98 97 99 95 98 99 97 101 93 97 103 95 98 99 93 96 95 92 94 96 96 97 97 97 94 93 92 99 99 96 95 97 95 104 109 111 113 109 111 108 113 113 115 119 117 117 114 117 112 116 117 118 116 114 117 126 116 112 110 111 110 108 111 108 108 112 108 110 106 104 107 105 104 101 104 102 101 
100 99 97 101 101 97 96 91 93 94 93 91 95 96 89 96 93 92 91 94 95 95 97 94 96 96 96 97 93 93 99 101 98 98 98 95 103 105 108 111 107 108 109 112 110 115 118 112 117 116 115 115 117 113 116 118 115 114 116 113 110 111 113 107 109 108 109 107 109 108 107 110 106 107 107 100 101 101 102 102 
98 99 102 100 96 95 95 94 95 91 93 93 92 94 94 96 97 91 94 96 94 96 97 97 96 99 102 92 95 92 96 104 99 98 94 96 100 107 104 108 105 108 108 110 112 111 111 117 113 115 115 114 115 119 116 115 116 115 114 110 113 114 113 109 110 107 110 108 107 106 112 110 106 106 105 104 101 102 102 103 
101 99 102 102 96 95 99 95 94 95 98 95 97 99 97 99 97 98 100 94 98 97 99 98 96 99 99 95 96 95 97 101 96 97 98 96 103 105 105 108 108 110 109 109 109 112 113 116 118 117 115 118 115 114 114 119 114 115 116 112 111 109 113 113 113 109 113 107 109 113 113 109 108 106 107 104 100 100 104 108 
102 104 102 105 97 98 97 97 94 96 94 94 105 96 99 98 99 100 97 101 98 97 101 101 96 98 98 99 98 93 99 102 96 98 97 98 100 107 106 106 109 111 107 110 107 114 119 112 118 114 116 118 117 115 115 117 113 114 115 114 112 110 113 112 112 111 110 109 112 113 111 112 108 106 107 106 99 106 101 109 
101 103 103 101 102 100 102 97 99 98 98 94 100 99 96 98 100 97 102 98 100 101 101 97 95 94 95 95 97 95 94 93 94 101 101 97 103 103 103 109 111 110 111 108 109 113 116 117 114 114 116 116 114 112 112 116 114 113 117 112 112 115 112 113 108 109 106 105 109 114 114 110 104 108 106 105 101 105 100 104 
99 100 100 105 101 98 103 101 99 109 100 97 98 100 94 99 101 98 101 98 100 100 98 100 97 96 96 96 97 93 91 89 94 101 100 98 102 103 104 107 104 112 112 108 104 115 119 114 117 115 115 116 115 115 118 118 114 114 115 113 111 112 113 112 109 107 107 106 107 111 112 104 110 109 108 108 103 103 104 108 
99 100 104 104 105 96 102 99 99 97 100 97 98 101 98 100 98 100 103 104 99 100 101 98 97 101 98 97 98 95 94 94 93 101 100 101 103 104 108 106 104 111 107 108 106 115 115 115 116 114 116 119 114 115 118 115 113 115 116 111 109 109 112 114 111 104 107 109 103 108 111 106 109 105 104 109 104 107 105 105 


