P2
80 60
129
117 114 111 111 118 116 112 116 113 113 112 110 111 115 116 112 112 114 114 116 117 114 118 115 122 124 120 124 123 121 123 125 120 122 119 121 118 118 121 124 121 123 123 124 123 123 123 122 128 122 124 125 123 121 127 125 123 125 124 119 120 117 121 121 117 116 111 106 107 102 110 107 108 105 103 103 101 99 105 102 
116 113 114 111 119 118 112 114 112 115 109 113 111 110 115 115 117 116 116 117 115 118 116 119 122 121 122 122 120 121 124 123 118 117 121 120 122 121 121 124 123 124 125 123 124 120 123 123 123 121 124 123 122 124 126 126 126 124 124 118 119 119 117 119 117 116 104 103 106 105 105 103 103 107 106 108 102 104 109 104 
118 114 109 111 116 112 112 111 113 112 114 114 111 112 113 112 114 117 116 116 117 118 116 117 115 123 118 121 119 121 123 126 121 117 121 122 123 123 125 126 120 123 121 122 123 121 119 120 123 120 121 122 122 122 126 124 123 122 119 116 118 117 115 117 119 116 106 106 104 105 108 107 104 104 101 105 103 100 103 107 
117 112 110 109 116 113 114 113 111 110 111 114 112 113 113 110 116 117 118 117 116 120 113 115 120 122 120 124 118 122 120 121 117 120 117 120 122 123 124 122 123 122 124 122 122 123 122 120 127 123 123 122 123 123 127 127 124 120 117 118 122 120 119 120 116 112 107 107 106 105 106 107 106 105 103 102 103 102 104 104 
120 117 113 113 115 117 115 113 112 107 110 111 112 114 115 117 115 116 117 118 117 119 118 118 119 123 125 122 120 121 124 121 117 116 115 119 120 125 127 123 122 123 124 126 123 123 125 123 126 122 122 122 124 125 124 123 120 118 116 118 117 119 117 122 119 114 105 107 107 105 105 103 106 104 104 102 99 103 105 104 
122 117 115 112 116 117 114 116 111 104 104 110 112 114 113 114 116 115 122 117 116 122 119 118 117 123 123 123 123 120 120 119 116 117 117 120 122 123 123 126 122 126 128 123 124 125 129 125 125 121 123 123 125 127 123 124 119 123 119 118 118 119 123 119 119 118 109 107 112 107 110 104 108 102 104 104 103 105 107 104 
119 117 114 114 116 119 113 113 108 103 107 110 113 118 117 115 116 122 120 118 116 116 118 116 119 120 121 124 126 121 123 120 116 116 119 121 121 127 126 126 126 124 124 124 125 123 123 123 124 121 124 128 127 125 125 121 124 124 124 120 120 119 119 120 120 116 111 108 107 106 106 105 105 110 104 103 105 104 103 104 
123 116 114 113 117 117 117 116 106 103 107 110 115 119 116 117 118 119 124 119 120 121 116 114 119 123 122 123 120 122 119 119 116 118 120 124 123 125 129 129 126 123 124 126 123 121 126 125 125 122 124 128 128 125 125 127 121 122 120 122 121 120 123 119 117 118 111 106 108 105 107 105 109 104 108 102 106 105 108 104 
122 120 116 117 115 119 118 116 105 106 103 110 113 112 112 115 116 119 117 120 117 118 117 119 121 121 119 123 121 121 120 118 115 116 118 121 121 120 126 126 119 124 120 124 122 121 124 122 122 121 122 127 124 127 123 123 121 122 119 120 119 119 119 116 117 115 109 111 105 104 104 106 109 102 102 101 102 99 103 105 
125 123 121 117 117 117 115 115 104 100 106 112 111 115 111 114 119 119 116 116 118 118 116 117 122 120 122 120 120 123 118 115 118 117 118 122 122 123 122 124 121 122 121 122 119 121 119 124 124 121 123 123 125 126 124 125 122 116 122 119 116 116 118 117 115 115 107 108 106 103 104 105 111 105 105 100 100 98 106 107 
120 122 119 119 118 117 120 114 100 103 104 110 114 112 114 116 116 116 116 116 115 115 116 117 121 119 119 119 119 118 116 118 117 120 115 120 120 120 123 126 120 121 119 119 116 118 117 117 121 120 120 122 123 124 126 123 122 117 118 114 116 120 116 117 115 113 106 108 104 107 103 104 106 102 102 105 104 104 100 103 
127 117 119 119 120 118 116 113 104 104 105 109 112 113 115 115 116 117 115 114 117 117 115 117 119 121 118 120 117 117 118 117 117 116 117 117 118 120 124 124 121 120 120 121 119 119 120 118 120 122 119 123 122 122 125 122 120 122 117 113 116 118 114 118 116 114 107 106 102 102 101 102 107 104 101 107 102 106 103 103 
129 119 113 116 120 116 111 110 99 103 106 110 113 109 113 113 114 117 112 115 114 115 113 115 116 120 118 118 118 120 120 116 115 114 115 117 116 121 127 122 119 120 121 118 119 122 122 118 120 118 121 122 122 123 121 119 119 122 117 116 117 121 118 115 113 111 102 105 104 105 94 105 102 102 101 100 97 102 105 103 
123 119 119 116 117 115 117 105 102 99 104 111 109 110 111 114 111 113 112 111 117 114 113 115 119 117 115 118 115 118 115 117 117 117 117 116 115 124 119 117 119 119 117 121 118 122 123 121 120 121 122 122 122 124 120 122 121 121 120 117 117 115 114 115 114 112 107 106 102 100 105 99 101 104 102 101 102 100 105 101 
122 121 117 116 114 116 110 107 98 103 106 109 110 113 110 113 112 115 112 113 113 112 113 118 119 117 116 121 116 117 114 114 114 117 118 116 119 123 120 121 116 119 117 120 120 121 121 119 122 122 121 121 121 124 123 121 124 126 121 116 115 114 118 112 113 113 105 106 103 102 105 103 101 102 100 99 105 102 107 102 
124 123 120 116 114 115 111 104 101 104 106 111 110 113 111 114 115 114 114 110 111 112 111 118 118 117 117 115 119 119 115 112 116 116 117 117 118 120 121 121 119 120 120 119 119 122 120 120 120 120 119 117 121 126 122 120 120 124 119 118 114 115 118 118 114 114 105 106 104 105 104 106 106 103 104 100 103 103 106 105 
128 124 116 118 117 113 112 101 101 103 109 110 110 111 112 115 114 111 112 112 111 115 110 114 114 114 117 118 115 122 115 113 117 116 115 117 118 119 119 121 119 119 121 119 115 125 117 117 118 116 117 119 119 124 124 122 119 124 118 115 113 115 115 114 112 112 105 107 107 103 108 104 110 107 101 100 100 98 104 102 
123 117 117 120 122 115 111 100 99 104 108 108 110 107 111 111 115 111 115 113 114 111 112 114 114 115 115 117 116 122 113 110 115 115 112 118 118 119 121 119 119 117 119 118 119 119 117 118 117 113 116 118 125 123 127 122 121 122 119 115 113 115 114 116 113 107 103 106 104 104 105 102 106 102 100 103 100 102 104 100 
122 119 117 122 122 114 109 101 96 106 111 108 106 110 111 114 113 110 114 114 111 113 110 121 117 115 113 116 118 121 112 113 116 115 119 118 119 120 118 119 118 119 116 122 119 117 120 115 116 116 117 119 124 120 117 117 115 121 116 113 114 111 113 115 113 107 104 107 104 104 102 104 104 100 99 99 101 100 102 105 
126 116 115 117 117 118 109 92 100 107 111 106 110 111 111 114 113 113 113 111 114 115 116 116 117 116 116 114 117 119 118 114 117 114 119 115 120 120 119 117 117 117 116 118 115 117 118 116 118 116 118 120 119 121 118 119 118 114 112 114 110 115 114 114 113 107 103 108 107 105 106 105 110 104 101 99 100 99 104 99 
122 118 120 118 116 112 105 93 100 110 111 109 110 110 112 111 112 114 114 113 113 113 110 116 117 115 115 114 116 120 121 115 114 114 117 115 117 118 118 118 118 122 116 119 114 117 116 117 116 112 115 120 121 119 119 115 117 117 112 111 112 113 116 114 113 106 105 106 103 105 105 109 106 101 103 98 96 99 103 103 
125 117 115 118 119 111 107 99 99 105 111 109 113 111 111 113 111 111 113 111 111 111 112 115 114 115 118 114 120 116 114 113 113 114 113 117 117 117 120 118 118 120 116 117 114 114 114 116 119 116 116 117 119 126 121 116 119 119 117 112 110 114 115 115 111 108 105 106 106 108 105 104 108 101 102 99 97 100 107 104 
123 116 117 116 115 113 104 100 103 107 108 114 110 110 111 111 112 110 113 117 108 108 112 115 115 115 115 118 114 115 109 113 114 110 113 114 116 117 117 118 116 115 115 114 112 111 115 115 118 116 115 120 117 118 119 120 113 112 114 112 114 111 111 117 116 109 107 105 107 105 105 106 112 101 99 103 97 101 106 106 
121 120 120 119 116 111 103 103 99 105 108 109 111 108 111 109 109 109 110 110 108 110 109 114 112 113 112 115 113 114 106 112 114 114 110 112 117 113 113 117 115 116 116 118 115 115 115 113 115 119 118 118 119 116 115 114 114 111 114 112 114 110 111 113 111 104 106 105 106 107 105 104 106 106 103 101 99 104 109 105 
119 118 115 117 115 111 104 102 104 107 108 108 110 111 107 106 109 107 109 110 110 111 110 111 115 114 109 115 115 110 107 110 111 112 114 116 114 117 114 115 114 112 116 116 117 116 115 113 116 114 116 120 118 118 113 112 115 113 112 110 113 113 111 112 110 108 110 111 104 107 104 102 107 104 100 101 100 100 106 106 
118 116 113 112 112 110 99 99 99 106 108 109 109 111 113 108 107 107 104 108 105 109 113 114 114 111 112 114 115 111 107 108 111 109 111 116 115 115 113 115 114 115 115 116 113 115 114 116 114 114 115 118 117 116 112 116 111 111 109 112 110 111 111 111 109 105 105 110 100 101 109 103 106 103 100 101 99 101 105 105 
119 114 116 116 112 113 100 99 100 110 111 107 107 112 111 108 109 109 109 108 109 107 114 114 114 114 111 115 116 115 110 108 111 111 114 112 114 113 111 117 112 115 116 116 113 116 113 110 115 112 114 116 117 114 113 115 110 111 110 108 110 110 109 112 110 103 104 102 104 107 109 103 108 101 100 99 100 101 106 103 
121 116 117 116 116 107 90 98 102 105 106 107 106 112 107 102 104 104 108 112 105 109 113 113 112 112 112 116 114 115 106 110 110 107 111 115 116 111 113 113 114 115 115 116 113 116 112 111 114 111 117 119 117 112 112 110 110 109 108 110 106 108 111 112 110 103 102 104 104 108 104 104 107 101 98 101 99 100 104 103 
120 117 112 114 114 105 92 102 102 109 107 106 107 114 107 106 102 103 106 111 105 109 108 110 111 113 112 113 110 112 107 108 107 110 110 113 113 113 113 115 110 113 114 111 113 113 114 113 115 115 115 122 114 112 111 112 109 107 108 107 109 110 109 113 103 102 102 101 99 104 103 102 103 100 98 100 97 100 102 103 
123 113 116 112 108 103 97 101 104 107 106 105 110 111 104 105 102 104 106 107 104 104 111 111 113 108 109 112 107 111 106 112 109 110 109 113 114 111 112 112 112 113 115 115 112 110 113 112 113 112 117 118 116 113 113 113 109 109 108 105 110 110 112 111 109 105 109 106 104 105 105 104 105 95 98 102 101 99 101 103 
123 115 116 111 110 99 94 97 102 105 103 106 107 107 106 102 105 104 105 109 105 108 116 111 113 111 109 111 108 106 108 108 109 111 115 114 113 109 115 114 111 113 119 117 112 115 110 113 115 113 115 118 114 111 112 111 109 109 107 107 109 108 110 114 104 105 104 104 104 103 103 104 101 99 101 99 97 101 104 95 
117 116 110 111 112 98 94 98 102 104 104 106 104 107 106 106 104 106 106 109 105 108 111 107 108 110 111 110 107 108 104 110 107 110 113 111 113 109 111 115 114 113 114 117 114 110 110 112 114 114 115 114 113 110 108 109 109 110 104 106 107 107 106 110 108 106 103 104 102 107 103 99 102 98 96 101 98 99 100 97 
119 115 114 116 110 100 93 98 104 105 105 105 104 105 101 102 104 104 107 108 106 107 109 108 109 109 110 113 108 106 108 109 110 110 109 110 108 110 109 112 110 113 115 109 114 112 111 109 113 114 114 116 113 112 112 110 108 108 109 103 106 106 112 108 105 103 103 101 103 103 103 101 102 99 99 101 100 98 102 100 
118 115 113 112 108 97 93 97 102 104 103 106 104 103 103 104 105 102 104 105 104 105 107 110 110 107 109 111 107 110 109 108 110 110 110 109 110 110 111 112 113 115 116 113 112 111 110 110 111 111 117 115 110 110 110 109 110 109 108 105 105 108 109 110 106 105 107 103 102 102 100 103 103 100 102 101 103 100 103 101 
116 114 114 111 106 97 94 94 101 100 102 103 103 106 102 101 105 104 104 108 104 108 106 111 110 108 106 111 106 106 106 108 108 110 111 109 110 109 110 113 110 111 112 112 109 111 111 110 110 112 115 116 111 111 109 111 110 112 109 103 110 109 108 109 106 106 105 102 102 100 103 101 104 99 97 100 102 102 103 97 
115 114 111 110 102 98 92 96 102 101 102 102 106 106 100 99 101 104 106 105 106 107 107 109 110 106 106 107 108 104 108 110 111 109 109 109 110 109 109 111 109 110 109 110 111 110 114 113 111 113 111 115 112 115 112 110 110 107 108 106 106 105 107 107 104 102 103 102 100 102 101 100 98 99 100 97 103 100 102 98 
115 116 113 107 102 95 91 99 98 100 99 101 103 103 99 100 101 104 105 104 106 108 105 108 105 103 104 105 103 107 106 108 111 108 109 107 109 108 107 111 108 111 109 110 108 112 107 110 108 111 112 112 112 113 110 110 109 106 107 105 105 106 105 106 106 101 101 105 104 99 103 98 99 98 99 98 97 102 105 98 
113 117 114 109 104 94 91 96 100 96 99 97 104 102 100 97 101 107 104 104 105 107 106 105 105 103 103 103 103 107 110 109 110 111 110 108 108 107 108 109 108 109 113 112 109 111 110 111 114 114 112 112 109 110 109 111 109 106 105 105 105 105 108 105 104 104 102 104 103 101 102 100 98 97 98 97 101 97 103 103 
113 115 119 112 101 90 91 98 98 99 104 101 103 102 101 100 98 104 102 100 101 109 105 107 103 104 102 103 105 103 104 108 105 110 107 107 107 109 112 109 107 112 111 109 110 110 110 112 109 112 114 117 111 111 110 109 106 107 105 104 105 104 106 101 100 101 102 103 101 100 99 100 95 95 98 100 100 99 105 103 
116 112 112 107 102 92 89 100 98 97 97 99 103 99 97 99 100 102 101 102 100 108 103 107 102 103 102 103 104 107 103 107 110 111 107 106 106 107 109 111 107 109 112 108 108 111 114 111 114 114 114 117 113 113 113 108 105 105 104 104 103 101 104 104 100 100 100 101 100 97 99 99 97 98 97 99 99 101 106 103 
115 113 112 107 97 89 92 97 98 97 99 98 97 103 100 98 102 100 100 102 101 104 104 108 107 105 106 104 103 103 105 106 107 109 108 105 108 108 108 109 107 107 109 110 106 109 111 114 114 116 116 120 112 110 110 108 104 105 103 102 102 106 102 101 102 97 96 99 99 101 96 98 96 99 98 99 101 102 109 102 
114 113 112 104 97 89 90 96 98 97 95 99 101 99 100 98 100 102 103 101 101 103 103 105 107 105 105 105 102 102 103 105 107 108 113 106 109 108 104 108 106 111 108 107 109 110 114 113 115 115 115 117 112 111 111 110 105 107 104 103 102 104 104 103 103 98 99 98 99 100 99 96 100 96 97 99 101 105 103 102 
115 113 113 105 95 87 90 90 93 96 94 98 98 101 97 94 95 98 101 102 101 102 100 105 102 101 101 100 100 103 104 105 105 106 108 108 107 110 106 108 109 107 107 110 110 111 111 113 114 114 115 114 108 108 106 108 109 104 104 101 102 104 103 105 101 100 98 98 99 95 96 96 97 95 97 100 101 100 100 101 
117 115 111 102 93 89 88 92 95 95 99 100 99 97 97 95 96 97 99 101 102 101 102 102 103 103 102 97 101 101 106 108 107 107 106 108 110 106 107 108 107 108 105 108 107 111 113 115 113 114 115 111 108 108 105 110 108 104 103 103 102 104 103 101 98 100 100 96 101 100 97 94 96 96 100 97 101 94 101 101 
115 115 113 101 92 84 88 89 94 93 92 96 97 99 95 96 96 98 98 98 104 102 100 100 101 102 98 98 99 103 105 105 107 108 107 107 105 107 106 107 108 108 108 109 108 109 114 114 115 115 112 109 110 105 104 104 105 103 102 102 101 103 99 99 99 101 101 100 100 99 98 96 98 96 98 99 98 96 97 97 
114 113 108 99 93 84 85 90 92 90 96 96 96 94 99 96 101 99 97 100 103 102 100 104 101 98 99 97 96 102 105 104 104 107 106 106 106 108 105 106 103 105 106 110 110 111 111 112 109 112 110 110 107 104 104 105 101 100 99 100 102 100 95 98 100 101 100 97 100 99 98 93 94 96 99 99 98 93 95 98 
112 109 112 98 85 82 83 90 94 91 96 94 94 95 96 95 97 99 97 96 100 101 99 101 104 99 96 95 99 103 104 105 107 104 105 107 102 105 103 103 106 106 105 110 111 116 112 111 113 112 111 110 106 104 106 104 106 102 100 98 102 104 99 96 95 95 99 103 97 97 94 93 96 95 102 96 96 97 95 93 
116 113 105 100 88 84 83 89 90 92 93 95 95 95 94 94 96 97 97 95 99 101 102 99 102 99 95 97 101 104 102 103 104 104 106 106 106 105 105 105 104 108 104 109 111 109 113 110 110 110 111 111 105 104 102 103 102 105 100 99 100 105 98 98 94 94 94 97 98 96 95 95 97 95 97 94 98 96 94 97 
116 112 108 98 91 86 87 90 89 91 93 92 96 96 95 95 94 92 97 96 100 101 106 103 101 94 96 96 98 99 101 102 104 103 105 105 104 106 105 106 104 104 101 107 107 105 109 105 109 109 109 105 103 105 102 103 104 103 101 101 101 98 95 95 93 93 92 99 99 96 97 96 96 95 98 93 97 95 95 95 
116 111 106 94 92 88 92 91 93 92 94 91 96 93 93 95 93 98 100 97 98 100 102 102 101 99 96 97 100 101 100 102 103 102 105 104 104 103 107 103 102 107 106 106 109 106 104 106 106 112 107 103 105 105 104 102 100 103 104 99 99 100 91 94 93 95 97 99 97 96 96 94 92 96 98 96 94 92 93 91 
114 112 107 91 89 86 87 91 91 92 92 92 92 92 92 94 92 92 95 93 97 101 96 96 97 97 94 94 95 101 99 102 102 104 104 101 102 102 105 102 103 105 106 107 106 108 107 104 107 105 104 108 101 102 103 102 104 102 97 102 99 98 96 93 94 91 95 100 97 94 96 93 93 95 96 96 97 89 93 95 
118 112 103 89 90 86 92 90 93 91 94 91 88 90 88 90 89 91 93 96 100 98 96 97 97 96 92 95 92 98 103 103 105 100 107 106 102 103 102 102 99 102 105 105 104 106 105 105 108 107 107 103 103 106 101 105 101 101 97 99 95 95 94 93 89 92 96 99 96 92 97 93 93 93 95 99 97 94 92 94 
115 113 107 97 89 86 88 94 91 94 91 93 91 89 86 86 88 91 93 94 93 95 96 97 101 99 97 95 100 102 98 99 101 103 101 104 101 100 101 99 104 105 105 103 103 105 106 107 109 107 106 105 100 102 105 106 105 101 103 97 98 96 94 94 93 92 94 95 93 94 95 93 90 93 96 100 93 90 91 89 
115 108 103 94 92 90 85 86 90 93 92 92 88 89 88 89 88 89 91 91 91 95 94 91 95 95 93 96 98 100 98 101 103 101 103 102 99 98 101 100 98 100 98 101 101 102 105 105 108 106 103 104 103 103 102 102 103 103 101 97 99 95 91 90 89 91 92 98 92 94 93 92 89 94 98 97 95 93 89 90 
112 105 98 86 85 82 84 85 90 92 94 91 93 93 87 86 86 85 90 87 90 90 90 94 96 95 95 99 97 98 99 99 100 102 100 97 96 101 96 98 99 97 101 102 98 101 100 105 105 104 104 100 102 103 101 103 104 103 97 96 93 90 90 90 90 90 92 94 92 95 93 91 93 92 91 100 94 91 89 91 
112 104 93 80 83 84 84 90 89 94 92 94 96 93 93 88 83 90 88 89 87 87 89 93 95 94 90 97 95 100 95 99 98 102 99 101 101 98 97 100 100 102 102 101 101 102 102 102 103 103 102 104 105 104 103 103 102 100 95 96 91 92 91 92 94 90 91 93 90 93 100 95 93 96 97 97 91 89 89 95 
107 108 90 60 75 82 86 89 88 93 91 89 100 96 93 89 83 90 91 89 87 87 89 91 92 90 93 93 95 97 95 100 99 101 100 100 97 98 98 99 101 98 100 102 101 101 104 104 106 105 102 102 99 101 103 103 99 99 96 96 92 91 90 93 91 91 92 94 95 95 94 91 94 96 100 100 92 91 89 89 
107 98 73 26 46 73 83 87 89 92 92 88 93 96 92 91 88 84 84 84 85 90 89 87 91 90 88 93 94 98 93 97 97 99 97 98 97 98 97 98 101 97 99 101 97 101 103 107 106 102 102 100 99 100 96 98 97 98 97 94 92 90 86 89 92 92 91 93 96 95 92 91 93 94 94 92 90 90 90 90 
107 98 70 3 11 45 77 87 95 96 90 88 87 87 89 88 90 84 82 81 82 91 91 93 90 89 90 93 94 96 94 99 101 100 97 100 99 99 98 96 96 98 106 101 103 101 102 106 105 103 102 101 98 100 99 97 95 100 94 92 91 92 86 90 93 97 94 93 92 93 92 90 94 96 95 97 92 89 94 86 
107 98 61 6 0 23 61 91 94 94 93 87 85 87 90 89 92 84 81 75 82 87 86 88 92 89 91 92 94 97 94 96 98 99 98 100 101 100 97 96 99 100 97 105 103 101 103 104 104 105 101 97 100 100 96 103 97 97 99 94 88 90 90 91 93 95 95 93 92 90 92 88 96 96 97 93 90 92 90 90 


