P2
80 60
216
61 62 66 67 67 62 65 62 58 57 47 44 48 59 58 63 65 61 60 55 57 54 58 66 73 74 72 79 79 80 81 81 77 78 76 76 77 78 77 74 74 77 77 79 80 74 75 74 78 81 80 78 79 76 77 75 82 75 74 72 78 74 77 74 68 68 66 65 61 61 63 60 62 66 68 70 69 64 63 65 
64 62 69 69 66 64 61 59 59 60 44 46 46 59 61 62 67 63 59 49 55 54 59 65 74 76 74 74 77 82 76 80 78 78 78 76 78 75 76 75 76 75 73 80 77 79 76 77 75 79 81 76 76 77 76 77 81 76 74 73 69 69 71 69 71 68 68 68 61 58 66 63 63 69 70 70 68 63 63 64 
64 64 70 73 73 74 67 67 59 56 45 40 41 63 62 61 64 60 58 50 55 51 55 67 75 76 74 75 77 79 77 78 76 80 83 76 78 77 78 73 77 76 76 78 78 76 80 77 79 79 79 79 78 78 77 75 75 76 72 73 73 72 72 68 68 64 63 65 65 60 63 62 63 69 66 68 65 66 67 69 
68 73 74 75 77 81 76 67 59 59 47 44 48 57 61 63 66 63 54 55 57 55 57 70 75 75 76 78 77 78 78 75 76 76 76 77 81 76 76 75 75 75 73 78 77 76 78 76 78 79 79 78 76 74 75 75 74 77 74 71 76 72 70 68 68 68 65 66 62 61 63 67 65 67 65 69 69 68 65 66 
71 72 85 87 89 81 84 69 58 56 46 42 44 58 60 64 67 59 53 56 57 56 52 67 74 77 79 77 75 74 76 78 79 78 75 77 76 79 80 75 75 77 79 77 77 78 80 80 76 78 80 81 79 76 75 74 75 77 75 72 74 72 72 74 70 67 67 70 65 63 65 63 61 66 68 66 69 64 72 72 
69 77 83 95 90 88 82 76 58 54 40 41 45 62 64 61 70 62 53 56 55 60 58 73 74 78 76 78 75 75 74 77 77 75 75 76 79 79 79 78 75 78 80 76 77 78 82 78 79 78 80 79 77 76 76 77 72 78 72 75 76 72 75 72 71 70 74 72 71 64 64 62 63 64 68 67 70 65 66 70 
64 75 77 88 85 79 82 74 62 56 44 45 50 58 61 59 73 62 59 63 59 61 61 67 75 77 73 74 76 71 73 76 79 78 76 78 77 82 79 76 80 78 75 80 78 77 77 77 78 77 80 78 79 78 78 75 74 83 80 74 75 73 69 72 72 70 71 66 68 68 62 63 62 65 68 67 67 62 68 69 
66 69 82 84 80 80 76 72 56 57 45 43 45 60 62 60 68 63 62 56 61 59 56 70 73 78 77 76 79 78 76 75 75 78 77 81 76 78 77 80 77 76 75 82 78 76 79 76 75 76 79 80 79 75 77 77 75 76 76 74 74 72 75 73 67 71 64 66 65 63 62 61 64 65 65 63 64 66 63 71 
64 73 81 86 84 81 75 65 59 56 40 38 45 63 61 56 69 61 62 56 58 56 60 73 76 77 76 78 80 76 76 71 76 77 77 78 75 79 80 74 76 76 72 78 77 76 76 76 75 77 78 75 75 76 75 72 73 75 72 75 71 69 73 68 69 68 69 63 65 61 58 63 62 64 63 67 61 61 65 60 
61 74 85 85 94 83 77 69 54 54 40 40 46 60 61 61 71 64 64 54 56 56 61 73 78 78 76 81 77 78 74 76 72 77 79 78 76 80 76 74 76 76 73 74 78 74 75 77 76 75 76 76 77 74 75 71 73 73 73 73 71 71 71 68 68 69 64 66 62 61 59 64 61 65 63 69 65 63 67 68 
68 77 90 86 92 92 77 69 57 52 43 41 48 57 62 58 68 69 61 57 54 59 61 70 75 77 76 78 76 78 75 76 74 79 82 76 75 78 76 77 74 73 75 74 77 74 76 75 76 76 77 78 74 77 73 74 75 71 72 72 71 69 69 70 68 67 64 65 62 63 62 62 62 65 67 69 68 65 65 68 
72 81 88 86 90 91 79 81 61 60 47 43 47 57 59 59 63 61 59 54 57 57 59 73 76 75 76 75 76 76 75 78 78 80 76 77 75 77 79 74 77 75 75 73 76 77 75 76 74 75 78 78 74 74 74 72 75 76 73 69 69 73 70 70 65 68 68 66 60 61 59 61 64 67 62 70 67 64 68 72 
76 77 79 91 90 81 75 75 70 67 57 49 49 57 62 56 66 58 55 55 53 57 58 67 74 76 72 75 77 74 77 77 75 80 75 77 75 78 75 74 75 74 77 74 81 76 80 75 75 76 77 77 72 71 75 70 75 75 71 72 69 67 71 66 68 68 63 62 59 60 50 63 58 63 64 67 70 65 69 71 
80 78 80 80 81 77 75 77 78 72 60 50 48 61 61 58 59 62 57 53 58 56 60 68 76 73 72 75 76 75 76 79 76 79 76 78 75 75 75 74 74 74 75 75 80 78 76 77 73 81 77 77 72 75 74 78 77 74 74 72 72 72 72 69 70 65 64 67 61 56 62 62 62 65 64 65 67 65 69 68 
78 80 77 76 79 75 75 77 67 69 58 46 45 57 61 58 61 62 63 51 60 53 57 70 71 74 72 79 74 75 76 77 74 77 75 75 74 78 76 76 75 74 73 79 79 73 77 74 73 76 78 78 74 75 75 74 78 83 79 74 72 71 70 68 65 66 65 64 59 61 60 64 61 64 61 67 67 66 66 69 
77 75 75 79 71 73 73 75 71 64 50 48 46 60 57 58 63 60 57 50 54 56 56 68 74 77 75 77 74 74 76 78 78 76 75 74 75 76 72 74 74 77 76 74 77 75 75 76 73 76 76 75 76 76 74 75 74 79 77 74 71 70 71 68 70 66 66 60 63 62 60 68 63 65 64 64 65 68 68 68 
75 76 78 75 72 71 73 73 72 72 55 48 41 63 59 59 66 59 56 50 56 52 59 69 71 77 75 75 74 79 72 77 79 80 76 76 75 77 76 75 76 74 72 74 76 78 75 74 73 75 75 77 74 77 75 74 73 78 75 73 72 67 68 65 67 67 64 63 64 62 61 66 71 64 64 67 67 68 70 70 
73 73 73 77 79 74 72 74 70 63 56 46 40 53 56 60 66 58 55 55 55 54 55 66 72 73 73 78 76 74 74 76 77 77 76 75 75 78 79 77 74 75 74 73 77 73 73 76 74 74 74 76 74 76 77 74 76 78 74 73 72 68 68 70 68 67 64 63 64 62 61 63 62 65 63 66 67 66 67 66 
69 73 80 77 74 77 74 73 66 60 61 47 43 59 59 56 64 61 55 54 54 55 58 72 76 76 73 74 77 75 77 77 77 77 79 76 74 78 77 78 76 76 75 78 76 77 73 76 76 73 75 75 78 78 73 71 72 78 72 72 71 70 68 71 66 68 70 65 63 61 59 68 66 65 65 67 63 59 70 69 
74 74 76 77 74 77 73 74 65 63 52 46 42 57 60 59 64 58 57 60 55 60 64 70 75 75 76 74 73 75 81 81 79 79 77 77 76 75 76 75 78 77 76 77 78 74 77 76 75 77 75 78 75 76 74 71 72 74 71 71 71 69 68 71 66 69 64 61 61 64 62 65 62 66 64 67 63 67 67 72 
71 69 71 75 74 74 73 69 64 64 55 46 43 61 58 56 64 57 59 55 54 56 59 68 72 74 75 76 74 76 83 80 78 78 77 76 75 78 79 76 77 77 74 77 75 75 73 75 75 77 76 78 76 77 77 76 73 75 72 70 68 69 72 67 66 63 65 63 63 62 61 65 62 66 64 63 68 65 64 70 
75 74 76 73 74 74 73 77 69 57 50 46 51 58 62 57 63 62 59 53 52 55 61 65 80 76 75 77 76 76 78 81 77 80 75 76 78 79 79 75 74 76 75 72 76 70 72 74 72 75 75 77 74 81 74 75 72 71 77 71 71 70 73 68 65 68 67 68 63 68 67 67 66 67 66 63 66 69 72 71 
71 68 74 74 75 72 71 78 68 57 44 45 46 60 58 54 61 61 58 53 57 56 58 70 75 75 75 77 75 76 75 78 76 79 74 74 77 77 75 76 73 74 72 74 78 72 71 75 72 75 75 77 73 79 71 72 73 74 73 73 73 70 70 65 68 71 73 67 65 66 66 67 64 66 66 66 65 65 67 69 
73 71 71 73 71 70 78 75 63 54 39 37 44 57 60 59 65 60 56 51 53 55 56 65 74 75 75 79 74 75 76 76 75 82 75 74 75 75 76 73 73 71 75 76 75 71 75 73 72 78 78 76 77 75 71 71 72 72 73 72 71 69 67 68 66 64 70 64 63 66 64 68 65 67 63 68 68 64 68 70 
69 68 71 69 73 75 78 73 63 54 41 32 41 59 62 57 59 67 55 56 57 53 62 65 74 77 76 75 76 75 74 76 74 73 77 77 73 76 77 77 73 77 76 73 77 75 72 76 74 77 74 79 72 77 74 70 73 72 69 69 70 68 70 67 68 69 70 63 63 64 63 70 67 67 67 66 65 65 68 68 
69 67 74 70 74 71 68 74 64 54 42 34 40 58 67 54 61 64 61 47 57 54 59 70 75 74 74 76 72 74 74 74 73 74 73 75 77 76 78 75 74 72 75 75 74 78 76 79 76 76 77 75 72 77 77 79 74 74 78 72 73 70 68 67 73 70 72 68 62 63 64 68 67 66 69 67 67 66 67 70 
67 69 69 68 70 68 75 70 62 50 38 34 36 57 62 54 65 62 59 49 54 56 61 68 73 76 73 77 74 74 72 72 75 76 73 76 75 75 76 74 75 77 73 75 77 75 75 75 73 76 77 75 74 73 74 75 77 72 72 70 71 68 69 68 70 65 64 63 59 62 63 64 67 69 68 67 66 66 69 70 
67 65 70 68 70 68 68 69 61 53 37 32 38 55 57 55 59 57 59 47 53 52 56 67 73 76 77 78 74 77 75 75 74 75 74 74 74 76 75 75 76 74 76 76 75 69 75 77 73 75 76 75 73 73 73 70 71 72 70 68 74 68 71 68 68 66 67 63 62 66 61 65 63 69 65 66 68 66 69 78 
64 66 68 68 68 65 68 66 59 55 37 32 35 55 53 51 60 56 56 52 52 53 55 66 71 76 73 76 74 75 75 75 75 76 75 77 75 75 75 78 72 74 76 75 76 74 77 77 74 75 76 79 73 75 73 72 73 71 70 70 71 71 69 69 69 66 65 63 63 65 63 62 61 71 67 66 65 67 76 75 
65 65 70 67 65 72 68 70 64 52 39 30 36 55 55 57 62 58 55 47 53 54 55 72 73 75 74 78 76 78 78 77 76 78 73 76 75 78 78 74 79 77 77 77 78 77 78 71 75 76 79 80 74 75 72 75 73 73 74 68 70 69 71 71 67 68 70 65 63 60 66 66 66 67 69 71 65 71 71 72 
62 66 69 69 67 65 68 65 62 52 35 30 28 55 55 53 59 58 54 50 51 51 50 68 74 76 75 74 76 77 75 76 73 77 77 75 76 76 76 75 76 78 80 78 78 77 75 74 79 76 78 78 75 72 73 71 74 73 71 69 70 69 72 76 71 71 70 64 63 64 67 63 64 71 67 69 69 69 73 72 
59 59 61 68 60 61 62 63 57 51 37 30 28 50 54 53 62 51 53 41 49 51 51 64 74 74 78 73 76 76 76 75 76 77 74 75 73 75 74 75 77 75 75 80 78 74 76 76 77 80 77 74 74 77 72 72 75 72 72 72 70 72 70 73 72 67 67 64 65 65 61 63 69 66 69 66 70 66 68 70 
56 58 59 60 59 61 56 63 53 49 38 32 34 50 54 53 56 52 55 44 47 50 54 64 71 76 77 73 75 77 77 78 75 77 72 76 74 76 78 74 79 77 78 79 75 73 75 75 75 75 78 75 74 74 73 73 72 69 70 71 69 68 69 71 68 69 68 67 68 64 64 66 65 69 66 65 68 69 72 68 
58 57 56 61 57 58 56 61 58 51 36 31 27 45 49 51 57 53 53 43 47 42 51 68 73 76 73 77 77 80 76 75 73 78 74 74 75 73 75 75 78 77 78 78 76 75 74 76 73 77 76 76 76 76 68 75 72 71 70 70 73 69 68 68 67 66 69 67 64 65 62 67 68 70 68 71 69 67 70 72 
59 57 55 55 62 55 56 60 57 54 37 30 21 46 49 46 53 54 47 46 48 46 54 67 71 71 75 77 77 77 74 76 76 79 79 75 74 76 74 77 73 76 78 76 79 78 78 78 74 77 75 74 76 76 74 71 79 74 72 67 73 70 71 69 71 73 67 66 65 65 69 67 72 72 70 68 72 70 70 76 
46 46 50 52 51 50 54 53 53 50 42 27 26 47 48 47 52 55 52 43 49 43 54 65 74 74 73 75 76 76 74 78 78 78 78 76 77 77 79 78 74 75 77 79 78 76 79 82 76 75 77 74 77 79 75 77 78 72 74 73 72 71 71 73 73 75 68 69 70 72 70 73 73 71 71 74 70 71 72 74 
45 41 42 47 49 49 50 52 45 50 33 28 26 44 49 45 53 50 50 40 45 47 53 65 70 71 71 74 76 74 78 77 77 79 76 74 77 79 76 78 76 77 77 78 77 74 73 74 74 76 79 76 76 75 74 70 78 73 67 70 72 73 73 73 71 73 71 71 74 74 71 75 73 75 76 70 74 68 76 76 
44 46 44 49 49 51 48 54 48 50 37 28 24 45 44 46 52 49 45 40 40 41 49 58 71 73 71 72 76 75 75 77 78 78 76 76 78 76 79 75 77 78 77 77 76 76 76 75 77 76 80 77 75 73 75 78 71 73 70 72 69 69 74 75 76 80 72 76 75 75 73 77 72 74 72 72 69 75 71 75 
44 43 51 48 47 47 47 53 45 44 41 24 26 44 41 42 49 48 45 36 39 43 47 59 68 73 73 75 75 76 75 75 78 77 76 77 79 77 80 79 77 77 77 77 78 77 79 78 75 79 80 76 79 76 74 75 75 74 74 76 72 72 74 77 78 82 81 75 79 74 77 82 76 74 74 71 73 79 76 78 
40 40 43 47 49 50 46 47 39 43 38 25 24 38 39 40 44 43 38 31 45 38 48 60 70 76 72 76 75 77 72 78 79 81 79 76 77 76 79 79 76 77 76 82 76 80 80 79 77 78 77 79 79 77 80 78 77 77 77 75 76 76 75 78 76 77 73 81 83 87 84 81 76 74 76 72 77 75 76 80 
43 41 43 45 46 47 47 43 35 41 35 19 21 37 40 36 46 44 43 34 39 36 44 60 67 74 77 76 79 78 76 78 79 83 78 80 79 80 80 80 79 80 82 82 82 79 77 79 80 81 82 82 79 88 78 76 79 75 79 78 77 75 75 78 75 72 80 77 95 107 106 101 88 87 80 71 77 78 80 78 
40 41 43 42 45 43 43 43 34 38 31 24 19 36 38 37 43 41 37 34 35 34 40 53 65 70 74 74 75 71 77 80 79 83 81 83 88 78 84 84 81 85 81 81 87 82 79 83 77 80 84 80 84 86 79 78 82 82 75 80 79 72 78 80 76 73 70 72 100 123 125 120 117 111 105 91 84 84 87 88 
34 41 47 40 41 39 40 44 37 36 36 24 17 32 39 37 43 39 31 31 32 29 34 52 63 65 71 74 72 76 75 77 81 80 76 81 84 84 81 80 78 76 75 82 81 84 83 85 79 79 82 84 86 85 83 82 83 80 76 76 72 80 81 77 71 72 67 73 106 121 123 119 123 122 123 116 110 99 91 91 
33 35 38 38 40 42 39 38 37 40 33 25 15 29 36 33 37 32 36 30 28 31 41 51 66 72 70 74 71 75 76 80 80 80 79 80 82 88 91 96 97 91 86 85 88 87 87 93 82 81 81 84 80 87 86 81 83 78 77 79 81 75 72 71 66 72 67 77 112 127 130 129 125 128 128 127 132 126 123 114 
33 32 31 31 35 35 40 38 31 38 30 24 18 28 36 31 36 33 30 27 31 32 35 45 60 66 68 71 72 76 78 79 80 82 79 85 88 103 132 143 149 135 104 95 89 84 82 92 87 88 84 88 82 82 79 79 81 86 79 78 75 74 70 71 70 76 70 88 119 127 130 134 128 132 136 133 134 134 134 138 
30 29 34 36 36 35 34 36 30 34 29 27 17 27 40 31 37 29 33 24 27 29 35 44 61 65 68 73 71 72 73 76 79 80 81 92 88 119 156 166 166 171 142 108 87 88 90 90 89 89 87 84 85 84 81 85 84 74 77 76 71 70 69 67 70 77 71 90 125 132 133 130 134 139 136 137 137 136 139 140 
30 27 31 31 29 30 34 30 27 30 26 22 17 23 34 29 33 30 31 25 23 23 30 39 58 65 75 71 70 75 74 77 78 81 77 82 90 124 165 166 178 172 156 106 91 92 98 101 92 86 85 84 85 85 84 77 75 75 69 73 72 70 71 69 72 71 73 98 128 130 131 132 129 137 137 133 139 139 139 140 
29 25 25 30 30 30 28 32 22 35 25 17 15 18 33 26 34 32 31 23 25 25 32 41 53 62 72 69 69 77 74 76 77 79 80 85 88 125 170 177 188 189 168 112 92 98 105 98 96 90 92 87 80 79 80 72 75 75 71 72 72 69 71 72 68 71 77 107 134 133 136 137 134 142 139 135 139 142 142 142 
27 19 26 20 22 21 26 31 17 23 24 21 11 17 29 27 35 31 25 23 21 24 35 41 54 62 67 69 73 71 73 72 78 81 80 83 86 125 181 209 213 206 172 129 95 104 100 97 91 89 85 85 80 80 76 77 73 74 75 72 70 66 71 69 72 75 83 115 131 135 135 133 132 139 140 140 143 141 144 144 
25 20 18 17 18 28 23 18 15 16 11 16 6 11 26 31 34 27 27 19 23 21 28 39 52 60 65 69 69 71 73 72 77 79 83 81 86 114 175 216 215 214 170 135 96 94 89 88 85 85 83 80 80 77 81 75 73 74 74 73 71 72 69 72 68 77 81 120 140 136 134 135 135 140 137 141 146 144 145 150 
23 18 19 22 20 19 17 23 12 11 10 8 0 4 24 23 27 26 28 21 18 20 27 33 49 56 65 69 69 68 75 76 79 80 80 81 83 102 150 180 180 179 162 138 93 84 83 78 77 75 80 79 77 81 81 80 74 71 74 75 73 73 71 73 67 75 91 130 140 137 137 138 136 138 143 145 147 146 147 150 
38 42 45 42 45 42 46 34 28 28 14 6 0 2 17 23 25 25 28 18 23 19 21 29 46 59 64 68 69 70 72 72 72 82 83 79 85 97 133 152 148 157 150 145 124 92 80 79 79 79 81 76 76 75 74 77 76 74 76 74 76 73 71 74 68 81 98 131 139 136 140 138 137 143 145 149 144 140 141 147 
72 68 77 78 81 74 77 75 73 73 52 24 20 16 21 18 24 25 20 18 20 17 24 32 48 58 65 67 69 71 71 73 76 76 76 82 90 110 129 142 144 148 143 144 139 123 96 78 78 78 81 77 75 75 79 79 75 74 85 81 79 78 70 73 70 84 104 139 140 138 138 139 133 138 144 142 145 142 148 151 
83 85 88 87 88 86 91 90 81 92 83 59 27 17 19 18 20 19 22 21 17 21 24 29 48 59 68 64 70 68 71 71 72 76 76 84 100 116 122 130 127 136 134 136 136 129 122 88 79 80 78 79 76 75 79 77 83 83 83 81 78 80 82 81 74 87 114 149 144 143 138 144 139 144 145 143 147 149 146 150 
88 84 86 87 91 85 91 94 88 93 88 79 32 23 13 18 19 20 16 15 17 13 19 29 39 56 67 66 68 66 72 69 74 76 77 87 105 115 117 119 121 127 125 129 126 127 126 110 84 80 76 77 77 77 76 78 85 86 83 84 82 80 82 83 79 97 122 154 144 141 140 145 137 142 147 148 151 150 149 156 
88 90 91 89 93 90 95 93 88 95 94 89 50 24 20 15 17 14 11 19 17 15 21 28 43 53 63 67 66 67 67 71 69 78 80 93 107 109 112 113 118 117 121 125 124 125 127 117 89 79 75 78 77 74 75 78 90 85 85 82 80 87 82 85 90 102 135 156 149 147 144 144 143 150 145 148 148 150 150 159 
91 94 94 93 93 96 95 96 96 93 95 91 64 24 16 13 14 13 11 15 15 17 18 29 41 48 61 62 66 64 67 68 71 80 78 95 99 103 108 113 115 116 115 121 120 121 128 123 103 80 76 79 76 78 75 83 84 86 83 89 83 82 91 86 94 110 147 152 151 148 145 145 143 153 150 152 152 151 153 153 
92 90 94 95 99 96 96 98 94 97 95 100 84 38 14 10 13 8 13 14 17 15 18 27 38 51 62 61 68 65 68 73 75 80 82 94 97 106 108 109 107 116 115 119 122 121 126 122 96 85 75 79 77 77 80 84 82 84 83 87 87 85 88 90 92 118 156 160 153 151 152 150 145 150 154 152 151 153 157 155 
95 91 96 95 97 94 96 96 100 105 104 97 93 71 23 10 15 6 11 17 20 15 16 25 39 51 59 63 68 66 68 73 74 78 85 92 92 98 104 106 106 110 114 114 117 114 111 104 89 81 75 81 76 79 81 84 82 80 85 87 88 85 89 97 93 128 167 160 155 153 150 153 151 154 153 156 159 155 154 157 
96 97 93 95 93 91 96 96 100 99 95 98 94 84 49 11 10 14 12 17 23 19 21 25 34 48 57 63 65 64 68 71 78 78 78 83 89 96 97 95 100 110 109 109 110 101 97 83 79 78 76 80 79 80 78 82 78 80 87 82 80 83 82 88 91 136 172 167 160 152 156 154 152 153 158 158 156 156 154 152 


