P2
80 60
175
158 160 155 159 162 164 165 168 170 168 168 166 166 161 164 172 168 168 169 168 155 161 164 162 153 148 133 117 113 113 75 0 17 19 9 13 17 18 31 43 54 58 69 83 84 92 99 104 108 109 108 112 114 111 118 121 123 125 123 120 121 125 128 125 126 125 125 124 124 128 129 129 133 132 132 130 134 130 131 131 
157 159 158 157 157 167 164 169 171 171 170 168 164 165 164 168 169 169 165 163 155 162 165 162 156 151 132 120 113 107 75 6 16 22 13 11 14 19 37 44 57 62 71 86 86 93 100 100 103 107 110 112 115 112 117 120 125 122 125 122 120 123 122 127 124 124 123 124 126 127 130 130 131 130 135 133 134 133 132 137 
153 155 155 154 158 159 165 171 171 172 166 165 166 164 166 168 170 165 164 160 155 164 164 162 157 152 131 121 117 111 72 5 14 19 14 7 17 21 37 42 60 64 76 80 83 94 96 99 100 106 109 109 115 113 112 119 121 120 120 120 122 125 123 125 125 121 125 124 126 129 132 131 129 134 131 133 133 134 140 128 
147 152 150 150 158 159 169 168 170 171 169 168 164 165 166 169 170 168 168 160 158 164 164 163 156 150 134 119 117 112 67 4 15 19 15 12 15 20 40 43 58 69 80 85 82 92 93 96 101 105 109 113 115 113 113 113 117 119 119 120 121 124 123 123 122 120 124 124 126 127 128 132 128 131 130 134 130 134 138 131 
148 144 149 146 155 161 165 171 170 169 169 167 162 165 166 170 171 165 167 164 156 161 168 162 155 149 126 120 119 110 65 5 12 14 10 10 16 16 39 41 58 66 82 81 83 90 91 97 101 109 113 117 115 118 115 117 117 118 120 120 119 124 124 127 124 126 126 127 126 129 129 128 131 132 131 131 131 133 136 137 
146 143 147 147 157 160 161 170 172 169 169 165 163 166 168 166 171 168 165 164 157 164 166 165 160 146 125 120 121 113 62 5 16 19 12 12 22 25 37 40 54 67 79 79 78 87 88 92 108 120 121 123 125 122 125 117 118 118 120 122 122 121 124 124 124 121 124 128 133 127 125 129 125 131 129 132 130 132 130 129 
149 145 145 149 156 153 162 168 170 170 171 166 164 166 166 168 175 170 169 164 156 162 167 165 160 145 126 122 124 117 64 6 14 20 11 14 25 32 41 43 50 65 77 77 77 92 92 93 115 123 126 132 133 134 135 122 118 120 128 122 121 124 122 125 123 121 125 126 131 126 127 127 126 130 130 131 132 131 137 131 
143 140 138 146 149 157 159 168 169 171 167 163 166 167 167 166 168 171 168 163 153 164 168 166 154 142 128 123 121 116 63 2 17 20 14 19 27 29 38 40 50 62 73 75 75 87 92 91 112 120 123 127 128 130 127 125 117 120 117 121 120 121 124 124 120 122 121 123 128 125 123 127 125 127 130 128 130 136 133 132 
140 137 134 138 149 160 165 174 171 172 169 166 165 161 166 168 171 168 167 158 148 163 164 164 155 139 127 120 123 115 61 3 16 19 10 15 26 31 40 35 46 53 66 74 78 86 87 92 110 110 115 120 119 121 122 119 114 115 115 121 118 118 120 120 119 121 117 122 123 123 121 125 129 127 126 124 127 129 131 126 
142 135 127 137 148 156 165 173 171 167 169 164 161 164 163 167 171 168 164 157 146 162 163 165 157 136 123 122 123 118 62 6 16 21 9 17 23 31 35 36 45 47 63 70 71 88 85 89 104 101 106 114 113 115 118 118 113 109 112 113 116 119 117 118 119 119 120 121 125 122 122 124 124 126 128 128 126 128 127 127 
144 135 132 138 145 156 168 171 170 170 169 167 161 160 167 167 168 167 167 161 149 163 162 162 153 133 124 123 126 117 53 5 18 17 10 13 22 26 34 36 44 44 62 71 75 83 84 87 104 106 114 117 121 118 120 113 112 113 113 112 112 114 117 119 116 118 121 123 121 124 121 124 124 124 123 128 128 128 131 125 
143 140 133 136 153 153 162 171 170 166 168 163 162 160 164 167 166 167 166 160 150 164 161 162 147 126 121 119 122 117 54 6 18 20 9 12 22 25 30 35 43 44 59 67 75 82 85 86 98 111 118 118 121 124 116 106 111 113 112 115 113 115 117 116 116 119 118 121 119 120 120 121 123 126 125 132 132 132 130 129 
140 138 128 137 153 153 165 170 169 170 167 164 162 163 165 167 164 163 163 156 149 162 159 158 141 123 120 121 121 115 55 9 17 22 8 9 20 23 31 36 44 47 55 67 76 83 91 89 93 111 118 118 123 123 113 105 109 111 110 112 112 116 119 117 119 117 119 120 120 117 109 124 123 124 126 127 124 130 130 134 
133 136 129 132 145 142 154 165 170 168 164 161 160 161 164 167 164 162 161 159 155 163 158 159 141 121 118 120 122 115 50 10 16 22 5 10 19 24 27 34 44 45 58 67 77 88 84 89 91 116 117 120 123 121 111 109 109 113 111 113 113 118 116 116 120 119 121 121 118 120 123 120 122 124 126 128 129 127 136 129 
122 133 127 129 140 135 156 166 167 166 162 163 161 160 162 165 162 162 157 159 158 162 159 161 143 123 121 122 124 114 47 10 17 15 3 10 18 22 25 29 41 46 65 67 74 83 87 85 109 118 120 118 120 120 117 108 111 114 112 111 112 115 114 118 117 117 120 120 117 121 119 120 125 123 124 125 127 127 132 127 
120 124 126 128 134 137 159 167 167 162 161 161 159 162 165 169 165 164 162 160 153 162 163 161 145 126 123 119 121 113 41 14 17 18 1 13 20 24 29 34 42 47 59 73 81 90 96 102 112 118 120 120 120 120 120 118 118 115 116 110 113 111 118 115 117 113 119 118 122 121 122 121 125 124 127 123 128 131 131 126 
123 126 120 121 135 141 150 163 164 163 160 165 162 166 165 166 166 167 158 156 153 163 161 159 141 120 121 118 120 111 40 13 20 19 5 12 19 21 27 31 46 47 62 74 93 103 107 101 106 113 117 120 116 114 121 120 124 128 125 121 118 111 112 115 113 115 117 119 120 120 121 121 128 122 123 123 125 126 133 134 
125 131 123 127 138 144 148 162 163 160 163 164 164 160 165 165 169 162 163 156 152 163 161 159 133 120 117 119 121 114 38 14 19 17 5 12 15 21 28 33 43 48 63 76 95 99 104 104 103 107 106 108 112 115 122 116 127 132 128 128 123 113 111 110 113 115 117 118 118 123 122 124 124 123 122 124 125 128 131 125 
131 132 130 128 134 149 150 165 163 162 163 162 159 166 166 166 165 163 161 158 156 159 160 157 131 121 118 120 123 108 40 14 18 19 10 11 16 22 28 33 41 47 61 79 93 99 102 105 104 106 107 106 112 116 118 117 123 127 125 125 128 119 112 112 115 117 118 119 120 119 122 122 126 120 123 125 123 124 129 127 
135 140 128 125 136 154 151 164 161 162 164 162 164 162 165 167 164 165 163 159 153 166 163 157 130 119 118 117 119 111 39 15 17 13 8 9 20 20 25 34 46 50 64 78 93 101 101 103 102 106 104 107 112 116 114 117 119 121 120 126 126 121 112 114 111 116 116 118 122 118 121 122 122 123 123 122 122 125 126 127 
153 149 129 122 138 150 152 165 160 164 163 161 160 162 164 164 163 164 164 157 156 161 164 151 126 118 119 120 120 109 44 16 15 12 8 9 14 23 26 31 44 52 65 78 93 98 99 100 103 103 104 105 114 111 115 112 117 121 120 122 122 125 117 114 112 112 114 117 121 121 122 122 125 124 125 122 124 124 129 129 
145 143 131 138 143 151 157 164 165 161 166 163 169 164 165 166 164 163 163 158 160 163 162 152 125 122 118 116 122 112 37 15 18 14 7 11 17 20 25 30 46 49 66 78 92 97 100 99 98 100 104 106 108 110 112 113 116 118 120 117 122 118 118 114 113 113 118 114 119 122 124 120 126 122 123 122 126 128 129 133 
133 129 130 140 150 148 153 166 165 162 165 161 162 162 162 165 166 166 159 157 154 163 157 145 121 123 117 114 114 106 30 16 15 13 4 11 13 20 22 32 43 47 65 77 93 95 100 97 97 101 102 108 115 111 112 113 116 120 120 121 126 123 116 111 111 116 115 117 119 124 124 121 125 122 123 122 124 123 130 129 
129 129 125 127 144 139 151 166 165 164 164 162 162 164 163 167 165 167 157 155 153 161 155 137 120 118 114 115 115 104 32 9 15 16 6 12 13 21 25 31 42 47 62 81 91 96 101 96 101 105 105 104 113 112 113 116 120 122 124 123 127 125 119 112 109 112 117 119 117 122 122 122 122 118 122 120 125 125 126 126 
128 129 124 126 140 147 153 165 165 163 164 162 162 165 165 167 165 164 155 156 154 163 154 140 120 119 116 115 114 105 27 14 16 14 8 11 17 20 24 33 45 49 62 82 92 96 102 100 102 101 104 107 110 112 113 114 118 122 120 123 126 122 118 115 111 114 114 117 120 119 117 121 123 123 122 122 120 124 130 125 
132 131 127 133 142 150 147 163 164 162 161 162 159 161 167 163 164 164 159 154 157 156 156 138 117 113 114 117 112 101 25 14 17 13 9 12 14 17 25 32 43 51 64 79 93 96 98 99 98 100 102 105 108 107 108 114 117 121 124 123 125 129 119 112 119 107 115 115 115 120 117 121 121 120 126 124 119 123 125 129 
135 136 139 136 146 148 150 164 160 159 161 157 159 159 160 165 168 162 161 155 152 161 160 140 117 118 116 112 116 104 26 14 15 16 14 14 15 18 24 34 42 51 67 77 93 97 99 100 101 100 104 105 103 105 104 116 117 120 123 123 127 124 119 112 111 110 112 112 114 118 117 118 121 123 122 120 121 122 125 132 
142 140 141 129 141 151 149 163 159 159 157 156 158 158 161 162 163 163 159 157 156 157 154 134 115 115 116 113 116 102 27 16 22 19 16 17 17 22 26 34 46 56 67 82 93 95 100 99 100 102 101 103 104 106 107 112 117 119 121 126 129 127 120 115 111 112 114 114 117 117 119 121 117 118 120 121 123 125 128 133 
134 136 131 131 140 146 145 160 163 159 159 156 157 160 160 161 163 159 157 162 156 157 154 134 115 114 111 112 114 99 23 20 22 17 17 18 19 22 33 40 47 57 67 87 95 100 100 98 103 102 99 102 106 107 107 110 114 120 120 124 128 132 122 112 112 110 114 116 117 118 118 119 116 120 122 121 123 123 125 128 
126 127 121 129 144 142 145 159 165 165 157 155 160 160 160 164 164 157 158 158 158 162 151 132 118 113 111 110 106 100 23 16 21 23 21 24 19 29 36 43 49 58 66 86 96 99 102 100 104 102 101 103 107 108 110 111 110 111 119 121 128 128 122 111 111 112 116 116 115 115 115 117 122 119 121 123 123 121 128 124 
131 138 125 127 145 143 143 160 165 161 153 156 158 156 162 162 164 161 157 159 153 157 153 126 115 113 109 106 106 93 18 17 23 27 27 25 22 29 38 44 51 60 72 87 96 104 102 102 101 100 106 107 106 105 111 111 109 104 104 115 122 126 118 110 109 109 111 115 115 114 118 117 116 124 121 120 120 126 124 120 
141 137 133 131 143 140 145 157 157 158 159 158 159 158 163 162 166 159 156 156 154 157 152 125 114 111 114 107 105 95 22 23 28 27 28 27 27 29 37 44 55 57 74 94 98 102 103 100 103 103 104 103 106 106 107 110 109 102 98 101 112 115 109 109 107 112 115 113 113 116 115 120 117 117 117 119 121 119 124 127 
140 147 134 127 131 130 131 156 160 159 158 159 161 157 159 163 164 160 158 158 154 156 150 122 113 114 107 104 107 90 20 22 30 34 33 28 28 33 37 44 59 62 72 92 97 106 103 102 102 102 104 103 104 105 108 111 108 104 100 99 104 104 105 109 108 108 113 112 116 114 113 115 119 119 122 118 119 120 123 120 
134 141 135 116 121 125 132 155 154 158 157 152 158 157 156 159 160 162 158 156 158 155 147 118 113 113 108 107 104 96 21 27 31 38 35 33 30 33 39 41 54 68 70 96 98 106 106 103 103 104 102 101 105 106 107 110 107 100 96 101 104 104 105 106 107 110 113 113 113 113 114 117 120 117 121 115 121 120 123 119 
109 125 114 120 124 136 132 154 154 158 154 155 156 156 155 158 164 166 158 157 151 154 142 115 113 106 104 103 104 90 24 26 32 39 39 37 34 35 40 42 57 62 73 93 99 107 106 106 106 103 102 104 108 106 107 110 109 102 99 98 103 104 104 108 108 110 110 112 116 112 115 117 119 118 118 117 120 124 125 126 
109 119 111 113 127 137 130 157 158 157 152 154 156 158 155 159 163 160 159 156 154 152 144 112 114 105 105 104 101 89 21 28 34 41 41 39 37 36 44 50 56 66 72 87 98 101 106 108 107 107 103 111 107 109 108 111 107 99 101 102 100 103 104 106 108 108 110 111 110 117 118 117 116 118 118 116 118 124 127 123 
117 115 119 118 135 133 143 157 161 162 153 151 157 153 157 158 158 164 158 154 153 155 141 110 109 104 101 100 100 93 26 29 37 41 41 41 39 41 44 47 58 66 72 91 96 100 103 100 103 106 108 111 108 109 109 109 107 102 99 99 102 103 104 106 107 108 111 111 113 110 113 113 116 118 118 119 119 122 127 120 
107 109 108 119 136 128 140 155 158 161 155 154 157 153 154 160 161 166 157 156 152 156 140 110 107 105 102 102 100 91 26 28 34 43 44 44 42 41 39 47 59 63 76 90 91 99 99 99 102 102 104 110 106 107 110 109 104 101 99 99 99 101 103 105 106 111 111 110 111 113 112 116 116 117 117 119 119 118 123 123 
120 112 115 120 134 126 132 157 158 156 154 153 156 153 153 155 156 157 155 158 151 154 137 111 107 105 101 101 103 90 28 27 34 40 46 46 44 43 48 48 58 65 74 89 90 96 97 99 99 102 102 106 104 100 110 108 104 97 97 100 100 104 100 105 107 108 110 110 112 108 112 113 113 114 116 118 119 122 126 128 
128 105 116 122 131 136 135 156 156 156 156 150 154 154 157 154 154 155 157 157 153 150 135 110 107 106 103 104 106 94 26 29 36 45 46 49 46 44 46 49 58 65 74 89 89 95 100 101 99 100 103 104 106 105 104 107 102 97 94 101 106 102 105 106 108 109 107 107 112 109 113 117 118 119 116 118 119 123 123 120 
105 101 121 123 128 141 150 155 158 157 155 152 153 155 157 157 157 153 153 155 152 152 131 109 105 107 106 102 105 90 28 27 39 44 47 51 48 49 45 52 59 64 75 85 90 95 97 94 97 99 102 107 104 105 106 103 105 100 97 96 97 104 103 110 105 105 108 107 106 109 111 113 112 120 117 122 120 123 131 123 
101 119 117 115 135 144 146 154 157 153 151 149 151 156 155 158 157 155 155 150 149 147 128 109 108 106 105 105 106 92 28 29 35 46 51 51 50 49 49 51 60 66 69 87 88 90 97 96 97 100 101 101 102 102 106 103 106 99 100 97 99 104 102 106 104 105 107 107 108 112 110 110 116 112 116 117 120 121 126 123 
123 121 122 115 128 142 143 157 155 157 160 154 150 154 155 158 154 155 158 154 147 143 129 108 107 106 102 101 105 91 30 29 37 44 54 57 50 52 50 51 61 68 75 85 91 94 98 97 95 101 102 100 105 105 106 107 107 99 96 97 100 101 108 107 104 107 107 106 108 108 109 110 113 111 117 118 121 122 127 127 
124 113 109 124 131 140 143 155 156 153 154 159 152 154 155 155 152 152 156 153 150 145 123 107 104 105 101 103 104 91 30 30 35 40 48 54 50 53 48 51 61 65 77 88 89 91 98 104 96 100 100 101 102 106 107 106 104 99 96 97 98 99 98 100 102 105 104 103 109 108 109 110 113 112 115 119 117 122 124 122 
106 115 125 133 135 136 145 152 158 157 156 152 151 153 157 156 158 155 152 155 152 147 120 105 104 104 102 102 102 92 29 31 36 44 52 56 53 52 52 51 61 66 77 89 93 93 97 95 95 100 100 104 106 103 107 104 97 97 96 98 99 101 98 105 104 105 103 105 110 113 110 108 111 113 118 121 124 122 128 124 
118 128 132 134 138 133 125 149 156 155 155 153 143 150 158 160 162 153 153 155 151 147 120 105 103 105 99 100 102 91 30 32 34 41 54 57 55 52 51 53 61 65 78 86 88 97 93 94 93 98 99 103 105 104 101 102 96 95 96 99 99 100 99 101 105 105 106 105 108 106 109 108 110 115 118 121 121 126 128 124 
124 133 135 130 134 118 96 138 155 157 156 154 150 155 161 156 155 150 152 155 152 149 118 104 103 102 104 99 103 91 26 31 34 41 50 55 53 56 54 53 63 64 75 85 89 91 92 91 96 101 99 104 104 105 105 98 93 96 97 97 97 100 100 101 101 103 107 106 104 109 107 108 112 113 115 118 119 124 126 126 
123 130 134 128 129 104 88 135 149 157 154 152 151 153 155 154 153 150 151 154 148 143 115 102 103 102 101 98 102 91 27 31 31 40 51 54 54 52 53 55 63 67 74 86 87 90 94 90 97 101 100 101 101 105 98 95 94 95 95 97 95 98 97 99 102 102 109 107 107 110 106 106 109 114 112 113 115 117 126 123 
124 132 132 122 99 75 84 131 152 150 152 151 147 152 155 157 155 156 148 156 148 146 117 102 102 99 99 101 98 88 23 28 30 39 48 56 56 55 53 55 65 64 78 84 89 89 92 91 96 100 99 101 103 99 91 92 94 92 95 93 97 100 93 98 101 101 107 105 110 106 108 106 109 111 114 113 114 116 122 118 
107 112 109 88 68 69 76 130 143 136 150 151 148 154 157 158 158 152 148 156 149 141 107 102 98 104 99 96 100 90 24 28 34 39 49 55 59 54 54 55 64 66 77 85 88 89 86 86 90 96 94 96 94 88 89 89 92 92 93 93 101 102 98 99 97 102 102 107 106 106 106 111 111 112 120 113 116 119 119 120 
68 65 62 57 59 65 77 110 132 120 137 147 149 152 156 151 155 152 147 151 144 141 104 98 98 99 100 97 98 88 21 23 27 33 47 55 52 55 55 57 66 66 79 85 89 86 89 88 88 94 93 87 83 86 88 91 91 91 89 94 96 98 96 98 101 98 101 106 104 104 104 107 107 107 110 114 117 118 121 112 
56 55 53 53 57 61 62 71 76 77 90 121 122 134 147 151 148 146 120 135 141 132 94 95 94 98 93 92 94 86 19 25 23 34 46 49 52 50 54 58 66 64 74 87 84 90 92 89 85 84 82 83 83 85 87 88 90 92 96 95 97 96 94 100 97 99 102 103 104 103 104 106 106 107 114 113 120 115 117 114 
58 48 48 43 55 53 56 63 69 73 73 80 79 124 148 151 152 138 96 105 126 113 85 93 97 96 89 92 94 84 20 18 18 29 39 48 49 47 52 59 60 65 72 84 85 88 95 90 82 78 76 79 85 84 86 88 92 93 94 93 96 97 95 98 100 99 102 102 106 102 105 105 104 105 107 112 116 113 118 115 
63 47 43 41 57 57 54 54 62 63 65 67 70 93 135 144 138 110 84 87 89 84 83 93 96 94 91 91 94 83 22 18 12 22 33 42 44 46 50 54 63 63 74 81 85 90 92 85 78 76 79 77 82 82 85 88 92 95 91 90 92 94 95 99 97 96 102 102 101 106 104 108 107 108 108 110 114 115 117 112 
72 44 37 39 46 47 50 52 56 62 60 68 62 69 86 98 96 82 73 76 75 71 78 88 87 91 92 89 91 77 15 12 11 15 22 33 34 41 45 54 60 63 71 78 79 88 86 84 75 75 76 81 85 85 88 89 92 92 90 92 92 94 94 98 98 96 98 100 101 104 107 109 105 107 105 109 110 110 113 111 
75 49 37 37 39 40 44 50 54 55 59 63 60 61 67 70 79 77 73 74 74 75 74 88 87 91 88 84 83 77 11 9 13 7 20 27 38 39 44 52 63 64 72 83 80 85 88 80 76 76 76 82 84 86 89 90 90 88 86 89 90 98 96 94 95 97 97 95 102 103 108 107 105 104 106 104 105 107 114 115 
85 53 32 35 35 40 39 47 52 53 55 59 65 58 61 68 71 72 72 73 73 74 74 84 86 87 86 81 80 72 2 6 13 10 20 31 34 44 47 48 64 61 69 81 85 84 83 79 80 75 78 81 85 83 87 89 86 87 86 87 87 94 92 95 94 93 99 93 98 103 101 102 105 103 103 106 102 111 114 111 
91 53 33 29 33 30 34 40 48 44 48 51 52 55 56 60 69 70 70 69 64 68 72 80 85 83 82 77 78 68 2 7 10 16 27 35 40 43 50 55 64 62 71 80 80 84 85 83 79 78 81 82 83 82 82 83 86 89 85 84 89 92 92 96 92 94 98 97 96 97 97 96 102 99 101 102 104 105 108 112 
94 61 38 30 28 27 30 33 36 48 46 42 47 44 47 51 57 61 62 62 61 67 67 78 78 78 76 74 78 65 1 0 8 22 38 44 47 49 55 62 67 63 73 83 82 85 83 80 79 81 80 85 82 80 81 84 85 85 86 88 86 88 89 92 92 88 97 91 99 97 95 96 99 99 98 94 98 100 109 108 
97 64 36 27 25 27 28 27 34 39 38 37 37 39 38 40 48 56 55 54 54 63 63 72 76 78 77 70 74 63 4 0 11 27 40 49 55 52 57 65 67 65 75 82 85 79 81 80 74 78 81 77 81 78 81 82 80 84 85 81 85 83 86 89 88 88 89 93 91 91 99 97 96 102 97 93 95 98 105 110 


