P2
80 60
52
42 39 39 38 42 41 42 40 51 42 44 44 42 42 43 42 39 36 43 40 41 40 41 38 40 40 38 40 39 39 42 40 41 43 40 39 42 35 35 40 41 40 45 40 42 38 34 34 38 38 39 36 35 35 37 39 38 41 49 43 39 41 35 35 33 33 34 34 34 32 27 28 29 32 31 30 35 33 30 30 
44 39 41 43 43 37 40 43 44 43 44 43 41 44 42 41 43 41 38 38 41 42 39 40 38 37 40 39 43 36 42 41 41 41 39 38 42 36 40 35 39 39 42 41 39 40 35 39 40 40 35 38 37 39 38 39 39 41 40 40 43 43 34 32 37 29 31 31 32 27 26 30 29 29 31 29 32 31 33 28 
44 38 40 40 43 42 42 42 45 43 42 43 39 37 45 42 43 41 41 37 42 44 44 39 39 39 39 39 43 42 44 42 39 41 43 38 43 39 38 37 35 39 37 40 40 39 38 37 37 38 36 36 36 38 35 37 37 37 38 35 36 39 31 34 31 33 30 33 29 28 30 29 32 32 28 30 32 27 29 24 
44 38 42 40 43 46 40 45 41 43 46 45 40 39 41 40 41 42 43 41 41 46 41 41 36 44 37 39 42 39 38 41 41 40 39 41 40 39 39 40 40 36 39 40 38 39 36 38 39 35 38 38 35 34 37 36 38 35 39 35 36 36 33 34 36 33 32 34 32 30 33 31 32 31 25 32 31 26 31 27 
47 36 39 45 44 41 44 47 50 44 42 45 44 39 41 41 42 41 43 40 39 44 42 39 40 40 40 39 41 39 39 42 38 39 37 39 40 41 43 39 37 39 39 38 41 38 42 41 36 37 35 36 38 34 37 37 41 35 40 34 38 36 34 38 35 33 33 39 34 31 29 30 30 32 29 29 30 30 26 29 
40 39 40 45 41 43 42 43 44 44 45 44 38 41 40 42 41 41 41 42 41 41 43 42 41 41 40 39 40 38 36 42 35 41 37 38 43 38 40 37 39 40 43 42 41 40 37 40 36 35 37 37 39 35 35 35 35 38 36 36 37 38 31 34 36 33 31 34 36 31 31 30 29 32 31 28 29 29 29 27 
39 38 41 39 41 43 46 46 44 43 43 47 39 42 40 42 45 38 43 42 42 41 42 38 39 38 38 39 38 35 43 38 35 39 36 38 39 37 39 37 38 42 38 38 39 39 35 36 36 36 37 37 39 35 37 34 39 43 45 38 36 40 35 35 34 30 32 35 32 30 29 27 32 31 30 31 31 23 26 24 
42 40 47 42 47 45 46 46 43 40 43 45 41 40 43 42 42 41 44 43 44 42 40 40 40 40 41 38 38 39 40 39 38 40 37 40 39 37 40 38 39 36 37 38 36 38 37 37 35 37 36 36 37 38 37 34 37 37 39 36 37 38 42 36 33 34 33 34 34 28 25 24 27 32 28 31 30 23 30 31 
46 43 41 45 50 43 52 48 43 43 41 39 42 39 39 40 41 40 41 41 40 42 39 39 41 39 40 39 42 37 39 39 35 37 39 38 38 36 38 38 34 36 34 38 40 37 35 37 33 37 33 37 33 35 34 33 38 35 39 39 34 37 34 35 34 30 33 33 32 27 28 24 31 36 28 29 31 25 27 25 
46 46 45 45 45 45 48 49 44 40 42 43 41 38 40 44 45 41 43 43 39 44 39 42 42 43 39 38 39 37 35 37 38 37 35 37 38 36 36 37 34 36 32 36 36 36 33 32 36 35 33 34 34 32 35 35 36 37 33 36 32 36 32 31 36 35 32 31 32 25 29 26 31 28 29 26 30 24 25 23 
45 46 42 47 47 46 49 47 44 45 43 43 42 40 43 42 42 40 43 43 40 41 38 40 38 40 38 39 38 35 33 42 38 37 36 38 38 35 37 38 34 36 34 34 35 35 31 36 37 33 36 34 35 31 33 34 36 33 35 35 31 34 30 34 33 31 31 36 31 28 24 27 28 31 27 30 29 23 21 26 
43 45 46 42 47 42 47 43 44 43 41 46 38 34 43 40 38 37 38 37 36 38 38 39 40 37 37 35 39 34 36 39 35 41 35 38 40 36 36 36 35 36 31 37 36 38 32 32 32 36 32 35 32 34 34 33 32 33 34 34 33 35 34 30 31 30 30 31 28 23 24 24 29 31 28 28 30 22 21 23 
46 42 45 44 46 45 44 42 40 40 44 40 38 38 39 40 39 41 37 39 39 39 35 39 39 36 36 40 37 37 37 39 37 40 36 36 36 34 39 36 37 32 36 35 36 35 34 35 33 31 35 35 33 28 34 35 34 33 33 33 32 35 34 33 31 30 28 26 27 26 15 22 24 27 27 27 26 25 24 23 
42 42 46 45 45 42 42 39 40 41 39 42 41 38 40 42 38 38 37 32 37 37 36 39 36 34 35 36 36 36 38 38 38 38 37 35 36 38 34 34 34 33 36 37 34 38 41 38 34 37 35 36 33 29 31 34 35 34 36 33 33 34 31 31 31 31 29 28 28 27 25 23 27 27 27 22 30 25 29 25 
44 38 47 49 43 45 42 42 41 39 39 42 37 35 38 37 37 34 38 36 33 40 37 38 40 38 36 36 39 35 38 36 37 38 35 35 36 32 36 36 35 33 35 35 36 35 37 38 40 38 40 37 34 34 32 36 37 48 37 33 32 36 31 30 32 28 29 31 28 26 27 28 28 30 25 26 27 25 26 28 
46 46 45 48 44 42 40 43 43 40 42 41 39 39 36 38 39 34 39 34 38 39 38 40 36 36 37 36 37 36 37 38 37 38 32 34 36 34 37 34 36 37 34 38 37 34 40 41 40 36 41 36 34 32 36 40 42 38 38 40 35 37 37 32 34 31 29 38 29 25 27 26 29 28 27 25 28 24 25 31 
44 46 46 47 46 41 38 40 41 37 40 40 39 36 39 39 37 35 38 33 37 39 38 34 36 33 34 37 35 37 37 40 37 38 36 33 35 34 32 37 34 35 32 36 36 40 35 35 38 38 35 39 35 37 40 40 35 39 42 36 35 38 34 33 34 33 33 34 28 27 28 25 29 28 27 22 28 22 28 28 
44 44 45 47 43 41 41 39 41 36 37 40 38 36 38 36 37 38 36 34 36 34 36 37 35 33 35 38 37 33 35 40 37 36 35 33 36 35 35 35 33 34 33 36 36 37 34 34 38 36 36 37 37 35 41 35 38 42 41 39 33 37 31 32 34 31 30 37 32 28 28 24 26 27 28 25 28 25 26 21 
45 44 41 43 42 41 43 41 39 38 41 38 37 39 35 39 37 38 37 34 34 38 37 38 37 34 34 39 39 38 37 38 38 39 38 36 35 35 34 34 34 36 30 38 33 33 35 36 34 37 37 38 40 35 38 36 35 38 38 33 33 35 34 29 32 32 31 34 35 27 28 27 24 25 24 24 28 25 25 24 
45 43 42 41 44 50 40 41 38 38 41 40 39 35 34 37 38 38 44 38 35 41 38 36 36 40 38 36 36 40 35 39 35 38 36 35 37 35 32 33 37 34 32 34 34 34 36 41 38 39 40 39 34 37 36 33 36 34 39 33 32 35 33 33 33 33 30 37 31 28 27 27 24 25 22 24 27 22 21 25 
41 45 43 41 44 43 43 41 41 42 39 40 36 36 36 37 38 38 39 37 36 38 37 37 38 38 36 37 36 35 45 38 34 35 35 34 36 34 32 33 34 38 35 36 32 32 35 32 38 37 40 39 34 33 37 36 37 34 37 33 31 33 31 31 34 29 31 32 32 29 28 28 25 24 23 23 24 22 24 21 
45 43 45 44 42 39 42 40 40 39 42 41 42 42 39 40 37 36 37 37 34 37 40 35 36 36 38 36 36 39 36 36 33 35 32 33 35 34 31 35 36 38 30 32 33 30 33 35 36 39 39 36 36 38 35 31 33 34 39 32 29 32 29 33 36 32 30 33 30 29 28 25 26 25 25 25 27 25 26 25 
47 42 43 45 42 41 41 43 39 39 40 38 39 41 36 39 36 39 39 36 39 36 33 35 36 36 35 35 35 32 35 34 33 34 33 36 34 33 31 37 34 35 30 34 31 30 34 33 34 38 37 34 34 32 35 33 32 31 33 35 31 32 30 30 34 30 34 32 33 25 27 26 29 26 23 25 25 21 24 23 
43 41 41 43 43 42 43 47 41 39 39 42 38 34 38 38 38 37 37 38 35 36 34 36 36 35 34 35 37 34 36 35 37 36 31 30 34 34 32 32 31 35 30 32 33 33 33 30 36 43 37 34 33 34 30 32 34 33 35 34 28 34 31 34 32 33 33 31 27 29 27 27 27 29 26 26 27 25 24 27 
42 38 39 42 41 43 44 44 41 37 38 43 36 34 37 39 38 38 36 34 36 37 34 35 37 36 34 33 34 32 32 35 32 32 30 31 34 36 32 29 29 30 31 33 34 32 31 34 38 34 37 35 29 31 30 29 34 33 35 32 31 35 30 31 35 33 31 29 27 27 27 23 28 27 25 24 25 23 26 30 
43 39 40 39 39 37 39 43 43 38 37 40 36 35 40 38 37 37 37 34 37 35 37 36 39 37 32 33 33 31 35 31 30 32 29 30 33 30 28 33 29 30 30 33 31 33 29 33 37 35 36 33 32 30 31 28 31 32 36 32 30 33 31 28 32 31 29 29 27 29 29 23 26 27 23 26 26 24 24 26 
42 39 39 40 41 37 40 40 39 39 37 40 38 38 37 36 35 39 37 36 36 38 41 37 39 36 36 34 32 33 34 32 35 33 31 31 34 30 30 31 28 32 30 32 31 31 33 33 34 33 33 34 31 29 27 29 29 28 33 32 29 31 27 30 31 32 28 30 30 27 26 25 26 23 24 23 28 25 23 27 
45 37 41 44 41 40 43 41 40 41 44 41 39 38 36 36 37 35 37 36 33 32 34 38 35 33 34 36 34 33 35 33 29 33 32 29 33 31 30 31 32 32 30 34 33 30 31 31 34 34 34 35 32 28 29 28 31 27 31 30 35 32 28 30 30 28 27 29 27 23 26 24 28 26 27 24 27 23 25 25 
40 43 42 41 42 39 41 44 43 38 39 41 40 38 39 37 35 34 36 38 33 34 35 35 36 37 35 36 37 34 35 32 33 31 28 32 32 31 31 32 29 30 30 32 32 30 31 32 31 34 33 33 29 28 30 28 30 29 28 28 31 32 28 29 30 31 29 30 26 25 29 23 25 27 22 24 24 19 24 25 
43 42 43 40 45 42 40 43 45 38 38 41 38 36 37 37 37 35 35 36 34 36 36 35 34 35 34 34 32 34 33 34 33 31 30 33 32 32 31 30 31 32 32 33 34 31 29 32 34 37 35 33 30 29 30 30 29 29 31 30 31 33 29 29 32 33 36 30 27 29 26 23 28 22 21 23 27 25 21 20 
43 39 42 43 37 37 42 40 39 38 37 40 36 38 35 36 37 36 35 33 34 32 35 36 39 35 36 33 34 32 35 31 33 34 35 32 34 30 32 31 32 32 35 34 33 29 28 31 34 35 35 29 27 29 29 29 32 29 29 28 31 33 32 32 30 31 29 30 29 24 25 25 25 26 25 24 29 23 22 23 
39 34 38 42 42 39 39 37 41 39 40 37 35 34 39 34 39 34 37 34 32 33 35 37 35 35 41 34 34 34 34 34 31 33 30 31 31 29 28 31 35 34 35 33 32 30 28 28 33 37 34 32 32 27 25 29 29 28 26 26 26 30 30 32 30 30 27 30 29 25 26 25 25 23 24 24 23 23 24 24 
39 41 43 44 45 42 40 40 38 39 38 39 35 36 36 35 36 35 33 34 36 33 35 35 37 34 35 34 35 35 35 34 30 30 28 29 29 30 31 31 32 34 32 32 33 31 28 30 34 35 34 31 27 28 28 30 26 27 28 29 25 30 28 27 31 29 27 26 26 26 26 25 25 22 23 24 22 19 23 22 
42 36 40 41 42 37 39 40 39 36 38 40 36 38 38 35 37 35 36 34 34 36 37 36 36 33 32 35 33 36 34 30 30 31 31 28 30 30 29 31 32 32 34 31 33 31 31 29 32 33 36 30 28 27 30 28 27 29 28 27 23 30 29 26 29 28 30 29 29 25 24 19 24 22 26 24 27 19 20 21 
37 39 39 42 39 38 39 40 35 36 39 41 40 38 39 37 39 35 37 37 31 36 37 36 37 36 35 35 38 33 34 33 30 31 30 28 32 30 32 29 29 31 34 34 32 32 30 33 34 30 34 34 32 26 29 28 28 30 31 25 29 29 29 29 31 28 27 30 27 25 23 23 24 24 24 24 26 19 23 27 
38 40 41 41 39 39 38 38 38 37 37 37 38 37 38 37 37 38 37 32 31 33 32 35 33 34 33 32 31 37 36 34 30 33 30 31 34 29 29 33 30 33 26 30 34 32 32 34 36 33 33 31 30 28 26 29 27 26 30 29 26 29 28 27 27 27 26 29 27 26 26 24 22 25 26 24 27 22 24 22 
36 37 40 41 42 39 39 40 38 35 36 39 37 34 37 38 36 40 37 31 33 33 33 37 34 34 26 30 33 35 34 30 30 35 27 30 31 30 30 30 31 30 30 30 29 29 29 31 34 32 31 32 29 29 26 31 28 30 29 27 27 31 26 30 25 27 26 28 26 23 23 20 22 23 22 20 24 19 21 22 
38 38 42 42 37 38 41 42 37 40 35 40 37 37 34 37 39 40 40 33 34 34 36 35 33 32 28 30 33 28 37 34 31 33 33 28 31 29 32 30 31 31 29 30 31 30 31 31 37 32 32 32 27 29 29 26 26 27 31 26 30 28 27 27 27 30 28 27 26 22 21 17 23 20 18 20 24 18 21 25 
40 39 46 42 43 41 42 38 38 35 33 39 38 34 35 37 35 36 43 31 35 37 37 37 36 33 30 33 32 31 33 34 30 30 30 31 32 30 30 33 29 32 27 30 32 30 27 33 33 34 34 30 28 27 28 24 25 25 28 23 22 26 23 28 25 28 29 28 25 23 21 17 26 21 18 21 20 21 23 20 
42 41 40 41 42 40 39 42 38 39 40 39 36 36 35 33 36 35 34 34 32 33 36 36 35 33 32 31 31 33 34 33 30 31 31 31 32 33 31 33 28 32 30 30 31 28 30 31 34 34 34 32 30 29 29 24 26 23 21 24 23 28 23 27 34 27 27 28 23 23 18 18 19 23 21 18 24 20 23 32 
38 40 36 41 39 39 38 38 37 35 36 39 35 39 39 37 34 35 33 33 32 35 36 35 35 34 36 31 28 29 30 34 31 33 31 32 32 27 32 28 29 29 29 31 33 32 31 30 35 35 36 35 33 29 26 25 27 26 25 22 25 26 25 23 27 25 23 24 19 20 21 18 24 24 23 23 24 23 25 23 
38 37 39 39 40 38 40 40 35 36 36 38 37 38 38 33 38 36 35 34 34 35 36 38 39 34 32 30 33 29 31 29 27 30 30 31 37 34 28 28 27 30 28 30 28 31 31 31 35 37 34 35 29 26 24 27 22 23 23 22 27 25 23 25 26 19 21 22 21 19 20 18 20 19 23 22 24 21 19 29 
42 39 40 38 40 37 44 40 37 35 39 36 34 36 37 35 35 36 36 35 35 34 34 36 38 34 31 32 33 30 27 31 27 30 29 33 33 34 28 30 29 28 27 31 30 29 33 34 36 32 33 30 29 27 27 25 24 23 25 23 23 27 24 29 26 24 22 26 22 19 19 12 17 20 18 20 23 17 19 20 
44 40 39 37 38 37 39 39 36 34 37 41 38 35 36 35 37 37 39 36 35 37 35 32 35 33 33 32 31 30 36 32 30 30 30 29 31 34 28 31 30 30 29 30 32 28 33 41 35 34 34 28 27 26 26 24 23 25 25 23 25 27 26 26 27 26 26 24 21 18 20 20 21 20 22 20 21 19 21 18 
40 36 41 38 40 36 37 39 35 32 37 38 39 39 37 36 34 35 37 35 37 37 36 35 35 33 32 27 31 31 32 29 28 32 28 28 29 28 27 28 32 27 28 29 32 29 32 32 36 30 30 31 25 24 24 23 22 24 24 23 21 27 23 22 24 25 25 26 24 17 17 15 17 19 16 24 18 17 16 18 
44 37 38 38 39 36 37 33 39 35 35 35 37 38 41 35 39 37 38 35 35 34 37 35 32 33 28 27 30 33 34 31 28 32 29 30 30 28 29 32 25 28 27 29 30 30 30 30 32 32 30 29 25 24 20 21 21 20 23 21 21 24 23 24 24 26 25 21 23 19 18 16 17 18 19 16 20 16 16 20 
40 38 35 36 39 37 38 37 35 36 37 43 38 35 36 35 38 36 38 35 36 31 35 34 30 33 29 28 32 31 32 31 30 30 29 26 33 27 29 28 28 27 26 29 30 28 28 31 33 33 30 30 24 21 21 22 22 23 22 22 20 23 24 22 23 24 22 24 18 15 19 13 17 16 14 17 18 13 15 17 
37 38 33 36 37 37 38 37 37 36 34 40 36 38 38 38 36 36 37 35 37 37 37 32 32 30 28 28 29 33 29 31 27 31 28 28 30 28 26 26 28 26 25 27 27 28 26 29 30 32 31 29 27 19 23 24 22 21 24 22 23 23 21 23 23 20 23 20 20 17 18 16 17 18 13 14 17 14 13 13 
38 40 37 36 36 36 37 38 37 37 37 39 37 38 39 37 35 38 33 35 33 37 39 36 32 31 27 28 31 29 30 29 30 29 27 25 31 28 28 27 26 27 23 26 27 23 27 26 27 30 30 32 25 22 23 24 22 21 25 23 20 21 19 20 19 20 20 19 19 16 17 14 17 14 18 15 17 13 15 11 
44 37 37 37 39 37 35 38 38 36 38 38 36 36 35 40 36 36 36 32 32 32 36 33 30 31 28 31 32 32 28 30 28 31 28 26 28 26 27 27 28 26 23 25 26 25 23 24 29 30 29 27 21 23 22 19 23 21 24 20 19 23 22 18 20 18 20 19 17 15 12 9 9 16 12 16 16 12 12 15 
37 37 34 36 41 34 39 38 38 34 36 37 34 35 36 37 38 37 37 33 33 35 35 33 32 31 28 30 30 28 23 30 27 29 27 27 30 24 26 27 24 23 23 26 29 25 23 27 27 27 26 29 22 24 24 24 23 18 23 20 21 22 19 20 19 18 18 17 18 15 13 11 11 13 14 14 15 8 9 15 
40 34 35 41 41 38 34 37 37 34 36 38 33 34 36 35 34 38 39 34 34 32 33 34 30 32 27 28 28 28 28 31 26 28 28 28 28 26 22 21 24 24 26 26 27 24 24 25 28 26 30 23 23 23 21 24 24 24 23 21 21 19 15 15 18 17 16 20 15 14 13 8 13 14 9 16 14 6 11 15 
40 34 37 40 45 39 37 38 38 33 34 41 35 31 33 33 32 33 36 36 34 31 33 34 35 32 30 30 31 29 30 28 29 31 28 26 29 26 28 26 26 25 20 24 27 25 26 26 31 31 28 23 24 25 21 22 26 24 29 22 18 20 13 18 17 17 18 15 16 12 14 8 12 15 12 11 14 5 12 15 
36 32 36 38 44 44 38 38 37 37 35 37 34 29 34 35 33 30 34 30 29 33 33 32 32 34 30 31 32 31 31 28 27 28 26 25 28 23 26 25 26 23 22 24 24 24 24 27 28 30 28 29 22 22 21 22 26 24 26 21 20 20 15 15 16 15 15 19 15 12 11 9 11 13 11 12 11 8 7 7 
38 34 36 35 39 35 37 39 39 37 38 38 36 32 35 36 34 30 34 29 28 28 33 31 32 33 33 31 30 27 30 27 27 29 25 23 26 24 19 22 22 22 21 23 24 21 23 29 29 29 27 25 22 19 22 22 21 22 24 20 22 16 15 14 17 14 16 12 13 10 16 9 13 11 11 10 11 5 7 10 
35 29 33 33 35 32 35 36 37 36 38 38 36 36 33 35 35 29 32 31 32 32 30 31 32 27 28 28 28 26 29 26 25 27 22 26 25 24 21 25 25 23 22 23 25 24 22 26 27 28 23 23 21 18 20 21 21 22 24 19 18 21 16 14 17 14 10 15 11 10 16 11 9 11 10 11 11 5 7 5 
32 33 36 35 33 35 35 34 33 35 35 39 43 35 32 32 29 33 31 32 36 31 33 31 32 30 28 26 29 27 27 25 24 29 21 24 23 25 22 22 25 22 24 21 24 22 25 25 30 26 20 19 19 18 20 20 19 23 22 21 20 15 12 12 14 14 13 12 11 10 10 8 9 10 11 12 15 5 4 9 
35 30 37 38 34 35 34 35 37 38 36 41 39 36 35 31 33 32 35 31 31 31 32 32 30 30 30 25 26 25 23 30 24 25 23 19 26 21 20 22 21 24 23 24 25 23 20 22 22 22 20 20 18 20 21 18 18 20 20 20 20 15 13 12 12 13 11 12 9 12 9 7 9 9 9 13 13 7 6 5 
33 30 32 37 36 30 36 37 37 39 36 38 31 35 32 30 31 34 31 33 34 31 32 30 31 26 26 26 29 26 26 26 26 26 24 25 26 24 21 22 22 24 22 24 22 22 26 20 20 19 20 18 17 15 18 18 17 16 21 21 16 16 13 15 15 14 11 12 9 6 9 8 13 8 6 7 17 2 5 0 
39 28 37 36 37 36 35 37 36 35 36 34 31 34 34 34 31 31 33 32 32 28 30 30 30 26 25 30 26 26 24 27 26 25 24 25 28 22 21 21 23 23 22 24 23 24 24 19 20 19 18 16 16 17 14 17 16 20 22 17 16 17 12 17 12 11 8 13 8 5 7 4 9 6 7 5 11 6 9 4 


