P2
80 60
113
94 97 96 96 89 94 98 96 97 93 96 95 95 94 93 94 94 95 96 93 97 93 93 91 94 93 92 95 95 94 95 96 97 97 97 95 94 96 97 97 96 96 99 97 97 97 98 89 98 98 97 96 99 100 97 97 99 100 98 97 96 97 100 96 93 94 88 89 89 89 87 86 88 90 86 84 85 86 88 86 
94 97 100 97 94 95 95 96 96 96 98 95 95 95 97 95 98 94 93 97 101 96 92 90 92 91 95 95 93 94 96 97 96 95 98 95 95 95 98 97 98 98 97 97 96 99 98 96 99 95 98 99 97 101 100 104 101 99 102 98 95 96 97 97 91 89 88 89 86 86 87 87 89 92 88 85 82 87 90 85 
96 96 94 97 94 95 97 96 97 95 99 98 93 96 95 93 95 93 95 97 103 96 89 96 95 94 93 98 92 95 97 97 96 99 98 101 95 99 97 98 96 98 97 98 98 100 100 99 101 99 98 99 97 99 99 100 99 100 101 97 95 98 93 98 92 90 88 89 87 88 90 88 87 90 88 87 83 86 88 90 
98 96 93 95 95 97 100 98 97 96 101 98 94 100 95 95 95 95 94 97 98 91 96 100 96 95 97 100 95 95 97 96 96 97 101 101 97 98 102 94 98 94 98 99 99 98 100 97 104 99 96 100 99 101 101 99 99 98 98 97 98 97 95 97 91 93 89 89 92 91 89 94 92 92 88 84 85 88 91 90 
99 98 97 97 98 101 96 93 98 98 99 96 98 96 97 97 96 96 98 98 94 93 96 100 95 98 99 98 92 94 95 96 95 96 96 98 97 98 101 96 97 97 99 98 98 103 102 97 100 97 97 101 99 99 98 98 99 94 97 96 99 93 93 99 92 90 92 90 91 90 90 91 88 89 88 86 85 85 92 85 
96 99 96 99 96 95 94 99 102 98 100 97 92 97 101 98 95 95 95 100 97 100 97 98 95 96 96 96 92 97 99 95 95 94 96 97 96 96 99 99 95 96 99 97 97 101 104 99 101 98 100 102 100 101 98 97 100 98 103 100 98 95 91 96 92 92 91 95 98 92 94 88 90 90 88 85 82 87 89 86 
101 97 95 96 98 96 100 94 99 100 100 98 95 98 99 97 101 95 96 99 97 100 95 97 96 99 96 99 94 97 99 94 93 96 97 97 99 97 101 99 96 96 97 98 100 105 100 97 102 97 99 102 100 100 97 100 99 104 103 101 95 92 93 96 91 94 92 97 93 91 90 88 88 87 86 86 82 84 89 85 
97 100 96 105 96 102 99 99 100 97 101 97 92 96 95 97 97 97 98 97 101 95 93 95 96 96 96 97 96 96 96 94 94 95 95 99 97 97 96 98 99 97 98 98 99 99 100 99 96 100 103 101 102 101 101 102 100 99 98 98 96 96 96 93 94 96 92 92 95 93 90 89 88 86 87 83 81 83 83 85 
101 99 99 101 97 99 106 101 98 101 100 100 94 97 96 96 98 99 102 100 100 98 93 97 98 99 97 96 97 98 103 95 95 95 98 96 96 97 101 96 96 98 102 98 98 100 98 98 99 99 99 102 96 103 101 100 98 100 99 97 93 95 95 95 95 95 96 94 93 91 87 89 89 87 86 85 84 88 87 81 
102 103 99 100 95 105 103 105 101 100 101 98 95 99 100 95 101 96 100 98 99 98 92 95 94 96 95 97 94 102 96 97 95 96 98 99 95 99 99 101 97 101 107 97 101 101 100 97 99 101 98 98 98 98 97 96 99 101 96 97 92 93 95 95 91 92 91 91 95 91 86 86 89 91 85 86 84 84 89 89 
99 100 95 103 100 101 108 104 102 99 99 100 94 97 98 97 98 93 98 98 97 96 94 97 93 96 94 96 91 96 102 98 96 97 95 96 101 99 104 101 101 102 104 99 101 103 102 101 99 103 100 101 99 99 96 101 96 100 102 95 93 94 91 98 88 89 94 94 93 89 85 86 88 88 88 87 84 86 85 89 
101 101 100 107 98 99 101 100 100 98 101 97 97 97 96 94 92 92 95 96 98 94 95 96 92 95 91 99 92 93 98 100 96 98 95 97 94 98 101 100 104 102 104 101 100 102 102 101 103 106 102 100 100 97 98 100 102 100 98 96 94 94 92 96 94 92 90 93 92 85 87 86 87 90 89 93 86 78 89 84 
103 101 104 106 102 99 99 99 98 98 97 101 95 96 93 94 92 94 95 94 93 95 93 96 93 92 94 99 93 96 97 97 97 96 94 96 94 95 100 98 101 102 104 103 103 106 105 102 105 101 104 99 100 100 100 101 102 101 99 99 95 98 96 98 92 92 92 90 91 90 80 85 88 89 90 88 81 87 86 91 
105 105 100 104 100 104 96 98 98 96 94 96 95 93 93 97 94 93 94 94 97 95 94 93 94 90 93 97 93 91 94 94 95 97 95 94 95 96 102 101 100 97 102 102 102 110 105 101 102 109 105 101 100 97 98 99 102 101 101 98 100 96 95 98 94 92 91 91 89 89 87 85 84 87 89 89 84 87 84 84 
96 103 101 102 99 95 93 99 100 95 96 96 95 96 92 94 96 95 96 94 95 92 93 95 94 94 92 95 93 93 97 96 91 97 96 94 94 94 97 99 100 99 105 102 101 106 101 102 104 105 102 101 97 100 102 101 106 113 101 98 98 96 95 99 92 93 93 92 91 89 89 89 90 88 89 87 81 90 86 87 
101 103 102 102 95 97 98 99 99 95 97 97 93 95 91 96 96 92 94 92 92 94 92 93 93 95 93 96 93 94 95 95 94 96 97 93 95 94 94 98 99 100 102 100 98 102 98 96 102 104 100 100 99 100 100 100 102 103 104 96 98 96 98 94 92 92 91 98 94 90 88 87 88 90 88 87 84 87 87 86 
102 103 103 102 100 98 99 98 96 97 97 98 92 93 89 98 94 93 92 92 94 92 91 95 91 91 93 92 93 94 95 95 93 97 96 95 92 93 98 97 95 97 105 98 98 102 99 97 99 99 102 99 100 99 100 99 99 103 101 99 97 97 94 97 92 89 94 92 91 90 89 91 96 90 88 85 84 87 86 84 
102 103 99 101 98 103 98 100 95 95 97 98 97 94 93 96 95 93 97 93 94 94 94 94 93 91 92 94 91 91 95 95 96 99 94 95 98 95 99 100 99 97 102 98 97 102 99 96 97 97 96 99 98 99 100 98 103 107 99 99 96 92 94 94 92 92 90 91 91 91 91 91 89 85 83 83 84 85 87 87 
99 100 97 102 99 98 97 95 97 94 94 99 95 98 90 93 96 93 96 97 93 95 93 97 95 95 94 97 96 90 94 95 95 97 97 95 95 94 98 99 99 97 97 103 98 99 96 94 96 95 98 96 100 96 99 99 96 100 101 96 98 93 92 98 90 89 92 91 89 89 93 87 87 84 85 85 83 83 82 86 
99 101 98 101 98 98 96 94 94 94 96 95 96 95 96 98 96 93 97 96 95 97 97 97 94 96 96 99 93 95 96 95 94 94 95 97 94 96 98 99 98 100 98 96 96 98 99 98 98 99 97 98 98 95 94 100 96 98 97 97 94 92 92 95 88 88 92 91 88 91 90 86 87 84 84 84 79 80 84 81 
100 101 101 100 99 99 95 97 95 94 99 97 96 100 94 94 96 95 95 94 95 96 94 95 94 95 94 94 95 95 105 95 95 95 95 94 94 93 100 96 99 99 101 99 100 97 97 94 98 100 97 97 97 97 95 94 95 95 92 95 92 94 92 94 91 90 90 91 93 90 93 89 89 90 83 84 83 86 87 85 
100 103 98 103 98 97 99 95 98 94 96 99 102 99 92 93 95 93 95 95 93 94 95 92 95 95 95 94 93 91 99 99 94 99 98 95 95 96 98 99 98 100 101 100 100 99 99 96 97 98 103 96 98 97 99 96 96 94 98 94 93 89 94 97 92 95 92 91 93 93 91 86 88 87 85 84 84 85 87 85 
101 101 99 109 100 100 100 99 99 94 95 99 97 95 93 95 93 96 95 98 94 93 92 92 92 94 92 95 93 93 95 95 94 92 96 93 94 93 97 100 97 97 99 101 100 98 96 93 98 99 99 97 97 96 98 96 95 95 97 97 98 95 92 92 91 94 93 91 91 93 88 90 92 87 84 85 85 86 86 88 
102 103 102 103 99 100 97 105 96 96 97 97 95 98 95 96 94 97 95 94 95 96 92 93 93 93 90 94 91 93 95 95 93 93 97 95 92 93 94 96 98 98 99 96 94 97 97 94 97 102 97 96 97 97 97 93 96 95 99 97 95 94 96 100 91 94 94 92 94 92 89 89 87 92 90 87 81 84 89 88 
99 99 97 100 94 93 100 102 98 96 96 94 95 95 94 94 95 94 92 95 97 93 90 94 92 95 95 96 94 92 95 92 92 94 93 92 93 91 95 94 95 97 96 96 97 97 98 95 98 99 96 99 96 94 95 94 95 96 95 95 94 95 94 92 92 93 93 91 93 92 90 87 87 91 88 85 84 85 86 81 
100 99 99 97 96 99 98 98 95 98 98 96 93 96 97 96 93 94 98 97 94 94 95 95 94 96 93 94 91 91 95 93 92 94 89 95 92 94 96 96 95 99 100 100 95 98 98 96 95 92 98 96 93 97 94 95 92 96 95 93 93 94 92 92 91 94 92 88 93 90 89 88 87 86 88 88 87 87 88 87 
101 97 96 98 99 96 101 99 96 93 97 96 94 100 96 96 95 97 93 94 94 94 97 95 92 95 94 94 88 90 93 91 89 93 94 89 91 94 95 96 94 99 99 100 96 99 96 97 98 94 95 96 94 95 96 97 93 93 95 95 95 94 92 92 90 93 90 91 90 89 88 88 86 87 87 84 83 87 86 82 
98 101 98 101 102 97 102 97 93 96 99 96 93 97 93 94 93 95 96 97 95 94 94 94 95 94 94 98 91 90 94 93 94 91 92 95 89 91 97 97 93 98 99 96 97 100 95 93 95 92 95 94 93 93 95 93 93 93 95 95 95 89 92 93 90 90 95 91 90 93 88 87 85 87 86 85 83 83 85 82 
100 104 97 98 100 97 101 100 97 92 97 95 94 95 97 93 95 95 99 98 95 95 93 96 95 93 94 98 90 92 94 94 94 91 92 90 93 92 96 100 95 92 97 100 94 98 96 92 95 93 93 93 94 95 94 89 92 90 94 90 92 88 90 96 92 92 92 92 94 91 92 89 86 87 88 83 83 83 83 80 
103 102 100 104 97 98 97 101 99 97 95 93 93 97 95 94 93 91 92 97 94 95 92 93 91 94 91 95 91 92 98 93 91 92 94 91 90 94 96 98 95 96 99 97 94 98 94 93 93 94 95 95 91 93 93 90 91 94 95 93 91 91 90 93 91 89 94 91 92 90 89 87 88 91 89 88 81 86 84 74 
102 101 100 100 102 98 97 100 97 99 96 97 95 95 93 92 94 94 92 94 92 92 96 93 93 95 93 97 93 93 93 93 92 94 90 93 90 94 98 96 94 96 100 100 94 98 92 95 94 97 93 93 91 91 90 94 93 93 96 93 91 91 92 93 83 90 89 93 92 88 89 91 90 89 84 85 80 83 85 75 
101 105 97 100 99 99 97 101 98 97 97 99 95 97 91 97 95 92 91 94 94 91 93 95 95 95 94 98 91 95 93 93 93 93 91 91 95 94 98 93 97 97 101 101 96 99 92 95 95 98 94 93 91 92 94 88 93 92 93 90 90 93 89 91 89 87 91 91 91 91 90 88 86 85 86 87 80 84 80 78 
101 101 101 100 99 99 96 98 94 94 95 94 94 96 93 93 95 94 93 94 93 96 93 94 97 93 92 96 87 91 95 90 92 93 93 91 92 93 95 95 95 96 100 96 96 99 96 93 92 95 92 95 90 92 92 92 91 92 87 91 92 88 89 93 89 88 89 94 95 88 86 85 85 85 87 83 82 82 82 78 
95 101 97 103 99 97 99 98 94 98 96 97 94 96 94 96 95 96 93 96 95 89 94 96 96 94 95 95 91 95 95 91 91 90 90 91 93 90 93 94 93 95 97 97 96 95 93 92 94 92 91 92 92 91 93 91 92 90 92 89 91 92 90 91 88 90 88 85 92 87 89 82 85 83 86 85 82 82 83 77 
100 101 98 98 98 98 99 98 97 99 96 99 94 96 92 94 95 93 95 96 94 92 89 94 95 94 92 94 93 93 94 92 93 90 92 89 92 92 95 94 94 96 95 97 93 96 95 92 94 94 93 95 94 94 95 93 91 93 89 91 87 90 89 92 89 88 93 91 90 90 88 82 88 86 83 82 79 79 76 73 
102 101 99 98 100 99 96 102 97 94 96 97 93 94 94 95 94 97 94 97 96 91 91 90 95 89 92 94 92 91 96 92 92 90 93 92 90 93 95 96 96 91 95 96 95 96 96 95 94 93 93 97 91 89 94 94 92 90 89 92 88 86 90 91 87 89 90 88 88 88 86 82 85 86 82 80 78 86 80 71 
100 98 99 103 97 99 99 100 96 96 100 95 93 94 95 94 97 95 95 95 94 93 93 91 92 90 91 95 92 92 93 92 92 89 90 90 94 92 94 93 94 92 92 95 92 93 95 92 95 93 91 93 88 91 91 91 94 90 92 89 89 87 88 91 86 89 87 86 90 85 88 84 84 84 83 82 78 82 79 74 
103 103 98 102 99 103 96 99 98 97 100 98 97 96 94 93 95 99 95 94 96 94 92 91 93 90 92 90 89 89 97 93 90 92 91 92 91 90 93 94 93 90 94 94 94 94 90 92 93 95 92 93 93 91 94 91 94 89 91 89 87 86 90 92 90 91 89 87 88 86 85 83 83 82 82 82 79 79 79 74 
100 104 107 99 98 97 101 98 97 98 100 97 96 94 93 94 95 95 95 97 94 94 93 95 93 92 88 93 89 90 95 93 92 92 93 90 89 91 93 95 90 89 93 94 93 96 92 93 93 93 95 91 92 92 93 89 89 89 91 90 89 86 86 88 87 91 85 84 85 85 85 80 83 81 81 81 80 80 80 73 
101 100 102 101 99 95 98 100 98 96 104 101 98 96 91 95 95 94 94 94 94 93 91 97 96 92 95 97 87 93 96 92 92 92 90 89 91 90 92 96 90 93 96 95 92 97 94 92 92 97 90 94 91 92 92 88 89 90 89 88 87 88 84 90 89 90 87 86 89 86 85 81 81 83 81 82 80 82 78 75 
102 98 99 102 99 98 96 95 98 93 98 97 93 100 95 94 95 95 97 95 94 91 91 93 93 92 97 94 90 88 92 91 89 94 90 89 91 89 92 91 90 96 96 94 89 97 94 92 90 93 90 93 90 96 95 90 91 91 87 87 86 87 88 89 86 85 85 86 86 85 82 83 81 85 80 81 77 73 80 69 
99 102 100 100 98 96 98 99 99 97 100 96 98 100 96 96 93 94 94 93 93 92 92 93 94 95 96 96 90 89 90 91 90 88 88 92 92 92 93 94 90 94 94 93 91 96 96 95 92 93 88 96 92 90 90 93 94 91 88 87 88 86 86 90 88 89 85 83 86 83 80 82 83 83 83 77 74 64 59 56 
98 100 105 102 97 95 97 99 98 99 97 100 93 97 95 92 94 94 96 94 94 93 90 94 94 92 88 96 90 91 91 92 92 90 91 93 92 91 94 94 94 93 91 90 90 96 98 94 92 94 91 93 92 91 91 91 90 88 87 90 87 89 89 92 85 85 84 83 86 86 81 79 81 84 81 79 70 49 35 30 
99 99 103 102 96 96 93 95 93 96 99 99 91 94 94 91 96 92 94 94 93 91 94 94 92 92 93 92 90 89 92 90 89 89 90 88 89 89 96 95 93 92 91 89 90 95 95 99 91 92 91 91 88 89 88 88 87 86 86 88 86 84 86 89 85 85 85 81 85 82 83 82 79 79 78 79 63 43 28 21 
95 101 98 98 94 92 95 95 93 95 96 95 95 94 91 92 93 92 90 93 94 89 90 89 89 90 91 93 89 89 91 88 89 89 88 91 91 90 93 92 94 92 89 92 92 92 97 92 91 94 89 93 84 85 90 84 85 85 86 86 85 85 82 88 83 86 86 83 85 82 81 80 80 79 77 79 60 36 21 15 
95 94 94 97 100 89 90 93 94 94 93 94 95 97 96 91 96 92 94 94 92 89 88 86 91 91 87 92 86 88 93 90 90 87 90 90 89 88 92 86 89 90 91 91 91 94 91 93 89 91 91 88 85 85 88 84 85 87 84 88 87 83 83 84 90 87 84 82 83 76 82 80 77 78 82 76 56 32 17 18 
94 99 96 96 92 95 93 96 92 94 95 95 93 96 91 95 92 91 93 93 95 94 89 90 89 87 90 88 84 86 90 89 89 88 87 88 90 89 89 90 88 89 92 89 88 91 90 90 87 86 85 86 86 84 80 82 81 86 85 86 84 85 85 81 80 82 82 82 82 80 77 77 80 80 76 72 55 26 18 12 
98 96 96 95 92 97 89 97 92 92 94 94 95 93 94 93 93 90 90 94 92 91 90 90 91 89 88 90 86 89 96 92 85 89 85 88 89 87 95 91 89 88 91 89 91 92 92 87 89 87 86 85 88 88 86 84 84 84 82 82 85 79 81 84 80 81 81 83 79 78 78 79 77 78 77 70 50 24 12 14 
96 96 92 96 92 94 99 95 92 94 95 94 95 94 91 92 91 92 93 92 89 90 91 90 91 90 90 91 85 90 92 87 86 87 88 88 86 89 93 92 89 89 91 91 90 93 93 88 90 88 90 87 81 82 85 84 87 82 81 86 82 79 79 82 81 79 79 76 76 81 74 75 74 73 76 65 45 19 10 19 
94 93 91 97 95 93 99 97 89 92 94 97 94 94 94 93 90 90 92 90 88 92 88 90 90 90 89 91 87 90 91 90 85 85 87 86 87 89 95 94 90 89 88 93 90 91 90 90 89 86 87 86 83 86 84 84 85 84 85 83 81 79 79 80 79 79 76 79 77 77 78 76 75 75 80 64 37 17 2 14 
98 98 95 93 96 97 96 95 94 93 95 97 94 95 93 93 94 91 95 96 94 91 88 88 92 87 89 87 87 88 93 87 85 90 89 89 87 87 98 92 92 90 90 89 89 92 92 88 87 90 86 84 84 88 90 82 83 86 84 84 85 82 80 82 79 77 79 80 82 82 81 75 76 75 75 62 29 13 1 17 
98 97 98 97 97 99 94 97 96 95 96 93 90 94 92 93 92 93 92 94 95 92 89 92 93 86 86 85 86 88 92 92 84 89 92 88 84 92 94 94 88 87 88 89 86 86 86 89 86 89 87 83 85 84 87 82 86 84 86 84 82 78 80 81 76 76 80 79 79 78 74 73 76 72 75 57 31 9 1 16 
94 94 96 96 98 96 97 99 90 94 96 97 93 93 92 93 92 89 90 93 88 89 89 90 91 87 86 88 83 82 94 90 83 86 86 86 85 88 93 91 87 86 86 86 83 85 87 83 84 86 84 85 86 84 87 82 83 85 87 82 80 81 78 78 71 81 75 76 76 77 76 72 74 72 68 56 27 4 0 17 
96 97 92 98 104 99 97 96 88 91 94 90 92 92 91 96 92 88 92 94 93 90 86 89 92 87 90 89 87 85 91 88 85 87 86 86 84 89 91 86 85 87 88 87 85 85 83 86 87 89 85 83 85 83 84 84 84 85 82 83 79 78 75 77 75 77 79 74 77 75 75 72 73 75 69 56 37 26 26 36 
96 94 95 95 98 98 97 96 92 95 97 94 91 96 94 94 93 91 92 91 91 90 92 92 91 88 94 91 87 87 90 85 85 86 86 88 85 86 86 84 84 85 83 88 87 85 84 82 84 84 86 87 82 84 84 83 84 85 84 81 79 78 76 79 75 78 77 75 75 73 78 82 74 71 73 62 53 55 54 56 
96 94 93 99 94 93 93 95 96 96 97 96 92 96 98 90 91 90 92 89 90 93 87 92 88 87 89 88 86 87 87 86 84 86 88 85 84 83 84 82 84 83 88 87 84 85 84 84 84 84 83 86 85 81 83 81 84 83 80 81 77 75 79 77 74 76 76 76 76 73 73 69 70 70 68 63 59 60 64 66 
91 95 92 95 92 91 92 92 93 91 95 93 100 91 90 90 89 91 91 95 93 89 85 88 88 83 84 86 82 82 86 85 85 85 83 84 82 78 76 78 80 84 83 80 79 86 86 83 83 83 82 87 80 81 79 79 82 78 76 74 79 74 79 77 74 75 73 71 76 72 72 71 73 70 67 63 60 61 64 68 
91 93 90 91 92 91 92 93 96 95 95 96 92 92 91 89 88 88 90 94 89 85 85 86 88 83 83 86 81 84 84 84 83 84 83 83 82 81 82 79 86 80 80 79 82 82 87 86 84 86 84 84 81 81 81 79 79 77 79 76 77 77 76 76 73 71 72 71 76 74 72 70 70 70 68 65 57 63 60 64 
94 94 88 96 89 91 92 95 94 93 97 95 92 90 88 87 84 90 90 88 88 85 85 89 84 85 80 87 84 81 83 82 80 85 83 84 86 77 83 79 81 81 81 80 81 85 84 82 84 83 78 80 79 79 83 78 75 77 76 73 69 74 70 78 76 74 71 67 73 69 68 68 71 66 69 63 55 60 61 64 
92 92 90 97 93 89 92 94 92 91 91 92 89 90 87 87 84 88 87 90 85 78 87 89 85 80 83 86 79 80 84 83 81 82 82 81 83 80 80 82 79 81 79 85 81 86 85 80 84 82 77 77 76 79 76 76 76 75 80 73 74 68 70 71 66 69 70 67 74 66 66 65 65 61 66 64 58 62 60 65 


