P2
80 60
293
152 148 148 146 147 150 142 148 144 135 123 75 46 45 89 101 99 101 113 115 120 122 117 117 121 119 117 122 123 120 120 119 117 110 104 121 124 121 113 124 130 136 135 135 134 136 138 133 136 133 132 131 134 134 133 139 136 134 132 131 126 130 129 131 132 133 132 131 133 137 138 138 138 142 145 142 141 139 138 143 
152 148 152 141 145 145 144 145 142 139 114 61 37 36 81 97 98 103 113 118 124 120 117 120 118 119 129 125 124 123 117 119 117 114 103 117 128 122 119 123 136 140 134 138 137 138 136 135 135 135 132 131 132 133 135 137 139 135 135 128 131 129 125 127 132 129 131 130 134 137 140 137 139 141 147 144 139 138 142 142 
152 148 156 144 146 149 144 143 142 135 118 59 33 37 77 94 90 103 117 126 122 121 118 118 125 121 133 128 124 121 119 122 116 114 105 116 125 124 120 127 133 142 139 135 139 135 135 139 135 133 133 136 133 135 133 137 136 131 135 128 129 129 129 131 132 128 134 137 135 140 143 139 141 141 144 143 141 142 135 143 
148 146 149 143 142 148 142 149 143 138 115 49 31 39 70 93 95 102 115 116 122 127 120 119 123 122 130 133 126 119 119 121 117 108 102 118 131 124 123 130 139 139 138 139 138 138 138 138 139 139 135 133 134 136 133 137 135 132 134 134 133 130 129 130 134 128 132 134 135 139 144 141 141 140 144 141 137 143 142 143 
150 144 147 144 140 148 147 145 140 132 110 50 26 46 71 86 90 101 114 117 118 122 121 122 122 121 125 124 120 120 117 114 116 109 101 120 127 128 121 126 134 140 136 140 136 138 138 138 137 136 134 135 134 133 134 135 135 130 133 131 131 133 130 131 132 132 134 140 136 138 145 143 141 140 142 145 146 142 142 144 
146 146 146 145 144 146 144 142 138 130 107 51 28 51 64 86 93 105 112 118 117 122 119 120 125 122 124 123 119 119 118 114 113 107 102 117 126 124 121 125 134 138 141 137 136 138 140 137 138 135 134 136 138 132 134 140 134 132 134 134 132 128 129 133 134 135 133 139 142 139 142 139 144 140 142 146 143 143 141 142 
146 145 147 144 143 146 142 142 137 131 109 48 25 52 76 85 93 100 114 115 119 118 120 120 121 125 123 123 120 121 120 118 115 108 100 118 125 125 117 125 135 139 136 139 135 138 140 137 139 138 135 138 135 134 135 136 140 139 134 131 131 128 130 128 134 134 134 135 137 139 142 137 139 140 146 145 144 141 140 140 
149 145 148 145 144 154 144 145 137 132 109 45 31 49 69 86 91 103 108 114 118 118 119 116 123 126 126 125 120 119 120 116 113 106 102 123 129 122 117 128 135 136 134 137 137 139 139 137 136 140 137 137 142 136 138 139 138 138 134 133 132 133 130 130 132 135 134 140 139 140 146 139 141 141 144 144 140 140 141 141 
151 143 146 146 144 148 142 144 134 130 106 35 17 34 62 79 87 96 108 110 115 112 112 116 122 118 120 121 123 120 120 116 116 111 101 119 124 123 117 124 135 136 134 134 138 135 135 137 135 138 136 135 135 138 135 137 134 134 134 133 126 131 128 133 132 131 135 135 135 144 142 138 139 141 140 139 139 137 137 137 
145 140 149 147 148 147 146 146 136 133 99 25 9 22 51 71 87 96 103 102 106 111 111 114 118 115 119 124 120 118 114 118 110 107 99 119 126 122 116 125 136 134 132 134 137 137 135 135 137 135 135 135 136 134 135 135 135 129 131 133 128 133 130 130 133 134 134 134 136 140 140 137 141 140 143 139 141 139 140 139 
143 142 151 145 145 149 148 144 137 130 97 24 7 18 37 53 78 90 100 99 108 105 104 112 117 115 121 119 119 119 113 115 112 105 101 122 122 119 115 125 137 133 133 135 138 136 134 132 136 136 134 137 134 135 135 137 133 132 132 131 129 128 128 134 134 136 134 139 134 138 141 140 141 138 141 144 140 139 138 138 
143 138 149 147 145 145 144 143 138 128 93 22 10 13 34 53 72 83 97 100 103 105 103 110 112 115 114 122 118 117 117 116 112 103 101 121 122 116 115 123 134 134 132 134 137 135 136 138 137 133 137 136 134 137 134 135 134 131 132 131 130 131 130 132 134 132 134 135 138 136 139 136 138 142 142 147 144 146 138 142 
149 143 144 152 144 145 143 140 135 128 95 22 8 8 39 48 67 77 88 93 108 111 104 109 112 111 119 117 118 116 117 115 113 109 100 117 121 113 110 123 131 135 134 136 138 138 137 135 135 136 136 132 132 132 134 140 137 133 131 131 129 131 134 131 134 134 138 134 132 139 133 138 137 142 143 141 145 140 141 140 
145 139 139 145 146 147 146 144 136 133 96 24 4 11 33 56 65 70 83 96 116 118 111 103 109 110 115 117 114 119 117 115 112 108 98 113 119 116 110 126 133 136 133 137 136 140 137 138 139 140 135 135 133 133 135 138 138 132 135 131 131 127 130 128 136 133 137 138 134 140 143 136 136 145 140 140 142 142 143 138 
144 134 136 142 144 152 142 144 138 133 94 27 5 13 31 49 65 68 78 94 109 117 110 106 105 110 113 111 118 118 115 114 111 106 100 119 120 115 111 126 133 135 133 136 135 138 136 135 138 139 132 135 132 133 137 138 139 144 137 133 128 131 131 132 138 134 134 138 131 137 140 138 140 146 145 141 141 142 138 139 
138 125 129 138 151 151 145 143 139 126 91 26 7 11 29 45 58 65 76 94 108 115 106 101 106 112 113 113 115 117 112 116 110 103 104 121 121 116 108 125 133 137 133 133 135 138 136 134 136 135 136 133 136 137 134 138 138 139 138 135 132 129 127 129 132 137 136 140 137 138 142 140 143 147 143 144 142 144 141 138 
139 127 124 138 141 147 142 145 138 129 90 22 4 9 26 45 63 69 82 100 111 110 101 99 105 108 113 115 115 116 116 114 106 102 105 118 120 118 115 127 130 135 134 134 133 137 136 133 133 136 132 133 136 138 138 138 138 136 136 134 129 129 132 129 130 135 135 138 135 143 141 143 146 146 142 141 138 141 143 143 
126 113 121 130 142 148 143 144 138 130 89 24 3 8 26 45 64 80 90 100 108 111 108 109 109 113 112 112 111 114 110 115 112 105 105 120 119 119 115 128 134 136 137 133 137 139 135 135 135 135 133 135 130 134 137 137 137 141 138 133 133 131 128 128 136 135 135 140 134 139 145 144 142 145 144 142 144 140 143 144 
123 113 113 126 138 145 142 142 136 126 87 24 2 8 28 46 74 85 96 95 98 105 108 117 111 106 110 111 111 110 112 113 108 103 103 117 122 116 119 132 137 139 134 137 139 138 137 132 136 135 135 133 137 137 137 138 136 136 136 134 130 130 127 132 134 139 137 138 138 142 148 142 141 141 141 141 140 141 139 139 
126 117 117 123 138 142 140 144 138 126 84 20 0 11 27 50 77 82 91 92 98 105 112 111 111 108 111 114 110 113 110 108 109 99 104 118 117 122 115 128 135 137 134 132 139 136 137 136 133 138 133 132 135 133 134 138 132 132 135 131 130 129 127 133 134 135 136 139 138 146 143 139 143 140 140 140 139 137 141 139 
131 122 120 121 139 145 138 142 136 115 86 22 6 11 28 54 76 81 89 88 93 100 103 113 114 107 107 111 107 111 115 111 105 97 107 116 118 118 115 127 135 139 133 134 137 134 136 135 135 136 133 133 134 134 139 132 134 130 132 134 131 126 126 128 132 132 136 137 137 144 149 141 141 141 139 142 141 139 143 141 
130 121 125 125 131 144 142 145 135 119 86 23 12 19 31 59 83 82 86 88 98 98 103 108 116 111 106 110 108 112 113 111 106 97 102 121 116 113 114 129 133 138 134 134 134 135 133 135 134 134 134 135 134 133 134 135 133 133 136 132 131 128 127 131 137 135 138 139 140 145 145 140 141 143 142 142 142 141 145 142 
127 124 118 126 130 138 142 142 134 113 79 26 14 16 34 59 85 83 87 89 94 100 98 102 115 109 106 111 108 110 109 109 104 97 105 116 118 114 113 127 133 134 133 133 132 134 137 135 136 137 135 136 135 135 132 133 134 131 134 131 132 130 128 129 138 141 135 140 138 141 143 142 143 143 141 145 144 146 142 140 
121 110 117 124 127 137 136 147 137 107 77 22 20 25 34 58 83 86 90 89 98 98 96 96 108 106 104 108 109 106 106 106 101 98 101 116 116 110 112 127 134 135 134 134 136 136 134 135 135 137 137 138 134 132 132 132 136 134 133 129 130 128 130 132 137 132 141 141 139 143 144 144 143 141 145 144 140 142 145 142 
110 99 111 116 131 136 137 142 131 109 74 22 26 35 33 51 75 85 91 89 94 105 101 91 99 99 103 105 109 104 104 103 97 96 95 114 115 110 113 126 132 133 135 137 136 135 135 138 136 136 132 133 133 134 134 135 137 132 135 132 130 129 128 130 136 139 138 144 141 144 143 143 143 148 144 143 144 145 148 146 
109 98 109 116 127 135 133 141 132 106 74 29 25 37 44 54 67 83 91 87 93 96 98 95 95 97 101 104 104 106 106 104 94 92 96 113 118 107 111 130 133 134 134 135 136 139 136 137 136 137 130 133 133 135 132 131 132 132 133 133 129 131 127 129 141 139 138 142 139 143 140 142 142 146 148 145 145 146 142 149 
107 93 112 121 131 135 136 136 128 99 70 33 25 33 41 51 66 79 87 86 88 97 99 95 95 99 103 104 105 106 104 106 96 89 98 111 111 109 110 128 132 132 134 136 138 137 137 138 135 135 131 134 134 131 132 137 134 130 131 132 130 129 128 132 137 135 139 141 136 139 140 142 141 146 148 142 147 142 145 146 
114 100 111 119 127 135 133 134 133 97 75 36 22 43 40 49 67 75 85 84 93 93 93 96 95 100 104 104 102 105 104 103 95 87 105 110 112 104 113 129 132 136 135 134 135 136 135 133 134 135 133 133 134 132 133 136 133 129 132 133 131 130 128 138 137 138 138 143 144 146 148 140 144 147 144 145 144 144 146 144 
118 114 116 102 126 131 129 133 127 99 71 31 29 43 40 48 63 67 78 81 86 88 91 90 92 96 95 100 101 101 100 103 94 87 101 110 106 104 113 129 132 135 135 136 139 138 136 135 135 135 135 130 134 134 135 133 133 127 129 129 130 132 131 140 141 139 138 142 143 149 153 147 144 148 149 147 146 145 142 148 
113 93 91 81 97 105 108 112 103 94 69 28 30 41 43 45 59 69 79 77 83 90 91 87 93 92 98 99 100 101 98 101 93 83 96 106 107 102 111 128 131 134 132 138 139 138 136 137 137 137 134 133 136 132 132 134 133 132 134 133 133 137 138 141 142 141 146 144 141 149 152 147 144 148 149 151 145 145 141 142 
108 70 65 68 72 83 81 74 72 76 67 25 29 39 43 44 58 69 74 75 82 87 78 82 91 91 96 98 96 97 98 95 91 88 93 101 99 99 109 124 131 134 136 137 139 138 139 137 138 138 134 137 136 134 133 135 135 135 134 135 142 139 141 147 144 141 144 149 145 147 151 150 146 152 148 145 144 151 143 145 
108 63 63 66 71 73 75 66 66 80 62 20 22 36 39 44 55 62 77 76 82 85 80 80 90 97 98 105 96 98 99 100 89 80 93 99 96 93 101 125 131 134 136 139 143 149 150 142 143 142 139 135 136 136 137 139 137 138 138 149 169 168 163 147 151 145 148 149 147 152 153 150 147 151 151 148 149 148 148 145 
108 64 56 59 62 75 70 64 64 73 61 15 10 27 37 41 55 61 73 77 77 78 75 99 115 120 126 133 127 123 127 124 116 104 96 94 93 90 101 119 129 134 138 141 157 204 211 165 144 143 137 141 137 139 137 140 139 136 136 155 186 187 190 192 187 177 164 160 153 157 157 151 151 156 151 154 153 147 145 146 
102 63 53 54 56 64 62 58 63 66 49 8 2 28 39 41 52 59 71 76 72 72 75 122 142 144 152 148 142 143 144 143 141 133 106 93 90 83 95 119 129 137 133 140 162 232 244 192 149 152 147 144 137 141 136 134 134 132 132 164 187 194 190 201 210 205 205 196 186 175 166 155 153 155 157 152 153 150 151 148 
98 58 47 36 46 47 57 54 56 59 48 11 9 35 41 46 55 54 68 67 62 69 95 130 148 147 150 153 147 148 145 147 141 141 119 96 87 80 93 118 128 130 133 136 159 229 244 180 150 152 143 141 134 136 135 136 135 136 133 166 189 197 197 202 212 208 214 220 210 208 194 170 161 158 158 157 156 155 151 151 
100 63 37 35 37 42 46 45 47 52 42 17 13 38 43 41 45 53 59 57 57 67 110 142 147 149 153 153 149 148 149 151 149 146 133 93 88 81 93 119 128 131 132 139 153 194 206 188 152 142 140 136 136 135 133 137 134 134 135 172 185 195 201 211 216 210 216 221 217 216 207 191 182 182 168 161 159 157 152 157 
105 74 39 32 32 37 46 48 49 47 39 27 24 37 42 44 48 46 56 49 61 77 130 145 146 153 154 156 153 153 152 152 149 146 142 106 82 80 93 112 124 128 129 139 171 179 187 186 174 150 137 138 136 136 133 135 135 133 138 184 195 196 206 216 218 224 226 225 218 216 207 194 192 199 197 196 181 166 160 158 
103 73 33 31 29 39 33 34 42 31 35 30 51 53 44 42 47 53 53 53 67 100 140 145 145 151 150 156 151 149 150 148 152 148 150 123 86 79 96 115 124 132 132 145 159 170 177 174 173 158 138 134 134 133 140 138 134 135 141 190 196 198 208 215 222 229 227 227 223 218 213 198 196 199 204 204 204 201 186 175 
97 82 42 26 27 30 30 27 30 31 41 66 76 77 58 44 49 49 48 62 73 127 140 149 152 154 152 155 151 151 149 151 152 153 147 136 99 81 92 115 124 129 133 143 157 162 164 164 161 146 135 136 134 135 133 141 139 143 153 196 198 203 210 216 223 223 228 227 222 222 211 195 195 198 202 208 207 208 207 200 
91 81 36 22 19 24 25 25 30 40 53 72 83 76 61 42 42 44 54 60 103 139 142 152 154 150 155 157 153 154 150 150 152 150 147 145 130 88 94 120 120 126 130 139 148 148 152 143 139 138 137 132 135 133 138 143 144 153 164 201 202 208 212 220 224 224 229 230 220 218 220 197 198 204 202 207 210 210 213 211 
94 87 50 28 30 36 28 37 48 54 56 71 79 79 60 51 51 53 59 94 130 143 144 151 157 158 160 157 153 152 153 155 152 153 148 148 148 123 100 119 130 130 133 136 141 144 145 144 136 140 136 139 135 139 138 144 147 155 174 215 211 211 221 221 228 232 235 230 226 230 214 202 194 209 207 212 214 215 219 215 
90 91 69 35 43 44 44 47 51 55 54 70 82 78 65 59 62 65 78 124 139 149 144 148 157 156 158 157 152 155 156 158 155 146 138 146 149 145 127 120 129 134 134 136 139 141 141 139 138 139 137 136 135 137 137 142 145 149 179 229 225 223 225 223 229 235 236 237 231 237 222 206 206 208 211 213 219 220 221 220 
90 90 78 67 77 79 78 81 86 84 86 84 94 94 91 89 88 89 109 139 143 146 138 138 151 158 158 154 154 162 158 156 155 142 134 140 152 148 146 131 128 130 133 132 136 137 138 136 137 138 137 137 135 136 133 141 142 144 160 213 239 241 241 238 239 242 248 242 240 238 222 210 206 209 213 217 219 219 222 224 
96 92 83 91 99 103 100 99 105 100 100 103 105 113 111 107 105 108 126 140 146 148 133 133 151 157 156 156 156 154 157 155 149 144 134 134 144 146 149 146 135 133 130 136 136 136 141 146 142 140 142 140 137 134 133 133 137 141 145 160 184 229 259 250 254 255 258 250 245 243 226 211 208 214 217 219 223 223 221 223 
95 97 92 96 102 102 100 102 104 102 100 104 108 111 109 103 108 111 131 141 148 146 135 128 154 155 156 153 154 152 153 155 152 147 140 136 143 149 151 148 138 132 135 140 145 142 149 151 146 146 144 146 142 134 129 132 138 146 151 149 156 167 204 249 269 271 275 267 261 253 230 218 215 218 220 221 222 229 227 226 
102 102 103 103 104 100 102 104 102 102 102 103 107 108 109 107 107 109 135 144 143 147 127 148 154 156 162 154 153 154 152 152 153 150 146 143 148 151 149 152 141 137 133 141 140 146 146 147 149 149 149 149 148 138 135 134 139 147 153 156 157 155 157 178 239 279 293 289 279 270 232 221 216 221 229 226 231 230 231 228 
107 109 104 97 99 102 100 104 103 100 99 102 107 103 104 102 102 106 131 143 145 148 146 154 154 157 162 158 156 155 152 149 150 152 151 147 149 149 152 147 141 133 128 132 136 139 141 143 139 144 144 145 142 139 136 136 139 148 151 147 148 150 151 150 168 193 250 291 289 275 237 222 221 224 229 228 234 234 230 233 
105 106 104 100 102 103 100 100 101 99 97 100 104 106 103 102 98 103 127 140 148 149 153 162 156 158 158 157 156 157 151 152 152 152 152 155 157 150 149 148 142 133 128 125 131 132 136 134 138 129 133 133 133 134 133 138 138 140 143 147 144 146 146 148 150 155 175 210 250 247 242 226 230 233 232 231 232 233 235 233 
103 105 106 103 99 103 100 103 100 100 101 103 103 105 104 102 102 99 121 140 148 148 155 156 157 158 158 156 160 159 153 154 152 155 155 158 156 153 148 144 144 143 126 127 141 138 135 134 135 132 130 134 136 137 134 143 142 138 141 143 143 147 144 149 153 149 159 163 172 190 212 232 233 239 232 241 236 237 232 231 
104 105 107 101 101 98 97 99 112 99 100 104 111 105 108 105 103 102 111 135 144 147 151 155 156 157 156 159 161 157 157 154 152 151 155 153 156 150 148 147 143 145 142 132 141 143 142 138 140 136 137 135 140 139 140 144 144 143 142 148 151 147 148 146 148 149 152 161 156 164 173 201 230 246 240 246 238 241 234 233 
100 105 107 102 100 96 95 100 103 100 102 103 104 105 102 102 100 100 110 130 147 146 150 152 159 154 160 160 156 155 154 152 151 151 157 152 152 152 145 141 142 141 146 141 145 153 154 150 147 144 139 142 138 143 142 145 143 145 146 145 149 154 153 154 151 145 147 151 152 155 163 168 190 229 249 249 246 246 239 231 
106 105 107 103 100 98 94 97 104 101 101 105 104 100 103 101 100 95 110 127 147 146 149 156 158 157 158 160 156 155 153 152 151 151 157 152 154 147 144 141 137 141 141 147 149 156 161 159 158 154 147 139 143 147 142 146 148 148 151 153 151 154 155 169 171 155 149 150 148 150 157 153 160 184 228 252 249 249 247 239 
104 102 105 100 99 95 97 95 98 100 102 101 101 104 104 102 101 98 110 133 145 147 149 152 154 155 158 161 159 155 153 153 151 151 154 151 151 146 142 139 136 137 138 148 150 155 166 161 163 159 156 150 142 147 146 150 150 153 163 154 153 155 156 171 185 181 160 151 148 147 153 149 153 161 180 214 254 260 254 251 
104 101 105 100 104 100 94 93 96 99 97 102 104 102 105 98 98 100 105 129 147 148 146 157 160 159 157 158 158 158 155 154 155 152 153 154 152 147 143 138 136 135 141 150 158 157 160 167 166 161 161 160 152 150 151 153 156 151 160 157 155 160 165 166 177 182 165 150 150 150 154 148 147 152 158 169 206 247 261 264 
104 104 107 99 100 97 92 93 100 100 101 99 102 101 103 100 102 104 117 133 142 144 147 152 159 160 165 158 159 153 153 152 151 150 153 151 149 144 145 142 136 135 137 154 156 162 158 163 166 163 159 154 156 153 150 152 152 151 155 158 160 161 165 167 166 169 161 158 157 165 155 147 148 150 149 153 160 193 240 262 
104 99 107 104 99 97 93 93 98 97 103 102 103 102 99 100 115 120 134 134 148 145 149 149 155 160 160 160 153 155 153 151 152 149 151 148 148 141 141 141 138 137 141 155 159 160 162 161 163 163 160 158 156 155 154 156 154 153 154 162 163 168 167 165 167 160 162 169 177 182 173 154 149 149 151 148 159 157 189 228 
105 104 107 100 97 97 89 91 98 100 100 101 111 103 101 96 121 139 145 139 141 145 144 151 153 157 155 157 154 153 149 147 150 147 149 145 148 140 139 139 139 135 143 148 154 153 160 166 167 169 163 162 158 156 156 158 158 156 153 156 162 170 167 167 170 166 165 173 182 184 170 148 146 147 150 151 148 148 154 174 
104 102 105 98 100 101 94 94 97 97 98 98 103 102 101 99 125 138 145 142 140 141 143 147 152 153 154 152 153 149 145 144 144 146 148 146 148 141 141 138 136 139 142 155 163 162 162 166 165 169 169 166 163 159 159 158 161 156 157 157 157 164 163 167 168 167 161 166 172 172 165 147 140 148 148 145 146 147 148 147 
104 102 105 100 100 97 95 94 98 104 98 100 101 98 104 100 121 136 147 145 139 138 144 145 149 152 150 149 151 149 146 145 145 145 147 146 143 140 137 139 134 137 151 157 160 162 166 160 162 165 169 171 167 163 163 163 161 158 157 157 157 161 160 167 168 163 160 156 158 164 154 150 150 147 149 145 145 141 146 146 
105 100 109 101 102 100 95 94 98 96 98 98 101 100 102 99 125 142 145 142 134 131 138 142 145 145 149 147 146 148 145 143 145 146 144 145 148 139 133 130 130 138 155 155 157 160 164 159 159 161 165 167 165 165 160 161 160 157 162 155 151 156 155 161 164 159 162 158 152 161 155 151 153 151 144 144 144 144 147 145 


