P2
80 60
33
25 24 23 19 18 22 21 20 28 25 26 22 26 26 25 20 18 21 21 21 20 24 20 20 20 25 19 22 24 23 24 21 21 20 20 23 23 27 23 17 15 19 23 20 21 22 25 22 21 20 25 18 23 20 19 23 23 24 27 22 19 19 21 19 17 19 10 10 12 12 10 11 10 14 11 10 12 12 13 15 
23 29 23 20 22 21 23 24 26 26 26 21 22 25 26 21 22 22 23 21 20 22 20 20 20 21 23 26 23 27 24 22 22 19 23 20 21 21 18 19 16 17 20 19 17 21 21 19 22 20 23 23 23 23 21 21 25 22 25 19 21 18 17 16 17 16 10 10 12 13 5 12 10 12 13 13 7 12 14 10 
20 26 23 23 21 25 27 26 25 30 28 23 21 22 25 23 19 21 19 22 23 23 21 20 20 23 22 23 19 25 25 24 26 21 25 21 24 22 24 18 22 21 21 21 19 19 18 17 21 19 21 21 25 21 21 22 22 20 18 22 20 15 19 18 13 15 7 8 10 13 13 11 8 11 8 12 12 9 11 9 
23 24 22 22 23 24 28 24 26 27 27 27 25 22 25 21 21 20 24 20 19 22 22 20 20 23 21 24 21 22 20 21 22 23 19 21 23 23 22 17 19 18 25 19 18 18 21 16 21 19 19 21 23 21 21 18 19 19 22 19 23 20 17 16 16 14 9 9 16 12 11 13 11 11 7 10 9 8 13 10 
28 25 20 23 22 22 27 27 26 28 27 22 23 27 25 25 21 21 23 20 22 23 25 18 25 26 26 23 25 23 22 20 20 19 19 21 23 24 24 22 17 22 23 24 20 17 21 21 19 21 21 21 26 21 20 21 21 21 21 20 23 22 20 23 19 19 13 10 14 13 11 12 11 9 13 10 10 9 12 11 
27 25 23 23 26 26 28 24 28 25 26 23 23 27 30 22 24 22 20 22 21 24 21 24 22 24 19 24 24 22 21 21 21 20 23 23 25 21 22 20 15 22 25 20 18 21 22 21 19 21 21 23 24 22 20 21 21 25 21 19 23 22 20 18 19 15 13 15 19 15 17 11 10 10 10 10 10 14 11 14 
22 27 21 21 23 26 23 26 24 27 23 24 23 28 23 25 27 24 21 24 23 24 26 21 23 25 22 23 22 19 19 20 20 22 20 20 23 23 21 20 19 18 20 18 22 22 19 20 21 17 21 24 25 23 19 20 23 24 24 21 21 21 21 18 19 17 12 13 16 13 11 8 9 13 8 13 9 12 12 11 
27 27 21 22 26 29 26 26 27 28 25 23 27 30 26 24 26 24 25 24 28 26 24 21 20 26 21 24 23 24 21 18 19 19 22 26 24 23 25 18 21 18 19 20 18 19 21 22 19 19 20 24 25 20 19 21 21 21 20 20 20 21 17 19 20 19 13 12 15 12 11 11 12 13 12 10 8 11 14 3 
26 31 23 25 24 25 29 24 25 29 23 22 25 26 26 23 22 25 24 27 26 27 22 22 22 23 22 23 24 22 23 18 20 21 26 21 24 20 21 20 21 19 17 19 19 16 20 21 20 19 19 21 23 24 19 22 21 19 19 21 22 20 16 16 20 22 16 12 13 12 11 12 10 9 8 13 9 12 11 11 
29 32 26 24 25 25 30 29 25 26 25 24 21 27 24 25 26 22 24 20 23 27 23 22 25 23 21 23 21 23 20 20 22 19 21 19 18 20 18 17 19 16 18 18 17 18 22 18 21 20 22 16 21 19 20 20 19 19 23 19 20 22 18 17 16 20 15 10 16 13 10 11 11 10 10 13 11 9 12 9 
28 32 27 25 27 27 31 26 28 28 29 25 27 22 23 21 25 22 21 19 22 25 23 22 22 23 22 21 21 19 20 20 21 19 23 20 19 17 21 19 17 15 18 17 15 16 15 16 19 19 18 18 20 22 19 20 19 19 18 16 18 17 16 19 20 15 13 11 12 13 8 10 10 6 10 11 7 10 11 7 
32 30 26 28 30 29 32 28 28 28 25 24 24 22 22 21 20 23 21 20 21 24 21 22 22 21 20 21 20 21 22 23 19 22 20 19 21 19 22 20 19 16 18 15 18 19 16 18 19 19 19 20 24 20 20 17 17 19 19 17 18 21 19 19 21 19 13 13 13 10 10 8 9 13 10 14 11 7 17 11 
28 31 28 29 26 27 27 30 24 25 29 24 21 25 20 23 21 19 20 22 23 25 24 22 23 22 19 23 25 23 24 21 22 22 20 20 20 20 24 20 20 17 17 18 17 17 22 20 20 19 21 22 22 18 18 22 21 19 19 20 19 24 22 20 19 17 14 12 10 13 0 9 7 12 9 15 13 13 16 5 
24 30 30 26 25 26 26 27 25 23 23 19 23 21 21 21 19 19 20 17 20 23 20 21 21 23 21 23 20 23 23 23 25 23 20 18 19 23 19 18 17 16 17 19 17 22 20 20 17 23 20 21 20 17 19 23 22 23 22 21 19 23 17 16 18 18 13 14 12 10 10 8 7 12 10 13 10 6 16 9 
27 33 26 27 25 25 22 29 25 24 18 24 22 17 21 20 19 20 19 17 18 20 23 23 21 22 17 22 21 22 23 20 24 22 19 19 24 21 19 19 18 21 17 16 20 17 20 19 19 20 18 21 19 20 19 24 26 27 25 23 19 21 18 16 16 17 16 14 13 14 13 8 8 8 7 8 9 10 14 8 
24 31 27 25 26 25 26 28 26 22 18 23 22 20 20 22 21 18 19 18 18 22 22 19 21 22 19 19 20 22 22 26 21 19 21 22 22 16 22 21 20 23 15 16 20 16 21 18 18 19 18 18 18 20 20 21 23 23 22 21 18 18 18 16 17 19 14 17 18 13 11 12 13 8 8 11 9 12 8 13 
28 28 27 25 26 22 28 25 25 23 22 22 21 19 21 20 19 17 19 17 18 17 20 17 21 19 20 20 20 21 20 23 22 23 20 20 21 20 19 19 16 18 14 15 18 20 22 16 17 18 16 19 19 18 22 21 23 22 24 17 16 18 18 19 16 17 12 16 15 12 14 13 13 11 5 11 9 9 14 9 
24 30 23 26 26 22 24 26 24 21 23 23 19 20 24 19 20 16 17 18 17 17 21 17 16 16 18 21 21 22 20 22 24 21 18 17 20 17 20 21 19 17 17 16 15 15 17 17 17 15 13 20 26 20 22 22 22 24 21 22 20 18 15 17 18 16 9 13 15 14 11 13 12 8 5 12 9 9 8 15 
25 27 25 27 26 25 25 22 24 23 23 21 24 23 22 18 19 20 19 19 19 20 21 19 21 19 17 18 23 20 21 21 24 22 22 19 21 20 22 17 17 20 17 22 17 17 18 17 20 17 16 22 23 24 22 19 20 20 18 17 19 17 14 17 18 17 15 15 16 16 12 11 11 8 5 7 7 9 10 8 
27 26 26 26 24 27 24 22 25 20 25 22 21 20 22 18 20 15 22 19 20 23 29 23 22 25 21 22 22 21 26 21 25 20 20 19 21 20 21 20 23 19 16 18 15 15 19 18 19 15 17 21 19 20 19 20 21 18 18 18 17 19 18 17 18 15 15 14 14 14 14 10 11 12 3 9 7 10 6 11 
27 31 27 27 24 23 25 23 25 24 23 23 23 23 20 19 20 18 22 21 21 21 23 21 21 23 18 22 24 21 32 23 25 21 18 17 20 19 21 18 20 21 20 17 16 19 15 18 19 17 17 22 22 17 22 19 19 19 19 20 18 20 17 18 18 16 15 13 15 16 13 14 15 9 7 8 8 14 12 13 
24 27 25 24 23 23 27 25 23 24 23 24 29 22 23 16 17 20 18 21 17 18 22 20 21 24 21 20 19 22 27 21 25 24 18 19 21 17 17 20 18 18 15 18 15 14 14 16 16 17 17 18 19 20 18 17 19 18 24 16 16 20 17 21 21 20 19 10 14 17 16 15 13 12 8 12 10 12 10 15 
24 29 25 26 26 25 26 23 27 27 24 23 24 25 20 18 19 20 20 22 20 19 20 20 20 23 20 22 19 17 22 20 27 19 18 16 21 17 21 21 18 15 16 12 19 12 15 14 17 18 18 18 18 18 17 20 19 19 19 21 21 19 17 18 23 20 17 15 20 14 10 15 16 12 11 11 5 9 10 8 
22 26 25 24 25 22 27 32 25 23 23 23 23 22 21 21 24 19 20 18 18 19 18 20 19 20 18 22 19 18 19 19 20 20 17 18 20 19 17 20 19 19 17 17 17 16 15 14 16 21 21 17 19 19 16 19 21 19 18 21 21 22 20 21 20 19 17 14 14 14 14 12 13 13 12 10 8 12 11 13 
21 28 24 22 21 22 24 24 27 23 24 23 23 24 22 18 16 16 20 19 19 20 17 19 20 18 15 20 22 18 17 17 19 17 19 19 17 17 20 15 15 14 18 16 20 18 16 15 18 16 17 17 20 18 15 15 18 14 17 18 20 20 18 19 20 20 18 16 15 15 12 11 16 16 7 10 11 11 13 13 
25 22 26 22 22 24 22 24 21 23 22 20 21 23 23 19 16 15 19 18 18 19 19 20 20 21 16 20 19 19 19 17 18 19 15 17 19 18 17 16 17 15 14 17 16 17 17 17 17 15 15 19 18 19 18 17 15 15 19 19 19 20 18 17 19 19 16 17 14 13 13 11 12 14 12 12 9 12 10 10 
23 22 23 21 19 24 24 18 20 21 23 18 20 20 21 18 19 18 17 17 16 19 21 18 18 18 17 17 18 21 18 16 19 19 17 16 17 15 13 16 15 14 16 15 14 16 14 14 16 15 14 15 19 15 17 17 15 14 17 15 17 18 15 17 18 17 14 11 12 13 14 13 13 14 12 12 8 11 10 6 
24 24 20 22 21 21 24 22 22 22 18 19 21 19 20 16 18 18 16 18 16 22 19 16 20 20 18 19 19 22 21 19 17 18 17 17 17 14 17 16 16 15 17 15 14 14 15 14 14 14 16 16 18 18 15 18 16 14 15 18 18 17 17 18 15 13 11 15 13 12 11 12 14 12 10 11 9 11 14 6 
21 24 22 22 25 23 23 30 23 25 18 20 18 21 19 18 16 18 17 20 15 19 17 18 19 19 17 19 19 19 19 19 17 16 15 17 17 16 15 16 17 15 17 14 16 15 17 16 18 17 18 19 19 16 16 16 14 14 18 15 15 20 15 19 14 16 14 11 11 13 10 13 11 11 9 11 11 13 12 11 
25 27 25 22 18 22 23 23 27 23 21 19 21 22 20 15 16 14 17 18 17 19 18 17 20 19 18 19 18 18 18 20 18 16 15 20 18 18 17 17 17 14 16 16 15 15 16 14 16 15 18 17 19 15 14 11 13 15 17 17 18 21 17 18 16 16 22 16 16 13 13 14 11 10 6 13 11 8 12 9 
22 26 23 20 21 23 21 22 19 19 20 20 19 21 19 20 19 15 16 18 17 18 19 15 20 21 20 18 15 19 19 17 16 16 21 16 18 15 16 20 17 16 19 19 15 18 13 15 20 13 17 18 16 15 17 15 20 18 16 16 19 17 17 18 17 16 17 13 14 14 10 12 12 10 9 12 8 13 7 12 
22 26 20 21 26 22 24 21 19 20 20 18 17 19 18 22 18 17 14 16 16 16 18 16 20 19 21 19 20 16 18 18 16 16 17 15 15 14 14 16 21 17 17 17 17 15 13 16 18 17 16 18 15 16 17 15 18 15 17 16 15 15 17 21 20 15 15 14 16 15 12 9 10 13 7 10 8 11 9 6 
23 23 24 23 23 22 19 22 23 20 20 19 19 19 17 17 18 17 16 16 16 16 20 19 21 17 19 22 22 20 17 16 17 16 14 17 15 16 14 17 17 17 17 18 14 15 13 15 14 14 19 18 18 17 17 17 14 15 17 16 17 16 17 18 17 17 15 12 18 13 13 11 10 11 7 10 10 11 8 9 
21 24 20 18 22 22 20 21 24 21 18 16 17 20 19 19 18 18 18 15 16 18 19 21 19 21 18 18 22 22 19 16 18 16 16 18 18 17 15 14 15 19 17 16 18 15 13 15 15 14 17 19 16 15 18 17 18 18 17 16 19 20 17 20 18 18 17 14 16 12 10 6 12 12 10 11 9 10 9 10 
24 24 21 19 19 22 19 19 22 21 20 21 19 17 19 18 20 19 19 18 16 18 18 18 20 21 18 18 19 23 21 16 17 18 21 19 19 17 15 14 14 17 19 16 15 18 16 18 15 17 16 19 20 17 19 17 22 19 16 18 17 17 14 19 19 16 16 14 15 14 12 12 12 12 9 12 13 15 11 8 
20 23 21 21 22 22 23 22 21 19 17 17 19 18 20 17 17 20 16 17 20 17 19 20 19 20 16 19 17 20 16 18 19 21 20 15 18 17 14 16 17 20 15 13 17 15 18 17 16 14 16 20 22 17 17 17 16 19 16 18 16 16 18 18 17 17 14 14 14 14 12 12 11 13 9 9 10 12 12 9 
22 21 21 22 21 23 20 22 22 18 18 17 21 18 20 15 17 20 17 15 17 16 17 19 17 17 18 20 19 17 18 22 19 21 17 17 19 16 14 17 13 15 18 13 15 16 14 15 13 16 14 20 20 17 16 15 19 15 16 14 20 16 18 15 21 17 15 15 15 11 11 10 8 9 11 10 11 11 11 12 
21 28 22 20 21 22 24 24 21 21 19 18 25 18 21 15 17 22 19 19 19 19 19 16 20 18 15 17 23 17 21 17 22 18 16 17 16 18 16 18 14 16 17 17 16 16 17 15 16 15 17 18 17 17 17 18 19 17 14 15 20 15 17 17 18 21 14 13 15 9 12 10 8 6 9 13 8 11 11 9 
20 26 28 19 20 22 23 24 23 20 23 19 18 21 18 18 17 18 17 17 17 19 18 21 19 18 17 19 19 17 18 21 20 19 17 17 19 18 20 15 17 18 18 15 16 17 16 16 17 16 12 19 20 21 18 18 23 13 18 19 15 19 19 18 18 20 16 13 14 10 12 7 8 9 10 10 8 12 15 10 
24 24 21 20 20 24 23 20 23 23 18 20 19 24 19 17 18 17 16 16 17 17 19 19 19 18 15 21 20 18 18 20 21 20 17 17 16 17 17 15 16 16 18 15 16 16 17 17 18 17 21 20 22 21 18 16 16 18 15 17 14 14 14 17 15 16 13 12 15 11 9 10 13 13 8 12 10 13 15 12 
19 23 21 20 20 23 21 21 22 19 18 20 24 23 21 17 17 17 15 15 14 17 19 20 19 18 22 19 20 21 19 18 25 20 17 18 18 18 17 15 16 14 16 17 16 19 16 17 18 20 17 23 23 21 16 19 15 15 16 16 13 18 15 14 16 15 13 9 7 10 10 12 6 13 12 13 13 13 20 15 
17 24 22 21 19 21 19 19 19 17 19 22 20 21 17 17 15 18 14 16 17 19 17 17 21 20 17 16 18 15 19 21 21 23 17 18 19 18 17 16 14 19 14 14 15 18 16 19 18 16 18 23 20 22 18 19 17 19 17 14 17 15 14 17 18 17 9 9 12 10 12 11 11 12 11 12 12 16 15 14 
20 26 23 22 18 19 20 20 17 22 24 20 23 20 18 17 16 14 15 13 17 16 18 18 17 19 19 15 17 17 17 17 19 16 18 21 20 18 16 18 17 14 16 19 17 19 17 19 19 17 19 18 21 18 16 19 19 17 17 15 13 20 18 20 20 17 12 15 11 9 9 11 10 9 11 8 9 12 13 15 
22 21 18 21 18 19 17 20 22 19 19 23 22 19 21 15 11 18 21 19 15 17 18 16 18 18 17 16 18 18 19 19 18 17 19 17 19 16 18 16 13 17 17 18 17 20 17 25 20 20 17 17 16 19 16 18 20 14 17 12 17 21 16 16 19 15 11 9 10 13 10 8 8 9 10 14 12 9 16 11 
21 22 18 14 15 16 22 20 20 18 19 19 20 20 18 13 18 18 17 19 19 16 19 17 20 19 14 18 17 17 19 17 17 21 18 18 16 17 17 14 16 14 15 13 17 19 20 20 20 17 17 17 20 17 17 16 14 14 12 17 16 17 17 17 16 13 10 13 13 11 11 4 13 12 7 13 11 9 12 13 
17 19 18 18 15 16 19 17 17 19 20 19 16 21 22 20 21 19 14 17 16 17 19 17 16 19 15 16 16 18 19 18 19 21 18 18 16 17 19 15 13 14 14 14 17 19 18 16 17 17 17 18 17 16 17 16 15 15 11 13 18 18 14 17 15 17 12 11 14 10 10 2 5 8 10 11 10 9 10 7 
19 20 16 13 15 16 17 16 21 19 20 16 17 20 20 19 19 18 18 16 18 17 20 17 18 21 17 16 18 16 16 20 22 17 17 20 13 15 15 15 13 15 13 15 17 24 15 16 16 16 16 20 19 18 16 16 13 15 15 13 16 20 17 19 15 17 11 16 7 11 9 8 3 7 7 7 9 5 8 7 
17 18 16 14 14 19 19 20 21 19 20 17 20 22 19 19 19 17 17 18 17 17 21 18 20 18 14 16 19 20 16 17 15 18 18 19 17 15 16 15 13 17 14 17 20 16 19 17 16 16 17 20 20 15 16 16 16 17 14 15 16 17 17 17 18 15 15 12 11 12 13 7 11 9 5 9 11 8 8 9 
17 21 17 14 13 19 22 21 20 19 20 18 20 19 18 21 18 17 15 16 16 20 26 18 18 17 16 16 18 18 17 16 15 18 19 18 17 19 15 20 14 13 14 16 15 13 15 15 14 17 17 20 18 18 16 18 18 15 10 17 18 23 15 15 18 17 12 13 16 10 13 10 8 10 8 9 8 5 7 9 
16 20 19 16 15 17 21 18 21 22 20 16 20 22 21 22 17 16 20 16 18 19 17 19 18 17 14 17 17 17 17 17 17 16 19 15 16 17 16 12 16 15 13 14 16 15 15 15 12 17 16 13 18 21 18 16 18 17 13 15 17 20 14 16 13 16 13 12 12 10 10 13 11 14 11 7 8 10 9 1 
21 22 18 16 14 17 18 16 20 21 21 16 20 20 19 20 16 18 17 20 18 20 17 15 17 17 15 15 17 16 16 17 18 19 15 15 16 18 19 15 15 12 12 14 14 14 11 12 12 13 12 16 16 18 19 17 17 15 18 16 15 20 17 17 16 17 15 9 15 12 11 9 10 11 9 10 10 7 6 5 
20 20 16 18 20 16 15 20 17 18 15 17 16 20 20 19 17 17 16 18 21 17 18 17 18 18 15 14 17 14 18 18 18 15 19 15 17 16 17 14 14 12 13 16 14 14 13 16 14 13 15 14 17 19 18 21 19 15 16 15 17 17 17 14 17 16 13 13 11 10 11 8 12 9 8 12 11 12 8 9 
22 23 21 21 20 18 21 21 21 19 17 16 17 18 19 16 19 13 16 15 14 19 16 13 19 19 15 19 15 17 17 17 21 17 15 16 16 14 16 14 15 14 14 14 15 15 15 14 19 19 17 20 20 18 19 21 22 16 22 19 16 15 17 16 17 19 14 11 14 14 8 7 8 8 4 9 9 9 8 6 
16 19 21 19 23 20 18 17 18 16 17 14 18 17 16 15 13 16 18 15 15 18 16 14 17 17 16 17 21 17 19 16 18 15 14 14 15 13 15 12 13 12 11 11 15 11 16 13 16 15 15 17 19 18 17 18 20 17 15 15 16 17 15 14 16 16 5 5 11 12 8 7 5 6 6 8 9 7 9 8 
14 15 14 18 17 18 19 18 22 19 18 14 17 17 19 13 17 14 15 16 15 15 17 16 14 17 17 18 16 14 16 18 15 17 15 12 14 13 12 12 8 17 12 9 11 12 12 14 13 16 16 17 18 18 18 20 20 16 12 15 16 14 12 15 17 12 8 7 9 12 8 7 8 8 8 6 9 9 8 5 
10 14 12 15 15 15 13 17 19 19 13 17 20 18 18 16 12 16 17 15 15 14 12 13 15 17 15 18 17 18 14 14 16 15 15 13 12 13 12 13 15 12 12 13 12 15 11 13 17 14 13 16 15 12 18 17 17 15 15 18 14 18 12 17 16 14 6 7 9 4 19 5 6 11 5 8 6 4 12 10 
16 13 16 13 12 14 17 17 18 16 16 16 26 20 18 17 18 17 17 13 14 15 13 16 12 14 14 17 15 13 15 15 16 13 16 13 13 13 13 16 11 12 11 9 13 11 12 14 18 11 16 18 18 17 14 19 19 15 16 16 17 17 18 17 19 16 9 8 9 7 11 5 8 9 8 11 9 8 7 11 
11 12 14 12 16 11 15 18 18 16 13 19 18 20 17 17 16 13 18 14 13 18 17 13 13 15 14 16 14 17 15 13 16 14 14 15 15 15 10 15 9 14 14 11 12 16 16 18 16 16 16 17 20 18 19 19 17 14 16 14 19 17 17 17 16 16 12 10 10 12 4 9 7 6 8 5 7 10 9 10 
14 17 12 11 8 10 16 18 15 14 16 14 16 14 16 16 15 14 12 14 13 16 15 16 16 15 9 16 15 11 14 13 14 17 14 16 16 13 13 12 12 17 15 12 15 14 11 14 14 14 17 20 18 15 17 15 15 15 16 17 14 14 12 16 17 14 13 7 10 9 7 2 8 6 8 7 8 7 11 4 
16 12 9 10 11 13 15 17 18 16 15 14 14 15 15 16 14 15 13 11 10 14 15 13 13 19 12 19 16 14 15 15 11 14 15 12 15 15 16 11 11 14 13 12 13 15 12 15 15 15 15 18 20 17 21 17 15 16 15 13 13 18 14 15 18 15 11 9 9 7 6 4 9 2 8 9 10 8 7 8 


