P2
80 60
172
104 136 150 154 154 152 155 158 158 155 160 153 151 156 157 154 154 151 148 149 155 156 158 152 157 154 154 153 151 146 142 148 141 125 98 49 22 23 43 59 74 83 103 100 101 106 116 120 120 121 124 123 126 130 126 130 131 133 130 140 127 130 130 132 132 131 133 122 128 128 124 121 123 118 113 112 116 123 122 122 
108 137 146 155 151 154 153 156 157 157 155 154 150 153 158 154 153 145 146 151 153 155 157 153 154 155 155 154 152 146 142 145 140 125 95 44 15 25 34 54 70 81 93 96 98 106 108 120 115 119 122 121 124 126 131 130 135 131 130 131 129 128 129 128 130 132 126 127 122 126 128 128 121 122 113 116 117 125 124 127 
106 141 151 153 153 158 160 160 159 157 155 153 151 153 154 155 143 142 138 149 150 155 154 152 156 157 158 152 150 142 142 146 144 120 98 53 14 21 25 40 59 71 90 94 96 105 113 114 115 121 119 120 119 126 129 129 129 127 128 130 127 127 129 131 131 130 130 126 123 129 127 127 130 123 113 107 119 125 125 125 
110 143 145 155 155 154 157 159 159 159 160 152 146 156 158 156 144 141 143 153 156 158 158 160 156 161 155 155 151 147 141 143 141 114 93 47 14 10 20 34 47 54 69 87 96 106 113 113 118 120 117 119 116 121 121 129 126 126 129 131 131 129 134 131 131 128 130 128 126 126 129 130 129 118 111 113 119 124 129 127 
116 140 151 152 151 155 157 154 158 158 155 152 150 156 153 154 142 143 148 152 155 155 157 155 157 163 161 155 146 148 144 144 133 110 86 44 9 5 16 33 44 49 62 79 89 97 111 114 112 121 117 118 115 118 123 124 123 127 129 131 127 130 131 131 131 130 132 130 130 131 131 132 128 122 113 112 121 123 126 126 
111 147 154 153 149 157 157 160 159 156 158 150 149 156 154 152 143 144 141 153 153 157 160 157 161 159 157 154 147 145 138 144 136 108 88 30 8 8 15 29 29 44 58 75 88 98 108 111 109 115 117 119 115 117 122 125 122 124 128 129 126 128 132 129 129 127 134 129 133 128 132 127 123 120 111 111 125 126 126 127 
118 146 147 155 156 154 158 157 158 159 156 155 151 156 154 151 148 142 141 152 161 154 160 155 156 158 158 155 151 150 142 147 136 109 89 37 5 4 22 23 34 41 52 78 86 100 105 106 110 112 116 120 111 116 119 123 124 128 129 126 126 133 130 128 131 128 130 131 128 131 126 125 125 117 113 110 122 122 130 121 
118 151 157 152 156 159 155 158 162 158 156 155 150 154 156 153 146 142 145 154 162 159 160 160 159 159 157 156 152 151 147 150 140 113 88 35 9 12 14 21 34 41 54 78 83 98 107 102 106 111 114 114 116 117 118 121 119 126 125 129 124 131 132 129 131 131 132 129 130 129 130 129 126 117 114 111 122 120 123 122 
120 150 154 154 153 157 156 154 156 157 154 155 151 154 154 152 149 142 149 150 158 158 160 159 161 159 160 159 156 153 147 149 137 113 89 34 12 9 7 10 32 38 56 72 82 94 97 100 99 108 113 117 109 123 117 117 123 121 124 133 124 127 133 130 125 131 129 131 129 126 128 129 124 117 114 109 117 122 122 121 
121 154 147 151 154 162 158 157 158 156 158 153 151 153 153 154 153 150 149 145 151 158 159 154 156 156 160 158 154 151 149 149 136 116 93 31 13 10 4 16 33 45 63 70 81 89 90 95 100 105 107 112 113 121 126 126 124 122 122 126 126 127 128 130 129 127 129 129 128 125 127 130 124 118 110 105 119 119 119 121 
129 154 151 152 155 154 162 158 154 155 158 149 148 152 157 152 150 143 141 135 148 152 153 156 157 157 158 157 153 148 146 150 140 118 94 31 9 7 5 13 35 49 63 72 76 83 86 90 96 100 107 111 119 124 131 129 130 123 122 124 120 123 123 123 127 125 128 127 125 126 120 125 123 114 109 108 119 119 123 120 
125 154 151 154 155 154 155 156 154 154 154 147 147 149 151 148 137 130 135 136 144 155 158 157 157 155 154 156 150 148 147 147 135 114 91 36 6 7 5 18 29 46 62 72 77 83 86 88 90 99 105 111 124 130 131 134 131 124 121 124 119 128 123 124 127 126 128 125 128 123 123 120 122 120 112 113 122 126 118 120 
128 158 152 156 155 152 150 153 154 152 152 145 147 148 148 141 143 132 130 136 150 154 159 157 158 157 157 157 152 150 147 151 133 122 98 33 10 5 9 19 33 42 56 66 76 79 88 88 90 94 105 115 125 131 136 134 139 125 122 122 120 124 127 124 125 126 126 126 122 124 111 123 123 117 112 105 124 123 118 120 
130 154 147 155 154 149 149 155 155 150 149 148 144 150 144 139 136 131 125 130 141 152 154 157 156 155 153 158 150 149 145 150 135 114 98 33 9 7 7 19 32 39 52 68 71 85 81 91 93 96 100 112 116 128 132 139 133 128 121 121 121 125 130 121 122 125 127 125 123 123 124 124 124 116 106 111 122 122 122 116 
132 152 152 151 153 150 150 161 153 152 150 147 141 145 146 146 137 120 119 119 137 152 155 159 152 156 151 155 152 147 146 147 131 114 99 34 11 6 6 19 29 39 51 67 71 77 81 86 91 101 98 110 112 122 124 127 124 131 122 121 120 124 121 123 126 127 127 127 122 126 122 125 124 121 108 113 121 125 123 122 
131 156 148 151 151 151 149 154 153 152 151 147 140 145 142 144 137 126 120 119 136 153 156 155 154 155 153 155 150 152 144 147 129 112 94 33 12 0 7 22 23 34 47 63 70 79 80 88 91 91 97 108 114 126 129 129 125 121 125 124 119 122 124 121 124 130 128 131 130 125 122 122 125 115 109 106 122 122 122 123 
137 156 152 151 150 154 152 152 152 148 148 143 138 141 145 141 138 122 117 127 138 154 153 156 156 156 155 152 149 150 144 149 123 113 95 33 9 8 8 20 26 32 46 62 73 81 82 85 91 90 105 119 122 128 133 135 125 121 121 121 115 122 122 122 123 127 126 126 125 124 123 127 128 117 108 110 118 122 127 125 
136 152 149 149 153 150 151 149 149 148 149 147 135 145 138 125 116 115 117 127 131 142 155 152 154 161 155 155 150 149 144 139 124 114 99 37 9 3 3 16 28 36 42 67 73 73 80 88 95 104 111 114 117 126 129 127 130 134 125 124 119 119 119 117 120 121 120 122 122 126 123 126 123 111 105 106 121 123 119 122 
139 154 148 150 152 154 153 149 151 151 144 145 137 144 140 125 111 104 108 117 126 144 153 156 154 153 155 152 151 155 146 141 122 113 99 32 13 0 4 16 24 32 46 66 71 74 85 96 106 107 111 115 118 120 125 123 129 129 131 130 126 123 123 123 123 123 125 125 120 125 123 123 122 115 106 105 121 121 123 121 
141 154 149 150 150 154 149 150 152 149 145 143 136 141 138 125 114 113 108 113 131 143 155 153 150 153 158 151 148 149 148 138 117 114 96 30 10 6 6 20 22 36 49 62 70 77 92 99 102 104 105 108 109 115 118 119 123 124 131 133 127 121 120 114 122 117 121 122 122 123 122 125 120 110 104 104 115 122 126 124 
141 153 150 150 147 154 151 151 152 151 148 147 137 145 139 123 114 110 110 116 134 141 149 158 152 154 156 152 150 150 151 138 113 111 94 32 9 4 5 17 27 35 51 61 74 81 91 99 101 106 107 107 109 109 122 116 120 126 129 130 127 123 120 118 126 118 123 124 125 125 122 126 123 116 104 106 116 120 126 126 
139 150 150 148 151 151 149 151 149 147 149 147 141 144 135 125 124 126 122 113 134 141 150 152 151 153 155 154 151 148 147 135 113 111 94 25 11 4 3 19 27 36 48 63 73 84 90 95 98 102 110 106 107 113 116 119 119 128 132 128 127 123 117 119 117 120 121 122 122 125 125 125 121 111 104 104 118 121 123 123 
140 153 148 153 145 150 150 151 149 147 144 144 134 143 133 134 132 118 118 127 131 141 151 152 153 150 157 154 149 147 151 136 114 108 87 30 8 5 2 15 21 32 50 65 72 84 91 91 96 103 107 107 108 112 113 119 123 126 133 133 128 124 117 118 123 121 123 122 121 126 124 125 123 108 101 107 124 119 126 125 
143 147 148 146 148 149 150 155 150 147 148 141 135 142 136 127 118 118 119 115 127 140 153 151 152 151 152 156 148 145 142 125 110 107 86 30 11 5 7 14 21 35 47 66 74 88 94 96 96 103 100 104 104 111 115 115 121 124 133 138 130 123 118 122 123 124 123 121 126 127 123 121 121 110 97 111 122 119 127 125 
140 149 147 150 149 150 149 154 148 148 145 136 131 139 140 128 126 122 115 128 136 138 151 150 151 150 157 154 147 145 143 126 106 103 91 28 13 8 5 15 21 34 51 68 77 90 100 98 97 101 100 104 106 108 114 111 122 123 133 134 127 125 118 118 123 120 122 122 122 127 121 120 118 113 110 113 121 122 130 122 
139 152 151 146 146 148 149 151 149 146 145 134 130 140 137 129 126 131 122 122 135 139 147 154 151 150 153 150 146 147 144 123 106 103 87 26 11 7 9 14 22 35 54 66 84 94 100 97 96 99 98 101 105 112 107 111 122 121 133 136 132 131 116 115 123 121 120 119 119 122 117 122 120 113 114 111 121 123 124 123 
144 151 149 145 148 153 150 148 147 145 144 139 129 142 141 127 122 117 118 118 129 138 149 150 150 149 152 151 146 146 142 120 105 100 85 29 15 11 13 14 27 39 56 71 89 94 97 99 94 98 101 106 107 110 110 113 118 119 133 132 132 125 118 121 122 121 122 119 120 120 121 120 117 105 108 111 120 124 122 121 
144 151 148 150 151 146 148 152 150 145 145 130 121 138 135 127 127 119 119 117 130 135 143 148 149 154 157 153 148 146 139 115 100 97 80 25 16 16 16 19 31 33 57 72 90 97 100 103 97 98 100 105 106 107 113 113 112 114 121 127 127 122 115 111 122 119 123 125 124 127 122 118 111 104 106 116 121 125 125 125 
143 148 150 147 149 149 146 147 146 148 140 132 120 135 132 124 120 117 123 121 117 127 143 147 149 153 153 149 150 147 140 110 100 97 77 24 19 19 25 23 31 42 54 70 87 92 99 100 99 101 102 106 103 107 112 114 113 113 114 116 114 114 113 118 121 119 123 123 125 126 120 116 112 102 105 111 119 123 123 117 
143 148 151 146 146 147 146 149 152 148 144 130 122 140 134 109 98 107 116 114 115 131 144 147 149 145 151 147 146 148 136 113 99 93 78 26 22 25 28 28 35 44 59 69 79 81 90 95 98 104 106 104 104 108 109 110 112 112 110 107 103 109 114 114 118 115 121 119 119 122 120 118 110 102 110 118 121 120 119 124 
140 147 146 144 148 143 145 150 150 145 145 137 117 137 130 114 102 102 98 105 121 133 142 147 144 146 148 150 144 143 133 106 95 96 80 30 26 30 30 34 35 45 62 70 76 74 88 96 99 105 104 103 104 109 113 114 109 113 109 104 104 109 109 111 118 117 121 120 117 118 121 116 108 102 99 113 122 118 121 121 
140 141 149 145 147 145 147 149 145 150 145 140 121 136 128 106 99 98 103 112 118 134 144 148 146 149 148 152 147 144 133 106 96 93 77 25 27 29 35 38 42 47 62 73 76 78 84 92 96 102 104 102 104 109 112 114 112 114 109 107 106 109 110 110 120 117 119 117 120 121 115 117 108 100 106 111 121 121 126 122 
141 151 148 146 149 146 148 150 147 148 146 126 115 136 129 113 99 97 104 118 121 134 139 150 144 144 147 148 138 142 132 106 99 88 72 31 26 31 36 40 41 52 63 70 78 79 87 91 97 100 105 103 102 108 107 108 107 113 111 107 107 106 107 115 118 121 117 117 117 119 119 114 110 97 106 114 123 117 122 118 
134 144 149 146 148 146 145 147 148 146 140 122 122 132 124 110 88 91 111 115 127 137 138 146 145 144 146 148 138 142 127 102 94 92 75 26 26 32 35 38 44 52 59 69 74 83 87 89 93 96 100 101 97 98 102 106 108 108 108 102 99 111 108 112 117 116 120 116 120 117 113 114 107 96 104 117 121 123 118 117 
137 150 146 143 146 145 148 152 152 143 142 120 119 127 121 106 94 97 105 117 129 138 140 141 146 144 145 145 144 134 127 98 91 91 77 28 24 32 44 43 45 52 57 68 78 79 87 93 91 96 97 101 97 99 104 106 108 106 108 107 104 106 108 109 113 115 115 116 115 116 113 115 108 98 102 116 115 123 122 115 
135 149 150 146 143 146 144 148 147 147 139 121 115 125 126 110 109 104 107 121 128 135 137 141 143 144 143 146 143 142 123 103 95 89 74 31 30 35 47 44 45 44 57 65 73 74 82 95 93 93 98 99 96 96 104 104 104 106 103 108 104 103 107 107 111 110 115 114 115 116 117 112 105 94 104 112 119 123 120 116 
131 146 146 147 144 145 146 149 147 146 143 116 111 129 121 112 106 106 118 115 120 127 142 141 140 142 141 145 138 138 119 98 91 92 75 27 27 41 49 46 50 51 58 66 70 74 84 90 91 92 94 97 95 96 102 100 102 103 103 108 106 103 108 107 113 113 113 118 117 116 111 112 105 95 102 115 119 115 119 112 
125 143 148 148 145 147 150 147 146 143 143 118 115 128 122 115 117 120 111 111 101 109 139 143 141 142 140 141 138 133 116 96 95 92 74 30 30 41 46 49 50 49 55 63 69 72 80 88 92 93 97 93 97 98 99 98 96 98 96 105 102 102 104 106 111 114 111 113 114 115 112 109 101 95 110 114 117 117 109 114 
127 144 149 147 146 148 148 148 147 148 139 120 108 125 121 108 115 114 111 85 74 103 124 134 137 141 142 138 136 130 108 94 94 89 77 27 29 40 49 46 48 46 55 64 67 72 82 87 91 95 94 98 96 98 95 94 96 96 97 97 99 102 106 105 110 110 113 112 111 116 111 111 100 92 108 119 114 117 114 112 
125 148 149 145 147 149 147 147 147 145 142 117 111 129 121 107 79 72 71 60 72 83 103 114 120 130 138 138 118 126 107 91 88 91 71 25 24 37 47 47 48 49 54 64 63 72 82 85 88 92 96 99 96 97 92 95 92 97 102 101 102 105 108 106 107 111 114 112 112 117 111 105 99 98 104 116 117 116 117 115 
123 146 143 145 144 147 147 146 145 145 143 114 107 129 121 104 64 52 54 55 65 68 67 82 84 99 121 110 84 75 85 88 93 82 69 27 25 34 42 45 48 49 58 63 68 72 82 90 86 93 93 101 95 93 93 93 91 95 97 98 98 105 103 100 106 107 111 111 112 114 114 109 97 97 107 115 114 111 120 109 
126 148 147 143 146 147 146 148 146 145 144 120 106 122 116 103 74 51 51 49 54 61 65 66 76 78 81 82 74 71 77 85 88 89 70 25 22 28 44 44 48 54 57 63 69 68 80 82 87 94 95 94 89 92 93 91 92 92 101 99 95 102 102 103 104 107 111 108 112 114 109 105 103 99 107 111 114 112 115 107 
114 147 150 144 146 146 146 147 145 144 143 120 105 120 113 111 73 48 49 48 52 57 62 65 71 75 74 77 71 71 72 87 81 84 67 23 13 25 34 39 44 51 60 64 71 71 81 88 85 89 92 90 85 90 85 91 90 92 96 96 100 103 108 105 102 104 110 106 110 112 108 103 102 97 105 112 113 111 108 105 
116 142 142 142 145 145 144 146 147 142 142 119 104 121 116 108 79 43 46 44 48 51 54 63 64 72 72 72 69 70 76 82 79 74 57 15 8 12 29 34 41 54 54 66 72 69 74 90 86 87 88 85 80 83 84 86 89 88 93 98 95 99 105 102 104 102 105 105 107 109 108 102 95 90 101 110 109 102 102 99 
119 144 145 143 145 143 147 145 146 145 144 120 98 123 117 108 87 45 43 42 48 47 52 57 59 65 66 66 63 65 67 78 75 75 56 11 2 10 26 33 44 47 57 63 72 69 76 81 79 80 80 81 74 80 84 84 85 87 92 93 96 98 96 97 100 104 104 104 107 109 105 101 91 90 103 110 108 102 99 96 
113 142 142 145 144 144 146 146 143 141 140 120 95 110 114 111 86 44 37 38 41 41 48 49 53 58 61 61 59 62 64 76 73 65 48 5 5 17 33 36 48 54 51 64 70 71 78 79 74 79 78 75 69 74 78 82 84 85 87 93 89 96 96 100 101 103 103 98 104 103 104 96 86 92 101 107 105 99 99 97 
116 140 146 142 140 143 141 146 144 141 139 122 93 107 119 108 87 39 26 31 35 35 40 45 47 51 60 57 50 55 60 68 67 66 45 2 4 27 39 45 49 52 56 62 69 67 71 75 74 78 75 73 76 79 78 79 81 82 89 88 87 91 96 96 95 99 99 100 99 102 97 94 90 91 102 101 104 95 95 93 
113 137 138 141 140 143 142 142 140 141 137 118 84 100 111 107 89 46 27 20 27 31 35 31 35 42 47 46 43 49 55 65 63 61 40 0 9 33 47 51 49 59 55 61 64 67 72 73 68 69 69 72 74 70 80 82 77 80 85 89 86 90 89 94 96 100 99 98 104 102 97 96 94 94 99 102 100 93 93 85 
112 135 138 139 142 142 144 146 142 142 134 119 82 101 113 112 87 53 27 27 27 27 36 35 36 39 41 39 41 43 54 62 60 56 39 7 9 31 41 46 52 54 53 52 60 63 66 64 66 64 69 67 69 74 72 76 83 87 100 105 108 122 123 122 129 128 129 131 127 130 128 120 117 114 112 112 102 96 88 91 
112 136 140 139 140 140 141 146 143 142 139 118 75 90 114 109 91 58 30 27 31 31 39 39 41 41 50 47 47 48 51 50 52 49 36 5 5 24 37 46 55 53 51 52 54 53 55 59 54 62 58 61 61 59 67 71 106 127 132 140 143 146 147 148 148 149 151 144 150 152 149 147 146 143 129 140 118 94 86 89 
108 137 140 141 143 139 138 143 144 140 133 124 71 82 108 111 89 62 25 20 29 30 32 35 39 41 43 47 48 50 52 51 48 50 47 11 5 26 38 43 50 60 58 58 55 54 50 57 56 61 56 57 56 62 62 81 119 140 145 154 152 152 156 153 154 154 149 152 155 154 150 155 155 153 153 153 137 107 90 84 
109 125 136 140 140 144 138 143 140 140 135 123 70 90 106 106 92 69 27 23 30 27 27 34 33 36 39 38 34 40 36 40 36 39 39 21 25 26 31 43 46 55 52 56 61 58 58 62 62 62 67 67 60 74 78 107 129 141 154 155 153 156 157 155 157 155 162 157 161 157 154 160 158 155 158 157 147 111 86 87 
112 123 136 139 144 147 141 142 141 139 136 128 69 82 107 113 91 68 30 19 24 26 27 28 31 32 32 35 29 32 31 33 32 35 32 29 43 50 43 40 49 52 55 59 59 58 59 59 63 65 75 72 72 75 99 123 138 144 161 162 156 159 160 161 161 160 162 157 161 161 161 161 165 162 162 155 150 118 89 87 
108 122 137 143 146 142 140 140 139 142 133 124 71 84 103 108 91 69 32 24 22 24 24 29 31 27 31 33 27 30 25 29 29 38 55 65 73 73 66 51 45 51 55 55 57 55 59 56 60 65 69 72 74 91 116 139 150 152 156 162 159 163 164 157 162 161 163 159 160 164 161 161 165 164 160 156 158 128 96 89 
114 116 133 137 141 143 139 143 139 139 141 129 77 75 102 99 92 70 45 35 30 28 32 32 37 36 37 27 26 28 25 29 40 68 75 81 84 78 76 52 46 52 50 56 56 51 51 59 61 65 75 72 79 100 125 144 154 149 161 164 160 163 164 161 166 166 161 162 164 164 167 161 168 161 165 161 157 136 105 94 
113 114 129 135 134 136 140 139 140 138 142 127 78 74 98 103 94 78 56 42 40 37 46 43 41 41 47 37 32 31 34 45 61 78 81 89 88 85 81 63 49 46 52 55 56 53 57 62 61 67 68 72 80 114 141 149 151 155 162 164 158 165 163 167 165 165 168 168 164 169 170 164 166 165 163 159 161 143 117 98 
104 119 132 140 135 137 138 141 139 141 138 130 90 77 101 105 93 76 55 43 46 39 45 46 45 47 42 43 40 49 49 57 68 75 75 88 91 90 84 67 59 56 60 59 57 55 61 64 67 69 71 76 89 123 150 151 157 158 157 164 164 164 167 162 168 166 167 165 166 167 165 167 165 164 168 168 161 152 130 99 
111 115 128 137 138 134 135 141 137 134 137 130 84 73 99 102 101 78 56 42 47 41 48 46 45 47 46 44 40 53 58 61 72 74 79 85 87 88 84 65 61 64 63 66 63 59 63 68 69 74 78 85 104 138 150 156 159 159 160 160 167 161 165 163 170 169 168 166 163 166 165 167 167 167 171 164 165 158 132 103 
110 114 124 132 136 135 136 139 140 139 140 133 97 70 74 100 94 79 61 47 48 50 52 49 54 49 48 43 52 57 55 60 65 74 82 86 89 88 78 68 63 67 68 68 68 66 70 76 75 80 87 97 119 146 151 160 158 160 157 168 166 165 168 164 171 167 167 164 164 169 169 166 167 169 172 166 168 156 141 111 
104 112 128 125 134 134 132 143 139 139 137 129 102 83 79 105 96 80 72 53 55 63 61 60 57 50 50 52 51 60 58 61 57 70 86 88 88 85 76 76 73 74 69 75 76 73 78 77 82 85 91 107 132 152 156 162 159 158 159 162 160 163 165 164 170 166 170 168 162 171 170 168 166 168 171 166 169 158 148 119 


