P2
80 60
50
36 42 41 38 39 38 37 39 43 35 40 39 38 41 40 42 36 35 36 36 37 36 35 35 36 40 38 36 36 37 40 38 42 47 38 34 34 31 32 37 33 32 37 36 32 32 33 33 39 37 39 36 30 34 36 35 37 40 43 35 31 33 36 36 30 32 29 30 26 26 27 27 25 30 29 28 32 27 28 24 
39 35 40 41 36 34 38 43 39 37 40 39 37 41 42 42 41 37 36 37 37 35 34 36 38 38 39 35 36 35 37 40 45 38 34 34 35 32 35 32 34 34 36 35 32 36 33 33 35 36 33 36 34 34 36 36 36 35 36 34 32 33 37 32 32 29 28 27 26 26 24 24 26 26 26 25 29 33 24 27 
36 38 36 32 37 43 41 40 39 38 38 37 34 40 40 40 37 36 37 35 39 37 36 34 36 39 39 36 37 39 36 40 37 37 38 33 37 33 33 33 33 35 35 34 33 32 34 31 38 37 33 31 28 34 33 34 36 34 35 31 30 31 29 39 30 30 28 28 24 25 27 25 27 24 24 26 25 29 25 20 
40 38 38 35 39 44 42 44 36 38 41 38 34 35 39 36 37 40 36 38 37 38 35 38 38 38 34 40 41 37 35 37 36 33 36 35 35 34 33 33 33 34 34 37 32 34 33 36 37 36 38 34 30 35 37 39 36 31 35 33 30 29 33 35 32 28 25 31 26 28 30 28 29 29 30 29 28 25 25 26 
45 38 38 42 42 43 45 44 39 39 38 38 36 42 41 39 39 36 39 37 38 38 36 37 37 38 40 37 38 39 35 36 37 36 35 37 34 35 38 34 33 33 42 40 33 35 39 38 36 39 41 35 33 37 37 42 38 34 36 32 33 31 34 36 32 30 28 33 33 31 28 25 28 30 29 26 24 33 30 28 
36 43 43 39 38 45 39 41 39 39 40 37 35 42 40 38 39 38 39 40 38 37 36 36 37 38 37 36 35 37 35 37 33 32 33 34 34 32 34 33 34 36 35 37 36 35 40 37 36 34 37 37 33 31 33 36 34 36 31 33 33 33 29 32 32 34 29 31 33 30 29 26 27 28 28 27 27 30 25 27 
38 34 38 35 38 42 47 43 42 40 38 41 35 38 38 38 44 37 41 41 39 35 37 34 38 37 40 39 34 35 39 34 32 34 33 35 33 32 33 34 34 36 34 33 33 35 34 32 35 36 34 35 33 29 33 36 36 38 43 33 31 33 30 30 29 29 27 30 27 29 26 23 28 27 24 27 27 26 22 23 
45 42 43 38 38 42 45 39 39 37 38 38 39 40 36 39 40 38 43 42 44 37 36 37 35 38 39 40 35 37 35 34 33 34 35 38 32 33 34 33 36 34 32 32 28 34 36 34 33 34 35 34 33 30 31 34 34 35 34 31 31 31 35 29 29 32 29 29 27 29 25 23 21 24 25 25 26 27 27 27 
45 47 40 40 42 39 46 43 37 44 39 37 42 36 38 39 37 37 41 43 39 37 36 37 39 38 38 35 36 35 37 34 33 35 39 37 33 32 32 33 32 34 31 33 33 32 34 33 34 35 35 37 32 30 33 32 35 33 39 35 31 33 33 31 32 30 28 30 29 29 26 21 24 27 23 25 29 25 26 28 
48 43 38 42 40 42 42 47 37 36 36 38 37 35 34 38 42 38 40 40 40 40 38 37 39 40 39 36 34 38 31 32 34 36 34 36 35 33 32 34 32 33 30 33 30 32 30 32 34 33 32 31 29 27 35 34 34 34 28 31 31 31 36 31 29 33 29 28 29 27 25 24 25 23 24 24 27 23 23 20 
43 47 40 42 45 43 46 42 41 39 38 35 37 35 35 38 39 37 40 41 38 36 34 36 37 38 35 36 35 34 32 35 35 34 33 34 33 32 33 32 29 31 30 29 28 31 31 33 34 34 32 31 31 27 33 34 35 28 31 29 30 32 31 32 30 30 27 29 29 27 22 25 25 25 26 30 26 25 19 23 
42 46 45 42 41 40 44 41 42 38 34 36 36 33 40 37 33 36 36 31 34 35 35 36 36 36 36 37 36 34 32 36 34 35 30 32 29 33 31 32 30 30 28 30 29 34 32 30 30 33 32 32 27 28 31 33 31 31 31 30 29 31 31 29 27 29 25 28 26 22 23 22 25 27 26 23 25 14 20 23 
46 44 41 44 40 42 40 40 38 36 34 36 33 35 40 35 35 37 35 37 35 35 35 35 35 35 36 38 33 37 33 35 35 34 32 30 34 30 35 33 32 28 31 30 30 33 31 31 30 28 33 34 26 23 30 35 32 30 32 27 27 30 31 32 28 28 27 26 27 24 9 20 20 22 24 21 20 24 21 25 
41 41 46 42 44 41 40 37 36 37 33 37 35 35 38 38 32 33 37 29 36 33 35 34 31 32 33 36 38 36 36 32 36 34 36 31 29 31 30 30 28 30 32 28 29 34 35 33 30 35 32 33 28 25 28 33 35 32 30 30 27 28 30 31 24 28 26 27 25 22 18 21 21 19 22 24 32 26 24 20 
41 36 43 45 40 43 39 42 36 35 35 37 36 37 33 32 34 34 35 33 32 34 34 35 35 38 34 34 33 38 34 30 34 32 33 35 30 29 31 31 28 30 33 29 30 32 31 31 32 33 35 30 26 28 29 34 36 50 32 28 28 29 32 28 25 27 24 28 23 24 24 24 23 23 19 29 27 27 29 22 
46 45 41 41 42 44 41 41 35 35 35 36 36 35 36 38 37 33 37 33 35 36 33 38 33 37 34 34 40 37 34 31 34 32 30 31 29 30 30 30 28 32 31 30 30 31 33 31 30 31 32 26 30 28 32 40 39 35 32 32 28 32 31 29 29 28 25 33 25 24 26 22 22 22 21 24 28 26 25 24 
41 48 43 44 41 45 38 39 35 33 33 36 34 34 38 35 38 36 36 31 39 37 35 31 38 35 33 33 38 36 33 34 33 34 31 30 30 29 28 33 30 29 28 28 32 36 31 30 30 32 29 33 32 36 42 40 37 37 37 33 29 33 33 29 28 29 26 28 26 27 30 22 26 24 21 19 26 24 23 23 
43 45 41 46 41 45 39 42 36 33 32 35 35 32 33 37 36 37 34 34 38 35 32 34 35 36 33 38 39 34 35 33 34 34 33 35 33 29 32 31 30 27 29 32 31 33 30 27 34 29 29 33 35 31 38 41 39 43 39 35 29 32 34 31 28 30 28 31 31 28 27 24 22 24 23 26 28 25 25 23 
41 41 41 40 38 44 42 39 36 38 38 33 35 37 33 38 35 36 33 33 33 35 36 34 33 34 35 39 35 37 36 35 34 33 38 34 31 37 30 33 30 33 32 39 27 33 32 29 29 32 32 34 39 35 38 38 41 38 36 31 28 31 31 32 28 35 27 29 31 31 28 24 24 23 25 25 26 24 25 22 
40 40 37 37 38 48 35 43 34 34 37 38 34 35 37 37 35 34 38 34 38 37 32 32 33 37 36 36 35 38 33 34 31 29 32 31 32 33 31 30 32 30 31 29 29 30 32 30 29 30 33 33 32 33 37 38 38 34 34 31 30 30 36 31 31 34 31 33 29 26 27 25 22 24 20 19 27 27 22 21 
41 42 38 36 39 36 41 37 32 36 35 34 33 39 41 39 37 38 36 35 34 34 31 34 35 36 35 32 35 34 43 33 31 31 31 33 30 29 29 30 30 34 32 30 25 31 31 27 30 30 33 34 31 32 37 38 37 32 34 28 32 31 35 30 32 30 28 28 27 26 27 25 23 23 20 21 23 22 23 20 
41 42 38 38 38 35 38 36 32 33 36 35 39 38 39 34 32 35 36 34 32 34 36 34 36 34 36 32 34 35 32 34 31 31 27 31 31 30 25 29 34 31 28 28 27 27 28 27 29 32 32 28 32 33 34 33 37 34 34 30 28 28 33 33 31 32 25 29 27 28 26 20 23 21 22 22 25 25 22 20 
41 43 38 38 37 36 36 40 35 34 33 36 36 38 34 32 32 36 36 35 35 30 31 33 32 35 33 33 33 31 31 30 31 30 29 32 30 29 29 31 29 29 29 29 25 26 27 27 29 32 32 29 30 32 35 38 35 32 30 32 32 28 31 28 30 30 30 27 28 25 24 25 24 23 20 25 24 22 20 23 
38 42 38 38 38 40 41 44 37 34 35 38 36 35 31 34 32 37 36 33 34 33 30 35 33 33 36 35 32 34 32 30 31 33 28 29 29 29 29 30 30 28 26 27 27 29 28 25 30 36 31 29 31 33 36 36 35 33 33 31 27 28 30 35 30 31 30 28 24 27 25 24 22 22 24 21 24 22 27 25 
43 40 39 37 38 40 41 40 36 36 35 36 34 33 35 36 34 37 37 31 36 31 34 34 35 36 36 32 33 31 30 31 27 29 26 28 28 28 27 29 25 26 28 29 31 30 27 29 29 29 30 30 29 29 32 35 36 34 32 34 28 29 29 29 32 31 28 29 27 24 25 20 24 23 23 20 25 21 26 24 
40 40 38 36 38 36 35 42 38 34 34 35 33 34 40 40 32 37 36 34 34 33 36 34 34 35 33 31 32 31 32 30 31 33 30 27 29 26 26 31 26 25 30 29 25 28 27 28 30 29 28 28 30 30 32 33 35 32 34 34 26 29 30 27 29 31 27 27 24 28 25 19 23 24 22 25 29 22 27 20 
39 38 38 37 37 38 39 42 37 35 34 34 35 37 38 32 33 36 34 32 33 32 38 39 38 33 34 33 32 32 30 29 33 32 31 30 28 27 25 29 25 27 27 27 26 28 29 28 30 25 28 29 28 29 30 39 34 28 30 28 28 26 27 29 30 28 24 26 26 24 24 22 26 23 24 23 28 24 24 23 
40 37 38 42 38 36 45 39 35 36 36 36 34 36 35 35 35 35 33 33 33 30 30 35 36 32 34 36 34 30 31 30 27 28 29 26 27 27 26 27 28 27 28 29 25 25 30 28 29 26 28 30 29 30 30 42 36 30 29 27 29 28 30 29 27 25 23 27 28 24 26 22 23 27 24 23 25 26 25 22 
38 43 43 39 37 40 36 40 35 38 35 36 39 38 36 35 34 35 37 35 32 31 31 32 33 34 32 33 35 34 32 29 31 28 26 28 27 28 28 27 25 27 28 26 24 27 26 26 25 28 28 29 27 27 31 35 36 29 24 25 26 28 29 32 26 27 26 29 23 25 26 22 21 20 19 23 27 25 26 24 
41 38 41 36 39 37 40 36 39 36 35 38 38 35 37 35 32 33 33 32 33 31 31 32 33 33 32 32 31 33 28 33 30 27 29 28 28 26 25 27 27 27 28 26 28 29 29 29 29 30 30 29 29 28 35 38 33 32 25 27 28 28 31 33 28 29 29 28 23 24 23 19 22 17 21 25 26 18 22 17 
42 39 41 35 32 34 37 39 35 35 33 34 34 37 35 31 35 31 34 32 31 28 33 33 36 34 34 35 33 31 31 32 28 31 31 29 27 27 29 29 27 28 31 29 28 25 27 28 29 27 28 23 25 30 32 30 37 30 25 25 26 26 30 29 28 27 25 28 26 22 22 22 20 21 19 23 25 18 17 21 
43 37 35 38 40 39 39 36 36 34 37 33 32 37 40 36 36 32 37 34 32 30 33 35 34 32 42 35 33 31 33 31 27 28 30 28 28 27 28 29 29 30 32 29 28 26 25 24 26 31 28 29 27 28 29 32 29 28 27 23 22 26 30 32 26 30 22 28 27 23 24 23 23 20 22 22 19 18 21 23 
36 38 40 41 41 41 39 39 33 33 33 33 34 36 37 36 34 36 35 34 33 30 31 34 38 37 35 34 34 32 31 30 28 26 26 30 27 27 28 30 28 31 32 29 27 25 25 26 28 29 29 30 23 28 30 32 30 28 25 25 24 26 28 26 27 27 24 23 24 22 21 21 22 20 20 22 22 19 20 15 
37 38 36 36 39 38 40 39 37 35 35 35 33 39 34 35 35 30 34 30 31 32 31 36 35 35 33 38 35 35 30 27 28 27 30 27 27 26 27 30 28 28 32 29 27 26 29 24 27 28 30 31 23 28 33 35 30 27 27 27 24 26 28 26 27 25 27 27 23 22 22 20 23 20 23 21 24 21 21 20 
37 40 39 39 36 35 39 38 37 30 35 36 36 36 42 35 39 33 32 34 32 33 34 33 35 35 33 35 38 34 29 32 28 27 30 26 26 25 29 26 24 27 29 27 27 27 28 30 28 28 28 31 29 28 36 32 30 29 28 22 25 26 27 27 28 25 22 26 24 24 23 21 21 21 20 21 23 21 24 17 
37 37 39 36 36 35 37 37 33 34 31 31 35 32 33 39 35 33 33 31 30 31 30 33 31 33 31 31 29 35 32 32 30 28 27 28 29 27 26 27 24 30 25 26 29 26 29 29 28 25 27 28 28 29 26 29 27 26 29 25 23 21 29 26 24 26 23 27 21 24 21 20 20 19 24 22 20 20 25 20 
38 41 39 40 39 37 37 37 33 34 30 34 33 35 34 33 33 38 38 34 31 30 31 33 30 34 29 30 33 33 29 30 29 30 27 29 28 25 25 25 26 27 27 25 22 24 27 25 27 27 25 29 30 27 27 31 28 28 27 22 22 27 24 27 22 28 22 23 22 19 18 19 19 19 17 17 19 17 12 18 
38 38 38 40 35 35 38 40 31 31 33 33 32 34 33 35 33 35 38 37 34 29 32 32 30 31 29 31 31 29 33 32 29 28 29 26 26 26 29 25 25 28 25 27 24 27 27 26 28 24 27 28 25 29 28 33 29 26 27 24 25 25 24 25 24 33 25 25 20 21 21 18 17 16 14 17 16 17 17 17 
40 41 43 42 37 39 40 39 34 33 33 34 36 32 32 36 33 36 39 33 34 34 33 34 31 31 34 29 30 29 29 30 31 29 28 29 25 25 26 28 23 27 27 29 28 28 28 27 25 26 30 28 26 28 33 29 28 28 27 21 21 22 22 24 23 27 23 26 23 23 20 16 19 19 15 20 16 19 22 23 
44 41 41 36 37 45 40 41 34 35 36 35 33 35 35 31 33 31 35 35 36 33 33 35 35 31 34 33 31 32 31 29 30 29 28 26 26 27 28 30 26 28 32 30 27 30 30 26 29 28 32 31 29 30 32 30 28 28 20 24 21 24 23 22 24 23 22 23 22 21 20 18 19 19 18 13 23 20 26 26 
37 40 36 36 35 39 35 43 33 35 34 35 32 37 37 35 33 33 30 33 33 33 31 33 31 35 37 33 28 29 28 29 30 31 28 26 27 24 28 25 25 24 28 28 28 32 30 27 29 29 30 35 32 33 31 31 26 25 25 20 21 23 23 19 18 20 18 20 17 27 19 20 20 20 18 20 25 25 32 25 
40 39 37 36 36 36 36 40 33 32 32 32 31 35 40 31 36 34 35 34 31 31 32 34 35 33 32 31 33 31 28 26 27 28 28 27 31 27 27 25 22 26 25 24 24 27 29 26 27 30 30 32 27 33 30 29 26 25 22 19 22 22 22 22 22 19 19 19 18 20 24 20 17 14 14 17 21 26 20 18 
41 41 39 37 36 35 38 38 35 34 34 33 34 36 36 32 31 37 34 31 32 31 33 33 34 34 30 32 35 32 26 26 27 29 28 30 27 28 25 26 26 23 26 28 25 27 31 30 30 27 27 28 30 32 31 30 26 22 21 21 21 24 23 25 22 23 20 24 18 17 19 17 18 16 13 17 25 20 19 20 
41 40 39 36 33 34 37 34 32 32 34 33 36 35 36 32 33 32 37 36 33 33 31 31 33 30 35 30 31 30 31 28 29 30 28 27 26 27 25 27 24 25 28 27 26 27 34 36 26 28 30 27 25 28 27 28 28 24 22 19 19 21 24 22 22 24 21 20 19 19 18 15 15 15 18 18 22 21 16 20 
37 40 39 33 34 32 39 36 33 29 30 31 36 36 36 34 30 32 34 32 37 32 30 33 34 33 29 28 30 29 29 29 28 30 27 27 25 25 24 26 26 26 27 26 27 29 30 29 28 23 26 25 24 26 29 25 26 26 20 19 19 23 23 21 19 26 20 21 21 18 15 12 16 14 14 21 21 17 13 21 
36 34 35 34 35 33 39 33 34 32 32 32 33 35 38 33 37 32 32 32 35 31 32 33 30 31 28 27 29 31 29 28 30 31 29 28 24 26 24 28 24 26 25 26 24 27 29 27 24 24 26 25 24 26 27 24 23 22 20 16 19 21 21 23 22 24 22 18 19 17 18 12 14 16 18 14 20 17 10 20 
31 32 30 34 32 33 35 33 30 31 33 37 36 35 36 33 35 32 33 35 31 29 33 32 29 31 25 25 32 30 28 27 28 29 26 24 29 24 25 25 25 23 26 29 28 25 29 25 24 27 23 26 23 24 31 28 24 23 20 21 19 22 22 22 22 23 20 21 16 17 16 12 13 14 13 16 18 16 19 19 
32 32 31 32 33 33 33 37 31 30 31 33 35 35 35 36 34 35 38 32 34 33 33 27 32 31 30 29 28 32 27 27 26 28 29 25 23 25 22 26 24 26 23 28 27 28 29 26 25 27 25 25 26 26 29 32 25 22 19 19 20 19 20 22 19 20 17 18 14 14 16 14 17 15 12 13 16 16 11 18 
29 38 31 34 30 36 40 42 35 33 32 34 35 35 38 36 36 35 32 34 34 33 37 36 33 33 31 28 31 28 28 28 29 25 26 24 25 26 27 27 23 25 21 27 26 22 25 22 21 22 24 25 25 27 30 30 24 23 21 19 20 18 21 21 16 18 17 16 14 14 16 12 13 13 13 11 14 15 13 11 
38 38 35 32 35 37 38 39 34 34 35 33 37 34 34 42 35 34 34 35 34 32 32 34 32 33 31 30 32 33 25 29 26 28 27 26 24 24 26 24 24 22 25 27 23 23 26 22 22 22 26 24 22 28 30 27 24 23 23 18 18 21 24 19 18 18 16 18 16 17 12 10 11 14 9 13 17 10 14 10 
32 35 29 33 34 35 33 34 33 35 32 31 33 32 37 33 35 35 36 33 29 30 31 30 31 33 30 26 30 29 23 24 28 27 26 23 24 22 25 24 20 20 22 24 21 24 25 21 20 22 22 24 22 28 31 27 25 20 22 19 18 19 18 19 17 16 16 16 17 12 11 9 7 7 10 10 10 9 6 16 
38 34 32 38 36 41 39 37 31 33 32 34 29 31 41 34 34 35 40 36 32 28 32 31 30 32 28 30 28 33 26 25 24 25 30 24 23 22 22 18 23 24 26 26 23 23 23 21 21 21 22 21 25 29 30 33 25 25 21 18 18 15 18 17 17 15 11 16 13 11 16 10 10 11 7 18 12 9 13 12 
36 32 36 34 39 36 38 38 33 32 32 33 30 29 34 37 36 30 33 32 29 28 28 32 33 31 30 30 29 30 28 29 24 27 25 23 24 23 22 20 26 26 21 24 19 25 27 21 22 25 24 20 26 31 29 29 30 26 26 22 18 18 19 17 17 16 13 12 14 13 17 7 8 13 9 9 12 10 11 5 
34 38 40 37 43 41 36 32 31 32 31 32 31 32 33 34 32 28 32 28 29 29 28 31 30 32 31 31 31 28 27 25 25 24 24 23 22 18 22 22 20 21 22 21 19 20 25 22 20 23 21 21 26 26 26 33 27 27 24 20 19 19 19 16 13 14 13 13 13 17 12 8 8 10 9 11 8 7 8 12 
39 39 39 33 36 33 37 36 34 34 33 35 33 35 31 33 31 33 34 31 29 25 30 29 29 34 33 31 27 30 26 24 26 27 22 22 22 21 21 18 17 16 23 19 19 20 22 24 21 21 21 22 27 28 27 28 24 19 18 17 19 16 20 20 15 13 11 14 13 13 12 9 9 9 11 11 10 7 4 8 
34 37 35 32 33 29 32 36 34 31 34 33 33 35 35 35 34 29 30 32 31 27 27 29 30 30 31 27 28 27 23 23 21 23 24 20 22 20 20 23 21 23 22 20 20 22 21 21 19 20 23 24 26 30 33 24 22 18 16 16 16 18 20 21 18 16 10 14 11 12 15 10 6 7 8 9 9 6 8 7 
34 39 37 31 30 33 35 36 34 35 32 35 41 36 36 32 32 32 31 31 34 29 30 26 28 30 27 27 29 28 24 23 24 24 22 23 20 22 22 20 22 20 23 22 19 21 22 22 23 17 23 24 23 28 22 25 21 19 17 16 16 15 15 20 16 15 11 14 8 10 9 7 6 10 9 12 13 7 3 5 
32 36 34 31 36 36 36 36 33 35 31 37 37 37 39 30 28 33 31 31 34 31 31 30 29 30 32 31 26 30 25 27 24 24 25 19 23 20 20 21 19 22 21 24 20 18 18 17 20 21 24 27 26 20 23 20 20 18 18 18 15 15 18 24 13 12 11 10 9 10 7 4 10 8 6 8 13 7 6 3 
36 32 30 35 31 32 32 40 34 34 34 33 32 39 30 28 31 32 29 28 32 29 28 29 27 28 26 30 31 31 24 26 22 24 22 24 21 20 19 20 17 19 23 24 18 15 22 17 20 20 21 26 15 18 21 22 18 19 16 22 14 17 18 23 13 13 9 12 9 8 7 6 4 6 7 5 9 8 6 5 
40 31 33 33 34 33 33 34 32 32 33 32 29 31 33 34 28 30 28 29 30 28 29 31 29 28 27 29 26 31 23 25 25 24 23 22 23 21 19 20 19 19 23 27 18 19 19 20 24 22 21 24 14 19 12 15 16 17 17 17 15 15 15 17 13 11 5 11 5 6 6 1 6 5 4 6 12 8 0 0 


