P2
80 60
147
135 137 135 133 136 139 140 137 134 134 136 142 140 141 135 138 140 136 136 132 126 127 125 125 121 124 121 118 122 120 122 124 121 118 115 114 115 107 106 103 99 95 66 49 44 39 77 123 129 129 128 131 129 131 133 138 137 139 133 134 136 131 134 131 132 132 130 125 115 118 124 126 124 130 137 133 125 128 137 134 
137 137 139 137 133 140 136 136 136 138 133 140 134 140 137 138 140 138 137 135 129 126 124 121 120 122 122 122 123 122 122 123 118 118 118 116 112 108 103 106 102 95 62 53 48 41 73 123 126 127 129 128 132 134 135 139 140 141 136 134 134 132 130 129 132 132 127 127 121 120 126 128 124 129 134 136 128 129 132 131 
142 138 140 138 136 140 141 139 138 134 137 143 137 140 140 137 137 139 139 134 131 129 124 125 122 125 121 122 123 121 122 120 122 119 114 114 111 109 106 101 99 92 67 53 45 41 78 117 130 126 129 129 127 132 137 137 138 139 134 136 137 134 132 130 134 132 133 130 123 118 124 125 123 131 134 134 130 132 132 129 
138 137 140 136 136 138 139 139 139 134 143 141 138 140 139 139 138 135 135 139 130 129 127 127 120 126 122 123 120 120 121 121 120 117 117 115 111 111 109 101 98 92 67 48 46 48 80 121 129 128 127 128 129 132 132 137 133 137 134 135 138 135 131 132 131 134 131 129 118 115 119 126 122 125 130 131 126 134 132 129 
141 138 139 141 137 138 135 138 138 137 134 143 136 139 137 137 138 136 136 141 129 127 127 126 126 124 125 122 120 119 122 124 122 123 122 120 120 119 118 109 100 91 71 48 45 46 90 124 128 130 132 129 130 134 134 135 136 135 136 135 134 134 135 135 132 131 132 127 118 119 115 120 120 124 134 130 131 131 132 130 
141 140 140 139 134 139 136 137 142 135 136 139 140 140 140 139 140 137 136 139 128 128 128 129 127 128 128 127 126 127 128 129 126 129 125 122 119 117 118 107 100 95 73 46 39 47 94 124 127 127 128 129 132 129 132 138 135 139 139 137 134 134 133 134 132 133 129 126 119 118 119 127 121 123 133 132 127 134 134 130 
138 141 138 142 137 136 135 137 139 137 137 139 138 140 142 138 141 134 139 137 129 129 131 128 127 127 130 131 132 132 131 128 127 126 127 121 120 119 118 111 107 101 79 47 39 43 94 120 127 128 127 129 129 131 134 136 135 137 139 136 135 133 131 131 132 131 132 131 119 121 121 124 124 126 131 130 128 131 134 134 
143 137 140 140 135 138 133 135 141 137 138 140 139 140 137 134 139 136 139 138 134 130 127 130 126 132 132 133 128 131 129 128 126 127 125 127 120 117 117 113 113 106 82 53 37 38 95 120 124 127 132 130 131 131 130 138 136 135 135 137 134 132 130 130 132 132 134 132 127 124 127 128 124 129 134 135 127 130 131 130 
147 142 140 142 138 143 137 137 136 141 135 141 140 136 137 137 139 139 138 138 129 128 127 126 128 125 131 132 133 132 132 128 130 128 129 127 121 117 116 110 108 106 86 50 40 44 102 124 125 126 130 132 129 127 132 134 134 136 134 137 133 129 128 129 128 127 129 135 129 126 124 123 126 123 132 129 127 124 132 133 
142 143 142 141 137 139 137 141 136 135 136 141 139 141 138 139 142 140 136 134 129 129 131 130 132 133 135 136 135 131 123 127 128 129 128 122 123 116 112 109 107 102 93 49 40 44 100 120 125 128 126 129 130 132 133 133 132 134 131 134 132 129 127 129 125 129 131 134 131 121 120 115 111 112 125 127 126 125 129 134 
145 139 140 140 137 141 142 135 137 138 135 141 137 141 138 139 138 139 138 133 134 134 133 133 133 135 134 136 134 130 130 129 128 130 127 121 120 119 114 113 108 104 92 54 35 42 102 116 123 126 127 129 126 129 134 134 132 136 131 131 129 131 126 127 131 127 131 127 123 117 114 113 109 108 120 126 125 131 131 132 
141 143 138 140 134 138 141 138 137 131 134 141 138 141 136 138 137 135 136 137 137 133 133 136 130 131 135 133 134 129 130 128 127 127 123 122 121 118 115 114 108 104 93 58 34 41 102 117 120 126 124 128 127 131 130 132 132 135 131 132 129 129 127 130 132 127 130 129 116 115 111 110 105 105 119 128 126 123 132 133 
144 139 140 143 134 137 140 135 138 134 128 139 139 139 132 141 139 135 134 137 136 131 130 129 131 132 131 133 132 129 130 126 125 120 122 116 116 111 111 107 105 104 97 59 44 47 112 124 124 124 126 126 125 125 126 130 133 132 130 131 132 126 131 127 126 127 126 128 116 119 100 106 108 116 125 123 124 130 129 133 
146 142 141 140 135 138 137 135 139 135 135 139 135 135 134 136 136 136 134 133 132 131 129 131 132 132 133 133 131 128 128 124 120 121 117 111 109 103 100 101 104 100 95 64 44 49 107 122 123 126 127 126 123 128 130 134 134 135 133 134 130 126 122 124 128 127 127 123 115 118 110 102 108 114 124 120 129 130 132 132 
144 140 136 142 138 135 134 140 136 135 132 140 134 137 133 136 137 134 133 134 131 133 131 132 129 131 132 131 133 129 126 121 118 117 112 108 108 105 99 97 101 101 97 73 42 44 110 118 125 127 125 124 126 128 130 134 135 146 137 131 128 128 125 124 126 126 121 120 113 111 101 95 98 110 113 121 120 126 134 129 
143 142 137 143 135 136 134 136 136 132 131 136 131 135 133 136 133 132 134 134 127 130 130 130 127 132 131 134 132 128 122 121 114 112 110 108 108 98 96 99 103 98 94 73 44 47 111 120 125 122 126 124 125 131 132 132 136 136 139 135 130 127 125 122 126 127 123 122 119 109 96 90 91 99 112 120 122 124 132 131 
141 141 139 138 134 136 135 134 133 133 130 134 131 137 134 136 136 135 133 133 133 132 129 128 129 129 130 132 131 126 123 119 115 111 106 105 102 98 96 96 100 96 90 79 47 62 117 119 120 122 125 124 123 128 130 133 133 137 134 133 131 126 125 121 125 125 123 127 117 112 102 95 96 101 120 124 120 129 131 126 
141 143 140 140 135 137 136 132 134 133 133 134 131 130 131 134 134 135 134 132 130 127 130 128 131 132 130 133 131 127 120 120 114 113 109 106 103 99 98 99 96 91 91 83 51 61 116 119 123 120 124 126 126 129 134 129 133 141 133 134 130 125 125 119 121 126 122 122 122 116 100 98 93 106 115 121 121 126 131 130 
144 145 140 139 136 138 138 132 134 133 132 136 132 132 131 135 132 132 135 133 129 131 132 133 130 131 130 129 130 127 124 120 117 115 109 106 102 99 98 97 97 93 90 85 53 60 117 117 120 122 123 125 125 129 132 132 130 132 132 132 129 127 122 119 125 125 121 119 116 112 96 95 98 110 111 115 119 126 128 127 
145 144 142 144 138 141 136 135 133 132 131 135 134 133 134 133 134 136 133 133 134 133 136 134 131 130 133 129 129 129 123 123 120 118 116 109 105 105 104 103 102 95 90 85 56 56 117 120 121 121 125 123 124 128 129 130 129 128 128 131 129 121 121 121 121 122 114 101 98 96 94 92 92 97 109 113 115 126 134 126 
140 141 138 139 135 142 136 132 137 129 134 136 137 133 132 130 133 131 132 131 132 132 132 132 129 129 131 129 128 129 132 125 121 119 115 112 111 108 106 103 99 97 91 87 64 62 116 119 122 119 122 127 126 125 128 128 127 128 128 130 127 123 122 123 122 118 114 103 92 88 84 90 90 97 98 105 113 121 129 130 
140 138 138 139 133 141 136 133 134 130 136 138 136 134 131 131 131 132 131 132 129 130 131 130 128 131 130 128 132 125 127 125 121 120 116 114 112 108 102 100 100 94 91 82 61 72 116 118 120 121 125 124 123 124 127 130 127 130 130 126 126 121 119 121 121 122 112 104 91 89 88 85 88 91 99 109 115 123 127 128 
141 139 137 145 133 138 135 134 137 134 133 141 136 136 135 136 131 133 133 134 131 130 130 130 130 134 132 131 130 125 127 127 121 120 115 112 111 103 101 100 95 87 90 84 66 80 119 116 123 121 122 123 127 123 125 125 129 129 128 128 127 122 118 121 122 123 112 108 92 87 88 86 80 88 102 110 110 119 125 128 
143 139 140 141 135 140 134 139 139 134 134 137 132 133 133 136 134 136 134 133 133 131 132 129 131 133 131 132 129 125 125 122 121 120 114 112 110 104 102 98 95 90 89 88 64 85 113 115 120 124 125 122 127 126 128 125 129 127 127 128 127 123 119 122 123 122 112 101 87 92 90 89 85 87 105 112 110 121 126 126 
143 140 137 139 132 132 133 137 141 134 133 135 134 134 135 135 136 135 135 133 130 132 134 132 131 128 131 129 128 125 125 124 119 120 118 112 108 101 101 96 96 89 88 83 68 85 119 117 123 121 122 126 123 125 126 128 125 129 126 129 125 120 120 119 122 117 108 100 90 90 95 95 86 86 106 115 111 121 125 124 
139 138 137 136 135 135 135 137 137 136 134 136 132 134 137 136 134 134 136 134 133 132 133 133 131 130 129 132 127 125 122 124 119 119 114 111 111 103 102 99 97 93 84 86 66 88 119 121 121 121 120 121 122 127 125 126 129 128 125 127 126 120 116 121 126 117 108 109 95 110 106 98 84 89 111 112 107 118 127 123 
139 137 135 136 135 137 139 134 137 133 132 136 134 132 136 135 137 136 135 133 132 135 137 134 129 132 132 129 132 126 123 119 121 114 117 109 110 105 104 97 95 91 89 91 69 88 118 114 120 121 119 121 123 124 127 128 128 127 122 127 125 116 117 120 120 120 110 113 108 105 100 99 94 102 107 111 108 114 126 124 
139 141 137 140 135 138 136 136 134 135 135 134 133 134 133 135 136 135 134 134 133 135 134 129 129 131 131 127 128 125 124 119 114 112 107 109 102 103 110 96 95 90 91 89 71 96 121 118 120 120 121 122 119 121 125 126 124 126 125 127 126 113 114 116 122 120 111 115 101 100 95 94 93 104 111 114 116 122 129 126 
142 140 141 138 134 138 134 134 135 134 131 133 131 134 133 134 135 132 133 135 132 133 130 131 128 131 130 128 128 125 127 119 113 107 108 104 99 103 110 103 92 91 93 89 74 99 119 118 117 120 120 122 120 123 125 125 126 126 123 128 123 111 115 120 121 117 109 106 97 100 97 88 90 100 104 109 113 124 129 120 
142 140 138 137 130 136 130 135 137 136 131 133 133 133 132 134 136 135 132 132 130 131 130 130 130 128 129 129 126 125 125 118 109 110 110 101 100 102 110 100 94 95 90 84 75 100 118 118 118 119 124 120 120 121 126 125 126 123 123 127 121 108 115 116 120 117 111 104 104 97 96 94 91 100 111 110 114 121 127 121 
140 139 137 136 131 130 133 132 134 133 132 134 134 135 135 136 138 132 131 133 129 128 126 131 129 130 131 129 128 127 126 116 109 111 110 103 99 107 109 102 98 94 94 87 80 105 118 120 120 119 123 123 123 122 125 126 127 126 123 125 121 106 112 117 119 116 109 103 111 103 95 102 100 107 113 110 111 118 125 126 
144 139 137 137 132 134 131 132 136 136 134 135 134 135 132 135 137 132 134 132 128 129 128 133 130 130 133 131 128 124 128 114 112 109 107 100 99 107 109 102 99 95 93 88 82 107 121 122 118 120 121 121 122 123 124 127 126 130 122 123 119 108 112 116 117 118 104 98 106 107 101 102 95 103 112 110 108 118 122 121 
141 137 136 136 134 133 131 133 139 134 133 134 133 133 133 133 136 135 132 131 130 130 129 133 132 131 130 132 128 124 126 115 110 110 107 99 98 105 111 100 99 95 93 87 80 108 118 121 118 119 121 120 123 122 122 125 128 125 124 125 117 105 113 114 115 116 104 106 101 99 91 96 96 102 107 106 107 117 125 120 
141 140 138 137 132 134 129 134 134 132 132 136 131 134 133 134 136 133 134 133 128 128 126 132 129 131 127 129 127 132 129 118 110 110 107 99 98 107 108 100 96 92 93 82 77 110 121 118 117 118 120 122 121 122 123 127 125 125 125 126 112 106 110 115 118 115 110 111 104 96 87 92 97 104 107 108 106 117 125 124 
140 138 138 135 130 135 132 133 134 131 134 135 132 133 131 134 135 136 132 132 134 128 130 127 130 127 126 128 127 128 125 118 109 109 107 100 99 108 109 99 94 92 90 79 73 111 121 119 119 118 119 122 121 122 123 124 125 131 119 120 112 100 111 113 116 113 108 111 103 100 97 100 99 103 110 107 108 121 125 120 
141 138 137 131 129 132 131 131 136 133 133 133 135 134 130 134 137 137 136 134 131 127 129 130 132 127 127 130 125 127 125 117 113 113 105 99 98 107 104 98 95 90 92 76 79 110 119 122 119 119 120 120 121 122 124 124 126 125 124 124 109 106 108 113 114 110 99 103 95 104 103 100 99 107 102 108 109 121 127 117 
142 139 133 133 132 130 129 126 137 135 134 136 132 132 131 135 138 137 134 133 129 129 129 129 130 128 128 129 126 127 128 121 112 109 103 96 95 107 108 103 95 91 90 79 76 109 120 120 121 119 122 122 121 126 125 125 123 126 122 125 114 99 111 112 114 113 94 80 79 97 99 96 85 90 96 106 106 118 121 121 
142 142 137 134 129 131 130 132 139 139 132 136 135 133 133 134 137 139 131 133 130 128 129 130 130 130 129 126 128 126 127 118 110 111 106 98 99 108 107 102 93 92 91 77 77 112 120 122 118 120 122 119 120 127 122 126 124 125 124 125 113 97 113 112 114 114 90 80 75 80 85 87 87 90 99 107 108 117 121 118 
141 136 137 130 127 133 129 131 135 136 139 133 133 134 130 131 138 136 134 131 130 127 129 129 129 128 128 127 125 126 126 117 111 109 104 95 100 104 110 101 93 91 87 76 78 110 122 120 119 121 124 123 123 125 127 127 126 128 122 123 113 101 106 111 113 108 92 78 78 80 77 82 88 96 101 109 113 116 122 119 
137 134 132 132 128 131 127 128 132 135 135 136 136 135 134 132 135 133 134 133 133 127 125 131 129 129 129 129 126 126 124 118 111 109 105 99 102 106 107 98 92 90 87 80 79 114 121 120 118 121 124 124 126 126 126 125 127 125 123 124 108 98 108 111 113 103 85 79 75 73 79 83 97 98 102 106 110 117 122 122 
138 138 132 131 127 134 129 131 132 131 136 133 130 137 132 133 135 133 134 131 129 130 128 128 131 129 133 128 125 124 125 117 112 106 105 105 103 106 105 97 92 89 88 79 79 116 122 120 122 122 122 126 124 125 128 127 127 124 127 121 105 98 106 107 110 102 83 72 69 70 73 89 91 94 101 106 114 120 129 120 
139 138 135 132 125 130 128 126 128 132 128 133 133 133 131 134 137 132 131 133 128 128 124 129 128 130 129 129 126 123 124 116 109 104 105 108 110 106 103 96 93 87 90 83 80 115 121 121 119 123 124 123 122 128 126 126 128 123 122 120 100 96 110 112 107 103 85 68 81 78 76 93 90 86 102 107 115 120 121 118 
137 139 137 132 125 130 129 127 131 131 131 134 129 131 130 134 133 133 133 127 129 127 127 129 127 126 128 128 126 125 123 117 107 104 105 107 103 108 107 99 90 91 91 78 84 116 123 124 123 120 126 120 125 126 124 127 125 122 123 120 100 99 113 110 108 102 77 62 69 74 84 91 93 98 106 111 113 122 123 115 
138 137 131 130 126 130 127 128 132 132 133 139 131 132 130 132 132 131 130 132 130 128 127 129 128 128 127 125 127 123 125 113 110 104 103 101 102 106 105 97 92 92 90 81 88 116 124 130 125 123 127 124 121 126 123 124 126 122 124 119 98 95 106 108 108 100 76 70 68 81 84 92 103 102 106 109 116 125 121 117 
138 133 127 128 124 125 128 126 131 132 134 134 131 132 134 131 134 133 131 133 133 130 127 128 126 125 126 123 122 125 120 114 110 105 101 104 100 105 105 98 91 89 88 83 87 121 125 122 121 124 122 122 122 124 125 123 126 124 119 120 93 97 105 106 106 99 77 80 86 80 85 94 101 102 113 115 114 119 121 119 
137 130 125 126 126 125 124 123 128 133 128 137 131 133 131 136 135 131 131 132 130 128 126 125 127 129 126 126 122 125 123 114 106 104 104 104 102 107 104 93 91 90 92 79 90 117 122 120 121 119 123 123 123 123 123 122 124 123 122 117 92 96 105 106 105 97 81 83 79 80 92 96 101 105 113 113 113 117 118 117 
135 136 131 133 124 128 125 125 130 128 132 134 132 132 130 133 133 131 129 131 132 128 128 129 129 127 130 126 124 128 123 113 112 105 105 103 101 106 102 94 91 92 91 78 87 117 121 121 121 123 123 121 123 121 125 124 125 123 120 113 84 100 107 107 104 96 81 80 82 96 98 97 103 108 113 119 114 116 114 119 
135 134 132 132 125 130 123 128 126 129 130 133 131 132 130 135 132 132 130 131 128 127 126 127 129 124 126 123 123 128 119 111 109 107 107 104 107 104 104 96 89 97 90 79 88 119 123 120 121 121 119 121 123 123 125 126 124 125 123 113 83 101 103 103 100 94 93 90 93 98 98 97 95 98 117 118 119 118 114 112 
137 135 134 133 127 126 126 129 127 128 130 131 131 134 130 135 132 131 131 129 129 128 129 126 125 128 126 127 125 128 119 116 111 110 109 106 106 105 100 94 90 92 86 76 92 116 121 119 118 119 122 121 121 123 125 126 125 121 122 110 79 104 101 101 102 93 91 97 90 98 92 85 63 77 107 116 117 120 116 113 
136 138 137 138 133 134 129 128 125 131 131 134 132 133 132 132 135 133 130 130 127 129 126 128 125 126 123 124 124 127 124 115 114 111 106 103 104 104 102 93 92 93 88 74 94 117 120 116 117 119 121 120 123 124 126 126 125 121 118 112 78 105 102 103 100 92 89 92 94 99 85 66 54 68 114 121 114 116 115 116 
139 141 136 138 133 133 133 130 128 131 131 133 133 131 131 130 132 133 130 130 126 128 127 125 128 126 126 124 125 121 125 112 107 104 101 101 101 103 101 96 90 92 88 76 93 113 116 115 119 119 122 118 122 127 124 127 126 126 120 101 79 103 105 99 97 83 63 63 72 74 56 47 51 73 108 115 109 115 114 107 
140 139 139 135 133 136 131 128 134 132 135 136 132 133 133 133 132 133 132 131 132 126 128 128 125 131 127 125 122 122 121 110 104 103 107 101 100 103 100 100 92 91 86 74 93 115 119 116 120 121 122 120 122 126 126 124 126 123 121 100 80 100 104 103 93 82 42 38 40 39 36 40 42 63 101 104 102 110 112 99 
139 137 138 135 131 134 130 129 133 130 130 135 131 131 128 133 134 133 131 132 129 129 129 125 126 125 123 122 123 123 120 109 104 101 104 101 101 103 102 97 93 93 83 75 92 115 119 118 117 120 121 119 122 124 127 127 124 127 122 102 81 102 101 101 94 72 33 27 21 30 32 42 43 52 62 67 69 92 99 91 
139 136 133 135 137 134 132 131 130 131 131 135 132 131 130 129 130 130 129 130 126 128 126 126 126 123 121 124 123 117 122 110 104 100 102 101 102 102 103 92 88 88 82 75 95 114 118 116 120 118 121 117 121 126 124 129 130 122 120 99 79 100 101 96 95 73 30 24 24 26 31 33 41 46 47 50 46 58 67 74 
132 132 131 138 131 130 129 127 133 129 131 135 132 130 126 127 132 129 129 129 127 127 125 123 125 124 128 122 124 119 121 108 107 101 101 100 97 101 98 96 90 89 82 81 99 113 114 116 120 122 123 121 123 124 124 127 128 125 114 89 81 103 99 98 88 75 27 22 20 22 28 29 33 40 42 48 45 49 54 61 
135 133 133 133 128 128 127 128 128 129 133 134 134 131 126 128 129 132 129 129 128 127 122 124 123 125 124 121 121 120 117 104 99 101 102 101 97 102 99 92 90 88 82 84 105 112 118 118 121 119 120 121 124 125 122 124 128 127 110 84 79 103 97 91 91 72 28 19 16 20 26 29 30 35 36 40 36 44 53 50 
132 135 128 132 128 129 128 130 131 129 131 136 139 128 127 128 130 132 128 133 128 126 122 126 123 123 121 120 120 117 118 107 103 102 104 102 101 103 99 95 90 89 86 86 104 113 119 117 121 119 119 119 120 124 124 126 126 125 106 76 86 101 97 92 87 69 21 16 13 20 17 24 24 29 39 43 35 44 49 45 
135 130 128 135 128 130 127 131 130 130 133 135 132 131 127 128 126 130 133 129 127 127 124 122 125 121 121 120 119 118 118 105 103 99 101 98 99 102 101 94 89 91 87 82 107 115 121 120 119 121 125 123 119 122 127 123 125 125 107 71 82 101 94 91 88 64 22 10 18 13 14 19 25 25 31 36 35 35 41 43 
136 130 130 132 126 130 128 125 128 129 130 134 130 128 128 126 128 128 130 131 126 126 123 124 122 122 120 118 119 117 116 107 99 97 99 101 100 103 100 95 90 89 83 78 107 113 118 118 120 119 125 125 122 124 123 127 123 122 101 68 82 98 96 91 86 60 12 4 4 15 14 19 17 20 29 28 25 31 37 30 
130 130 129 128 123 123 123 123 125 125 130 136 131 129 130 128 129 131 130 129 126 125 122 123 121 121 121 122 119 119 115 104 96 96 96 100 103 103 101 93 93 90 85 86 111 117 123 119 122 119 124 125 123 128 123 129 122 122 98 67 84 97 95 92 88 62 12 8 0 7 9 13 12 15 25 28 27 25 32 30 


