P2
80 60
257
40 45 39 43 36 38 41 40 42 45 40 38 41 36 38 34 19 25 38 43 45 46 37 35 46 53 60 57 63 62 59 59 56 61 61 59 56 59 59 59 58 60 58 59 59 56 61 59 60 59 59 62 64 59 60 61 60 61 59 58 50 63 66 61 62 62 60 59 57 63 64 64 62 67 66 68 65 65 60 58 
43 38 39 41 41 38 41 44 39 47 44 42 37 40 41 32 18 28 38 45 48 45 34 33 47 51 63 60 61 60 61 63 58 63 62 60 58 59 57 58 60 60 59 58 59 62 58 60 61 61 57 59 58 59 62 63 61 62 57 57 59 61 63 62 66 62 62 61 59 63 65 66 66 71 64 63 67 64 65 61 
37 45 38 41 39 35 39 41 43 44 43 42 42 42 38 30 14 29 40 45 46 40 32 37 51 56 64 60 60 64 61 63 59 62 60 61 60 59 61 58 59 59 57 59 60 62 58 61 60 60 59 60 60 59 57 62 56 54 60 61 57 64 61 63 66 63 63 60 62 62 68 65 67 66 65 63 63 67 66 64 
42 49 43 43 39 42 43 38 41 43 47 38 44 41 37 30 13 28 42 46 43 42 35 39 52 57 62 60 60 62 60 60 61 57 67 60 64 57 63 58 62 59 61 59 59 60 61 61 65 62 59 59 62 56 58 60 55 58 55 61 64 64 65 59 61 63 62 59 58 64 67 67 61 63 65 62 63 67 65 62 
55 57 48 46 45 40 44 40 41 44 42 38 39 42 42 29 15 31 37 45 44 40 38 39 48 60 67 58 57 61 61 57 57 57 58 61 61 59 65 59 61 60 62 58 60 62 59 63 62 62 61 60 60 59 56 61 58 55 56 59 59 64 65 65 64 63 62 61 62 64 67 65 63 68 66 66 65 64 63 60 
65 62 56 52 45 44 46 42 44 44 42 41 38 45 45 33 16 34 39 48 44 43 40 40 54 66 65 62 61 60 61 56 58 56 60 60 61 60 64 59 59 59 62 59 59 60 67 64 65 64 60 65 58 62 59 64 56 58 62 60 59 62 63 65 64 63 63 66 67 64 68 66 63 67 67 64 69 68 63 66 
61 61 57 57 44 40 42 42 42 42 45 45 39 42 40 28 20 36 41 48 47 45 43 42 55 62 63 61 62 64 58 57 58 58 61 60 64 61 65 58 62 59 57 60 60 64 64 68 64 64 57 61 61 60 59 60 57 65 65 62 61 63 63 65 64 65 63 65 66 64 64 67 63 66 68 67 65 64 63 64 
58 59 58 49 38 45 41 40 39 42 43 42 41 43 39 28 20 38 42 47 50 44 41 39 51 62 63 61 64 62 58 58 55 57 58 65 62 61 63 62 61 58 59 61 60 63 61 61 59 65 61 63 64 59 64 68 58 59 61 61 58 64 66 63 64 65 65 64 66 62 65 67 64 66 64 64 63 64 63 68 
61 63 56 44 42 39 40 40 41 43 46 41 43 38 35 26 18 39 38 47 49 44 38 44 60 63 62 62 65 64 62 58 55 57 59 63 62 60 60 56 61 56 57 59 61 59 60 63 63 62 64 62 63 61 60 60 59 58 59 60 58 64 64 62 66 66 66 63 61 64 65 64 70 64 65 62 62 63 60 60 
62 63 59 45 40 41 42 40 41 43 42 39 42 39 35 30 20 35 38 46 46 43 39 41 49 61 64 62 61 61 60 60 59 59 61 63 63 57 60 57 60 56 58 59 60 58 56 61 59 63 60 59 62 58 60 59 56 49 56 61 57 65 63 64 62 67 67 62 65 65 62 70 68 66 62 65 63 63 63 61 
63 60 61 52 47 49 46 42 41 40 43 41 40 36 36 23 19 36 45 45 46 41 36 42 50 60 64 60 61 61 61 60 57 59 59 60 60 60 63 58 57 58 60 57 57 62 57 62 61 63 58 62 63 59 57 64 60 53 59 58 61 61 65 63 66 64 64 68 61 65 62 68 66 65 63 67 65 63 62 63 
60 58 58 54 54 55 53 40 40 41 41 39 35 38 32 22 13 35 37 44 45 40 37 42 53 61 60 61 62 61 60 61 61 58 61 60 61 61 62 59 63 60 60 61 61 60 63 61 61 60 57 61 62 55 57 57 59 54 57 59 59 66 65 63 65 65 61 61 62 61 65 63 67 66 62 68 66 65 62 55 
55 52 51 64 56 53 50 43 37 39 43 39 37 34 31 21 16 36 41 43 46 42 37 43 51 59 60 60 61 66 62 60 59 60 59 58 59 56 61 57 59 60 59 59 64 61 62 61 62 60 58 60 57 56 57 62 58 60 58 59 60 65 68 65 66 66 67 64 64 63 59 65 68 64 69 66 62 67 61 65 
47 46 51 56 52 52 49 43 38 38 42 36 35 36 28 18 10 37 38 44 47 38 35 40 52 59 61 57 62 62 59 59 60 61 61 60 61 58 59 56 60 59 58 63 59 62 64 62 64 65 61 60 58 59 58 60 59 59 60 61 61 64 63 62 66 66 64 63 63 64 64 63 65 67 66 64 65 68 65 62 
47 48 47 51 48 49 49 46 35 37 37 36 35 35 31 16 16 39 39 43 41 36 34 43 53 58 62 59 61 60 60 59 56 56 62 61 59 58 59 56 59 61 59 60 58 61 60 62 63 63 61 61 60 57 59 61 61 64 59 59 61 63 65 64 67 66 68 65 61 65 66 66 67 67 64 63 65 67 63 63 
49 47 43 49 46 49 51 47 39 33 37 34 35 34 30 17 16 36 37 44 40 37 35 43 48 59 61 60 60 63 60 58 57 57 63 59 59 58 58 60 61 61 60 58 59 59 62 59 62 61 59 62 61 59 57 60 58 61 63 59 62 66 66 62 66 68 64 64 66 64 63 68 70 65 64 68 66 70 65 66 
47 46 46 49 47 51 52 52 36 36 36 31 29 32 33 18 18 35 39 43 43 37 35 41 53 59 61 60 60 58 59 59 61 62 63 60 59 59 60 57 59 60 61 60 58 63 61 60 58 62 60 63 59 57 59 58 59 62 59 61 59 63 64 64 67 65 67 69 64 66 66 69 75 68 63 65 63 69 65 63 
47 50 44 47 47 46 50 49 39 33 35 33 32 30 27 19 20 31 38 43 40 37 38 41 53 64 62 61 59 61 59 59 62 62 59 61 60 58 59 60 62 62 58 58 60 61 56 57 61 60 56 61 56 60 61 58 55 63 61 62 64 63 65 64 64 67 63 67 65 67 67 71 71 68 66 65 66 67 62 63 
45 46 42 50 48 48 51 51 40 32 34 35 31 38 27 13 20 32 40 43 42 37 42 43 55 59 64 58 62 58 60 59 62 63 61 61 61 61 63 63 62 62 59 64 59 59 59 58 59 58 59 59 62 56 59 60 59 59 61 63 63 64 64 64 66 68 65 69 64 65 70 71 67 62 67 66 67 68 65 67 
43 46 48 47 47 41 48 50 35 31 33 31 33 31 25 15 16 31 42 42 37 36 45 44 50 59 61 59 58 64 63 61 58 59 59 60 60 61 61 60 62 60 57 57 60 56 56 58 58 61 58 62 58 55 57 61 56 56 58 59 61 62 63 65 66 65 65 66 67 69 67 68 68 65 64 61 62 65 63 63 
49 45 43 47 43 41 37 36 29 34 34 33 34 35 24 13 24 31 40 40 39 37 40 45 56 60 59 57 63 60 62 61 60 58 61 61 59 59 62 58 60 61 58 58 59 59 57 60 61 63 57 60 59 56 60 54 55 54 58 65 62 63 62 64 68 66 66 65 67 68 71 71 67 70 63 64 63 67 66 62 
42 46 43 46 43 41 32 34 31 33 32 35 36 34 24 11 23 33 37 38 36 34 39 49 54 61 61 57 59 63 64 59 59 59 61 59 57 60 60 60 62 61 60 57 57 58 56 61 58 57 58 59 58 59 60 59 52 55 59 62 60 65 65 66 68 68 66 69 68 70 70 72 69 70 66 66 66 68 68 66 
41 41 43 47 42 31 28 31 31 29 30 32 35 31 22 10 21 33 40 40 36 38 35 38 55 62 63 62 60 61 58 61 59 57 58 58 58 58 58 59 60 59 58 58 62 57 56 57 59 61 61 60 61 58 56 57 53 53 59 62 63 67 67 64 68 70 66 64 66 69 68 72 70 67 67 67 67 70 66 67 
41 40 35 40 36 32 30 36 32 31 31 31 31 30 24 11 18 33 41 38 37 32 34 39 51 58 59 60 61 59 57 60 58 59 58 60 57 57 60 57 58 59 57 58 58 59 55 57 57 63 62 61 60 57 54 55 55 55 62 61 60 63 64 65 71 66 70 67 69 71 66 71 70 68 66 67 67 68 67 68 
38 37 35 37 38 34 28 27 31 34 30 25 29 29 25 10 21 34 36 37 35 33 34 39 52 61 58 60 60 58 61 59 57 58 59 55 55 56 55 57 58 58 59 60 62 54 57 60 61 61 56 60 56 52 53 55 51 55 59 61 63 65 68 66 72 68 69 70 69 70 71 74 69 72 68 69 68 71 69 73 
38 34 34 35 32 32 27 28 27 30 31 26 29 30 22 10 22 32 30 35 33 28 35 41 53 60 60 58 59 58 58 57 57 54 55 57 58 56 59 59 58 59 58 60 59 61 61 60 59 60 56 57 56 58 53 52 52 55 62 64 62 65 67 66 71 69 70 66 66 67 70 67 69 69 69 68 68 72 66 69 
32 27 26 27 30 29 30 25 26 27 28 29 30 24 22 11 14 29 32 32 27 28 38 39 52 58 60 60 59 58 60 58 56 57 61 56 56 57 58 56 59 57 64 58 60 61 56 59 58 56 56 58 61 56 55 54 52 54 56 62 62 65 67 64 69 68 72 70 68 67 70 73 71 68 66 64 69 70 70 67 
25 27 20 24 24 24 25 24 24 26 27 24 24 26 17 12 14 26 28 31 27 31 34 36 52 59 60 60 59 60 58 59 57 55 58 59 58 58 59 60 56 59 60 58 58 57 57 56 58 58 56 58 55 55 57 58 57 57 62 65 68 67 67 66 72 69 70 71 69 68 70 71 71 72 68 68 68 70 68 68 
24 20 19 20 18 19 23 23 21 22 25 24 25 21 16 10 12 24 25 30 22 23 33 37 51 59 60 61 61 58 57 62 58 60 57 57 58 59 64 59 62 59 59 59 57 58 59 59 57 59 56 56 57 55 60 65 64 65 68 69 68 70 69 68 73 71 72 71 71 69 74 72 71 70 73 68 70 69 65 73 
26 18 18 21 17 22 22 20 25 27 24 27 22 23 14 4 14 25 23 24 16 22 31 36 52 58 61 60 60 62 61 61 57 56 61 62 59 61 63 61 61 59 61 58 59 60 57 54 57 62 62 65 62 64 59 61 57 67 74 69 69 68 71 70 69 71 75 73 71 74 71 74 73 74 70 75 69 71 66 70 
19 19 13 16 19 19 20 21 19 23 22 25 23 20 12 1 14 23 15 21 16 19 28 31 49 58 61 59 62 63 61 60 61 61 66 63 60 62 65 63 64 60 62 62 60 60 56 60 64 65 63 66 66 63 67 84 85 80 78 72 66 72 67 75 71 72 69 76 72 72 75 76 73 73 72 71 70 72 71 68 
17 18 15 13 18 23 19 17 17 23 25 20 21 19 9 7 11 21 20 15 14 22 24 36 52 59 63 59 62 61 60 62 62 65 67 72 65 65 64 65 65 62 60 60 61 63 59 66 65 66 63 64 67 65 62 92 109 108 108 104 88 85 78 74 75 75 73 78 74 76 78 75 73 73 74 70 70 74 68 71 
16 17 17 16 17 16 18 21 21 20 21 19 20 20 12 3 8 19 18 19 13 17 25 33 50 58 62 59 61 63 65 65 65 91 123 135 103 78 64 68 66 62 66 66 67 68 63 65 65 67 64 66 62 55 63 104 113 116 118 120 120 122 112 105 94 85 81 82 85 79 78 78 74 75 75 76 74 75 70 78 
10 19 17 18 23 27 33 31 33 38 32 38 25 22 16 11 14 15 16 16 8 15 18 30 45 54 59 58 59 63 66 67 67 115 149 153 138 84 65 73 68 69 67 67 64 65 64 66 63 63 59 60 56 58 59 107 116 118 122 128 126 132 129 126 132 122 114 99 93 84 83 86 79 76 77 77 77 75 73 71 
40 51 53 53 57 59 63 60 63 62 65 63 55 58 57 52 33 16 17 18 8 12 19 25 42 52 55 54 59 60 63 66 68 124 175 180 159 83 81 85 78 68 68 67 67 66 65 59 60 59 58 61 59 59 68 111 117 124 127 127 128 134 135 137 142 136 134 128 126 117 105 93 85 86 78 77 78 75 74 76 
69 74 68 72 71 71 71 68 67 69 73 66 65 69 70 67 57 22 12 11 2 9 13 23 46 50 56 55 55 58 63 67 69 124 187 201 161 93 82 76 79 71 65 62 65 64 63 63 58 58 57 61 59 57 72 119 120 124 124 130 127 136 139 141 144 141 142 141 134 135 132 130 117 106 94 83 82 84 76 78 
77 78 76 79 75 74 72 73 74 73 77 73 66 72 73 71 62 21 13 12 2 9 13 19 38 51 55 53 57 59 59 67 64 102 146 156 142 101 69 63 73 63 64 61 59 61 60 62 59 59 58 60 61 61 83 123 122 125 129 134 136 135 141 143 149 145 142 139 137 139 139 139 133 129 123 113 101 90 85 88 
80 82 80 77 77 79 78 75 78 78 78 76 73 75 75 71 63 38 11 7 3 3 15 15 37 48 54 52 52 58 59 61 66 98 128 133 131 118 81 68 63 62 62 61 61 63 58 60 59 60 57 61 60 61 93 130 123 126 131 133 136 142 144 143 151 149 145 145 141 141 139 139 138 140 130 128 120 121 103 98 
81 84 85 81 81 83 81 81 82 81 80 78 73 78 74 78 71 53 10 9 0 3 15 17 37 50 53 53 54 58 57 64 79 103 110 115 111 113 108 80 62 62 64 61 60 59 60 59 59 61 62 61 66 63 105 128 122 129 133 137 138 145 144 146 151 150 152 143 144 147 142 140 144 138 130 135 128 133 118 109 
82 90 83 83 81 85 82 82 83 81 84 80 77 80 79 78 73 66 29 7 2 5 14 18 41 47 57 54 56 57 62 74 90 98 99 106 108 108 105 100 69 60 60 60 58 57 61 63 64 65 62 64 65 62 111 131 125 130 132 138 142 148 148 150 152 152 153 148 145 152 147 144 141 137 132 137 132 132 119 119 
83 84 85 84 80 81 80 84 77 80 81 78 78 84 78 79 74 70 49 7 2 3 11 18 38 50 56 52 53 54 61 76 86 91 93 97 99 97 103 105 82 61 59 57 57 60 59 65 66 67 66 66 67 67 124 135 128 129 133 136 138 145 146 146 151 151 151 155 157 151 148 147 146 137 135 136 134 131 119 122 
82 80 81 82 82 80 81 83 77 80 77 77 78 84 79 76 77 71 65 20 0 4 11 17 38 48 54 55 55 56 59 73 81 85 88 97 95 96 103 101 84 60 58 57 57 60 67 67 70 73 71 72 77 80 135 137 131 136 138 146 145 148 149 152 153 154 152 156 151 154 152 151 152 148 142 139 142 136 120 119 
87 82 82 82 80 80 83 82 79 82 84 76 77 82 84 77 75 70 68 46 5 4 8 16 37 47 55 52 53 62 65 70 74 81 88 95 94 88 89 79 67 60 58 59 59 61 67 69 70 71 73 82 82 91 147 137 130 136 138 147 148 153 149 153 154 151 155 153 157 156 155 152 152 148 141 143 147 134 126 124 
90 82 78 82 82 80 78 78 76 82 81 79 78 83 82 81 76 74 67 65 20 9 13 20 33 49 56 54 56 60 64 64 66 71 75 77 70 65 63 61 57 60 58 55 57 63 70 77 71 74 76 80 86 102 150 143 136 141 145 148 151 150 151 148 155 159 159 160 159 161 157 159 150 148 143 149 153 136 126 120 
88 82 81 80 78 80 81 79 80 81 79 76 79 81 82 82 81 72 74 71 57 17 14 18 37 49 54 56 52 60 62 63 62 67 70 66 67 62 63 56 62 56 58 59 59 62 68 75 70 73 75 83 83 113 152 149 146 149 149 152 150 154 151 155 159 158 166 164 163 160 162 159 156 151 148 149 156 135 125 125 
89 82 79 81 82 78 84 81 86 82 81 80 81 88 86 84 83 75 73 75 71 53 20 19 40 48 55 56 56 60 60 62 60 63 65 68 62 57 59 61 60 57 58 57 59 64 66 68 70 71 75 78 83 137 166 160 152 153 159 155 154 156 154 155 160 162 168 168 167 165 167 162 156 150 157 152 155 138 127 130 
90 90 77 78 79 83 81 82 82 83 83 83 82 87 82 84 75 73 76 77 75 71 48 27 32 54 61 53 58 61 57 57 58 59 63 62 60 58 60 56 61 60 62 57 57 63 63 64 61 66 66 74 80 110 161 183 172 167 166 165 160 155 157 154 158 159 167 169 171 168 166 165 159 153 156 155 159 136 127 124 
87 86 79 80 81 80 86 81 79 83 83 81 83 87 84 84 76 75 71 76 73 71 72 47 41 52 59 55 56 59 54 55 56 60 61 60 59 58 62 61 60 64 61 63 63 60 65 60 63 61 66 75 75 76 107 156 181 184 177 178 166 162 160 158 164 164 172 174 167 169 169 167 158 161 160 162 160 137 127 130 
87 86 78 80 80 81 84 83 79 77 86 81 79 85 83 85 75 72 73 74 74 75 80 69 64 58 60 56 58 58 56 57 55 55 58 63 63 64 66 66 68 68 67 65 64 60 64 59 59 64 67 76 76 79 78 98 123 160 185 190 188 179 172 165 170 174 174 176 177 175 172 173 164 164 166 170 157 134 125 127 
94 91 82 85 80 82 80 80 80 85 82 83 83 83 88 81 73 69 66 71 70 76 76 73 72 65 61 58 60 64 61 60 63 62 63 62 67 67 72 69 73 68 69 69 64 59 58 60 57 58 71 78 86 79 81 84 84 100 138 192 210 194 190 177 179 180 182 188 186 179 180 175 171 170 172 170 156 139 133 132 
86 93 84 88 84 80 78 81 83 85 83 83 83 86 83 80 70 62 57 62 67 72 78 73 75 70 67 62 64 62 66 63 65 64 70 72 71 70 72 71 76 72 73 73 69 65 63 59 55 64 72 82 91 83 82 88 81 84 92 117 162 192 204 204 199 191 194 192 195 191 186 184 175 178 177 181 150 144 130 135 
85 91 88 91 83 85 85 85 84 88 85 83 79 84 85 80 69 60 61 61 66 73 77 75 78 77 72 67 64 64 64 62 62 63 72 66 69 69 74 73 77 75 76 71 74 67 66 66 62 71 74 79 81 81 80 81 77 75 85 85 90 123 162 205 230 221 211 205 202 201 193 194 184 181 189 182 151 136 137 134 
80 86 84 88 87 85 86 84 84 84 83 83 80 82 80 80 69 64 57 64 62 70 75 77 82 78 76 63 58 63 60 60 60 59 62 65 66 65 70 67 72 69 70 73 67 72 72 66 71 70 74 73 76 76 78 79 75 81 83 78 77 86 102 134 193 228 232 223 215 213 208 203 196 188 195 184 153 143 136 136 
81 83 79 85 91 87 83 84 80 83 83 81 81 87 83 82 77 64 58 61 58 71 80 77 80 81 77 63 58 58 57 55 58 57 61 60 60 60 64 61 70 62 63 65 66 66 66 64 64 66 70 73 71 75 73 78 79 77 83 82 75 78 84 88 114 156 197 226 239 240 224 218 204 198 206 182 158 141 138 141 
77 86 82 83 85 86 83 83 82 83 84 80 86 80 82 80 78 74 58 59 66 75 79 79 81 79 83 60 47 49 49 50 50 51 57 55 55 56 57 61 60 58 52 56 55 54 57 59 57 61 67 70 73 71 73 72 73 76 79 80 76 80 78 77 85 93 117 165 212 246 257 242 214 212 215 182 151 150 142 143 
82 83 82 85 85 83 82 85 81 82 86 84 84 82 85 80 75 74 70 64 70 79 78 74 81 82 81 68 49 44 47 49 50 51 53 52 52 53 55 54 54 50 49 56 50 54 58 62 63 59 61 63 69 69 71 72 68 74 75 77 78 81 80 73 87 87 94 101 137 190 236 249 237 228 227 172 163 147 143 148 
81 85 85 83 83 81 79 83 80 83 85 83 89 85 84 78 78 77 78 83 74 82 80 75 74 77 77 70 62 43 45 50 51 49 53 51 53 55 53 53 53 43 45 56 66 61 60 65 69 64 64 61 67 66 70 72 71 71 72 76 74 78 82 78 83 81 84 86 89 109 150 196 215 227 228 172 159 157 145 145 
85 86 82 83 86 84 85 84 85 87 85 88 84 88 85 82 81 79 81 85 82 79 80 77 77 76 75 70 71 54 40 47 55 55 58 56 56 56 57 54 53 49 51 56 65 68 68 70 66 70 69 68 68 65 68 75 74 74 75 72 73 79 79 77 81 83 82 78 84 89 99 114 152 177 179 161 165 159 157 158 
89 84 82 86 84 84 87 83 86 83 86 82 82 78 81 79 80 79 82 85 81 83 78 75 75 77 75 67 68 64 44 46 56 56 61 59 59 59 57 61 60 57 65 57 61 62 71 71 71 66 69 70 73 67 72 73 71 79 81 79 77 76 73 73 80 80 79 75 81 85 81 88 98 107 117 121 153 162 163 165 
92 87 85 84 86 85 87 86 84 85 84 84 85 85 84 82 84 82 78 85 80 79 77 75 74 71 73 67 70 70 58 46 57 61 63 62 62 59 64 60 58 61 63 62 57 58 65 65 68 72 67 75 75 73 68 74 70 77 79 81 82 75 74 70 80 74 75 79 80 82 82 81 86 85 82 88 115 142 162 164 


