P2
80 60
151
139 139 142 140 142 139 140 136 144 145 143 137 138 134 140 141 134 130 135 139 138 139 133 133 137 134 138 138 133 135 136 134 141 141 137 137 133 131 134 134 136 136 138 136 132 133 131 131 136 131 132 132 131 131 134 132 134 139 138 136 134 129 134 127 127 127 132 128 126 126 127 136 124 129 124 124 126 121 123 124 
137 141 151 141 138 135 134 136 137 141 139 138 138 139 140 138 137 131 131 141 138 134 131 136 137 135 141 136 134 134 140 135 142 141 134 137 136 133 135 134 134 136 135 134 130 133 131 131 135 132 130 132 132 135 134 134 139 136 134 132 129 130 131 127 131 125 131 126 128 130 125 128 129 126 124 120 125 123 124 122 
134 138 141 140 135 135 135 138 144 139 139 139 136 131 138 138 134 130 134 141 136 137 136 133 134 139 138 135 135 136 137 138 137 136 135 135 134 133 134 134 133 135 132 131 131 131 132 129 130 131 132 129 132 133 129 132 134 136 134 134 128 130 126 129 127 125 128 127 126 127 126 129 126 125 124 127 121 124 124 119 
140 132 136 137 136 139 137 133 138 142 141 137 133 129 134 134 133 134 134 138 138 137 134 136 133 139 135 136 134 135 138 136 137 133 134 136 131 131 132 134 133 133 138 132 129 133 133 133 132 131 131 131 131 132 131 130 134 130 132 133 127 127 130 129 127 124 125 126 130 133 129 134 126 125 126 130 122 123 125 123 
143 134 136 136 136 140 137 135 138 140 135 139 137 134 135 139 136 133 133 136 136 140 135 137 135 139 139 131 132 135 136 137 135 135 132 137 133 132 136 132 133 135 136 133 133 131 133 136 132 133 132 132 130 132 132 129 133 129 136 132 131 130 132 132 128 126 129 131 132 135 126 130 125 127 129 126 127 126 125 125 
137 135 136 138 139 136 139 136 141 137 138 136 135 135 136 140 139 136 134 138 140 138 135 136 135 137 136 132 136 134 133 132 134 133 131 135 132 132 136 131 133 134 137 135 132 133 136 134 130 132 134 133 132 132 134 130 130 131 129 134 131 131 129 128 128 125 127 130 132 131 130 130 125 123 126 125 124 125 120 119 
140 138 137 138 139 134 138 139 140 136 138 140 136 135 136 138 139 136 134 137 137 134 137 132 136 136 138 133 133 136 137 133 134 131 133 134 131 130 133 132 134 134 130 133 130 132 133 134 131 133 131 134 132 134 131 130 134 137 137 136 131 132 131 126 127 125 126 128 126 131 128 129 128 126 121 124 119 117 117 120 
137 141 141 140 141 142 139 137 139 140 141 138 136 136 136 139 137 136 137 142 141 140 137 136 136 139 137 135 134 135 135 131 137 133 133 135 130 128 134 133 134 133 131 137 130 132 134 131 131 132 131 134 137 135 130 130 130 130 131 132 131 130 135 127 128 128 129 125 130 130 127 127 127 127 124 122 121 114 118 123 
145 143 137 138 140 139 143 138 138 144 141 136 136 134 135 138 139 134 135 143 137 135 135 138 137 135 135 134 137 134 136 134 132 128 134 134 129 131 130 134 132 130 130 130 132 129 133 130 129 130 131 134 130 130 129 129 130 131 131 133 128 128 132 129 125 124 127 123 128 128 124 126 129 129 119 120 118 115 119 119 
146 142 139 141 139 142 143 138 140 137 139 138 138 132 136 139 143 134 135 136 136 137 134 136 138 136 134 134 134 135 132 133 132 131 130 133 131 128 130 131 131 132 130 129 128 129 129 129 131 130 132 133 131 132 132 130 132 133 133 130 126 127 133 126 126 127 127 124 130 126 124 135 129 122 121 123 121 119 115 120 
140 142 140 141 145 142 144 137 142 137 139 132 139 137 139 139 139 136 135 140 137 138 135 142 136 138 137 138 135 133 135 132 133 130 133 135 131 127 134 133 134 132 131 129 128 127 130 131 132 130 134 130 130 131 131 130 134 131 129 131 125 126 133 132 129 126 129 126 127 130 126 134 129 130 128 128 120 119 116 120 
137 141 140 146 145 142 143 140 142 139 139 138 136 134 137 138 136 131 137 136 138 134 135 137 132 132 137 135 131 130 131 133 136 132 129 133 131 131 132 132 134 132 130 132 128 129 130 130 126 132 132 131 131 130 130 128 128 131 130 129 129 127 133 127 128 127 126 125 126 126 125 129 127 127 123 125 126 116 118 120 
138 139 142 144 140 141 138 135 134 136 138 138 135 133 133 135 131 135 134 138 136 136 131 135 133 131 135 134 131 133 134 134 134 132 130 132 130 132 137 136 131 130 132 128 132 130 131 131 128 127 130 131 131 127 130 127 131 130 126 132 127 123 130 130 128 124 121 123 124 128 111 124 119 126 124 124 121 118 122 123 
138 137 140 146 146 136 137 135 134 134 136 136 138 131 136 140 135 132 132 130 133 134 133 133 132 131 133 133 134 133 135 131 138 135 132 134 132 138 135 134 135 134 131 130 129 132 135 133 129 136 130 133 128 130 127 127 131 130 130 132 130 127 130 127 127 124 128 122 125 126 125 124 124 120 124 120 123 119 122 122 
142 135 143 145 141 135 138 132 137 134 138 135 132 130 133 135 136 129 131 134 132 134 131 135 133 136 133 134 136 133 132 128 131 134 133 135 136 132 136 136 139 134 132 131 132 131 133 133 129 132 133 128 128 130 127 128 131 139 132 129 124 126 126 126 128 126 125 123 127 127 127 126 122 121 117 121 118 118 125 124 
144 139 142 142 144 135 138 138 137 141 136 134 134 131 134 136 134 126 134 134 133 136 134 136 132 133 134 137 132 131 133 129 133 132 130 135 132 134 135 136 138 137 131 131 132 133 135 134 133 130 132 126 129 130 129 131 132 131 130 131 126 126 132 129 127 127 127 129 128 128 125 124 124 119 119 119 121 115 122 120 
144 142 144 144 142 135 134 132 137 139 140 136 135 131 136 137 133 135 133 127 134 136 133 131 132 131 133 134 133 133 132 133 136 135 130 133 134 136 137 136 138 132 133 132 134 140 133 132 129 132 130 129 128 134 131 132 133 133 133 126 127 129 131 128 130 123 126 126 126 134 124 126 124 121 121 113 116 113 118 118 
143 142 144 145 142 134 135 133 135 136 133 137 133 134 133 134 133 133 133 135 135 134 131 133 133 132 135 133 135 131 137 131 136 132 131 136 133 133 137 137 136 131 132 134 135 137 134 131 136 130 129 127 134 130 129 130 132 138 135 132 126 128 129 126 126 120 121 125 126 127 126 128 123 123 122 118 116 112 117 115 
140 140 140 144 141 137 136 134 136 137 139 134 131 130 129 135 131 130 133 131 132 133 131 134 133 132 136 135 132 131 134 131 135 131 132 135 134 137 137 136 137 136 132 134 132 132 131 131 127 127 128 130 135 131 130 128 130 134 128 128 124 125 127 125 124 128 125 126 128 129 124 130 125 125 121 116 111 113 112 118 
138 140 136 138 137 143 136 134 137 133 137 134 133 129 131 131 131 130 133 131 131 135 132 134 133 138 136 130 131 134 131 133 129 133 129 132 133 136 136 134 138 134 133 131 128 127 129 130 126 129 129 131 130 129 126 127 131 130 128 125 124 127 127 126 127 124 124 124 126 126 123 130 116 124 119 112 111 109 111 117 
136 138 139 134 138 132 138 129 133 141 133 135 132 130 133 130 132 132 128 134 131 133 131 133 133 130 134 132 131 130 143 134 131 130 129 131 135 134 134 133 136 137 132 128 128 126 128 123 128 127 127 131 128 128 127 126 130 128 129 126 126 125 126 123 127 124 123 124 125 126 129 129 126 124 114 116 108 108 108 110 
139 142 141 138 137 135 137 131 133 137 136 134 138 136 135 136 130 130 129 135 133 132 134 135 133 133 131 131 131 132 133 130 132 130 127 132 131 134 134 134 135 135 129 126 127 126 125 126 126 126 129 125 124 133 125 124 130 133 129 126 127 123 124 128 128 124 127 122 123 129 124 127 123 122 117 113 111 107 112 115 
139 140 141 141 137 137 135 136 136 135 133 133 135 136 134 136 132 132 135 132 133 132 129 133 132 132 134 133 132 129 131 128 132 131 129 132 132 132 133 136 134 131 131 125 128 130 128 126 126 126 129 126 127 126 127 127 126 132 128 130 129 122 128 127 126 123 129 124 128 126 126 129 130 124 115 115 112 106 114 112 
137 143 140 140 137 131 134 140 137 140 135 137 135 132 134 136 134 130 133 137 133 132 130 131 133 133 133 133 131 132 133 128 130 130 128 130 133 131 131 135 133 129 128 129 128 128 127 126 127 131 128 125 127 128 127 124 127 131 130 128 121 126 127 131 128 126 128 125 125 129 125 129 126 124 116 113 116 108 111 117 
138 142 140 137 136 136 135 132 137 141 140 135 132 132 136 138 134 131 132 136 136 131 132 133 136 134 134 130 131 129 130 128 128 127 126 127 129 131 130 131 135 128 132 127 129 127 129 128 130 127 124 125 121 125 128 123 129 131 129 132 122 124 126 124 126 126 127 122 126 128 126 126 121 123 112 115 110 107 113 118 
135 135 137 137 135 134 133 133 135 136 135 131 130 133 138 138 131 131 133 135 134 130 131 134 135 133 131 130 128 127 128 125 129 129 127 132 131 131 130 135 132 127 127 128 124 128 125 127 127 126 126 124 126 123 122 123 125 130 129 131 123 125 123 123 122 122 126 123 126 128 124 126 124 126 116 112 109 105 112 116 
136 135 139 137 131 131 134 132 135 136 130 133 132 134 134 132 131 133 130 133 135 130 134 134 133 131 131 130 126 126 130 124 130 126 126 130 130 131 129 131 130 129 128 127 124 126 124 124 126 125 126 123 124 125 122 123 123 127 127 125 124 122 125 122 124 120 121 125 124 124 124 126 125 122 108 107 109 106 112 115 
137 133 140 138 135 133 134 135 136 140 134 135 131 131 130 133 133 128 131 131 133 130 130 136 133 130 134 130 130 126 131 126 126 126 125 128 129 127 130 133 131 126 132 128 125 123 125 125 125 124 124 125 124 125 123 120 127 125 125 125 125 123 125 122 126 119 122 124 123 128 122 129 122 122 117 113 106 104 106 112 
134 138 141 138 136 135 134 133 137 138 132 136 133 134 132 133 130 128 129 134 132 128 129 132 130 133 132 130 131 128 131 128 127 124 126 130 127 130 130 131 128 128 129 127 125 124 124 124 122 126 124 123 122 125 120 120 123 123 123 126 124 123 121 123 125 121 124 122 122 122 123 127 126 116 111 110 104 102 99 108 
138 135 142 136 136 131 136 131 137 136 133 134 136 133 134 132 128 126 129 129 131 129 131 130 133 132 134 129 129 131 128 128 129 125 127 131 130 132 131 128 132 127 127 125 126 124 123 124 124 127 125 126 125 122 122 122 125 124 123 125 124 124 124 124 128 122 127 122 123 128 121 124 122 116 111 110 105 106 105 110 
139 134 139 138 134 130 136 133 135 135 138 132 134 132 129 133 131 128 127 130 130 127 130 131 135 133 132 126 128 129 130 127 128 127 131 132 130 132 130 129 128 128 131 128 125 122 123 122 122 125 125 121 122 125 124 120 128 124 124 124 123 126 128 127 130 128 129 124 123 124 123 126 115 123 109 109 105 103 105 108 
136 140 137 135 140 134 133 129 135 134 136 133 132 131 137 132 132 126 127 134 130 127 129 131 130 134 137 129 129 128 129 126 127 127 128 129 127 128 127 130 133 129 128 127 127 124 124 124 124 128 123 123 125 125 121 123 125 124 122 122 120 124 129 127 124 127 125 122 124 123 123 125 124 122 111 108 103 103 99 107 
134 137 137 136 139 133 133 130 132 131 132 133 133 129 131 132 131 128 128 133 131 127 130 132 133 131 132 131 130 127 129 126 125 129 124 129 127 127 129 130 129 132 127 126 125 122 122 126 125 125 125 125 122 126 122 123 125 124 122 124 120 122 125 123 125 123 124 119 122 125 122 128 122 119 110 109 97 101 104 113 
136 135 136 139 137 135 134 130 132 133 133 132 131 131 132 131 132 126 128 129 128 127 131 132 129 128 130 130 127 131 129 123 127 127 126 127 127 129 130 128 128 126 128 124 126 123 126 123 122 123 124 125 125 126 123 126 124 124 123 124 119 123 124 122 124 118 124 120 123 123 123 120 124 120 110 108 105 103 104 109 
134 135 136 135 134 131 134 132 131 133 135 133 132 132 132 132 132 128 128 130 127 130 130 132 131 132 129 130 131 130 130 125 123 126 127 130 128 128 127 128 128 123 129 124 124 123 124 124 123 123 122 127 124 121 124 123 125 126 124 121 121 121 122 124 122 120 120 121 120 125 122 123 121 116 108 109 105 100 104 108 
132 134 136 136 133 131 135 129 132 135 131 131 132 130 130 131 129 129 131 129 131 130 128 130 129 128 127 127 126 130 128 127 125 127 125 129 127 127 131 131 128 124 126 121 125 125 125 125 123 121 123 124 123 123 119 123 122 122 120 124 118 119 125 121 122 119 119 118 122 122 121 124 124 121 112 109 104 100 104 108 
132 132 139 137 138 132 132 131 133 132 128 132 131 131 132 134 131 131 133 134 129 128 130 131 127 128 127 127 130 126 128 127 126 126 124 129 127 129 128 129 132 124 123 121 122 122 125 124 121 120 123 123 123 123 122 122 123 125 123 120 120 123 121 124 122 118 120 119 122 120 117 122 120 120 106 102 97 98 98 111 
136 135 137 137 133 134 133 132 132 131 131 132 130 131 130 128 131 133 132 132 130 131 130 130 127 126 127 125 128 126 130 127 125 128 126 128 125 128 128 127 128 125 123 123 124 124 124 125 126 123 122 124 122 126 123 120 124 125 123 123 120 119 120 120 121 123 120 122 119 121 120 120 121 109 101 102 97 99 103 105 
135 138 143 136 136 133 135 133 132 132 131 133 132 127 132 134 129 130 131 132 128 129 131 131 129 130 126 127 126 126 127 125 126 125 125 128 129 129 128 131 125 127 123 122 121 122 125 125 124 123 123 122 126 124 124 120 119 119 123 122 116 121 119 119 120 121 123 124 120 122 118 120 119 110 96 101 96 98 100 103 
134 137 138 136 135 133 133 132 134 133 134 132 135 128 131 134 133 127 128 131 128 128 129 133 128 128 128 125 126 128 126 124 126 126 127 128 125 129 127 130 128 127 128 124 123 121 125 124 125 123 124 123 123 125 122 118 120 119 118 123 117 118 122 117 122 117 119 119 119 121 115 114 118 117 103 99 99 98 102 109 
137 135 135 138 133 130 130 131 131 129 131 136 133 132 131 134 126 125 125 128 128 129 128 129 128 129 132 125 124 124 127 123 125 127 123 129 123 128 127 128 127 123 127 124 123 122 125 121 123 124 127 127 123 124 124 120 120 119 119 120 119 118 118 115 115 116 113 117 119 118 114 121 114 114 101 96 96 100 110 104 
131 132 137 138 133 130 134 130 127 136 134 130 133 131 131 132 133 129 125 127 130 128 132 130 132 126 126 123 126 125 125 124 125 126 126 126 128 128 125 127 127 127 122 123 124 122 123 123 123 126 128 124 123 124 125 123 125 118 117 119 121 118 117 119 121 115 121 115 117 119 115 120 116 105 93 95 103 102 103 110 
135 137 136 134 134 131 136 131 132 131 133 131 132 129 129 135 128 129 129 131 130 129 128 130 131 130 125 127 128 128 124 122 125 124 126 130 125 129 129 124 124 120 121 122 120 123 125 126 123 120 124 125 123 123 125 121 119 120 118 120 117 120 124 121 120 119 119 115 119 116 116 117 112 88 55 71 93 95 100 98 
141 135 136 136 132 132 133 128 129 131 132 133 131 131 130 130 131 129 126 131 129 131 130 128 130 129 129 125 127 125 129 124 124 123 121 129 125 128 125 125 124 123 121 124 120 123 128 130 122 121 124 120 120 120 122 118 117 121 118 120 118 118 120 119 123 115 117 117 119 114 114 115 107 65 32 42 88 94 99 104 
134 133 138 134 132 130 134 129 130 131 130 133 133 131 132 131 128 128 128 134 135 125 125 131 132 130 126 124 126 126 127 124 125 125 123 127 126 127 126 124 127 120 122 121 124 123 126 124 123 121 121 120 121 121 116 117 118 118 116 118 117 117 117 117 118 114 117 113 118 116 113 114 99 56 7 45 85 88 94 97 
138 132 132 135 136 133 133 125 132 134 131 126 130 130 137 133 132 128 128 130 132 127 128 131 131 127 124 123 123 124 126 123 123 125 119 127 122 126 125 127 121 120 120 121 121 123 121 122 120 120 117 119 118 117 115 113 116 115 117 118 113 115 117 115 115 117 123 113 116 117 113 113 100 50 7 37 85 86 92 97 
134 136 130 132 130 131 128 134 130 134 130 133 130 134 130 133 130 127 127 136 131 127 127 127 126 124 125 122 128 124 124 122 124 123 120 127 127 124 126 126 124 120 120 122 122 120 119 119 119 117 117 118 117 115 113 116 116 117 115 116 116 112 118 114 117 116 119 120 118 114 116 112 99 47 3 43 82 85 94 95 
132 136 129 129 133 131 132 127 129 134 133 129 130 131 134 137 131 127 127 137 133 129 131 127 128 126 124 122 124 126 123 121 124 123 119 126 122 125 130 126 124 125 122 123 121 122 122 121 119 118 116 117 116 114 114 115 116 119 118 117 117 113 117 117 115 113 118 111 112 114 114 117 97 46 10 44 81 87 87 98 
131 135 135 132 131 131 132 129 131 134 131 132 130 129 131 133 132 129 126 135 127 130 132 129 129 123 123 120 124 122 124 121 121 120 119 122 126 126 127 125 120 121 119 117 119 117 117 116 113 113 113 113 116 116 114 116 116 115 114 115 115 113 115 115 114 109 117 110 112 117 110 116 90 38 9 47 79 85 95 94 
136 133 133 129 131 127 130 128 128 134 134 131 131 127 129 137 131 129 125 134 126 127 127 124 126 125 125 125 122 124 122 122 123 124 120 123 125 125 123 123 123 117 119 117 116 117 116 113 114 113 113 115 111 114 114 112 113 114 113 116 111 111 115 114 113 110 112 108 111 112 111 107 85 32 1 39 76 81 91 96 
132 130 128 130 134 131 132 128 133 133 130 130 128 124 130 129 128 128 126 130 128 128 129 128 126 123 120 121 121 122 123 119 120 124 121 126 122 123 128 124 119 121 120 119 119 115 114 115 114 111 111 113 112 115 114 114 114 111 114 115 112 110 113 114 112 110 113 105 114 109 112 109 77 26 6 39 74 83 90 97 
136 133 130 136 136 130 133 129 129 132 133 130 127 124 131 130 128 128 126 129 130 124 131 127 123 123 123 121 122 123 123 122 118 121 123 125 123 124 124 119 120 115 120 117 117 119 113 115 113 112 114 110 113 114 113 112 114 116 114 112 109 109 112 113 111 109 108 108 107 110 106 109 82 24 0 36 75 85 91 94 
135 129 132 133 135 131 131 131 128 132 129 129 128 126 124 126 126 124 125 131 129 127 126 127 126 127 123 125 122 123 123 122 120 123 121 125 123 124 122 122 119 117 111 115 117 118 117 114 115 115 113 109 113 114 109 112 116 114 115 115 109 108 109 108 110 105 109 107 106 109 105 107 82 27 5 37 84 84 99 93 
132 130 126 128 135 135 132 129 129 134 130 130 127 126 126 129 130 125 127 128 128 130 126 125 123 128 126 126 124 122 120 124 120 120 121 122 125 124 123 121 119 112 113 116 114 117 117 116 115 113 113 116 112 114 113 111 114 114 115 111 111 108 111 104 110 106 112 105 109 110 106 109 91 49 29 66 89 91 95 101 
135 132 127 130 133 129 131 129 129 129 131 132 130 126 130 130 129 124 126 129 123 121 125 123 126 127 128 124 123 121 122 121 119 125 116 124 120 122 118 117 117 115 112 115 114 114 116 115 113 111 115 112 112 114 112 114 111 113 113 112 111 110 111 106 110 106 107 102 108 109 107 114 98 86 76 90 93 96 98 100 
131 130 132 132 132 125 129 130 128 128 130 133 131 130 129 129 126 124 126 127 125 123 123 125 123 124 124 121 121 120 120 115 119 118 120 119 119 121 115 117 117 117 113 116 115 112 115 112 112 112 109 113 112 112 112 110 111 116 112 113 105 109 111 110 108 106 105 105 107 106 106 115 101 95 90 99 101 94 98 95 
124 131 130 135 132 131 127 126 127 132 129 131 136 129 132 127 125 125 127 131 128 124 128 124 122 120 123 122 121 121 118 117 121 120 113 122 116 113 114 112 115 112 114 114 113 115 117 115 115 112 111 111 112 109 110 111 113 109 110 115 110 107 105 108 110 107 111 105 109 109 103 108 98 96 93 104 101 97 100 101 
128 129 129 131 128 127 127 127 130 134 134 132 132 131 129 126 127 128 125 128 128 130 128 125 123 121 124 119 120 118 118 121 119 119 116 119 118 112 110 115 112 112 113 112 111 113 112 116 112 117 111 110 108 112 111 109 109 110 110 113 109 107 107 105 110 107 108 104 103 108 109 110 96 94 98 101 105 100 99 102 
128 129 124 133 129 125 129 127 128 137 130 133 128 126 128 123 126 126 120 129 128 127 129 125 122 120 119 125 121 120 118 116 117 117 114 120 112 114 112 114 112 111 116 113 112 112 115 109 109 111 109 110 111 108 108 106 108 107 106 111 106 106 111 110 108 108 102 103 104 104 102 103 96 93 99 99 101 97 100 101 
132 130 126 131 133 128 129 125 132 135 133 127 126 127 127 128 127 123 123 130 126 125 127 125 124 120 121 124 123 120 122 118 118 116 117 120 125 111 113 113 113 112 111 116 114 113 116 110 113 112 108 108 109 111 107 107 109 113 109 110 106 107 110 105 106 106 105 102 103 108 103 108 105 97 98 101 107 101 98 102 


