P2
80 60
316
152 153 143 142 144 128 99 54 34 34 57 67 85 92 105 113 114 121 118 115 128 123 122 113 114 121 135 120 123 123 122 125 123 116 111 104 104 123 118 123 122 127 136 139 136 133 136 134 135 136 136 141 140 143 142 143 145 147 149 146 142 141 143 142 135 138 130 127 130 129 127 132 134 131 139 139 139 138 139 137 
152 150 146 142 140 128 94 50 30 43 61 80 86 90 100 109 116 118 114 116 129 122 120 117 113 116 126 122 123 122 121 125 122 115 109 105 108 125 120 123 123 129 134 137 136 139 139 136 136 136 140 143 139 140 146 146 148 145 145 143 144 141 140 138 138 135 129 130 127 127 132 131 132 134 134 133 137 138 133 135 
147 150 144 140 137 123 89 42 26 37 55 74 90 87 98 109 105 115 115 112 123 118 118 116 116 119 125 121 123 126 121 123 119 120 109 104 110 118 123 127 125 128 132 137 135 136 140 136 136 134 138 145 140 142 141 142 145 143 143 142 141 141 142 139 138 136 132 133 131 130 129 129 133 135 135 134 139 141 138 138 
148 151 149 139 143 124 88 42 19 25 51 68 84 88 100 108 107 111 114 113 114 123 121 120 119 120 125 120 122 122 121 123 125 118 117 106 117 125 127 126 123 128 134 139 135 138 140 137 140 140 140 141 142 142 145 145 142 143 143 143 148 141 142 141 136 133 134 132 132 131 130 134 135 139 133 137 138 142 140 140 
151 151 136 142 140 131 86 33 13 17 35 52 75 91 104 108 108 113 111 112 116 119 122 120 117 122 125 124 121 124 123 120 122 114 109 107 116 129 125 125 123 131 138 141 137 137 140 139 137 137 143 141 143 144 141 146 144 140 145 143 146 142 144 144 140 139 134 135 131 132 132 133 137 138 137 139 140 140 139 142 
153 151 141 137 137 119 77 24 11 13 29 47 62 85 98 105 105 111 109 111 113 112 121 115 119 117 124 119 122 121 120 118 121 117 107 105 120 125 124 125 119 132 140 140 137 137 144 138 140 136 140 143 141 142 141 146 145 144 146 143 143 140 144 140 141 139 134 135 134 128 130 132 137 135 136 136 141 142 139 144 
154 151 142 143 133 117 68 20 11 15 28 49 61 84 97 99 107 109 108 106 111 112 120 115 114 119 125 121 123 119 123 121 119 118 105 103 120 123 125 121 123 129 134 139 134 139 139 139 140 137 140 145 142 141 144 145 146 149 151 144 141 139 142 138 138 138 133 134 133 131 131 134 133 136 138 138 139 141 139 139 
158 156 149 147 138 119 66 18 13 7 25 47 65 81 91 91 103 110 107 110 118 113 122 117 117 118 123 122 121 122 118 118 120 109 103 112 121 124 126 123 120 127 134 141 136 140 139 135 136 140 143 147 144 143 146 151 144 147 145 144 145 141 142 140 139 139 137 135 134 131 130 139 139 135 136 136 137 141 138 142 
161 155 149 145 145 112 63 21 6 10 28 51 65 75 83 90 94 102 102 102 112 109 109 113 117 116 124 117 122 120 121 120 118 116 106 106 119 124 121 122 116 128 132 135 137 139 138 136 138 141 145 143 145 147 143 146 145 142 144 146 141 140 143 137 137 139 136 131 132 131 131 131 139 131 135 133 133 139 138 141 
157 158 146 147 141 115 69 18 12 13 33 54 73 74 82 91 98 106 102 105 113 113 112 109 115 114 121 118 123 122 121 121 120 111 107 104 124 123 117 116 120 129 135 137 133 135 134 136 139 140 143 140 142 143 145 144 144 138 145 145 144 143 144 139 134 135 134 134 128 131 129 138 138 135 133 134 139 141 139 140 
157 154 147 145 140 116 70 21 10 10 33 56 66 72 82 86 90 99 109 116 117 118 114 108 111 112 118 118 119 120 118 117 117 111 110 109 125 123 118 116 121 133 136 135 134 135 136 136 134 137 142 143 144 145 141 146 144 145 145 143 144 140 142 140 133 136 136 136 131 129 129 130 136 141 139 140 141 143 137 140 
154 152 151 149 138 108 61 17 12 13 31 50 62 73 74 78 79 97 113 122 120 120 118 107 108 115 117 117 119 116 117 117 117 109 108 105 123 120 118 116 119 136 137 139 136 137 137 136 135 135 140 141 140 141 141 142 144 141 144 146 144 141 140 139 137 133 135 129 131 129 131 131 137 137 137 142 144 137 141 140 
157 153 146 152 136 111 50 14 6 11 32 41 60 72 74 76 84 96 115 120 124 114 110 104 108 106 116 116 119 117 117 118 112 110 103 104 119 123 114 118 116 129 135 137 137 136 140 136 134 140 142 141 141 139 141 145 144 145 142 142 141 142 147 138 139 133 133 132 130 131 126 131 134 131 139 140 139 144 135 140 
156 151 145 149 130 103 52 14 3 8 24 42 58 66 75 77 76 94 106 110 120 111 105 106 103 108 118 116 112 118 116 116 113 106 103 104 120 122 115 113 121 128 137 137 135 138 142 135 139 142 141 140 140 140 141 142 146 145 144 143 141 142 143 137 138 137 133 135 130 130 129 130 133 132 138 138 140 144 140 139 
150 154 148 149 128 100 45 9 6 4 23 43 55 67 73 75 79 91 111 117 114 109 103 107 101 106 114 110 114 114 114 114 110 104 100 109 119 123 117 118 120 132 137 138 135 134 139 136 138 142 138 141 142 141 142 143 150 153 147 142 144 140 142 139 137 135 138 135 128 128 132 133 136 133 134 137 136 141 136 137 
148 153 147 146 131 101 43 8 5 4 20 42 63 65 79 85 92 102 108 118 117 110 113 111 111 108 112 107 113 114 114 113 110 107 99 112 122 124 116 117 125 135 135 138 133 135 140 133 138 139 142 142 143 145 141 144 146 148 148 144 143 141 143 136 135 137 133 133 129 131 133 135 139 134 134 138 141 145 141 138 
152 156 153 145 125 102 42 8 0 8 23 44 56 69 83 92 100 110 107 111 116 110 119 114 110 112 118 110 116 114 114 114 108 105 99 116 119 120 119 119 122 135 139 139 134 140 138 136 135 138 140 140 142 145 145 143 149 147 146 144 143 139 140 138 139 135 137 138 131 129 133 139 144 134 134 137 138 145 142 139 
157 157 148 147 125 93 38 8 9 13 23 43 62 70 86 93 99 102 105 111 116 115 118 119 114 113 114 113 112 113 114 113 114 108 104 118 122 121 119 118 125 133 136 140 136 138 138 134 137 137 142 140 139 142 147 143 145 150 146 145 141 140 142 137 139 137 134 135 131 132 133 138 140 136 140 132 139 141 134 136 
153 153 148 146 118 92 36 6 6 8 23 48 68 71 87 87 90 103 105 101 111 111 120 114 114 109 112 109 110 111 112 111 113 106 103 114 124 120 118 119 125 135 135 140 136 136 139 131 135 135 139 141 145 143 143 144 146 145 144 144 143 140 142 136 139 137 135 135 132 131 135 139 135 135 136 137 140 139 143 141 
150 151 149 142 118 85 32 11 11 7 28 51 65 75 86 89 90 101 101 105 106 113 119 116 113 112 109 112 110 113 111 113 110 102 98 119 119 122 120 119 128 135 139 139 132 134 135 136 137 140 141 142 143 142 143 145 144 142 143 140 144 138 138 138 136 134 136 134 133 134 133 138 139 135 134 136 138 140 137 140 
151 150 144 135 109 84 27 11 12 11 30 51 70 84 94 91 90 95 99 105 108 110 116 121 116 107 108 109 110 110 115 112 106 98 101 117 122 120 121 114 125 136 135 137 135 135 139 135 134 139 141 143 143 142 142 141 145 140 143 144 141 138 142 136 136 134 134 131 134 134 141 136 134 137 136 134 135 139 141 139 
152 151 142 138 104 76 30 24 18 19 34 61 78 87 95 89 91 95 103 100 106 108 114 119 115 108 112 107 110 112 115 111 105 100 101 114 118 122 118 116 127 133 137 137 131 133 136 134 135 137 140 141 141 147 142 143 143 142 144 141 144 139 140 142 134 135 131 135 134 137 135 137 138 136 136 137 138 142 143 142 
147 151 141 137 104 73 33 25 27 25 39 58 74 92 94 96 94 98 101 105 104 109 112 116 114 104 110 107 113 111 114 111 104 101 101 115 120 121 113 117 125 135 133 137 131 135 137 135 136 138 143 143 146 144 142 143 145 141 146 144 144 141 141 140 138 139 134 134 134 136 135 142 141 140 139 140 141 145 141 143 
148 145 139 126 97 70 34 32 31 29 42 61 73 89 96 93 95 100 102 103 107 107 111 106 103 103 111 109 112 110 108 113 102 100 104 112 120 117 110 119 127 132 130 139 133 133 135 135 136 141 144 143 141 142 140 141 145 142 141 141 143 141 139 140 141 135 138 135 133 135 138 141 140 138 141 141 144 144 144 143 
149 145 139 125 99 69 32 32 32 32 44 63 73 80 83 90 94 98 100 102 107 108 110 102 99 103 111 107 110 106 110 106 93 92 109 114 118 117 112 118 134 136 134 139 134 131 136 137 137 139 139 142 141 144 142 142 143 141 142 143 145 141 141 141 139 135 139 136 134 137 141 140 140 142 140 140 144 146 145 144 
147 144 135 120 94 70 27 37 32 34 44 58 69 79 83 90 91 97 100 96 104 103 108 100 98 102 109 107 106 106 106 106 93 92 103 112 120 117 111 116 131 135 134 138 138 138 139 139 137 141 140 137 141 143 139 143 143 141 145 144 143 141 139 140 138 139 138 133 132 142 141 138 139 138 144 143 146 147 146 144 
146 145 132 112 92 70 29 34 40 37 40 59 68 73 79 86 92 95 94 96 100 102 111 99 96 99 107 107 106 103 103 107 94 92 104 112 115 113 105 121 129 131 138 136 135 135 136 134 135 133 139 140 140 140 140 143 141 141 141 143 142 138 139 138 138 138 137 133 135 136 138 140 141 135 141 137 144 145 141 140 
142 142 133 112 96 65 31 39 45 31 44 59 66 71 78 81 86 91 91 94 100 99 105 98 97 101 106 106 103 105 103 103 95 89 106 111 112 107 108 120 126 135 135 138 131 134 138 133 137 138 140 141 137 142 139 142 146 140 140 141 146 139 141 136 138 135 134 135 137 133 134 137 140 140 137 138 143 145 142 143 
144 137 113 113 89 61 26 28 39 38 42 55 62 67 75 80 85 91 93 95 88 93 95 96 93 98 105 103 104 102 101 102 92 90 109 108 110 107 112 124 131 135 133 136 132 133 138 134 134 140 141 142 142 141 140 143 143 140 143 140 143 138 139 139 134 137 134 135 133 134 139 138 142 140 142 139 146 144 140 138 
120 101 98 96 85 64 27 28 47 40 45 55 61 64 76 78 80 88 89 84 88 89 90 92 90 94 105 103 101 99 99 102 90 86 104 108 110 103 105 116 127 133 134 135 134 135 137 129 135 137 140 143 143 140 142 142 144 141 141 140 141 138 142 140 133 136 142 138 134 137 137 140 144 140 140 144 143 145 143 140 
93 79 78 88 85 64 24 25 43 40 46 54 62 64 68 76 81 86 80 84 82 85 90 92 93 95 101 102 105 101 100 99 95 89 106 108 105 103 102 118 124 134 136 137 134 136 138 139 138 138 139 140 142 142 140 144 141 140 140 139 142 139 139 142 133 135 136 139 136 138 140 140 143 140 138 140 144 146 149 142 
82 76 69 83 84 58 21 15 39 36 48 57 58 63 65 77 83 83 83 76 83 83 88 85 92 91 101 99 102 101 102 101 94 90 103 106 103 96 101 121 130 137 134 140 135 139 139 137 140 140 141 142 143 143 143 145 143 143 139 140 142 140 143 141 141 140 139 145 144 145 143 139 143 142 141 142 149 150 147 147 
76 77 67 83 82 51 12 14 32 33 44 54 58 58 65 74 85 83 79 75 78 82 89 88 97 99 100 103 94 104 104 98 83 78 97 98 95 95 101 117 128 133 135 139 134 138 138 137 138 140 144 151 144 142 143 144 143 141 139 141 145 143 144 145 143 140 148 146 151 146 149 141 141 143 144 146 145 150 145 148 
66 74 66 75 70 45 6 5 23 33 40 56 58 60 61 70 78 78 73 74 79 94 90 98 99 101 109 110 105 111 103 99 87 89 101 94 95 89 101 116 126 134 135 137 135 137 142 142 146 143 151 154 144 142 142 140 142 141 147 145 148 144 147 145 150 152 153 153 146 146 143 150 145 145 144 144 150 150 148 151 
62 66 68 72 66 36 0 8 31 37 46 61 62 62 63 65 74 76 71 80 106 125 134 135 134 135 141 139 133 134 129 129 113 108 104 91 95 89 99 115 126 134 133 138 138 146 152 171 195 172 161 151 148 145 146 145 149 150 143 146 148 145 148 146 154 176 183 178 166 157 146 151 152 153 146 146 151 152 149 153 
62 63 64 69 62 33 6 10 36 42 49 60 64 60 62 62 66 72 73 84 115 134 143 145 147 144 149 147 143 145 145 150 147 136 110 95 89 90 96 110 131 134 132 139 140 144 161 214 232 219 166 152 155 155 148 150 149 149 146 145 141 143 146 144 162 189 192 196 197 195 183 173 162 160 152 143 156 160 152 153 
50 52 50 64 56 31 8 13 41 41 49 57 54 49 49 52 55 65 70 98 131 142 144 144 144 150 154 150 151 153 150 151 149 141 110 89 87 87 96 108 127 131 131 136 134 142 169 233 260 229 168 164 163 153 152 149 145 143 145 145 142 136 142 143 168 198 195 201 198 206 206 206 199 190 178 163 164 161 157 159 
47 56 49 55 49 34 14 22 37 35 48 54 49 51 57 53 50 58 75 117 140 141 152 149 144 149 155 154 152 150 155 153 153 148 123 89 82 82 94 109 123 131 133 136 134 141 156 215 240 217 173 163 154 149 148 145 150 143 146 144 141 139 141 145 175 199 202 201 203 208 213 209 215 212 207 199 186 179 164 163 
47 60 47 53 44 31 19 34 44 46 50 56 51 49 51 55 55 68 91 132 148 144 152 149 153 153 154 152 152 152 150 157 153 152 135 94 78 79 94 112 119 130 137 134 138 146 156 194 205 203 180 155 153 147 146 148 148 145 141 142 142 137 140 143 183 199 201 204 207 210 212 214 218 221 219 209 213 207 196 188 
40 48 39 49 40 40 57 64 58 44 56 59 58 55 53 50 61 76 116 138 146 148 150 153 149 150 161 156 156 156 152 155 154 153 145 106 84 83 92 111 119 127 128 135 139 145 176 184 189 191 191 173 153 145 144 145 145 144 140 140 141 139 145 158 196 201 202 202 207 216 218 215 222 222 220 218 218 216 210 210 
35 37 36 37 50 73 71 84 72 53 52 52 54 52 50 53 64 88 132 141 148 146 151 148 153 156 160 158 153 154 154 155 156 154 147 121 91 84 95 111 122 129 127 135 135 154 168 174 176 180 186 186 160 153 142 144 141 139 138 140 141 138 141 161 202 205 207 209 215 220 218 222 223 229 224 223 221 222 219 215 
33 42 43 48 69 79 83 89 79 53 44 52 52 52 57 55 69 113 141 148 154 148 156 151 153 152 162 156 155 156 151 157 157 156 150 142 103 86 88 111 118 128 126 134 137 158 168 167 175 175 185 183 162 148 144 144 144 141 141 146 146 141 145 171 206 205 208 212 219 222 223 223 231 231 230 226 226 222 218 213 
44 42 51 56 70 75 82 83 79 52 54 57 57 53 59 63 89 133 146 146 153 154 155 153 150 153 160 154 153 158 158 156 156 153 149 146 123 94 92 102 119 125 128 135 140 151 158 164 165 165 168 172 151 144 143 141 142 140 144 150 151 149 152 178 209 213 209 213 216 224 224 226 230 231 227 227 228 222 216 215 
49 52 55 62 69 66 75 77 65 56 63 67 62 62 63 82 121 141 144 148 151 160 155 154 149 155 159 157 156 156 161 156 158 155 154 149 146 108 99 114 114 130 132 135 139 145 154 154 145 148 151 148 145 143 140 142 143 146 151 152 155 152 171 186 219 213 218 217 221 226 225 231 232 234 233 229 230 223 222 218 
65 67 61 68 68 73 84 83 71 68 65 75 71 72 84 110 141 152 153 154 158 151 157 154 153 152 160 158 156 158 159 159 158 154 149 146 152 138 115 117 124 128 132 136 139 143 146 144 141 143 145 144 143 142 135 137 145 143 146 151 155 158 167 203 225 217 222 218 227 227 230 233 235 236 232 228 229 229 223 224 
96 96 94 96 98 89 94 96 96 91 90 92 96 97 118 139 147 155 157 151 151 152 158 160 154 153 163 161 163 160 161 159 157 151 145 149 152 149 132 122 128 132 131 134 133 139 139 140 140 140 141 143 143 142 141 137 142 142 146 148 155 164 172 227 236 229 224 226 230 228 229 233 237 241 240 234 231 232 228 225 
113 114 107 108 104 107 101 107 109 104 106 111 112 117 129 144 149 157 151 137 145 157 157 156 154 157 166 161 161 160 154 156 156 146 142 143 148 150 149 135 134 132 135 135 133 138 140 137 136 140 142 145 144 145 143 140 145 145 143 147 154 155 181 236 247 253 235 234 231 229 231 235 244 238 245 236 236 234 229 219 
111 111 105 107 111 107 106 108 108 102 111 116 116 127 141 144 149 149 148 126 142 153 157 151 152 159 162 157 155 160 155 154 152 147 136 135 149 151 148 149 134 136 134 136 134 140 149 137 143 141 146 147 145 144 146 143 143 140 137 146 151 151 162 199 247 249 246 245 236 233 237 238 242 251 248 241 239 238 233 224 
111 109 105 110 108 107 107 108 106 102 106 113 114 133 142 146 145 150 139 120 148 151 161 154 151 159 159 154 159 159 151 158 151 144 134 134 142 151 149 153 142 137 139 142 144 141 146 142 140 142 149 154 149 150 147 145 142 141 141 141 151 150 154 163 186 220 252 264 259 245 242 252 253 256 250 251 244 241 237 226 
112 110 105 114 107 104 105 107 104 108 107 111 118 140 144 147 149 150 137 124 149 157 159 153 153 159 160 157 158 157 156 157 157 144 140 137 144 148 149 151 149 143 140 137 138 143 145 141 146 145 154 155 153 158 158 148 145 139 139 143 154 158 162 156 165 172 204 255 273 266 276 259 264 264 265 257 256 253 250 232 
109 109 108 105 107 105 103 104 109 104 104 111 119 136 146 150 149 149 139 137 153 151 158 153 157 153 163 156 158 158 156 156 157 154 148 140 154 154 153 154 150 146 132 136 141 141 146 147 146 145 152 156 158 165 157 156 154 149 146 144 160 163 163 161 164 158 163 184 229 261 280 287 290 279 275 267 259 261 256 233 
111 109 106 112 106 106 102 105 105 99 102 110 114 129 149 147 153 149 150 150 156 155 159 156 155 156 160 159 157 156 157 158 154 153 160 149 156 154 154 153 148 136 131 127 132 134 136 137 140 142 145 149 151 155 156 154 160 147 143 151 157 158 162 163 157 155 152 160 167 202 249 294 296 293 291 281 273 263 262 224 
112 107 107 113 110 108 108 108 106 101 103 114 114 131 145 148 153 152 156 152 159 159 160 159 157 158 160 159 157 156 154 157 157 153 158 155 157 157 151 147 152 135 123 127 125 131 135 132 132 136 136 142 143 145 145 145 143 141 148 152 151 152 155 150 148 151 152 152 151 161 182 228 269 300 308 300 283 276 265 228 
106 110 107 114 117 108 105 110 106 101 108 109 113 130 139 149 154 160 155 153 158 161 162 162 156 157 161 158 161 160 158 155 159 156 157 154 154 153 151 151 151 143 129 123 124 134 135 135 132 138 144 140 132 133 141 146 152 142 148 149 147 145 151 148 150 150 151 150 151 155 157 169 198 242 295 316 301 295 262 229 
106 111 106 110 113 108 105 105 110 101 110 110 109 119 139 146 148 158 154 156 161 160 163 161 159 158 168 158 156 156 157 158 156 157 158 155 154 152 154 145 145 146 137 126 128 134 136 135 136 133 140 139 139 140 143 147 149 147 147 146 149 144 151 150 149 152 145 153 148 154 156 167 161 182 217 262 287 302 252 235 
105 109 108 111 109 107 107 105 106 102 107 111 105 118 138 145 147 154 157 153 159 158 163 159 157 160 164 158 159 158 156 158 159 155 155 154 155 151 148 145 144 145 146 139 131 139 142 139 142 136 143 145 145 140 146 147 150 150 151 153 149 150 151 149 152 151 151 151 156 155 154 155 161 164 170 189 223 239 230 239 
101 107 108 109 105 102 103 106 104 104 107 109 111 114 133 142 150 156 158 161 160 158 161 157 153 154 163 157 155 158 154 156 157 150 155 154 153 150 144 146 143 144 144 144 141 139 142 144 143 139 147 146 150 147 147 146 153 149 148 151 152 151 156 151 154 155 155 156 149 155 151 150 155 163 162 159 173 183 185 222 
102 106 102 111 111 105 103 109 107 105 108 111 109 115 136 148 150 157 154 155 158 158 163 161 154 153 160 157 157 160 153 157 154 157 157 152 156 150 143 144 140 141 143 146 145 141 151 152 151 154 158 156 153 152 156 151 152 151 150 151 157 154 155 152 157 159 159 157 153 158 155 154 152 152 157 161 163 170 164 164 
100 105 102 108 106 104 103 108 108 107 105 111 106 109 128 143 145 152 151 154 157 157 159 156 155 154 160 158 158 152 155 157 155 153 155 155 153 153 148 145 144 142 144 147 159 163 158 157 160 164 165 163 159 153 153 153 155 152 149 154 154 153 154 156 164 156 153 157 156 159 156 151 153 150 154 154 157 153 153 158 
103 103 104 107 106 100 104 104 106 100 104 104 110 112 129 136 150 148 152 150 156 155 159 158 153 155 160 156 157 157 151 157 155 155 155 155 156 149 148 145 143 144 146 156 163 174 167 159 160 161 164 165 163 157 151 153 155 155 156 155 154 155 157 158 160 158 156 162 162 162 173 162 152 153 152 147 160 146 152 156 


