P2
80 60
140
127 130 132 134 133 132 130 133 134 130 136 131 132 133 134 133 130 126 128 132 132 133 129 126 130 128 130 130 133 131 131 133 132 132 131 127 128 127 125 130 130 129 129 128 129 128 127 124 131 128 128 126 130 126 128 126 130 131 135 130 131 128 127 124 123 123 124 116 117 121 120 122 121 126 126 123 122 122 116 116 
131 129 139 136 132 130 132 134 135 136 134 132 130 132 134 132 134 129 130 132 134 131 130 132 128 128 130 134 131 131 134 132 132 131 131 129 130 129 126 131 131 129 129 131 128 129 125 128 131 131 128 125 128 131 130 129 131 130 130 128 128 125 124 122 127 119 124 119 120 121 123 122 123 124 124 121 121 123 119 117 
130 132 132 127 129 129 132 132 135 133 137 132 129 128 134 133 130 129 131 133 130 133 132 130 133 132 129 131 132 133 137 136 133 131 136 129 129 126 129 131 125 132 130 130 128 128 128 128 131 130 129 125 126 129 129 127 127 129 129 128 127 125 122 124 125 123 122 119 120 120 123 123 124 126 125 122 117 122 118 121 
133 129 133 129 130 133 131 132 132 135 137 133 130 127 133 130 132 129 130 132 135 134 131 131 131 130 130 130 132 131 134 131 128 129 134 130 129 126 130 129 130 131 131 130 129 129 127 130 132 127 128 125 127 126 126 126 126 126 125 127 127 125 124 124 128 121 121 122 125 120 127 126 123 124 125 122 120 120 119 113 
139 126 132 132 129 133 132 130 136 134 135 134 131 129 131 131 134 130 131 134 133 134 135 133 133 131 133 130 130 131 131 134 126 130 128 129 127 128 132 132 127 130 131 129 131 126 131 130 128 129 127 127 125 127 127 127 128 125 128 125 127 125 123 129 124 125 121 124 126 121 122 120 125 126 124 119 118 123 117 121 
129 128 135 135 133 133 135 134 135 133 137 133 132 133 133 134 133 133 131 134 135 135 135 130 131 131 130 132 134 129 132 132 128 130 129 128 128 126 127 129 130 133 132 129 130 129 132 132 128 128 127 130 128 125 126 125 127 129 124 129 129 127 124 125 124 123 124 122 127 124 122 122 125 124 128 120 120 123 120 116 
130 129 137 131 134 134 135 138 137 134 136 134 133 132 132 137 138 131 133 134 135 133 133 128 132 130 131 131 128 127 132 130 126 129 129 128 131 127 126 130 132 131 127 128 130 132 127 126 129 128 127 129 127 127 127 127 130 132 133 130 127 128 126 125 124 124 123 124 122 124 120 119 121 124 124 122 120 116 119 119 
132 131 134 134 134 138 136 135 136 131 135 134 132 131 132 137 134 133 136 135 137 136 134 131 130 131 132 130 129 129 130 126 128 124 128 131 128 125 130 129 131 129 127 131 129 130 130 126 128 128 130 130 129 127 126 127 127 129 129 127 127 128 128 127 123 124 121 124 124 116 117 123 115 120 123 122 118 114 117 118 
136 134 134 135 135 135 140 136 134 134 133 133 129 128 130 136 133 132 133 134 131 133 132 131 132 131 129 130 134 129 133 129 126 127 128 129 129 128 128 129 127 126 123 127 128 128 127 126 129 126 127 129 128 121 122 125 127 127 126 128 127 127 124 125 122 125 124 122 119 114 118 117 119 120 120 118 118 120 116 116 
139 133 134 137 136 135 137 137 134 131 134 131 130 129 131 131 133 131 134 135 133 134 131 129 132 131 129 130 129 132 129 124 127 127 125 128 128 127 126 131 126 126 125 126 126 126 127 128 129 127 127 129 126 124 126 123 129 126 128 126 125 121 122 120 124 125 122 121 121 115 117 119 117 120 121 119 118 124 112 119 
133 135 135 132 134 134 136 134 134 132 134 128 131 131 131 130 133 131 131 134 130 130 129 131 131 131 130 133 131 126 127 129 127 126 128 125 129 126 129 131 127 127 124 125 127 124 124 125 127 124 130 125 124 124 127 125 125 125 124 126 123 125 121 121 123 124 120 118 117 119 115 119 119 124 119 117 115 120 117 116 
134 137 137 139 138 131 136 133 137 132 132 130 130 129 134 130 132 134 129 130 129 130 131 133 132 129 128 130 129 129 128 129 132 131 126 125 127 129 126 132 132 128 125 127 126 127 125 127 125 126 126 127 126 125 123 127 125 127 123 124 126 127 124 121 125 124 119 120 118 115 115 119 117 124 121 118 117 111 123 114 
135 135 140 136 138 136 134 133 133 130 132 132 128 131 127 131 130 131 126 135 128 131 131 132 133 128 129 131 130 129 131 127 129 132 129 134 127 129 131 132 130 126 128 125 131 125 130 126 127 122 129 127 126 123 128 130 127 124 126 124 125 126 128 122 124 122 118 118 115 115 106 117 114 126 124 120 119 123 119 121 
133 132 140 137 137 135 132 132 136 130 133 131 130 130 132 132 130 129 127 127 131 130 128 130 128 129 128 128 130 127 132 129 133 132 131 129 129 131 129 132 128 128 128 126 127 131 128 127 126 130 129 128 124 123 127 122 128 128 127 128 129 124 124 121 121 121 121 119 121 115 117 119 114 119 121 118 124 118 121 113 
133 132 140 137 136 132 134 133 132 130 132 129 130 127 128 130 132 128 127 125 124 131 129 129 127 128 128 127 131 130 127 129 130 131 131 129 131 129 127 129 127 128 128 126 129 125 127 125 125 128 130 125 125 125 125 123 129 140 129 123 125 124 123 121 119 120 119 119 119 114 115 119 114 118 118 115 118 122 120 120 
137 135 140 135 137 133 131 134 133 131 130 129 129 131 130 129 130 126 128 128 127 131 129 129 128 127 126 132 128 127 128 130 128 129 130 133 130 126 123 128 130 128 128 128 128 127 127 128 125 124 125 120 125 122 127 125 127 127 126 125 125 122 123 124 122 120 121 123 122 116 114 114 114 122 122 116 119 121 115 120 
138 136 140 134 133 133 129 129 129 129 128 130 131 128 134 127 128 128 127 127 127 133 131 126 130 127 126 128 126 129 126 130 127 134 132 131 131 127 127 129 130 129 128 127 128 129 126 124 125 124 125 123 123 124 126 124 127 128 126 120 121 124 124 122 119 121 122 117 117 112 113 115 115 113 124 119 114 115 121 119 
137 134 139 136 133 131 128 129 129 128 131 131 131 132 131 127 129 129 126 132 131 131 128 127 128 126 130 131 131 127 129 129 130 132 131 131 130 126 129 133 131 128 129 129 127 127 129 125 126 126 125 125 128 126 127 124 128 134 127 123 125 122 126 123 126 118 118 118 119 116 115 113 110 114 121 117 116 116 118 116 
134 135 136 137 134 133 134 131 131 130 132 132 128 131 128 127 126 132 132 128 130 127 129 129 128 128 128 130 131 127 129 127 132 131 134 131 131 130 127 129 128 128 128 128 127 124 125 125 124 124 127 124 129 125 126 123 125 129 124 122 124 123 117 123 120 123 121 118 118 111 112 116 112 113 116 113 116 118 117 115 
132 134 137 134 131 140 130 131 131 130 131 128 129 126 129 128 129 127 132 131 129 132 130 126 130 132 130 129 128 128 128 130 131 132 132 129 131 131 126 130 130 128 127 127 124 121 122 126 122 124 121 125 125 127 121 121 124 124 124 121 121 123 123 123 122 124 124 117 119 115 113 113 108 109 115 110 116 118 119 110 
131 135 136 133 132 132 130 123 128 131 130 127 129 130 129 127 128 128 126 129 127 130 129 129 129 128 125 127 127 127 138 132 127 129 130 131 131 129 126 128 128 130 129 125 125 123 123 120 123 123 124 124 124 122 124 122 124 121 123 122 121 123 123 122 122 120 120 117 117 111 115 114 110 108 119 109 111 114 117 113 
133 136 135 133 134 128 134 130 131 131 131 130 133 130 131 131 127 128 127 130 129 128 132 128 129 126 127 127 129 128 129 130 130 130 128 132 130 130 128 128 130 129 124 124 123 122 122 125 121 123 125 123 121 128 121 120 123 124 125 123 120 124 117 123 127 123 121 118 118 114 112 111 110 108 120 113 118 112 124 113 
136 135 136 133 133 134 132 136 132 132 133 130 129 131 131 131 127 128 127 129 130 127 126 126 128 127 127 129 127 125 126 127 128 127 127 133 128 128 127 130 129 125 124 123 123 122 124 121 122 123 123 122 124 122 127 122 122 120 124 126 126 120 121 123 125 124 121 119 118 114 109 114 110 112 111 119 113 118 116 119 
137 135 132 137 133 128 132 135 131 131 131 132 130 129 127 129 129 127 127 128 128 128 126 125 127 128 126 127 127 125 128 126 127 127 126 129 129 126 124 130 125 125 122 122 121 124 125 123 122 127 124 120 124 121 122 119 125 125 123 123 120 122 119 125 124 122 126 119 115 111 113 111 107 114 118 109 113 119 123 119 
134 136 134 135 132 133 134 131 133 133 131 131 128 128 129 128 129 126 129 126 131 127 126 126 127 126 124 124 126 127 125 125 124 128 127 126 128 126 124 126 122 125 126 121 127 121 124 123 124 123 122 122 119 124 122 120 123 125 122 122 120 123 120 125 124 125 125 118 122 111 108 108 110 115 117 119 113 119 123 122 
134 131 132 132 128 130 131 129 129 132 130 130 126 126 131 127 128 129 127 127 127 129 129 129 127 126 123 126 124 124 123 122 126 127 126 126 129 124 125 126 122 124 123 123 120 122 121 123 122 121 121 118 122 124 120 118 118 121 129 123 121 120 120 122 123 120 123 116 117 111 111 110 108 109 111 110 115 119 120 116 
130 132 132 130 129 130 129 126 132 131 131 128 128 129 126 128 127 130 127 127 128 128 131 131 128 122 126 125 124 123 127 122 125 126 129 127 127 123 121 126 123 125 122 120 121 123 123 120 122 120 122 118 120 122 120 120 122 120 122 121 122 121 119 119 121 121 118 118 116 107 107 110 109 110 106 110 113 120 116 116 
131 128 133 134 129 128 131 130 132 136 130 128 127 130 127 126 129 125 127 128 129 128 126 132 128 124 126 127 126 124 127 124 122 126 125 125 128 122 120 126 126 120 120 122 121 120 120 121 122 121 121 120 122 120 121 117 121 117 122 121 123 120 120 122 121 117 119 116 117 111 108 111 108 110 112 115 113 120 114 111 
128 130 133 134 129 131 131 129 132 134 128 129 128 131 129 128 125 125 126 130 128 126 122 126 125 125 125 125 127 125 124 123 124 122 124 124 124 123 120 124 124 122 123 120 120 121 119 121 119 121 123 117 117 118 115 117 118 120 120 119 121 122 117 122 120 119 120 117 115 108 107 107 107 103 114 113 115 109 115 113 
131 131 137 131 131 128 130 131 135 132 127 128 129 127 128 125 126 125 126 125 125 127 127 127 123 124 125 125 126 126 122 126 123 123 125 126 126 125 118 121 123 124 122 118 121 118 120 117 119 119 120 119 119 119 119 119 119 120 118 117 122 119 121 122 121 118 124 119 114 108 104 107 106 102 109 109 109 109 105 107 
134 131 135 132 129 127 130 130 131 130 131 126 128 128 125 128 127 124 125 125 126 126 127 126 126 126 126 124 124 123 124 123 124 125 131 126 122 121 121 125 122 122 126 121 119 118 116 118 119 120 118 119 118 116 119 115 125 119 116 120 121 120 122 123 122 119 119 120 116 104 105 109 107 105 105 112 108 109 106 107 
130 135 132 133 128 129 129 127 131 129 131 126 125 127 131 125 126 124 127 127 124 124 126 126 127 126 129 122 127 122 125 124 123 124 126 123 121 121 120 124 126 125 126 123 121 120 120 119 117 122 121 119 119 118 116 117 117 119 115 117 117 119 122 120 118 121 119 116 110 104 104 109 103 104 106 107 109 107 105 107 
128 131 132 133 132 131 128 127 130 128 128 129 128 126 126 127 128 124 125 128 127 126 127 128 128 126 124 127 125 122 125 121 122 128 123 125 123 121 120 124 123 124 123 121 123 120 116 121 120 120 118 120 117 119 117 119 119 117 117 116 119 116 118 118 118 118 118 116 111 109 99 106 103 105 106 110 104 108 105 105 
130 129 133 131 130 131 128 127 131 127 128 129 126 127 127 127 129 123 124 124 125 125 127 125 129 125 124 125 124 126 124 121 122 122 127 122 123 120 119 120 123 122 124 121 121 121 121 117 118 120 120 118 117 120 118 118 119 121 115 118 117 120 117 119 120 115 119 116 113 102 102 102 102 104 104 106 113 108 104 107 
130 130 132 132 130 128 128 130 126 131 129 131 127 127 127 130 129 125 127 129 124 127 125 127 129 127 123 127 126 124 126 124 122 125 123 121 124 119 119 121 123 123 122 119 121 122 121 119 118 119 119 121 122 116 119 119 118 122 119 114 119 118 118 118 121 118 115 114 110 102 102 104 100 107 107 106 109 107 111 102 
129 130 134 132 132 130 130 126 126 128 129 127 124 124 128 128 126 126 127 127 124 126 125 125 122 125 121 124 124 127 125 124 121 126 124 124 124 119 120 122 121 122 124 118 119 122 121 122 119 117 118 119 118 121 115 118 116 117 118 119 117 118 118 117 116 117 115 113 114 108 100 101 98 104 108 109 111 111 111 105 
129 130 134 130 131 130 129 128 127 126 128 126 125 128 127 127 129 126 126 127 123 127 124 124 124 122 121 123 123 125 124 123 124 126 124 124 123 120 120 123 122 118 120 119 118 120 119 118 117 116 120 119 119 118 117 117 116 121 118 116 118 119 113 117 116 117 114 114 113 99 100 103 99 98 100 104 105 109 106 103 
130 133 133 132 130 128 131 130 126 127 127 126 127 128 124 124 125 129 127 124 125 126 126 125 122 119 118 119 122 123 122 124 122 125 125 123 121 117 121 120 119 120 119 117 118 120 119 120 118 117 119 118 116 119 117 117 116 118 119 116 116 116 114 115 117 120 115 113 106 101 101 101 102 98 101 102 101 104 104 99 
130 131 139 132 131 128 128 128 129 130 128 128 126 126 124 126 124 125 128 126 124 127 125 124 124 122 118 123 120 122 125 122 123 123 121 124 125 120 121 121 118 120 119 117 117 116 120 117 117 117 119 116 119 116 118 115 114 116 116 116 113 118 113 115 115 116 115 113 106 97 98 100 97 99 99 101 100 106 106 100 
128 133 134 131 130 130 129 127 129 128 131 128 127 127 124 125 126 123 124 127 125 125 126 127 125 122 122 122 119 122 121 123 121 124 123 125 121 120 119 122 119 122 120 118 119 117 119 119 118 117 117 119 120 116 116 113 114 114 110 115 115 114 115 113 114 114 111 110 103 95 94 95 98 100 103 102 104 107 105 106 
131 127 130 130 128 127 127 127 128 127 128 130 126 129 126 127 124 125 124 125 123 126 124 125 125 121 124 121 121 119 122 120 124 124 122 123 121 118 118 117 118 117 117 117 118 119 120 117 120 120 122 124 119 119 118 113 116 114 116 115 113 114 113 111 113 109 107 106 95 85 84 93 97 96 100 99 101 105 111 101 
127 129 133 130 128 126 127 123 123 126 128 129 127 126 125 125 127 122 124 125 123 125 126 124 126 122 121 121 121 120 123 118 118 120 124 125 123 120 120 118 115 120 117 116 118 117 119 117 121 122 123 119 120 117 116 113 116 112 114 111 115 114 113 114 113 107 111 93 86 54 68 90 96 101 100 99 97 101 105 101 
130 128 136 128 128 128 126 127 129 126 130 128 125 125 127 126 125 122 127 128 125 126 124 126 123 124 119 120 121 120 120 116 122 121 123 127 123 120 118 117 119 119 116 116 117 116 119 121 121 115 119 117 117 116 117 113 112 113 110 112 112 115 114 119 111 112 107 95 41 16 43 80 87 92 98 96 96 99 97 97 
132 127 132 127 126 128 126 124 127 125 128 127 125 127 125 126 125 122 123 127 124 126 122 121 123 122 120 118 122 120 123 118 118 119 122 124 122 121 114 117 117 119 115 118 116 116 121 126 119 117 118 113 113 115 111 111 111 114 111 112 114 113 113 114 116 111 110 89 38 1 41 82 87 92 98 98 100 101 98 96 
126 127 130 127 126 125 126 126 126 124 129 126 128 130 127 126 123 123 123 128 127 124 123 124 126 121 119 118 119 122 121 120 119 120 121 122 119 120 117 120 120 116 116 114 116 117 119 117 117 115 117 111 112 113 110 109 108 111 113 111 111 114 111 112 111 112 110 85 34 0 35 76 83 92 94 95 98 96 95 96 
127 130 130 128 127 127 127 124 125 127 123 123 123 129 127 125 129 125 123 123 124 123 125 123 123 118 118 117 119 120 120 121 120 121 119 121 121 121 116 117 114 116 117 116 116 117 117 114 115 113 114 111 111 110 108 108 110 111 109 112 112 111 112 111 110 113 112 87 30 1 35 77 83 89 98 90 97 95 93 94 
127 128 130 126 126 127 127 127 123 124 128 128 124 125 124 124 125 121 122 124 122 124 122 120 118 117 115 119 122 119 119 117 117 119 123 121 122 121 115 118 116 118 115 115 117 118 115 113 114 116 113 112 111 110 109 110 110 109 109 111 112 109 111 109 116 110 108 81 28 2 37 73 85 90 93 91 94 92 92 87 
130 127 127 124 128 125 128 126 124 124 127 125 124 128 129 129 125 123 123 125 126 124 125 121 123 120 116 118 118 121 118 116 117 117 123 120 121 115 116 115 114 115 115 114 116 114 115 114 114 115 113 113 110 108 108 114 113 110 107 111 110 111 110 111 110 108 105 83 32 2 40 77 83 95 92 92 92 95 90 91 
127 132 126 127 123 125 126 124 125 122 129 125 123 125 128 127 125 127 122 124 123 126 127 124 123 120 116 116 119 118 117 118 118 118 121 118 123 117 113 114 114 114 110 113 116 112 113 109 109 106 112 110 110 111 108 110 111 106 111 110 109 113 110 108 105 106 109 81 26 3 26 74 81 90 92 95 92 92 90 87 
129 125 126 125 125 122 124 124 125 131 129 123 122 124 126 132 124 125 120 125 121 123 124 120 119 121 117 120 119 119 117 118 117 118 122 119 118 115 112 114 118 112 114 113 114 113 110 106 111 106 110 108 107 107 109 107 106 107 108 108 109 108 107 108 106 104 101 74 21 0 24 60 75 91 87 96 94 90 85 85 
125 123 124 127 126 125 126 123 125 126 127 123 124 125 127 125 125 121 123 124 123 123 121 120 121 119 114 118 116 115 117 116 119 118 123 119 116 112 114 114 112 112 112 113 112 107 108 108 107 106 107 104 104 107 107 114 108 109 107 109 108 106 101 106 106 103 102 71 24 4 21 70 78 89 97 94 96 88 85 84 
131 123 125 132 128 126 124 126 127 124 127 123 124 122 126 123 124 122 125 125 122 121 122 122 122 119 117 118 118 116 118 118 114 119 123 118 114 113 111 113 111 112 113 109 113 113 109 108 110 107 108 103 107 109 108 107 111 111 106 109 107 105 106 107 105 104 100 81 32 12 32 70 87 96 95 97 93 91 86 85 
132 126 127 129 129 129 126 125 123 127 127 122 122 123 120 120 120 122 123 123 120 121 120 120 123 121 118 119 121 118 117 117 114 117 122 119 118 107 107 115 113 112 109 112 111 111 108 105 109 108 111 105 108 107 104 110 109 111 112 109 104 105 104 104 103 102 96 91 65 37 58 81 86 95 100 96 96 88 77 83 
128 123 127 122 131 133 126 126 124 126 125 122 122 120 123 121 121 121 122 118 121 122 120 119 122 120 121 120 119 116 118 117 115 117 118 114 113 108 110 112 114 108 111 109 108 109 109 106 107 110 109 108 109 108 103 104 109 108 108 103 107 108 103 101 101 102 102 94 84 77 83 87 89 99 98 100 94 84 78 82 
128 121 124 123 127 124 127 127 123 127 127 122 124 122 126 126 121 119 121 122 118 121 120 118 120 120 121 119 116 112 116 115 115 118 110 112 112 110 108 116 108 110 111 109 110 107 103 104 103 103 107 105 106 106 105 104 104 106 104 105 106 105 104 106 102 102 100 93 90 88 93 101 95 101 95 100 94 89 76 79 
122 121 127 122 123 121 125 125 123 123 125 124 123 123 121 123 122 117 120 124 122 120 121 119 120 116 119 114 117 114 115 115 112 114 112 107 110 110 108 110 111 109 109 109 110 106 104 104 104 102 103 104 106 102 106 105 105 106 107 107 106 106 104 104 103 101 100 96 90 90 95 101 100 104 100 100 96 93 90 86 
121 123 127 126 124 123 121 124 123 127 129 126 130 124 122 122 120 120 122 125 119 122 121 117 118 115 117 118 116 117 113 111 113 109 112 107 107 109 106 110 112 110 109 108 107 107 104 105 106 102 105 104 106 103 103 103 107 103 106 106 106 102 98 102 104 100 101 94 90 89 91 101 101 101 99 100 96 99 89 90 
123 123 125 125 121 120 121 124 125 123 128 125 127 127 120 122 122 122 119 119 119 120 125 117 119 114 117 116 114 115 112 116 115 107 110 106 107 106 106 108 108 110 108 108 106 108 103 102 103 106 106 104 104 103 104 104 105 104 102 104 103 104 100 104 102 100 97 90 89 92 91 98 96 101 97 99 100 97 92 94 
121 119 121 122 125 122 122 125 127 129 126 123 122 123 122 117 121 119 117 122 122 119 121 119 118 114 115 117 117 115 114 112 110 110 107 108 107 105 107 109 108 107 115 109 107 105 105 105 105 103 106 103 106 102 101 101 102 102 103 106 105 102 100 100 105 103 99 91 89 88 93 98 99 97 100 98 99 98 89 95 
128 121 128 123 126 121 126 119 123 122 127 124 120 120 124 122 123 118 121 121 122 119 118 118 117 112 116 119 116 115 114 114 111 110 109 108 111 105 108 111 110 107 108 110 107 108 106 101 106 105 103 104 104 107 100 104 103 101 102 104 104 106 104 102 104 102 97 92 91 91 95 98 98 102 97 100 98 95 96 94 


