P2
80 60
113
16 21 22 12 12 9 11 6 9 9 4 10 10 9 8 8 8 13 14 10 15 12 10 9 12 11 18 15 17 16 18 20 20 21 20 22 19 25 21 22 19 22 21 26 29 24 24 19 26 18 23 28 23 31 34 31 31 29 33 28 23 28 22 28 20 22 18 18 17 21 20 21 21 24 27 20 15 14 15 16 
16 18 16 13 14 9 13 7 9 8 0 6 8 7 10 5 9 12 8 10 17 15 11 11 12 11 18 19 19 15 20 20 20 21 20 21 20 21 26 21 21 22 22 21 24 25 22 24 20 18 25 24 23 28 30 32 33 31 29 26 25 28 24 27 16 21 18 20 18 19 19 22 19 22 21 18 22 18 16 16 
8 14 15 15 9 3 9 11 4 10 4 8 8 11 9 7 5 13 9 11 23 14 11 15 14 14 19 16 18 21 20 24 21 19 19 21 22 22 23 24 23 23 18 19 24 23 23 26 24 20 22 24 25 29 31 30 30 28 29 28 26 28 23 20 21 19 19 21 19 18 23 21 23 20 23 19 24 20 16 15 
12 17 15 11 12 13 12 6 7 10 6 5 7 8 8 4 9 13 10 11 14 15 16 13 12 14 22 17 17 16 20 21 19 14 23 21 22 27 21 22 23 22 25 18 24 26 26 26 28 23 26 24 26 26 31 32 27 30 29 25 29 24 24 22 19 19 18 19 19 23 19 20 22 21 20 18 25 23 15 17 
12 16 13 12 12 11 10 10 11 10 3 6 7 11 12 11 7 11 10 14 15 14 15 12 14 20 24 17 15 16 21 18 23 17 20 23 20 23 27 22 23 19 22 20 26 27 26 27 26 24 26 27 26 31 29 33 30 26 30 27 30 26 25 30 26 18 22 22 19 23 23 19 21 27 20 24 20 23 19 21 
16 15 18 16 10 13 15 11 15 13 3 10 11 11 14 9 7 15 16 17 15 18 18 19 19 18 19 17 17 21 20 20 18 18 20 24 24 26 29 23 23 24 26 25 32 26 33 28 23 23 29 32 31 28 29 31 29 30 32 30 27 25 23 25 27 26 21 26 27 19 23 24 23 22 24 21 21 21 16 19 
19 18 20 15 14 13 14 10 17 10 8 14 11 9 15 10 17 16 20 22 17 17 16 19 19 19 23 22 20 20 20 22 21 21 21 23 24 24 30 21 23 22 26 25 27 29 28 28 27 21 28 31 30 31 30 37 32 38 40 30 30 29 26 25 27 26 23 27 25 23 23 22 22 23 26 26 23 20 17 17 
16 24 16 15 11 15 12 12 8 14 8 7 12 10 11 12 18 19 19 18 20 16 18 18 22 18 21 21 22 22 21 20 18 21 23 25 25 28 27 23 25 23 25 28 29 25 27 29 28 25 30 30 31 32 33 39 32 37 33 30 29 34 31 26 23 29 27 25 27 22 24 24 22 22 20 22 21 17 18 20 
16 20 21 19 15 11 12 15 14 13 11 3 10 8 7 10 12 15 14 18 17 13 15 17 20 19 20 16 19 19 23 19 19 21 21 22 23 25 27 21 24 22 25 25 29 27 23 25 25 25 32 29 26 30 35 33 31 30 29 34 27 30 29 27 27 25 24 27 22 23 25 20 21 23 22 18 20 18 18 20 
17 24 22 23 12 11 18 16 14 10 4 9 10 11 13 12 16 15 10 14 16 18 15 16 17 14 21 18 23 20 23 20 20 18 23 23 21 23 24 22 23 19 22 24 26 24 24 24 23 23 28 29 29 30 32 32 30 29 31 32 27 32 27 28 23 25 27 21 22 19 23 25 24 23 23 22 21 16 17 19 
21 19 22 19 17 18 21 16 17 13 6 14 12 10 14 11 15 12 11 14 15 13 13 14 20 16 21 20 18 19 22 22 20 21 24 22 25 23 24 22 23 22 24 23 26 25 23 27 24 22 27 30 28 30 31 33 33 33 36 28 34 28 29 31 23 23 21 27 18 21 22 23 21 22 21 21 23 21 16 21 
19 17 22 20 13 16 15 15 13 16 6 9 10 12 11 9 10 13 14 13 15 16 14 18 15 16 20 22 19 20 21 23 19 21 24 22 23 25 21 25 26 19 23 27 27 23 27 28 23 24 25 28 27 27 31 33 34 31 30 28 27 31 26 26 28 24 23 26 23 18 20 19 23 27 21 27 26 25 14 17 
18 18 24 22 16 14 13 10 15 12 10 8 9 8 9 9 10 9 9 9 17 16 15 16 16 14 19 21 16 20 22 21 23 22 20 22 25 19 23 23 24 20 22 26 30 25 27 29 27 23 27 26 27 29 28 32 31 31 31 25 27 26 30 28 25 24 23 21 22 21 15 25 28 19 23 18 17 26 14 15 
18 26 22 16 16 16 8 13 13 11 6 9 8 10 11 9 9 12 11 11 19 12 12 17 13 18 16 13 16 19 18 20 23 23 21 20 24 25 21 25 25 22 25 26 28 28 28 30 29 28 28 29 23 29 29 35 33 34 34 33 28 26 27 27 27 25 24 25 19 22 24 17 24 24 24 20 21 18 19 17 
21 23 23 20 8 12 12 14 11 8 5 8 10 8 9 8 9 10 11 13 13 11 11 15 15 17 19 18 15 19 19 19 21 24 24 22 24 22 21 25 22 23 21 27 26 29 26 26 27 27 26 30 27 30 31 33 35 44 33 32 29 30 27 28 26 25 26 24 21 21 20 22 25 27 21 20 22 23 17 17 
17 21 23 18 16 9 11 13 14 15 2 7 8 8 11 12 9 13 13 12 12 14 12 15 14 15 17 16 17 19 16 22 19 20 23 24 22 22 22 22 25 23 24 26 27 26 26 26 28 22 27 30 28 29 32 32 31 35 32 30 26 29 30 25 26 28 23 36 22 22 19 24 25 25 23 23 24 25 15 15 
21 23 24 18 18 11 9 11 13 7 1 7 9 7 12 11 12 12 9 12 15 13 13 19 16 16 21 19 16 20 19 20 21 23 24 21 22 24 23 23 24 22 26 23 25 25 27 25 24 23 29 30 29 30 35 32 35 35 35 28 30 29 27 28 25 28 23 23 21 22 24 25 32 26 24 26 24 24 21 20 
19 21 22 17 14 13 13 13 9 9 3 9 11 9 13 11 13 12 10 16 14 14 13 15 17 21 19 19 15 20 20 24 25 22 21 23 23 22 24 24 26 25 19 23 25 29 26 24 26 22 25 28 31 30 36 34 34 40 35 31 26 28 24 26 28 25 22 28 24 24 26 27 27 24 23 21 23 22 19 17 
17 15 23 20 18 16 14 11 10 9 4 11 12 12 10 9 10 16 16 18 16 16 16 17 16 17 20 17 15 19 19 23 26 24 22 23 25 23 26 27 22 24 22 27 27 25 22 26 27 21 25 30 31 32 32 33 34 31 34 30 30 29 26 29 26 27 26 27 24 23 25 26 24 25 25 24 21 23 21 16 
19 23 24 21 16 17 16 12 10 8 5 7 9 7 13 13 10 14 15 15 16 17 22 19 17 19 25 18 20 21 22 23 22 25 24 22 26 26 23 27 27 24 25 22 26 22 22 27 28 21 26 28 28 36 31 32 33 29 35 34 29 28 25 27 26 25 25 25 22 25 25 25 25 25 22 18 23 19 17 20 
24 20 21 19 18 16 11 15 11 5 1 13 9 11 13 13 12 12 15 17 15 20 18 22 17 16 18 17 18 24 23 24 18 21 23 23 24 23 23 22 22 27 22 26 26 23 25 23 27 27 25 31 27 30 33 30 32 30 29 32 28 26 28 26 28 27 23 27 26 28 30 25 24 26 24 24 22 19 22 19 
16 21 25 21 19 17 14 9 14 10 1 12 15 8 12 14 17 17 14 17 16 18 20 19 20 16 17 16 18 21 22 22 23 23 22 24 25 27 23 23 25 23 24 23 25 24 22 28 27 22 29 31 24 28 32 31 29 31 33 28 29 30 29 28 27 26 26 29 24 29 29 27 26 25 24 21 23 21 19 19 
18 19 22 22 13 12 16 13 12 8 4 13 13 10 12 10 12 14 16 13 15 16 16 15 14 15 19 19 17 18 18 23 23 22 20 25 25 22 25 23 22 20 20 26 24 24 24 24 25 26 29 26 29 29 33 30 28 27 32 29 32 32 27 26 29 28 24 24 26 25 26 27 28 23 21 23 22 24 18 20 
21 22 17 15 17 7 10 11 12 9 0 11 14 9 16 16 11 15 16 16 18 14 18 15 17 17 20 18 18 20 23 22 20 21 22 25 24 22 21 24 19 23 20 25 25 23 23 27 26 28 30 29 27 32 30 31 32 32 31 29 28 26 30 31 26 29 29 26 25 26 25 26 26 28 22 25 25 24 25 21 
18 15 20 20 14 14 5 12 13 11 3 9 12 13 17 14 11 16 14 14 20 19 18 16 18 19 20 23 21 21 20 25 23 23 22 21 23 22 22 21 22 20 24 22 28 24 25 26 28 24 25 29 26 33 32 28 34 32 29 29 28 31 29 29 30 27 31 28 29 27 27 25 26 27 26 21 26 25 27 29 
12 21 21 16 14 18 14 12 11 9 5 10 10 16 16 14 14 15 16 19 20 13 18 18 18 18 19 19 18 21 21 20 21 18 21 26 25 21 21 22 22 25 24 26 29 27 25 27 27 27 28 28 27 34 29 30 28 34 32 33 29 27 29 29 33 28 29 25 27 26 27 25 26 26 29 23 25 28 26 27 
15 17 24 17 17 10 15 11 11 10 6 12 11 10 15 13 12 15 12 13 18 16 24 19 17 20 25 18 19 21 15 19 19 22 21 22 24 22 22 23 23 24 26 25 27 28 24 27 28 24 30 30 24 31 30 30 29 31 29 32 30 30 29 28 29 28 29 29 26 24 26 27 27 27 26 21 28 24 25 25 
21 19 16 19 16 14 14 13 10 11 3 8 10 10 14 12 12 17 18 17 16 21 18 20 19 22 25 21 18 22 22 21 23 20 21 25 24 23 22 25 21 24 24 24 27 28 24 25 25 24 27 27 25 29 29 30 30 29 29 30 33 26 29 29 28 27 29 29 26 28 25 26 27 27 27 27 26 25 22 22 
20 20 15 14 16 16 9 13 8 6 1 9 7 11 14 12 14 16 15 18 17 15 14 20 16 19 19 24 21 21 22 24 22 22 20 24 23 24 25 26 23 21 24 22 26 26 26 26 25 22 27 25 22 30 25 30 30 28 30 29 28 31 28 30 26 30 29 29 26 24 26 25 26 28 27 23 29 25 26 19 
22 25 24 16 17 13 12 9 13 13 0 4 11 15 17 15 13 17 12 19 17 16 18 17 20 19 20 21 18 20 19 24 21 19 24 23 24 25 26 25 24 25 26 21 26 27 24 28 26 26 24 25 26 27 29 28 30 32 32 28 29 29 28 29 28 27 34 30 28 29 24 26 28 29 22 24 20 24 18 18 
20 22 20 16 10 10 13 14 12 11 5 12 11 12 13 17 17 18 14 18 16 16 14 22 18 25 22 17 18 19 19 22 22 21 23 24 24 23 25 24 22 25 31 24 26 28 24 29 25 27 25 29 27 33 31 32 32 31 32 28 31 31 27 28 26 27 27 31 27 26 28 23 28 28 24 23 25 22 15 22 
20 26 18 18 18 8 10 12 12 11 11 11 18 18 15 22 21 20 16 14 20 16 19 22 25 24 24 22 21 20 24 27 23 20 22 26 23 22 23 25 26 28 23 27 26 28 26 30 30 29 30 29 25 34 35 33 34 31 31 29 30 31 30 28 28 29 30 33 26 26 26 26 30 27 25 19 26 22 19 20 
23 19 23 19 15 13 14 12 12 10 14 24 25 22 23 22 24 23 18 21 20 18 20 22 26 25 23 22 18 23 23 24 24 21 26 27 26 24 27 25 26 24 28 29 29 29 29 28 27 26 27 33 27 30 31 36 31 30 28 31 31 30 29 28 32 31 28 31 33 27 30 27 26 27 25 24 27 25 23 21 
18 21 22 19 22 16 16 15 15 22 22 26 25 21 20 21 20 23 19 22 20 17 17 22 22 22 21 20 20 27 25 24 26 25 24 28 25 26 29 28 25 27 30 30 32 28 29 34 27 27 28 32 31 30 34 33 33 29 32 29 31 34 29 32 33 31 27 32 27 27 29 27 28 29 28 26 27 27 22 23 
20 17 23 20 19 17 19 21 21 28 21 21 19 18 20 21 22 24 19 20 23 19 22 20 24 20 22 22 23 25 23 27 22 20 27 28 28 27 26 29 29 27 29 30 29 31 30 30 27 28 29 30 33 29 34 35 34 35 34 34 30 31 30 31 31 30 33 29 30 29 28 25 30 31 27 26 24 25 24 25 
20 23 25 21 23 24 26 22 20 18 14 24 23 20 23 20 22 19 19 19 24 18 20 21 24 17 21 21 21 23 24 26 24 22 27 28 25 25 28 28 27 30 26 30 32 30 31 35 28 28 27 32 33 29 32 34 30 32 33 32 29 30 31 30 31 30 31 31 29 29 29 27 27 30 28 28 26 30 22 22 
25 27 22 24 26 26 25 19 19 20 16 22 16 17 23 25 21 24 19 19 21 21 21 20 22 23 21 21 24 24 25 27 28 22 24 30 30 27 28 29 30 30 29 31 31 32 29 32 30 29 34 34 34 35 35 32 36 33 35 33 33 27 31 30 30 31 28 29 31 31 32 27 28 26 26 27 28 27 25 16 
26 31 27 29 31 25 25 26 26 25 19 20 24 22 21 19 24 26 25 21 20 21 23 25 21 21 26 21 25 24 25 27 27 29 26 29 29 28 28 30 28 29 31 33 33 30 31 32 31 30 33 34 34 36 40 36 34 36 36 32 34 30 31 34 32 33 27 28 30 27 30 26 28 28 32 25 29 27 23 22 
28 37 37 27 27 24 30 28 37 37 33 23 25 24 21 24 18 23 18 16 23 26 24 23 23 24 27 25 22 27 26 28 27 31 27 28 30 29 32 29 28 30 31 34 30 30 33 35 34 31 37 35 37 38 39 36 33 36 35 35 33 32 34 32 31 30 29 29 31 26 25 26 27 29 31 26 27 26 28 26 
25 26 28 26 29 23 26 25 44 60 61 55 47 39 26 19 18 21 21 19 22 23 21 25 25 23 31 29 26 28 28 30 27 26 28 29 28 33 32 32 27 31 30 34 33 32 34 32 34 31 37 35 35 37 40 38 36 38 33 32 33 33 32 32 31 28 31 30 27 32 30 29 25 30 26 27 28 28 22 30 
25 31 32 32 24 22 21 31 47 63 64 64 66 61 52 41 37 28 23 23 26 20 24 24 25 27 36 27 28 25 27 30 30 28 27 29 31 28 32 29 31 32 30 33 31 35 32 36 33 30 36 39 36 44 41 39 38 37 33 32 32 33 32 32 32 29 30 29 34 28 28 29 29 26 26 27 29 23 30 30 
27 33 32 31 19 15 16 27 59 68 67 75 69 69 65 66 66 56 49 40 29 29 25 29 27 29 33 31 26 28 25 31 28 34 28 32 31 33 31 31 31 31 35 34 33 35 36 35 39 32 37 39 37 39 41 41 39 38 35 34 38 34 33 35 35 34 29 28 29 28 27 30 31 29 28 25 32 26 29 34 
33 30 26 19 13 12 22 29 54 75 69 77 71 73 71 72 72 68 65 65 64 53 40 35 29 32 32 28 27 28 29 31 28 26 33 37 34 32 33 31 32 30 32 33 36 36 36 38 37 30 35 38 36 37 42 38 40 37 36 38 37 35 34 38 32 33 35 29 29 29 28 27 28 27 29 29 22 25 26 25 
30 20 21 18 13 16 16 25 51 74 69 81 76 79 77 75 77 74 76 76 76 71 71 64 58 45 41 31 32 29 32 31 32 28 29 32 34 35 38 34 32 34 33 34 36 39 39 45 35 36 40 42 35 40 41 39 39 37 35 37 38 35 38 39 37 34 32 31 31 31 29 31 29 31 31 29 27 26 26 32 
23 20 23 19 17 12 19 26 58 76 73 78 79 79 80 79 76 81 80 81 88 78 77 79 76 69 66 56 49 43 38 38 36 32 36 36 36 33 38 34 34 35 34 34 38 39 38 43 42 38 42 43 40 41 41 37 40 39 39 37 35 37 37 35 35 34 35 33 34 33 36 32 31 30 28 31 30 30 29 29 
15 18 20 17 18 13 13 29 57 79 72 78 82 79 83 76 83 79 84 84 84 83 79 79 80 78 78 75 69 65 62 56 46 34 39 39 34 32 32 35 33 35 36 37 38 39 38 41 38 38 40 42 37 40 41 39 36 40 40 38 37 37 37 33 33 35 36 39 35 32 35 32 32 30 32 33 33 31 27 21 
13 17 20 18 16 11 20 34 59 83 76 81 84 79 78 77 86 83 84 83 87 86 84 87 85 88 88 80 78 81 81 74 73 66 63 51 53 43 40 37 40 40 39 40 37 42 40 40 38 37 40 41 41 44 43 40 39 43 41 41 37 39 36 34 37 38 35 34 32 30 34 35 36 31 32 32 32 31 30 31 
16 18 16 15 18 14 21 32 60 79 69 81 83 79 80 81 83 85 84 82 87 86 87 85 85 86 87 81 82 80 78 78 81 81 77 76 72 62 52 47 39 41 32 41 37 39 39 41 39 34 36 38 41 45 45 44 44 42 40 41 39 38 37 34 36 35 35 36 36 31 31 35 33 35 29 27 32 30 26 26 
20 17 18 16 10 14 17 35 63 79 74 81 81 81 83 80 80 84 86 85 87 86 95 89 89 86 90 85 87 82 82 82 83 83 87 86 90 88 74 73 72 58 49 46 47 43 43 40 39 35 40 39 39 45 41 46 46 42 42 40 42 41 37 36 37 33 39 32 31 29 31 31 33 33 29 25 31 32 28 21 
16 19 17 13 17 13 16 32 63 77 71 82 84 81 85 83 79 87 85 86 87 84 90 87 90 89 90 89 86 89 86 89 89 88 88 90 90 89 87 89 90 77 80 73 64 56 48 44 44 35 43 38 39 48 47 46 44 46 42 40 41 42 40 37 34 35 35 37 33 29 30 33 33 35 33 25 29 27 25 20 
20 18 20 19 16 11 16 34 68 85 77 79 79 82 83 85 81 85 85 84 89 87 88 87 91 88 89 91 89 92 89 89 91 94 92 90 92 94 93 91 92 88 93 93 86 86 77 75 65 50 52 42 42 47 49 45 51 44 46 42 42 41 42 41 37 37 39 36 36 34 35 37 36 38 32 33 30 24 23 20 
15 17 18 14 21 18 18 33 65 82 81 79 84 82 86 81 82 88 90 87 91 87 84 84 90 88 90 87 90 93 92 93 91 92 97 96 93 92 96 93 91 95 94 97 93 94 96 92 86 77 76 66 58 53 48 47 48 48 45 43 42 44 41 41 38 36 35 38 34 37 36 35 34 33 34 33 32 28 24 27 
19 22 18 22 16 18 19 34 66 81 75 81 83 82 84 85 80 88 88 88 91 88 88 89 94 91 94 91 88 93 94 96 90 92 93 99 95 95 95 92 95 93 94 96 97 99 100 99 102 90 96 95 84 83 77 68 61 52 55 50 43 47 43 39 37 38 40 39 35 35 35 36 37 37 34 34 33 28 26 24 
19 16 19 19 28 21 22 42 73 88 79 81 84 82 86 81 84 84 84 89 92 93 88 96 95 93 97 94 92 93 95 96 91 93 93 94 96 94 97 98 100 95 95 99 98 99 101 102 101 98 100 96 95 99 98 96 93 79 69 65 56 47 45 45 42 34 35 38 35 37 39 33 37 33 34 30 35 32 29 25 
14 20 17 16 17 18 23 39 77 86 86 83 90 83 90 82 84 88 85 89 92 90 89 93 97 96 100 92 93 95 93 96 96 95 97 95 97 98 98 97 100 94 95 102 101 99 100 100 101 95 103 106 98 104 103 106 98 98 92 85 77 74 61 55 45 44 42 39 36 37 38 40 33 36 27 28 29 30 29 27 
15 14 19 18 16 16 27 38 80 92 86 85 82 86 89 83 86 85 86 87 91 90 92 93 98 95 99 95 94 93 95 96 92 89 100 97 98 99 97 97 100 100 98 103 102 102 102 104 101 100 100 103 102 101 103 101 99 103 95 97 95 85 79 78 76 64 59 50 47 46 38 36 34 39 34 30 30 24 29 19 
18 19 19 13 15 21 19 42 78 99 90 88 91 86 82 82 87 87 84 91 93 91 92 92 94 94 96 94 93 95 93 94 94 94 97 100 98 96 100 98 102 99 97 100 103 102 102 107 103 101 103 98 103 103 103 103 105 100 98 97 92 91 91 89 88 81 75 68 63 59 42 41 34 35 35 31 33 28 25 19 
21 21 15 17 16 22 25 45 81 101 86 91 88 85 83 87 86 88 85 86 94 90 93 98 95 94 99 94 95 94 95 96 95 97 97 99 100 96 101 101 99 101 100 105 102 105 107 111 106 105 104 104 102 104 108 101 106 99 99 97 97 92 90 90 92 90 88 88 81 81 64 55 48 43 39 34 38 28 29 23 
20 24 27 26 20 24 30 51 85 104 93 90 90 91 85 82 84 87 86 89 92 92 93 97 101 96 100 98 98 98 98 98 96 97 102 103 103 104 105 101 107 104 110 108 107 108 108 108 110 102 107 105 105 108 110 108 103 100 102 98 97 94 92 94 90 89 92 90 94 83 70 64 71 64 54 41 45 34 26 23 
27 27 28 24 19 24 29 50 92 99 92 95 92 85 86 85 87 88 87 92 94 96 92 98 100 93 101 98 99 98 99 99 97 99 100 106 106 103 107 102 107 107 110 109 110 113 113 109 109 102 108 107 104 109 107 107 109 102 100 100 99 97 92 99 93 88 91 95 93 85 75 72 69 66 65 63 60 49 34 34 


