P2
80 60
290
148 146 148 150 140 140 138 142 144 139 142 138 134 132 104 71 89 101 98 97 110 118 114 107 113 111 114 111 115 116 117 117 120 119 109 107 114 122 115 115 120 128 125 128 129 129 130 127 132 131 126 131 131 130 127 129 131 132 133 126 126 125 125 122 125 128 130 129 130 133 132 137 134 133 140 139 139 139 139 144 
146 145 148 143 139 136 139 143 139 141 139 137 137 122 99 58 84 99 94 97 109 111 114 110 110 111 119 117 119 114 117 120 116 116 107 103 117 123 111 119 122 127 127 127 130 133 132 132 128 130 128 130 127 129 128 129 134 131 127 125 127 121 120 116 128 125 128 129 130 129 136 138 135 135 138 136 140 137 136 142 
143 147 150 146 140 140 136 138 140 140 135 138 132 124 82 45 63 94 98 99 112 116 111 111 114 116 118 114 114 115 117 118 117 118 109 104 112 117 114 118 121 126 128 128 128 129 132 132 129 126 127 130 129 126 126 129 129 127 130 127 124 121 117 119 126 124 130 134 129 130 134 138 137 131 139 137 138 138 139 137 
146 151 144 145 139 142 135 141 142 142 142 136 132 119 69 42 55 92 97 94 106 119 116 111 113 114 116 116 115 113 117 121 118 114 106 101 117 119 114 114 126 128 131 130 130 131 131 131 134 132 130 127 128 128 126 131 129 127 129 128 127 125 121 121 124 125 131 131 134 135 136 139 138 136 138 138 140 144 141 140 
151 151 145 145 141 143 140 142 143 141 140 138 129 117 61 39 48 86 97 97 107 116 116 115 116 114 117 115 113 115 117 116 115 115 100 105 116 122 117 123 126 130 131 133 131 131 137 135 130 132 129 129 129 131 127 130 129 125 130 130 129 125 125 129 128 131 132 132 132 133 135 141 138 136 138 141 139 140 138 140 
151 147 145 143 137 136 140 141 144 143 142 136 127 105 47 27 45 83 97 95 107 121 121 115 119 114 116 117 119 116 117 113 114 109 101 104 118 120 115 116 124 128 134 130 132 132 137 132 134 131 129 130 130 129 126 132 130 129 131 129 127 121 123 128 128 130 133 137 141 137 135 141 131 136 140 139 140 142 141 137 
149 148 145 144 135 139 135 138 142 143 146 130 123 104 40 25 49 79 93 97 109 118 121 116 115 117 116 116 121 118 116 118 118 112 99 109 119 117 118 116 126 128 129 129 129 136 134 136 132 131 129 131 128 128 131 129 132 134 131 130 124 123 121 128 129 129 132 135 137 134 134 137 136 134 141 137 142 136 139 140 
149 149 149 143 135 144 135 141 140 146 141 130 128 97 36 26 52 75 90 96 116 117 113 111 115 117 115 117 115 116 117 116 117 111 98 108 117 118 114 118 131 128 129 128 130 134 136 132 134 131 133 132 134 131 130 134 131 133 131 128 126 126 126 125 128 132 132 135 137 133 135 141 134 137 140 137 140 138 134 137 
156 152 149 146 139 137 139 142 140 143 138 132 126 90 33 26 56 75 86 94 113 115 109 111 118 116 114 114 116 116 118 118 116 113 102 106 118 114 114 118 127 126 127 131 132 134 133 131 132 130 134 132 132 131 129 131 131 130 129 131 125 125 126 127 131 131 131 134 133 141 136 134 138 135 135 137 140 136 135 133 
150 148 149 145 138 135 142 143 144 141 137 128 124 87 27 34 59 76 84 91 103 110 111 107 113 113 112 114 113 113 110 114 116 111 101 105 118 116 110 117 128 129 129 126 134 134 130 131 132 131 133 129 131 131 130 128 130 125 128 134 127 122 125 127 127 127 134 134 134 137 136 140 137 135 136 127 141 133 133 138 
145 143 149 137 137 135 143 146 141 139 136 132 118 79 27 36 59 81 86 100 103 106 107 110 111 109 110 112 113 112 113 113 113 110 98 109 114 116 114 119 127 126 127 128 133 130 133 131 129 131 129 131 129 132 129 130 128 126 134 126 127 123 121 125 129 127 133 136 134 133 134 137 136 135 135 137 136 136 135 136 
147 143 145 143 136 139 137 141 140 134 131 126 116 73 13 14 42 65 77 90 97 103 101 106 106 110 107 112 111 112 113 112 113 107 99 106 114 113 113 115 130 123 127 128 131 127 134 130 127 131 131 128 132 131 127 128 128 126 129 131 124 124 124 128 127 129 132 135 135 132 134 134 135 136 137 140 141 136 136 135 
148 146 143 143 128 132 138 137 139 137 129 123 111 65 3 10 32 45 77 85 98 101 99 104 107 106 111 113 113 112 114 114 114 107 101 103 116 111 111 116 126 125 128 132 130 132 133 131 130 130 131 130 129 128 126 129 131 129 126 127 127 124 130 126 128 128 131 134 134 136 127 134 132 138 135 138 143 137 135 141 
147 145 146 140 131 132 133 142 137 133 130 126 109 58 1 10 23 42 72 80 93 97 98 102 105 107 106 112 105 110 113 114 112 106 105 103 113 110 111 116 126 126 126 128 130 134 134 133 134 135 131 131 128 126 125 129 129 129 132 130 123 127 124 128 132 129 133 132 132 134 134 134 135 136 136 136 141 141 136 137 
143 144 144 135 131 135 133 141 140 138 133 126 107 50 4 2 19 40 68 75 82 91 92 98 97 101 105 109 110 111 111 114 108 105 95 105 112 109 111 116 126 125 129 129 126 131 130 133 131 134 130 131 131 127 127 129 132 142 132 129 126 126 125 124 129 130 131 133 137 132 132 137 136 139 134 134 140 138 140 140 
143 144 141 140 123 126 133 139 140 135 134 123 105 47 4 3 26 48 62 71 79 90 95 95 96 104 109 108 107 113 112 111 108 100 97 101 111 107 104 118 127 127 128 129 127 129 133 130 132 129 132 130 130 133 129 131 129 132 134 128 125 126 123 124 128 132 133 132 136 134 132 138 138 136 138 137 139 139 134 140 
146 141 142 135 119 120 134 141 144 137 130 125 102 42 1 9 27 47 63 65 77 81 82 88 94 102 115 107 108 110 111 111 108 100 95 106 107 107 103 116 123 127 129 127 126 140 132 130 129 132 129 128 130 130 129 129 132 133 132 130 126 125 124 125 123 128 133 136 133 135 132 141 143 139 136 134 137 139 136 138 
141 141 142 140 119 115 130 140 140 133 131 131 104 40 0 6 26 43 66 66 74 81 86 90 98 124 120 114 109 111 112 110 114 101 99 106 108 107 104 118 129 125 125 128 129 133 130 130 130 129 127 126 129 131 132 129 131 135 132 131 124 129 122 125 126 131 133 138 134 136 136 143 139 139 141 136 142 137 133 137 
144 140 136 135 114 113 127 138 139 138 129 125 98 38 3 8 23 44 64 68 72 85 89 97 99 116 116 112 110 108 112 113 117 98 102 114 111 110 114 126 129 131 128 132 132 132 131 131 130 127 130 127 134 134 129 131 133 131 135 130 127 124 121 125 131 133 131 136 137 138 137 140 139 137 139 138 139 137 136 137 
139 141 135 124 107 104 123 138 139 137 137 125 98 35 0 9 23 45 62 64 74 82 90 92 104 117 118 113 108 111 112 112 109 98 101 111 114 113 111 123 131 129 130 128 129 129 131 130 130 132 130 127 133 129 129 127 128 129 128 128 125 125 125 128 130 130 134 135 137 135 138 139 142 138 136 137 139 137 137 140 
141 136 133 123 110 108 122 135 136 138 134 131 98 34 3 4 22 44 65 64 72 81 93 107 113 119 115 113 107 109 114 111 104 98 97 108 111 109 115 124 128 132 127 127 130 128 132 130 129 130 130 128 132 130 134 126 131 127 128 128 125 124 129 131 130 130 133 134 136 136 139 138 138 136 138 137 139 138 140 136 
140 141 124 119 111 117 125 135 137 140 131 124 93 29 2 8 22 45 62 62 73 87 97 106 111 112 120 117 114 110 112 111 108 100 94 108 109 108 110 124 129 130 130 127 126 129 130 131 129 129 129 128 133 131 128 127 127 129 130 126 123 128 127 130 133 131 136 139 141 140 138 142 140 135 139 138 142 142 141 144 
146 132 131 121 117 113 128 135 135 136 130 119 86 25 6 7 30 51 62 64 70 88 92 97 102 109 115 115 117 113 104 110 101 98 96 107 108 110 112 125 131 128 130 130 124 128 130 130 128 133 130 130 134 131 129 127 129 126 128 125 127 126 125 127 132 135 136 135 137 138 138 142 142 137 134 137 140 141 136 138 
138 125 126 118 109 109 122 136 137 140 132 113 75 21 3 12 27 49 65 66 73 90 90 95 99 103 111 117 116 109 105 109 100 100 94 108 108 109 107 122 128 126 128 129 130 129 129 133 132 134 132 131 132 131 130 124 130 126 127 127 124 125 127 127 133 132 137 139 141 138 137 143 139 134 137 138 141 141 136 140 
137 127 115 107 106 112 122 135 137 136 131 103 73 23 13 13 35 51 65 61 78 98 98 96 100 107 112 116 118 106 107 107 95 98 97 106 106 108 110 125 129 125 127 130 127 128 132 134 132 132 132 131 130 131 126 130 131 126 127 127 126 127 124 127 135 132 137 139 137 135 136 142 140 141 141 138 142 141 141 139 
135 122 117 95 96 101 118 130 130 135 126 102 68 24 21 21 36 52 61 66 81 94 93 101 102 107 110 117 116 104 106 107 95 96 96 106 108 111 111 121 129 126 130 128 131 132 134 133 132 131 128 128 130 131 126 126 125 130 127 127 127 125 125 128 130 134 138 138 137 136 137 141 142 142 143 140 148 142 137 145 
128 118 109 96 93 102 120 127 130 134 119 95 65 25 26 28 35 55 63 66 77 97 101 98 104 105 107 108 110 102 104 105 96 93 98 107 103 106 110 125 128 125 129 129 131 133 133 132 129 127 126 127 129 125 123 128 127 127 125 127 127 127 123 129 131 133 137 138 135 137 140 140 139 138 138 139 143 141 138 142 
128 125 117 101 102 113 123 124 130 130 119 94 63 22 33 31 37 56 62 64 75 88 97 97 101 104 106 106 101 100 106 102 90 90 96 103 102 105 114 127 127 126 132 129 128 130 133 129 130 128 132 131 128 125 126 128 125 126 125 125 129 126 122 131 134 134 137 137 139 139 140 142 141 141 138 140 140 138 139 136 
134 119 116 108 98 108 120 125 124 124 118 84 61 23 35 34 39 54 62 65 66 83 90 95 98 101 102 101 98 100 102 99 89 90 98 104 98 105 120 126 130 124 129 131 131 130 133 131 129 130 130 129 127 127 125 125 130 122 126 125 128 128 126 133 135 136 136 141 139 137 139 139 141 144 144 141 143 141 135 140 
131 115 116 104 99 93 106 119 124 120 110 84 59 23 35 36 41 56 56 60 64 84 89 87 97 97 99 97 94 95 100 104 86 91 96 102 102 103 114 125 126 126 131 131 131 131 135 131 131 131 130 129 130 127 125 124 128 125 124 124 128 125 127 132 134 135 144 142 137 142 143 142 137 139 141 140 141 142 138 141 
127 109 108 78 67 71 73 84 89 87 83 77 59 19 35 40 41 49 51 57 66 78 81 83 85 93 90 93 95 96 97 97 86 95 100 95 101 103 113 120 127 127 132 132 132 134 133 134 132 130 130 131 129 128 125 126 130 125 123 126 126 123 126 133 134 132 138 141 142 140 137 142 140 139 142 140 141 146 141 140 
128 110 103 69 55 58 68 72 72 62 67 74 56 20 31 40 41 48 55 53 61 79 84 80 88 88 90 93 93 99 96 97 85 92 96 92 96 98 113 126 128 130 130 133 133 134 135 133 132 132 135 130 134 131 128 129 127 127 127 124 131 127 128 130 135 138 138 141 143 143 144 142 141 140 141 143 146 145 139 144 
125 104 104 71 49 61 64 74 65 60 66 71 47 12 26 36 46 48 53 53 65 83 84 79 86 85 91 92 93 95 100 90 83 89 90 95 92 98 112 126 130 126 134 135 133 134 132 132 134 132 133 129 132 129 127 129 133 125 129 130 132 133 136 138 138 141 143 148 144 148 145 138 142 142 144 143 147 146 145 142 
127 100 102 69 45 49 52 61 62 57 60 66 39 8 19 34 41 50 51 53 56 75 78 85 96 98 106 106 104 104 105 105 90 92 90 87 87 93 109 125 125 129 134 136 136 135 141 136 130 133 132 130 136 131 128 131 130 129 141 140 135 140 133 139 141 140 147 144 143 144 141 144 142 142 143 143 143 144 144 146 
115 96 98 68 38 37 44 52 52 51 54 57 26 17 19 35 42 49 52 53 60 70 76 105 130 134 132 133 136 133 138 132 121 91 89 84 87 91 110 126 126 130 134 143 164 165 147 136 135 136 135 134 131 132 132 133 134 140 167 163 158 143 137 138 141 143 144 146 146 143 143 146 146 145 146 140 147 145 144 141 
115 94 99 67 31 31 33 37 46 44 49 51 21 14 36 39 46 47 48 48 51 69 83 126 140 136 141 143 141 143 144 147 139 112 85 85 84 91 108 120 125 124 136 161 216 216 164 143 140 139 134 133 134 133 127 133 136 148 180 191 189 185 174 163 152 149 149 151 147 148 144 148 149 144 144 148 147 144 145 149 
119 88 96 70 33 32 32 37 40 39 48 46 9 12 32 44 44 42 46 42 51 65 106 133 139 146 145 144 146 147 148 151 144 129 88 84 81 89 108 117 128 129 136 161 228 235 170 154 149 144 139 133 135 132 130 132 133 150 186 192 198 198 203 198 201 189 169 161 156 152 151 149 151 149 149 148 148 146 145 149 
117 82 96 71 26 25 24 28 38 34 37 34 23 21 39 42 47 51 51 43 56 77 126 134 138 138 146 145 142 145 150 146 144 141 98 80 78 89 107 119 125 124 136 150 194 203 165 144 138 136 133 129 132 130 129 133 134 159 189 197 198 201 205 207 209 201 192 181 174 164 156 152 151 149 151 149 148 147 148 148 
110 80 92 72 25 21 20 23 24 26 23 33 49 65 55 45 47 47 48 41 61 102 135 140 144 148 146 145 143 144 149 148 146 141 109 75 76 83 107 119 124 122 133 161 174 186 183 150 134 135 133 130 131 132 129 132 136 165 185 197 203 205 204 209 212 207 202 188 186 186 178 169 156 154 155 154 151 149 151 148 
109 79 88 68 24 21 18 24 20 25 30 49 64 77 75 50 41 44 41 45 83 129 140 145 143 142 146 150 148 148 149 151 145 145 124 76 76 84 103 117 120 123 142 156 167 169 180 168 139 133 130 128 132 130 129 131 137 168 189 199 204 209 215 217 215 215 204 189 186 192 199 202 191 177 159 157 155 152 155 152 
108 76 90 69 38 31 29 35 33 39 45 55 66 71 60 56 48 41 50 71 120 138 142 142 145 146 154 150 149 147 149 151 150 146 134 102 80 85 109 118 122 126 140 150 153 165 165 158 139 132 132 134 137 138 133 135 143 178 193 201 207 214 216 224 220 217 202 192 192 196 201 206 203 203 193 176 163 156 163 155 
105 76 90 67 46 45 41 45 38 42 49 58 65 79 69 51 52 55 64 109 134 139 140 142 145 146 149 149 149 145 148 155 146 148 142 135 103 93 108 115 124 132 136 137 143 146 143 140 135 133 133 133 136 139 139 144 155 187 195 205 215 215 217 224 218 214 200 194 194 196 201 208 209 204 199 193 191 171 157 159 
111 83 91 79 69 76 83 81 86 88 85 84 80 84 83 82 80 74 103 128 136 134 134 134 143 146 150 147 146 149 150 151 142 136 140 141 131 111 116 120 122 126 133 136 136 138 135 134 131 131 132 136 136 141 142 153 169 198 205 210 213 220 222 225 223 213 200 199 197 197 202 212 211 204 198 197 190 184 157 158 
111 91 95 86 82 99 93 95 97 97 96 103 100 102 103 105 106 107 124 134 142 136 123 141 150 149 152 148 150 151 155 150 142 135 135 137 146 130 124 124 122 126 130 130 132 137 138 140 133 131 133 131 137 141 140 150 180 212 218 218 222 220 231 233 232 222 204 201 203 206 209 219 210 210 201 200 196 182 157 159 
94 101 100 95 94 95 97 97 95 102 92 99 102 103 103 103 102 108 130 136 144 125 121 137 147 149 150 149 144 148 147 151 141 132 129 140 148 146 129 124 126 121 128 129 131 134 138 143 133 135 136 129 131 132 136 145 181 223 232 224 227 222 231 236 235 229 208 204 206 211 212 218 214 211 205 203 195 180 154 155 
91 90 98 98 99 95 97 97 97 98 101 97 101 100 105 107 104 108 132 134 138 136 128 141 147 145 150 148 149 148 148 150 141 139 138 145 149 145 133 131 128 125 128 134 136 138 140 140 140 136 136 130 130 130 131 136 148 170 223 251 243 241 241 250 244 235 218 209 211 209 213 223 219 210 211 205 192 175 152 151 
93 97 95 97 96 95 94 94 94 95 92 97 102 99 97 100 97 103 128 135 143 146 144 147 145 149 155 150 148 149 145 147 148 147 143 141 146 144 135 126 130 127 136 135 139 146 145 146 144 143 138 127 126 128 132 144 147 147 163 205 252 267 260 252 258 242 214 211 210 212 215 223 224 214 212 206 197 168 151 148 
97 95 101 98 95 95 95 97 98 96 96 98 98 103 102 102 99 100 129 135 143 146 149 145 150 149 152 148 146 150 149 146 149 152 144 142 145 145 135 123 123 128 129 130 134 135 144 142 142 141 147 134 134 127 141 148 148 149 148 154 178 240 271 286 270 247 223 216 216 215 221 229 227 218 214 205 192 165 150 147 
99 92 96 100 98 94 93 97 95 96 96 98 98 106 102 103 98 97 121 140 141 149 156 154 151 150 150 147 150 147 149 153 148 151 145 143 148 141 138 120 120 120 124 125 130 130 128 129 131 128 134 128 128 137 138 143 143 146 147 142 152 166 205 264 290 265 226 220 216 218 221 231 227 221 213 212 192 162 147 152 
96 97 98 98 94 91 90 92 95 98 94 97 100 102 102 106 97 97 115 135 142 147 150 150 147 148 147 147 148 146 149 149 150 148 144 141 145 141 137 131 126 124 124 122 129 133 132 128 132 132 131 133 134 133 135 140 140 141 141 148 145 145 150 175 226 235 224 224 221 220 222 230 236 222 215 213 193 160 152 146 
98 97 100 99 93 88 90 93 99 99 90 93 96 98 100 101 97 100 118 132 140 146 150 146 152 145 151 149 148 148 147 148 148 148 147 138 140 134 138 135 133 127 136 131 135 137 136 136 133 138 134 136 139 141 134 142 143 139 141 145 148 145 144 155 158 168 207 231 231 225 225 234 232 227 221 213 190 162 146 148 
96 100 101 101 94 92 88 90 96 98 94 93 95 96 99 100 96 99 119 133 142 146 148 151 150 147 149 146 147 147 148 147 149 150 145 134 140 135 132 137 138 132 145 147 150 148 145 140 138 136 138 137 140 141 143 144 143 139 150 147 142 146 141 149 144 152 158 193 234 235 238 238 237 228 225 222 186 155 149 141 
100 102 98 102 96 91 91 92 95 96 94 93 92 100 97 101 101 100 121 132 137 148 148 150 154 150 152 146 148 147 149 151 149 146 141 139 137 129 128 130 137 133 139 152 154 155 157 141 144 142 140 137 141 148 144 145 149 142 159 162 156 146 147 144 141 148 151 161 191 232 249 249 244 235 230 218 187 158 150 145 
96 98 99 100 101 94 90 91 94 98 90 95 93 101 104 109 113 112 121 133 139 151 150 154 153 151 151 149 150 147 149 151 152 146 141 135 138 126 129 135 143 138 148 152 160 162 160 152 143 141 141 144 138 150 150 153 158 151 156 165 173 167 144 141 142 142 145 149 159 190 234 253 251 243 231 223 193 158 143 145 
100 99 96 101 98 91 86 90 94 96 96 94 96 98 101 115 132 130 125 130 141 146 148 150 149 150 154 147 147 145 148 150 147 149 140 137 136 129 129 132 143 143 150 158 165 156 157 151 148 142 147 143 145 146 146 153 157 157 160 164 177 174 154 143 141 145 142 141 144 158 188 243 251 248 240 229 181 155 147 144 
98 99 101 102 99 88 89 86 93 93 92 93 95 100 101 124 134 134 131 131 137 145 145 146 147 151 149 147 145 145 145 145 147 147 138 136 137 133 126 133 136 149 154 158 166 161 160 155 154 150 147 146 146 148 150 158 160 161 161 164 158 165 155 156 162 144 144 141 144 144 155 186 235 251 246 233 183 151 147 149 
100 99 98 98 98 91 87 89 89 98 92 94 101 93 103 127 136 130 132 132 135 140 142 142 143 142 142 144 141 143 141 145 146 140 137 132 142 134 121 124 136 140 149 152 162 167 170 166 155 150 146 151 151 148 146 154 160 160 159 162 162 158 165 171 172 163 141 141 140 148 142 156 182 239 246 228 172 149 145 149 
94 99 98 101 95 87 89 91 92 95 92 95 93 95 102 133 135 131 129 128 131 138 139 136 142 139 142 139 143 138 136 141 140 143 138 132 136 131 125 129 139 139 145 148 154 162 170 172 156 156 150 151 150 147 150 150 160 159 158 162 163 162 165 172 171 164 149 141 140 144 147 145 151 177 213 208 165 145 143 145 
102 97 97 99 93 91 92 92 94 100 91 90 97 95 108 132 140 137 122 129 129 135 136 138 136 137 144 139 139 137 140 140 137 137 132 131 134 118 119 133 146 150 155 148 156 161 166 159 156 153 153 158 155 151 150 151 153 155 155 158 159 156 152 155 158 153 142 138 140 139 141 144 146 144 158 159 149 146 138 146 
103 93 100 99 96 94 92 93 91 92 91 93 95 100 108 135 140 139 124 124 126 128 138 135 139 140 141 136 137 134 135 134 134 136 127 129 130 116 116 132 147 150 154 154 151 158 164 160 156 153 154 153 154 152 147 149 152 154 161 159 155 151 150 152 150 149 147 144 144 142 142 146 147 148 146 145 145 143 143 147 


