P2
80 60
34
28 25 18 21 16 20 23 22 25 20 23 23 22 25 22 23 23 25 24 20 20 21 23 19 22 25 19 23 26 26 26 25 27 26 26 20 25 20 21 18 29 22 23 20 18 23 19 20 20 20 23 22 23 24 22 23 24 25 24 20 20 22 26 17 16 16 13 16 12 13 13 16 14 15 13 15 13 10 12 3 
22 25 25 21 18 22 22 20 27 27 22 26 24 23 24 24 21 23 23 22 23 23 23 27 27 23 23 23 25 23 27 24 23 25 26 21 21 22 20 22 29 18 19 22 20 23 21 21 20 23 26 24 21 26 26 28 27 25 27 24 25 25 23 20 18 16 12 18 13 13 10 14 10 15 16 12 12 10 10 12 
28 24 21 25 21 26 27 25 24 26 26 30 23 22 23 26 18 25 24 22 26 22 22 24 24 22 26 23 24 26 29 27 26 27 24 23 23 23 24 24 23 21 20 20 20 22 24 21 24 27 25 24 23 23 21 26 26 29 29 26 28 25 26 24 18 14 13 16 16 15 15 15 13 15 17 15 19 13 10 11 
26 26 23 26 23 30 26 24 24 25 29 29 24 26 22 24 22 22 23 26 23 24 22 24 22 23 23 28 25 28 24 23 28 25 20 26 24 24 24 22 24 21 19 22 21 23 24 23 28 23 26 18 20 21 23 25 27 32 28 27 32 26 25 22 15 17 16 18 14 17 15 17 13 15 13 11 12 13 14 9 
28 22 19 24 22 25 24 25 24 24 25 25 22 24 23 26 22 23 25 25 24 21 22 24 24 22 26 23 23 24 22 24 22 24 22 21 20 22 24 22 23 18 23 21 19 22 22 21 24 26 24 22 19 22 22 26 28 30 26 28 25 29 28 24 15 18 15 14 16 14 15 15 12 10 16 10 12 10 13 9 
27 28 20 23 25 26 24 26 25 24 21 22 24 25 24 23 25 24 24 28 22 24 23 23 22 24 25 28 25 23 25 24 24 21 21 21 21 24 25 24 24 23 23 21 21 25 25 23 23 25 24 23 20 22 25 26 29 33 27 32 27 28 30 22 17 18 20 13 20 18 19 15 9 12 14 13 14 13 15 12 
28 25 26 25 22 25 22 24 24 24 26 27 23 25 21 24 25 24 25 27 24 24 27 24 25 25 26 26 25 24 22 24 24 21 22 24 24 23 29 20 29 21 22 22 21 20 23 20 25 24 25 25 24 21 23 19 26 30 34 26 23 23 23 19 18 17 17 21 20 16 15 13 14 17 13 13 14 11 7 11 
29 29 22 25 26 29 25 24 23 25 27 28 23 25 23 25 24 27 26 25 28 24 25 27 24 23 24 27 23 28 20 22 22 22 25 26 25 23 25 25 31 25 20 23 18 22 24 21 23 24 24 23 23 22 22 23 22 22 22 21 20 22 21 21 17 20 16 16 16 16 12 13 13 14 11 18 13 10 7 8 
26 27 25 28 21 25 26 28 25 25 24 27 23 26 22 22 24 25 23 28 25 21 25 24 25 24 23 26 26 24 26 23 21 24 23 22 24 26 25 23 26 22 22 24 23 24 27 26 27 28 24 28 24 28 24 23 23 25 22 25 23 21 21 21 19 22 21 17 16 14 14 13 16 11 15 12 12 11 9 10 
30 29 28 27 29 27 26 25 22 24 26 25 24 21 23 26 26 24 23 20 24 24 28 26 25 25 19 25 22 22 25 20 20 24 25 24 23 25 26 26 27 25 23 22 24 25 27 27 28 29 24 26 26 27 27 22 25 26 25 25 24 25 23 20 19 17 21 21 18 14 16 16 13 17 12 15 14 14 13 12 
29 29 25 29 25 30 29 24 26 25 26 23 23 19 25 23 22 25 23 23 22 22 26 25 23 21 20 24 25 22 21 24 20 23 23 23 22 20 23 27 27 25 25 24 25 25 24 24 27 28 26 25 25 27 25 24 27 29 28 21 22 22 24 22 20 22 19 20 17 14 14 13 15 14 17 15 14 14 13 15 
31 31 29 27 24 28 27 28 22 19 26 25 24 21 21 22 21 23 19 23 23 21 25 25 24 21 22 23 24 23 24 24 23 23 22 25 23 21 23 26 29 26 25 23 24 26 27 27 24 27 28 25 26 22 23 26 28 28 23 24 22 20 21 20 19 20 18 20 17 17 14 14 15 16 13 22 15 14 13 16 
30 26 31 32 25 30 26 25 21 21 26 27 22 20 24 22 21 21 19 22 23 22 24 26 22 19 19 25 24 23 25 22 22 25 21 22 20 23 28 26 27 25 25 24 28 26 26 23 27 29 30 27 22 26 23 25 28 26 27 24 21 24 27 22 21 20 21 21 15 19 7 18 15 15 14 16 15 14 18 11 
29 30 31 28 27 25 26 23 25 22 22 25 21 22 21 24 22 22 23 22 25 23 22 25 21 21 21 22 22 21 22 21 24 26 22 19 23 25 27 27 29 25 24 25 25 26 29 27 22 30 26 28 24 24 28 28 32 29 27 27 21 22 23 20 18 16 23 21 16 17 19 15 14 15 14 16 15 14 17 12 
29 29 28 27 25 27 25 24 27 20 22 24 20 20 24 19 22 19 21 20 22 24 25 24 21 23 21 22 23 23 23 23 21 25 20 20 22 23 25 24 30 25 24 22 26 26 26 25 26 29 26 28 22 24 28 28 32 32 28 28 26 21 23 20 20 20 19 19 22 19 15 15 12 12 12 14 14 15 16 14 
31 30 27 30 22 25 19 25 26 22 23 27 19 18 23 23 18 20 20 21 20 20 22 24 23 23 23 24 25 22 24 21 21 21 25 22 20 21 25 24 30 23 22 23 23 24 27 25 24 30 26 25 26 26 28 26 25 33 28 25 26 25 25 23 20 21 19 22 17 20 14 17 13 14 12 16 12 15 15 16 
32 28 27 29 21 24 23 21 22 20 22 24 19 18 21 21 20 21 22 23 20 19 20 19 21 24 22 23 21 24 20 24 24 25 21 23 22 22 21 25 29 24 23 23 21 25 25 23 22 26 27 25 25 25 27 25 27 29 25 24 24 25 20 25 20 22 15 23 17 18 18 16 20 14 13 15 14 13 18 9 
33 30 27 28 24 31 26 24 23 20 23 24 20 21 23 24 26 20 21 21 22 18 22 22 20 20 20 26 21 23 21 24 21 24 24 21 20 21 23 27 30 23 23 22 24 24 24 28 27 27 26 24 23 29 29 26 27 31 25 25 21 24 18 23 18 21 15 20 20 16 17 14 17 12 12 14 12 12 15 12 
28 29 26 27 25 30 27 21 22 22 23 23 23 20 23 22 20 23 22 22 22 22 25 25 21 20 22 24 24 22 25 21 26 22 25 25 23 23 25 26 29 24 23 26 25 25 25 24 26 25 25 25 29 27 28 24 24 28 25 22 22 23 21 22 21 19 19 22 20 17 16 15 16 17 14 10 11 10 17 12 
27 26 30 24 26 28 25 23 22 22 25 26 21 18 22 21 20 21 21 22 21 27 29 22 20 23 20 24 23 23 24 22 25 22 21 22 23 25 26 20 27 21 26 24 24 22 22 25 21 28 23 25 26 26 24 23 25 24 24 27 21 22 23 24 22 18 18 20 17 18 16 16 14 14 14 11 11 12 14 10 
31 30 28 27 26 31 24 23 22 21 27 26 21 22 22 20 21 24 23 21 23 23 26 23 22 23 22 24 20 28 34 24 22 19 21 20 22 24 25 23 26 24 24 22 22 20 24 23 27 26 25 24 24 25 25 24 25 25 24 28 23 25 29 25 19 16 19 20 16 20 15 18 13 14 12 11 15 9 15 12 
30 30 24 28 27 32 29 27 23 20 23 25 28 23 24 22 20 21 22 24 22 21 24 24 24 23 23 23 23 24 26 24 21 23 24 22 23 21 26 25 24 23 19 22 21 20 24 23 24 25 27 20 26 29 22 23 27 28 23 23 22 28 27 26 20 18 18 20 14 21 18 17 15 15 15 15 13 11 15 17 
27 28 28 28 25 24 25 26 26 21 21 26 24 22 22 23 21 20 21 24 20 23 22 23 23 22 24 23 26 20 25 23 24 19 20 21 23 22 24 25 27 20 20 17 19 22 23 23 24 25 22 27 22 26 23 22 24 28 24 23 25 22 23 21 19 20 17 21 17 17 19 20 15 15 18 16 10 10 14 15 
22 25 26 27 24 22 29 31 24 23 24 22 20 22 25 23 22 23 20 22 22 22 20 22 21 19 22 26 20 20 22 21 20 21 19 19 19 19 22 23 27 21 22 21 22 21 22 20 25 27 26 28 27 24 22 21 23 27 23 25 23 25 23 21 21 18 21 20 20 17 15 17 15 14 14 13 10 9 17 15 
27 27 25 25 23 23 25 26 27 23 23 26 21 21 22 21 21 20 21 22 20 24 23 21 22 21 21 21 22 21 21 20 20 19 21 20 18 20 21 22 27 20 22 23 25 23 23 21 22 22 22 24 24 23 23 20 21 25 20 23 22 23 24 24 23 20 22 24 17 17 16 16 16 16 17 15 12 12 15 16 
30 25 28 23 24 26 25 27 24 21 22 24 23 22 26 22 21 19 20 22 21 21 24 22 23 23 21 22 22 18 22 18 18 20 18 19 22 21 21 24 24 21 21 21 22 26 24 24 23 22 23 22 25 26 22 22 24 27 29 22 23 22 23 21 19 20 24 24 16 15 15 15 16 15 12 14 12 13 15 12 
26 27 24 26 25 25 28 24 25 20 24 24 19 22 21 18 24 23 20 23 24 23 25 25 24 21 20 23 19 20 21 18 20 18 22 20 22 18 20 21 27 19 21 23 23 22 26 23 23 23 24 23 20 26 24 24 25 22 21 24 22 24 21 19 17 18 19 20 16 15 15 16 18 16 15 14 10 13 13 11 
25 24 26 27 22 25 26 24 24 21 26 24 20 20 22 21 19 21 24 23 21 21 26 23 24 22 23 23 21 17 24 20 21 19 21 19 21 19 22 22 31 26 23 22 20 19 23 23 22 23 22 22 21 24 23 22 23 24 19 24 23 20 17 21 17 18 19 19 16 19 15 19 19 15 13 10 12 12 13 12 
26 28 29 27 24 26 24 23 23 26 25 23 22 23 20 21 21 21 21 25 21 20 21 23 24 23 21 25 23 24 25 21 21 19 19 19 22 21 20 23 28 22 24 21 20 22 23 22 22 26 23 21 20 24 23 23 22 25 24 21 23 19 20 22 19 18 18 21 17 19 14 17 13 11 13 16 12 10 12 11 
30 29 28 27 23 27 26 24 28 22 24 25 21 21 23 24 19 20 18 23 20 21 24 22 22 21 21 21 23 21 24 19 21 20 20 21 19 24 22 23 24 23 22 23 21 25 25 21 22 24 23 22 23 24 21 23 21 25 23 20 24 22 24 19 21 17 17 23 18 18 16 14 11 15 13 16 9 9 16 13 
27 28 26 30 23 24 25 23 23 20 27 22 25 22 24 22 24 20 18 21 21 20 22 24 22 23 20 23 21 22 20 20 19 17 22 19 21 18 22 23 22 22 24 25 25 24 21 21 26 23 22 22 22 22 23 22 21 23 16 19 21 22 19 25 18 17 23 21 17 17 19 12 14 12 12 13 11 10 16 9 
28 27 28 26 18 25 24 22 22 20 24 23 23 20 21 21 21 21 20 21 21 21 24 25 22 23 23 22 23 20 20 20 20 19 17 20 18 21 19 24 28 24 23 23 22 23 21 23 22 30 20 19 21 25 23 22 21 23 19 20 19 24 24 18 17 16 17 21 16 19 18 14 15 10 14 11 16 13 17 12 
27 27 25 27 23 28 23 24 24 19 21 23 23 23 21 21 21 23 20 19 20 20 19 21 21 25 21 23 21 21 22 18 19 19 18 20 18 19 21 22 29 24 23 23 21 22 22 22 23 23 24 21 21 22 20 19 24 24 21 21 21 21 23 19 18 19 19 20 18 17 13 13 16 14 13 13 10 9 13 9 
27 27 21 24 26 24 23 23 23 20 24 23 20 21 23 19 20 19 22 21 20 19 24 24 21 22 19 23 22 26 22 20 18 19 19 16 16 20 19 24 28 22 23 21 21 22 19 21 20 24 21 23 23 25 21 24 25 23 19 19 22 20 21 21 23 16 22 20 16 16 14 19 12 17 13 13 11 12 11 9 
26 25 24 20 23 23 19 22 22 20 24 27 21 21 20 18 22 20 20 21 18 17 19 24 24 22 21 21 22 21 20 18 19 19 21 16 19 20 19 17 25 20 24 21 22 26 24 24 20 24 21 23 19 24 21 23 22 26 19 19 20 20 18 20 18 20 17 16 14 13 12 14 13 12 13 16 11 10 9 11 
27 23 22 28 24 25 23 22 23 21 23 24 23 23 23 20 21 23 22 21 13 17 21 22 22 20 20 22 22 19 24 19 24 21 20 18 21 19 20 21 24 26 24 23 23 22 24 27 21 23 24 25 21 25 22 22 23 23 20 24 23 20 19 19 21 17 15 19 14 15 12 15 14 13 13 16 9 12 12 13 
27 23 22 27 24 28 26 26 22 20 24 23 22 24 21 21 22 22 24 23 20 20 22 22 19 20 17 21 19 23 22 20 19 21 16 18 19 21 18 22 24 19 21 23 19 20 20 21 21 23 24 25 24 23 23 19 23 24 20 21 21 17 19 20 18 17 16 19 13 13 14 17 12 10 10 12 11 13 9 13 
25 28 27 28 24 26 23 23 22 17 23 24 23 20 21 20 21 25 19 19 20 20 21 25 21 19 18 20 20 19 23 17 16 20 18 17 19 18 20 21 25 20 21 20 19 21 21 19 24 25 23 23 23 21 22 22 23 20 18 21 16 15 20 15 16 20 18 17 14 13 11 15 11 13 10 11 11 10 12 13 
26 29 32 25 23 25 27 24 25 21 26 27 27 22 18 20 22 22 22 18 21 20 24 22 21 19 18 20 23 22 23 19 19 22 19 18 19 18 22 21 26 21 25 19 20 21 21 19 20 23 23 22 24 26 24 23 22 24 17 20 15 16 16 17 18 15 18 18 14 14 14 11 11 10 11 14 12 11 14 16 
25 25 24 25 21 29 24 21 23 21 25 26 21 20 19 22 21 20 20 16 19 21 25 26 21 21 21 23 20 22 20 20 19 22 21 19 20 19 22 25 26 23 22 23 18 20 26 20 25 26 26 22 26 25 23 20 21 23 17 20 19 19 19 18 16 14 16 15 15 14 11 12 11 16 12 14 14 11 15 16 
25 28 23 26 22 26 22 21 21 20 27 24 23 23 21 20 21 21 18 20 20 18 23 24 22 23 21 26 21 20 22 19 21 21 20 18 17 21 21 27 27 22 21 16 23 24 21 25 25 24 24 29 27 26 25 21 22 22 20 20 18 21 20 19 19 15 15 17 11 14 11 13 14 12 16 12 13 13 13 18 
29 25 29 24 25 25 22 25 20 20 20 22 22 21 21 20 21 19 21 20 18 21 22 23 24 24 21 22 24 18 21 18 21 20 21 19 22 20 21 24 25 22 21 22 19 22 23 24 24 25 25 26 21 26 23 22 22 23 17 19 19 19 18 18 19 11 13 16 14 13 12 14 13 11 13 11 13 11 13 15 
29 25 26 22 23 22 22 21 20 20 22 23 22 23 23 20 20 16 19 20 18 19 19 21 18 24 21 22 22 17 20 20 20 17 20 23 19 21 20 20 26 21 20 21 23 21 24 25 26 27 25 22 23 25 25 22 25 21 21 19 19 20 17 19 14 13 16 15 13 12 10 15 11 11 12 11 11 11 15 12 
30 23 22 24 18 23 21 23 22 21 22 26 21 22 19 20 18 22 23 23 17 20 22 25 21 20 21 19 22 20 19 21 20 16 20 20 19 20 19 22 26 20 21 23 20 24 27 30 24 24 24 21 20 26 21 19 21 21 18 19 17 20 18 17 17 17 16 12 12 10 11 11 9 10 8 12 11 11 14 10 
29 25 25 26 24 23 23 22 18 19 22 21 22 20 20 21 22 23 22 22 23 21 21 21 20 21 17 22 23 18 20 18 19 19 16 14 20 21 20 20 27 19 22 22 22 23 27 24 24 22 22 21 21 21 20 19 20 24 19 20 16 19 18 16 16 17 14 14 14 13 12 12 9 11 11 11 8 10 9 5 
26 26 21 20 24 19 20 20 19 20 22 23 19 22 24 26 21 22 20 23 21 20 24 21 22 19 20 15 19 25 22 21 18 16 20 19 19 21 23 23 26 21 22 20 22 23 22 18 21 22 22 21 22 19 22 18 19 22 16 21 20 16 16 16 16 17 15 17 15 14 13 10 10 9 13 8 9 9 10 10 
24 22 19 19 17 20 20 19 22 16 20 23 23 20 22 22 20 19 21 23 20 19 22 21 20 20 22 18 18 20 17 17 17 19 20 20 17 18 18 19 27 19 22 20 24 23 22 20 20 24 21 23 20 19 17 19 20 21 18 20 21 17 19 21 14 15 14 17 13 14 11 16 6 10 8 5 8 3 8 6 
25 24 21 19 15 20 15 24 20 17 20 23 22 19 22 22 24 22 20 20 23 20 25 25 19 20 18 21 19 19 21 17 18 18 18 16 16 18 18 18 24 22 18 19 24 23 26 22 24 22 21 20 21 19 18 19 19 22 18 21 18 18 17 21 15 13 15 16 15 13 13 12 12 9 7 6 5 9 7 5 
29 27 23 22 17 22 21 23 20 20 19 19 22 22 25 23 23 25 24 20 19 22 27 24 19 18 18 17 21 22 17 20 17 19 19 19 20 22 17 22 25 19 16 22 19 23 25 22 20 24 21 22 21 20 21 22 22 20 18 20 20 16 16 15 13 14 13 20 12 13 12 10 9 10 6 3 6 4 5 5 
23 24 20 19 20 21 19 23 20 19 18 22 17 19 25 24 19 25 24 21 18 21 26 23 19 19 21 22 18 18 20 16 18 18 17 17 17 19 23 22 25 18 18 19 20 20 22 18 18 21 20 21 23 23 23 20 21 23 17 16 17 17 16 16 15 18 15 16 12 11 15 11 11 9 9 10 8 7 11 4 
23 25 21 18 23 19 19 19 20 19 23 22 19 21 23 22 21 22 21 23 17 21 19 22 19 18 19 20 20 19 20 19 17 20 18 18 17 18 22 20 24 20 20 18 19 19 20 17 20 21 20 22 20 20 22 19 23 20 18 21 19 23 16 16 13 11 11 14 14 12 12 10 9 10 6 11 11 7 5 13 
26 26 21 19 23 21 20 18 20 15 21 23 20 20 20 21 20 17 20 24 22 19 19 17 17 20 18 19 17 19 18 17 19 18 24 19 17 18 18 19 22 18 18 16 20 18 20 16 22 21 19 20 21 27 21 20 21 22 18 21 15 21 16 16 13 13 12 13 10 11 16 14 7 9 12 10 7 5 5 5 
24 25 20 22 22 20 21 18 18 19 21 21 17 18 20 19 19 18 19 21 18 19 23 21 17 17 17 19 17 21 19 17 19 17 18 19 16 19 16 19 23 18 18 20 18 19 18 16 23 23 20 21 20 20 19 22 23 25 22 19 15 18 17 15 14 14 14 12 10 13 11 10 8 9 10 10 7 4 8 4 
24 20 25 23 24 23 22 23 17 19 20 19 20 19 19 19 16 19 18 19 18 15 19 20 20 20 20 20 21 18 17 18 18 16 17 17 17 15 18 19 21 15 17 15 18 18 20 19 19 22 21 21 22 24 21 22 26 28 18 15 16 17 17 12 13 11 13 13 11 13 11 9 10 7 7 9 7 5 5 5 
23 21 22 22 21 24 19 18 18 16 23 21 20 20 17 21 18 18 18 20 20 19 18 17 18 17 24 20 20 16 15 15 15 18 15 14 13 17 11 17 23 15 17 15 18 16 16 15 18 18 20 18 18 23 18 19 19 21 19 18 12 12 14 15 7 11 9 11 7 13 11 9 5 7 7 5 6 3 4 5 
22 20 20 20 20 20 21 21 20 16 20 22 24 21 17 21 16 17 19 22 17 20 20 22 17 17 16 22 19 17 16 13 15 16 19 14 15 13 15 15 21 15 17 20 18 19 21 17 19 20 20 22 21 20 16 19 23 22 14 18 13 17 12 16 11 8 11 12 11 13 15 10 9 10 10 8 7 0 4 15 
18 22 17 17 21 20 15 21 19 17 20 25 29 24 20 19 18 16 18 21 20 15 17 19 16 15 17 17 17 17 16 15 15 16 15 14 17 18 13 17 21 19 18 14 19 17 19 19 21 19 20 20 20 22 20 23 19 23 18 17 14 16 14 13 12 10 9 11 10 11 9 8 12 10 8 9 5 6 5 4 
22 19 19 16 19 20 16 19 20 19 22 21 23 22 17 20 18 16 19 17 20 16 20 21 17 15 16 17 16 14 17 13 14 17 15 14 16 14 16 17 22 18 18 19 16 20 21 28 20 21 18 20 19 21 20 17 18 19 16 18 18 18 16 13 14 11 8 15 12 15 6 11 9 8 7 7 4 6 6 5 
21 18 18 15 13 19 19 15 17 20 21 20 17 21 20 18 17 15 15 19 20 19 21 19 16 14 18 14 18 14 15 14 15 16 15 15 17 18 18 21 20 17 16 15 15 16 19 21 22 20 22 22 16 20 23 16 22 20 13 19 17 11 12 12 13 8 8 8 10 7 8 7 4 7 7 7 4 2 7 4 
23 19 18 16 12 20 17 17 19 18 20 21 19 18 19 19 15 15 12 17 19 18 23 21 16 20 19 18 17 17 16 15 11 17 15 17 21 18 21 20 23 15 21 21 16 16 20 18 21 20 22 21 22 19 24 20 20 20 18 18 17 15 13 10 10 12 10 11 7 13 7 6 8 8 7 7 7 8 5 5 


