P2
80 60
31
19 22 19 20 18 17 18 12 22 21 22 18 17 17 17 21 17 15 15 17 14 19 17 18 20 22 18 21 18 16 19 19 22 20 20 22 19 21 20 21 17 18 21 18 20 22 17 19 20 17 24 20 17 24 20 23 22 25 22 18 16 19 20 15 15 14 8 11 11 14 13 12 10 15 15 11 12 7 16 11 
17 19 21 17 20 22 16 16 24 22 19 21 17 18 25 16 19 17 16 15 15 18 17 18 20 20 23 20 15 20 16 22 22 20 22 21 20 20 17 19 19 19 18 19 18 18 21 20 19 17 22 18 20 28 19 25 23 22 21 21 17 16 14 15 16 15 12 9 9 10 14 8 10 14 13 14 11 9 16 13 
13 20 21 17 20 17 18 17 25 22 22 19 20 18 19 20 17 16 19 18 19 18 17 19 18 19 19 18 17 19 20 19 23 22 23 21 21 21 20 20 20 19 18 16 18 20 17 16 19 16 19 21 21 20 22 24 20 21 18 17 20 16 16 12 12 13 12 11 8 10 13 10 9 12 12 11 14 11 13 8 
18 19 21 21 20 18 20 21 22 24 26 20 19 22 17 20 19 16 18 17 15 19 17 17 15 21 19 24 17 20 20 20 20 20 19 20 23 22 21 18 20 17 19 19 16 21 23 18 22 21 17 17 18 21 19 18 20 18 19 19 21 22 16 14 15 13 13 11 13 9 14 11 12 14 11 13 11 11 18 11 
24 21 18 23 20 19 21 23 22 25 22 18 17 18 19 21 20 17 21 19 16 16 21 13 18 25 24 20 19 22 23 19 19 19 19 21 21 21 24 20 19 18 21 21 20 19 24 21 21 19 22 19 21 19 19 20 19 19 17 24 22 18 19 19 15 18 16 13 17 12 11 10 12 14 17 13 13 8 7 10 
26 22 16 26 24 21 22 19 25 20 22 19 21 20 19 21 19 18 18 19 15 18 18 21 23 21 26 22 20 18 18 19 20 21 22 20 20 22 21 22 17 23 24 16 18 24 28 21 22 21 23 21 22 21 20 23 21 21 21 21 21 20 19 14 16 14 14 19 19 12 14 12 7 14 14 10 11 14 14 10 
23 21 23 16 20 23 21 20 23 23 20 21 19 19 18 22 24 21 20 23 17 18 21 21 21 22 20 19 18 16 19 21 20 22 19 21 21 22 21 21 20 19 18 17 18 22 18 18 21 18 21 22 22 19 19 20 20 23 25 21 20 18 16 14 16 14 11 11 13 11 10 8 6 11 10 14 9 8 10 9 
22 25 23 21 19 23 20 20 24 23 22 19 20 19 19 19 21 18 15 20 21 18 17 16 19 20 19 20 18 20 17 18 23 18 19 24 24 22 21 19 21 21 18 19 17 18 20 20 19 18 21 22 22 19 20 23 19 19 21 22 19 19 19 17 17 16 15 13 14 9 9 11 11 12 15 12 10 8 10 8 
25 25 24 20 19 21 20 21 21 23 18 17 20 21 16 20 19 18 17 18 21 17 20 19 19 20 19 20 21 15 19 18 19 20 22 19 23 20 19 20 18 17 16 19 17 17 18 18 21 18 18 18 16 23 21 22 19 17 18 19 19 18 17 15 18 17 15 11 14 10 11 10 8 12 11 9 8 9 10 7 
28 26 25 24 22 21 23 21 24 22 21 22 17 19 23 21 24 19 18 18 17 19 21 23 23 22 19 18 17 19 17 17 22 17 19 20 19 21 17 19 16 15 16 18 16 20 18 18 21 16 18 16 19 23 20 21 20 16 22 19 17 20 18 14 16 15 16 12 13 13 11 13 9 11 11 13 13 10 4 3 
26 29 26 25 23 26 27 19 26 23 20 22 19 17 18 16 22 13 16 16 16 17 19 20 23 21 19 18 20 15 17 23 19 20 18 18 20 20 20 19 18 17 15 18 15 20 16 12 18 19 19 20 19 23 22 22 18 17 16 17 24 17 15 16 17 15 17 12 10 10 11 9 11 14 11 13 13 14 9 10 
26 25 27 22 25 26 26 22 22 22 21 20 20 17 17 16 17 16 15 16 16 17 18 19 21 20 16 17 17 16 19 16 21 22 19 19 20 21 18 20 20 19 16 14 16 19 15 15 18 15 19 18 19 20 19 19 15 19 16 17 17 19 15 14 17 17 15 14 12 10 11 11 11 10 8 15 11 11 9 9 
26 27 21 27 23 21 22 20 21 22 25 21 18 18 15 18 18 14 16 19 16 19 19 18 22 16 16 20 18 17 20 17 21 17 19 18 19 21 24 20 20 16 18 16 18 18 19 17 18 18 20 16 16 18 20 22 20 21 17 19 19 19 19 13 14 13 13 13 14 8 3 8 8 13 12 12 3 12 10 6 
23 25 23 26 21 20 22 20 21 20 18 21 20 16 18 19 16 14 16 17 15 17 17 18 18 18 18 20 16 20 20 20 20 19 19 16 19 23 16 17 16 17 20 17 17 22 22 20 18 19 21 20 18 17 19 22 20 22 20 20 18 17 15 12 15 16 15 15 11 8 9 8 9 9 13 10 11 11 9 11 
26 31 24 23 22 21 19 23 21 18 17 19 18 16 18 17 14 15 16 13 14 19 17 23 20 16 16 22 15 21 18 20 22 21 20 19 22 21 20 17 18 21 19 15 19 19 18 18 21 19 19 17 16 21 17 23 24 27 25 21 17 18 17 13 17 15 13 14 0 12 10 10 7 10 9 8 11 12 16 14 
26 28 26 25 23 20 19 23 22 17 18 18 16 16 14 22 17 13 18 16 14 16 19 21 21 19 17 17 17 18 19 22 21 20 19 21 20 17 25 21 19 19 17 16 17 18 21 20 18 17 19 17 18 22 21 22 22 24 21 22 17 16 18 16 14 18 17 16 16 12 11 13 14 11 8 13 12 10 15 11 
24 30 24 27 23 21 22 19 20 18 17 18 17 16 16 21 18 16 16 16 15 13 15 18 20 16 14 17 16 17 18 20 23 21 18 19 19 19 21 20 20 17 15 15 14 19 18 20 19 18 19 17 19 20 23 20 23 23 25 17 16 18 16 17 16 16 12 17 14 13 14 15 12 12 9 9 10 10 14 14 
23 25 26 24 25 22 23 19 19 18 19 20 19 19 21 18 19 13 17 18 16 15 17 17 21 14 17 17 18 17 17 20 19 19 18 18 20 17 18 20 19 18 20 16 16 16 16 16 19 15 16 18 18 22 23 23 21 24 21 20 19 15 14 12 16 15 11 14 13 13 13 12 10 11 8 14 11 11 12 11 
26 25 26 26 24 21 22 19 19 20 22 20 18 18 18 17 20 17 17 18 17 18 20 24 20 16 15 19 21 18 18 18 22 21 25 23 20 20 20 18 17 21 17 18 19 18 18 18 18 17 16 18 22 21 20 21 20 21 20 17 19 17 13 19 16 17 14 14 15 13 14 9 13 6 7 9 7 9 16 13 
27 24 25 24 25 24 22 20 20 22 20 20 17 18 19 19 21 14 17 19 17 20 24 26 20 21 21 20 17 18 17 20 22 20 19 19 21 22 20 22 21 18 19 15 15 14 17 19 19 17 17 18 19 21 19 22 21 20 19 17 18 17 17 14 18 15 16 14 14 13 15 13 12 13 8 8 8 10 13 9 
25 24 24 22 24 20 20 19 20 23 19 18 17 16 17 16 18 17 19 20 16 18 19 21 26 17 19 21 17 19 30 21 18 19 18 18 20 20 19 19 20 19 17 15 16 18 16 19 19 15 15 18 20 19 21 21 20 19 18 17 19 22 17 12 13 13 15 15 14 14 14 11 13 11 10 9 10 13 12 14 
24 24 25 22 19 22 23 21 21 21 22 20 23 16 18 18 16 14 16 19 14 16 19 19 19 20 23 18 17 19 22 19 22 20 16 20 20 19 17 19 17 19 16 14 14 15 18 16 17 17 19 16 17 17 19 20 20 20 20 18 17 21 16 17 16 18 18 12 13 16 12 13 12 13 10 9 14 10 15 13 
25 25 25 26 21 21 20 20 23 22 22 22 20 21 15 17 17 17 17 21 16 16 17 21 19 17 19 19 15 16 19 20 20 20 18 19 19 20 22 21 17 18 15 13 14 13 16 14 14 19 19 17 17 19 18 19 19 17 17 18 21 16 17 18 18 17 16 14 17 14 13 17 15 13 11 11 8 9 11 13 
22 23 23 21 22 22 22 27 18 18 20 22 19 18 17 18 16 16 19 15 14 19 17 18 17 20 21 19 18 14 17 17 18 19 17 19 19 18 15 17 16 16 17 14 12 16 17 15 16 19 21 18 17 20 16 21 18 15 17 15 17 18 19 19 19 20 21 16 13 13 14 11 12 15 12 12 11 12 14 12 
21 22 26 20 22 20 22 19 22 21 24 19 19 17 14 18 16 14 18 17 15 15 19 19 19 19 14 17 23 16 14 17 17 18 20 17 18 19 17 17 17 16 19 16 16 17 15 16 16 16 20 16 15 16 18 17 16 18 18 18 19 16 16 15 18 20 20 16 15 12 13 12 14 17 10 14 12 15 16 15 
24 19 23 23 22 24 22 19 23 20 20 21 19 18 21 20 16 17 17 15 15 16 18 18 18 16 17 18 18 17 18 13 20 20 16 17 19 17 18 18 16 18 19 17 11 21 15 18 17 14 19 16 14 18 17 20 14 17 18 19 18 16 16 15 14 15 17 15 11 12 14 11 13 14 11 12 13 15 13 16 
23 20 23 21 20 24 23 19 21 23 20 18 17 17 18 16 15 17 17 15 17 17 20 24 19 19 20 17 15 19 19 13 19 18 18 17 17 16 16 14 17 17 16 16 16 18 16 14 17 16 18 16 17 16 15 19 16 15 16 17 18 16 16 14 15 17 18 13 13 13 12 13 10 14 11 12 11 12 11 12 
26 22 21 23 22 23 23 21 25 20 22 20 19 20 17 16 18 18 15 16 11 17 16 19 20 20 18 21 20 15 19 19 16 19 17 18 19 17 18 16 18 17 19 16 16 13 16 16 17 14 16 15 17 18 16 19 17 15 14 18 17 16 17 16 14 15 12 13 11 14 13 15 12 13 9 13 11 13 11 11 
23 23 19 23 22 24 23 21 23 23 18 19 19 18 18 17 16 16 14 18 15 19 17 17 18 21 19 21 19 18 20 15 14 18 19 17 17 17 18 18 16 16 17 15 17 16 17 16 16 17 17 16 18 16 17 16 18 16 16 16 17 17 15 16 13 18 15 12 13 16 13 12 12 10 10 13 11 11 15 12 
25 26 24 24 21 20 21 19 24 25 20 20 18 18 17 18 16 14 15 16 15 18 18 17 23 21 19 18 17 18 18 16 18 17 17 18 19 18 16 18 18 17 17 17 13 17 17 14 14 16 17 18 18 18 16 11 16 16 15 16 17 18 19 16 18 19 19 18 14 14 13 15 11 10 10 17 13 10 10 10 
24 27 28 25 23 23 22 19 23 24 21 20 19 19 19 20 20 12 15 18 17 15 18 17 21 24 21 16 15 17 18 16 17 18 19 17 20 18 17 19 18 18 21 16 16 25 15 14 20 16 17 18 15 18 18 18 20 15 19 18 18 18 18 15 17 18 19 15 15 13 15 13 13 13 11 11 10 11 15 11 
26 31 28 24 28 22 23 22 23 23 22 17 18 19 15 20 18 16 17 20 16 17 20 20 21 21 23 19 18 17 18 19 20 18 17 16 18 18 17 17 21 19 18 17 17 16 13 17 17 20 18 17 15 19 19 16 17 16 18 18 16 16 17 17 19 16 15 15 14 16 14 13 13 10 9 12 8 13 13 11 
23 24 25 24 23 20 20 23 23 23 20 18 19 19 17 21 17 15 17 15 17 15 22 22 19 21 22 21 21 17 19 21 20 17 15 19 20 19 16 20 17 20 22 19 16 17 16 17 16 15 19 16 17 18 17 19 18 17 16 15 18 13 18 15 20 18 18 14 16 14 12 13 13 11 12 11 11 13 11 11 
22 21 22 21 25 24 21 21 22 22 21 21 19 18 16 19 21 11 17 17 20 14 19 24 24 23 20 17 18 22 19 18 20 20 17 15 19 20 18 17 18 21 21 15 18 16 18 20 17 15 18 17 16 18 16 19 15 19 17 20 17 18 16 17 17 17 17 18 13 11 12 13 13 15 15 15 13 14 11 10 
25 23 20 22 21 22 20 18 20 24 20 19 20 15 16 17 21 15 19 18 13 17 20 20 24 21 21 20 18 19 17 16 21 18 19 16 19 21 17 17 16 18 21 17 16 21 17 18 17 16 16 19 16 19 19 18 17 18 15 14 16 16 16 17 17 17 18 13 13 12 12 11 14 14 14 14 14 14 12 9 
22 25 22 22 23 21 20 23 24 23 21 17 21 19 18 18 18 15 17 19 16 14 19 22 18 19 20 18 17 18 15 17 21 19 19 15 22 17 16 18 15 19 17 15 18 15 21 21 18 15 17 19 18 20 18 18 20 18 16 20 15 18 19 18 16 17 15 13 13 13 11 14 13 13 10 12 15 13 15 14 
21 23 26 26 23 28 25 21 24 23 21 20 19 19 18 16 16 16 16 17 21 19 18 21 21 19 18 20 15 15 18 20 18 21 17 18 20 21 16 20 16 15 20 17 14 18 18 17 19 16 17 18 18 16 19 17 19 19 18 22 16 15 19 15 19 20 16 12 14 13 16 13 10 12 11 12 14 12 18 17 
22 27 27 20 25 24 26 21 24 19 23 23 24 17 18 18 16 20 17 21 20 21 22 20 20 19 20 16 22 20 21 21 20 20 18 21 23 21 19 19 19 20 22 19 16 19 15 19 23 16 20 19 16 19 21 20 20 21 19 18 18 16 16 17 20 19 16 18 17 14 19 16 14 15 14 19 12 13 13 15 
20 26 27 24 30 23 25 20 22 21 25 21 21 18 15 18 16 18 16 20 15 15 23 24 22 18 18 18 20 17 18 18 21 18 20 19 21 19 20 18 20 21 24 15 18 18 18 21 19 16 19 21 20 21 18 21 20 20 20 19 16 16 19 16 15 16 19 16 11 13 14 15 17 14 15 10 16 15 15 12 
18 22 21 22 26 24 24 20 22 21 23 22 17 21 15 20 16 14 16 14 17 18 17 22 22 22 16 19 18 18 18 20 19 19 18 19 19 18 20 18 18 19 21 17 16 17 16 22 21 18 25 20 21 19 21 19 17 17 16 19 14 15 14 17 15 16 16 14 14 12 13 17 11 19 10 13 13 16 17 17 
16 24 23 22 19 24 20 22 20 20 21 21 20 19 18 20 17 14 17 17 14 15 16 23 23 22 26 19 19 17 18 18 20 22 17 21 19 19 19 18 15 16 18 18 16 16 20 20 21 20 23 22 23 23 19 18 14 18 16 19 17 17 15 12 16 15 15 14 6 12 14 15 9 15 11 14 14 15 19 21 
20 26 23 22 22 19 22 20 20 19 20 22 19 17 16 17 17 16 13 17 15 19 18 22 22 23 20 20 16 14 19 19 21 22 20 20 24 23 19 19 18 22 17 13 18 19 18 24 24 19 21 20 20 20 18 19 21 18 15 14 17 14 16 16 17 15 15 18 13 15 13 14 11 13 16 15 16 19 16 18 
20 22 25 21 22 23 17 21 23 19 20 19 20 19 18 18 18 14 15 16 18 16 14 22 23 22 20 18 19 16 17 20 21 20 22 24 19 19 18 17 22 17 19 19 17 19 20 21 23 18 24 20 20 22 17 19 18 17 16 16 15 17 17 20 18 17 13 18 13 10 18 16 13 11 11 11 13 12 14 18 
24 19 19 22 24 23 20 19 23 20 19 21 21 19 20 18 14 16 19 20 19 16 19 19 21 22 20 18 19 17 16 22 22 19 19 17 21 20 18 20 19 22 18 17 16 21 18 26 22 21 23 18 18 20 18 19 20 16 17 17 17 18 17 14 15 16 14 14 11 13 15 17 14 12 12 12 15 15 17 12 
23 23 23 17 20 20 21 17 20 21 19 21 21 20 17 17 19 16 17 19 21 17 21 20 22 20 17 19 16 15 16 19 19 18 19 21 18 19 17 16 24 18 20 14 18 22 22 21 21 18 20 19 18 18 17 17 15 16 12 16 17 19 15 15 14 16 14 16 15 11 13 12 11 15 10 15 16 12 14 19 
20 20 19 18 20 20 17 16 21 21 20 20 20 19 19 22 22 14 18 16 19 17 21 19 21 16 16 16 17 17 18 20 19 20 20 22 19 16 19 20 16 20 17 17 19 22 20 21 19 16 22 19 16 18 18 18 15 17 14 17 16 21 15 14 15 21 17 15 13 13 13 13 12 15 11 15 18 12 17 13 
21 24 19 16 19 20 17 15 19 19 19 20 16 19 20 19 17 19 16 17 17 18 21 17 18 19 22 18 17 18 15 17 20 18 19 19 16 17 17 18 20 17 15 18 18 24 17 17 20 19 20 18 19 17 17 17 17 19 15 16 15 17 18 13 14 18 16 21 6 16 15 11 9 13 11 11 16 10 10 17 
20 23 16 19 18 23 24 19 18 16 16 15 18 17 16 21 17 14 18 17 17 16 22 21 20 17 20 18 17 19 16 16 18 19 17 19 15 19 17 18 17 18 16 14 18 17 18 18 20 17 22 18 17 16 16 14 16 18 17 17 18 18 19 15 15 14 14 15 12 14 15 11 12 13 8 10 11 8 11 12 
24 24 21 17 26 24 23 21 19 17 18 18 17 18 19 22 19 13 17 18 16 18 29 21 20 17 17 18 16 16 19 18 18 18 17 18 22 20 17 23 15 17 15 17 18 18 18 17 18 16 20 17 16 17 15 19 17 19 18 17 18 21 20 13 16 15 16 15 13 12 14 14 14 14 11 11 13 7 15 8 
27 26 20 20 19 19 21 20 21 19 20 17 19 15 19 21 18 17 16 20 16 19 23 24 20 17 19 17 16 18 16 20 17 18 20 19 25 18 16 18 16 16 16 14 18 17 16 14 13 16 20 17 16 22 20 17 19 16 15 17 18 18 16 17 11 15 16 15 12 11 13 19 12 14 12 10 11 12 11 12 
20 21 23 21 17 20 17 17 20 21 19 18 18 16 18 18 15 15 14 17 15 17 21 20 19 18 16 16 14 16 15 19 21 20 18 16 21 21 22 16 13 17 15 16 15 12 12 14 13 15 16 19 18 22 20 19 18 15 16 19 18 18 15 13 16 15 16 11 13 10 16 14 9 15 9 11 12 8 12 12 
23 22 17 22 22 24 18 17 16 17 19 20 17 15 17 20 17 14 14 17 20 17 16 16 18 18 16 15 12 12 15 20 15 16 23 16 19 15 18 16 13 15 19 15 14 16 15 15 16 16 19 18 15 21 17 21 17 17 17 19 19 18 15 14 13 13 13 14 7 11 14 12 8 12 10 14 7 13 10 16 
24 20 19 21 21 21 17 19 22 20 18 19 18 18 17 18 15 6 14 16 11 16 17 16 16 19 16 17 13 18 14 17 18 16 15 16 16 16 15 18 16 13 13 14 17 15 18 16 18 16 18 18 17 20 17 20 19 18 23 21 17 16 16 13 14 14 15 11 11 13 11 13 11 9 9 9 12 8 10 8 
17 17 17 24 28 22 20 18 18 23 18 15 16 14 15 16 14 13 16 13 12 13 12 18 20 21 18 17 18 16 17 15 18 16 16 15 12 14 17 16 19 13 14 12 15 13 19 16 15 15 21 15 16 17 18 19 19 17 20 17 17 19 14 12 15 12 13 12 10 12 12 14 11 10 10 9 10 10 15 11 
18 17 16 24 22 17 19 19 21 20 18 17 17 16 13 14 15 16 17 15 17 12 13 16 15 18 22 18 15 14 15 14 15 17 16 13 15 15 13 16 15 18 15 11 14 15 14 15 14 14 18 15 15 18 20 19 20 15 18 18 16 17 14 14 16 14 13 9 11 12 13 13 11 15 11 9 11 8 9 11 
17 16 14 19 20 16 19 15 17 22 14 18 19 17 14 17 10 14 18 19 19 14 12 17 16 14 18 18 17 14 13 18 15 18 17 18 16 17 17 13 15 16 16 14 14 20 16 16 16 15 15 19 18 15 19 21 16 17 16 15 13 16 14 14 13 13 13 9 10 13 24 12 12 15 7 11 7 9 14 13 
15 21 16 15 16 17 16 19 17 19 17 21 25 21 15 16 15 16 16 19 15 16 17 18 16 18 18 16 15 15 12 24 13 15 17 18 16 15 18 20 15 14 17 10 14 15 19 16 19 12 16 18 18 15 15 19 20 13 16 17 15 16 15 14 17 12 10 11 8 11 16 8 10 10 12 12 13 13 11 14 
24 20 15 14 18 19 21 16 22 18 18 19 20 16 15 14 16 13 14 19 13 14 19 15 13 15 18 18 13 13 16 14 16 16 15 13 16 16 16 16 15 15 21 13 14 17 15 27 15 15 22 20 17 19 15 17 14 14 15 15 16 17 13 13 15 16 12 11 11 12 13 14 8 12 7 10 10 12 9 12 
18 19 16 16 12 23 18 16 19 19 17 18 18 17 12 14 15 13 14 15 16 18 18 18 18 16 15 17 16 13 13 16 15 20 15 16 16 14 19 17 15 18 18 15 16 13 14 15 19 18 18 19 17 15 20 18 15 15 16 17 13 14 13 14 17 13 15 11 13 10 14 9 10 12 10 10 13 10 11 12 
17 17 13 15 18 15 19 14 18 17 15 15 17 17 15 18 14 13 14 16 12 14 17 15 19 15 14 18 13 15 17 14 12 17 18 14 20 15 16 16 19 16 19 14 16 18 14 16 21 17 18 17 19 18 23 18 19 19 18 17 14 17 12 13 14 12 11 11 7 11 16 10 12 11 11 9 9 11 11 12 


