P2
80 60
144
136 136 136 134 135 134 133 134 132 134 139 134 134 135 130 128 131 128 128 126 132 134 132 130 127 130 131 130 129 131 132 134 133 131 126 129 130 128 131 125 129 128 131 130 131 130 126 129 135 130 127 127 127 129 130 129 128 133 135 129 131 128 131 120 121 125 124 122 123 124 118 122 121 121 125 123 125 120 116 120 
135 141 131 137 132 133 134 134 135 134 136 135 130 133 132 132 132 131 131 133 135 132 133 132 130 129 134 131 129 133 133 128 132 135 129 131 132 132 128 128 129 129 130 132 128 132 131 130 130 132 127 126 127 129 130 133 131 129 130 126 126 127 124 124 126 125 125 124 121 125 123 121 121 124 125 122 128 124 121 123 
135 136 132 131 134 134 132 131 133 137 136 133 131 128 135 133 131 128 134 133 131 131 132 133 128 136 133 131 132 131 137 134 131 133 132 130 132 130 131 130 122 130 131 129 130 131 127 128 133 130 131 128 127 129 129 127 128 130 125 127 128 124 125 127 123 123 127 128 122 124 123 120 122 127 124 124 123 125 123 124 
139 132 130 132 133 136 134 132 132 134 138 135 130 125 129 128 129 129 132 134 132 136 132 133 130 137 133 134 132 131 137 133 132 133 132 133 129 129 130 127 128 129 135 131 128 131 130 130 135 131 132 131 130 127 129 131 128 127 127 125 126 126 124 125 125 124 127 126 125 125 125 128 125 120 122 124 129 120 122 124 
139 131 131 134 132 133 134 133 135 140 135 131 129 131 130 130 128 130 131 132 131 132 135 134 133 133 137 132 133 132 132 133 128 131 127 131 131 133 133 130 126 129 130 128 131 128 131 131 129 131 131 126 126 129 130 129 131 130 129 127 128 124 127 128 127 125 125 128 122 124 120 117 121 119 120 123 123 124 115 121 
133 130 133 132 133 135 135 135 137 134 134 135 131 132 130 130 131 130 130 133 135 137 133 134 133 133 135 133 134 130 131 129 128 129 129 128 130 130 127 125 126 130 130 131 128 131 132 135 131 129 132 130 129 129 130 130 129 129 124 127 129 126 124 124 125 123 125 128 123 121 119 115 114 117 121 124 120 122 116 119 
138 135 131 132 134 136 137 138 140 135 136 136 130 132 132 132 137 133 135 135 131 133 132 132 133 131 133 132 130 126 133 129 127 130 129 131 130 130 128 130 131 129 128 128 130 131 133 135 132 129 134 131 129 130 132 129 130 133 128 129 129 125 128 123 123 124 125 128 126 118 111 113 118 119 121 120 117 118 121 123 
137 133 138 133 136 137 137 140 136 134 135 137 133 137 131 128 134 134 137 133 135 132 132 134 129 135 133 131 129 132 129 124 127 129 131 133 129 129 129 126 126 126 127 129 126 129 133 129 130 130 133 131 130 129 126 130 126 133 130 127 127 127 131 126 124 126 130 127 122 119 114 115 120 120 122 120 120 116 116 123 
141 138 136 136 136 135 141 140 132 135 136 133 130 131 130 131 132 132 132 135 133 133 131 131 130 133 133 133 133 130 134 130 126 128 129 129 129 128 129 129 125 125 126 128 126 124 130 128 128 127 128 130 127 127 127 129 130 125 129 130 127 126 127 123 123 123 129 127 124 124 121 116 118 120 122 119 124 121 120 124 
137 135 134 136 136 136 139 136 138 133 130 133 129 131 128 131 137 130 132 133 131 133 132 132 131 131 133 131 132 131 128 125 131 125 127 131 130 127 129 127 124 126 125 127 128 125 123 126 129 127 128 126 124 125 129 127 124 126 127 127 124 121 124 121 123 126 127 124 125 121 120 117 120 117 119 119 121 122 114 118 
138 136 139 136 139 138 142 135 135 135 134 132 130 127 130 130 130 133 133 133 131 129 128 132 129 134 133 132 129 128 129 129 130 128 130 131 130 131 129 129 126 124 126 125 126 124 124 125 127 125 128 126 126 125 126 127 127 127 123 124 130 123 122 123 121 122 124 122 122 119 117 120 120 120 121 120 122 121 118 124 
138 137 138 138 139 137 133 134 135 132 131 129 128 131 128 129 130 130 132 129 130 132 130 131 127 132 131 130 128 127 130 129 131 130 130 133 132 131 132 128 131 127 126 127 125 128 125 126 124 128 125 124 123 126 125 125 128 130 123 124 125 125 124 118 122 121 123 124 121 116 115 111 115 118 125 121 124 119 118 123 
136 138 137 139 136 138 133 131 134 132 130 131 129 131 125 127 127 128 127 131 130 133 129 129 129 130 130 131 127 129 130 129 130 130 133 134 128 131 134 130 130 126 129 129 131 126 131 127 126 124 128 126 126 121 126 125 125 124 122 120 125 123 125 119 123 119 127 121 120 117 104 115 114 121 119 118 122 120 120 123 
135 134 140 139 138 136 134 131 138 135 134 131 131 130 127 131 126 128 129 125 130 130 130 130 126 131 131 128 127 129 133 130 133 134 132 133 132 133 130 128 128 127 128 128 127 132 131 129 127 134 128 128 127 122 123 123 128 127 126 127 125 126 122 119 118 122 125 123 121 119 111 113 116 115 117 117 121 119 119 126 
139 135 137 142 134 133 133 132 132 131 132 133 126 128 125 129 128 126 128 125 127 130 129 131 126 132 128 130 130 125 129 126 129 132 132 132 131 131 128 128 124 128 127 128 127 126 131 126 126 133 128 127 123 124 126 127 129 140 125 125 124 122 122 122 118 122 124 120 120 117 115 110 110 112 114 114 116 119 119 122 
140 139 142 139 137 135 134 132 135 132 129 129 128 129 128 130 128 125 130 128 128 130 127 131 130 130 131 131 129 127 130 128 128 128 127 131 131 131 131 129 128 127 126 129 126 126 126 125 127 125 125 119 124 125 126 127 131 127 126 127 124 122 125 123 121 119 127 129 125 118 114 111 111 111 114 113 118 121 119 121 
138 138 140 136 135 132 132 129 132 130 131 131 126 129 130 129 128 128 128 125 129 128 128 128 128 130 129 130 127 128 129 129 129 133 130 129 129 130 129 128 126 124 127 126 128 127 126 125 123 123 124 123 121 125 128 127 130 130 125 123 121 122 124 120 122 124 126 124 124 115 114 110 116 111 111 110 115 118 121 122 
142 144 142 140 133 131 128 130 131 128 133 135 128 125 128 127 128 128 127 128 129 130 128 128 125 127 128 131 129 128 130 128 133 128 129 132 131 130 129 128 123 124 124 129 125 130 127 123 126 123 125 123 128 125 127 127 127 131 128 125 126 123 122 120 121 119 117 122 121 116 114 108 113 110 113 113 117 118 117 118 
141 139 141 139 135 134 135 129 132 128 130 131 127 126 128 127 125 127 131 128 128 125 129 131 127 129 130 129 127 128 130 129 131 130 132 131 130 130 126 128 124 124 123 127 125 125 124 125 122 122 126 122 130 125 124 124 126 128 124 125 121 120 122 120 123 122 119 126 120 119 112 108 112 106 112 112 119 120 115 122 
137 138 133 134 132 140 128 129 132 128 132 128 128 126 125 126 126 126 129 129 129 132 131 131 128 133 131 126 125 127 131 127 129 128 133 131 132 130 127 123 129 125 123 124 123 123 122 126 121 123 123 126 125 124 127 122 122 121 123 119 121 120 121 121 122 123 124 121 119 113 111 109 111 106 109 109 114 116 110 118 
136 135 135 132 135 133 134 132 130 132 130 128 128 128 126 128 125 128 129 129 130 129 131 128 129 130 128 129 126 126 137 132 127 127 131 133 130 130 128 126 125 129 126 126 122 124 121 120 124 124 124 125 127 122 124 122 123 124 122 119 120 121 122 120 123 122 124 125 122 113 117 104 107 110 112 112 113 113 116 121 
132 138 135 132 131 133 137 129 131 130 129 128 132 128 127 126 124 127 127 127 130 129 131 128 129 131 128 127 124 129 131 128 127 128 130 133 131 127 123 126 124 125 123 123 122 120 120 125 120 125 127 122 122 130 122 124 123 125 124 120 121 119 118 122 122 124 126 123 119 113 111 107 106 109 109 110 115 113 115 117 
137 135 138 136 132 132 133 133 131 134 133 130 130 128 128 129 128 128 129 127 129 128 128 129 129 129 129 126 126 126 125 126 128 127 128 132 127 126 123 126 125 122 124 122 122 121 126 125 122 123 126 122 122 121 126 122 121 121 122 123 125 116 121 121 123 122 126 121 119 116 109 110 107 107 106 112 117 115 115 120 
135 136 135 135 133 133 133 135 131 129 130 131 129 126 124 124 127 124 126 127 126 126 127 128 126 127 128 124 126 124 128 126 128 125 126 131 131 128 124 123 123 122 120 122 123 125 122 122 123 126 124 122 120 120 125 120 123 126 121 122 120 119 120 123 123 126 124 121 120 116 110 108 107 107 110 113 114 115 117 118 
137 136 135 131 129 133 133 131 131 129 129 131 126 126 123 126 126 124 126 129 127 127 125 128 126 125 125 124 122 123 123 125 126 124 126 129 128 127 126 121 116 117 123 122 127 122 121 125 124 124 121 118 116 121 124 122 122 121 120 120 118 119 120 120 121 121 125 121 120 114 107 103 108 109 110 111 115 115 120 119 
132 133 133 134 130 134 137 132 131 129 130 129 123 126 129 127 128 126 125 128 129 127 127 129 128 128 128 124 122 124 126 123 127 124 122 129 127 124 122 121 120 120 122 122 120 124 125 125 122 120 121 119 120 121 121 118 120 123 125 123 119 118 119 120 123 119 123 120 122 114 107 106 107 105 107 109 111 114 118 116 
133 133 134 133 133 139 133 128 133 126 129 130 128 125 125 127 129 127 127 126 127 128 130 131 126 127 129 125 124 122 126 122 127 127 127 128 125 123 121 120 117 119 120 121 121 122 123 120 121 120 123 121 119 122 118 119 119 119 119 119 123 120 120 116 121 123 120 123 117 115 106 106 107 106 107 108 113 115 115 117 
134 132 134 135 135 129 129 135 131 133 130 130 126 129 125 126 128 125 126 127 127 124 128 130 127 128 128 126 126 127 125 122 123 125 123 128 129 123 122 122 121 120 122 124 121 120 121 121 121 120 118 123 121 120 121 118 121 116 120 119 122 122 124 118 124 118 120 120 116 112 104 105 102 106 106 108 112 112 114 115 
131 133 130 133 129 131 132 132 133 130 129 132 129 129 126 123 123 126 127 129 124 125 127 126 124 128 127 125 126 125 125 121 124 122 122 128 127 123 121 121 119 119 122 123 121 120 118 120 120 120 121 110 118 117 119 121 118 117 114 116 118 116 118 121 119 119 122 121 117 113 105 104 102 103 106 109 114 111 110 111 
134 133 137 132 137 131 129 131 134 129 128 129 127 126 125 123 124 123 127 125 123 124 126 128 121 125 127 122 124 124 123 124 125 124 123 127 124 124 119 118 119 122 120 120 120 119 121 117 120 119 120 120 120 117 120 124 118 117 114 115 121 116 117 120 120 119 123 123 116 110 107 104 103 101 103 108 110 109 106 111 
132 133 133 135 130 128 130 134 127 128 132 129 124 126 123 124 125 125 124 122 126 123 126 126 126 126 125 122 120 124 124 124 125 125 126 129 121 121 120 120 120 120 124 120 122 117 117 119 121 120 120 118 117 119 121 117 119 117 115 117 120 117 120 120 122 121 120 120 116 107 104 104 104 106 103 106 111 109 108 109 
132 133 134 134 131 132 132 133 130 128 130 129 123 124 126 126 125 123 126 126 122 121 125 125 125 127 128 122 122 124 126 123 122 124 124 125 124 123 119 122 124 124 121 122 123 118 118 118 119 123 120 122 122 120 118 118 118 117 116 117 115 119 120 118 118 119 124 121 117 109 106 102 104 106 105 106 108 107 105 114 
130 132 131 132 131 135 132 132 132 128 131 134 130 123 124 124 128 127 126 126 123 124 125 127 127 128 126 125 125 123 125 121 124 123 130 127 122 123 120 122 122 122 121 120 121 119 119 119 122 120 121 119 116 115 121 119 120 117 116 117 114 116 118 116 119 118 120 124 117 109 102 101 102 103 103 106 106 106 109 109 
133 133 130 131 133 130 134 130 131 129 130 129 129 125 125 130 127 124 125 123 124 125 125 127 128 126 126 125 124 126 123 121 123 124 125 124 122 121 119 118 120 119 122 120 120 118 118 117 118 121 121 120 119 117 119 118 119 117 118 119 116 118 116 117 116 116 121 123 117 114 105 99 101 102 106 106 109 106 107 107 
130 130 133 132 131 130 128 129 128 130 130 128 124 129 127 123 126 126 125 126 126 124 125 125 125 126 127 126 125 126 125 124 123 121 123 124 123 121 119 119 116 121 119 119 121 120 117 117 116 117 118 120 120 114 119 119 118 119 117 110 113 116 116 117 117 115 117 117 117 108 104 101 100 101 103 108 107 107 106 109 
132 129 133 131 131 132 128 129 125 126 126 128 126 126 126 125 123 123 128 124 125 125 125 123 122 124 126 124 122 125 124 122 122 124 123 123 124 122 120 117 119 120 123 120 119 118 119 121 117 119 122 119 119 123 120 118 117 117 114 116 115 116 117 114 116 115 116 121 115 107 99 100 101 99 104 104 108 107 104 111 
133 135 133 133 131 130 125 128 127 128 128 125 125 128 124 123 123 126 131 127 124 124 126 123 122 124 123 125 120 124 126 124 126 125 122 125 124 123 120 118 117 119 119 118 116 119 118 115 118 116 119 115 118 120 118 118 115 118 115 116 118 116 114 116 116 117 117 118 115 104 101 94 97 98 99 101 103 102 103 108 
134 134 132 132 128 130 129 130 128 131 126 127 125 129 123 120 123 132 130 128 123 123 128 124 120 120 122 118 120 121 126 123 124 122 124 121 122 120 119 117 117 117 118 117 119 118 117 118 116 115 116 118 117 116 119 115 116 116 117 116 114 113 114 115 116 120 117 123 109 101 98 97 98 98 97 95 102 101 102 107 
131 134 138 134 131 129 129 133 132 131 130 126 128 124 122 123 123 127 130 126 124 122 125 128 123 122 120 122 120 120 124 118 123 122 121 124 120 117 123 117 118 117 117 116 120 116 117 119 117 117 120 118 115 119 121 116 115 114 112 110 111 114 112 113 115 116 117 122 102 78 77 86 95 96 94 97 99 102 103 106 
133 131 132 132 131 133 128 127 131 130 128 129 129 124 121 122 124 124 126 127 123 122 127 127 123 123 123 121 118 120 121 119 122 124 123 124 119 120 120 119 115 117 120 120 117 118 120 121 119 119 121 118 119 120 118 114 112 113 111 114 111 112 117 114 112 114 111 118 91 41 33 81 91 95 97 93 99 99 100 110 
131 131 132 134 131 131 127 129 128 126 127 131 126 127 124 124 121 125 124 126 125 126 122 126 124 124 123 120 119 118 121 121 123 123 123 127 124 120 117 113 114 115 119 120 119 118 123 123 119 120 118 122 118 123 122 117 116 117 114 112 114 112 113 115 113 110 112 114 83 15 9 58 94 96 95 96 99 101 109 112 
135 133 132 132 131 131 125 127 128 130 130 126 128 128 126 124 128 122 127 125 127 126 124 125 127 121 121 119 119 119 120 119 122 117 125 126 120 122 120 117 115 117 117 118 120 115 120 118 120 119 118 117 117 118 123 114 113 115 113 109 114 109 116 114 111 111 113 114 76 5 8 55 89 89 95 99 100 102 101 102 
135 129 134 133 132 131 126 130 129 129 129 127 127 125 124 126 124 125 125 125 125 125 127 126 126 124 122 120 120 121 122 119 122 123 124 127 121 118 119 116 115 117 115 118 118 115 121 118 118 114 116 113 121 117 122 113 112 115 109 115 115 114 115 113 112 113 112 115 74 5 9 57 83 87 94 96 102 99 99 103 
134 131 134 128 129 130 126 125 129 127 126 130 125 126 123 122 126 125 122 128 122 126 124 123 123 123 124 124 119 120 123 121 119 122 124 126 122 120 115 115 116 117 117 119 118 118 123 125 118 113 116 114 114 117 116 114 112 113 113 115 115 112 112 111 116 112 112 112 76 7 13 57 84 88 96 96 97 99 95 99 
129 132 131 125 126 128 126 128 126 124 125 127 126 129 127 124 129 123 126 126 126 120 124 124 124 123 121 121 119 121 121 118 117 121 124 125 121 119 117 116 118 117 116 118 121 119 123 122 120 114 114 110 114 114 112 111 110 111 113 115 114 111 116 113 112 112 110 111 73 11 9 58 86 88 94 98 99 100 100 100 
133 128 131 127 130 134 126 123 126 126 128 124 125 127 130 126 129 123 124 125 124 120 124 122 122 123 120 120 117 121 119 121 121 125 124 127 123 119 117 116 114 117 116 117 119 119 121 116 117 115 113 109 110 111 116 112 110 110 111 108 115 112 116 115 110 111 113 113 71 10 10 56 83 92 97 95 95 95 96 100 
129 128 130 129 126 133 133 126 125 127 126 126 125 125 128 125 123 123 125 127 125 123 123 121 118 122 120 118 118 119 121 118 122 124 121 122 121 118 116 115 117 117 115 116 116 118 117 117 114 115 111 113 107 108 110 113 110 113 108 110 112 111 112 109 111 108 107 110 57 8 10 52 87 90 94 92 95 98 95 100 
131 129 128 125 125 126 128 126 124 124 123 127 125 126 124 125 121 126 124 124 122 122 123 123 121 119 118 116 116 121 118 117 118 118 122 120 119 119 114 112 114 118 112 114 113 114 118 115 110 110 110 110 108 107 109 111 108 108 110 109 115 111 111 111 106 106 110 106 55 0 6 45 84 89 91 93 93 92 91 95 
131 133 129 128 126 128 127 127 126 125 126 126 124 126 126 125 124 125 125 122 123 124 126 127 120 123 119 119 119 118 117 117 120 120 124 125 121 121 115 112 111 112 113 119 115 111 112 111 111 107 109 109 108 109 111 109 110 111 110 112 111 108 111 108 105 105 106 107 56 10 11 41 84 89 95 93 97 93 88 91 
133 127 128 119 128 124 124 124 125 124 128 125 124 124 124 129 121 127 125 123 123 121 122 123 119 120 119 120 119 119 118 116 119 119 124 121 118 116 110 112 112 111 113 116 114 107 110 108 107 109 107 108 107 109 115 112 105 108 110 107 106 107 104 105 105 106 106 104 80 30 29 58 80 89 92 93 99 86 85 83 
128 124 124 126 126 125 128 125 126 125 124 126 123 124 124 121 123 123 124 122 124 119 121 119 121 119 117 116 118 116 115 115 115 119 123 120 117 112 115 110 109 113 113 118 114 109 110 110 105 105 105 103 106 109 113 110 107 113 109 107 107 106 103 104 104 105 101 101 93 75 63 72 87 90 98 100 101 81 81 89 
133 126 125 123 130 128 127 127 125 125 124 124 123 119 123 123 123 122 123 125 124 121 120 123 121 121 120 118 118 118 118 115 116 118 126 118 114 113 112 108 110 112 113 111 115 114 107 106 107 106 105 104 108 112 112 107 112 109 107 109 106 104 106 105 104 102 102 103 93 89 85 85 94 92 98 101 100 88 81 86 
137 126 125 128 128 130 124 126 126 125 122 124 121 118 120 119 121 121 122 123 121 120 121 122 121 121 120 119 119 115 119 113 115 118 116 114 112 109 113 108 110 107 108 111 110 111 109 107 106 105 109 106 105 109 110 111 106 108 111 106 104 101 104 100 104 103 101 104 95 92 95 86 96 98 101 102 104 95 85 81 
128 127 127 126 130 131 124 127 124 123 125 125 124 122 120 117 118 118 121 122 121 120 121 121 118 121 123 123 121 116 116 114 116 114 107 108 108 109 111 109 107 109 109 108 105 105 111 106 106 106 108 106 106 109 110 107 113 109 108 104 105 106 104 104 101 102 104 105 94 95 99 98 100 104 104 100 100 99 95 92 
128 125 125 126 126 125 126 130 124 123 129 123 125 122 124 121 119 119 122 122 121 118 119 119 117 120 125 117 117 115 113 115 111 113 114 110 111 107 107 108 108 112 109 105 108 108 108 107 105 104 111 106 108 105 107 106 105 109 105 106 103 105 104 106 104 102 104 102 97 90 102 96 99 102 101 99 102 95 92 101 
127 124 127 124 124 124 127 132 126 125 127 126 122 125 126 122 121 122 122 123 124 120 117 120 117 120 122 117 114 114 116 111 108 109 108 109 110 110 106 108 107 110 108 113 108 105 105 103 107 101 108 108 106 107 107 103 105 107 105 104 105 107 103 102 107 106 100 100 93 92 99 102 98 100 98 96 101 95 94 99 
126 126 128 127 126 125 123 127 126 127 126 123 128 122 123 118 121 123 120 121 121 121 120 119 117 118 117 117 116 114 115 113 113 111 112 108 111 108 105 109 109 107 108 108 108 108 103 105 108 107 106 105 105 104 106 106 105 105 105 103 107 102 104 103 102 99 99 93 94 94 95 99 103 102 100 104 101 97 92 99 
126 123 123 122 124 122 122 124 126 126 126 124 126 124 120 118 122 123 120 119 116 122 128 118 117 119 119 116 113 114 115 111 116 116 110 108 108 109 107 109 106 110 105 107 109 106 104 106 107 104 106 102 102 103 104 103 102 104 103 104 103 102 105 99 100 100 100 94 91 91 94 97 97 101 99 103 103 99 87 99 
125 124 123 124 125 127 123 122 123 122 123 124 120 121 117 119 116 119 116 117 119 118 121 118 116 115 117 117 115 112 115 111 114 115 109 109 106 111 110 106 107 107 114 107 107 106 104 104 105 106 106 105 102 102 108 107 103 103 103 105 100 101 102 100 105 99 99 97 89 90 91 98 96 100 100 96 99 94 94 98 
128 118 127 124 124 123 120 121 122 123 120 121 120 119 116 112 116 115 120 118 121 119 118 115 116 117 117 121 114 113 115 111 113 115 114 110 114 110 111 107 108 108 109 108 103 105 104 103 106 104 103 102 102 106 104 105 105 103 106 103 107 100 104 101 101 101 99 98 90 95 96 95 101 99 100 98 103 97 92 96 


