P2
80 60
103
11 10 13 15 13 15 12 15 17 12 18 15 17 17 14 14 17 15 14 12 16 17 13 11 13 17 15 13 15 14 20 20 21 15 16 18 15 15 14 13 14 17 17 18 16 16 15 18 22 19 16 17 16 15 18 16 22 19 17 18 11 15 14 13 14 11 15 10 9 10 9 11 15 12 15 11 11 8 10 11 
10 13 14 16 13 19 18 15 19 17 14 15 16 16 17 15 14 15 10 16 14 14 15 13 14 13 15 14 14 17 18 20 17 12 17 16 12 15 11 13 13 13 14 18 13 20 15 15 16 18 18 19 16 14 17 20 21 17 20 15 13 13 14 12 11 9 10 10 8 7 10 14 11 13 12 12 9 10 9 9 
13 12 16 14 12 11 18 17 16 21 19 15 16 15 18 17 14 11 15 17 17 14 14 13 15 15 16 15 12 15 17 22 16 11 17 15 16 15 15 13 13 15 13 14 16 16 16 15 19 18 16 14 14 15 18 17 17 16 16 17 12 13 13 12 13 9 10 11 10 8 13 12 12 13 14 11 23 7 11 13 
20 18 14 15 17 18 18 13 18 17 15 17 14 18 14 18 15 12 15 19 17 18 14 12 14 16 16 15 19 17 17 17 17 12 16 15 16 18 15 14 11 16 13 18 15 19 18 15 20 21 16 16 15 15 16 18 17 17 17 17 18 15 17 12 13 14 13 10 12 8 12 15 9 10 12 10 6 11 11 11 
21 14 15 18 19 16 12 15 19 18 17 17 17 14 17 18 14 13 16 17 18 16 15 16 15 16 18 14 15 15 13 18 14 12 11 16 14 18 17 16 16 16 19 18 18 17 19 17 17 17 15 15 17 14 16 18 20 17 18 17 19 16 12 17 14 14 15 11 14 12 11 14 17 10 13 11 10 8 12 8 
20 15 16 19 17 14 11 11 19 14 15 15 18 17 16 15 18 15 16 17 13 17 17 17 17 16 18 12 15 12 15 16 17 13 13 18 15 17 15 16 11 17 17 16 15 18 16 19 16 16 18 16 19 14 17 20 21 22 13 17 16 14 19 16 12 12 14 10 15 14 12 13 8 8 9 12 9 13 6 12 
17 16 15 21 16 18 15 13 16 18 16 16 17 19 16 16 19 15 15 17 18 18 14 16 17 17 17 16 14 15 17 14 20 15 16 17 14 15 15 13 17 17 16 18 15 19 20 19 19 16 18 22 18 16 17 16 21 26 22 18 15 17 14 14 15 13 11 13 14 11 14 11 12 13 11 12 8 10 10 7 
18 16 14 17 18 17 15 13 15 15 17 13 16 20 12 17 17 20 14 18 19 18 16 19 14 16 18 14 14 17 15 13 10 12 13 20 16 15 18 16 16 16 17 17 14 16 18 17 19 15 17 16 20 14 15 17 21 19 15 19 17 15 15 17 12 14 14 8 12 10 12 12 13 7 9 11 5 9 12 6 
20 16 18 18 17 20 15 16 19 18 14 15 15 17 16 11 18 17 15 18 17 16 18 14 13 16 18 13 16 14 16 14 14 14 14 15 15 14 17 13 11 11 14 14 14 16 17 17 16 16 16 17 15 19 16 15 18 22 16 18 19 10 12 15 12 13 12 11 11 10 8 12 12 11 13 11 7 10 8 7 
18 12 16 17 20 19 17 16 19 14 17 15 16 16 11 15 18 14 15 15 14 15 17 16 14 16 17 14 12 14 13 13 15 14 14 17 14 13 15 13 10 10 12 14 13 16 11 17 18 17 15 15 16 14 17 14 17 17 16 19 16 17 8 16 12 10 11 7 10 13 8 10 8 9 9 9 7 7 3 8 
23 21 18 21 19 19 20 19 17 14 14 17 17 15 16 14 14 18 14 15 17 15 16 15 12 14 16 15 15 15 13 15 14 13 10 12 14 13 13 17 11 11 13 13 14 14 14 17 14 15 14 13 17 13 14 18 18 17 15 15 15 17 12 13 12 12 12 9 10 13 6 11 8 10 10 11 6 7 7 7 
19 19 19 20 18 16 16 16 15 13 14 14 14 17 15 12 12 12 14 17 15 15 16 13 12 15 14 13 11 14 13 15 13 14 14 11 9 15 15 12 12 10 13 16 13 14 18 16 15 17 14 15 14 14 15 15 16 16 15 15 13 12 12 13 8 10 12 8 11 7 11 7 8 12 10 13 9 15 8 8 
20 22 18 23 17 21 17 16 16 20 18 17 15 16 17 12 12 13 10 11 14 17 15 14 13 15 13 12 16 14 15 11 16 14 12 11 13 14 18 14 12 12 15 12 15 17 20 14 16 15 17 13 11 13 14 15 20 19 17 15 13 11 17 15 11 13 9 8 9 12 0 10 9 7 11 10 15 12 6 10 
20 18 23 20 18 18 15 14 15 16 13 13 15 16 15 15 9 11 13 12 17 19 17 16 14 13 12 16 15 13 13 17 14 16 14 14 14 15 12 14 11 11 12 14 12 17 18 19 15 19 18 17 11 14 15 18 21 21 18 19 14 13 12 12 13 10 13 12 8 6 11 9 7 10 10 9 9 7 11 4 
20 19 19 20 18 19 17 17 16 13 12 15 16 15 18 12 12 13 9 13 12 15 15 15 12 18 13 13 14 12 12 16 13 14 15 12 13 14 12 14 13 13 13 14 16 15 14 21 16 14 13 15 13 12 14 19 21 31 18 17 13 15 12 14 12 12 13 11 15 13 8 7 10 5 4 11 9 3 10 5 
22 20 16 20 18 18 13 17 20 10 13 15 14 13 13 14 13 11 11 13 12 14 13 13 13 14 14 13 13 11 10 16 13 12 12 12 11 12 12 12 13 14 13 14 13 14 16 16 15 16 14 14 15 14 15 16 17 20 19 17 11 13 13 11 12 13 12 6 11 12 7 10 11 9 9 8 8 13 9 5 
21 17 19 18 16 16 13 16 16 12 10 17 15 15 13 16 10 9 9 9 12 13 11 12 15 15 16 15 11 12 12 15 14 12 14 15 14 14 13 16 12 12 13 12 13 19 16 15 12 11 16 15 15 15 15 16 22 19 19 16 15 13 11 12 11 11 11 10 10 9 11 13 20 8 9 8 7 7 9 12 
16 15 18 22 16 19 18 18 15 15 13 13 13 12 15 13 12 12 9 12 13 11 12 14 12 11 13 12 14 12 13 17 13 11 13 13 13 12 12 17 12 13 16 13 14 15 14 16 15 14 10 14 12 14 18 17 20 24 18 15 13 12 8 14 10 9 9 10 7 14 7 13 10 10 6 7 5 8 11 8 
17 17 14 19 18 18 18 14 15 12 14 14 15 15 15 11 13 11 13 15 12 10 17 16 9 12 14 11 12 12 15 14 14 11 11 14 13 10 14 14 14 13 14 16 10 15 14 12 17 10 11 11 18 14 13 15 18 17 18 13 15 9 10 11 14 9 14 11 14 9 10 11 12 11 6 6 4 11 10 2 
18 15 19 14 12 19 13 14 17 15 14 15 15 13 15 14 13 12 14 12 14 16 20 13 13 18 15 15 12 13 15 17 16 12 11 16 12 15 13 14 14 15 12 16 14 14 12 16 15 14 11 14 14 13 15 13 17 13 15 14 14 11 12 15 12 11 11 9 12 13 9 13 9 11 6 9 6 8 9 3 
22 20 17 18 19 18 18 14 14 17 16 16 12 17 14 15 16 16 15 12 14 16 15 17 15 16 15 15 15 14 24 16 16 13 12 17 12 13 13 12 13 16 13 14 14 12 14 15 15 15 15 14 16 13 17 14 18 17 15 14 12 12 11 14 11 10 13 10 12 9 7 12 11 9 6 11 5 9 6 5 
22 22 17 21 18 18 18 16 17 13 14 16 23 17 15 14 13 11 14 11 14 16 18 16 13 15 17 14 17 15 15 14 14 14 11 14 12 14 17 15 11 12 9 11 10 9 10 15 14 16 12 14 14 14 12 13 14 16 16 14 15 15 12 14 11 12 13 12 9 11 16 12 11 8 8 8 2 9 5 6 
20 19 19 24 18 16 18 18 18 15 13 16 13 17 17 15 12 12 11 13 14 12 12 12 13 14 17 13 16 11 16 17 14 12 12 14 13 11 12 15 12 13 8 11 9 10 11 13 10 15 14 17 11 15 16 15 16 17 17 14 14 12 10 11 14 13 10 11 10 8 10 12 12 9 9 8 5 7 11 6 
21 17 18 16 19 20 18 24 15 16 14 15 15 15 14 17 12 14 12 14 16 12 12 15 13 11 14 15 12 12 15 12 14 12 11 14 9 13 10 13 10 10 11 10 12 13 12 11 14 18 13 14 14 12 11 14 15 14 19 12 12 12 10 12 14 12 14 11 10 12 12 13 11 8 9 8 7 7 11 9 
21 19 17 18 17 19 18 16 20 14 17 14 15 15 14 15 11 10 9 11 12 17 12 14 13 14 12 11 13 12 9 12 12 10 9 16 9 11 13 13 9 10 9 10 10 14 11 11 12 14 15 11 12 11 11 12 15 13 11 14 11 11 9 10 12 12 12 10 9 10 12 11 12 10 8 9 4 7 9 11 
20 15 13 15 13 15 16 19 17 16 13 15 15 18 17 16 14 14 9 11 14 14 15 17 11 14 14 13 14 12 10 10 12 12 8 11 11 9 10 12 9 8 11 11 12 16 14 15 11 11 11 13 12 13 10 14 15 15 17 13 13 8 10 10 12 11 12 10 10 11 13 11 9 7 11 11 5 6 9 6 
16 14 18 18 18 16 18 18 16 15 14 13 18 15 17 13 18 11 10 10 14 13 19 15 13 11 14 13 14 12 9 10 16 8 12 13 10 10 11 10 12 7 13 13 13 14 12 14 12 11 13 14 9 10 13 13 15 13 10 12 9 13 7 14 10 13 11 6 11 10 9 12 8 6 8 10 7 8 5 7 
18 17 16 18 16 15 16 15 16 16 14 15 14 14 14 12 11 11 7 13 12 14 15 14 13 14 16 16 10 14 11 11 13 8 7 12 11 10 10 11 10 9 15 12 12 11 15 13 12 13 11 13 10 10 11 12 11 15 11 14 13 8 12 11 9 10 11 7 8 16 10 10 7 7 10 4 5 8 9 6 
20 21 22 16 18 14 15 16 18 15 13 14 18 18 13 14 15 13 13 15 11 14 10 15 13 15 11 13 14 17 12 8 13 10 11 12 11 10 11 12 10 13 13 12 8 13 13 13 14 12 10 11 11 11 12 13 12 14 14 11 12 10 10 12 12 10 10 9 9 10 8 10 8 4 9 2 6 9 14 0 
21 20 24 18 16 18 18 16 18 13 12 15 16 17 15 14 17 12 11 13 14 12 14 13 14 17 15 13 13 15 15 14 13 9 6 12 10 13 12 11 13 13 14 14 14 16 15 11 14 14 13 12 11 11 11 18 15 13 12 13 12 9 12 16 13 13 19 12 9 12 12 12 12 7 8 11 5 7 6 8 
21 22 21 20 19 19 17 17 16 16 17 14 18 17 16 14 16 12 12 12 11 16 16 16 15 14 13 13 13 11 13 10 10 11 11 11 14 10 13 11 11 14 15 13 12 14 13 14 16 14 9 10 11 11 10 14 15 15 11 10 13 14 12 15 12 11 14 11 11 12 12 9 9 11 8 7 10 9 7 5 
21 17 20 18 17 21 17 17 18 19 17 16 17 18 17 14 15 11 12 10 14 16 16 14 14 14 15 11 13 12 13 13 12 13 11 13 10 11 11 12 15 12 15 14 15 12 11 14 14 16 11 12 11 10 13 12 15 14 14 12 12 13 9 11 14 10 16 11 12 10 12 11 11 8 10 8 6 8 7 8 
21 21 21 16 17 19 19 17 20 16 14 15 20 18 16 14 15 12 14 9 13 13 14 16 12 14 15 15 12 15 13 13 15 10 8 11 12 10 13 13 12 14 14 15 15 12 9 12 14 15 15 12 12 12 11 12 18 13 11 14 12 11 10 15 16 13 12 12 15 10 10 11 13 10 10 7 10 7 10 2 
22 19 18 14 22 20 15 16 19 15 16 17 18 18 15 15 16 15 15 15 16 12 14 19 14 15 17 14 15 18 10 14 14 9 9 9 9 11 11 12 13 15 13 14 15 14 12 12 12 13 12 15 10 12 11 15 17 14 13 10 12 12 10 15 12 11 15 10 15 13 8 13 11 9 8 7 7 8 4 3 
20 18 22 19 17 21 15 19 18 15 17 18 17 20 16 16 18 16 14 15 14 12 15 15 16 16 16 15 17 13 13 17 11 9 13 14 9 12 12 12 11 11 16 15 14 18 13 14 15 12 9 12 13 12 13 13 17 18 12 10 11 12 11 14 14 10 10 9 11 11 9 11 13 8 7 5 6 10 9 6 
17 16 15 16 21 21 18 16 18 14 15 18 17 18 17 13 13 16 15 15 13 12 15 13 15 15 10 13 13 14 14 12 16 13 10 12 10 11 12 13 10 12 13 15 12 14 14 19 15 12 13 14 12 13 13 15 14 15 14 16 13 12 10 15 12 15 11 12 9 11 5 12 10 9 8 10 6 9 7 8 
21 19 20 24 19 21 21 20 19 17 16 15 15 20 14 15 17 16 17 17 14 13 15 15 14 13 14 12 13 11 16 12 11 11 10 11 11 13 11 12 7 10 12 12 13 11 15 13 14 13 16 14 14 13 14 13 13 15 12 19 14 12 9 10 13 13 10 10 13 9 9 12 11 8 14 9 6 11 8 10 
23 19 22 21 20 20 20 21 19 18 18 19 19 20 19 14 17 22 15 15 16 15 15 18 14 13 18 13 13 14 16 15 13 10 12 11 9 11 13 12 12 14 14 13 12 14 14 13 16 13 18 14 14 11 17 16 16 16 12 11 12 12 11 11 12 14 13 9 10 12 6 11 8 9 7 9 8 11 14 5 
24 18 27 22 24 23 19 20 20 18 21 21 21 21 15 21 17 17 12 14 17 14 16 15 14 14 14 12 14 13 13 13 14 12 11 13 12 12 13 13 11 11 15 12 14 15 15 15 15 14 13 15 14 11 15 15 16 15 11 15 10 13 10 12 12 12 11 13 9 10 9 11 11 9 9 12 8 13 12 10 
22 24 22 24 22 25 19 19 23 17 19 15 19 22 19 16 17 14 14 15 19 14 17 16 14 14 16 15 13 14 14 15 17 14 13 12 9 10 13 16 11 14 14 14 13 15 19 16 16 15 15 16 14 14 16 13 17 14 11 13 12 14 10 13 11 12 13 10 11 12 10 13 10 12 10 10 11 14 12 13 
22 23 22 20 22 24 22 19 21 19 20 19 17 22 17 15 17 16 15 15 15 15 16 16 18 15 19 14 14 10 13 14 15 17 9 11 11 13 12 14 12 13 13 13 14 15 13 18 18 15 15 14 18 18 14 12 13 15 11 13 9 13 6 12 12 11 11 7 9 9 8 10 7 12 11 10 9 12 16 6 
22 22 26 22 19 21 21 23 20 20 21 18 23 20 16 16 18 17 15 14 15 12 16 16 16 17 21 14 13 11 14 14 16 15 10 12 12 13 13 13 10 14 13 13 12 14 13 16 14 16 15 17 13 16 15 13 15 15 11 9 11 12 7 10 11 12 10 8 9 10 11 12 9 7 8 8 9 12 11 9 
23 25 27 19 21 22 22 21 19 19 18 22 22 22 21 17 19 14 17 15 15 16 15 19 15 16 19 16 13 11 13 14 12 10 12 15 14 15 12 12 12 14 12 14 15 14 14 18 17 13 15 13 14 14 13 16 17 18 15 12 9 10 10 14 12 15 9 8 11 7 8 9 11 10 10 9 11 10 13 7 
27 23 20 19 21 22 22 24 23 21 19 24 24 21 18 15 22 17 19 18 16 14 18 16 15 15 15 14 14 13 14 15 15 11 14 11 10 11 12 14 12 13 11 13 13 17 15 23 18 14 13 13 12 16 13 13 16 18 13 12 12 12 11 13 10 11 10 9 14 10 8 9 8 8 6 9 7 8 8 7 
26 22 26 25 26 26 24 26 21 23 22 23 25 24 23 20 20 17 19 19 18 16 17 16 18 16 15 11 14 12 15 15 13 12 11 14 12 11 13 15 13 10 12 12 14 16 18 18 19 13 15 12 11 11 13 13 16 15 12 16 11 15 8 8 11 9 11 13 10 7 10 8 12 6 9 9 7 7 12 10 
26 24 22 25 27 27 25 23 27 24 25 24 22 27 25 26 24 19 18 18 23 19 18 16 14 16 14 14 12 13 16 16 15 13 16 14 13 12 12 13 12 11 11 13 15 16 16 15 14 15 15 13 12 13 14 13 13 12 11 8 11 10 8 13 13 11 12 10 11 12 9 9 9 9 11 8 6 6 12 12 
29 26 25 23 26 23 24 26 24 23 23 21 24 29 27 23 22 21 20 19 21 19 17 17 13 16 22 13 12 15 16 15 16 13 11 15 11 12 11 9 9 10 12 12 17 18 16 15 16 15 15 15 13 9 14 13 12 14 13 11 11 13 12 14 11 12 11 10 11 10 10 10 8 8 11 7 3 8 11 8 
27 26 25 23 23 26 22 25 24 23 22 23 24 26 27 22 23 18 19 19 18 17 17 19 13 17 16 12 12 13 14 11 11 9 13 11 11 10 11 12 10 13 12 16 13 17 15 13 17 12 15 15 12 9 14 10 16 14 10 14 12 14 9 11 13 9 12 12 13 12 10 9 8 8 8 9 3 8 6 5 
44 34 32 26 27 28 23 26 25 23 21 24 28 30 29 23 22 19 20 18 17 19 23 19 12 15 15 15 14 15 12 12 11 12 12 14 9 12 10 11 11 7 11 14 16 15 17 13 15 15 13 16 12 11 14 16 19 13 13 14 10 14 8 12 12 11 17 12 10 9 7 10 11 9 7 4 7 5 6 5 
65 57 50 40 30 28 23 26 28 21 22 21 23 25 21 20 20 18 19 17 20 19 22 17 12 15 16 13 14 14 11 11 14 12 12 11 11 11 12 13 8 9 11 13 13 15 12 12 12 13 14 14 14 14 15 15 18 15 13 14 8 12 7 11 13 12 11 8 10 9 9 7 10 12 12 7 6 4 7 1 
90 80 77 68 60 45 38 30 34 22 22 25 20 19 22 20 18 15 15 15 18 17 15 16 13 16 16 14 16 10 8 12 16 14 14 12 10 13 14 11 11 11 10 14 15 15 12 13 13 12 13 15 15 12 16 15 16 14 11 16 11 14 7 13 13 11 11 10 11 8 9 11 11 9 10 8 8 11 8 7 
88 82 81 79 72 66 61 54 41 27 24 22 20 21 18 16 14 9 15 14 17 16 15 13 10 14 13 12 6 10 12 11 15 13 19 15 6 10 10 13 8 13 13 12 14 11 13 11 14 14 14 11 12 13 16 16 16 15 13 15 12 12 8 16 9 11 11 10 10 10 7 11 14 10 8 9 9 5 7 7 
85 84 81 82 82 75 73 63 50 29 26 23 21 18 19 15 16 12 16 12 19 14 13 12 14 11 12 9 10 14 10 15 16 12 9 12 10 10 13 12 10 11 12 12 11 12 15 16 16 14 12 14 10 14 16 18 17 16 18 14 10 11 10 13 12 12 15 9 9 11 9 10 7 7 6 9 5 5 15 7 
90 80 83 86 85 81 75 70 55 29 24 21 21 22 21 17 14 14 13 14 16 15 15 12 14 12 14 14 12 9 10 14 13 12 11 10 9 8 10 12 8 9 9 12 11 11 13 16 13 13 15 12 12 13 12 13 19 17 17 15 14 16 11 12 13 11 14 8 10 12 14 12 9 13 9 10 6 7 9 1 
90 80 82 87 78 80 71 71 58 32 26 21 23 22 20 19 15 15 13 14 18 16 12 11 13 14 17 9 10 9 8 10 12 10 8 7 8 7 7 7 6 9 12 12 10 11 8 12 11 11 15 12 9 14 15 17 20 15 14 12 11 11 9 9 12 10 11 9 9 11 11 13 10 10 7 8 5 7 7 5 
88 85 92 84 83 76 77 76 62 34 25 25 28 22 21 18 16 16 15 18 18 17 14 14 14 12 10 14 13 11 5 10 11 9 9 9 9 7 5 9 4 10 6 11 9 13 9 10 12 11 13 13 13 11 12 14 20 16 8 16 10 14 8 11 11 9 12 7 7 14 13 8 10 10 12 10 9 1 11 9 
94 87 86 88 76 75 80 68 65 31 28 28 32 24 18 18 17 14 15 19 18 16 14 15 12 10 14 10 9 12 8 13 10 11 7 10 9 9 7 7 6 7 9 8 9 12 13 15 16 9 12 12 8 12 12 16 15 16 12 12 14 12 7 11 12 8 9 9 7 12 7 7 8 6 11 8 6 7 7 10 
93 92 87 87 81 79 80 69 64 40 32 24 28 22 18 19 15 13 17 15 19 14 20 16 14 13 12 10 13 12 11 14 10 9 10 9 11 8 6 7 5 11 12 13 9 13 15 22 14 10 11 15 11 13 9 12 16 11 12 11 13 12 12 11 11 12 11 7 7 9 3 12 7 7 12 8 8 6 5 4 
96 93 85 87 84 82 84 82 69 47 30 22 25 22 18 18 16 14 14 15 15 18 18 16 12 15 14 9 16 11 10 13 11 11 11 13 6 9 10 11 11 11 13 13 10 11 10 13 16 15 14 16 10 11 14 12 16 14 11 13 13 10 7 14 11 11 11 6 7 10 8 15 10 6 9 6 6 4 9 8 
103 91 92 90 89 80 81 78 72 47 28 26 23 24 20 12 14 13 14 12 16 17 16 17 13 17 15 15 15 14 14 12 11 12 13 13 16 11 13 12 7 9 12 13 12 15 15 13 18 16 12 16 15 13 14 15 14 14 12 12 14 9 8 13 8 12 10 8 6 6 6 9 6 7 9 7 9 6 3 7 


