P2
80 60
141
128 125 123 123 121 123 119 123 123 128 122 119 122 120 123 120 121 126 122 118 123 124 123 123 122 124 123 122 127 123 127 126 121 118 127 122 119 122 121 124 125 129 132 133 129 128 127 129 129 132 132 138 136 136 131 138 138 136 138 131 124 123 125 126 121 124 122 117 120 117 123 118 117 120 125 125 121 117 114 116 
125 124 125 120 123 121 119 121 125 124 121 120 123 118 123 121 125 121 123 121 126 123 120 121 121 122 124 123 125 123 121 127 119 116 121 119 119 120 122 124 130 124 128 131 128 128 126 133 133 130 134 136 132 134 137 137 134 134 135 127 120 121 121 122 120 120 119 122 121 123 123 116 120 123 125 126 126 117 111 116 
128 127 121 123 120 124 123 123 125 123 124 124 124 122 121 123 123 122 123 122 125 121 121 122 123 121 124 125 127 124 121 119 116 113 117 119 121 124 122 123 128 126 127 130 132 129 127 131 131 133 133 133 135 134 134 133 130 135 132 128 121 122 119 127 122 122 119 123 123 122 123 120 122 123 119 121 127 122 120 120 
126 126 125 125 122 125 128 124 125 127 126 122 124 120 125 124 124 121 121 121 124 119 121 126 123 122 125 123 126 126 118 117 116 117 113 121 122 127 125 126 129 127 127 131 128 127 128 131 138 133 133 135 136 133 132 134 132 132 131 128 125 123 122 126 122 119 120 120 123 123 120 124 123 122 123 117 123 121 125 117 
128 126 123 124 121 124 126 123 130 124 121 123 125 121 126 126 124 124 122 121 119 121 120 129 123 122 130 126 127 126 121 113 117 110 113 123 122 123 126 125 125 126 126 128 128 130 129 133 132 135 137 137 132 131 133 136 134 131 133 128 127 124 124 125 122 122 123 122 124 120 123 120 121 123 122 123 118 118 116 119 
126 127 124 126 123 124 123 121 132 125 124 124 124 124 124 127 122 123 121 123 123 124 121 125 122 123 126 127 125 125 122 116 114 114 117 122 122 122 125 126 127 126 126 126 127 127 132 131 134 133 139 140 135 132 133 133 133 133 135 129 125 130 125 125 123 119 121 124 128 121 120 120 122 123 125 123 121 121 114 122 
126 125 125 127 125 122 125 120 125 125 126 122 122 123 121 121 127 125 122 124 121 123 121 125 121 123 126 120 126 125 116 114 112 108 115 124 123 124 125 124 128 124 124 127 126 127 127 129 135 135 136 141 134 133 132 132 130 135 138 126 124 130 123 125 124 121 122 123 124 122 119 120 122 120 123 121 120 115 115 121 
127 125 128 128 124 128 124 124 128 124 124 122 122 123 124 124 125 123 121 122 125 122 119 126 125 122 126 124 124 121 115 114 112 111 115 124 124 125 126 124 126 125 124 125 127 124 127 128 131 136 135 135 137 133 133 132 131 130 128 124 123 127 122 126 125 122 120 123 128 121 122 121 119 121 122 120 117 114 114 118 
125 126 129 120 123 128 126 124 127 124 125 123 124 122 122 124 122 123 123 120 122 124 119 123 122 122 124 122 128 121 112 113 111 109 116 122 121 123 126 121 124 124 124 125 126 126 124 127 134 132 132 136 133 138 130 131 130 127 122 124 123 121 124 122 122 124 123 125 121 123 122 121 121 123 122 117 122 115 112 120 
125 131 125 124 122 124 123 123 130 124 124 124 123 124 122 122 128 122 122 121 121 123 118 125 121 123 125 123 128 118 110 109 109 111 117 120 119 121 122 122 124 122 123 124 121 122 124 127 132 134 135 134 132 134 130 133 129 117 124 124 127 125 124 123 122 123 123 125 126 121 121 126 117 120 117 124 119 115 116 117 
123 127 128 125 124 126 129 123 126 126 123 124 122 121 121 122 123 121 120 123 119 123 119 119 123 123 123 122 123 116 111 111 111 109 114 119 121 122 121 123 123 123 123 123 123 124 122 127 135 131 135 136 129 131 127 130 131 123 124 123 122 123 124 125 123 121 125 125 122 121 124 119 120 117 117 121 120 115 109 120 
130 128 128 127 126 125 126 125 125 128 123 120 121 119 118 118 122 117 118 121 123 121 117 121 118 119 122 119 123 111 111 109 108 115 115 120 118 125 121 124 125 122 120 124 126 119 125 129 133 133 131 135 128 126 127 130 123 124 122 122 122 123 123 122 122 120 119 124 121 118 118 116 118 120 119 120 124 116 116 114 
128 132 123 130 125 123 121 123 124 123 122 122 121 118 118 123 117 120 120 123 122 122 116 123 120 120 120 124 120 113 109 112 110 113 115 117 121 121 124 118 122 121 124 125 129 120 125 131 133 136 132 130 127 126 129 130 127 126 126 125 123 122 126 123 124 121 123 123 123 121 114 118 115 123 120 123 126 119 114 117 
129 132 130 126 125 123 120 121 123 121 118 121 121 117 118 124 122 120 119 121 124 123 118 123 119 121 122 119 119 110 109 108 109 115 117 119 120 125 119 117 123 123 123 124 120 126 126 127 135 139 134 132 128 129 127 131 127 129 126 124 126 124 125 123 122 120 123 126 122 122 120 117 120 120 129 122 122 116 116 118 
130 128 129 127 122 121 121 123 124 122 121 119 118 118 118 122 121 121 117 117 121 119 118 123 122 121 117 117 115 109 106 109 108 116 116 117 122 119 115 118 121 121 125 123 121 122 124 130 131 132 132 132 130 128 128 131 131 138 129 124 119 124 124 124 123 119 120 122 125 120 120 116 123 120 119 122 115 118 110 118 
131 130 126 126 123 122 122 124 127 119 119 118 119 116 118 122 120 117 115 117 120 120 117 120 122 118 120 117 111 111 106 103 108 114 115 117 118 116 120 117 123 125 124 125 121 123 125 133 132 134 131 130 127 130 127 130 123 128 132 125 121 124 124 125 121 121 120 126 124 119 118 119 118 122 116 121 119 121 115 117 
129 128 128 123 125 125 122 122 122 117 118 119 116 118 117 121 119 124 119 117 119 117 116 120 121 119 120 118 117 104 107 104 111 117 115 119 120 117 116 118 119 123 122 122 121 123 126 129 130 130 128 128 126 129 129 125 127 127 130 123 123 126 120 126 121 119 120 122 125 121 119 121 124 124 119 119 120 123 118 116 
127 129 126 126 121 126 122 121 126 119 118 120 118 118 118 121 120 123 119 121 121 115 117 120 119 118 119 119 112 105 104 105 115 116 117 117 119 115 119 120 124 125 122 121 118 121 123 128 132 131 130 127 126 133 134 127 123 133 126 123 123 124 125 127 124 122 119 123 123 118 118 120 122 119 119 117 116 119 116 117 
127 129 122 127 125 125 127 121 119 119 118 119 118 117 117 121 121 120 120 118 118 119 117 121 120 121 121 116 111 106 102 109 116 118 119 119 118 117 122 121 125 125 120 119 117 118 123 128 131 126 129 131 129 130 128 129 125 126 124 123 124 126 125 125 121 118 122 123 123 120 118 117 121 125 122 117 116 117 111 119 
129 126 125 127 122 125 122 120 120 118 119 116 118 114 116 118 118 117 118 117 118 121 122 124 121 119 119 113 105 105 105 109 117 115 118 116 115 116 118 125 123 123 117 118 119 119 122 126 126 126 128 133 127 126 122 126 120 124 126 124 123 130 120 125 122 118 122 124 121 121 119 118 116 121 120 117 119 119 112 118 
127 126 122 121 122 124 121 121 121 117 118 118 118 117 118 117 114 118 116 116 116 115 116 123 119 113 115 109 107 107 108 108 113 117 116 118 114 114 116 120 123 119 115 113 119 119 120 123 128 126 126 124 128 125 124 122 125 124 126 124 126 125 123 125 124 118 119 119 121 118 121 115 114 114 120 118 123 119 115 117 
124 124 123 123 122 119 124 117 117 116 119 116 123 118 117 115 116 117 114 113 115 117 115 120 114 114 113 105 104 101 103 108 113 113 114 112 112 113 111 116 119 115 113 111 116 117 119 123 125 123 123 123 125 127 122 121 121 122 124 123 124 122 123 121 125 119 119 121 126 121 117 116 117 116 114 115 117 114 114 120 
124 125 121 124 120 119 119 118 119 114 115 115 114 114 115 118 117 117 114 114 114 116 114 115 112 114 112 104 101 97 100 106 111 109 111 113 108 110 113 114 115 110 111 112 116 116 118 122 124 122 122 123 126 121 121 121 118 121 120 118 120 122 122 123 120 122 118 120 120 119 121 117 119 119 117 113 118 116 114 120 
124 122 121 122 118 119 118 120 118 116 115 117 117 115 116 123 118 119 114 116 115 114 111 117 115 113 112 101 98 101 98 105 107 111 111 109 108 109 109 114 114 110 110 114 116 115 118 122 119 125 121 127 120 123 117 118 120 123 123 122 115 121 122 120 119 117 119 117 122 119 121 119 120 120 112 112 115 115 111 117 
122 123 121 117 121 119 120 115 122 115 116 114 116 115 112 117 113 115 116 113 113 116 111 120 113 110 110 102 104 96 96 103 108 106 108 107 108 109 109 109 116 108 107 112 116 115 120 121 121 122 125 123 124 124 118 119 120 120 120 118 120 120 118 118 120 118 119 119 122 118 119 119 120 122 119 118 116 117 115 119 
119 120 124 123 119 119 119 114 116 118 116 118 117 122 121 118 117 115 115 115 114 115 113 117 114 108 96 85 94 96 102 105 108 105 109 105 109 107 109 115 113 112 106 111 115 120 117 122 121 120 122 123 121 123 119 117 120 120 122 121 121 127 124 118 119 120 117 116 119 115 119 117 118 117 121 118 119 117 115 118 
122 120 119 121 116 119 120 114 117 116 115 117 118 113 118 118 117 115 111 114 114 116 117 117 114 104 45 23 77 94 101 104 108 104 107 106 107 102 106 110 112 106 109 110 115 115 118 123 121 123 122 119 120 119 113 119 119 120 121 119 121 123 118 120 116 119 117 118 121 120 118 112 113 119 120 115 119 118 115 116 
121 121 119 119 119 120 117 117 117 116 113 114 112 110 113 114 117 117 113 113 115 115 113 115 110 95 18 23 85 91 97 101 105 104 105 104 105 104 109 110 109 107 107 113 111 117 116 118 123 119 118 121 119 117 113 123 122 120 121 119 122 123 120 118 116 121 115 119 123 119 116 114 115 119 115 117 118 117 118 116 
123 121 118 115 117 118 117 115 117 114 113 115 111 111 111 113 114 113 110 111 111 112 112 115 111 76 2 18 87 91 98 101 102 102 102 106 105 103 107 114 110 106 112 111 113 115 119 117 120 119 119 121 117 116 110 119 122 118 116 118 117 119 117 117 118 117 118 119 116 121 117 113 116 116 116 111 116 116 113 113 
122 118 121 116 114 118 116 116 122 115 111 109 117 111 108 114 112 112 111 112 111 110 109 110 106 59 5 31 87 91 98 103 102 101 102 103 102 105 109 111 110 105 108 113 114 113 116 116 118 119 120 118 117 112 114 116 122 117 117 118 118 118 117 117 116 119 119 119 121 114 114 112 114 115 113 110 113 117 110 110 
119 120 117 116 114 118 113 112 115 111 113 109 110 108 108 112 115 109 107 109 108 108 106 112 104 40 4 40 85 94 96 99 100 98 103 100 102 103 109 109 108 108 113 111 115 114 115 121 119 116 118 117 117 111 114 118 122 115 115 118 118 116 116 119 114 117 115 118 119 116 113 116 115 116 113 112 112 116 109 112 
120 121 117 114 114 116 113 111 116 110 109 107 109 108 111 113 113 111 111 106 108 107 110 110 101 22 10 59 88 92 99 101 102 100 100 101 103 104 108 105 109 107 109 112 114 116 115 115 119 119 112 117 116 110 116 122 120 115 114 116 115 120 114 115 116 114 115 115 120 118 113 114 113 116 115 114 114 113 113 113 
115 116 115 117 115 114 112 111 110 109 110 107 108 106 107 108 112 108 104 109 107 105 105 111 94 12 11 63 90 95 96 101 100 98 99 98 98 104 104 105 102 104 108 111 112 116 112 115 118 112 113 114 112 107 117 123 117 115 114 112 115 120 115 114 112 116 115 115 121 115 114 113 112 112 111 111 112 114 112 114 
115 112 114 115 114 109 109 108 112 109 108 107 105 105 107 110 109 111 106 110 105 107 102 109 80 5 9 61 92 95 101 100 99 95 96 99 99 101 106 103 103 103 108 109 115 115 112 115 115 117 112 115 107 111 118 122 116 116 113 111 114 115 115 114 116 112 117 116 122 114 114 115 110 114 111 111 115 113 110 113 
115 115 112 111 113 111 111 108 111 110 107 109 105 106 110 104 111 110 104 105 104 102 101 105 63 2 9 63 91 98 100 99 97 96 101 99 96 101 98 103 105 104 109 110 112 113 111 112 115 115 113 114 107 112 119 122 117 118 114 116 114 117 118 115 114 112 111 117 118 112 115 112 113 112 112 109 112 110 109 112 
115 116 112 111 112 112 110 107 112 110 109 107 107 105 106 108 107 109 105 106 106 105 103 101 40 0 13 61 95 95 99 99 98 97 96 96 97 97 101 99 101 107 109 110 111 108 111 114 115 114 114 112 110 112 118 121 114 115 112 115 111 112 112 114 116 112 115 113 117 111 111 109 108 116 114 109 116 117 111 113 
114 111 111 107 110 116 111 109 108 109 112 105 106 105 109 107 108 108 103 106 104 102 104 98 40 2 16 75 96 97 100 98 99 97 97 95 93 97 100 97 102 103 108 109 110 110 110 113 113 113 112 114 108 113 120 119 118 113 114 112 112 110 107 113 111 112 115 115 114 112 113 111 110 115 113 110 117 121 115 115 
113 113 110 109 112 113 111 108 107 108 110 108 110 102 109 111 110 110 109 103 103 103 104 99 76 21 52 87 95 97 99 98 95 98 95 92 88 96 95 97 102 103 109 108 111 109 110 113 114 113 113 110 111 118 118 124 119 113 113 112 111 109 110 109 113 116 114 114 113 112 110 109 114 109 112 115 113 119 113 110 
114 116 117 112 110 110 105 107 111 109 109 109 106 104 108 109 109 111 103 104 103 104 100 100 85 74 87 94 102 102 102 95 89 96 95 85 88 94 99 96 100 102 106 107 109 110 109 111 113 114 115 109 114 120 117 118 119 111 112 112 108 109 110 112 112 114 114 115 115 110 110 111 109 111 111 110 114 116 112 113 
111 113 112 110 108 107 107 106 109 111 117 108 107 107 106 107 107 106 107 106 106 105 101 106 90 95 99 98 101 108 101 95 84 85 87 87 91 93 91 93 97 100 105 106 105 108 111 110 111 116 111 113 117 121 117 113 112 111 111 109 107 106 110 113 109 110 110 113 114 109 110 107 110 112 111 107 114 116 116 117 
112 114 109 110 107 109 106 105 107 106 106 106 107 107 104 107 105 107 102 105 105 103 99 98 91 101 103 102 103 103 101 101 92 88 87 84 92 89 90 92 99 103 103 106 107 109 108 109 115 112 113 116 114 123 115 114 111 111 106 105 105 109 111 107 108 108 108 108 110 113 108 111 107 111 112 114 112 112 121 116 
107 114 113 115 111 107 105 104 109 107 104 104 108 107 103 111 108 105 111 103 100 103 101 96 93 102 104 103 103 101 103 100 98 95 90 93 94 93 91 94 100 106 106 109 106 111 109 110 114 107 107 104 116 118 114 114 116 108 107 108 106 112 108 109 109 104 109 109 114 111 113 107 109 110 113 113 114 113 111 121 
108 110 113 107 106 107 100 102 108 106 105 104 105 104 106 108 105 101 103 101 100 102 101 99 93 98 101 104 104 102 99 100 98 97 90 94 91 92 90 93 99 103 103 109 108 107 111 111 110 107 108 110 113 113 112 114 110 104 106 107 106 112 110 109 107 107 108 110 109 111 105 106 107 110 111 111 111 114 109 114 
108 110 112 108 107 105 101 100 107 103 103 105 106 104 106 102 103 104 104 104 101 101 98 101 89 98 104 99 106 101 105 101 98 98 89 95 90 90 89 95 100 102 103 104 106 105 108 115 109 104 103 106 115 113 110 111 107 105 104 106 110 109 110 109 110 106 107 111 111 108 106 109 104 107 109 110 114 109 107 112 
109 109 106 104 108 104 101 99 104 102 102 100 104 105 104 102 103 102 102 102 104 97 100 98 88 102 101 102 103 103 101 101 99 98 95 99 95 92 90 95 97 100 102 101 101 105 105 111 111 106 105 111 113 111 110 107 103 109 104 106 106 107 109 108 107 107 106 112 112 101 108 104 103 107 108 107 109 110 110 113 
110 109 106 107 108 103 102 101 103 105 104 102 104 105 106 101 105 103 102 101 98 98 96 99 91 98 104 101 105 101 103 98 100 95 96 100 94 90 91 93 95 96 100 99 103 106 100 102 105 104 104 113 114 112 107 107 105 103 104 105 105 111 110 109 110 108 107 111 110 106 106 105 105 110 112 110 108 110 105 112 
103 108 104 103 104 105 102 98 103 100 101 101 104 105 103 104 102 101 101 99 102 97 94 97 92 96 99 100 103 100 99 101 100 99 97 98 99 93 89 95 96 97 100 98 100 104 102 103 101 100 103 114 111 109 104 104 102 101 102 104 101 102 106 106 106 105 105 107 103 106 106 105 110 113 107 106 108 109 102 107 
105 111 105 102 102 108 102 103 102 102 101 103 104 101 101 105 100 102 101 99 98 98 95 94 86 99 101 101 103 101 99 101 102 100 97 100 100 98 91 98 98 102 97 101 102 102 103 108 101 101 106 112 109 106 106 103 101 105 103 103 102 104 100 105 104 103 107 107 107 106 108 104 109 109 109 103 104 106 102 103 
105 105 104 105 108 110 106 100 104 102 101 100 102 105 101 101 101 105 100 97 100 99 98 94 88 98 101 101 104 100 100 99 99 98 98 100 100 100 99 104 104 103 103 106 107 105 105 105 98 102 106 111 106 104 105 104 104 103 102 100 102 101 106 107 105 104 102 104 107 106 108 104 104 108 105 105 104 103 100 106 
101 109 107 106 106 101 101 104 99 99 100 100 104 100 104 105 103 102 101 98 99 99 91 95 88 95 97 100 106 99 98 101 102 101 102 99 99 100 100 102 103 103 102 103 107 105 105 105 99 97 101 109 104 107 104 104 101 102 103 103 104 105 103 105 103 100 103 104 105 104 109 106 105 107 101 106 106 103 99 105 
102 110 107 106 106 104 106 102 102 101 98 100 102 103 102 101 100 104 102 99 97 98 93 90 87 95 100 98 101 101 99 104 102 102 102 103 96 101 101 102 103 105 103 104 105 106 104 106 97 101 108 109 105 102 102 105 104 104 105 104 110 106 100 103 102 100 107 104 105 107 104 99 105 106 104 103 106 107 103 106 
103 104 106 106 108 104 104 102 102 100 97 99 100 101 101 102 98 100 102 97 101 93 89 94 89 99 98 98 100 98 99 98 104 101 104 101 102 98 100 102 103 105 104 105 106 103 109 105 96 103 110 111 104 101 101 108 113 103 106 105 101 102 105 101 101 99 103 102 106 107 107 102 103 106 105 105 105 101 102 107 
108 103 100 102 106 106 105 101 103 102 102 100 99 101 101 99 103 104 102 98 95 93 89 94 94 99 98 96 98 99 101 99 98 100 102 101 101 98 98 101 102 103 102 104 105 105 104 101 96 104 107 107 102 100 103 110 108 103 104 103 102 104 106 102 102 101 100 103 108 104 105 101 102 103 106 104 102 102 99 110 
105 104 103 107 110 104 103 102 107 102 101 102 103 100 102 100 102 101 104 100 97 93 89 96 100 99 103 102 103 102 101 101 102 102 101 99 102 101 100 102 102 101 102 106 104 106 105 99 98 102 107 104 102 100 102 108 108 103 103 102 100 104 106 106 100 101 105 102 109 106 106 103 102 103 105 103 102 104 104 104 
102 106 104 106 103 106 107 103 106 104 105 102 105 102 103 102 103 100 102 99 97 94 94 96 100 104 108 102 104 104 98 101 102 101 103 101 102 101 99 99 104 106 102 105 104 104 104 95 98 107 107 99 100 102 101 107 106 103 103 100 101 102 102 106 99 102 102 103 105 102 110 99 99 104 101 102 101 107 103 108 
104 101 103 105 104 105 102 101 105 108 106 103 109 106 106 100 102 103 104 96 96 93 92 95 97 96 101 98 102 99 99 99 99 99 103 103 98 99 99 98 102 102 105 106 104 102 98 90 96 107 105 98 96 98 100 100 103 104 100 98 99 102 102 101 100 100 102 104 106 103 106 100 100 104 97 99 102 102 105 104 
97 106 107 107 97 100 103 105 107 104 107 107 114 107 105 102 102 104 101 101 96 95 94 95 97 99 97 99 102 99 97 99 99 101 100 102 97 98 96 101 106 106 105 106 105 102 98 93 104 106 101 98 95 98 99 103 99 102 102 100 100 103 101 102 102 102 100 102 109 100 101 101 99 102 98 99 105 104 96 104 
104 105 105 104 101 101 99 103 107 105 110 107 108 104 104 107 103 103 101 98 97 96 94 98 96 95 97 98 99 99 101 98 104 101 100 98 101 103 98 97 100 106 104 106 103 100 93 102 104 108 100 96 98 101 98 98 99 101 101 99 100 100 100 102 101 103 100 100 110 102 104 100 98 103 99 99 106 107 101 105 
104 103 103 103 101 104 104 104 107 106 105 105 107 107 106 109 108 103 103 99 94 97 90 99 99 99 102 103 106 99 96 101 103 102 100 99 105 101 98 102 101 108 101 106 104 96 95 100 103 108 100 101 97 99 99 99 99 99 99 105 99 101 99 99 102 102 104 101 107 102 101 101 102 103 98 102 106 104 101 106 
103 102 104 102 101 103 103 103 106 103 104 103 106 108 104 102 100 103 99 96 96 96 95 91 94 92 96 94 99 97 94 98 97 97 98 96 104 98 101 100 102 103 106 107 100 99 98 103 104 103 99 97 96 97 97 99 96 101 101 105 100 101 102 104 99 102 99 100 106 100 99 100 101 101 98 103 104 105 105 103 


