P2
80 60
119
106 104 104 104 102 104 106 104 106 103 104 104 103 103 102 103 101 102 103 99 102 102 102 99 103 103 100 101 103 101 101 104 104 106 105 102 101 104 104 103 103 99 104 103 103 102 105 99 106 104 105 105 106 108 105 104 111 107 106 103 101 102 105 104 98 100 93 100 97 96 100 97 94 96 97 96 93 97 92 96 
105 102 105 104 102 105 103 103 101 105 106 104 102 104 106 102 104 101 102 104 105 102 102 97 101 99 102 102 101 99 101 104 104 104 106 101 101 102 103 104 104 105 102 104 101 104 105 106 106 101 103 105 105 105 105 108 109 107 107 103 101 100 99 102 98 100 92 97 94 96 96 94 95 97 97 97 90 95 96 94 
107 104 101 102 101 100 104 102 104 104 106 103 103 102 104 102 102 101 103 104 107 106 100 102 102 103 102 104 99 101 103 104 103 106 106 106 101 106 104 102 106 103 102 106 101 105 104 107 106 104 104 104 103 104 105 103 104 104 108 103 101 103 98 102 102 98 93 98 99 95 99 94 94 94 96 99 92 95 92 91 
107 104 100 101 103 105 106 100 103 105 106 104 103 106 101 100 100 102 100 102 102 102 106 102 103 102 104 106 102 102 102 101 102 105 108 106 101 104 107 102 105 101 102 103 106 103 107 104 108 105 103 106 103 105 105 105 101 102 104 105 104 101 98 99 98 99 94 94 95 94 94 100 95 93 98 96 94 94 92 93 
112 101 101 105 108 109 102 98 105 103 104 103 103 105 104 106 101 104 105 102 100 103 105 106 101 102 106 104 104 100 98 102 103 101 104 105 100 106 108 103 103 103 105 105 102 106 110 106 105 103 104 107 104 104 104 102 103 101 105 102 105 99 100 103 98 97 96 96 96 97 97 94 92 91 96 94 91 92 92 93 
112 103 103 102 102 106 102 105 109 104 107 105 103 105 108 106 103 103 102 106 102 108 106 104 105 103 103 103 101 102 99 100 102 101 105 103 104 104 105 106 101 103 107 103 103 105 109 108 106 106 106 107 105 106 105 105 104 104 109 104 103 100 96 98 100 98 95 100 103 97 100 97 94 93 99 96 90 92 89 86 
113 104 110 107 104 108 107 100 107 104 107 107 107 108 106 104 108 106 105 105 102 107 104 104 104 103 103 103 103 102 102 100 101 103 106 106 106 106 107 105 104 103 105 105 105 108 108 106 110 103 106 109 108 106 105 107 107 111 111 107 101 98 99 99 98 102 97 103 98 98 96 95 95 94 98 97 87 94 91 89 
110 109 107 110 107 111 107 105 107 105 109 107 106 105 104 106 104 107 105 104 107 103 102 105 105 104 103 104 104 104 102 102 101 102 106 106 104 106 103 105 107 103 104 104 104 105 107 107 103 106 108 108 108 106 109 109 107 107 107 104 104 104 104 100 101 102 98 99 103 97 98 96 94 97 94 94 90 93 93 96 
112 107 107 106 104 107 110 104 108 107 108 106 107 106 107 109 106 106 108 106 103 105 102 103 106 103 104 101 103 104 102 100 100 103 105 103 103 104 106 104 103 102 104 105 103 106 105 105 105 106 105 108 104 109 107 107 105 105 105 103 103 103 104 101 102 101 102 102 99 98 97 98 95 93 96 97 89 90 97 97 
115 112 111 108 105 109 106 105 110 105 106 108 105 106 105 107 111 104 105 103 105 106 99 104 101 102 104 104 104 105 99 101 99 102 105 104 100 100 106 106 103 102 101 105 101 103 104 103 103 106 105 104 105 106 104 103 103 101 103 104 101 103 103 102 99 100 99 98 101 97 101 97 94 98 98 99 94 101 96 99 
112 111 106 111 108 112 112 106 109 112 108 109 105 107 108 104 107 104 104 100 104 103 99 103 102 106 103 102 109 106 105 105 103 105 106 105 104 107 108 107 107 105 103 99 102 106 104 105 102 106 107 106 102 104 103 108 104 105 108 104 104 101 100 103 98 101 105 104 97 98 99 100 98 102 98 105 99 101 100 100 
117 112 111 112 109 111 112 107 111 109 111 108 107 106 107 109 107 102 100 104 105 104 102 105 100 102 99 105 106 104 104 106 101 106 105 103 101 109 109 101 107 103 101 104 102 102 103 105 108 110 107 105 102 102 107 104 107 107 101 106 104 105 103 100 101 99 97 101 100 95 98 97 96 101 105 107 100 98 99 103 
111 118 113 115 109 110 107 103 108 108 105 106 106 102 100 108 105 101 103 100 99 104 101 102 100 100 101 103 101 102 101 103 105 104 103 101 103 107 104 100 104 105 104 105 102 107 105 104 109 105 106 104 102 104 108 106 105 107 104 103 100 103 106 98 100 96 96 98 98 100 87 91 105 106 107 105 100 105 98 100 
115 117 115 110 104 113 104 103 105 103 100 103 103 101 102 106 105 100 101 101 101 103 103 100 101 97 101 102 101 98 100 104 101 105 104 102 101 105 103 105 107 104 105 105 104 108 107 107 107 108 107 103 102 100 107 107 104 107 107 101 102 102 100 98 96 97 94 95 96 99 99 95 99 100 102 100 100 100 99 99 
119 116 112 110 109 110 105 104 107 102 103 104 103 103 98 105 104 104 103 101 99 100 102 104 100 99 100 101 101 102 101 102 101 105 105 101 104 104 104 103 107 102 104 105 102 105 106 106 108 106 103 105 104 106 107 107 110 116 109 102 102 100 99 102 94 96 93 98 96 99 98 97 101 100 99 99 93 103 98 101 
117 116 110 110 108 107 107 105 108 104 104 106 105 106 102 107 105 100 102 99 98 102 100 101 100 102 102 101 105 102 102 105 102 101 106 102 103 102 100 103 108 104 103 103 101 106 104 101 106 108 105 105 104 106 107 106 105 112 109 104 104 100 100 97 99 101 95 101 100 97 99 96 95 103 102 100 100 109 103 103 
114 118 115 113 114 111 107 104 105 106 105 107 102 107 102 109 101 101 99 98 101 100 101 104 101 100 102 100 104 107 102 101 101 103 107 103 101 103 105 105 109 105 105 100 102 107 103 105 106 105 108 103 103 105 107 106 111 112 107 104 105 103 99 100 99 96 98 97 100 103 103 102 108 106 100 102 105 106 104 98 
116 118 114 116 109 114 110 107 109 102 104 108 106 103 103 106 100 100 102 101 99 102 102 101 104 104 101 107 104 99 104 101 104 104 105 103 102 104 103 109 109 105 103 100 101 103 105 102 106 103 102 103 103 106 107 107 106 116 107 106 104 100 100 99 99 99 96 98 99 101 101 101 99 107 103 104 99 105 103 98 
112 113 109 115 108 109 108 102 112 104 103 108 103 105 99 102 101 101 105 103 101 104 104 103 102 105 102 103 104 100 102 105 106 105 108 103 104 103 104 107 107 104 101 104 101 103 103 101 102 102 102 102 106 104 107 107 105 109 106 104 104 101 99 102 97 97 97 98 100 100 102 102 97 101 99 102 97 100 96 101 
111 111 111 111 111 113 107 105 107 109 106 105 107 106 109 104 106 104 106 104 105 109 110 108 103 105 107 105 104 105 105 105 101 104 106 106 103 105 105 107 107 105 102 101 100 102 105 105 102 106 104 104 106 104 104 108 104 104 106 106 103 104 101 100 95 98 102 100 100 102 103 99 99 101 98 100 95 101 95 101 
112 109 111 107 110 113 108 106 106 105 107 109 106 110 107 109 105 105 104 107 105 110 115 112 108 105 103 104 106 103 108 106 103 104 108 102 101 102 108 104 106 105 102 103 100 101 103 102 105 110 103 105 105 105 106 101 99 104 102 103 106 100 102 99 99 98 103 105 104 100 108 101 99 105 103 100 99 104 100 105 
115 115 110 111 112 108 105 106 109 107 104 109 116 113 104 110 107 106 105 102 107 112 111 108 106 106 105 103 105 102 102 107 100 103 106 100 103 102 104 102 102 104 104 102 100 103 102 104 103 107 106 103 105 105 107 105 102 104 103 101 104 99 100 103 98 99 98 104 102 109 105 103 97 104 101 97 95 101 102 108 
114 110 108 119 111 113 108 108 110 107 103 109 106 108 106 111 108 106 104 107 107 112 109 109 106 106 105 105 104 103 102 104 102 103 105 103 101 105 102 105 100 101 102 101 103 100 102 101 106 106 109 105 106 104 107 105 101 105 106 104 106 105 95 96 98 101 102 104 103 105 103 101 101 105 102 99 99 106 101 106 
111 115 111 108 109 109 105 109 105 106 107 104 105 108 107 106 104 104 103 102 105 106 104 105 107 106 105 104 104 104 103 104 102 104 107 103 102 103 100 103 105 102 101 101 100 102 102 102 103 106 102 103 107 106 103 102 103 102 104 102 102 101 97 97 95 95 102 99 100 103 100 99 96 105 102 102 97 100 101 103 
112 113 107 109 103 103 107 106 108 105 102 103 106 105 101 106 105 103 102 102 107 106 106 108 110 108 111 106 107 104 104 102 102 103 104 100 102 101 102 101 103 100 101 103 102 103 102 101 104 104 103 106 108 104 104 102 104 101 103 102 103 101 97 95 93 95 99 102 103 103 101 97 94 102 97 100 100 102 100 104 
116 111 107 104 105 107 105 102 105 105 103 103 105 106 106 104 101 103 107 103 105 105 108 106 109 104 106 105 102 105 102 103 101 102 101 100 103 99 102 105 103 101 101 101 99 101 103 103 99 98 105 102 104 106 102 101 101 103 105 104 101 101 97 92 92 95 100 100 100 99 100 97 96 96 100 96 96 100 99 104 
113 114 112 108 108 106 109 102 106 102 103 105 103 107 103 105 103 104 101 105 105 110 112 110 104 105 108 101 101 104 102 101 100 102 105 99 97 99 102 102 101 104 100 100 100 100 100 105 103 102 102 105 104 103 101 103 100 102 102 102 101 100 98 93 89 95 96 102 94 100 99 98 100 99 99 97 96 101 101 101 
110 111 115 109 108 105 108 104 102 102 102 104 103 105 103 104 102 102 102 103 106 109 111 107 106 111 106 109 101 98 102 100 102 101 102 103 99 101 101 101 99 99 101 101 98 104 100 100 103 99 101 106 104 101 102 104 103 101 102 101 105 96 94 91 90 93 97 101 101 102 97 95 92 101 101 97 99 97 97 101 
110 112 109 108 107 107 106 107 105 104 103 104 103 106 105 103 101 104 105 106 104 109 108 110 104 105 108 109 103 101 97 101 102 99 102 98 98 100 100 104 102 96 98 99 96 102 101 99 99 100 100 102 101 102 102 99 101 98 100 97 99 98 98 93 91 92 99 104 98 101 100 98 94 99 101 96 97 97 97 100 
112 112 116 109 103 112 107 106 115 110 104 101 105 101 103 102 104 101 101 104 104 110 113 106 102 106 104 103 101 99 100 101 99 99 105 99 97 103 102 104 104 99 100 99 98 103 100 101 101 100 102 101 99 100 101 99 98 101 101 100 103 101 93 91 89 90 105 100 102 102 97 96 95 100 102 101 92 99 99 97 
115 116 110 109 111 111 110 109 111 107 105 106 103 103 102 105 103 102 102 103 105 108 115 110 105 107 104 104 104 100 99 100 101 103 102 99 100 103 104 102 105 104 102 103 100 106 101 103 103 103 105 102 102 101 101 103 100 102 103 100 101 96 96 90 92 95 99 101 98 103 100 99 97 102 100 98 95 101 101 95 
111 115 111 109 114 109 108 108 107 104 106 105 103 105 100 108 104 102 99 104 110 108 110 109 105 106 106 104 104 100 102 103 100 101 103 99 101 99 103 103 105 101 101 103 99 105 100 104 102 106 103 102 102 102 105 100 104 105 101 97 98 93 89 89 90 87 99 99 99 104 98 95 94 97 96 100 88 100 92 98 
111 110 110 109 106 113 104 105 102 100 103 102 101 102 101 103 102 101 101 102 103 113 107 108 108 107 104 104 100 100 102 100 101 101 103 99 99 98 99 102 105 103 100 101 101 102 101 99 98 103 99 102 99 101 101 99 99 101 99 100 101 95 90 88 87 88 97 103 97 103 97 93 91 94 97 96 88 91 91 95 
106 108 107 112 104 104 108 107 102 103 102 105 102 103 101 104 104 105 101 105 106 103 106 109 107 105 106 101 102 104 103 99 99 98 99 99 98 99 101 102 103 100 103 101 100 102 101 102 101 103 102 101 98 101 103 100 100 100 102 100 99 92 90 87 89 92 93 98 94 96 99 92 91 94 101 92 89 92 93 97 
112 111 110 107 107 106 107 103 105 104 103 107 104 104 102 103 103 102 103 104 105 107 104 105 105 104 104 100 103 102 98 102 99 100 102 98 101 100 104 101 102 103 99 99 98 104 102 99 100 101 102 101 102 102 104 101 99 101 100 100 98 98 91 88 88 90 98 99 97 101 98 94 95 102 97 93 88 95 94 97 
112 110 105 104 108 106 104 106 103 102 104 108 103 101 104 105 102 103 102 104 106 107 101 102 105 104 101 98 101 99 100 104 99 98 102 100 98 99 101 100 102 96 99 100 99 99 103 102 99 99 101 101 101 99 102 102 101 101 100 100 98 90 89 86 88 88 96 97 96 99 95 95 89 95 94 90 90 98 93 90 
110 109 109 109 104 107 107 105 103 103 106 104 100 102 104 101 102 102 102 105 106 107 106 101 102 102 101 101 102 101 99 103 101 97 100 98 103 100 102 99 101 97 96 100 100 99 102 101 104 100 98 101 103 101 105 103 101 101 99 96 101 87 86 85 86 89 93 96 94 94 95 94 94 96 98 92 89 94 91 92 
115 113 109 111 108 111 109 102 104 103 107 105 107 104 107 102 102 107 102 106 109 110 106 105 103 99 102 97 98 97 100 104 98 99 101 99 98 99 100 106 103 99 97 102 100 102 100 102 100 102 103 103 101 105 103 103 103 97 98 98 98 89 91 89 86 95 95 97 97 95 93 94 89 98 94 91 88 92 92 96 
111 114 119 108 112 109 108 104 106 106 105 107 105 103 101 101 102 103 102 102 104 110 108 106 103 102 99 98 101 98 100 102 99 100 101 100 97 99 102 102 102 96 100 101 98 101 100 104 100 105 106 101 106 107 106 99 98 99 100 101 98 89 86 87 86 88 91 95 88 92 91 87 86 93 92 91 92 93 96 95 
107 111 113 109 105 105 104 104 108 104 112 108 104 104 100 101 100 101 103 98 106 107 106 107 105 103 104 105 98 101 99 99 97 100 100 96 97 98 99 105 98 98 99 100 94 101 102 99 100 104 104 106 108 104 104 102 97 98 98 100 97 91 85 86 87 87 91 92 88 93 92 89 89 94 93 93 88 94 95 93 
110 109 108 108 105 106 103 103 107 101 104 106 104 106 101 102 100 102 103 103 107 105 106 105 102 104 108 99 101 97 96 101 100 100 99 99 96 98 97 101 103 101 99 100 96 101 101 101 99 104 103 107 104 111 108 102 102 102 101 96 94 89 86 86 86 88 94 91 94 91 91 87 91 95 89 93 87 93 97 96 
111 112 106 108 106 103 106 103 104 105 103 103 104 107 103 105 100 100 104 101 103 108 105 106 102 106 105 102 97 97 96 101 99 101 97 98 100 99 97 98 97 99 99 101 98 101 101 106 103 104 102 102 104 103 101 102 104 100 98 99 98 86 90 87 88 90 94 89 88 91 85 85 89 92 94 90 87 86 90 93 
110 108 116 105 104 103 104 102 104 106 103 105 102 104 102 99 101 102 102 100 106 104 106 104 102 101 100 99 98 100 96 99 99 96 100 101 98 98 97 100 98 97 98 95 99 101 106 102 103 102 103 103 102 100 101 101 102 97 98 97 97 91 89 87 87 85 96 92 91 92 88 84 84 91 93 87 87 89 91 92 
111 111 111 109 103 106 100 100 104 106 102 106 95 104 103 100 100 100 99 100 101 106 106 104 100 99 102 98 99 97 97 97 95 97 98 96 97 95 99 98 104 97 96 96 96 100 102 107 102 101 102 103 100 98 100 101 98 97 96 97 97 89 83 79 81 87 87 90 90 92 86 84 81 90 90 89 80 90 93 88 
108 108 111 107 106 102 102 102 103 103 102 105 103 103 101 103 99 99 100 100 102 103 105 101 100 102 96 99 99 97 98 97 96 97 98 98 97 98 98 100 107 98 96 95 98 98 103 101 101 102 101 102 98 99 105 100 97 96 97 96 98 86 83 78 78 91 87 86 88 87 84 85 85 91 90 90 81 87 88 95 
107 110 108 103 108 102 99 101 103 101 99 104 104 106 106 103 101 100 101 102 100 103 102 103 100 98 99 99 97 100 101 101 96 95 99 99 96 96 99 98 101 96 95 96 96 99 100 98 99 101 105 99 99 102 99 99 96 95 96 94 97 90 83 83 85 87 89 87 88 82 87 82 84 87 92 85 81 89 89 88 
106 106 104 104 101 104 101 102 101 100 100 106 100 104 101 105 100 100 102 104 107 105 103 102 99 100 101 95 96 94 96 95 97 93 94 94 97 96 95 99 101 96 96 95 94 98 98 100 103 100 97 98 100 99 99 98 95 95 95 92 93 84 84 77 77 83 88 86 81 85 82 81 80 83 85 86 82 90 87 85 
109 109 103 103 99 107 98 101 104 99 103 102 108 101 103 106 102 100 105 106 104 104 104 104 100 98 97 95 96 97 97 97 94 96 94 98 97 95 98 97 100 97 94 94 96 98 101 102 100 97 98 97 98 101 100 100 95 97 95 91 94 82 82 79 77 79 85 88 80 85 85 83 83 90 86 80 81 86 88 87 
111 105 102 102 101 104 105 99 101 98 101 103 104 102 104 104 102 107 102 101 100 103 104 103 100 99 101 98 98 99 96 96 92 96 98 97 93 97 94 100 99 94 93 97 95 98 100 98 97 98 95 97 95 96 99 98 98 98 93 95 92 84 80 80 75 79 79 83 79 79 79 82 83 87 87 83 76 85 81 86 
105 106 101 101 103 103 105 99 102 100 101 103 100 102 102 106 100 97 101 102 101 103 104 102 99 102 99 96 95 96 95 97 93 94 98 97 96 97 95 97 99 92 91 96 95 96 96 95 97 98 96 96 95 97 95 97 94 94 94 92 93 77 79 72 75 76 78 81 79 79 79 78 80 83 92 83 75 77 78 84 
106 103 102 97 101 104 102 98 101 98 99 99 101 101 103 100 99 99 100 101 97 99 101 101 98 96 98 94 95 94 93 93 90 94 98 96 96 94 96 98 94 93 93 94 93 92 95 98 97 97 95 93 94 97 99 95 94 93 93 98 84 64 66 71 76 75 81 85 82 77 77 78 77 83 84 80 75 80 77 83 
106 104 102 95 101 105 98 99 100 99 100 99 99 101 100 100 97 98 98 96 102 103 104 103 100 96 98 94 94 90 91 95 91 95 100 94 87 93 94 95 95 93 93 92 91 93 97 97 95 96 96 93 94 96 99 97 96 94 96 93 66 35 41 55 70 73 79 81 80 79 76 73 80 82 81 81 74 82 78 81 
105 103 100 103 101 105 102 102 101 98 101 101 103 100 99 99 98 96 96 102 99 103 103 103 100 98 99 95 91 93 93 97 90 92 95 92 90 93 93 95 98 94 94 91 91 96 96 99 96 98 95 95 96 98 99 97 96 99 95 86 64 18 16 41 63 74 75 77 76 78 81 74 78 81 79 76 73 82 78 80 
110 103 102 101 111 105 100 103 96 98 100 100 104 100 97 101 99 95 99 98 104 106 103 103 102 97 99 95 95 93 90 96 95 89 94 92 88 93 96 100 99 96 95 91 95 94 99 94 97 96 99 94 95 96 98 97 97 95 93 90 59 14 9 40 62 71 76 80 77 78 78 74 79 83 80 75 73 79 73 81 
104 104 103 105 103 105 101 98 100 99 102 103 99 100 102 103 101 100 98 99 100 107 106 102 100 95 101 94 97 94 92 91 92 89 93 89 90 92 95 94 95 95 92 90 90 91 94 94 93 99 94 94 96 97 96 94 96 98 93 87 53 9 10 36 65 74 75 80 74 74 81 75 79 80 82 74 70 75 81 82 
105 103 102 101 104 100 98 98 100 100 102 103 104 103 101 102 100 96 99 98 105 106 101 103 98 93 95 93 95 95 90 94 88 93 93 90 87 88 93 94 95 91 90 92 89 90 91 93 93 93 93 94 98 95 97 96 95 95 92 89 49 10 8 34 60 74 76 78 74 75 80 71 69 74 75 73 69 71 76 81 
100 102 99 102 102 100 98 95 101 99 99 100 106 99 98 101 96 95 98 103 99 105 101 100 96 92 94 92 93 91 90 95 88 89 92 90 87 89 87 91 94 90 90 88 89 92 94 95 95 94 93 95 94 97 94 94 93 95 90 80 56 2 12 38 60 71 75 74 78 72 72 71 65 70 72 73 68 76 75 77 
102 100 98 99 99 99 98 98 105 102 99 101 101 99 98 99 95 97 94 99 100 100 100 101 95 87 91 86 93 92 88 88 91 90 89 86 85 88 91 92 96 89 88 90 90 90 94 97 91 94 93 95 93 95 94 94 91 88 90 80 50 5 10 39 61 71 70 76 71 76 75 69 62 67 75 72 66 74 74 80 
103 98 96 99 93 101 98 98 99 101 101 98 98 97 93 96 92 93 94 94 98 97 96 104 93 91 91 93 96 88 87 89 86 92 88 87 87 88 90 91 89 89 86 87 88 92 96 94 92 91 92 94 92 89 94 94 87 89 89 78 42 4 7 39 65 73 74 74 75 74 69 68 65 66 73 68 62 67 67 76 
100 99 98 102 98 97 98 95 97 99 93 94 96 96 94 93 89 91 92 95 97 93 96 98 93 94 93 92 92 89 83 87 85 88 89 87 88 88 86 92 93 88 84 87 86 91 89 90 90 93 90 91 88 91 90 89 87 86 91 76 39 0 2 31 57 68 78 75 73 70 66 66 58 62 71 71 66 74 72 73 


