P2
80 60
40
23 29 27 27 30 29 28 26 27 29 29 30 30 30 29 29 23 27 24 27 29 29 25 21 24 23 28 28 29 27 29 27 31 29 28 28 26 29 27 28 25 26 27 27 22 28 21 21 30 27 23 25 27 24 25 26 26 31 34 25 23 23 25 23 21 25 21 16 20 22 21 21 15 21 22 22 22 20 21 17 
30 32 30 27 27 30 26 29 28 31 28 30 26 31 28 27 28 26 28 27 29 29 25 23 22 27 28 28 25 26 29 28 29 27 29 28 29 27 24 26 25 27 26 28 23 25 23 20 25 24 26 25 25 27 27 33 29 27 28 24 22 20 23 20 19 19 19 17 19 17 14 15 21 19 20 23 21 18 24 19 
29 31 24 24 25 29 26 26 28 30 32 31 28 28 31 30 25 25 26 27 29 28 26 24 22 29 30 26 27 30 26 28 29 28 29 27 27 29 27 26 24 31 30 28 26 24 24 23 25 26 24 24 25 24 25 29 27 28 26 24 25 23 21 20 21 20 18 20 16 18 19 20 20 22 20 22 20 17 16 17 
28 31 26 29 30 30 26 29 27 30 37 29 30 28 29 28 28 31 27 24 28 25 25 24 25 26 25 29 27 29 26 29 29 27 29 28 28 32 27 29 30 32 31 30 27 33 29 26 29 29 29 27 26 23 26 29 28 25 25 22 23 22 25 22 22 22 21 19 21 20 19 22 21 17 17 27 20 20 16 19 
30 30 28 31 29 30 28 27 28 31 27 30 26 27 28 29 26 28 26 29 27 27 27 26 26 29 32 30 26 26 25 26 27 29 29 32 28 29 31 33 29 32 33 30 31 31 30 31 30 34 31 30 27 26 26 32 28 25 27 23 24 23 23 25 23 21 23 20 26 19 17 21 18 19 22 25 21 20 19 20 
28 33 29 29 26 31 29 28 30 27 31 29 29 29 26 28 26 29 26 29 30 30 29 28 30 29 26 26 26 26 26 25 25 27 27 25 29 28 31 31 27 33 33 30 27 30 35 31 29 30 32 32 33 29 28 34 27 30 28 31 25 22 21 23 24 22 24 22 26 23 19 18 19 15 20 20 19 18 20 20 
28 32 26 27 30 27 31 29 31 31 26 27 27 26 24 29 31 32 27 29 26 28 29 25 27 29 31 28 25 23 29 28 26 26 27 26 25 29 29 32 30 29 27 29 30 32 28 29 32 30 31 34 32 28 31 31 32 33 35 29 29 31 27 25 21 21 24 20 20 20 17 15 18 17 19 21 19 18 22 17 
31 34 29 29 28 32 28 31 29 31 28 31 28 29 28 34 28 30 32 27 33 28 27 28 27 30 29 28 27 29 26 26 29 27 28 33 27 27 28 31 30 30 30 30 26 29 31 28 30 30 31 31 32 28 28 36 31 30 30 27 30 30 32 25 24 25 23 23 26 25 20 21 19 19 22 20 17 18 18 20 
32 34 32 29 33 30 32 32 29 31 27 29 31 32 28 27 28 30 27 32 28 28 26 28 29 28 29 29 30 27 27 25 24 23 29 29 29 29 26 32 26 31 30 29 27 28 27 27 30 31 30 30 29 25 28 34 30 27 30 31 27 30 29 24 20 24 26 23 23 23 19 22 20 21 19 22 21 19 17 18 
33 36 28 30 27 31 34 32 28 29 29 33 30 30 27 26 31 27 30 25 28 29 25 26 27 27 27 26 27 25 23 23 24 27 27 25 29 28 25 30 27 28 26 27 27 28 22 28 31 29 31 28 28 24 28 32 29 29 31 26 23 24 29 21 21 24 25 19 25 22 17 26 20 23 20 22 17 18 18 14 
32 34 29 33 33 31 33 28 29 29 26 25 29 28 27 27 27 28 25 25 26 25 28 25 24 27 27 26 26 24 23 24 25 25 24 23 25 25 26 29 26 24 25 26 27 24 25 27 28 26 28 30 29 25 26 31 27 24 29 23 27 26 22 21 22 21 21 21 20 22 20 17 20 22 18 19 21 18 22 13 
29 35 32 35 32 32 32 26 27 28 27 27 30 28 26 26 26 27 25 23 25 24 23 25 26 25 27 29 25 23 26 25 25 26 25 23 25 25 27 27 27 26 24 26 26 30 28 25 25 30 28 27 27 26 29 29 28 29 23 23 23 27 22 24 21 23 21 23 21 18 13 17 17 21 18 22 17 17 14 16 
33 34 33 36 35 32 31 29 24 29 26 27 31 26 26 26 27 24 23 24 24 24 23 24 25 26 27 28 21 27 23 25 26 25 26 27 24 27 25 26 24 27 26 27 30 26 29 26 29 26 30 26 25 26 24 25 27 27 27 23 24 25 28 22 23 22 22 19 22 20 7 17 18 18 19 19 21 22 17 15 
34 35 35 33 34 32 25 27 26 27 28 31 33 26 27 29 26 24 27 21 25 24 23 23 24 26 24 27 26 25 28 22 25 29 29 24 24 28 25 25 25 28 28 26 25 27 27 29 29 33 27 26 26 25 26 30 28 30 27 25 26 25 25 21 20 21 21 21 20 17 18 13 15 17 18 20 21 23 18 18 
34 33 35 31 30 32 28 28 24 25 27 30 26 26 24 28 26 22 23 24 23 27 21 24 25 24 26 27 24 23 23 24 25 25 24 25 27 23 25 28 25 28 27 26 23 27 26 25 29 29 26 26 24 25 28 29 32 38 30 22 22 23 22 20 17 20 23 19 23 21 20 16 17 15 17 19 22 20 19 23 
34 36 34 33 34 32 28 29 28 28 28 27 27 26 26 28 24 25 21 24 22 26 26 25 26 26 27 25 26 23 25 23 25 25 27 27 26 27 25 25 27 29 24 27 25 28 27 26 27 28 24 24 26 31 29 30 29 28 28 26 22 21 22 21 23 22 22 26 21 20 19 19 18 20 17 17 21 18 16 22 
32 40 34 34 34 31 26 27 27 25 25 26 29 23 28 26 26 29 25 25 25 24 21 23 26 24 20 26 26 24 25 25 24 27 23 26 24 23 23 28 28 26 24 24 25 32 27 25 28 27 24 27 27 25 24 33 28 29 28 25 23 25 21 19 19 19 21 25 22 21 21 19 21 19 17 19 16 19 17 18 
31 34 32 34 35 30 27 25 25 24 23 26 24 26 25 24 24 27 23 23 25 23 24 25 22 23 24 26 26 24 25 24 23 23 27 27 27 25 27 28 27 26 26 27 26 28 26 23 29 24 23 24 27 24 27 31 28 31 30 26 21 23 21 18 21 19 19 21 24 21 18 18 21 15 17 20 17 20 17 14 
32 33 33 35 35 30 27 27 25 23 23 26 27 25 24 28 26 27 24 24 26 27 25 27 23 27 27 26 25 26 26 23 27 29 32 29 25 25 26 27 27 30 26 28 25 25 29 23 25 25 23 26 30 23 26 29 27 27 26 23 23 26 23 19 20 21 22 22 24 21 17 19 17 17 17 19 18 18 12 19 
30 31 33 33 32 36 28 26 26 25 28 28 27 23 24 24 25 24 27 24 26 26 28 23 25 29 27 26 23 24 24 26 23 24 27 25 25 27 23 26 29 27 25 27 25 24 23 29 25 25 25 27 26 22 23 30 24 24 24 21 23 23 21 20 21 21 22 23 20 20 17 21 19 17 17 16 18 13 11 16 
32 32 30 28 30 28 32 23 21 27 26 27 26 26 25 21 25 25 23 22 23 27 24 22 27 23 29 27 24 24 36 29 23 23 25 23 24 25 23 25 26 33 27 25 24 25 25 23 24 25 22 23 25 23 27 25 26 22 24 21 21 21 23 19 20 19 21 22 22 22 20 19 17 17 18 17 14 16 15 19 
30 33 30 34 30 31 30 28 22 24 29 26 31 27 27 25 25 25 25 23 22 24 27 23 25 24 24 25 24 25 25 23 25 26 23 22 27 24 22 27 27 30 24 22 22 24 20 20 21 24 24 24 24 29 24 23 25 25 25 20 22 18 23 22 22 21 19 22 23 23 17 17 19 18 17 15 18 19 20 19 
33 33 27 34 30 29 25 26 27 27 25 25 28 28 25 24 25 25 29 23 24 23 21 23 23 22 23 27 22 22 23 26 23 20 21 24 23 23 25 26 25 26 24 23 30 24 24 18 25 23 23 20 20 23 28 24 22 21 24 22 21 20 22 21 24 23 23 21 23 20 17 18 20 18 15 21 13 15 16 19 
32 33 28 30 29 29 30 35 26 25 30 30 27 29 24 26 24 25 26 25 24 24 23 21 21 25 24 23 22 23 21 23 23 23 23 21 23 22 24 25 23 26 22 24 21 25 24 22 24 25 26 22 22 23 23 26 24 25 22 20 20 22 22 25 21 22 21 22 20 24 18 20 19 18 17 18 17 19 15 16 
30 34 32 28 30 26 30 28 25 29 25 31 29 27 27 23 25 27 25 23 24 26 25 21 25 25 23 23 24 23 20 22 21 22 23 22 22 23 24 23 21 23 25 23 26 25 24 24 24 25 22 22 21 23 24 24 21 20 24 21 19 21 22 18 18 22 23 21 21 20 18 16 17 18 19 17 13 17 17 19 
30 31 29 27 30 30 30 29 25 27 28 30 26 26 28 25 24 23 18 22 25 24 23 26 29 26 25 24 22 21 20 20 22 21 22 19 22 23 21 26 23 25 25 25 23 29 20 25 22 20 21 20 19 21 20 22 22 20 24 20 23 19 20 21 26 21 24 19 20 21 19 18 18 19 19 18 16 19 12 19 
30 31 29 30 32 28 29 30 24 27 29 30 27 28 25 25 22 27 20 25 24 28 27 24 24 24 26 25 23 23 24 19 23 22 23 20 22 21 21 24 21 24 22 22 20 22 24 21 24 20 21 22 21 18 20 25 22 19 20 19 24 22 18 18 18 17 23 20 19 17 19 16 19 21 17 17 21 18 17 16 
32 32 30 32 28 27 30 28 26 28 31 30 25 28 24 23 23 26 24 25 22 22 24 23 21 23 26 27 22 22 23 22 22 22 18 18 22 21 23 24 25 24 24 23 22 24 21 19 22 20 19 21 22 18 21 21 23 21 19 16 21 20 22 20 22 21 17 19 21 18 18 14 19 18 17 15 18 17 15 17 
31 34 28 26 30 28 28 29 27 29 27 29 29 27 25 24 21 26 24 26 23 25 22 23 20 26 26 24 22 19 22 21 24 20 17 23 22 22 23 23 23 25 22 25 21 24 23 21 21 22 19 21 20 17 20 22 18 17 20 16 21 20 22 20 17 23 18 18 18 19 21 15 19 18 16 17 16 16 11 12 
33 32 32 34 30 26 29 29 29 25 27 28 28 24 21 22 23 26 23 21 22 24 21 23 22 26 25 24 21 21 18 19 24 19 21 22 20 23 19 24 26 25 23 25 23 23 20 23 24 21 20 19 20 18 19 28 19 22 20 16 20 20 20 20 20 24 30 22 18 20 16 19 19 15 16 18 17 15 12 14 
30 32 30 27 29 26 28 28 26 30 24 26 27 26 22 23 24 24 22 20 22 22 26 25 22 26 25 24 22 21 21 21 18 22 25 24 21 19 21 23 26 26 29 24 21 18 18 21 25 19 20 18 19 19 20 20 25 21 18 15 19 20 20 20 22 22 20 18 21 18 18 18 18 15 16 16 14 15 15 15 
31 31 28 35 29 27 26 22 27 27 28 29 28 27 28 27 26 26 27 21 21 26 24 23 25 24 28 25 23 22 22 19 20 21 21 21 24 21 19 24 26 28 28 29 25 21 21 22 21 26 20 18 20 20 20 22 20 21 20 16 16 19 21 21 21 24 19 20 22 20 17 16 16 15 14 15 19 18 13 14 
30 32 28 32 29 26 24 28 26 27 27 28 26 27 22 25 21 24 22 21 22 25 20 23 23 25 28 26 23 20 21 20 21 21 18 20 19 20 20 24 25 25 26 24 23 23 20 20 19 24 19 20 17 19 20 23 21 22 18 15 20 20 20 22 20 20 19 17 21 21 14 13 17 19 16 17 24 15 9 14 
33 32 31 29 32 30 25 25 25 25 27 28 25 25 24 22 23 26 22 23 22 23 20 24 21 24 25 25 24 24 22 20 21 19 23 21 20 21 21 21 23 25 25 25 22 23 21 19 20 21 19 19 21 16 18 25 21 21 18 16 18 25 24 22 21 21 20 17 20 19 17 14 15 15 18 17 16 17 14 16 
28 29 29 31 30 28 25 22 24 23 24 28 28 26 25 26 26 23 19 24 20 23 20 21 24 25 23 24 24 24 24 21 23 22 24 18 18 22 22 21 24 23 23 25 22 24 20 21 18 18 19 21 21 18 21 25 22 22 21 12 16 19 18 17 18 18 20 17 16 16 13 17 17 17 15 18 16 13 14 11 
31 31 31 30 30 28 26 23 26 24 27 24 26 27 26 25 22 24 23 20 22 22 21 22 20 24 23 22 24 22 25 22 23 23 20 19 23 20 20 25 21 23 22 24 24 22 22 25 22 20 20 22 20 17 20 26 21 21 20 19 17 20 20 17 16 18 16 18 15 16 17 13 15 18 17 17 18 15 12 12 
29 30 30 29 27 28 28 25 24 23 24 26 25 24 21 24 22 23 26 21 22 23 22 23 20 21 20 21 22 21 22 21 20 23 19 19 19 20 20 23 22 25 23 23 23 24 21 19 20 19 16 18 18 20 16 21 18 20 19 12 19 18 16 20 18 20 19 14 15 14 13 15 18 17 15 15 16 12 12 13 
28 33 30 30 26 28 26 25 24 25 26 25 31 24 23 23 22 28 26 23 23 25 24 23 21 21 21 21 20 19 23 20 22 22 19 18 21 20 21 21 21 23 24 23 22 22 22 19 20 17 17 18 16 19 17 24 20 17 17 16 16 15 18 17 16 21 17 17 17 18 14 12 13 12 15 15 13 17 11 17 
30 34 30 30 32 30 27 26 25 24 23 28 22 22 24 25 23 27 24 25 24 26 22 21 23 20 21 23 21 18 21 20 18 21 18 20 18 21 20 24 21 25 24 20 20 22 21 20 18 19 19 18 19 18 20 21 17 19 17 16 15 16 15 13 16 18 19 19 18 15 15 15 14 13 12 12 15 17 14 15 
30 33 28 27 28 29 25 29 25 26 26 26 26 26 23 27 22 24 24 22 24 23 21 25 26 22 24 22 19 20 21 19 20 20 23 23 21 21 22 24 21 22 25 24 20 24 25 20 19 19 20 20 21 20 18 20 16 17 15 14 16 13 17 15 13 14 16 14 19 16 14 15 14 17 12 16 13 14 17 18 
27 29 27 27 26 25 26 24 24 23 23 24 24 27 27 25 22 23 22 22 20 22 23 23 24 23 28 22 18 18 19 19 23 20 21 24 19 22 21 21 19 20 23 22 21 24 24 20 20 19 18 23 20 21 16 18 15 18 17 13 13 17 17 14 12 14 14 14 8 15 10 14 16 16 16 17 14 20 19 16 
27 31 29 28 28 27 28 24 23 23 25 27 27 25 25 23 24 23 24 23 22 23 24 22 27 22 24 19 21 19 19 18 20 16 23 19 24 24 18 22 21 23 21 22 21 27 22 22 19 20 20 19 18 19 16 22 21 15 13 12 14 16 15 16 14 14 15 12 13 13 11 11 15 12 14 16 13 14 18 15 
29 30 32 29 28 26 26 24 24 22 26 25 26 26 27 26 22 25 23 23 23 24 23 25 22 25 21 21 19 16 22 20 18 20 19 23 24 22 20 23 24 23 21 25 21 25 24 24 21 18 17 19 18 18 20 20 19 17 15 11 15 17 16 19 17 14 16 17 14 12 9 10 14 13 12 14 17 11 13 11 
29 29 28 28 25 26 25 26 23 24 26 29 24 25 28 22 25 26 22 26 21 23 20 22 24 24 24 19 18 20 20 20 22 19 21 21 22 23 19 24 23 22 22 24 23 24 26 28 22 20 16 19 17 20 17 20 16 16 19 14 15 16 17 14 14 15 16 13 15 14 14 9 12 11 16 21 21 17 12 14 
28 28 28 24 22 25 26 27 23 21 26 27 29 27 28 26 23 25 21 25 23 23 21 24 23 23 22 21 19 20 22 17 22 22 20 20 20 18 21 22 24 19 21 23 22 26 25 23 20 15 17 18 16 17 15 16 14 16 12 16 18 20 20 16 14 18 14 16 16 14 11 13 9 12 13 14 17 12 13 16 
28 34 24 29 24 21 22 25 20 24 23 24 25 27 26 26 27 23 23 26 26 22 23 22 20 22 19 18 16 18 19 19 21 21 19 22 19 19 19 24 21 22 19 21 21 26 20 20 17 14 16 17 15 15 14 18 12 13 12 12 18 16 14 16 16 18 15 11 14 13 11 12 11 9 13 12 11 11 13 14 
27 29 23 24 23 24 22 24 20 21 24 27 22 22 24 25 23 25 22 24 20 20 23 19 21 23 19 16 17 18 20 17 18 17 18 20 17 19 18 20 18 20 19 22 24 27 20 18 15 15 14 15 15 15 15 16 14 15 10 12 15 13 17 14 12 12 15 15 9 13 10 9 10 10 12 14 11 7 8 14 
26 27 22 24 27 23 22 25 21 25 21 25 28 27 25 28 22 24 22 21 23 25 23 16 17 22 19 20 19 20 20 16 18 17 20 19 17 19 19 19 19 22 21 22 22 25 19 17 18 15 14 14 17 15 14 18 17 16 15 14 17 12 13 14 11 13 17 13 13 13 10 13 11 7 10 11 9 13 8 6 
26 27 24 21 21 22 24 20 22 22 20 21 27 24 23 25 25 24 22 23 22 24 25 22 19 21 21 17 18 19 15 17 16 19 18 15 20 21 14 19 17 22 20 19 20 21 18 14 14 14 14 16 14 13 13 15 15 14 16 13 13 13 12 13 11 11 13 18 12 13 9 12 10 9 9 11 7 12 10 12 
28 31 24 26 25 25 24 26 21 27 23 25 27 24 25 28 25 26 25 25 22 22 22 24 20 19 19 17 16 20 15 17 16 17 17 14 20 18 18 18 20 20 17 20 21 22 17 15 15 13 15 14 14 15 16 16 15 14 15 11 13 12 15 14 12 10 13 9 13 13 8 11 7 10 9 12 13 8 7 9 
28 23 19 25 27 23 23 23 23 23 21 25 26 25 24 27 24 25 24 22 20 23 22 19 19 19 17 19 19 17 17 18 17 17 18 17 19 19 19 19 18 19 18 20 21 21 18 13 12 12 14 12 16 16 16 19 15 11 14 9 14 13 12 12 11 12 11 8 12 12 9 9 6 7 11 9 13 7 7 11 
31 26 24 24 29 27 20 23 23 20 27 23 24 21 24 21 21 22 21 23 23 20 20 23 21 21 19 17 18 19 18 18 18 18 24 19 20 15 20 13 14 19 20 20 20 21 15 15 16 15 14 14 12 17 13 17 13 14 14 13 12 12 15 11 9 10 9 12 9 10 9 8 8 6 9 16 10 7 5 5 
28 28 24 26 26 25 22 22 22 24 20 22 23 21 20 20 24 21 21 22 18 21 17 20 25 19 20 19 19 21 16 16 19 21 19 20 16 13 17 14 22 18 15 20 20 20 15 15 17 11 12 13 13 14 15 16 16 16 17 13 12 10 11 6 9 10 11 8 8 7 6 6 4 3 7 9 11 2 4 9 
26 26 21 28 31 32 24 23 24 20 24 25 25 24 22 23 23 21 20 17 19 22 19 21 22 24 24 22 17 17 16 16 15 17 17 18 19 15 16 16 16 16 15 18 22 21 18 10 13 16 11 15 14 14 13 18 18 12 17 9 10 12 11 7 7 11 8 6 7 11 9 6 1 8 7 7 6 8 4 4 
24 24 21 24 26 25 26 22 22 20 27 27 28 23 24 24 22 25 24 24 19 17 20 17 20 23 23 21 17 14 18 17 15 15 16 16 15 16 13 14 18 17 19 18 20 17 16 17 12 12 16 16 14 13 13 17 15 14 15 10 11 13 14 9 9 8 10 5 10 10 8 11 5 7 9 4 8 5 3 2 
22 27 20 22 26 22 23 22 22 24 23 26 25 25 21 22 21 18 23 19 20 17 16 19 16 21 19 22 16 16 18 13 11 17 13 14 17 16 14 17 13 19 17 20 21 21 14 14 12 13 16 14 16 11 14 18 12 13 10 12 8 14 11 11 10 9 8 7 7 10 8 12 4 9 4 5 4 0 1 6 
21 27 23 24 26 21 21 23 19 23 24 29 34 27 24 22 19 23 21 24 22 17 17 19 18 18 18 18 14 15 14 13 15 15 16 13 14 15 17 12 16 17 20 19 21 17 16 12 16 11 14 13 13 13 13 18 13 11 13 6 10 13 10 3 8 10 6 5 5 7 6 8 3 3 5 7 4 4 0 2 
20 24 19 20 19 21 19 21 20 25 23 27 24 28 22 23 22 22 18 22 20 18 21 17 14 18 19 16 14 16 15 15 14 13 10 11 18 16 14 16 15 18 21 19 19 20 16 9 14 15 11 14 13 13 14 16 13 12 14 11 11 8 8 7 7 8 6 2 7 8 4 2 5 4 8 6 5 7 1 2 
18 21 17 24 25 23 21 18 21 23 22 26 22 23 21 18 21 22 22 23 22 20 19 17 16 17 19 15 19 16 15 14 14 14 12 14 14 15 14 15 14 20 23 19 18 18 18 10 8 12 10 14 13 11 14 15 12 11 12 6 7 10 7 7 9 10 5 6 6 4 2 1 6 4 2 5 3 5 1 3 
23 22 17 22 25 24 20 20 21 22 20 23 20 21 20 19 21 18 21 23 18 21 18 19 20 20 17 18 18 15 13 15 14 15 17 17 18 14 13 15 16 21 22 20 15 14 10 8 10 11 8 9 11 14 8 16 13 14 13 11 8 7 7 7 7 5 5 5 3 0 2 1 2 1 0 5 3 2 1 2 


