P2
80 60
231
50 58 59 57 57 57 56 58 58 58 61 59 54 56 56 57 60 58 57 58 57 54 52 56 56 56 55 55 56 53 55 55 57 51 50 48 50 50 49 47 45 48 47 49 49 47 48 49 53 56 57 56 60 59 61 60 62 59 60 60 59 58 59 57 59 57 58 54 55 56 56 57 53 56 61 57 62 53 52 51 
50 59 59 55 59 60 57 58 59 59 58 57 56 56 55 57 57 58 53 56 58 54 54 52 53 54 52 54 52 55 55 54 48 52 50 45 49 48 46 47 45 44 46 48 46 48 50 54 55 57 58 56 58 55 62 61 63 58 59 62 58 58 60 59 58 54 59 56 57 53 57 58 57 57 61 59 62 57 53 47 
50 60 59 56 57 57 61 60 59 59 61 57 55 58 59 58 60 56 56 55 57 56 57 54 52 57 57 56 55 55 55 55 53 52 51 49 52 49 51 46 47 46 45 47 50 48 51 52 55 58 59 52 61 57 59 60 60 59 59 61 59 58 58 61 60 54 57 54 53 57 60 58 56 62 58 58 57 58 56 52 
55 60 56 58 60 63 59 56 58 60 62 58 54 58 54 56 61 59 58 55 56 57 53 54 54 54 56 55 57 57 52 53 48 50 51 48 52 52 48 49 42 43 45 49 50 49 52 53 56 55 55 54 58 57 58 59 57 59 58 62 63 59 58 59 59 55 60 55 55 59 55 62 55 57 56 55 57 56 51 51 
52 57 60 59 62 60 58 60 57 61 58 60 55 55 55 59 59 58 62 56 57 54 54 57 55 55 58 55 52 49 54 51 53 49 47 47 52 52 54 48 45 42 51 48 48 51 52 55 53 58 57 58 58 56 59 58 59 60 58 59 59 58 59 63 59 53 59 58 59 61 58 60 55 55 61 58 57 55 53 54 
53 60 58 61 61 62 58 61 62 59 57 62 58 62 56 56 58 62 56 62 60 57 52 58 57 58 56 52 51 51 55 53 55 51 52 50 51 49 58 47 47 49 51 46 52 49 56 52 57 59 57 60 62 57 61 61 60 63 57 62 61 58 61 59 60 55 59 57 62 60 55 60 56 56 58 56 58 54 51 50 
49 61 61 57 56 59 58 61 59 59 60 58 57 57 55 55 61 55 56 62 59 56 58 56 57 54 55 53 51 53 53 52 53 51 52 51 52 52 54 51 46 49 45 51 51 51 51 54 55 57 59 60 59 57 60 60 58 65 64 63 61 60 59 59 61 57 59 58 60 61 56 58 55 57 61 60 58 55 52 51 
55 62 61 58 61 64 57 61 59 57 60 60 59 60 53 59 60 59 56 56 62 59 55 57 63 55 60 56 55 55 54 50 54 51 50 53 52 53 58 51 47 48 44 52 51 49 54 51 54 56 56 58 62 60 60 63 60 62 62 62 60 60 64 60 59 60 59 55 63 55 58 56 56 56 55 55 57 55 52 56 
59 62 59 61 64 60 58 59 58 62 56 61 56 59 52 54 58 55 59 63 63 56 56 57 59 58 58 54 59 53 54 52 54 54 50 50 54 50 55 50 49 44 44 49 51 50 49 52 51 59 55 57 56 61 59 59 59 62 61 61 59 59 60 59 60 57 60 57 57 57 55 57 59 58 58 58 54 55 50 54 
54 63 67 63 66 65 63 62 58 60 59 59 60 59 58 58 64 58 57 56 62 60 56 57 58 58 58 56 55 54 53 52 58 53 53 49 53 50 49 48 48 47 45 45 50 49 48 51 54 57 54 56 59 56 59 57 60 60 60 62 60 59 58 60 58 55 63 58 60 57 55 57 59 59 58 55 55 55 50 57 
56 65 66 67 67 65 69 62 60 57 59 60 59 59 60 60 56 61 59 59 63 55 61 56 56 58 59 56 55 55 54 52 58 54 53 50 50 46 49 51 43 43 45 45 46 46 47 50 55 55 57 57 58 55 59 60 60 57 59 57 57 57 59 60 59 61 63 58 59 56 54 56 53 58 58 56 55 56 54 54 
55 64 69 62 61 66 62 66 60 58 57 61 59 62 57 56 55 53 55 55 63 58 55 57 55 58 56 51 55 53 51 52 56 55 52 48 47 51 55 53 46 46 41 45 49 47 51 52 57 57 55 55 58 58 59 60 61 60 60 60 60 57 58 59 57 57 62 56 55 56 53 54 57 58 55 58 57 58 53 55 
59 64 68 69 65 62 59 63 60 61 59 61 57 59 54 59 59 53 56 56 57 56 56 54 54 55 59 54 56 49 53 48 52 51 52 49 49 47 49 49 44 43 47 48 50 49 56 53 54 57 55 58 56 56 57 57 60 59 59 61 59 55 63 58 57 59 62 55 53 55 44 57 51 54 57 58 56 57 53 53 
53 63 65 63 61 60 56 57 60 59 55 59 54 55 54 59 54 51 52 55 56 59 56 54 56 57 53 54 53 49 52 52 53 52 51 47 46 44 47 47 41 42 43 48 51 54 50 51 52 61 55 56 56 59 58 59 61 61 60 61 59 58 61 59 60 55 61 56 54 54 57 54 59 56 55 55 58 54 54 51 
52 67 62 63 63 61 59 62 61 56 56 60 53 55 54 56 53 52 54 54 55 57 54 58 51 54 54 54 52 49 51 52 52 49 49 46 49 51 46 47 41 43 46 45 49 46 48 53 53 61 56 59 57 54 58 61 63 68 62 63 60 58 59 58 56 57 59 55 57 57 54 55 56 53 57 56 56 54 52 55 
53 63 63 61 64 60 57 60 62 57 55 57 56 56 56 59 56 55 54 52 56 55 51 55 54 52 54 52 56 51 53 51 55 48 47 45 48 47 42 46 42 46 44 46 48 49 52 51 53 56 53 53 56 53 58 58 61 63 63 62 59 58 62 59 59 56 60 54 59 59 55 59 59 53 60 52 59 55 50 53 
55 68 65 62 65 66 61 62 59 59 58 60 56 58 60 57 58 53 56 55 55 54 52 55 57 55 57 56 54 55 51 54 50 52 50 48 51 50 47 48 45 45 46 47 48 46 48 52 52 56 59 56 57 57 60 60 62 63 62 63 60 57 59 60 57 58 60 58 60 58 58 62 64 55 57 55 60 58 55 53 
51 64 64 62 66 62 59 63 58 62 56 59 55 58 59 55 55 54 57 55 57 55 55 54 55 50 54 55 58 48 54 55 54 49 51 46 51 51 49 52 46 44 43 47 53 48 46 50 51 54 54 54 59 59 64 60 63 70 62 61 59 58 56 59 58 59 57 59 59 58 55 59 59 60 58 56 59 57 58 51 
52 63 68 64 66 60 62 58 56 55 58 60 55 56 56 53 57 57 57 56 58 56 53 56 56 54 55 53 55 50 55 49 55 50 51 45 47 48 51 47 45 44 46 48 49 48 47 49 54 54 57 53 64 59 61 58 60 63 62 61 59 61 58 58 59 60 60 59 63 57 58 57 57 58 58 55 57 58 54 55 
51 62 63 62 64 64 59 59 54 53 58 60 55 54 57 56 56 54 54 57 56 59 59 53 56 56 54 52 52 51 58 55 55 49 48 48 50 48 48 47 44 44 45 47 49 47 50 49 54 55 56 57 59 56 58 60 59 59 57 63 62 58 58 63 58 59 59 58 58 59 55 60 57 59 58 55 55 54 52 55 
52 60 63 60 60 60 60 56 60 58 60 59 55 58 54 54 57 52 55 56 59 56 58 57 60 57 54 53 51 55 65 55 55 48 49 47 50 51 46 47 45 46 46 45 46 47 47 51 54 56 55 54 59 57 61 62 61 59 60 63 57 61 60 61 59 57 62 57 62 59 64 59 59 60 56 54 58 59 53 59 
49 61 64 59 63 61 62 62 59 58 62 58 62 60 55 58 58 54 54 60 59 56 56 56 58 56 56 54 55 52 54 54 50 49 47 44 50 51 51 50 44 50 46 45 48 45 48 51 54 58 59 56 60 57 60 60 57 58 62 58 61 60 59 63 61 60 62 60 59 61 56 57 61 61 59 54 58 59 56 55 
49 58 60 61 62 61 61 64 60 61 57 58 60 58 54 54 58 52 54 58 57 54 55 55 55 54 56 52 53 51 53 51 51 50 47 45 49 46 47 46 42 43 43 43 45 46 48 51 53 58 57 58 60 61 58 60 59 57 61 57 60 58 58 56 60 62 61 61 60 59 58 57 62 61 57 54 54 53 53 56 
45 62 60 60 59 60 61 67 62 61 56 58 58 56 53 58 59 54 55 54 53 56 55 56 54 55 54 54 53 51 52 50 50 50 47 45 47 48 48 41 40 41 46 44 48 47 52 51 54 60 57 58 61 58 58 58 61 61 61 60 58 58 57 61 60 59 63 61 60 65 59 61 59 58 57 54 57 57 55 53 
43 55 57 56 60 59 60 61 61 59 58 59 57 58 55 57 56 60 55 55 51 57 54 55 55 54 56 51 58 54 49 51 51 46 46 44 46 51 46 47 41 44 46 47 54 49 48 50 53 56 59 56 58 58 56 59 59 59 56 58 60 59 61 58 62 57 66 59 57 58 60 61 60 56 60 57 54 55 55 57 
39 59 62 56 60 58 57 62 59 61 56 61 59 57 61 60 59 57 59 54 57 56 58 57 56 54 56 55 57 52 52 48 49 47 46 44 49 47 49 47 44 40 44 45 48 49 48 55 55 56 56 57 58 57 59 61 60 61 63 63 60 62 61 60 61 60 63 61 60 59 59 59 59 59 59 56 55 54 54 56 
39 58 60 59 60 62 60 63 54 57 57 59 56 58 59 54 56 57 55 57 56 56 59 57 57 55 58 55 57 52 50 49 51 47 49 45 47 49 48 46 42 43 47 46 47 46 48 52 54 54 55 57 59 54 57 59 61 59 55 61 58 62 63 58 61 61 63 58 60 58 58 57 62 58 59 60 59 58 60 55 
41 56 60 61 60 59 56 59 60 59 59 59 57 57 54 58 54 56 54 55 55 57 56 54 57 54 60 55 54 55 52 50 48 47 46 47 50 50 46 48 41 47 47 49 49 47 49 52 53 57 59 56 58 55 58 59 60 58 56 62 66 58 63 60 63 60 62 58 60 61 58 59 58 58 58 55 60 54 56 60 
33 52 62 61 61 59 60 58 57 57 60 58 55 59 54 55 58 53 53 57 55 55 54 57 58 60 57 51 55 51 55 50 49 46 47 45 53 48 48 46 44 48 50 51 49 51 51 52 56 58 56 53 58 60 59 63 60 59 54 60 65 61 59 65 62 59 63 61 58 61 62 60 59 57 60 55 56 60 59 54 
38 52 66 61 57 60 58 59 61 59 58 62 57 59 54 58 59 56 53 57 54 58 56 55 57 55 56 55 53 51 54 51 51 47 45 44 48 47 47 45 50 57 55 52 54 56 53 50 55 56 58 56 58 59 60 60 60 64 59 60 65 60 63 64 63 63 70 63 61 61 64 60 63 60 61 59 59 59 55 57 
36 46 60 58 58 60 58 59 59 62 59 58 55 57 56 55 58 53 52 54 55 57 55 58 57 56 55 53 51 52 52 49 50 48 47 44 51 48 54 51 50 58 57 57 56 62 50 55 58 58 55 57 57 59 62 62 62 62 61 59 64 62 62 63 64 62 64 61 61 63 63 64 63 61 58 56 59 58 53 56 
37 43 61 60 57 59 57 61 62 60 60 59 59 58 55 58 61 55 55 54 57 59 57 57 57 54 56 52 53 52 53 52 52 47 49 48 51 53 58 55 54 57 57 61 60 55 50 57 57 62 62 56 59 62 61 63 64 63 62 62 62 65 62 63 66 63 68 65 62 64 62 65 66 62 60 57 61 57 52 57 
31 48 60 57 56 58 56 62 58 58 59 61 60 58 55 55 58 55 56 53 59 57 57 58 57 57 56 54 54 51 53 48 52 52 50 53 55 55 56 58 71 81 63 67 59 58 54 54 56 61 62 59 61 61 63 67 65 63 61 64 61 63 66 68 65 67 68 66 66 61 61 61 69 65 62 58 58 59 53 58 
32 42 55 57 60 56 57 61 62 59 59 62 54 57 53 58 62 57 58 56 57 53 56 58 59 57 57 57 54 56 55 53 56 54 50 51 53 52 58 65 86 101 97 92 80 74 65 61 60 62 58 62 60 63 61 69 64 64 65 62 65 67 65 65 68 68 70 67 64 63 60 64 66 61 62 62 59 58 55 55 
29 43 52 54 58 56 58 60 57 57 57 63 55 56 57 58 60 56 59 60 62 54 56 59 63 55 56 53 56 57 58 56 55 56 55 54 57 53 51 56 88 107 109 106 105 106 101 94 85 75 68 69 66 63 66 67 66 69 66 63 69 66 67 68 66 67 67 65 65 61 61 64 64 63 64 59 61 62 53 59 
27 36 46 53 59 61 57 59 58 57 59 59 60 60 60 61 62 63 62 65 70 64 58 57 58 56 56 57 60 57 56 59 57 57 58 49 56 51 50 55 93 104 110 116 111 113 111 114 113 109 104 98 86 79 71 76 71 68 66 70 68 69 69 71 69 68 71 70 64 65 59 67 66 62 66 64 64 64 59 62 
24 37 55 53 57 62 54 62 57 60 59 63 61 63 71 73 73 72 67 64 62 66 63 59 61 59 62 60 55 57 59 57 57 54 53 45 49 48 51 52 101 109 110 109 112 112 111 113 116 118 122 125 119 115 102 91 81 78 72 70 71 72 67 71 69 74 73 67 68 63 64 65 67 67 65 60 65 60 64 60 
17 30 46 54 58 59 57 63 57 61 62 61 62 75 110 126 127 115 80 65 64 65 64 67 61 60 58 56 59 61 62 54 52 50 50 46 49 45 50 61 96 109 110 112 115 112 114 117 124 126 125 128 125 119 117 123 113 109 95 94 78 75 71 74 72 75 73 69 64 68 62 69 67 66 64 60 61 63 61 61 
20 31 52 48 59 61 58 64 60 59 65 64 70 98 139 149 147 144 97 62 70 71 74 70 61 63 61 60 61 59 56 52 50 49 46 45 52 46 53 66 105 111 113 113 114 115 119 122 124 128 126 133 129 129 128 125 127 123 122 119 106 105 90 87 76 76 77 70 68 70 69 71 74 68 66 62 65 66 60 62 
18 27 42 50 56 59 59 62 60 61 62 64 72 97 145 151 158 156 103 63 75 84 78 71 65 66 62 64 58 55 54 54 54 53 49 46 50 45 55 68 105 113 112 112 115 117 123 124 126 128 126 131 132 134 132 130 126 126 130 128 123 122 119 115 107 95 85 78 77 73 71 74 72 69 66 64 66 66 64 66 
15 29 36 52 58 59 56 58 59 60 64 64 70 94 148 168 193 172 119 77 81 80 77 75 66 64 64 57 60 54 56 52 59 53 51 47 47 48 54 71 113 115 116 116 118 119 122 127 131 133 135 134 136 139 133 131 133 128 129 130 126 133 122 124 123 121 122 103 96 86 74 78 69 71 68 68 68 70 70 70 
13 23 30 46 52 56 57 58 54 56 60 59 68 84 141 194 200 170 127 81 76 72 64 63 61 63 64 57 55 53 53 51 52 51 49 51 57 48 50 66 111 114 117 117 120 124 125 127 131 134 136 135 141 139 134 132 144 131 129 135 130 131 126 129 129 128 125 116 117 108 97 90 78 74 72 72 72 69 68 66 
8 19 36 45 47 52 55 58 58 59 61 62 64 75 119 151 150 143 133 81 68 66 62 61 60 59 61 58 56 55 56 52 51 50 51 51 51 53 54 74 117 117 116 118 118 121 126 131 130 135 135 135 139 137 134 139 140 139 132 135 132 130 133 132 132 132 128 126 128 118 108 103 102 94 84 83 78 70 67 67 
5 14 27 40 47 55 51 57 55 56 59 63 64 72 104 128 132 131 128 115 92 69 64 60 58 55 58 57 56 53 53 52 51 50 50 48 51 52 57 79 123 120 118 120 118 123 127 138 133 137 137 136 137 138 135 140 139 137 139 136 134 132 134 130 133 128 132 129 126 121 108 110 112 105 99 98 97 85 67 70 
0 19 20 32 41 48 48 56 53 55 55 64 64 78 104 118 120 124 121 111 113 94 68 62 61 58 53 52 53 53 53 53 59 54 55 53 55 48 61 88 124 119 119 120 124 128 131 133 136 136 136 137 139 136 140 140 142 143 141 146 138 136 131 131 133 131 134 131 131 118 110 108 110 112 110 106 107 106 97 80 
3 10 16 29 45 45 52 54 53 52 57 65 66 91 109 103 107 109 116 108 109 98 88 64 62 56 54 52 51 53 55 56 59 59 59 57 60 51 62 91 125 121 121 121 124 132 130 133 136 136 139 137 140 141 144 145 147 144 143 144 143 137 134 129 134 135 131 130 130 124 113 108 109 112 111 112 112 112 107 109 
1 9 21 26 42 46 50 52 52 54 55 63 73 95 100 104 102 105 106 108 108 104 99 77 58 56 61 53 53 56 57 58 62 58 59 61 64 64 70 99 128 126 124 125 133 137 133 135 137 139 137 138 145 142 148 148 145 147 142 150 148 137 138 135 136 134 140 137 132 121 110 112 113 110 113 107 114 115 116 118 
0 5 17 25 39 47 47 55 54 53 52 59 79 88 88 94 98 99 102 99 103 103 100 86 62 54 56 53 54 55 57 58 57 59 61 58 69 71 72 103 139 133 124 125 132 135 137 138 136 139 139 139 146 143 148 148 154 151 146 151 145 142 139 136 137 133 141 136 138 122 113 114 112 112 111 113 111 113 111 107 
6 8 16 24 40 39 50 56 52 53 50 61 75 81 86 88 96 94 95 95 100 102 101 77 61 54 56 54 54 53 56 63 59 61 61 63 70 74 74 113 136 134 128 134 134 134 138 138 137 144 142 143 147 149 149 154 157 152 148 152 146 139 145 137 141 139 140 140 135 126 114 113 112 113 117 112 114 114 112 114 
2 5 12 25 35 44 48 51 57 56 56 63 75 79 89 90 89 92 94 92 91 87 72 66 60 54 56 55 53 55 59 58 59 60 66 60 72 71 75 123 132 137 135 139 137 137 138 140 139 143 141 144 147 149 154 157 156 152 146 151 148 144 143 140 140 138 144 145 142 124 116 116 114 115 118 112 116 115 114 118 
2 7 15 22 36 46 49 53 49 51 60 65 67 78 78 79 82 86 82 76 70 63 60 58 60 54 55 49 52 55 62 61 60 60 61 61 67 71 75 131 158 157 149 142 143 143 140 141 141 142 143 139 145 151 156 159 157 152 151 156 152 143 145 141 144 142 148 150 143 128 115 113 113 114 117 116 116 119 115 118 
0 11 15 26 47 45 49 51 53 54 54 64 66 66 66 66 70 69 68 64 65 56 57 58 56 55 56 54 56 57 57 58 60 58 60 65 68 65 66 104 146 167 173 163 153 150 147 145 143 144 143 145 149 152 154 159 160 155 158 163 158 148 146 144 146 142 148 151 147 123 117 116 117 119 117 117 116 118 115 119 
3 11 17 19 38 43 50 54 51 55 58 63 64 63 62 63 64 61 61 60 60 58 59 58 59 58 58 55 58 59 55 57 57 54 55 55 65 66 68 80 94 135 167 162 172 162 154 152 155 150 150 149 154 151 156 164 165 165 159 167 155 154 149 148 146 149 150 159 145 127 119 119 118 118 119 120 119 114 117 120 
9 11 11 16 41 47 51 53 54 56 56 60 58 58 56 59 58 58 56 58 56 60 58 59 62 60 59 57 58 53 53 52 54 52 51 53 62 64 76 74 70 89 110 146 166 161 179 169 162 160 159 152 154 155 160 164 164 168 159 164 160 157 157 155 151 152 156 155 143 130 120 123 121 121 120 119 124 121 120 122 
8 12 17 18 33 43 51 53 53 56 57 60 59 59 54 58 55 57 56 58 59 57 61 59 62 62 65 64 66 51 51 50 50 49 50 49 61 71 72 76 69 78 81 86 113 151 177 193 189 172 160 165 161 162 165 169 170 170 165 166 162 164 159 159 155 155 158 159 143 127 126 126 126 120 123 122 125 121 120 121 
14 18 17 22 23 37 47 55 53 52 58 62 58 59 54 57 56 55 57 61 62 62 65 67 68 68 64 67 66 58 54 53 49 49 49 50 66 74 71 71 73 81 81 77 73 95 124 174 184 193 185 174 171 169 171 176 178 174 170 175 169 171 161 158 159 160 167 165 144 135 128 125 124 125 122 122 123 121 120 126 
26 33 31 22 29 32 50 58 54 52 55 57 62 63 57 57 60 64 61 65 66 69 72 72 70 70 71 66 63 60 59 54 52 51 46 54 67 74 70 76 72 76 71 71 66 73 76 105 148 172 192 186 187 185 185 189 182 183 177 188 177 174 169 164 169 172 172 168 145 132 126 126 128 128 127 128 131 126 123 125 
49 42 39 34 40 48 52 59 54 58 58 61 59 61 55 62 59 62 66 70 72 71 75 73 72 68 67 71 75 68 69 61 60 49 47 57 69 70 68 70 66 71 69 67 63 68 68 77 83 111 141 180 208 220 209 197 195 190 186 192 187 184 171 167 174 178 182 174 152 136 126 127 128 127 129 128 132 128 129 130 
62 62 57 47 55 53 53 59 59 63 60 60 61 64 60 67 67 63 66 71 68 72 73 68 72 72 75 71 75 72 72 63 65 57 60 59 64 66 65 66 67 65 64 64 69 68 67 72 69 75 86 116 156 206 231 230 214 201 195 203 192 193 181 177 177 180 189 169 150 133 128 129 131 130 131 129 135 130 133 139 
71 71 65 57 61 55 57 58 63 64 64 67 60 63 61 65 67 65 61 64 69 72 72 73 71 75 72 73 71 67 69 66 66 64 61 65 69 64 62 66 64 63 67 68 64 65 70 64 67 70 69 76 94 129 183 211 224 228 221 214 203 199 187 181 180 188 192 175 148 136 131 130 131 131 135 134 136 133 132 128 


