P2
80 60
227
59 60 62 63 64 64 66 63 63 65 62 59 58 54 46 36 36 55 57 61 59 59 57 50 49 52 59 63 66 76 76 76 77 77 76 77 77 73 75 73 73 79 78 77 76 74 74 76 78 77 78 78 79 77 79 78 79 76 74 73 75 71 77 76 71 66 66 66 65 63 65 64 60 62 66 66 62 57 66 60 
63 63 65 65 66 65 68 63 60 64 59 61 59 54 53 36 37 57 57 61 60 62 57 52 50 51 60 62 68 76 77 78 76 78 76 78 76 74 77 74 75 76 76 80 77 79 77 80 74 77 79 77 76 75 79 79 81 76 74 76 71 69 73 72 72 65 68 66 65 61 66 61 61 60 65 64 67 61 67 66 
62 57 65 68 72 70 73 70 66 71 64 60 54 51 50 34 38 51 60 59 62 58 57 59 51 56 57 64 72 78 79 78 76 78 81 78 77 76 80 75 78 78 77 77 76 77 81 78 79 78 80 78 77 79 76 76 75 77 75 79 73 72 70 72 73 66 66 68 65 66 66 61 62 64 65 63 57 54 63 64 
62 62 62 71 82 77 74 81 77 79 70 62 56 57 46 37 39 51 59 62 62 62 59 60 50 57 59 62 68 77 78 79 78 78 75 80 78 76 78 76 74 75 74 76 77 76 82 81 78 78 77 78 76 75 76 76 76 75 74 74 77 73 74 71 73 70 70 67 65 66 64 67 63 61 62 62 62 58 66 61 
60 62 63 77 89 80 81 87 80 84 73 61 56 55 50 37 41 53 59 64 60 60 57 62 50 57 63 65 65 75 76 77 76 77 76 78 74 78 81 76 76 77 78 79 78 75 80 81 76 76 78 77 78 79 77 76 76 77 76 74 72 73 75 76 71 69 67 70 70 66 67 61 63 61 66 62 63 60 63 62 
63 59 65 78 85 85 83 93 86 85 68 62 52 54 48 29 39 52 59 63 62 61 62 62 52 59 62 65 65 74 78 77 75 74 75 78 77 77 77 78 73 78 81 75 78 77 83 77 78 76 77 78 78 76 79 78 74 79 73 79 75 74 75 77 70 68 70 72 71 66 66 62 60 64 65 61 63 59 62 63 
62 61 63 72 74 84 85 82 74 78 67 60 56 49 49 30 37 59 58 63 64 67 64 60 53 60 58 61 70 75 73 76 77 78 77 78 75 79 78 75 79 78 76 78 77 77 77 79 77 74 79 80 78 78 80 75 78 80 79 77 75 74 71 74 71 70 69 68 66 67 62 61 62 60 63 61 62 59 64 63 
60 60 62 70 73 78 78 75 75 78 64 59 54 54 42 32 39 58 60 62 66 66 64 63 53 60 60 63 71 78 76 73 74 77 77 79 76 77 78 80 76 77 74 81 77 75 81 76 76 74 77 78 78 76 77 78 77 76 75 75 74 72 76 76 69 71 69 67 65 63 63 62 64 58 66 62 58 63 64 65 
60 59 64 71 77 80 84 80 80 77 61 62 54 54 44 32 39 56 61 58 62 62 63 64 59 59 60 63 72 75 77 73 76 78 77 80 75 78 77 74 76 77 74 76 75 75 77 78 75 76 76 76 76 76 76 75 77 75 74 77 71 73 73 70 68 69 70 66 64 63 62 62 61 58 58 60 57 59 63 63 
64 61 62 65 81 85 86 86 76 67 65 60 53 52 47 34 40 54 58 58 61 64 62 62 53 59 63 58 66 76 73 74 72 77 79 78 73 77 75 74 77 78 73 76 77 73 78 78 77 74 80 74 76 76 75 73 76 78 76 74 72 73 73 72 71 69 67 68 66 63 61 62 59 60 61 58 60 57 62 65 
61 56 66 69 84 88 89 85 81 74 61 61 52 53 42 29 32 55 60 58 55 60 63 57 53 60 60 62 67 76 73 74 75 77 81 77 75 75 73 76 74 74 74 73 74 73 76 76 75 74 78 78 75 77 75 75 74 73 75 76 71 72 71 74 68 68 69 65 63 65 62 59 62 59 64 60 58 54 66 60 
62 64 70 80 85 87 85 85 80 78 77 68 61 58 46 36 31 56 58 59 59 59 58 58 54 58 63 62 73 75 75 75 78 78 73 75 74 77 76 75 78 79 77 72 75 75 76 75 77 74 77 79 74 76 75 71 77 77 76 75 72 72 74 73 70 70 70 67 65 64 59 60 66 60 59 61 61 55 63 64 
72 71 77 85 85 84 83 83 82 80 84 79 70 68 51 32 37 50 56 58 63 63 58 56 52 58 60 63 71 76 77 74 76 80 76 78 74 76 76 78 76 76 77 74 78 77 82 79 77 75 77 77 72 74 76 70 76 75 76 73 71 67 75 71 69 70 70 65 68 63 55 62 60 59 61 63 64 59 67 66 
75 77 80 80 76 74 74 74 73 78 79 76 70 71 55 36 32 54 54 59 61 63 61 58 55 55 57 63 71 74 75 76 76 79 76 78 74 74 74 75 76 78 73 74 79 77 78 81 75 79 77 76 73 76 76 75 78 77 77 75 72 71 74 76 71 67 69 69 65 63 65 59 65 61 59 60 58 59 65 64 
75 77 80 76 78 75 70 74 71 74 70 72 67 65 59 27 31 52 56 58 60 59 55 57 49 57 60 64 70 73 75 75 74 77 75 77 75 76 75 76 77 74 72 76 78 72 79 76 75 77 75 77 73 76 76 76 80 84 80 75 74 71 75 72 66 67 71 71 67 63 60 60 63 62 56 59 61 61 63 65 
74 71 76 77 83 70 73 74 72 73 67 72 70 70 60 35 35 55 56 57 57 62 52 54 50 56 57 61 67 73 77 77 77 74 74 77 74 75 71 72 75 78 76 73 77 74 77 77 74 74 74 73 74 77 75 73 76 81 77 76 73 73 76 71 72 64 70 68 68 67 61 63 61 59 59 58 57 60 65 66 
71 76 75 73 74 71 69 71 70 70 71 71 67 68 60 35 34 57 53 56 56 59 54 53 53 59 60 62 67 76 75 75 78 79 76 81 74 76 76 75 76 75 72 72 76 79 78 76 72 73 75 75 79 78 76 72 76 79 76 76 74 68 71 72 67 68 69 67 66 68 66 66 69 61 59 56 61 62 66 66 
72 72 72 72 75 72 69 71 71 69 71 72 67 62 58 37 39 54 55 57 58 57 57 54 53 52 57 60 65 71 74 76 77 78 78 74 74 76 78 76 75 75 74 72 78 73 78 77 74 74 74 78 79 78 78 76 77 82 77 77 71 72 70 71 68 69 68 68 65 67 65 62 62 59 60 61 60 62 61 64 
69 72 75 74 75 71 72 69 67 70 70 70 63 62 59 41 36 55 60 57 59 59 59 57 54 57 56 57 66 71 77 76 76 79 79 76 74 76 77 78 75 79 74 75 73 75 75 78 74 72 75 77 80 80 76 74 76 78 74 76 72 71 71 75 71 69 71 70 66 66 63 65 65 58 56 61 61 60 65 64 
70 70 74 70 73 70 69 71 65 67 73 70 65 65 61 45 40 54 56 60 56 61 61 57 55 54 59 63 63 75 80 81 78 77 77 77 75 75 76 74 76 77 76 75 78 72 76 77 75 74 75 74 74 78 75 73 72 73 73 75 73 69 72 77 71 71 70 65 64 67 64 62 62 57 59 61 58 61 67 67 
71 69 66 72 70 71 71 66 65 68 72 69 62 63 55 43 41 54 56 58 56 59 59 58 54 55 61 65 64 76 82 78 78 76 76 77 75 77 78 75 76 79 74 75 73 74 74 75 74 75 75 76 76 76 75 77 78 75 73 75 69 71 73 70 67 66 70 67 67 64 64 64 59 60 61 59 62 60 63 65 
73 69 73 70 72 72 71 70 68 66 72 71 64 64 58 49 43 54 57 57 60 60 57 57 56 55 57 66 66 75 76 79 76 78 74 77 79 76 78 75 75 79 75 71 75 70 71 76 73 74 74 76 74 79 76 77 73 74 78 74 72 71 71 73 65 66 72 69 65 65 61 63 61 61 60 57 62 64 69 62 
65 66 71 72 72 68 69 71 69 72 69 69 57 55 59 43 41 52 55 60 55 61 54 53 53 54 59 59 67 75 75 76 76 79 74 75 77 74 75 76 75 77 72 73 79 72 74 76 72 74 73 76 76 78 74 72 73 77 75 75 75 70 72 70 68 74 68 74 68 66 67 61 61 60 61 62 59 59 68 65 
65 65 71 70 73 67 71 72 68 73 74 66 53 50 50 44 46 51 57 55 56 60 54 55 51 54 59 64 66 73 74 75 74 78 74 76 75 73 76 75 74 72 73 72 76 70 76 75 72 76 75 75 78 75 72 72 76 78 75 72 70 69 72 72 71 66 73 71 66 68 65 68 61 59 58 59 59 60 65 66 
67 60 64 68 70 66 69 70 70 71 74 67 54 52 43 29 31 51 54 57 54 59 58 52 49 56 58 61 66 74 73 73 73 74 76 76 71 75 76 76 75 78 73 73 77 75 74 75 72 76 73 78 74 73 74 71 76 75 75 74 73 68 75 75 68 68 71 69 67 65 64 66 66 61 61 62 62 61 68 67 
71 64 71 70 69 64 68 69 67 71 70 66 52 48 45 28 30 47 54 53 54 59 56 53 51 53 56 63 64 70 73 72 73 75 73 75 76 74 77 74 74 73 74 75 77 78 77 78 74 74 76 74 72 77 77 73 75 75 80 76 74 72 73 74 75 67 71 69 66 62 66 64 64 59 63 60 61 62 65 66 
70 66 69 70 69 66 69 68 63 69 69 61 45 49 42 27 32 50 53 55 56 56 61 55 50 55 58 62 64 71 73 71 73 74 73 76 73 72 75 73 73 79 74 74 76 74 79 77 72 76 77 74 74 73 73 74 75 74 77 72 73 71 72 74 70 67 69 69 62 63 63 61 64 60 63 62 61 61 64 68 
67 62 68 70 73 68 67 66 67 69 67 61 51 46 38 24 30 48 52 55 55 58 54 52 49 55 62 64 68 74 72 71 72 73 72 75 74 74 75 75 79 77 76 73 74 66 76 75 72 74 74 75 73 73 75 73 76 76 74 74 75 69 73 73 69 70 68 69 64 67 64 66 62 60 59 58 61 63 68 66 
65 62 68 68 67 66 68 66 65 65 67 57 49 49 38 23 29 47 49 54 57 59 54 52 51 56 57 62 68 70 74 70 73 73 74 76 75 74 73 79 75 76 76 74 75 73 76 76 73 74 73 76 73 76 75 73 73 76 72 75 75 72 73 77 72 71 71 67 64 67 65 62 62 60 63 62 63 64 70 67 
64 63 68 62 66 65 65 65 64 65 64 61 48 45 35 23 27 44 50 54 55 61 51 53 49 53 56 63 65 74 74 73 73 74 70 77 75 79 77 75 76 77 75 76 77 76 79 75 75 74 79 76 75 76 75 78 73 76 72 74 74 70 73 72 72 72 73 73 67 66 65 63 61 59 65 64 62 64 67 68 
57 66 64 59 64 65 62 65 60 63 63 59 45 43 35 21 30 45 52 51 55 55 51 53 47 54 57 60 69 75 74 72 70 74 75 76 76 74 77 77 76 77 81 77 77 74 78 79 77 72 76 76 75 72 78 73 75 75 71 70 73 71 75 73 72 72 72 72 68 65 65 61 61 60 58 58 62 63 68 63 
60 65 58 59 61 59 59 64 58 61 62 60 48 43 36 28 33 44 50 48 52 54 54 48 51 53 57 56 66 74 74 72 71 76 74 76 72 75 76 76 78 83 80 78 78 73 76 81 77 78 76 73 77 77 80 75 79 78 73 76 75 71 73 72 71 70 71 73 64 68 62 60 62 58 64 61 63 58 66 66 
56 60 59 60 60 59 56 60 55 58 59 58 50 46 34 28 30 46 47 51 54 57 54 49 48 54 58 57 64 75 74 74 72 76 71 75 74 75 76 75 79 81 79 76 76 74 75 76 75 74 77 76 76 75 76 76 72 75 73 72 70 73 74 76 71 69 73 71 71 64 65 61 62 62 63 63 59 60 63 69 
56 56 55 56 59 57 58 57 56 58 58 57 46 40 38 23 27 40 51 51 55 50 50 50 47 53 55 63 66 77 75 74 72 76 72 74 72 72 75 74 75 79 80 79 78 75 75 77 72 76 77 77 74 77 71 73 74 73 75 74 76 74 71 75 70 69 70 72 66 66 63 63 62 57 62 61 66 62 65 67 
56 50 56 55 57 54 55 55 52 57 58 57 45 46 36 22 23 44 49 52 51 53 49 51 48 50 54 57 64 73 72 76 73 74 75 74 74 75 74 76 74 79 80 77 78 79 80 79 73 75 75 76 77 76 75 72 77 76 74 69 72 73 74 72 69 70 71 71 64 60 63 62 64 60 64 61 66 67 70 66 
47 45 49 48 52 50 54 52 50 52 52 52 46 43 34 17 20 38 50 51 50 50 48 44 45 48 49 54 60 70 73 75 74 75 74 74 74 75 77 77 75 80 77 78 76 75 80 81 77 74 77 75 76 78 78 76 78 73 74 72 72 72 73 72 72 70 69 72 66 65 62 62 65 58 66 70 68 70 71 68 
45 39 42 44 47 45 51 49 45 46 48 50 41 43 38 19 21 42 47 48 47 49 45 47 42 47 49 56 63 67 74 74 75 76 74 73 74 76 75 78 75 77 77 77 77 73 74 75 76 75 79 76 79 78 75 74 76 74 74 74 73 75 73 70 71 71 71 68 66 65 62 61 60 67 74 70 75 69 78 72 
39 39 40 45 46 46 47 48 44 46 47 45 43 43 33 23 22 45 46 46 48 48 46 48 40 45 49 54 61 72 73 73 75 76 75 75 75 74 77 75 76 78 79 76 76 74 77 76 79 76 80 78 77 75 77 74 74 74 74 73 74 72 73 73 70 73 69 68 65 64 63 68 71 70 73 76 71 71 78 73 
43 39 47 43 43 44 46 45 42 44 47 48 44 44 34 25 24 40 43 46 45 48 46 41 37 45 48 52 64 70 71 70 73 75 75 77 76 76 80 78 76 78 77 76 77 77 79 78 77 78 79 76 81 79 77 76 76 73 73 74 72 72 71 72 70 72 74 70 68 67 73 71 72 70 74 74 76 76 74 77 
40 36 40 41 45 43 46 46 39 40 47 47 41 41 31 25 17 33 42 43 47 45 45 40 41 45 43 50 64 70 68 71 74 79 74 76 76 75 78 79 75 79 76 77 76 76 83 82 78 78 77 77 78 79 79 75 76 76 73 74 73 73 71 69 70 73 72 72 74 73 72 71 74 74 76 73 76 75 75 76 
39 34 37 40 42 41 42 43 37 41 44 42 44 41 36 24 22 35 42 47 42 43 40 36 38 43 48 50 61 65 72 69 72 78 74 77 75 76 77 78 78 79 79 77 78 77 76 80 79 80 81 81 79 84 77 74 77 74 74 75 72 70 74 75 73 74 77 74 71 73 70 73 77 85 89 83 84 78 80 77 
39 36 38 38 41 39 43 40 35 39 39 44 37 42 33 27 20 30 39 42 42 38 37 35 33 37 46 50 58 62 72 72 75 78 75 76 81 77 78 80 79 82 80 77 81 77 78 83 79 77 80 76 78 86 78 76 82 76 74 77 74 68 77 76 80 76 74 71 73 74 72 70 73 81 109 107 105 101 93 81 
34 38 45 38 41 38 41 40 35 39 40 37 36 41 34 22 19 30 39 40 37 40 36 34 32 37 43 46 50 63 70 70 74 73 75 81 77 79 79 77 76 80 81 77 80 78 77 83 85 84 91 80 81 82 76 76 81 78 74 75 74 77 79 76 79 76 78 74 75 69 66 62 66 88 119 119 124 117 118 107 
36 33 32 33 39 40 38 38 37 36 36 42 39 40 33 23 17 25 40 40 36 36 35 36 29 35 40 45 57 64 69 72 73 75 75 75 76 76 79 81 80 82 83 79 83 83 90 91 84 86 82 87 81 82 78 78 80 77 78 80 78 76 77 79 80 79 79 72 69 68 64 64 66 94 121 125 128 120 129 123 
33 33 31 31 32 39 37 37 34 43 37 38 35 38 37 24 20 19 37 39 37 39 35 33 29 35 39 42 55 69 70 74 72 76 77 78 78 77 82 80 83 84 85 93 95 102 105 93 97 84 83 86 84 79 79 80 83 84 82 80 78 84 78 80 80 77 76 72 66 63 63 64 73 102 132 130 128 126 132 130 
31 32 32 34 33 31 35 36 31 33 32 38 34 32 32 24 18 19 30 35 35 34 34 28 26 32 34 42 49 61 70 71 71 73 74 79 76 78 79 79 78 84 104 127 145 155 152 113 100 87 85 83 84 87 91 84 85 83 79 82 82 79 82 76 77 77 69 63 71 65 66 67 77 108 129 132 131 129 134 130 
23 29 29 23 31 32 32 29 27 29 34 33 31 36 30 22 12 16 33 37 34 32 29 26 25 30 41 37 51 62 67 70 72 74 74 78 76 79 81 78 82 85 115 155 170 173 176 156 112 86 84 88 92 87 86 80 81 83 82 85 78 78 76 74 72 71 68 72 66 65 64 68 80 117 127 129 131 135 135 137 
24 24 28 28 28 28 28 33 25 27 30 31 30 31 27 20 14 14 33 36 31 34 30 31 23 29 32 36 49 60 69 67 71 72 72 78 74 79 80 82 83 92 120 159 173 176 181 164 114 83 85 95 95 84 85 84 88 87 86 79 77 77 72 73 70 68 70 70 69 64 70 63 88 126 130 128 131 132 135 132 
26 19 29 24 29 25 28 31 24 28 28 28 25 27 27 18 11 11 26 33 32 30 31 35 19 27 32 34 42 55 65 68 69 73 73 75 74 79 75 79 83 87 126 167 178 189 190 174 116 88 94 105 104 96 88 85 85 82 79 76 72 70 72 69 73 69 68 72 64 65 65 70 89 129 135 134 134 133 139 134 
23 19 19 20 18 16 18 19 17 21 24 21 23 24 20 22 5 13 26 26 29 29 29 27 17 26 30 32 41 56 67 65 70 72 72 72 76 79 78 83 81 89 121 180 204 226 212 180 133 98 99 97 98 96 92 86 81 81 76 80 73 71 70 70 68 70 72 69 67 68 66 73 103 132 131 135 134 136 139 142 
16 15 18 14 19 16 16 16 12 14 19 16 12 18 16 7 1 9 21 27 28 26 20 27 17 21 28 33 41 56 61 68 70 72 73 74 74 75 79 79 83 87 112 173 217 227 224 179 137 92 89 90 89 90 83 85 78 77 75 76 75 73 73 71 70 68 72 69 68 69 69 74 111 136 136 138 137 136 140 143 
11 13 15 4 16 9 10 11 8 10 15 12 9 9 2 0 0 0 20 26 28 25 20 23 14 19 24 30 41 54 63 60 66 72 74 75 74 75 78 79 75 86 98 150 175 190 188 165 137 89 81 76 81 83 82 78 78 74 75 74 77 74 71 69 68 70 72 71 69 64 68 81 123 138 139 141 137 134 138 140 
6 15 18 23 24 23 25 24 28 26 27 20 22 22 9 6 3 2 16 24 22 24 20 24 18 18 23 26 31 57 58 64 69 68 70 74 74 75 77 79 80 88 99 137 154 157 164 163 147 116 91 81 80 81 81 80 78 77 83 75 74 74 71 72 69 72 70 69 68 64 70 91 133 136 139 138 136 133 137 138 
30 46 47 58 65 64 65 63 67 68 68 67 60 58 55 44 16 17 14 23 21 22 21 20 17 17 22 32 35 46 58 62 65 69 70 72 69 71 75 74 78 91 113 130 146 140 151 147 146 134 125 92 83 80 81 75 80 78 72 73 75 75 79 78 72 76 72 71 69 67 72 97 140 139 138 137 138 134 143 140 
72 76 75 80 84 85 77 80 78 82 86 84 81 79 77 70 43 17 19 21 19 21 21 17 15 16 26 30 34 48 60 64 67 68 69 72 72 70 73 75 85 104 123 124 133 134 142 136 137 137 131 120 95 80 80 75 81 77 74 75 76 77 78 81 76 75 76 74 73 75 81 111 143 137 141 140 139 137 140 143 
81 86 85 84 87 81 87 86 82 88 90 89 90 87 87 77 69 24 18 21 18 18 17 15 13 12 24 28 32 45 52 61 62 68 71 68 69 69 74 79 91 112 117 123 125 126 130 131 128 126 126 126 109 85 76 75 80 74 77 76 79 81 81 82 82 79 80 81 77 83 88 119 149 142 137 140 138 136 146 145 
89 89 84 90 88 86 87 89 91 88 93 93 94 90 92 88 85 39 18 16 13 17 13 14 14 20 22 27 28 43 56 57 63 65 69 70 67 66 69 76 98 111 107 115 120 122 124 126 129 124 126 126 122 91 75 76 77 75 76 76 77 79 83 80 85 82 86 78 85 86 96 134 155 140 141 144 141 139 147 148 
91 86 88 88 91 89 92 91 88 94 94 96 92 97 90 89 79 48 13 12 13 14 14 16 10 20 20 20 31 49 55 60 63 67 68 70 68 70 72 81 95 106 106 110 116 118 118 130 120 125 126 125 123 104 75 74 76 75 70 74 80 81 81 83 80 84 84 86 85 91 101 145 149 143 146 145 140 139 149 148 
92 91 90 90 93 89 93 92 94 106 98 95 93 92 94 89 88 69 17 9 10 12 11 12 12 14 16 25 30 47 56 58 65 65 70 71 71 72 79 86 97 98 102 108 112 117 116 121 119 119 124 125 123 101 83 76 75 74 73 80 78 80 84 82 81 79 87 88 93 89 111 155 154 145 146 149 147 144 151 151 
96 90 92 89 90 86 97 91 93 97 94 98 95 91 90 94 86 85 50 13 9 12 13 12 14 17 17 24 32 44 53 57 64 67 69 71 75 74 85 88 95 99 103 107 113 111 117 115 113 118 118 115 114 94 81 76 72 71 78 77 77 77 80 81 75 80 82 90 88 86 120 161 155 146 147 149 151 149 150 149 


