P2
80 60
132
118 117 118 118 115 116 111 113 113 115 111 103 102 102 106 108 112 113 117 114 114 112 115 112 113 116 114 117 119 121 124 121 122 120 122 121 118 125 118 119 118 117 116 120 117 118 121 124 124 117 118 118 123 124 120 123 121 123 121 119 117 114 117 114 115 113 108 107 111 109 114 114 110 109 111 105 105 103 108 114 
120 119 119 114 116 113 108 119 114 114 109 107 104 105 105 109 114 115 113 112 115 114 114 112 113 113 116 117 119 123 121 125 123 122 122 120 123 119 122 117 117 117 120 118 116 118 119 123 121 117 120 118 121 124 121 127 124 122 118 120 113 115 115 114 111 110 110 110 112 111 110 114 105 107 108 107 107 102 108 112 
119 120 115 114 113 116 117 116 116 112 108 108 106 103 105 108 113 113 109 114 114 112 113 114 112 111 119 117 121 124 121 122 121 121 126 122 122 125 119 120 121 121 118 119 116 119 118 125 125 121 120 120 120 122 121 123 122 119 120 123 120 116 112 117 112 108 110 110 113 113 116 114 108 110 108 108 110 107 111 113 
122 120 120 112 118 116 117 117 115 117 116 108 105 109 110 113 114 115 114 112 115 115 111 114 116 112 119 117 124 126 124 123 122 125 125 123 122 127 125 119 118 121 118 118 117 119 120 123 128 121 119 120 122 124 121 121 120 119 119 124 121 116 118 116 114 109 114 114 112 112 114 116 109 107 110 108 114 108 114 114 
124 119 123 117 119 119 115 112 115 116 112 104 105 109 109 114 113 114 110 112 108 112 114 108 114 115 121 118 120 124 122 118 118 119 125 124 120 122 124 120 119 124 117 116 116 119 122 126 121 120 121 121 122 125 122 124 122 120 119 120 122 119 116 116 114 108 112 113 115 116 114 112 111 109 112 108 110 105 113 114 
122 118 121 114 119 117 117 118 118 113 114 106 103 107 103 112 113 115 112 117 113 114 115 113 113 114 116 117 119 123 120 116 122 121 121 120 118 121 123 120 119 118 118 118 115 115 123 121 122 120 119 124 125 125 119 123 119 119 121 121 116 116 116 112 113 110 111 116 123 112 114 111 110 108 109 106 105 108 110 111 
123 119 119 119 122 120 119 115 113 115 110 107 104 111 109 107 119 116 112 111 114 110 111 113 112 114 116 116 120 124 121 121 119 118 119 121 123 121 122 118 118 117 118 115 117 118 120 120 122 119 119 124 122 124 118 125 121 122 127 121 117 115 118 114 113 109 111 113 115 111 110 110 110 111 112 109 106 104 112 112 
123 120 121 119 120 123 119 116 120 114 110 104 103 109 106 111 118 112 112 112 115 108 114 115 113 115 118 117 120 125 121 116 121 120 122 122 119 121 119 117 118 121 117 117 117 116 123 120 118 121 121 118 124 123 124 121 121 121 120 119 121 119 120 114 121 112 111 115 120 114 110 110 110 109 107 106 106 104 110 115 
120 121 121 120 119 122 122 116 117 117 113 103 103 105 111 109 115 113 113 109 109 110 111 113 111 116 114 115 120 122 121 115 120 120 117 121 123 119 120 114 117 119 119 117 114 119 120 122 123 117 119 121 119 129 118 121 118 118 118 120 114 114 118 113 116 113 114 117 119 112 110 114 107 108 107 103 105 101 109 108 
121 120 122 118 120 118 117 115 114 114 108 104 102 102 107 111 117 112 109 108 109 110 109 110 109 113 114 115 118 119 116 116 118 114 117 116 115 114 115 115 116 115 116 116 116 114 120 119 119 119 121 117 121 121 118 119 117 110 117 117 117 116 116 111 114 111 112 117 118 111 108 113 108 110 107 108 109 102 111 109 
118 121 119 119 121 118 123 115 112 116 104 102 103 101 109 111 113 108 106 106 106 108 108 106 107 113 112 115 114 116 117 118 118 113 115 112 116 117 113 115 117 114 117 112 114 117 116 120 120 115 120 118 118 119 117 119 115 117 121 119 115 114 118 115 113 110 113 117 115 111 109 114 112 106 110 111 108 103 108 115 
120 118 122 116 116 116 120 113 114 108 105 99 101 101 105 110 108 104 104 106 105 105 105 108 106 107 108 111 114 116 118 112 114 117 112 112 112 113 113 113 119 116 113 114 112 114 116 118 117 113 115 116 117 116 118 117 116 117 114 115 116 117 115 110 112 107 107 113 110 108 104 108 106 108 107 113 110 100 110 115 
117 123 122 121 117 115 116 112 111 106 101 97 103 96 102 106 108 105 104 102 103 109 104 106 102 108 110 112 114 114 114 112 115 115 112 111 114 110 115 110 114 115 113 114 116 115 119 115 117 117 116 114 114 115 115 119 116 115 114 113 114 109 118 111 112 106 109 110 111 108 95 105 105 107 107 108 108 108 112 114 
121 123 122 117 119 114 112 109 111 105 97 100 99 98 98 106 107 106 102 101 104 105 105 106 104 107 108 110 110 113 114 113 112 115 114 111 112 114 111 111 116 116 113 111 113 119 119 121 121 120 117 115 118 119 115 119 116 118 119 114 116 116 121 112 114 109 111 114 106 108 107 105 106 107 106 106 106 104 112 109 
122 115 120 114 116 117 114 111 112 105 100 96 97 97 101 104 102 105 100 98 102 103 103 105 104 104 107 108 111 112 111 112 110 112 109 113 110 111 109 111 116 117 115 110 113 115 116 118 117 116 115 115 119 121 119 120 119 132 119 115 111 111 115 113 110 107 110 112 114 110 105 106 110 107 106 108 106 106 111 112 
118 116 118 117 113 111 112 107 114 102 96 93 95 94 102 100 105 102 102 98 105 103 102 101 101 103 107 109 110 113 111 107 109 113 111 110 106 107 110 111 117 116 109 115 111 113 113 115 117 115 114 116 118 119 118 118 116 122 119 114 113 115 114 110 112 109 112 107 110 109 105 109 110 108 107 107 104 108 110 108 
118 116 117 111 115 113 111 108 105 96 93 85 95 97 97 103 104 101 98 98 99 98 100 102 100 104 103 108 108 111 110 108 106 114 108 106 110 109 110 110 115 112 114 110 111 115 115 116 114 111 112 113 113 118 119 117 118 118 118 112 116 114 110 112 108 110 110 108 107 109 108 110 115 109 110 104 102 105 110 110 
118 120 114 114 115 113 108 111 105 82 67 74 90 95 97 99 103 101 99 97 100 99 98 100 97 102 104 109 110 109 111 109 110 111 109 107 110 108 109 116 115 112 112 110 111 112 114 112 113 111 111 112 114 117 118 116 117 121 116 113 112 110 114 107 108 107 107 109 110 108 107 111 108 106 106 102 105 108 107 115 
117 118 114 114 113 112 109 109 95 49 17 40 78 87 95 98 101 101 100 96 99 100 100 100 97 103 104 104 111 107 111 109 109 112 111 104 109 106 111 114 115 115 110 109 110 107 112 111 111 113 113 112 116 118 115 118 117 118 115 114 110 110 113 111 110 108 108 113 112 110 107 108 105 106 106 104 104 104 106 107 
116 116 114 114 114 111 114 110 95 39 12 37 78 88 100 100 97 98 98 97 98 104 102 103 101 102 108 107 111 110 112 111 109 113 109 106 109 108 111 114 113 113 111 109 109 109 110 110 109 111 112 113 115 113 114 117 114 114 115 114 110 110 111 108 108 107 108 111 110 108 109 111 106 103 104 103 104 101 105 107 
117 115 116 114 113 113 109 109 90 34 7 43 75 88 96 96 96 99 97 95 98 99 100 99 97 98 102 105 108 112 120 107 109 109 108 107 108 105 110 111 113 115 109 105 108 107 107 110 108 110 114 112 117 116 114 112 115 115 115 114 112 110 109 111 109 104 109 110 111 111 109 107 105 102 104 103 105 101 109 110 
116 118 112 111 112 112 108 104 88 32 9 38 83 88 96 93 99 95 95 93 96 99 97 95 96 99 100 106 110 109 110 106 106 109 107 104 108 108 99 111 115 113 110 104 107 107 107 109 111 110 113 112 113 113 116 112 110 111 115 114 114 109 115 108 109 106 109 113 115 113 109 110 109 105 104 102 108 100 110 112 
113 113 117 119 112 109 110 106 88 28 9 42 76 88 93 95 94 96 96 94 97 97 96 98 96 101 102 105 109 109 109 104 104 106 107 107 104 104 103 110 110 110 108 106 107 105 110 110 111 109 115 112 115 115 113 112 114 110 114 111 112 114 112 109 108 109 112 111 115 111 109 107 109 108 105 104 106 105 111 108 
116 113 117 115 110 109 109 108 81 28 10 44 77 92 98 98 97 98 95 88 95 95 92 98 96 98 102 105 107 107 104 106 104 107 107 102 101 103 100 107 113 109 107 107 104 104 109 109 107 111 111 112 112 114 111 115 112 112 113 114 112 112 112 110 109 108 112 110 110 112 110 109 105 106 104 101 109 107 111 113 
115 111 115 109 111 109 109 105 80 25 6 43 78 90 94 98 100 91 93 90 94 94 93 97 95 98 102 103 105 106 106 104 103 103 102 100 103 98 106 107 108 108 105 104 103 106 109 105 108 109 110 109 110 109 113 112 113 111 111 112 110 113 111 110 109 106 111 110 110 111 108 109 107 106 103 103 106 102 112 111 
114 113 114 106 105 109 104 101 74 22 6 37 79 90 100 97 93 93 89 91 92 90 94 94 94 97 103 104 106 107 104 101 102 104 101 98 103 101 103 109 109 108 104 103 103 106 105 110 108 107 110 110 109 112 109 111 110 107 110 110 113 110 112 108 111 107 110 110 110 111 108 109 106 106 110 105 110 103 111 110 
113 111 106 109 107 106 109 101 72 21 6 32 72 88 98 96 97 94 89 86 88 90 96 93 92 97 102 101 105 105 103 103 100 101 102 100 101 97 102 107 109 105 103 101 104 103 107 110 106 107 110 107 107 108 108 111 106 108 111 109 110 108 109 104 108 106 110 108 109 111 110 107 106 108 107 106 107 106 110 108 
111 112 112 110 113 105 105 100 72 12 0 28 68 88 98 95 96 97 90 88 87 89 93 92 84 95 100 101 104 108 103 100 97 99 100 101 98 99 102 106 106 105 103 100 100 102 103 104 105 105 106 107 107 108 107 109 107 108 111 110 109 109 108 106 108 106 105 110 110 112 106 108 107 110 110 108 106 105 111 111 
113 108 108 105 109 102 105 100 70 17 2 26 71 89 94 92 93 90 87 87 88 86 88 92 87 90 94 99 103 104 101 98 100 98 96 96 96 96 102 111 107 107 103 100 100 98 105 103 105 103 106 107 107 110 105 107 106 106 103 108 107 104 105 107 106 104 109 109 112 110 109 107 108 105 111 104 107 104 110 109 
111 107 105 107 107 105 105 100 84 40 11 49 82 90 94 95 91 84 84 85 82 80 87 85 88 91 96 99 101 102 100 103 95 97 96 96 98 96 101 108 108 106 101 100 96 101 103 103 103 103 104 108 107 105 106 104 106 106 104 106 107 105 105 110 104 104 106 109 110 110 108 108 107 105 108 106 104 104 107 107 
112 108 103 104 107 106 103 99 92 60 59 74 93 92 94 99 98 82 79 81 81 81 85 87 88 97 96 99 103 103 101 100 97 98 95 94 98 98 104 107 104 107 102 101 101 100 105 106 101 101 105 105 106 105 108 105 106 106 105 107 105 105 106 107 104 102 105 109 112 108 106 110 108 106 107 106 105 103 104 106 
112 107 110 105 105 105 101 101 96 87 86 88 96 102 98 98 97 92 80 80 78 83 87 86 88 93 97 101 103 99 100 100 95 97 93 98 100 99 103 104 111 105 98 101 98 99 104 104 104 106 105 103 106 106 105 108 105 107 105 105 105 104 105 106 103 99 107 110 113 114 110 108 107 108 109 106 106 102 108 108 
108 107 107 107 105 105 99 97 89 85 91 92 96 98 99 98 95 93 80 78 81 83 89 89 86 91 91 97 99 100 98 100 94 97 94 93 93 97 103 103 104 103 100 99 97 100 102 101 102 100 104 101 104 105 107 109 106 106 103 105 102 104 107 104 105 103 103 109 114 110 111 110 108 104 104 105 106 103 107 110 
107 105 104 99 106 101 98 99 89 85 88 97 97 99 99 98 103 98 86 86 86 81 85 86 86 90 89 94 97 95 100 93 95 98 92 90 91 96 101 104 105 100 98 100 95 101 103 102 98 104 102 109 107 104 104 104 105 104 105 102 102 106 105 105 105 102 105 106 110 107 109 107 107 104 103 103 106 104 106 108 
107 106 103 99 105 103 101 97 91 86 89 97 98 98 99 98 102 97 89 86 85 85 85 85 84 87 93 91 95 95 95 93 89 92 95 88 91 94 103 103 104 107 98 97 96 98 101 100 101 101 102 104 104 104 107 105 104 105 102 103 104 105 106 104 103 98 102 107 109 111 111 105 108 103 105 103 104 101 108 108 
105 108 107 99 106 105 98 99 93 89 85 94 96 96 100 97 98 93 92 88 91 87 85 86 85 90 90 97 92 99 97 91 92 92 93 89 93 96 102 105 102 101 99 98 95 95 98 101 101 99 102 105 102 100 106 107 104 104 102 103 104 103 106 100 105 100 105 108 108 109 106 105 102 106 104 102 102 107 106 105 
108 107 103 101 98 104 100 100 95 92 91 96 94 97 101 98 100 94 101 94 92 87 85 85 85 85 91 91 95 96 98 91 91 92 94 90 90 95 101 98 104 100 94 94 94 95 97 100 100 99 101 106 104 102 103 104 106 101 102 104 105 100 102 98 104 101 105 107 108 106 106 103 103 107 102 105 104 105 106 108 
107 103 104 102 98 97 101 97 93 90 90 95 99 97 98 98 97 96 96 89 95 92 90 87 88 91 89 94 97 101 95 95 92 93 92 90 92 94 100 100 97 96 98 96 95 96 99 101 100 100 99 100 103 106 105 106 104 100 103 104 102 99 104 101 102 104 103 108 106 106 101 102 102 100 104 104 103 103 108 110 
107 109 113 102 101 99 100 101 95 89 92 98 98 97 97 97 100 99 94 94 93 90 94 95 92 97 97 97 100 101 98 98 101 99 91 91 90 93 107 98 100 97 97 94 94 95 98 100 101 101 99 104 106 105 106 104 104 102 102 104 103 98 102 100 103 103 105 107 105 108 103 105 103 103 103 102 104 102 107 115 
106 108 106 105 98 98 98 106 97 90 100 93 97 100 97 97 98 99 93 92 95 93 95 94 97 98 102 98 99 101 96 101 100 99 92 89 91 95 101 98 95 100 94 96 94 99 102 98 101 100 103 103 106 105 105 104 103 102 102 101 101 97 102 96 102 102 104 106 106 105 106 105 101 103 104 101 106 104 111 112 
105 104 103 102 99 100 97 99 94 90 89 92 96 99 97 96 99 97 92 92 95 94 93 92 95 97 104 101 101 101 99 101 99 102 93 90 86 94 100 96 94 97 95 94 95 99 101 98 97 100 104 108 105 111 106 106 103 102 99 101 100 101 101 98 101 101 104 104 106 104 105 106 102 103 101 102 105 103 119 113 
100 104 102 97 104 97 98 95 96 90 87 88 99 101 95 97 98 97 97 94 90 95 92 92 96 100 100 101 98 101 101 99 100 99 99 91 88 95 98 97 95 94 97 93 93 98 100 102 102 100 100 102 106 106 104 106 102 101 100 101 100 99 95 96 102 98 102 106 105 108 108 102 107 102 103 102 102 106 111 113 
103 100 107 97 98 102 95 97 96 90 85 91 97 99 97 97 98 96 93 92 94 96 98 95 99 97 100 99 98 105 98 100 98 102 97 91 92 96 101 99 92 91 96 97 97 95 101 100 100 101 104 103 103 104 103 106 103 102 99 101 102 101 100 102 102 98 99 106 104 103 105 106 101 102 104 100 103 105 106 109 
103 101 106 98 99 99 97 93 93 87 88 88 94 99 98 97 97 98 96 97 94 95 99 100 95 98 100 98 102 101 103 103 102 99 92 89 89 98 99 98 95 94 94 94 96 96 100 107 102 100 103 101 104 102 102 105 100 102 101 102 105 102 102 101 103 102 102 106 102 105 103 108 101 101 109 102 103 101 112 111 
101 99 99 95 100 95 96 90 94 89 87 85 95 96 96 94 97 98 95 94 98 95 95 96 96 97 97 97 102 108 102 100 99 99 92 85 89 99 97 97 91 92 91 90 95 95 99 100 100 99 101 100 104 101 104 101 101 105 101 100 101 100 100 102 104 104 103 105 106 102 105 102 102 99 99 104 104 101 108 110 
103 99 96 93 99 97 95 96 91 83 88 89 95 98 96 96 102 99 98 96 95 93 93 97 94 98 100 99 104 103 104 99 100 94 90 87 91 99 98 91 91 93 90 90 91 98 99 99 99 97 103 98 103 101 103 101 99 101 102 102 97 98 104 105 102 106 106 110 106 105 106 103 105 103 108 102 107 105 106 113 
103 98 99 94 96 100 95 94 88 85 89 95 95 100 99 99 99 100 93 96 95 94 92 96 100 98 99 98 103 104 102 102 101 98 87 86 94 99 99 91 90 92 94 92 91 95 101 99 100 100 100 99 102 102 103 102 103 103 101 101 100 99 102 100 102 103 104 105 104 106 106 106 101 108 103 102 105 101 105 108 
101 101 100 93 99 98 99 99 88 87 89 93 97 99 99 98 96 96 95 97 96 94 98 98 93 99 98 99 102 104 99 98 99 101 89 88 93 96 103 91 92 93 90 93 94 94 99 101 98 98 99 99 100 105 102 102 105 105 105 105 104 106 103 105 104 105 107 110 105 104 105 104 105 103 105 105 108 101 104 108 
103 99 99 97 98 100 95 94 91 83 88 94 95 98 96 97 97 101 95 96 93 94 99 96 95 97 97 98 102 103 96 97 99 95 92 91 94 97 96 95 90 91 92 91 92 93 99 99 98 98 99 96 105 106 103 106 107 106 106 107 107 105 108 106 105 104 104 106 105 104 104 107 103 100 107 101 106 96 102 106 
102 106 100 102 103 100 99 94 85 86 91 95 94 96 100 103 100 97 94 93 94 98 95 95 96 93 92 95 105 101 99 96 97 95 95 92 96 97 93 92 89 93 92 93 90 93 101 102 104 96 100 103 112 116 112 113 112 112 109 111 111 108 110 107 103 102 106 107 107 107 106 106 104 102 96 103 104 98 102 108 
102 104 103 104 104 100 97 96 90 88 90 93 96 98 98 97 101 98 96 96 97 97 94 95 93 93 95 94 101 97 99 93 91 90 92 91 93 95 98 95 95 96 97 93 94 98 102 106 107 109 108 111 113 120 116 116 113 112 110 112 114 110 106 104 104 101 105 104 105 108 106 105 104 98 98 101 101 101 105 99 
103 105 105 105 103 106 95 99 97 87 95 96 96 99 99 99 98 98 97 93 100 97 91 93 91 91 92 92 96 97 96 91 88 91 89 86 98 94 95 94 96 101 94 102 101 101 108 113 109 109 112 114 115 119 115 119 116 116 115 117 110 107 109 105 105 103 107 111 108 109 104 101 103 103 103 103 105 95 105 105 
104 106 108 102 108 107 104 100 91 89 93 96 91 94 93 96 93 93 91 91 88 93 91 91 91 92 95 91 96 99 92 93 86 90 83 85 92 92 95 94 95 97 97 102 103 109 111 113 112 110 112 111 117 118 118 119 115 112 115 114 112 107 111 108 109 107 102 107 113 105 103 103 100 100 103 100 102 97 103 103 
104 101 104 102 107 103 101 93 89 89 89 89 92 88 92 93 92 91 90 87 92 88 91 90 91 89 91 94 94 95 95 91 89 92 86 86 93 93 96 98 98 97 99 104 105 107 110 112 111 112 110 112 114 115 115 117 115 110 111 113 109 108 109 108 104 103 105 105 105 104 103 105 104 103 103 100 101 99 105 103 
103 105 107 101 106 105 102 102 94 95 92 90 92 94 89 95 90 89 92 90 88 91 94 90 90 95 96 93 95 93 93 97 92 89 85 88 92 96 94 95 93 102 100 98 103 105 112 114 109 112 111 113 119 119 115 116 115 112 113 110 109 107 110 108 105 105 110 107 107 103 108 104 101 100 100 99 102 99 105 105 
102 97 101 104 105 101 102 99 93 93 93 96 99 99 96 93 95 89 93 91 94 93 90 94 91 92 94 97 95 94 91 90 89 90 90 90 93 92 93 95 92 97 101 102 104 105 111 110 107 107 110 112 116 119 115 114 113 114 110 111 110 107 106 104 105 102 107 107 105 107 108 104 103 99 99 99 100 95 110 103 
101 102 105 103 102 105 99 98 97 96 95 99 104 98 96 99 95 95 94 97 94 94 94 93 91 92 95 95 97 96 97 96 89 94 90 90 93 92 95 98 99 102 105 105 106 108 111 110 111 108 113 113 113 118 116 118 115 112 116 110 112 111 109 111 108 105 106 105 109 105 106 106 101 103 100 100 101 98 106 106 
105 101 104 100 100 99 99 96 98 97 97 100 104 96 98 100 97 95 96 95 96 94 95 92 90 89 95 92 94 95 94 91 91 92 94 87 94 97 94 94 96 101 103 102 103 105 107 119 111 108 110 111 116 119 114 114 114 112 115 113 109 109 110 106 106 108 104 104 109 109 106 104 104 101 102 100 100 100 101 105 
104 98 100 100 99 101 100 94 97 95 95 98 97 100 100 98 97 97 96 96 96 92 93 95 92 93 93 91 96 93 87 88 90 91 89 90 92 90 93 93 96 103 105 102 103 103 109 111 109 110 111 111 115 117 116 115 112 109 110 114 105 105 105 103 106 106 105 105 109 107 106 102 103 104 100 100 100 95 98 107 
100 104 99 98 100 95 98 99 97 94 96 96 99 103 101 97 97 97 94 95 95 92 95 91 91 92 93 93 97 97 91 91 92 90 90 90 90 92 95 94 96 106 102 103 103 107 109 111 107 106 110 110 113 116 114 113 113 109 111 114 109 108 108 104 105 101 103 105 107 102 102 100 100 97 99 100 105 96 104 109 


