P2
80 60
150
136 138 139 137 140 140 137 139 142 133 140 139 145 142 142 140 138 133 137 136 137 139 137 133 141 138 138 138 138 138 138 138 142 138 138 135 134 134 134 134 137 137 136 136 139 133 132 131 136 134 136 135 135 133 134 133 139 135 143 138 136 133 132 132 129 129 129 126 127 129 128 129 128 128 132 128 127 126 123 125 
137 132 140 140 137 136 137 138 138 138 140 137 140 138 139 139 140 135 135 138 139 137 134 137 134 135 137 139 136 141 139 138 140 136 136 134 135 135 133 131 137 136 135 137 135 134 131 134 133 134 132 134 133 133 136 134 137 136 134 133 135 130 131 128 131 127 129 126 125 129 130 127 131 131 128 124 126 129 124 120 
138 137 138 137 137 136 139 137 141 137 143 138 137 134 138 139 137 137 139 135 137 139 139 134 137 139 139 137 138 144 140 142 141 138 140 135 134 133 133 133 130 137 135 136 137 136 131 132 135 133 136 130 132 134 133 132 134 137 134 133 134 130 129 130 130 129 129 128 125 128 132 130 132 131 129 130 123 130 126 124 
141 135 138 140 137 141 139 140 139 140 144 144 140 134 138 138 141 137 139 137 140 139 136 137 140 138 139 139 140 138 140 139 139 137 138 139 136 134 136 132 136 136 138 135 136 136 132 136 137 133 133 136 132 134 134 133 132 132 133 134 132 128 129 130 130 128 130 131 132 128 132 133 129 128 130 132 128 130 126 123 
147 132 136 142 137 139 139 138 147 139 140 141 139 137 137 140 141 138 138 141 137 138 138 138 138 139 141 138 137 139 135 140 139 137 135 136 133 134 136 133 134 136 138 135 136 134 135 137 136 133 134 135 133 136 133 134 134 132 133 131 132 129 132 134 129 132 129 130 134 130 125 124 128 128 130 125 121 128 124 124 
137 134 139 140 139 139 142 142 141 138 142 138 141 138 135 139 140 138 138 138 138 141 138 136 137 138 138 139 141 136 136 138 139 136 136 134 134 134 135 131 136 141 138 136 134 137 138 137 132 133 135 140 137 132 132 133 132 135 130 134 136 133 129 129 130 131 129 128 135 131 125 124 124 126 128 123 118 126 125 118 
139 135 138 137 140 140 142 143 141 136 138 139 139 138 138 141 143 137 139 137 137 135 140 135 138 138 138 138 134 134 137 137 137 136 135 137 134 132 134 134 136 138 134 134 134 136 134 132 135 132 135 135 133 133 136 135 135 138 140 133 136 130 129 130 129 129 126 133 129 128 122 119 121 123 127 123 119 124 119 124 
139 138 139 141 140 144 142 140 140 135 141 143 140 140 140 141 140 139 145 139 141 139 138 137 136 139 140 139 138 137 136 135 136 133 136 138 132 130 135 131 136 134 132 136 132 136 136 132 134 132 132 138 133 135 132 133 133 136 136 132 134 131 134 131 128 132 129 134 134 128 123 121 117 124 124 124 120 122 122 122 
145 140 140 142 142 140 147 143 139 138 141 139 139 137 136 141 139 138 141 135 137 138 136 135 138 139 140 139 142 138 140 140 138 134 136 136 136 136 135 133 133 133 131 134 134 133 132 136 134 132 134 136 132 129 133 133 134 132 136 138 135 132 131 132 127 131 132 126 129 128 127 124 127 126 125 122 123 126 122 121 
150 141 139 146 142 142 145 146 140 138 140 141 140 135 137 139 143 138 140 139 136 140 138 136 138 139 142 139 137 141 136 136 136 133 134 134 138 134 133 133 132 135 132 134 133 132 132 132 135 131 136 134 132 131 133 133 134 137 134 132 132 128 130 128 129 132 130 131 130 128 127 127 128 127 129 125 123 129 122 122 
145 142 141 140 142 141 150 143 140 138 138 137 139 138 137 137 138 138 138 137 135 136 136 136 138 138 139 141 137 134 133 138 137 135 135 134 133 134 135 133 135 135 131 129 133 133 128 132 134 130 136 133 128 128 132 130 132 131 129 130 129 128 128 128 128 129 126 126 128 128 124 125 128 130 127 126 120 127 119 122 
142 140 141 146 143 137 147 142 141 134 138 137 140 134 137 135 136 136 136 135 132 135 136 137 134 135 134 136 135 137 133 135 138 142 134 134 133 137 134 131 136 134 130 133 131 135 131 129 128 131 132 131 130 129 130 131 134 133 131 132 132 131 129 126 128 127 125 124 126 123 121 124 124 129 124 122 121 117 122 123 
142 139 144 143 145 140 140 140 139 135 138 139 137 136 133 135 135 137 132 138 132 137 136 136 136 132 133 137 137 135 137 138 136 138 138 139 137 142 137 136 134 134 134 131 135 132 134 133 131 128 135 133 130 130 134 128 132 132 131 132 132 130 133 126 126 127 123 123 124 124 114 121 122 131 129 124 119 125 121 125 
139 135 143 144 144 140 138 137 137 134 138 138 140 138 135 138 136 137 132 131 135 134 135 139 135 134 133 135 136 134 137 135 140 137 138 137 139 142 138 138 135 137 135 133 134 137 135 133 130 136 136 135 129 129 130 128 134 133 132 131 133 130 129 128 127 128 126 126 128 126 120 118 122 122 123 121 123 125 125 121 
141 136 143 143 142 141 142 137 137 134 139 136 135 134 136 136 138 133 133 132 129 136 134 135 133 135 134 135 138 136 133 135 137 135 140 137 138 136 135 135 136 138 137 134 137 132 134 132 132 135 138 138 132 130 130 132 135 144 133 131 129 128 127 126 124 128 127 126 131 123 125 116 116 121 120 116 114 125 125 124 
149 140 146 144 143 142 139 141 139 140 137 134 136 136 136 137 135 134 137 132 132 136 134 135 136 136 135 139 135 135 135 138 137 139 136 140 136 137 136 137 137 139 138 135 136 133 134 133 131 131 134 131 132 129 136 136 136 134 132 133 128 127 132 130 128 126 127 133 133 131 128 120 116 119 119 115 117 122 122 127 
149 142 143 143 140 137 138 137 138 136 136 138 137 136 143 137 136 133 133 130 134 137 136 133 136 133 135 135 132 136 134 137 136 141 141 139 137 137 139 135 138 137 134 134 136 138 132 131 131 130 133 132 129 131 132 132 135 136 133 128 128 130 127 126 125 128 128 127 130 129 127 125 122 117 119 113 113 122 129 126 
146 140 146 144 141 137 136 138 138 133 138 137 139 138 140 137 138 135 134 135 135 136 134 137 135 133 138 138 139 139 136 138 141 136 138 138 136 138 140 140 134 135 136 137 134 136 134 132 135 129 132 131 136 129 134 133 135 140 134 131 131 129 130 128 128 125 127 127 131 127 127 123 117 121 121 115 114 121 126 120 
143 143 142 145 141 140 141 142 140 138 139 138 134 135 133 138 133 135 138 133 132 133 138 138 136 134 136 137 142 139 136 135 141 139 139 138 139 137 136 134 136 134 136 136 133 131 131 130 131 130 132 132 133 130 131 129 136 137 129 130 130 130 130 129 125 129 127 127 130 124 127 123 119 119 118 111 115 125 119 122 
142 145 144 140 137 148 142 140 137 138 141 135 136 133 136 139 134 132 134 130 132 139 139 136 136 138 139 137 137 138 134 137 135 137 136 136 136 139 135 136 137 140 135 137 130 131 129 134 130 130 127 134 132 133 129 130 131 131 132 127 129 129 130 129 129 129 128 125 131 126 125 120 115 115 115 111 111 122 122 124 
144 142 143 139 137 141 138 130 137 137 138 136 135 136 135 136 134 134 132 134 133 136 135 134 135 134 135 134 133 134 144 139 133 131 135 136 135 136 135 134 135 140 136 134 131 130 130 127 130 128 132 132 129 129 130 128 131 127 127 128 128 128 130 124 128 128 127 124 127 124 127 122 117 114 117 107 109 120 122 121 
144 146 141 139 140 139 141 136 137 136 137 136 143 136 135 135 133 135 134 135 133 134 137 135 135 132 135 134 135 134 135 135 135 136 132 135 135 134 134 133 137 136 130 130 129 130 128 131 127 127 133 131 129 132 129 126 132 131 129 126 128 128 124 130 129 130 128 127 127 127 123 120 117 114 116 111 109 120 122 117 
143 142 144 140 139 146 142 141 138 138 139 136 138 137 137 136 134 136 134 134 135 134 130 132 136 135 135 136 134 132 132 133 134 133 132 137 134 137 137 136 135 134 131 130 130 129 131 128 127 128 131 133 131 129 132 129 132 128 129 131 132 127 129 128 128 129 130 128 128 130 122 121 121 117 110 114 112 123 120 120 
140 138 141 144 140 143 140 146 138 135 135 138 138 135 134 138 137 135 136 134 135 132 134 131 134 133 132 133 135 132 134 134 134 136 132 133 137 137 133 135 130 134 134 131 129 131 130 127 128 133 130 128 130 129 129 125 134 133 126 128 128 131 128 134 130 130 134 128 128 127 126 119 115 117 115 110 109 120 124 119 
140 144 140 141 142 141 140 140 141 139 136 140 137 135 136 142 139 133 134 133 140 136 132 133 133 132 134 131 132 138 134 131 134 133 132 132 136 136 137 128 128 133 136 132 134 130 129 128 129 129 131 130 125 129 129 128 130 133 126 128 130 133 125 132 130 129 130 125 130 127 121 118 116 119 115 111 106 119 124 124 
144 138 139 138 136 136 137 139 137 138 139 139 136 132 139 138 137 134 130 134 133 135 136 136 135 133 134 135 131 133 130 130 132 134 131 135 136 133 131 130 129 133 129 131 128 128 127 129 127 128 129 125 128 127 125 124 124 129 131 130 127 128 128 127 125 126 127 126 130 128 122 117 116 116 113 109 109 117 121 124 
140 138 137 138 135 137 138 136 138 134 135 136 139 135 134 136 135 135 134 132 134 134 139 134 133 132 136 134 132 130 132 130 132 132 135 135 134 134 131 129 127 133 129 130 127 128 127 124 128 125 129 126 126 125 124 127 128 125 130 127 129 127 126 126 125 128 125 128 127 124 120 117 115 117 110 108 107 118 122 120 
140 133 140 141 137 135 140 141 137 137 137 139 136 135 133 134 135 132 133 133 133 133 133 135 134 131 135 136 133 131 133 133 128 132 128 131 134 131 129 130 131 128 127 130 129 127 127 127 126 125 128 129 129 126 127 126 130 127 125 125 127 126 127 129 128 124 126 126 126 126 121 114 114 115 113 109 108 118 116 121 
135 137 139 139 136 141 138 138 141 141 136 140 137 137 133 136 133 134 133 137 131 132 130 131 132 133 133 134 134 132 130 131 132 128 130 132 132 133 130 129 129 130 129 129 129 128 127 127 126 125 131 124 126 125 123 125 126 127 125 125 127 127 126 129 125 127 127 125 124 124 120 116 114 110 110 107 106 119 116 114 
142 137 144 137 139 135 135 140 144 138 137 138 137 135 135 135 132 132 133 132 130 132 134 133 133 131 132 132 132 133 130 135 133 133 133 135 134 134 129 126 131 135 134 130 129 125 126 122 127 126 130 127 127 125 126 129 128 127 128 123 128 124 128 126 122 128 131 126 125 126 118 113 111 110 108 107 104 117 109 116 
140 134 141 141 136 133 137 136 138 138 142 135 137 134 133 134 135 131 131 132 131 132 132 132 134 132 133 131 132 130 129 132 135 134 138 136 133 129 132 133 132 133 136 130 127 127 122 125 128 128 128 127 124 123 127 124 132 128 123 128 127 126 128 126 125 126 125 128 129 122 116 116 111 111 109 106 105 115 114 114 
140 140 139 139 137 139 138 134 136 132 137 135 135 133 137 135 133 130 135 134 131 132 132 130 133 134 136 130 133 130 133 131 132 132 131 133 132 132 131 131 134 133 133 130 129 124 126 124 126 128 128 127 125 125 124 123 125 125 123 123 124 125 128 126 124 128 127 124 125 123 117 116 111 110 105 105 104 116 113 116 
134 135 140 140 140 138 135 134 139 134 134 135 135 134 133 135 135 131 131 134 135 135 133 133 134 133 132 135 135 130 130 127 132 139 129 131 129 130 129 129 130 133 130 127 129 125 121 125 127 127 126 128 125 125 125 126 126 126 124 123 125 121 126 123 125 125 125 123 129 125 119 114 111 111 106 104 99 113 113 113 
140 135 138 138 136 136 136 134 138 131 133 136 134 134 133 132 136 131 132 128 131 134 134 131 134 133 132 132 134 133 132 128 131 131 131 128 130 130 128 125 129 131 128 127 128 126 125 125 124 125 128 125 123 126 128 127 126 127 124 124 125 125 126 124 126 123 125 124 129 124 116 109 108 110 110 104 105 113 113 112 
140 135 138 138 136 134 134 136 132 135 134 136 134 133 132 136 135 131 132 133 129 133 132 131 134 135 132 134 134 133 132 131 130 135 130 127 133 130 127 126 127 131 129 126 128 130 125 126 125 124 127 127 128 123 126 126 126 126 125 122 124 124 124 125 127 123 123 120 126 123 115 110 108 112 107 105 105 112 111 109 
139 139 140 138 137 138 138 133 133 134 135 134 133 131 134 135 134 135 133 133 128 132 130 132 130 132 129 131 133 134 131 131 130 135 130 132 131 131 127 127 127 131 128 127 126 127 127 127 124 122 125 126 125 128 121 126 123 124 126 124 126 124 125 124 123 123 120 121 125 122 115 112 107 111 110 103 104 113 113 110 
138 139 142 136 137 136 137 135 133 131 132 135 134 134 133 136 139 133 136 134 129 131 131 132 133 132 128 130 133 130 131 132 131 134 130 131 133 132 128 128 129 129 129 126 126 126 124 122 124 121 125 126 125 126 124 126 124 127 125 125 124 126 121 126 122 124 121 122 122 120 111 110 108 107 106 100 100 110 109 111 
142 142 140 140 137 135 138 136 133 133 135 131 134 135 132 135 134 136 134 131 132 131 132 131 131 130 126 127 131 132 130 131 129 132 131 131 130 130 130 126 125 131 127 125 125 127 123 124 124 122 126 128 125 126 124 127 125 125 123 120 125 121 121 122 123 128 122 120 121 119 110 108 103 103 102 98 97 109 108 114 
139 138 145 140 139 134 137 134 138 134 134 136 135 131 132 136 131 133 137 132 129 131 131 132 132 130 128 132 128 129 131 128 130 130 128 133 134 129 130 128 124 129 127 125 125 124 125 125 123 123 128 126 125 125 127 123 123 122 121 121 122 124 121 121 122 126 121 122 119 119 110 100 100 101 102 98 96 111 105 110 
137 139 140 138 136 137 135 134 136 133 138 134 135 132 131 134 133 130 130 132 130 130 134 133 133 131 131 129 127 130 127 129 128 129 130 134 133 129 127 128 125 129 127 126 125 123 125 126 125 122 127 126 127 122 123 122 121 121 119 121 121 120 121 119 120 121 120 116 123 115 81 59 74 98 100 95 97 107 105 108 
138 135 137 137 139 134 134 135 134 132 135 136 131 136 136 136 133 132 130 131 130 131 129 131 132 128 131 127 128 128 128 128 131 130 128 131 135 129 127 123 126 125 125 125 124 126 126 123 125 125 128 134 128 126 122 120 123 120 120 119 119 120 119 118 119 118 115 113 116 111 59 18 39 93 95 95 99 108 109 110 
137 135 141 137 137 132 134 132 130 130 136 135 135 132 133 139 138 129 130 131 130 130 132 130 134 130 129 129 128 128 129 127 126 128 127 132 131 128 127 124 121 126 124 123 127 124 124 122 125 126 128 124 126 122 123 120 120 119 118 118 124 119 118 118 118 117 116 113 114 111 43 4 27 89 96 94 95 107 106 105 
138 133 144 134 135 134 135 135 135 131 136 132 136 133 133 134 134 131 133 131 130 132 130 133 131 131 128 129 128 127 126 126 132 130 129 132 130 129 127 123 126 126 122 123 123 123 125 124 122 121 124 125 125 123 124 119 119 122 115 122 123 121 122 120 118 119 116 115 117 109 45 0 39 84 92 93 96 104 103 101 
139 135 137 135 133 134 132 130 132 130 134 135 133 134 129 133 133 129 130 132 129 131 128 127 129 129 129 126 129 127 130 126 126 126 127 130 128 129 122 123 125 126 122 123 122 126 126 131 124 120 122 119 118 122 119 116 117 120 118 120 119 118 119 118 122 118 118 115 117 104 40 5 31 81 89 90 93 107 102 101 
134 132 135 134 133 133 134 133 131 127 132 133 133 137 132 136 130 132 133 132 131 128 127 129 133 129 127 125 126 129 127 126 126 127 126 127 127 129 125 124 126 123 122 123 123 122 123 123 123 119 120 119 117 116 118 116 115 120 115 117 115 118 119 117 118 120 119 114 116 104 41 3 38 83 89 91 95 102 99 100 
139 134 134 135 136 135 133 132 131 128 131 132 131 137 133 133 134 132 130 128 130 129 129 128 129 126 127 125 125 127 126 128 126 126 124 132 128 130 123 123 121 123 123 123 123 124 121 119 120 117 120 117 116 115 113 114 116 117 114 116 118 116 119 116 114 120 116 114 111 104 37 6 35 82 92 91 93 101 99 100 
133 132 132 133 132 133 133 132 129 129 132 133 131 132 132 131 132 130 129 131 127 131 128 126 125 125 123 126 128 125 125 126 125 125 124 130 131 129 124 124 122 125 122 124 124 124 121 120 119 117 117 118 116 115 116 116 115 115 112 114 119 115 118 115 118 116 114 113 113 100 34 5 27 82 89 92 93 99 97 97 
133 134 133 131 133 131 134 134 130 130 132 131 132 135 135 136 130 131 130 130 130 130 131 126 130 130 126 125 126 129 124 123 124 125 126 126 129 125 126 121 122 123 121 123 123 120 121 121 119 117 115 116 114 115 113 116 119 116 114 113 117 115 116 117 112 113 117 110 112 96 34 6 19 84 86 91 92 100 100 96 
134 135 131 133 129 131 133 133 133 126 130 131 132 133 135 134 133 131 127 129 130 132 133 131 130 125 124 122 126 124 124 126 125 124 126 124 132 128 126 120 119 122 118 120 122 119 119 115 116 112 117 114 116 116 113 115 115 113 115 113 114 117 114 113 111 114 114 110 108 93 24 1 14 76 90 93 92 104 97 95 
136 133 132 132 132 129 131 132 133 132 135 130 132 136 135 140 134 131 126 131 127 130 129 127 126 128 127 126 124 126 124 125 124 125 125 126 129 125 122 120 120 118 119 121 120 120 117 112 118 113 115 114 114 115 116 114 112 114 113 109 113 113 115 114 111 111 110 109 108 92 34 12 24 82 85 95 95 101 100 94 
133 129 130 134 133 131 131 129 130 130 133 130 129 131 132 133 131 131 130 128 129 128 125 127 127 125 124 125 124 124 123 124 127 124 129 126 125 124 125 118 114 118 117 120 119 115 116 116 113 112 113 108 111 114 113 115 116 117 111 114 114 112 109 113 110 113 111 109 108 101 72 44 53 84 92 93 96 103 94 96 
136 129 133 139 135 133 130 131 133 130 131 131 132 126 132 132 132 130 130 129 128 126 126 127 128 128 124 125 125 124 124 124 122 125 130 128 127 122 122 116 114 120 119 117 120 122 116 116 117 110 114 111 112 116 114 115 112 118 115 111 115 109 112 113 112 111 108 108 103 105 91 81 84 92 89 100 99 101 98 91 
135 130 134 136 139 138 134 131 131 131 131 132 130 130 127 128 127 131 129 130 128 128 126 125 129 128 125 126 129 125 124 124 122 124 124 126 125 121 118 118 118 118 115 119 119 119 118 117 116 112 114 112 114 115 113 115 116 117 116 113 111 109 111 110 110 109 107 106 107 106 99 93 94 103 102 102 105 108 104 100 
135 128 132 130 137 139 133 131 131 129 132 131 133 127 128 128 127 127 128 127 129 128 125 127 129 128 129 128 125 124 124 124 124 120 123 119 115 117 117 115 119 117 119 118 116 117 120 118 113 112 115 110 113 115 111 111 116 115 115 110 113 112 110 110 107 110 109 105 106 106 101 96 101 105 104 108 101 108 100 102 
137 127 130 131 134 130 133 132 129 132 134 131 133 129 131 130 127 127 128 128 125 125 125 124 127 127 129 127 122 122 123 122 122 124 122 121 118 113 111 116 115 120 118 117 118 117 112 114 112 109 112 112 112 113 114 112 113 111 108 111 110 111 110 112 108 111 107 104 107 107 101 101 100 105 103 105 103 106 99 101 
129 127 133 128 130 128 133 131 128 128 131 132 132 131 127 131 128 126 125 126 125 125 123 123 126 125 126 123 125 120 121 121 120 120 124 116 114 114 111 113 115 117 116 117 116 113 112 111 110 108 109 110 111 110 115 111 110 111 109 110 110 110 111 109 109 108 107 103 104 99 101 99 100 108 104 106 103 104 102 100 
126 128 131 131 132 131 130 131 128 130 134 133 139 132 130 130 125 124 128 129 126 127 127 123 124 122 123 126 123 127 120 118 124 122 122 118 114 112 114 113 117 117 116 115 114 114 111 113 113 107 111 110 111 110 111 109 112 109 108 107 111 107 108 111 107 107 108 103 105 102 97 97 98 105 102 108 100 103 100 103 
130 125 130 132 130 129 128 132 131 128 134 133 134 131 127 128 129 128 127 127 125 129 131 125 126 122 124 121 126 121 119 125 121 120 120 115 115 113 112 113 112 118 115 115 115 113 109 108 110 110 110 111 109 111 112 109 110 109 112 110 109 108 106 107 108 109 106 104 105 99 98 95 97 104 104 103 102 108 101 101 
128 125 127 132 133 129 130 133 132 133 128 131 130 129 125 124 127 125 123 127 129 126 126 123 123 121 122 124 123 124 120 118 119 121 119 117 114 112 112 114 113 116 124 114 113 114 111 113 109 109 110 109 110 108 111 107 109 107 109 108 111 108 105 108 110 110 107 103 101 97 97 99 95 102 104 103 102 105 104 100 
133 120 132 130 131 128 132 125 129 127 129 130 127 126 128 130 127 124 128 127 127 124 125 122 123 119 123 125 122 121 120 121 119 119 121 115 117 110 113 113 113 113 115 116 111 113 114 111 109 107 105 108 109 112 107 109 108 107 110 109 107 108 107 107 106 108 105 103 101 100 100 97 97 102 103 104 102 103 104 101 


