P2
80 60
150
142 138 143 142 139 138 138 139 141 137 141 138 140 141 138 141 139 133 138 136 139 141 136 137 140 138 141 142 138 136 137 140 142 143 142 135 134 135 133 134 137 138 136 137 139 133 133 132 138 135 137 137 135 133 138 134 136 139 140 137 137 134 133 133 130 129 131 131 126 130 130 133 127 127 132 129 128 128 123 122 
143 135 143 144 140 135 139 139 138 141 142 140 136 138 141 141 140 137 136 138 140 137 133 140 135 136 141 143 137 138 137 140 142 140 139 137 136 134 133 133 140 137 134 136 134 135 131 136 135 135 132 135 133 134 137 135 139 135 139 134 136 132 133 132 132 128 131 127 125 131 131 128 127 125 128 127 128 131 125 124 
141 137 141 140 140 137 139 138 141 138 142 137 136 136 140 140 138 136 136 135 137 138 137 135 139 140 140 141 139 140 140 144 143 138 142 137 134 132 134 134 130 138 136 133 134 136 131 132 136 134 136 130 133 135 135 132 134 133 134 135 136 132 132 131 131 128 130 128 125 128 134 134 130 127 125 130 131 135 130 126 
142 136 141 143 140 139 139 138 140 138 144 141 138 134 139 143 143 136 137 138 143 137 136 142 141 139 141 140 138 138 138 139 141 138 141 138 133 137 135 134 136 136 138 136 136 136 132 134 139 132 134 137 132 134 136 134 133 134 132 135 135 129 131 131 130 128 130 130 129 130 138 138 130 127 130 135 132 133 126 128 
147 134 141 144 138 140 140 136 141 140 141 140 137 139 138 141 143 139 138 142 141 139 138 144 141 140 141 139 137 136 136 141 139 140 136 136 133 137 141 135 135 136 138 135 136 136 135 135 136 134 134 135 133 134 135 135 134 132 134 134 135 130 134 137 129 131 131 133 130 133 131 132 129 128 130 129 129 133 128 125 
138 134 144 141 139 140 143 141 143 138 141 138 139 142 138 141 140 139 138 140 142 141 138 139 137 140 140 140 141 135 136 139 140 139 139 136 135 137 136 132 135 141 138 139 134 138 138 139 135 133 136 139 136 132 134 134 133 134 134 137 138 136 133 130 132 127 130 131 136 132 135 131 130 128 132 127 127 133 124 118 
144 140 145 139 138 141 142 143 143 140 139 140 139 140 137 143 143 138 140 141 143 135 138 137 139 140 142 139 133 134 137 139 138 137 137 139 134 135 134 135 138 138 136 134 136 137 135 133 136 134 134 141 135 134 136 135 136 137 144 137 138 132 131 132 129 126 131 132 130 131 131 129 129 127 131 132 126 129 129 124 
143 137 144 145 141 143 143 141 140 136 139 140 138 139 140 140 139 138 145 140 147 139 139 137 136 140 141 140 137 138 136 134 138 137 139 137 132 133 136 134 136 135 132 137 132 137 137 130 134 133 132 138 135 135 133 134 133 136 138 136 136 131 135 130 128 130 132 131 130 130 134 126 125 123 125 127 126 125 124 123 
146 142 145 145 144 141 148 142 138 141 140 135 138 136 136 139 141 138 140 137 141 138 138 138 140 143 141 139 137 135 140 141 139 136 137 135 137 133 136 135 134 133 131 135 132 135 132 134 134 131 132 138 133 131 133 134 135 133 138 141 136 132 133 133 129 131 133 128 128 131 134 127 122 122 121 123 126 127 122 119 
147 143 144 146 143 142 146 146 143 138 141 138 136 136 140 141 144 140 140 139 140 140 139 137 142 142 143 141 135 136 134 139 140 135 135 134 135 133 132 135 131 135 135 136 133 134 132 135 135 133 134 135 134 131 135 133 135 137 136 134 132 130 132 128 129 131 131 129 130 128 131 127 122 120 122 124 121 128 119 121 
142 142 145 141 144 140 148 143 143 139 137 136 136 137 139 138 140 138 138 141 136 136 135 136 140 139 138 142 136 132 133 141 139 134 135 133 130 133 134 133 134 134 133 129 132 132 129 132 134 131 136 134 132 130 135 131 133 131 129 135 133 130 129 129 131 127 130 129 128 130 126 126 125 122 124 128 119 127 123 122 
143 138 144 147 146 139 143 139 141 135 136 138 137 135 138 139 138 135 138 134 133 136 136 137 139 137 135 139 135 134 133 136 140 135 133 133 131 133 133 131 135 133 126 131 130 135 129 133 130 132 132 134 130 134 133 131 131 133 133 133 133 131 130 127 130 129 126 128 129 125 125 125 123 125 125 125 121 123 127 123 
143 141 145 147 148 141 140 137 139 132 137 137 137 137 136 138 134 136 132 138 135 135 137 137 138 135 136 140 136 136 137 139 138 139 135 136 129 134 135 133 134 131 131 131 133 132 134 133 131 128 135 134 131 130 135 129 133 131 134 134 132 132 134 128 130 128 126 124 127 125 117 124 122 130 127 127 117 128 123 122 
140 136 147 145 148 141 139 137 139 135 137 136 136 137 134 142 133 133 134 131 137 135 135 139 135 136 135 137 135 132 137 138 142 138 134 134 134 137 137 137 133 136 134 133 130 134 133 133 131 137 133 133 129 129 135 129 131 131 136 134 136 130 130 130 127 127 128 127 128 127 129 126 124 122 124 124 126 127 128 123 
142 138 147 146 146 140 141 140 137 136 137 139 135 136 136 137 136 133 134 133 130 136 136 137 137 135 136 138 140 134 133 138 139 135 137 137 137 137 136 136 136 134 134 135 135 133 133 132 132 133 131 132 129 132 131 132 134 142 136 133 130 128 129 130 126 127 129 127 127 126 135 129 124 123 123 123 118 127 127 125 
144 139 150 144 142 141 143 141 142 137 136 135 135 138 136 138 138 133 139 133 134 138 135 136 136 138 137 139 136 134 137 140 138 135 135 137 136 137 137 136 137 139 138 136 134 134 134 132 133 131 129 129 130 129 134 134 133 135 134 134 130 131 133 132 128 123 128 133 128 126 131 125 117 121 123 121 120 124 125 125 
145 142 148 144 144 138 141 138 138 135 135 134 134 134 140 136 136 135 135 130 135 137 135 133 138 134 135 138 133 134 134 139 136 137 138 135 138 137 135 137 138 136 135 133 138 138 133 133 133 132 130 131 131 132 129 131 134 137 137 128 131 132 128 128 128 128 128 126 127 126 129 125 120 116 119 115 112 125 124 115 
142 140 150 144 145 135 137 135 136 132 134 135 135 137 137 134 135 133 133 134 136 135 133 134 137 136 140 138 135 135 137 137 139 134 136 137 137 137 139 138 135 136 133 136 135 136 134 132 133 130 131 130 135 132 135 133 134 140 139 130 133 128 128 128 128 126 125 126 127 127 130 124 117 117 121 117 114 120 125 123 
144 140 142 147 143 138 140 138 137 136 139 137 133 135 132 137 134 134 136 133 133 133 135 137 137 137 139 139 138 134 135 137 139 135 139 137 136 138 139 136 137 136 131 135 135 135 131 131 130 130 131 131 135 132 133 131 132 136 131 132 130 127 129 128 127 129 126 129 129 126 127 126 120 117 119 114 115 120 121 125 
139 142 146 142 139 145 140 138 137 134 140 135 137 134 134 137 135 132 135 131 135 139 138 136 137 138 141 136 135 137 136 138 137 138 136 136 136 140 136 134 138 138 132 134 131 133 131 135 131 133 130 134 132 134 130 130 131 131 131 129 128 127 129 128 130 129 128 125 132 126 130 125 117 115 115 114 113 121 119 119 
138 141 147 145 138 137 138 132 134 136 138 137 135 136 135 133 135 135 133 134 133 136 136 135 135 134 136 135 133 135 145 139 134 133 135 137 135 136 135 134 134 139 135 135 131 131 130 128 130 129 132 134 131 130 130 130 132 131 130 128 130 128 127 129 128 128 127 126 126 128 132 125 120 114 119 113 112 120 125 122 
143 141 144 142 141 140 140 134 135 134 137 136 140 137 136 139 133 133 132 132 134 135 136 136 137 134 137 136 134 132 135 137 139 136 136 136 136 136 136 135 135 135 131 130 130 130 128 131 130 128 134 129 130 131 129 129 133 132 133 129 128 128 126 133 133 130 130 127 126 125 130 123 118 116 118 114 111 120 123 114 
142 140 144 143 140 139 138 139 136 136 137 136 135 137 139 137 135 134 133 134 136 133 132 133 138 136 135 138 134 129 132 137 136 134 134 137 134 137 136 138 134 132 132 130 130 129 133 129 129 128 129 130 129 129 132 129 128 129 128 131 133 127 129 133 132 128 128 127 127 129 126 126 123 115 112 117 111 120 121 114 
141 138 142 141 138 137 139 142 137 134 134 137 136 136 134 135 136 132 132 134 135 135 132 132 135 134 134 135 134 131 134 136 134 131 132 132 136 134 133 134 132 135 130 128 129 131 130 129 128 132 127 130 131 130 130 128 131 129 128 129 126 128 128 136 130 127 132 127 126 127 129 125 117 115 114 113 110 118 123 116 
142 141 144 141 137 139 138 139 139 134 136 137 135 136 131 136 140 133 134 133 137 133 134 132 135 133 136 134 132 132 131 133 133 129 134 130 132 136 134 133 127 128 132 130 133 131 129 129 132 128 128 130 127 127 131 128 127 130 127 127 128 128 125 131 131 129 132 126 124 128 125 121 117 116 114 111 107 120 124 118 
138 137 144 140 138 136 136 137 139 135 135 136 134 135 137 138 136 135 133 132 135 134 135 138 137 136 137 135 132 131 131 131 133 131 133 131 134 133 131 133 131 131 129 131 128 129 128 131 130 128 128 126 129 128 127 124 126 129 132 133 128 127 126 130 127 126 128 126 125 128 128 122 113 114 113 108 110 116 124 120 
141 138 140 141 138 137 140 134 138 137 135 134 136 135 135 136 135 134 133 133 136 133 137 134 136 136 136 137 131 130 132 132 134 132 135 133 132 133 132 133 131 135 130 131 128 131 129 127 130 128 129 126 125 126 125 128 128 127 127 128 129 126 127 129 128 128 127 126 127 125 125 123 115 116 112 111 108 119 123 118 
141 134 144 144 140 135 138 138 138 137 136 134 135 135 134 135 136 133 132 134 135 135 131 136 135 133 137 137 134 134 133 132 131 133 133 131 134 131 130 133 133 130 129 132 129 130 130 129 130 127 126 129 128 125 129 126 130 123 128 128 130 126 128 131 129 123 129 125 125 127 123 124 115 114 115 112 108 116 123 121 
137 139 141 142 140 139 137 138 139 136 136 138 137 139 134 134 135 133 132 135 131 136 131 132 134 135 136 136 135 133 131 133 132 128 131 131 132 133 130 134 131 131 129 128 129 129 128 128 127 126 130 116 125 126 125 125 126 126 123 125 128 125 126 130 128 126 128 126 123 123 126 121 116 111 112 110 108 112 121 114 
143 139 146 142 142 135 135 141 139 136 134 135 137 138 134 136 133 133 132 132 133 133 135 134 134 133 135 136 133 133 130 136 131 131 132 135 132 135 130 130 132 131 130 131 128 126 126 123 129 129 129 130 128 126 128 127 125 127 125 126 129 125 128 131 133 128 132 126 124 125 125 119 117 110 111 112 106 113 113 111 
143 134 146 143 138 132 137 138 138 137 139 135 137 136 134 133 134 130 130 131 132 134 133 133 134 134 135 134 131 132 131 133 133 132 136 134 132 129 131 129 129 130 135 131 128 127 123 128 129 127 129 129 127 124 128 124 131 125 123 124 129 128 130 133 135 127 127 129 126 128 127 123 115 113 110 110 107 114 118 114 
138 142 144 141 138 137 137 133 136 134 135 134 133 133 135 133 133 132 132 132 129 131 131 134 135 133 137 134 130 130 132 133 133 131 131 131 131 131 130 130 134 135 133 130 128 126 127 128 126 128 128 128 127 127 125 124 128 126 122 126 127 126 130 130 131 130 128 124 127 125 128 119 112 108 111 109 104 116 116 114 
139 139 144 144 140 136 136 136 139 132 134 135 135 135 132 135 135 133 131 130 133 132 133 133 133 131 135 139 133 130 131 129 132 134 129 131 129 132 131 133 132 132 130 128 129 127 123 127 129 126 128 129 126 125 125 127 128 125 124 125 129 123 128 127 128 125 126 123 127 128 128 122 112 110 107 108 101 112 117 111 
140 135 142 140 142 138 137 133 137 132 133 134 135 136 135 134 136 131 132 129 131 132 131 133 134 131 135 136 131 132 133 130 134 130 129 128 130 131 131 130 132 130 129 128 128 128 126 127 125 127 128 129 124 126 126 126 126 127 126 125 126 128 127 126 126 122 126 125 127 130 124 117 114 110 109 107 106 113 117 110 
138 135 144 139 136 134 137 136 133 134 134 137 137 135 133 139 136 131 132 135 131 133 133 133 135 136 134 138 133 131 133 135 131 132 132 130 131 131 130 130 127 132 129 126 128 130 128 127 126 126 128 127 129 125 127 128 125 126 127 123 126 126 126 128 127 123 126 124 124 126 125 121 110 111 108 109 108 113 113 111 
138 137 146 142 139 138 140 133 130 134 135 135 134 136 136 136 135 137 136 134 133 133 132 134 133 133 135 136 133 133 134 134 132 134 134 134 131 131 131 128 129 129 129 125 128 128 128 129 127 124 126 129 126 129 123 129 123 124 127 126 126 124 129 126 125 124 123 126 124 125 125 120 111 109 112 107 105 110 116 114 
140 134 144 141 141 137 136 134 134 132 133 133 133 134 134 132 138 135 138 133 133 130 132 133 135 131 130 133 131 128 133 135 130 130 131 131 129 133 130 130 130 128 126 126 126 130 125 126 125 122 127 127 128 127 126 127 126 128 126 128 125 126 125 127 124 125 125 121 122 122 124 118 110 107 106 106 101 113 112 114 
139 138 142 142 139 135 137 135 135 135 135 132 133 138 132 135 133 135 133 132 133 131 134 133 133 131 129 130 129 129 130 131 127 133 134 130 128 132 133 129 127 129 129 126 125 128 124 128 128 124 127 130 124 124 127 130 126 126 129 126 126 122 122 124 124 129 123 125 121 121 123 117 107 103 104 103 102 107 111 110 
135 140 149 143 139 136 139 135 142 135 136 134 132 131 136 135 131 134 137 133 132 132 132 135 133 130 130 134 128 129 132 129 130 131 131 131 132 131 132 131 123 129 126 125 125 126 126 126 124 126 129 125 124 124 130 124 125 123 123 122 125 126 123 123 123 128 125 124 119 122 122 117 104 103 102 102 97 110 112 111 
135 139 142 140 139 137 136 134 138 134 137 133 135 133 132 133 132 131 132 131 131 130 135 135 134 132 131 131 126 130 128 131 131 129 131 131 129 132 129 130 127 128 129 126 126 126 126 126 126 123 130 126 128 124 124 123 121 121 121 123 123 120 123 120 120 121 124 122 120 119 117 105 97 104 104 98 97 109 112 112 
138 135 142 140 139 134 135 135 135 134 134 134 133 136 134 135 134 133 130 133 132 131 131 136 136 132 132 132 128 129 129 130 131 133 132 131 128 130 129 125 128 125 127 126 125 128 127 127 128 127 129 131 129 128 126 121 124 119 122 121 122 121 121 122 122 119 117 120 116 117 112 86 75 88 99 100 102 112 114 111 
139 135 147 138 138 133 135 134 130 132 135 134 140 136 136 132 135 130 130 130 135 132 135 134 135 132 132 133 128 128 129 127 127 128 132 134 131 131 130 128 123 128 124 124 126 124 125 124 127 129 129 127 128 125 125 123 123 120 120 123 127 122 121 123 125 119 119 115 115 117 108 41 24 69 95 99 97 113 105 109 
142 135 146 139 139 136 139 136 134 133 137 132 136 140 138 137 136 134 134 131 133 134 134 134 132 133 131 132 128 127 127 128 131 128 131 133 129 130 130 127 127 126 125 124 124 123 126 126 124 121 126 125 127 123 125 126 122 123 119 123 123 123 125 128 123 119 117 118 116 115 104 28 9 60 91 98 97 108 106 104 
143 133 142 138 138 135 138 132 134 131 134 137 134 137 133 134 134 131 130 133 131 132 131 130 132 131 131 129 127 127 131 129 127 127 127 128 128 131 125 127 125 127 124 127 123 128 130 131 127 122 125 123 121 123 123 122 120 122 121 122 123 120 122 124 126 118 120 116 118 114 101 24 0 43 89 93 93 108 102 99 
139 135 138 136 137 134 136 134 133 130 132 133 134 137 136 135 131 137 132 132 134 130 127 133 135 130 131 129 129 129 130 131 130 127 128 128 128 131 129 128 129 125 122 124 124 126 126 127 126 122 125 122 121 120 122 120 118 120 120 119 120 121 121 122 120 121 122 119 116 114 95 19 3 54 86 95 95 102 109 102 
139 133 139 139 139 136 133 133 132 130 132 133 132 138 136 135 136 133 131 128 133 131 131 128 130 128 130 127 127 126 126 129 129 127 125 131 128 133 127 128 124 123 122 123 123 126 123 123 123 121 122 122 120 118 117 119 118 121 120 119 120 119 119 119 117 122 120 115 117 113 96 17 3 57 84 91 93 104 100 101 
136 135 137 133 133 135 134 134 132 130 134 134 132 133 134 135 132 130 129 131 128 133 133 130 128 126 125 127 129 124 124 128 128 125 125 127 131 132 124 126 123 124 122 126 125 125 123 124 123 120 121 120 120 117 119 120 117 117 118 119 121 117 122 120 121 118 119 120 119 113 97 19 7 54 88 91 92 101 103 99 
138 137 136 136 134 130 137 134 131 132 133 134 133 135 134 138 131 132 132 132 129 133 133 128 134 132 132 128 127 130 124 125 127 124 127 125 127 127 128 126 123 124 121 124 125 121 123 121 122 120 118 120 120 116 116 119 119 117 118 117 118 117 118 120 116 114 118 111 113 111 93 21 5 54 85 91 91 99 102 99 
138 136 137 136 131 134 134 135 132 128 132 132 133 131 137 135 132 134 131 129 131 131 134 132 132 129 134 131 127 124 125 130 126 125 128 122 131 130 129 126 122 125 123 121 123 121 120 119 117 113 119 118 119 117 117 116 115 117 119 118 118 116 117 119 115 116 117 115 110 109 82 21 6 38 86 93 90 101 103 101 
138 136 138 134 135 129 131 134 132 136 138 131 134 135 137 143 137 132 131 131 129 131 132 132 129 129 131 131 127 127 126 127 127 125 126 126 130 126 124 126 124 122 122 123 120 120 117 115 120 117 118 117 116 118 119 119 115 115 119 116 116 114 116 116 117 115 113 113 113 109 83 14 2 33 76 93 93 101 98 96 
134 133 135 138 136 131 134 129 133 134 138 131 129 137 136 133 133 133 132 129 133 129 129 130 131 127 127 126 124 125 125 128 130 125 130 130 125 126 128 123 120 123 122 122 119 117 117 118 116 113 116 116 115 118 119 115 117 120 114 117 118 113 114 118 114 113 112 110 109 107 91 22 5 40 90 92 96 102 98 99 
137 132 137 137 136 132 132 132 133 130 130 131 132 127 132 132 131 133 130 130 133 127 131 131 129 130 129 128 124 124 125 124 124 126 130 128 128 125 128 120 119 120 121 118 121 123 117 117 118 113 116 113 113 118 118 116 115 116 116 116 116 112 114 116 114 112 109 111 108 105 100 60 28 66 86 92 90 101 98 96 
140 134 139 137 139 135 133 132 131 133 132 130 130 129 128 129 128 130 131 128 130 128 128 131 132 131 129 130 127 124 124 126 126 124 127 127 127 127 124 125 119 116 115 120 121 122 118 118 118 114 118 114 116 117 117 116 118 118 119 117 115 109 111 113 113 109 110 109 110 106 103 86 68 88 92 94 95 104 100 98 
135 130 138 133 140 140 132 132 131 131 133 133 132 127 128 129 128 127 129 126 127 128 129 131 133 131 131 130 126 121 126 126 125 121 126 125 124 123 119 120 119 116 118 118 118 120 119 118 117 113 116 113 112 116 115 114 116 116 117 112 114 112 112 112 109 110 113 109 107 109 112 98 90 100 97 98 99 106 103 96 
136 130 137 134 136 130 133 132 129 131 134 130 133 132 131 134 128 129 128 127 126 125 127 127 127 128 133 129 124 123 123 125 122 124 123 124 121 117 115 119 118 120 116 116 118 118 113 114 115 111 113 114 114 112 116 114 113 114 111 115 111 110 111 114 109 110 110 104 109 111 110 105 94 102 99 101 103 107 102 98 
130 129 138 131 133 127 134 131 127 130 132 131 133 134 130 134 128 126 126 126 128 127 126 126 127 127 128 126 122 121 121 124 120 119 126 124 117 115 114 116 115 116 117 117 117 116 115 116 114 110 111 114 112 112 115 110 111 113 114 113 112 110 111 109 111 106 109 105 106 103 112 103 93 104 103 107 104 104 106 99 
133 130 139 135 132 131 130 131 130 131 134 132 140 132 131 130 126 124 129 130 127 127 129 126 125 125 124 127 123 124 120 121 123 119 124 122 116 115 115 116 117 116 117 116 115 115 115 115 117 110 114 111 112 113 111 111 113 111 113 111 113 108 110 113 109 107 111 104 106 108 105 99 94 102 104 111 103 108 104 105 
129 130 138 136 130 130 129 130 131 130 137 134 135 134 131 130 129 126 126 126 126 129 131 129 127 123 126 126 124 123 120 127 122 119 121 121 117 114 114 114 112 116 116 116 115 114 112 118 113 111 110 114 110 111 114 111 111 112 113 111 112 110 109 110 110 109 108 103 103 108 103 98 94 102 105 105 104 108 106 101 
133 128 135 135 136 128 133 133 133 134 129 132 129 130 129 126 127 126 126 126 130 126 126 126 126 123 125 127 123 122 122 119 121 121 122 122 117 113 112 114 116 115 123 116 113 115 114 113 112 110 111 110 111 110 113 110 111 110 110 110 113 108 109 111 111 109 108 104 101 100 103 98 94 99 105 105 104 108 105 104 
136 126 131 129 132 130 132 128 128 130 130 130 128 131 131 129 127 126 128 129 127 124 126 125 126 119 125 128 121 119 122 121 120 120 120 122 119 112 113 115 114 112 115 117 110 115 115 116 112 109 108 112 110 111 109 110 109 108 112 109 110 110 110 110 110 108 108 104 101 103 99 95 95 101 106 104 106 106 105 103 


