P2
80 60
303
162 165 151 149 146 145 152 154 146 147 146 141 139 116 53 36 40 85 105 99 110 120 120 120 121 121 118 120 126 125 126 127 124 122 122 124 120 115 109 122 125 126 125 132 144 139 139 138 144 143 140 140 136 140 136 140 145 139 136 138 138 138 141 136 134 128 125 127 127 129 131 135 143 143 144 145 138 145 145 145 
161 158 153 153 146 147 155 152 149 150 143 140 141 113 52 32 38 79 103 98 110 120 123 123 119 121 124 120 129 131 131 127 122 122 125 120 119 116 106 126 124 125 123 132 143 140 135 142 141 140 139 135 137 140 138 140 145 139 141 135 139 136 133 132 135 125 123 125 131 133 131 136 142 139 139 146 142 146 148 144 
157 152 153 147 143 148 157 148 150 147 145 138 138 106 41 26 36 71 97 101 111 116 123 122 125 122 125 124 129 132 141 128 118 123 123 123 119 115 107 123 127 129 124 129 143 136 136 140 141 136 135 139 136 139 137 139 141 139 142 136 138 134 137 136 134 124 126 129 131 135 135 134 141 137 138 140 141 145 147 147 
155 153 152 147 140 147 157 150 148 149 147 137 137 107 38 28 38 69 92 95 111 121 122 122 125 126 123 124 127 124 128 126 122 121 124 121 116 116 111 123 127 129 124 133 142 141 142 141 145 141 139 137 137 138 137 140 139 137 140 140 140 136 139 136 136 127 128 128 130 133 136 143 144 136 140 140 140 153 149 146 
161 155 146 143 139 147 149 150 150 145 142 136 135 105 41 32 42 66 91 96 109 116 122 124 123 123 123 122 125 122 123 119 122 120 120 124 117 120 110 123 126 127 123 129 141 143 141 144 141 141 139 139 136 137 135 138 138 136 140 137 139 139 137 138 134 131 129 132 131 134 135 140 141 134 140 141 138 146 146 143 
159 154 148 144 139 142 149 148 152 144 142 135 133 109 38 33 47 70 89 95 111 116 118 122 121 123 123 124 123 120 120 117 118 118 121 119 117 114 106 121 126 128 125 126 140 144 145 141 143 140 138 140 139 138 137 142 138 139 141 143 140 132 135 138 134 133 127 133 134 131 133 135 142 135 140 141 142 144 146 149 
159 153 147 148 142 147 145 150 149 148 140 136 132 104 43 32 54 70 94 94 111 116 116 118 118 124 122 123 124 122 121 121 123 119 122 120 121 113 107 125 126 127 123 129 138 144 142 145 142 139 139 140 139 140 141 140 142 144 146 136 137 135 134 134 137 131 130 128 133 133 137 140 139 141 142 144 138 142 144 145 
156 156 149 147 144 151 153 153 148 147 142 134 132 102 34 23 42 72 90 93 110 115 115 114 119 123 123 126 124 124 123 121 122 120 125 122 120 114 107 123 129 124 122 125 142 139 142 141 138 141 140 140 145 140 140 145 143 145 141 143 138 136 136 137 135 132 130 132 135 133 135 136 141 139 143 144 139 146 145 142 
158 154 145 147 139 145 148 152 150 147 142 131 133 98 29 16 34 55 78 92 106 107 107 111 117 119 119 118 125 119 123 121 122 123 124 120 119 114 106 121 122 125 119 128 141 140 139 143 141 139 139 140 140 136 138 140 140 142 141 143 137 137 137 136 141 131 130 128 130 134 135 136 138 136 139 143 136 140 143 143 
157 154 150 144 140 146 153 151 151 144 140 133 131 96 23 9 25 42 61 84 95 105 105 107 112 114 115 120 126 119 116 119 120 120 122 121 121 113 103 122 128 120 119 127 140 139 137 140 142 142 138 139 140 140 139 140 140 132 139 141 136 137 138 134 134 132 131 129 131 131 135 135 140 138 136 141 135 140 142 142 
154 152 148 141 141 148 155 150 149 144 139 134 128 88 21 7 17 35 63 80 95 98 97 104 106 109 116 115 121 117 118 118 119 120 120 121 116 108 104 120 128 124 116 129 137 140 135 139 141 138 137 141 137 139 138 141 140 139 138 140 136 135 137 139 137 129 131 132 127 134 133 134 137 136 140 139 138 140 142 139 
155 148 147 142 140 146 150 149 148 144 143 135 130 87 17 6 7 32 56 76 87 91 97 103 100 112 109 117 119 117 119 119 123 119 118 118 116 107 103 122 124 122 114 128 140 141 136 139 139 141 141 140 139 140 138 137 139 137 138 136 136 136 138 136 136 132 131 130 130 131 132 133 140 139 137 146 140 139 141 141 
161 150 148 149 138 145 151 147 150 147 146 130 131 93 20 4 11 34 61 71 86 92 96 105 114 108 107 115 115 117 119 119 119 115 117 117 114 108 105 121 123 122 115 130 142 140 140 141 141 142 142 137 138 137 138 138 142 141 141 141 140 136 140 135 135 130 129 130 131 131 125 136 138 139 140 143 144 142 141 141 
154 151 153 139 134 143 148 150 149 146 145 132 136 94 17 4 8 34 60 67 81 85 95 108 118 115 107 107 109 111 116 123 119 117 118 117 112 109 100 118 123 118 114 129 140 141 139 142 143 144 138 139 137 139 138 139 140 142 140 138 138 136 135 134 136 131 128 132 129 131 134 132 139 138 145 144 140 143 142 140 
152 152 146 140 128 141 149 149 153 145 143 132 134 98 21 3 11 30 50 64 73 80 97 113 120 119 105 108 114 111 114 115 116 119 119 117 113 107 99 122 124 119 114 130 137 139 140 142 144 144 139 138 138 137 137 141 143 149 140 140 138 135 137 137 136 131 129 130 129 133 134 137 141 136 144 144 138 143 143 141 
152 148 146 132 119 127 147 153 153 146 140 136 136 96 25 3 7 25 47 68 73 79 93 109 116 109 100 106 109 110 112 118 115 115 121 116 113 105 99 118 119 125 117 125 139 139 139 139 139 139 141 137 138 137 137 143 141 142 142 142 139 133 138 133 134 131 130 128 130 132 136 139 142 139 140 140 137 145 145 142 
151 148 143 136 115 124 145 150 148 146 142 138 129 94 24 0 10 27 44 66 75 80 96 104 107 105 106 104 110 110 113 114 113 117 117 113 112 104 102 119 120 124 116 126 138 139 136 140 139 139 137 137 135 135 141 140 143 142 140 139 139 134 136 136 133 130 129 129 129 134 135 140 145 136 140 142 137 144 147 140 
149 144 137 121 109 122 142 145 145 145 141 137 130 90 22 0 7 21 45 71 86 90 103 105 113 114 102 105 109 108 109 113 116 115 115 115 112 106 103 121 124 123 115 124 138 139 137 139 140 137 136 135 135 138 139 138 140 148 140 139 140 136 134 134 133 131 132 132 126 132 132 139 139 136 142 141 139 145 143 145 
149 143 133 116 107 111 140 142 143 144 139 136 128 91 22 0 8 25 47 76 91 94 99 107 110 114 115 113 108 110 112 116 117 115 118 115 111 104 106 125 123 125 115 129 141 136 138 138 140 138 138 140 142 145 141 140 140 142 142 140 138 137 135 137 137 132 129 128 130 135 135 140 144 137 140 141 139 145 142 146 
147 145 132 118 113 117 140 144 145 142 141 137 126 92 20 2 4 25 48 77 90 95 99 98 105 108 112 115 110 110 110 111 109 114 114 113 109 104 101 121 124 122 118 122 141 137 134 140 137 141 137 141 139 139 136 136 137 136 139 138 139 136 137 136 134 126 128 128 131 134 133 138 143 137 139 141 133 144 142 144 
152 143 134 118 118 121 138 140 143 142 140 137 122 91 21 4 1 21 50 76 86 90 92 97 103 106 113 114 109 109 114 110 111 112 115 116 111 101 106 119 125 124 117 127 138 133 137 137 140 141 142 141 142 137 143 135 139 135 139 140 138 130 133 135 132 127 129 132 131 137 135 135 141 138 139 144 140 145 147 146 
148 139 137 123 112 122 135 142 139 144 140 135 125 93 23 2 3 22 48 81 89 87 90 92 104 105 109 114 112 109 112 109 111 111 111 112 107 99 105 118 124 118 116 126 136 135 137 141 139 140 141 139 138 143 136 137 138 137 141 138 138 134 132 134 137 130 132 130 131 138 136 141 142 140 142 141 136 144 145 148 
143 140 132 127 115 116 134 139 139 143 138 138 120 88 25 11 8 26 48 85 88 87 90 94 101 105 106 115 114 105 106 107 108 110 112 112 106 100 98 119 120 120 115 125 135 134 141 138 138 141 137 141 139 138 136 136 137 136 140 138 138 135 132 136 136 134 132 130 133 137 137 143 143 140 139 142 139 146 144 144 
139 133 130 124 113 115 129 139 143 141 138 138 114 86 29 15 17 27 53 82 93 92 89 95 101 100 98 110 115 103 103 108 106 110 111 110 102 96 100 114 120 121 109 127 139 135 137 137 138 142 142 140 141 136 136 136 137 139 140 136 137 134 136 136 137 133 133 131 136 136 137 139 144 140 141 144 140 143 146 151 
138 132 128 108 110 109 127 136 138 140 140 134 110 85 31 20 21 30 53 83 92 93 96 95 101 102 98 94 101 99 103 103 106 107 109 106 103 96 101 117 121 114 114 126 135 136 139 143 138 139 136 138 137 136 137 135 138 138 139 139 138 137 133 136 136 132 132 130 133 136 137 140 142 142 141 145 140 143 149 151 
135 134 127 98 103 109 127 139 136 138 136 131 110 80 32 24 27 35 54 76 92 91 91 96 102 103 92 94 95 98 102 100 102 104 108 108 102 93 107 115 120 113 112 128 139 137 135 144 143 141 139 137 139 138 134 135 138 136 141 140 138 134 134 133 139 135 132 129 135 137 135 142 145 141 145 146 140 146 149 149 
135 125 123 99 100 110 126 135 135 137 132 134 103 78 30 32 30 36 54 68 84 88 91 94 99 101 99 90 96 96 98 103 102 105 107 105 100 91 104 117 114 111 109 126 141 136 138 141 140 145 140 141 135 133 135 138 137 136 140 138 136 137 135 133 134 131 131 129 129 136 138 139 142 139 143 147 142 146 152 144 
137 127 122 97 102 118 131 135 136 130 135 129 101 79 32 29 35 37 53 67 84 84 86 90 95 99 97 96 95 97 98 102 100 101 105 103 100 90 95 113 112 111 113 122 137 135 137 138 141 141 138 139 138 137 134 136 136 133 139 140 139 133 132 136 135 133 129 131 135 134 138 139 144 142 144 146 141 142 147 147 
136 125 123 103 107 116 130 135 133 131 131 126 98 81 34 29 35 35 50 67 77 77 81 86 91 97 93 95 94 93 95 99 102 102 104 104 98 91 102 114 111 106 110 123 136 132 136 139 139 139 137 132 137 138 138 135 141 134 138 137 134 134 130 139 134 134 128 129 137 138 142 136 143 140 142 148 141 145 148 145 
134 120 129 111 107 108 110 125 132 130 130 120 96 82 34 31 32 42 48 61 74 77 83 88 91 96 91 91 91 93 94 98 96 103 104 103 95 89 98 110 109 103 107 122 135 135 136 139 138 141 139 136 139 136 135 135 137 138 140 138 135 131 136 139 138 134 138 133 139 141 140 144 142 140 144 150 143 143 148 149 
134 119 122 107 87 85 85 105 99 107 114 101 88 79 33 24 40 43 47 60 73 76 82 86 94 94 83 84 90 92 95 95 95 100 106 102 90 89 97 108 103 102 106 125 138 134 134 139 143 142 140 139 138 138 135 138 139 137 136 139 137 137 136 140 138 139 142 142 146 144 142 148 145 146 150 151 145 148 149 145 
138 114 117 85 61 66 76 75 83 85 72 68 82 76 32 24 31 36 51 61 72 72 80 87 89 88 86 89 87 90 92 93 96 95 98 101 95 88 88 104 101 98 102 124 139 136 132 141 141 142 143 139 142 141 141 140 140 139 139 140 137 136 140 141 143 155 166 156 156 148 148 145 147 143 147 150 145 150 149 147 
137 111 113 91 56 64 74 70 77 73 64 67 78 68 29 11 24 37 48 59 72 73 77 87 86 80 81 83 90 92 98 95 99 99 102 105 96 86 95 99 96 94 105 123 135 135 135 139 140 147 167 173 150 145 142 139 138 139 141 141 142 140 142 143 143 163 184 189 188 183 173 158 156 153 150 155 149 152 154 153 
131 104 112 92 49 55 66 64 71 69 59 67 72 66 22 6 15 33 45 59 67 74 75 82 75 80 81 107 117 126 129 128 131 128 130 130 122 115 107 101 94 89 96 117 129 134 135 141 144 162 222 231 181 148 142 145 142 139 141 143 140 141 137 137 142 175 193 196 199 205 201 196 191 175 168 164 156 157 157 160 
133 104 115 90 46 47 63 55 66 61 59 61 71 58 15 6 20 34 45 56 64 72 79 71 76 74 82 124 140 144 145 144 141 142 144 148 143 140 131 101 93 91 95 114 130 136 136 141 143 169 241 248 189 156 151 150 147 145 141 139 138 136 136 139 146 184 196 196 206 207 209 212 215 214 208 196 180 180 166 164 
131 101 111 94 42 41 51 50 52 59 52 49 60 48 18 4 29 44 49 53 59 67 68 65 67 68 97 136 145 145 149 152 151 148 152 150 148 150 141 103 91 88 91 109 127 130 135 141 147 163 228 229 199 151 151 148 147 143 141 140 133 131 135 137 147 185 197 199 209 214 213 216 223 220 215 216 203 199 187 176 
138 97 112 94 39 31 43 37 42 46 46 45 55 49 21 11 35 45 51 47 53 54 55 49 50 69 120 140 150 150 154 154 152 147 152 154 150 154 145 122 92 86 88 110 132 131 134 139 141 162 197 206 195 168 145 142 148 137 142 142 139 134 134 136 150 190 198 200 210 216 217 219 229 219 223 220 204 203 200 199 
137 95 108 97 43 35 39 35 44 39 45 46 47 42 23 16 29 47 50 47 54 54 61 59 58 82 132 144 146 147 149 151 150 151 154 151 150 154 155 138 89 87 87 111 126 127 131 135 145 175 184 183 184 180 160 144 142 140 138 140 137 134 136 137 153 200 198 202 209 218 220 226 232 223 223 222 210 208 198 201 
132 93 110 99 52 35 34 33 39 39 40 40 45 39 24 26 44 48 48 55 51 56 52 58 70 109 141 146 146 152 151 151 154 154 154 152 151 156 153 149 107 84 90 111 127 126 129 137 152 168 176 177 179 181 172 148 143 139 140 141 138 137 137 141 159 201 203 204 215 219 223 229 234 230 230 220 214 211 205 203 
128 90 100 97 59 25 30 32 29 29 28 30 31 36 60 69 66 59 50 47 54 50 54 62 75 127 148 151 151 151 150 151 154 152 152 153 153 156 153 149 127 86 88 111 126 127 135 138 147 159 162 170 169 164 153 139 140 134 135 138 141 139 142 145 170 201 207 208 216 220 223 231 236 232 228 224 215 213 208 209 
133 91 96 99 63 28 25 26 26 21 26 24 26 53 70 81 80 67 46 50 52 54 59 64 101 144 153 151 154 150 153 153 156 159 157 155 158 160 155 151 145 112 93 108 128 131 135 139 147 148 153 156 151 151 144 139 137 132 136 141 145 150 150 158 185 211 216 214 225 226 225 236 242 232 228 225 221 211 212 203 
131 99 91 97 69 31 33 34 28 30 32 37 50 65 74 82 84 71 52 55 54 57 60 83 132 146 149 155 155 151 151 155 155 159 156 155 159 159 157 152 146 151 118 112 129 130 138 143 145 147 141 146 144 142 142 141 137 138 134 142 148 146 151 159 203 219 218 222 221 231 225 232 242 236 236 233 225 218 210 210 
134 95 89 93 74 46 42 40 40 38 36 41 53 57 74 82 78 63 61 63 70 67 79 122 144 149 154 152 152 157 156 156 159 153 159 157 159 158 153 147 147 151 145 127 131 132 139 143 141 141 144 144 139 143 140 138 140 134 138 143 141 145 156 162 223 237 229 230 230 230 228 234 245 240 240 238 227 220 213 215 
139 99 76 93 76 60 55 57 56 59 64 67 67 77 74 88 83 81 83 86 85 88 105 143 142 153 147 145 155 156 158 158 156 156 156 154 161 158 146 138 146 150 150 147 137 138 137 148 143 140 143 142 139 142 136 138 141 135 140 140 141 141 152 151 185 231 248 247 241 237 239 246 250 248 246 242 234 226 217 221 
134 107 80 99 82 72 91 91 92 94 93 97 102 107 105 99 100 107 105 106 117 112 130 146 150 152 135 136 148 154 160 160 157 160 159 155 156 158 148 139 139 146 151 151 151 136 139 145 140 141 141 142 139 142 138 143 147 142 139 138 141 138 143 149 153 169 205 248 270 261 255 258 265 255 253 251 242 225 218 219 
131 111 87 100 87 82 103 97 102 104 103 106 104 111 111 109 107 108 112 112 112 122 135 148 151 145 129 134 148 155 158 157 159 155 159 158 156 158 151 140 135 147 150 155 155 142 138 142 144 147 146 146 148 144 149 147 150 151 140 138 136 141 146 158 155 156 160 185 228 261 283 277 277 272 271 261 251 230 218 222 
128 117 93 103 89 93 106 104 104 102 105 104 111 107 107 109 107 106 110 111 115 120 139 147 151 149 135 137 153 155 157 157 154 156 158 154 155 156 153 142 140 151 154 155 153 147 139 145 146 149 151 146 149 148 154 150 153 151 147 140 139 139 153 157 162 152 161 152 167 193 249 285 301 291 282 273 258 228 218 225 
103 101 99 103 101 102 108 105 102 102 100 106 104 111 107 110 102 106 107 105 109 123 141 153 144 149 134 142 154 157 156 154 155 157 152 156 157 156 152 153 148 155 154 155 155 147 137 139 139 136 140 141 144 146 143 150 150 146 147 144 138 139 148 152 151 149 153 152 150 153 173 209 266 302 303 293 259 233 229 225 
99 98 101 102 102 108 112 107 100 98 103 98 101 106 103 104 100 100 104 106 108 118 143 149 149 154 150 152 159 156 156 157 151 155 156 157 155 157 157 159 156 156 152 151 154 148 129 130 134 132 130 133 132 139 132 136 139 133 140 136 138 136 138 144 146 143 147 148 148 152 156 171 187 226 271 283 268 237 231 228 
100 100 100 106 104 103 107 102 105 98 98 105 105 103 105 108 102 103 105 103 106 111 136 144 149 149 156 159 160 159 160 159 157 155 158 153 155 156 158 160 154 155 150 153 155 148 132 126 131 135 132 134 137 137 135 129 135 138 137 141 142 141 139 143 147 145 145 149 151 151 151 158 166 168 188 219 211 233 236 229 
100 102 102 102 100 103 108 102 102 98 99 102 106 105 106 108 101 100 104 105 110 110 130 140 151 151 156 159 159 159 159 159 155 156 161 155 155 158 161 158 156 155 154 154 157 148 148 135 136 142 140 140 139 142 138 142 139 137 146 142 147 143 141 144 147 147 149 148 152 148 150 153 159 156 162 169 164 198 229 240 
106 107 102 105 102 105 105 102 102 100 99 105 106 105 106 108 101 103 107 106 109 107 124 146 150 153 153 158 160 158 156 155 156 159 159 154 156 157 156 157 156 156 153 151 149 145 149 146 139 145 149 147 143 151 145 144 145 144 146 146 149 146 148 148 149 146 150 154 156 151 148 150 151 154 155 158 155 170 183 218 
107 104 100 104 104 104 106 100 101 96 99 104 105 107 101 106 102 105 107 105 107 107 117 138 146 148 153 156 161 155 159 155 155 157 157 156 155 157 154 155 154 157 145 150 147 143 145 152 152 146 157 162 153 157 155 148 149 145 153 148 147 148 149 149 148 152 153 151 154 160 161 151 154 152 152 159 147 161 163 178 
104 100 102 105 105 102 106 100 96 97 95 103 106 105 104 103 97 103 102 103 108 107 113 140 150 148 155 153 159 158 159 157 156 157 153 155 154 155 153 153 156 149 144 147 145 140 143 151 152 149 158 165 162 165 158 163 159 149 151 153 150 148 151 150 157 150 152 152 158 166 179 177 163 153 151 149 149 151 158 165 
104 104 102 105 105 104 102 98 97 96 97 100 104 102 105 103 98 104 100 101 104 105 110 135 146 150 155 154 159 153 160 158 156 155 155 155 156 154 155 155 151 152 147 146 143 136 140 148 150 162 162 164 167 169 162 159 162 155 153 152 148 147 151 154 163 160 157 158 159 168 178 207 186 158 151 151 146 150 153 154 
105 102 105 104 103 103 104 99 98 93 98 103 106 101 101 103 97 98 102 100 105 104 110 132 143 152 153 156 158 155 158 156 158 156 155 152 151 151 152 154 155 151 149 146 150 137 141 146 149 160 163 161 164 168 166 161 163 160 155 153 150 153 151 150 158 161 162 166 165 168 174 178 184 159 154 157 147 146 153 150 
107 105 105 104 98 102 99 97 93 98 96 103 112 103 104 100 97 100 105 104 109 107 110 136 142 146 150 152 156 155 156 154 157 155 154 152 154 152 153 154 154 150 150 145 147 138 141 151 160 161 163 165 160 167 166 163 161 158 154 157 153 151 152 151 155 157 164 168 167 174 171 168 170 155 163 166 157 154 150 149 
109 104 104 104 101 103 104 99 99 94 100 99 104 104 104 102 101 99 105 105 115 123 132 136 146 151 149 153 158 150 153 154 155 156 156 154 155 153 152 154 154 154 148 148 149 142 140 152 157 158 161 167 163 164 167 167 167 160 163 162 159 155 156 154 157 160 164 170 167 171 169 162 171 164 169 182 182 170 155 151 
109 104 102 102 97 99 105 99 99 99 97 100 105 98 103 102 98 98 101 105 125 135 145 137 141 147 147 150 157 154 153 154 154 154 153 152 153 156 153 153 151 151 150 144 150 143 141 151 154 154 163 165 168 163 169 173 170 163 162 162 159 156 156 160 162 159 162 165 169 172 168 167 170 164 173 185 173 176 155 149 
110 107 106 105 102 103 106 99 99 94 94 96 101 101 97 98 96 98 102 103 128 140 149 138 146 149 147 147 152 153 151 149 153 151 151 149 154 152 149 151 148 152 147 144 145 145 142 152 158 163 170 161 160 167 168 172 174 168 168 163 159 159 159 158 161 158 162 163 167 175 167 168 170 167 176 175 177 169 156 159 


