P2
80 60
143
133 136 132 132 135 130 132 134 140 136 138 132 138 135 135 137 132 129 129 131 133 135 130 133 132 132 135 135 133 132 132 132 136 135 132 130 131 131 131 130 129 130 131 130 129 131 127 127 131 130 129 130 130 128 128 125 129 133 139 132 130 130 130 124 126 120 126 121 124 119 117 121 122 122 127 124 126 122 121 116 
137 131 136 136 136 131 130 137 135 140 136 135 134 138 133 134 136 131 132 130 133 133 126 134 133 134 136 132 134 133 138 133 135 137 130 131 133 133 130 129 132 131 132 133 127 129 128 128 131 131 129 129 129 131 131 129 133 130 131 129 127 131 127 126 126 120 125 121 123 121 124 122 124 118 121 120 124 125 125 118 
134 133 134 130 132 130 132 134 136 136 136 137 135 130 134 135 134 132 131 131 129 132 131 130 133 136 136 135 133 135 135 135 134 130 133 131 131 131 132 134 128 130 131 129 130 129 128 129 130 130 130 128 128 131 126 127 129 130 129 130 127 130 125 128 125 123 122 121 123 123 123 124 122 119 122 121 120 125 128 117 
136 132 134 136 134 134 132 132 134 138 139 134 133 128 133 134 134 134 131 134 132 131 133 131 134 134 132 134 134 132 136 133 133 131 132 134 131 129 129 128 132 131 133 131 127 131 127 130 135 130 130 128 128 127 126 129 128 126 128 128 128 129 127 126 123 122 124 121 128 124 129 130 126 120 127 127 120 121 126 117 
135 131 131 137 132 134 134 134 134 138 134 137 133 132 132 136 135 130 133 134 133 134 133 136 136 135 135 131 133 133 132 134 132 132 129 131 129 131 136 131 132 131 132 132 132 128 130 131 128 133 129 129 127 129 129 127 130 125 129 130 129 128 129 132 125 123 123 128 127 128 123 125 122 120 126 125 122 127 122 124 
132 133 137 137 135 134 134 136 138 136 135 133 134 134 131 138 137 135 131 134 135 136 133 134 134 135 136 133 134 135 133 133 132 131 132 129 129 131 134 130 132 133 134 133 131 132 136 130 133 132 132 132 131 128 127 125 126 129 126 129 132 131 127 129 127 122 122 126 131 127 127 124 119 123 126 124 124 127 126 122 
137 134 134 133 136 134 136 137 138 134 134 136 136 134 134 137 140 135 135 132 134 134 135 133 136 136 135 134 130 134 136 129 130 133 131 132 130 130 132 132 133 133 129 132 130 131 129 129 131 131 132 132 130 130 130 127 131 133 134 131 129 132 129 126 127 121 122 126 124 127 125 121 121 122 124 127 123 122 122 119 
136 134 132 134 137 140 136 137 136 134 134 139 134 131 133 137 137 137 137 133 140 136 133 134 132 136 135 134 133 133 131 127 130 129 129 132 129 129 132 131 133 131 128 133 128 129 128 128 130 131 130 130 131 130 130 127 129 128 129 130 127 129 130 126 129 123 124 126 124 124 119 120 116 120 124 124 122 120 124 120 
139 139 134 137 137 133 140 137 133 138 133 134 136 131 130 135 138 137 133 135 133 135 131 132 135 132 134 133 133 133 133 132 129 129 132 132 129 130 131 132 129 127 128 131 127 127 128 127 127 128 130 131 129 124 126 128 130 128 130 130 127 129 129 129 127 123 123 121 122 116 119 115 119 116 118 116 120 121 123 119 
140 137 135 139 137 136 139 138 138 133 135 135 135 130 132 135 140 133 135 133 132 134 131 134 134 133 131 133 131 132 130 128 130 130 130 130 127 127 128 131 127 130 126 128 128 128 127 126 129 129 127 131 129 125 128 126 129 128 128 127 125 123 127 124 125 124 123 122 125 119 119 120 120 114 116 116 116 124 119 120 
136 139 136 136 140 139 139 137 137 136 133 129 135 133 132 134 134 134 132 136 132 132 129 134 132 134 132 134 131 133 130 131 132 128 131 128 128 124 132 129 129 128 126 126 127 123 125 126 129 126 129 127 126 124 127 127 127 125 124 127 122 124 122 125 124 120 121 122 122 121 116 122 119 119 119 121 118 115 123 116 
136 140 139 142 141 135 139 138 139 134 135 135 134 129 133 132 132 130 129 131 131 131 129 134 131 131 131 131 131 131 128 132 133 130 124 130 127 129 131 130 132 129 126 128 127 130 126 127 126 126 126 130 129 125 127 128 126 127 126 127 127 127 126 121 126 120 123 121 122 118 117 119 119 119 122 124 123 117 121 120 
137 139 140 140 137 137 133 135 134 132 134 134 133 132 128 130 130 132 127 133 131 133 126 133 131 129 131 133 129 133 134 131 132 131 129 133 126 128 130 130 130 124 125 126 128 128 129 127 128 124 129 130 127 123 126 126 127 126 125 128 127 125 127 126 127 118 124 121 119 122 109 119 117 118 124 122 119 123 122 118 
137 136 139 140 139 133 133 131 133 130 133 133 137 129 134 138 134 131 129 126 132 131 129 131 131 131 130 131 131 131 135 133 139 139 134 130 129 133 128 129 129 130 129 128 123 126 130 129 127 131 128 129 126 125 126 125 128 127 129 127 128 126 125 125 124 120 124 122 122 122 121 119 119 116 124 117 123 123 122 121 
134 135 140 139 139 132 133 135 132 134 133 131 133 128 128 132 137 129 129 128 127 132 129 132 131 133 130 130 134 134 131 133 139 135 133 131 131 131 130 132 132 128 132 128 127 127 128 127 126 129 129 128 122 126 126 126 130 137 130 123 124 126 123 125 123 118 122 121 123 122 122 122 117 119 120 120 121 123 127 115 
139 137 141 138 135 136 133 135 135 133 132 132 132 132 131 133 137 128 133 127 129 132 130 134 131 131 130 134 130 131 134 133 139 134 131 135 128 130 128 129 133 131 129 130 129 126 128 128 127 124 126 123 126 124 127 129 130 128 128 127 124 126 124 125 126 119 118 126 125 124 116 114 118 116 121 122 122 122 125 121 
138 137 143 139 137 133 133 129 129 133 133 133 134 129 135 132 132 132 130 125 129 132 132 131 132 129 130 130 127 132 133 135 138 136 135 132 130 130 129 130 131 129 128 129 131 132 128 123 125 124 125 125 125 127 128 128 129 130 129 121 124 128 125 123 120 119 120 123 122 118 115 117 120 113 121 120 121 121 126 124 
142 140 141 139 138 132 131 133 129 132 131 133 133 133 131 129 132 130 127 128 129 129 126 131 129 128 130 133 131 132 134 135 137 134 132 134 130 128 132 130 131 129 128 131 130 130 128 125 127 126 124 126 127 126 127 127 130 134 129 125 123 126 124 122 125 120 119 122 117 118 115 116 113 109 121 121 121 123 124 116 
138 138 136 140 134 137 134 132 133 131 134 134 131 130 127 131 128 131 131 125 128 130 129 133 131 130 133 134 131 134 134 134 138 135 138 133 131 132 130 129 130 129 129 132 128 127 126 124 127 125 127 128 131 126 127 124 128 129 125 125 125 126 122 123 122 120 122 123 116 119 116 116 115 108 116 114 121 122 119 119 
135 137 136 136 131 141 134 134 134 132 132 136 132 128 131 131 129 128 132 128 129 135 132 132 135 136 134 129 129 132 132 134 133 134 134 134 130 132 128 130 132 129 124 127 125 124 124 128 123 126 125 128 128 128 125 123 126 124 126 123 123 126 126 124 128 121 120 120 121 115 114 116 109 108 118 114 118 119 119 115 
130 138 138 134 136 131 133 127 130 135 129 132 133 132 130 128 131 131 128 129 128 132 130 132 132 132 133 131 129 131 142 136 135 134 131 131 130 133 129 129 129 133 128 125 126 123 125 121 125 125 125 129 126 125 127 124 127 124 124 124 124 127 126 123 124 124 125 122 121 115 116 116 109 106 115 117 117 118 119 116 
135 138 136 135 134 133 135 129 131 134 133 133 137 133 130 132 131 130 128 131 130 128 131 132 133 133 130 129 129 134 134 135 136 133 131 131 129 131 128 128 129 129 125 124 124 122 123 123 123 124 127 125 123 130 122 122 126 125 126 125 127 126 122 124 124 123 126 120 116 117 112 115 110 109 115 115 118 121 120 117 
136 139 139 136 134 134 131 136 132 137 132 134 134 135 130 130 130 132 127 129 129 127 128 132 131 130 129 130 129 129 132 131 135 133 131 132 126 128 125 129 130 126 126 125 123 123 123 121 122 123 125 126 125 123 126 123 123 126 122 126 128 122 124 124 124 120 125 122 120 116 107 117 113 111 115 117 117 121 119 119 
134 139 134 136 133 130 133 135 132 132 130 134 133 131 129 131 133 129 128 128 130 131 128 129 131 131 127 128 128 130 132 129 133 130 128 127 126 128 125 128 126 126 123 124 122 122 124 120 123 129 127 122 123 124 124 121 124 125 124 124 120 125 123 128 126 120 123 122 121 116 108 117 109 109 116 116 116 119 118 118 
134 137 135 135 133 134 134 133 133 134 131 133 131 129 129 129 131 129 129 125 128 128 128 130 131 130 127 126 126 127 129 129 132 130 128 126 124 127 122 125 123 123 125 124 128 123 124 122 126 126 123 125 120 125 123 122 123 124 125 122 122 124 123 123 124 117 125 121 124 115 110 109 109 110 117 116 116 117 122 117 
135 135 133 136 130 131 131 132 132 134 128 132 130 131 132 130 130 131 127 128 128 130 129 131 130 130 130 128 126 127 127 127 132 132 130 126 125 128 121 125 122 124 123 126 124 125 122 123 123 123 123 121 125 122 121 121 121 124 129 125 123 124 122 124 122 117 125 124 116 117 111 108 108 111 116 117 118 117 123 117 
134 136 135 133 132 131 135 130 134 132 129 129 133 130 128 130 129 132 129 127 128 129 133 133 130 129 131 127 126 127 132 127 133 130 129 128 124 128 122 124 124 125 124 124 123 123 122 122 123 122 124 123 122 122 119 120 122 123 122 122 125 123 123 120 125 118 121 123 116 111 109 109 110 111 113 114 119 119 120 119 
135 131 133 138 135 134 133 132 133 134 131 131 130 131 127 127 131 128 127 128 128 130 128 136 129 129 132 129 130 129 130 128 128 130 126 125 125 125 122 125 126 121 122 126 122 121 122 121 123 122 121 124 122 122 121 119 124 121 124 123 125 124 123 123 124 116 121 121 116 120 107 113 107 106 111 115 114 118 117 117 
133 136 133 137 133 131 132 133 135 133 131 134 134 133 130 131 129 127 129 128 128 127 127 131 128 131 128 128 130 129 130 129 132 126 129 126 123 123 122 126 125 124 125 125 122 122 121 121 119 122 123 124 121 121 120 119 122 121 123 124 125 124 121 120 122 116 122 124 116 114 110 111 106 105 109 116 116 116 117 111 
135 135 138 132 136 131 131 134 137 133 130 135 135 130 130 128 129 127 128 124 127 128 128 130 128 129 131 128 125 128 128 130 132 130 128 125 126 128 121 124 124 125 123 122 125 119 121 118 122 123 123 124 121 122 122 122 121 120 121 122 124 122 125 125 123 117 123 124 116 114 106 107 103 102 109 117 114 115 113 109 
133 131 134 135 130 129 131 130 133 133 136 132 132 129 125 126 130 128 127 125 126 126 127 128 131 130 130 126 125 128 130 130 131 131 131 129 124 122 123 125 123 123 128 125 122 117 117 119 122 124 122 122 119 121 124 119 126 122 119 123 123 123 126 122 124 117 121 122 117 108 106 111 101 104 110 110 111 112 110 111 
132 137 136 135 131 131 130 128 131 130 132 130 129 128 133 130 130 127 126 126 125 124 127 129 127 129 131 127 127 128 131 127 131 128 127 124 122 123 120 124 127 125 128 124 123 121 120 119 120 125 120 122 120 120 120 120 120 120 119 120 117 123 123 124 122 118 120 117 115 109 104 106 107 102 110 112 112 112 109 110 
133 133 135 136 134 133 131 131 131 127 128 132 132 128 127 130 130 128 126 128 125 125 127 128 128 128 129 128 127 129 130 125 128 130 121 122 120 122 124 126 125 124 124 123 123 120 115 120 120 122 120 120 118 120 118 121 120 118 117 119 119 122 122 121 124 118 123 117 115 114 102 108 105 102 110 114 111 112 112 109 
132 132 135 133 132 133 131 129 133 131 128 131 130 129 128 127 133 126 126 123 126 127 129 129 129 127 129 126 124 131 129 124 128 129 127 121 122 122 122 121 123 123 123 123 123 121 121 120 118 121 122 121 120 121 120 122 122 120 117 120 119 124 123 121 122 117 121 117 114 112 102 106 108 99 111 114 111 112 112 111 
129 133 134 135 133 129 129 130 129 131 131 132 131 130 130 131 132 127 128 126 125 128 127 130 131 131 126 129 130 131 130 127 127 127 125 124 123 121 121 124 123 123 125 122 121 122 121 119 122 120 121 123 122 119 121 121 120 123 120 117 118 121 119 121 122 118 118 118 110 107 105 105 103 103 109 116 115 111 110 109 
126 130 134 134 133 129 129 129 127 128 127 127 131 127 127 130 128 127 125 121 125 126 125 129 126 128 126 127 125 130 128 128 129 128 122 123 121 121 123 124 124 121 123 119 121 123 121 122 122 119 120 121 120 120 116 121 118 120 119 120 117 119 121 118 116 113 118 116 110 106 102 105 99 101 114 111 111 112 113 108 
130 132 137 133 132 129 126 128 129 127 127 131 129 129 126 127 131 129 125 125 123 126 126 126 127 124 124 126 124 128 126 128 130 128 122 121 121 124 121 123 124 121 121 118 118 121 118 119 118 118 121 122 120 120 120 120 117 123 119 116 119 123 116 121 116 112 118 119 111 102 99 103 103 102 106 111 103 107 108 109 
134 133 136 133 132 131 129 130 128 129 130 132 134 133 124 127 129 134 129 127 127 129 127 128 125 122 121 124 124 126 128 128 131 128 126 124 118 121 122 121 122 123 119 120 121 120 122 120 121 118 119 123 118 119 122 120 120 120 121 119 120 121 119 120 117 117 116 123 113 106 100 102 100 95 105 108 104 107 109 104 
134 134 140 133 131 131 129 132 131 129 128 131 134 131 127 130 130 129 129 125 123 127 127 129 127 127 123 125 122 127 128 128 130 127 124 126 123 122 123 122 122 123 121 119 121 118 122 119 121 121 118 118 120 118 122 118 118 117 118 121 116 121 116 118 117 117 120 119 111 105 101 102 101 96 101 104 104 108 110 103 
132 136 136 133 132 131 130 129 133 129 133 131 132 127 124 126 132 126 125 124 123 126 127 132 128 127 125 124 121 127 125 124 129 128 124 123 118 120 121 123 119 123 121 121 120 119 120 121 121 119 120 120 120 119 119 115 117 114 115 119 116 119 116 116 117 111 117 113 108 102 96 102 101 100 102 104 104 104 109 107 
131 132 132 132 130 128 128 130 129 130 131 134 129 131 125 128 126 124 124 124 124 125 126 129 127 128 134 123 120 123 126 125 129 129 122 125 117 120 120 119 120 122 121 121 119 119 120 118 120 119 124 126 120 121 118 116 117 116 115 116 118 119 117 111 116 111 111 112 113 99 93 101 102 104 107 103 102 105 112 108 
127 131 136 133 131 127 129 128 127 129 133 129 131 129 126 127 130 126 124 124 127 124 128 128 130 126 124 122 121 124 125 124 129 126 125 123 122 120 122 119 118 123 120 118 121 121 122 119 122 123 125 123 121 120 120 117 122 115 113 114 119 119 115 115 116 111 115 108 92 89 87 98 100 100 101 104 106 104 106 106 
133 133 135 131 131 129 129 128 131 127 130 126 130 131 127 127 127 126 127 124 127 125 125 129 128 127 124 122 121 125 125 123 127 125 124 123 117 121 120 119 121 117 118 119 118 123 124 122 122 121 120 119 122 120 121 117 116 117 114 114 115 120 117 116 116 109 116 108 69 31 59 90 95 100 102 102 103 102 101 102 
137 133 133 130 128 130 127 126 128 126 129 129 128 129 126 129 127 127 125 126 126 127 124 125 125 126 127 119 120 121 128 124 126 124 121 124 118 121 116 118 118 119 116 118 117 118 127 126 123 119 118 119 115 119 117 115 113 115 116 115 116 118 115 116 118 110 115 103 47 7 46 88 87 86 99 102 101 104 105 101 
133 132 136 127 130 126 128 131 126 125 127 129 127 131 127 128 126 126 127 127 128 124 124 127 129 125 122 120 124 123 126 125 127 125 123 124 117 118 118 119 120 116 116 116 118 118 120 122 118 117 120 120 116 114 113 114 114 113 114 114 112 118 116 112 117 110 115 99 38 1 41 81 86 91 96 100 101 100 101 103 
133 133 130 130 128 127 128 127 127 128 127 125 128 129 129 126 130 126 124 122 127 124 126 128 125 122 121 120 118 123 125 126 126 127 121 122 116 120 116 118 115 115 115 117 116 118 117 115 116 117 117 116 113 112 109 114 114 113 113 114 110 118 114 113 114 107 117 98 27 3 42 82 84 90 99 99 101 97 95 98 
131 131 131 126 127 125 125 128 126 126 129 132 128 126 125 125 131 125 125 124 124 124 123 123 120 120 122 120 122 121 124 120 123 121 121 122 119 119 116 117 117 117 114 116 115 118 115 113 114 116 115 114 112 112 109 113 113 112 112 113 115 112 115 108 115 109 113 92 29 1 43 77 88 91 95 100 97 95 95 92 
128 132 127 126 129 127 128 129 127 126 127 127 127 128 129 130 130 125 123 125 124 125 126 124 125 124 121 120 118 126 122 123 125 123 122 118 117 117 117 118 116 117 115 115 114 114 116 115 117 116 116 116 114 108 113 112 111 113 112 114 114 114 113 114 116 107 109 87 27 6 48 82 89 92 95 99 99 95 96 95 
130 133 127 129 125 127 129 129 128 125 127 127 131 128 127 128 130 128 122 123 124 126 128 127 124 122 121 114 120 123 124 123 123 124 121 119 118 119 116 117 114 114 112 115 113 110 112 107 108 112 112 111 113 113 112 112 109 115 110 112 114 113 114 111 112 103 112 89 23 9 42 80 86 89 95 96 96 95 96 92 
135 130 128 126 128 123 126 127 128 130 128 129 129 125 127 133 128 127 122 125 123 126 126 124 121 123 123 123 120 123 124 124 125 124 120 120 115 118 115 118 116 115 114 116 110 111 109 106 111 112 110 113 111 110 111 109 110 118 112 111 109 113 113 110 112 108 109 86 21 9 35 80 85 91 91 97 94 95 92 89 
128 127 124 126 131 124 125 125 129 127 128 125 125 123 126 126 126 128 122 122 126 123 124 124 123 119 117 119 118 121 122 120 125 124 122 122 116 116 115 115 115 116 115 113 113 106 109 111 110 108 109 109 109 111 112 111 111 108 112 112 111 111 104 108 111 101 104 77 18 0 38 81 84 87 97 97 95 92 92 88 
134 126 126 130 131 129 127 128 130 125 126 124 125 123 128 127 126 123 125 123 125 121 124 125 121 120 121 119 119 122 123 126 126 125 123 117 114 114 114 115 115 113 115 112 113 112 109 108 110 108 108 107 109 113 112 108 109 110 109 110 106 112 104 107 109 101 104 76 16 5 30 77 93 92 94 99 94 93 90 85 
131 127 129 129 131 129 126 126 125 127 125 124 124 124 121 121 123 124 122 121 119 122 120 123 124 123 121 121 119 120 122 125 123 125 122 115 112 115 110 116 114 115 110 113 112 107 108 106 109 110 111 108 108 110 109 110 108 111 112 111 108 106 105 106 104 100 100 79 30 18 46 87 89 97 96 98 91 88 89 87 
125 123 126 124 131 132 124 126 127 125 126 124 126 119 124 122 123 122 122 120 122 122 120 122 121 123 124 123 120 121 119 122 127 121 122 112 110 111 112 112 115 110 111 112 111 109 111 108 109 110 112 113 110 111 109 109 109 111 112 107 109 111 108 104 103 98 104 95 64 46 73 88 92 96 96 99 88 82 88 81 
129 127 126 126 130 126 130 126 128 125 129 128 125 121 124 125 123 124 122 117 118 120 121 120 124 122 127 120 117 118 118 118 124 125 114 117 114 112 113 114 114 113 110 112 110 109 106 107 107 108 111 110 108 109 108 109 104 109 106 108 108 111 103 104 106 97 102 97 85 86 95 101 100 100 98 98 87 86 83 83 
126 126 129 129 128 124 126 128 126 126 126 127 128 125 122 124 125 118 121 122 122 120 120 123 121 122 121 116 116 117 118 119 118 116 115 118 109 113 114 114 115 116 114 118 115 108 106 106 107 109 109 111 109 107 107 108 109 110 109 108 109 111 109 103 105 98 101 95 92 95 103 105 100 102 100 100 93 85 82 81 
124 128 126 127 126 122 123 125 126 127 127 127 134 127 122 124 124 124 122 123 121 122 122 120 120 117 119 120 116 117 117 112 116 114 112 113 109 112 111 115 114 110 109 111 111 106 103 107 108 112 109 111 106 106 105 107 109 106 107 106 106 109 104 104 104 99 102 91 96 99 100 101 98 99 99 102 96 93 87 87 
122 127 128 131 126 128 123 126 125 128 128 128 130 130 124 123 126 129 121 120 122 122 123 121 123 117 119 118 114 114 118 112 111 110 109 108 110 109 107 111 111 111 107 110 108 105 104 105 108 112 111 106 106 105 110 106 106 105 105 106 104 107 105 102 105 101 98 94 91 97 100 99 98 101 98 100 102 97 90 86 
124 126 123 127 128 125 126 126 129 133 125 126 127 126 123 121 124 124 118 122 125 122 118 123 120 118 118 121 117 115 114 114 112 112 109 110 110 110 108 110 111 111 116 111 107 107 105 106 106 107 106 108 106 104 106 106 104 105 105 107 107 108 102 102 105 98 93 91 91 91 100 104 103 100 102 102 98 96 95 91 
128 125 124 125 128 122 129 122 127 127 126 127 125 121 124 122 124 121 121 120 123 118 120 124 122 113 120 122 116 114 116 114 111 110 110 111 114 109 112 114 112 110 110 109 106 108 105 106 107 109 107 108 105 109 104 107 105 109 107 106 103 109 103 101 105 97 92 90 94 93 98 101 103 103 99 102 101 95 96 93 


