P2
80 60
197
6 7 0 3 9 10 8 9 14 17 11 13 11 15 17 16 19 18 15 13 19 15 16 15 17 15 13 13 19 18 18 16 17 14 16 16 17 17 13 19 19 16 17 18 19 16 15 14 21 19 19 17 19 19 19 21 21 17 14 16 14 16 17 15 14 12 12 13 13 16 13 12 13 14 12 11 15 11 9 8 
5 6 8 3 11 12 14 8 12 18 12 13 15 11 17 15 16 21 18 15 17 13 17 14 17 13 15 12 17 20 17 17 15 14 17 15 16 17 14 16 19 15 16 19 18 19 15 18 16 17 20 14 18 18 20 21 18 17 20 19 16 15 17 17 15 9 8 15 10 9 10 12 13 11 15 12 17 14 10 8 
2 8 5 9 12 16 13 12 14 18 15 15 13 13 17 18 15 16 18 15 17 16 16 12 15 15 15 14 17 16 13 21 16 14 18 15 15 17 17 17 18 17 16 18 18 17 16 17 18 19 21 18 17 19 19 17 19 17 17 17 16 17 14 17 10 8 11 12 11 10 14 13 14 13 13 10 16 15 5 10 
6 7 5 11 9 17 12 11 14 18 20 17 12 14 16 16 18 18 19 19 21 18 15 15 16 18 13 13 18 17 17 18 19 15 16 18 17 21 16 19 17 19 16 18 20 15 19 18 19 20 17 16 21 21 21 20 15 16 17 18 22 17 18 14 13 11 10 12 11 12 13 17 12 14 11 12 15 16 13 7 
9 10 6 6 12 12 11 14 13 21 15 12 12 14 14 18 17 17 18 18 20 16 17 19 18 15 17 14 17 15 13 16 17 13 12 15 18 14 20 18 19 17 19 22 21 16 18 18 18 19 17 19 19 22 20 19 14 18 18 16 14 19 16 18 13 11 11 16 16 14 16 13 18 12 12 12 13 9 12 12 
8 7 7 8 10 12 8 16 16 17 15 14 13 13 18 15 16 19 22 21 18 19 17 18 17 17 15 15 17 16 16 15 16 13 16 15 18 21 20 19 18 20 24 17 19 17 18 20 20 18 22 19 21 24 21 22 16 21 16 20 18 16 18 16 13 13 9 12 20 15 13 11 12 10 10 10 15 14 12 9 
8 7 6 4 13 10 11 14 15 17 15 16 17 15 16 16 20 21 17 19 19 19 18 13 17 18 17 15 20 15 12 13 18 14 16 18 16 21 18 16 20 17 16 19 19 16 19 19 20 19 20 22 20 24 19 19 19 24 29 21 18 18 16 11 17 13 10 15 14 14 13 11 11 8 10 12 13 12 11 12 
9 9 6 6 16 15 10 12 12 17 16 14 16 17 14 18 18 22 19 19 19 17 20 17 17 15 16 15 18 17 12 13 14 11 16 19 18 16 16 18 19 16 15 19 21 14 20 14 18 16 18 17 22 18 19 23 18 18 19 22 18 17 18 16 14 17 13 12 14 8 13 11 12 11 10 13 13 10 7 7 
12 11 8 10 16 14 14 10 15 18 14 14 17 16 17 12 16 19 19 20 17 19 19 16 18 15 14 13 17 15 16 12 14 12 18 16 17 17 14 14 14 16 15 17 18 17 17 18 16 20 17 18 17 22 18 17 18 20 19 22 18 16 16 15 14 14 10 13 10 15 11 12 13 9 9 10 10 10 9 9 
12 12 11 10 17 14 13 13 13 15 18 17 15 13 13 15 21 17 20 18 18 19 19 18 15 16 16 13 12 16 14 15 12 13 17 17 16 15 13 13 15 20 15 14 17 18 14 17 19 20 18 19 21 18 17 18 15 17 18 19 17 20 14 17 11 11 12 11 13 10 11 13 10 7 8 9 13 10 9 8 
8 11 9 8 16 14 18 13 15 17 18 12 15 13 13 15 17 22 18 16 19 18 17 15 16 15 11 14 16 16 13 16 15 15 15 14 15 16 16 16 13 17 17 15 16 15 17 15 15 16 18 17 18 20 16 19 15 16 15 18 17 18 12 14 14 13 10 14 12 15 10 14 7 7 9 10 13 12 12 7 
6 10 14 12 16 17 16 14 14 17 17 12 16 18 13 17 14 15 13 16 20 15 15 17 16 15 12 12 14 16 15 16 15 15 14 15 14 17 15 14 18 16 18 17 16 13 18 18 16 19 19 16 16 15 14 16 13 18 17 17 14 14 12 16 10 13 13 9 12 10 11 8 13 10 7 14 15 9 12 3 
11 13 12 16 15 17 12 13 16 17 15 18 19 13 15 14 15 16 17 16 19 16 18 15 16 12 12 13 18 15 14 12 18 17 17 11 15 16 18 16 16 17 15 16 20 17 21 15 17 18 18 17 14 15 18 16 17 19 18 16 14 14 16 18 12 14 7 9 10 10 2 15 7 11 10 12 16 13 11 7 
5 12 10 12 14 14 12 11 13 14 12 15 13 14 11 18 12 15 17 16 19 18 15 15 17 13 11 12 16 16 14 13 16 17 15 15 15 18 13 16 15 16 14 16 19 19 18 21 13 20 16 19 15 18 17 19 19 21 19 18 15 17 16 16 10 11 13 16 9 8 13 10 10 11 8 11 15 11 8 5 
7 13 12 10 14 15 12 12 12 12 12 13 13 13 13 15 12 12 16 14 17 17 15 16 13 12 10 13 16 11 13 14 14 13 13 13 12 15 16 13 16 14 17 16 18 15 13 17 16 19 17 19 18 18 17 19 18 33 20 17 15 16 12 17 12 12 15 13 14 13 9 9 13 10 9 10 12 10 11 4 
10 13 11 7 12 12 11 13 17 15 13 15 13 11 13 14 16 18 17 17 17 18 15 16 15 16 11 13 14 15 10 12 14 12 11 13 12 15 9 15 15 16 14 14 20 15 16 15 12 19 15 16 18 18 19 19 17 22 22 18 15 18 15 16 14 12 12 11 13 12 10 14 14 9 10 6 13 14 9 8 
13 15 12 11 14 13 10 14 15 12 12 13 15 14 14 15 15 17 15 15 15 18 13 16 15 16 12 13 15 14 12 15 16 16 13 15 14 16 15 17 15 14 13 16 15 17 18 15 13 17 14 15 20 19 17 16 16 20 21 19 15 16 14 14 8 11 11 11 16 13 12 13 17 10 10 12 14 13 6 7 
14 11 16 9 15 17 13 14 15 17 16 14 14 14 13 15 15 16 17 18 15 12 12 16 15 14 12 13 16 15 13 15 14 17 16 12 12 15 14 16 14 15 16 16 21 16 15 16 16 16 13 16 17 21 20 18 18 26 19 19 15 15 13 13 10 13 10 11 15 15 12 12 12 14 8 9 11 13 9 8 
12 11 11 12 15 17 15 12 13 14 15 14 14 15 15 13 17 18 18 17 16 17 17 15 14 14 14 11 18 15 17 14 18 13 17 15 12 16 16 15 20 18 16 21 19 14 15 12 16 14 16 16 22 21 20 19 16 20 20 20 16 19 13 15 12 12 11 14 15 11 13 9 13 10 10 9 11 11 11 8 
11 10 11 9 13 15 15 11 15 13 13 13 16 12 12 14 13 20 17 15 17 20 22 14 16 16 13 13 13 15 14 17 14 15 16 16 16 17 14 14 16 18 14 21 19 11 13 15 15 17 13 15 17 17 16 18 14 16 15 19 16 15 15 17 10 13 12 12 13 14 15 13 13 11 7 9 11 10 10 10 
9 9 12 14 14 17 14 9 13 15 13 16 14 16 14 14 16 16 17 14 18 17 19 17 16 15 14 14 14 17 26 19 14 14 14 16 15 16 14 16 15 18 14 14 17 13 13 11 15 18 15 18 19 18 18 19 18 17 19 18 13 15 14 13 10 10 12 15 16 12 15 12 11 11 6 8 10 12 12 6 
13 10 12 10 10 17 13 12 17 14 17 14 20 15 15 17 15 16 16 17 16 17 19 21 17 16 13 12 17 16 22 17 15 17 14 14 15 19 18 17 13 17 15 15 17 11 14 14 15 17 14 17 16 23 16 16 13 16 18 16 13 16 13 15 10 11 13 14 15 16 16 15 12 9 9 10 11 15 14 9 
10 9 12 9 15 12 15 17 15 16 15 17 18 16 14 15 16 16 17 20 18 16 17 14 16 16 11 12 16 15 18 16 16 12 13 14 13 14 15 18 16 15 16 13 20 11 14 16 13 16 15 16 16 18 16 18 13 18 19 17 16 12 12 17 13 15 12 17 17 11 18 16 14 12 11 10 11 10 11 10 
10 10 7 12 14 16 18 19 14 16 17 16 15 14 16 20 18 14 16 17 15 19 17 18 17 13 13 13 15 17 15 16 15 13 15 14 13 16 14 13 16 18 14 15 17 13 15 13 14 17 16 17 18 17 14 17 17 16 15 15 14 15 11 16 12 11 16 15 14 16 15 16 14 14 10 11 13 10 8 8 
10 4 9 3 13 13 14 15 19 16 17 15 15 15 16 14 18 20 17 18 17 20 18 16 18 14 12 12 15 16 11 13 13 9 12 15 13 16 11 15 14 18 14 15 18 17 13 12 12 16 16 18 15 16 16 15 13 16 16 17 17 12 14 13 14 11 16 12 13 10 11 12 15 13 8 10 11 14 12 10 
9 8 12 9 11 11 17 15 16 19 15 18 19 16 21 16 18 20 23 19 18 20 19 18 19 17 14 12 14 14 13 14 12 12 12 14 17 14 16 18 15 15 15 13 18 17 13 17 15 15 11 18 16 16 17 16 13 19 21 17 14 17 12 15 13 12 12 14 14 12 12 14 13 12 11 12 10 11 10 14 
6 7 10 9 16 12 16 17 17 17 16 17 19 14 18 17 19 19 17 18 18 19 23 17 17 15 13 18 14 13 10 12 17 12 14 12 15 15 14 13 18 15 15 16 16 16 17 16 15 15 15 16 17 17 17 17 14 15 17 16 16 19 12 11 12 13 13 15 14 11 13 11 16 12 10 8 12 15 14 9 
7 12 13 15 15 16 16 14 16 19 18 16 17 16 17 17 15 20 18 18 16 17 18 17 20 15 19 17 17 15 15 15 15 12 13 15 15 18 15 14 15 16 17 19 17 15 17 15 13 17 13 17 16 16 13 14 14 17 13 17 15 15 13 16 13 13 11 13 13 12 13 8 13 13 11 8 10 13 14 9 
10 12 11 13 15 16 15 14 18 17 17 16 20 20 18 17 17 17 18 21 17 18 19 21 18 20 14 16 19 16 17 15 12 11 16 15 16 17 16 17 15 16 20 18 20 16 17 15 14 18 15 14 17 16 15 17 13 14 17 15 15 14 13 15 11 12 12 14 15 13 12 13 13 5 10 10 11 11 8 5 
11 12 14 8 10 15 19 16 21 17 18 19 19 19 18 19 19 19 18 17 18 16 18 21 21 16 15 14 18 14 18 17 13 12 12 13 17 17 17 16 16 19 20 19 20 16 18 15 15 17 14 14 15 14 15 19 15 18 16 16 13 15 15 16 14 16 18 15 13 15 14 12 15 12 8 11 10 11 12 5 
11 12 18 12 13 19 18 19 19 22 18 17 18 19 21 19 22 21 17 20 21 20 16 20 21 19 18 15 15 17 15 14 13 13 14 16 20 17 17 18 18 19 21 19 19 18 15 17 16 18 16 16 16 16 15 16 14 17 15 15 13 16 16 16 16 13 12 16 13 15 14 16 15 16 9 8 14 12 17 10 
17 18 17 11 15 16 18 18 21 24 23 18 20 20 21 20 21 19 18 17 21 22 21 20 20 18 19 13 17 17 17 18 14 14 14 17 15 14 16 17 22 22 18 19 20 18 13 17 17 20 16 17 16 16 15 16 16 15 15 16 13 17 14 14 14 13 15 19 14 16 14 12 15 10 11 9 11 13 11 8 
17 17 19 12 16 17 18 17 23 19 17 23 21 21 20 22 21 20 21 17 21 21 17 21 20 19 18 17 17 17 19 15 16 17 13 17 16 16 17 20 22 21 21 18 20 17 15 16 15 17 17 17 14 15 17 17 16 17 14 17 11 15 16 20 15 15 14 15 17 12 12 11 14 13 10 10 11 10 11 10 
16 11 17 15 18 20 20 21 20 22 17 20 22 19 19 21 23 25 24 20 21 20 22 23 21 20 17 16 20 24 17 14 18 16 13 16 16 15 18 17 18 22 19 20 19 17 16 16 12 17 16 21 15 20 15 19 14 17 15 14 16 16 14 18 14 12 15 15 16 15 12 16 15 10 10 12 11 10 10 7 
17 10 13 15 20 20 19 18 21 16 21 21 22 22 24 21 24 29 21 25 22 20 19 23 22 21 17 17 23 21 16 18 18 17 18 19 17 20 17 16 19 22 22 19 23 19 18 18 16 19 16 20 17 19 14 18 14 20 19 14 17 14 14 16 14 14 14 14 15 13 15 14 16 13 9 10 12 11 11 9 
29 17 20 14 20 21 16 23 25 24 23 22 23 24 22 21 25 26 25 26 26 21 23 21 22 19 18 16 18 18 18 19 21 19 17 18 19 17 18 22 20 22 18 21 20 19 20 22 18 15 16 18 17 19 16 21 14 17 19 18 17 16 14 19 13 13 14 16 10 14 9 14 15 15 12 10 11 13 11 8 
62 53 42 30 26 24 24 22 23 26 23 27 24 25 24 26 23 27 26 26 22 23 23 22 21 18 16 16 20 20 19 18 18 16 20 16 18 17 18 22 19 19 20 20 21 16 17 17 19 18 19 18 18 21 16 15 15 19 16 17 16 17 13 15 12 14 12 15 16 11 13 14 11 12 9 12 16 11 10 13 
72 73 73 64 66 57 41 31 26 27 25 26 27 28 26 23 27 31 28 27 26 26 22 23 23 21 16 15 20 22 20 18 19 19 18 18 19 18 19 18 19 22 22 21 20 17 16 17 20 20 21 21 19 18 20 19 14 16 14 16 12 14 14 14 15 16 13 13 13 14 11 12 13 12 9 13 15 13 12 9 
77 74 87 76 84 83 76 71 59 48 40 35 33 29 25 30 27 29 27 27 28 24 24 24 22 20 21 20 22 22 20 17 21 19 17 18 19 21 19 22 19 21 23 20 20 19 21 19 16 19 19 16 21 19 17 20 15 17 19 19 14 13 13 16 13 16 12 15 12 11 11 13 13 10 10 13 13 11 15 15 
76 79 82 83 88 95 90 85 87 85 78 65 50 43 34 30 32 30 30 27 31 28 25 25 26 23 21 21 24 21 19 18 23 20 21 21 19 20 22 22 20 20 19 22 23 21 25 18 21 20 17 17 21 21 21 19 19 19 15 17 14 17 13 16 15 13 10 13 15 12 14 13 13 14 11 12 14 15 12 15 
82 83 81 84 87 91 93 90 90 93 88 86 76 72 58 51 39 32 33 31 31 28 31 25 28 25 28 24 25 20 20 21 23 23 20 22 19 22 20 21 24 23 24 21 23 23 20 21 24 23 21 28 24 26 20 18 15 17 15 16 13 17 15 17 15 13 12 14 12 12 14 10 10 15 13 12 17 16 15 13 
80 81 83 84 89 93 91 92 92 89 90 81 82 74 66 63 59 47 32 35 30 25 27 26 27 23 24 21 23 20 20 22 20 23 17 24 25 20 24 20 21 25 23 22 21 21 18 21 19 23 21 25 26 22 18 18 18 18 19 15 15 13 11 15 14 13 12 9 12 14 13 14 13 9 10 11 13 15 13 10 
82 88 90 86 88 95 95 95 95 95 91 89 83 81 74 67 69 63 59 53 41 33 32 34 30 28 24 24 21 23 24 20 23 19 23 25 24 25 25 24 26 25 23 27 25 23 21 25 22 24 21 23 25 24 21 21 17 19 20 17 16 15 18 18 14 13 14 12 15 12 15 13 14 12 10 12 12 13 19 13 
81 83 85 86 87 96 97 97 94 93 91 88 89 82 77 66 66 71 69 70 59 56 46 34 33 28 23 25 24 24 22 21 21 20 25 25 23 24 26 25 26 25 23 26 27 25 25 31 27 26 23 23 24 26 20 16 16 20 22 19 16 16 15 15 14 10 11 13 13 12 13 14 11 10 7 13 12 13 13 11 
87 89 85 91 94 99 99 95 94 95 91 92 90 83 80 72 70 71 72 71 73 70 67 63 49 36 26 24 23 27 25 24 22 21 23 25 25 23 24 23 26 24 25 27 27 24 26 26 25 26 22 23 22 21 16 17 16 19 18 16 15 16 16 18 15 12 13 14 13 10 11 13 10 9 11 8 15 9 12 12 
83 88 87 90 101 99 100 101 100 99 92 95 89 88 87 76 73 71 68 70 76 78 74 75 70 64 53 38 29 30 25 26 22 20 24 30 25 23 24 23 26 24 24 28 29 28 25 25 25 21 24 24 21 27 21 20 16 20 18 17 17 18 19 19 17 15 11 15 14 14 13 12 13 13 10 13 12 9 16 14 
83 87 89 87 90 95 96 98 102 99 96 91 90 91 91 79 72 75 71 72 74 77 77 71 76 78 74 67 60 53 33 28 26 19 24 26 24 23 24 22 26 26 24 25 30 31 24 25 22 22 21 22 23 21 20 19 15 19 17 16 17 17 14 17 13 14 11 15 12 13 12 13 9 9 8 9 11 9 15 6 
85 87 93 85 89 101 100 99 105 99 90 93 93 93 90 79 73 71 70 74 75 77 76 78 77 78 77 78 78 80 70 62 43 27 22 26 24 26 23 24 25 27 24 25 25 27 29 23 25 21 22 23 24 19 20 21 19 19 18 19 18 18 17 18 12 13 14 16 17 13 15 10 12 13 8 13 8 10 13 8 
89 91 92 90 95 99 97 104 106 102 97 102 97 98 95 83 74 72 70 74 74 74 80 78 79 76 79 76 80 87 74 77 73 62 53 33 27 26 24 27 26 23 23 29 25 25 26 20 25 23 21 24 25 24 21 22 20 18 19 16 16 21 17 19 16 14 11 16 15 12 14 13 13 10 10 10 11 2 12 6 
96 95 93 94 94 99 102 104 106 105 104 99 98 97 96 88 76 78 73 74 77 77 82 74 77 77 81 80 79 82 81 81 79 73 74 62 57 38 31 26 28 26 25 23 26 25 19 24 22 25 21 25 25 22 24 23 19 20 20 19 20 17 17 15 16 11 11 16 15 12 14 10 9 9 10 11 6 10 9 4 
103 97 101 95 96 99 100 106 111 110 108 104 101 99 97 92 77 81 78 79 78 81 74 82 78 80 82 76 84 83 81 82 83 78 83 81 79 68 65 48 36 27 26 27 30 24 26 26 23 25 22 28 26 25 23 25 21 23 24 20 23 18 15 12 13 14 9 14 16 12 14 12 12 9 9 13 15 11 10 5 
110 104 104 100 104 99 106 108 114 115 109 108 105 100 101 100 85 84 83 86 83 82 78 79 84 83 80 82 86 85 83 83 84 82 88 85 79 79 81 73 64 55 42 31 32 28 27 29 26 26 23 23 25 26 25 25 22 19 24 24 21 20 21 17 14 14 9 12 15 12 17 14 14 11 10 15 11 14 13 8 
127 115 110 104 112 105 106 108 119 119 114 112 112 108 106 98 85 83 81 85 86 82 82 79 85 83 86 86 88 90 84 85 85 81 81 82 80 80 80 82 79 73 68 61 49 37 34 25 31 30 22 26 25 26 24 22 15 20 22 20 15 16 17 18 13 14 11 14 14 12 18 14 8 7 9 8 9 9 12 7 
112 126 131 111 122 116 111 117 122 124 122 119 109 109 108 108 87 83 77 84 88 89 87 86 90 87 88 89 91 90 84 88 88 83 86 84 80 81 82 79 80 78 73 70 67 60 55 36 31 27 22 25 26 23 19 18 18 22 20 16 15 14 14 11 12 11 11 17 16 10 15 13 11 11 7 11 14 11 9 8 
70 99 133 144 136 132 117 121 126 130 132 124 119 116 112 115 91 84 80 85 86 84 88 91 91 88 92 85 90 89 90 90 88 87 88 85 85 83 85 78 82 78 77 75 75 69 65 56 40 27 23 25 23 26 18 19 18 17 17 16 12 16 14 16 15 12 6 12 13 11 13 15 12 8 6 9 13 9 8 3 
40 55 83 115 142 145 141 130 137 137 134 136 129 125 120 118 100 87 84 84 91 89 88 93 92 91 90 88 90 94 88 85 91 89 90 89 89 87 84 81 79 83 79 78 71 72 69 55 34 31 24 28 23 20 21 19 22 20 13 17 12 15 12 16 11 10 9 10 12 17 28 12 13 13 11 11 12 10 8 8 
31 35 35 44 83 124 158 163 153 147 143 143 141 134 131 130 102 89 81 91 87 90 88 87 96 91 91 87 90 93 91 89 88 88 93 90 89 84 86 80 80 80 76 77 77 77 68 62 44 31 25 27 24 23 20 21 17 19 17 20 15 14 15 11 13 12 10 12 11 11 11 10 13 15 13 11 10 9 10 9 
27 21 23 22 33 55 102 154 175 175 156 160 152 140 138 139 114 86 87 90 91 89 94 93 90 89 92 91 94 94 93 94 90 90 96 89 89 90 82 84 80 80 79 77 73 78 70 69 40 30 28 29 22 18 18 17 15 19 18 14 14 14 16 13 11 10 6 10 9 10 10 10 10 11 5 8 9 11 7 3 
23 21 24 25 25 29 38 73 124 161 182 171 174 158 150 144 125 96 88 89 93 94 96 95 95 92 93 90 105 99 97 100 94 96 97 96 92 88 90 85 87 83 74 80 75 74 70 59 45 28 25 29 20 24 21 21 17 21 16 19 20 19 17 16 15 10 8 11 14 12 12 11 11 9 8 10 13 10 9 5 
23 19 21 17 26 29 30 23 48 83 129 196 197 177 159 158 136 108 90 95 93 93 89 96 95 95 94 93 103 102 100 100 100 97 97 99 98 92 89 88 90 82 82 82 79 79 67 64 43 28 22 25 27 25 24 21 19 18 20 20 21 18 15 22 16 11 10 14 13 11 9 13 13 11 6 11 12 11 12 6 


