P2
80 60
303
150 144 150 145 144 148 143 144 142 133 127 75 35 32 78 99 96 95 113 112 117 121 117 116 119 118 121 120 121 118 119 120 120 114 106 105 120 122 121 118 126 136 135 132 133 136 135 133 135 130 133 132 132 134 131 136 136 134 131 130 130 131 129 130 129 131 126 128 133 132 133 140 141 137 142 143 142 138 137 139 
150 147 151 144 143 143 145 144 139 135 126 68 33 31 72 91 99 96 114 114 127 123 118 119 116 119 129 127 126 123 117 120 116 116 108 107 120 123 120 120 125 137 132 137 138 139 134 136 134 132 133 131 130 134 135 136 139 135 134 129 134 131 124 127 129 125 127 125 129 133 139 137 139 137 139 142 141 139 138 143 
152 145 154 143 143 147 144 144 138 137 126 67 28 28 66 87 94 96 113 117 121 120 117 117 122 120 128 125 123 120 118 121 115 115 103 106 118 124 119 121 121 136 135 135 139 136 134 136 134 130 131 136 133 133 131 136 136 132 132 128 131 129 128 131 127 125 129 134 135 135 139 140 143 139 140 140 138 143 140 143 
147 142 148 144 140 146 143 143 140 133 125 61 25 33 63 83 89 97 113 116 117 121 122 115 120 120 123 120 122 118 120 120 117 110 101 106 119 127 120 121 124 139 132 137 139 139 136 138 137 136 135 133 132 134 132 135 132 132 134 133 134 130 129 129 129 125 127 132 132 137 140 139 139 137 140 135 136 144 141 140 
151 142 149 147 140 147 140 142 137 135 120 67 29 39 64 82 87 97 111 115 114 117 121 122 120 120 123 120 118 118 119 116 116 113 101 109 116 131 119 122 123 139 134 137 136 138 137 138 135 134 135 136 132 135 132 132 134 132 134 131 133 133 129 130 127 127 129 139 135 137 141 140 138 137 138 141 144 145 143 142 
148 143 148 144 141 148 144 139 140 128 115 64 24 43 64 73 89 100 107 117 111 118 119 118 122 121 122 122 117 117 118 114 114 111 104 105 118 126 120 119 127 135 138 136 137 141 139 136 136 136 134 137 135 131 131 136 132 137 136 135 133 127 127 134 129 136 133 139 140 137 139 137 143 137 139 143 143 143 140 138 
148 142 146 143 139 146 140 141 134 129 114 60 22 43 71 82 94 94 110 109 113 114 116 116 116 121 120 117 117 117 117 117 116 110 104 104 119 123 115 118 124 138 134 134 136 139 136 137 135 133 135 137 133 132 134 132 132 135 136 129 132 128 126 127 129 130 132 132 135 137 139 138 139 138 141 142 141 139 141 142 
148 143 148 143 138 152 144 142 132 130 120 56 19 35 59 74 85 97 104 110 110 113 115 112 119 121 121 117 115 116 118 117 114 109 102 108 119 124 115 121 128 135 135 133 136 138 135 133 133 135 136 135 139 133 134 138 133 135 130 133 131 131 127 129 123 130 132 136 136 135 141 137 139 136 138 140 140 139 141 136 
149 142 144 150 140 142 139 141 132 130 117 48 7 21 39 60 83 90 103 104 109 109 108 113 117 118 119 114 120 118 121 116 115 111 103 106 121 122 115 118 129 133 131 134 139 135 133 137 133 134 135 133 133 134 131 133 132 133 134 133 130 133 127 127 129 130 133 137 134 137 139 138 142 137 139 138 138 137 136 137 
146 140 149 144 145 144 144 141 133 128 113 50 4 19 36 52 80 91 97 95 99 107 107 112 113 117 120 118 121 118 114 119 114 110 100 107 119 120 116 120 132 132 129 133 138 136 133 135 136 135 135 134 134 133 134 134 135 130 131 133 130 134 128 129 128 130 135 133 136 134 138 138 139 137 138 141 139 138 136 139 
146 139 153 145 145 149 148 138 138 128 111 49 3 19 34 46 72 82 95 93 100 103 102 106 114 111 116 114 118 116 113 115 114 109 100 103 117 120 115 117 128 134 132 137 138 136 131 135 134 133 135 136 133 133 132 132 132 132 131 131 129 127 127 130 129 130 132 137 132 135 137 141 141 136 136 143 139 139 139 142 
143 140 152 150 144 146 145 140 137 126 113 48 4 11 30 45 64 77 88 90 96 103 102 106 104 113 110 116 116 115 115 115 115 108 101 98 118 116 113 114 127 133 131 134 136 136 136 136 134 134 136 135 133 133 133 131 132 131 131 130 129 131 127 130 128 129 129 133 136 134 138 135 139 138 140 146 142 142 143 137 
152 141 141 151 143 144 145 141 136 133 115 42 3 8 32 46 62 71 81 89 108 113 109 109 107 106 115 114 112 116 116 114 115 109 100 103 114 115 108 115 127 135 134 135 139 138 136 137 134 134 136 133 132 130 131 134 134 133 131 132 134 131 131 128 129 130 130 134 129 137 127 137 138 139 140 142 143 140 139 139 
144 137 139 140 146 146 148 145 138 130 115 47 4 6 26 49 57 66 76 89 113 118 116 103 105 109 112 110 109 112 113 116 114 107 97 102 115 118 108 116 127 134 132 137 138 140 136 137 138 139 134 134 132 132 131 132 133 136 134 133 132 131 127 127 131 129 132 135 130 136 136 135 135 137 140 139 140 139 141 144 
143 131 134 140 137 148 144 143 139 132 108 44 2 10 22 41 55 67 74 85 101 104 104 100 100 106 108 108 113 109 112 112 112 107 95 103 113 117 112 116 124 134 132 134 135 137 135 137 137 137 133 133 131 132 131 134 135 142 135 133 130 130 129 127 133 133 130 133 131 134 134 137 140 137 139 140 139 139 138 140 
143 129 131 138 142 146 145 142 141 127 108 48 5 2 24 33 54 66 77 88 103 105 106 96 101 106 111 108 108 113 110 115 111 105 98 102 113 117 109 114 125 137 131 132 137 136 133 133 134 134 135 133 134 133 131 135 135 138 138 135 132 129 126 125 128 133 132 131 131 135 138 140 141 139 140 140 139 141 140 140 
138 127 128 136 140 143 143 144 136 126 105 50 1 2 17 35 63 71 88 94 105 102 106 99 102 100 109 108 109 115 116 114 113 106 97 102 117 119 115 118 123 136 133 134 133 136 133 135 132 134 134 133 132 133 134 136 136 135 135 135 131 130 131 128 128 128 129 135 134 137 137 143 146 139 137 141 138 142 142 140 
128 115 124 122 133 144 143 141 136 130 106 48 3 0 20 39 62 81 89 93 96 105 109 106 107 110 106 103 106 114 110 114 114 107 96 103 117 121 113 117 127 135 134 131 137 136 134 135 135 132 132 134 130 132 133 132 133 139 136 132 133 130 127 126 128 131 135 136 134 133 140 143 143 141 142 141 142 139 140 143 
129 109 114 122 129 142 143 140 136 128 102 47 0 0 18 32 65 83 90 87 91 98 107 113 111 105 108 105 106 109 108 112 112 104 97 104 116 119 116 119 127 138 132 136 139 135 133 131 135 134 134 134 136 136 134 133 135 136 135 134 132 131 127 128 131 130 130 135 135 136 139 141 139 138 140 139 137 143 140 136 
133 121 121 124 133 142 143 144 138 129 100 46 3 1 22 35 64 84 88 88 90 103 113 107 110 106 108 105 106 110 110 107 109 103 97 105 115 122 116 119 130 136 133 132 140 135 134 135 134 138 132 134 134 131 131 135 134 132 135 131 133 128 126 130 129 130 129 132 136 139 141 141 143 139 140 139 138 138 142 137 
133 121 118 120 132 140 140 141 137 129 95 49 5 5 18 38 68 80 88 84 84 97 105 113 113 109 105 104 102 109 114 112 108 102 93 108 114 118 115 115 130 139 131 133 138 133 135 134 136 136 133 134 134 133 137 130 133 130 132 134 131 126 125 127 127 128 133 134 135 139 143 140 139 138 139 141 141 142 143 142 
130 122 126 125 127 138 140 143 138 132 97 47 16 11 16 36 69 85 85 85 93 97 102 104 113 113 106 103 105 109 112 109 107 100 90 106 114 116 115 116 133 136 133 132 134 134 132 135 133 135 135 135 132 133 133 133 131 130 134 131 131 129 128 130 130 131 135 135 140 140 144 141 141 139 141 142 141 138 143 142 
135 121 116 122 124 134 141 140 136 126 91 50 18 11 21 39 76 81 88 88 88 95 99 96 107 112 104 105 103 108 106 107 108 101 89 102 114 116 112 116 128 134 132 132 133 134 139 136 134 136 134 136 134 133 131 134 134 131 134 131 132 129 127 128 130 133 133 134 134 138 141 142 144 140 143 144 143 142 138 140 
130 103 117 115 121 132 136 147 138 123 86 46 14 18 28 47 73 85 90 89 91 97 96 92 95 97 97 102 105 99 104 106 103 100 87 102 110 112 110 113 129 133 129 131 136 137 134 136 135 137 137 137 134 133 132 131 134 134 133 128 130 129 130 130 130 132 133 134 138 138 141 142 143 139 142 143 140 140 141 144 
119 98 104 106 122 133 137 138 137 123 87 51 22 30 34 42 63 82 90 87 88 97 97 95 95 93 98 98 100 99 102 102 103 97 88 98 108 114 110 111 131 132 129 133 136 134 134 138 135 135 131 133 132 133 133 134 135 133 134 133 132 130 126 127 130 131 135 134 136 139 140 142 142 144 141 141 143 144 147 141 
114 100 106 106 125 130 132 138 131 120 83 51 22 31 35 42 61 81 87 84 85 89 95 96 93 91 95 97 101 100 104 103 100 96 90 99 112 111 110 111 128 133 132 133 139 139 135 138 135 136 130 132 134 134 130 132 133 132 134 133 131 130 127 128 132 135 132 139 136 139 139 141 143 139 144 146 143 145 143 149 
116 92 104 116 127 131 133 137 130 116 81 49 22 26 33 41 56 75 81 80 83 93 98 94 92 94 95 95 98 101 99 104 100 93 86 95 108 109 106 108 125 130 131 135 138 137 136 138 135 135 129 132 131 131 130 137 130 130 132 133 130 130 125 128 130 132 135 137 135 139 140 142 143 140 144 140 146 143 145 143 
117 99 107 114 122 129 130 132 130 116 85 54 21 34 38 38 55 67 77 78 86 89 94 95 92 94 94 97 97 99 97 103 99 91 88 92 104 105 104 109 124 132 131 133 137 134 134 133 135 133 134 133 133 131 129 132 132 129 131 132 133 127 126 132 130 137 136 140 141 138 143 141 144 146 143 145 144 144 143 143 
120 108 114 102 107 132 127 132 126 107 79 50 25 34 40 40 54 64 75 75 81 83 90 87 89 91 92 93 98 98 97 102 97 91 83 92 101 102 101 110 123 130 133 132 137 136 133 136 133 135 133 129 132 132 132 131 134 128 131 131 131 128 129 140 135 138 137 143 141 140 146 145 145 144 147 147 145 144 141 149 
119 97 99 82 82 100 102 110 104 93 78 49 23 36 43 41 54 66 71 71 77 84 88 86 84 86 92 89 89 95 95 101 94 89 82 94 100 101 99 107 124 132 131 131 138 138 135 138 134 136 135 134 133 130 129 132 131 131 133 133 132 135 137 141 139 141 142 140 142 144 148 148 144 146 146 151 146 146 142 144 
117 74 65 64 67 76 81 77 65 73 72 52 22 27 43 40 51 63 70 70 74 81 85 76 84 87 92 90 89 95 97 94 94 90 83 94 95 98 92 103 123 132 132 133 140 138 138 137 139 140 134 136 134 133 131 134 134 134 134 135 141 155 157 154 150 142 140 143 145 146 149 152 148 147 147 145 140 149 142 141 
114 78 57 61 64 67 75 68 63 71 71 45 10 18 37 41 48 55 77 69 72 77 80 79 84 91 92 93 95 98 97 101 97 91 77 90 84 97 87 102 120 132 128 134 139 142 161 169 158 142 140 134 135 135 136 138 138 137 134 134 140 175 188 185 183 175 163 155 152 150 152 152 149 146 148 147 145 146 145 144 
113 82 58 56 63 67 67 71 57 64 65 44 7 5 32 37 50 55 72 73 72 74 72 82 109 123 128 127 129 129 132 130 128 120 115 107 90 91 87 99 117 131 130 133 140 155 214 223 187 146 140 145 138 137 133 137 134 134 131 131 142 183 188 192 197 200 202 200 189 179 171 159 157 152 150 155 150 147 145 151 
105 78 53 47 55 55 62 59 56 57 60 38 3 13 36 39 46 53 67 70 68 66 68 86 125 141 144 144 143 144 143 141 142 136 137 111 89 84 81 98 115 127 129 134 139 155 226 255 193 151 151 149 135 137 133 133 133 130 132 133 142 188 189 196 202 204 210 212 211 212 209 190 174 164 163 160 151 152 152 148 
107 80 48 33 44 44 55 51 50 50 56 39 7 19 40 44 47 49 60 61 59 60 70 101 136 141 147 145 147 150 145 147 144 141 142 124 88 81 80 97 117 129 128 130 136 152 203 219 192 151 139 141 136 133 132 135 134 134 129 132 149 189 193 197 207 210 209 218 219 217 215 205 197 183 180 176 165 164 151 153 
101 87 37 31 32 36 43 41 39 47 50 37 15 11 41 39 42 46 51 51 47 51 65 127 141 141 147 147 148 147 148 150 150 146 145 140 95 81 77 93 114 127 130 133 138 153 183 197 188 171 141 137 137 134 132 139 133 134 132 136 160 193 195 202 208 214 214 222 222 227 214 209 201 192 187 198 192 186 173 159 
102 90 45 29 29 35 42 44 43 45 46 29 13 27 39 40 48 46 55 51 52 64 87 133 140 145 147 150 151 153 151 153 148 145 148 149 109 85 77 91 115 127 129 132 141 165 171 179 180 178 159 136 136 134 133 137 135 132 132 131 170 194 195 202 211 217 219 226 228 229 219 210 206 197 196 199 200 200 197 191 
101 90 45 29 27 35 36 35 41 33 35 33 29 39 51 40 43 54 53 48 51 66 109 140 142 144 147 151 148 149 148 148 152 150 151 146 128 88 83 91 110 129 126 128 139 158 163 169 169 171 162 138 135 132 131 137 133 138 137 137 173 194 199 205 213 218 219 227 226 229 220 215 204 196 197 199 202 206 208 207 
94 92 57 28 19 27 28 25 26 22 29 47 70 74 76 45 49 48 49 49 55 82 132 143 148 152 148 148 150 152 148 152 152 154 148 148 141 105 83 90 111 123 125 130 140 150 156 162 154 149 142 140 135 132 131 137 140 141 142 147 185 202 203 213 214 220 226 227 227 230 222 216 206 195 200 203 205 208 209 209 
91 94 59 22 19 22 26 26 25 28 39 66 74 77 79 45 44 42 51 48 64 110 138 148 151 148 152 152 152 153 148 149 151 149 148 148 143 138 105 90 109 123 128 130 137 141 146 144 140 139 134 136 133 130 134 141 140 143 144 156 200 208 207 213 221 222 223 231 230 232 226 219 207 200 197 205 211 208 218 216 
90 91 72 34 30 28 35 31 35 42 53 64 73 78 77 50 51 53 58 57 91 135 145 150 155 156 159 153 150 152 151 154 152 154 148 145 147 146 137 114 113 127 128 129 138 140 139 143 138 139 139 139 134 137 134 139 138 138 146 160 212 220 221 218 224 226 229 234 236 238 229 227 204 203 201 210 211 212 224 219 
85 93 78 39 36 37 41 40 39 45 51 59 73 82 72 56 57 58 70 81 122 142 145 147 149 151 156 154 150 152 155 157 152 154 148 139 141 144 146 139 122 131 127 132 136 137 138 138 136 139 136 137 133 133 132 137 134 137 143 152 213 241 234 238 232 227 231 244 237 244 237 232 214 208 204 209 219 220 221 220 
85 93 84 56 58 64 68 68 75 77 80 79 83 89 91 80 83 82 94 109 135 142 145 140 138 151 157 153 153 158 157 154 156 149 145 138 138 144 146 145 140 136 129 126 134 134 134 138 134 136 137 136 135 136 133 137 135 131 141 146 160 201 236 253 249 241 237 251 248 248 243 240 213 206 208 212 216 222 223 225 
86 94 86 77 90 93 96 95 99 96 103 101 100 104 108 104 104 104 114 122 137 143 144 136 129 151 153 152 154 153 154 153 150 151 144 135 135 137 148 147 146 139 131 132 136 137 138 146 141 139 143 140 140 140 134 134 134 129 145 148 147 153 175 217 258 264 264 264 261 259 256 249 218 207 211 214 222 223 229 226 
99 100 96 87 96 98 101 99 103 99 101 102 104 106 110 100 106 102 116 130 143 143 141 128 132 148 152 151 148 150 154 155 151 151 149 137 134 138 147 148 147 142 135 133 140 142 145 150 144 144 144 147 145 143 135 130 132 134 145 150 153 154 152 157 182 239 286 285 282 281 263 255 224 214 217 217 223 224 229 226 
101 99 102 99 100 99 102 100 101 100 100 100 102 107 108 105 105 102 117 131 137 146 142 142 143 153 154 151 152 156 151 152 151 148 149 148 145 145 146 151 147 144 133 132 136 143 140 142 143 143 145 143 146 142 140 134 133 138 147 152 152 151 149 151 152 170 202 261 297 303 282 263 224 218 223 221 221 225 229 233 
105 103 106 98 97 100 101 99 99 98 100 99 104 102 103 101 103 101 113 130 139 146 145 142 149 155 159 153 154 156 153 151 149 151 152 148 149 150 152 149 148 144 126 122 127 137 132 137 135 139 135 133 132 131 137 134 132 138 139 146 146 146 144 146 149 150 158 182 219 275 287 264 234 225 227 227 227 228 234 232 
101 102 103 99 101 97 100 97 97 96 97 98 101 106 104 101 97 101 109 127 141 144 148 158 151 156 156 153 150 158 150 153 151 151 148 151 156 153 150 148 145 149 136 120 125 130 133 133 133 131 130 127 136 131 129 138 131 134 132 141 142 142 140 145 146 146 148 157 162 179 213 221 229 230 233 233 229 232 239 235 
101 101 105 101 99 101 99 99 99 96 101 99 97 103 104 103 102 100 106 119 137 146 155 157 156 157 157 153 156 157 153 152 148 152 151 154 152 153 149 143 142 145 140 128 133 136 135 136 135 133 133 130 130 133 132 145 140 136 140 137 138 143 142 148 145 143 149 152 151 156 163 174 186 219 237 242 234 237 239 235 
101 101 103 99 101 96 100 96 99 98 100 100 105 100 106 105 102 102 108 112 132 144 146 155 155 156 154 156 156 155 156 153 153 147 149 147 151 152 150 145 143 145 143 142 140 140 136 142 142 139 134 136 136 135 138 143 141 142 139 145 147 144 145 143 147 145 143 149 148 152 154 159 161 176 215 242 240 244 242 231 
98 105 105 100 99 96 99 94 97 99 100 99 100 102 101 98 99 99 102 106 126 142 148 150 154 151 155 152 152 151 153 153 151 149 152 149 150 153 151 143 142 140 144 141 144 143 144 152 152 151 144 141 138 143 137 141 140 143 148 143 148 150 144 152 154 154 149 146 147 147 150 151 155 151 174 210 236 252 250 246 
102 102 106 103 99 97 95 97 97 98 99 98 102 97 102 99 98 96 105 109 126 140 146 156 154 155 156 153 151 154 153 151 151 150 154 148 154 152 148 144 139 139 136 141 145 146 149 159 161 159 153 151 142 144 140 142 144 144 150 153 155 153 149 155 159 176 174 163 147 149 148 149 149 148 156 167 201 240 259 250 
105 102 103 99 97 95 97 93 95 96 100 98 100 103 103 100 100 99 104 104 127 141 145 149 150 153 155 155 155 153 153 152 150 151 148 153 151 150 144 141 138 133 132 139 142 149 153 156 161 164 159 157 150 147 142 146 144 148 153 154 158 156 153 155 159 169 186 180 152 147 149 150 148 149 151 149 156 189 236 253 
103 100 105 102 99 94 97 93 92 96 97 98 101 101 103 97 97 99 100 101 124 140 142 150 155 155 155 152 156 157 155 153 154 153 151 151 151 148 141 140 139 136 129 138 145 149 157 158 159 159 162 159 153 151 150 152 154 147 147 151 153 156 158 159 162 166 169 173 161 153 152 149 147 146 144 144 149 152 175 223 
100 103 104 99 99 94 95 90 94 99 103 98 99 100 102 96 97 97 101 104 121 137 145 148 154 155 160 154 157 150 152 152 151 150 151 147 150 144 142 139 138 135 130 138 149 155 156 162 159 160 160 153 152 154 149 149 151 151 149 149 156 157 158 166 163 163 164 161 156 159 164 173 159 148 144 143 141 144 153 166 
100 98 102 99 98 96 93 90 92 96 100 98 100 99 97 98 96 98 121 124 129 140 145 146 150 156 156 156 153 152 152 150 153 148 148 148 144 147 140 140 141 140 136 136 150 152 159 160 160 161 160 163 156 153 153 158 154 152 155 152 150 159 160 164 166 162 161 161 160 164 182 174 171 146 147 146 147 140 148 149 
105 104 106 101 96 95 89 87 91 94 98 98 106 100 101 94 95 114 135 140 140 137 141 143 148 151 154 151 150 150 149 148 150 146 147 144 147 143 139 139 140 142 135 136 146 151 155 162 162 165 162 170 164 159 159 160 158 156 153 157 156 156 161 165 169 165 164 162 163 176 183 181 168 151 150 149 141 145 143 143 
105 102 105 101 98 96 94 94 94 92 99 95 100 100 100 96 100 118 140 143 142 140 143 140 146 149 153 148 152 147 144 145 144 146 146 145 147 143 143 140 138 142 136 143 160 162 161 168 160 161 162 166 168 168 162 161 163 158 157 159 157 155 156 162 164 168 160 164 159 167 172 167 156 152 151 147 143 139 143 143 
105 100 105 98 97 93 96 94 95 95 99 97 101 96 102 96 95 116 141 145 143 137 142 138 145 144 146 146 148 146 143 144 144 143 143 144 143 144 139 139 136 139 136 148 160 159 161 166 159 157 159 164 173 169 164 165 158 157 158 158 155 156 154 157 163 161 159 163 159 156 158 158 155 149 151 146 142 146 145 147 
103 101 110 101 99 96 96 95 97 91 98 92 98 96 97 93 92 115 140 142 139 130 137 133 141 143 144 143 143 147 142 138 144 143 141 143 146 142 136 137 131 133 130 143 154 157 162 162 160 159 161 157 166 170 161 161 158 154 161 157 154 154 155 156 159 156 158 154 153 154 156 154 155 151 144 144 144 141 142 144 


