P2
80 60
51
35 43 35 40 35 40 39 42 40 37 39 40 43 44 36 36 42 38 37 37 42 39 39 37 38 36 39 35 38 39 40 38 43 44 40 37 38 38 33 37 41 40 43 41 41 33 33 31 38 35 34 32 34 37 34 37 37 37 38 35 36 35 34 33 34 35 29 28 28 31 29 34 36 32 27 35 31 29 28 24 
43 41 38 41 40 38 38 43 38 39 42 43 34 40 37 39 41 40 38 37 43 41 37 37 38 36 41 39 38 41 40 41 39 41 43 39 37 38 35 36 41 40 41 40 36 36 35 35 37 33 34 34 37 36 33 38 38 35 39 36 32 31 31 30 33 31 30 27 27 27 29 29 32 34 33 31 29 29 26 29 
45 45 38 35 38 40 41 34 40 41 42 43 37 37 39 38 38 35 40 37 41 39 42 36 37 40 40 38 41 42 40 42 41 41 44 36 36 39 35 38 37 38 39 40 36 34 32 35 32 33 30 30 31 37 33 33 34 31 34 33 34 31 29 30 31 28 28 25 28 29 30 32 30 29 29 28 29 26 28 26 
46 43 37 41 37 42 43 38 36 39 42 43 35 32 36 37 38 36 39 36 38 42 41 38 36 42 39 38 39 42 36 40 43 38 39 40 32 37 38 39 37 38 39 37 38 32 36 33 35 34 34 31 32 34 32 32 35 35 33 33 32 32 31 32 30 34 31 26 29 26 32 34 31 25 27 32 30 21 24 25 
49 44 38 44 38 41 38 39 41 39 43 40 37 41 36 40 40 35 42 40 41 42 40 38 39 40 42 38 42 39 37 38 36 39 38 36 36 42 42 39 36 39 39 36 39 35 38 34 34 32 31 33 33 34 31 33 34 31 35 31 33 33 32 34 34 33 31 32 34 30 32 30 31 28 31 30 31 26 27 29 
39 38 35 39 35 41 39 39 38 38 39 36 36 39 38 37 38 41 39 38 42 41 42 39 34 43 39 38 40 36 36 39 37 36 37 35 37 39 35 34 36 38 40 36 36 36 37 37 32 36 33 29 33 33 33 37 34 33 34 32 37 35 30 33 29 31 32 29 34 31 32 32 30 27 24 27 31 27 25 22 
37 42 36 40 39 37 44 41 41 42 44 41 36 41 36 35 45 42 43 37 41 42 41 36 36 39 38 38 42 40 36 40 37 38 37 39 35 40 37 37 40 37 36 38 40 37 32 33 34 33 35 35 37 33 34 35 37 37 42 34 34 33 34 32 31 31 30 29 32 30 28 32 28 30 28 27 25 29 29 24 
42 47 40 44 40 40 43 41 37 37 38 43 39 42 38 39 42 40 40 38 44 41 39 38 36 44 41 37 40 41 34 38 37 41 42 42 36 36 37 40 40 35 39 39 37 35 41 38 39 35 37 38 42 38 35 38 35 34 36 33 35 33 35 30 31 32 30 26 29 28 28 28 27 29 28 32 29 27 29 25 
45 45 41 45 41 42 44 43 38 40 39 39 41 39 37 39 41 40 42 45 42 37 40 37 39 41 40 37 43 37 37 39 34 36 42 38 31 38 36 36 38 37 33 40 40 34 36 38 39 37 37 39 40 40 34 38 39 35 39 39 35 34 33 30 26 36 29 28 29 29 28 29 28 29 25 28 32 27 21 25 
49 46 42 46 41 41 47 42 40 35 40 39 39 39 34 38 44 37 42 41 41 41 40 38 38 41 38 36 38 39 34 33 37 34 40 40 37 38 35 37 36 35 33 35 37 33 34 36 39 37 40 39 41 39 38 40 37 39 41 36 35 36 36 31 31 35 33 30 35 27 28 32 30 27 31 25 26 26 23 23 
45 47 38 47 44 42 44 42 37 39 38 37 39 36 36 39 40 39 39 39 40 40 41 39 39 41 38 36 38 33 33 38 33 35 35 39 37 35 33 39 32 34 35 34 36 34 35 38 37 37 40 39 39 39 38 39 38 37 36 37 35 34 31 34 33 32 32 29 29 29 29 31 29 30 27 26 29 25 26 26 
49 47 42 44 43 42 45 38 35 36 40 40 38 37 36 34 38 35 36 37 38 38 45 36 38 37 39 32 37 35 35 37 38 36 37 35 32 33 37 36 37 36 31 36 36 36 36 36 33 36 39 40 36 43 38 38 35 38 35 34 34 35 34 32 32 35 27 28 27 28 27 27 31 31 30 30 29 21 22 24 
48 47 40 51 42 42 39 38 36 35 35 38 37 41 34 33 37 37 35 37 40 39 40 38 36 40 34 37 37 37 35 35 37 36 38 39 33 37 34 39 36 33 37 35 38 35 37 37 36 33 39 36 38 37 35 35 37 34 35 33 34 34 36 33 32 32 31 24 30 29 18 29 24 28 28 26 29 28 30 18 
45 44 44 46 46 41 39 37 37 35 36 37 38 37 38 35 37 38 38 34 41 39 41 37 35 38 38 35 37 37 37 33 38 37 37 36 34 37 34 32 33 35 36 34 34 36 37 36 36 42 37 32 34 37 35 38 37 37 39 35 36 34 32 31 29 30 25 30 29 26 28 26 27 26 26 26 30 26 29 24 
47 42 43 47 43 43 40 38 34 36 38 36 34 36 35 34 37 35 37 34 33 40 42 38 37 35 38 34 38 38 35 34 37 34 37 33 33 34 32 35 36 34 34 36 33 30 37 33 35 37 39 39 38 38 34 40 39 45 38 33 34 29 30 31 28 27 31 29 29 25 28 27 27 25 34 25 27 29 27 24 
39 46 40 43 43 40 41 39 35 35 35 38 34 42 38 35 36 33 37 32 36 39 38 39 35 39 37 37 39 36 36 35 37 35 34 36 32 35 31 34 37 35 36 36 33 33 38 33 30 35 34 32 37 37 36 39 37 37 36 37 31 31 33 30 33 33 26 32 29 28 30 30 27 25 27 26 27 26 28 23 
50 50 41 46 41 40 38 35 38 35 38 37 34 37 38 38 35 35 37 31 37 41 40 35 34 36 35 39 39 40 35 34 40 39 36 37 32 34 33 37 39 34 31 35 35 38 34 35 32 34 35 33 36 36 35 41 38 37 40 34 32 33 32 32 30 30 28 32 30 27 30 28 31 26 26 29 27 26 26 24 
48 43 41 47 41 40 40 37 35 31 35 40 33 36 37 36 39 36 37 33 38 38 38 36 35 37 35 36 42 39 36 33 38 38 38 34 32 34 33 37 36 30 34 33 37 38 38 30 34 31 33 35 39 35 39 34 34 42 38 35 33 29 31 31 29 27 23 29 32 26 28 26 33 23 27 28 28 28 27 23 
47 48 40 44 45 37 38 35 35 33 38 38 37 39 35 37 37 36 35 34 37 36 39 37 32 36 36 37 40 39 36 35 41 35 40 33 33 34 35 33 36 35 33 38 34 33 34 32 31 34 37 34 41 38 35 36 35 36 35 32 32 31 31 28 29 30 28 29 30 28 26 31 27 26 25 25 27 25 27 22 
46 49 41 42 40 44 40 35 32 33 42 40 38 34 31 35 38 37 42 33 40 39 42 37 36 39 38 36 37 40 37 37 33 36 39 38 31 39 34 36 40 34 33 36 35 32 33 37 34 33 35 38 39 36 36 37 35 29 36 32 31 32 31 29 28 32 28 29 32 27 30 31 28 28 24 26 26 23 21 19 
44 43 39 42 43 39 42 34 36 36 37 37 34 39 30 33 35 36 37 35 36 38 42 40 36 38 40 37 38 34 45 37 35 34 36 34 38 34 32 32 35 39 36 32 35 30 32 31 33 30 33 36 37 36 35 35 32 32 34 33 32 30 30 29 32 26 28 29 32 27 33 28 24 22 22 24 25 22 23 20 
46 43 40 43 40 39 41 36 34 33 35 37 38 37 36 32 36 35 36 35 37 35 40 38 35 40 35 37 34 37 37 34 36 37 33 34 33 33 32 34 36 36 32 30 29 29 31 33 30 31 33 32 38 32 33 32 32 32 36 30 32 30 30 32 34 32 28 32 32 30 21 26 27 25 28 24 27 26 30 19 
42 43 40 41 38 38 43 39 39 31 35 39 37 39 35 35 34 34 39 37 36 38 36 38 34 38 36 35 38 34 35 35 36 33 34 33 31 33 32 38 35 33 30 31 30 25 30 30 31 31 35 32 35 35 30 33 30 31 33 34 34 26 31 30 32 30 34 29 31 26 25 30 33 24 22 26 27 22 23 23 
44 48 37 40 37 35 43 41 37 33 36 37 35 34 33 35 33 34 36 34 35 36 36 36 33 37 36 32 33 36 33 34 32 32 32 29 29 32 32 33 32 32 28 29 34 31 31 30 33 35 34 32 36 35 34 33 31 29 31 32 26 27 28 29 28 30 27 29 25 29 28 29 26 22 27 24 25 24 22 19 
39 42 36 38 37 36 43 37 36 35 37 38 38 33 33 31 39 33 36 34 38 36 35 34 34 34 32 33 35 35 32 31 32 31 31 30 29 32 31 32 31 31 30 31 37 29 30 34 32 34 32 34 30 32 31 31 29 31 31 32 31 26 30 27 29 29 29 28 28 28 28 23 28 26 25 23 23 22 25 25 
43 39 40 39 38 37 38 38 35 37 37 40 34 36 40 35 32 36 34 33 37 37 37 39 36 38 30 31 35 30 31 30 32 29 33 29 30 33 27 30 30 30 27 30 31 31 27 32 31 29 31 30 30 31 29 28 29 28 32 28 30 28 26 27 31 28 31 27 26 28 25 30 31 27 25 26 24 27 25 26 
43 41 43 42 38 36 40 39 35 37 36 35 35 36 33 32 36 37 33 33 35 38 42 39 33 34 32 32 33 33 32 29 34 31 35 28 31 31 31 32 29 33 28 31 32 29 31 28 30 28 30 32 31 29 25 32 27 28 30 28 28 27 25 22 27 29 25 26 26 25 28 26 28 25 25 23 26 26 25 23 
43 43 43 41 40 36 40 37 38 38 39 40 38 39 35 34 40 37 34 34 40 35 37 34 33 33 36 32 35 33 31 32 28 31 32 28 27 31 28 32 35 30 31 34 30 26 30 26 30 29 29 30 33 29 27 28 30 27 28 29 32 27 28 25 28 29 31 29 28 28 29 28 27 25 24 26 24 22 23 28 
38 44 41 47 37 36 37 38 36 37 37 40 35 37 35 32 33 34 36 34 34 35 36 34 31 38 37 34 37 32 31 31 33 28 34 30 31 32 30 32 33 28 32 31 31 27 30 29 29 29 31 31 29 26 27 29 26 23 26 27 29 28 27 28 26 29 29 24 27 25 30 25 24 25 22 25 22 24 21 22 
44 43 44 39 43 40 36 36 40 37 37 36 35 34 39 34 35 34 35 33 34 33 39 36 33 35 34 33 33 34 30 33 30 29 33 34 32 35 27 29 34 29 32 32 32 29 31 32 29 29 33 33 30 29 29 38 25 25 26 27 29 24 25 28 29 32 20 28 25 28 25 23 29 22 23 25 25 19 20 18 
45 45 43 41 38 37 40 37 34 37 33 37 36 38 33 33 34 33 34 32 36 33 41 36 37 34 35 32 36 33 32 31 31 31 36 34 32 29 31 31 34 31 32 30 35 29 29 30 32 30 32 26 30 28 28 28 30 25 25 25 27 27 28 29 29 30 30 28 28 24 25 29 26 26 25 22 24 21 16 21 
45 45 37 41 38 38 37 33 36 34 36 36 34 35 38 33 35 32 35 34 33 36 38 36 33 35 39 32 31 31 35 32 30 29 34 35 26 30 26 35 36 34 36 36 32 29 27 29 29 36 30 29 32 29 25 29 29 24 23 26 27 24 28 27 29 31 25 24 30 21 27 27 27 22 22 27 25 21 19 17 
38 43 39 41 41 37 37 38 38 31 32 37 33 37 31 33 34 37 33 32 34 31 35 32 33 36 37 34 32 32 31 32 32 27 28 32 27 31 27 33 33 34 32 32 32 26 27 29 29 31 31 30 27 28 26 28 26 28 26 25 26 27 25 27 28 28 27 21 27 24 21 22 24 25 21 22 24 20 25 17 
42 42 37 38 39 35 36 37 37 36 37 34 34 33 32 30 35 34 35 34 35 38 36 33 32 34 34 33 32 38 30 29 31 26 32 29 27 29 30 32 34 30 31 29 29 27 30 30 27 31 32 30 28 27 29 26 27 25 27 27 23 27 28 28 29 25 27 25 23 25 24 26 26 23 25 22 26 18 21 16 
42 42 39 40 37 35 35 37 33 32 35 38 35 37 34 36 37 32 34 35 36 35 38 36 36 38 34 34 35 31 33 32 32 31 34 27 27 30 30 30 32 32 29 30 33 31 30 28 26 29 33 33 31 26 27 25 25 26 29 21 23 24 28 27 28 25 26 25 26 25 25 26 26 24 25 22 27 19 19 23 
41 44 44 41 39 38 40 37 34 36 35 35 32 34 35 33 37 33 36 31 33 35 35 36 33 35 33 34 35 34 34 32 31 31 33 31 30 31 29 33 31 31 27 29 33 31 36 36 32 29 30 33 30 28 28 28 25 24 28 28 27 26 28 26 25 25 26 26 23 25 26 25 27 26 22 24 28 22 21 20 
43 41 42 44 37 35 38 40 33 32 36 36 33 37 35 33 33 35 35 34 36 37 36 35 33 32 33 31 33 35 35 31 30 31 33 29 30 30 28 34 28 31 32 27 28 30 37 31 31 28 31 32 29 30 25 26 25 27 25 19 25 23 24 29 28 27 25 25 23 22 21 19 22 25 20 21 23 21 20 16 
43 49 38 44 37 36 38 37 32 32 32 37 36 36 34 36 33 36 38 36 37 35 39 35 32 30 31 30 34 31 34 32 33 31 32 28 29 30 31 28 30 33 29 27 30 29 30 31 31 31 31 29 27 30 28 28 28 22 23 24 25 24 23 25 25 34 28 25 22 19 22 22 21 21 22 18 20 19 24 21 
40 45 42 41 41 37 39 39 37 36 35 37 39 34 31 35 34 35 37 35 33 37 38 35 33 34 31 31 31 32 32 33 31 32 33 28 29 30 35 33 30 32 32 30 29 29 29 30 30 29 33 30 28 29 27 23 24 24 26 24 26 26 23 22 27 26 31 24 24 22 20 21 23 21 18 22 24 21 21 19 
40 43 40 41 38 39 36 42 35 37 39 37 37 35 30 34 31 31 36 35 35 35 38 36 34 33 37 29 32 34 32 30 30 29 33 31 29 31 30 33 30 30 33 31 29 28 29 30 29 33 30 29 32 30 27 26 23 21 21 19 25 21 22 22 22 25 22 20 24 21 22 25 22 24 20 19 20 19 23 27 
39 42 38 39 36 36 32 35 33 34 36 33 34 38 35 36 31 32 32 33 35 33 37 35 30 34 37 32 31 30 29 29 31 34 33 28 25 30 27 28 29 26 30 31 30 29 31 31 26 31 33 32 31 31 23 24 24 24 21 18 21 24 20 20 17 21 17 18 18 22 21 22 25 21 21 19 23 20 26 22 
43 39 38 38 36 39 37 34 35 36 34 38 35 36 34 30 32 36 34 33 33 35 38 37 36 30 33 30 34 30 30 29 30 33 31 29 29 28 25 29 28 32 28 28 29 28 30 32 29 29 36 33 31 29 23 26 22 21 17 18 23 19 19 22 22 23 22 16 19 19 19 23 21 17 18 20 20 24 19 20 
44 43 42 37 35 33 41 38 31 33 35 35 29 37 36 31 30 29 36 34 34 36 38 36 36 34 28 32 35 29 27 28 27 31 31 32 27 31 27 30 30 26 27 26 32 30 34 31 29 30 33 28 30 28 27 22 25 22 20 21 23 24 23 23 22 22 18 20 22 22 19 21 23 20 18 20 23 18 21 20 
43 40 38 38 38 32 35 36 32 25 37 37 34 33 32 30 34 31 33 37 35 38 37 33 33 36 38 31 29 30 31 27 25 28 33 27 25 29 25 30 30 26 30 26 31 27 33 36 27 25 35 27 29 27 20 22 20 23 21 18 22 20 21 20 21 19 21 17 20 19 22 17 18 17 23 17 24 16 21 21 
36 41 34 38 34 30 34 35 28 28 33 35 29 37 32 31 32 32 34 34 39 32 32 35 33 33 30 29 32 31 28 28 33 31 30 28 24 28 26 26 31 25 28 28 32 30 34 31 29 27 32 25 25 24 21 20 17 19 19 18 22 22 19 18 18 24 22 20 20 21 16 19 16 18 17 18 22 18 14 18 
44 39 32 38 36 34 33 29 30 30 32 32 29 36 36 35 38 34 33 33 36 32 35 34 32 30 26 26 28 30 28 26 28 29 29 30 28 27 29 32 28 27 25 26 29 26 32 30 25 27 29 24 27 25 20 23 18 19 16 17 22 17 19 19 26 22 20 23 20 17 18 16 14 16 17 16 19 18 15 18 
42 39 27 34 34 30 37 36 30 31 35 36 34 34 34 33 35 33 33 33 34 31 36 36 34 31 29 26 34 29 28 28 31 29 30 27 23 27 25 29 31 28 27 28 32 27 28 30 28 31 27 27 27 23 21 21 20 19 15 19 18 18 23 22 17 20 19 23 15 17 17 16 21 16 17 18 19 17 17 12 
39 41 33 35 33 35 32 33 33 33 33 34 31 36 36 34 34 33 35 32 36 33 37 32 32 31 27 30 32 32 29 28 28 29 30 28 26 25 25 27 30 26 28 24 27 23 27 29 28 26 29 25 27 24 21 25 23 20 20 22 23 19 19 19 15 17 21 18 19 17 17 19 18 16 15 15 16 15 15 10 
41 40 34 36 29 34 37 33 31 29 33 33 37 37 35 36 39 35 33 35 32 36 41 36 30 29 31 29 31 30 28 28 28 26 28 26 27 28 29 27 27 30 25 25 26 22 26 27 24 28 29 28 26 23 23 22 20 20 21 22 20 16 19 19 19 16 19 17 17 16 16 15 19 10 15 17 17 13 12 12 
40 41 37 36 35 32 40 36 31 29 30 35 33 36 35 33 36 36 32 33 35 30 38 33 29 30 29 27 27 32 25 27 26 26 29 26 24 27 25 25 34 27 23 26 25 23 25 24 29 29 29 24 24 24 24 21 22 20 22 23 17 19 21 15 19 15 17 16 16 18 14 13 12 13 11 16 18 12 8 11 
37 37 32 38 34 33 35 32 30 31 33 32 32 34 37 31 35 35 37 31 33 30 35 32 35 29 30 25 29 28 24 25 30 29 30 23 26 26 29 26 28 22 26 24 26 23 21 21 21 29 28 27 24 24 22 23 21 18 24 21 22 18 17 19 15 15 16 11 15 14 14 11 12 7 14 12 11 11 13 13 
40 42 32 41 39 35 35 33 33 28 32 32 28 33 34 31 30 31 35 32 36 30 31 33 29 32 31 25 27 30 26 29 26 27 34 27 25 26 24 24 25 27 25 26 27 22 21 22 27 27 27 21 22 27 19 24 21 24 23 20 18 16 17 17 16 16 13 14 10 12 15 13 13 9 13 14 12 12 11 8 
39 37 35 37 36 39 34 37 28 33 34 34 35 30 29 26 32 31 35 32 30 31 32 32 34 32 33 28 27 29 29 27 28 28 31 28 26 27 23 24 28 26 21 26 24 25 25 26 28 27 28 22 21 22 22 20 22 22 22 19 20 17 19 16 15 16 16 10 14 14 12 11 13 9 14 11 15 7 9 10 
39 37 31 37 39 40 33 33 33 29 34 36 32 36 32 29 30 30 30 27 31 31 34 33 33 35 32 31 31 31 26 27 28 26 28 24 26 24 24 27 26 24 22 21 25 18 23 26 27 30 24 23 21 18 17 20 22 23 23 21 18 17 16 15 15 13 15 9 11 15 11 13 11 12 12 10 7 8 7 6 
37 36 29 36 35 34 38 34 29 31 35 36 35 30 34 31 31 34 35 33 30 28 32 30 32 33 35 31 31 24 28 27 28 26 26 23 22 26 21 23 22 24 22 22 27 19 23 28 26 27 26 24 21 18 18 20 20 19 23 20 19 21 14 16 14 16 12 9 12 13 15 15 12 11 11 10 12 9 7 6 
36 37 29 35 35 32 35 34 34 34 35 33 33 37 29 29 34 24 34 32 31 28 33 30 30 29 32 28 28 28 26 25 26 28 26 22 21 24 21 25 25 25 23 24 24 22 20 23 22 24 23 18 20 20 21 21 20 18 19 21 19 19 14 16 16 14 10 6 11 14 18 16 13 12 8 9 12 5 4 9 
38 32 29 33 36 28 33 31 33 33 36 37 38 33 31 28 30 30 31 32 33 30 35 27 26 31 27 27 26 25 23 24 27 26 25 20 22 23 21 25 28 20 23 22 24 21 22 20 21 15 20 18 18 19 18 23 18 18 19 16 16 19 15 12 11 11 6 5 8 13 13 11 9 9 9 10 13 8 8 3 
33 37 29 32 32 31 32 32 32 28 33 36 31 29 29 27 25 26 32 30 30 30 32 26 24 26 29 24 29 29 24 28 24 25 23 20 21 22 23 26 21 22 20 22 19 23 21 20 17 18 16 16 19 21 19 18 17 17 17 16 16 13 16 12 11 10 5 5 9 10 11 9 7 7 8 8 12 6 1 8 
39 34 30 33 30 28 30 32 30 30 32 34 29 34 28 26 31 28 31 27 34 30 36 29 25 27 23 25 30 26 22 26 23 23 24 26 22 25 21 22 25 21 21 21 20 17 23 18 17 18 16 17 16 19 14 21 16 16 16 16 19 15 15 11 10 11 7 8 3 13 8 7 9 7 9 8 10 10 8 5 
34 33 30 29 29 29 31 31 26 28 34 30 30 30 31 30 31 29 27 27 36 30 32 30 24 23 27 28 29 29 22 24 25 23 29 23 23 23 18 21 20 22 22 20 19 18 22 19 15 16 18 15 14 17 14 16 15 13 17 15 13 12 11 11 11 8 3 9 1 7 6 7 10 8 9 4 3 5 7 0 


