P2
80 60
252
39 48 48 48 46 41 31 41 53 48 52 58 58 60 60 61 58 60 60 56 61 62 57 58 60 58 60 60 60 62 60 60 56 60 60 61 56 63 61 59 59 61 58 59 59 57 54 54 54 52 54 56 59 60 66 64 68 71 70 67 67 69 69 68 64 65 62 60 62 64 65 62 67 62 65 65 64 64 62 60 
42 49 53 47 45 41 36 42 52 55 52 59 60 64 65 60 58 61 56 59 59 61 59 59 61 59 64 62 62 64 60 64 61 62 60 61 58 59 59 59 60 60 59 59 58 60 57 58 53 52 52 55 57 59 64 66 69 72 66 65 67 69 68 66 64 65 61 60 62 63 66 63 65 66 63 68 63 62 63 58 
47 50 48 48 48 43 44 43 56 54 56 59 61 62 62 63 57 63 59 59 63 63 60 63 62 60 65 63 62 64 59 62 62 61 59 62 60 59 59 60 60 57 58 59 57 61 57 57 53 54 56 59 57 62 63 64 64 66 67 70 66 67 66 65 68 66 64 62 66 65 68 63 63 63 65 64 63 65 65 64 
47 50 50 45 52 45 43 44 53 55 61 57 60 62 63 60 57 63 62 62 61 63 61 64 63 57 68 63 63 58 63 62 63 60 64 60 63 62 64 59 58 62 59 59 60 60 61 56 55 55 60 58 60 61 63 64 63 70 71 68 72 69 67 68 65 66 63 63 65 64 67 70 65 66 63 65 68 69 66 62 
50 50 49 47 50 46 44 49 58 57 53 56 64 66 67 66 60 64 60 65 62 64 64 65 64 66 67 62 63 61 65 59 64 59 57 62 61 63 67 61 60 62 61 60 61 61 60 59 51 56 57 58 61 62 64 64 66 68 68 69 72 74 67 73 67 66 65 67 66 67 67 67 66 65 65 69 67 68 67 65 
48 44 49 48 51 43 43 45 54 57 54 62 60 65 67 64 63 65 62 64 58 63 66 64 65 64 65 63 65 60 62 62 60 58 60 60 62 58 63 62 58 60 64 61 59 58 64 59 56 54 58 58 59 62 63 65 69 67 69 68 70 72 66 66 69 67 65 65 70 64 69 64 65 63 66 65 65 66 62 62 
49 49 52 51 49 40 43 46 55 56 56 64 60 65 62 62 63 62 66 65 62 64 63 65 63 63 66 64 64 59 60 62 57 61 62 60 63 62 65 59 62 58 59 60 56 61 60 60 56 53 54 61 62 63 62 64 69 74 75 69 69 70 66 65 69 68 64 68 69 65 64 65 65 66 66 68 66 64 66 72 
49 56 49 49 51 47 45 53 58 57 58 61 65 66 62 62 61 64 64 67 65 65 62 65 65 66 66 62 61 59 59 59 57 60 60 62 62 63 62 61 61 60 59 62 61 61 60 57 54 56 64 60 61 64 65 72 68 73 70 69 70 70 67 66 67 68 65 68 70 65 65 69 64 61 66 63 66 65 66 67 
51 54 51 48 49 45 44 53 58 61 63 64 65 62 61 61 60 66 64 66 64 63 61 64 67 63 64 63 64 60 65 59 60 61 60 63 62 62 63 60 61 57 58 60 60 61 58 56 55 55 63 61 63 66 62 65 68 68 69 70 69 71 70 68 67 68 67 66 66 67 65 66 64 67 66 59 64 65 65 65 
56 50 54 54 51 48 51 51 59 61 58 60 64 66 63 63 66 69 60 61 61 65 62 61 63 65 65 64 62 61 59 60 60 57 59 61 61 61 60 60 58 58 60 59 60 58 54 55 54 57 64 59 60 62 63 61 70 68 68 68 68 70 69 70 68 66 68 64 68 63 62 67 66 66 62 63 63 63 62 64 
50 53 54 50 48 48 52 56 58 60 59 65 63 62 66 63 62 67 63 64 63 62 60 63 63 66 66 63 61 63 63 61 58 59 62 62 60 59 61 59 59 57 58 57 58 59 57 56 53 57 57 59 60 63 62 65 71 69 71 68 68 72 67 70 68 66 66 68 67 66 65 65 63 62 62 63 64 65 65 67 
52 53 59 54 52 48 47 52 59 62 58 61 64 62 58 62 59 64 63 65 61 62 61 65 63 64 64 65 63 62 64 61 62 60 60 58 59 55 60 58 63 57 59 60 60 58 60 57 54 56 58 61 62 62 65 65 66 66 67 68 69 73 71 65 69 67 65 68 69 62 63 62 64 68 63 69 66 65 67 63 
53 50 55 55 55 47 48 47 58 59 59 60 62 61 66 61 60 61 63 62 61 63 61 65 65 61 64 66 61 62 60 60 61 63 59 58 59 57 60 56 58 58 58 58 63 57 60 55 53 56 56 59 59 59 63 62 67 70 70 69 70 70 69 67 68 68 65 67 68 65 58 64 65 67 67 68 63 70 63 62 
46 51 55 56 52 45 45 50 55 58 59 61 62 61 61 63 59 61 60 58 63 60 60 61 64 62 61 59 60 62 60 60 62 63 61 56 58 60 60 58 60 59 58 65 58 59 61 57 56 56 60 57 58 61 62 63 69 70 71 71 69 72 69 66 69 68 64 64 64 63 63 61 66 64 64 66 65 68 66 65 
52 52 55 50 47 46 45 55 61 58 58 61 60 63 63 59 61 63 64 62 61 59 58 63 61 59 64 61 59 61 61 58 58 59 59 57 57 57 58 59 57 58 59 60 57 60 58 55 53 57 63 56 59 60 62 64 72 79 68 69 70 69 69 67 71 67 66 69 61 63 64 65 65 68 66 62 64 70 65 67 
50 52 54 52 51 43 48 54 59 56 54 60 59 63 62 64 59 58 60 64 59 62 58 60 62 62 64 59 60 60 60 60 60 58 61 59 58 59 58 61 60 59 57 60 56 58 58 53 54 53 61 60 62 66 65 66 68 75 73 70 72 70 68 67 68 73 66 70 68 67 66 70 66 67 64 65 70 71 64 65 
48 53 56 53 44 45 48 53 58 56 55 59 60 60 63 67 61 60 61 62 60 60 62 62 63 61 67 62 60 63 62 63 60 64 62 61 59 58 61 60 57 58 60 59 55 58 55 56 52 52 58 60 61 65 66 66 69 74 74 70 73 70 67 67 67 68 68 68 69 70 66 72 75 68 64 65 64 68 65 69 
51 54 53 48 44 44 48 51 59 61 59 61 60 62 60 63 61 59 63 65 60 62 58 62 64 66 63 63 61 61 59 62 63 61 60 60 58 58 61 60 60 59 55 56 57 59 58 54 50 55 59 59 58 64 66 66 67 77 72 72 72 70 70 71 68 70 64 72 68 68 68 69 70 68 65 64 67 69 65 68 
56 50 55 50 49 46 49 52 55 60 56 60 64 64 61 64 61 64 63 66 61 63 64 62 65 63 63 60 62 60 59 62 62 62 60 59 60 59 63 64 59 58 55 60 57 57 57 51 51 54 56 58 64 65 65 67 71 71 71 70 72 70 68 72 71 69 66 69 71 67 66 70 68 65 65 67 63 67 69 66 
49 58 58 49 50 44 44 51 60 60 57 62 63 63 63 63 62 63 64 63 59 65 68 65 64 64 67 63 60 65 63 61 60 59 60 59 59 61 61 62 60 58 57 56 58 58 51 52 53 57 58 61 62 63 65 71 70 68 69 70 70 69 73 68 74 68 65 69 71 70 68 67 69 64 61 63 65 65 71 64 
46 48 53 49 49 47 46 52 59 62 56 64 64 64 63 63 63 63 61 63 62 66 65 66 65 61 63 60 61 60 64 62 59 59 60 60 59 59 61 58 59 61 55 56 58 56 53 55 54 59 60 59 60 63 66 64 71 69 74 74 70 70 71 72 71 68 68 67 72 70 68 67 68 69 64 63 63 67 69 66 
48 46 51 50 45 44 46 55 61 60 56 65 67 62 62 63 64 63 62 60 59 62 63 64 64 62 64 61 64 62 65 61 60 58 59 60 57 58 57 58 59 59 58 56 55 56 55 52 49 55 62 61 62 62 65 66 69 70 71 71 71 69 70 70 71 69 68 70 73 70 72 68 68 66 65 64 67 67 70 64 
43 48 47 50 49 42 46 51 63 60 56 60 65 62 63 59 65 64 63 61 59 62 60 61 61 59 65 65 61 59 61 60 59 58 58 59 59 59 58 60 59 57 56 56 60 54 53 52 52 63 65 63 65 69 67 68 68 70 72 72 73 71 71 69 70 74 67 68 73 70 68 70 67 67 64 68 69 68 67 68 
47 47 46 46 43 41 40 54 59 57 58 60 67 63 65 65 64 68 65 63 63 63 60 65 60 61 63 64 61 62 63 62 60 59 61 59 58 56 60 54 55 55 55 56 53 55 53 54 55 65 60 61 62 62 63 65 70 69 70 69 73 73 71 72 75 70 72 70 71 71 68 68 70 68 66 65 67 69 71 69 
45 48 48 44 42 38 42 47 58 56 59 62 63 63 65 64 63 67 67 63 65 63 64 64 64 62 64 65 61 61 63 61 57 59 60 58 58 55 57 57 56 56 56 58 57 51 53 53 55 58 57 62 63 65 63 64 70 70 70 71 73 76 70 68 73 72 73 72 72 69 69 71 70 70 66 68 69 73 68 68 
44 43 45 44 38 38 45 46 50 58 57 61 66 67 65 64 61 63 61 63 64 62 64 64 65 64 64 62 62 61 61 62 60 57 57 59 58 57 59 58 56 58 56 57 58 57 56 55 52 60 59 56 63 66 61 64 68 70 70 73 72 71 71 72 73 72 71 72 70 67 69 69 69 68 70 67 68 72 68 65 
48 45 46 41 40 40 44 49 56 56 54 61 61 61 65 64 63 65 62 65 61 66 71 67 66 67 68 64 63 61 62 59 60 60 62 58 57 57 57 60 58 59 57 55 58 57 54 54 52 56 60 61 61 64 62 66 69 70 68 75 74 72 70 71 76 76 74 73 72 71 70 71 68 69 67 68 69 68 69 70 
46 44 43 42 38 37 38 52 57 58 53 58 61 61 65 68 63 63 61 64 67 67 67 63 70 68 66 65 61 63 61 61 58 56 59 57 58 57 57 61 55 56 57 56 55 56 54 50 62 61 62 62 61 63 64 65 69 70 72 71 75 71 71 70 76 72 73 72 73 76 70 71 69 73 67 70 68 73 70 70 
43 44 42 36 34 38 37 45 62 56 53 58 59 62 62 62 60 60 63 64 62 63 62 63 65 66 66 66 62 62 64 62 59 59 58 55 56 57 60 62 57 57 56 56 53 55 55 62 58 63 63 62 60 63 64 65 69 70 73 74 75 73 71 72 74 72 72 74 72 71 73 70 68 64 70 70 72 70 74 68 
45 40 42 40 28 37 44 49 63 60 55 58 59 63 61 59 63 60 62 61 62 67 62 63 67 63 68 64 62 62 63 63 58 56 59 60 56 60 59 60 57 58 57 57 56 61 69 66 64 65 66 64 66 64 64 65 68 70 73 72 77 76 72 72 73 74 77 76 73 72 71 70 71 72 69 74 68 68 68 66 
42 41 38 31 30 39 39 45 56 60 58 61 59 61 62 65 65 64 60 64 61 65 62 66 65 68 67 63 63 60 64 58 59 61 60 58 57 57 59 60 57 58 62 66 64 66 64 66 65 65 66 67 64 65 66 71 69 72 71 73 76 75 71 72 72 75 73 77 71 71 74 71 72 73 67 68 71 72 77 68 
36 39 33 30 27 32 39 45 51 55 56 58 59 63 61 66 66 63 63 63 66 66 65 66 67 70 69 68 67 65 62 62 63 58 59 58 60 56 58 67 65 65 64 68 63 68 72 72 69 73 65 64 69 69 67 71 75 72 74 72 77 75 76 73 75 75 74 78 76 74 74 71 73 71 69 68 72 71 70 70 
34 37 35 29 23 35 34 44 54 58 55 57 59 60 64 63 66 66 62 70 67 70 64 70 70 71 72 67 66 63 65 61 59 59 63 60 61 63 69 70 63 64 67 67 67 74 101 100 89 80 74 71 69 71 69 72 75 74 73 73 78 76 75 77 79 76 76 79 84 76 78 72 73 73 71 73 73 74 71 69 
31 36 33 26 25 29 29 35 57 54 55 60 61 60 61 63 62 65 63 70 70 71 67 68 71 75 73 69 67 64 65 63 61 61 64 60 61 64 64 66 62 66 67 63 59 80 116 110 110 113 105 100 93 80 75 70 78 75 78 77 76 80 77 76 79 77 78 78 79 75 76 78 74 72 73 72 73 72 73 71 
29 30 33 22 20 29 32 35 53 58 59 59 59 59 61 62 66 67 67 73 77 88 91 83 77 74 71 72 73 66 62 65 62 61 65 63 66 63 65 67 63 61 61 62 61 94 124 113 113 119 121 120 120 117 115 102 88 86 79 80 82 81 78 75 82 81 80 80 80 78 79 75 76 76 71 73 74 71 73 74 
28 31 29 25 22 27 30 39 51 53 59 58 60 60 62 63 67 71 75 93 131 144 148 129 95 74 67 68 67 66 68 66 68 68 67 63 63 65 64 66 60 67 62 58 59 101 123 122 120 118 121 125 127 124 130 132 123 117 110 100 89 85 86 84 85 80 80 84 81 81 78 79 77 77 73 76 75 77 73 70 
28 28 27 23 21 31 29 38 53 55 60 58 55 60 62 65 67 72 78 105 153 158 155 154 106 72 69 78 82 73 76 70 71 63 66 62 63 65 65 58 59 57 58 57 65 111 127 119 121 122 125 127 129 128 134 135 132 133 130 129 124 111 104 96 91 89 83 81 85 86 80 83 80 77 78 79 83 79 80 75 
27 27 26 18 18 30 31 30 50 53 51 55 63 63 64 63 64 73 75 109 151 167 178 163 102 67 78 86 85 73 72 72 67 66 65 62 61 62 57 60 60 59 58 59 65 117 123 120 121 127 126 128 132 138 143 141 139 136 139 137 139 140 132 131 127 115 100 90 89 85 84 82 79 78 81 82 77 77 78 78 
26 25 30 20 19 28 28 33 54 55 56 57 56 57 61 63 65 70 73 111 172 206 205 167 119 86 89 83 83 76 71 73 68 63 61 58 60 57 61 64 59 59 59 59 69 126 126 120 126 129 133 132 138 141 143 138 142 142 138 137 139 141 135 138 139 136 128 120 112 103 95 88 87 82 80 89 79 83 82 82 
25 29 23 18 13 18 26 30 46 49 54 58 55 57 59 60 65 66 69 96 163 203 199 169 123 82 80 84 75 72 63 68 64 63 59 57 58 61 59 61 55 57 56 60 80 126 127 124 125 131 133 138 142 136 143 140 142 140 139 140 141 143 140 142 142 139 136 133 136 134 122 107 98 92 80 82 81 83 82 86 
21 26 22 15 8 18 19 28 45 50 51 55 57 59 60 61 65 65 75 91 133 146 141 145 120 81 74 70 69 64 65 64 63 62 61 60 61 58 61 61 55 59 56 63 89 131 131 128 125 132 136 139 142 146 142 144 145 145 140 143 141 144 146 142 146 142 139 138 148 144 141 136 137 124 112 107 90 88 92 83 
25 25 19 11 7 14 20 27 41 44 46 50 55 56 58 62 64 68 71 92 123 136 135 135 127 108 89 71 65 64 63 64 61 53 56 63 62 59 59 57 58 55 61 59 97 133 132 125 125 131 130 136 144 142 144 147 149 147 146 146 147 147 145 146 144 145 139 141 146 145 139 135 137 131 127 126 114 107 96 89 
29 22 21 9 8 10 18 21 41 43 50 50 54 57 59 61 60 66 79 110 118 119 118 124 126 121 107 80 65 65 64 60 60 57 61 59 61 59 61 58 57 60 56 64 110 133 131 129 126 130 134 135 137 142 144 145 148 144 143 150 147 153 148 149 151 148 141 142 145 143 140 134 133 132 133 135 117 116 116 110 
42 14 16 9 6 11 11 21 36 39 44 52 56 55 60 60 61 67 86 107 109 110 109 114 116 115 113 100 75 64 66 61 61 58 59 58 59 63 62 64 57 61 57 68 127 137 140 136 128 135 140 139 141 143 144 144 146 145 147 151 152 153 151 154 154 152 147 146 149 147 145 142 143 139 138 136 121 120 119 121 
63 26 16 8 6 12 12 19 39 43 47 50 53 55 60 60 65 72 90 95 102 101 105 107 111 110 112 102 87 64 60 62 58 57 58 60 66 66 68 67 66 63 65 73 135 140 140 135 131 139 138 143 139 142 144 144 148 150 151 153 155 157 157 155 157 154 152 150 154 147 145 146 144 144 139 136 119 123 123 120 
80 41 16 5 7 11 15 22 40 41 48 50 56 57 63 59 70 75 89 90 95 97 101 102 105 105 110 107 98 64 64 62 56 55 58 65 66 69 70 71 69 71 72 83 144 146 138 132 136 141 141 142 147 148 146 146 150 154 157 159 160 162 157 158 161 160 157 154 158 148 151 145 143 142 144 139 122 121 124 123 
86 61 19 0 6 9 14 21 37 42 41 50 53 59 55 62 65 75 84 85 91 96 96 102 102 101 107 103 89 63 57 56 56 59 57 66 69 68 68 66 72 74 76 93 155 143 141 135 137 138 139 145 148 147 151 145 151 156 156 160 161 159 159 158 160 162 159 157 156 150 146 146 145 143 148 135 121 122 125 116 
81 76 32 5 8 10 18 22 37 36 42 49 55 56 59 62 66 74 78 83 86 94 96 94 97 99 97 81 65 61 59 60 58 58 60 64 69 68 68 69 70 78 74 111 161 146 144 139 144 141 141 147 146 149 151 151 151 158 155 159 161 163 161 163 160 161 157 160 154 148 151 146 145 148 148 133 122 122 120 118 
84 79 57 20 8 10 15 23 33 41 41 47 53 57 63 63 65 67 69 72 83 87 88 80 77 73 67 64 63 62 59 62 58 56 60 63 68 70 67 72 73 84 78 129 164 154 149 144 147 147 149 149 147 155 150 154 156 157 158 161 165 171 166 164 167 163 157 158 155 152 153 151 149 151 148 133 125 120 122 121 
85 81 78 36 21 17 11 19 34 43 42 51 54 56 62 67 60 69 67 72 68 69 67 66 69 66 65 62 62 58 62 59 60 58 62 64 64 65 65 66 71 75 77 145 172 169 157 155 152 150 152 150 151 156 153 151 153 157 158 166 167 169 166 165 165 163 156 159 161 154 154 155 153 154 154 131 124 124 125 125 
86 84 82 62 30 16 14 21 36 42 44 51 51 58 60 65 61 65 64 66 64 64 67 65 67 63 68 63 63 63 60 59 59 58 62 62 61 62 63 65 72 72 76 131 167 183 181 182 160 161 159 159 159 157 154 156 160 157 157 162 171 169 167 170 171 164 162 163 163 152 153 153 156 160 149 132 125 125 121 120 
91 87 85 73 56 24 20 20 36 44 46 54 54 58 61 59 63 66 62 66 66 65 64 66 65 63 65 63 64 64 64 64 61 60 64 59 61 59 63 64 67 71 76 86 120 155 191 191 182 174 165 164 164 165 159 155 161 161 163 166 175 175 172 171 171 170 166 163 163 161 158 158 158 164 147 134 127 122 126 122 
90 84 82 81 73 43 25 26 29 31 52 50 56 59 59 62 58 62 62 63 62 63 63 63 67 64 65 65 67 65 63 64 64 60 58 60 58 61 59 62 68 78 74 83 77 92 137 160 180 184 185 184 174 173 165 165 163 166 174 169 172 176 175 170 171 172 170 163 165 162 164 162 166 171 139 133 130 129 124 126 
89 83 82 80 87 77 47 33 33 29 45 54 61 60 60 61 58 59 57 62 59 64 64 69 68 67 71 70 72 69 71 67 70 64 60 59 57 56 61 61 74 82 83 83 80 86 92 101 133 162 195 206 198 188 178 173 174 172 171 180 178 177 180 177 177 176 168 169 169 165 164 165 168 169 139 132 131 127 125 127 
82 81 82 82 82 80 71 55 49 47 49 52 63 59 63 59 57 63 59 62 64 65 68 70 72 73 82 74 75 71 76 73 69 67 59 53 55 54 57 63 75 88 80 90 85 87 82 80 86 102 143 192 213 215 202 188 184 183 182 183 182 187 184 184 186 182 175 175 170 167 167 175 173 168 138 131 128 134 134 129 
82 83 85 78 82 78 75 73 69 56 56 62 61 66 62 64 62 64 67 67 72 71 73 73 79 80 83 78 74 78 75 74 73 71 69 58 56 50 55 64 76 82 80 84 81 85 83 78 76 82 93 119 164 187 206 207 205 208 199 193 194 196 191 193 192 188 187 178 181 175 177 177 185 162 136 135 134 130 137 138 
82 80 82 82 80 80 74 75 80 73 72 63 71 66 67 62 67 70 69 79 71 72 73 74 78 74 78 74 76 77 77 79 79 74 73 67 64 54 56 70 75 77 70 75 78 78 79 80 74 69 80 81 94 119 155 183 215 230 219 217 204 203 203 201 200 195 190 188 182 177 178 185 190 157 141 139 136 138 132 133 
82 81 77 81 86 82 77 80 80 76 70 73 69 69 71 70 69 67 68 72 71 65 75 71 75 76 76 79 79 79 74 75 74 75 71 70 70 59 64 69 70 71 71 73 74 74 77 84 76 76 78 70 78 83 99 125 167 207 241 243 234 221 214 212 213 206 197 193 190 188 190 191 201 157 144 140 139 139 137 139 
80 79 71 79 82 79 81 80 84 79 71 74 72 66 66 62 60 63 62 69 69 70 74 76 76 76 72 72 74 70 67 69 70 68 70 68 66 68 69 70 71 74 79 74 73 71 78 74 78 76 77 77 78 79 87 85 105 135 186 223 235 238 233 234 225 218 206 200 197 191 193 206 201 150 141 140 145 137 141 139 
81 76 72 71 79 76 78 84 83 76 77 77 78 71 70 57 64 64 65 67 68 73 65 71 73 75 73 73 68 70 70 68 69 69 68 67 64 66 63 69 71 72 71 72 72 71 74 69 70 75 73 76 79 80 78 81 84 99 108 149 185 210 230 252 243 235 223 217 208 204 207 216 199 150 146 147 145 142 138 137 


