P2
80 60
226
57 47 42 44 51 62 61 62 62 72 60 55 56 58 66 75 78 78 75 76 76 74 72 72 77 75 74 75 77 77 77 79 76 74 73 76 75 73 75 69 74 75 75 73 74 70 68 73 75 73 75 73 73 73 70 70 69 68 62 65 63 65 66 70 64 66 65 65 65 66 67 67 68 69 74 72 72 70 67 67 
64 49 42 40 49 63 62 61 62 68 57 54 54 61 66 79 79 78 74 74 77 71 73 72 75 75 73 77 74 76 75 77 75 76 75 73 74 74 75 72 74 72 70 75 73 74 73 73 73 71 78 72 69 72 71 71 68 67 67 65 61 63 66 68 65 61 66 66 66 63 67 66 66 70 74 73 71 76 68 68 
60 46 37 36 51 63 65 62 67 69 55 51 54 59 68 69 75 76 75 74 76 75 73 72 75 75 74 76 76 76 76 78 75 73 77 73 75 76 78 72 77 72 71 72 70 73 75 74 75 77 77 71 71 70 68 69 66 67 65 67 67 65 64 68 64 62 65 66 65 65 71 65 67 71 73 74 69 74 72 67 
67 52 35 48 56 66 68 65 70 74 65 62 55 62 64 74 77 77 77 76 78 76 75 74 74 73 73 79 76 78 75 77 77 72 75 74 75 77 75 72 72 72 72 75 72 75 73 76 77 74 73 70 72 71 70 69 65 69 67 65 67 68 65 68 67 63 68 66 66 67 68 69 70 70 67 71 69 74 70 71 
72 51 38 44 55 66 62 64 66 76 65 55 58 58 71 76 75 74 78 75 79 74 73 79 78 77 75 78 76 76 75 78 77 74 71 72 73 77 81 73 74 71 76 75 72 76 75 77 75 71 73 75 71 72 70 70 66 71 69 65 62 66 65 71 66 64 66 69 68 64 70 66 68 70 73 74 73 70 73 68 
70 50 40 45 55 63 61 65 77 75 64 59 61 65 68 73 76 77 75 77 74 77 74 76 77 78 76 78 77 74 74 75 73 71 75 72 75 78 80 75 76 75 75 68 72 77 81 77 77 71 74 74 73 72 69 75 70 73 66 67 69 66 69 66 66 64 67 70 72 70 70 69 70 71 70 77 69 75 69 68 
69 53 40 39 47 64 63 63 65 74 61 57 59 62 65 72 78 78 73 78 78 74 75 72 77 78 74 77 75 74 69 77 76 74 74 76 74 74 75 73 76 75 74 74 73 76 76 74 75 70 73 75 75 78 74 75 69 76 73 69 66 67 67 68 68 67 66 71 70 69 68 67 68 71 71 74 70 72 67 69 
61 51 37 42 56 71 64 64 65 70 61 59 60 63 67 75 77 79 75 77 79 76 74 76 77 76 76 78 75 79 73 74 75 73 75 80 74 77 78 76 77 72 71 78 73 76 79 78 74 72 75 77 78 72 72 75 71 70 72 69 63 67 69 67 65 69 65 63 72 68 69 68 67 68 71 71 69 73 68 70 
69 58 38 46 57 64 62 64 67 71 60 57 62 60 68 72 79 78 78 73 76 77 76 76 82 78 77 77 78 75 75 73 75 72 76 77 77 76 77 73 76 73 70 71 72 74 77 78 73 72 70 72 72 75 70 68 69 68 69 66 66 64 68 67 69 68 67 67 68 65 63 66 69 69 70 72 69 68 69 69 
72 55 46 49 58 67 63 62 63 70 63 56 63 59 68 74 80 78 73 75 76 78 77 79 78 78 75 75 72 76 71 75 70 73 76 73 74 75 73 72 73 72 71 69 72 75 74 79 74 70 73 72 72 70 71 67 65 63 65 62 63 64 63 68 65 65 65 69 69 66 65 68 65 67 69 69 69 71 66 65 
82 70 61 53 58 67 70 64 66 69 68 60 59 61 70 73 74 80 76 75 73 78 78 74 78 77 74 77 74 77 73 76 72 73 77 73 72 73 74 74 73 69 73 71 72 76 75 77 72 71 75 73 72 72 70 68 64 63 66 63 65 63 64 67 65 66 68 71 64 69 66 66 67 69 71 70 70 74 70 70 
78 73 67 57 58 69 63 68 70 68 65 58 62 60 71 75 70 75 76 77 73 75 75 81 77 76 77 79 77 77 76 76 76 76 72 73 71 76 75 72 75 72 73 72 72 72 75 74 72 72 76 71 70 71 71 71 69 70 69 66 64 66 66 65 65 69 66 68 66 66 65 69 67 72 66 78 73 70 72 74 
81 70 65 59 56 68 65 64 68 67 65 57 60 57 69 73 72 72 73 75 76 74 77 75 75 77 72 81 78 77 77 73 74 75 72 73 70 72 76 73 73 72 75 70 74 72 79 75 75 72 73 71 68 69 69 68 67 70 69 66 63 66 68 67 66 66 66 66 66 64 58 67 64 69 68 72 76 74 72 67 
78 67 63 56 55 65 62 63 67 73 65 53 60 58 69 75 72 72 73 73 79 76 77 75 80 78 75 76 77 75 76 76 73 75 74 74 71 73 74 72 70 72 73 73 75 76 76 79 71 75 72 75 69 70 71 71 71 71 72 65 63 65 66 65 66 63 69 68 65 65 67 65 69 71 71 72 72 73 73 73 
80 68 62 56 54 62 64 64 71 71 62 54 58 61 68 74 71 74 73 75 76 72 73 75 76 76 71 80 77 75 77 78 72 73 70 73 71 74 71 73 74 70 71 76 76 72 75 74 72 74 68 75 70 72 71 71 69 76 74 68 67 66 63 63 65 65 69 67 67 66 65 66 67 67 68 72 71 72 71 69 
74 65 61 52 53 64 59 66 69 66 59 54 57 57 64 73 73 74 73 74 71 76 72 76 78 76 75 76 73 73 76 76 74 70 71 74 72 71 68 73 73 75 72 70 73 72 73 74 72 73 72 68 71 70 72 73 70 71 70 66 64 66 66 64 66 63 69 68 69 70 66 69 66 70 69 68 71 75 70 74 
77 72 61 47 53 64 62 64 68 69 63 52 54 59 62 73 74 75 73 75 73 72 74 72 76 79 75 77 74 76 71 76 76 74 74 73 70 76 74 71 74 72 70 69 75 79 75 72 70 75 74 74 70 74 75 72 69 74 69 68 63 64 62 64 64 66 67 70 67 68 70 68 77 70 69 70 71 70 73 72 
75 67 59 49 55 71 64 64 69 69 65 55 57 56 66 74 72 75 74 74 74 74 76 74 77 74 74 77 75 73 73 76 77 73 76 74 70 75 76 77 74 71 69 70 77 76 73 74 73 73 74 72 70 74 75 75 72 73 67 67 62 64 63 64 64 66 67 69 73 68 66 70 68 71 70 71 69 70 71 70 
73 65 61 53 52 63 67 62 65 67 64 54 56 57 68 71 74 76 78 76 75 74 74 74 78 76 73 76 77 73 75 74 77 75 75 74 71 77 77 75 75 71 69 73 72 75 72 73 72 69 73 69 76 73 70 67 68 72 68 65 64 66 61 61 64 68 70 69 69 67 67 69 71 69 69 71 70 71 73 74 
80 64 51 40 51 67 64 62 62 63 62 56 56 57 68 72 73 74 75 77 73 76 79 73 78 74 77 75 71 74 76 78 75 71 73 74 73 74 74 72 76 73 72 72 75 71 74 73 70 71 71 73 76 72 69 71 64 68 68 66 66 66 65 71 64 70 69 66 67 70 70 69 70 71 69 69 69 72 72 71 
74 58 44 36 46 62 63 60 62 68 64 53 57 57 58 70 73 73 76 76 76 79 81 76 75 73 74 77 74 76 82 78 76 71 75 72 72 74 75 73 77 73 71 73 73 75 69 74 73 71 72 73 68 70 72 71 70 70 69 67 63 66 67 68 68 66 69 67 70 66 72 70 67 71 71 70 72 74 71 74 
77 64 48 37 50 65 66 63 62 71 64 56 63 59 65 73 75 75 75 74 77 75 75 76 80 75 76 78 76 77 79 80 74 72 72 75 74 77 75 72 76 75 74 68 73 70 71 71 68 70 74 74 70 76 70 68 69 67 71 63 65 68 67 68 65 67 70 71 66 71 72 69 68 72 68 71 73 76 76 70 
73 59 49 42 47 60 62 67 66 70 61 56 56 60 63 69 72 73 73 75 75 74 75 75 77 76 76 80 74 75 75 78 76 75 72 72 74 74 73 75 74 72 72 71 74 71 72 76 69 70 72 72 72 71 68 69 68 71 67 65 67 65 67 62 68 70 69 73 71 73 71 68 71 73 69 71 70 70 70 72 
71 62 49 43 40 59 62 68 68 68 63 51 54 58 65 79 76 72 75 75 75 74 75 76 78 76 76 82 77 75 74 75 74 75 71 72 69 72 75 72 77 71 73 71 74 72 76 77 71 73 71 72 77 74 70 70 72 69 70 64 65 65 62 69 68 68 72 73 70 74 70 73 71 69 69 71 72 73 73 74 
67 56 48 34 42 60 60 60 65 70 64 52 54 56 68 75 73 75 76 77 74 74 75 76 77 78 76 78 77 76 73 74 74 69 75 74 70 75 72 73 73 73 70 71 75 76 69 72 72 71 73 72 74 74 71 69 66 71 63 65 65 64 65 62 68 66 68 69 67 71 70 73 71 72 74 73 71 72 72 74 
70 53 51 37 37 60 58 62 64 67 60 51 56 54 67 74 73 76 76 74 77 75 77 74 76 76 74 80 73 73 72 74 72 69 70 71 74 72 75 72 73 70 72 70 70 75 69 75 72 76 74 70 67 71 72 70 65 66 71 65 64 66 66 66 71 69 70 71 70 71 66 73 71 72 75 70 73 74 72 70 
69 56 46 30 40 53 60 63 58 62 61 50 55 52 65 74 72 76 76 74 74 75 80 78 79 79 75 78 75 74 70 74 73 70 72 72 70 75 74 71 73 75 74 69 71 73 71 72 73 72 73 69 73 69 68 70 66 66 66 63 65 66 69 67 67 69 70 71 70 70 70 69 73 72 74 71 72 74 74 78 
69 57 50 34 43 60 58 59 63 64 61 49 51 57 62 71 71 77 74 72 71 76 76 74 77 80 79 80 75 77 72 74 71 72 70 72 72 73 74 71 74 72 73 71 68 69 70 72 69 71 70 69 68 67 65 70 65 68 64 62 65 63 67 67 68 70 68 71 70 73 70 72 72 72 71 75 72 73 73 78 
65 61 47 33 39 57 56 57 60 65 56 49 53 55 62 67 73 73 72 76 75 73 74 78 77 82 80 80 77 75 75 75 72 72 75 76 72 72 73 76 70 73 73 69 70 72 73 73 73 71 70 69 67 70 70 69 66 66 63 61 66 67 67 70 68 69 70 72 70 71 73 71 71 74 73 72 71 76 77 77 
65 54 42 32 34 55 55 57 60 60 57 48 50 53 59 72 75 75 72 74 74 78 76 77 78 79 76 80 74 75 77 76 73 73 71 77 72 77 76 71 77 75 72 69 74 73 75 69 72 71 73 70 67 70 69 78 64 66 62 63 63 69 65 67 69 69 75 75 72 70 68 74 74 71 76 77 70 76 76 75 
63 55 49 28 31 57 55 54 58 64 58 47 47 53 60 65 73 74 70 72 73 73 75 76 78 78 77 75 74 76 74 75 70 73 75 71 75 75 76 71 73 73 73 73 73 72 73 72 73 70 72 71 69 68 71 72 68 70 65 64 67 68 67 69 70 69 73 73 68 72 71 69 73 75 74 70 72 76 79 72 
60 56 49 29 28 52 50 55 52 61 55 46 50 51 65 67 77 71 71 70 71 73 76 76 79 76 79 76 75 76 76 74 73 73 72 73 71 74 71 74 77 71 72 75 74 71 73 73 71 73 70 68 69 70 64 68 67 64 61 66 71 73 69 73 71 70 76 76 73 74 70 73 74 73 77 73 73 74 73 74 
60 55 49 32 32 52 49 52 55 60 54 45 48 48 53 64 70 72 74 70 75 77 76 77 76 77 79 79 75 76 75 77 73 74 70 74 72 75 78 74 76 73 72 73 73 73 71 70 70 70 73 68 69 68 68 69 63 66 65 68 72 77 73 78 75 72 73 73 77 73 73 73 75 78 76 75 75 76 73 73 
55 54 50 30 25 46 47 50 54 57 56 42 42 48 55 62 72 73 73 70 75 69 76 76 78 78 77 77 77 80 75 74 69 75 72 71 70 72 74 73 74 73 75 69 69 72 70 71 69 69 68 68 69 72 68 74 72 74 75 70 75 79 74 74 75 72 72 75 74 74 71 77 73 76 77 78 77 76 72 77 
48 49 42 29 29 42 46 44 51 52 52 45 41 45 51 62 67 73 74 73 72 70 75 79 80 75 78 79 78 78 73 77 77 74 75 70 72 76 73 73 72 74 74 70 72 76 74 74 74 72 71 72 73 73 70 72 72 75 77 68 75 77 75 76 73 71 72 73 74 73 72 71 76 74 76 73 76 79 78 73 
47 45 43 29 24 47 48 47 50 52 45 39 43 45 51 64 68 75 75 72 73 73 77 77 77 77 75 76 76 77 74 79 77 73 74 74 73 73 76 74 74 73 73 74 73 73 75 78 75 68 72 76 75 78 75 76 74 76 78 77 80 78 75 79 75 74 71 76 76 78 67 75 76 77 79 79 78 79 77 83 
47 42 47 34 33 45 47 46 45 48 49 40 38 46 52 59 68 75 72 74 75 76 73 76 78 76 76 79 76 79 76 78 77 77 74 74 73 74 72 75 77 75 73 73 74 73 71 72 77 78 78 76 77 81 76 73 77 80 82 99 103 88 82 76 75 75 78 73 74 71 74 77 77 78 81 82 81 78 81 82 
48 45 39 34 29 43 44 47 46 50 48 37 40 39 48 57 67 77 72 72 76 76 75 77 77 76 73 77 77 78 78 76 77 77 78 76 75 75 75 74 75 77 73 73 73 76 78 77 82 75 79 76 76 75 74 80 68 78 79 109 122 118 114 101 89 83 79 76 75 78 73 78 78 81 78 81 80 82 78 85 
46 39 46 27 26 36 45 42 43 47 43 31 36 39 42 54 67 73 73 71 73 76 76 78 77 77 79 78 77 80 78 78 82 76 85 78 83 76 78 77 75 75 75 76 77 81 79 80 76 79 81 80 80 80 78 75 65 68 83 114 124 125 121 126 124 117 104 90 83 80 81 81 81 80 81 82 83 87 79 83 
42 41 34 27 24 37 44 40 40 44 43 30 35 35 42 53 66 70 68 67 78 73 78 77 81 80 79 85 81 81 76 86 82 80 79 80 84 81 78 76 76 78 77 79 74 81 79 81 79 79 83 82 85 75 77 72 69 69 86 121 128 127 129 129 132 130 124 128 112 106 92 85 88 87 85 83 85 85 84 85 
42 39 37 31 21 29 44 36 37 40 42 30 34 35 43 49 66 69 68 68 75 74 76 78 81 82 83 83 86 97 106 115 102 86 89 84 77 77 81 83 79 77 79 79 82 77 79 81 79 80 85 81 80 77 69 69 67 66 91 124 128 129 131 133 131 131 134 137 133 131 125 111 95 96 89 87 85 90 87 85 
38 35 38 31 21 30 39 35 36 44 35 29 32 32 40 45 64 69 72 73 71 73 76 78 80 79 83 89 105 139 162 164 159 126 100 89 92 81 85 81 81 81 82 77 82 80 81 81 76 78 74 72 75 75 73 70 73 72 96 126 131 129 133 133 135 134 138 137 135 137 136 132 131 123 117 114 99 95 96 88 
39 31 32 31 17 23 34 37 35 36 37 28 30 29 38 39 60 67 70 70 71 73 76 77 82 79 83 90 109 158 167 168 167 152 106 87 82 90 90 83 85 80 85 83 79 83 79 80 74 71 74 73 73 71 71 69 66 73 101 125 128 132 136 134 139 139 139 138 141 137 137 135 134 134 135 133 127 120 108 105 
33 32 26 29 15 23 33 35 35 34 34 27 24 25 33 39 59 62 70 68 69 74 75 78 80 80 80 88 111 156 173 183 178 161 107 86 90 100 98 90 84 79 81 83 80 76 78 83 76 73 72 71 70 71 72 69 69 79 103 130 134 133 136 138 138 137 138 141 142 142 143 141 139 139 138 143 140 142 135 130 
31 27 28 23 8 21 29 32 32 35 33 23 22 28 32 40 58 67 65 66 73 71 75 75 78 79 76 84 107 173 194 209 201 175 118 92 95 98 103 94 85 76 79 74 76 75 76 77 76 72 70 72 65 71 72 69 66 80 116 136 135 131 135 138 138 141 144 145 142 143 142 142 140 141 144 140 142 143 146 143 
25 19 23 21 6 11 26 26 27 36 29 24 20 20 33 38 55 62 68 65 71 69 72 75 78 77 75 85 100 162 212 226 213 173 134 101 96 90 87 88 77 74 77 76 75 77 74 76 75 76 74 72 68 71 70 69 69 78 119 135 137 135 131 134 138 143 142 146 147 147 147 145 142 143 145 148 146 143 146 148 
18 20 21 11 0 3 19 26 26 27 27 23 19 26 32 32 57 58 64 68 69 71 75 74 77 77 83 82 93 145 190 201 192 169 129 94 82 84 80 74 75 74 77 75 76 79 73 71 74 74 73 71 68 70 71 71 68 91 126 138 136 137 134 139 140 143 143 150 144 148 146 145 146 147 148 145 145 152 149 146 
25 18 12 6 1 4 16 22 24 32 29 22 18 22 33 35 50 63 65 68 70 71 72 76 78 78 77 83 84 129 151 158 159 156 143 108 85 78 77 73 74 75 73 73 73 73 74 73 72 76 72 73 68 68 71 71 71 93 133 137 138 139 138 140 141 144 147 147 146 147 147 144 148 151 150 150 148 150 149 147 
65 55 37 11 2 4 13 22 23 27 26 23 14 22 34 34 48 58 62 66 71 70 75 74 78 78 80 89 96 127 138 149 153 148 143 134 117 91 80 74 74 72 72 74 70 72 73 75 75 77 74 77 73 72 69 73 79 103 145 140 137 137 140 139 142 142 148 150 147 149 147 148 146 147 151 152 151 152 151 151 
86 79 70 31 16 19 18 20 23 27 26 23 14 17 28 37 46 58 65 63 69 70 74 74 79 78 73 91 105 128 128 136 136 135 136 129 129 116 87 76 78 75 72 71 72 75 72 77 78 75 75 76 79 76 80 73 75 110 147 145 139 140 138 142 143 142 147 150 148 152 149 148 148 150 160 156 154 158 152 155 
93 86 88 55 27 20 18 21 17 32 29 20 16 18 23 28 42 54 63 68 68 67 70 74 76 73 77 103 107 121 121 130 131 130 130 126 126 121 112 84 80 73 68 68 74 75 74 74 76 79 80 84 80 84 82 86 85 115 152 144 144 143 141 146 144 144 145 151 151 154 152 152 154 154 157 160 160 160 155 159 
94 89 91 75 36 24 19 17 16 19 23 22 16 17 24 31 43 56 64 66 71 71 72 72 74 75 79 104 108 116 115 119 119 123 126 125 122 120 116 92 77 72 69 72 72 73 74 79 82 82 82 80 86 85 86 88 92 130 153 147 150 146 144 145 152 148 153 156 156 151 154 156 157 158 160 166 161 160 162 161 
94 95 96 86 47 22 19 16 19 21 21 21 16 22 23 26 41 54 57 64 67 68 73 72 78 78 84 103 105 114 111 115 121 114 117 122 118 124 118 102 80 70 71 72 71 77 78 82 86 80 82 84 84 89 89 94 97 144 158 149 148 146 145 147 149 151 155 155 155 154 158 156 152 158 162 166 162 162 168 162 
99 94 99 91 77 36 22 15 12 20 19 16 15 15 22 30 38 51 59 64 68 69 72 74 81 82 85 100 99 107 105 113 113 113 119 117 114 112 114 96 81 70 71 69 71 76 82 84 85 82 87 88 88 90 100 92 104 155 156 154 148 150 151 154 154 154 156 157 159 157 158 158 159 162 162 167 165 166 165 166 
101 91 96 96 82 56 21 15 14 15 20 16 18 16 21 26 34 50 58 63 68 64 71 73 79 76 89 100 99 107 107 107 111 109 111 112 113 111 104 81 76 69 70 66 73 78 77 81 82 82 82 84 87 93 93 97 117 164 158 155 156 154 155 156 158 155 156 155 156 157 161 158 160 159 162 167 165 165 164 163 
99 99 94 95 90 75 36 14 16 20 21 25 28 21 20 25 34 48 57 62 69 65 71 73 80 82 87 93 94 99 97 108 106 108 108 104 100 86 83 74 73 70 73 74 72 78 77 76 78 77 85 84 87 85 91 96 126 173 167 163 159 164 158 162 161 158 158 162 156 159 163 155 157 161 165 167 166 166 167 168 
100 97 95 94 92 84 66 22 15 19 22 22 29 26 30 26 34 48 59 61 66 69 70 73 79 77 80 81 83 92 92 93 96 97 88 88 79 81 75 72 74 72 71 73 74 76 77 78 83 78 84 83 84 88 90 93 123 186 183 180 169 165 164 162 165 162 159 162 160 167 165 157 165 166 166 170 168 170 167 162 
98 97 96 98 93 90 83 54 21 19 22 19 18 23 26 24 34 47 58 59 66 71 74 73 76 75 75 79 77 83 76 77 79 79 74 75 75 75 76 75 74 75 76 73 77 74 77 82 76 79 80 83 83 88 90 92 108 151 185 193 188 178 172 168 167 166 164 165 165 161 160 159 159 165 166 170 171 172 172 171 
101 94 99 99 91 95 87 73 34 26 22 17 20 24 28 28 35 46 55 62 68 68 71 72 75 70 75 75 76 77 74 75 72 73 76 77 76 78 79 79 79 74 76 77 78 79 76 75 75 75 76 80 80 84 88 89 91 103 143 184 195 196 183 179 175 171 168 162 164 161 162 159 163 160 170 173 173 174 170 174 
104 100 96 97 91 89 91 89 60 30 25 23 27 29 33 29 35 48 50 61 67 73 72 72 71 76 70 75 75 76 75 75 76 74 74 80 80 81 80 81 84 80 79 79 81 76 80 74 73 75 79 82 84 90 93 106 87 94 107 128 179 190 196 187 182 176 170 168 163 160 160 162 161 162 169 174 177 172 174 172 


