P2
80 60
138
126 129 132 127 132 132 132 131 129 130 129 130 129 131 133 131 125 121 121 113 118 120 112 113 109 115 113 114 114 116 110 111 108 110 105 101 102 91 96 64 46 40 46 58 110 118 125 125 125 127 126 128 130 132 131 135 132 133 125 127 124 129 131 128 124 116 119 114 118 121 124 126 121 123 124 125 125 122 121 118 
129 130 133 131 127 132 131 134 132 136 128 131 129 131 132 133 125 124 115 116 116 115 114 112 112 113 115 112 116 113 114 108 109 107 103 102 98 94 90 69 50 41 38 56 114 120 124 125 125 126 127 126 129 132 130 133 134 135 127 125 125 124 128 125 122 113 114 119 119 119 124 127 125 124 124 125 129 123 119 121 
135 132 131 130 133 135 132 136 130 133 130 132 132 130 129 128 124 119 114 112 120 116 113 113 109 114 115 115 115 117 114 109 108 107 101 103 97 95 90 67 51 41 36 57 109 122 122 122 124 124 124 127 126 131 132 129 130 132 127 129 127 126 127 123 127 123 118 113 116 120 127 121 123 127 122 126 123 121 123 122 
132 131 127 131 134 132 131 134 131 132 131 129 129 135 132 132 124 118 116 116 119 117 113 112 111 117 113 116 116 113 108 105 105 102 101 100 95 94 94 67 49 43 46 63 112 121 121 124 125 121 127 128 127 130 129 128 127 129 128 126 130 127 128 129 125 119 111 112 118 117 124 125 124 121 123 122 121 122 121 121 
131 130 129 131 132 130 134 132 131 134 131 130 131 132 132 133 125 121 117 116 119 118 116 113 112 115 116 115 116 112 115 112 110 107 104 105 94 94 90 69 44 37 49 67 114 119 126 123 124 125 128 129 130 130 130 128 128 128 125 125 126 127 129 129 124 116 113 112 118 119 121 124 125 120 121 125 127 122 121 122 
129 130 130 130 127 129 130 131 133 135 130 126 131 135 131 130 125 119 117 117 117 118 118 118 116 116 117 119 124 119 123 117 113 115 105 108 97 95 92 69 44 36 48 65 115 119 121 123 127 126 126 128 131 128 128 131 127 128 127 127 126 126 125 126 118 114 110 116 123 119 122 126 123 122 118 125 125 123 123 119 
129 132 129 131 130 130 131 131 133 134 131 130 130 133 135 130 129 119 121 120 123 118 122 122 121 120 124 126 126 124 119 117 116 116 113 107 101 100 95 74 42 38 32 65 110 123 123 123 124 125 123 128 130 129 130 130 126 130 130 126 128 126 125 121 117 111 112 116 120 121 121 122 122 122 122 127 126 123 126 128 
130 128 132 133 133 131 129 129 134 132 132 130 133 135 131 132 127 123 122 123 125 123 120 124 122 123 125 125 123 119 121 114 113 120 111 110 108 105 102 82 49 40 34 67 110 122 123 120 124 124 124 129 130 128 128 132 133 129 127 127 129 126 127 124 123 124 120 118 124 120 123 123 124 119 127 126 121 122 121 120 
134 133 132 133 132 135 131 134 131 134 130 133 132 129 132 129 130 122 120 120 122 123 120 121 125 124 125 124 128 123 124 118 117 116 112 108 107 104 102 79 52 36 35 76 115 118 124 124 122 124 124 131 127 125 130 127 131 128 123 126 128 127 126 126 126 127 119 125 117 117 123 122 124 123 123 124 123 122 123 117 
134 134 136 132 135 134 134 135 134 132 133 129 132 131 131 133 134 123 123 118 120 126 123 124 128 127 128 125 128 124 118 118 118 116 112 108 106 104 101 89 59 30 38 76 115 118 119 119 123 125 124 129 131 130 131 128 127 127 122 123 126 128 125 127 124 127 125 116 116 108 114 115 118 122 123 121 121 117 120 119 
135 132 130 137 134 135 138 131 134 134 131 133 132 129 131 129 130 124 124 121 125 122 124 124 129 124 124 126 124 123 120 114 114 114 109 107 101 100 101 87 60 31 39 77 113 119 120 119 120 123 123 125 126 128 128 128 130 126 122 116 126 124 124 123 125 118 118 114 111 106 104 106 115 121 120 124 121 123 119 118 
136 133 132 132 130 130 134 132 132 133 130 130 132 132 129 132 128 125 125 124 128 124 124 127 124 124 124 124 124 125 122 117 115 117 111 109 103 102 104 89 62 33 35 80 115 116 119 124 120 121 123 127 128 130 126 127 129 128 122 124 120 122 124 124 123 120 109 104 104 103 108 108 112 123 122 130 128 119 121 124 
136 132 134 133 130 130 134 128 127 132 130 131 131 133 126 130 128 126 123 125 130 124 126 122 123 123 122 123 121 121 122 113 114 119 114 109 105 101 102 90 68 37 38 81 117 119 120 123 121 122 124 124 126 124 124 126 128 128 121 119 124 123 125 124 125 114 107 105 103 105 97 109 119 120 126 126 131 128 123 125 
134 135 136 132 132 128 132 129 133 132 127 130 131 128 129 129 123 121 121 121 125 125 121 127 123 120 123 120 118 119 114 108 109 113 110 101 97 101 98 87 70 41 38 84 116 122 121 125 122 124 122 124 125 125 127 128 127 128 122 121 123 124 122 121 119 118 113 108 102 103 107 109 116 122 121 122 125 127 123 123 
136 133 134 133 132 130 129 135 126 129 129 130 131 131 128 129 124 120 119 122 122 124 122 125 121 121 122 123 120 116 109 102 108 104 101 96 94 96 97 86 70 42 39 88 115 113 119 119 123 122 124 123 127 123 126 129 131 132 124 119 123 121 125 120 119 109 109 99 78 100 103 105 109 121 120 123 124 124 124 123 
129 132 133 131 134 130 130 131 132 128 126 129 128 133 128 131 123 119 122 123 122 123 121 124 121 126 121 121 116 110 104 103 104 105 96 94 90 93 94 84 83 45 42 92 113 116 117 117 121 118 121 121 124 128 126 130 129 127 123 121 121 122 121 119 122 116 104 92 90 90 96 102 117 116 122 122 123 124 121 124 
134 131 133 131 131 131 128 129 129 126 123 125 130 130 130 127 121 121 120 120 123 123 122 122 127 120 122 120 116 115 107 105 102 105 91 91 91 88 90 87 79 48 49 99 116 119 118 120 117 118 118 124 124 126 126 127 131 128 123 119 118 121 121 117 117 114 107 101 88 93 93 107 120 120 124 124 123 126 124 123 
133 133 133 131 131 130 130 126 127 126 125 128 128 127 129 127 123 120 122 120 122 119 123 123 123 124 121 120 113 112 108 100 104 101 95 90 88 90 94 90 82 52 53 103 114 116 118 117 119 119 119 123 126 130 130 126 128 129 120 119 115 121 118 117 119 118 108 102 89 88 96 99 114 122 118 123 120 119 119 125 
134 133 131 132 129 131 133 125 127 128 122 126 126 126 127 128 120 120 121 122 120 123 125 125 125 123 120 114 111 112 108 101 98 98 93 92 89 90 89 84 85 53 53 104 116 117 114 119 120 121 121 122 130 126 128 128 127 125 121 118 122 118 117 112 118 117 110 99 90 90 98 105 114 115 118 122 121 119 121 118 
133 136 135 134 132 132 128 128 125 127 125 126 129 131 127 127 123 125 121 121 125 124 129 123 121 124 121 116 112 109 110 103 100 102 94 92 87 88 94 80 84 63 56 107 114 116 117 119 118 120 120 123 123 124 127 126 127 125 116 116 118 116 114 112 102 97 103 87 87 91 97 105 110 114 120 123 120 118 122 124 
133 136 130 132 130 133 129 128 128 126 127 129 130 131 126 126 126 124 124 121 124 123 122 122 123 121 122 120 119 116 121 107 107 107 106 103 98 91 90 87 86 68 61 105 112 113 112 116 119 117 119 124 124 126 127 127 125 120 117 117 117 118 118 115 102 93 82 80 83 88 92 94 100 112 120 122 119 119 123 122 
130 129 131 134 130 132 132 128 126 125 127 128 131 130 125 127 124 124 126 121 124 121 123 124 119 123 122 119 118 113 116 110 110 106 101 102 98 92 87 82 85 65 60 107 112 114 115 116 118 119 123 121 122 122 124 126 122 118 117 114 114 113 115 115 102 87 83 75 83 84 90 92 100 111 117 121 118 121 122 118 
131 132 130 133 128 128 129 128 129 125 124 127 127 129 128 128 124 123 122 120 121 120 120 123 122 119 120 116 119 113 113 107 108 105 97 94 94 88 88 84 75 62 66 105 112 112 114 117 119 120 118 118 123 122 120 124 123 123 116 116 118 115 110 111 105 92 81 77 82 81 81 91 95 110 110 121 119 121 118 121 
132 130 129 131 129 132 131 135 132 130 127 128 127 127 126 129 123 126 121 120 125 121 121 122 121 122 120 118 117 114 113 108 108 105 97 94 93 87 87 80 75 64 75 103 112 113 111 114 118 121 120 121 126 123 125 121 121 121 114 114 116 114 113 112 98 89 82 84 85 82 87 95 103 104 111 120 120 120 119 121 
131 131 128 130 127 131 130 132 133 130 127 127 129 127 128 127 125 121 122 119 122 123 119 120 120 121 120 115 118 116 111 110 105 105 100 98 92 87 87 81 79 66 76 109 113 113 115 116 119 118 119 122 119 121 118 122 118 122 112 112 115 114 115 100 99 87 87 89 85 85 83 94 110 107 111 120 122 117 119 119 
131 126 130 126 126 131 132 130 128 124 125 125 127 129 130 128 124 125 124 117 124 119 121 122 122 122 118 119 118 115 111 108 107 104 95 95 92 86 86 79 85 68 74 109 111 116 118 116 119 116 119 117 122 123 118 116 122 122 114 112 114 112 110 108 103 93 103 100 92 78 80 95 104 107 113 118 119 119 117 121 
132 132 128 127 127 129 131 129 129 124 123 125 128 130 126 128 126 124 122 120 121 122 124 122 121 125 122 119 119 114 116 106 106 101 97 94 87 85 85 81 83 71 79 110 113 111 116 115 116 118 117 118 123 118 122 121 120 119 108 108 108 112 112 106 112 109 102 100 91 89 93 100 106 108 108 119 117 119 116 121 
132 133 131 130 129 130 130 133 128 128 124 125 127 128 127 125 125 124 123 122 123 122 120 121 121 120 119 121 112 111 105 101 103 100 97 97 95 86 87 80 82 67 82 108 109 112 115 116 115 115 118 116 120 117 121 120 118 115 110 107 117 112 111 104 110 100 96 87 88 98 101 100 105 107 112 122 120 117 118 119 
133 131 134 130 128 132 130 129 131 129 125 124 127 127 127 124 124 123 120 118 117 120 119 122 122 124 121 123 118 107 105 100 99 98 100 101 92 86 85 88 76 75 91 114 112 113 115 115 115 117 118 120 118 119 121 120 122 116 105 108 110 114 113 108 103 88 93 88 89 83 98 98 98 110 116 121 122 117 124 118 
133 131 133 128 130 131 126 133 132 132 126 126 130 127 126 125 123 125 120 114 117 120 121 120 122 119 123 120 115 105 101 98 94 97 100 99 95 85 86 85 76 72 89 111 112 113 114 113 117 117 122 120 123 119 124 119 120 116 106 104 108 110 112 106 94 91 96 91 87 84 93 99 101 105 115 121 116 118 117 119 
131 129 129 127 129 126 129 130 126 127 123 128 133 129 127 124 126 121 119 117 117 118 119 122 120 123 122 120 112 105 102 97 95 96 98 102 93 86 88 85 86 73 93 112 113 111 111 117 117 114 119 119 122 121 123 123 123 118 105 96 109 109 108 101 98 99 96 95 95 94 99 100 105 108 110 115 119 119 114 117 
132 127 128 124 129 130 128 127 129 126 127 124 128 128 125 127 121 120 119 117 118 118 123 122 121 123 126 118 110 103 104 103 98 96 96 99 95 85 83 83 85 73 93 116 114 113 115 116 117 118 117 116 120 119 119 121 119 118 103 97 107 110 109 106 96 99 98 93 96 99 96 106 102 108 110 117 117 120 117 122 
131 126 123 127 126 129 129 130 129 125 125 127 127 127 127 126 123 120 119 120 119 118 119 122 122 123 122 119 110 103 105 101 94 94 98 100 96 86 88 85 85 75 99 114 113 114 111 117 115 116 116 116 118 121 119 117 118 112 103 98 110 109 111 101 91 90 96 94 90 89 90 97 103 102 105 115 116 115 118 119 
131 123 123 127 123 129 127 130 128 125 125 128 129 129 128 126 123 119 120 116 121 117 119 122 123 122 120 121 109 111 104 101 93 95 98 102 95 85 87 80 85 74 97 110 113 110 114 115 115 113 112 113 118 117 120 119 115 107 98 99 103 111 105 101 100 99 94 89 89 88 95 96 95 103 103 115 113 116 116 120 
127 126 122 123 127 130 129 129 126 121 123 126 123 125 127 127 123 120 121 118 122 118 121 120 121 119 118 119 112 105 102 97 91 95 98 104 96 84 87 82 84 74 100 108 113 113 116 116 115 113 112 116 118 118 120 116 115 108 96 99 103 105 106 102 96 97 91 91 84 87 99 103 97 100 106 115 108 115 110 120 
127 127 125 124 127 129 128 130 128 123 121 127 123 127 124 122 122 122 121 118 119 119 120 123 120 120 122 120 111 104 101 96 94 98 99 103 97 86 86 83 86 71 98 112 111 109 112 117 112 113 114 117 117 120 120 121 119 107 97 101 104 107 108 95 98 93 94 91 91 92 97 104 99 103 108 116 112 115 109 119 
127 127 121 125 128 130 129 129 129 126 120 125 125 128 125 127 124 123 121 118 120 119 119 121 120 119 119 122 113 105 102 99 89 94 98 106 95 86 89 87 84 73 96 115 111 109 113 116 116 113 114 119 117 120 119 120 117 104 90 99 109 106 103 89 86 82 88 92 93 81 87 90 93 100 110 117 110 113 115 118 
128 127 123 126 129 131 130 127 130 131 124 126 132 124 130 126 124 124 119 123 121 121 120 122 122 120 120 125 116 107 105 99 89 98 103 104 96 87 88 82 87 72 102 112 112 113 114 121 116 117 116 119 119 122 119 121 120 108 96 106 107 101 99 90 71 72 78 80 82 83 80 86 98 104 110 115 113 115 114 119 
124 125 128 127 124 132 127 127 129 126 124 127 124 126 126 125 122 123 123 117 121 120 119 120 122 119 119 119 110 105 103 94 90 90 100 99 96 84 91 84 81 74 101 112 110 112 115 115 115 115 117 122 121 120 122 120 118 99 92 99 106 105 99 92 73 76 75 73 72 79 88 87 95 100 112 110 113 113 114 118 
131 124 125 126 127 131 130 129 127 125 127 130 131 130 132 123 123 121 120 121 121 119 116 122 120 121 118 118 111 108 103 95 99 91 102 96 95 83 86 78 84 72 105 114 109 115 114 116 115 117 118 121 124 121 123 119 120 105 94 100 108 108 101 85 76 72 76 75 80 77 88 93 101 107 110 107 108 112 115 126 
130 124 124 127 123 131 128 129 126 126 125 128 125 130 127 123 120 119 118 117 119 123 119 121 119 123 126 118 111 105 102 96 102 98 100 101 94 86 86 81 82 71 104 113 111 118 113 116 118 116 120 124 122 122 124 120 119 104 95 96 101 105 100 83 75 65 71 68 74 86 86 92 100 109 112 114 114 114 120 123 
127 127 121 124 124 128 127 128 123 124 121 129 127 129 124 125 124 122 119 118 119 121 117 119 121 123 123 121 110 106 101 99 102 97 101 105 96 87 85 82 83 71 103 112 111 113 115 116 114 120 120 122 124 121 123 124 120 103 92 98 100 102 101 88 68 72 77 72 76 86 82 84 100 106 109 111 115 113 114 121 
124 127 127 123 124 127 126 127 122 122 120 125 124 130 125 124 121 118 118 117 119 118 118 121 119 121 120 117 118 105 101 99 97 102 103 102 98 90 87 84 80 74 107 113 111 114 115 116 116 118 120 116 120 121 118 121 120 104 93 96 100 105 100 88 69 63 74 68 82 87 87 91 96 103 110 113 109 113 117 121 
127 123 123 123 121 123 125 126 125 126 124 127 126 129 126 124 118 119 117 118 120 121 120 119 120 121 121 121 113 101 101 98 98 98 100 99 96 88 88 80 79 75 104 113 113 114 117 123 115 118 120 119 119 123 117 115 115 98 93 98 101 102 95 79 62 59 61 73 85 90 96 100 103 102 108 113 111 113 115 117 
125 122 121 119 125 125 127 126 126 126 124 127 127 127 127 124 119 122 119 118 124 121 120 119 121 117 118 119 112 105 101 95 99 99 102 99 94 85 87 78 81 74 107 114 111 113 115 121 116 119 117 121 119 117 119 115 115 96 94 100 98 103 94 74 68 72 74 79 80 94 98 98 100 108 110 110 109 115 116 116 
124 117 119 120 123 126 125 126 124 124 121 125 128 127 125 127 126 120 117 115 118 119 117 117 120 118 121 116 113 108 100 100 97 99 101 103 97 89 86 82 81 74 109 111 113 116 115 117 115 116 121 119 119 119 116 115 113 93 87 99 105 100 94 80 75 80 78 75 93 102 103 100 101 111 113 111 108 114 111 121 
122 123 118 116 121 125 127 125 125 120 124 126 127 128 127 126 120 120 117 118 120 119 120 120 120 119 125 117 111 104 100 97 100 97 101 99 93 87 86 79 84 73 105 112 112 115 115 118 115 118 118 117 120 117 119 119 116 90 89 97 99 99 94 81 71 73 73 88 92 98 100 100 105 113 112 109 108 112 112 118 
122 120 118 120 119 127 124 126 122 122 119 126 125 128 125 122 118 118 116 118 119 118 118 118 121 117 119 113 107 102 101 95 98 99 99 97 91 85 87 80 74 76 107 111 111 118 119 117 112 117 115 116 121 117 120 118 113 90 91 98 101 94 93 77 78 83 89 90 92 86 93 97 106 113 110 102 106 113 110 114 
125 126 120 119 120 122 127 127 123 124 121 123 126 128 127 126 121 120 118 116 120 119 121 122 117 118 115 116 109 105 103 102 98 99 95 95 93 90 86 74 79 76 107 110 111 115 116 115 113 117 116 118 117 120 117 120 115 84 93 95 99 98 88 81 88 89 96 95 92 73 65 90 107 112 108 109 108 111 106 111 
128 125 125 125 121 125 126 125 123 124 120 124 126 128 127 126 123 122 116 116 118 118 117 119 115 119 114 121 112 111 105 96 96 95 97 97 98 83 85 77 82 75 105 109 109 115 114 115 114 115 116 114 117 120 121 119 111 81 87 98 97 98 89 84 87 86 92 88 78 49 52 75 102 112 110 111 103 110 111 112 
132 126 127 127 124 129 126 124 123 120 120 125 125 128 128 124 123 123 115 113 116 117 118 113 120 117 120 115 112 111 107 94 94 98 92 99 87 85 87 76 77 79 106 112 111 113 112 113 114 118 118 113 118 119 122 117 109 85 81 95 94 99 85 76 69 71 83 76 51 44 47 73 99 110 109 109 107 107 106 103 
129 126 129 126 126 130 126 124 127 124 116 124 126 126 127 122 124 124 118 113 121 116 118 120 118 120 114 115 111 110 100 93 95 96 99 97 89 84 82 87 76 75 105 109 113 111 112 114 116 116 120 117 117 120 120 119 109 81 90 96 99 95 81 61 36 34 38 40 37 38 46 72 95 96 104 111 104 108 105 104 
129 126 127 129 129 129 126 125 127 122 119 126 127 127 124 124 123 120 118 118 122 120 121 117 117 120 114 113 107 101 97 91 96 97 95 100 90 85 85 84 77 74 102 112 110 111 114 120 114 120 118 119 118 119 123 116 106 89 93 99 99 95 79 52 20 21 23 26 29 33 39 54 61 71 89 97 88 98 96 105 
128 125 123 125 134 130 128 126 124 122 122 124 123 127 128 120 124 125 115 118 119 117 115 116 118 114 115 115 111 97 101 89 94 97 96 97 96 81 86 73 72 73 106 110 112 111 113 114 115 117 116 115 118 123 121 121 107 86 92 93 92 95 81 49 19 16 23 21 28 35 37 36 42 50 53 61 79 87 97 104 
125 129 123 126 127 127 125 122 125 125 125 125 125 126 127 122 120 117 116 115 115 116 116 113 115 115 118 118 113 101 98 92 96 100 94 95 92 83 81 73 74 77 108 109 109 111 111 114 114 116 118 117 119 126 122 122 104 80 91 96 92 89 80 47 13 18 17 20 30 30 33 35 37 38 42 43 52 78 101 105 
126 126 125 124 123 123 124 124 122 123 121 126 128 127 126 120 121 120 117 114 116 111 115 112 116 116 117 115 108 93 97 93 93 97 96 97 90 86 78 73 77 85 107 110 108 110 111 114 116 113 114 118 120 121 119 113 100 83 93 94 89 92 79 48 18 12 18 18 23 25 33 33 37 40 29 35 41 53 73 87 
122 124 120 123 121 122 121 122 124 123 120 128 131 123 121 120 116 117 113 116 116 117 112 115 113 114 115 116 108 95 96 90 94 96 97 95 92 84 82 78 78 88 110 107 109 111 112 115 118 114 120 120 118 114 119 111 94 86 89 89 91 82 72 39 12 11 12 11 18 23 26 30 28 32 30 33 42 37 40 42 
123 121 121 123 121 125 121 126 124 125 122 120 127 127 125 123 113 119 114 114 116 114 116 113 112 114 115 112 109 94 95 91 94 99 95 91 86 84 85 77 78 91 105 109 111 113 114 119 114 118 118 115 117 119 119 111 91 87 89 91 88 85 72 39 10 8 10 7 16 18 21 24 29 27 32 35 32 42 29 31 
122 121 122 121 118 122 124 123 122 123 123 120 124 126 124 123 114 121 118 113 113 114 115 114 111 113 113 111 108 93 93 93 93 96 94 99 88 83 82 73 77 88 112 111 110 109 113 117 116 116 121 119 117 119 117 112 80 80 90 94 89 87 75 39 7 2 5 6 6 12 16 18 27 23 27 27 26 34 26 23 
123 120 117 119 120 123 122 121 122 123 121 123 123 128 123 124 118 122 118 111 116 114 114 113 112 112 118 118 109 96 92 93 94 96 95 95 88 84 82 76 84 94 116 114 110 112 115 119 119 115 120 122 120 121 119 111 75 77 91 89 88 85 75 38 4 3 3 4 0 7 11 15 19 18 20 23 25 28 23 15 


