P2
80 60
146
141 137 139 133 134 139 140 137 135 134 138 141 139 136 132 137 130 128 127 128 127 124 123 123 117 118 119 117 121 121 123 124 119 114 113 110 106 98 89 67 47 51 48 83 120 128 129 130 129 131 133 136 134 137 137 140 139 137 131 131 135 134 135 132 128 124 115 129 128 134 135 133 136 131 137 136 136 127 127 126 
139 138 143 134 135 140 136 137 137 138 135 141 134 133 133 136 134 130 127 127 126 123 124 121 120 120 121 120 120 120 120 120 118 115 112 107 106 98 84 71 50 50 40 84 122 127 129 127 127 127 133 134 131 137 136 139 141 138 133 131 131 131 133 131 126 124 113 126 126 126 134 135 137 130 136 135 133 127 126 129 
140 142 144 139 140 141 138 137 136 137 139 142 136 137 136 135 125 131 130 122 126 125 123 121 117 118 120 119 119 121 120 120 116 115 110 109 101 95 87 64 49 46 43 87 121 124 128 129 130 128 134 130 133 135 134 138 137 137 132 131 134 133 132 131 132 123 120 122 121 127 133 133 134 132 135 135 132 125 131 126 
139 138 139 137 139 137 137 137 138 137 143 139 138 138 139 135 129 128 127 127 129 125 124 119 115 120 118 119 119 119 121 117 117 112 115 105 100 98 90 70 48 49 49 89 117 126 130 127 131 126 130 133 134 134 132 135 135 136 132 133 137 133 130 133 124 120 116 119 125 127 131 132 134 127 133 132 132 128 131 121 
142 137 139 141 137 138 139 138 134 137 133 139 137 139 137 135 128 126 125 126 125 125 125 121 121 121 123 119 119 122 122 124 119 117 115 111 104 93 93 71 47 47 51 95 123 127 133 125 127 130 130 131 132 136 135 134 135 134 132 131 133 135 133 135 123 120 116 118 121 134 129 132 137 127 132 133 132 127 129 121 
140 142 139 139 133 134 139 140 139 136 134 135 140 139 137 135 132 129 128 129 125 129 127 127 127 126 129 126 128 127 130 129 125 125 116 112 110 99 90 66 45 41 47 99 125 127 136 124 127 131 129 131 134 135 134 139 137 138 131 134 133 134 135 133 127 120 118 122 128 125 131 132 134 126 133 137 132 129 132 128 
136 141 138 139 138 136 138 137 139 136 141 140 139 138 140 136 132 133 134 130 128 127 132 128 128 129 130 130 131 131 134 131 124 121 118 114 113 108 97 77 47 42 45 95 127 128 134 124 127 130 129 137 136 136 139 139 136 138 137 133 136 136 135 131 127 123 118 128 131 132 131 127 133 129 137 140 135 129 136 125 
140 136 142 138 138 140 138 136 140 137 138 139 140 137 135 128 131 133 136 131 133 130 131 130 128 131 132 131 127 129 130 127 123 122 120 120 114 108 98 80 48 39 39 104 123 125 132 121 128 129 131 134 136 136 132 139 138 133 132 133 132 133 133 132 134 128 128 129 128 127 129 131 133 127 135 136 131 132 133 123 
143 141 142 142 140 140 138 139 135 141 141 143 139 134 137 134 131 134 132 131 127 129 129 126 129 131 130 129 132 131 133 126 124 120 117 116 115 105 105 83 43 41 46 105 126 125 129 123 124 128 127 132 131 129 134 135 133 132 126 131 131 134 132 132 133 131 123 130 125 124 124 129 129 128 134 130 131 129 131 121 
142 144 145 140 142 143 139 140 138 134 142 143 138 139 134 137 134 136 131 129 125 131 132 129 130 133 133 132 133 127 128 125 123 121 116 115 114 107 100 87 47 37 50 109 123 127 126 122 125 126 128 133 135 136 134 135 134 130 128 130 130 134 129 130 130 128 121 118 120 113 116 126 127 128 133 131 131 125 127 123 
145 143 144 139 143 140 142 136 137 139 140 144 138 140 139 135 134 131 133 132 133 134 134 133 133 135 132 132 131 128 128 130 123 121 115 110 107 104 102 91 50 38 48 109 120 123 126 120 125 126 129 131 132 131 132 135 132 130 127 129 127 133 128 128 128 118 114 117 114 113 117 127 133 131 133 131 133 127 127 123 
140 142 141 140 141 140 144 138 136 136 136 137 139 137 135 134 131 131 133 133 134 133 134 134 131 129 130 130 129 124 128 125 125 125 119 116 114 105 101 95 53 43 50 111 123 124 127 123 121 126 124 131 132 130 131 133 131 132 127 130 128 128 130 130 125 116 115 111 113 110 116 124 129 131 137 137 134 127 126 127 
141 139 138 143 135 139 137 137 137 135 132 137 141 137 134 135 132 132 131 134 133 132 131 127 130 129 129 129 124 123 123 122 121 116 114 111 108 102 98 94 56 43 55 107 122 124 130 123 128 125 127 130 130 131 131 131 132 132 125 127 128 127 134 126 120 120 114 111 108 113 112 125 131 131 136 133 139 132 131 122 
140 143 146 139 137 135 139 138 139 137 135 138 141 133 132 134 129 132 130 129 133 131 131 133 130 131 129 126 120 117 121 117 115 115 110 100 98 100 98 94 62 44 55 115 123 127 126 124 125 131 128 131 130 134 133 135 133 133 127 130 127 128 127 125 123 118 112 109 105 112 118 119 129 133 137 133 135 131 132 121 
143 141 139 141 138 136 136 141 137 134 134 137 137 133 133 135 129 130 129 131 131 130 131 132 127 130 128 124 123 117 118 116 112 110 104 105 97 97 94 93 66 45 60 115 119 122 127 120 127 129 126 131 133 133 131 136 136 142 129 124 127 129 127 123 123 110 109 102 102 110 111 125 124 135 135 134 131 128 132 121 
140 141 139 140 136 138 134 140 136 129 133 136 131 134 134 137 129 130 130 130 126 131 129 129 127 130 130 122 119 116 114 114 107 108 103 97 96 93 91 94 73 45 60 114 120 121 125 121 124 124 125 129 131 133 133 135 133 132 126 128 129 129 125 121 123 119 104 101 94 99 108 122 128 135 137 130 133 128 130 126 
144 143 139 138 138 137 134 133 133 131 132 133 131 135 135 136 128 128 129 130 131 133 130 127 128 127 127 120 118 114 114 114 109 106 101 99 97 93 91 92 77 51 73 118 120 125 125 122 123 123 121 127 130 131 132 135 133 136 124 125 128 127 128 123 124 115 107 100 94 100 106 123 132 129 134 132 130 131 129 126 
141 142 141 141 139 135 135 133 131 133 132 133 134 131 132 133 127 133 131 129 129 130 132 128 129 130 127 123 119 114 114 113 108 108 101 96 96 94 93 93 77 66 79 121 121 124 123 121 125 123 124 126 132 131 134 132 134 139 124 124 123 126 125 120 122 118 106 98 100 104 112 125 130 131 132 130 130 126 130 126 
143 143 143 139 137 136 136 135 133 132 131 133 135 131 132 132 127 127 131 130 128 129 132 131 129 129 126 122 123 111 114 117 109 106 100 98 97 92 94 94 84 70 78 121 121 119 122 118 125 125 124 127 131 131 132 132 131 130 126 126 125 126 122 116 118 113 100 96 94 107 113 125 129 128 128 127 128 128 128 125 
143 142 144 139 139 143 138 137 133 131 131 135 134 133 133 130 128 133 132 132 131 134 140 129 131 131 129 126 125 118 119 120 116 113 108 107 102 97 95 94 85 68 82 122 119 119 123 119 124 122 126 129 133 131 126 130 129 129 122 125 125 120 117 105 98 93 90 92 89 100 105 112 120 127 133 124 125 126 129 126 
142 141 142 139 134 140 137 137 132 132 133 136 137 133 133 130 130 130 129 132 132 133 132 133 130 129 129 126 125 125 129 122 118 115 108 110 103 101 92 92 85 70 87 119 119 121 119 119 125 123 125 132 133 128 128 132 129 127 125 124 123 122 116 111 95 90 86 86 97 99 105 108 127 130 129 129 128 125 127 127 
138 140 140 139 136 138 139 135 134 130 135 135 139 133 133 128 128 130 130 130 129 131 132 129 127 131 128 125 124 120 122 122 117 115 107 102 104 97 91 92 83 67 92 118 120 121 119 117 125 122 129 128 128 129 129 134 128 130 127 123 124 123 114 111 103 87 87 84 87 94 99 110 123 126 126 128 126 127 129 125 
139 140 136 142 136 140 136 139 138 133 135 140 136 135 136 134 129 131 131 134 131 133 130 132 129 133 128 127 123 120 122 124 119 112 107 102 98 91 92 93 81 70 94 120 120 118 124 118 123 123 125 129 131 129 124 128 128 127 121 119 125 123 117 107 98 94 86 95 87 91 100 114 119 123 132 129 128 124 126 129 
142 137 139 136 138 141 139 140 139 133 135 134 135 134 133 134 128 132 131 129 130 131 132 128 129 131 130 129 122 119 120 119 115 113 101 99 98 92 91 90 84 74 94 120 118 117 123 116 122 126 128 127 129 127 128 127 129 126 121 118 123 121 113 107 97 96 89 93 89 92 100 115 119 121 137 130 129 125 132 125 
140 140 139 138 136 135 137 140 139 132 133 135 136 133 136 134 131 132 134 132 130 134 131 130 128 128 131 127 125 120 120 119 112 109 108 102 100 92 89 90 82 79 103 122 121 121 123 118 124 124 125 130 131 127 127 129 126 127 119 119 122 120 115 105 100 101 96 100 93 94 106 120 119 124 133 129 129 124 135 124 
139 139 138 134 133 137 138 138 138 134 134 135 135 133 139 138 129 133 134 132 133 132 133 132 131 128 128 127 123 120 121 119 111 111 106 105 102 91 89 90 87 79 97 121 119 121 123 120 123 123 125 125 127 129 124 128 126 125 119 114 123 121 114 116 119 113 103 110 100 100 104 122 117 120 133 126 126 125 131 123 
140 138 135 135 134 137 138 134 135 133 130 137 135 134 136 134 132 133 133 131 131 132 137 133 129 130 128 126 126 118 118 116 115 110 110 106 103 90 90 89 87 71 105 123 119 118 121 115 121 123 124 126 126 128 126 130 127 123 114 115 116 120 117 115 111 110 99 99 96 101 107 116 121 122 127 128 128 122 131 125 
142 144 140 140 135 136 135 139 136 134 137 130 133 135 132 131 128 131 132 130 127 132 131 129 128 128 128 126 125 115 113 113 110 106 104 102 102 89 90 90 85 76 109 121 116 115 122 119 121 121 121 125 127 126 127 129 122 121 115 119 122 118 116 110 100 99 97 98 95 110 110 113 118 123 129 130 128 126 131 123 
142 141 140 140 135 137 132 137 137 134 136 134 136 136 135 133 130 128 130 128 128 128 130 130 126 127 127 126 124 113 112 113 109 103 108 104 102 92 89 93 87 77 111 121 123 123 123 119 120 124 125 131 127 128 126 129 126 122 109 121 122 116 115 105 103 100 95 98 95 103 110 109 119 124 133 127 129 126 134 126 
140 139 140 135 130 137 135 138 137 135 135 133 135 139 133 133 128 129 129 126 127 128 133 132 128 127 128 128 121 112 112 111 108 105 108 100 107 90 90 87 88 80 111 122 123 121 121 118 125 122 123 125 125 125 125 126 128 118 106 115 119 116 112 109 105 106 105 101 99 108 116 114 120 125 134 128 126 125 134 123 
139 136 139 136 131 134 138 138 133 133 131 133 135 134 134 133 132 131 130 129 129 127 129 131 128 128 127 127 123 110 115 111 107 106 108 105 107 91 89 88 87 84 113 125 122 123 121 120 122 119 124 127 126 127 126 127 125 120 106 112 116 118 110 112 105 106 103 106 107 108 117 112 117 126 128 125 125 127 136 127 
141 136 135 136 135 137 136 137 138 133 134 134 133 134 134 133 131 129 130 128 125 129 130 133 130 128 130 130 122 113 113 114 109 102 106 103 105 92 88 91 92 89 116 124 122 120 121 121 119 122 124 124 126 127 124 128 128 117 105 109 114 119 108 105 105 103 98 100 104 104 110 115 112 118 125 124 126 121 132 124 
139 136 135 136 134 137 138 139 136 134 134 137 133 136 133 130 131 131 129 126 128 130 131 132 130 129 129 128 122 110 114 109 106 100 105 106 104 90 88 90 90 85 116 122 121 118 120 120 119 120 124 121 125 126 123 128 128 111 102 115 116 116 114 108 110 105 96 100 97 103 110 105 110 113 124 123 126 123 131 125 
135 136 137 136 136 136 134 139 136 132 131 136 131 135 134 133 131 132 131 130 125 128 128 131 128 128 127 127 121 116 114 112 105 102 101 109 103 89 87 88 86 85 117 124 121 119 121 116 117 120 124 126 125 125 122 127 127 109 101 115 114 121 110 109 113 105 100 100 95 105 109 110 113 118 127 123 125 123 133 125 
139 133 136 136 130 135 135 136 137 131 132 135 134 133 132 132 129 129 130 128 128 128 131 128 129 127 126 126 122 110 110 110 105 102 105 105 102 92 88 90 87 84 117 120 120 122 121 118 121 120 121 126 123 123 123 126 125 105 98 117 115 116 111 106 110 109 100 105 100 100 109 112 118 121 126 115 122 120 130 124 
138 136 136 132 130 133 137 136 134 132 132 133 135 132 131 131 130 133 132 131 128 126 128 130 129 128 126 127 120 113 115 112 104 101 108 103 107 88 88 92 89 82 120 124 117 119 122 120 121 119 120 124 127 125 123 126 122 99 101 115 114 114 101 94 89 92 104 103 102 95 101 105 113 124 125 119 122 123 131 122 
137 139 133 132 130 130 137 135 138 131 136 136 134 134 130 131 130 131 133 129 128 128 129 128 125 124 126 127 120 116 113 116 104 100 108 103 107 91 89 91 92 85 113 121 116 117 120 121 123 119 123 124 126 129 128 127 121 102 100 114 117 114 97 81 79 79 92 100 92 86 96 106 113 120 124 119 119 119 127 123 
133 135 137 132 134 133 141 136 138 133 136 135 136 133 134 130 129 135 130 130 127 129 130 129 126 125 127 125 119 111 110 109 99 101 109 100 106 90 89 90 88 89 115 123 118 120 122 121 122 123 123 123 125 130 123 128 125 102 101 113 115 109 97 84 82 83 80 80 89 96 102 107 116 121 126 119 122 123 129 117 
134 133 137 131 131 133 135 133 137 131 136 134 136 134 132 129 129 132 133 128 129 128 130 129 126 127 126 125 122 107 111 110 102 101 106 104 105 91 90 90 84 89 114 123 119 121 123 120 122 125 127 127 128 128 128 129 126 107 98 112 112 114 95 82 82 83 80 89 90 96 99 108 115 121 126 120 122 125 131 124 
135 135 131 133 129 132 135 137 138 131 134 136 137 136 132 130 128 132 132 129 129 128 129 129 129 126 127 127 121 110 109 111 105 105 106 102 101 89 85 88 80 91 115 124 116 123 122 118 122 123 124 130 132 130 128 126 124 103 97 110 113 109 95 81 82 75 74 79 94 95 96 107 117 122 125 121 119 123 136 127 
135 134 134 132 126 130 134 137 135 132 128 134 133 136 134 129 128 130 129 127 128 130 128 128 128 128 131 128 119 109 109 107 106 109 106 106 101 91 89 92 82 94 115 122 118 123 123 119 124 122 126 134 132 128 128 126 123 105 93 108 113 111 93 79 79 81 82 88 96 90 91 110 117 123 122 120 120 128 137 129 
133 134 133 135 130 130 136 136 134 131 128 132 133 132 132 130 131 132 130 130 126 130 126 128 127 127 128 127 117 107 110 109 109 104 106 103 108 90 88 92 85 89 119 122 116 118 121 120 121 125 125 128 126 127 126 127 123 104 93 109 110 107 89 76 70 75 80 93 92 97 106 110 117 120 124 121 119 126 134 119 
135 133 136 131 127 129 133 138 133 130 129 130 129 133 133 126 122 128 131 125 126 128 129 129 125 125 127 126 117 111 110 110 105 107 107 108 101 92 89 92 87 90 111 118 116 122 122 121 121 122 127 124 130 130 124 127 119 98 95 107 111 109 90 79 78 71 80 90 100 101 108 114 114 120 125 123 117 123 132 124 
136 134 128 127 127 130 129 136 129 129 130 134 131 130 134 127 123 128 127 129 127 127 128 128 127 125 124 125 115 108 110 109 107 104 104 104 102 91 91 89 89 95 118 120 118 119 124 127 122 123 128 125 125 127 125 124 116 89 90 113 108 103 84 74 75 80 82 89 101 104 108 112 114 118 121 123 115 123 127 124 
135 131 126 126 127 128 131 137 132 131 131 132 136 132 135 129 129 129 129 129 131 129 126 126 124 123 125 121 113 104 106 109 107 103 102 105 99 90 89 90 86 93 116 122 116 120 124 123 123 122 124 125 126 124 123 122 112 91 91 109 105 97 86 86 94 82 80 96 98 105 112 112 115 117 118 122 115 115 125 119 
131 129 123 125 129 126 129 134 131 131 126 135 133 131 132 132 130 129 129 130 127 128 130 124 125 126 124 122 119 107 108 108 103 104 103 105 100 90 88 89 85 95 113 121 119 120 121 119 124 121 126 127 125 122 122 126 108 86 93 107 107 104 86 79 80 84 93 98 105 109 111 113 119 119 121 119 116 121 125 121 
132 131 126 130 123 125 126 132 132 128 130 132 131 132 132 128 127 128 128 128 130 129 129 128 126 126 128 125 117 107 107 106 109 104 105 102 101 92 90 90 82 93 112 119 119 120 121 119 122 124 125 125 126 125 124 121 106 86 101 110 103 98 96 90 89 97 98 100 97 92 105 115 121 123 124 120 113 114 125 119 
133 132 126 128 126 128 125 133 132 130 128 131 135 135 131 132 127 128 129 127 123 129 130 124 128 124 123 120 114 110 112 108 108 106 106 102 101 92 91 92 85 99 117 120 118 121 125 118 122 125 119 124 125 126 125 131 101 92 106 106 105 99 91 89 92 97 94 96 75 64 95 117 128 121 121 118 115 123 126 119 
135 132 132 129 126 125 127 135 131 130 127 129 131 135 135 134 126 126 130 125 127 128 128 127 125 122 123 122 121 112 114 116 109 107 104 103 99 90 89 88 86 101 113 121 119 117 123 119 121 121 121 125 121 123 123 121 100 87 104 102 104 99 86 90 93 95 95 81 60 53 87 115 125 121 119 121 117 118 119 113 
135 137 136 135 131 131 128 131 131 129 127 130 133 133 133 133 130 130 127 126 121 124 127 129 125 123 122 121 122 114 110 106 106 104 100 104 101 89 87 86 81 101 119 119 116 121 120 116 120 120 121 121 126 123 126 120 94 82 103 109 103 93 77 67 64 72 73 53 48 56 91 109 116 122 126 121 113 113 120 113 
141 139 134 136 131 132 131 134 130 130 128 130 131 129 131 131 126 128 127 124 122 122 129 125 126 122 123 121 116 105 107 101 103 102 101 100 100 88 88 89 81 98 119 121 118 116 122 114 120 120 123 118 125 128 123 128 88 84 99 104 104 92 62 38 36 31 32 41 44 53 83 107 100 113 121 114 106 112 112 110 
137 136 135 135 131 135 128 130 132 130 131 128 130 129 134 132 124 129 129 126 125 126 128 128 124 127 124 121 113 99 103 103 99 101 105 103 97 89 89 88 79 95 110 117 115 120 120 115 122 121 122 123 124 128 122 120 89 79 103 105 101 87 57 28 29 28 32 38 40 43 50 65 64 77 93 106 102 106 112 105 
132 135 135 133 134 133 130 134 132 131 130 130 130 130 129 136 128 130 127 128 129 126 127 123 125 122 122 118 118 108 104 102 103 104 104 101 101 92 89 89 74 98 113 118 114 116 120 118 120 119 122 123 126 125 123 120 87 83 102 106 98 92 58 32 26 28 27 34 37 38 47 53 56 55 68 73 96 110 104 97 
135 133 132 132 139 133 131 131 133 132 131 131 131 128 131 132 126 126 125 126 124 126 124 123 124 121 120 122 119 103 104 102 103 103 102 102 99 87 86 84 74 103 114 119 114 116 120 118 122 120 123 121 122 124 124 119 89 87 103 100 96 90 59 28 24 21 31 30 37 36 44 48 49 48 53 59 83 93 98 84 
132 130 130 136 133 133 127 129 133 131 131 131 131 129 129 128 126 124 124 127 123 125 124 120 123 121 126 121 118 104 107 104 104 105 104 100 97 87 87 89 83 104 116 121 113 118 120 119 121 122 124 122 124 125 125 115 87 82 104 102 98 90 57 25 16 23 23 28 33 29 39 45 46 45 47 54 55 56 65 48 
134 131 134 133 129 129 130 129 129 132 131 132 134 128 126 128 124 130 126 124 124 122 125 123 122 122 120 119 114 103 103 103 99 104 103 103 93 87 83 85 82 105 108 116 114 115 119 118 122 120 118 125 126 125 121 106 85 81 101 102 95 87 50 23 17 19 15 18 28 29 44 43 41 41 44 48 47 44 46 34 
130 135 134 132 127 133 127 130 129 129 130 132 136 127 128 131 125 130 126 127 124 125 125 125 120 119 120 120 111 99 103 103 103 102 104 103 94 89 87 86 88 106 117 114 112 113 120 116 124 119 119 123 124 123 120 101 75 85 98 97 90 80 53 18 15 15 13 18 20 27 32 34 36 34 42 40 41 39 39 24 
131 133 129 132 126 126 126 133 127 130 131 131 132 129 129 129 122 128 128 124 122 122 124 122 119 117 118 120 112 100 101 101 100 104 101 101 96 88 85 86 79 108 113 114 112 115 122 122 123 122 122 126 123 122 121 97 75 94 101 93 93 88 50 15 15 9 8 16 20 19 23 28 30 32 35 34 37 37 31 26 
132 130 129 129 128 125 129 127 131 127 128 130 129 127 129 126 123 127 127 122 124 124 124 121 119 116 117 120 116 96 102 102 104 105 105 104 98 88 88 87 81 108 112 114 115 117 122 119 121 122 123 126 125 123 119 97 70 91 96 96 90 80 50 12 6 2 0 5 7 15 20 24 22 24 28 27 32 30 32 21 
132 133 124 126 127 125 125 125 127 128 128 131 132 125 130 130 128 129 127 123 121 123 123 123 120 117 119 121 109 98 101 103 105 102 103 102 100 92 88 88 88 110 115 117 115 118 125 122 126 122 122 127 127 131 116 88 66 93 93 94 89 81 48 16 11 6 0 9 6 9 13 18 18 18 25 26 30 28 27 20 


