P2
80 60
121
106 104 101 101 105 103 99 104 102 106 105 103 103 107 107 104 106 110 106 108 107 109 108 107 109 112 112 112 111 110 115 112 111 113 109 112 111 114 113 115 114 115 115 113 114 114 114 113 115 114 112 116 116 114 116 115 116 113 121 112 114 110 111 114 108 109 101 96 99 98 95 98 100 96 95 95 95 91 91 90 
106 109 104 101 104 102 102 104 104 106 101 105 102 102 105 107 108 109 108 111 109 111 109 110 113 111 113 113 110 113 117 114 108 109 112 110 113 114 114 115 113 115 116 114 114 111 113 114 113 113 116 114 113 118 117 113 116 114 114 110 113 110 112 111 109 110 96 98 98 96 98 97 95 99 98 95 91 93 95 96 
105 106 101 102 102 102 105 102 105 106 106 106 104 103 104 105 108 110 107 109 110 109 108 108 107 116 113 112 109 113 116 117 112 110 112 112 115 115 118 117 113 115 113 113 116 112 109 112 113 112 114 114 115 116 115 114 113 113 111 111 108 109 107 108 111 110 99 99 99 97 100 99 97 98 92 96 94 91 91 92 
105 103 102 99 106 100 107 104 102 107 105 107 103 104 105 103 108 110 110 110 108 112 108 106 112 112 114 115 108 114 115 112 111 112 110 113 114 113 114 113 116 116 114 112 113 113 110 115 116 116 115 112 115 115 115 114 116 111 111 111 112 110 109 111 108 106 101 100 98 96 97 101 98 95 94 92 92 91 94 93 
107 107 103 104 107 106 106 103 105 107 102 103 102 103 104 109 107 108 107 110 108 112 111 107 110 114 118 113 111 112 118 111 106 106 108 111 111 116 121 114 113 117 117 117 114 112 116 112 112 113 114 113 116 117 114 111 111 110 109 111 111 111 109 113 109 106 97 100 96 94 96 96 98 94 96 92 90 91 91 90 
109 108 103 106 106 104 103 106 105 101 97 105 103 101 103 105 108 105 108 106 108 113 111 108 110 114 117 114 110 111 112 107 105 109 109 110 111 114 116 117 114 118 118 112 115 115 117 117 112 114 114 114 116 118 112 115 114 113 111 110 111 110 115 110 108 109 100 98 101 99 99 99 99 95 94 93 91 89 94 90 
106 109 105 105 105 104 104 104 105 103 102 101 103 104 108 107 109 110 107 107 106 107 110 106 109 111 112 113 109 109 114 109 105 107 110 111 110 115 117 115 116 115 116 113 114 113 113 113 112 113 115 117 118 115 115 113 113 116 117 111 112 111 110 110 109 108 101 99 96 97 97 96 97 96 90 93 90 92 95 95 
109 107 105 103 106 107 106 106 104 104 102 104 103 106 107 107 109 109 108 109 111 113 108 105 110 113 112 111 108 113 110 106 105 111 111 114 116 114 117 117 116 113 115 115 114 110 116 113 114 114 115 116 118 117 114 117 112 113 112 115 112 111 114 108 109 109 98 95 98 94 96 97 99 95 95 91 89 91 95 93 
114 110 105 107 106 108 109 106 102 105 99 102 105 103 104 106 107 108 108 112 109 110 108 110 111 109 110 111 113 111 112 107 107 109 112 111 112 113 114 115 111 115 111 112 111 110 111 112 113 113 113 116 118 120 112 114 110 109 111 114 110 110 109 109 109 107 100 100 95 95 95 96 97 94 91 89 90 88 95 94 
112 110 112 108 105 106 107 107 102 100 102 105 102 104 104 106 110 108 106 110 111 109 109 109 115 111 113 111 110 113 111 106 109 111 109 109 112 113 113 112 110 113 114 112 110 110 108 111 112 114 114 114 114 118 112 115 112 104 113 109 107 108 108 107 108 109 100 100 98 94 96 97 100 95 94 89 92 88 91 99 
107 112 111 110 110 106 112 107 104 104 100 100 103 102 107 106 107 106 106 107 107 107 108 108 109 109 112 110 111 108 107 109 107 111 108 109 109 110 112 112 113 113 110 110 108 109 109 109 108 111 112 113 115 114 114 114 111 106 109 108 106 109 106 108 107 105 97 97 96 97 94 97 97 91 90 95 93 92 94 94 
112 111 109 112 110 105 110 105 103 99 101 104 102 102 105 104 106 106 107 107 108 107 107 107 110 111 110 109 108 108 110 106 109 109 108 107 109 109 114 113 113 113 112 109 110 109 110 108 109 114 111 112 114 114 115 112 112 110 110 106 109 111 106 109 104 105 96 97 90 91 92 91 95 95 90 96 93 94 94 96 
116 108 104 107 111 104 107 105 104 104 100 103 103 102 104 103 104 108 103 106 106 108 104 107 109 111 109 108 109 111 110 105 107 108 107 109 107 113 118 114 110 113 111 110 113 111 110 108 109 109 112 113 114 115 112 110 111 112 109 108 108 112 111 107 104 103 96 99 95 94 83 95 92 90 94 92 89 91 92 92 
112 110 108 106 109 106 110 103 103 101 100 104 96 100 104 106 103 107 106 103 110 105 105 107 109 107 110 109 108 111 107 104 108 110 108 107 108 115 112 107 111 112 109 110 111 112 113 113 109 113 114 115 114 115 110 112 113 110 111 110 108 107 105 108 105 104 96 100 93 93 94 92 95 91 93 92 94 94 93 101 
110 110 110 107 104 104 104 105 104 103 100 100 98 105 103 105 104 106 105 104 105 104 106 109 109 108 109 112 109 108 107 106 107 109 109 108 110 116 111 112 107 110 109 109 111 112 110 108 112 112 115 115 114 115 111 113 115 116 114 109 107 105 110 103 105 105 95 99 94 92 96 99 97 93 90 89 96 93 94 96 
112 113 111 108 105 106 107 103 106 99 99 101 100 101 102 105 105 106 104 103 104 103 103 108 108 108 109 106 109 107 107 106 109 109 109 108 107 109 113 110 111 112 111 111 111 110 111 110 109 113 111 109 114 117 112 112 112 114 111 111 107 107 111 109 104 105 98 95 98 94 95 99 98 92 93 89 93 93 92 94 
114 113 107 108 106 105 106 102 101 97 100 103 99 101 101 107 104 102 104 105 102 106 101 106 106 106 109 107 103 106 105 103 108 109 106 109 107 107 110 111 112 110 112 109 107 115 109 107 108 111 108 109 113 113 114 114 112 113 110 107 104 106 107 107 105 105 97 97 97 95 98 98 97 97 91 90 94 88 94 94 
107 109 108 107 108 108 104 101 100 95 99 100 97 100 105 103 105 103 105 105 106 102 104 106 105 106 108 108 106 107 106 103 107 106 104 108 108 109 112 110 110 108 109 109 110 111 104 108 107 104 107 110 116 112 116 113 111 113 111 104 106 104 106 106 106 101 94 99 95 95 95 97 99 92 89 93 91 93 93 93 
109 109 108 107 109 105 105 102 98 99 101 101 98 99 105 105 104 104 103 105 104 105 102 111 108 107 105 103 109 109 105 103 107 106 111 108 110 109 108 109 111 111 109 112 111 109 108 106 108 108 109 110 116 112 109 107 106 111 107 105 105 104 104 107 104 102 95 98 97 95 96 94 99 91 90 90 91 92 96 96 
112 108 106 108 106 111 104 101 101 101 105 99 101 100 103 105 107 105 104 104 105 106 108 106 106 107 109 105 107 106 109 105 108 107 110 106 112 111 110 108 110 108 108 109 108 108 107 107 109 109 109 110 111 110 109 110 109 105 105 105 104 107 108 105 104 100 93 103 97 97 97 94 97 94 93 91 92 91 97 93 
111 107 111 109 107 103 104 99 97 100 103 102 100 101 103 102 104 106 105 104 106 104 104 108 106 107 108 106 109 105 113 106 104 107 109 109 111 109 109 108 111 113 110 109 106 105 106 108 106 105 107 110 112 107 111 105 109 107 105 104 105 105 109 108 104 100 96 99 94 96 97 101 98 93 93 90 90 91 96 95 
113 107 109 108 106 106 105 100 96 99 101 102 103 100 102 105 101 103 103 104 102 104 105 107 105 106 110 104 105 104 106 104 103 107 106 109 108 106 108 109 109 112 107 105 106 104 105 104 105 106 110 108 113 109 109 107 108 106 107 104 102 107 108 106 103 102 96 100 96 97 97 100 96 90 91 89 89 89 101 96 
110 106 108 106 106 106 106 104 99 101 99 103 99 102 103 103 101 101 104 110 100 100 104 106 106 107 108 107 103 104 103 103 105 102 106 107 106 106 110 109 112 108 107 103 104 101 106 105 106 108 107 108 108 109 107 108 102 101 106 104 105 103 106 107 104 102 99 98 97 95 96 98 98 91 90 90 90 89 97 97 
113 111 109 105 108 103 105 109 99 98 98 101 101 100 104 102 102 100 102 103 100 102 101 106 104 105 106 106 102 101 97 101 104 106 102 104 107 104 106 108 107 109 107 108 107 106 106 103 104 111 109 109 110 108 106 105 105 101 103 102 104 102 103 106 102 98 97 100 97 96 95 95 97 96 93 88 89 93 99 95 
108 111 105 107 104 106 105 102 103 102 100 100 100 101 100 98 104 103 101 102 102 104 103 103 106 107 102 104 103 101 100 99 104 104 106 109 104 106 105 106 107 104 110 108 111 106 106 105 108 107 109 110 108 108 103 106 108 104 105 103 106 104 102 104 102 100 101 104 95 98 92 95 98 94 90 89 90 90 97 96 
109 106 104 104 103 105 106 101 97 99 101 103 99 104 103 99 102 100 96 103 98 102 106 103 104 102 104 104 102 100 100 99 103 103 105 108 106 105 103 105 106 107 106 107 104 108 105 108 106 109 109 109 107 106 103 108 103 101 104 102 101 100 103 102 97 98 99 103 93 91 99 96 98 92 90 90 90 92 97 93 
107 105 107 105 103 106 106 98 99 101 100 100 98 102 100 101 101 102 98 100 101 101 106 106 105 103 103 104 102 102 100 99 103 103 106 104 106 105 105 104 105 107 107 106 103 107 105 105 103 105 110 108 106 103 103 104 103 100 101 100 100 101 100 101 98 95 97 95 94 95 98 99 98 89 89 89 92 94 98 94 
108 107 108 105 107 105 103 99 99 98 99 99 98 101 97 94 100 97 100 100 98 103 106 104 103 103 105 106 102 105 100 103 102 100 102 105 107 103 104 104 106 106 106 107 105 107 105 104 105 105 111 110 108 103 102 102 101 100 99 101 99 100 102 101 100 96 93 97 95 93 97 97 97 93 90 89 92 92 97 96 
106 110 105 106 105 103 102 99 100 101 97 99 97 103 97 97 97 97 97 104 97 101 104 103 100 104 105 104 100 100 100 98 99 103 101 104 103 105 103 105 102 104 107 106 105 104 105 106 105 106 108 109 105 102 103 103 101 99 101 100 101 103 101 101 95 94 94 94 91 95 95 95 96 91 89 88 89 92 92 95 
109 106 108 103 101 103 102 97 99 100 99 99 98 98 94 98 97 99 96 100 97 99 106 100 104 101 101 102 98 99 99 102 101 105 101 105 107 103 105 103 105 105 105 106 103 102 105 102 103 104 108 107 104 104 103 105 101 101 99 98 102 103 107 103 97 98 102 100 97 94 95 96 95 86 90 92 95 92 93 91 
112 106 107 103 104 101 102 96 98 96 96 98 99 98 98 95 101 98 95 103 98 101 111 103 102 102 103 103 99 100 99 100 104 105 106 106 105 100 107 107 102 106 110 106 103 106 102 105 108 107 109 106 105 101 103 102 99 99 99 99 101 99 106 107 96 96 97 97 96 96 96 99 92 90 92 91 91 92 97 89 
108 110 103 102 106 105 103 98 95 100 97 98 97 100 98 97 98 98 99 103 98 102 104 98 100 103 106 103 97 99 97 102 100 103 107 102 103 102 104 106 107 106 105 106 104 99 101 103 104 112 107 105 104 103 101 101 100 99 94 98 100 100 105 101 99 101 95 96 95 99 95 95 94 92 87 90 90 90 95 90 
107 109 107 108 105 106 102 96 95 99 97 99 94 101 96 94 95 96 98 100 98 99 100 99 100 103 103 103 98 100 100 99 103 103 101 103 99 101 104 105 103 106 105 101 104 102 100 101 106 108 107 108 104 104 105 102 100 99 101 98 97 100 102 100 96 98 95 96 96 94 94 94 93 90 90 89 91 88 91 91 
104 106 105 105 105 103 100 95 98 95 94 99 97 98 96 95 96 95 94 97 96 98 99 102 101 99 102 99 96 101 103 99 101 101 101 100 101 103 104 107 103 107 107 106 104 101 101 103 102 104 111 106 101 102 102 100 101 101 98 96 97 99 101 101 96 96 97 94 94 95 94 94 89 93 92 90 94 90 92 90 
105 105 104 103 101 101 98 87 94 92 92 97 97 97 94 94 98 98 94 98 96 99 98 101 101 99 97 100 96 97 100 97 100 104 102 100 102 101 105 106 101 102 106 104 102 101 104 103 99 105 107 107 103 104 100 100 101 103 100 94 100 101 100 100 97 97 96 95 92 93 95 92 93 90 89 90 94 92 91 88 
105 105 102 105 105 103 98 88 92 92 94 93 97 95 93 90 93 96 96 96 97 98 100 101 100 97 99 96 98 96 98 100 102 101 101 101 101 100 102 102 102 102 101 101 103 99 103 104 101 105 110 103 103 102 100 98 101 98 99 98 97 96 99 99 96 94 95 96 92 93 93 93 91 91 91 92 95 90 92 91 
106 107 106 102 103 104 93 92 89 92 91 93 94 93 91 89 93 93 96 94 99 101 97 100 97 95 96 98 97 97 99 99 103 103 103 99 100 100 98 100 100 103 101 99 97 103 98 104 101 106 104 103 103 99 100 99 98 98 99 99 97 99 96 99 98 97 95 100 95 92 94 90 89 91 91 89 92 93 92 92 
104 108 105 103 103 103 95 89 93 88 90 94 95 93 90 89 95 98 96 98 98 102 98 96 97 95 95 94 97 96 99 98 101 105 102 99 99 100 100 97 99 103 104 103 103 101 101 102 105 106 106 103 102 100 100 100 99 97 96 97 98 96 100 96 96 98 96 98 94 92 93 92 88 89 89 88 91 86 92 91 
105 107 113 106 106 101 92 90 91 90 93 96 97 93 92 92 93 97 94 95 95 104 97 99 94 95 95 95 94 95 97 96 97 101 100 96 99 100 101 99 98 101 102 100 102 101 103 104 101 106 107 106 104 101 101 100 98 98 98 96 97 95 98 93 92 95 96 97 92 91 90 91 87 85 87 90 92 89 92 91 
106 107 106 104 103 103 99 92 91 88 89 97 98 92 89 92 96 94 92 95 96 104 96 99 94 96 94 95 93 96 96 99 101 103 99 99 98 97 101 102 100 101 103 100 101 102 104 103 105 108 106 107 103 104 104 101 99 95 95 95 94 94 96 96 92 93 92 93 90 91 91 90 90 91 89 92 92 93 94 93 
104 106 104 102 104 102 97 87 89 88 90 91 92 95 90 89 96 92 91 94 96 98 98 99 98 96 98 96 93 96 97 96 102 102 101 98 100 99 101 99 98 99 100 100 100 100 101 105 105 107 108 112 103 101 99 100 97 94 95 95 93 99 96 94 96 90 89 93 88 91 88 91 89 90 89 88 94 91 100 95 
105 104 105 103 103 99 94 88 89 88 86 93 90 89 90 88 92 95 94 94 96 98 96 97 97 95 97 98 93 93 96 97 99 100 101 97 100 99 97 98 98 102 100 99 103 102 103 104 105 106 108 107 102 101 100 100 97 98 96 94 96 96 92 96 96 94 89 89 90 91 90 89 90 89 89 88 91 90 93 95 
108 106 107 103 101 96 86 81 84 87 87 89 90 88 90 87 88 90 92 93 96 97 92 95 95 93 94 90 91 94 95 96 98 99 99 100 99 101 99 97 100 100 99 101 102 102 104 106 105 107 106 101 100 98 97 98 100 95 95 94 93 94 95 95 92 94 90 90 91 87 90 90 92 86 87 89 87 87 91 89 
108 104 101 101 102 100 87 85 88 86 88 94 90 87 88 86 88 91 89 92 95 94 92 93 92 96 93 89 92 92 98 97 99 99 97 98 99 97 98 98 100 101 97 99 99 103 103 108 103 105 104 101 97 99 95 101 97 96 95 94 94 95 96 91 89 94 91 89 92 91 89 90 90 87 90 89 90 86 92 91 
104 106 104 98 102 96 85 81 86 83 83 88 91 92 86 87 88 91 89 90 96 95 93 92 91 92 91 89 91 96 96 97 99 100 98 96 96 96 97 97 100 101 100 98 104 103 105 106 103 104 104 99 99 96 96 96 95 95 94 95 92 94 92 90 92 94 92 91 92 89 86 87 89 87 89 90 91 86 93 92 
105 106 100 99 103 94 83 82 84 81 84 88 86 88 90 87 93 92 87 92 94 94 92 95 91 92 95 87 89 94 98 94 96 99 97 99 97 97 95 96 97 97 98 101 104 104 103 103 100 103 102 99 99 97 96 96 94 91 93 92 95 92 87 90 92 94 90 91 91 88 88 86 87 88 88 88 90 83 86 89 
103 101 102 99 99 91 83 81 87 82 85 86 87 83 86 87 89 92 89 90 93 94 94 92 94 90 91 88 89 94 96 95 100 97 97 98 95 96 95 93 98 97 96 99 104 108 104 102 100 104 101 99 99 97 97 96 93 94 92 91 93 95 89 89 88 89 87 94 90 89 85 87 90 88 90 86 88 82 84 86 
106 106 102 102 102 94 75 85 81 85 83 88 83 85 84 87 88 89 90 87 92 93 95 91 92 91 88 88 90 96 94 94 95 96 97 97 97 94 97 96 95 99 95 95 98 99 104 101 100 101 101 100 94 95 95 93 95 95 92 90 91 93 88 89 85 89 86 91 88 84 85 88 90 86 86 83 87 82 82 86 
103 103 101 97 101 91 82 82 84 84 83 84 86 84 85 87 86 85 89 89 93 93 98 91 90 87 91 87 88 91 93 93 93 95 96 95 93 98 97 96 96 95 93 97 98 97 100 101 99 99 98 95 92 96 93 94 94 95 92 93 91 89 85 85 85 88 86 91 91 88 85 90 87 86 87 84 86 81 82 83 
104 102 99 98 100 89 86 78 83 83 86 84 83 83 86 88 85 90 91 89 90 93 93 93 90 91 87 88 89 92 92 91 93 95 96 94 95 94 98 96 93 97 96 97 97 96 96 96 95 103 98 92 95 94 94 93 94 94 95 90 92 92 85 87 84 87 90 92 88 86 85 87 85 88 90 87 89 79 79 83 
105 105 100 98 101 91 80 82 84 84 83 84 82 85 82 85 84 86 84 84 91 92 89 88 88 89 88 85 87 93 93 91 93 98 95 92 92 93 100 95 94 96 99 96 98 99 98 96 97 99 94 94 94 93 94 94 96 94 88 94 92 89 92 87 85 84 89 95 87 83 85 85 84 87 88 87 87 79 87 84 
107 103 100 94 100 92 83 80 83 82 84 82 81 80 80 82 83 82 85 87 92 91 88 87 88 88 85 87 85 89 92 93 97 92 98 96 94 93 97 93 91 92 94 94 96 97 97 97 99 100 96 91 93 99 93 96 91 93 88 92 87 85 93 87 83 85 88 93 88 84 89 87 86 87 87 88 84 82 82 85 
106 105 101 104 102 92 82 81 83 85 83 87 83 80 78 78 79 82 84 83 84 89 88 89 90 90 90 86 86 92 90 90 93 93 93 94 92 91 93 90 93 95 94 95 96 97 97 99 98 97 95 92 92 93 94 98 95 92 94 90 89 89 89 91 86 87 87 89 85 85 86 86 83 88 87 86 80 78 82 82 
106 102 101 100 106 90 81 76 82 84 84 83 83 81 81 81 81 82 82 83 84 89 89 84 86 87 86 87 87 91 92 92 96 92 95 94 90 90 93 91 90 91 90 91 94 94 98 97 97 96 95 94 92 94 94 95 96 95 93 90 90 85 86 82 81 85 88 89 83 84 85 87 84 86 87 82 83 81 80 81 
101 100 102 100 103 86 84 78 85 87 82 83 86 86 81 78 80 79 79 79 81 83 85 85 87 88 88 90 88 88 90 89 90 91 93 90 89 91 89 89 90 90 92 92 90 94 93 97 95 95 95 91 93 92 92 94 95 93 89 88 88 84 83 82 82 86 85 86 84 86 87 88 86 86 86 87 83 79 82 82 
101 100 99 96 92 87 83 83 83 82 82 81 87 80 84 83 78 82 81 80 79 83 79 82 84 83 83 86 84 89 88 86 87 91 90 89 90 88 89 89 92 92 92 92 93 91 95 95 94 94 94 93 92 93 92 94 89 89 87 88 86 85 84 85 81 85 83 86 83 83 89 89 87 88 84 83 77 75 84 80 
97 99 96 94 93 75 79 78 83 85 81 80 82 82 87 83 78 83 78 80 78 79 80 81 81 86 83 82 82 83 88 87 89 92 87 88 86 89 90 87 93 91 89 90 91 93 96 95 97 96 93 92 90 91 89 92 92 86 90 88 84 82 84 82 81 85 84 85 84 84 85 83 85 87 90 84 80 80 79 84 
96 99 97 92 79 52 65 82 81 83 84 81 77 77 82 80 82 84 78 76 79 80 82 78 80 82 83 84 83 86 86 87 90 94 87 91 88 87 88 88 91 88 90 89 89 92 95 99 95 96 93 90 89 87 86 92 89 88 88 87 83 82 80 82 80 85 82 84 85 87 85 85 86 86 82 82 79 80 79 81 
97 98 97 93 78 26 26 67 85 85 82 74 73 74 78 79 84 82 77 72 76 81 80 78 79 78 83 83 86 88 86 87 91 90 89 88 89 89 90 86 87 92 98 90 93 91 94 97 95 95 93 90 86 90 90 91 86 87 87 85 81 84 78 81 84 91 85 84 83 82 82 86 86 86 84 80 80 79 80 82 
98 96 96 91 74 17 0 25 76 83 81 74 73 72 83 81 83 82 76 68 75 81 78 79 77 82 83 82 84 90 85 86 90 89 89 89 92 92 89 86 89 92 88 94 93 91 94 94 92 94 94 87 89 88 88 95 88 87 90 85 80 80 81 83 86 89 83 86 83 80 84 82 87 84 85 81 80 78 80 78 


