P2
80 60
44
28 32 32 32 30 31 32 32 38 35 37 38 35 33 38 37 35 33 35 30 33 33 30 33 33 37 35 36 39 39 35 37 31 33 32 33 33 25 28 30 31 31 29 31 26 30 29 27 30 26 27 23 24 25 25 25 25 27 33 24 22 22 20 22 21 19 15 15 19 15 16 20 23 19 21 18 14 16 15 20 
31 34 28 29 35 31 33 33 33 38 30 38 39 35 38 36 37 33 34 34 33 35 31 34 31 34 40 38 39 39 35 38 34 35 34 32 31 27 25 26 28 29 30 29 28 29 28 28 30 25 29 26 22 27 26 27 29 26 27 24 23 18 21 21 22 17 15 16 17 18 16 16 21 20 23 18 13 19 20 18 
28 30 28 34 33 34 35 32 35 36 33 37 38 38 38 35 36 31 36 34 37 37 33 32 32 36 39 38 41 39 38 37 36 37 40 35 35 30 33 29 30 31 28 28 27 28 28 25 28 31 26 25 24 28 26 23 26 26 22 26 22 21 20 23 17 14 19 18 20 17 18 17 19 19 16 19 37 23 21 14 
35 27 30 31 37 32 41 32 31 31 35 40 39 37 37 36 34 36 36 31 32 34 30 33 34 40 39 39 44 41 36 36 36 38 34 29 35 32 27 31 33 29 31 28 24 29 28 26 31 27 28 26 27 25 23 21 24 19 21 23 22 26 22 23 22 19 16 22 21 15 14 19 19 13 15 20 16 17 20 13 
39 34 31 38 35 37 35 33 33 32 35 37 39 39 37 42 36 33 34 31 38 37 33 33 35 35 43 38 38 41 39 36 36 36 35 35 30 31 31 26 33 29 33 27 30 27 30 29 27 28 27 24 21 25 23 24 22 21 22 20 20 24 25 26 22 22 18 16 22 15 16 17 17 15 20 19 15 16 20 19 
38 33 32 34 37 37 38 30 38 32 34 33 36 37 33 39 35 33 35 32 39 35 32 35 33 35 34 41 38 36 32 36 33 34 32 32 31 24 30 30 26 31 31 27 30 29 32 30 28 22 27 24 24 24 20 24 22 22 22 24 22 24 24 19 19 21 18 17 23 17 16 17 17 17 18 15 14 19 20 13 
35 35 33 35 34 34 36 37 38 31 33 34 34 34 35 39 41 37 36 36 36 36 34 35 33 35 35 37 40 34 32 35 35 34 32 34 28 27 28 27 31 30 28 25 28 28 27 28 27 24 26 29 25 23 24 27 25 26 27 24 24 22 21 20 19 19 20 16 18 15 15 17 17 18 23 13 20 16 17 12 
34 33 33 36 37 38 33 37 33 29 35 33 36 40 34 36 39 37 38 36 38 37 31 35 34 37 32 38 37 42 35 33 33 33 35 35 30 26 29 28 33 26 27 29 25 25 27 26 27 23 27 26 25 26 24 22 23 21 21 26 24 20 23 18 18 20 18 17 17 14 14 17 19 19 17 18 16 15 17 14 
40 39 36 40 38 37 34 35 36 35 37 36 39 37 36 35 37 37 38 40 37 38 33 34 33 35 39 40 42 44 38 35 34 34 36 31 32 28 30 30 30 26 26 28 26 29 27 27 28 26 25 24 25 26 22 25 21 20 22 26 24 19 19 20 17 18 21 22 19 15 15 15 16 17 19 18 15 15 21 14 
41 38 38 39 40 39 36 37 35 34 36 36 36 37 34 38 38 35 37 33 37 36 32 36 35 35 37 38 40 41 34 32 35 33 32 28 29 26 27 29 28 28 26 28 24 23 25 23 25 27 25 23 23 25 25 22 21 18 22 23 22 19 19 22 22 19 18 16 18 16 14 17 21 15 18 20 19 16 12 12 
39 37 38 34 39 40 41 36 36 35 38 39 39 39 37 36 38 34 35 33 34 32 33 35 37 35 34 35 40 37 35 36 34 35 30 27 25 22 26 29 27 27 25 23 24 23 23 23 26 26 26 24 23 25 22 22 22 18 17 20 19 20 20 23 22 18 15 15 18 14 14 14 16 16 18 17 17 16 17 14 
41 37 35 36 37 38 38 37 30 32 33 39 40 37 34 34 35 34 35 33 35 33 28 34 31 31 34 39 38 35 35 34 34 33 32 29 24 25 27 28 30 27 28 25 25 23 24 23 24 24 21 21 24 22 21 19 21 21 19 21 20 21 21 20 21 18 15 15 18 11 12 16 16 20 19 18 15 12 20 9 
42 38 38 38 36 36 36 38 30 28 33 35 33 32 33 36 36 31 33 29 31 33 31 32 31 30 35 35 38 37 38 34 34 32 33 27 23 25 30 28 27 25 23 26 26 25 27 24 26 27 27 22 19 19 21 24 26 23 21 22 23 23 25 16 20 16 17 13 20 15 3 14 15 13 20 15 10 16 20 15 
37 36 36 34 34 34 39 35 32 27 32 39 33 35 37 34 31 33 31 30 31 32 29 30 31 32 36 37 38 38 35 33 32 35 31 29 20 23 25 25 25 25 23 29 23 26 27 27 25 29 26 22 19 21 22 23 26 26 23 22 22 19 19 18 19 18 20 18 17 12 15 14 17 16 18 16 15 16 20 17 
36 39 37 34 35 36 32 34 30 29 29 37 37 33 33 32 32 31 33 28 29 31 30 33 32 33 36 41 41 30 38 33 31 35 32 27 23 26 24 25 25 26 22 25 25 24 25 24 25 25 26 26 23 21 20 24 30 34 26 20 22 22 21 20 19 21 20 18 18 15 14 15 18 14 17 13 15 15 17 16 
41 42 37 36 32 32 29 34 33 29 28 41 36 36 33 34 34 32 31 27 29 29 28 34 30 31 37 37 40 36 35 31 29 34 29 29 21 24 23 25 29 27 25 24 24 25 26 24 26 23 24 20 22 24 23 25 26 24 22 24 20 20 21 18 18 22 20 20 18 15 14 17 17 16 19 14 16 18 17 16 
40 40 34 35 32 35 34 33 29 29 33 38 38 33 35 35 32 29 32 30 31 30 28 29 30 30 36 36 36 35 33 33 30 30 28 27 24 22 24 28 30 25 22 23 22 30 26 22 23 22 22 21 17 23 24 25 24 26 27 23 17 20 16 18 19 17 17 18 17 17 17 19 20 18 15 14 18 15 17 15 
34 35 33 34 32 36 32 31 28 26 33 31 32 34 33 33 31 31 29 30 30 28 27 30 29 32 34 35 37 33 34 32 31 31 30 26 23 22 22 25 28 24 25 25 19 24 24 24 23 19 22 19 22 24 24 21 24 27 25 22 21 17 18 17 18 13 15 19 16 18 15 16 19 14 16 17 15 16 17 10 
36 34 34 32 32 33 28 32 25 28 27 33 33 32 32 31 30 31 31 27 29 31 29 31 30 29 31 37 39 34 33 30 30 31 34 23 22 21 21 25 27 26 23 25 22 26 22 23 24 21 22 22 27 23 21 22 20 22 19 19 20 18 18 17 19 19 16 18 16 15 12 20 16 15 18 16 10 11 17 14 
38 35 35 35 33 38 28 27 29 27 33 32 34 32 32 31 32 33 35 27 32 32 34 31 29 35 34 33 39 36 37 35 32 32 29 25 25 21 26 25 25 25 23 24 19 22 21 24 21 24 22 23 23 23 21 22 22 19 20 19 19 22 18 17 21 17 17 18 20 17 16 19 17 16 16 16 12 13 15 17 
37 36 34 34 34 30 29 30 26 30 33 37 34 32 32 29 31 29 33 32 31 30 28 33 30 30 32 36 38 40 42 33 28 28 30 23 23 22 22 26 23 27 28 24 20 22 21 22 21 22 21 22 18 22 21 17 23 21 20 23 20 20 20 21 18 16 17 18 17 18 14 20 18 15 18 14 10 16 18 12 
37 32 31 30 29 27 31 30 25 30 32 33 39 31 30 29 29 30 29 28 27 26 31 31 30 29 33 34 38 31 34 33 28 31 24 23 17 23 25 23 25 25 23 18 19 20 22 21 21 23 23 20 18 19 19 18 21 19 24 19 17 19 18 19 18 18 17 15 15 20 17 20 19 15 17 13 14 14 20 14 
35 34 32 30 32 30 29 31 29 28 29 34 34 34 30 34 27 30 30 31 33 29 24 29 27 29 29 36 34 33 30 30 28 28 26 23 23 22 25 26 24 23 18 17 18 17 20 21 23 24 23 21 19 20 17 23 19 18 21 19 21 15 17 18 22 18 19 19 20 15 16 17 22 17 17 13 13 12 15 15 
33 34 32 29 30 31 31 36 27 29 31 37 32 31 28 32 28 28 30 29 31 31 25 28 28 29 30 36 30 33 29 31 30 29 26 22 22 21 20 26 26 25 20 22 21 20 21 19 22 23 24 20 19 17 17 16 19 18 16 19 17 19 19 21 20 17 21 17 20 18 13 14 17 19 17 15 10 17 21 16 
32 34 33 26 31 30 29 29 31 29 34 37 34 32 28 29 29 28 28 30 31 27 25 30 28 31 30 34 35 32 29 27 29 26 26 21 20 22 18 20 27 23 21 20 24 25 22 21 24 22 19 20 18 18 19 17 20 18 19 22 18 22 20 19 21 17 22 17 17 18 15 16 20 17 15 15 13 13 19 15 
31 30 32 27 32 33 29 29 28 29 31 37 32 34 32 31 29 30 28 27 27 28 28 32 28 28 33 32 36 30 30 25 25 29 25 23 23 24 21 25 25 23 23 20 18 23 20 24 23 22 21 19 19 18 17 16 19 18 18 23 21 18 21 20 21 20 19 18 18 13 18 15 19 19 17 18 13 18 17 19 
30 28 28 30 29 30 31 24 26 26 31 32 34 33 31 31 31 31 31 26 28 30 30 30 29 29 31 37 34 29 28 23 25 25 28 20 20 19 18 22 22 21 23 23 18 23 22 20 22 19 20 19 16 19 17 19 16 17 19 19 22 16 18 18 19 14 15 12 18 14 13 17 21 17 20 17 15 15 16 15 
32 31 32 29 32 31 25 27 28 27 28 33 34 32 30 27 30 30 32 27 25 32 30 28 29 33 34 34 34 29 29 28 24 27 25 23 23 19 21 20 23 25 26 24 19 22 22 20 22 20 21 21 20 19 17 16 19 14 13 19 22 16 21 22 20 16 15 17 18 16 16 20 20 17 19 20 21 15 17 16 
30 27 28 31 29 29 25 35 29 32 32 31 31 33 26 32 27 28 31 30 27 30 25 28 27 30 34 35 37 29 31 26 24 26 21 20 20 20 19 23 23 21 24 19 22 25 24 22 24 22 19 22 19 16 17 18 15 13 16 17 20 17 18 18 16 16 17 15 17 17 16 15 13 16 16 16 16 16 21 12 
34 32 36 29 30 27 27 29 30 30 33 32 33 31 28 31 27 30 29 27 29 28 25 29 28 33 31 34 33 29 27 30 23 22 21 21 24 20 18 20 22 21 24 20 18 20 21 20 20 20 21 20 19 17 19 21 18 16 15 16 19 16 17 18 19 19 22 19 16 16 14 15 14 13 15 22 19 14 16 12 
33 31 32 28 30 27 27 26 29 26 31 31 33 31 27 30 28 31 28 29 28 28 26 28 27 29 33 33 34 28 29 26 23 24 26 22 23 19 20 24 24 21 29 25 19 20 23 22 23 19 21 20 16 15 18 17 19 18 19 16 18 19 17 20 18 17 20 18 19 15 14 19 14 16 16 17 15 15 15 12 
38 32 28 26 32 25 27 28 27 29 30 33 31 30 30 32 30 30 30 27 27 30 27 29 30 30 34 32 34 29 28 27 27 25 24 19 20 17 17 26 29 24 24 21 22 21 22 22 22 24 21 19 17 19 19 16 18 18 16 18 16 19 16 19 20 18 18 16 17 17 16 15 17 14 18 15 13 15 20 10 
35 29 27 30 30 28 25 28 29 24 30 33 27 32 26 27 26 25 30 23 25 24 25 28 28 28 33 34 33 31 31 25 24 24 20 19 20 18 18 23 28 25 22 21 21 21 19 21 20 22 21 21 18 20 17 18 18 17 19 17 16 16 20 19 20 15 15 16 21 14 14 15 15 17 17 15 16 18 17 12 
28 27 25 29 28 27 26 28 29 26 30 30 28 28 29 27 27 26 26 22 27 23 26 29 28 29 30 32 32 32 29 26 22 22 22 17 17 17 18 18 26 22 24 22 20 22 21 20 21 20 19 18 17 20 17 16 16 21 18 16 15 17 17 21 24 16 18 18 19 14 13 15 17 18 17 15 17 15 22 18 
29 25 30 30 26 24 25 25 25 25 28 30 28 30 25 27 31 28 28 26 26 24 25 26 28 24 29 31 32 31 27 22 21 26 21 18 19 16 19 18 26 23 23 20 18 23 22 20 21 19 18 17 17 19 19 16 17 22 18 18 20 17 18 23 21 16 18 16 17 15 13 17 19 15 18 18 17 19 19 14 
32 26 24 26 23 24 24 24 27 26 31 29 29 28 28 22 25 29 29 25 19 22 26 24 25 25 29 29 31 28 25 22 23 24 20 17 19 18 15 20 24 22 18 17 20 19 22 25 22 20 19 19 20 19 17 16 20 18 22 21 18 16 16 20 16 15 15 13 18 16 14 15 17 18 19 20 17 14 15 15 
28 27 25 24 25 22 23 25 27 25 32 32 29 27 23 26 26 29 29 24 24 27 22 27 24 25 29 31 32 29 28 27 23 25 21 17 17 18 17 18 21 24 22 20 17 20 24 21 23 19 18 21 20 18 17 15 20 20 16 21 19 17 18 15 22 17 18 17 18 15 14 14 19 16 16 13 13 16 18 15 
31 30 27 24 26 25 23 23 28 27 26 30 33 28 26 25 28 31 28 25 27 28 27 25 23 25 29 28 33 25 29 23 24 22 22 18 19 16 17 20 21 25 21 22 20 22 24 18 23 21 22 18 17 18 19 19 16 15 20 20 17 15 20 17 20 21 18 18 20 15 12 16 15 16 15 12 16 14 23 14 
30 29 28 23 26 24 22 28 25 26 31 30 29 28 26 27 25 28 26 22 23 24 22 27 24 22 25 30 31 25 24 23 24 24 20 15 19 17 20 19 24 22 21 20 22 21 22 19 18 23 21 19 19 19 18 17 17 15 19 19 16 16 17 15 16 16 18 16 20 13 11 14 13 13 14 12 17 14 23 14 
23 24 24 24 23 24 22 25 25 23 25 32 26 25 23 26 24 25 26 21 24 28 21 26 24 21 24 30 30 27 24 21 21 21 20 17 16 17 20 21 23 25 24 20 20 20 23 23 23 21 21 22 24 20 22 18 16 16 16 17 16 10 15 14 13 15 14 14 14 13 10 14 14 16 15 16 12 16 20 18 
28 25 23 20 21 22 23 23 23 25 25 32 27 28 24 25 24 25 22 23 19 20 22 26 23 25 29 30 28 25 22 24 24 24 20 16 17 16 17 20 20 20 20 18 20 20 21 21 22 23 24 24 21 21 18 15 14 16 16 16 16 18 13 11 17 15 14 9 13 11 9 15 11 18 19 14 17 15 30 25 
26 22 23 20 20 21 23 23 23 20 22 31 30 25 24 27 25 24 23 23 27 21 23 27 26 24 31 29 30 22 22 22 22 22 17 17 22 17 16 23 22 19 19 20 19 21 23 25 25 22 20 22 18 20 20 18 18 20 14 14 17 16 16 15 15 14 11 11 16 11 13 13 15 16 17 14 17 22 23 15 
31 27 24 23 20 19 18 24 23 22 26 29 25 25 23 27 22 23 24 20 22 21 24 29 24 23 28 30 30 22 21 21 20 20 17 19 18 17 17 22 23 22 20 22 22 24 24 23 22 21 23 18 17 19 15 15 19 19 19 17 16 19 15 17 16 15 16 14 15 14 12 15 19 11 18 13 17 16 20 18 
29 20 21 16 19 19 18 21 23 21 22 32 23 24 23 23 21 23 25 22 25 21 19 23 21 26 27 29 31 26 23 20 20 22 17 14 18 12 15 20 18 21 17 22 20 23 24 29 23 22 21 19 17 17 14 15 19 17 17 17 18 17 14 14 17 14 13 10 15 12 13 15 15 13 16 15 16 11 17 18 
25 22 20 14 18 13 17 23 21 19 23 27 26 28 20 25 23 20 25 21 25 21 26 23 22 25 25 26 27 24 21 20 19 20 17 16 15 15 15 17 24 19 19 19 23 23 22 22 22 21 19 18 17 15 16 16 16 16 15 17 17 13 17 17 14 15 14 12 13 11 10 15 15 17 14 14 15 12 20 14 
28 19 18 13 16 17 15 18 23 18 21 30 24 26 21 19 27 22 22 24 25 23 23 24 23 27 25 23 25 24 23 19 17 19 18 15 15 15 12 14 20 21 19 21 20 20 22 21 20 19 18 18 18 16 18 13 16 14 14 16 17 15 14 15 16 15 18 13 16 12 12 11 12 12 15 16 15 11 18 16 
22 15 15 7 12 18 15 19 19 17 20 28 25 23 21 24 26 25 20 20 21 21 18 22 23 25 26 25 26 22 19 17 21 19 12 12 13 11 14 19 22 19 17 19 21 28 19 20 19 20 18 15 19 17 16 19 16 18 13 13 15 15 15 17 11 16 14 18 11 14 9 12 14 12 14 11 16 14 13 12 
18 17 16 13 13 15 16 21 19 15 22 28 23 22 22 24 24 23 24 21 20 22 23 23 22 23 24 23 25 26 20 17 17 20 14 11 12 10 12 18 23 21 15 17 20 17 22 20 19 16 18 16 15 15 15 15 19 19 15 14 18 15 15 15 14 13 13 12 16 12 14 16 14 11 11 14 12 9 16 10 
20 20 14 13 16 16 14 20 18 18 18 25 22 22 23 25 21 22 22 21 21 19 25 22 23 20 20 24 26 21 15 18 15 18 14 10 10 12 11 16 22 14 14 17 18 16 21 17 17 18 18 15 13 16 13 12 18 20 15 16 17 16 15 14 14 15 12 13 17 13 10 12 13 13 11 10 10 13 16 11 
22 19 15 11 13 15 11 20 20 19 20 24 23 21 21 24 21 26 23 20 23 23 23 24 22 22 22 24 25 22 17 17 14 16 14 8 11 7 14 14 18 19 18 16 20 17 15 16 14 18 16 11 14 18 17 11 17 21 15 17 16 17 14 16 19 18 16 16 17 11 10 13 13 14 10 11 10 11 13 10 
20 19 13 12 11 13 15 17 16 19 19 23 22 19 19 22 23 20 22 21 22 21 18 21 21 21 21 24 24 21 17 18 15 20 13 8 10 7 13 17 19 16 16 17 17 17 17 18 15 17 13 12 13 17 15 13 15 17 15 16 15 15 14 10 20 14 15 14 16 13 9 14 15 13 12 10 11 11 12 14 
21 17 12 12 14 12 13 15 16 15 15 21 17 17 18 22 19 21 22 18 21 20 16 18 18 20 24 22 23 16 21 15 18 10 17 10 13 10 10 13 20 12 14 15 15 16 16 18 15 15 16 13 14 19 14 16 16 18 15 16 17 13 13 15 12 12 14 16 16 12 11 14 12 11 11 15 10 11 12 6 
17 18 12 17 11 10 11 21 20 18 18 21 17 19 17 20 20 19 19 18 17 20 17 16 20 21 23 23 23 19 15 14 13 15 12 5 7 4 9 11 21 16 15 13 14 18 16 17 18 14 13 14 13 12 16 15 22 21 20 15 15 10 10 15 10 13 12 13 13 10 9 14 13 14 12 13 12 9 12 12 
17 17 13 17 15 15 11 15 20 15 19 22 20 17 17 21 15 14 18 17 15 17 18 18 20 23 29 22 24 20 17 13 14 13 13 5 7 5 8 12 19 13 10 14 16 18 19 15 15 15 16 16 13 13 14 14 22 18 19 16 13 14 9 14 13 12 10 11 11 14 7 13 8 12 9 14 12 14 10 13 
16 13 11 12 13 11 13 18 19 18 23 20 20 18 16 19 14 16 19 11 16 16 12 19 19 20 25 25 20 15 15 16 14 15 10 6 5 3 5 13 19 12 11 14 14 15 16 17 13 15 15 10 13 15 14 14 19 18 18 14 14 10 10 14 13 9 8 5 13 11 10 2 6 8 11 16 13 7 12 16 
14 9 10 9 9 11 11 11 13 13 14 20 20 19 21 18 15 19 19 16 14 19 12 17 16 20 20 21 20 15 14 14 15 13 9 4 2 2 6 13 18 14 12 13 15 16 15 13 16 17 13 15 14 12 13 14 13 17 12 16 12 13 9 15 20 7 7 5 9 9 11 10 7 9 6 9 5 8 16 12 
14 10 8 8 6 8 11 14 13 12 15 20 27 21 19 17 14 15 18 16 19 19 16 17 14 18 20 19 22 14 11 16 10 15 7 4 3 2 7 12 19 10 9 13 13 14 17 14 17 15 13 13 14 9 11 11 18 18 13 15 14 10 10 13 13 7 8 10 11 9 7 7 5 4 7 8 8 10 17 11 
11 14 10 3 5 5 8 17 17 12 17 18 19 20 14 17 17 16 18 15 19 17 19 14 12 17 15 21 19 14 12 13 12 13 6 3 3 0 3 14 19 9 13 17 11 18 17 15 16 14 13 10 13 14 11 17 19 14 15 13 15 13 8 13 12 12 7 7 11 8 4 7 5 10 8 6 9 13 14 13 
9 9 7 2 3 5 6 12 14 19 14 21 19 14 16 17 14 14 18 12 18 19 15 15 13 12 15 20 19 15 15 12 9 12 6 5 5 3 6 13 16 14 21 14 15 19 16 16 15 14 15 16 13 16 16 13 18 17 14 15 11 12 12 13 14 10 9 9 11 7 7 11 10 7 9 10 12 13 15 15 
8 8 8 3 7 5 6 10 14 9 14 17 17 16 14 13 11 16 16 14 15 17 15 18 13 14 15 18 19 9 14 11 10 10 6 5 7 8 8 10 13 11 9 16 15 15 16 16 14 13 13 16 11 14 16 15 18 14 15 16 11 11 10 14 15 11 6 9 11 7 6 8 9 5 8 9 12 15 12 8 


