P2
80 60
90
3 3 7 6 4 2 7 5 7 7 4 7 5 3 2 4 5 5 8 9 7 5 3 7 3 8 6 5 7 11 9 9 9 6 10 9 6 13 10 13 7 12 10 8 12 8 11 5 9 13 12 14 13 14 17 14 15 18 14 12 11 6 13 9 11 10 6 2 4 8 10 6 6 7 5 4 0 4 5 6 
5 4 7 4 0 7 5 4 5 4 5 3 4 4 9 2 8 7 7 7 9 5 6 5 5 3 9 7 9 7 6 12 5 10 9 7 9 8 14 12 10 10 10 11 12 11 11 12 14 14 13 13 10 13 17 19 18 18 14 14 9 5 12 10 8 7 5 7 6 7 6 7 6 10 5 2 4 1 8 2 
6 6 5 8 2 7 8 10 3 7 5 6 5 5 6 4 6 7 9 11 14 8 6 9 9 10 10 9 5 11 10 10 9 11 10 11 9 11 17 11 9 11 11 13 11 12 12 14 13 13 11 15 15 14 12 13 16 15 15 17 10 8 11 9 13 7 5 8 6 6 11 7 9 5 6 7 6 3 8 7 
8 5 6 4 8 6 8 7 7 10 10 4 5 5 5 3 8 9 9 12 9 8 15 11 14 7 12 10 8 8 13 9 10 11 13 11 12 14 14 12 10 10 12 11 11 13 19 11 18 13 14 15 15 16 19 16 15 14 14 14 14 9 11 10 11 12 8 8 9 9 13 13 8 9 10 8 7 10 4 9 
13 8 5 4 6 12 7 7 7 12 7 7 9 7 11 8 9 7 6 11 13 15 15 13 13 12 17 8 9 9 8 9 11 9 11 10 12 13 18 12 11 12 11 10 11 14 14 14 15 15 16 16 14 18 18 16 16 14 16 15 15 9 12 14 15 11 12 9 10 11 13 8 9 14 8 6 7 5 6 8 
11 7 4 4 9 12 8 10 14 13 7 8 8 7 11 6 9 13 14 16 10 13 11 11 12 12 15 7 8 15 10 8 8 8 9 10 11 14 14 13 12 13 13 12 13 12 16 14 13 17 17 20 19 13 14 17 17 13 18 16 16 10 12 17 10 16 11 15 16 13 14 12 13 7 9 5 3 6 3 11 
11 6 7 6 8 9 5 9 16 10 7 10 9 8 10 6 13 9 14 14 11 11 12 10 13 15 12 9 11 11 11 5 9 9 10 12 14 17 19 11 11 11 9 11 12 13 13 14 16 12 17 21 16 13 13 18 16 21 27 14 13 9 12 15 16 15 10 13 14 11 12 9 9 8 8 11 7 3 7 8 
16 8 7 8 6 14 7 9 8 13 9 6 10 10 8 8 11 10 11 10 12 9 10 12 11 12 11 9 8 9 8 9 8 9 11 13 16 11 13 11 13 11 11 15 15 13 15 15 14 16 18 18 20 13 19 23 18 19 17 14 13 11 13 15 11 18 11 12 12 9 8 11 8 8 4 6 6 1 8 9 
10 8 11 9 5 11 7 11 14 12 12 4 12 9 9 6 12 10 13 11 11 7 10 12 11 14 10 8 12 9 12 11 11 14 11 15 12 13 15 10 10 11 11 13 15 13 15 13 14 17 18 21 17 18 17 18 17 16 14 16 12 11 15 14 16 19 17 15 11 13 12 10 8 9 8 2 6 4 11 9 
15 9 10 12 7 10 11 12 17 11 7 8 9 9 10 10 13 9 10 12 11 10 9 11 14 11 15 10 8 12 6 10 9 9 12 9 12 16 13 10 9 13 9 16 14 14 15 11 16 14 17 15 16 13 18 17 18 17 12 12 12 11 13 16 9 15 18 13 14 11 10 8 11 8 7 9 4 2 8 7 
12 8 10 11 11 11 16 12 16 13 8 10 10 8 12 10 12 9 9 10 11 9 10 9 12 12 17 8 12 8 10 10 11 9 10 11 16 16 17 11 13 12 14 16 12 14 13 15 15 15 22 18 17 12 16 18 19 15 20 12 14 11 14 16 10 15 19 15 12 11 13 8 8 12 12 13 13 10 11 11 
14 13 11 12 7 13 10 15 11 11 8 7 11 8 11 3 9 7 11 13 10 11 12 13 9 11 14 10 10 9 9 10 10 12 13 9 14 16 15 13 13 11 13 15 13 8 13 18 17 16 16 15 13 13 18 17 16 15 15 12 13 12 11 12 13 10 10 16 11 9 12 8 9 15 12 14 10 11 7 10 
13 11 14 15 9 6 12 9 9 7 7 9 5 7 6 4 8 7 8 10 8 15 12 12 8 13 10 12 6 8 9 13 12 12 8 7 9 9 16 8 9 10 10 11 14 14 15 15 21 16 16 17 14 14 16 15 19 18 15 12 18 10 17 14 9 10 11 11 8 10 4 6 9 7 10 8 5 7 4 5 
14 13 19 13 10 10 6 10 8 9 5 8 10 8 9 5 9 6 6 7 12 7 6 8 9 10 13 7 7 7 10 14 12 15 12 7 9 9 13 11 10 9 10 13 14 16 15 13 20 20 16 17 13 16 16 18 19 17 19 12 17 12 13 15 14 12 10 10 9 12 13 4 8 9 7 6 7 6 7 5 
12 12 11 14 9 8 8 14 15 9 9 11 5 12 6 5 9 7 6 8 7 6 7 13 9 11 7 10 8 7 11 12 11 15 11 6 9 13 13 12 10 11 11 11 12 20 15 17 16 18 16 17 17 14 16 18 21 32 21 14 16 11 14 14 10 10 12 14 12 10 7 8 13 11 9 5 4 7 8 7 
13 9 16 12 11 7 12 10 15 10 6 4 8 7 5 6 7 4 7 8 4 6 6 8 11 12 12 8 9 7 10 13 8 11 11 8 10 10 12 11 11 13 10 11 13 12 17 12 14 14 17 17 17 15 17 17 18 22 19 13 17 11 14 12 13 15 13 20 9 11 12 8 11 9 9 4 8 10 9 10 
17 12 15 10 12 11 13 9 12 9 7 9 11 7 7 9 8 8 10 6 9 8 9 9 9 12 13 9 10 9 6 11 9 13 15 10 11 12 15 14 13 14 13 13 11 18 17 12 15 15 18 19 16 17 20 20 19 20 21 15 18 12 11 17 12 21 17 11 12 12 16 13 17 11 9 11 4 6 10 9 
15 10 14 9 9 15 11 10 7 12 10 7 10 6 7 8 8 6 7 8 7 10 9 12 11 20 11 10 7 10 9 9 11 14 10 7 13 12 13 13 17 13 10 13 12 14 12 14 14 16 16 16 18 13 20 18 19 25 21 17 17 12 11 10 11 14 13 16 11 14 16 14 11 12 10 8 8 7 6 13 
12 14 14 13 10 13 12 10 13 11 9 13 14 14 8 8 7 9 10 11 8 11 7 10 15 10 16 10 13 10 12 12 11 15 14 11 15 12 14 18 14 12 9 16 16 15 15 13 14 15 16 18 19 18 18 18 20 21 20 13 16 12 11 13 11 15 13 15 13 20 13 11 10 12 8 10 9 8 13 11 
13 12 14 15 12 15 10 12 11 12 9 8 10 9 8 9 10 8 12 10 9 11 14 13 11 13 16 12 11 11 11 12 11 9 13 10 11 14 14 13 14 10 11 11 10 11 15 13 13 13 14 18 15 13 17 18 14 16 16 15 15 10 12 13 14 15 13 12 16 12 14 10 11 8 6 5 7 6 11 9 
13 13 12 15 16 15 13 11 11 7 8 8 8 12 6 7 9 10 11 8 8 13 10 12 12 12 14 9 11 11 13 12 10 12 11 12 12 13 14 13 11 15 10 12 13 11 11 11 13 17 13 15 17 14 18 15 17 16 16 19 14 13 13 15 12 16 13 13 12 11 10 8 7 10 7 7 4 3 6 11 
17 9 11 11 10 14 12 13 10 11 4 9 15 9 8 6 11 7 8 8 10 8 10 10 13 14 8 8 8 12 9 11 11 11 10 6 9 12 12 8 9 10 12 9 9 10 9 10 15 13 19 15 16 16 18 17 17 15 19 14 15 13 12 15 13 12 14 15 13 17 14 12 13 12 6 6 4 6 11 7 
16 10 12 17 12 13 14 14 14 11 6 10 10 7 8 8 11 9 10 11 9 10 12 13 13 13 10 8 8 9 8 9 12 11 7 12 10 15 17 14 12 12 7 11 10 9 11 15 15 17 19 16 16 13 19 14 15 15 18 20 19 18 14 14 13 18 12 15 13 15 16 17 13 11 7 9 4 11 14 12 
18 12 11 11 12 10 9 14 10 10 6 10 10 13 8 8 11 12 11 9 10 10 11 11 11 13 9 11 10 9 10 12 12 13 12 9 11 15 16 11 11 13 9 11 9 8 11 13 18 20 20 15 17 14 14 17 18 14 18 18 18 12 17 15 12 15 17 14 14 17 17 14 13 13 10 11 8 10 15 13 
20 14 12 12 12 8 11 11 13 10 9 9 13 12 12 5 9 11 11 10 12 15 12 11 12 13 15 11 9 7 7 12 14 12 12 10 11 11 14 13 14 7 10 12 13 11 13 17 18 18 14 16 14 15 16 14 17 15 20 15 12 13 17 12 15 15 18 15 15 12 16 11 13 17 12 8 9 10 15 17 
20 12 12 13 10 13 10 12 11 10 7 8 11 15 14 9 11 9 13 14 16 15 7 12 13 13 13 12 7 10 7 11 9 9 11 13 12 8 15 12 9 10 10 10 12 14 13 16 14 16 16 17 18 15 16 15 18 18 16 19 16 12 13 18 17 18 17 11 15 14 12 13 13 13 14 10 10 13 13 10 
19 9 16 13 15 17 14 12 14 9 8 8 11 14 13 11 9 12 16 15 9 13 19 16 14 11 14 9 11 12 11 12 11 12 11 7 10 10 14 14 9 8 7 9 16 15 14 16 16 14 16 18 15 13 14 19 17 16 15 16 19 13 14 15 18 19 17 14 11 10 14 12 13 15 13 14 10 8 20 10 
18 13 13 14 14 14 12 16 12 8 8 13 12 15 11 8 9 13 13 17 9 14 11 14 12 12 14 12 9 9 14 13 12 6 9 9 8 10 9 15 12 9 12 13 15 17 14 11 15 13 18 14 14 12 17 17 16 12 16 16 19 12 15 18 11 16 16 16 13 22 13 11 11 12 13 11 9 12 10 14 
21 14 16 13 10 14 10 13 13 9 8 10 15 12 11 5 10 12 16 13 11 11 7 11 17 16 13 17 11 8 8 12 12 9 9 8 11 11 15 15 13 10 10 11 12 13 16 12 14 15 14 17 18 13 14 16 14 12 14 13 20 13 15 15 13 18 20 18 15 15 18 14 9 10 14 10 11 9 9 16 
18 15 15 13 12 16 10 11 16 9 8 6 10 11 10 10 14 14 11 12 12 11 9 11 13 16 15 13 9 7 9 11 9 9 11 7 9 13 12 10 13 12 11 12 11 12 15 14 16 15 16 18 12 13 14 12 17 16 16 13 20 12 12 16 16 17 17 14 13 14 13 12 10 13 12 13 9 9 11 13 
18 13 14 18 17 17 18 12 14 11 5 9 8 6 9 12 12 12 9 12 12 11 10 15 12 14 15 13 10 10 9 11 12 11 11 9 9 12 14 10 10 11 13 12 12 14 12 15 12 17 12 15 15 14 14 17 18 14 17 13 14 11 14 16 15 13 14 18 14 18 18 13 12 12 11 8 10 7 13 14 
18 16 14 15 21 12 11 14 11 10 12 9 12 11 10 10 13 10 11 11 12 13 11 17 17 17 19 15 10 11 12 15 14 12 9 10 12 11 12 14 17 14 14 12 12 15 12 14 17 18 13 17 18 15 16 19 18 16 18 11 16 11 16 19 15 17 20 18 18 17 17 11 12 13 10 8 9 10 11 18 
20 14 15 14 11 11 11 9 13 8 10 11 8 11 10 11 15 10 11 17 11 12 9 14 17 15 15 12 11 13 14 13 12 11 14 11 11 15 13 11 13 12 15 12 15 16 14 17 15 15 15 18 16 12 15 17 15 15 13 11 17 13 17 18 16 16 21 17 18 16 16 12 11 11 10 8 10 10 11 10 
14 17 18 14 12 11 12 13 14 10 10 12 9 7 9 9 11 13 11 16 13 11 11 16 16 13 13 11 10 13 11 15 9 10 13 9 12 12 13 12 10 12 13 13 17 15 14 14 19 13 14 14 12 13 12 16 17 14 16 12 15 14 13 16 16 19 14 14 14 14 18 14 11 11 11 9 7 9 10 10 
14 13 17 13 14 13 11 12 15 13 10 12 8 11 9 10 13 10 12 16 12 13 16 15 14 13 12 10 8 12 9 16 10 9 13 12 15 13 12 16 12 13 12 13 14 15 16 16 17 15 14 15 17 14 17 15 16 19 15 16 18 14 14 16 12 18 16 17 14 15 16 14 15 15 10 10 7 7 10 7 
19 18 19 15 16 13 11 12 19 13 10 13 11 15 13 11 15 14 13 13 16 14 7 15 15 13 17 11 12 10 14 15 10 10 12 11 15 15 15 15 14 14 12 11 17 13 16 19 15 15 13 18 15 13 16 19 18 17 15 16 12 14 14 14 15 15 16 16 15 14 16 16 16 16 11 12 10 13 11 9 
23 21 20 19 16 18 13 14 15 17 11 16 12 10 11 9 15 15 16 15 13 14 10 12 14 13 13 9 12 13 11 12 14 11 13 9 15 12 14 14 15 14 14 14 13 14 14 14 15 17 15 18 18 18 16 19 20 17 17 14 13 11 15 15 15 17 14 11 16 19 16 13 14 11 11 12 10 8 14 12 
24 17 19 17 14 17 14 14 13 14 16 15 16 10 13 10 15 17 12 15 13 12 10 13 15 12 14 10 9 12 14 13 13 14 14 15 14 13 14 15 13 13 14 13 15 14 15 14 17 18 15 22 21 15 16 18 22 14 15 15 15 10 16 14 16 20 20 15 17 16 16 13 11 12 11 12 12 9 18 13 
20 16 24 19 17 18 17 17 15 14 15 15 16 12 14 14 14 15 14 15 15 15 13 16 15 15 15 11 10 11 14 16 12 14 14 10 9 12 17 15 12 16 14 15 14 14 15 16 17 19 19 17 20 16 18 17 18 18 18 15 15 12 16 16 16 15 15 16 19 15 15 10 10 15 13 12 9 17 20 17 
23 17 18 16 16 14 14 15 17 16 23 17 14 11 11 14 16 12 15 12 13 17 15 18 18 19 21 14 12 14 14 15 12 14 13 9 15 17 15 14 12 11 13 15 13 15 16 14 16 19 21 19 18 18 21 19 16 17 19 14 13 10 15 20 19 19 16 15 14 18 14 11 9 14 11 11 15 14 17 20 
24 18 15 15 16 15 14 16 16 15 14 13 15 17 14 13 14 14 17 14 15 15 15 17 18 20 25 15 15 13 13 14 12 14 13 9 12 11 13 13 11 14 12 14 12 18 17 16 16 18 23 24 22 23 22 18 20 18 17 14 13 12 15 15 17 18 14 17 15 15 16 12 11 14 14 11 16 15 29 23 
20 18 21 18 13 15 14 20 21 16 13 14 14 17 15 14 18 15 16 15 14 15 14 17 18 17 19 17 14 17 11 15 11 11 12 16 13 12 13 13 12 17 14 15 16 17 20 15 18 19 21 20 19 16 19 23 21 16 17 13 16 12 16 17 16 18 15 14 13 15 16 10 14 15 12 12 12 18 16 16 
21 17 24 18 14 16 13 16 20 18 15 14 15 14 14 16 16 15 16 18 15 16 13 18 18 15 17 17 12 14 16 16 15 14 15 15 16 13 16 13 14 14 13 14 16 16 20 19 20 19 17 23 20 14 22 19 21 14 15 17 17 15 17 18 20 16 14 11 14 16 14 10 14 14 12 14 12 13 19 17 
26 19 18 17 17 20 12 16 18 20 16 16 15 17 17 13 20 16 19 18 16 18 19 19 18 16 20 16 16 14 14 15 14 14 14 13 14 15 17 16 14 13 16 14 17 20 20 26 22 20 21 23 20 19 19 20 18 15 17 15 17 13 16 17 18 17 14 14 16 15 16 13 16 14 17 12 13 11 17 17 
21 18 15 22 17 16 15 14 17 22 16 17 18 18 19 16 17 17 19 17 19 17 19 18 16 17 17 15 13 18 15 18 14 15 13 16 14 15 17 13 17 13 14 16 16 18 22 24 24 21 22 22 20 15 19 16 18 17 17 14 16 15 18 17 15 19 17 15 15 16 15 14 15 12 12 14 10 10 14 16 
21 20 19 18 18 16 15 19 14 20 14 16 19 22 21 14 20 20 22 21 17 17 15 17 18 20 18 17 17 19 17 18 15 15 20 17 18 16 15 17 17 12 13 16 16 19 19 22 23 22 23 20 19 15 19 18 18 16 18 17 18 18 18 17 15 19 19 18 18 14 16 13 13 17 14 12 13 12 14 15 
28 23 17 19 15 21 17 15 15 18 11 18 21 23 21 18 20 18 22 19 18 20 17 20 20 21 23 18 17 15 14 13 17 15 16 15 18 19 15 15 17 16 15 14 14 18 19 17 21 21 18 21 20 16 18 18 17 19 18 16 17 15 18 16 15 19 16 17 17 14 17 13 15 15 14 12 10 13 14 11 
25 23 15 20 15 22 21 24 21 18 16 21 22 22 23 20 22 22 20 19 19 18 21 20 24 21 20 18 19 19 18 19 18 18 16 16 19 18 23 17 15 18 16 16 17 17 23 19 22 17 21 17 19 17 19 20 21 21 17 15 17 15 19 19 13 20 19 17 15 16 19 16 14 18 16 13 16 10 17 15 
25 21 20 19 16 21 24 26 22 16 15 18 20 20 20 21 20 22 20 20 19 19 24 25 24 20 22 18 20 19 19 16 16 17 16 14 19 22 15 18 14 17 15 16 20 21 21 18 19 20 18 21 17 19 20 18 21 19 17 18 19 15 15 17 17 19 19 13 14 15 18 17 16 18 17 14 8 14 14 13 
24 20 22 18 20 21 21 27 22 17 18 20 21 21 24 24 20 22 23 24 21 22 23 26 25 19 22 20 18 21 20 20 18 18 17 16 17 19 20 16 18 14 16 20 17 19 17 19 20 17 22 17 21 17 20 21 21 21 16 21 17 17 17 17 17 20 15 18 14 16 17 16 15 19 19 15 15 12 15 16 
26 19 20 25 22 22 20 16 22 19 13 18 20 23 23 18 23 21 24 25 25 22 20 25 26 21 25 23 18 20 18 16 17 18 19 17 18 14 18 17 17 16 17 19 19 19 19 19 20 17 20 18 19 19 21 20 22 21 18 16 23 15 17 21 14 18 22 19 16 15 18 17 22 21 15 14 10 14 7 17 
37 29 31 28 26 23 22 24 20 23 20 22 22 26 24 21 23 23 24 27 27 22 20 26 25 24 28 22 17 23 20 21 17 20 25 17 18 18 15 16 15 16 17 21 18 15 20 20 19 21 18 21 19 16 19 20 24 24 22 20 18 17 19 24 17 19 20 17 15 15 16 19 16 17 16 14 9 15 14 9 
66 52 45 46 35 38 27 24 23 23 21 23 24 22 22 22 23 23 24 26 24 22 22 23 26 25 29 22 19 23 21 22 17 20 20 17 18 19 19 16 18 18 16 18 16 17 24 18 21 21 21 20 20 21 23 23 23 22 20 19 20 16 20 22 14 21 18 15 14 13 14 18 16 16 11 14 10 11 13 12 
81 70 64 68 67 62 50 48 42 28 24 26 25 28 25 26 30 27 24 27 29 28 23 27 25 26 25 23 23 24 24 24 22 22 22 20 17 22 22 18 19 17 17 18 18 20 22 19 20 22 19 22 21 23 24 25 27 21 21 20 20 14 17 21 17 18 20 15 16 16 17 17 20 17 17 14 18 10 18 17 
79 74 75 76 77 76 72 72 65 62 53 50 46 33 32 28 29 25 23 23 26 28 26 25 28 25 32 23 25 23 23 24 22 23 22 16 20 17 21 19 18 17 15 19 20 20 20 18 19 20 23 27 22 23 23 22 20 22 22 20 20 19 20 17 19 20 19 16 20 19 17 17 14 15 14 12 11 15 18 18 
82 79 78 78 79 79 80 76 80 73 72 69 67 67 57 49 46 30 33 31 28 24 27 28 31 26 29 27 24 23 20 19 19 23 23 21 18 19 17 20 19 20 18 20 19 15 19 19 19 19 22 25 20 21 27 20 19 24 22 19 20 17 18 21 20 21 22 20 18 20 19 16 18 16 16 12 10 10 16 11 
82 79 82 80 81 82 77 81 79 79 77 78 83 75 75 70 66 55 54 57 49 42 38 31 30 25 28 27 25 22 23 24 20 23 18 20 18 16 18 19 17 19 16 16 18 20 20 22 21 20 27 23 21 19 23 20 24 24 23 18 19 15 22 23 21 18 22 14 15 18 18 17 19 16 17 13 12 14 11 10 
85 81 82 77 77 84 81 85 84 84 79 84 85 82 80 77 82 73 75 73 68 61 58 54 45 38 35 32 30 28 20 24 23 20 21 20 16 17 21 20 16 18 18 19 23 19 25 24 21 24 24 24 22 19 21 22 24 26 22 20 20 16 17 19 17 25 16 18 15 21 19 14 15 19 16 18 16 17 17 12 
85 79 82 81 84 84 82 81 83 80 81 81 81 81 82 75 81 78 80 81 76 73 72 70 68 56 58 54 51 40 33 35 31 26 25 22 24 18 21 19 20 19 25 21 21 23 25 22 24 21 20 25 20 19 26 21 21 20 21 14 19 17 17 19 20 23 20 15 19 23 17 14 17 17 12 15 15 10 17 14 
90 82 85 85 85 84 87 82 84 82 81 84 81 82 75 78 79 80 79 79 80 79 76 77 76 73 68 66 62 56 53 49 47 45 35 26 24 20 17 19 18 18 19 21 19 23 23 19 21 20 21 18 21 19 19 20 17 21 22 16 16 11 14 13 14 21 16 17 13 15 13 12 13 7 10 14 14 13 13 18 


