P2
80 60
68
14 16 17 15 11 14 15 16 9 14 19 14 15 14 15 14 14 16 14 13 13 16 12 10 12 15 12 11 14 11 14 13 20 17 18 16 11 10 10 13 11 12 16 16 14 13 12 12 16 15 16 17 20 17 19 20 18 23 16 14 10 14 15 10 9 8 8 7 12 9 6 7 11 8 12 12 9 5 6 11 
15 14 17 14 12 16 16 14 14 16 13 14 13 16 16 13 13 14 12 17 12 12 13 11 13 11 13 11 13 14 14 13 13 12 17 16 11 12 12 11 12 12 13 16 13 19 13 15 13 15 16 18 13 14 19 22 19 17 21 13 13 14 14 9 9 4 6 9 9 7 9 11 5 11 12 15 7 8 4 5 
13 12 16 13 14 8 14 16 13 16 18 13 14 15 15 15 15 16 14 17 14 13 13 11 12 13 12 12 12 14 13 15 18 12 16 13 15 13 14 14 10 15 12 11 12 14 13 16 15 15 14 14 13 16 18 15 14 13 13 15 12 11 12 9 12 5 7 9 8 6 10 9 9 11 13 16 24 4 5 7 
14 16 17 13 13 15 13 14 11 10 14 15 12 12 12 14 13 17 19 16 13 12 12 11 13 15 13 13 17 13 12 12 14 14 11 13 15 13 13 13 11 16 12 12 14 15 14 13 17 16 12 14 14 14 16 15 11 15 14 12 16 14 16 11 8 7 8 8 10 4 10 10 6 6 12 13 5 9 10 6 
17 13 15 14 15 16 14 12 16 18 15 15 17 12 13 13 12 13 16 15 12 11 12 16 13 15 14 13 13 12 9 14 11 11 10 15 13 11 14 12 15 14 17 14 13 14 16 15 13 17 15 16 14 12 15 14 13 14 14 11 16 14 14 14 13 8 10 9 14 11 9 10 9 4 12 14 7 5 7 3 
20 19 14 12 14 17 14 12 18 12 18 14 17 14 13 11 18 15 20 17 11 15 15 16 14 15 15 10 17 10 12 10 15 12 13 18 13 12 13 16 10 15 16 13 12 15 15 18 16 13 17 17 19 12 16 18 14 19 13 14 16 17 17 13 10 12 11 9 18 14 8 7 4 7 8 15 9 8 2 12 
17 14 15 15 14 17 17 13 12 18 16 16 16 14 14 15 19 13 16 18 16 16 14 12 16 15 13 16 15 11 10 9 19 14 13 17 12 14 15 14 16 16 17 14 13 16 16 18 15 16 18 25 19 15 16 15 17 23 24 18 15 17 12 13 12 12 10 9 14 9 11 7 7 7 15 7 9 6 9 4 
17 18 14 18 19 20 18 14 12 12 19 15 16 16 11 15 17 20 18 20 18 18 16 15 13 17 16 16 14 14 11 11 10 11 11 18 13 12 16 12 16 15 13 15 11 14 16 14 16 14 16 17 20 13 16 16 17 19 14 17 16 16 14 14 9 13 8 7 9 7 9 8 7 6 7 11 4 6 5 8 
19 21 21 16 16 19 21 15 12 16 18 14 13 17 11 11 17 16 19 18 16 16 16 14 15 17 14 14 15 13 13 8 11 13 15 16 12 12 15 10 11 12 14 13 13 14 13 15 14 13 13 15 13 19 16 14 14 16 15 16 17 11 14 10 9 8 7 7 7 8 7 8 6 7 12 8 6 8 4 3 
19 18 18 18 18 19 17 16 16 12 15 15 14 15 12 14 18 17 19 14 11 13 16 14 16 15 14 12 11 11 10 10 15 13 13 18 11 10 12 11 11 12 9 11 11 14 11 16 17 18 16 14 14 13 17 13 11 14 14 16 16 14 11 12 6 6 9 2 11 14 8 10 7 7 8 10 6 7 4 9 
23 19 17 22 21 20 19 17 14 11 14 13 19 16 15 11 13 18 12 14 15 13 17 15 16 15 10 12 17 12 10 12 16 13 13 14 12 10 10 12 14 14 13 11 8 13 13 17 13 17 16 14 14 13 16 16 16 15 16 13 14 15 8 8 9 8 8 8 10 12 9 8 5 7 9 13 7 6 4 8 
22 20 25 17 19 19 18 17 13 11 15 17 16 15 14 9 10 15 13 17 15 16 16 14 16 16 14 13 11 10 11 12 14 16 14 15 6 13 13 12 14 12 14 12 11 11 18 14 13 16 12 13 11 14 15 14 13 14 13 11 12 10 11 10 7 8 10 5 11 8 11 5 5 9 7 14 9 10 5 7 
26 21 15 26 17 20 20 16 13 16 16 18 14 17 12 12 14 12 11 11 13 15 12 13 11 13 11 11 16 13 11 8 19 16 13 11 9 11 15 12 13 12 14 9 15 14 18 15 12 14 16 10 8 9 14 13 14 13 13 12 11 10 16 14 8 9 7 4 9 9 0 6 4 5 10 9 10 7 3 12 
19 15 24 17 17 17 15 14 10 12 14 12 13 12 11 16 11 9 12 11 14 15 13 12 13 12 9 13 14 10 10 13 12 17 13 13 9 11 11 12 10 11 10 13 10 15 15 19 13 15 13 16 10 14 14 17 17 19 15 13 12 11 12 12 8 6 10 8 8 5 6 6 6 6 7 10 9 6 2 3 
16 18 20 17 19 17 15 15 13 11 14 13 14 11 16 11 10 11 11 12 10 11 12 12 14 18 10 12 13 10 10 12 11 13 14 9 11 9 12 12 12 11 13 12 14 15 12 19 16 14 11 13 12 12 14 16 18 29 18 12 13 12 13 11 9 9 12 8 14 10 8 4 6 2 4 10 7 3 2 5 
24 19 17 17 18 17 12 16 12 8 10 14 15 11 10 13 12 16 14 16 9 11 12 11 14 18 11 11 11 9 8 10 13 13 10 11 8 10 9 10 11 12 14 11 10 13 14 13 13 15 12 12 14 15 15 15 14 18 18 14 11 13 15 10 9 10 11 6 12 12 4 6 7 8 10 10 6 10 4 5 
18 22 23 17 15 16 12 14 12 9 13 18 11 14 10 14 8 14 14 14 8 9 12 11 18 20 16 13 11 10 10 11 14 15 12 14 11 12 10 12 12 14 12 10 11 18 15 15 10 13 13 14 14 16 13 14 15 18 18 14 14 12 11 10 9 8 9 10 15 15 11 12 14 5 6 8 6 5 8 10 
18 17 21 19 18 20 17 17 12 13 14 15 13 10 12 9 13 7 13 14 11 10 11 12 13 12 15 14 13 10 10 11 15 14 13 15 10 10 10 18 12 11 14 11 11 14 12 14 13 16 14 13 14 14 16 13 12 23 16 15 12 12 8 10 8 7 6 9 11 14 9 11 3 7 7 9 9 9 7 10 
18 21 26 22 19 19 19 14 11 12 17 13 12 10 13 10 11 14 17 12 15 12 16 17 11 14 13 13 13 10 14 8 17 15 20 16 10 10 13 14 13 13 12 15 10 10 13 12 15 12 14 10 17 16 15 12 12 19 17 12 14 13 11 8 11 7 10 9 15 10 12 10 8 8 8 10 4 6 6 5 
16 18 24 21 16 19 15 11 12 18 18 20 14 13 13 12 14 13 15 14 18 16 19 14 13 17 11 13 13 9 11 13 16 17 12 17 9 13 12 11 13 14 10 14 12 12 10 16 12 12 10 16 14 17 14 12 12 15 16 11 14 12 13 12 11 10 6 6 13 14 10 12 7 6 11 9 6 10 10 3 
20 17 18 20 16 17 15 14 11 14 18 14 9 12 10 14 17 14 12 13 12 14 12 16 15 14 13 12 13 9 19 13 14 13 11 15 10 11 11 11 11 14 12 10 12 9 13 13 13 12 13 13 13 12 14 12 11 13 13 12 11 13 13 12 7 7 9 8 16 11 7 6 10 8 7 13 5 7 5 9 
19 19 15 19 15 19 19 14 14 12 11 13 21 14 12 16 11 11 14 12 10 13 16 15 14 14 14 12 13 13 14 10 13 10 10 12 10 10 17 14 9 13 10 8 8 7 9 12 12 14 11 13 12 11 10 10 9 14 13 11 16 13 12 12 8 9 10 9 10 13 16 8 5 7 8 12 4 7 6 8 
18 17 19 23 18 16 18 17 15 14 12 18 13 15 13 15 10 13 11 12 11 10 11 10 13 16 14 11 13 8 14 13 12 10 10 14 12 8 10 16 12 12 10 6 7 9 9 12 7 12 13 16 12 13 16 15 14 15 16 12 13 10 10 8 10 10 7 9 11 9 9 8 5 8 7 12 7 4 4 8 
15 16 19 18 18 19 21 24 11 16 17 15 14 10 11 13 12 13 11 16 10 10 10 12 13 11 11 12 10 9 9 8 10 11 11 14 6 9 8 10 11 12 11 9 10 11 11 8 11 20 13 14 13 12 16 14 14 12 18 9 11 9 8 9 9 8 13 9 14 15 9 9 5 4 10 10 8 7 5 9 
16 15 20 16 17 20 18 20 17 15 27 14 14 12 11 13 12 14 10 16 12 12 10 12 17 15 9 10 13 9 6 6 9 8 12 18 8 8 10 12 10 11 10 8 9 13 11 9 10 15 16 13 11 13 16 13 13 12 12 14 11 11 8 9 8 11 13 11 14 14 13 8 9 8 9 10 2 8 8 10 
17 16 18 14 15 15 14 18 15 17 11 18 13 13 14 13 13 13 11 13 10 12 15 13 14 18 11 10 12 10 8 9 9 9 10 11 8 7 8 11 9 11 12 11 8 14 12 11 8 11 12 14 11 15 13 11 14 13 16 11 12 9 9 7 10 9 11 5 13 14 13 9 7 8 9 13 5 5 6 8 
19 20 17 18 17 16 18 17 16 14 15 14 17 13 13 11 16 15 12 10 11 12 18 14 17 19 11 12 12 11 9 9 17 9 14 12 7 7 9 9 12 8 12 11 11 11 12 12 10 8 13 13 10 13 14 13 12 13 11 9 11 12 9 9 8 10 9 6 14 11 7 8 6 7 8 16 6 6 5 8 
17 15 18 17 17 15 16 14 14 15 12 14 11 12 9 9 10 12 11 13 10 11 12 13 15 15 15 14 11 13 9 9 12 12 9 11 10 6 8 11 9 7 13 10 10 12 12 10 9 11 8 14 8 10 9 10 9 11 9 12 12 8 12 9 5 7 10 5 5 17 10 9 5 9 7 7 6 7 6 8 
20 20 23 20 17 16 15 14 13 11 13 14 13 14 10 12 15 14 11 15 9 11 11 12 12 17 9 13 13 12 8 7 11 11 13 12 9 7 10 11 10 13 11 10 5 11 10 11 11 12 8 12 12 10 11 12 8 13 12 10 12 8 11 8 9 7 7 7 7 9 10 10 7 4 9 9 9 5 8 8 
21 20 24 17 16 19 18 16 15 10 14 14 14 12 13 12 15 11 13 16 13 13 14 12 17 20 13 13 16 13 11 9 11 10 11 14 8 10 10 9 11 12 16 12 9 12 13 8 13 11 11 10 11 11 11 13 10 13 12 10 10 10 10 14 12 9 15 10 9 11 12 9 6 8 10 12 5 5 4 4 
23 22 23 19 16 20 20 16 14 13 16 14 14 11 11 11 15 13 13 11 10 15 15 13 16 15 10 14 15 11 7 8 7 8 11 8 10 8 11 9 10 13 17 12 9 10 10 13 13 13 7 6 12 12 10 10 12 12 9 7 10 11 10 12 10 8 10 10 10 8 9 4 5 9 6 10 10 8 9 3 
21 16 18 18 19 18 17 15 15 18 16 14 12 14 13 12 14 11 12 11 13 15 14 14 16 14 14 12 12 8 8 9 9 10 10 11 8 7 9 10 14 12 14 13 12 10 12 12 11 15 10 8 10 9 12 10 12 12 9 9 10 11 9 10 11 8 13 12 11 8 9 9 6 6 11 10 6 5 5 5 
17 17 20 17 16 19 15 12 17 13 13 12 14 12 12 12 14 12 15 11 8 11 12 15 12 13 10 15 10 9 7 7 9 7 7 10 10 8 11 11 11 14 15 13 12 12 7 10 12 11 11 12 12 13 9 10 10 10 9 9 10 9 8 11 10 10 7 10 15 9 11 8 9 7 8 9 7 4 4 1 
19 17 18 18 19 20 16 14 14 12 14 15 13 13 12 13 14 13 15 11 11 9 13 19 13 14 11 12 15 15 8 10 8 7 9 9 5 9 10 9 12 14 13 13 12 11 10 10 10 9 11 17 10 10 9 12 13 10 11 7 11 11 10 12 7 8 11 11 12 9 8 10 7 8 11 9 7 7 4 4 
20 16 22 17 19 19 15 17 16 13 18 16 15 15 11 14 15 14 12 14 10 9 14 14 16 14 13 12 14 10 8 10 11 9 12 14 6 10 9 10 9 10 15 14 10 17 13 14 11 10 7 13 10 11 12 11 11 16 14 9 9 10 10 12 10 8 10 6 10 9 9 8 8 6 5 6 6 8 6 7 
17 16 16 17 19 20 19 15 16 14 16 18 13 13 15 12 12 14 15 13 9 11 14 12 14 14 7 12 11 8 8 8 12 12 11 11 7 7 9 10 8 12 13 13 8 12 13 17 12 9 12 12 10 13 10 13 12 16 13 15 11 11 10 13 8 10 10 9 7 8 6 9 7 9 7 9 6 9 6 5 
21 18 19 21 18 19 20 18 14 15 14 13 13 16 13 13 16 14 15 16 12 11 14 14 14 15 9 10 11 6 10 9 13 10 10 13 8 8 9 12 8 9 11 10 10 9 16 12 12 11 14 13 14 13 14 11 11 14 11 17 13 12 10 9 10 9 8 6 12 9 6 8 6 9 11 9 5 9 8 8 
23 19 21 20 20 19 19 17 13 15 17 18 16 15 13 12 16 19 11 14 12 14 12 15 13 13 9 9 10 11 12 11 9 10 9 10 7 8 9 11 13 11 13 10 8 10 13 12 12 13 17 11 11 15 13 12 12 13 9 8 10 10 10 9 9 11 9 7 5 10 7 6 5 8 6 9 7 10 6 6 
22 21 27 22 25 21 17 17 18 16 20 18 15 14 11 15 15 13 11 12 12 13 14 13 12 10 9 8 13 11 9 9 12 11 11 11 9 9 10 10 10 10 13 10 10 11 13 13 12 12 11 14 13 11 13 11 11 12 9 13 10 11 9 9 9 8 10 8 5 8 10 10 7 7 7 11 5 10 7 8 
24 23 22 22 21 24 19 17 17 17 20 15 15 17 14 16 13 12 13 13 12 13 16 12 15 15 12 14 12 13 10 11 14 16 15 10 7 8 10 14 11 12 13 13 9 12 19 13 12 11 15 16 14 12 16 11 11 12 12 8 10 14 10 8 10 7 8 7 9 10 9 11 7 8 9 9 11 9 8 11 
23 22 24 19 21 22 18 17 14 17 21 19 15 17 15 16 14 14 13 12 11 11 12 12 19 16 18 13 11 10 9 9 13 14 8 12 8 10 10 11 11 12 12 10 12 14 16 16 15 14 16 20 16 16 14 9 9 12 11 11 6 10 8 12 8 9 7 3 8 7 7 8 5 9 10 6 9 10 9 10 
22 23 25 22 21 19 18 18 15 17 20 18 21 15 11 15 15 15 14 11 11 10 13 14 15 19 17 9 11 8 10 9 14 11 9 10 10 9 11 11 10 12 12 11 9 13 12 13 11 14 16 19 12 16 14 11 11 11 10 7 11 10 10 8 11 8 6 4 7 9 10 8 5 5 9 11 10 13 10 10 
22 22 27 20 19 20 20 17 15 13 15 20 17 15 13 14 16 10 16 14 10 13 13 17 14 15 13 14 10 7 7 8 12 10 12 14 11 10 9 10 11 10 10 11 11 12 13 16 18 15 17 15 13 13 10 13 11 14 12 9 7 7 11 11 10 8 5 5 9 4 7 7 9 5 11 12 9 9 8 11 
26 21 24 21 21 23 20 21 15 15 16 19 18 15 13 12 15 13 18 18 12 12 15 13 13 14 12 12 14 9 10 10 11 13 14 9 7 8 10 13 11 10 11 12 12 16 15 24 19 15 15 12 12 14 13 11 10 14 13 8 10 11 9 10 7 8 6 5 12 9 9 7 8 5 4 12 9 7 5 10 
24 26 31 24 24 25 26 19 16 18 17 18 20 15 13 13 18 15 19 17 16 15 14 14 17 14 9 10 12 9 8 9 12 12 13 15 9 6 11 13 12 9 12 11 12 17 18 16 17 13 13 14 11 9 13 13 10 13 12 11 10 12 11 7 8 7 9 10 12 5 10 7 4 7 8 11 8 7 6 9 
27 22 25 22 25 25 20 18 15 17 18 20 16 17 16 17 22 16 16 17 16 16 16 15 12 12 10 9 10 11 11 8 12 10 14 15 6 9 9 10 10 11 9 10 10 14 17 12 12 11 12 11 9 12 13 10 10 11 8 6 11 11 9 8 10 9 9 11 7 9 7 7 6 5 12 7 4 6 4 10 
23 23 22 18 23 24 23 20 13 18 19 19 17 24 19 19 16 18 17 16 14 14 16 14 11 14 17 12 11 11 8 6 14 11 11 15 8 7 7 5 9 11 12 10 13 17 17 15 14 12 13 14 12 10 14 11 7 11 13 10 12 12 15 11 8 6 10 7 12 5 7 10 6 5 10 10 3 4 9 8 
24 27 25 23 20 26 21 20 20 18 19 20 22 21 21 20 16 17 19 17 14 22 18 18 13 15 13 11 12 12 9 6 9 10 15 15 12 8 9 11 10 13 10 12 12 16 14 13 15 10 13 14 12 9 14 11 14 13 9 13 14 11 9 8 9 5 7 7 13 11 8 6 5 6 7 13 4 5 7 4 
25 23 28 21 21 20 18 18 18 15 17 17 20 19 20 18 16 17 18 14 15 17 21 16 13 12 11 11 14 13 9 9 9 9 9 16 7 9 10 10 10 8 8 12 12 12 14 12 14 12 11 14 11 11 14 15 10 12 10 10 13 13 8 8 7 8 11 9 11 9 6 8 6 3 9 8 7 3 4 6 
28 31 31 23 16 15 14 15 16 14 14 16 18 16 16 17 15 14 16 13 17 16 20 16 13 14 12 9 11 12 8 9 11 9 12 10 7 7 9 10 10 8 10 11 9 13 11 9 10 11 10 12 12 14 15 14 8 11 11 12 10 11 10 8 8 8 6 6 12 10 12 9 5 6 12 9 7 2 2 4 
38 32 32 29 21 18 16 13 13 13 15 18 17 14 15 13 13 13 15 15 14 12 12 14 15 15 12 10 13 8 5 9 14 11 13 11 6 7 12 8 11 11 10 11 12 14 11 12 9 10 10 13 12 12 14 11 10 12 11 10 12 11 7 10 10 8 7 7 12 11 11 10 5 5 10 10 8 4 2 5 
46 32 23 25 24 19 16 15 10 12 11 12 14 12 12 13 12 10 14 10 11 11 13 10 11 13 10 9 2 7 7 5 11 10 15 10 4 5 6 11 6 11 13 8 11 9 14 9 12 9 11 8 9 12 13 12 7 12 11 12 10 9 9 10 7 8 5 7 6 3 7 8 5 5 7 8 6 1 3 4 
44 31 35 21 26 22 19 15 13 13 14 12 11 12 11 6 11 11 15 10 13 12 11 11 14 10 8 7 8 10 7 7 8 10 9 10 8 6 10 9 9 11 10 8 8 10 13 14 13 10 11 14 9 12 13 12 11 16 17 12 10 7 9 10 7 4 7 7 7 8 5 6 3 2 5 9 5 2 4 4 
53 33 33 27 29 26 18 20 17 19 19 13 18 15 15 12 7 9 13 11 10 9 12 10 14 14 10 13 11 6 4 9 10 9 8 8 8 7 6 8 8 8 8 9 12 10 12 15 12 10 13 11 9 13 18 11 16 16 16 10 11 13 11 9 9 8 9 4 14 10 10 10 4 10 8 9 4 6 6 5 
52 33 30 28 27 22 15 19 16 19 19 18 17 14 13 11 12 7 11 10 15 9 9 10 12 13 17 10 10 6 6 7 9 9 4 5 5 6 6 6 6 9 9 10 8 10 9 12 9 11 14 11 8 18 15 16 17 14 12 11 8 13 9 9 8 7 6 2 12 10 10 10 6 7 6 7 5 6 5 10 
51 35 31 24 22 16 20 15 17 18 19 21 19 17 11 11 10 11 13 16 11 11 13 11 13 18 9 11 10 6 2 7 6 8 6 6 6 5 6 7 5 9 5 8 8 10 9 9 12 13 13 12 11 10 14 13 14 14 7 12 9 12 8 10 10 7 8 6 7 12 13 8 7 8 9 9 7 2 7 7 
62 40 35 26 27 22 18 15 17 15 19 19 23 19 13 13 12 12 14 19 14 14 12 13 11 12 16 10 8 9 5 7 8 7 6 6 4 6 4 9 7 6 9 7 9 11 12 13 14 11 12 15 10 14 13 15 14 18 14 10 13 9 6 9 10 7 7 7 11 9 8 10 6 3 10 14 6 4 6 10 
59 41 27 24 23 21 15 17 16 18 18 19 22 18 13 14 13 14 16 14 16 13 17 13 12 14 8 10 10 8 5 6 6 8 10 7 5 6 7 7 7 7 9 11 7 12 14 18 12 12 10 14 10 13 12 13 11 13 12 10 12 10 14 11 8 9 6 8 9 12 8 10 4 6 10 11 6 4 3 9 
62 48 31 26 24 21 20 15 16 23 18 19 21 22 13 15 12 13 13 14 11 13 14 11 12 14 11 7 11 7 2 5 7 6 8 10 5 7 7 9 10 9 11 12 7 9 10 11 12 12 12 16 11 12 14 11 11 10 13 10 12 9 10 11 8 5 6 5 11 10 8 8 6 1 9 5 6 4 6 11 
68 46 34 22 24 25 15 17 20 18 19 19 19 21 19 12 12 13 13 12 14 12 15 16 15 15 13 12 10 9 6 6 7 8 12 11 10 8 12 12 10 6 11 12 9 12 12 11 16 16 11 16 14 13 13 13 11 13 12 11 12 10 9 10 7 7 7 6 6 5 6 9 4 8 6 8 9 4 1 5 


