P2
80 60
38
27 27 26 24 27 30 30 27 28 29 26 26 30 30 25 23 25 19 20 21 18 19 21 20 20 21 17 22 19 18 20 21 19 16 18 20 18 18 18 17 18 20 18 19 17 20 18 19 20 18 21 19 21 21 24 24 22 24 34 26 22 17 20 19 17 14 15 14 15 13 10 14 14 16 13 12 12 9 14 16 
22 29 26 25 29 29 27 27 29 28 27 30 28 28 27 19 27 16 19 23 18 20 18 20 21 18 22 19 18 18 19 19 17 18 18 19 19 18 17 18 15 16 17 18 19 20 17 21 17 15 23 21 18 23 19 23 23 19 29 19 22 22 18 16 19 17 16 14 12 13 9 10 14 16 15 14 9 11 14 15 
29 30 27 27 32 28 28 28 33 33 31 29 27 27 28 21 21 19 17 21 25 23 20 17 20 20 21 20 23 17 22 21 19 18 19 21 21 21 20 18 20 20 15 18 19 16 19 16 17 19 19 21 18 23 26 24 24 24 21 22 22 20 21 19 17 11 15 15 12 13 17 12 17 15 12 13 22 12 12 12 
28 28 27 26 32 30 30 29 31 31 34 30 29 29 23 21 23 20 18 20 20 19 20 21 23 20 19 21 19 19 21 20 19 21 25 20 21 21 15 19 25 19 16 16 19 19 18 19 22 20 23 22 21 23 22 19 22 17 21 20 28 24 20 21 17 13 20 13 17 16 20 18 17 12 9 13 14 6 15 10 
33 28 24 29 29 32 32 30 35 33 33 29 28 26 22 28 24 21 18 21 20 23 23 24 24 22 26 20 22 17 21 18 16 20 21 24 17 22 20 19 23 19 20 20 23 18 23 22 19 23 26 22 23 23 21 24 20 21 22 19 26 24 24 23 17 17 17 14 15 17 18 15 15 13 15 16 14 14 19 15 
32 31 24 30 31 33 32 29 34 33 36 30 28 24 22 24 23 18 20 23 20 22 25 25 26 21 21 23 22 16 17 19 15 17 16 20 17 19 19 16 19 21 20 20 21 19 19 20 18 19 25 20 21 25 18 25 25 25 23 26 27 27 25 19 19 17 20 15 20 18 18 14 13 13 13 14 13 19 17 14 
31 31 28 29 33 31 29 31 34 36 34 32 28 27 23 24 27 20 21 23 20 20 26 24 23 20 22 20 22 16 20 22 16 17 17 19 18 22 19 18 24 19 16 14 23 18 19 18 20 17 23 26 26 24 26 24 28 23 30 23 25 23 24 23 19 15 18 17 17 15 17 15 15 15 13 13 11 12 17 15 
31 30 29 31 30 32 29 35 35 31 35 29 28 25 25 26 26 21 24 24 27 24 22 19 22 22 19 20 19 18 22 17 17 15 19 22 19 18 18 19 25 19 15 19 19 15 19 21 19 19 25 24 25 23 20 23 22 22 22 24 26 21 23 22 18 18 19 16 19 14 13 17 14 15 16 15 12 10 17 15 
32 34 32 32 32 31 34 32 31 35 33 31 29 25 23 21 24 22 22 25 22 23 22 25 21 20 20 22 23 19 22 17 17 19 18 19 19 19 17 18 21 19 15 17 21 18 18 19 20 18 19 20 22 27 21 24 21 21 25 26 30 25 21 19 20 17 21 16 16 12 15 12 14 13 13 16 11 12 14 14 
32 33 31 33 34 36 33 34 35 35 34 33 27 28 19 23 25 23 21 20 21 24 23 25 26 21 18 20 18 19 20 15 18 17 18 16 16 19 18 20 20 13 16 18 17 16 16 20 18 19 21 19 20 21 21 21 20 26 24 26 23 22 21 19 17 19 19 14 16 12 13 13 16 13 15 15 16 12 13 13 
37 33 32 34 34 37 38 31 37 38 33 30 29 24 22 20 23 18 18 22 26 23 25 22 20 19 21 17 24 15 18 18 19 18 16 14 15 17 20 22 22 17 14 15 18 17 18 17 18 17 24 20 21 21 21 21 20 16 20 22 24 27 19 22 20 15 21 15 12 14 12 10 11 13 13 15 12 10 16 16 
37 38 33 32 33 35 34 33 31 33 31 32 27 26 20 21 19 18 19 21 18 23 21 23 23 17 17 20 19 16 15 17 18 20 14 16 16 20 20 20 27 17 14 14 19 17 18 18 15 16 21 18 21 20 20 22 16 20 20 19 25 24 18 19 19 18 14 16 15 10 11 11 14 15 12 18 13 5 17 6 
37 35 34 33 33 34 32 31 29 35 31 30 20 23 20 21 20 18 19 20 19 21 19 18 21 18 17 20 21 14 20 17 18 16 18 16 16 19 20 22 18 16 14 12 19 18 23 19 18 18 22 21 19 20 21 24 23 22 18 20 24 24 24 22 19 18 18 15 12 15 5 11 14 10 11 15 16 13 15 14 
31 36 36 34 36 34 36 28 35 30 32 28 24 21 19 21 19 17 18 17 19 19 18 20 20 20 19 19 15 18 19 19 19 21 23 17 15 20 16 18 16 16 15 16 19 22 19 20 18 22 22 21 18 20 23 24 23 24 23 23 22 24 17 18 16 15 16 18 14 12 15 9 14 16 13 17 12 15 19 14 
35 33 36 30 33 31 27 32 33 36 31 30 18 19 19 20 19 18 19 14 16 19 19 21 21 17 16 21 20 12 21 17 16 15 20 17 18 19 16 20 17 21 14 15 18 17 17 20 19 20 19 20 19 23 20 23 25 32 26 23 22 22 19 16 17 16 18 19 15 13 16 12 11 10 11 11 11 14 17 10 
30 33 33 29 31 31 31 33 30 34 28 21 16 20 15 21 18 14 18 16 17 19 17 19 23 17 18 15 17 16 16 17 12 14 16 17 14 15 16 17 18 16 13 15 17 15 18 19 18 18 20 15 17 19 22 21 23 24 20 22 20 23 19 19 15 21 18 19 17 16 14 14 14 11 9 12 12 14 13 12 
30 31 29 30 29 29 28 31 31 31 29 27 23 20 19 17 18 13 16 17 17 15 15 17 20 13 19 15 14 16 19 15 17 17 16 16 15 16 15 17 17 16 14 16 14 16 16 15 17 15 20 19 21 22 21 21 23 22 25 22 19 21 16 20 16 16 18 18 14 12 18 15 16 14 9 11 12 12 20 15 
27 37 27 32 30 30 29 30 33 32 30 26 21 19 20 17 18 15 15 19 18 17 17 18 20 13 18 19 18 15 21 21 16 16 16 16 19 16 16 23 22 18 13 15 16 17 16 18 16 15 18 17 19 20 23 23 21 26 23 25 27 23 17 22 18 17 15 17 15 16 17 14 20 13 13 15 12 11 14 13 
32 34 30 34 33 30 25 28 34 33 29 28 20 20 21 20 21 18 18 17 18 18 19 20 20 16 20 18 19 16 25 20 21 16 19 17 18 19 16 18 20 16 16 19 17 16 20 18 18 16 18 21 25 25 25 24 22 24 21 20 24 22 20 21 17 19 21 17 15 17 17 15 20 16 12 14 11 10 16 16 
32 35 27 32 30 32 29 26 34 37 33 25 22 16 22 18 20 13 18 17 21 26 26 23 21 20 20 18 19 19 23 20 20 14 17 17 18 18 20 18 19 18 13 15 15 16 18 19 19 14 23 22 23 23 20 21 20 22 23 19 20 28 25 20 18 18 19 19 17 18 19 17 19 16 13 14 11 13 15 15 
29 32 29 35 37 28 28 28 29 37 31 26 18 20 20 19 20 17 19 19 20 21 23 20 20 16 19 18 20 18 29 19 14 15 17 14 15 17 16 19 19 18 19 15 17 14 13 18 16 15 18 23 22 20 21 19 20 21 19 21 20 23 22 20 15 15 17 14 14 17 18 19 23 15 13 14 10 17 17 10 
30 32 27 33 33 32 28 27 33 36 30 28 29 19 23 15 16 17 15 21 20 20 23 21 18 18 19 17 18 18 23 22 16 18 14 16 15 17 21 20 18 22 13 13 15 14 16 20 16 17 22 20 17 18 21 21 21 21 24 20 20 18 20 19 19 20 24 15 14 23 19 18 18 23 15 14 13 13 22 14 
31 31 28 29 30 30 28 29 33 34 30 26 20 21 26 21 20 14 18 21 20 18 18 20 20 19 17 21 18 14 18 21 17 13 17 11 16 14 16 19 18 16 12 9 16 15 18 18 16 18 20 22 18 19 18 20 18 18 21 20 23 19 18 22 20 23 21 17 21 19 18 18 22 18 18 18 12 9 15 15 
30 27 30 26 27 26 29 33 27 30 31 24 20 17 20 17 18 12 19 18 19 17 17 19 20 17 16 19 14 10 16 20 16 19 11 15 12 13 16 18 18 16 13 14 15 12 18 15 15 21 21 19 19 18 17 19 19 16 18 18 23 21 21 20 19 19 23 18 16 16 17 15 18 21 14 14 11 15 17 15 
27 32 30 26 25 27 25 26 30 27 27 22 17 19 18 13 19 11 16 18 17 22 19 18 20 16 16 16 16 14 14 14 15 13 14 14 15 14 15 14 13 14 13 14 20 16 14 15 15 14 14 19 16 21 17 19 17 16 17 18 18 19 18 14 17 15 22 18 16 17 16 13 22 17 13 13 14 13 18 14 
27 27 28 27 26 26 27 27 28 28 27 21 17 18 22 18 17 12 18 17 18 17 20 16 18 15 16 16 19 15 15 13 13 14 13 16 13 12 13 15 14 12 13 14 14 16 15 16 16 12 17 18 16 18 21 20 17 18 21 18 18 19 18 18 16 18 20 20 15 16 16 16 20 17 15 16 14 12 14 13 
25 30 27 28 25 29 29 23 29 26 30 22 20 18 23 15 21 17 18 15 17 17 23 18 18 15 15 18 17 15 19 14 14 13 16 15 13 14 13 16 16 13 15 12 15 14 14 14 17 15 18 20 17 16 17 23 17 15 20 19 19 18 16 17 16 16 18 16 16 14 17 14 20 16 14 15 14 13 15 14 
27 31 25 25 28 26 26 26 31 33 28 21 18 19 19 17 19 17 15 20 15 19 21 19 21 17 17 18 19 15 20 19 11 14 14 15 14 14 14 15 15 15 16 16 17 15 15 15 16 16 19 18 21 18 19 23 18 11 16 19 22 16 17 17 17 15 18 15 16 19 15 16 17 19 14 15 14 11 17 11 
29 27 24 28 31 28 24 35 38 33 24 21 16 19 16 17 19 16 16 19 19 15 15 19 22 19 16 19 21 17 21 18 10 14 14 15 11 14 12 18 17 14 12 13 16 14 17 19 18 19 18 22 19 18 20 17 17 13 20 18 23 23 16 17 16 16 16 14 15 15 15 15 16 12 12 16 16 15 15 17 
30 29 30 27 27 28 25 27 36 31 27 19 14 21 24 20 18 12 15 17 20 17 20 18 23 18 22 23 16 17 21 22 11 12 13 15 13 16 12 15 20 16 16 13 13 14 17 15 15 16 21 20 23 19 20 14 17 17 17 17 26 22 22 20 20 18 23 18 19 16 18 14 18 14 14 20 15 11 18 13 
29 31 28 27 29 27 22 27 31 28 27 20 16 21 21 17 17 12 14 19 21 15 21 20 21 20 19 21 15 12 18 15 11 15 16 14 13 11 14 17 16 16 19 17 16 14 14 18 18 16 18 20 18 19 19 17 17 15 16 17 22 23 21 24 16 17 20 16 16 15 15 16 16 13 12 16 13 11 11 12 
27 29 25 28 32 26 27 26 28 30 27 19 14 18 20 20 19 16 15 16 17 15 18 17 19 20 20 18 17 13 15 13 13 14 12 14 13 12 13 19 21 16 15 18 17 14 16 17 16 18 19 18 21 21 22 20 16 15 16 15 18 22 18 23 19 17 19 16 15 16 16 13 17 14 14 15 12 12 16 13 
29 29 27 28 27 29 21 28 29 31 27 17 14 18 18 18 19 14 14 17 22 17 18 18 20 17 18 17 17 15 17 14 15 14 12 16 13 13 12 19 16 19 16 15 16 14 12 16 14 16 18 20 17 19 22 20 17 17 22 16 16 17 17 20 17 15 17 18 19 16 16 12 15 15 13 14 12 14 15 15 
25 24 27 24 28 27 23 26 30 28 21 16 14 16 16 17 19 12 15 17 20 17 16 20 21 17 15 17 17 19 15 14 12 12 12 13 12 16 12 14 18 17 16 14 17 15 12 16 13 13 17 21 16 16 19 22 17 21 17 16 18 20 16 16 16 17 19 20 16 16 13 12 13 14 19 15 18 13 14 13 
23 23 24 25 22 25 24 22 26 27 19 20 14 14 16 17 18 14 14 17 18 17 17 16 21 18 16 18 16 16 15 14 13 14 16 12 14 14 14 15 17 16 16 14 15 18 15 16 14 15 14 17 17 18 19 18 18 16 20 16 16 17 14 20 16 18 19 20 13 15 15 12 18 14 15 16 14 14 11 12 
24 21 22 26 24 24 23 24 28 29 21 15 13 19 16 16 17 13 14 18 17 16 17 20 21 18 20 16 17 11 13 16 12 16 15 13 14 14 13 16 18 20 11 10 17 11 18 20 18 13 17 16 19 20 20 20 19 18 15 20 17 15 18 22 16 17 19 15 13 17 16 14 17 15 14 16 15 12 16 15 
21 25 26 25 25 26 24 24 26 33 24 16 15 20 19 13 19 13 16 15 17 18 18 20 18 14 16 16 16 13 16 17 17 12 14 13 16 16 14 16 16 17 14 14 14 14 16 17 14 16 16 18 19 17 20 19 21 20 19 16 19 17 19 19 22 20 20 16 15 15 17 15 17 15 13 13 13 12 15 16 
23 30 26 23 25 24 25 23 28 26 22 13 19 17 15 13 18 21 16 18 17 17 18 15 18 16 14 10 18 11 20 13 13 14 13 14 13 14 13 17 17 16 14 15 15 16 13 14 17 16 21 18 18 18 21 22 22 16 17 15 20 16 17 17 15 17 18 20 15 15 16 14 15 13 14 18 13 13 13 11 
22 24 29 21 21 23 23 25 29 26 23 13 15 15 16 15 16 16 16 17 17 18 17 17 19 16 15 16 14 10 16 15 12 16 12 12 14 13 20 17 19 19 15 14 19 15 14 16 16 17 14 20 22 22 21 20 20 16 17 18 18 20 17 17 16 16 19 15 16 13 16 13 14 15 15 16 18 13 21 15 
20 23 23 22 22 24 22 24 28 24 19 14 17 17 15 17 16 14 14 13 18 18 16 17 21 19 15 20 17 14 14 16 13 14 14 12 12 13 16 18 17 15 15 13 14 14 19 19 19 19 22 24 22 22 19 19 18 17 17 15 18 14 15 18 15 16 14 13 16 13 17 14 14 17 13 17 18 16 18 20 
21 24 23 22 23 22 22 22 24 23 21 15 15 18 13 14 15 15 13 15 17 18 18 18 17 16 20 17 14 14 15 15 18 14 12 12 14 12 13 16 16 12 11 15 16 15 15 16 18 20 19 25 21 20 19 20 17 15 20 15 15 19 16 17 16 15 17 13 11 13 16 17 12 17 17 14 21 17 26 17 
18 22 20 23 23 22 21 20 21 22 23 15 17 14 13 17 15 14 10 16 18 16 17 15 18 19 16 16 16 11 12 14 14 15 13 14 15 15 12 14 12 10 11 12 16 14 16 21 20 16 20 20 20 25 19 20 15 20 15 14 16 18 14 15 16 14 14 13 14 14 16 15 17 16 18 17 18 18 21 17 
21 24 23 25 18 22 20 20 26 20 19 12 15 19 20 14 16 14 13 15 16 16 13 15 15 14 16 14 14 12 11 12 10 12 13 16 14 17 13 17 18 13 14 18 18 15 18 19 20 18 19 19 24 24 19 17 21 17 17 16 16 21 19 21 15 17 18 14 13 11 14 14 17 14 15 14 18 15 19 12 
22 21 19 22 22 19 20 22 22 22 23 18 13 16 20 16 10 15 13 18 17 17 15 14 14 16 15 16 17 12 14 16 12 10 12 13 15 10 14 17 12 16 13 16 18 17 16 23 19 18 18 17 22 24 21 21 21 17 16 16 19 18 14 16 13 14 14 10 11 13 12 13 15 15 14 16 19 12 19 17 
16 21 18 21 20 16 20 21 24 18 22 14 13 18 14 12 16 12 15 18 19 17 16 15 16 14 12 10 15 10 12 12 11 11 13 11 10 14 13 14 15 16 13 11 16 18 18 18 17 15 15 17 18 19 21 20 18 15 16 15 17 16 17 19 15 17 16 15 14 12 14 10 16 18 14 15 17 13 17 12 
21 20 18 18 20 23 19 20 22 16 19 12 13 16 19 15 16 17 11 19 17 15 15 16 16 12 14 11 15 12 16 14 7 13 13 14 14 18 12 14 14 13 11 13 17 19 16 19 18 15 18 18 17 18 22 17 14 16 17 17 18 17 16 16 14 18 17 16 15 15 16 14 14 14 14 15 16 11 16 8 
19 18 12 11 16 19 17 17 23 19 17 8 14 16 18 14 15 14 12 17 18 13 15 16 19 17 19 11 13 10 10 8 12 10 14 15 12 18 17 13 14 12 9 14 19 21 16 17 14 15 16 18 21 23 19 19 18 15 16 15 17 18 16 18 14 14 17 19 9 15 19 13 17 14 15 11 16 10 13 12 
16 18 13 18 15 19 16 19 18 19 15 13 12 14 18 14 15 11 13 14 14 14 17 12 18 16 13 15 14 12 14 11 9 10 13 11 10 12 13 14 13 15 8 11 16 13 17 15 17 15 17 19 20 18 19 17 18 16 15 16 19 17 16 16 15 13 17 16 12 13 17 12 16 12 10 11 12 10 10 12 
17 19 15 15 17 19 19 21 18 18 14 11 9 14 18 16 16 11 14 14 10 15 20 15 19 14 16 14 15 9 9 10 9 8 11 11 8 15 10 17 10 12 10 12 16 15 17 15 14 17 18 20 18 23 20 19 18 18 17 18 18 20 15 15 14 15 15 15 14 13 16 15 17 13 11 11 12 11 14 10 
16 15 17 13 18 18 19 22 20 20 9 9 7 12 21 17 16 11 15 19 14 16 20 19 20 15 15 16 11 9 14 10 11 9 11 11 10 11 15 14 17 15 10 11 18 15 17 16 15 16 18 17 21 21 22 19 15 16 21 17 18 19 17 18 9 14 16 17 14 11 15 14 12 16 10 14 15 14 14 15 
16 17 13 16 20 18 18 18 21 17 15 5 9 15 18 14 15 11 14 15 16 13 14 13 19 15 16 15 14 12 11 10 10 12 10 10 9 13 16 19 18 15 8 12 16 15 14 16 13 17 17 15 19 19 24 21 17 14 17 20 18 19 15 16 14 12 19 14 14 13 14 15 16 15 13 13 17 11 8 11 
18 20 14 21 22 20 18 16 18 17 14 10 10 10 13 13 11 8 10 16 17 12 16 14 15 13 13 13 14 8 13 8 9 7 16 12 14 19 14 16 14 14 13 12 15 14 13 17 16 17 20 20 22 24 23 20 19 17 15 16 21 16 17 16 13 11 16 16 11 11 13 10 15 11 15 16 15 11 8 8 
15 15 15 23 20 25 19 18 19 19 14 11 8 10 15 13 10 10 10 15 13 17 11 11 18 12 12 17 14 10 10 9 9 11 15 10 9 15 16 12 16 11 10 10 13 15 13 20 19 18 17 21 22 22 22 21 20 18 22 17 15 16 18 16 16 18 19 15 12 13 13 15 14 11 14 13 15 11 13 6 
12 13 18 20 26 29 19 18 25 19 12 5 6 12 22 11 9 12 8 14 13 14 12 14 17 15 13 17 19 15 14 13 11 11 10 9 12 13 16 14 15 13 9 12 16 11 14 17 15 17 22 21 22 21 21 19 20 17 18 17 19 18 15 15 12 13 18 15 12 13 12 14 10 11 11 11 13 14 9 9 
12 10 13 17 23 21 15 18 23 19 15 4 5 9 16 8 7 9 12 12 14 15 9 14 14 11 15 15 13 9 15 11 11 10 11 7 11 12 12 11 15 12 8 9 11 13 11 15 18 15 22 19 22 21 21 21 21 20 15 21 17 15 14 17 15 13 14 11 10 12 14 9 11 10 7 11 11 7 14 11 
11 8 9 12 15 18 17 16 18 16 9 1 6 8 16 6 7 8 11 12 12 12 7 11 15 11 12 15 12 14 9 12 9 9 9 9 10 11 12 15 14 10 10 10 13 11 12 15 14 19 19 20 18 16 22 21 17 17 15 19 16 15 13 13 13 11 12 9 7 12 20 15 13 14 8 11 11 2 17 12 
7 14 8 13 11 14 13 16 21 16 14 2 11 9 17 5 10 9 9 13 11 8 8 11 13 12 15 14 10 6 9 14 9 9 10 10 11 12 11 12 11 8 6 8 18 9 13 13 16 16 17 16 19 18 15 19 20 14 15 18 17 15 16 14 14 12 11 14 9 10 13 10 13 10 12 14 10 7 13 9 
14 14 13 6 15 12 9 12 19 16 8 4 4 12 10 6 9 7 11 13 10 9 12 13 10 9 14 11 10 11 9 10 4 13 16 8 9 12 12 13 12 10 13 12 11 13 11 14 15 17 17 18 20 21 23 21 18 16 15 15 19 15 12 14 12 13 13 15 10 12 11 10 11 10 12 13 13 11 16 7 
13 14 8 10 6 13 14 15 20 18 12 0 3 8 13 11 8 2 7 12 9 12 10 13 13 12 10 15 11 5 8 8 3 11 12 13 11 14 13 12 10 14 8 9 14 10 13 13 16 17 18 19 18 18 21 20 15 14 14 14 15 17 11 13 11 13 14 8 11 11 11 8 13 9 10 10 12 11 11 10 
6 7 8 8 8 10 11 10 18 11 10 1 0 6 9 10 11 5 10 9 10 12 12 7 11 13 10 13 8 5 8 6 1 7 10 9 15 15 11 10 8 15 8 12 15 11 12 10 13 17 20 22 21 20 25 21 16 13 15 16 13 16 13 14 8 11 11 10 10 9 12 6 14 6 11 10 11 9 11 7 


