P2
80 60
114
102 97 94 96 93 93 97 95 101 97 94 93 100 95 99 100 98 94 95 95 94 98 96 96 97 98 98 97 102 103 99 100 107 100 102 103 96 96 104 107 105 105 107 107 104 106 110 107 106 106 104 105 107 108 105 109 104 106 101 106 99 98 96 91 92 93 88 91 86 93 90 92 88 90 93 89 92 84 89 90 
98 96 93 95 96 97 91 99 97 98 96 97 94 98 100 99 94 95 98 96 95 95 96 98 99 100 99 96 102 103 100 102 102 101 103 104 102 102 106 103 105 106 107 109 105 108 108 107 109 107 108 103 107 108 109 109 107 105 105 100 99 93 93 91 93 93 90 91 89 92 86 90 89 90 92 90 89 85 85 83 
99 95 97 97 94 92 99 97 94 98 93 95 96 99 96 98 95 92 97 99 96 99 100 97 98 97 100 100 99 108 101 101 107 105 103 101 99 103 108 102 103 104 106 107 107 103 107 105 108 108 106 106 109 104 108 112 107 103 104 100 99 94 93 91 90 89 87 93 89 94 93 92 90 90 90 92 94 90 85 88 
100 100 98 97 96 96 95 95 97 97 98 93 96 96 96 96 95 94 96 97 93 99 94 98 97 103 101 105 102 104 100 103 103 102 104 104 100 107 108 106 107 104 106 105 106 108 107 109 110 110 103 104 107 106 104 110 106 105 106 101 102 96 90 92 92 89 91 94 89 93 91 91 89 89 94 86 88 91 86 90 
103 96 94 101 97 95 92 91 95 96 93 92 94 93 92 98 95 93 94 97 90 95 96 91 94 98 103 104 101 102 99 101 102 101 104 106 104 104 110 107 104 107 108 108 108 107 108 108 108 110 104 104 104 106 106 109 105 108 105 102 98 94 94 95 93 90 89 90 89 93 92 93 88 88 94 85 88 90 88 86 
98 98 97 97 98 97 92 93 94 91 90 90 95 91 92 93 93 95 96 92 94 101 100 95 94 100 104 104 101 101 102 101 102 102 104 104 101 97 106 105 106 109 107 105 108 109 114 111 112 110 106 107 108 108 106 110 107 109 104 103 98 99 96 92 93 89 89 92 94 94 93 88 89 89 88 87 92 92 89 86 
99 95 102 96 96 95 92 90 88 92 91 92 92 91 91 95 94 94 94 96 96 97 99 97 99 101 101 101 103 100 99 99 100 103 102 105 97 105 108 106 107 108 104 105 105 107 106 107 108 108 106 110 109 108 107 107 106 107 107 103 100 98 93 93 91 91 91 92 91 95 92 92 90 89 88 88 88 87 86 87 
100 99 97 96 95 99 94 96 94 95 91 93 96 98 95 95 93 94 95 92 99 94 92 96 97 100 99 101 102 106 102 97 100 100 102 106 102 101 106 108 105 106 105 105 105 108 110 108 111 108 104 106 111 111 106 112 106 106 103 104 99 97 96 94 89 91 90 95 90 95 89 89 90 89 87 86 89 87 85 85 
102 102 102 96 98 100 96 97 97 100 93 94 96 94 95 92 97 99 100 98 99 99 98 99 103 102 99 104 102 104 103 100 100 103 104 106 98 100 109 104 107 104 103 105 105 104 106 104 108 108 104 105 109 107 106 109 108 104 102 103 103 98 95 93 90 94 91 93 87 91 86 87 90 90 87 85 86 87 84 88 
104 100 97 101 100 100 99 96 98 96 96 94 97 96 95 97 103 96 97 93 98 101 101 101 102 104 101 104 100 104 102 98 102 103 105 102 101 99 109 106 103 104 103 103 103 104 106 104 109 108 104 100 109 107 107 112 108 104 108 102 97 97 91 92 90 91 91 90 90 92 89 90 87 87 89 87 88 88 83 90 
105 105 98 98 99 101 103 98 97 97 96 93 98 97 97 94 98 92 99 92 95 98 98 96 98 100 99 100 102 102 100 101 99 104 105 101 96 94 104 105 106 103 103 102 103 105 105 105 105 108 100 102 106 108 107 107 108 103 100 103 96 97 92 93 90 92 92 88 89 91 88 88 89 86 89 83 88 88 81 83 
102 101 99 99 100 102 97 100 94 98 98 96 96 97 96 96 96 96 92 91 94 98 96 97 95 100 99 100 100 99 99 101 103 104 104 98 96 101 104 106 108 106 104 102 104 107 103 106 102 105 100 103 107 106 106 110 104 100 101 96 97 95 89 90 92 98 94 93 87 90 89 86 87 87 86 90 87 85 84 85 
103 102 102 102 97 99 99 97 90 93 97 96 95 98 97 94 95 90 93 91 95 98 97 97 96 98 98 100 103 106 101 98 101 105 100 100 96 102 104 107 108 103 103 105 105 106 108 105 103 109 107 103 105 103 104 112 108 102 102 97 98 94 97 90 90 91 90 94 90 93 79 87 88 86 89 86 83 88 81 82 
102 104 102 101 101 100 96 98 90 92 92 93 93 97 96 97 95 91 96 88 98 99 98 98 97 100 98 102 101 105 100 101 102 103 103 103 97 102 106 108 105 104 102 105 104 109 108 108 107 110 106 104 105 104 107 108 108 106 102 98 95 96 90 89 87 92 93 93 88 88 91 87 87 88 87 89 88 88 81 82 
105 102 103 101 95 95 94 93 92 89 91 92 92 94 94 95 92 92 95 88 98 95 98 100 98 100 101 101 103 101 102 101 100 104 100 101 102 101 105 106 107 105 104 106 105 107 107 108 105 108 102 102 105 105 107 110 111 111 105 100 96 94 89 87 90 90 89 90 82 89 87 89 89 89 84 83 87 86 85 85 
101 101 100 103 93 92 90 96 91 84 90 90 93 92 91 94 92 88 94 92 94 96 96 101 102 99 100 99 101 100 102 99 101 101 100 101 95 99 108 106 108 105 103 103 103 107 107 105 105 106 98 102 105 106 108 113 106 110 103 100 96 94 95 91 89 93 88 86 93 92 88 88 85 86 85 83 89 87 84 85 
105 102 102 101 95 89 87 91 87 85 84 83 88 86 88 92 90 85 92 90 96 95 96 97 101 100 102 99 98 102 98 100 101 103 101 101 99 101 106 107 107 106 100 104 101 112 105 105 105 106 99 102 106 109 112 111 110 113 106 100 97 94 92 91 90 87 87 91 91 93 92 88 90 86 87 85 87 87 90 86 
104 102 102 103 100 91 87 90 89 86 87 85 85 84 89 88 89 83 88 90 94 94 96 97 97 98 99 101 99 100 97 101 100 102 99 100 97 94 103 110 107 104 99 99 102 106 106 103 103 105 100 99 108 107 111 110 108 112 104 104 98 92 90 89 88 90 87 92 89 91 89 88 89 86 86 84 90 90 88 90 
109 109 109 106 100 93 89 90 90 91 87 87 90 88 88 86 91 84 89 88 92 94 96 101 96 97 100 99 103 101 100 99 102 98 101 102 97 99 105 102 106 102 101 105 103 105 103 105 103 105 100 101 109 105 109 110 109 101 102 98 94 89 88 89 91 91 91 93 92 91 88 85 87 86 85 88 88 91 86 87 
108 106 105 103 98 92 89 90 89 90 88 89 89 88 89 90 88 83 87 84 96 98 101 99 100 99 100 99 100 99 102 99 101 100 99 101 95 101 101 104 106 102 101 104 101 102 105 103 104 104 98 102 110 105 102 110 107 103 96 100 93 92 91 91 91 92 90 91 89 95 88 90 86 87 87 87 90 88 87 83 
110 108 105 100 95 91 88 89 90 89 88 89 87 86 88 86 86 85 86 91 96 94 99 99 99 97 98 96 98 102 111 100 101 95 95 94 96 94 102 108 107 104 101 102 101 105 101 107 104 104 95 97 105 103 102 107 105 103 100 98 98 93 92 88 90 89 88 86 87 92 90 89 89 85 87 82 88 87 83 90 
109 101 103 102 97 88 88 90 89 89 84 87 95 88 86 87 84 82 90 93 95 96 99 97 97 97 98 99 97 98 103 97 100 102 101 99 99 98 107 108 105 103 97 102 96 98 99 103 101 103 103 96 103 101 102 110 105 106 103 97 93 95 90 93 86 90 93 91 87 95 87 91 88 87 88 84 86 89 87 90 
108 104 105 103 98 87 91 92 90 88 88 87 90 88 86 89 86 81 89 88 92 96 95 97 99 97 94 100 96 100 100 94 100 98 97 97 95 93 103 107 102 101 96 98 99 100 103 101 99 105 99 100 104 101 105 106 109 106 100 97 97 92 90 94 90 89 92 91 88 91 89 93 88 90 90 86 85 87 86 89 
108 101 106 100 99 87 89 94 88 85 86 89 89 90 89 90 84 79 88 90 93 95 95 98 97 98 99 99 99 95 95 93 98 99 97 95 92 94 102 102 102 100 99 100 97 98 102 101 100 105 100 99 102 101 100 102 105 103 101 94 95 92 91 88 92 91 93 92 89 93 89 89 90 89 87 85 86 88 84 86 
105 106 101 98 91 84 87 91 87 86 86 87 90 85 89 84 83 83 88 91 93 98 95 98 97 97 95 95 94 95 95 93 95 96 99 96 90 90 100 100 101 98 98 97 100 99 102 101 102 99 99 95 102 99 100 102 104 102 95 97 94 93 90 90 87 92 94 90 86 89 89 89 90 89 89 86 87 87 85 90 
104 105 110 102 96 90 87 91 88 87 87 85 87 87 89 89 83 84 90 89 92 92 97 99 97 94 95 96 96 96 96 92 96 98 97 97 95 95 97 105 99 98 104 100 97 101 102 101 97 98 99 98 102 102 100 105 100 104 103 96 96 94 90 90 92 91 93 94 86 93 90 89 88 86 88 86 88 88 84 87 
108 103 103 103 100 84 90 87 83 86 85 84 87 84 83 86 82 86 89 84 93 97 99 99 98 95 96 98 97 95 94 90 98 98 98 94 91 92 95 99 98 98 100 101 100 101 98 102 99 96 97 98 102 99 102 106 98 97 96 95 93 90 90 93 88 88 90 90 90 91 89 90 88 90 91 84 89 89 84 85 
109 107 103 104 95 88 85 90 85 84 82 84 87 84 85 85 81 81 92 87 95 94 99 96 97 95 97 100 97 96 95 92 94 93 93 96 92 91 100 99 101 100 101 102 98 96 98 100 96 95 99 99 104 100 102 107 103 95 92 96 96 90 89 89 89 89 91 88 86 92 91 90 86 87 88 87 86 87 88 87 
105 104 104 100 92 87 88 91 86 86 81 82 84 86 84 85 83 81 88 90 88 93 94 97 94 99 95 98 98 94 98 93 93 93 93 96 92 88 102 99 100 101 100 99 97 97 101 103 99 100 98 98 104 100 98 103 102 98 93 92 92 89 89 93 88 90 91 91 86 90 88 87 91 83 90 87 88 87 82 82 
108 106 105 99 88 86 84 87 89 87 83 79 85 85 84 85 80 77 92 86 91 90 96 94 95 97 93 95 94 96 95 94 94 94 93 93 89 94 97 100 102 101 98 101 98 101 100 98 97 100 95 97 101 98 97 101 100 97 94 91 92 93 92 88 91 90 93 95 86 92 89 86 89 89 89 89 86 85 80 84 
108 105 104 102 88 87 84 86 86 85 82 81 85 86 83 85 80 77 89 89 87 94 93 92 95 95 92 96 92 95 97 92 92 95 94 92 90 94 98 99 101 99 98 101 98 102 98 98 101 97 94 96 96 96 96 102 102 96 92 92 91 88 89 92 88 92 93 93 88 88 88 87 86 87 85 82 84 84 80 86 
107 98 106 99 95 85 82 83 83 87 84 85 85 80 85 84 79 84 85 84 86 91 93 96 95 97 97 95 94 96 96 91 94 94 92 91 90 86 100 99 104 101 98 101 96 101 99 99 98 99 95 96 96 96 98 101 99 96 94 92 89 90 91 91 88 90 90 89 86 92 89 88 90 88 86 82 87 87 82 85 
108 102 102 98 93 89 85 85 86 80 81 81 84 86 80 84 81 78 90 88 91 87 94 95 94 93 94 95 96 97 91 92 94 94 88 90 88 89 99 101 102 100 102 98 97 98 99 97 97 98 100 94 99 98 98 100 100 95 94 90 93 89 90 89 88 90 89 91 91 92 89 85 87 84 87 85 87 86 85 87 
108 103 99 97 94 88 85 86 84 85 83 81 81 81 81 84 80 81 90 89 91 87 94 97 95 96 92 94 96 99 97 91 92 91 91 91 87 92 98 101 100 102 100 97 100 100 98 97 95 99 98 96 99 99 99 100 99 102 95 93 93 92 89 92 90 89 95 91 90 91 90 86 87 89 88 86 90 88 85 85 
104 99 102 99 91 87 81 83 83 81 80 83 87 81 85 82 82 82 89 88 92 91 94 91 94 96 91 92 96 94 92 91 94 91 92 92 88 92 100 95 98 98 97 101 99 103 98 98 97 97 95 95 99 100 98 103 100 96 95 92 91 88 90 91 90 92 91 92 87 88 90 86 90 87 87 86 88 88 81 87 
106 102 99 94 92 84 80 83 80 83 79 84 85 83 83 80 80 79 88 85 89 90 91 93 92 90 91 91 93 91 89 90 94 90 91 90 88 88 100 96 96 99 96 100 98 97 100 100 98 97 96 99 99 101 97 102 99 100 94 94 92 90 89 91 88 88 88 90 85 87 85 85 89 84 86 81 84 89 81 88 
103 99 100 98 89 81 83 84 82 79 80 80 80 80 81 82 77 79 88 85 86 89 89 92 91 88 91 92 93 90 92 89 90 89 88 88 92 92 91 97 100 95 95 94 93 97 97 96 95 95 93 99 98 96 99 98 97 101 92 90 92 88 92 88 89 92 90 88 86 86 88 85 87 85 86 85 88 88 80 83 
103 106 104 99 90 84 79 83 82 83 79 85 82 79 80 80 79 86 86 86 88 88 91 91 89 87 88 89 95 89 90 89 87 89 91 89 88 91 95 95 100 96 98 100 96 96 99 94 97 95 95 93 97 96 98 100 97 95 90 90 89 90 87 89 88 92 90 90 86 90 86 84 86 84 86 85 86 87 85 83 
106 109 103 94 84 85 79 83 82 80 78 79 81 81 76 81 79 81 86 86 86 88 89 89 89 89 90 90 92 94 92 89 89 94 88 88 87 89 99 97 98 96 96 95 93 97 95 96 99 98 95 96 100 99 99 102 98 93 92 90 89 87 88 89 85 88 89 90 85 90 88 87 88 86 87 82 88 88 88 90 
106 101 101 99 92 85 79 81 83 84 80 81 80 80 76 83 76 82 86 86 92 91 89 92 90 92 89 90 89 94 90 88 91 90 88 92 90 87 94 98 97 96 96 95 95 95 101 94 101 99 97 98 104 97 100 100 97 93 90 91 89 88 87 86 89 87 89 90 87 88 87 88 87 86 86 87 87 91 88 95 
103 99 97 95 89 80 78 81 79 80 77 76 79 83 80 80 75 81 82 86 87 88 89 90 91 89 97 96 88 93 91 89 94 91 89 91 89 85 97 97 99 95 96 93 98 96 96 99 96 99 96 96 99 96 96 101 95 91 91 89 89 89 87 88 89 85 88 88 85 86 87 92 84 87 88 87 89 91 92 88 
104 101 101 94 87 82 78 82 78 78 78 79 80 78 82 81 74 79 85 85 87 85 87 90 92 92 89 92 90 86 86 90 92 88 89 93 93 89 96 94 94 100 95 94 96 99 97 100 101 99 97 99 98 100 98 100 96 94 90 90 88 89 89 89 87 86 86 88 84 89 87 86 89 85 85 85 89 91 91 94 
107 105 102 98 86 79 77 82 78 79 78 74 76 82 78 79 76 80 86 86 87 86 87 90 89 91 91 90 91 91 89 87 88 90 88 93 88 90 98 97 97 93 95 96 100 98 98 101 97 97 98 96 100 99 97 103 96 97 91 91 90 91 90 89 89 87 89 89 85 88 86 88 85 84 87 85 86 88 85 88 
110 99 98 95 84 78 77 80 80 80 77 79 78 79 78 76 74 78 90 85 85 85 90 89 88 89 86 89 91 87 86 86 88 85 91 90 89 90 96 96 95 93 97 96 96 98 98 102 97 97 95 91 94 96 96 99 94 92 90 92 89 91 90 86 87 90 89 85 83 87 85 86 86 84 87 87 87 87 83 88 
102 98 90 93 84 78 79 77 76 73 78 76 80 77 78 78 74 73 87 80 88 85 90 86 84 88 84 86 90 86 88 87 85 86 84 92 85 88 94 95 97 94 92 90 94 99 97 98 97 94 90 91 98 95 97 94 91 93 88 91 88 87 86 88 86 87 89 91 88 90 84 84 86 86 84 86 84 84 82 85 
102 98 97 86 84 75 73 75 76 74 75 75 77 79 81 80 74 80 79 80 89 86 86 86 86 82 86 86 87 86 86 87 86 86 92 87 87 90 95 94 92 97 91 95 93 97 95 95 94 94 96 93 95 92 96 95 88 89 87 87 90 86 86 83 84 89 89 90 88 89 86 86 83 82 85 84 85 82 81 85 
107 97 93 86 75 72 73 75 75 73 71 74 74 80 76 77 71 78 80 83 86 84 89 84 83 87 88 87 87 88 84 85 85 86 87 90 83 85 93 92 92 94 94 93 94 99 93 95 95 90 90 93 96 92 95 97 95 89 86 86 89 86 88 86 85 90 89 89 83 87 84 86 81 86 84 79 85 83 81 86 
96 99 93 88 79 74 70 78 72 74 71 74 77 73 76 79 71 77 79 77 84 83 89 87 84 86 86 87 87 89 86 81 86 82 85 82 87 87 94 93 92 94 88 95 92 96 95 90 93 91 92 94 98 94 92 94 89 89 86 86 86 90 87 87 86 87 88 88 87 87 86 85 83 87 79 84 85 80 77 84 
105 100 92 86 79 73 70 78 69 73 71 72 73 77 73 78 69 76 78 79 83 84 92 86 84 84 83 81 84 87 86 82 83 81 80 83 83 85 89 91 90 92 89 93 91 92 92 92 89 90 88 90 93 92 91 93 91 86 88 89 85 87 84 87 86 86 90 89 85 87 84 84 84 85 83 81 85 81 77 81 
100 98 96 85 78 72 70 75 71 70 71 70 73 73 75 73 71 74 79 78 78 82 85 84 83 82 80 85 84 84 81 81 81 80 83 81 84 84 91 92 91 91 88 92 90 91 92 89 90 90 88 91 94 93 95 96 89 87 87 87 86 89 85 83 85 85 88 87 85 86 84 84 84 85 82 81 82 84 79 79 
103 101 97 83 78 70 69 70 71 73 70 69 72 74 72 75 69 72 80 75 77 82 81 82 80 83 76 81 84 85 83 80 84 80 80 83 81 88 91 89 91 91 89 90 91 90 89 91 87 90 87 87 95 97 99 95 92 86 86 87 87 86 87 83 85 85 87 86 86 88 85 86 85 84 82 82 86 85 81 81 
100 98 93 89 83 74 69 70 69 68 68 73 71 73 71 69 69 69 78 75 82 78 80 78 81 81 77 80 80 84 82 80 87 80 84 85 85 81 90 85 88 87 91 90 88 93 91 91 90 88 90 88 94 99 95 99 89 90 85 88 84 83 84 86 85 83 85 85 87 87 85 86 84 82 82 83 85 82 77 83 
102 96 90 84 75 64 59 58 65 70 69 70 67 69 72 72 67 64 77 74 79 76 80 79 78 83 77 80 78 84 79 78 80 80 84 86 81 80 88 87 92 89 86 88 86 89 87 87 92 91 91 92 95 95 94 96 94 86 88 87 82 80 84 82 82 84 83 85 84 86 83 83 82 82 83 81 85 83 79 81 
102 94 93 73 67 42 32 42 64 71 69 70 71 71 69 70 65 70 72 74 75 77 80 80 81 77 81 82 84 81 77 80 78 79 76 82 79 84 88 88 88 85 85 84 88 89 90 90 90 92 92 90 94 95 94 94 89 87 87 81 81 81 80 81 85 83 83 85 83 85 83 82 84 81 83 83 83 82 80 78 
100 93 86 69 56 34 20 32 57 66 73 67 68 71 65 67 61 63 77 69 76 75 81 77 79 76 78 79 82 78 77 78 76 78 76 80 78 78 85 85 88 89 85 86 86 88 89 90 90 90 91 89 91 96 93 96 90 84 82 83 81 79 79 83 82 84 85 84 82 87 85 81 81 81 82 80 84 84 82 84 
98 87 89 73 52 26 9 26 49 66 66 64 69 70 66 69 64 71 74 75 75 76 79 78 76 80 74 85 84 81 81 77 80 82 79 80 77 78 86 86 85 89 85 85 87 87 88 90 88 92 92 89 95 90 93 93 91 80 82 84 79 86 79 81 82 84 82 85 81 87 87 86 87 84 84 85 85 75 82 88 
101 92 83 64 42 16 0 14 33 55 67 71 74 71 66 65 64 66 74 73 77 74 76 73 73 79 75 78 78 83 77 80 77 76 76 82 77 82 85 85 89 87 84 87 88 88 90 90 93 89 88 92 97 90 90 95 90 82 81 81 83 82 80 86 86 84 86 87 82 88 84 83 85 84 89 87 84 86 75 87 
100 91 83 62 38 11 8 11 35 50 63 68 70 71 66 67 63 65 70 72 75 74 78 72 72 73 73 74 77 76 75 75 78 79 78 80 79 81 85 88 85 85 87 87 86 91 87 96 90 93 87 87 94 91 94 93 86 81 83 80 82 83 81 85 87 86 83 83 82 86 83 82 84 83 84 79 84 85 82 80 
97 91 84 71 47 22 33 45 52 58 65 71 70 67 66 65 64 66 70 70 73 76 76 80 73 69 74 74 83 77 76 78 74 76 76 80 82 79 87 86 88 87 85 89 90 86 86 86 87 89 87 87 94 91 93 94 85 79 80 78 78 77 80 85 87 84 86 86 78 85 86 84 82 82 81 82 84 83 79 83 
92 86 81 63 32 23 0 4 14 44 57 69 66 72 65 65 65 64 67 71 72 75 74 74 71 73 75 72 77 81 77 78 75 74 76 79 80 79 83 86 88 87 87 88 89 84 84 81 87 89 86 86 87 91 93 91 87 82 79 83 74 80 78 83 81 84 85 83 80 85 86 84 83 82 80 81 80 83 73 80 


