P2
80 60
245
37 39 37 42 39 40 42 39 40 39 41 40 42 40 41 40 35 25 21 38 45 45 41 35 45 47 60 59 68 58 58 57 56 56 57 59 57 59 57 58 60 60 59 59 59 57 57 55 58 58 58 58 58 58 62 59 57 60 55 55 54 60 64 60 59 61 57 58 56 60 61 61 62 65 63 63 69 64 62 60 
34 35 39 38 42 39 45 43 35 42 43 44 39 40 41 40 35 22 22 39 45 46 42 40 43 43 51 59 63 58 58 60 56 53 59 59 59 57 56 61 60 59 56 59 60 61 57 60 59 57 56 59 56 59 61 60 60 59 57 54 55 59 59 59 61 60 57 57 57 60 64 62 61 67 65 63 66 64 57 63 
32 37 38 47 40 40 42 44 45 41 43 41 44 44 42 41 35 21 28 33 50 47 40 40 43 44 53 60 63 60 53 62 59 59 60 61 61 58 58 60 62 59 59 60 57 59 58 60 58 56 58 60 59 59 58 56 52 55 59 56 56 61 60 63 62 58 59 62 62 64 68 62 61 67 64 67 65 67 62 61 
30 39 35 42 38 39 42 37 39 41 45 43 44 43 43 41 28 20 27 32 41 49 38 38 43 46 53 58 61 60 57 60 60 56 62 59 63 55 62 60 61 56 61 57 57 61 61 61 62 59 57 59 60 58 59 57 52 55 57 57 58 59 63 61 58 58 58 58 60 62 67 67 61 66 66 65 64 67 62 62 
37 38 39 42 39 40 37 41 39 41 42 42 44 42 47 42 31 21 25 31 42 46 38 35 44 46 56 58 57 56 55 56 58 54 54 59 61 59 62 60 60 62 58 60 62 63 59 61 58 59 61 60 57 60 56 56 58 54 58 55 58 59 63 67 62 61 59 62 62 62 64 64 62 65 67 66 65 64 64 62 
32 32 34 42 39 44 44 40 43 43 40 44 41 44 46 42 31 23 25 37 42 45 40 32 45 47 58 56 60 56 55 56 59 54 57 57 60 58 62 60 60 61 62 61 59 61 65 62 64 59 62 62 57 60 57 61 55 55 59 55 59 59 67 64 62 61 60 66 67 60 65 63 68 67 66 65 67 66 64 58 
34 34 41 47 54 46 46 41 42 42 44 46 41 42 44 38 34 24 25 41 45 41 40 32 38 51 57 60 60 61 55 57 57 56 60 60 65 60 62 58 62 62 56 59 58 63 61 63 61 61 56 61 59 60 59 59 58 59 62 59 59 61 61 63 62 64 60 65 64 63 63 65 64 67 68 67 65 64 64 65 
33 41 47 59 59 59 52 43 39 39 40 42 41 43 43 36 33 27 22 43 42 47 34 31 41 51 61 60 63 57 56 56 54 56 55 63 62 60 61 60 59 60 57 61 60 60 60 58 58 62 60 63 64 59 61 65 58 57 59 56 57 64 62 63 63 65 61 66 65 61 64 66 65 68 64 63 63 63 58 64 
33 36 48 63 62 56 55 42 37 38 44 44 42 40 39 36 31 25 21 42 51 46 34 36 45 51 62 63 61 58 60 56 54 58 55 61 62 59 60 57 61 57 58 59 59 58 59 60 60 60 62 60 60 63 57 58 58 59 58 58 55 61 63 63 65 63 61 63 63 64 64 61 66 66 64 63 63 62 60 58 
27 34 47 61 52 51 48 42 44 36 40 41 43 38 39 38 35 24 19 38 44 48 40 36 44 52 59 57 59 58 55 60 57 56 59 60 62 56 59 57 61 57 59 59 58 58 53 60 59 61 59 58 59 59 60 57 56 52 57 58 56 62 65 65 62 62 62 60 64 60 60 65 65 67 62 65 63 64 63 60 
28 33 45 64 55 55 48 41 38 35 37 42 44 38 41 37 30 23 23 45 44 44 36 38 41 51 58 60 60 58 56 57 56 56 60 60 60 58 63 59 60 56 58 56 58 61 57 61 61 61 61 62 59 59 57 58 56 55 61 55 56 63 63 64 63 60 60 67 63 62 62 63 65 66 65 65 66 64 61 64 
37 39 54 63 60 59 50 42 42 33 40 46 42 42 35 34 22 21 21 42 45 43 39 40 47 52 57 61 60 57 58 62 63 55 59 60 59 59 61 59 63 58 59 60 61 60 59 60 61 57 59 60 61 57 58 58 58 54 56 55 58 66 64 62 67 62 60 61 62 60 66 61 64 69 63 70 66 63 64 62 
43 50 55 70 59 55 52 46 40 37 43 36 38 34 38 30 26 17 22 42 41 44 36 42 47 55 58 59 59 59 59 59 59 58 57 57 58 55 59 59 58 58 57 59 63 61 60 59 61 59 58 60 56 55 57 59 57 57 56 55 59 65 67 66 64 64 62 62 64 61 57 64 65 63 66 67 65 65 62 65 
45 45 52 56 56 54 51 51 50 42 40 42 35 37 35 35 21 16 23 37 46 43 33 39 48 53 63 61 60 61 57 61 61 61 59 57 58 59 59 59 63 56 57 63 60 62 63 62 63 62 60 60 57 57 56 58 57 60 58 58 61 64 65 61 64 63 61 63 64 60 64 59 65 67 63 64 65 69 67 63 
47 46 46 50 49 56 52 51 49 44 37 40 37 35 35 29 24 17 26 35 40 42 35 39 46 53 57 60 58 55 57 58 57 56 61 58 58 58 59 61 61 59 58 61 57 61 59 60 61 61 59 59 59 58 59 58 60 62 58 57 60 61 63 66 64 62 65 64 61 62 63 63 64 69 64 63 65 64 58 64 
44 44 43 50 45 48 52 48 49 43 35 37 38 35 38 35 19 15 29 37 38 43 32 37 40 54 55 59 60 57 54 58 59 57 61 58 58 57 57 61 62 58 59 58 57 59 59 57 61 56 57 63 59 60 58 59 57 57 64 61 60 65 64 65 64 62 64 64 66 62 62 68 67 64 65 68 64 67 67 65 
38 41 43 46 49 51 49 50 47 46 39 37 36 34 40 34 25 20 36 39 42 38 30 37 44 54 61 59 60 56 59 59 62 61 60 59 58 56 58 59 58 59 60 59 58 59 58 58 57 58 58 61 58 58 59 58 60 59 58 60 59 61 63 62 65 61 64 66 62 64 64 67 76 66 63 65 63 68 68 62 
38 40 36 44 46 45 48 47 47 45 37 35 34 33 37 31 21 11 35 38 37 44 33 35 43 62 58 58 59 58 58 59 63 60 59 60 59 59 60 62 63 61 55 59 60 61 58 57 59 55 57 58 53 60 62 57 56 63 60 58 58 63 65 63 64 63 60 63 64 66 65 69 68 70 67 63 64 67 63 63 
39 41 38 45 44 45 46 47 45 45 33 35 35 34 35 29 16 12 36 38 41 42 34 35 44 56 58 57 60 55 58 57 61 61 60 59 59 60 59 65 62 60 57 60 57 58 57 58 59 56 57 56 62 58 60 58 58 55 60 58 60 64 65 65 63 63 60 65 65 64 69 69 68 67 69 65 65 67 62 62 
36 37 40 45 48 43 45 45 47 46 36 30 35 34 35 28 15 20 30 41 38 41 35 39 44 57 58 61 57 61 62 60 58 58 58 61 58 58 59 62 62 60 58 54 54 57 53 57 60 59 56 62 58 57 59 59 51 52 56 55 59 65 61 65 65 59 62 64 65 64 67 67 67 68 64 64 63 64 62 61 
36 36 37 46 42 43 39 41 44 46 38 31 38 35 33 22 17 13 30 38 39 40 33 37 46 54 55 59 59 55 60 58 60 56 56 58 57 57 60 59 59 60 55 56 55 56 57 55 59 58 57 59 58 57 59 50 55 52 58 58 60 60 66 65 63 63 64 64 65 65 68 66 63 69 65 64 63 69 64 64 
34 37 41 46 43 40 41 38 38 41 36 37 35 33 33 20 13 15 30 39 39 41 30 37 43 51 58 56 56 58 58 56 58 56 60 59 57 58 58 59 61 61 58 58 55 55 54 57 56 55 58 57 56 59 57 55 49 52 59 55 60 59 64 66 66 65 62 66 66 69 67 67 66 69 65 66 65 67 67 65 
33 37 39 49 43 39 43 40 33 32 32 34 35 32 32 24 17 14 26 39 37 42 31 35 43 51 57 59 58 60 55 59 58 58 57 60 59 59 56 62 59 59 57 57 60 56 55 57 57 58 60 59 59 57 57 56 52 52 56 55 63 65 67 64 66 68 65 63 64 68 66 69 68 68 67 65 67 70 67 63 
36 36 33 42 39 37 41 42 31 28 32 29 31 34 34 28 11 15 33 36 41 34 32 32 43 54 57 58 59 58 55 59 59 59 58 60 57 58 58 56 58 58 56 57 58 59 54 56 56 59 62 60 58 57 55 54 56 55 57 57 58 62 63 66 66 63 68 66 70 69 69 69 67 68 66 67 67 69 64 66 
30 33 34 36 38 36 40 40 35 29 30 28 33 34 33 25 12 13 29 37 40 38 28 36 44 53 56 58 58 57 59 58 56 57 60 57 57 57 55 59 57 57 58 58 61 55 56 57 59 58 54 59 54 54 55 55 53 53 58 59 63 67 65 64 69 66 67 69 69 69 68 68 68 71 69 68 67 71 68 76 
30 29 30 34 34 37 37 38 31 28 29 29 31 35 29 21 10 12 22 34 34 35 31 34 43 51 54 59 58 56 56 53 57 55 55 57 58 56 57 59 61 60 56 57 56 60 58 58 59 59 57 55 54 56 54 54 53 55 59 58 60 64 65 66 68 63 66 64 64 65 67 67 67 69 72 69 66 73 64 71 
24 25 26 31 30 29 33 32 29 26 24 27 30 26 25 19 10 13 17 34 37 37 36 33 43 50 58 57 58 56 57 56 58 58 58 57 56 57 56 59 60 56 62 55 58 60 57 58 56 54 56 58 55 55 53 55 53 52 54 60 60 60 66 64 65 65 66 68 70 67 65 68 68 66 68 65 67 72 69 64 
25 29 24 33 27 28 25 28 23 24 27 27 28 29 25 19 8 13 27 39 31 32 31 29 45 50 58 58 59 60 56 58 57 56 59 57 56 57 58 62 59 57 58 57 58 58 57 54 56 53 58 57 53 54 56 55 53 52 56 58 66 62 66 65 71 64 69 69 70 72 69 66 67 71 68 68 67 68 63 64 
24 27 20 24 22 19 22 20 20 20 24 26 24 26 23 15 7 6 24 32 26 26 27 28 43 50 53 60 59 56 55 59 56 60 57 57 59 57 61 63 61 59 58 60 57 58 59 58 56 54 55 55 54 54 53 53 53 52 64 58 65 66 65 67 70 68 66 68 69 67 72 68 70 70 72 68 68 70 58 65 
25 20 19 22 14 19 20 17 23 21 21 25 23 26 21 15 4 6 23 27 27 30 24 26 42 51 58 56 56 54 55 56 55 52 58 60 58 59 59 60 63 57 60 59 58 58 56 53 57 56 57 58 56 54 54 53 55 58 65 59 63 66 66 69 67 68 70 71 69 69 69 68 68 72 68 71 67 70 66 67 
22 16 13 16 16 15 18 17 16 18 20 23 25 23 21 14 5 11 18 24 25 19 26 24 42 55 58 57 60 56 55 56 59 56 59 58 58 60 59 62 62 60 62 62 61 58 54 58 57 57 56 59 58 59 61 61 58 64 67 66 66 67 63 72 67 70 68 69 68 70 69 72 71 71 68 71 68 72 67 62 
19 17 12 13 13 15 17 14 12 13 20 20 21 22 18 17 5 3 19 22 20 22 18 21 45 53 56 55 64 56 57 59 60 57 59 62 62 58 58 62 65 60 58 61 59 60 58 60 59 58 59 62 63 63 63 75 75 65 73 68 68 71 72 68 70 74 70 74 72 70 72 71 72 72 72 68 71 72 67 67 
6 10 10 14 13 13 15 15 13 14 17 19 18 21 20 10 3 3 16 21 18 15 16 25 36 49 54 56 59 58 60 60 60 62 65 69 64 65 62 67 66 60 62 62 61 62 60 62 63 62 62 66 64 63 67 102 102 100 91 81 77 75 73 74 71 72 72 77 80 75 75 70 71 74 73 73 70 73 67 65 
7 12 10 14 12 15 13 14 18 16 16 22 22 19 18 11 1 4 19 21 15 15 12 21 35 42 54 56 61 57 60 61 63 77 110 122 101 75 63 64 66 66 62 63 63 64 62 65 62 62 62 66 62 62 65 105 111 108 119 116 107 107 96 87 89 77 78 77 78 76 75 76 76 76 73 73 74 73 70 73 
5 14 16 21 25 24 33 32 32 33 39 45 38 36 31 26 15 8 6 15 14 10 13 18 31 42 49 54 56 55 56 64 66 89 145 153 146 94 64 68 65 69 65 67 69 66 65 60 62 62 62 65 59 56 70 110 114 118 120 122 121 124 124 125 119 98 94 86 82 81 78 75 77 77 75 72 75 73 74 75 
31 44 48 59 60 56 63 61 57 60 64 63 63 62 62 57 57 35 17 15 7 7 7 17 29 38 51 54 54 53 58 62 69 97 164 178 167 96 70 71 81 75 70 66 68 65 66 67 62 59 56 60 57 56 73 117 114 118 123 126 122 131 132 137 144 134 128 122 108 97 90 82 79 81 77 78 79 80 76 75 
46 67 69 76 71 68 69 70 69 66 70 70 64 63 69 66 69 49 16 16 8 4 0 12 23 41 47 48 55 57 54 61 57 89 168 195 165 108 76 80 85 74 71 66 64 61 58 60 59 58 56 59 57 57 86 121 118 119 127 128 132 130 133 140 141 139 134 136 129 123 120 109 96 90 80 82 78 79 77 76 
53 75 77 76 74 76 78 74 78 73 75 78 76 71 73 68 68 68 19 12 8 2 2 10 21 39 47 49 53 56 54 60 66 82 139 154 145 112 71 69 74 65 65 66 63 61 57 59 58 59 58 60 59 58 101 123 119 121 128 133 131 136 141 143 143 146 139 137 137 135 133 132 124 116 105 90 83 82 82 82 
62 74 79 82 77 79 78 77 78 80 78 77 72 75 71 75 72 66 25 11 6 2 3 13 24 41 48 52 51 56 56 58 62 81 116 127 127 114 87 66 66 57 63 63 60 61 58 58 60 60 65 60 62 62 110 126 122 123 130 133 136 143 143 144 145 145 142 138 138 141 135 133 130 133 124 116 105 101 89 84 
63 79 78 85 74 80 79 81 77 79 81 78 78 77 75 76 73 72 53 10 7 2 0 10 24 38 52 50 55 54 55 61 71 95 108 112 110 112 108 85 61 58 60 62 58 60 61 61 60 57 64 62 60 66 119 125 123 121 131 134 141 147 145 148 145 146 147 142 138 144 139 138 135 131 132 126 119 117 110 103 
71 77 76 81 76 79 78 78 76 76 78 79 78 80 75 77 75 71 65 23 7 1 3 7 24 42 51 51 53 51 53 60 83 89 101 101 103 101 107 98 74 59 59 59 59 59 57 61 60 59 62 63 62 73 123 126 122 123 127 134 137 145 147 147 149 150 150 148 146 141 140 138 133 136 131 131 120 121 122 119 
69 75 79 80 78 81 80 81 75 75 77 79 79 80 77 75 78 76 66 48 4 0 0 8 24 44 49 51 54 51 54 65 80 84 89 98 99 98 102 101 91 60 57 59 59 59 60 62 65 63 63 63 64 83 132 129 131 126 132 139 142 146 148 149 151 153 149 153 149 148 142 140 138 139 135 129 121 123 120 122 
80 80 81 82 82 79 83 81 79 79 83 79 83 79 80 78 77 74 70 68 18 4 1 12 25 39 48 50 52 58 55 65 78 78 87 93 95 96 97 91 87 61 58 58 58 59 61 67 70 66 66 70 70 95 138 134 129 129 134 141 145 150 147 158 154 152 155 153 154 150 148 143 142 140 135 131 124 121 124 119 
79 76 77 80 81 80 78 78 72 77 79 83 78 79 80 79 76 76 73 70 43 2 4 9 26 38 48 48 55 54 57 64 72 76 80 83 85 81 77 70 61 57 58 58 57 59 68 75 70 70 73 77 76 108 143 135 131 139 143 145 149 149 152 153 159 155 155 156 156 152 151 148 146 142 142 133 120 127 124 123 
78 81 79 79 78 79 79 78 75 75 79 80 77 80 81 80 84 77 76 71 67 29 8 7 25 37 48 50 51 57 57 63 63 64 68 66 68 65 62 59 63 57 58 60 59 60 65 74 70 70 75 77 78 124 142 136 138 141 142 147 149 150 152 156 161 159 158 158 161 155 151 150 146 148 142 131 124 123 126 125 
80 80 80 81 81 76 78 80 78 79 79 85 83 85 86 82 83 77 79 77 70 60 19 13 24 37 50 51 54 54 56 62 62 61 64 68 67 59 60 61 61 59 56 58 59 64 65 69 70 70 74 79 81 140 153 140 139 145 149 149 151 149 151 155 161 161 163 167 163 156 155 153 149 148 149 131 124 124 126 127 
84 85 81 79 78 80 78 83 76 79 76 84 84 85 81 83 79 77 77 77 77 71 52 23 30 38 57 52 52 56 52 57 59 58 61 61 62 59 57 57 60 59 59 56 55 59 63 63 61 65 67 78 84 141 167 153 153 154 157 152 154 151 155 157 164 162 167 166 164 159 155 153 152 151 154 130 126 125 128 126 
80 85 83 81 79 79 81 81 76 75 79 82 83 83 82 81 81 75 70 75 73 72 64 49 37 37 50 53 55 54 51 56 55 60 57 59 59 57 58 60 57 61 55 59 59 60 63 56 63 60 64 71 76 118 159 181 166 160 160 158 154 152 155 161 163 162 167 169 164 161 159 154 153 158 153 133 126 128 126 132 
82 82 80 87 80 79 79 78 75 75 80 81 82 83 82 81 78 74 69 71 71 76 74 71 64 45 51 52 55 53 52 58 55 54 57 59 62 60 60 63 61 63 60 62 63 59 64 58 58 58 64 71 68 81 102 142 168 181 174 172 166 163 158 159 167 167 172 171 168 165 162 162 158 164 152 137 128 130 126 131 
81 82 82 87 79 81 78 80 79 77 78 81 82 81 88 84 78 74 63 67 66 71 72 70 71 64 54 55 55 54 55 57 58 53 59 59 62 59 64 62 68 64 66 67 63 61 59 57 59 56 65 72 77 80 80 84 112 149 183 201 187 173 166 171 173 177 175 179 176 170 169 165 163 168 151 137 130 136 131 133 
77 78 77 88 85 88 80 82 83 82 80 83 85 85 87 84 78 66 60 60 62 68 73 71 80 72 67 56 55 57 56 57 60 58 69 67 69 68 71 70 74 70 73 71 68 58 59 57 57 57 67 74 87 84 82 87 80 94 132 184 196 197 189 182 183 177 186 188 183 175 173 171 171 179 154 136 129 133 130 135 
68 65 78 87 85 84 81 85 79 82 84 84 82 82 83 79 76 72 57 60 64 68 70 77 80 76 67 63 64 62 61 64 63 60 71 65 69 70 75 68 73 71 75 71 73 63 63 58 57 60 72 78 81 83 83 86 82 79 92 114 145 178 207 212 199 196 198 196 190 187 180 179 174 184 155 139 133 134 135 136 
53 62 78 88 85 82 83 83 79 80 82 83 83 79 79 80 76 75 59 63 60 63 68 76 81 76 72 65 59 59 54 57 60 56 62 67 66 69 71 70 74 71 73 77 70 74 71 62 65 63 74 79 80 77 81 81 79 74 81 80 89 117 167 206 229 211 209 209 203 195 191 185 185 189 150 141 137 139 135 137 
53 66 76 83 90 84 79 80 80 78 82 82 79 81 80 81 79 75 57 60 60 61 71 78 82 79 76 68 61 52 52 55 57 57 61 61 66 62 66 63 71 64 65 69 67 67 66 61 65 65 72 71 73 73 75 73 77 77 79 76 77 86 103 139 189 216 228 219 223 209 196 193 199 188 153 140 141 141 138 137 
50 63 73 86 86 83 82 83 80 82 83 83 83 81 80 82 78 76 62 55 58 63 74 76 79 77 82 66 54 43 50 52 52 50 54 50 54 56 57 60 59 59 55 62 58 57 56 56 57 59 68 71 73 74 70 69 71 78 82 79 74 78 82 86 116 152 190 230 240 230 213 207 203 194 153 144 138 142 141 140 
54 65 77 86 84 83 81 82 81 81 85 85 85 80 84 79 79 78 75 66 71 76 76 75 79 78 76 68 53 42 44 47 50 50 51 49 50 49 52 52 55 53 50 54 46 51 57 56 61 57 60 62 67 66 72 68 66 73 79 80 79 80 80 73 89 92 122 162 215 245 233 217 220 191 153 145 146 142 141 147 
66 70 80 86 82 83 79 79 75 81 85 84 91 84 84 78 81 79 78 81 79 79 76 75 78 75 74 67 63 42 39 42 51 47 50 50 54 51 48 52 54 42 43 55 62 57 56 61 64 57 60 60 63 65 71 69 68 70 72 72 78 77 80 77 83 83 90 102 135 183 207 229 230 185 156 156 150 150 141 143 
71 76 82 89 80 84 82 82 80 84 83 87 85 84 84 81 81 77 81 81 79 78 78 74 79 72 74 70 72 55 36 40 48 50 54 54 56 54 51 58 55 47 47 55 64 67 68 64 62 66 64 63 64 64 71 73 73 69 70 68 74 78 78 77 78 81 85 82 91 106 143 174 185 171 163 161 156 155 151 153 
81 81 80 87 82 87 88 80 81 78 85 83 83 82 82 77 79 77 81 84 82 80 75 76 78 74 73 67 66 62 46 42 47 52 59 58 59 57 54 58 61 56 62 56 59 62 68 67 65 63 67 69 69 65 69 68 71 73 75 68 70 74 71 73 78 78 79 76 85 85 88 103 120 120 147 162 162 159 155 161 
83 85 84 86 86 87 86 85 81 80 82 84 85 83 82 79 85 78 80 82 80 79 75 74 75 72 70 66 65 65 59 50 54 55 62 60 62 59 65 62 62 61 62 62 57 58 62 66 67 64 65 71 72 65 65 71 71 75 81 77 72 75 73 73 78 72 77 79 79 85 85 85 85 89 109 135 165 163 160 160 


