P2
80 60
132
108 107 104 99 102 102 104 106 108 109 111 108 114 114 113 115 117 112 115 112 112 117 117 116 118 119 118 119 118 121 118 111 116 114 118 118 113 117 115 118 119 117 119 121 118 117 117 116 122 118 118 118 121 118 120 122 121 122 116 120 115 115 119 114 113 116 110 107 110 112 107 107 108 109 111 107 107 103 105 106 
117 110 110 103 100 97 103 110 112 112 112 114 117 114 115 116 117 118 111 113 112 118 119 116 122 119 121 120 120 123 120 113 112 117 118 118 117 117 119 117 119 117 121 117 116 118 119 122 121 118 119 118 116 121 121 126 123 120 115 119 116 116 118 114 113 112 111 111 107 110 106 107 105 108 107 107 104 102 107 108 
116 111 102 102 98 98 105 109 109 106 110 113 116 109 113 114 115 113 112 114 114 115 116 114 117 116 124 119 118 123 115 114 113 117 122 116 115 121 115 119 123 120 122 117 116 118 115 123 124 122 120 118 117 121 119 123 121 119 121 120 116 116 112 115 112 111 112 108 107 108 109 111 108 108 109 108 108 105 108 108 
114 113 108 101 99 96 104 108 109 112 113 113 112 114 116 114 116 116 113 115 115 116 117 115 119 115 124 118 121 121 115 112 116 119 121 116 117 125 123 119 122 116 119 117 114 119 119 122 126 121 120 119 120 118 116 118 120 121 118 117 118 115 116 114 112 112 112 113 109 110 110 113 108 107 107 108 109 106 109 105 
119 109 106 101 100 101 101 107 113 112 110 111 113 112 114 115 117 116 112 113 111 118 117 112 118 119 124 120 121 121 113 110 113 114 118 122 120 118 121 119 121 116 119 117 119 118 120 123 122 123 121 121 118 121 120 120 120 118 118 117 119 116 117 117 112 111 112 111 111 109 111 108 112 109 110 108 105 106 107 104 
118 108 99 102 101 99 103 107 115 109 110 108 107 113 113 115 115 114 111 114 112 119 119 115 117 118 119 118 120 123 114 107 114 114 118 119 115 119 118 118 120 115 120 119 118 117 123 122 123 121 120 124 121 119 118 120 119 118 122 121 117 116 115 112 116 111 110 113 114 109 111 111 111 108 109 107 105 109 108 105 
117 106 101 99 101 100 104 104 110 108 111 105 109 116 111 112 120 111 110 115 113 116 115 117 118 117 118 117 119 119 113 108 113 117 114 119 118 118 119 117 118 116 120 116 119 119 120 121 122 121 119 123 118 121 119 122 120 126 127 118 115 115 115 112 115 114 113 112 113 109 108 107 108 109 107 107 103 104 104 106 
116 110 100 100 99 104 103 109 113 109 109 110 109 113 112 114 115 112 108 112 119 112 117 118 118 117 119 118 117 121 111 110 115 115 116 118 117 119 118 116 117 117 119 117 118 115 121 119 119 122 121 118 121 120 119 119 121 123 119 117 118 116 117 112 116 117 114 114 116 111 106 108 104 106 108 107 103 102 109 106 
116 111 104 100 98 100 108 108 108 110 111 108 110 112 111 112 112 108 107 107 110 117 110 115 117 118 116 114 117 119 109 109 112 115 117 117 117 116 119 114 115 115 120 117 114 116 116 116 119 118 119 120 119 119 119 121 118 118 115 113 112 112 116 113 114 114 113 113 111 112 108 110 107 107 104 104 103 103 104 102 
113 111 107 101 98 94 102 108 110 109 112 108 112 108 111 111 115 110 105 109 109 116 115 111 116 115 117 117 116 115 97 110 112 114 118 115 113 115 116 115 115 113 116 116 116 115 116 117 115 120 119 117 117 117 118 119 119 109 117 116 113 113 116 113 113 113 115 115 112 106 106 111 103 109 106 109 107 105 106 106 
113 111 102 102 103 99 104 101 106 111 111 113 111 108 110 114 111 109 108 107 106 111 113 110 114 115 115 115 115 115 106 110 114 113 114 113 113 116 113 116 117 114 119 113 116 116 114 118 120 117 121 118 117 117 118 119 118 118 119 116 114 112 115 114 112 113 114 113 109 108 108 106 104 107 106 112 105 104 105 105 
112 106 104 105 95 98 103 104 106 106 107 105 108 109 105 104 106 104 105 107 108 110 110 111 112 112 112 112 114 114 108 109 113 114 114 112 108 112 113 115 115 113 114 115 115 113 117 120 119 115 115 118 116 115 118 116 118 118 116 114 115 114 115 112 110 111 110 109 108 102 105 107 103 107 107 113 107 101 108 105 
111 108 105 103 99 99 99 101 106 107 106 104 103 106 102 105 105 104 105 107 105 111 111 109 109 115 114 113 114 114 104 111 116 117 114 112 115 114 117 112 113 113 115 114 117 114 120 117 121 119 117 116 114 114 116 119 118 116 114 113 116 112 117 110 113 110 109 111 105 107 97 106 105 112 109 108 108 106 109 105 
113 109 97 101 94 97 103 99 99 100 101 102 101 107 102 104 105 105 105 107 108 107 109 109 107 108 109 111 110 110 104 108 112 118 116 111 112 114 111 111 114 113 115 111 113 118 118 122 121 124 119 114 114 116 116 119 116 119 118 116 116 114 116 111 113 113 112 113 105 106 107 109 106 108 107 107 105 103 111 104 
118 98 91 92 98 96 98 99 96 102 101 102 103 106 103 102 104 104 101 103 100 106 110 109 109 109 111 108 111 111 104 103 110 112 113 110 109 111 108 113 112 112 114 110 114 115 117 117 118 118 118 117 114 114 115 121 118 132 118 115 111 111 115 113 108 110 110 110 111 109 105 106 109 107 107 110 106 107 105 106 
108 85 71 91 94 91 96 97 100 99 101 103 103 104 104 105 103 101 101 104 102 108 108 106 109 111 110 110 115 112 104 103 112 115 116 112 109 111 114 109 113 113 112 114 115 116 115 116 118 116 117 116 115 119 117 119 118 122 119 115 113 115 115 111 113 111 114 110 110 107 107 109 112 111 108 109 104 110 110 105 
105 68 53 77 90 91 99 95 103 96 103 99 100 101 100 101 105 100 101 101 105 104 105 107 109 108 106 109 109 108 100 104 109 115 114 110 110 110 110 111 111 111 117 112 111 115 116 116 114 114 113 116 112 116 118 117 120 119 119 112 116 114 111 112 108 113 110 109 109 108 107 110 117 110 110 107 102 106 108 110 
102 55 36 65 88 91 96 95 97 92 95 96 98 99 99 102 104 98 102 103 101 104 107 103 107 105 105 108 107 106 100 105 113 114 112 111 110 108 108 114 111 110 112 110 112 113 115 113 114 112 112 113 111 115 118 116 118 120 116 115 112 109 112 107 110 109 107 108 109 108 107 111 110 109 106 104 101 104 104 104 
99 46 25 56 84 88 93 94 95 91 94 99 98 103 100 99 102 101 102 102 103 103 106 105 105 106 109 105 110 106 102 107 115 114 113 112 109 109 110 114 111 111 111 109 110 107 112 111 113 114 114 113 113 113 117 118 117 117 114 114 112 110 112 111 111 111 108 110 109 108 107 111 107 109 107 106 104 102 103 102 
100 45 10 40 79 90 94 91 91 92 95 98 99 99 101 100 100 96 96 102 99 105 109 107 108 106 112 107 108 106 103 105 117 112 112 110 107 112 110 110 109 109 109 110 109 109 110 112 110 113 117 113 112 111 115 117 115 114 114 113 112 112 110 106 108 109 108 108 107 108 107 110 109 106 105 104 105 103 107 101 
101 41 2 33 75 88 91 96 92 93 97 98 98 100 97 99 97 96 98 98 102 102 105 104 107 105 108 106 108 105 108 101 113 112 111 110 105 109 109 111 108 109 108 108 111 107 109 109 108 112 114 112 117 114 116 114 116 117 115 115 113 112 109 109 110 106 109 108 110 111 105 106 105 104 104 105 104 102 105 104 
99 39 0 32 73 82 90 88 96 87 94 94 102 102 98 97 96 97 96 98 99 105 108 104 106 105 106 107 106 105 99 103 109 110 110 108 107 111 103 108 107 108 107 106 110 106 108 109 110 110 113 112 113 111 115 113 111 114 118 114 113 108 112 111 110 110 110 108 109 111 107 109 110 107 105 101 104 103 106 105 
93 40 2 29 74 87 93 94 97 92 89 96 94 98 93 93 97 96 100 99 102 103 103 104 105 104 105 104 105 105 99 102 109 109 108 108 107 107 106 109 107 107 106 106 108 106 109 110 113 113 115 112 111 112 112 112 112 114 114 112 112 111 113 111 109 114 113 112 113 108 110 107 108 110 107 105 103 103 105 104 
99 40 3 25 70 85 91 98 94 94 91 90 94 90 96 93 96 97 97 98 103 102 102 101 103 103 104 106 104 104 95 101 108 106 104 105 103 103 101 103 101 107 105 106 106 104 108 109 110 114 114 112 112 110 111 112 112 112 111 112 113 109 112 108 110 113 113 112 111 110 111 108 107 106 105 103 103 102 106 106 
99 40 7 12 71 80 93 94 94 93 91 93 90 91 90 94 95 96 99 100 100 101 100 103 104 101 104 106 104 103 98 103 107 105 104 102 102 101 103 103 102 102 103 106 107 104 107 106 111 113 112 111 109 108 113 114 112 111 111 110 108 111 110 110 113 110 113 110 110 109 108 108 111 109 105 103 103 102 107 107 
98 44 4 11 59 88 88 93 91 92 89 89 88 91 93 93 94 92 94 99 99 100 100 103 103 103 105 104 104 100 95 102 108 105 102 101 103 101 103 103 103 103 104 104 106 105 106 113 111 109 111 109 107 111 111 110 111 108 109 108 108 109 109 110 114 114 111 110 108 113 107 108 108 108 108 107 107 103 107 104 
97 40 4 13 61 87 94 94 93 88 88 87 90 90 88 93 95 91 94 98 101 102 106 102 104 101 103 103 101 100 98 102 105 104 104 100 101 100 100 99 103 100 105 105 106 105 107 112 108 109 111 108 106 108 109 113 107 109 112 109 108 108 110 106 112 113 112 110 111 113 110 108 107 109 106 105 106 105 107 105 
103 62 8 26 60 89 94 97 89 86 84 87 89 89 87 90 95 93 95 101 99 101 103 102 101 102 104 104 103 103 95 101 106 104 103 98 101 100 101 103 102 102 107 104 104 102 105 107 108 109 108 108 106 107 108 108 109 108 110 110 108 110 112 111 111 112 109 112 111 114 107 108 107 107 109 106 102 104 108 114 
105 76 32 35 62 89 96 99 94 87 83 84 84 89 87 87 95 91 92 97 99 100 100 105 99 98 98 98 101 98 99 102 107 103 101 101 101 100 100 104 101 100 106 102 103 103 107 106 108 108 108 110 106 108 106 108 107 110 105 108 105 107 109 110 111 114 114 114 113 111 111 107 106 106 110 104 103 104 109 102 
106 86 54 50 73 89 96 99 98 93 86 84 85 90 85 86 88 89 90 93 98 95 98 99 98 98 103 100 98 98 97 106 103 98 100 100 99 98 99 100 100 103 105 104 104 105 108 108 107 107 108 108 103 104 107 107 108 107 107 103 105 106 112 111 109 113 117 113 111 110 110 107 107 106 107 108 102 105 108 107 
108 98 67 65 76 98 99 98 97 92 88 87 89 80 85 90 94 90 88 94 94 95 97 101 95 99 98 98 98 99 98 101 107 99 101 99 99 100 100 98 101 101 107 103 103 107 106 108 105 104 108 106 107 103 110 108 108 108 105 105 105 107 112 110 111 113 112 112 112 109 107 110 108 105 106 109 102 106 106 104 
112 103 86 80 92 94 99 97 100 90 89 84 84 83 85 89 88 88 89 93 90 92 93 94 95 93 100 96 97 93 99 100 103 99 98 101 99 97 97 100 105 102 101 106 104 102 105 107 105 110 108 104 104 107 107 110 107 107 106 103 107 107 110 108 109 108 112 113 113 115 111 108 108 107 112 104 105 103 108 103 
102 95 89 94 98 99 97 97 95 92 93 90 89 90 87 86 90 86 86 89 91 95 92 95 95 99 98 96 96 96 98 104 101 100 100 97 94 97 100 98 101 98 105 102 100 104 104 104 106 105 105 102 104 104 108 111 107 106 103 104 105 109 113 107 111 111 111 112 114 110 110 111 105 106 110 104 105 103 105 104 
105 96 88 90 99 97 97 99 97 94 93 92 91 93 89 89 89 89 86 91 90 92 93 94 96 96 98 95 95 97 100 101 101 98 96 96 96 96 98 100 98 98 102 100 101 103 105 106 102 106 103 108 107 105 105 106 106 105 104 102 106 108 109 109 110 110 109 111 112 110 109 111 103 103 107 105 103 105 102 106 
104 101 88 95 101 99 100 103 101 96 96 96 94 95 90 90 92 88 87 93 90 93 94 95 95 96 99 95 96 96 99 100 100 95 99 95 95 97 99 98 99 99 101 101 100 104 104 103 104 104 110 107 104 105 108 105 108 106 102 103 106 107 110 109 110 108 111 110 112 111 110 106 107 105 106 104 102 103 105 104 
101 101 90 93 98 99 98 98 97 97 94 93 92 97 94 93 90 90 89 90 91 95 93 94 95 95 97 96 92 94 97 99 101 98 96 97 96 94 96 98 95 95 100 102 102 101 103 105 105 107 107 108 105 102 107 107 107 105 101 104 106 108 109 107 111 109 111 110 109 107 105 105 103 105 104 105 102 108 106 105 
101 102 89 93 96 99 100 97 101 100 99 91 93 98 95 94 93 92 92 95 94 94 96 93 98 95 99 95 91 91 97 99 98 96 97 94 97 96 96 90 98 96 99 99 103 97 100 104 105 104 104 111 105 103 105 105 110 101 105 105 108 105 107 107 109 110 109 109 111 105 107 104 105 107 103 107 103 106 107 105 
104 102 91 93 99 100 100 97 100 99 97 99 99 97 94 96 96 98 93 98 95 96 99 98 101 101 100 94 90 91 95 100 96 95 95 93 98 98 95 97 99 94 101 99 101 101 103 104 106 106 106 104 103 106 106 109 106 100 104 105 106 105 109 106 108 113 109 113 108 109 102 102 104 104 105 108 103 105 107 102 
103 103 97 94 92 96 97 99 99 99 98 101 97 98 94 99 97 102 95 94 95 98 101 101 102 99 103 94 96 92 94 98 96 97 94 92 93 94 101 95 94 93 100 98 98 98 99 102 102 106 104 107 107 105 107 105 106 102 105 106 105 105 108 105 111 109 108 106 105 108 104 104 104 104 103 104 105 104 105 104 
101 98 95 92 89 94 95 99 99 97 107 98 98 100 96 95 98 97 94 96 97 100 96 99 101 102 105 97 93 94 93 96 97 93 92 91 94 95 94 93 93 94 96 99 96 101 103 98 103 104 104 105 107 106 106 104 105 104 107 104 104 103 107 102 106 107 107 107 105 106 105 104 100 106 105 106 105 108 109 111 
101 103 95 89 88 94 95 96 95 98 98 97 97 100 95 96 98 99 98 98 96 96 95 95 100 103 106 97 91 89 95 96 95 91 94 92 93 92 93 94 94 95 98 97 97 102 102 101 102 105 106 111 106 111 106 106 103 104 102 105 103 105 107 103 108 107 105 105 106 103 101 106 100 105 103 104 104 106 113 110 
97 100 96 86 88 94 96 97 96 97 97 96 96 99 94 100 100 98 98 98 91 97 96 99 100 101 102 97 88 90 95 96 92 90 93 93 98 96 94 92 93 95 99 97 96 101 102 104 102 104 105 104 107 106 104 107 103 105 105 105 105 105 105 104 105 105 106 106 105 102 104 100 104 99 103 102 103 105 108 110 
98 98 97 85 84 90 93 94 96 96 98 96 96 98 94 97 97 97 96 95 94 99 100 98 103 98 101 97 86 90 93 97 89 90 91 93 91 94 95 93 92 93 98 96 98 97 102 102 103 105 106 106 103 102 105 108 107 103 104 107 108 107 108 108 108 105 106 109 103 103 102 104 102 103 104 104 104 105 105 107 
99 95 95 87 82 94 95 91 96 96 97 99 97 97 97 97 98 97 96 99 95 99 99 99 100 98 102 93 87 92 96 97 93 88 89 93 92 90 94 94 98 96 97 96 100 100 102 111 104 104 106 104 108 105 104 108 105 104 106 105 111 110 110 108 108 106 106 106 100 105 102 106 101 104 111 102 101 101 108 105 
99 96 89 82 87 89 93 87 92 99 95 97 98 99 96 95 98 99 97 98 99 100 97 97 97 99 99 92 88 93 97 96 95 89 88 89 96 95 93 93 93 93 96 94 100 98 104 108 105 105 109 105 104 108 111 108 108 109 108 108 108 106 107 108 108 109 106 106 105 104 103 102 101 103 104 105 102 104 106 103 
101 95 93 87 86 89 92 92 94 96 97 96 97 104 98 98 100 99 98 98 95 98 96 98 97 100 102 96 85 93 99 94 94 86 94 94 91 91 89 92 95 96 100 99 105 102 107 108 107 109 111 110 108 109 114 109 109 107 110 107 107 106 108 109 108 110 106 111 105 105 102 101 104 105 106 103 103 104 103 105 
99 92 87 85 83 90 91 88 93 93 94 98 100 103 97 98 97 101 96 98 95 97 96 98 102 100 100 94 90 91 94 94 93 88 92 94 91 91 90 94 99 99 101 101 102 103 110 111 109 110 111 110 111 112 113 108 107 108 108 109 104 107 110 106 107 106 106 107 101 102 105 104 103 106 104 102 101 102 105 104 
95 95 89 85 86 90 92 93 95 95 92 98 100 100 98 99 97 98 98 98 97 96 98 100 93 99 99 92 91 94 93 95 92 89 90 93 93 99 96 97 99 103 101 104 107 108 113 110 113 110 112 112 112 111 111 111 109 111 110 106 110 107 111 110 105 109 108 110 105 102 104 102 104 104 105 101 102 101 102 108 
96 90 88 86 90 93 92 96 95 90 94 97 99 100 97 98 98 102 96 97 93 94 99 95 96 96 97 90 89 95 95 94 94 90 92 96 93 100 102 102 100 101 104 105 110 108 112 114 110 108 110 112 112 112 114 115 113 111 108 106 107 106 107 107 107 107 105 107 104 102 102 101 104 103 105 100 99 96 101 97 
96 99 88 93 94 91 92 95 93 92 97 95 97 97 99 99 96 95 96 93 92 96 96 91 93 91 96 93 89 96 97 93 94 95 95 96 96 104 103 107 103 105 105 111 111 113 115 115 116 112 113 112 113 117 113 113 112 111 109 110 108 106 109 108 103 106 105 107 107 108 105 104 107 105 96 101 101 99 100 100 
98 98 89 93 94 90 92 91 93 90 90 90 96 98 93 93 94 92 95 96 92 96 89 92 92 91 96 90 87 92 91 91 92 93 99 99 94 102 104 107 105 103 104 111 110 114 111 115 115 114 112 111 114 112 112 113 112 113 110 110 111 109 108 106 106 106 105 103 103 104 102 104 104 98 100 102 100 101 103 103 
100 97 93 90 90 92 89 90 92 89 92 89 92 98 96 92 94 92 94 93 96 93 89 92 92 94 95 91 86 92 95 92 93 93 95 98 101 103 103 107 107 107 107 112 112 108 109 114 114 114 115 114 111 113 109 114 112 112 116 112 106 106 108 103 106 104 105 108 105 107 103 100 102 103 102 105 102 96 99 102 
101 94 94 91 93 95 92 91 95 88 89 92 93 97 92 96 94 94 94 94 91 94 91 92 96 95 96 90 90 96 94 93 91 94 99 98 97 102 107 106 105 108 107 111 106 110 114 116 114 113 115 109 115 114 118 114 115 113 112 108 106 110 111 105 106 108 105 104 105 104 102 102 101 100 105 100 100 99 102 101 
105 101 92 95 101 95 92 88 90 90 93 90 97 94 92 96 94 92 93 91 92 94 93 93 97 95 93 92 88 93 94 93 94 95 95 100 99 103 108 108 104 105 108 107 110 109 114 114 115 114 113 114 112 112 114 118 117 113 112 110 106 110 111 106 105 107 105 106 106 104 102 101 103 103 104 101 97 102 101 104 
103 102 98 94 95 94 89 88 92 92 93 94 98 96 93 95 97 93 91 92 89 91 93 91 93 97 102 89 90 93 92 92 94 94 95 100 96 105 106 106 104 107 106 107 108 108 112 115 112 114 113 115 114 113 111 114 113 112 112 105 107 108 110 103 105 106 108 109 107 105 107 106 100 101 103 101 99 101 98 96 
99 98 96 94 94 98 95 90 91 93 92 97 96 101 97 94 91 96 96 91 91 93 92 95 90 93 98 92 89 92 92 91 91 92 98 99 99 100 106 102 102 105 107 108 109 106 110 113 110 114 114 114 112 113 113 111 113 111 109 108 107 106 108 106 106 107 108 105 107 108 107 103 102 100 101 101 98 99 107 101 
100 100 99 96 94 96 91 91 91 94 97 98 104 100 96 96 96 95 95 98 94 95 95 93 93 92 93 95 92 92 91 91 91 96 96 97 94 100 101 100 105 105 105 106 106 109 111 110 115 115 113 111 112 110 113 114 113 111 110 105 108 109 109 107 110 107 107 107 109 104 105 99 101 101 102 104 99 98 99 100 
101 99 94 91 95 96 94 91 97 98 98 94 101 99 96 96 97 96 95 94 93 92 94 90 92 91 93 90 91 95 90 90 92 96 98 93 100 99 102 101 103 103 106 103 106 107 108 120 113 114 112 114 113 113 107 112 113 113 114 108 108 109 108 106 107 109 104 104 105 108 107 102 105 101 100 103 98 101 103 102 
101 97 98 96 94 97 97 93 96 97 99 96 97 99 98 98 99 97 94 95 92 93 90 94 94 93 96 88 95 89 85 87 91 93 96 97 100 101 102 102 106 106 110 104 107 108 109 114 115 116 112 113 114 111 113 115 114 110 108 112 107 108 105 105 108 108 106 106 103 107 105 102 105 102 101 102 101 98 102 103 
97 97 94 92 94 94 94 93 96 96 98 94 99 104 97 96 100 98 93 96 90 91 92 91 92 91 96 90 91 94 86 88 92 92 96 99 102 99 101 99 102 105 105 106 105 109 111 113 111 113 113 112 113 112 115 110 114 110 111 111 108 108 108 105 108 103 103 103 104 100 103 102 100 98 98 100 104 97 99 101 


