P2
80 60
29
20 22 15 17 19 15 14 17 14 15 15 21 14 17 14 13 16 18 18 17 18 16 20 17 15 17 16 14 17 17 18 19 18 17 15 16 15 17 13 17 16 15 18 15 13 14 14 17 25 18 16 15 16 17 15 16 17 16 15 14 12 17 18 11 10 13 11 8 12 9 9 9 9 12 13 13 10 6 6 9 
17 15 16 15 15 18 14 15 16 18 16 20 11 14 17 18 19 14 14 18 16 18 17 15 15 14 15 16 16 19 19 18 14 15 18 16 15 16 14 16 17 13 15 17 13 16 12 18 16 17 16 14 15 17 15 18 19 19 17 15 15 15 16 14 14 5 9 9 8 7 9 10 8 14 13 10 7 6 3 7 
16 18 13 15 17 13 16 18 17 18 19 17 15 15 16 18 18 16 19 20 18 17 16 14 16 13 15 16 15 18 18 18 17 15 19 17 17 16 17 15 11 15 13 14 13 14 15 15 17 18 13 13 16 18 12 16 21 15 16 16 15 18 15 11 12 6 8 8 9 6 12 9 12 14 14 10 20 8 7 6 
15 20 15 17 19 16 16 17 17 13 20 20 11 16 14 17 18 17 19 20 18 17 14 15 16 16 18 15 16 17 17 19 16 16 14 14 18 20 16 13 12 12 12 14 13 15 14 14 21 17 15 13 18 15 16 14 14 16 18 15 19 19 16 11 11 9 7 7 10 9 10 11 7 10 17 9 6 10 11 8 
19 20 18 19 15 15 16 17 17 20 17 17 16 14 18 18 16 17 15 19 20 19 16 16 17 19 20 15 14 13 15 17 11 16 12 15 16 16 17 13 16 14 18 17 16 17 21 17 18 18 17 14 18 16 17 18 17 19 17 14 17 19 18 16 11 12 12 11 12 10 10 10 10 9 13 6 8 8 8 10 
21 22 16 16 20 14 12 18 18 17 17 16 17 16 15 17 19 17 21 23 19 23 19 18 17 17 17 20 15 12 19 16 16 12 13 13 18 22 18 18 14 19 18 15 17 17 20 20 16 16 18 17 18 15 21 19 18 17 17 15 17 20 18 18 11 15 12 12 17 13 9 8 9 10 9 9 9 10 3 11 
21 23 17 18 14 16 16 16 19 19 18 20 17 18 17 19 22 17 15 22 18 21 19 16 15 16 16 19 16 15 17 16 16 15 16 17 19 18 18 15 20 21 15 16 16 18 18 19 18 18 18 21 20 17 22 17 17 21 22 17 17 19 17 17 17 13 13 14 14 10 8 8 10 10 11 7 9 10 8 7 
24 22 16 19 16 18 16 19 14 18 17 16 14 16 13 21 19 20 18 21 24 22 18 18 19 18 17 17 18 19 18 17 12 15 17 19 18 15 18 16 16 18 15 18 12 13 18 15 18 17 15 14 22 13 18 19 17 18 19 14 16 15 18 16 12 15 8 7 12 10 8 8 10 7 8 6 8 8 6 11 
22 23 19 20 18 17 15 19 17 18 18 17 16 18 18 14 17 20 16 20 18 23 17 16 15 15 15 16 17 13 17 12 14 13 14 17 19 15 15 16 12 11 14 16 15 12 15 13 20 14 14 13 16 17 14 14 16 17 16 17 17 15 16 10 11 10 9 8 12 10 8 7 9 10 10 6 5 7 7 8 
23 23 24 25 20 21 18 21 19 17 17 19 15 14 15 17 22 19 20 16 17 20 20 17 19 16 17 18 13 17 17 16 14 14 17 16 14 13 13 13 10 13 11 14 14 13 15 16 19 15 16 12 13 12 16 14 14 19 16 16 16 16 12 13 12 9 9 7 13 11 8 8 7 9 6 9 4 8 8 4 
29 27 21 23 23 19 20 22 21 24 15 19 15 14 16 15 17 20 16 17 21 20 20 17 18 15 14 18 16 16 12 14 14 13 13 12 15 13 16 14 16 12 13 13 10 16 16 17 15 14 18 13 17 15 17 17 15 19 17 13 17 19 14 11 11 11 11 6 14 7 6 9 6 10 11 10 6 7 7 8 
23 26 22 19 22 19 17 22 19 16 17 14 16 13 17 16 14 14 13 19 18 22 23 16 15 15 14 15 12 16 15 15 16 15 14 15 15 16 16 13 18 10 13 14 13 14 21 19 15 14 17 16 14 16 16 16 16 18 17 15 19 18 16 13 8 14 10 12 12 5 13 8 7 14 8 14 4 10 9 7 
23 24 18 20 22 19 17 22 14 19 15 20 15 17 15 15 16 15 14 16 16 19 18 15 12 14 13 15 14 17 18 14 17 17 15 11 16 15 17 13 15 12 12 11 16 17 20 16 17 17 18 15 11 12 17 13 19 19 16 12 14 15 20 14 10 10 13 11 10 12 0 12 6 8 15 9 13 9 9 7 
25 24 22 16 22 16 12 17 13 17 12 16 16 14 16 20 12 14 15 15 15 19 17 16 15 12 14 13 16 16 17 17 13 16 13 14 16 17 14 13 14 11 12 16 12 16 17 19 14 16 18 15 12 13 20 18 18 19 17 15 16 16 18 13 10 10 11 13 9 5 9 6 8 6 12 5 6 5 6 0 
26 24 23 21 17 17 16 18 15 15 13 15 13 10 16 16 14 15 11 13 14 16 15 15 13 15 13 16 13 13 18 17 13 15 14 10 13 14 13 15 12 13 13 12 15 15 14 15 13 16 14 13 13 15 20 19 18 24 18 12 13 17 16 12 10 11 9 10 12 7 7 4 6 6 5 6 6 4 4 8 
27 27 20 16 19 18 15 17 16 13 12 20 15 13 12 17 13 16 16 18 13 15 15 14 17 13 13 14 14 14 15 13 11 16 14 13 10 14 12 12 13 13 12 15 13 14 15 14 16 15 15 10 17 17 19 17 19 20 18 16 11 16 16 13 12 9 8 8 13 8 8 10 9 11 6 6 9 10 9 12 
26 28 24 20 16 15 15 16 15 12 13 15 13 14 11 15 15 13 14 15 16 16 16 15 15 16 14 18 12 17 13 14 18 16 16 17 12 16 12 15 16 12 12 13 13 19 15 13 12 14 13 13 14 17 18 17 18 18 18 16 15 17 13 15 10 12 10 12 13 12 10 10 14 8 4 7 9 11 15 8 
24 23 20 23 23 21 17 18 15 16 15 17 14 16 15 15 17 15 15 16 16 14 16 16 15 11 14 16 14 14 16 15 13 14 17 15 11 13 13 17 14 10 13 13 14 21 14 16 15 11 14 12 14 16 19 16 18 26 17 16 12 18 13 12 11 9 7 14 13 12 9 7 5 10 7 7 6 11 10 8 
22 24 20 20 24 25 17 15 15 13 15 15 14 13 15 13 14 16 17 15 12 14 21 19 14 13 15 14 17 12 17 12 16 14 15 15 14 14 14 14 13 15 13 16 13 15 17 11 17 13 12 11 17 17 19 16 15 16 15 15 15 16 17 11 12 8 11 14 13 10 10 10 8 8 7 4 3 7 8 6 
22 22 23 17 23 24 17 14 13 16 13 19 13 14 14 16 17 14 16 15 14 18 21 16 14 16 15 14 14 16 19 17 13 15 13 13 15 15 13 12 17 14 12 17 15 15 13 15 16 17 12 14 16 15 15 14 16 13 15 16 15 14 16 16 11 10 9 12 9 8 10 9 8 9 5 5 1 9 11 5 
21 22 23 21 24 22 17 14 14 15 16 17 12 12 14 16 15 16 15 13 17 18 19 14 16 16 14 14 14 16 24 22 15 12 13 14 14 15 14 12 15 16 12 12 13 12 13 13 16 13 15 12 15 14 19 15 13 16 14 16 17 16 16 12 10 9 12 11 13 8 10 10 9 7 7 6 3 8 6 4 
22 24 17 22 21 22 19 17 18 15 15 17 21 14 15 15 13 15 15 18 17 18 19 17 16 14 15 14 14 16 19 17 14 17 12 13 15 16 14 14 12 15 9 12 12 13 15 15 14 17 15 10 14 13 15 16 15 14 16 14 18 18 15 13 10 11 11 12 11 11 12 10 10 11 7 6 6 7 9 6 
22 20 20 21 17 17 18 19 19 16 15 18 13 15 15 14 14 14 14 18 20 12 15 15 15 14 14 15 15 13 18 18 13 9 13 14 13 12 14 16 15 12 10 9 12 12 13 14 13 14 14 14 13 14 15 15 14 17 14 15 18 16 14 12 14 13 8 12 13 11 9 12 9 7 7 8 4 6 9 5 
23 19 21 19 19 18 19 23 15 18 16 18 13 14 16 16 16 13 14 16 17 15 13 16 13 13 13 16 12 13 16 16 11 11 13 15 11 13 12 13 14 11 12 13 13 12 12 12 15 17 13 13 16 14 12 14 14 17 14 12 16 16 14 12 14 11 13 12 15 11 10 11 9 10 11 7 6 9 9 8 
18 18 15 19 16 14 15 18 14 17 17 17 15 12 13 13 14 15 14 14 12 15 13 13 16 15 12 13 12 12 10 12 11 10 12 11 10 13 10 13 14 8 10 12 11 16 10 11 15 14 15 10 13 14 13 12 12 14 12 11 16 13 12 10 12 12 14 9 10 9 11 12 8 10 6 7 4 9 10 8 
23 17 17 15 18 14 17 21 14 15 11 16 17 14 17 17 14 13 11 15 14 16 18 15 16 17 15 15 13 11 11 13 10 13 10 11 10 12 10 11 12 12 12 12 13 15 11 13 11 9 11 12 10 13 12 13 13 15 18 13 12 14 15 12 11 9 11 11 15 12 10 10 8 8 9 9 3 7 7 9 
18 21 15 17 15 14 19 19 12 15 14 16 13 14 14 15 16 14 12 12 17 15 19 18 14 13 12 14 12 10 13 15 13 12 13 10 11 11 12 12 13 9 13 13 12 12 14 12 11 13 11 12 11 10 13 14 12 14 13 10 14 16 13 13 12 10 13 9 10 13 10 8 9 10 8 7 5 8 10 4 
20 20 18 20 19 15 16 15 17 17 15 16 14 13 12 14 13 16 13 13 14 13 14 16 16 15 17 16 11 12 13 12 11 11 11 13 12 12 12 11 12 11 13 14 11 10 11 13 13 12 12 11 14 10 11 12 10 11 12 14 15 14 14 13 13 11 8 9 10 15 9 11 8 13 9 2 5 8 6 7 
22 26 21 18 16 13 16 14 17 14 16 16 16 12 13 14 16 16 11 17 12 15 15 14 13 16 16 16 15 15 13 11 10 12 14 9 12 11 14 14 12 12 13 13 9 10 11 14 15 12 12 8 13 10 15 14 11 12 14 13 14 15 15 12 12 9 9 11 9 8 9 11 6 5 10 4 5 8 9 9 
28 28 22 22 17 17 15 16 16 16 14 18 16 14 15 15 18 16 13 16 16 16 21 16 18 13 16 13 15 13 17 14 13 13 12 16 12 13 14 12 14 12 12 14 11 12 13 12 14 14 14 8 11 13 16 16 14 16 12 12 14 18 16 17 17 14 10 12 12 11 8 7 8 6 9 8 4 7 10 7 
24 24 20 20 19 17 15 13 15 15 14 14 16 14 18 14 15 13 15 15 14 16 16 17 17 15 15 16 14 17 14 12 13 10 13 10 15 12 11 12 11 13 16 14 11 13 11 13 14 16 13 8 12 13 13 11 15 13 9 11 14 16 17 21 16 10 10 12 11 11 11 8 9 10 8 7 7 10 7 4 
21 21 20 21 18 15 15 14 16 16 14 18 15 14 14 15 15 13 13 14 15 14 15 16 14 14 16 14 13 11 15 14 10 11 12 10 10 11 9 12 14 14 13 16 14 12 11 15 18 17 13 9 13 13 13 11 14 12 13 10 13 13 13 12 12 12 11 14 13 8 12 8 9 9 6 4 4 8 4 4 
18 19 19 14 17 18 13 14 16 14 14 16 14 14 13 13 16 16 15 12 13 14 14 14 14 14 15 16 13 12 13 11 10 11 8 11 13 11 14 13 13 15 13 16 14 14 10 10 15 14 13 10 11 13 9 10 12 12 11 13 11 15 14 14 12 10 9 10 12 8 12 7 11 10 10 4 7 4 5 8 
22 19 17 14 22 17 14 16 14 15 15 14 14 14 13 17 15 16 15 17 17 13 14 21 15 15 14 14 16 17 13 14 12 10 11 9 8 11 13 11 13 17 13 13 16 17 13 14 13 13 13 11 12 11 10 13 16 15 11 12 14 16 15 13 11 10 12 11 13 11 10 13 8 10 8 6 6 10 10 8 
17 21 19 15 16 16 13 18 18 16 16 17 15 14 14 13 17 16 16 18 16 14 16 15 17 14 14 15 15 15 16 15 13 12 13 14 12 13 13 12 12 14 13 13 13 16 14 15 14 14 11 14 14 14 12 13 13 16 12 9 11 14 14 13 13 13 11 8 14 12 11 9 11 9 8 6 9 10 10 5 
18 22 17 16 20 19 16 14 20 13 15 15 12 14 14 15 14 16 17 15 14 15 14 15 16 11 11 14 14 13 14 16 16 16 12 10 11 14 12 12 12 15 13 15 11 14 15 18 17 12 14 13 13 15 13 15 12 12 12 14 14 15 13 15 13 12 9 10 15 13 6 9 10 9 10 7 8 14 9 8 
21 24 16 19 19 21 18 19 14 14 13 16 15 16 16 16 16 17 16 19 13 14 17 17 13 15 12 12 14 13 18 16 14 14 12 11 12 13 11 13 16 12 13 12 12 11 16 14 18 14 14 14 15 14 15 16 13 15 11 16 14 13 10 12 13 12 9 9 14 13 12 11 9 12 11 7 7 9 8 10 
21 22 22 21 23 15 18 16 14 17 15 16 17 16 17 12 16 21 16 16 16 15 15 17 15 14 9 15 15 14 18 14 16 13 12 11 12 12 13 12 15 14 12 13 10 14 13 13 18 12 15 14 13 11 14 14 14 14 11 10 13 12 14 14 13 15 10 8 9 9 6 9 8 10 5 7 5 10 8 9 
23 24 24 16 21 19 14 18 20 19 19 17 15 15 13 17 15 15 11 14 17 16 16 15 13 12 11 11 15 13 13 14 16 14 9 13 12 13 12 11 14 12 12 12 12 16 12 14 15 15 15 12 14 14 14 15 15 14 10 12 13 11 12 10 12 13 12 10 7 7 8 8 8 8 8 10 8 10 13 8 
20 24 20 18 20 18 20 18 17 16 17 16 15 15 13 14 16 14 12 15 18 16 19 17 15 15 13 15 13 13 13 15 15 15 13 11 11 13 13 17 14 13 12 14 14 14 18 14 18 14 14 13 15 15 16 15 15 14 11 11 13 14 14 13 10 10 10 8 9 9 11 8 5 11 10 7 11 11 12 10 
22 22 20 17 15 20 17 17 16 15 15 16 14 16 12 15 16 17 14 15 14 15 14 17 18 16 19 13 12 13 16 16 16 15 12 11 10 12 15 14 12 13 12 12 13 14 14 15 18 15 15 15 22 16 14 14 13 13 12 13 16 13 11 13 12 10 10 7 6 5 10 9 4 11 10 7 13 10 12 11 
20 20 21 19 17 17 13 19 15 17 14 16 19 14 13 15 15 14 20 14 16 14 17 16 15 18 19 15 11 12 19 19 16 16 10 14 15 14 16 15 11 13 13 15 11 13 13 18 13 16 14 13 15 17 16 17 17 11 10 11 16 16 12 12 13 11 10 7 9 9 9 9 10 9 9 10 7 9 12 13 
23 20 20 15 18 16 16 15 13 15 18 17 17 15 17 18 15 12 15 16 17 15 16 16 12 16 15 16 9 11 15 16 14 14 12 16 14 16 13 12 12 13 13 14 14 16 13 20 19 16 18 11 14 18 16 15 14 13 12 10 11 19 16 13 12 14 8 7 8 8 7 7 7 7 8 9 7 10 10 12 
22 20 17 18 17 15 13 18 15 16 17 19 15 15 15 15 14 14 17 19 17 15 15 17 14 15 15 12 14 12 17 12 14 11 14 12 10 14 15 14 14 13 12 15 15 17 17 22 19 14 17 9 16 16 13 13 14 15 12 15 13 14 13 12 11 8 8 9 10 9 7 10 9 8 6 7 9 6 7 6 
21 23 21 20 20 17 16 20 14 15 18 17 16 12 18 19 15 17 16 15 19 17 17 17 16 15 11 13 12 11 13 15 12 15 11 13 14 11 14 13 15 11 16 18 13 17 18 21 19 15 14 12 14 11 11 10 12 14 12 13 14 16 12 10 9 13 10 9 11 6 12 9 8 10 8 8 6 8 9 9 
19 20 15 15 19 16 14 17 13 18 15 17 12 15 18 19 18 16 16 15 18 15 16 16 13 14 13 11 9 12 15 14 14 10 13 14 13 13 13 14 12 10 12 15 14 18 15 17 17 15 18 13 14 12 18 13 11 13 13 11 14 14 12 10 12 15 10 11 11 12 7 7 8 8 9 6 4 7 8 8 
20 17 17 13 17 12 13 14 14 14 14 17 18 17 17 18 18 16 17 18 16 15 15 17 13 16 17 13 12 15 14 12 13 14 12 11 11 11 11 9 11 9 12 14 14 13 15 14 16 15 12 14 13 11 15 12 10 13 12 14 13 15 14 11 10 9 11 13 16 7 8 9 9 8 6 3 2 6 9 1 
18 23 15 14 13 18 12 18 15 14 13 16 16 16 19 18 18 16 17 18 14 17 19 16 14 17 14 13 12 15 14 11 10 11 14 11 12 11 12 14 8 13 12 13 14 15 15 13 17 11 14 10 17 11 14 9 15 13 11 12 14 13 12 11 12 12 11 16 13 7 11 8 8 10 6 7 4 5 7 9 
20 22 20 14 10 15 15 19 14 13 12 18 14 14 18 18 17 15 17 15 15 18 20 18 14 12 14 14 11 15 16 12 13 12 11 14 14 14 11 10 11 11 12 14 16 14 17 18 15 14 11 12 12 14 15 13 15 13 13 10 11 12 13 14 13 10 13 13 9 8 9 10 7 7 8 5 7 6 5 6 
21 21 17 17 11 13 14 16 15 16 14 15 15 13 19 18 18 15 17 13 16 15 18 18 14 12 13 13 10 10 13 11 10 10 11 12 15 11 12 11 11 9 13 14 12 12 15 9 11 13 12 11 14 15 13 13 15 14 10 10 10 13 15 11 10 9 8 11 10 8 10 7 5 9 13 7 4 5 5 5 
22 24 18 17 14 13 15 15 13 14 15 15 13 14 17 16 18 16 16 18 14 15 14 17 15 14 12 13 12 13 13 11 14 12 12 11 13 11 14 11 11 9 11 14 12 15 14 12 13 13 12 12 14 12 16 13 13 13 11 15 12 16 11 13 12 9 6 9 11 8 10 7 4 7 8 7 6 9 6 2 
23 21 17 18 17 16 11 13 14 14 14 18 15 15 18 18 19 14 19 13 21 17 16 13 16 15 11 13 7 11 15 11 13 12 16 12 11 12 12 14 11 14 11 13 11 9 12 12 16 14 14 12 10 17 15 16 20 12 13 14 13 13 11 14 12 8 8 8 11 8 9 8 7 10 10 8 7 8 3 4 
19 20 16 17 16 17 15 13 15 15 15 17 12 13 18 15 17 16 18 14 16 17 16 14 18 12 12 14 14 16 14 17 14 13 14 12 14 11 13 11 11 11 9 10 13 11 14 14 21 15 12 12 13 14 14 16 16 16 16 11 15 14 16 12 12 11 8 9 10 11 9 9 5 8 8 9 6 6 4 7 
16 18 18 18 24 21 13 16 14 14 13 15 16 16 17 17 12 15 16 15 12 15 16 15 18 17 15 18 11 13 13 16 10 12 13 13 12 10 13 11 12 9 10 10 10 12 16 16 16 14 13 13 14 15 15 14 19 18 13 12 12 16 13 13 14 11 9 8 11 6 13 9 6 12 5 7 2 7 5 3 
14 21 14 20 15 17 12 15 12 15 18 16 16 13 15 16 18 14 16 17 15 18 15 13 13 15 21 15 16 13 15 15 12 12 10 12 11 9 11 10 9 12 8 11 9 12 14 14 13 13 17 10 9 18 15 17 18 15 12 12 15 15 11 12 11 13 8 8 9 12 11 9 6 10 10 5 7 5 9 8 
13 12 14 12 12 11 13 14 13 15 12 15 18 17 13 16 13 16 17 20 18 20 13 15 15 13 12 13 11 12 11 10 11 10 12 9 10 9 10 7 8 11 9 14 11 14 14 12 14 9 18 10 17 14 14 15 17 14 8 13 13 16 9 13 13 8 10 7 9 10 17 6 5 10 6 5 5 3 4 5 
15 18 13 9 14 15 13 15 16 14 18 18 22 19 14 15 14 15 17 19 19 18 13 14 12 11 13 13 12 13 11 14 9 10 9 11 12 10 10 11 10 9 11 11 11 12 13 15 18 12 13 13 12 13 14 15 14 15 14 12 15 15 12 10 14 11 11 11 10 10 9 11 10 11 11 7 4 10 7 5 
16 17 14 13 15 13 12 15 12 17 17 15 20 16 17 14 15 16 15 16 15 16 19 15 15 13 8 14 13 12 14 11 9 11 11 10 12 10 10 12 12 13 10 13 11 15 16 21 16 14 13 14 12 15 14 13 12 12 12 13 14 14 12 14 11 11 7 8 9 9 6 8 10 7 10 2 4 8 6 9 
16 18 13 13 15 14 15 14 13 17 13 17 16 12 15 15 12 12 15 14 12 17 17 12 12 11 14 11 12 14 9 11 5 9 9 11 13 12 11 12 12 11 10 13 12 13 12 15 16 13 15 17 12 14 18 14 13 12 11 14 14 13 12 12 12 9 6 7 5 7 8 9 7 7 7 5 6 4 6 2 
15 14 14 13 14 17 17 16 15 11 15 17 12 17 13 13 10 11 13 15 14 17 17 18 13 13 12 15 7 12 11 10 7 10 11 14 15 13 13 13 10 11 11 11 11 15 13 14 19 13 10 14 14 12 17 16 13 15 13 11 13 12 10 12 10 10 9 10 10 5 8 12 5 10 7 5 5 6 5 9 


