P2
80 60
37
20 19 21 21 25 23 29 26 28 29 25 22 29 25 27 22 25 25 22 27 26 29 23 22 24 24 29 25 28 25 28 27 31 33 31 29 30 29 29 30 27 27 28 30 32 28 30 30 31 29 26 30 24 26 25 25 30 30 32 25 20 21 24 23 18 19 19 16 15 16 18 16 21 21 16 15 14 14 15 22 
26 19 26 23 24 26 25 27 25 25 26 27 26 25 28 26 29 25 22 25 24 26 25 24 25 24 25 25 26 28 30 29 28 31 31 28 29 32 27 28 30 30 28 31 27 31 30 31 31 29 31 30 26 29 26 28 29 26 25 25 24 23 23 19 18 20 16 17 13 15 15 13 19 19 17 17 17 17 17 14 
25 21 27 24 23 28 26 25 29 25 29 26 25 22 26 26 26 26 25 25 27 27 28 22 28 28 27 25 23 26 29 30 30 30 32 26 29 31 29 28 26 28 28 28 28 28 30 26 30 26 29 31 29 27 29 29 28 28 22 25 24 19 23 23 19 20 15 18 13 13 17 16 20 18 17 18 13 14 16 13 
27 21 27 25 26 27 32 23 24 29 31 27 27 23 23 26 28 26 28 25 25 27 26 25 25 25 27 27 27 30 27 30 31 28 32 30 31 34 31 27 29 27 29 26 28 32 30 31 31 31 30 30 27 29 29 29 31 29 25 27 27 24 23 23 22 22 20 21 17 15 21 19 16 18 16 20 13 16 24 17 
30 25 22 26 28 25 27 24 26 28 26 29 24 25 23 28 25 29 25 26 28 27 29 27 26 27 28 29 28 29 28 29 26 26 27 27 28 30 34 29 28 29 29 30 31 30 32 31 29 29 31 28 30 29 26 27 29 28 27 27 29 27 25 29 25 22 19 24 24 17 20 17 18 16 21 18 14 18 17 17 
22 24 25 27 25 29 31 29 28 26 26 24 26 27 22 26 28 28 26 26 27 30 26 28 24 29 27 26 27 27 24 27 31 27 25 26 31 32 32 27 28 31 31 30 29 31 36 31 31 28 29 30 32 29 27 28 27 31 27 30 29 28 20 30 23 21 21 24 27 18 21 18 19 14 17 13 15 17 16 13 
26 24 24 26 30 27 31 27 29 25 25 25 26 26 24 25 30 28 26 28 27 25 26 24 28 25 29 27 24 28 29 27 29 28 29 28 29 32 31 28 30 28 25 27 30 31 31 30 30 27 28 33 29 27 28 26 31 34 33 29 30 28 27 25 25 21 22 24 23 20 20 19 20 19 17 20 17 16 17 18 
28 24 28 27 28 30 33 27 26 25 25 26 26 26 26 29 28 25 31 27 31 29 24 29 27 27 29 25 25 30 25 25 25 27 30 30 28 29 30 27 29 25 24 32 25 31 34 29 29 27 28 29 30 28 26 27 29 31 29 27 29 26 28 24 23 21 21 22 22 18 15 18 21 21 17 18 18 19 18 15 
27 27 27 27 30 28 30 28 25 27 25 26 28 26 24 27 27 27 26 33 27 27 25 27 25 25 25 31 27 26 30 23 25 25 28 26 29 29 30 30 28 26 25 28 29 28 30 26 27 26 27 30 26 24 25 28 28 28 25 29 28 24 26 21 20 19 21 23 17 18 19 17 17 19 19 19 18 19 15 13 
33 26 28 29 26 29 35 29 25 24 25 29 27 24 23 27 30 26 27 26 27 29 25 26 28 22 26 28 23 28 23 24 25 26 30 24 29 27 28 29 25 25 25 25 27 27 24 25 28 26 28 28 26 26 26 28 29 32 24 26 22 24 24 20 20 21 23 19 23 17 19 18 17 17 19 19 13 16 13 15 
28 27 31 31 29 29 31 29 27 26 23 23 26 23 25 26 29 27 23 25 23 26 25 26 27 23 24 24 23 25 24 27 25 23 26 26 25 26 26 28 27 24 24 25 25 27 24 25 25 23 26 24 23 27 26 26 26 24 25 23 24 25 19 22 21 20 18 23 16 17 17 16 17 22 17 18 16 16 11 10 
31 26 30 31 29 29 31 28 25 26 26 25 22 22 25 24 24 24 23 23 25 25 24 25 25 23 23 25 23 26 25 27 26 27 25 24 25 26 29 25 27 24 25 28 26 30 25 23 26 27 24 23 23 25 25 26 26 26 21 24 25 23 22 24 23 21 21 19 11 10 14 13 15 21 18 20 19 15 12 12 
31 26 31 32 34 30 27 27 25 25 22 26 25 22 22 23 26 26 21 24 23 26 24 25 21 24 26 26 21 29 26 26 26 29 25 26 25 27 30 28 25 23 26 28 31 26 30 26 28 26 30 28 21 23 24 23 29 28 23 23 26 26 25 21 19 17 22 19 18 18 5 17 14 15 15 15 16 16 13 16 
26 27 35 31 27 30 30 24 25 23 24 22 25 25 25 27 26 23 22 20 25 24 23 23 26 22 22 25 24 29 25 25 29 34 29 24 24 31 29 22 25 29 24 27 24 28 27 28 23 29 29 28 20 24 25 25 26 27 24 25 29 24 20 19 18 15 19 18 15 16 22 15 14 16 15 17 14 16 21 14 
31 24 32 27 29 26 27 26 22 23 22 24 24 23 24 23 29 23 20 22 20 24 24 23 24 21 25 24 23 25 25 26 26 28 26 26 26 26 30 26 24 25 26 24 24 26 25 21 26 30 26 25 21 22 25 26 28 37 27 23 22 20 21 20 15 19 19 16 18 14 19 16 15 17 12 15 18 18 21 15 
31 26 31 30 29 26 27 27 26 24 23 25 25 21 23 24 24 20 20 22 23 25 22 25 24 23 24 26 21 25 26 25 25 26 26 26 24 28 30 25 27 24 22 26 25 27 24 23 24 22 24 23 21 29 25 26 27 27 26 29 24 20 23 21 20 22 17 20 19 18 19 16 15 19 15 15 13 18 17 19 
28 29 31 31 31 26 26 23 21 22 25 23 21 22 20 23 25 25 21 22 24 25 22 22 25 20 22 24 23 25 23 26 27 28 23 26 24 23 27 26 26 24 23 23 24 26 24 22 24 19 23 22 22 22 23 25 25 28 23 20 22 24 21 22 19 18 16 23 19 18 20 14 18 17 15 17 13 15 16 18 
29 26 29 29 31 24 31 23 23 25 20 21 23 20 26 24 26 25 22 24 25 22 21 23 23 22 23 25 23 29 29 26 27 26 24 27 23 25 28 28 28 21 25 25 27 25 26 23 23 21 22 23 27 24 25 25 29 36 26 24 27 21 21 21 17 19 14 20 22 17 19 16 17 18 15 15 15 16 15 16 
28 26 31 31 29 29 29 25 23 23 24 23 26 25 23 28 23 24 25 25 22 25 25 24 22 25 25 25 25 27 25 23 27 28 30 26 26 28 25 27 30 27 26 28 23 26 27 24 22 22 21 22 29 24 23 23 26 30 22 19 22 22 19 21 19 21 20 21 19 14 19 15 17 15 12 15 15 14 12 11 
27 27 32 28 27 33 30 24 25 26 27 29 30 24 25 24 25 24 25 26 23 28 25 23 24 27 23 25 24 26 22 26 28 26 26 23 25 30 26 25 28 27 22 26 23 23 24 24 20 23 25 26 25 23 23 24 25 24 20 22 23 21 20 20 22 21 23 22 17 17 19 17 16 18 12 14 13 9 13 12 
28 29 28 25 28 25 29 25 19 26 25 25 23 23 21 21 23 23 23 23 23 26 25 25 24 27 26 25 22 25 35 27 27 25 25 25 27 28 26 27 25 28 24 24 22 24 23 21 20 21 25 23 20 24 23 20 24 25 22 24 22 21 21 20 19 17 21 23 16 21 17 16 13 18 15 15 11 13 15 18 
28 25 30 30 26 27 33 24 24 21 24 25 28 22 22 22 24 25 21 24 19 28 27 25 21 25 25 26 21 28 27 26 25 28 24 23 26 25 23 25 29 25 24 23 22 23 21 18 19 24 25 22 20 18 22 20 23 25 22 22 20 18 20 23 17 21 19 21 17 19 18 17 18 17 15 14 9 12 24 12 
29 25 30 28 29 25 29 27 25 24 23 21 22 23 23 22 26 24 24 22 22 27 22 25 23 21 25 27 25 26 23 25 25 26 24 25 25 26 26 27 27 21 22 21 20 19 24 21 22 24 23 21 20 21 22 22 22 21 20 20 24 18 20 22 22 21 23 20 21 19 17 21 17 16 14 19 10 13 16 12 
27 20 28 29 25 28 29 32 26 23 23 26 22 23 21 23 23 23 24 21 22 24 21 21 20 25 24 20 19 24 21 22 25 25 23 23 23 22 24 26 21 24 20 22 21 20 21 18 22 24 24 21 22 18 19 22 23 22 21 19 20 23 22 22 20 21 23 21 21 19 20 17 16 14 14 16 11 9 19 15 
28 24 28 23 27 23 27 23 25 25 23 28 22 24 24 21 25 23 23 22 22 24 21 20 22 23 22 23 21 24 19 22 22 21 22 21 22 24 25 23 22 17 20 23 24 23 21 22 20 23 20 21 18 21 19 21 22 21 22 21 18 20 22 23 20 21 21 20 19 16 19 11 17 14 15 15 5 11 17 14 
25 24 29 25 27 25 30 28 24 23 24 23 22 21 26 24 24 25 20 21 24 24 24 23 23 22 25 23 22 23 20 23 22 22 19 23 24 25 25 24 22 22 24 25 21 25 20 23 23 18 23 20 18 20 22 19 23 20 20 21 19 18 22 21 18 20 20 20 17 17 16 18 17 16 18 18 14 16 16 15 
27 24 27 30 30 26 29 27 25 24 23 24 22 26 23 22 24 26 22 21 20 27 28 25 22 23 25 23 18 24 22 23 26 24 25 21 22 22 24 24 22 23 20 20 21 21 20 19 19 22 21 20 17 20 21 22 20 19 17 21 22 19 20 19 19 17 20 18 17 13 17 15 19 19 14 16 15 16 18 17 
27 22 29 29 28 23 26 28 26 25 23 24 24 22 22 21 24 24 20 24 22 23 22 24 23 23 26 27 26 26 23 23 21 22 22 21 24 24 26 24 23 21 22 22 20 21 21 19 20 21 22 20 22 20 19 20 22 18 19 21 22 16 23 22 20 17 18 18 17 16 18 15 18 14 16 16 15 15 15 19 
29 26 27 25 25 26 25 29 25 26 23 27 24 23 21 21 19 22 23 24 20 24 21 22 21 24 25 23 22 23 24 22 17 18 19 23 22 23 26 25 22 22 21 19 18 22 20 19 18 19 20 23 19 17 19 19 20 17 19 19 23 20 14 20 18 20 15 18 16 17 18 19 18 15 15 13 14 14 9 16 
26 23 29 29 26 25 28 23 28 23 22 24 26 22 20 19 23 23 22 19 20 24 21 24 22 23 21 24 21 24 19 20 22 20 21 25 23 23 25 20 24 21 24 23 19 21 19 18 23 19 18 22 19 17 18 26 17 20 17 18 20 17 21 20 19 20 20 20 16 16 16 16 16 16 15 15 13 13 11 11 
27 26 29 28 26 23 26 23 25 23 21 24 24 24 20 20 24 25 21 23 21 21 25 23 22 23 22 19 20 24 23 21 23 23 25 24 23 21 22 22 25 22 23 20 21 17 16 18 22 20 20 18 18 21 22 17 24 17 14 17 19 20 20 20 17 18 20 18 19 14 17 19 17 15 15 15 12 11 13 9 
30 24 25 26 23 26 23 19 23 22 20 20 21 23 22 23 28 21 22 23 21 22 22 24 24 24 29 23 20 22 21 21 20 21 21 24 22 20 21 24 27 23 23 24 21 18 17 19 19 24 18 17 19 18 20 18 21 19 19 17 18 19 18 19 19 19 20 17 16 15 17 12 16 14 12 15 10 13 13 10 
28 26 28 31 29 26 24 24 24 22 24 25 23 23 21 22 23 24 19 22 21 22 25 22 22 22 23 26 21 21 20 22 21 21 22 22 21 22 20 21 26 23 22 19 19 20 18 17 21 21 21 20 19 19 21 19 21 20 19 17 19 20 18 20 18 19 19 21 20 18 19 15 15 16 13 14 13 11 11 12 
31 24 29 26 30 29 24 26 25 23 23 27 24 24 20 20 23 23 20 24 23 23 19 23 24 22 23 21 22 23 23 19 22 21 22 23 23 24 23 25 25 26 25 20 20 19 19 17 20 22 22 19 19 17 19 19 24 22 17 16 20 20 20 21 20 17 19 19 17 15 18 18 16 14 16 12 14 13 17 10 
26 21 27 29 27 26 25 23 24 22 22 23 23 24 23 21 26 22 20 22 21 24 22 21 24 26 23 24 24 25 22 22 22 20 22 20 22 21 24 20 18 21 20 21 21 22 19 18 20 20 22 21 17 18 17 18 23 20 18 17 17 17 17 16 17 17 18 17 15 13 15 15 14 14 15 18 12 11 8 13 
26 25 26 27 23 24 23 20 18 23 21 23 20 25 23 21 25 23 21 21 21 23 21 23 23 23 23 22 21 21 21 20 20 23 22 21 26 21 21 22 21 18 20 21 19 18 18 21 20 16 18 19 19 19 20 19 20 22 17 19 18 16 20 20 17 16 14 18 16 16 15 14 13 14 17 13 12 11 11 12 
26 24 28 26 24 26 27 25 21 24 21 22 26 21 21 22 25 27 24 21 22 23 22 23 23 22 19 21 20 23 23 21 23 22 21 20 22 22 21 20 22 22 21 20 20 21 14 16 19 17 17 19 18 20 17 17 19 20 20 15 18 18 17 19 17 17 16 16 14 15 20 12 18 14 11 15 14 11 14 10 
30 27 29 24 24 26 29 26 23 24 19 24 25 22 20 21 25 29 24 22 23 24 22 23 21 20 19 20 20 22 25 23 23 25 19 20 20 22 23 21 24 22 20 20 17 19 19 16 19 15 19 19 16 19 18 20 20 19 18 18 17 17 17 17 19 23 16 17 12 13 16 17 13 12 11 12 9 12 14 16 
23 25 32 30 28 27 23 24 25 21 24 25 25 19 23 21 23 23 24 24 20 24 24 22 22 22 20 20 17 21 23 22 20 25 21 24 22 22 23 23 22 23 23 19 17 16 18 19 19 18 14 19 18 20 22 19 19 19 16 17 18 17 15 17 17 17 20 18 16 14 14 16 12 12 13 13 11 14 16 16 
29 24 27 28 26 25 25 28 23 22 23 24 24 22 22 21 22 23 23 21 23 25 21 23 21 21 24 22 16 20 19 20 21 22 22 23 22 20 23 25 22 23 22 20 19 17 20 15 18 18 20 21 22 21 20 16 15 18 12 16 18 16 16 15 14 14 18 19 16 12 13 13 14 16 12 11 14 15 15 13 
24 23 27 26 23 26 25 25 22 20 20 22 21 23 23 23 20 20 21 21 20 22 18 21 22 22 26 23 17 20 19 19 22 23 21 22 19 21 22 20 18 19 19 15 19 18 19 19 20 19 20 25 21 23 15 16 15 15 13 12 15 15 13 13 11 13 11 14 10 12 10 12 17 12 13 12 10 14 18 13 
28 22 24 25 24 25 25 24 19 24 20 23 24 21 24 19 19 22 23 22 23 24 23 22 21 22 22 20 20 21 20 20 20 15 23 21 23 24 23 21 22 23 19 16 17 19 19 20 18 20 22 21 18 21 17 21 16 20 14 13 17 15 14 17 16 12 16 14 10 11 12 11 15 14 10 12 12 8 16 11 
30 23 29 25 24 24 27 23 22 20 23 24 24 23 25 20 21 20 23 23 22 23 23 22 24 25 19 21 20 21 18 21 21 23 20 26 26 26 21 24 24 19 18 19 19 18 19 22 20 20 19 20 20 19 19 15 20 19 16 15 17 15 19 17 16 13 15 15 11 10 11 10 12 13 12 15 14 11 13 11 
27 23 25 22 21 25 28 23 17 22 22 25 19 21 23 21 25 22 24 20 19 24 19 25 22 23 20 18 19 22 22 23 22 23 23 21 24 23 22 20 22 22 19 20 19 19 19 26 20 16 19 17 20 18 16 14 19 17 17 14 19 18 13 14 15 16 17 13 15 12 16 12 12 9 11 13 11 11 11 14 
25 22 27 22 23 24 26 23 24 20 20 24 23 22 25 21 22 20 22 25 22 25 22 24 21 19 17 19 18 23 23 20 21 20 19 19 21 22 19 19 23 17 17 17 17 17 20 21 21 17 18 16 17 18 15 14 14 16 11 17 17 15 15 15 13 16 17 17 15 12 10 10 10 12 12 14 9 10 11 7 
27 22 24 24 21 20 22 21 20 17 21 22 20 23 22 21 27 21 21 20 22 22 21 21 18 18 18 20 17 21 21 20 21 21 20 23 19 19 21 23 20 19 18 16 14 20 19 18 21 14 19 17 13 17 12 16 14 16 11 11 16 14 12 14 15 17 14 14 16 10 9 9 11 12 13 10 9 9 7 7 
23 21 24 19 22 20 22 21 19 16 20 25 22 18 23 24 23 25 21 19 21 22 23 21 20 21 24 17 15 21 23 20 19 19 19 21 20 23 21 20 20 21 17 17 16 17 17 19 18 16 17 16 15 14 11 12 14 17 9 15 16 19 18 15 13 13 15 16 10 10 11 12 10 12 11 9 10 8 10 10 
20 19 22 20 20 19 23 22 20 19 19 21 21 21 22 22 22 21 21 21 21 24 20 19 18 20 17 19 16 22 18 18 20 20 21 19 19 22 20 19 18 18 16 15 17 18 16 10 17 15 17 15 14 15 12 14 16 14 10 13 14 15 14 14 12 11 13 14 11 12 11 11 10 10 6 8 7 4 8 6 
24 19 24 19 20 19 23 24 23 21 21 20 21 21 23 23 26 20 23 22 20 23 28 26 22 20 20 19 18 20 19 20 20 20 19 18 20 22 20 20 20 19 15 16 15 14 18 12 13 14 13 16 11 14 14 14 17 15 15 14 15 11 14 15 10 12 13 15 10 12 9 10 9 8 10 7 6 7 7 8 
25 20 22 21 20 20 23 21 23 22 19 20 23 21 24 23 24 22 23 20 20 21 21 22 22 18 19 20 19 23 17 19 18 21 20 18 19 20 21 22 21 19 16 14 16 14 12 9 12 12 15 15 13 14 15 16 14 15 12 14 15 16 18 13 12 13 13 12 12 11 13 9 7 11 7 9 6 7 7 8 
20 16 21 21 23 20 24 20 21 20 21 21 18 21 23 21 25 21 22 20 18 22 19 18 19 18 17 19 18 18 16 14 18 21 18 17 20 22 23 21 17 17 16 15 16 11 13 13 12 13 14 15 14 15 16 14 17 14 11 13 15 15 13 16 13 12 12 11 10 8 12 9 6 6 7 9 5 8 9 9 
26 19 23 18 24 25 24 21 20 18 20 24 20 17 21 18 19 22 21 23 22 20 16 21 21 20 16 17 15 22 17 18 16 18 23 19 21 19 18 16 17 17 13 14 13 12 13 11 15 15 16 12 15 18 11 16 15 17 13 14 15 12 17 12 12 11 12 15 8 10 9 10 8 6 7 12 6 8 6 9 
24 19 23 24 22 25 22 19 20 21 17 20 19 18 18 20 22 20 19 23 17 20 18 19 22 18 18 20 16 22 15 18 16 17 18 20 18 16 19 18 20 16 13 14 14 12 11 15 14 9 16 11 12 13 14 15 18 14 18 14 13 15 14 11 10 11 12 9 14 9 9 9 8 8 7 10 6 7 7 7 
22 18 22 24 27 27 23 19 22 19 20 21 21 20 18 20 21 19 17 17 15 23 18 20 21 21 20 23 20 20 20 16 17 18 18 18 19 19 18 17 19 15 12 10 13 11 11 15 12 13 11 15 12 14 14 17 20 13 15 14 11 11 10 10 10 12 10 9 9 9 12 10 8 8 6 8 1 4 6 4 
21 20 23 20 26 21 29 22 22 19 25 22 20 17 20 20 19 22 23 22 17 16 17 21 20 20 22 20 19 17 18 19 16 17 17 16 16 19 16 18 16 15 11 11 10 10 12 15 13 12 15 13 14 14 15 11 18 16 13 11 12 12 9 12 9 9 11 10 8 8 11 10 10 9 12 8 3 3 6 7 
22 18 20 19 18 21 20 19 21 21 20 23 22 21 18 16 20 19 21 17 19 19 17 18 20 23 17 21 17 15 19 15 17 19 13 15 17 17 18 20 17 20 10 11 15 10 9 10 14 13 16 13 13 14 15 15 11 12 9 11 12 12 8 12 9 6 5 7 6 8 12 9 8 10 6 3 3 2 8 7 
17 18 20 19 20 21 21 21 20 21 23 23 28 23 21 19 20 23 20 25 16 18 19 18 15 17 18 18 13 13 13 19 13 17 18 14 15 20 18 19 19 12 14 11 12 10 12 8 15 15 13 11 13 13 12 14 13 11 7 6 10 10 7 10 7 7 4 8 5 5 7 5 5 5 2 9 5 4 6 3 
18 17 19 18 19 20 20 21 21 20 20 22 24 22 18 17 15 21 18 18 20 18 18 15 16 17 18 15 16 18 16 13 17 14 13 13 18 21 15 16 13 15 12 8 7 11 11 14 13 16 12 13 13 12 12 13 12 8 10 9 10 7 9 9 5 10 6 3 5 6 6 2 3 3 5 5 4 4 4 4 
17 15 19 21 19 20 20 18 21 21 16 19 19 18 16 15 21 18 17 18 20 20 22 15 15 14 12 16 19 19 15 15 14 15 14 16 15 19 20 16 17 14 20 9 7 15 14 11 17 14 13 15 11 13 13 13 10 8 10 12 11 8 7 8 10 7 5 6 3 2 3 1 7 5 2 3 2 2 3 0 
20 16 17 21 21 18 19 17 22 19 19 18 18 19 19 20 22 19 19 19 20 19 18 17 20 16 16 18 18 20 17 15 13 15 16 16 20 18 19 19 16 19 14 11 14 12 13 14 14 13 17 11 10 12 7 10 9 14 12 9 11 11 11 11 8 8 8 8 4 4 4 2 7 5 2 4 3 4 4 9 


