P2
80 60
49
39 39 34 36 37 38 38 40 44 40 39 40 44 37 38 37 39 39 36 35 39 39 44 40 34 34 36 39 38 38 40 38 38 46 38 34 36 35 37 37 35 39 38 39 38 35 36 37 40 35 30 35 30 32 34 38 37 40 46 35 31 33 36 31 30 30 31 27 27 31 28 27 27 29 28 32 32 29 31 28 
42 39 37 35 40 37 37 39 39 43 36 40 40 40 39 41 42 36 38 38 39 41 37 39 37 35 37 35 38 35 38 38 37 40 38 33 37 35 33 36 36 35 37 37 36 37 35 36 39 36 31 32 32 34 33 37 42 39 41 34 31 33 34 28 28 30 30 28 25 27 28 24 28 31 28 29 33 28 25 26 
40 41 34 33 39 39 37 36 40 39 40 38 37 35 42 40 37 38 38 34 38 37 39 40 35 36 36 35 39 42 37 38 36 38 36 34 39 37 37 35 35 39 36 35 35 35 36 37 37 34 31 30 32 34 32 36 39 36 36 35 30 31 30 32 29 30 30 31 27 26 30 26 27 30 26 27 29 30 23 24 
44 37 36 34 40 37 37 39 41 45 41 39 36 34 39 35 38 40 35 42 39 39 40 40 37 36 37 37 37 37 35 36 37 35 35 35 36 37 36 35 38 35 37 37 35 40 37 37 38 34 33 33 31 33 34 35 37 36 35 34 27 37 34 33 35 31 31 28 30 30 33 32 26 26 27 34 26 26 24 29 
45 39 32 41 39 37 39 38 42 44 39 38 40 35 38 38 39 41 38 40 40 39 37 36 35 38 39 38 36 36 36 35 35 35 34 33 35 37 41 36 38 37 37 36 39 36 39 39 36 33 31 33 31 34 32 35 38 34 35 33 34 36 34 38 33 29 30 35 31 32 31 27 27 29 29 33 28 27 26 28 
39 40 36 36 40 39 39 40 41 41 42 39 39 39 41 37 39 43 37 41 42 39 38 37 37 37 38 38 39 34 36 35 31 36 34 32 38 37 37 38 43 37 37 37 37 38 39 39 36 33 33 31 32 34 31 33 34 37 33 33 33 36 32 34 35 31 33 31 34 34 32 28 26 27 26 29 28 30 24 23 
37 40 37 34 40 37 40 40 42 39 40 39 38 38 36 39 43 39 41 41 42 37 38 34 34 33 38 35 36 33 38 35 31 34 31 33 34 36 38 35 38 35 32 35 35 37 35 36 35 28 32 34 34 31 31 33 37 37 43 35 30 34 32 29 33 30 31 33 28 31 28 24 23 26 27 28 29 23 21 25 
39 42 38 39 39 41 41 43 41 35 38 39 40 41 36 41 40 40 42 42 41 38 40 34 35 37 37 33 38 38 39 33 32 36 34 37 35 36 37 35 35 34 35 36 32 36 39 33 32 31 31 32 33 32 29 35 34 36 35 33 33 33 37 31 30 31 32 29 31 30 25 27 22 25 27 26 27 22 27 28 
48 47 42 38 42 43 47 42 37 40 40 38 41 37 35 39 39 42 41 44 40 38 39 36 40 38 38 37 39 35 40 35 32 35 38 37 36 35 35 36 35 36 34 34 35 35 35 36 33 30 32 32 31 31 31 32 36 33 41 38 34 34 34 34 28 27 31 31 29 30 27 23 25 26 26 28 29 23 24 26 
48 44 44 42 40 41 46 45 40 40 37 40 36 37 36 42 42 38 42 39 40 39 41 40 38 38 37 38 38 39 35 33 32 32 33 34 37 36 35 34 32 35 31 33 33 35 32 32 34 31 32 31 31 30 36 35 33 35 34 33 28 32 32 27 28 29 30 28 30 27 30 26 25 26 28 29 27 21 24 21 
49 48 39 42 45 42 46 42 40 44 40 37 41 39 37 38 38 38 40 43 38 38 36 38 38 38 37 36 36 34 34 36 34 35 35 33 35 34 37 37 36 34 33 32 31 34 32 35 33 33 31 32 32 29 31 33 34 31 35 31 27 31 29 34 30 28 30 29 30 28 25 25 23 27 27 26 27 23 21 23 
43 46 39 45 44 40 43 38 43 41 35 37 40 37 40 37 36 36 38 39 38 37 35 37 38 36 36 37 36 35 34 36 35 36 32 33 35 31 37 36 34 38 32 36 33 39 34 35 32 33 34 35 30 32 34 34 33 37 33 30 31 33 34 30 28 30 28 28 27 26 25 25 27 30 29 31 29 20 20 23 
43 44 41 46 45 42 38 38 39 39 36 35 36 36 36 34 37 37 35 39 38 35 36 36 33 33 34 35 34 34 36 35 35 37 33 35 34 35 38 35 34 33 33 32 38 35 34 34 35 30 37 35 36 34 34 32 39 35 35 34 30 34 31 32 31 30 29 28 27 27 15 21 22 24 26 27 29 26 23 26 
43 44 45 41 44 37 39 38 41 40 35 37 41 35 38 38 38 35 38 33 38 35 35 35 34 35 35 34 36 34 37 34 37 35 35 32 33 36 33 35 35 33 31 33 34 38 35 34 32 37 34 37 38 38 37 37 38 36 37 36 34 35 33 32 31 31 32 29 27 24 26 23 22 24 26 24 30 25 25 20 
45 43 44 44 44 43 39 39 42 42 36 38 39 34 35 35 36 33 35 35 33 38 37 36 35 38 34 36 37 34 34 32 35 34 34 32 32 31 33 37 36 33 33 32 31 31 35 35 32 33 36 35 34 36 37 39 39 49 39 33 32 34 35 32 30 30 30 29 26 26 30 26 23 31 24 31 31 25 25 26 
46 43 40 40 41 39 37 38 36 37 34 35 41 38 35 37 38 32 37 36 36 35 37 37 35 35 32 35 36 34 38 32 35 35 33 31 32 33 33 35 38 35 32 33 34 33 34 36 32 32 33 29 35 36 36 41 39 39 37 34 30 35 37 32 34 31 29 35 28 29 31 26 25 28 25 26 29 28 21 27 
47 47 39 44 39 38 36 39 39 36 34 38 38 33 38 37 37 34 36 33 37 37 43 36 33 33 32 35 34 35 35 34 35 38 30 30 34 31 33 39 37 33 32 32 32 36 35 34 31 31 31 32 34 36 38 39 38 39 38 29 31 36 33 33 29 29 31 31 30 29 30 24 29 31 25 24 26 23 25 24 
42 46 40 46 41 38 39 35 34 33 33 35 38 39 35 34 36 36 34 36 37 35 38 39 33 32 32 35 34 33 36 35 35 35 32 32 35 33 34 34 34 31 31 34 32 36 32 30 33 28 30 33 35 35 38 34 39 43 39 36 32 30 33 31 30 29 28 28 30 28 28 24 26 25 27 30 27 23 28 28 
45 45 39 40 41 40 35 36 38 35 36 35 36 36 36 36 33 35 36 35 36 35 37 33 36 33 37 36 37 35 35 33 35 34 37 33 33 34 31 35 34 38 28 35 30 35 32 31 29 30 32 34 40 36 38 33 37 36 33 31 29 30 29 30 27 29 28 30 32 29 27 24 25 23 26 23 25 21 25 30 
42 45 37 36 39 39 37 37 36 34 36 37 36 32 35 38 36 35 36 35 37 38 37 35 36 36 35 35 34 35 34 35 33 33 33 30 35 36 33 31 36 36 29 31 31 33 32 34 31 32 32 35 35 32 35 34 35 33 33 29 31 32 32 30 28 30 29 31 28 27 27 27 24 24 20 23 25 23 24 23 
43 41 37 38 42 35 39 36 36 38 35 33 36 36 35 35 34 36 35 34 37 36 36 33 35 33 33 32 33 33 43 36 31 32 31 29 33 33 33 31 33 39 31 30 30 31 32 29 30 27 32 35 34 34 32 37 34 32 34 31 30 30 31 28 29 28 28 28 27 29 25 28 24 26 21 24 23 21 25 23 
49 44 39 38 38 37 38 37 35 36 36 36 44 40 37 33 35 35 34 37 35 32 39 35 35 34 34 33 32 36 34 33 33 32 29 28 33 35 29 34 37 34 29 28 31 31 32 35 30 32 31 30 34 34 32 33 36 36 35 30 32 29 28 32 27 31 28 29 31 31 29 25 28 24 23 22 24 25 25 22 
44 44 39 42 38 38 39 38 40 35 34 35 40 39 39 35 35 37 35 37 34 34 33 34 35 33 33 34 32 29 31 31 31 33 27 30 33 33 31 36 31 33 27 30 32 30 34 32 32 31 34 30 32 33 30 35 35 35 34 32 33 28 33 31 31 31 31 28 30 29 27 26 27 22 22 24 22 24 20 22 
42 42 39 39 41 38 39 47 40 39 39 36 35 36 35 37 34 37 35 37 36 34 33 36 34 32 36 31 31 32 31 31 28 32 30 27 30 31 32 32 35 35 28 28 31 33 32 28 30 34 31 35 35 32 31 30 31 33 30 31 31 32 34 35 29 28 32 30 27 29 29 24 23 26 27 27 25 24 24 23 
42 43 36 38 39 40 39 40 42 40 34 36 38 36 37 37 38 38 37 33 36 35 30 35 36 34 33 32 33 32 30 30 28 30 28 27 30 32 31 30 31 31 30 30 33 31 31 33 33 31 32 34 30 33 32 28 31 32 32 31 29 33 31 32 30 30 28 25 30 30 28 21 25 27 24 25 23 24 28 25 
40 44 37 35 40 35 35 40 42 37 36 36 34 37 39 40 38 39 35 34 36 36 38 36 33 35 34 34 31 31 32 29 29 29 28 25 32 31 30 31 29 31 28 30 30 32 30 34 32 27 28 30 32 33 29 29 32 32 34 33 27 30 32 31 28 29 29 31 27 30 29 21 27 28 26 25 24 25 24 26 
41 40 40 37 40 38 38 41 45 41 35 36 37 36 36 34 38 38 34 36 36 36 40 36 36 32 32 32 31 29 32 29 32 32 33 28 29 29 30 32 27 35 30 30 31 31 29 32 30 26 30 30 30 31 28 31 33 28 29 29 26 28 28 27 28 29 26 26 28 26 27 26 26 28 24 23 29 23 25 28 
40 41 35 39 39 36 40 39 39 40 38 35 35 38 36 34 37 35 34 36 36 35 32 36 34 31 34 32 35 29 34 32 27 31 29 26 31 28 30 33 35 32 30 32 27 27 28 30 29 26 30 31 31 30 29 26 33 26 29 29 32 30 33 28 26 29 31 28 26 32 28 23 26 28 26 23 27 18 22 23 
39 44 35 39 40 37 36 38 41 39 36 38 40 39 34 35 34 35 35 40 33 34 34 33 32 36 33 31 38 32 31 29 30 29 29 27 31 31 33 33 29 31 29 29 30 29 29 28 26 29 30 30 28 29 28 30 29 27 28 30 29 29 30 30 26 26 28 26 25 27 31 24 22 25 20 24 21 21 27 26 
44 40 39 36 40 37 35 38 44 41 36 37 39 35 35 33 34 35 35 35 32 35 36 34 33 32 32 33 32 33 29 30 29 28 28 27 31 34 29 28 34 31 31 28 29 29 26 28 29 26 30 31 31 28 27 30 31 26 25 27 29 28 30 28 28 28 25 27 25 27 26 24 23 22 23 25 23 24 19 28 
41 40 38 37 38 33 36 38 37 40 34 36 35 36 36 32 36 34 32 34 33 32 36 32 34 32 32 31 33 31 32 30 26 30 31 28 31 31 31 29 33 33 33 30 34 26 28 28 29 29 30 26 26 30 27 27 33 29 25 26 29 29 30 30 27 28 26 26 29 25 26 23 22 22 22 23 22 20 19 27 
45 36 32 35 41 38 37 35 36 36 37 34 36 39 38 34 37 34 33 36 32 31 34 33 33 33 37 32 30 31 33 30 26 31 28 24 30 30 28 32 32 34 33 31 29 28 25 26 27 29 27 30 28 28 25 28 28 31 25 23 24 25 28 31 28 28 26 23 27 25 29 22 20 23 24 25 21 20 23 21 
39 39 35 38 41 35 36 36 37 34 33 34 36 35 36 33 35 35 34 33 33 31 32 33 34 35 33 30 32 30 32 28 28 26 23 24 28 31 27 30 28 32 31 28 28 29 25 26 27 29 28 30 27 27 28 27 26 28 26 25 22 27 28 27 28 27 27 25 28 26 23 22 20 22 19 23 24 19 22 21 
38 40 34 38 41 34 33 34 36 35 32 31 37 36 33 33 33 35 33 33 32 32 32 35 33 30 30 33 31 34 30 26 26 26 28 24 28 28 28 29 30 28 32 28 30 28 29 27 28 25 31 30 26 28 28 26 26 27 26 26 24 30 32 25 27 25 26 27 24 26 24 22 22 25 25 21 22 24 17 24 
39 40 36 36 37 34 34 35 34 34 37 32 38 37 35 37 37 35 33 36 35 30 35 34 34 35 32 33 34 30 32 31 26 29 29 24 27 29 30 26 27 30 30 27 29 32 27 28 28 25 30 33 28 25 26 28 27 28 28 21 25 26 28 28 26 23 26 26 25 24 25 24 22 27 25 25 20 18 17 19 
41 42 37 34 38 35 35 34 36 37 35 34 39 36 35 39 36 38 33 36 35 34 31 33 32 31 32 30 29 32 33 32 27 30 28 25 31 28 28 29 29 31 29 26 29 29 31 33 28 25 29 28 29 28 23 27 27 27 28 26 23 26 29 26 22 26 23 26 22 26 24 20 19 26 25 20 22 21 21 24 
43 39 38 39 35 38 34 36 34 35 32 36 38 38 33 32 34 38 37 35 34 35 34 33 28 29 27 31 34 32 33 27 29 31 28 27 29 30 28 29 33 29 28 26 26 29 31 30 26 26 26 28 29 29 24 27 26 26 26 23 22 27 26 28 26 26 26 22 24 24 24 18 21 24 21 24 22 17 17 19 
43 44 36 39 40 35 36 38 33 36 34 34 38 33 32 35 34 39 38 36 36 31 34 32 33 29 28 29 35 29 37 30 29 27 28 25 28 27 31 31 34 30 29 26 29 31 30 29 28 26 26 29 26 29 27 28 27 26 24 27 23 25 25 30 23 30 24 23 23 21 22 17 19 22 17 20 23 19 23 23 
43 42 43 39 43 37 37 35 37 37 36 36 38 32 34 35 38 38 36 34 34 34 34 34 33 30 27 31 33 29 34 32 27 30 28 25 30 28 27 30 27 35 28 28 28 30 27 29 28 27 31 27 27 27 27 23 26 27 24 22 21 24 25 28 24 27 27 24 25 23 22 18 19 20 16 21 18 21 23 22 
40 42 38 36 37 38 35 39 38 39 36 38 37 37 32 35 36 36 33 33 37 29 32 35 33 30 30 26 29 32 33 26 29 27 27 29 29 29 30 32 30 30 30 26 28 30 28 29 29 28 29 29 29 28 25 26 25 24 22 19 20 21 20 22 22 24 25 22 23 22 21 20 21 21 17 20 20 18 21 25 
38 40 36 35 37 35 32 36 37 38 35 35 36 35 38 35 36 32 30 32 32 33 31 32 31 30 34 29 29 26 29 27 28 32 28 28 28 27 29 27 27 28 28 27 27 30 27 27 28 26 33 33 27 26 23 22 22 24 24 20 20 21 21 23 17 21 17 19 18 22 18 19 13 18 20 19 21 21 28 25 
39 40 35 37 38 35 36 36 35 37 34 36 38 35 36 32 34 31 36 37 34 34 33 33 34 32 31 29 34 31 27 26 27 32 26 23 30 30 30 27 26 28 26 25 27 28 28 29 29 30 33 31 26 27 24 23 22 25 21 21 18 20 21 23 20 19 23 21 19 18 19 19 21 16 17 17 20 22 18 21 
46 41 40 36 36 31 39 36 37 36 34 34 36 36 38 32 31 34 32 35 33 36 34 32 34 31 30 29 34 27 29 25 26 30 29 31 30 31 27 29 30 27 27 29 28 28 29 32 31 25 29 28 30 29 25 24 26 23 20 21 20 24 23 23 20 22 20 19 19 23 19 18 18 19 16 16 19 19 20 21 
43 39 37 33 36 33 36 35 33 36 34 36 37 35 35 30 33 35 34 36 32 35 31 32 34 30 31 29 28 30 32 27 25 28 28 28 28 30 27 26 29 29 26 27 25 26 29 32 28 27 31 28 26 27 21 23 21 23 22 19 19 22 19 21 18 20 22 19 21 18 20 14 17 16 17 19 21 18 15 20 
37 39 35 33 36 32 33 37 36 34 33 32 35 37 34 31 32 33 33 35 36 34 31 31 32 32 29 26 30 28 30 28 27 28 25 24 26 27 26 26 28 28 29 27 26 31 28 28 29 25 29 26 24 22 19 20 19 22 21 22 19 23 19 22 18 21 23 19 20 18 16 14 11 15 16 16 18 14 14 19 
41 41 34 36 35 32 33 33 34 35 34 32 32 37 40 34 39 34 32 33 36 30 33 34 29 29 26 26 27 28 28 28 25 29 25 28 30 29 26 28 24 26 24 26 26 29 26 27 25 25 27 27 24 18 18 20 19 21 21 17 18 19 18 26 21 22 20 18 20 16 18 11 13 16 18 15 18 13 12 14 
40 39 30 36 32 31 34 34 32 31 36 35 37 36 32 34 34 33 35 35 32 29 33 30 28 28 25 25 30 28 27 25 25 27 23 22 30 27 24 25 23 27 25 26 27 29 27 25 26 26 25 27 22 23 20 21 19 21 20 19 19 20 18 21 16 17 17 18 14 13 18 13 13 14 11 17 16 9 14 19 
39 37 34 31 35 31 34 34 32 34 31 35 33 38 37 37 34 33 34 34 33 32 34 37 30 29 27 25 28 31 28 27 26 28 24 25 25 26 25 24 26 25 22 24 26 27 27 25 25 25 26 23 25 22 22 23 23 21 20 19 19 19 20 22 14 16 18 15 16 12 15 12 12 13 10 13 13 13 9 14 
39 37 30 29 29 32 35 34 34 33 30 35 38 36 37 35 36 33 31 33 33 32 35 31 29 27 29 26 30 27 27 27 26 24 24 22 27 30 26 26 23 25 22 22 25 22 22 22 21 23 26 23 19 21 21 21 23 21 20 21 19 17 19 19 16 15 12 15 12 13 12 12 12 10 9 10 14 9 11 9 
42 39 32 30 32 34 35 34 34 34 35 31 37 35 32 34 34 35 33 33 31 29 33 31 28 26 25 26 28 33 26 26 22 24 25 19 27 26 25 24 24 25 22 22 25 22 23 22 24 23 26 22 20 22 21 19 23 18 21 18 16 20 20 13 15 14 14 15 14 13 10 14 7 12 7 11 14 7 12 9 
38 37 28 32 35 33 34 36 36 35 34 31 30 33 36 34 36 33 34 31 32 31 29 26 29 28 24 27 27 25 25 22 22 25 25 21 25 25 29 24 24 23 25 22 24 24 22 24 23 21 23 21 19 21 21 23 23 21 22 19 17 19 16 16 12 13 10 10 15 14 11 6 6 8 11 9 9 7 5 6 
42 36 30 34 33 36 34 33 35 33 33 33 30 31 36 32 30 37 33 36 37 29 31 30 28 29 27 25 29 30 25 24 23 25 28 23 25 25 23 22 25 27 23 25 23 25 21 25 24 20 24 18 17 22 15 26 28 20 19 19 18 17 15 13 13 12 10 14 9 14 13 10 4 8 7 10 11 6 7 9 
38 37 30 31 34 37 33 35 34 36 35 34 32 32 33 30 31 31 35 34 29 30 28 30 32 30 31 29 28 27 25 25 26 26 24 23 24 25 23 23 27 28 21 22 22 23 22 24 26 25 24 19 17 20 15 20 22 23 28 20 15 16 16 15 15 16 12 11 14 15 13 9 7 11 8 10 14 4 8 1 
40 31 29 35 38 41 38 32 36 36 31 31 36 34 35 33 35 29 30 29 28 31 29 30 29 29 30 27 30 29 26 24 22 26 27 21 23 24 24 21 24 22 22 20 22 22 23 24 20 22 16 20 20 16 18 20 25 21 21 18 13 16 14 13 13 13 12 14 10 11 11 9 7 8 9 10 11 4 4 6 
39 32 28 35 37 34 34 36 34 34 32 32 38 33 33 32 32 32 35 32 26 27 30 29 26 30 32 28 29 24 27 23 24 24 23 22 22 24 20 20 22 23 20 22 22 22 26 21 19 15 18 17 18 16 18 21 24 16 19 18 20 16 14 15 12 12 13 8 9 11 13 6 10 10 7 7 9 5 0 5 
34 33 25 29 37 31 31 33 34 31 32 32 33 36 35 34 30 28 32 31 28 25 27 30 28 27 27 25 27 25 24 22 20 23 21 19 21 20 19 23 22 26 21 21 21 24 21 17 17 14 17 14 14 16 18 19 20 23 17 15 14 15 13 14 9 9 7 8 9 10 15 11 6 5 6 6 9 1 6 7 
33 35 29 29 32 33 33 33 31 35 34 34 40 36 34 32 30 31 28 32 31 26 30 28 26 25 26 25 27 25 24 22 22 21 22 18 22 21 23 21 21 22 19 18 20 22 21 19 17 10 13 10 13 15 14 17 21 21 15 13 14 10 9 12 10 8 10 5 5 9 12 5 4 8 5 7 10 4 2 2 
32 35 28 29 31 32 27 30 31 34 30 32 38 33 31 28 27 29 30 31 28 27 30 26 23 26 28 23 26 26 21 25 22 22 21 17 21 22 19 22 20 20 20 19 18 21 18 18 14 12 12 13 10 11 18 17 19 16 15 13 11 9 13 8 5 7 7 8 11 9 6 6 4 5 4 4 8 2 4 1 
30 34 24 28 30 28 29 34 30 36 30 30 30 30 29 26 30 31 32 30 33 29 28 28 26 24 23 26 27 25 21 22 20 21 19 20 22 22 18 17 20 20 18 18 19 19 21 17 11 12 12 12 10 11 13 16 15 14 16 17 11 10 10 9 11 9 4 10 5 6 3 3 5 6 3 3 3 2 5 4 
38 35 29 32 32 33 31 30 33 33 32 31 32 28 32 30 29 28 30 31 31 30 32 32 23 22 25 26 26 25 25 22 20 21 23 17 25 22 20 21 21 21 20 22 18 21 20 18 13 14 15 12 12 15 10 15 16 16 17 14 9 9 8 10 13 11 5 10 3 3 8 2 4 7 5 3 3 1 6 4 


