P2
80 60
267
161 160 167 160 156 154 157 157 152 154 158 154 154 151 149 149 142 129 68 54 72 102 112 112 105 122 122 128 127 128 129 130 132 127 132 136 134 133 129 131 131 133 128 124 118 116 134 129 130 129 131 136 147 146 148 148 149 147 146 143 143 145 145 144 141 136 136 136 135 138 136 138 142 134 139 133 132 128 132 133 
161 158 158 157 158 157 155 154 153 154 157 152 153 150 155 147 143 120 57 44 58 90 103 110 106 119 128 129 126 125 127 127 130 128 131 130 133 129 126 129 132 130 125 126 115 117 124 130 127 124 129 137 145 144 146 147 147 146 147 140 146 144 139 139 140 131 135 134 139 136 139 139 140 139 138 133 134 131 131 133 
157 161 159 159 156 160 160 154 150 154 157 153 154 152 151 146 141 113 47 39 45 83 102 108 106 124 126 129 129 130 131 128 130 131 130 133 130 131 134 131 134 133 127 123 116 116 124 129 127 124 123 135 145 145 146 148 144 146 145 143 146 143 140 142 140 136 136 139 138 138 139 137 137 138 135 133 135 132 132 135 
158 157 158 156 155 160 155 155 149 157 159 153 153 150 150 149 138 113 43 33 37 77 99 113 105 124 128 132 130 129 126 128 131 126 129 134 136 134 132 129 133 130 128 123 117 118 129 130 132 127 126 139 147 145 147 148 145 144 144 143 148 144 141 144 141 137 139 140 141 141 143 143 139 139 137 137 136 132 134 130 
163 157 160 156 155 159 155 150 152 156 154 151 152 152 152 145 136 101 36 32 31 67 93 110 110 120 124 131 133 128 126 125 133 125 128 132 145 138 132 130 131 129 129 123 116 115 131 129 129 126 124 136 147 143 146 146 143 146 146 146 145 144 144 146 140 139 141 143 142 145 145 140 138 137 138 135 135 132 134 131 
158 157 160 154 154 153 158 153 153 155 157 150 154 153 146 145 132 103 36 32 37 67 88 104 111 124 123 133 138 128 126 129 129 127 128 132 141 133 132 127 129 131 130 123 119 114 130 131 131 126 127 140 145 144 147 150 146 148 146 145 147 146 143 145 140 140 139 143 144 142 144 141 140 140 138 135 135 134 136 135 
164 158 156 155 155 154 152 151 154 154 156 156 153 152 150 145 136 106 35 32 44 65 83 100 103 123 119 134 128 126 131 130 130 125 131 130 137 131 131 131 131 132 126 123 114 113 128 131 131 124 125 139 148 145 149 147 145 150 151 140 143 145 143 145 139 138 138 138 143 143 142 138 141 137 138 136 139 132 132 133 
160 160 159 160 154 155 148 148 149 153 155 152 156 149 147 141 131 106 38 33 52 66 81 97 106 127 120 129 128 128 130 128 127 126 130 132 133 133 129 131 131 130 126 124 116 115 130 129 127 126 126 136 148 144 146 150 143 150 146 144 148 143 144 143 139 138 139 141 145 142 143 139 139 137 138 133 133 132 131 132 
163 157 160 160 155 149 150 151 150 156 156 153 154 148 143 140 131 104 36 34 52 72 79 97 106 122 120 127 128 127 125 124 128 130 128 128 131 128 127 129 129 131 127 123 116 113 126 132 129 125 125 138 145 146 147 144 142 147 144 141 146 147 144 140 143 143 138 141 141 141 140 138 138 137 135 128 133 129 133 126 
162 157 161 157 155 152 156 151 151 155 157 151 152 149 144 142 135 97 36 30 55 69 83 95 105 120 115 127 123 124 123 128 124 127 129 129 132 129 126 126 128 128 124 119 115 115 128 128 128 124 126 132 146 144 145 145 143 142 142 145 146 142 143 141 142 140 140 139 142 136 137 140 140 139 135 128 129 131 131 127 
162 158 156 154 161 154 161 151 150 155 156 150 148 148 146 137 131 96 35 25 48 68 84 95 100 117 115 121 123 120 125 125 129 125 126 127 127 128 126 130 130 130 123 120 115 115 123 127 127 123 127 137 143 144 146 147 146 145 146 144 144 142 142 144 141 140 141 142 136 139 137 134 136 136 137 137 134 128 130 130 
160 158 161 159 158 148 153 148 148 152 156 154 146 147 143 134 131 91 24 16 34 57 68 87 94 112 110 119 115 117 123 123 127 127 124 125 128 125 128 128 128 129 126 119 113 114 129 128 128 123 129 135 145 144 145 145 143 144 145 140 144 143 142 142 141 137 139 139 141 137 136 136 139 137 135 136 134 134 130 135 
160 156 157 160 153 147 149 142 150 151 152 148 147 146 141 134 128 89 17 6 24 43 53 74 95 108 107 116 112 115 120 120 121 122 127 124 125 127 127 125 129 129 126 120 119 112 129 129 124 119 126 131 144 140 146 140 144 147 142 142 145 142 147 140 138 138 139 139 137 137 135 138 138 137 138 134 136 132 132 133 
157 158 156 154 154 149 149 143 145 153 153 149 147 148 141 139 115 84 16 4 24 31 43 70 91 106 105 107 109 108 116 118 121 122 123 120 125 128 125 126 130 128 124 118 114 112 126 132 129 124 124 133 143 142 145 146 145 147 146 143 148 144 142 141 142 137 139 144 138 137 142 134 142 135 138 135 134 131 126 129 
157 157 156 157 150 148 144 144 146 148 152 148 147 146 140 137 118 81 16 4 14 27 39 66 87 102 99 110 110 106 116 116 118 120 123 122 122 124 123 125 127 129 123 123 109 115 126 128 126 122 120 133 139 142 144 146 146 156 145 142 145 144 143 141 140 139 139 142 137 140 138 140 139 137 139 131 132 134 130 133 
157 154 157 155 155 149 145 146 151 151 149 150 150 148 143 144 122 80 17 7 12 31 44 66 83 96 92 102 106 113 119 125 120 118 118 119 123 123 122 124 126 130 124 116 108 110 125 126 123 117 121 131 140 140 145 148 144 149 147 147 144 142 145 140 142 142 141 139 141 141 140 141 142 138 136 132 133 131 129 132 
156 160 158 156 157 152 152 148 146 149 152 151 151 148 146 144 125 90 14 7 9 30 49 66 82 88 96 99 103 115 131 132 132 125 121 120 122 124 123 126 123 131 125 122 110 112 124 125 122 117 119 133 142 143 148 145 147 147 145 143 145 143 145 142 138 139 138 144 142 141 138 141 145 138 138 135 131 135 132 128 
156 156 157 157 152 150 145 136 139 150 152 151 150 148 143 143 127 87 20 12 10 30 51 67 80 91 84 99 98 121 131 130 133 119 117 120 120 124 121 126 126 129 120 116 110 108 124 125 120 120 119 131 139 145 149 143 145 152 146 143 146 142 139 139 138 139 140 140 140 138 140 142 143 140 139 133 132 129 130 133 
157 157 156 155 151 150 141 129 136 149 151 150 150 150 148 142 127 95 24 5 14 31 48 67 76 85 85 91 100 117 122 131 128 120 120 119 120 125 126 126 125 126 124 119 115 102 125 121 122 117 120 132 144 146 148 148 145 147 147 143 145 142 138 143 142 139 139 140 141 141 142 141 144 142 136 132 129 132 130 135 
155 155 154 153 148 148 140 124 133 148 153 148 148 150 143 142 127 92 24 9 13 30 40 63 76 82 82 91 95 116 124 126 120 113 119 117 121 125 123 127 124 125 122 114 111 105 123 129 123 121 121 131 140 140 144 145 145 143 145 141 143 142 141 141 139 138 139 139 141 142 144 141 140 136 136 132 128 130 129 134 
154 152 153 149 149 150 134 118 129 150 153 149 153 150 145 142 122 95 19 5 10 24 34 56 77 82 87 94 103 114 129 126 118 115 118 122 116 121 122 125 122 128 121 116 109 103 125 125 125 123 122 134 144 143 146 146 143 142 143 143 145 141 141 143 138 139 139 139 141 141 140 138 139 136 136 129 129 132 133 132 
152 150 155 149 145 136 131 117 125 142 149 149 154 152 144 138 114 93 19 3 9 23 34 56 78 87 89 101 106 114 123 124 126 124 122 117 119 120 121 123 125 126 122 113 106 106 124 124 121 117 122 133 142 138 145 144 140 144 145 143 147 144 141 141 141 139 139 136 140 144 142 140 143 137 136 132 130 130 134 134 
152 154 150 149 141 124 119 110 117 142 145 148 152 151 142 142 118 93 20 5 7 21 32 55 77 94 92 105 109 107 111 117 125 126 126 118 115 116 116 123 121 121 118 111 103 103 123 124 120 118 123 130 145 141 144 144 142 143 144 144 146 143 142 143 141 142 142 137 139 140 143 141 144 142 137 134 136 129 135 131 
151 151 153 150 142 124 121 117 121 140 147 147 148 150 145 144 120 93 25 0 9 18 34 59 82 93 92 106 107 103 105 114 120 124 127 122 113 115 119 120 119 123 115 112 103 106 122 124 125 123 125 131 145 141 145 144 144 145 143 144 143 143 145 144 142 138 141 142 144 142 145 143 142 138 135 133 131 133 132 132 
152 150 147 141 139 131 129 117 122 139 148 143 150 148 145 137 113 93 22 3 7 21 33 55 83 94 94 100 102 102 105 114 117 120 124 119 111 115 115 118 117 119 116 114 101 104 124 122 118 119 120 129 140 139 144 143 142 142 145 142 144 145 143 140 140 140 142 143 142 141 145 140 140 141 135 132 128 129 134 131 
147 149 143 140 142 131 125 121 122 134 146 144 151 148 146 144 109 89 20 6 8 15 37 60 86 98 94 97 96 99 107 110 109 115 125 126 116 113 116 117 118 119 116 111 105 109 121 125 119 120 119 127 141 141 145 141 142 142 147 142 144 143 142 141 142 141 143 142 142 140 140 140 139 141 141 133 134 131 136 133 
151 145 143 134 139 132 129 118 122 132 139 143 152 144 145 140 108 92 25 8 13 22 38 60 92 99 96 99 96 99 104 108 113 113 125 126 117 110 114 118 116 118 117 111 104 109 121 126 119 117 122 132 141 136 143 146 143 147 144 145 144 146 142 138 141 143 144 142 141 140 142 139 138 138 139 135 135 135 134 134 
151 148 144 137 138 131 128 119 124 129 142 140 146 147 144 137 105 90 29 15 18 24 39 66 94 104 96 103 101 104 106 109 114 109 119 122 111 111 111 115 119 120 118 110 102 111 126 122 120 117 122 132 140 139 143 143 145 144 145 145 143 144 141 146 144 143 143 146 144 143 143 142 141 140 138 134 131 132 137 136 
153 150 141 135 137 131 130 121 126 131 137 139 144 147 145 137 98 84 32 20 22 23 39 64 95 102 96 103 106 105 107 110 111 110 107 113 106 110 115 117 114 120 117 111 103 108 122 124 116 116 119 135 139 138 144 142 145 143 143 142 141 144 143 144 140 141 143 144 143 143 146 142 141 142 138 134 134 133 131 132 
153 148 143 136 136 126 120 122 117 128 136 135 145 144 143 134 97 86 34 25 27 33 42 66 84 87 93 102 99 105 107 113 109 107 103 106 110 111 114 116 118 119 114 110 97 109 121 125 119 117 125 133 140 140 143 140 139 145 145 140 145 139 144 146 142 142 145 145 143 144 141 144 142 141 138 137 130 133 134 135 
152 148 142 127 132 120 108 107 115 120 134 139 141 145 141 133 95 82 37 27 32 36 41 64 82 86 90 99 98 99 104 104 106 107 106 105 105 109 112 113 115 120 117 107 101 111 121 121 117 118 122 134 143 141 143 144 142 145 144 144 144 141 145 145 141 140 142 145 142 140 144 141 141 141 137 138 132 131 133 133 
150 151 142 127 131 117 104 103 114 127 135 136 137 141 137 134 97 80 33 29 33 39 46 59 79 85 91 98 97 97 99 104 107 102 102 103 106 109 109 115 121 118 114 109 98 110 119 119 117 119 122 132 142 140 145 145 142 143 145 141 145 139 147 141 143 142 143 141 144 142 143 141 140 136 137 131 132 132 133 136 
148 145 139 124 131 119 102 105 119 130 138 138 137 142 140 130 94 85 36 30 40 42 42 62 76 87 89 93 92 94 98 100 104 102 103 104 104 107 109 112 119 117 116 108 95 111 122 118 116 116 121 136 139 138 146 147 142 145 143 139 147 141 145 144 142 143 144 144 143 144 145 139 138 139 137 133 137 133 137 139 
148 144 142 121 129 113 106 112 121 132 136 138 137 140 136 126 93 84 36 28 41 40 41 59 75 85 87 92 91 96 97 103 103 100 102 99 104 107 104 111 114 114 113 105 92 114 116 116 113 111 121 135 139 139 143 144 144 145 143 142 143 147 142 144 145 144 146 146 145 144 141 139 140 138 137 131 129 135 139 135 
146 144 142 117 124 118 114 113 119 124 137 141 137 136 137 128 91 81 36 30 42 47 45 57 76 83 85 88 90 94 97 100 96 93 102 102 101 103 107 113 113 114 113 105 93 114 115 113 107 111 119 135 140 138 145 144 143 149 142 144 144 144 143 149 143 142 145 143 143 143 141 141 142 140 139 135 134 138 143 142 
148 148 140 117 122 122 116 112 100 102 127 125 133 131 134 116 92 86 44 27 40 46 40 56 70 81 79 91 89 92 95 99 93 89 99 100 101 104 103 110 113 109 107 104 92 110 116 114 108 109 121 131 140 140 146 147 144 148 146 146 143 147 142 148 142 141 143 142 144 144 141 141 140 140 137 135 138 145 143 147 
145 147 140 110 121 117 94 80 78 84 99 97 109 115 90 100 91 81 43 26 43 45 44 52 61 78 80 86 90 91 93 92 88 87 95 98 96 102 101 104 114 109 104 101 92 105 113 113 101 108 115 129 142 140 144 146 143 145 145 146 147 143 146 146 143 143 145 144 147 144 144 141 146 145 146 145 146 144 150 144 
150 145 142 112 113 118 81 58 66 74 76 78 88 77 68 80 81 86 37 23 41 42 47 55 63 73 80 86 85 86 92 88 88 86 95 95 98 98 101 104 109 109 104 100 89 105 107 107 99 104 114 130 139 141 147 147 144 147 147 149 147 148 150 144 143 142 145 143 147 147 147 146 147 145 149 160 162 156 156 149 
144 146 142 115 112 118 79 58 64 69 73 73 83 78 68 76 81 80 28 16 32 42 42 53 66 78 76 88 85 88 82 85 84 87 94 95 95 102 101 104 105 109 107 102 89 102 105 104 98 103 117 132 137 140 146 146 148 152 156 160 161 157 152 149 147 144 148 146 147 148 147 146 151 151 150 175 191 191 190 175 
144 149 143 114 115 113 79 51 59 64 69 66 75 73 64 72 75 73 31 5 20 35 42 54 65 73 79 85 85 82 76 79 91 90 93 99 104 109 108 110 116 114 111 106 92 102 107 100 96 99 110 127 139 141 147 146 150 161 207 220 209 162 151 153 149 146 150 149 147 149 149 146 147 146 151 189 199 200 208 206 
143 144 140 111 110 114 77 50 48 55 64 58 69 67 60 65 72 61 22 7 23 43 45 53 64 73 81 84 81 68 74 78 100 127 133 136 142 146 140 143 145 145 142 142 138 127 104 96 90 99 107 129 140 146 144 145 149 165 227 250 230 162 156 162 158 150 150 145 147 147 143 141 137 146 156 189 198 204 217 207 
143 146 143 108 110 115 90 41 38 48 53 51 60 64 54 56 69 58 18 8 29 49 46 52 66 72 69 83 70 71 69 81 121 144 150 149 151 153 153 155 156 153 150 155 153 141 106 94 89 98 103 127 134 142 143 148 148 161 235 267 237 169 164 154 151 146 144 145 146 143 141 136 145 143 160 193 201 206 213 212 
143 142 146 111 98 114 86 38 31 38 41 37 46 49 46 55 61 53 29 14 33 49 49 50 58 62 63 65 57 60 67 98 139 146 154 157 158 158 160 159 159 158 160 152 156 149 109 95 89 93 103 128 137 135 144 145 147 159 205 227 220 174 158 154 146 144 144 143 146 143 142 141 142 144 162 197 200 207 216 219 
145 141 140 108 100 114 94 36 26 30 37 38 41 47 52 55 56 50 34 18 31 42 48 54 58 65 57 60 61 63 68 116 146 145 152 155 160 161 159 162 159 161 159 159 160 159 126 100 88 93 106 124 134 136 138 144 145 164 192 206 203 194 169 147 143 143 143 142 145 143 139 141 142 149 168 196 205 202 217 217 
141 141 134 106 91 112 98 44 27 36 36 37 47 47 50 49 45 39 33 26 41 38 48 54 62 64 59 58 59 64 83 138 146 146 157 156 161 162 162 162 161 159 160 159 162 164 144 99 87 90 101 121 131 131 140 141 152 173 183 186 194 193 179 153 147 145 146 141 144 142 144 142 144 144 177 200 207 209 216 220 
142 142 138 111 83 106 100 45 26 31 28 31 39 37 43 41 36 37 38 36 58 51 47 55 66 61 56 58 58 72 100 141 153 151 155 159 162 162 161 162 163 160 161 164 164 164 157 103 90 88 102 117 131 130 137 142 153 167 172 181 185 185 182 166 149 145 142 144 150 148 149 147 145 149 189 202 210 209 218 226 
143 141 137 110 75 106 97 52 25 28 26 26 31 30 30 33 28 45 71 84 85 75 50 51 58 61 59 64 63 78 120 150 153 156 158 156 161 159 161 161 166 165 162 162 165 164 158 130 90 96 105 120 134 132 142 144 155 162 168 170 183 177 172 157 147 143 141 142 145 150 152 153 157 163 202 208 209 214 227 219 
139 141 137 111 72 101 100 60 22 27 28 27 31 35 31 38 38 61 78 82 91 79 53 50 60 59 58 64 65 93 137 147 156 155 158 158 162 161 162 164 164 166 163 161 165 165 163 150 112 91 103 122 133 132 141 147 150 154 159 161 160 158 148 150 141 141 142 144 146 147 156 158 162 173 213 209 212 213 223 223 
137 137 136 113 72 99 100 69 37 33 36 30 40 42 38 53 54 65 73 86 90 80 62 60 66 65 60 67 76 122 147 154 157 157 160 161 158 164 163 163 162 164 163 162 165 167 160 153 139 106 104 125 130 137 141 145 151 149 148 149 152 144 144 144 144 140 142 144 145 152 151 156 170 177 222 220 217 225 226 221 
138 136 138 117 73 92 97 73 46 40 44 41 45 41 43 63 55 62 82 86 88 72 61 65 69 70 71 82 114 146 154 154 160 156 161 159 158 162 162 163 162 163 165 163 163 161 158 152 154 133 112 126 137 138 144 144 142 146 146 142 149 146 145 143 142 141 145 145 148 146 148 155 165 185 236 235 228 228 233 226 
137 136 135 120 79 94 101 79 53 56 58 56 60 56 58 66 64 69 79 86 89 81 76 75 85 84 85 103 136 149 151 158 161 156 164 161 164 164 162 163 164 164 165 166 164 158 150 156 156 153 139 131 140 142 145 147 142 146 143 141 148 143 144 145 144 142 144 146 145 144 149 153 161 173 222 254 245 245 242 233 
139 136 138 128 84 95 102 88 73 90 91 91 91 93 93 97 94 93 101 99 111 103 101 100 103 112 113 132 145 150 153 155 147 153 167 161 167 165 164 168 165 168 165 165 161 160 144 147 154 160 154 146 141 144 146 145 143 148 146 148 150 148 146 148 147 144 147 145 147 143 147 148 155 161 177 211 239 249 254 245 
139 135 136 128 98 101 106 95 85 107 105 102 107 108 108 115 108 111 109 111 116 114 112 109 123 125 129 150 151 154 153 144 137 151 162 160 167 167 165 165 166 166 161 163 160 153 147 146 154 158 159 155 144 143 146 148 145 149 155 150 150 152 152 152 151 152 151 142 141 140 145 156 162 159 163 168 187 226 267 266 
130 131 135 126 113 111 108 100 95 106 109 106 108 109 114 111 111 109 108 109 116 117 112 118 121 123 134 149 152 154 151 136 139 150 162 161 162 162 162 164 166 166 163 162 163 152 150 146 151 155 157 161 153 148 152 154 155 155 155 154 158 158 156 161 159 157 155 147 148 144 152 154 163 166 164 161 164 174 212 256 
116 117 119 110 105 113 113 106 107 111 115 109 112 108 113 113 105 105 108 110 110 110 107 114 121 129 144 153 152 153 152 128 135 149 162 163 164 161 164 163 163 165 160 162 160 154 144 142 145 154 159 159 160 151 148 146 151 154 152 152 161 155 157 158 161 158 155 152 149 149 154 159 165 161 161 160 157 154 167 162 
101 101 99 103 99 110 115 108 108 110 114 108 109 108 110 110 106 107 109 108 110 108 107 110 118 127 145 152 153 154 151 131 142 152 160 162 163 161 159 162 162 164 162 164 162 163 152 149 155 158 156 156 157 146 143 143 144 145 146 147 155 154 148 152 148 144 156 150 145 149 156 159 159 153 158 162 153 152 161 154 
104 104 104 102 101 108 109 109 110 117 111 109 119 108 109 111 106 107 106 110 111 109 111 109 113 120 142 152 155 156 152 146 152 158 165 160 165 162 160 163 163 164 163 161 165 164 165 162 162 161 160 160 157 145 136 136 143 144 141 140 150 145 142 145 142 141 140 142 146 148 150 152 155 155 161 153 149 154 157 155 
105 102 104 103 104 109 110 108 107 112 113 108 108 111 109 110 112 109 109 111 113 108 108 111 113 124 138 152 153 155 155 154 160 161 167 164 163 163 165 165 165 165 165 165 164 163 167 170 161 159 160 157 161 150 135 135 140 143 141 141 144 141 141 138 136 141 141 146 147 146 149 146 147 151 153 149 152 150 151 154 
108 103 103 104 100 105 115 109 110 114 111 106 107 105 109 111 109 111 108 114 113 108 108 112 115 121 131 148 153 157 150 158 163 164 166 165 168 167 165 165 169 168 167 163 166 165 172 172 161 160 159 156 159 153 145 134 141 146 144 143 144 143 142 143 140 141 146 148 148 148 154 148 150 151 154 150 147 148 150 145 
108 105 108 105 107 109 113 111 107 107 106 101 107 106 105 107 108 106 110 106 109 109 106 109 113 121 123 143 153 152 148 158 164 164 164 164 168 165 163 167 166 170 168 162 165 166 163 167 158 159 158 154 153 157 158 147 146 151 147 144 149 144 145 146 145 142 145 144 149 152 153 151 154 151 154 152 154 154 147 151 


