P2
80 60
174
168 168 169 166 163 164 165 163 161 149 158 155 150 149 148 148 149 150 144 144 143 144 142 142 135 130 129 132 115 81 80 82 103 148 157 158 157 152 157 162 167 166 172 174 161 163 163 163 164 163 164 162 158 151 153 159 158 164 165 163 170 168 168 167 163 160 161 162 161 148 149 144 154 142 145 121 91 49 22 23 
167 170 167 168 162 168 164 162 162 154 154 152 149 152 150 148 150 150 147 147 148 142 142 140 135 131 136 127 112 87 84 77 101 152 161 161 158 158 158 167 165 167 165 168 163 162 163 162 165 163 165 159 156 152 155 158 165 168 166 163 170 168 164 166 164 161 157 162 155 158 152 144 153 147 147 119 91 49 22 16 
168 166 169 167 162 168 162 162 156 154 154 149 150 150 148 150 145 147 143 144 144 140 140 137 135 132 130 127 114 88 77 77 98 150 165 155 155 157 160 160 165 166 167 164 161 160 158 161 163 160 164 161 153 154 152 157 163 164 167 160 169 164 163 163 164 156 163 156 154 156 149 145 152 151 139 120 92 47 11 5 
168 171 164 168 168 165 162 164 160 153 155 152 150 151 149 148 145 145 143 146 143 141 142 141 137 136 129 127 112 93 83 77 102 152 159 157 152 159 162 167 166 160 165 165 162 162 159 163 168 161 162 159 158 152 150 154 158 168 167 160 168 169 162 164 161 157 160 161 160 157 153 149 152 148 141 117 92 50 19 7 
170 165 165 168 168 167 164 163 159 156 154 148 148 150 147 148 141 145 145 146 142 140 146 142 139 135 132 127 109 85 75 80 101 149 160 154 153 156 159 167 164 159 165 165 160 162 166 168 165 161 162 167 158 152 150 150 155 162 167 160 166 164 167 169 166 163 164 161 160 162 154 146 153 147 141 118 93 49 15 4 
167 170 168 168 161 165 164 162 161 153 151 148 150 151 149 147 146 148 146 150 147 150 149 149 146 140 128 127 108 82 77 72 113 152 152 154 152 157 158 159 160 161 167 165 161 165 164 163 168 164 161 159 156 156 146 151 155 164 163 161 165 162 163 169 164 160 165 162 169 159 157 145 151 142 144 117 90 46 10 8 
165 173 162 169 168 166 165 162 157 152 156 153 153 149 154 153 158 156 158 153 155 148 154 151 147 141 134 131 120 93 76 75 109 153 154 151 152 158 159 161 160 163 162 164 160 162 162 163 166 167 161 163 156 155 154 152 156 171 167 161 166 166 161 167 165 163 164 164 163 158 152 146 150 145 142 122 95 50 12 12 
170 168 168 166 165 170 157 164 160 153 156 151 150 153 155 154 157 156 155 155 156 154 149 152 146 143 139 133 123 95 70 70 109 150 158 156 153 158 157 159 162 164 162 164 159 161 162 160 164 161 161 163 162 157 154 159 163 164 162 161 167 167 168 169 165 164 164 162 164 157 149 144 155 145 144 117 91 52 13 10 
172 172 170 171 167 168 162 166 159 159 156 153 153 153 155 153 159 161 155 156 153 154 153 151 147 141 137 139 128 99 72 69 120 157 158 156 153 155 156 160 163 161 163 161 162 162 161 159 162 162 160 164 162 161 160 159 164 167 162 163 166 171 164 170 164 161 159 167 158 157 153 147 161 147 146 119 93 47 16 12 
173 172 170 172 168 170 170 170 160 151 158 152 151 154 152 156 160 157 156 153 155 153 152 150 142 142 140 138 126 100 74 78 122 154 158 155 156 155 156 158 163 160 161 161 159 160 158 161 162 162 160 163 164 165 162 157 154 157 164 159 164 169 168 168 163 160 162 164 164 158 153 148 153 147 140 120 92 49 19 9 
171 171 168 169 165 171 171 162 161 157 156 157 155 160 161 160 159 158 155 156 154 150 150 150 143 139 135 135 132 102 75 80 126 149 158 151 150 154 153 159 159 164 158 159 158 158 155 162 162 159 161 162 161 157 153 149 148 147 161 160 163 164 160 168 164 162 163 163 162 159 153 145 156 146 142 117 95 48 16 9 
169 170 170 171 167 168 167 166 165 161 161 162 161 160 160 157 157 157 154 156 153 150 151 152 146 141 134 136 130 104 74 76 126 153 158 153 152 152 152 154 162 161 157 159 159 157 155 161 161 158 159 158 156 153 147 137 140 148 157 159 163 167 166 169 166 163 164 164 163 158 153 143 156 142 142 122 100 54 21 12 
174 171 171 173 167 165 163 163 165 163 158 158 159 160 157 159 156 156 154 154 155 150 149 147 144 142 138 137 129 105 80 80 131 151 160 153 149 152 155 154 159 158 158 159 160 158 158 159 160 158 158 159 149 149 142 140 144 156 156 156 168 162 169 169 168 161 160 163 162 155 141 145 155 144 143 115 99 49 19 11 
167 172 173 170 165 169 166 163 164 159 161 156 157 159 157 155 153 155 150 147 150 143 144 143 137 131 129 129 122 111 80 81 131 156 157 151 151 155 151 155 160 159 157 162 159 163 155 158 154 162 158 156 155 155 144 146 147 153 156 161 165 169 164 166 165 161 162 168 162 154 153 142 157 147 140 118 104 47 16 10 
174 172 169 169 164 164 167 165 158 158 157 156 155 154 155 156 153 150 145 142 142 136 137 138 131 126 126 125 125 110 82 84 133 152 154 154 148 152 150 156 159 157 160 159 157 154 155 157 159 160 154 154 146 144 137 136 141 157 154 152 165 165 163 165 165 160 163 162 162 155 148 143 153 148 140 114 101 48 18 17 
168 169 170 167 166 164 168 164 161 154 158 158 152 156 156 157 152 151 145 142 138 133 137 133 128 125 127 129 124 118 85 88 136 151 156 153 147 150 150 154 158 158 155 157 155 156 154 156 155 153 151 153 149 143 137 128 133 135 156 156 166 167 161 164 163 162 161 166 167 159 155 149 154 147 140 114 99 49 21 15 
166 170 166 169 164 165 165 161 157 154 156 154 154 154 158 158 149 150 144 141 139 136 134 133 126 125 120 126 120 116 94 93 140 153 153 149 146 150 152 151 156 154 158 158 155 153 156 153 152 153 150 149 151 146 136 125 129 148 152 154 163 164 166 164 164 161 160 162 159 152 153 148 161 144 131 116 98 42 18 12 
164 172 169 170 171 167 162 161 161 158 158 155 153 151 155 157 154 148 147 142 139 133 134 134 128 123 124 128 118 119 98 100 150 155 151 150 147 155 154 158 156 155 159 155 156 157 150 152 153 152 152 151 151 148 135 127 136 149 151 157 168 168 163 164 163 161 161 162 160 161 156 150 158 147 132 113 97 45 19 12 
168 171 168 168 164 165 164 162 160 157 157 156 157 155 154 154 152 150 147 142 139 134 134 133 127 123 120 123 122 118 99 99 142 152 152 150 151 154 155 157 158 159 157 157 155 155 150 148 151 154 148 147 146 144 132 124 132 146 150 157 164 170 164 163 162 164 162 160 161 161 153 146 153 143 131 112 95 42 24 15 
167 170 166 168 164 166 161 160 158 157 157 157 156 154 157 156 153 155 150 145 140 141 143 136 130 128 124 124 118 120 97 98 145 152 148 149 149 150 153 157 159 159 155 156 156 151 149 153 150 151 144 134 125 122 119 121 122 136 136 145 162 164 161 163 158 157 159 159 161 159 155 146 150 138 124 111 94 41 22 12 
169 168 166 165 162 164 164 156 160 155 158 159 158 156 159 155 155 154 151 147 149 144 143 146 135 130 128 127 120 120 109 105 147 150 149 151 148 151 150 157 157 157 156 154 153 150 149 148 150 150 145 134 124 119 112 112 121 129 134 150 163 164 162 163 159 155 160 162 163 160 158 153 150 138 126 113 96 39 22 14 
164 168 165 167 164 164 164 159 160 158 159 160 163 157 156 155 154 152 150 145 144 137 140 139 133 130 128 125 121 119 105 111 149 150 151 149 147 148 152 156 157 155 156 154 154 151 146 149 148 149 145 134 123 124 113 115 117 126 136 150 156 159 161 163 161 157 167 160 166 160 160 153 157 137 125 116 93 37 20 12 
165 167 165 168 164 165 165 164 164 160 159 160 158 156 156 156 152 151 151 151 145 140 137 145 133 133 125 124 120 115 116 113 147 153 152 149 147 147 151 154 155 152 152 152 158 151 148 146 150 151 140 133 128 120 110 116 119 129 141 142 156 161 157 163 164 167 167 165 161 160 159 144 154 139 127 113 95 36 20 10 
167 168 165 167 163 168 164 165 166 159 160 157 157 155 154 157 151 157 150 144 142 139 141 143 132 125 120 122 119 114 114 116 142 151 152 146 147 149 152 154 158 154 154 152 151 150 145 148 150 151 139 131 123 124 118 116 122 125 142 143 157 159 156 162 160 163 166 164 159 158 156 152 153 133 123 112 88 34 18 9 
164 168 163 165 164 164 163 167 166 160 161 157 157 156 157 159 155 154 153 149 143 143 141 141 131 130 127 124 118 115 115 119 149 150 148 147 146 149 148 154 157 152 153 151 153 151 147 145 152 150 144 140 129 130 124 130 122 126 140 142 153 159 164 161 163 159 161 163 160 160 159 150 152 137 122 111 90 35 19 5 
163 163 164 162 163 164 163 162 164 158 160 158 154 156 157 157 154 155 153 147 146 139 142 144 134 129 122 121 120 113 112 122 143 148 147 147 146 146 150 153 155 155 151 153 150 152 148 151 153 148 141 144 140 144 134 128 125 134 145 142 153 163 155 156 164 161 166 161 161 158 153 152 149 134 122 108 87 28 17 10 
161 164 157 162 163 165 164 162 156 158 155 153 153 156 155 156 154 155 152 146 143 141 145 137 136 133 124 122 120 117 110 121 143 146 149 146 146 147 146 150 153 153 153 153 152 147 145 146 151 147 139 141 132 126 120 121 129 142 142 143 157 161 153 162 162 158 164 159 160 153 154 148 147 125 120 109 81 28 13 6 
165 168 162 167 164 165 163 164 159 160 156 155 152 155 153 149 151 154 150 139 136 134 135 136 131 135 130 124 119 117 115 131 149 146 148 146 145 145 148 150 152 153 154 155 151 145 142 146 147 145 134 132 123 123 122 124 121 133 133 145 158 161 158 161 162 160 160 161 158 159 152 146 148 126 117 107 75 28 20 10 
165 167 165 168 167 164 162 162 159 156 154 152 152 154 155 153 151 149 148 139 131 133 134 136 133 132 128 121 122 117 113 129 150 144 148 144 146 147 149 154 152 152 154 154 151 145 142 146 147 146 135 135 127 138 126 122 127 138 140 141 157 161 159 160 161 159 163 161 160 154 151 145 141 121 117 105 71 24 17 7 
168 171 170 165 165 165 161 162 163 158 156 154 152 153 153 154 152 150 150 137 134 137 136 137 135 133 127 127 117 121 112 133 150 152 149 145 147 150 148 152 154 157 156 151 152 144 138 146 146 143 138 132 130 135 130 127 131 137 139 140 159 155 159 160 161 161 164 167 161 157 150 149 138 120 119 103 70 23 19 11 
168 168 165 164 162 161 161 163 158 157 156 154 154 153 154 157 157 152 145 137 137 134 134 137 135 134 131 123 118 118 118 134 146 151 150 148 147 148 146 151 156 156 158 154 151 145 135 149 148 146 140 128 127 132 125 130 124 138 142 141 150 159 156 160 161 160 167 165 157 152 154 148 136 120 113 103 63 27 17 12 
170 168 162 165 165 165 161 161 158 155 156 154 154 152 152 156 156 151 149 136 137 133 134 137 135 133 131 123 119 117 115 141 150 150 147 146 147 148 145 151 157 156 153 156 149 139 136 146 145 144 144 132 131 131 121 118 129 136 133 141 152 158 155 157 159 163 161 160 159 156 153 147 135 120 111 103 57 23 17 16 
166 165 165 166 161 164 161 159 166 156 155 154 153 151 153 153 153 151 146 135 135 134 132 139 136 134 131 123 118 116 117 135 149 145 148 146 149 149 148 151 154 149 152 153 151 137 131 145 145 140 137 134 133 131 124 121 133 138 134 139 151 155 151 156 161 163 163 160 161 157 154 143 130 109 115 97 58 23 22 21 
165 165 164 168 168 168 161 158 161 159 155 154 149 152 152 154 156 151 149 136 137 134 133 135 136 129 128 123 116 122 115 136 148 146 148 146 149 147 147 151 152 152 152 151 149 140 130 142 142 140 134 132 135 129 130 125 130 138 136 139 155 159 155 157 166 165 165 160 155 152 148 140 127 113 107 94 50 26 25 24 
165 167 167 171 165 166 162 160 161 152 156 157 153 152 151 153 154 151 149 138 135 134 133 131 137 131 128 122 118 118 114 138 148 150 148 146 148 147 148 149 154 151 151 153 146 137 129 144 147 140 129 116 110 119 126 125 121 125 126 141 152 158 152 155 160 159 161 160 159 151 155 143 126 104 107 89 47 29 29 29 
168 165 163 165 165 165 162 160 160 157 153 152 155 151 154 150 153 154 149 138 138 127 130 131 134 130 124 118 119 118 112 140 147 149 149 148 143 145 148 152 152 153 153 151 146 135 130 145 143 140 128 110 108 107 109 116 113 121 132 142 148 154 148 151 160 158 155 159 156 156 149 144 118 103 105 77 40 28 36 23 
165 167 161 168 163 164 162 162 161 156 157 155 153 152 151 152 154 155 151 137 137 133 128 132 134 133 125 121 119 116 111 142 149 146 148 144 143 147 148 153 152 152 150 152 146 132 129 141 148 141 129 112 104 115 103 109 116 125 128 138 150 155 148 154 154 156 157 157 158 153 153 140 120 106 97 78 39 28 34 34 
167 168 164 166 165 168 164 164 160 158 157 155 156 149 153 150 152 156 147 138 132 130 131 128 130 131 122 118 119 116 112 139 147 148 148 146 146 148 148 153 153 152 151 153 144 132 124 144 143 140 123 106 107 114 104 109 126 128 133 138 153 150 148 151 155 160 154 153 155 153 149 134 117 101 99 75 37 30 29 35 
165 164 167 161 164 165 164 163 158 158 158 153 154 153 151 150 150 153 147 138 134 132 130 132 132 131 121 120 119 118 111 140 147 149 146 148 146 147 153 152 151 150 151 153 148 130 127 142 141 140 125 111 106 109 107 114 128 122 130 142 150 154 148 154 154 152 152 155 151 152 150 128 112 101 98 73 38 33 30 41 
162 163 165 169 163 164 161 160 158 157 155 155 154 155 151 151 151 153 151 136 137 130 131 136 132 133 126 123 118 118 112 141 148 149 150 143 144 147 150 152 152 150 150 153 142 132 128 144 142 140 125 106 113 114 110 120 125 121 132 139 153 149 149 150 154 154 150 155 148 149 144 131 113 101 95 73 38 33 41 45 
159 162 162 160 161 166 158 161 158 159 157 155 154 152 151 150 147 149 149 133 134 131 132 132 135 133 132 124 116 114 112 138 145 149 150 147 144 148 148 151 152 151 148 152 142 124 122 144 139 141 122 111 96 103 112 119 128 134 136 135 151 153 146 147 153 151 154 151 151 145 140 126 104 97 97 63 32 32 45 42 
161 165 161 168 162 164 158 161 155 156 152 152 154 152 150 149 155 150 148 136 134 126 131 135 132 135 128 120 118 114 112 138 146 140 148 144 150 150 149 152 154 148 150 152 142 124 123 142 141 137 120 105 99 115 115 119 138 135 135 135 151 152 149 150 153 152 153 151 149 147 141 118 106 96 96 61 39 37 41 39 
163 165 164 163 165 164 162 159 156 155 154 150 150 154 153 148 148 149 147 139 138 128 129 133 133 130 128 118 114 119 114 144 150 152 148 149 150 148 152 154 152 150 156 151 144 121 125 141 142 136 118 112 110 118 107 121 133 139 139 144 153 155 150 154 157 151 150 149 152 148 141 115 102 97 98 59 33 33 46 44 
161 161 155 162 161 163 161 162 156 154 154 153 152 152 152 151 149 149 146 139 132 127 133 133 132 129 128 125 118 116 113 140 148 146 146 147 147 152 150 150 151 150 150 152 144 119 126 147 137 137 122 112 112 114 121 125 134 138 141 147 154 153 145 150 154 154 149 150 152 145 142 116 106 97 91 56 37 37 43 47 
160 162 155 162 160 163 162 156 157 157 153 150 152 154 151 150 150 150 146 134 135 131 131 130 131 127 124 119 116 116 112 138 144 147 145 146 143 148 147 149 150 149 148 150 140 112 123 136 136 131 115 115 113 125 127 123 125 125 137 147 152 149 147 145 151 152 153 150 148 144 133 103 98 93 86 45 37 30 39 48 
161 157 157 157 161 161 158 158 156 156 154 153 153 150 150 152 149 151 147 135 135 124 130 132 132 132 121 121 114 115 117 136 144 145 148 148 142 147 147 146 148 149 148 149 143 113 121 133 133 129 121 124 123 125 123 121 103 98 123 146 150 151 148 149 152 152 153 146 149 150 128 108 96 98 89 47 30 32 43 48 
157 164 159 162 158 161 159 162 154 149 155 152 154 154 150 148 148 148 149 135 133 132 139 133 132 131 128 123 118 117 114 137 144 148 148 147 147 144 147 147 150 150 150 152 139 111 114 139 132 129 123 120 118 124 127 108 86 88 126 139 155 147 148 147 150 151 150 150 144 143 123 101 103 96 85 41 29 32 43 41 
160 158 157 160 160 162 159 159 153 149 152 151 153 156 151 151 147 147 148 139 140 135 135 141 140 131 124 121 111 121 109 140 148 146 148 145 149 148 146 151 149 152 155 153 139 112 116 137 135 127 113 96 93 102 96 77 75 87 125 135 144 148 141 146 148 146 148 149 147 144 119 100 103 92 81 39 33 37 48 47 
158 158 158 158 156 156 160 160 161 151 151 150 152 153 153 151 145 147 147 141 139 134 135 132 134 131 121 124 119 118 108 135 145 143 145 145 147 149 144 148 154 149 151 149 136 114 122 132 130 126 107 67 62 67 62 65 66 83 109 124 126 139 138 140 150 148 149 149 142 134 117 102 99 91 73 32 34 34 41 48 
163 165 160 161 156 161 160 158 156 152 151 153 152 151 154 154 150 149 148 136 131 126 131 130 129 127 124 122 117 119 111 133 145 148 146 149 150 150 146 148 151 152 150 151 138 114 114 132 129 124 106 70 53 60 56 57 62 72 76 88 93 96 105 137 150 148 145 134 135 135 108 96 96 89 72 29 37 32 42 44 
167 165 160 159 157 158 157 157 157 152 150 151 149 150 149 149 149 149 145 131 131 126 130 129 131 132 128 117 118 118 112 134 143 144 145 144 145 147 146 148 147 150 151 148 136 109 114 130 130 125 102 63 48 56 52 58 59 70 74 75 84 80 85 114 142 138 128 101 109 114 100 93 97 89 59 26 24 30 42 40 
159 161 157 161 161 162 152 158 156 152 152 150 151 150 153 151 146 147 146 130 132 127 131 133 130 133 125 123 119 116 108 133 140 147 146 145 146 147 146 149 149 150 148 148 131 109 122 127 127 121 106 63 48 56 52 53 57 66 73 73 76 76 73 90 110 108 93 77 85 93 94 90 89 85 50 22 19 26 37 36 
157 159 155 157 161 163 159 159 158 153 154 150 148 148 146 148 149 147 148 130 134 125 134 132 133 131 128 123 118 118 112 137 145 144 147 146 143 145 147 147 149 148 148 152 133 103 122 133 128 121 103 63 45 52 50 50 54 63 68 73 74 74 72 83 87 82 80 67 73 89 96 88 90 83 42 16 14 23 31 35 
159 159 155 159 165 162 159 157 157 156 152 149 149 147 150 149 147 144 145 134 128 124 132 132 133 131 129 123 120 117 118 139 144 144 148 143 144 146 149 148 152 147 148 148 124 104 122 127 126 120 105 64 44 51 45 50 55 57 62 65 69 71 69 78 79 77 76 69 80 85 91 84 85 80 33 10 12 18 32 32 
159 160 153 160 158 161 160 157 156 154 156 149 150 148 148 149 146 142 143 136 131 125 130 133 131 129 134 126 118 117 121 140 141 145 145 143 143 147 143 149 148 149 147 149 119 99 115 129 128 121 104 63 42 45 41 46 50 57 56 57 65 69 66 75 74 74 71 69 76 82 89 77 79 68 21 6 9 10 29 31 
154 156 155 157 154 160 156 156 157 152 154 150 150 149 148 147 143 147 145 130 128 126 134 136 134 127 130 126 116 118 116 139 144 147 145 143 139 143 143 147 150 148 150 146 120 95 111 127 122 116 102 65 37 38 31 36 45 45 51 53 64 65 55 68 73 66 67 65 75 81 91 80 83 59 13 10 10 14 29 32 
156 159 156 158 156 157 157 159 156 152 153 152 156 148 147 148 145 147 143 131 131 129 129 137 137 129 128 121 116 117 112 138 146 147 144 142 141 145 144 148 152 147 147 143 115 90 115 125 124 116 100 60 40 32 31 35 33 39 41 49 54 53 53 58 63 62 64 62 73 81 79 73 69 43 8 7 13 24 35 34 
158 158 158 157 152 155 156 159 154 153 154 150 151 150 145 146 143 147 142 128 127 122 129 134 130 129 122 125 116 113 114 141 141 144 145 143 141 146 143 144 146 147 147 142 111 92 113 126 120 116 102 65 41 40 33 31 36 37 39 35 45 46 41 53 60 58 57 58 72 78 74 73 65 35 11 2 25 39 39 43 
158 158 152 154 153 157 156 156 154 152 154 149 149 147 145 145 140 145 144 130 126 121 130 133 130 127 125 119 116 113 112 133 137 142 143 140 141 146 143 148 149 147 149 140 101 83 110 124 121 113 100 64 40 41 37 39 39 40 45 43 45 46 44 45 49 46 51 48 70 69 70 65 59 26 7 0 28 36 47 45 
158 161 151 156 154 154 152 156 150 154 153 151 151 147 148 148 148 148 143 134 129 123 129 136 132 128 126 127 116 115 117 137 138 143 143 145 144 146 143 149 149 150 148 141 100 90 113 124 122 115 100 68 47 44 37 40 41 43 48 47 49 54 52 56 57 50 49 62 73 70 66 62 58 22 14 6 32 40 52 50 


