P2
80 60
45
35 35 34 34 34 38 34 35 39 37 35 36 37 32 39 34 35 35 32 35 32 34 32 32 32 33 32 32 36 32 34 34 37 34 35 35 34 32 31 32 33 34 36 34 32 30 29 25 33 28 25 28 26 33 29 32 35 32 39 31 31 30 29 27 24 26 23 24 25 26 25 24 20 25 29 29 24 25 21 23 
37 36 38 36 35 36 32 35 34 36 34 37 34 34 36 37 37 34 33 33 36 31 32 30 33 32 34 32 31 32 35 36 34 35 35 35 36 34 30 32 33 35 36 34 30 29 28 25 31 29 26 27 29 32 31 31 33 32 33 28 26 26 28 23 27 26 24 20 24 20 23 19 23 26 27 29 27 25 25 19 
37 36 34 31 33 38 32 31 38 34 38 39 35 33 37 33 31 31 31 35 36 37 39 33 31 32 34 34 33 33 34 38 35 35 35 33 36 36 34 32 31 33 37 32 30 29 26 27 28 27 22 25 27 29 26 32 31 31 29 27 28 29 26 25 26 22 21 22 22 22 26 23 20 28 27 26 26 24 24 22 
36 36 36 31 32 38 34 32 34 34 42 38 35 30 35 33 33 36 33 34 34 32 34 34 31 33 33 33 32 35 32 37 38 32 32 37 32 33 35 34 34 32 36 34 32 29 28 29 30 27 27 26 26 27 27 30 32 32 27 30 25 28 27 28 27 26 25 22 25 28 28 26 23 26 28 27 25 25 26 21 
40 35 36 34 33 38 34 32 34 36 38 36 32 34 36 35 35 30 34 36 33 32 33 35 35 34 35 37 33 30 33 37 31 33 34 35 33 36 40 32 33 35 35 32 31 30 32 31 28 28 25 27 27 29 27 29 29 26 31 27 30 27 27 31 26 29 25 24 27 26 29 25 23 24 30 29 28 26 27 21 
37 37 36 34 33 36 36 39 39 33 37 36 36 35 34 33 34 36 33 35 34 36 35 36 40 35 35 36 33 30 31 33 32 32 32 34 35 32 37 33 35 39 36 33 32 33 34 32 27 29 27 25 27 28 26 32 29 30 28 26 32 29 21 28 28 26 26 25 31 27 28 25 26 25 27 26 28 28 24 23 
38 37 36 32 35 38 37 37 40 36 35 39 34 34 32 34 39 34 36 36 36 33 36 35 35 30 34 34 31 28 34 34 34 31 30 36 33 34 32 35 35 33 32 31 31 30 29 29 30 27 26 30 30 28 30 30 34 33 37 30 28 28 25 29 27 26 22 24 26 26 25 25 22 23 26 24 25 25 25 16 
40 39 40 34 37 41 34 36 36 33 34 36 36 34 31 39 36 37 38 34 38 36 35 35 33 34 35 32 33 33 31 33 31 35 35 36 34 35 35 34 34 32 33 34 30 31 33 30 33 28 28 29 32 31 29 33 29 31 31 28 30 28 29 27 26 25 27 22 24 25 28 21 21 24 27 24 24 25 26 20 
42 40 40 36 36 36 42 39 36 35 34 35 38 34 35 36 39 31 36 41 35 34 36 34 35 33 35 34 34 30 33 32 31 32 35 33 33 33 35 34 31 32 29 31 33 30 33 33 32 31 31 29 29 29 28 30 30 28 31 34 31 29 30 28 23 25 23 24 21 27 23 23 22 22 22 24 24 24 21 22 
45 42 43 39 36 39 41 42 39 34 37 39 38 31 34 34 39 34 38 36 36 37 37 38 36 35 33 33 33 32 31 32 33 31 36 34 34 33 31 33 30 32 31 30 32 33 32 33 33 32 34 35 31 34 31 34 32 30 34 32 29 32 27 25 28 29 24 22 26 22 22 23 22 22 24 24 24 22 22 14 
41 43 37 39 37 37 42 37 39 39 34 32 37 32 34 38 37 34 32 34 34 34 37 36 38 37 34 33 32 29 33 33 31 30 29 35 35 32 33 34 28 30 30 29 32 31 32 32 32 32 33 35 34 34 32 35 32 30 32 29 28 33 26 32 27 27 24 27 23 22 22 22 23 25 22 28 23 20 22 17 
44 38 39 39 39 39 42 35 37 33 30 34 37 30 36 30 34 31 29 35 32 31 36 32 33 31 31 33 32 28 32 34 33 31 29 33 33 28 32 33 33 32 28 30 33 34 35 32 32 33 33 35 34 34 32 33 32 34 30 31 31 32 29 31 26 27 24 23 21 20 20 18 22 25 21 27 25 20 19 12 
43 40 42 41 38 40 35 37 34 32 35 34 36 32 33 32 33 33 28 32 31 31 34 32 29 31 30 35 30 32 31 33 31 32 31 34 30 31 34 33 29 29 32 31 34 32 37 34 33 28 32 33 30 31 30 30 32 32 30 31 28 29 32 29 29 26 27 23 26 26 14 21 24 21 26 23 24 23 21 14 
35 38 42 36 38 39 34 34 34 34 35 36 32 34 35 34 35 31 28 30 33 34 34 30 32 30 31 31 30 31 35 29 32 33 31 30 28 35 31 30 29 30 31 30 30 32 34 32 30 36 32 30 30 30 29 31 32 32 30 29 28 28 26 29 28 27 26 26 24 23 25 19 22 22 28 23 24 19 23 17 
44 40 41 39 34 36 36 33 31 32 31 35 31 30 31 31 32 29 30 30 29 32 34 32 32 29 32 30 30 31 32 31 30 29 30 30 30 30 30 30 28 31 28 29 27 31 31 30 33 28 31 30 29 31 31 35 31 39 33 29 28 26 26 25 23 23 26 25 27 21 26 19 23 22 23 20 24 24 23 16 
38 41 43 37 37 35 34 32 35 29 32 34 34 36 32 32 29 28 29 29 30 31 31 33 29 33 31 30 27 29 32 31 30 30 30 30 29 31 31 30 32 30 30 31 30 31 31 31 28 29 27 27 29 37 30 35 33 36 30 31 27 27 29 25 29 25 26 27 23 23 28 20 22 23 22 23 23 26 23 16 
44 43 40 39 37 36 32 32 33 29 33 34 31 31 31 32 30 31 30 27 30 34 35 29 29 27 30 32 31 30 30 33 33 34 28 31 30 28 29 30 31 28 27 29 28 36 31 28 29 28 29 28 28 32 30 34 31 34 31 30 26 29 27 25 25 26 23 27 26 23 24 21 26 22 24 25 19 22 24 19 
42 37 40 40 37 35 35 29 32 29 31 32 31 30 33 31 32 32 29 29 32 29 32 34 30 29 28 32 32 30 33 30 30 32 31 31 29 30 31 30 28 26 29 31 32 32 32 27 31 25 26 31 34 30 34 31 30 37 33 30 28 24 26 25 26 25 20 23 25 22 23 21 25 19 24 29 22 23 24 20 
41 41 38 37 37 36 35 32 31 29 36 31 32 31 31 33 32 32 29 29 31 30 34 31 29 32 31 33 32 30 33 34 33 32 34 31 30 31 30 29 28 33 28 31 31 30 30 27 27 27 30 29 34 31 29 29 31 30 28 24 27 26 24 23 23 25 23 26 25 23 25 23 21 18 21 21 19 21 20 19 
39 40 40 35 34 40 34 31 33 30 35 31 32 31 31 30 32 31 33 29 32 33 35 30 33 34 33 31 31 30 33 33 27 30 32 30 32 33 29 28 34 31 28 28 29 30 27 29 28 26 28 31 29 24 30 33 30 24 30 25 26 27 26 25 23 26 25 25 24 24 24 21 20 22 20 21 19 23 17 17 
41 39 36 32 37 33 37 30 31 32 31 32 32 32 31 30 29 31 28 31 30 31 33 32 32 32 33 30 28 31 43 33 30 28 28 29 33 30 28 28 30 33 31 27 29 27 30 26 28 28 29 30 25 24 28 29 27 26 28 27 24 25 27 23 26 21 22 25 21 26 24 22 20 20 21 21 21 20 22 19 
42 36 39 36 34 34 37 29 31 29 33 32 37 32 32 32 28 28 30 31 29 30 33 31 30 30 31 31 28 30 33 30 32 30 27 27 33 30 30 30 31 30 26 25 29 27 27 27 27 27 29 27 28 23 27 25 27 26 30 27 25 25 24 26 24 26 22 25 22 25 22 20 23 21 23 19 19 21 22 17 
36 40 38 36 31 33 33 36 34 30 28 31 35 30 30 31 30 31 33 30 32 33 29 33 30 33 33 32 28 25 29 30 31 28 27 31 28 29 30 32 29 28 28 28 33 26 29 25 31 26 29 26 27 28 25 28 26 26 28 27 26 23 25 27 28 24 27 24 23 23 21 21 24 22 21 22 18 19 16 21 
39 38 37 34 32 36 39 37 33 29 32 34 32 29 32 33 30 32 32 32 30 29 31 31 28 28 31 28 27 29 29 29 29 27 26 26 29 27 30 28 27 28 26 27 29 29 28 26 26 30 29 27 28 26 27 28 26 25 25 25 21 25 26 27 26 22 23 25 20 23 22 19 23 19 22 20 19 23 19 19 
40 36 39 32 32 38 36 32 33 31 32 34 34 29 28 30 31 29 31 31 32 31 30 30 31 28 30 28 28 26 27 28 28 26 25 27 25 30 30 27 25 27 24 26 30 27 28 28 30 27 27 29 22 25 25 25 27 24 26 27 24 24 27 22 24 24 23 24 24 21 22 16 24 22 22 19 20 22 21 18 
40 36 33 32 31 30 33 32 32 31 32 30 30 29 34 33 31 31 30 28 30 28 30 32 30 31 28 28 26 25 26 27 27 24 28 25 23 26 25 27 24 27 24 26 26 29 24 29 27 24 26 25 24 25 23 24 23 24 27 25 24 21 20 24 27 21 24 22 22 23 22 19 19 21 19 22 21 24 22 20 
40 34 38 35 34 32 36 35 30 32 30 32 29 30 30 32 31 33 29 28 29 29 33 31 29 29 29 30 26 25 30 26 28 27 24 23 29 25 27 28 23 29 25 27 26 26 28 26 25 25 25 28 25 24 22 24 24 22 21 25 24 23 19 21 23 23 20 22 19 24 25 20 22 23 22 20 20 18 21 20 
40 36 39 34 35 33 34 32 36 33 34 34 33 32 31 29 30 31 29 31 30 27 33 32 32 29 30 30 28 26 30 29 25 26 25 24 27 26 27 27 28 24 27 29 28 25 29 23 25 26 25 29 26 27 22 24 26 20 21 23 27 23 26 22 26 24 23 23 25 24 26 20 23 20 21 22 19 22 18 18 
39 40 37 35 33 35 34 34 33 33 33 35 36 30 33 31 27 30 30 32 27 29 31 29 29 36 33 32 29 28 28 31 27 23 27 24 27 27 29 28 24 27 26 26 28 31 26 27 25 26 28 23 23 24 23 25 25 20 24 24 24 25 25 26 26 26 23 22 21 20 24 24 19 21 19 21 21 20 22 15 
38 39 40 32 36 37 36 32 37 31 33 32 33 30 33 29 29 29 30 30 29 27 31 30 29 30 32 27 26 27 27 29 26 24 26 30 28 28 25 25 28 25 29 26 28 29 26 26 27 24 27 27 24 23 22 25 20 21 19 23 25 23 22 23 24 25 19 23 20 22 22 18 26 22 19 24 20 15 20 12 
38 40 38 37 33 31 34 30 30 34 30 33 33 32 28 31 30 27 28 28 29 26 35 30 31 29 29 27 30 24 28 25 25 26 29 30 28 26 27 28 28 26 31 28 28 28 24 25 28 26 26 21 22 22 26 24 26 21 20 18 24 23 24 26 25 24 22 25 24 20 23 20 22 21 21 22 19 16 18 16 
38 41 33 34 32 33 34 30 32 31 30 30 32 32 33 30 33 28 30 29 27 25 30 31 30 31 33 28 28 24 27 27 27 25 27 27 24 24 23 30 28 29 29 30 29 25 24 26 26 30 25 25 23 23 23 23 23 22 20 20 23 19 21 24 24 23 23 20 21 20 24 17 20 21 17 21 17 17 18 21 
37 39 37 35 35 35 33 35 36 29 29 34 33 31 32 32 28 30 30 28 29 27 27 29 31 30 31 31 30 26 28 26 27 24 22 26 25 26 24 27 28 29 30 25 29 25 25 24 27 26 27 25 20 22 22 26 23 23 20 20 21 21 22 24 22 22 24 17 23 19 17 15 18 22 18 19 20 18 20 13 
38 38 35 33 38 31 32 30 33 31 33 32 30 28 31 28 31 29 29 29 28 28 29 28 28 28 28 29 26 29 26 23 28 26 26 25 26 25 26 27 26 25 27 26 27 26 26 26 25 26 25 25 23 22 21 21 22 20 24 22 18 25 24 22 23 20 23 22 18 20 22 19 20 18 21 21 18 16 18 17 
34 36 35 34 32 32 31 29 33 30 31 33 32 31 30 32 31 29 27 30 29 30 31 29 31 30 30 30 31 26 28 29 28 24 28 23 26 26 28 23 23 26 25 26 26 28 26 26 23 24 23 27 25 23 24 19 22 24 21 17 18 20 21 23 23 23 20 22 16 20 20 18 19 17 23 20 18 19 20 19 
38 37 40 34 34 33 30 33 33 31 30 27 29 31 31 31 29 30 31 29 30 28 27 31 30 28 27 30 28 27 29 28 28 25 25 24 28 28 24 26 26 27 23 24 27 26 28 29 24 26 25 26 24 24 23 25 22 21 22 22 22 23 23 22 21 22 19 20 20 19 19 16 20 21 18 21 19 20 17 17 
40 36 39 36 31 32 32 29 29 31 30 33 28 28 32 31 29 33 33 27 28 28 30 32 27 27 26 27 28 28 28 28 27 27 26 22 28 26 24 25 23 26 24 27 25 27 29 25 27 25 23 25 21 23 20 21 22 23 22 18 20 22 19 24 23 23 18 20 17 16 19 13 21 19 17 16 19 16 17 16 
39 39 37 35 33 33 33 32 32 30 29 31 29 29 31 32 28 33 32 28 29 29 29 28 29 26 23 30 27 25 29 28 27 25 24 25 26 28 26 23 24 26 23 25 28 29 28 22 25 23 24 23 19 24 26 24 23 20 21 22 20 19 20 23 21 26 18 19 21 17 20 16 18 17 19 18 16 15 16 16 
36 36 37 33 35 33 34 31 31 30 32 34 32 27 30 32 28 33 30 30 27 30 32 30 29 28 24 26 24 25 28 27 28 27 27 27 25 25 30 27 24 27 24 25 26 27 26 23 24 25 24 23 21 23 24 21 21 18 20 19 17 22 18 20 21 20 20 18 23 16 16 15 21 17 17 19 19 20 19 17 
37 39 37 33 31 35 31 36 31 30 33 32 33 27 28 31 28 29 30 28 28 30 31 35 31 29 29 24 26 27 26 26 28 24 26 27 27 25 27 27 25 25 25 25 25 24 27 27 24 27 23 25 23 25 23 23 20 18 15 17 19 18 19 17 18 15 18 16 18 15 18 15 19 19 19 18 18 18 21 23 
35 36 36 33 31 32 29 32 31 27 30 30 30 31 30 32 25 26 28 28 28 25 29 34 29 28 35 28 24 24 23 25 28 28 26 25 25 25 24 23 25 24 24 25 29 25 29 29 25 26 27 26 23 28 19 21 20 21 20 14 17 18 16 18 17 15 14 16 10 18 15 17 20 16 20 18 18 20 26 19 
35 37 39 33 30 34 31 32 30 29 34 33 31 29 32 28 26 30 30 30 27 31 30 32 33 25 28 28 27 24 27 27 29 26 27 27 32 27 24 24 22 30 26 24 26 28 27 29 27 27 28 26 25 25 21 22 18 17 15 15 18 18 17 19 19 19 16 15 11 16 17 14 20 13 19 17 19 22 20 14 
39 39 39 33 34 30 35 31 30 28 30 31 32 31 31 30 28 27 29 30 30 28 30 29 27 30 26 28 26 23 25 26 26 26 25 32 28 24 24 25 23 25 24 25 25 28 28 26 28 26 27 23 22 23 22 18 19 18 17 18 18 20 18 20 19 16 15 16 15 17 15 12 18 14 17 14 16 17 17 16 
38 36 35 31 33 34 31 30 31 28 33 32 30 29 29 29 31 28 25 30 29 31 29 28 28 30 30 26 24 24 28 24 24 23 27 24 30 26 23 24 24 26 25 24 26 27 27 32 28 23 28 21 20 23 17 16 18 19 20 19 16 18 19 18 19 16 17 15 14 15 17 11 15 13 17 17 20 15 19 17 
35 35 33 31 30 32 32 31 30 28 31 31 29 30 33 28 30 29 27 30 33 29 27 31 29 29 25 27 27 25 29 28 27 27 25 25 25 25 24 24 28 26 26 24 27 26 29 29 28 24 23 21 19 21 17 19 16 18 19 21 18 19 16 17 16 18 18 17 18 17 16 14 14 17 18 14 16 15 17 16 
39 37 34 34 32 32 31 26 30 30 30 29 29 33 33 33 33 29 29 30 30 28 31 30 28 26 24 24 24 24 28 28 25 24 24 28 27 27 26 27 22 27 23 23 24 27 26 28 24 22 19 19 19 19 16 18 15 16 17 15 18 16 14 16 18 19 19 15 15 18 17 10 13 13 18 15 14 13 19 16 
35 34 29 30 29 33 28 29 26 28 34 34 33 27 32 34 30 29 29 28 28 27 30 30 27 26 21 22 24 23 25 27 25 24 25 26 21 24 24 25 24 24 23 24 27 29 28 23 24 27 20 21 18 18 15 17 16 17 11 14 17 14 18 16 14 13 16 14 15 13 17 11 17 13 14 16 15 12 14 13 
36 37 31 30 30 32 32 29 30 29 28 31 30 32 34 35 31 29 30 30 30 29 28 28 25 25 22 24 25 24 27 25 23 24 23 23 24 24 23 22 22 24 22 23 23 27 28 25 26 25 23 20 20 18 16 19 19 17 14 17 15 16 16 17 15 15 13 15 13 13 15 13 16 15 16 11 12 13 13 7 
35 34 31 28 24 32 32 30 29 28 29 29 33 29 33 33 31 29 28 30 28 29 33 30 27 25 26 24 25 21 23 28 24 25 22 21 24 28 27 24 20 23 20 20 23 23 26 24 22 23 22 21 17 19 16 18 18 16 17 15 16 17 15 17 16 10 15 13 10 13 13 10 19 11 17 13 13 14 12 11 
38 37 32 27 29 32 33 29 29 30 27 29 34 31 31 35 29 32 31 30 29 25 29 28 28 25 25 23 22 23 23 26 21 23 21 23 25 24 23 22 23 21 20 23 22 22 23 20 27 23 20 17 18 18 18 18 17 17 19 15 15 16 18 14 16 12 14 14 14 14 14 7 9 10 17 14 15 11 11 7 
34 33 27 31 32 30 31 27 31 28 30 26 29 29 34 31 32 29 31 27 27 26 29 27 30 24 23 24 23 22 22 22 23 22 22 19 25 23 26 23 20 18 20 19 20 21 23 21 21 21 18 18 17 21 18 20 18 15 19 17 14 16 14 16 15 11 13 8 11 10 13 10 8 6 15 11 10 7 9 9 
37 35 29 35 34 33 29 28 29 26 28 28 28 24 32 30 25 26 28 28 30 23 25 28 26 26 23 25 21 26 23 24 20 23 25 24 23 23 19 20 18 21 22 22 19 22 22 23 25 23 18 15 20 22 16 21 24 20 18 16 16 17 15 14 12 12 10 11 6 10 14 8 8 6 11 9 10 11 12 6 
38 36 31 31 32 31 31 29 28 28 29 28 29 30 28 29 30 27 27 29 24 27 26 26 29 27 27 26 22 23 22 25 24 23 23 26 20 20 20 21 21 20 16 22 22 22 23 23 27 24 23 15 19 18 18 20 23 20 16 15 15 13 12 14 12 10 12 8 9 8 10 1 9 11 15 11 12 3 8 3 
34 34 27 33 32 38 29 26 31 26 29 30 31 32 29 27 27 24 24 23 24 27 26 27 28 28 27 26 25 24 23 24 24 23 22 24 24 21 22 20 19 21 20 20 20 22 24 21 23 24 17 16 15 19 18 20 23 18 19 17 12 12 10 13 8 12 10 7 8 13 13 8 11 10 15 9 7 5 7 5 
34 33 26 29 31 27 33 28 28 28 29 32 34 25 32 30 27 27 31 27 24 23 28 26 27 27 31 25 25 19 23 22 21 21 20 19 19 22 18 17 18 21 21 19 19 17 23 25 23 20 21 17 14 18 19 18 19 16 18 14 17 16 16 13 10 10 8 7 7 11 12 9 8 9 9 7 8 7 7 7 
30 33 25 26 26 31 31 28 29 31 30 32 31 33 27 28 26 25 28 25 26 23 28 25 26 25 25 24 21 20 22 20 19 22 19 19 19 19 16 19 21 20 19 21 20 19 22 20 19 19 18 13 13 15 15 14 20 14 15 16 12 15 14 13 12 8 7 7 7 8 13 10 6 9 7 7 8 2 6 4 
32 30 29 28 28 29 28 28 30 27 31 32 38 27 30 27 28 27 26 30 26 24 23 24 22 24 21 22 22 18 19 21 22 20 19 18 21 19 19 15 21 17 21 17 22 20 23 20 19 16 13 12 13 13 15 16 18 15 13 11 13 12 9 8 8 7 6 2 5 9 8 7 4 7 5 10 9 7 4 1 
29 30 29 28 29 29 27 25 28 30 29 32 33 30 29 26 27 28 27 30 25 25 30 22 22 22 23 23 22 20 18 21 23 20 18 16 21 21 21 21 17 21 18 18 17 24 23 18 18 17 12 12 12 15 12 12 14 14 13 14 12 8 12 11 8 5 7 6 5 8 9 2 4 6 10 6 7 4 4 1 
30 28 26 27 28 25 25 25 28 27 29 29 28 26 27 28 26 27 29 23 28 25 28 24 22 21 20 22 25 20 19 20 23 19 19 20 21 19 18 15 18 18 17 19 16 19 19 15 14 14 12 13 14 10 14 14 14 11 15 12 15 12 9 6 7 8 3 7 3 3 5 2 8 5 7 7 5 7 5 3 
32 27 29 26 26 30 26 27 28 29 26 28 26 25 25 27 25 23 24 24 28 26 26 25 26 22 22 22 27 23 16 22 20 19 22 23 25 20 15 20 17 21 20 18 15 19 15 13 13 13 13 10 12 13 13 11 15 12 15 14 15 12 8 8 11 5 3 8 7 4 6 1 5 7 9 9 5 3 3 0 


