P2
80 60
34
22 22 20 19 21 18 18 20 19 23 22 23 20 21 21 19 17 17 20 20 19 20 20 18 19 22 21 21 20 21 21 20 19 24 25 22 22 21 19 19 24 19 22 21 19 25 23 18 21 21 19 18 20 24 19 22 25 24 18 19 17 18 21 13 11 10 11 12 10 9 14 9 11 10 17 8 6 7 9 13 
24 25 25 22 21 20 21 21 22 23 24 24 21 21 23 21 20 18 19 21 22 23 19 19 21 22 24 24 20 24 20 22 21 22 26 24 23 20 18 20 20 18 18 22 23 22 22 20 19 23 20 21 19 24 20 25 26 22 20 18 16 15 18 14 12 9 10 11 9 8 7 6 9 12 14 10 8 8 11 5 
23 20 21 22 22 21 25 23 22 23 24 20 24 21 24 22 17 21 20 18 22 22 22 19 20 23 22 20 21 23 22 22 21 24 26 22 24 22 18 18 19 18 18 18 20 20 21 21 23 19 21 22 19 22 22 22 22 23 17 16 15 15 14 10 11 8 11 11 10 9 11 11 12 10 9 14 12 9 6 10 
20 24 21 21 22 25 22 22 21 25 31 24 26 25 23 21 20 18 19 20 19 23 19 18 19 22 22 23 20 23 18 22 21 23 25 20 19 21 21 20 23 15 20 20 18 21 23 17 24 22 20 20 21 21 18 21 24 18 19 17 22 16 16 10 11 11 11 12 9 9 11 13 12 10 11 12 11 10 6 8 
24 23 21 24 22 26 24 26 24 22 24 21 24 22 20 25 23 20 21 21 22 22 18 19 21 22 24 20 21 19 16 20 23 20 22 21 21 24 24 22 20 18 19 22 20 19 21 22 21 20 19 21 25 21 21 22 20 19 17 15 17 20 21 17 17 10 11 14 12 10 10 10 12 10 13 12 13 8 9 7 
25 24 23 23 24 26 26 30 23 22 22 21 25 24 26 24 21 22 23 25 22 23 22 22 22 23 27 24 22 19 18 20 17 18 19 22 21 24 22 21 21 23 21 20 20 20 26 22 24 20 22 19 23 22 21 22 19 23 18 18 21 17 21 14 12 13 13 15 15 12 13 12 13 9 13 14 13 10 9 6 
25 26 25 24 24 21 27 23 23 21 23 25 24 25 24 26 27 22 23 23 22 22 22 18 23 19 24 26 18 21 20 23 20 22 20 23 20 25 20 23 25 17 19 19 22 23 23 22 25 23 23 25 22 23 20 21 21 25 26 20 23 19 20 17 16 13 15 17 16 11 9 11 11 13 8 13 11 9 8 2 
25 26 25 23 25 24 27 22 22 20 25 23 23 24 23 25 22 21 24 21 27 23 19 20 21 25 22 21 18 22 17 21 19 23 24 26 23 21 22 21 26 17 20 20 20 20 24 22 18 19 20 25 23 20 22 21 20 22 22 20 20 21 24 14 15 14 14 12 15 11 6 8 12 13 9 11 9 12 6 8 
28 27 28 25 26 24 24 23 21 23 22 19 22 19 22 25 22 20 24 27 21 22 22 20 23 21 23 23 20 21 21 19 20 21 24 25 19 20 22 22 21 16 18 18 19 18 22 22 23 20 21 23 20 23 20 23 21 21 22 20 20 18 23 14 15 14 13 16 13 12 9 9 11 13 10 9 11 9 7 4 
27 29 27 27 25 23 25 25 22 19 23 21 23 23 25 25 25 18 22 22 22 22 21 21 22 21 24 22 19 20 19 19 20 22 24 19 23 22 19 21 21 17 19 21 16 17 23 19 24 17 24 22 19 21 21 22 22 17 21 23 19 20 17 12 16 14 14 13 14 11 10 12 12 14 10 13 12 8 6 7 
27 27 30 28 23 26 29 23 26 27 23 20 23 21 22 23 23 20 23 23 21 22 20 19 20 21 21 19 19 20 21 23 21 21 21 22 19 18 20 23 19 16 19 17 18 18 19 18 21 17 23 23 22 21 22 24 20 18 16 16 16 20 15 14 15 13 11 14 11 11 12 9 12 13 12 10 13 8 6 9 
27 27 28 28 25 27 27 23 21 26 23 20 24 25 23 20 22 20 22 17 19 21 20 19 21 20 19 19 16 21 19 20 19 21 22 21 18 15 19 19 22 18 18 15 19 18 22 17 17 19 22 20 17 20 19 21 20 19 17 18 19 20 19 13 12 14 12 10 12 5 9 7 11 11 9 11 10 12 8 2 
34 25 25 31 25 24 27 25 18 24 21 20 22 22 21 20 19 18 20 18 20 21 17 17 20 22 20 20 20 20 20 19 21 24 21 17 17 20 23 22 19 16 16 15 18 20 20 17 18 19 23 18 18 18 16 21 21 20 18 19 18 19 23 13 11 12 15 13 13 9 1 7 7 10 9 10 10 6 8 5 
28 31 32 29 23 22 27 25 22 20 20 22 21 20 21 23 20 16 18 15 20 21 20 18 18 20 20 20 19 20 19 21 22 22 21 19 18 21 19 18 19 17 17 18 18 22 21 19 19 24 21 22 18 19 20 21 23 21 22 16 21 15 15 13 13 7 13 14 14 7 11 6 7 11 10 13 11 10 10 11 
25 28 28 26 23 25 21 24 23 21 21 21 18 20 18 21 17 19 18 15 15 19 20 16 21 19 19 23 18 19 18 20 21 23 19 18 20 21 18 16 17 18 17 16 16 17 20 17 20 19 21 19 19 20 19 26 26 31 26 19 18 15 20 14 10 10 15 14 11 9 11 8 10 11 7 10 9 10 11 10 
28 27 29 30 15 24 24 23 23 25 22 20 23 20 18 23 18 17 19 15 20 20 17 18 18 20 22 23 19 22 20 22 18 19 22 21 21 18 22 20 20 18 17 17 16 20 22 17 17 18 18 20 19 24 20 24 23 21 22 23 17 14 20 12 13 14 13 17 15 9 14 10 13 15 11 7 11 12 10 8 
26 29 28 27 23 23 24 22 21 21 22 20 21 21 21 24 18 16 19 16 20 20 18 16 19 21 26 23 19 21 19 22 20 21 21 20 19 18 20 19 22 18 17 18 18 24 21 17 17 18 16 19 20 20 22 25 21 24 23 18 18 16 18 17 13 15 13 18 15 10 14 15 16 15 10 10 12 11 9 7 
24 25 30 27 24 24 24 23 21 19 20 17 18 22 20 19 17 15 21 20 19 16 19 17 17 18 21 26 17 22 18 19 18 20 18 20 19 18 19 20 20 16 15 18 20 21 21 18 19 16 18 19 19 22 27 23 23 28 25 18 17 16 17 12 12 11 11 14 13 13 15 14 17 13 9 10 8 8 11 6 
23 28 28 26 25 24 26 26 21 21 24 18 22 23 21 20 20 19 22 19 16 20 19 19 21 20 20 23 23 21 19 20 19 22 27 20 20 19 18 23 22 19 16 19 17 16 20 18 16 18 17 21 22 21 18 22 20 23 23 19 19 17 16 16 13 12 16 14 14 9 12 13 13 11 10 7 8 12 13 8 
24 25 24 26 27 28 21 20 21 20 22 18 22 19 23 19 17 20 24 20 20 25 22 20 21 22 26 20 19 20 22 19 21 22 22 18 21 22 21 20 22 14 17 18 14 19 18 13 17 17 21 20 20 19 19 23 20 20 17 19 17 20 19 13 13 13 11 18 14 13 14 15 11 13 12 9 6 9 11 9 
33 29 24 24 23 23 24 18 21 22 22 19 21 24 19 22 18 19 21 20 20 19 17 21 21 23 21 18 19 22 27 23 19 21 22 18 20 21 17 21 21 21 19 19 14 16 19 15 18 18 17 19 22 17 22 22 20 19 17 17 18 20 19 15 13 11 13 16 13 11 11 15 14 14 9 10 9 9 7 12 
30 24 28 25 25 24 22 21 19 22 22 18 30 19 22 18 17 16 18 21 19 20 19 20 18 18 20 18 22 21 19 20 20 20 19 19 20 18 19 19 19 19 16 13 15 16 17 17 17 19 18 16 20 22 19 20 19 21 21 15 15 18 19 15 14 16 14 14 15 14 12 11 12 11 10 6 6 10 11 6 
25 25 27 25 27 23 23 24 21 21 19 18 19 20 23 18 16 15 21 21 17 19 17 18 18 21 22 18 16 19 19 18 20 19 20 17 18 16 19 21 18 14 14 12 15 14 17 16 17 20 17 17 19 19 18 18 18 18 19 17 21 18 18 13 16 14 13 14 15 11 13 12 12 13 8 10 6 7 10 9 
23 27 24 24 25 22 25 29 21 23 23 21 21 17 21 21 19 20 19 18 18 20 20 18 18 19 20 21 17 16 16 17 18 19 14 17 19 18 18 20 19 15 14 18 10 17 19 13 18 19 22 17 20 16 18 20 20 17 15 18 17 16 18 18 13 13 16 15 16 12 12 10 12 12 11 8 6 9 12 14 
25 27 26 24 21 22 30 20 25 23 22 22 22 19 23 20 17 19 22 18 19 19 17 17 20 18 20 19 17 16 15 16 16 17 18 16 16 15 16 16 17 14 17 17 16 17 19 17 19 18 16 18 19 18 17 19 19 19 17 16 16 18 15 18 15 14 16 14 12 10 11 11 15 14 11 11 8 8 11 12 
23 22 26 21 23 24 22 25 23 23 23 21 22 21 25 19 17 19 18 16 18 21 18 21 21 17 19 19 15 16 18 15 20 19 18 17 20 19 17 20 18 19 16 16 14 20 20 18 17 15 17 17 18 20 16 17 19 15 17 18 16 14 16 16 14 11 17 13 13 14 15 12 12 12 12 12 9 13 9 12 
24 23 26 26 27 29 32 23 22 23 21 20 19 20 22 21 17 18 19 19 19 19 22 19 20 19 21 19 19 19 16 15 18 19 19 17 17 15 15 16 19 16 16 13 14 15 16 15 17 16 18 18 15 17 17 19 17 17 19 16 16 17 16 14 14 12 14 12 15 13 13 14 13 15 12 9 11 12 8 11 
24 23 25 28 21 21 24 25 22 21 22 20 21 21 21 17 20 18 19 20 16 17 22 20 20 22 24 22 18 21 17 18 17 17 18 17 18 13 14 17 18 16 18 17 15 19 17 14 14 15 16 19 20 19 17 19 20 17 16 17 19 13 18 14 15 12 9 12 11 16 18 15 13 14 10 13 10 11 9 7 
21 24 22 23 23 21 23 25 20 26 22 18 18 24 20 17 14 18 17 20 16 19 20 18 20 19 20 24 18 17 17 17 14 18 20 17 15 15 15 18 22 17 16 13 14 17 19 16 12 18 18 22 18 17 15 19 18 13 16 14 17 15 13 12 13 12 12 10 10 11 13 10 11 13 13 6 6 9 6 8 
25 24 26 25 18 24 25 20 24 25 25 21 23 21 19 20 19 17 19 16 18 17 20 17 20 19 19 21 15 17 14 18 17 18 17 19 18 20 17 16 18 16 18 18 14 16 17 16 17 17 15 19 17 16 17 15 19 16 14 15 17 17 15 13 13 12 20 16 11 14 13 12 13 11 10 10 9 7 7 11 
25 26 26 23 21 19 25 21 19 20 20 19 23 21 22 18 18 17 17 19 18 18 23 18 18 19 20 20 17 17 17 14 15 16 23 19 18 15 18 19 19 15 20 18 15 18 16 17 19 17 18 20 15 18 17 16 17 16 13 15 17 14 19 15 17 17 14 15 17 13 14 13 12 10 8 10 9 7 4 1 
22 18 21 26 23 19 25 20 18 20 21 17 20 21 22 20 18 17 20 19 17 17 19 17 19 19 23 19 14 17 15 16 16 18 16 16 18 12 16 19 22 16 19 19 19 17 17 17 17 21 17 18 17 21 17 16 16 18 13 10 14 15 19 14 15 15 15 14 16 16 16 13 9 14 8 6 5 8 8 3 
25 24 22 23 23 24 23 22 21 20 22 19 21 18 19 22 16 19 23 17 17 18 14 16 19 19 22 21 20 20 16 17 15 14 14 18 16 16 14 17 16 16 16 16 19 16 18 16 16 19 19 22 16 18 16 16 19 19 14 13 14 15 19 13 14 12 15 17 20 14 18 14 13 11 10 6 8 7 7 6 
23 21 23 22 24 26 24 20 21 21 24 20 19 19 19 18 19 19 22 19 18 20 16 20 21 20 22 19 17 23 18 15 16 16 19 17 20 16 17 19 18 17 19 16 16 21 14 15 18 19 19 16 15 17 16 18 17 18 14 16 17 19 21 15 15 14 16 16 19 15 19 10 11 14 10 9 12 8 6 7 
23 21 22 22 20 20 20 20 16 20 22 20 20 20 20 16 18 21 24 20 16 18 15 18 22 19 19 20 18 20 17 17 16 17 20 15 18 16 15 20 15 16 17 18 16 20 17 18 13 16 18 18 17 17 16 17 17 18 15 12 16 14 17 15 15 12 17 14 17 18 16 11 16 12 13 10 12 9 5 8 
22 21 23 23 20 22 26 22 18 20 22 19 20 18 18 16 13 20 22 16 17 19 17 18 18 18 20 18 16 18 17 18 14 17 18 16 19 15 17 18 17 17 14 13 17 17 19 19 15 16 19 18 19 18 19 17 18 18 19 17 13 13 20 12 13 11 11 15 15 15 15 12 11 12 12 8 9 7 9 8 
22 22 24 25 24 21 24 23 18 18 21 19 21 18 18 19 16 18 22 18 17 20 18 16 19 16 18 20 18 18 17 21 17 19 15 16 17 17 17 17 17 14 16 16 16 17 15 17 19 18 16 19 20 19 16 16 19 18 17 15 16 16 16 13 14 13 16 12 13 14 13 9 11 12 10 9 9 12 9 10 
24 27 25 25 22 26 22 21 17 18 20 19 19 18 20 20 18 20 24 18 17 20 18 18 19 19 18 17 18 19 20 20 17 19 20 18 17 17 17 19 16 15 16 19 16 20 20 15 17 17 19 17 18 19 20 19 19 16 15 18 16 15 19 14 14 15 12 16 16 14 12 11 8 13 10 6 6 9 7 8 
23 27 27 23 24 21 24 23 21 21 20 20 19 22 22 19 17 22 19 19 19 20 20 17 18 18 18 16 14 18 17 18 16 20 19 22 17 15 19 16 17 17 17 15 14 17 18 18 15 18 24 19 20 19 20 22 19 16 15 14 16 12 17 16 14 13 16 12 17 13 12 10 9 10 8 10 11 10 9 7 
23 24 24 24 22 21 21 21 22 20 23 22 24 18 21 18 16 16 18 17 21 22 15 20 18 17 18 18 17 19 16 17 17 17 19 19 18 15 17 19 18 17 20 18 15 18 20 17 19 18 21 20 19 21 19 18 18 15 15 15 13 10 16 15 10 11 12 12 13 13 10 11 13 13 8 9 10 8 10 11 
22 23 23 21 23 19 23 19 21 22 23 19 20 24 20 21 15 17 20 17 15 19 16 18 18 20 24 20 15 18 16 17 19 20 18 18 15 16 18 18 18 15 16 13 15 18 21 16 21 17 21 25 20 23 16 17 17 17 15 11 12 14 15 12 10 8 11 14 12 12 7 11 11 11 8 8 9 12 13 13 
22 23 24 23 19 18 22 18 17 18 21 21 23 19 22 20 13 18 19 17 19 17 18 19 20 19 20 20 16 19 16 14 16 10 21 17 18 18 14 18 16 13 13 16 15 18 19 21 21 21 22 23 21 23 18 19 18 18 14 11 14 16 20 16 13 9 13 13 11 13 9 10 9 12 11 10 8 9 9 9 
21 24 24 20 16 16 19 17 19 19 19 20 18 20 20 18 16 14 21 18 17 18 18 17 22 19 21 19 17 15 14 16 14 18 19 21 19 18 18 20 19 16 15 16 18 17 20 19 20 19 20 20 18 20 19 18 19 19 16 14 13 17 19 15 13 11 13 14 11 15 8 7 9 6 7 4 6 7 8 4 
23 20 18 21 17 17 22 19 15 15 24 20 21 20 18 17 15 19 21 19 18 20 17 16 19 21 20 20 16 18 18 16 16 21 19 17 18 15 15 18 16 18 16 16 15 19 21 21 19 17 17 18 18 18 16 16 17 14 15 14 15 17 17 12 12 13 12 15 10 10 12 5 6 7 7 9 7 7 5 8 
21 21 19 26 18 15 24 18 19 18 17 18 21 22 20 18 20 17 18 20 19 22 18 18 18 18 19 15 14 18 14 17 19 19 17 19 15 15 14 13 20 15 15 14 17 16 22 19 21 17 19 16 16 20 13 14 16 14 11 15 14 14 17 12 11 16 14 11 13 11 6 5 8 7 7 7 7 4 4 9 
20 21 20 19 21 20 21 17 15 16 18 18 17 19 22 19 21 16 18 18 19 19 15 16 18 15 16 15 14 16 18 16 15 17 17 20 17 18 15 16 16 16 13 16 16 20 18 17 16 19 20 16 14 16 15 15 14 14 15 14 14 15 15 12 11 13 13 7 11 5 8 5 8 8 7 7 8 6 4 8 
17 18 19 19 16 19 18 17 18 12 18 18 20 17 21 18 18 19 19 15 20 18 15 14 18 17 19 13 13 16 16 15 14 15 15 16 14 16 14 13 18 17 17 17 17 23 18 17 17 17 17 18 15 16 17 15 16 13 12 13 13 13 19 8 9 9 8 14 18 7 6 5 9 9 6 4 6 6 3 5 
19 21 19 17 18 19 21 19 16 17 19 18 22 23 19 19 17 17 19 18 18 20 19 18 16 15 14 16 16 18 12 15 18 17 17 18 17 19 17 18 17 16 15 16 17 18 21 13 15 18 15 18 13 20 15 15 18 16 13 16 16 15 16 12 9 7 12 12 10 5 9 6 10 9 7 5 9 9 1 8 
21 21 17 16 22 15 21 19 16 18 16 17 19 20 20 20 17 17 20 17 17 21 21 18 17 19 17 16 15 17 15 13 15 16 18 19 18 19 16 16 17 14 11 13 13 15 22 15 17 16 18 17 14 16 15 18 17 18 17 14 13 18 16 14 12 11 10 12 9 9 7 8 8 9 8 6 6 6 3 5 
20 18 20 15 15 16 20 20 15 16 18 14 19 16 19 20 17 20 22 16 18 20 17 19 18 18 16 19 14 15 10 14 13 18 17 18 16 16 16 14 15 12 12 13 15 15 13 12 14 13 13 17 16 18 17 16 16 16 14 11 14 14 14 12 11 12 11 8 10 6 6 10 4 10 7 6 6 5 1 2 
22 19 15 19 17 21 19 18 13 15 18 17 18 20 18 16 15 15 18 12 14 17 14 13 16 16 12 14 11 16 11 14 16 16 17 16 15 15 18 14 14 12 15 12 13 17 15 13 11 14 15 14 16 16 16 16 15 13 11 14 15 12 13 11 10 9 11 7 9 6 5 7 6 5 7 6 6 5 2 4 
21 19 17 18 23 16 20 17 16 13 16 16 15 15 15 14 15 15 18 18 18 15 17 17 18 15 15 13 11 12 13 13 13 13 21 17 11 13 14 10 13 10 13 14 14 13 13 12 15 14 14 19 16 19 14 18 15 14 10 14 12 12 16 10 8 8 9 11 6 7 11 5 7 6 5 8 6 6 7 4 
24 21 17 21 17 18 21 20 19 15 16 16 15 15 15 15 14 15 19 16 12 17 12 13 19 17 17 13 13 12 15 14 11 16 15 16 15 10 14 14 14 11 8 13 14 15 15 14 14 13 15 14 12 16 19 15 17 16 15 14 14 12 19 13 9 8 10 10 11 10 4 6 7 5 10 5 5 5 4 0 
17 17 15 20 20 23 16 16 19 16 15 15 21 17 15 17 14 11 17 13 13 18 15 14 16 16 16 15 11 14 16 14 10 15 17 18 12 13 14 11 16 9 11 11 15 12 15 14 13 16 14 15 16 18 18 18 16 16 14 17 12 8 15 12 9 6 4 7 7 9 5 9 5 7 5 6 2 7 7 3 
13 16 14 17 18 18 20 15 14 15 17 15 21 19 17 18 13 14 17 13 12 13 14 14 17 16 22 16 14 12 13 14 12 13 13 15 16 16 12 15 14 12 13 11 14 13 13 15 14 14 15 16 15 14 18 18 19 16 12 13 12 15 14 10 8 7 10 6 6 7 9 7 5 8 3 6 4 5 5 7 
15 15 17 18 16 18 18 17 17 16 19 20 23 26 19 14 13 16 19 13 17 14 11 13 15 17 14 16 11 13 11 10 12 14 13 12 13 15 12 10 15 10 11 12 14 12 12 12 14 16 14 17 16 15 14 17 15 15 12 17 12 12 12 11 9 8 9 7 9 10 12 9 7 11 6 4 4 2 4 4 
16 18 11 18 14 16 19 14 16 18 16 18 33 18 19 16 14 15 16 19 16 15 13 11 13 16 18 15 9 12 10 12 10 14 13 12 13 12 12 12 15 11 14 11 12 14 14 11 13 14 17 16 16 15 13 17 16 11 15 9 14 12 11 5 9 8 8 6 4 9 10 5 6 9 12 10 5 3 4 4 
13 15 12 13 14 16 18 18 20 19 16 17 22 21 19 15 12 12 16 15 17 14 15 10 12 17 17 14 13 9 11 12 12 14 14 11 13 13 13 13 13 12 15 12 10 14 16 12 15 15 15 11 14 12 18 18 15 13 13 15 13 10 12 8 9 9 8 3 5 7 8 4 8 5 6 4 7 5 6 2 
18 13 13 15 10 16 17 14 18 17 14 14 17 16 18 14 14 9 14 15 13 14 17 15 15 13 13 14 15 14 11 12 12 14 13 14 14 14 13 11 16 13 22 14 12 12 17 12 15 15 13 17 13 14 16 17 13 17 14 13 16 11 14 9 10 6 12 4 8 5 5 6 8 6 7 3 4 7 6 2 
17 13 13 16 10 12 13 13 15 14 13 13 12 14 16 15 14 9 14 14 15 15 15 13 14 13 14 12 15 14 13 13 12 11 11 15 18 14 12 13 15 14 15 13 14 13 15 16 12 16 14 15 14 16 12 13 17 16 12 14 14 15 12 10 8 6 7 6 8 1 5 5 5 9 5 1 5 5 4 1 


