P2
80 60
274
156 155 157 154 149 153 158 152 145 147 153 151 150 154 155 155 151 150 151 144 142 140 137 111 58 20 31 49 69 77 95 103 102 120 119 127 123 128 127 126 124 126 126 135 139 130 123 124 129 125 129 128 131 130 128 133 125 120 116 109 125 130 131 132 125 126 130 143 139 139 138 144 142 143 144 145 141 139 140 140 
158 158 155 156 152 156 157 151 148 149 154 152 153 155 155 156 152 153 149 143 142 137 137 112 61 25 34 51 68 81 97 106 100 119 122 125 126 125 125 127 126 128 129 130 129 131 126 129 126 128 128 132 128 129 132 136 131 121 115 107 128 127 128 134 126 123 127 137 140 142 140 146 139 144 143 142 141 143 142 137 
158 158 154 157 151 156 159 148 141 144 145 152 149 152 153 159 151 150 150 144 138 136 131 108 62 25 33 49 71 83 100 103 98 119 120 118 118 122 125 124 122 128 125 125 128 130 125 126 125 127 132 129 130 130 130 132 127 120 113 111 127 127 133 129 125 121 129 140 140 139 143 141 145 142 142 144 144 140 143 137 
154 157 155 155 153 157 154 146 141 144 151 151 151 159 154 155 146 147 148 145 136 140 130 103 48 22 22 48 61 79 95 97 98 116 116 116 119 118 120 119 124 124 125 125 126 129 126 126 129 127 129 129 130 129 129 131 125 116 116 113 128 131 132 130 127 120 130 138 138 137 145 143 145 145 141 146 140 139 142 139 
158 156 153 156 152 157 156 148 140 142 147 156 150 153 158 154 148 151 151 144 136 142 134 101 51 18 20 38 51 63 85 87 97 115 108 116 118 119 120 119 121 124 125 124 129 130 125 130 127 127 127 129 133 127 131 130 127 123 113 111 127 131 134 135 128 123 130 142 143 143 140 141 143 145 146 144 143 138 140 139 
164 161 156 157 148 155 159 148 141 145 148 148 150 153 153 154 153 152 149 145 136 141 133 104 45 15 5 32 45 52 68 86 98 115 111 114 116 118 119 118 118 126 125 123 124 131 127 126 131 128 129 131 132 128 129 131 125 118 115 112 127 129 131 132 126 126 131 143 149 143 144 143 145 147 147 143 142 140 142 142 
160 157 153 157 151 154 154 146 141 146 150 154 149 151 156 155 157 152 150 143 142 137 130 100 38 10 8 25 41 43 56 85 96 109 109 113 113 112 119 114 120 117 117 122 123 130 126 127 129 127 130 134 131 127 133 133 126 119 113 111 134 128 124 128 125 125 126 140 143 147 141 137 144 142 143 144 145 142 142 137 
155 156 155 155 151 156 156 143 139 142 147 152 149 149 152 153 153 152 150 144 147 141 133 97 40 11 9 22 34 41 54 82 96 111 105 113 111 109 113 114 118 115 115 123 124 128 125 122 126 127 129 128 135 127 129 131 127 118 112 109 127 129 130 131 125 122 128 141 146 145 142 140 143 142 141 145 145 137 142 141 
161 161 158 157 152 156 151 145 138 144 148 153 152 153 151 153 154 155 151 146 145 146 126 91 33 8 12 16 35 37 53 73 94 107 100 108 110 108 109 108 115 112 117 120 124 126 126 124 124 127 129 130 130 133 130 127 127 116 112 116 124 129 129 130 122 125 127 140 142 143 141 141 143 142 140 142 140 141 140 141 
158 157 153 156 152 157 157 149 146 147 147 147 152 149 153 154 158 154 149 145 141 145 127 92 32 9 8 15 25 40 54 76 88 99 98 107 112 109 111 105 109 111 117 115 119 124 120 120 127 128 128 127 128 129 130 125 125 116 111 112 127 128 126 129 124 124 130 139 144 141 138 140 144 143 138 139 142 134 140 139 
157 154 153 156 148 155 160 150 146 147 143 146 146 150 155 154 155 149 151 147 142 142 127 98 35 9 7 11 33 44 60 72 81 98 104 111 112 111 110 109 111 113 112 114 118 117 117 119 128 125 128 127 129 126 127 125 121 117 107 114 126 126 128 126 122 122 128 142 140 141 136 138 141 138 139 137 140 139 139 138 
161 154 157 153 153 152 158 148 141 139 137 141 145 153 153 156 150 151 147 146 140 144 124 95 29 11 4 11 30 48 66 73 79 93 104 118 117 115 111 106 109 110 113 113 117 124 119 119 125 125 129 127 128 127 127 126 125 116 113 110 124 125 123 127 121 120 127 140 143 138 139 141 141 141 139 148 144 136 139 135 
156 155 155 161 147 149 153 140 142 134 133 138 150 154 152 153 153 149 149 143 141 144 122 96 34 8 5 14 32 42 65 72 76 92 108 112 117 120 113 102 108 112 115 110 117 122 122 121 123 122 128 128 129 122 129 124 123 115 110 115 126 129 128 119 121 121 131 141 143 142 131 138 142 143 142 141 147 143 138 140 
156 156 155 153 149 150 148 141 138 126 128 135 145 153 151 155 148 151 148 143 142 142 124 100 30 12 10 14 26 35 57 67 78 94 105 106 109 109 101 102 106 110 110 114 112 126 119 121 123 131 128 124 126 123 124 127 125 115 108 115 131 130 129 122 122 120 127 143 143 140 140 137 139 138 138 144 146 141 141 144 
155 157 154 153 150 151 151 144 136 124 119 130 145 153 151 153 154 150 150 142 141 142 122 99 24 11 5 13 31 34 51 67 76 86 102 105 107 106 99 97 109 108 111 114 113 117 117 118 120 127 123 123 122 123 127 129 127 120 112 112 124 127 131 125 122 118 126 144 140 141 140 140 142 140 140 142 141 141 137 138 
153 158 157 153 153 147 147 146 141 122 118 134 142 151 151 152 151 148 147 143 138 142 120 102 32 15 5 12 29 31 45 65 76 98 104 108 107 108 97 97 104 107 109 112 108 116 115 116 122 121 126 124 124 125 125 129 119 118 109 116 127 129 128 122 124 126 129 142 146 140 139 144 143 140 141 141 140 137 141 142 
152 158 157 157 147 147 146 131 128 116 116 130 138 145 151 154 152 149 149 147 142 142 113 96 26 10 7 14 26 31 47 73 93 105 104 109 109 107 103 103 104 106 102 109 110 120 115 119 116 125 122 125 127 126 130 125 122 114 109 118 124 127 128 124 122 123 135 142 142 141 145 144 148 140 141 143 142 143 141 143 
154 158 155 154 149 146 141 127 110 109 109 125 131 147 150 153 150 147 149 145 144 142 113 96 27 11 4 15 26 33 48 80 93 104 101 115 105 107 112 112 113 112 105 110 109 114 113 114 115 124 122 123 123 126 130 128 124 118 107 117 127 125 126 124 122 122 128 141 142 140 138 146 144 139 141 140 145 138 144 141 
152 156 153 152 147 146 141 118 110 110 105 119 136 144 147 146 151 151 150 144 138 139 115 103 29 11 4 9 25 37 50 81 93 99 98 100 104 103 106 113 112 111 108 105 109 113 108 111 117 119 120 123 126 126 129 125 120 110 105 120 127 125 125 125 128 123 129 140 140 140 146 144 142 140 140 141 140 140 139 139 
154 155 148 149 146 146 142 120 109 112 110 113 131 140 147 149 150 150 148 144 139 141 117 98 26 9 2 15 29 33 55 81 94 95 96 96 97 104 106 111 114 112 114 105 110 110 110 114 117 120 122 126 125 124 129 123 118 108 104 118 126 126 127 123 122 118 130 143 144 142 140 146 142 139 140 140 145 140 144 143 
157 154 152 149 144 148 143 122 116 122 121 116 137 141 148 146 148 150 147 143 143 137 109 97 24 8 4 15 26 35 56 78 91 95 93 91 100 102 109 111 116 114 108 104 107 110 107 108 117 120 119 120 124 120 127 124 117 109 102 119 126 128 125 124 120 122 129 142 143 143 141 142 141 142 142 146 139 138 145 144 
151 153 148 149 141 140 144 131 125 119 121 128 139 146 148 150 149 146 147 141 143 130 107 94 22 10 7 10 26 32 53 78 90 96 90 91 99 104 105 108 112 118 109 101 101 109 107 111 113 118 121 122 122 120 123 120 115 108 101 120 123 126 127 124 123 121 130 141 142 147 146 144 144 144 141 146 141 140 139 139 
150 153 149 147 136 140 141 127 122 118 114 125 129 145 144 148 149 147 145 138 139 124 102 90 24 7 6 13 25 30 52 77 89 94 91 96 94 99 103 106 115 118 103 104 99 108 110 110 112 120 120 119 120 120 123 120 115 107 99 121 126 127 127 125 122 128 129 145 144 142 143 143 147 144 141 144 144 141 142 137 
150 152 151 139 136 139 142 128 123 124 122 127 134 138 146 149 147 151 147 139 141 120 100 91 24 14 8 12 27 32 54 77 88 95 94 96 91 95 100 102 112 120 109 106 102 108 104 109 115 116 116 119 119 115 120 120 113 105 97 120 121 128 127 124 122 123 130 143 144 143 145 143 143 142 138 143 141 139 144 142 
148 152 147 143 132 140 141 125 124 121 120 122 131 134 148 145 147 150 149 142 142 121 104 85 25 15 14 20 31 34 52 81 88 93 92 94 96 94 98 99 114 120 116 103 100 107 104 108 111 116 114 116 116 116 119 119 111 103 102 122 123 125 126 124 124 127 130 145 144 143 144 143 144 145 140 143 144 140 142 143 
149 149 147 141 127 138 136 130 121 117 120 125 129 135 146 145 146 145 147 143 140 122 98 88 24 19 15 21 31 36 58 80 91 95 92 91 93 92 95 92 103 114 106 99 101 108 104 110 106 115 114 116 117 118 118 120 110 99 99 121 123 123 124 125 129 132 131 147 144 146 141 142 144 144 147 144 143 144 142 139 
147 148 147 137 129 144 142 126 123 122 116 122 127 134 142 144 145 147 145 142 142 119 99 83 22 21 20 26 31 39 59 83 93 95 95 96 93 93 96 91 93 95 97 98 104 106 104 106 109 112 113 115 116 113 118 119 107 105 98 118 121 124 124 124 125 127 131 145 140 141 140 142 143 144 141 144 143 141 143 138 
148 150 150 143 129 142 138 117 114 121 113 112 119 134 137 140 143 143 147 143 139 111 98 78 27 24 28 35 35 40 58 84 92 93 92 92 95 96 96 93 91 95 98 99 101 104 102 106 109 113 114 116 118 113 115 116 108 107 97 120 125 125 123 125 125 129 136 146 145 143 142 143 144 144 142 142 142 138 144 144 
149 152 150 138 126 142 132 119 99 108 103 114 122 133 138 141 142 140 142 143 135 110 91 80 25 31 27 37 38 45 59 79 91 94 91 90 92 97 100 99 90 91 96 99 99 102 103 104 106 114 114 117 115 113 118 115 107 98 98 120 122 125 122 126 122 129 132 144 146 144 144 141 145 151 144 141 141 142 137 139 
150 151 150 139 122 136 128 116 102 105 102 113 121 134 138 137 141 140 144 137 131 103 92 77 23 28 31 38 39 47 60 82 86 93 89 90 93 93 97 93 91 93 94 98 101 100 103 104 106 112 118 116 115 112 118 115 108 100 99 116 123 120 120 122 120 125 136 147 143 144 145 147 144 145 145 144 142 144 144 138 
151 154 145 138 118 127 129 118 93 100 104 117 120 133 139 138 145 140 137 134 136 103 93 78 27 29 37 42 43 44 59 75 84 93 90 94 91 88 90 91 94 92 96 97 102 99 99 103 107 110 110 112 116 114 116 115 103 99 93 112 116 122 121 122 120 128 134 145 146 145 143 146 144 146 142 143 144 141 138 140 
147 145 146 140 115 130 126 108 91 98 110 120 125 131 132 142 143 140 138 135 125 101 89 78 26 32 37 42 39 43 57 72 85 84 87 89 87 87 90 93 94 92 91 94 100 100 97 101 104 109 112 112 114 113 116 110 103 99 100 114 121 119 121 118 116 126 133 145 145 141 143 146 144 142 143 144 140 140 143 143 
146 147 145 134 112 129 129 110 97 97 111 120 132 134 135 140 141 135 135 136 128 98 91 82 29 30 36 45 42 39 59 72 83 84 80 87 87 88 90 96 93 93 92 94 100 102 99 101 104 106 106 114 112 111 115 111 102 92 105 112 116 117 117 121 120 125 131 149 146 142 142 140 143 144 144 143 147 142 141 139 
147 148 144 136 112 126 129 107 104 101 119 119 128 137 140 139 137 137 137 132 124 98 89 77 26 29 39 46 42 45 56 71 80 80 80 81 88 90 95 98 92 90 91 95 97 103 98 100 106 106 109 111 110 110 113 106 97 91 100 111 116 120 114 115 120 126 134 145 145 142 141 141 144 141 140 142 141 143 142 145 
148 148 147 135 104 127 133 112 110 109 122 111 112 134 138 137 134 135 136 132 127 96 89 77 31 27 37 45 52 44 58 73 79 81 84 82 89 91 98 97 96 89 93 92 97 105 100 103 102 109 111 113 113 109 113 109 101 93 102 115 120 117 114 116 120 124 130 147 143 143 145 143 147 144 142 143 144 142 141 141 
145 149 144 138 106 130 127 114 111 114 114 84 93 127 133 135 134 136 138 134 118 97 84 80 31 28 39 49 46 47 63 77 81 79 82 84 90 93 98 95 87 85 93 89 95 96 102 100 106 104 107 109 112 110 113 111 100 95 111 116 110 114 110 112 117 125 131 144 145 148 145 147 144 146 142 146 147 143 145 144 
150 147 147 140 104 125 132 113 91 84 85 71 77 103 104 115 120 133 132 112 114 93 82 74 21 26 34 44 48 47 59 76 75 83 80 82 88 91 91 92 84 87 87 90 95 98 99 101 102 106 108 113 113 111 113 108 97 89 104 113 114 109 109 112 121 121 128 146 146 142 147 149 150 145 143 146 143 143 143 145 
148 148 147 142 101 124 131 103 74 58 68 65 72 72 75 82 90 107 95 70 89 82 84 74 18 21 31 45 45 46 58 73 81 82 82 83 84 87 87 85 83 85 87 88 93 92 91 96 101 100 105 106 111 111 111 110 96 90 104 110 111 106 105 106 116 121 131 141 146 142 142 145 149 144 144 147 145 143 145 146 
145 148 147 141 103 123 125 109 72 49 56 60 66 69 68 73 80 80 71 61 78 83 81 71 18 18 28 40 47 45 59 73 78 84 79 77 82 84 82 80 79 80 85 91 88 91 94 96 99 101 102 106 112 111 114 111 103 90 106 107 109 104 102 107 118 121 126 143 145 142 145 144 148 147 148 152 149 149 147 146 
146 147 146 139 108 108 125 113 75 48 53 57 61 64 64 68 74 72 72 57 80 80 80 69 16 9 22 38 46 45 57 68 78 83 77 75 81 76 75 75 79 80 81 85 89 94 93 92 99 99 104 104 108 106 111 106 97 89 106 106 107 102 101 104 111 120 127 143 145 144 145 147 150 151 147 150 154 148 151 155 
142 148 147 139 114 105 121 112 79 49 44 49 54 65 65 65 68 71 68 57 75 76 71 67 9 8 16 30 39 44 55 68 77 86 78 73 71 69 70 74 77 79 80 81 86 92 90 92 92 97 100 110 105 106 108 103 87 85 106 104 101 100 97 103 111 118 130 142 145 143 145 148 145 152 154 168 162 157 161 157 
145 148 147 143 113 102 123 111 84 37 42 47 48 58 58 57 66 66 56 57 66 74 69 60 8 6 18 34 45 45 55 70 77 80 78 79 68 69 70 73 76 80 77 82 82 87 89 89 95 99 103 102 108 109 113 105 96 91 98 98 101 97 98 101 111 118 124 140 139 141 144 143 153 160 177 204 215 197 169 155 
146 148 148 136 112 98 118 109 81 41 38 40 41 48 51 52 55 57 57 48 64 70 64 57 4 5 28 40 49 52 55 66 81 79 74 71 70 67 71 71 73 75 75 77 92 95 99 110 115 115 124 122 125 130 132 127 113 107 111 111 103 95 98 106 113 118 129 138 138 140 139 141 150 154 191 229 235 226 174 154 
146 146 146 141 112 91 111 105 83 36 32 31 32 38 39 42 48 49 48 43 60 67 58 50 0 8 30 49 54 53 57 62 70 74 68 65 68 65 73 71 67 69 75 101 125 137 135 143 145 147 149 150 147 143 150 147 145 144 147 139 116 92 99 100 106 120 125 141 141 141 143 148 150 153 196 243 266 235 179 162 
143 147 144 136 108 85 115 107 85 42 29 28 29 35 36 35 38 41 40 40 56 57 53 43 6 8 28 43 50 52 54 55 58 64 63 54 56 58 62 61 60 58 70 115 140 148 147 150 153 151 152 156 150 154 153 150 152 153 156 150 136 98 92 98 106 114 125 139 141 137 139 145 149 155 198 253 274 243 183 169 
143 141 142 136 102 83 116 107 88 47 31 26 37 38 42 44 47 47 48 46 51 51 49 46 14 13 18 40 46 52 56 60 61 64 60 54 57 53 53 51 56 57 88 127 144 152 152 153 155 155 159 157 157 157 157 158 157 159 157 156 147 100 89 97 111 119 124 137 141 140 144 146 148 156 195 225 234 224 180 158 
139 142 138 139 100 82 116 104 88 55 31 28 31 35 34 41 44 43 43 40 50 42 40 44 30 23 28 40 47 54 58 60 60 67 60 57 58 59 66 63 69 74 118 137 144 152 155 157 157 161 161 161 159 158 163 163 159 161 159 157 148 102 95 97 109 116 127 140 140 138 142 145 147 162 191 207 217 204 194 159 
141 143 139 136 102 73 109 104 90 59 28 20 27 31 32 36 35 36 37 33 40 34 36 33 18 28 45 46 46 50 60 58 62 62 57 58 60 62 68 73 70 97 130 143 150 156 157 156 159 157 160 162 160 159 162 165 160 164 159 160 159 117 95 104 104 119 126 139 138 137 140 148 157 176 193 193 205 196 201 177 
137 140 139 136 104 70 96 100 93 62 21 18 21 28 24 30 26 25 28 22 28 30 38 37 53 64 68 66 55 49 54 58 57 60 55 53 59 63 69 71 76 111 138 141 150 156 154 154 157 158 161 159 160 164 161 161 164 161 162 159 162 139 98 96 106 118 126 138 134 138 141 148 162 180 176 180 192 189 191 180 
139 145 137 139 110 68 85 104 95 67 27 22 22 22 24 29 26 26 26 22 24 24 37 58 72 82 85 83 63 51 54 52 55 56 53 56 58 56 64 72 85 130 146 148 151 154 152 155 159 159 163 161 165 163 168 165 164 161 162 163 164 150 111 104 101 119 125 137 139 138 140 150 163 171 172 177 182 185 189 183 
138 142 137 142 113 67 90 99 97 72 37 29 30 30 32 34 35 31 29 29 34 42 50 74 77 88 90 83 67 47 53 56 55 55 54 58 62 62 62 69 95 131 148 157 154 154 155 154 160 163 163 161 167 166 165 170 164 161 163 162 167 156 123 102 106 119 127 142 139 141 145 153 163 167 171 174 179 177 178 177 
140 140 138 140 116 71 74 100 99 79 45 38 34 39 41 41 39 38 39 41 55 57 66 79 76 89 90 88 74 61 58 59 59 63 63 54 63 64 70 78 116 141 149 151 156 158 155 158 161 165 164 165 165 166 167 169 173 164 167 168 163 160 142 114 113 113 131 142 139 142 145 149 155 161 163 166 171 164 166 158 
137 135 137 133 119 75 80 102 97 79 53 43 38 44 40 45 43 39 39 42 56 58 64 72 82 91 88 91 72 63 63 66 67 69 66 68 71 74 77 91 130 142 147 153 154 157 157 156 161 161 167 164 165 165 168 166 166 166 169 167 163 163 154 129 109 121 129 141 141 140 144 149 153 154 150 152 157 149 151 145 
136 138 134 137 124 74 72 101 97 83 58 42 42 43 50 46 48 43 46 47 53 56 58 67 87 88 85 82 74 69 67 68 74 74 70 73 78 75 80 116 141 149 152 156 159 158 157 156 162 162 165 167 163 169 169 171 168 169 166 165 164 162 159 149 128 128 132 137 141 147 149 146 148 149 146 149 148 142 145 142 
134 137 132 134 122 81 75 99 100 83 71 53 52 57 59 57 56 54 53 60 61 61 60 67 79 88 93 86 81 75 75 76 79 82 79 80 84 82 99 136 143 151 153 154 157 158 153 156 159 161 165 164 168 173 169 167 167 168 165 165 162 160 159 159 142 133 132 141 143 143 148 140 147 146 144 147 143 143 144 144 
132 134 134 137 122 94 89 94 101 88 79 74 83 87 84 82 82 91 81 84 91 84 87 87 90 92 97 100 92 89 83 86 90 94 85 92 89 92 126 139 147 154 156 157 161 162 158 158 161 164 163 166 168 168 169 168 168 168 170 165 164 163 160 159 159 142 138 146 141 145 148 143 145 146 145 144 142 139 144 144 
133 139 133 133 126 102 92 90 103 95 83 89 108 98 103 105 103 106 103 108 108 106 109 108 103 103 106 109 112 110 108 107 111 115 105 110 110 117 140 142 154 151 155 154 163 163 161 161 161 166 165 165 163 166 168 169 168 168 165 161 164 157 161 158 159 156 143 143 147 146 144 144 145 145 146 152 148 145 147 148 
132 137 133 132 123 109 100 95 100 97 94 89 105 109 110 104 111 110 108 109 110 106 108 111 107 113 113 113 115 120 114 114 117 119 119 119 123 131 144 147 154 158 155 156 157 163 164 162 164 169 168 167 167 167 172 173 172 168 168 160 157 152 155 161 163 161 150 149 145 146 148 150 152 151 151 153 155 153 155 152 
132 132 128 129 127 105 109 103 108 107 98 101 108 114 107 109 112 109 109 109 110 107 110 111 107 114 112 109 115 114 111 113 116 121 117 120 136 142 147 153 156 156 156 147 155 168 169 165 166 169 170 169 171 169 174 176 174 170 166 155 147 147 152 159 161 162 157 161 151 151 151 151 151 155 154 161 160 154 157 153 
117 115 113 110 110 102 101 105 105 107 103 107 108 107 105 109 110 107 109 102 106 106 107 106 107 107 105 106 110 108 107 110 112 116 116 130 144 145 144 149 155 158 145 139 147 163 163 161 166 168 166 168 171 169 173 174 169 165 165 148 149 145 148 156 161 160 155 163 149 150 154 150 150 151 150 157 155 152 155 150 


