P2
80 60
307
158 154 149 152 151 150 146 145 151 144 147 140 142 142 123 66 35 44 80 102 103 113 116 113 118 118 120 118 120 123 121 125 124 126 125 126 124 121 103 115 128 126 122 125 129 134 137 136 140 137 139 141 142 141 139 141 144 146 145 141 143 143 142 136 132 132 127 125 124 130 133 134 139 141 144 144 140 141 139 140 
159 153 151 152 146 146 146 147 145 143 147 142 139 142 118 51 31 42 75 93 103 110 117 117 115 121 127 121 124 123 125 124 125 122 126 127 125 117 104 119 128 126 126 124 134 137 139 140 136 138 141 142 136 141 145 142 145 146 143 138 140 138 138 134 133 128 129 128 125 125 134 136 137 143 145 144 142 142 133 143 
156 158 151 147 142 147 144 143 147 145 146 142 138 141 109 39 22 39 75 95 98 113 117 120 125 121 128 118 122 124 124 129 123 127 127 127 123 108 106 121 127 127 124 125 132 139 138 142 140 134 142 142 141 141 142 140 139 142 143 140 139 139 139 139 137 127 130 129 130 127 134 136 138 144 142 145 138 139 146 147 
157 157 153 146 143 147 144 145 147 146 149 138 136 137 102 40 25 42 74 91 96 116 119 119 121 122 129 121 120 120 127 134 132 122 128 128 125 114 110 116 129 125 126 128 131 137 141 140 144 138 142 140 140 141 144 144 141 141 141 141 144 141 141 139 132 130 133 127 125 133 137 139 139 140 140 147 138 143 143 144 
157 157 151 147 139 142 146 148 147 141 141 140 133 136 105 38 27 50 71 92 99 113 124 122 119 123 130 121 119 119 122 123 123 123 122 127 124 114 108 120 128 125 125 132 136 137 141 141 139 138 140 141 142 142 141 143 141 139 145 141 142 141 142 142 132 134 132 128 126 130 132 140 139 140 142 143 140 144 142 145 
157 156 148 146 142 143 143 143 150 142 143 138 131 131 100 32 35 56 71 94 98 116 119 117 120 120 129 120 121 119 115 117 123 121 122 125 123 113 106 120 124 124 128 133 134 138 143 141 141 140 142 141 140 141 138 146 138 145 145 141 144 138 140 138 137 135 133 134 129 130 133 133 138 141 143 145 138 145 143 140 
159 151 148 146 144 144 143 146 145 142 147 136 132 133 95 28 39 62 79 94 102 114 121 118 115 122 125 120 120 120 118 121 123 123 123 127 122 111 104 122 128 123 122 129 134 140 140 143 141 140 141 141 141 142 141 142 144 150 145 140 139 141 138 138 134 134 133 129 129 132 133 135 134 141 146 145 141 142 142 142 
158 157 154 144 145 145 143 145 145 142 145 138 131 126 87 22 29 57 76 91 106 111 114 114 113 120 121 121 118 120 121 122 121 121 122 127 120 114 102 120 127 123 121 132 136 140 140 139 138 138 140 145 145 141 145 147 142 144 144 142 142 139 142 140 137 138 132 129 129 130 134 136 135 142 142 143 139 144 140 144 
159 158 154 145 142 145 143 145 148 143 145 135 134 125 75 13 19 50 61 86 100 109 108 112 113 119 122 117 122 120 124 117 118 124 122 126 118 109 104 120 125 122 120 133 133 133 138 141 139 138 143 140 142 142 142 144 141 142 139 141 138 140 140 139 137 137 132 132 129 131 131 136 137 142 141 142 140 139 138 142 
158 155 152 149 142 142 147 147 151 141 142 134 136 123 68 8 16 38 45 69 89 106 106 104 103 115 119 117 119 119 115 118 122 124 123 126 121 108 103 122 124 118 121 129 137 135 135 138 140 140 143 138 141 142 142 141 142 141 142 142 140 139 141 139 135 130 132 128 128 130 131 137 139 143 141 141 142 144 139 142 
158 153 153 144 138 143 151 143 148 141 143 133 131 116 65 7 7 34 41 69 90 99 95 102 102 107 114 112 116 115 115 119 120 122 122 126 116 111 102 122 126 120 120 130 137 136 136 138 135 139 142 142 140 141 138 144 141 143 143 138 139 141 141 136 136 131 132 131 128 132 131 133 137 142 135 145 139 143 139 145 
155 153 155 146 142 143 143 145 149 141 143 135 135 117 57 3 2 22 34 61 83 94 97 100 99 105 112 112 113 117 118 119 121 121 120 122 119 105 106 119 125 119 117 131 136 136 138 139 136 135 140 140 140 137 140 140 145 141 142 138 139 140 138 137 134 130 131 129 131 129 133 129 137 143 141 146 141 137 139 146 
158 154 147 152 139 132 140 146 146 141 142 130 132 115 53 1 4 27 50 61 84 88 92 96 99 103 113 113 110 116 119 115 120 122 117 123 110 101 104 121 121 118 117 133 136 136 138 138 138 137 144 139 138 138 142 142 142 142 139 139 136 138 143 138 133 132 132 130 129 131 126 132 134 143 146 147 134 144 139 141 
151 150 149 138 132 133 136 147 146 142 145 131 131 114 42 4 5 24 50 58 78 86 87 92 96 105 120 117 107 115 116 117 120 122 120 118 108 103 110 120 120 115 120 133 137 135 139 140 141 140 144 141 139 139 141 141 141 144 143 141 137 139 140 137 135 134 132 130 128 132 132 131 135 143 141 142 142 143 141 141 
154 151 145 137 127 126 132 147 148 142 144 134 136 108 43 4 11 29 47 59 74 80 83 92 95 116 131 126 113 112 113 118 116 121 119 121 106 101 106 120 117 112 122 134 135 138 137 140 139 141 141 141 141 139 142 144 148 153 146 142 138 137 141 140 135 131 135 129 127 132 133 135 140 143 142 141 140 146 141 144 
153 150 142 136 124 119 133 143 150 140 142 134 133 107 41 7 6 23 41 60 73 80 82 86 95 114 127 124 112 112 111 116 118 120 118 120 106 103 107 121 120 116 121 130 132 137 136 139 141 135 142 142 144 142 141 146 143 147 147 144 141 140 142 136 135 134 132 133 134 132 135 139 140 144 142 145 142 148 142 143 
154 147 141 122 115 118 130 145 146 140 143 131 131 103 34 3 9 28 40 62 74 72 78 83 90 111 129 111 105 111 112 114 116 123 116 119 108 103 109 124 120 115 125 135 132 137 135 137 137 136 140 139 140 140 142 143 146 147 139 141 137 138 141 135 134 131 133 134 132 133 134 140 145 144 142 143 140 145 140 146 
155 145 141 124 113 110 119 140 144 141 141 135 127 98 28 3 8 26 44 64 74 77 82 88 96 116 124 117 104 110 113 112 118 121 118 121 107 107 113 124 120 116 121 134 136 136 134 135 138 137 141 138 138 140 144 140 144 148 143 142 136 138 140 136 133 132 131 134 134 138 134 142 143 144 142 142 139 144 140 143 
151 146 139 128 117 115 125 138 141 139 138 138 124 97 27 0 4 30 46 64 72 83 94 106 105 116 123 115 118 118 113 113 120 121 118 118 103 108 114 125 121 118 122 138 132 134 135 137 136 134 140 141 143 141 141 143 142 143 145 142 139 139 139 135 135 134 130 133 132 135 137 141 137 144 143 144 141 145 139 140 
148 145 140 128 124 119 129 143 142 138 138 134 119 93 19 0 7 27 51 65 75 87 100 99 104 111 115 116 119 126 123 112 116 116 114 120 104 107 114 126 120 120 125 137 135 134 135 136 139 138 139 140 143 142 143 142 140 141 141 138 138 139 142 136 135 134 131 129 135 136 137 137 136 142 143 143 137 144 143 143 
144 139 133 125 122 123 126 137 141 140 140 134 119 90 23 0 10 29 47 65 72 83 95 103 102 105 111 112 111 121 125 113 114 117 117 121 103 107 114 122 119 123 122 135 134 134 137 136 140 141 140 143 142 140 143 142 142 140 142 142 138 139 142 138 135 132 133 132 132 137 142 139 140 140 144 141 137 146 146 144 
145 138 132 122 119 122 129 137 137 139 138 135 111 88 18 7 11 31 50 65 76 85 96 95 100 103 113 114 116 122 125 112 114 114 113 114 101 100 116 118 120 120 128 135 133 135 134 138 136 139 143 140 139 145 141 142 141 141 143 139 137 139 141 138 135 133 131 131 137 140 139 138 140 143 143 142 141 143 145 147 
141 139 128 126 119 117 125 134 135 137 137 137 108 82 18 16 13 33 51 67 73 91 95 94 96 102 113 113 114 123 120 113 114 115 112 108 101 101 110 120 119 118 125 135 131 135 134 138 139 139 144 142 143 141 142 141 139 140 142 142 142 139 141 139 138 134 133 131 136 139 140 141 141 145 141 144 142 146 143 146 
138 129 127 108 106 114 122 139 134 136 137 129 96 76 25 23 19 36 54 67 78 94 98 94 95 105 112 112 114 123 121 110 111 113 111 107 100 100 113 118 116 116 123 137 137 135 137 137 140 141 145 141 140 140 139 137 140 141 140 140 136 138 140 139 136 134 136 133 136 140 141 142 141 143 143 144 142 145 146 146 
138 130 123 101 103 111 124 137 134 138 132 123 93 71 26 25 29 39 56 63 76 93 99 96 96 105 110 109 111 112 115 106 105 108 110 103 97 104 105 118 117 114 126 135 134 130 136 140 142 139 137 140 139 140 141 139 139 143 143 143 139 140 141 131 136 133 136 133 133 139 141 139 140 148 143 145 143 146 148 148 
137 129 121 98 102 116 124 138 132 135 135 123 89 68 30 33 32 47 59 66 73 78 89 98 96 106 111 107 103 99 103 106 107 109 109 98 100 105 111 117 118 117 128 134 137 139 138 142 139 138 140 137 141 139 138 141 138 142 142 142 136 136 139 136 134 134 135 132 136 139 139 138 141 146 148 147 143 148 144 148 
136 127 117 98 110 121 130 133 133 133 131 121 84 64 29 33 32 47 59 68 71 77 89 94 93 100 107 106 103 99 102 103 107 109 108 99 99 106 108 113 114 113 131 137 135 135 136 140 139 136 138 140 142 138 138 141 139 140 139 140 141 137 139 134 132 134 135 133 133 136 141 140 143 144 145 145 146 147 145 147 
130 127 119 108 110 108 126 134 129 129 129 114 84 65 29 35 38 46 57 64 73 81 89 93 92 100 105 103 102 97 101 103 106 106 105 98 95 106 110 113 111 113 132 137 131 135 137 137 139 137 141 140 138 139 139 140 138 138 140 138 141 136 138 139 135 135 134 133 140 141 142 139 141 152 144 149 143 147 146 148 
128 126 118 105 103 89 98 114 121 122 118 106 83 63 28 38 39 44 56 63 64 73 85 89 89 94 104 99 100 97 100 100 104 107 106 96 93 107 114 112 113 113 131 136 135 134 138 139 139 138 141 139 141 137 137 139 139 139 139 140 138 139 137 135 132 136 135 136 136 137 142 140 144 152 146 147 146 148 142 147 
130 121 116 74 64 75 75 85 98 100 85 87 80 61 25 37 40 48 54 59 64 72 83 86 89 88 95 92 93 95 98 102 104 104 105 95 93 110 108 109 109 116 131 136 135 136 137 139 136 139 143 141 141 139 140 139 139 138 138 139 138 137 139 135 130 135 139 137 138 141 142 141 141 146 148 152 144 147 149 147 
122 119 108 65 59 69 72 80 82 71 64 79 78 53 19 35 42 47 52 58 62 68 79 87 86 85 91 88 91 92 96 97 100 105 102 93 91 108 104 102 109 113 134 137 135 135 137 140 139 140 140 141 141 138 139 140 139 137 137 140 137 134 138 139 135 133 136 141 138 140 145 143 145 147 146 148 147 149 149 147 
118 117 106 63 63 62 64 69 73 62 62 73 73 46 13 27 37 45 53 58 61 67 83 88 86 82 93 90 90 93 95 94 100 103 101 91 95 101 102 101 107 112 131 136 136 136 139 140 139 142 145 141 142 141 140 143 142 139 138 138 138 138 142 136 140 140 137 141 143 143 144 144 145 149 146 149 146 150 145 150 
109 112 102 55 44 55 62 67 71 64 60 69 66 35 3 20 33 43 54 57 63 65 76 87 79 86 92 91 88 94 99 101 100 101 100 99 89 99 97 94 100 111 132 136 135 136 137 138 143 141 143 144 142 139 141 142 141 143 142 138 140 143 144 145 146 144 142 140 141 142 145 142 145 152 150 151 146 150 146 148 
111 109 101 58 41 48 50 54 67 55 53 65 58 28 6 20 32 47 55 60 60 63 70 75 74 99 133 130 130 133 133 131 131 126 119 114 95 98 93 92 99 110 132 135 136 135 139 147 150 149 150 148 146 140 138 141 141 141 144 145 140 147 148 155 161 153 153 146 145 146 145 149 146 152 150 151 148 154 152 151 
107 106 104 57 35 36 41 41 52 41 50 59 51 23 9 37 44 46 55 57 61 63 68 68 76 115 141 139 143 146 146 146 142 145 144 147 122 97 90 89 97 109 126 133 134 138 143 154 209 215 177 149 150 145 147 146 145 148 142 142 141 147 149 175 189 180 173 159 153 146 146 153 151 157 152 152 150 156 149 153 
106 104 99 61 33 35 39 41 41 34 45 53 51 24 17 35 47 51 48 51 50 54 59 65 97 133 146 147 145 149 150 153 152 149 150 152 138 98 85 87 93 108 126 133 135 134 143 166 237 253 192 153 153 146 146 148 146 147 142 141 138 139 150 183 195 196 201 199 191 180 166 159 154 158 156 152 153 157 153 152 
106 102 98 69 36 37 34 40 43 41 50 41 33 26 22 35 46 54 53 51 56 56 54 64 116 139 147 147 150 153 150 152 153 151 154 156 142 109 86 82 93 107 122 131 130 134 139 161 218 238 191 157 160 153 147 145 145 141 141 139 141 141 153 190 197 202 204 213 210 210 208 198 185 173 165 163 156 160 154 159 
101 99 96 66 30 31 30 29 36 32 32 34 43 31 38 49 44 60 55 50 55 58 67 84 128 140 148 148 147 151 152 152 154 155 156 156 152 130 88 84 91 106 125 131 132 135 138 160 196 207 192 153 147 145 143 147 142 141 141 141 139 141 157 193 197 207 207 211 216 218 218 216 213 205 188 178 160 164 161 158 
97 96 100 68 28 24 24 29 26 23 26 31 46 70 80 73 52 53 50 50 50 61 72 113 143 149 149 148 149 152 149 155 155 155 157 156 152 137 89 83 91 105 124 130 132 135 144 169 179 189 193 177 153 144 144 144 142 142 141 140 139 141 165 191 203 209 211 215 217 219 222 221 222 216 200 196 185 179 168 165 
98 97 97 70 33 30 27 28 28 25 46 41 62 77 82 73 57 51 52 46 55 65 95 135 140 149 156 150 148 153 152 154 156 156 154 157 154 148 98 84 88 106 119 130 130 134 153 165 173 180 185 183 162 143 144 141 141 142 140 138 139 144 174 194 202 210 212 214 219 228 226 220 216 214 196 200 197 201 199 194 
96 90 98 74 42 45 39 41 39 36 48 55 65 82 84 72 54 56 54 52 58 82 127 144 146 154 160 153 150 152 152 156 157 159 156 159 154 146 124 89 91 113 122 130 130 135 148 161 165 171 176 173 163 143 141 141 143 143 142 142 140 146 182 201 209 215 217 219 228 233 229 227 220 213 199 202 198 206 210 210 
90 92 94 74 53 52 45 49 48 41 50 55 56 83 82 66 61 64 63 65 74 123 139 147 144 153 162 153 151 149 151 154 158 162 157 158 158 152 141 117 94 110 125 130 132 138 145 150 153 151 151 148 146 142 140 138 141 150 143 149 151 157 197 206 209 217 217 222 226 236 233 226 223 218 202 205 198 207 211 218 
103 91 95 79 74 85 85 83 89 83 87 85 84 90 88 84 81 83 82 82 117 139 144 151 138 148 157 151 151 156 155 156 160 158 160 162 155 151 149 141 120 117 129 132 133 140 140 144 150 147 146 145 144 138 140 141 142 149 148 154 155 171 213 213 217 220 217 220 230 232 231 226 221 213 203 200 202 209 212 215 
111 98 97 88 89 101 96 100 98 95 102 102 104 110 107 107 106 107 108 115 137 146 148 147 128 144 155 154 153 155 157 157 159 158 158 151 139 144 145 150 142 124 132 130 132 136 142 148 141 143 142 143 141 141 139 139 139 145 150 152 156 176 220 221 228 226 226 226 232 235 233 229 226 220 206 206 200 205 209 216 
105 107 103 101 98 105 104 106 103 102 102 104 105 112 111 106 111 111 111 122 142 147 147 135 125 141 158 154 152 154 155 158 158 156 155 149 142 139 143 149 152 138 135 133 134 136 142 144 139 140 143 145 143 141 137 141 143 143 144 150 155 184 238 232 233 232 226 229 238 241 238 236 231 220 210 209 204 216 211 219 
107 108 104 103 106 105 103 102 105 103 104 101 106 109 110 110 112 106 115 129 143 149 148 132 121 144 158 151 153 154 157 157 158 156 154 152 140 140 142 153 155 145 137 139 138 141 137 139 136 141 145 144 144 143 142 137 141 144 141 148 153 164 208 248 247 245 235 236 247 251 247 242 236 227 214 213 208 217 218 225 
103 107 104 101 104 104 103 102 102 99 100 102 104 109 106 107 107 104 112 128 145 149 146 136 131 149 163 156 150 157 152 153 154 157 157 157 142 141 144 153 157 150 142 138 139 142 142 145 144 146 146 150 151 152 151 141 140 139 139 149 152 152 165 185 233 264 256 250 262 259 255 250 246 234 217 214 212 222 221 220 
103 109 106 104 105 108 108 103 101 98 104 103 103 110 109 104 105 107 111 126 146 149 147 146 147 153 158 153 153 157 155 155 156 160 155 159 154 151 151 151 156 155 147 139 136 136 145 145 148 146 154 153 152 151 154 150 140 141 142 153 158 160 157 160 169 217 260 282 273 268 268 262 261 240 221 218 214 220 223 226 
105 104 102 104 105 103 103 100 100 98 103 102 105 111 108 110 108 109 108 122 143 149 152 154 151 156 158 153 156 158 157 160 156 158 156 160 158 155 151 153 156 150 143 129 131 133 138 135 136 139 144 148 145 150 151 153 146 145 147 153 153 155 159 164 159 165 194 251 291 291 290 276 270 243 223 225 218 220 228 231 
109 106 104 108 102 101 100 97 100 101 101 101 107 107 109 111 106 108 110 118 138 146 150 149 151 156 157 153 154 156 158 157 159 155 156 159 159 156 151 151 152 146 146 129 126 130 132 134 137 136 138 137 139 140 141 143 139 141 142 152 151 156 153 156 153 154 157 174 225 283 307 289 278 240 224 226 218 229 229 234 
109 105 105 104 105 99 93 97 101 100 100 103 102 105 107 107 107 109 107 112 138 143 152 151 155 155 162 152 159 156 156 158 158 158 160 159 159 154 151 152 152 148 147 139 131 129 134 138 137 138 141 136 137 145 143 144 144 144 143 145 152 150 151 149 151 149 153 155 168 194 259 287 278 243 229 232 222 228 227 236 
116 108 107 105 103 103 95 97 98 97 101 99 101 103 104 104 105 106 107 109 137 147 150 152 154 156 158 153 153 153 155 153 156 156 160 156 157 153 147 151 149 145 147 147 137 135 139 142 143 144 141 143 146 144 147 150 147 152 146 146 148 153 154 152 148 150 152 154 156 163 175 211 223 235 239 240 227 228 235 241 
113 107 104 106 103 103 99 97 98 96 103 100 100 107 100 103 102 106 107 109 134 145 151 147 155 155 162 154 154 155 154 154 156 155 154 159 155 154 145 147 152 140 143 147 140 141 147 146 151 148 148 146 146 149 145 152 151 148 152 155 149 152 157 153 148 151 151 151 151 156 161 170 174 202 233 243 235 240 239 240 
109 106 104 107 110 106 97 99 97 95 99 100 102 107 106 104 105 106 104 107 136 148 151 155 155 156 160 157 155 158 156 156 159 157 157 160 155 152 143 149 148 137 140 144 145 147 148 162 164 160 160 156 150 151 151 151 151 155 155 154 154 155 157 157 158 153 149 150 151 152 155 158 162 169 194 235 238 249 246 247 
112 106 104 105 106 104 98 97 95 99 103 99 102 105 105 103 102 103 104 110 134 144 149 152 153 158 165 158 156 151 159 158 157 158 158 160 155 152 146 145 140 135 136 142 143 145 151 159 163 164 165 165 158 155 151 154 152 154 155 159 159 158 159 158 155 167 162 153 151 152 155 158 154 161 167 185 217 250 254 249 
110 105 104 106 108 101 96 95 95 93 102 102 104 105 104 100 101 120 121 114 136 147 147 151 153 156 162 154 151 158 155 155 155 155 154 155 154 149 141 145 141 136 135 141 144 148 155 156 168 166 170 166 160 156 152 156 155 158 157 162 164 164 162 158 160 163 182 179 158 153 154 151 154 156 158 159 178 223 255 259 
111 107 104 104 106 98 97 96 94 97 99 99 107 107 104 100 112 132 140 137 139 147 146 147 148 152 157 154 151 154 152 155 158 153 154 154 156 149 140 146 150 138 138 145 154 156 163 167 168 165 167 164 163 159 153 154 154 157 154 156 157 163 169 163 167 166 176 190 169 157 149 148 151 156 153 156 149 179 223 264 
109 107 104 103 107 103 99 97 97 97 99 99 103 107 105 100 121 139 148 139 140 144 151 148 149 153 155 149 152 152 149 151 152 156 155 153 156 151 139 147 148 139 140 143 148 157 164 171 163 167 167 162 165 160 162 158 160 161 154 155 158 166 170 168 170 167 167 175 166 159 156 154 148 157 154 153 144 155 174 232 
108 107 103 104 106 101 99 98 98 96 99 98 102 101 103 97 121 144 148 142 141 143 147 149 148 149 156 147 148 148 150 150 149 153 150 153 150 149 141 146 144 142 138 139 147 150 162 164 166 167 173 170 169 163 163 163 162 164 158 159 158 168 169 171 173 169 167 161 162 164 168 174 160 152 152 154 144 149 152 177 
110 104 104 103 106 103 101 99 97 95 101 95 101 101 105 102 131 146 148 139 137 138 147 144 144 148 152 145 144 149 144 150 147 151 150 150 151 145 143 145 145 142 141 147 151 158 164 163 160 167 176 176 171 168 167 165 162 164 167 164 159 165 168 172 174 172 165 173 167 166 177 178 176 164 151 154 147 153 156 157 


