P2
80 60
143
130 132 137 132 133 128 131 129 126 132 129 125 125 129 132 131 130 128 126 128 126 128 125 125 126 129 128 127 126 128 127 125 126 127 125 126 124 125 125 123 127 125 126 124 123 121 120 117 123 122 126 129 128 133 133 133 136 136 130 132 129 129 133 133 132 132 127 123 124 127 130 128 125 120 118 118 119 116 116 113 
131 134 137 136 132 129 130 133 128 132 131 127 130 126 131 129 131 125 128 129 131 128 129 124 124 125 130 127 127 126 125 126 126 126 127 126 126 126 126 126 128 128 126 124 121 125 124 120 123 124 125 129 125 133 133 134 140 138 131 133 134 128 130 131 133 131 127 123 124 126 129 127 124 118 117 122 115 116 121 115 
132 131 131 131 133 134 132 133 129 129 133 132 127 127 132 128 127 125 127 126 132 127 127 127 126 128 127 130 125 130 128 128 127 128 130 127 128 130 127 126 131 128 127 125 120 126 126 119 123 124 126 128 126 132 132 131 135 136 133 135 131 131 128 130 131 128 127 124 124 124 130 129 124 121 120 124 115 119 121 118 
132 129 136 131 132 131 134 132 129 132 134 132 125 130 128 127 131 129 127 125 129 128 131 129 131 122 130 128 128 129 128 128 127 127 127 128 129 130 127 124 130 127 127 124 125 122 125 119 129 123 124 130 126 133 131 131 134 134 133 134 135 130 131 130 131 132 127 125 125 124 132 136 122 119 120 119 119 119 123 123 
137 134 137 135 131 134 133 131 127 132 130 127 128 130 134 131 129 129 126 131 124 125 132 131 128 130 131 129 128 130 126 125 127 125 126 127 129 129 130 126 129 127 126 122 123 121 127 116 125 124 126 131 127 129 131 129 134 131 129 133 133 129 131 131 130 127 125 127 125 128 129 127 118 121 123 120 115 116 122 118 
129 133 135 137 132 132 132 132 132 134 130 132 126 132 131 133 131 132 127 130 131 127 132 132 130 128 130 131 126 129 127 121 125 124 125 128 124 130 129 125 129 127 128 122 122 121 130 119 127 125 129 131 132 135 133 129 134 131 132 136 132 127 133 131 132 129 126 127 132 128 131 128 123 120 122 121 117 117 121 117 
133 132 135 135 133 132 134 131 133 130 134 130 129 130 130 128 134 127 126 129 128 129 129 129 131 128 128 129 130 128 124 125 125 123 127 126 130 129 126 127 128 125 127 122 120 120 123 120 125 124 127 130 130 133 132 131 136 138 139 135 132 129 130 131 132 132 126 129 130 124 124 126 121 120 121 124 116 119 119 118 
136 135 137 134 131 135 135 135 131 133 132 131 130 132 133 131 130 127 127 128 129 125 129 130 127 131 128 131 129 129 124 124 123 124 126 128 128 125 126 126 129 126 125 123 122 119 125 120 122 129 124 129 131 131 133 133 133 136 134 135 133 130 132 130 132 131 123 128 133 125 128 126 120 119 117 119 115 117 121 120 
137 135 140 138 135 134 135 131 133 132 132 133 131 129 135 129 131 129 131 130 127 124 131 130 130 131 129 128 129 128 128 123 125 125 127 127 128 128 126 121 126 125 122 121 120 117 117 115 120 126 127 132 128 135 130 130 133 133 130 130 128 125 131 128 129 125 129 131 125 123 126 126 122 117 118 116 115 119 120 122 
137 138 136 135 130 133 132 132 131 133 130 129 125 127 127 129 132 125 127 127 128 125 127 126 126 128 125 130 126 127 123 121 125 125 127 127 126 125 123 125 122 124 120 118 119 113 119 115 123 124 126 129 129 131 129 127 131 128 125 130 128 128 131 129 129 129 127 127 130 124 127 127 120 117 116 120 117 114 115 118 
135 134 133 133 135 131 136 132 132 133 127 128 128 126 130 128 131 125 126 122 126 126 126 127 125 127 127 126 125 125 125 123 124 125 125 125 126 124 123 123 123 123 121 117 116 116 117 113 119 120 125 128 127 129 127 127 131 130 130 125 126 124 126 129 127 125 125 129 128 124 126 123 119 117 115 121 118 115 115 117 
136 138 138 140 132 133 134 134 128 129 132 128 129 130 131 123 130 122 125 125 124 125 127 128 123 126 122 127 124 126 127 125 123 126 124 123 125 118 125 121 126 123 119 115 118 117 118 115 122 122 123 125 128 127 130 128 132 131 126 128 125 128 130 125 132 127 124 125 126 121 122 123 117 120 122 126 120 113 115 119 
136 138 139 141 132 128 132 131 127 130 128 129 125 128 125 125 126 122 121 123 123 123 127 126 122 123 125 126 124 125 123 125 123 127 124 123 123 126 125 121 125 123 118 119 118 114 119 115 121 124 124 126 123 127 127 128 131 129 126 127 127 128 130 125 125 127 124 127 127 124 117 120 118 117 121 121 123 120 117 117 
135 140 139 135 131 134 132 128 127 128 125 125 123 126 127 126 128 122 123 123 125 122 126 125 121 124 124 125 123 124 122 122 124 128 123 125 125 124 123 122 126 121 120 118 119 120 118 115 124 127 125 124 124 126 128 127 130 128 128 127 128 128 131 128 125 126 123 127 123 122 124 120 119 117 118 120 117 115 115 116 
138 136 134 133 129 127 129 127 131 125 133 123 120 126 127 126 126 123 121 125 123 121 125 125 123 124 123 125 123 124 125 123 123 125 123 124 122 122 122 120 125 123 119 117 116 118 116 115 122 125 124 122 124 127 130 129 134 143 128 126 126 126 126 129 128 125 122 126 124 120 123 120 118 118 119 120 115 120 121 116 
136 137 140 135 128 129 128 133 129 127 127 124 124 127 125 125 124 126 123 122 124 123 123 123 124 126 125 125 126 125 125 126 123 125 124 124 121 120 123 122 124 124 118 116 117 115 116 112 122 122 123 122 122 128 126 127 130 135 127 128 127 124 129 126 129 128 123 125 127 121 124 120 118 121 118 121 119 123 119 116 
135 136 140 135 133 129 130 130 124 124 128 126 122 126 126 129 126 122 124 120 122 116 127 124 124 124 123 124 124 124 125 124 123 124 125 124 122 122 121 122 123 121 115 114 116 115 112 115 120 118 120 122 122 126 127 127 130 131 128 124 126 124 126 125 123 126 125 125 125 122 124 120 126 119 121 120 116 121 119 117 
135 138 139 133 129 129 127 129 124 121 125 123 123 125 125 126 125 122 121 125 121 124 125 124 122 124 121 126 125 124 124 124 124 128 124 123 122 123 123 126 122 121 116 114 111 111 113 113 118 117 117 122 121 124 127 125 127 133 124 123 129 125 124 123 123 124 121 121 121 120 123 122 119 118 119 117 119 120 117 118 
137 137 134 137 132 129 128 128 127 124 128 126 123 122 125 125 127 121 122 124 123 123 128 125 124 125 126 123 122 122 123 122 126 126 125 125 122 121 123 124 125 120 112 113 110 109 115 114 118 114 118 121 120 124 123 123 128 128 126 124 126 125 123 125 124 123 121 124 123 121 124 122 118 119 119 119 116 118 118 117 
137 138 137 136 133 128 129 127 125 124 128 122 128 127 129 125 127 122 123 125 118 125 131 125 126 126 127 124 123 127 122 122 122 123 122 123 121 123 119 121 125 118 110 110 111 108 109 116 117 117 118 123 120 123 126 121 125 125 123 125 123 123 122 124 118 121 118 121 123 121 123 121 117 120 118 117 114 113 116 115 
135 134 134 132 131 128 131 132 122 124 128 125 125 128 126 123 124 123 122 121 118 124 127 125 125 124 122 120 125 125 126 121 122 123 123 123 123 122 123 122 121 121 108 108 109 107 110 109 117 118 116 119 119 120 121 120 123 120 120 126 125 122 122 122 123 123 118 122 122 121 117 116 120 121 119 116 115 115 115 115 
135 137 132 136 130 126 130 126 124 125 126 126 133 128 126 123 126 121 123 120 121 121 126 125 123 122 123 123 122 122 121 121 122 120 122 121 122 120 122 121 122 117 108 108 106 104 110 113 117 115 117 115 117 124 124 122 121 116 119 122 125 120 122 124 121 120 118 119 118 123 120 119 118 117 117 115 112 114 120 118 
132 133 129 137 131 130 128 127 126 127 126 125 124 126 125 124 123 121 122 121 119 122 123 123 123 121 122 123 123 121 121 120 121 119 120 121 120 119 120 116 118 114 105 103 109 103 109 110 115 116 116 117 116 119 121 119 119 119 117 121 124 126 121 121 119 126 120 118 122 124 119 122 119 117 119 118 113 117 118 116 
135 131 135 130 133 128 130 129 125 125 126 125 126 125 125 123 122 124 125 123 120 123 124 119 122 124 120 123 121 123 120 119 120 120 120 121 118 119 119 118 117 109 105 106 103 104 110 114 113 117 116 117 114 120 121 120 119 117 116 121 127 122 120 123 122 123 123 118 122 123 120 121 121 120 116 119 114 117 117 117 
133 130 129 132 127 126 128 127 125 125 124 119 121 126 126 122 122 121 121 120 122 121 121 120 121 124 123 124 122 120 118 117 120 117 118 115 119 118 116 115 116 104 103 105 108 104 107 108 110 111 110 115 110 116 119 116 119 117 113 119 121 119 121 120 122 118 119 118 119 121 117 119 120 121 118 116 116 115 118 118 
134 130 132 129 129 128 126 126 123 123 124 123 123 125 127 124 123 123 119 120 120 124 120 119 121 121 121 122 123 121 117 115 117 115 113 121 121 118 117 114 108 84 76 93 104 107 108 110 109 106 110 112 111 115 118 117 117 114 115 117 120 119 119 119 121 121 117 116 119 117 115 118 120 117 121 118 115 117 117 116 
134 132 130 130 128 128 128 126 122 123 123 122 117 122 123 127 125 121 120 120 123 122 125 120 120 123 124 121 120 122 116 117 119 116 118 115 118 114 115 112 99 21 19 73 100 102 106 113 109 107 108 108 110 114 115 117 113 114 112 119 121 115 117 116 122 122 116 117 117 111 113 119 117 120 118 117 111 115 114 115 
135 131 128 131 131 125 125 128 123 121 120 120 117 121 123 125 123 118 120 118 118 119 124 121 118 122 123 124 120 117 119 115 116 113 114 114 115 116 116 113 89 5 6 59 93 97 107 104 107 107 107 110 107 112 114 112 115 113 113 115 118 115 115 118 117 121 116 121 117 114 114 118 118 120 113 114 112 111 113 110 
134 131 132 128 126 125 127 126 122 121 122 122 118 122 123 121 123 122 122 119 120 120 121 120 118 120 121 121 120 119 116 116 119 116 113 114 115 116 113 114 86 1 7 77 93 94 107 103 105 107 107 106 108 112 115 114 113 110 110 116 117 117 117 118 119 117 118 114 115 112 113 116 121 119 116 114 116 111 113 114 
133 130 134 130 127 126 126 124 125 124 122 118 117 122 121 118 120 118 118 119 116 120 119 118 116 120 120 120 119 119 116 118 118 115 115 116 114 114 110 111 76 0 15 76 94 96 104 109 105 106 104 103 107 110 113 113 113 112 112 115 118 119 113 118 119 119 120 115 115 111 113 113 120 119 112 120 113 114 109 111 
134 132 130 127 130 125 125 126 122 123 122 119 118 119 121 120 124 118 114 115 115 119 118 119 117 123 120 121 120 119 117 112 117 115 116 114 115 115 113 112 69 4 18 83 92 98 105 106 104 105 104 103 109 110 113 112 112 110 110 114 119 116 116 118 116 115 116 118 116 111 110 116 118 120 111 114 112 112 107 112 
134 133 129 126 127 125 125 127 122 121 122 120 113 119 118 122 125 114 113 115 117 113 117 117 118 118 119 117 118 117 115 115 115 113 115 115 116 113 111 105 63 4 21 81 93 96 103 105 102 106 102 103 102 111 113 111 109 111 110 112 115 118 116 118 117 113 117 115 114 112 110 113 119 115 115 111 114 112 109 112 
133 133 131 130 127 126 125 122 119 120 123 118 118 120 117 119 123 116 113 116 116 118 120 116 119 117 115 119 115 118 114 113 116 113 117 114 114 112 113 107 52 4 23 81 94 98 107 102 103 104 104 101 105 108 112 113 109 111 111 114 117 115 116 118 115 115 113 115 118 109 109 115 117 115 111 110 109 109 109 108 
131 131 133 132 125 124 125 124 122 121 122 122 119 118 120 121 122 118 116 113 118 116 119 119 114 117 118 117 115 114 115 113 115 111 113 112 108 112 112 104 43 8 22 82 96 96 106 104 102 103 102 104 101 108 108 112 106 109 109 111 115 116 113 113 116 116 111 113 115 110 111 123 118 117 115 110 110 109 107 109 
132 134 135 132 126 125 124 123 124 122 121 121 118 118 117 115 120 116 113 115 117 113 116 116 114 117 117 113 113 119 114 113 111 108 113 114 113 110 108 102 33 9 19 75 92 101 101 106 105 100 100 101 102 106 107 109 106 107 109 110 111 113 116 114 111 113 111 114 115 108 112 115 121 113 108 112 109 107 103 107 
134 132 134 127 129 124 124 124 123 120 123 118 119 117 119 120 116 114 118 117 118 114 116 113 113 111 115 114 113 113 117 110 112 109 112 112 111 111 107 102 29 6 14 67 93 98 103 106 101 102 100 101 101 99 106 107 107 107 108 114 113 113 112 113 113 113 111 115 115 109 109 114 115 116 109 109 107 108 107 109 
137 132 132 129 126 124 122 126 121 122 122 118 118 117 118 114 120 117 114 119 113 113 115 112 111 110 115 114 109 113 114 108 110 108 111 108 113 112 104 94 28 0 11 69 97 98 106 103 104 102 100 101 97 100 104 108 108 105 106 109 113 110 109 109 112 114 111 111 112 106 113 110 117 111 109 109 107 106 107 106 
136 133 128 127 122 125 123 126 119 121 124 123 122 116 115 116 119 115 116 113 113 111 117 113 112 109 112 109 113 111 112 110 110 111 109 110 110 110 106 101 62 12 35 87 95 102 107 104 104 93 95 97 99 98 104 104 104 103 103 112 112 109 107 107 110 113 109 106 107 106 108 113 116 108 109 110 110 107 104 103 
131 131 138 128 120 123 121 122 122 124 125 117 117 117 116 117 116 114 113 113 115 116 116 114 114 113 113 110 111 110 109 108 109 109 111 111 108 105 107 104 85 52 75 98 105 110 109 108 103 88 94 98 99 98 103 103 100 101 104 106 112 108 108 106 109 111 108 106 103 104 115 111 113 108 108 108 106 104 107 112 
126 125 129 124 122 117 121 120 123 121 131 122 119 118 116 117 114 112 112 113 113 112 115 114 115 113 116 114 111 110 108 108 113 110 110 108 110 109 106 105 94 93 100 104 106 106 111 105 104 97 89 95 99 96 102 101 100 101 105 111 111 107 106 108 106 109 108 108 104 104 114 112 112 109 109 106 107 108 109 107 
124 126 126 124 121 122 118 123 119 120 122 118 119 119 118 116 113 113 114 111 114 112 113 111 113 113 117 112 112 110 107 109 111 109 110 107 108 106 106 103 101 97 106 105 109 113 109 108 105 99 95 99 95 103 101 102 101 104 102 107 109 108 107 109 105 106 105 105 102 102 109 111 109 108 109 109 103 106 114 107 
118 125 127 124 123 118 123 123 121 118 120 117 118 121 116 115 114 110 111 112 111 109 112 113 112 115 114 112 110 111 108 108 108 107 109 110 105 105 104 102 101 93 106 108 107 111 111 113 107 101 103 97 95 101 105 100 98 102 100 108 110 108 107 106 103 106 104 102 100 102 109 110 115 105 108 104 104 102 106 101 
120 118 130 120 118 115 117 121 117 119 118 119 118 118 116 112 113 112 111 112 108 110 112 113 112 111 111 113 113 113 108 109 107 108 109 109 107 111 104 101 97 92 106 107 110 111 117 110 106 107 106 102 98 105 105 99 98 102 99 107 110 107 110 107 102 106 102 101 99 101 109 111 110 105 101 103 103 103 107 106 
119 117 121 120 117 120 116 120 118 118 119 119 112 116 115 107 112 110 110 109 109 107 117 110 110 112 114 111 111 112 108 107 109 105 110 108 106 104 103 97 98 97 111 109 111 112 116 117 110 106 106 107 104 106 101 99 98 102 98 105 111 104 104 104 101 103 101 100 102 103 108 111 106 102 102 102 102 104 105 106 
119 117 115 114 122 115 118 118 113 115 118 116 115 116 112 109 114 109 111 111 111 109 111 111 108 112 112 111 109 112 108 106 104 107 106 108 109 108 104 100 104 94 106 109 114 113 117 112 111 105 106 108 110 112 100 96 98 103 99 103 105 107 99 105 99 101 99 102 100 102 113 111 108 105 102 105 103 105 104 106 
120 122 118 118 120 113 115 120 116 114 117 116 114 118 117 112 115 108 110 113 109 105 109 110 110 109 111 109 108 110 111 108 109 105 109 109 106 106 102 101 103 93 109 109 112 111 115 109 107 109 108 104 108 113 105 97 100 101 100 103 110 109 103 103 102 103 100 106 101 103 111 112 106 101 108 103 105 103 106 106 
118 116 113 112 116 115 115 114 115 115 116 114 115 118 114 113 112 109 106 111 109 110 108 111 108 107 111 106 107 107 105 103 103 103 105 104 105 107 99 98 99 91 105 105 109 109 112 109 109 105 104 104 103 113 104 100 101 101 101 105 110 105 104 109 102 103 98 100 96 107 112 109 108 102 101 101 100 102 100 103 
117 116 118 113 116 116 117 121 113 113 116 112 119 115 116 112 111 110 110 111 109 108 112 107 110 109 108 110 109 109 107 106 107 106 105 107 105 104 100 102 102 93 101 106 113 112 115 109 109 107 105 106 103 108 110 104 109 115 109 110 111 111 108 113 110 109 104 103 97 109 115 111 104 104 104 99 102 101 103 102 
115 114 117 116 117 116 117 118 115 116 118 112 113 114 115 115 109 113 111 110 106 109 114 110 108 108 108 109 111 112 106 104 106 103 107 109 105 107 104 104 102 94 98 105 108 111 111 109 109 105 105 107 102 110 108 106 114 111 107 111 114 110 108 109 111 106 104 101 99 109 111 110 101 102 104 101 96 99 99 97 
114 117 118 116 115 116 118 118 115 113 114 114 114 113 120 113 110 110 108 107 107 111 111 109 106 107 109 109 108 108 106 105 105 105 105 105 104 107 102 97 101 91 96 107 111 109 109 108 106 104 108 105 105 110 111 107 109 111 106 112 113 107 104 107 105 109 103 98 99 108 111 109 105 102 96 100 100 98 99 94 
114 118 116 116 116 116 119 118 114 116 118 115 112 113 113 110 111 108 110 109 110 109 111 108 111 109 106 109 108 108 105 105 101 106 106 108 106 103 102 96 104 91 94 104 110 108 110 107 107 106 105 104 105 110 110 107 109 111 108 116 114 111 106 106 105 103 101 100 100 106 107 107 99 98 100 101 99 100 102 101 
118 115 119 118 115 114 119 117 115 115 117 115 110 115 110 106 108 104 109 111 112 109 109 110 108 108 108 107 106 106 107 104 103 103 107 106 100 101 98 94 97 90 97 104 106 106 109 107 106 105 104 103 102 111 110 109 111 111 113 113 113 110 108 106 104 105 98 97 99 102 109 101 102 98 101 99 97 94 97 96 
116 114 118 118 119 118 117 119 116 115 118 118 113 114 107 112 109 105 108 108 110 108 111 110 109 111 109 104 105 109 107 107 103 104 103 104 101 99 98 97 99 92 94 104 106 106 109 108 106 105 105 105 104 110 111 111 113 115 110 113 112 112 107 107 103 111 90 93 106 105 107 100 95 95 98 99 97 95 96 95 
118 112 114 118 124 120 120 116 116 111 119 113 115 113 111 106 107 108 107 109 107 107 111 108 107 109 105 108 107 107 103 104 104 106 103 103 101 103 96 95 98 91 101 101 104 105 107 105 105 103 106 106 108 111 111 112 116 112 114 114 116 111 107 104 105 105 96 94 107 104 105 95 99 97 98 95 99 97 96 97 
115 111 117 116 118 116 118 116 116 116 120 118 116 113 110 109 111 105 107 109 108 107 109 108 107 109 113 109 108 107 102 103 103 104 102 103 101 101 99 89 95 96 103 110 108 105 108 107 105 105 106 107 105 116 110 109 113 113 112 109 114 111 109 102 105 105 93 99 109 109 108 101 97 95 94 97 98 97 97 96 
113 112 116 117 116 116 116 115 115 117 119 117 115 118 110 106 110 110 107 105 109 108 109 108 107 107 109 108 104 107 103 102 103 103 105 103 103 103 93 89 92 97 104 109 108 103 109 106 102 104 108 106 103 111 109 109 110 115 111 113 114 110 108 104 105 101 94 102 107 102 105 98 96 94 94 94 95 92 99 91 
111 115 113 115 114 114 118 113 112 114 115 115 118 113 110 108 108 105 106 110 109 109 111 110 104 107 106 108 105 105 103 103 101 105 103 104 100 99 93 91 98 99 102 102 108 106 110 109 106 104 106 109 105 110 110 108 111 114 110 110 113 110 108 106 105 101 91 99 112 103 99 97 97 93 94 94 91 96 92 96 
110 111 111 113 113 113 112 112 115 115 116 113 113 115 111 106 112 108 106 106 107 107 111 106 103 103 103 105 109 109 105 105 106 102 103 103 99 98 99 92 98 99 101 107 107 103 109 108 105 106 104 108 108 107 108 110 113 112 110 109 115 114 106 107 102 97 89 96 104 107 104 95 94 95 93 91 94 94 97 91 
114 111 111 118 111 113 116 115 111 111 118 113 112 113 111 106 111 106 103 106 106 107 110 109 103 105 105 106 112 107 101 100 102 103 104 105 101 102 95 91 96 104 100 106 106 107 109 106 105 106 104 108 104 110 112 108 112 110 111 110 108 110 106 104 105 98 91 99 105 102 94 96 94 92 93 92 94 91 91 92 
111 110 113 115 113 116 112 113 111 114 114 114 111 110 109 107 109 106 102 104 104 104 108 109 104 110 106 106 107 106 101 104 105 104 106 106 107 102 97 93 98 106 105 110 111 108 109 107 107 107 107 110 104 109 111 112 111 109 112 112 110 106 107 104 98 99 96 105 104 102 100 95 92 95 96 94 91 94 94 90 


