P2
80 60
168
149 147 146 147 143 143 144 144 142 142 144 142 136 139 136 135 128 127 119 97 73 70 78 116 145 148 149 149 154 156 160 157 162 155 157 152 153 151 153 155 148 147 146 143 144 151 154 152 160 161 161 159 162 159 157 155 158 148 146 146 143 136 115 88 49 17 17 14 20 42 50 55 73 83 89 91 94 101 102 102 
149 147 148 147 146 145 142 144 142 140 142 138 136 135 137 133 129 123 116 98 76 72 74 119 145 153 151 148 155 154 156 154 152 157 158 154 152 152 149 158 153 147 141 143 146 154 158 154 155 158 155 159 158 156 159 157 156 148 140 141 147 134 110 88 47 16 7 6 17 32 45 48 63 76 87 86 101 100 101 107 
154 148 148 147 146 146 145 141 143 144 142 136 138 133 135 133 124 121 116 103 77 68 74 119 152 151 152 153 156 152 157 158 154 156 160 154 154 153 156 156 156 149 146 145 147 150 152 155 159 154 158 158 158 157 157 154 155 145 145 144 148 130 110 86 51 9 4 1 13 29 41 43 55 71 81 90 99 104 102 108 
152 149 145 147 150 145 140 144 144 144 145 135 137 139 137 135 118 122 115 99 76 72 88 123 150 154 149 151 156 154 157 153 158 158 160 153 151 154 156 157 155 143 141 139 146 154 153 152 159 155 154 158 156 155 153 154 149 146 143 141 148 133 109 85 43 3 6 0 13 24 38 38 45 61 78 87 95 101 104 106 
148 148 144 146 148 140 142 141 143 141 141 140 137 139 138 138 124 116 112 101 70 69 88 130 150 150 151 148 154 153 152 153 152 153 154 155 152 153 154 154 152 143 138 135 143 150 156 157 154 159 157 160 158 154 157 155 153 145 144 144 146 133 105 93 42 10 6 0 14 25 29 33 40 57 75 87 95 94 96 93 
148 149 147 144 146 142 145 147 151 147 143 144 146 147 147 139 125 125 120 102 74 68 84 131 151 151 149 148 152 148 153 149 154 152 154 150 153 152 154 152 147 144 145 141 139 150 160 154 157 158 154 161 159 158 158 158 155 152 144 143 147 130 103 92 41 10 6 3 15 26 35 28 42 59 73 81 93 97 94 98 
155 149 148 147 150 147 146 151 153 151 149 146 142 143 146 142 134 130 121 109 75 59 84 130 149 152 147 147 152 152 156 153 152 152 157 153 151 154 155 153 150 145 144 145 146 151 155 153 161 158 160 163 163 161 161 158 160 154 153 144 150 135 105 90 39 10 9 6 12 16 22 24 43 56 75 81 90 93 90 92 
150 147 150 147 150 154 146 156 152 150 149 146 144 147 144 136 130 133 125 114 81 68 88 139 149 151 151 151 153 151 150 150 153 154 156 151 151 152 152 154 156 151 148 151 147 149 150 150 159 160 157 161 168 158 157 159 159 156 150 148 149 136 113 93 45 10 14 1 4 13 21 24 40 58 71 79 89 95 90 93 
156 153 148 152 149 150 150 156 150 154 150 151 148 142 138 141 129 131 123 116 77 68 93 139 150 154 146 147 153 150 154 152 150 151 154 150 150 149 153 151 152 150 149 149 145 146 152 152 159 157 156 161 158 156 156 154 156 151 146 149 151 136 110 90 41 10 9 6 0 7 30 31 47 59 71 74 81 85 82 94 
158 154 152 154 153 154 153 156 156 151 153 148 144 146 141 137 131 129 123 114 80 67 98 134 150 149 148 148 150 148 153 151 150 151 157 154 155 150 151 149 152 144 143 141 134 137 141 150 159 156 156 157 159 161 159 155 152 150 144 149 150 135 112 93 42 10 10 3 0 8 28 35 49 56 68 74 78 85 82 86 
160 156 157 158 158 158 158 155 154 152 153 146 145 146 142 139 129 128 123 115 82 66 97 139 147 148 146 145 151 149 150 152 149 152 154 148 147 149 149 150 150 137 138 135 126 134 142 149 156 156 153 158 158 156 160 157 158 150 144 144 151 132 112 97 46 9 11 2 1 14 22 32 52 60 70 70 75 76 82 88 
159 158 154 157 158 156 153 158 150 148 151 142 140 141 142 136 128 127 124 116 89 68 100 136 146 148 148 145 149 150 152 150 148 151 152 149 147 148 147 149 147 142 140 136 131 139 146 148 156 159 159 160 157 161 159 156 155 150 146 151 147 131 108 99 45 11 8 3 3 15 26 24 45 61 65 75 78 74 80 77 
159 155 152 161 156 153 149 152 149 143 141 136 142 134 130 125 117 118 120 115 84 70 100 135 148 149 148 147 149 152 153 152 147 150 151 148 148 146 148 147 144 140 139 130 131 141 143 148 158 157 155 158 158 155 154 157 152 149 143 146 147 131 111 97 44 11 7 6 8 12 16 26 51 54 65 66 80 78 76 76 
156 155 155 155 152 154 153 153 154 144 143 133 133 135 129 125 116 117 121 111 94 77 111 136 148 145 145 145 146 149 150 152 149 151 153 145 148 146 145 147 145 135 130 124 120 138 134 148 157 160 155 155 155 155 161 157 154 153 144 151 149 129 112 97 47 13 9 7 9 18 29 26 42 54 65 68 73 76 75 74 
155 156 155 156 151 154 150 155 149 143 139 131 129 127 124 120 110 111 108 111 93 86 113 143 143 145 146 143 147 147 151 149 148 151 150 143 142 144 142 145 143 136 129 119 115 124 141 145 155 157 153 154 151 154 158 155 155 156 152 144 145 127 115 99 39 8 12 9 7 21 27 24 36 50 59 66 73 72 71 71 
154 157 157 155 155 151 151 154 152 132 135 129 120 126 123 118 112 112 111 110 96 90 122 136 141 145 143 145 144 146 148 151 146 146 148 142 141 139 141 143 141 137 128 118 115 126 137 149 155 150 150 154 156 156 156 158 156 149 147 149 142 124 108 92 37 16 9 11 4 15 22 23 36 45 56 66 68 67 66 69 
157 157 155 156 155 151 153 152 148 136 137 127 127 125 123 120 108 112 112 107 105 86 122 138 144 145 143 146 143 146 149 148 148 149 147 142 140 139 139 140 144 134 125 120 112 131 137 146 154 153 153 156 157 155 161 157 157 143 148 147 137 123 113 96 35 14 8 2 1 16 23 21 40 51 58 64 66 68 71 75 
158 157 154 158 154 152 152 153 148 136 138 129 128 127 121 120 112 113 115 115 103 87 126 139 142 147 145 142 144 145 146 150 151 149 147 143 140 141 142 136 125 113 118 117 114 122 130 140 148 151 154 150 156 162 161 155 153 155 147 145 138 116 111 90 37 12 10 2 5 15 22 23 32 48 57 69 69 70 68 74 
160 160 159 158 155 152 152 153 150 142 145 138 137 135 133 126 122 120 120 115 110 91 129 143 146 144 147 143 149 150 146 150 145 149 150 145 144 141 141 142 126 110 109 110 111 118 118 134 149 157 151 156 159 157 159 154 155 151 152 146 135 116 111 92 36 12 5 0 2 21 23 21 38 52 57 69 62 68 73 81 
159 160 160 160 154 157 151 152 148 145 142 139 135 133 133 133 122 123 113 112 106 99 136 139 143 143 146 143 147 147 147 149 147 146 149 142 140 139 140 136 129 111 108 104 104 108 122 141 151 151 151 158 153 156 158 157 154 150 149 146 138 115 110 92 35 9 10 2 6 16 26 24 36 52 61 65 70 72 82 92 
157 158 158 156 154 154 151 149 149 146 147 139 137 137 132 127 121 121 114 109 107 100 136 144 147 144 142 146 148 150 154 149 148 145 144 144 141 140 138 138 123 117 112 107 107 114 126 131 145 153 153 156 154 154 157 155 152 148 148 145 138 115 109 93 36 11 9 4 6 18 22 27 36 52 65 73 74 87 92 100 
157 156 153 155 155 153 152 153 149 145 142 142 143 138 129 124 118 113 107 110 104 99 135 143 143 144 144 144 147 148 150 147 146 145 146 137 138 141 137 135 122 115 111 110 107 110 125 131 147 151 155 152 154 155 155 155 151 146 146 142 129 112 109 90 35 12 3 0 6 20 25 26 40 50 61 71 77 88 90 93 
157 152 157 158 154 154 152 153 152 145 146 137 135 138 133 127 116 113 107 112 108 103 136 144 140 146 141 145 149 146 150 149 145 144 147 136 135 136 135 135 126 121 123 122 113 114 133 131 148 155 151 150 154 155 150 151 151 151 148 140 126 110 109 88 31 17 2 2 4 16 24 26 39 49 61 74 84 88 88 96 
159 153 156 156 154 154 151 156 153 148 143 134 134 134 127 130 120 113 112 107 109 105 139 136 143 143 143 144 146 141 149 146 144 145 142 136 134 139 139 133 135 122 123 119 115 128 128 135 148 155 151 153 154 152 157 149 149 152 148 146 122 113 105 89 33 10 10 0 0 17 21 25 36 50 64 79 83 88 86 92 
155 153 153 155 153 154 150 153 151 148 139 131 132 132 126 127 121 115 110 112 107 108 136 145 140 144 144 146 144 143 148 146 144 146 140 135 131 132 135 133 128 115 113 114 108 123 126 135 151 151 153 154 153 150 154 150 149 148 143 140 122 111 105 78 32 10 9 2 2 15 25 23 41 52 70 79 82 88 89 89 
155 152 156 149 148 149 150 149 151 150 135 131 128 129 131 128 124 118 114 110 111 114 137 143 145 145 141 146 147 143 145 143 143 145 140 130 132 131 137 129 118 121 117 114 112 122 125 137 147 151 149 151 153 159 155 150 150 146 145 134 117 112 107 83 29 18 10 6 3 17 19 26 38 56 74 83 87 84 90 88 
156 153 147 150 153 151 148 151 145 144 133 127 130 128 125 126 123 117 113 110 109 113 145 144 142 147 143 142 144 142 143 143 143 140 137 133 130 133 134 129 121 121 123 122 118 129 133 137 149 150 148 153 157 151 154 153 150 143 143 127 116 107 103 78 28 14 11 5 7 11 20 24 41 57 75 81 91 85 87 89 
156 156 155 150 153 150 144 152 149 146 131 129 130 127 129 124 124 118 114 114 109 118 144 143 144 143 144 145 142 144 146 145 142 143 136 125 124 132 135 126 123 120 126 126 119 124 132 135 146 148 146 152 152 150 148 152 145 143 142 131 114 105 105 75 25 17 16 9 8 19 22 25 47 59 79 84 91 92 93 86 
151 156 154 152 152 152 145 151 147 143 132 127 126 126 125 124 126 120 111 114 109 119 143 145 142 145 142 144 146 143 143 143 143 144 138 127 123 128 134 131 121 116 116 120 117 124 125 131 143 149 144 151 150 151 153 148 150 142 147 122 112 102 100 72 23 17 16 12 9 18 26 25 43 61 82 88 93 89 84 89 
152 158 155 152 153 150 146 152 150 146 132 129 130 127 125 128 122 117 112 112 108 117 142 144 145 142 142 144 146 145 143 145 144 144 137 126 127 131 132 128 126 125 115 116 115 129 129 134 142 144 149 151 151 150 150 148 149 146 142 117 110 105 96 64 22 16 22 16 11 20 27 30 50 66 82 93 94 85 82 89 
152 155 152 150 153 147 147 149 147 144 131 125 133 126 127 128 122 121 113 108 110 119 143 144 149 141 142 145 145 144 144 142 142 143 135 129 131 133 133 126 127 126 125 120 117 127 127 135 152 151 149 152 153 151 152 150 150 146 137 117 103 100 94 62 21 23 22 16 17 23 32 33 51 67 86 89 91 91 91 88 
154 150 150 151 152 150 147 149 148 143 136 129 128 123 121 129 123 118 112 112 107 116 144 139 142 145 145 145 143 144 148 147 143 140 133 124 133 132 130 124 109 113 114 126 116 111 117 129 144 146 144 149 151 152 147 149 151 144 137 109 104 102 88 56 20 25 22 16 24 27 34 37 52 70 90 94 91 83 90 94 
154 157 151 152 151 150 149 152 151 146 136 125 126 121 123 125 122 120 112 107 109 117 140 144 147 143 142 144 145 145 148 143 142 140 132 126 131 130 129 118 106 99 101 106 107 111 120 135 142 146 146 146 149 149 147 147 150 142 134 110 102 98 89 52 23 27 28 31 26 32 38 37 53 66 84 94 95 93 89 95 
153 154 153 153 151 148 147 150 149 141 135 129 126 124 123 125 122 120 112 109 110 118 141 145 145 144 145 146 143 146 145 146 145 141 135 122 130 131 129 117 105 101 100 104 107 121 118 133 139 142 141 147 151 151 148 145 149 143 132 112 100 97 89 51 27 26 36 30 26 35 38 43 57 63 72 84 93 97 99 93 
155 152 154 149 151 147 148 149 149 143 139 132 126 124 118 126 123 126 113 112 107 118 145 142 144 142 141 141 145 143 146 146 143 138 133 118 128 129 126 113 99 99 99 101 111 123 127 132 142 148 142 143 147 147 149 145 148 146 128 108 100 97 83 52 28 31 33 30 29 31 40 45 56 64 69 74 82 93 93 93 
154 154 153 149 150 146 147 148 146 143 135 124 125 120 118 122 125 120 112 110 109 116 140 143 144 145 141 144 145 144 145 143 142 144 129 116 127 127 126 115 99 101 96 101 117 112 121 132 141 145 139 145 148 148 145 145 147 150 124 105 100 96 82 41 28 23 35 35 35 34 47 44 55 64 69 71 81 91 86 93 
156 154 153 151 150 149 147 153 149 144 134 128 125 123 123 121 126 117 114 108 108 119 141 144 141 142 144 144 147 144 146 146 141 140 128 117 128 125 126 115 93 93 94 108 112 122 122 135 143 144 141 139 145 147 146 145 145 141 122 101 101 92 78 41 24 27 37 39 36 39 40 45 57 66 70 78 86 87 88 88 
154 154 154 153 152 150 149 152 148 145 136 127 126 123 130 125 126 120 108 110 107 117 141 138 141 141 142 143 144 144 146 144 142 141 127 115 129 123 126 111 98 87 95 106 112 125 132 133 146 143 146 138 142 148 145 144 141 139 117 98 100 88 79 39 27 30 37 36 40 38 40 48 58 64 71 78 85 86 88 85 
154 152 156 150 150 146 148 148 147 142 141 125 121 126 125 123 123 118 111 109 105 120 138 139 143 141 142 140 140 142 143 143 140 142 124 109 127 126 125 107 97 97 102 105 116 125 133 138 143 144 141 143 146 147 151 149 146 137 110 100 98 95 80 38 26 25 40 37 38 38 46 43 56 64 72 81 82 87 89 85 
152 154 153 149 151 148 147 151 148 143 137 128 122 128 127 124 123 119 112 107 110 119 145 143 143 139 141 143 141 142 144 146 144 141 123 107 124 122 124 108 110 109 97 115 122 129 130 138 147 143 141 145 148 146 151 142 142 138 110 99 97 94 79 36 26 30 42 41 37 38 41 47 55 68 75 78 81 85 87 92 
154 154 151 148 150 147 145 153 147 141 136 127 125 127 128 124 121 115 109 113 108 120 139 142 145 144 148 143 143 140 144 144 144 136 118 111 126 122 122 111 102 97 108 122 118 121 129 138 145 141 142 148 150 145 145 145 142 131 106 94 95 89 72 32 28 30 43 41 35 37 43 49 58 67 73 76 82 81 95 91 
150 155 150 150 148 148 143 150 143 133 132 123 121 123 128 125 127 116 108 111 104 117 139 140 141 142 144 141 141 140 140 144 139 144 113 107 128 122 118 110 111 107 116 120 111 92 104 142 146 144 144 142 144 147 145 141 144 129 97 89 93 93 69 33 26 27 41 40 33 37 40 43 58 61 71 74 79 85 85 91 
152 154 153 144 146 147 147 146 142 141 132 123 123 125 127 125 120 113 110 110 111 116 137 139 142 142 144 140 143 142 142 144 143 139 119 110 126 116 120 110 109 108 117 113 95 73 106 134 143 141 144 144 140 145 145 143 139 124 96 86 92 92 68 29 27 32 42 40 36 42 43 46 57 61 66 80 76 84 85 87 
153 153 147 146 148 149 142 146 147 142 138 129 128 131 129 128 120 113 108 111 110 114 138 142 142 144 142 141 145 139 146 143 143 139 111 105 126 114 115 104 91 86 95 85 69 76 109 134 135 140 141 143 142 143 144 139 138 119 94 94 88 88 63 29 26 30 44 44 39 42 46 43 56 59 73 77 85 83 83 84 
154 150 149 146 147 146 147 145 148 144 138 132 132 131 132 126 123 120 112 113 112 112 141 139 143 141 138 139 142 143 145 146 140 140 112 106 124 122 116 102 61 49 57 63 63 63 85 105 115 125 131 140 143 140 135 136 135 117 89 93 88 87 56 29 27 35 44 47 43 48 47 46 55 66 71 77 80 78 82 85 
150 150 147 146 145 143 146 146 146 138 134 124 124 122 128 126 125 117 117 114 108 110 136 135 140 142 142 139 142 144 144 143 139 135 113 107 122 118 113 101 58 42 47 52 55 61 61 68 79 93 95 124 138 134 119 112 122 100 88 87 91 84 49 27 29 39 44 41 44 46 52 44 56 64 70 78 76 75 80 85 
151 148 146 147 146 145 143 147 141 137 132 123 126 123 125 123 120 116 116 112 111 107 139 140 144 142 143 142 143 145 144 141 142 138 115 107 122 109 111 102 61 43 45 48 48 53 61 63 64 70 81 100 118 112 92 77 87 89 83 80 86 82 46 20 17 36 46 44 44 46 52 44 56 65 76 73 79 77 76 82 
151 151 141 143 146 144 142 146 141 139 135 123 122 117 126 122 120 114 114 110 107 109 138 143 141 142 142 143 144 143 145 143 142 136 113 103 121 116 113 104 63 40 44 43 49 54 59 59 63 70 73 75 79 85 78 73 70 70 81 79 83 81 34 18 19 27 42 45 45 46 53 50 58 62 75 83 76 81 79 74 
146 148 144 144 145 140 141 147 142 138 130 123 121 124 123 124 123 117 113 112 110 114 139 141 141 140 136 141 144 142 140 141 137 133 107 102 111 120 111 101 62 32 36 39 44 47 52 55 58 65 70 72 70 76 68 64 63 75 86 81 82 72 32 8 9 22 38 38 37 46 56 51 58 67 73 75 76 76 75 73 
147 151 144 146 146 141 142 143 143 138 128 123 125 120 127 125 122 117 116 109 106 116 137 139 140 139 138 141 142 141 142 141 138 133 102 100 112 115 112 100 62 29 34 36 37 43 43 47 53 60 62 65 66 70 69 60 62 80 75 81 81 64 22 10 6 23 35 33 40 45 56 53 57 64 69 77 71 72 69 68 
153 148 144 146 144 141 138 144 140 137 126 118 117 119 121 122 123 119 108 106 110 119 137 138 140 142 140 140 138 141 144 138 139 132 103 95 109 111 110 97 63 31 30 34 35 35 38 42 47 53 55 60 62 67 63 60 64 74 72 75 78 59 18 4 3 9 22 34 41 47 51 53 59 67 73 71 73 72 64 57 
146 149 146 147 144 144 142 142 141 136 132 119 120 123 123 126 120 121 113 111 112 116 138 136 139 141 138 141 143 142 140 140 136 132 102 97 113 111 105 95 66 27 25 27 28 32 32 34 42 48 51 55 57 60 63 57 62 72 72 76 67 51 6 5 3 17 25 36 40 51 51 53 58 62 69 74 72 64 57 58 
147 141 142 142 153 143 143 138 138 137 129 120 116 119 123 127 125 118 115 111 111 119 138 142 140 138 139 142 142 141 142 142 138 130 96 93 111 108 107 95 67 24 24 25 21 20 27 27 38 40 46 46 46 53 56 55 56 75 74 75 62 41 7 1 9 24 36 40 45 51 56 51 66 65 73 75 68 61 54 65 
146 147 143 145 152 143 139 137 142 137 133 119 117 120 122 124 121 122 112 112 108 116 137 135 140 136 136 140 141 141 141 142 136 127 92 88 110 105 104 95 68 30 23 23 22 21 26 28 30 34 34 37 41 49 50 51 62 66 70 65 65 31 1 2 20 31 41 42 48 53 60 59 61 66 72 66 70 64 57 59 
147 145 139 144 145 140 138 143 141 139 138 115 114 121 123 120 119 112 115 112 108 113 138 136 139 136 143 139 141 139 141 141 134 129 92 78 107 101 103 91 64 34 22 28 21 27 24 30 34 35 38 37 39 45 40 41 60 65 64 63 58 31 5 5 22 36 41 48 46 55 59 52 58 67 70 66 63 59 63 62 
146 141 143 140 142 138 139 138 145 138 137 114 116 116 121 123 120 121 109 113 108 110 136 133 139 140 140 138 136 138 138 138 136 125 77 70 102 102 96 89 66 30 22 25 26 25 30 34 36 38 41 45 50 45 42 43 56 61 57 53 50 25 1 5 23 34 43 50 46 56 60 49 55 61 59 65 58 54 61 60 
142 144 140 140 140 138 139 142 138 139 137 120 127 117 120 122 120 120 113 115 111 112 131 133 137 135 136 137 137 138 141 138 135 122 78 74 105 99 97 91 68 29 21 19 20 24 31 32 37 40 40 46 49 53 57 53 55 51 56 50 41 13 0 7 20 35 41 51 48 53 55 48 53 55 63 61 55 57 53 53 
147 143 142 139 140 135 138 142 138 137 140 124 119 121 120 121 120 120 112 111 108 109 130 133 134 140 135 139 137 136 136 141 138 120 78 71 103 101 96 87 66 31 17 17 18 23 28 32 31 34 34 38 43 50 45 45 51 52 48 45 46 17 5 11 28 38 43 50 53 54 50 48 55 47 50 56 52 49 47 50 
148 143 139 142 141 139 139 140 141 139 138 122 120 122 123 122 119 122 118 115 110 111 126 138 137 133 131 134 142 136 138 136 135 123 75 68 105 102 99 90 68 30 19 19 15 18 23 26 28 30 34 32 37 42 38 39 39 44 42 42 51 22 14 17 24 39 41 47 51 56 59 46 48 52 50 45 49 47 46 42 
145 145 138 143 141 136 136 140 137 137 138 130 122 122 125 122 123 121 110 114 110 111 129 134 136 136 137 136 136 137 138 138 129 117 71 67 102 98 95 85 68 39 26 22 15 19 23 21 27 29 30 30 37 38 31 35 33 33 37 33 35 36 26 21 29 35 44 50 53 58 61 49 57 58 55 52 49 51 48 49 


