P2
80 60
136
121 122 118 127 122 125 118 119 126 130 123 120 121 120 117 121 118 117 117 115 118 121 119 116 116 117 115 118 112 115 119 117 124 117 118 116 120 119 120 118 120 120 123 123 118 117 116 120 120 118 115 115 116 119 118 117 115 121 125 120 117 119 120 112 113 111 108 113 112 111 111 107 112 111 115 117 117 111 109 113 
126 122 124 125 127 124 120 119 122 124 121 120 121 122 120 122 121 117 117 118 119 118 122 117 113 118 114 120 116 117 121 117 120 122 118 114 120 117 118 114 121 120 119 123 118 117 116 117 116 120 114 117 115 122 114 114 119 122 123 119 116 118 114 112 110 111 112 110 113 110 108 105 111 108 113 114 119 116 107 111 
122 122 120 125 123 124 120 120 118 123 122 123 124 118 123 124 117 116 116 113 116 116 121 115 114 120 116 119 116 120 117 120 119 117 119 120 121 115 119 117 116 121 122 118 116 113 114 116 115 116 118 113 113 119 112 111 114 120 120 119 115 115 110 113 112 112 108 108 111 109 109 110 111 108 108 117 108 112 108 112 
126 123 117 127 126 123 123 120 118 126 124 121 125 113 117 120 119 116 117 117 118 120 117 119 119 120 119 121 117 120 123 117 121 116 122 119 120 117 117 113 124 119 124 120 116 114 113 115 117 116 117 117 115 118 118 112 114 117 119 120 113 116 112 114 111 111 109 111 110 113 113 114 112 111 111 112 121 114 110 114 
129 122 122 126 124 126 119 120 121 127 122 119 117 120 117 120 117 116 117 117 121 118 117 119 119 117 119 119 115 120 120 118 118 114 117 120 123 117 121 118 117 119 118 120 119 120 116 117 114 116 117 115 114 124 114 114 114 119 121 117 115 115 114 116 113 112 111 111 109 115 112 109 110 110 112 113 111 113 109 118 
125 120 122 127 124 124 122 121 119 122 121 121 119 119 117 118 120 119 118 116 119 123 118 116 117 118 117 122 116 117 117 117 116 113 115 115 115 116 116 115 117 120 120 118 115 118 121 118 117 118 117 117 116 118 117 114 116 119 119 119 118 115 114 115 113 110 108 116 116 112 111 106 108 109 111 112 111 112 106 115 
125 122 124 124 124 126 123 124 126 119 122 124 117 119 119 122 121 118 119 116 120 117 118 116 119 117 115 119 111 116 119 116 114 116 116 118 118 117 118 118 121 119 117 115 116 115 114 115 117 112 113 119 116 122 116 115 121 121 120 119 119 115 113 114 109 109 110 114 113 111 108 111 108 112 110 112 112 108 111 115 
127 122 122 123 127 124 122 121 120 119 119 118 119 120 117 119 121 121 121 120 122 118 114 117 116 120 117 117 116 117 114 111 118 116 117 119 117 115 120 119 120 116 117 119 114 115 115 113 114 113 116 116 117 118 113 116 119 123 120 117 113 113 113 113 111 111 113 112 110 109 107 109 109 108 113 109 107 104 104 115 
132 127 125 126 125 122 126 121 117 124 120 117 119 116 116 120 118 121 119 119 119 117 115 116 120 116 118 117 115 116 118 117 113 114 116 116 117 115 117 119 119 118 118 117 115 110 114 112 113 113 115 117 113 122 116 116 118 115 118 118 115 113 113 115 111 112 111 108 111 109 112 109 107 108 107 112 109 110 106 108 
128 127 123 126 128 123 125 121 121 122 119 120 120 115 118 119 123 118 119 116 117 120 115 117 120 117 116 117 115 117 111 116 115 111 114 116 117 115 115 116 119 122 116 117 113 111 110 114 113 113 112 115 114 116 116 111 115 115 116 115 112 115 112 111 110 112 109 108 111 108 109 108 109 107 106 111 108 106 102 112 
129 125 121 131 131 125 125 121 122 124 118 122 122 118 117 119 118 119 119 119 116 115 115 117 118 121 117 116 116 114 114 119 116 114 113 115 114 115 117 119 121 116 117 110 112 112 113 112 111 114 116 113 116 117 112 112 113 116 115 115 115 113 111 109 110 108 110 111 114 110 105 108 111 109 110 108 108 109 107 108 
131 129 126 130 128 125 120 121 122 123 120 115 124 117 119 120 118 118 119 115 116 118 116 115 117 118 116 118 114 116 116 115 117 116 114 115 115 116 117 115 121 115 111 113 113 115 113 113 110 115 116 114 112 116 111 111 113 121 114 114 112 114 115 110 110 110 108 109 108 104 105 107 104 108 111 109 110 111 108 109 
131 129 122 132 129 126 122 121 120 119 119 118 117 115 118 118 116 119 114 114 113 115 116 114 116 118 115 118 112 117 115 115 116 116 115 116 112 113 119 114 120 114 114 113 117 118 119 118 115 115 117 117 113 111 114 110 114 114 117 112 110 114 116 110 109 106 109 107 109 108 95 106 104 111 108 109 112 114 107 110 
123 125 130 132 126 126 121 118 119 119 119 118 112 116 114 119 113 116 116 108 119 116 114 113 115 115 116 113 111 117 113 117 117 115 115 112 112 115 116 115 117 116 117 117 113 120 120 118 119 125 117 116 112 114 113 113 117 115 116 114 114 114 113 109 107 108 109 110 109 106 104 107 107 110 106 107 108 112 111 107 
126 127 127 132 128 121 119 119 118 123 122 117 116 108 112 113 115 115 114 109 113 115 114 115 113 116 113 116 114 113 116 115 117 112 113 113 113 113 115 116 114 118 117 118 116 117 119 117 117 120 118 118 114 118 115 115 121 132 119 119 113 111 111 110 105 109 108 109 111 108 108 108 107 108 103 107 104 109 107 110 
130 125 124 125 125 122 118 120 119 120 117 117 116 115 113 114 114 119 117 111 113 115 113 117 113 116 114 114 114 113 116 115 116 112 112 112 114 111 112 113 117 115 114 116 115 115 118 116 119 115 115 111 114 115 118 115 120 119 120 119 113 112 114 111 110 103 109 115 110 109 105 109 107 109 106 105 107 110 109 110 
128 127 127 124 124 120 118 116 114 115 114 114 116 115 119 116 115 115 117 109 114 113 115 115 115 118 112 117 115 117 117 114 117 116 114 111 113 113 116 117 114 113 113 115 114 124 119 119 115 117 113 113 114 114 115 114 117 118 120 111 111 113 110 110 107 107 109 110 111 108 109 107 111 109 107 105 103 109 110 110 
128 127 124 129 126 121 121 117 117 115 118 119 116 113 114 117 113 115 114 115 114 115 114 117 114 114 118 118 118 117 113 115 120 114 112 113 113 113 116 115 113 115 112 118 118 119 118 117 117 115 115 114 118 115 116 113 116 124 120 116 109 113 114 108 111 108 107 112 112 109 110 105 108 109 111 104 106 108 107 108 
127 128 128 128 126 124 118 117 117 120 118 115 116 112 116 115 109 116 118 112 115 113 115 118 114 114 115 117 115 113 114 115 119 114 116 113 114 113 116 114 114 114 114 118 116 118 116 118 119 114 116 112 116 115 114 113 117 117 116 114 110 114 113 111 110 112 111 111 109 111 107 107 108 105 104 103 109 109 105 107 
127 128 124 122 122 129 121 119 122 119 122 118 116 113 114 114 112 115 115 115 115 117 118 117 118 118 116 112 112 117 118 115 113 113 114 114 113 115 114 112 117 114 114 115 109 115 118 117 117 115 114 117 114 113 114 109 112 113 114 111 109 112 113 114 110 109 109 109 113 108 108 108 105 107 102 104 110 107 108 111 
124 125 123 123 122 122 120 114 116 119 119 117 122 115 114 116 114 118 114 108 113 115 115 116 117 116 114 114 112 116 121 116 115 110 112 113 113 114 114 112 117 117 113 112 114 112 118 114 116 113 114 114 112 114 112 110 110 114 115 110 107 113 112 109 110 109 110 108 109 111 114 107 106 104 108 102 107 108 105 108 
126 129 122 122 122 118 119 116 116 119 116 119 124 115 119 112 115 116 111 113 116 116 117 115 116 115 115 113 110 113 116 119 114 113 112 111 114 111 112 117 115 116 110 110 111 115 116 117 113 115 115 112 112 112 111 109 111 117 118 112 109 108 105 111 110 108 111 108 108 109 108 105 108 106 104 105 106 106 107 112 
124 128 124 130 124 120 117 119 117 120 120 120 119 115 116 118 111 116 114 111 114 113 110 110 116 116 113 113 111 112 112 114 116 113 111 113 112 110 111 117 117 110 112 111 112 111 117 116 115 114 115 112 110 109 111 108 109 112 112 115 113 109 109 111 110 111 111 109 108 108 105 111 108 104 103 107 103 106 104 105 
124 124 121 124 123 122 118 123 119 116 119 117 122 114 113 115 116 114 116 111 114 110 112 111 111 114 111 113 110 113 116 115 112 109 110 109 110 111 112 113 111 111 111 112 110 114 115 115 115 118 114 113 109 113 109 104 110 114 114 112 110 109 108 111 108 112 111 110 107 108 108 106 105 103 106 106 105 107 101 110 
127 125 122 124 121 122 123 121 122 122 118 118 123 115 115 114 113 114 116 114 115 113 112 112 115 112 115 112 111 112 111 112 112 108 111 110 109 116 115 110 106 109 114 114 114 114 114 115 117 116 112 112 106 110 111 108 112 116 111 114 106 110 108 113 111 111 111 109 110 108 107 105 104 109 108 105 107 108 107 108 
127 123 121 123 121 119 122 116 119 121 118 118 124 115 116 116 114 115 117 112 113 117 114 117 117 113 115 112 107 111 112 112 112 109 108 110 114 112 112 114 108 113 114 114 114 115 116 118 114 111 111 111 109 111 109 105 111 114 119 113 109 107 109 113 113 109 108 110 109 110 108 107 104 107 104 105 105 107 108 112 
126 122 120 123 125 120 122 116 119 121 119 122 122 115 113 115 112 116 116 111 115 113 118 114 116 114 115 114 111 110 112 112 115 108 111 108 112 110 110 111 111 109 110 110 111 117 114 114 112 111 113 111 107 110 107 108 110 110 113 111 109 107 106 108 108 108 106 109 106 110 107 107 105 106 104 104 107 107 105 108 
127 121 124 127 124 121 120 120 117 121 117 117 121 117 113 114 114 115 113 111 115 113 113 114 116 113 111 113 110 110 112 112 109 107 109 108 112 111 113 113 111 112 112 112 111 115 114 114 111 112 108 112 108 109 107 105 110 112 108 110 109 110 108 107 109 107 108 106 107 107 107 107 107 107 104 105 103 109 104 107 
127 126 123 127 124 118 119 120 120 119 118 119 123 119 114 112 112 113 114 112 112 111 114 112 114 113 112 114 114 112 111 111 111 108 110 110 109 111 115 113 112 108 113 115 112 111 110 113 111 114 114 101 105 110 109 103 107 112 108 107 107 110 107 113 108 108 107 105 106 108 107 110 104 104 106 106 105 108 101 104 
136 128 124 121 121 124 116 117 120 120 120 121 124 116 115 115 113 111 115 112 112 115 113 118 111 113 114 110 112 112 109 115 111 112 112 112 112 115 111 106 112 115 113 115 111 109 112 109 113 111 113 111 110 108 106 103 107 112 109 109 111 109 111 112 112 108 104 108 107 107 108 108 110 104 104 107 103 107 103 104 
130 125 123 119 116 116 118 118 115 119 123 119 121 115 113 115 117 112 112 108 113 113 112 116 114 113 112 110 107 113 110 110 110 109 110 110 111 107 110 111 111 114 115 111 110 109 110 112 111 112 111 108 106 109 108 106 106 110 108 108 107 108 111 110 114 111 109 109 106 105 103 106 105 109 104 102 104 106 105 105 
124 130 120 119 116 117 116 113 113 116 118 115 117 115 115 117 118 119 114 108 109 110 113 115 110 114 118 112 109 111 113 112 109 109 110 109 110 111 112 111 118 116 114 113 112 109 114 110 109 115 112 110 108 109 108 105 105 108 108 108 104 106 109 109 108 113 111 106 108 105 107 109 104 107 104 103 102 109 101 107 
128 125 123 118 117 120 117 115 110 117 119 120 122 112 112 117 113 118 115 109 113 114 114 114 115 114 113 117 109 115 112 110 108 109 107 107 106 109 109 114 116 113 113 111 113 110 110 111 114 111 111 108 105 108 109 107 104 111 109 108 105 106 108 105 109 110 107 109 108 109 108 106 108 106 103 105 106 102 106 102 
128 126 125 120 121 120 118 113 116 117 116 118 119 115 112 113 114 114 115 111 111 115 116 113 114 112 112 113 113 113 111 108 108 108 109 104 109 107 109 111 113 112 113 111 109 111 112 111 108 111 109 107 106 109 107 106 110 112 111 110 103 110 108 110 107 106 110 108 106 105 108 103 107 105 105 104 104 102 102 102 
123 121 120 124 118 117 114 117 115 116 117 116 117 114 112 112 114 117 114 109 111 112 110 114 114 114 112 115 112 116 111 112 112 107 108 108 111 110 109 112 107 115 113 112 111 113 111 111 109 107 110 110 111 105 108 102 107 106 109 107 103 109 108 109 106 102 106 106 106 105 107 109 103 103 108 107 105 102 100 100 
124 119 124 124 123 115 118 116 115 118 114 122 119 115 114 113 111 115 112 109 113 112 112 113 110 113 112 113 112 115 112 111 109 109 110 108 109 108 112 108 113 113 115 111 109 111 116 114 107 108 109 109 110 113 109 107 106 108 109 110 107 105 108 105 107 106 105 107 106 106 103 107 103 104 107 102 105 106 102 100 
123 120 123 124 121 119 116 115 114 115 115 114 121 116 113 112 113 115 115 110 109 110 111 111 112 111 109 111 110 111 111 110 112 108 108 107 107 108 109 116 114 110 111 110 108 112 113 111 110 107 107 108 108 110 108 106 106 108 109 104 104 106 106 105 105 108 104 103 106 102 103 101 102 102 101 101 101 102 98 103 
123 123 121 122 120 118 119 118 116 118 113 112 123 117 113 111 114 120 115 112 114 112 113 113 112 110 110 107 110 111 112 113 111 107 107 106 108 109 110 108 113 109 109 108 110 113 110 110 108 107 107 108 104 108 108 106 107 106 108 105 102 103 101 102 108 109 105 106 104 101 103 104 104 99 99 97 103 102 101 101 
123 121 124 124 125 124 120 116 119 115 118 116 120 113 112 116 112 113 117 114 113 114 111 114 111 110 107 111 106 108 109 109 111 110 107 107 113 108 114 111 110 111 112 109 111 111 113 111 108 108 105 109 105 108 109 104 106 105 104 99 102 105 103 104 106 105 106 108 104 101 103 99 102 102 96 98 96 102 100 102 
124 126 123 128 123 124 121 118 118 119 119 118 121 113 114 114 113 112 113 111 114 111 113 118 111 112 111 107 108 112 108 109 110 108 110 107 107 108 110 110 110 114 114 112 110 111 116 115 109 111 111 110 107 107 110 105 107 106 103 103 102 103 105 107 101 104 103 106 105 104 101 101 100 102 102 96 96 106 103 102 
126 121 119 126 122 120 117 116 116 116 116 119 117 120 113 112 111 113 111 112 112 115 112 117 113 113 108 110 107 111 110 108 114 109 109 109 107 108 110 106 107 109 111 107 109 113 116 114 111 108 111 115 109 108 110 105 101 107 103 105 104 103 103 102 102 101 101 102 98 102 99 101 104 99 100 100 100 104 105 96 
125 120 124 123 124 121 116 115 114 114 119 120 119 115 116 114 113 110 113 108 114 115 112 111 116 111 112 110 106 109 109 108 109 107 110 110 108 107 112 112 108 111 109 106 109 108 113 114 111 111 110 107 106 107 108 102 108 106 107 106 102 102 101 104 102 96 100 99 99 101 98 100 99 100 100 104 98 110 95 71 
125 122 119 122 123 121 115 115 114 115 119 118 122 114 114 115 110 113 114 108 112 114 116 115 113 112 109 111 110 110 109 108 110 107 108 112 108 107 110 112 110 110 106 107 108 110 115 111 111 103 111 106 106 108 108 103 104 106 102 105 104 102 106 107 103 103 101 103 98 99 99 98 102 100 101 100 101 99 92 52 
124 122 119 120 122 119 117 116 111 115 116 118 117 115 112 113 108 112 111 114 111 111 110 113 112 112 111 108 106 112 110 107 106 104 105 107 109 108 108 109 110 110 105 110 108 112 116 118 109 106 108 104 103 109 102 100 101 105 105 105 101 103 100 102 102 102 100 101 100 101 98 102 97 99 99 99 99 100 87 39 
123 120 116 123 119 114 116 112 113 114 114 114 119 112 114 109 113 113 112 110 114 109 110 113 114 111 106 108 109 111 108 108 109 104 106 106 107 109 109 111 110 108 109 107 113 113 114 113 111 104 105 102 104 102 99 97 99 101 101 102 97 101 101 101 99 102 98 98 100 98 96 99 99 97 94 98 100 98 87 31 
125 121 116 119 119 118 117 112 112 116 114 110 112 114 114 113 111 113 113 114 114 106 111 110 111 111 107 107 105 112 106 107 107 105 105 107 107 110 106 106 108 107 108 108 111 112 112 109 106 105 105 102 101 99 98 100 100 100 99 100 98 99 100 103 98 98 100 99 97 96 96 96 95 97 98 94 95 95 81 26 
119 119 115 118 118 117 116 113 113 114 114 112 115 114 110 112 112 111 111 106 110 108 111 109 108 111 109 106 106 107 105 105 106 107 104 106 107 105 105 105 106 106 107 107 109 114 110 109 104 103 103 105 100 98 96 98 96 100 100 99 96 98 98 94 97 99 95 99 93 96 94 96 97 96 96 93 93 92 78 22 
121 119 115 119 118 119 116 113 112 115 113 113 114 114 113 115 112 113 113 107 108 111 111 110 110 110 106 107 107 110 104 105 105 103 106 105 106 106 108 105 106 105 103 108 107 113 113 108 105 104 103 104 101 98 97 99 101 99 100 100 98 97 97 99 98 97 99 97 98 95 98 98 97 98 92 92 97 92 79 13 
120 117 116 116 119 119 117 114 115 115 113 112 115 110 113 113 111 114 110 109 113 112 114 113 109 109 107 106 107 107 106 105 104 103 103 104 106 105 107 105 103 105 102 107 106 111 109 107 102 102 104 104 100 101 101 99 100 99 99 97 96 96 97 99 98 92 95 96 98 94 94 95 93 91 91 91 93 88 72 6 
127 120 115 117 121 118 116 114 115 113 117 116 119 113 112 118 111 111 114 109 108 112 111 113 109 111 107 107 104 110 105 105 106 102 103 102 105 102 104 106 107 103 103 103 108 107 106 104 100 101 100 100 100 102 101 101 96 98 99 98 95 95 96 95 94 95 95 95 95 94 93 94 94 93 92 90 93 88 73 1 
123 115 117 120 119 119 118 113 113 117 113 116 115 114 113 111 112 113 114 108 109 109 110 110 108 107 106 105 104 108 103 103 104 104 104 106 106 103 108 103 103 104 106 106 106 108 108 107 99 98 99 97 101 103 101 99 98 102 97 102 97 96 96 96 93 94 94 89 96 92 91 92 91 93 94 92 91 88 68 0 
126 117 116 117 125 121 123 113 113 117 116 113 113 109 107 112 110 112 113 111 113 110 110 111 109 109 108 106 106 108 106 104 101 103 109 105 107 103 105 100 105 102 106 104 108 107 104 103 100 99 100 97 99 109 99 100 95 99 99 96 96 98 93 99 94 92 91 97 94 91 92 94 90 90 90 98 89 88 70 27 
124 117 121 120 124 123 119 111 117 116 119 116 114 109 107 110 111 114 114 108 111 110 107 110 111 109 106 109 106 107 105 107 105 104 103 104 105 105 107 103 108 103 100 105 105 105 101 102 101 101 102 101 102 103 102 99 99 100 102 98 95 93 96 94 96 94 91 94 97 91 93 90 90 90 91 96 88 86 82 63 
119 120 117 120 124 124 118 113 115 117 119 114 119 116 110 109 113 114 111 108 111 106 107 109 112 112 109 110 108 106 103 104 104 101 102 101 102 100 104 105 104 104 102 102 99 100 101 105 98 101 104 97 99 105 104 101 104 102 99 96 90 94 94 95 93 92 91 92 93 94 95 94 90 95 94 95 94 88 78 78 
124 120 117 122 120 120 117 115 112 115 115 113 113 118 111 114 109 110 109 107 108 105 107 107 109 112 112 110 104 106 101 102 104 101 104 103 103 101 101 102 104 103 104 102 98 96 96 102 93 98 101 99 101 103 100 96 100 102 96 98 95 93 93 96 92 91 93 89 90 91 93 87 87 94 92 94 89 86 81 80 
123 121 119 118 119 120 116 115 107 112 114 114 116 113 116 112 110 109 110 107 110 110 107 108 108 110 107 107 103 106 103 104 101 99 103 102 103 99 101 103 104 107 102 102 97 96 97 96 98 97 98 98 98 100 101 96 96 99 96 97 93 95 95 92 95 91 90 92 91 92 95 92 90 90 92 91 87 85 82 80 
122 123 119 119 118 117 115 112 110 114 116 117 120 116 113 110 110 112 112 111 108 110 111 106 107 107 102 105 104 105 107 98 103 98 102 101 101 100 102 102 108 104 105 99 101 96 95 98 99 100 98 98 95 97 98 95 96 98 97 98 93 92 94 92 92 90 92 91 91 91 91 91 91 90 93 96 90 85 82 78 
119 116 113 118 117 117 115 112 111 118 116 120 117 113 109 107 105 110 111 109 108 111 112 107 105 106 104 105 105 105 103 105 103 100 101 100 101 101 102 104 104 102 100 101 98 97 96 97 97 97 98 95 95 97 96 92 94 95 94 95 91 90 91 94 90 92 90 85 87 93 89 89 86 90 90 85 86 87 76 81 
124 116 115 119 119 117 113 114 111 117 118 116 117 111 108 107 109 112 109 106 109 110 109 107 108 107 103 104 105 103 102 100 105 103 101 102 104 102 103 102 102 101 103 101 94 94 95 101 98 101 101 98 96 97 100 93 94 91 92 98 89 92 91 92 94 89 89 87 84 89 86 91 95 88 84 88 84 84 75 87 
124 117 111 116 115 112 111 112 109 116 118 118 117 111 107 108 107 113 109 105 106 110 108 106 104 100 103 107 101 102 103 100 105 99 100 104 106 102 104 99 101 100 100 100 96 95 97 99 97 99 99 98 96 97 95 94 96 94 94 92 89 91 91 93 92 90 87 87 86 90 92 85 89 86 85 91 87 82 74 84 


