P2
80 60
47
32 31 33 32 34 32 31 29 35 35 36 31 35 33 35 33 33 32 27 36 35 33 31 33 35 34 34 34 33 33 35 35 36 33 33 33 34 33 35 33 34 33 36 36 33 35 34 36 33 33 33 38 35 33 32 36 35 32 32 31 25 30 31 27 26 25 23 24 29 28 29 30 28 31 34 32 34 32 31 34 
31 31 34 31 32 32 29 30 36 36 30 35 30 32 35 32 34 33 32 36 35 34 31 35 37 32 33 34 32 35 35 37 32 37 37 33 37 36 36 34 31 34 36 36 35 37 37 37 33 33 34 36 33 35 34 34 36 36 33 31 31 28 29 31 30 24 27 27 26 30 24 28 30 34 37 35 34 33 28 34 
32 35 36 32 32 31 35 31 31 37 37 36 36 33 33 33 33 33 28 34 37 34 34 31 33 34 33 31 35 35 38 38 37 37 35 33 36 37 37 32 33 36 33 36 39 34 38 35 33 34 33 36 30 33 27 32 35 31 32 29 29 31 30 29 27 26 24 32 31 28 34 28 31 34 33 32 33 33 26 34 
32 33 34 33 35 32 37 33 32 35 35 34 34 35 33 33 33 34 30 35 40 35 34 33 34 34 36 36 35 36 36 38 34 35 35 33 36 39 38 34 35 33 35 34 31 36 35 38 37 35 31 32 30 31 29 29 30 32 31 30 34 28 29 30 28 22 26 31 29 29 32 32 29 30 33 31 30 34 31 37 
35 29 36 32 36 34 32 34 34 35 37 32 35 34 32 34 32 31 33 40 36 33 36 37 33 35 39 35 34 35 32 34 32 35 31 33 35 36 40 36 33 35 35 35 37 35 39 39 32 33 28 33 32 30 31 32 28 28 31 30 30 31 30 33 30 29 27 31 30 30 31 30 28 29 35 29 33 32 30 40 
29 35 33 35 36 36 30 34 36 36 35 34 35 31 35 32 33 32 32 36 35 34 38 34 34 35 37 37 35 33 35 32 30 33 32 34 37 37 36 34 35 37 38 35 37 37 42 37 32 31 31 38 34 31 26 27 30 25 26 30 28 24 25 31 31 25 30 29 34 32 30 30 32 32 33 31 35 37 27 30 
37 38 38 34 35 35 35 31 34 37 37 34 32 35 34 35 37 34 31 35 34 36 35 33 35 35 35 36 34 32 34 35 31 36 36 35 38 39 37 37 34 34 35 36 37 37 36 36 31 32 31 33 32 29 26 25 29 29 29 24 30 26 29 30 31 30 28 32 29 32 31 27 29 32 33 34 35 37 29 30 
36 40 39 36 39 39 34 33 36 36 34 33 36 32 32 34 36 33 26 34 42 38 37 33 35 34 37 34 35 37 35 34 31 33 37 39 38 34 38 37 35 36 34 38 34 35 38 37 35 33 32 34 29 27 27 30 30 30 29 26 27 26 28 32 32 31 32 31 29 31 31 29 28 33 30 29 36 35 28 31 
35 39 38 36 36 37 38 34 33 40 34 34 37 35 31 30 35 37 33 38 38 34 33 34 37 34 35 34 35 32 35 32 33 35 37 38 38 33 35 35 33 31 36 37 33 32 36 32 34 29 31 36 34 29 28 29 32 32 30 36 32 27 33 31 31 32 30 32 28 28 25 28 29 34 31 27 34 32 30 36 
43 44 41 43 43 40 40 40 38 40 34 32 35 29 34 34 38 32 34 31 38 38 33 36 36 33 34 35 35 32 35 30 35 34 36 36 34 33 36 33 31 34 33 35 33 30 33 34 33 34 33 35 33 32 30 29 30 30 31 33 33 30 31 30 31 28 30 28 30 29 31 29 30 32 34 36 31 34 28 34 
45 46 42 42 39 43 44 40 43 41 37 36 37 31 34 35 36 30 38 35 37 36 36 34 35 34 32 35 37 33 33 34 32 34 33 33 34 33 32 34 37 32 34 32 31 33 32 34 34 34 33 32 33 31 32 30 31 27 31 32 33 31 32 30 31 30 31 27 25 28 29 25 28 31 32 29 32 34 30 31 
45 44 42 40 44 39 44 42 37 39 38 37 38 32 35 32 32 37 31 33 36 37 35 31 33 32 31 33 33 31 33 34 33 35 32 32 31 31 35 32 37 31 34 33 33 34 32 31 31 32 34 32 31 29 32 31 32 26 30 27 29 32 32 30 31 31 31 33 29 26 28 27 29 34 32 31 31 32 28 33 
39 41 42 42 43 39 37 36 39 38 37 36 33 35 37 32 33 32 29 32 35 33 30 36 33 32 33 32 35 34 35 35 33 36 34 30 31 31 38 35 36 31 33 35 37 34 36 32 34 35 32 33 28 30 30 34 33 28 26 30 26 25 33 30 30 30 30 29 28 31 20 26 23 30 31 29 27 31 31 32 
36 42 47 40 45 38 37 35 34 40 33 37 34 35 35 34 32 31 31 33 34 35 33 35 33 32 32 33 34 33 33 31 34 35 33 31 33 36 34 31 32 33 34 33 34 36 36 32 32 36 34 34 32 30 32 29 33 30 32 33 30 27 29 30 30 29 35 35 30 28 30 23 27 32 30 34 33 31 30 35 
38 38 43 39 38 34 36 35 37 36 31 36 35 34 36 32 32 33 30 30 34 32 34 37 31 32 31 33 31 32 36 33 34 34 31 32 36 33 34 32 36 32 32 33 33 32 35 34 31 34 30 35 27 30 30 34 34 36 35 33 30 27 31 30 31 29 32 33 32 28 28 29 27 30 31 27 30 35 24 36 
40 41 41 38 40 38 33 38 38 34 30 35 35 32 35 34 30 33 31 32 32 32 35 35 35 33 33 31 32 31 37 35 32 34 33 34 33 32 37 35 33 32 34 34 33 34 37 32 30 33 29 34 30 31 30 28 31 31 33 30 28 30 34 32 31 34 29 36 31 29 33 27 27 29 31 28 33 33 26 33 
39 45 45 37 36 37 34 33 36 35 33 34 36 33 35 32 31 33 32 33 33 32 31 34 35 35 34 33 32 33 31 38 34 35 31 35 33 34 34 33 33 33 32 33 31 39 32 31 32 31 28 34 28 28 25 27 22 30 28 30 26 30 29 32 30 28 30 31 31 30 30 30 32 32 31 26 30 32 28 33 
42 43 41 37 40 36 33 32 35 32 32 34 36 31 34 32 34 30 31 32 32 28 32 31 31 31 32 35 31 32 32 37 32 34 35 34 32 33 32 34 33 28 30 31 32 34 32 32 31 33 28 32 27 26 28 25 25 29 29 31 29 28 30 30 28 29 27 31 29 28 28 26 29 32 32 29 26 30 23 32 
39 41 41 41 40 37 39 36 31 34 31 35 38 35 36 32 33 33 32 35 35 30 32 36 32 34 30 31 33 32 35 34 31 33 36 34 34 35 34 33 35 32 33 36 31 32 31 29 36 30 31 33 31 27 26 22 24 22 24 27 28 27 29 31 29 26 27 28 28 27 27 30 26 30 27 27 25 33 25 30 
39 41 41 37 38 39 36 35 34 33 33 35 36 33 37 34 31 31 31 35 36 35 40 33 33 37 34 34 35 33 33 35 32 35 35 37 32 37 34 31 35 35 34 36 33 34 34 32 36 33 31 32 33 24 23 25 21 18 22 27 24 28 29 31 29 25 25 29 28 33 28 29 28 30 30 25 28 33 28 29 
35 37 40 35 35 38 35 34 33 36 34 37 33 34 34 30 32 32 30 36 34 34 35 35 35 35 34 33 33 35 43 37 34 30 34 30 34 34 33 33 35 32 33 31 31 32 30 30 33 31 29 33 30 23 26 22 22 15 22 27 30 26 30 28 30 22 25 30 27 28 25 29 28 28 29 25 25 27 24 26 
35 34 40 37 39 34 37 37 37 38 34 33 40 32 36 30 33 32 32 35 37 34 35 34 34 32 34 34 33 33 37 35 34 34 32 32 34 33 38 34 34 33 32 33 30 31 32 30 31 31 29 30 29 29 19 21 18 20 25 25 26 28 27 32 26 25 27 27 26 29 29 26 27 28 31 24 24 30 26 31 
38 39 42 39 37 38 34 37 32 38 35 34 35 34 33 35 34 30 31 34 33 33 29 32 34 35 32 34 33 31 33 35 33 29 33 31 34 35 35 36 32 28 31 29 33 30 31 30 31 32 28 37 30 25 22 18 17 19 23 24 29 24 30 30 28 24 30 26 27 26 28 27 27 25 25 28 28 30 25 30 
36 37 37 35 37 37 39 38 33 38 37 37 32 34 36 35 32 34 29 33 31 32 33 33 34 31 35 33 30 31 31 31 33 31 31 29 32 33 32 31 34 33 32 34 33 30 33 32 31 37 30 36 32 25 15 22 18 19 22 25 23 26 29 31 32 29 29 29 29 28 27 27 28 28 29 26 23 27 24 31 
35 37 38 37 39 38 35 35 38 36 38 37 33 32 37 33 33 32 30 32 31 30 31 32 34 32 31 32 30 32 32 29 30 30 32 28 32 32 34 32 32 32 34 34 34 34 31 31 32 34 28 31 29 30 19 20 22 17 18 25 26 25 27 29 26 28 30 31 25 28 26 26 25 29 28 28 26 26 27 29 
34 34 37 36 40 37 36 37 37 36 31 33 34 32 37 32 32 30 29 33 29 31 35 35 32 32 32 30 30 30 32 30 30 29 29 31 35 34 29 33 29 32 31 32 33 32 37 34 31 31 27 32 27 25 17 16 13 17 22 23 23 25 25 30 30 31 29 29 27 27 26 26 26 24 24 25 22 22 21 25 
33 37 36 35 37 36 41 32 34 37 33 33 36 33 31 30 33 33 28 31 31 33 38 34 35 34 34 34 32 30 33 28 34 32 31 31 31 32 31 33 33 30 32 37 34 36 32 35 35 33 29 37 30 26 18 20 15 14 20 25 26 25 28 28 28 24 29 28 28 28 25 28 26 27 27 20 29 30 19 32 
35 37 39 37 35 38 40 36 36 33 32 34 39 31 32 31 31 31 30 33 34 31 34 32 33 33 34 34 32 31 34 30 28 32 29 30 33 33 32 31 34 34 35 33 28 33 33 30 34 31 32 36 28 23 17 15 18 12 20 23 25 22 22 28 27 24 28 24 25 23 26 28 26 27 24 23 24 24 25 29 
33 40 42 36 37 32 35 35 35 36 33 32 33 30 32 28 31 29 29 31 29 29 31 33 32 33 32 35 35 32 34 31 30 31 29 32 31 31 30 31 35 34 34 30 29 34 32 37 35 35 32 35 30 23 15 17 19 16 13 21 24 23 22 29 26 25 26 26 23 26 25 23 24 24 24 25 27 28 20 29 
36 43 43 38 37 34 34 32 33 33 31 31 34 30 32 30 30 28 30 30 31 31 34 32 33 31 31 31 30 32 33 33 30 32 29 32 32 31 31 30 34 35 33 36 34 28 33 33 35 35 35 35 32 21 12 12 17 14 21 21 26 25 23 25 29 26 29 28 26 25 24 24 22 27 24 22 22 25 18 29 
35 42 41 40 35 34 34 33 32 34 32 28 36 32 33 33 32 29 28 31 32 29 32 32 33 33 30 32 32 31 32 31 28 31 31 30 31 31 34 31 34 32 35 34 34 35 31 33 37 33 31 37 27 20 15 15 16 11 17 25 22 18 24 29 26 25 26 27 26 24 25 24 21 25 21 20 23 21 25 28 
34 36 41 34 35 36 33 32 32 34 35 35 36 31 34 32 32 31 30 32 29 29 35 32 32 33 35 31 30 32 31 29 29 32 30 31 30 30 32 33 34 34 34 35 33 32 32 34 35 37 34 36 25 22 18 16 17 17 19 24 23 25 26 24 27 24 29 21 24 22 26 22 25 25 27 21 27 25 22 24 
34 38 38 37 34 38 37 37 34 37 35 33 33 32 33 33 33 30 29 30 32 29 31 33 35 33 32 32 33 33 31 32 30 35 27 30 29 32 33 33 36 33 37 36 30 35 34 35 35 35 38 39 31 24 14 19 17 13 20 23 21 24 27 26 24 27 26 26 28 27 26 23 21 25 26 23 23 29 24 25 
34 34 39 34 38 36 38 34 34 34 34 32 35 31 31 30 32 34 30 31 33 28 31 37 35 34 31 30 33 36 35 33 33 32 30 30 31 33 31 32 35 35 36 35 34 32 36 29 32 35 34 37 25 21 17 16 14 17 16 22 22 24 26 29 27 24 28 28 25 22 25 26 22 29 24 23 28 28 25 26 
35 35 39 36 36 38 33 31 33 32 34 36 34 31 30 32 34 33 30 33 31 29 31 34 37 33 33 31 34 33 33 31 29 33 35 32 30 31 33 29 33 33 34 38 36 36 35 33 36 33 39 34 27 21 15 16 12 15 21 20 20 22 25 24 27 25 24 23 23 22 27 20 25 27 24 24 24 22 22 24 
36 37 35 36 38 40 33 31 34 32 31 32 38 31 30 28 32 34 30 33 32 29 33 34 35 29 31 31 32 32 31 30 32 32 31 31 30 33 33 30 33 35 32 35 33 29 31 39 31 33 39 36 27 19 14 17 12 12 19 22 18 20 23 25 26 22 23 26 22 24 21 22 26 23 23 16 20 26 19 26 
36 33 36 39 38 35 34 34 35 33 31 34 35 33 28 29 31 33 31 31 35 32 31 31 35 31 29 32 30 30 34 33 30 32 31 30 29 34 30 31 31 32 36 32 34 33 32 34 37 35 36 38 24 17 14 22 14 11 18 21 23 19 17 23 23 23 22 22 19 22 23 22 21 21 21 19 20 23 16 26 
32 38 38 36 35 34 36 33 33 32 32 34 39 32 32 30 33 37 32 32 31 31 31 32 32 31 33 33 35 32 34 31 32 34 29 30 30 32 29 30 36 35 32 34 33 35 33 36 37 32 33 35 27 20 13 17 11 12 15 21 21 23 19 21 20 23 27 25 21 19 22 22 19 24 21 23 24 25 21 23 
32 40 44 36 38 35 34 35 37 34 35 34 32 30 30 32 33 31 31 35 33 29 31 34 31 31 29 30 33 32 33 31 32 34 31 32 31 32 36 31 34 32 31 33 32 30 35 36 34 39 36 38 27 16 14 15 12 8 16 16 20 19 20 21 22 17 18 23 17 22 21 17 20 18 21 16 22 24 22 28 
32 37 39 38 40 41 35 33 35 34 35 29 34 33 32 30 31 31 28 31 34 32 34 37 34 34 32 33 33 33 31 32 32 32 29 32 32 31 34 32 35 33 34 33 34 31 36 33 37 41 39 41 27 16 12 13 13 8 16 16 19 18 19 22 20 13 19 19 22 18 21 18 14 22 18 19 22 24 22 33 
32 38 39 39 35 38 33 33 32 33 34 33 33 32 31 31 31 32 31 30 32 30 29 35 35 33 39 34 29 32 34 32 34 29 31 32 31 30 33 33 33 33 34 31 34 32 36 40 35 42 35 38 26 19 12 13 13 11 18 20 16 16 19 20 19 13 18 20 15 15 22 15 15 22 19 19 21 29 29 25 
35 36 40 36 36 33 32 35 32 32 30 31 35 33 33 33 31 33 30 32 32 27 31 33 35 35 34 29 30 29 32 29 34 29 32 33 41 30 35 35 33 38 32 35 34 39 36 36 40 38 33 37 22 16 16 13 11 14 14 17 19 16 19 20 20 15 16 17 19 18 18 11 21 18 18 18 24 28 26 32 
34 37 38 35 34 32 37 33 30 32 31 33 35 32 32 34 32 29 30 30 32 30 31 35 34 33 33 28 31 31 30 33 33 31 32 34 35 33 33 30 33 33 31 32 34 33 34 38 38 35 33 32 25 14 8 14 11 9 14 21 17 19 21 22 15 15 15 16 16 19 16 19 10 16 14 17 21 21 20 22 
36 35 36 35 34 35 32 35 28 32 31 37 35 30 33 29 30 33 31 38 30 29 31 34 36 35 31 30 30 30 34 34 33 32 35 33 30 38 33 33 34 30 31 28 33 32 35 43 35 38 34 34 23 17 10 10 12 11 14 17 18 17 19 21 15 14 15 17 18 16 17 16 14 12 19 18 24 21 19 25 
33 36 35 35 35 34 34 29 29 31 32 31 35 31 31 29 31 32 35 34 34 34 31 32 35 33 33 31 32 31 32 31 31 33 34 33 32 33 33 31 34 32 32 29 34 34 34 41 37 33 33 33 22 13 8 10 7 13 17 16 13 15 16 17 18 13 16 22 17 14 17 14 15 16 17 19 17 17 18 25 
31 37 38 33 34 32 31 29 32 33 32 31 33 32 36 33 35 33 29 31 40 37 31 32 33 29 32 28 28 31 34 31 31 31 33 32 32 34 34 31 33 34 30 33 33 36 32 34 32 33 32 32 20 13 10 12 7 4 12 15 18 17 18 16 15 16 20 20 19 17 15 14 13 17 20 14 23 20 16 24 
32 33 35 31 29 31 32 32 31 32 33 30 34 28 32 32 32 34 28 34 32 32 32 31 35 33 33 27 30 33 30 31 26 29 28 29 27 33 30 27 34 29 33 35 35 38 34 35 35 34 31 31 24 11 7 10 7 10 12 15 12 15 19 17 15 15 15 19 18 16 16 14 13 17 19 13 16 16 13 29 
29 34 35 32 32 31 31 32 30 28 30 32 34 29 33 34 37 31 31 31 32 30 32 33 31 33 32 28 30 30 33 26 29 30 28 31 30 30 32 27 33 33 31 33 35 33 37 36 34 30 28 29 21 10 6 11 6 13 12 14 15 16 16 19 16 14 16 15 15 14 16 13 11 16 11 14 18 21 13 16 
30 35 36 31 29 32 33 33 32 33 29 33 32 32 34 33 32 32 29 33 31 32 34 33 32 33 32 29 28 29 28 27 28 28 29 29 29 32 30 28 32 30 28 34 33 34 34 36 32 28 32 35 19 14 6 11 7 9 11 16 14 12 14 16 14 11 18 16 16 16 16 11 10 18 12 10 18 18 19 16 
32 36 35 36 30 31 30 32 29 31 30 30 33 29 37 35 32 33 30 34 29 31 31 33 32 30 29 30 26 29 29 28 29 28 30 28 31 30 30 27 32 29 29 32 33 33 32 36 32 34 32 30 20 12 7 11 8 1 10 12 12 14 15 13 11 15 13 16 14 15 16 14 13 15 16 14 15 18 10 20 
33 33 35 29 31 26 29 27 31 30 30 32 32 28 32 30 30 32 31 33 32 31 31 32 30 27 30 27 30 28 29 26 27 29 25 28 28 31 33 29 32 28 32 32 32 27 31 28 31 30 24 30 22 11 3 6 5 7 13 13 11 12 11 12 12 10 11 16 14 14 13 14 11 12 9 9 16 14 14 18 
30 34 33 28 33 33 29 30 32 30 30 33 33 32 28 33 31 29 30 31 35 30 29 31 32 29 29 28 28 29 32 28 31 27 33 33 31 31 29 27 31 28 30 31 31 32 32 28 30 30 28 29 14 10 9 11 6 9 13 12 15 10 10 13 10 9 8 15 13 11 15 12 8 13 12 13 12 12 13 18 
32 34 33 32 36 32 30 29 29 32 33 30 32 30 30 29 26 30 29 32 35 31 32 32 33 32 33 28 29 31 29 30 28 29 29 31 29 30 31 30 31 28 28 31 29 30 33 31 36 28 28 29 17 6 4 10 9 6 13 12 9 9 7 9 10 7 9 11 12 12 14 10 8 13 12 11 15 15 7 18 
33 34 32 34 39 35 32 28 30 32 32 31 33 29 28 28 28 31 27 31 34 30 31 29 34 31 31 33 35 30 27 28 27 30 28 28 26 27 30 28 28 26 30 27 28 28 35 34 32 37 30 23 14 6 1 11 8 5 11 9 8 10 4 11 9 5 9 10 13 12 13 7 9 14 8 11 9 12 11 15 
29 36 32 32 34 35 30 28 28 32 32 30 32 27 26 28 28 28 27 30 30 30 29 28 31 30 31 29 32 26 30 28 25 27 28 29 28 25 28 27 28 29 25 27 29 28 31 31 29 31 30 27 13 6 5 5 7 5 6 8 5 9 5 10 6 7 5 6 10 12 15 9 2 9 10 6 11 15 10 17 
24 29 33 29 31 29 30 32 28 33 34 32 33 34 27 30 27 28 27 31 28 27 26 30 28 27 29 28 28 27 27 26 29 29 27 26 28 27 28 27 27 28 26 28 32 26 33 28 29 32 30 26 16 5 3 6 2 4 4 8 6 9 7 9 8 6 3 6 8 11 14 6 6 13 5 9 11 9 13 18 
26 32 31 26 32 29 28 31 31 32 31 36 42 34 28 26 28 28 29 31 34 26 28 25 27 25 29 27 27 30 28 26 25 27 27 28 29 30 27 25 31 28 29 31 31 30 37 30 32 30 24 24 13 6 5 3 8 3 7 8 10 4 5 7 4 7 4 9 7 12 13 5 7 13 9 13 11 12 7 21 
27 29 32 29 31 28 30 28 30 34 31 32 36 33 29 30 26 28 28 28 30 31 30 28 29 27 26 27 27 24 26 26 26 30 26 27 27 27 27 28 29 30 27 32 31 33 32 39 32 32 24 23 12 6 6 9 7 8 8 9 7 8 6 6 7 5 3 7 7 14 6 8 3 8 7 7 11 17 13 18 
29 30 35 29 26 33 29 28 28 36 32 34 35 28 30 30 28 26 26 30 31 28 30 29 31 23 29 27 31 28 28 26 25 30 24 26 28 30 31 27 28 27 30 32 32 31 31 34 33 31 29 25 13 7 7 4 6 6 8 9 3 8 2 4 9 2 4 9 5 8 8 8 5 7 6 11 14 19 11 25 
26 27 31 27 29 30 28 25 33 33 31 29 36 28 31 34 30 27 27 27 31 31 29 33 28 27 26 27 30 29 29 27 27 28 26 28 31 29 32 29 32 25 31 31 31 33 35 29 32 29 22 22 9 9 3 1 4 6 8 5 5 0 3 6 3 4 0 8 6 6 12 6 6 11 4 10 9 10 3 11 


