P2
80 60
240
64 68 68 68 66 73 77 75 75 73 75 77 75 78 78 81 81 81 81 81 78 80 79 80 81 80 79 81 83 78 82 75 72 58 56 70 79 84 84 79 77 77 76 81 80 78 81 87 94 95 100 99 99 99 100 102 99 101 94 90 95 96 95 98 92 94 88 90 88 89 93 89 91 90 92 91 92 89 84 95 
58 69 69 68 63 71 74 72 72 74 74 74 75 78 80 79 82 83 80 78 79 77 82 79 79 78 81 82 81 74 78 75 67 59 58 73 75 82 83 82 76 77 75 79 77 80 86 89 96 99 97 97 98 97 100 100 100 99 96 96 93 94 92 94 93 90 89 88 89 85 94 90 90 93 93 90 89 90 86 83 
60 67 67 63 69 71 74 71 73 76 74 74 74 76 78 78 80 81 81 80 81 77 77 80 80 77 82 83 83 80 78 77 69 66 62 73 80 83 80 79 80 77 73 74 79 83 93 89 97 95 99 96 100 98 95 96 96 97 91 96 96 95 94 93 91 91 88 90 89 90 95 95 91 95 93 92 91 88 88 88 
64 69 68 63 67 72 72 71 71 79 78 74 75 76 80 81 83 79 81 79 80 81 77 80 79 79 82 83 86 75 79 74 68 63 56 73 81 84 85 81 78 77 69 73 71 81 82 87 97 97 97 98 98 96 97 99 96 96 93 95 96 97 94 93 91 92 94 90 90 92 92 96 94 90 90 91 91 87 92 93 
64 64 64 64 67 69 72 70 71 77 78 74 77 80 83 86 87 82 80 83 80 79 78 80 81 80 85 83 80 73 78 73 67 57 53 73 77 86 86 81 77 74 71 72 76 80 86 91 93 97 99 97 99 100 97 101 96 97 96 95 93 97 94 97 96 93 90 93 92 89 92 90 94 89 93 90 89 85 87 86 
62 62 60 64 67 69 71 69 71 72 77 81 87 93 95 98 96 93 82 81 79 80 81 80 83 83 84 84 80 76 77 71 69 61 56 70 81 88 85 87 75 77 73 70 72 79 89 86 100 97 98 97 98 98 99 100 95 100 92 97 95 98 96 94 91 90 92 94 93 90 92 89 90 90 92 89 89 85 84 92 
58 59 63 62 58 67 69 66 65 72 73 79 94 100 100 104 106 101 84 81 83 77 82 79 83 81 81 82 82 78 76 70 64 57 56 72 75 84 80 83 78 75 72 72 75 81 85 84 95 96 99 99 101 97 99 97 96 103 102 96 97 99 95 96 93 95 91 92 92 92 89 90 90 92 90 92 90 84 86 86 
57 65 59 65 63 71 69 65 66 73 73 81 96 101 97 99 102 101 88 80 84 79 78 79 79 81 83 83 80 80 73 69 61 61 55 77 81 85 86 84 78 75 72 70 72 80 88 89 96 97 98 97 101 97 98 104 97 99 98 95 94 99 97 97 94 95 93 91 92 87 89 90 89 87 92 87 86 86 83 88 
57 58 61 61 64 69 72 69 69 74 75 79 88 89 91 91 98 94 93 77 79 78 81 81 82 83 83 80 83 79 78 73 63 57 60 77 81 84 82 81 80 75 71 71 77 81 85 90 98 98 97 97 99 96 97 98 96 97 97 99 94 97 94 93 94 95 91 89 90 87 89 90 89 89 89 91 88 84 82 89 
56 60 65 61 64 65 72 66 67 67 74 77 78 84 87 93 97 97 85 76 77 79 79 78 83 81 84 80 82 76 73 66 58 54 56 76 76 82 82 79 81 74 72 71 76 77 86 87 89 95 97 93 98 94 98 95 98 95 95 97 94 97 93 92 93 93 92 90 93 88 86 89 90 91 88 88 88 85 89 86 
58 63 59 61 60 67 70 67 64 68 71 72 82 95 96 93 98 90 80 76 74 78 81 79 79 79 81 78 81 73 75 67 56 57 61 75 76 82 81 82 80 79 73 72 73 80 85 86 93 96 98 97 98 97 97 98 96 95 97 94 93 98 92 92 92 92 94 91 94 91 89 87 94 90 92 91 90 88 87 88 
56 59 61 61 64 65 69 67 62 66 69 73 79 94 96 100 96 89 78 74 72 75 79 79 78 77 83 79 79 76 73 67 59 57 59 71 74 84 82 81 83 79 72 74 76 76 88 86 92 95 98 97 94 93 97 96 95 97 94 93 92 94 94 94 90 95 94 92 92 90 86 86 88 93 90 90 87 80 84 89 
55 55 56 61 59 63 65 61 62 67 66 70 76 92 98 100 97 85 75 76 76 76 75 77 77 78 77 83 80 73 77 70 62 59 55 73 74 77 81 80 80 78 76 74 78 79 90 87 96 95 99 93 95 93 98 96 96 98 94 94 90 92 96 90 92 93 89 88 87 82 76 87 85 88 89 87 93 85 86 90 
53 57 57 55 60 67 65 64 62 66 71 73 87 95 91 96 94 92 81 77 77 76 76 75 78 73 75 75 82 73 74 65 61 58 58 74 75 80 81 79 79 74 74 72 79 87 84 93 93 100 94 98 96 95 94 102 100 99 96 96 91 93 94 93 93 92 92 92 86 86 90 88 89 91 86 86 89 86 77 89 
51 58 58 52 58 56 62 66 66 77 78 85 81 91 91 94 95 91 85 85 83 86 83 81 75 75 75 77 78 73 71 67 57 57 53 67 75 77 80 79 77 72 71 70 72 75 90 86 95 98 97 95 97 95 98 101 97 102 99 97 95 96 92 93 87 92 90 91 89 86 85 87 88 88 88 85 92 84 85 88 
52 57 53 53 51 61 66 78 80 87 82 87 84 89 88 91 87 94 89 92 94 89 88 85 80 74 78 76 80 75 75 68 60 54 58 73 72 77 79 79 76 79 73 72 77 80 82 88 95 96 97 92 98 97 96 98 96 103 97 96 96 96 97 91 92 92 90 90 91 91 87 90 89 92 90 88 90 87 87 88 
49 55 56 55 57 61 72 75 77 84 81 85 80 85 79 88 89 91 89 89 87 87 87 93 79 75 79 77 78 74 72 69 60 54 57 70 73 79 81 79 79 74 74 71 76 78 89 87 93 95 96 97 98 99 98 99 97 101 97 96 95 96 91 93 91 95 90 91 88 91 91 90 97 89 88 87 90 88 86 88 
50 50 54 54 57 67 70 75 77 79 81 79 82 80 80 80 85 86 86 86 87 88 87 91 85 74 76 78 75 69 73 67 59 58 58 71 75 78 79 82 77 75 73 71 75 78 81 87 93 94 95 95 95 97 99 98 98 105 97 95 94 94 90 92 90 95 88 93 91 89 88 91 93 88 88 87 87 88 84 87 
45 50 54 58 57 70 77 75 73 79 79 79 77 81 78 83 82 86 85 83 87 86 90 91 81 74 77 73 79 69 72 69 60 56 60 74 75 80 81 79 75 73 72 76 77 77 86 86 96 93 98 95 100 98 99 99 97 100 97 96 96 96 90 92 92 99 93 92 91 90 89 89 91 89 88 88 88 83 86 89 
49 49 53 55 60 74 73 71 74 73 79 80 77 77 78 82 84 87 87 84 87 93 92 92 87 75 76 78 76 73 76 68 57 52 55 72 75 79 82 77 78 77 72 73 75 76 84 87 96 97 95 96 97 98 98 98 96 100 95 97 97 95 94 94 92 97 94 87 89 91 95 91 91 88 89 88 89 85 88 86 
50 51 50 52 61 70 72 73 72 73 79 78 75 77 78 82 83 85 86 85 89 90 95 99 92 77 77 74 76 71 76 73 58 49 58 71 74 82 87 81 80 78 73 72 72 77 83 85 97 95 97 97 97 99 98 100 95 96 96 96 92 95 95 93 92 94 96 92 93 89 96 93 94 93 90 87 88 85 87 93 
49 51 54 54 63 69 73 71 76 72 76 77 79 80 79 83 81 86 86 86 89 87 89 96 95 81 77 76 77 77 72 71 55 58 55 70 74 78 84 78 78 77 67 66 72 76 84 88 94 95 95 96 100 97 98 98 99 96 99 96 95 97 94 94 91 95 95 92 92 92 91 91 94 92 87 89 89 87 88 86 
44 50 52 52 62 66 75 73 75 71 75 75 74 80 77 82 79 81 83 87 85 92 91 97 89 84 79 80 76 72 69 69 55 53 54 70 76 81 82 82 75 76 72 70 81 74 84 86 93 97 96 97 99 100 96 97 96 99 96 95 96 93 92 93 92 98 92 95 92 95 93 91 92 91 88 88 91 84 86 87 
47 46 46 50 62 72 80 80 74 71 73 73 74 78 77 84 83 80 82 83 87 86 89 97 94 91 81 76 78 69 72 64 55 51 53 70 72 77 80 78 77 74 68 72 72 77 83 85 93 98 99 95 101 97 94 96 100 97 97 94 95 94 91 95 93 92 94 94 90 93 92 94 91 90 89 85 88 84 85 93 
46 46 47 49 65 72 78 75 76 74 73 74 75 80 75 82 82 80 82 82 81 76 87 95 98 96 83 74 76 65 69 64 49 48 56 68 73 79 76 80 76 74 71 70 74 77 82 86 92 94 92 96 98 95 97 98 95 97 91 95 97 92 93 92 95 95 93 93 91 89 88 96 92 91 89 89 90 85 86 89 
47 43 51 51 64 71 74 69 72 74 72 74 75 80 81 83 83 87 80 79 79 76 84 92 93 90 80 74 72 63 67 62 48 49 52 69 73 75 79 77 73 70 72 71 72 82 84 88 94 94 94 93 96 97 97 95 94 98 101 96 94 96 94 95 99 95 92 94 92 91 90 94 91 91 92 86 88 84 86 93 
43 43 47 51 65 69 72 66 64 72 71 74 77 78 75 77 82 86 86 80 73 73 81 86 91 87 74 74 69 68 66 57 50 49 53 68 70 77 76 76 70 68 70 70 73 78 80 84 92 94 94 96 98 95 95 97 96 95 95 91 93 95 94 93 92 93 91 93 91 88 94 91 92 93 92 88 87 88 87 90 
41 45 49 48 67 68 68 68 66 71 73 77 77 72 73 79 78 82 78 77 69 67 68 75 83 71 74 75 75 67 64 61 46 49 49 68 69 76 76 74 76 69 69 70 71 75 80 85 94 94 95 94 95 94 95 96 93 95 93 94 98 93 93 91 92 93 94 90 92 92 89 91 92 93 86 89 90 84 87 88 
44 44 52 51 64 70 72 75 72 73 74 73 70 76 78 78 81 83 79 77 71 68 71 73 70 69 74 74 74 65 67 53 51 46 49 72 69 77 76 77 70 69 70 67 71 80 84 86 93 95 95 96 96 98 93 96 92 96 95 95 95 94 94 93 95 97 94 91 94 91 91 91 91 91 92 91 90 87 84 86 
46 43 51 49 60 75 73 69 77 75 74 74 70 75 75 81 81 82 78 75 70 68 70 71 73 69 71 70 72 65 65 61 47 50 54 69 71 79 74 78 73 72 69 70 73 75 83 86 96 97 96 93 96 95 95 100 93 94 95 91 94 95 97 95 94 97 98 94 92 93 90 90 94 89 92 91 89 86 86 87 
42 49 48 45 50 57 67 68 70 74 72 76 73 79 74 79 78 82 79 76 72 64 66 71 72 71 71 71 71 68 68 56 46 45 51 69 72 80 78 76 77 71 72 70 76 76 81 86 93 95 96 96 96 94 97 98 96 96 94 96 92 96 97 92 94 97 95 96 90 91 93 89 92 94 91 88 89 89 90 89 
44 51 45 46 53 53 59 66 65 71 74 73 75 77 79 78 82 78 79 71 72 67 71 68 73 71 72 72 72 68 67 61 46 50 52 69 69 77 79 76 75 71 73 76 73 80 82 86 96 99 97 96 98 97 93 97 95 96 94 95 95 95 95 93 92 96 94 93 92 93 90 91 93 89 90 90 89 85 89 91 
44 41 45 46 49 48 56 58 65 70 69 72 74 75 72 78 74 79 72 73 69 66 68 68 69 67 74 70 70 64 67 60 46 46 49 69 67 73 77 77 78 72 71 68 72 72 84 83 91 96 95 97 97 95 96 100 95 97 92 95 91 96 95 97 94 95 95 95 94 92 92 90 94 90 91 90 91 87 85 92 
40 44 46 44 46 49 55 61 65 70 69 69 66 68 71 74 75 80 76 71 69 63 67 72 70 68 73 73 72 73 65 59 45 50 51 63 67 74 72 75 74 71 72 70 71 77 77 88 95 95 94 95 95 97 94 97 94 97 96 94 97 96 93 98 94 99 96 97 92 93 96 92 91 89 91 90 94 86 88 94 
41 44 43 43 44 53 56 66 66 64 63 69 65 68 68 68 74 76 72 72 65 63 64 68 71 66 73 72 71 66 63 59 47 46 53 68 68 75 76 75 72 71 72 71 71 80 80 88 94 94 95 94 97 96 97 94 97 101 93 91 98 96 94 95 94 97 92 95 94 89 93 94 95 90 89 90 92 86 85 93 
38 39 42 44 45 52 58 58 63 61 63 63 64 70 67 68 69 72 72 68 63 65 66 66 69 68 69 65 69 63 64 56 49 45 50 67 67 74 74 74 67 65 68 68 71 78 84 91 94 94 94 97 97 100 97 99 95 98 96 96 97 100 96 97 96 96 92 92 92 94 95 94 94 92 92 92 91 88 86 89 
37 41 40 44 41 52 59 58 60 64 58 65 62 66 66 69 70 71 70 68 67 64 65 66 67 66 69 67 66 62 64 60 47 49 51 66 67 74 76 75 69 67 62 64 70 69 81 84 93 93 93 97 99 99 97 96 97 98 94 95 94 97 97 94 97 99 94 92 93 88 90 90 93 91 94 92 94 88 89 93 
39 44 42 45 43 52 62 61 62 61 61 62 63 62 63 66 67 71 68 66 65 63 64 66 68 63 67 66 69 65 66 56 53 45 54 64 67 76 75 73 67 62 68 69 70 72 79 85 95 95 99 98 97 94 98 100 96 98 94 96 96 97 97 96 95 101 95 93 92 93 92 97 93 92 92 91 91 86 89 90 
39 46 52 42 42 56 61 60 57 64 61 56 54 56 57 61 63 66 64 64 64 64 68 64 66 63 67 69 69 64 67 61 45 50 50 69 71 72 77 75 68 64 67 67 75 75 82 84 97 97 98 95 99 100 102 97 96 97 96 96 93 97 94 97 93 100 98 94 94 91 96 96 94 91 92 91 94 90 90 98 
36 39 40 43 44 45 55 60 58 61 58 50 54 54 52 52 56 57 58 55 63 59 65 63 66 63 69 65 68 63 62 58 50 50 51 66 66 68 73 69 68 64 64 64 68 73 83 86 96 97 96 95 96 97 98 98 94 97 96 94 93 99 94 92 93 97 92 92 92 91 94 98 93 92 92 89 93 86 85 92 
38 41 37 43 46 50 59 58 56 58 59 50 50 55 54 54 58 57 56 58 58 61 65 66 65 64 71 66 68 62 62 59 47 52 49 64 67 72 71 71 66 62 67 63 68 72 81 86 95 98 101 101 101 105 98 98 97 98 94 96 94 96 96 96 93 96 95 91 92 91 93 95 91 94 92 91 94 89 91 96 
38 45 42 40 41 43 52 56 51 57 45 51 47 55 51 54 55 57 55 54 56 56 61 61 66 64 69 67 64 57 62 56 52 38 47 63 70 67 69 70 59 62 61 63 67 72 83 85 94 97 97 96 98 103 100 99 102 96 95 98 94 94 97 95 95 97 93 94 91 94 94 93 94 91 95 91 91 92 93 93 
38 41 40 37 45 47 54 56 54 50 47 48 45 49 49 54 54 55 55 53 53 52 62 60 63 63 66 65 64 58 59 54 45 40 49 61 67 68 67 65 58 59 58 66 70 74 81 85 94 94 98 96 98 102 97 99 101 98 94 97 96 97 95 94 95 97 95 91 91 91 93 87 92 87 92 92 88 89 89 94 
34 39 35 36 43 47 55 54 53 48 45 49 49 49 51 54 54 53 55 57 53 56 60 62 63 60 65 62 64 60 60 57 45 42 49 59 60 68 62 61 54 59 56 60 67 74 80 95 95 97 95 95 98 97 97 99 99 99 98 97 95 96 96 98 96 99 96 93 92 93 89 91 90 91 90 92 91 90 87 97 
37 38 35 37 40 40 53 51 49 48 46 45 47 51 48 50 52 55 55 55 57 55 59 61 60 59 63 64 64 60 63 57 45 44 45 58 63 68 67 58 53 57 56 58 66 70 79 88 94 100 95 93 98 95 98 97 96 100 96 94 99 102 96 95 96 97 95 94 93 92 92 91 92 91 94 91 90 89 89 90 
30 35 33 37 35 39 50 44 45 46 43 48 46 48 49 52 55 54 51 52 51 55 58 60 58 58 61 64 64 61 58 53 49 42 47 62 59 63 61 58 53 52 60 58 63 70 78 85 93 95 95 94 97 95 95 100 98 99 96 100 101 99 97 94 99 101 95 96 96 96 91 93 92 91 95 92 92 92 86 97 
31 28 33 30 33 38 44 41 40 43 45 43 43 47 49 52 48 49 52 54 54 54 55 56 59 57 63 62 62 52 56 51 41 41 44 56 55 57 58 48 45 49 55 56 61 66 74 80 88 93 92 92 95 93 96 100 99 98 95 99 96 99 98 91 98 99 96 97 95 96 97 93 96 94 92 90 90 90 87 94 
26 29 28 33 32 39 37 40 37 39 44 41 43 50 48 49 53 49 52 54 52 53 59 59 53 57 58 57 59 57 59 53 40 40 44 55 55 57 59 53 48 48 49 56 59 66 73 77 93 91 89 94 93 95 97 98 102 101 97 100 97 102 96 99 101 100 104 99 100 111 106 96 95 96 95 94 92 94 95 98 
30 31 35 33 37 35 39 39 33 38 41 44 42 47 49 50 49 51 49 48 52 47 58 56 56 58 59 57 56 52 54 50 40 39 40 52 53 59 56 49 48 46 51 53 61 66 77 80 87 94 93 94 97 98 97 104 101 102 101 101 99 108 105 101 103 109 105 107 105 105 98 97 99 97 100 98 97 91 95 94 
25 28 26 35 30 35 37 34 39 35 39 40 40 43 47 48 47 47 48 48 47 49 54 55 52 50 54 54 53 51 47 44 40 37 38 50 52 56 53 52 43 45 46 52 56 61 69 77 84 89 92 92 97 99 101 103 101 99 100 101 106 110 132 146 155 148 124 112 107 101 100 100 97 98 97 99 95 89 91 94 
31 28 32 27 28 33 33 34 32 35 40 38 38 45 43 42 45 47 45 46 47 48 50 53 50 49 56 54 54 51 52 46 38 37 42 49 51 53 59 52 41 44 49 52 60 55 70 75 86 91 93 93 96 100 100 106 101 101 99 105 112 141 174 182 189 182 161 130 105 104 101 104 107 102 102 97 98 98 93 95 
22 32 29 32 29 39 36 30 36 35 37 38 39 40 39 44 43 45 47 46 47 46 49 48 48 48 55 51 53 49 51 38 31 34 42 54 53 53 51 51 41 41 40 51 50 59 66 76 89 91 92 89 95 100 100 99 101 102 101 103 120 147 174 188 189 186 172 134 109 106 110 108 108 102 104 106 102 94 89 89 
24 28 30 30 28 36 37 34 34 37 35 38 35 40 37 38 41 41 40 41 40 43 44 46 49 46 53 49 45 42 41 41 31 27 33 49 49 52 51 53 38 42 43 50 51 55 68 73 87 90 92 92 96 97 101 103 102 105 110 110 115 150 182 194 194 198 173 135 111 115 119 119 107 104 107 111 100 89 89 88 
27 31 26 30 35 30 36 32 32 33 34 34 33 33 33 41 37 38 37 39 36 37 39 42 44 43 49 44 45 38 41 37 28 24 35 45 45 47 49 45 36 38 42 49 50 55 67 72 86 89 93 93 95 96 97 100 103 109 100 107 120 152 187 211 215 213 186 141 117 118 118 120 111 106 102 97 98 90 86 86 
24 24 25 29 28 31 26 25 26 26 29 30 26 32 27 31 30 29 29 34 33 31 37 34 34 37 43 38 40 33 36 33 28 22 29 37 42 44 45 39 34 36 40 43 48 51 67 71 87 87 90 91 97 97 99 100 101 104 100 105 115 158 195 226 240 233 190 144 120 118 115 107 104 95 100 91 86 85 87 91 
21 28 21 20 25 24 26 22 24 23 23 28 23 26 23 26 27 25 20 24 17 20 28 30 27 27 33 31 29 25 25 25 21 21 23 37 41 43 41 38 34 34 40 44 46 52 70 74 83 88 89 90 96 95 96 104 104 100 100 105 114 151 183 217 236 224 187 142 111 108 104 97 98 97 93 90 87 84 85 89 
13 16 14 14 15 18 22 17 15 18 18 21 22 20 16 15 16 19 16 20 18 18 20 15 20 20 23 18 22 16 15 17 16 22 26 39 36 41 40 36 34 34 36 42 46 53 64 75 85 88 90 89 95 92 93 101 97 103 97 103 106 138 164 178 191 189 178 143 111 104 98 98 96 94 92 93 90 87 85 93 
6 10 5 10 6 11 18 11 6 4 9 8 11 10 10 13 8 9 11 10 13 14 19 22 22 23 30 24 34 26 34 36 29 36 36 42 41 42 44 38 37 32 40 41 45 51 61 81 85 92 88 92 95 91 93 101 96 101 101 105 126 147 163 167 170 180 174 156 138 115 104 93 94 97 93 87 88 86 87 91 
4 5 4 7 0 3 6 9 14 13 12 12 11 13 14 19 16 19 20 28 32 43 55 58 60 62 72 71 75 70 71 72 68 66 65 69 54 45 42 40 30 33 36 46 44 51 63 69 85 88 90 90 97 96 95 100 93 94 100 120 136 143 153 158 159 158 159 156 146 131 110 94 95 95 87 88 89 86 87 92 
9 12 8 9 3 9 12 10 16 17 23 22 22 22 33 43 51 59 65 69 74 82 89 88 87 93 92 95 97 93 93 92 93 92 91 89 88 66 48 40 35 34 37 50 45 52 65 71 84 91 87 90 95 99 97 102 94 103 111 123 142 143 146 148 150 153 148 151 148 141 132 107 91 90 89 90 92 88 83 95 


