P2
80 60
37
23 25 23 21 20 21 20 23 26 26 25 25 22 24 23 19 23 22 25 22 22 24 27 24 22 24 24 23 25 25 28 29 26 26 25 24 24 26 22 24 28 22 28 28 24 27 25 23 27 26 22 23 22 22 27 24 28 26 32 20 19 21 23 16 16 15 15 14 12 11 15 14 13 13 19 10 10 11 11 10 
26 28 26 23 21 22 23 23 25 27 25 25 24 23 23 23 26 23 26 25 24 24 24 24 22 25 26 27 22 28 25 26 25 23 26 26 24 26 22 24 23 23 24 25 25 25 23 24 23 25 21 24 21 23 28 27 27 23 23 21 20 18 18 15 15 15 13 12 11 9 11 8 13 14 18 13 9 10 14 12 
29 28 24 25 22 24 26 25 26 23 26 23 25 24 25 25 21 25 26 22 26 26 26 21 23 26 25 21 24 26 28 26 27 24 27 26 27 26 24 22 23 26 26 23 22 22 24 26 26 24 24 23 20 24 26 23 26 25 21 21 25 19 16 11 16 12 13 13 14 12 13 13 16 13 14 15 13 9 12 14 
24 27 26 24 20 26 23 26 27 26 27 26 22 24 25 23 24 25 27 25 24 24 23 20 25 26 24 24 21 29 26 27 23 24 23 23 22 27 24 26 26 27 28 25 22 24 23 23 29 25 25 22 22 22 25 24 28 21 24 21 25 20 16 13 14 15 12 14 11 11 16 14 12 14 15 15 15 11 14 10 
32 24 25 24 23 25 21 27 28 23 28 22 23 24 22 25 22 26 26 24 25 24 24 22 24 23 27 25 24 25 22 26 23 24 23 24 20 28 25 24 24 27 25 25 26 23 25 25 25 23 22 22 25 20 22 25 21 20 24 21 21 20 19 19 19 13 15 17 14 13 15 13 14 12 17 15 17 10 11 9 
27 26 24 26 27 31 23 28 30 25 23 20 25 24 27 23 23 25 27 27 24 28 25 23 23 26 28 27 27 22 22 25 20 20 21 24 24 28 25 21 23 29 29 23 22 23 27 26 27 28 26 24 25 24 23 24 21 23 23 21 24 19 17 16 17 16 12 16 17 14 19 14 13 13 17 14 15 11 10 10 
27 27 26 28 25 22 22 27 25 25 24 24 25 24 23 24 25 25 26 25 24 24 27 20 24 23 25 30 22 26 25 32 25 23 21 26 21 27 23 25 26 28 25 22 24 25 25 25 28 25 23 27 26 23 23 26 22 26 28 21 25 20 22 17 21 15 15 17 15 13 12 12 13 15 12 12 13 11 11 11 
28 29 29 25 24 27 24 25 25 25 24 25 25 27 24 28 22 25 31 26 30 28 25 25 23 27 23 24 22 24 22 27 24 25 24 29 25 24 26 22 30 25 25 25 25 24 27 26 23 21 25 28 26 22 26 27 23 23 24 23 23 24 24 16 18 17 15 15 16 12 13 10 13 14 14 15 12 12 9 12 
31 28 29 27 24 28 26 26 26 25 24 22 24 23 24 25 25 23 28 29 25 24 27 26 25 24 24 26 25 24 24 27 24 20 22 23 25 22 25 23 27 25 22 21 20 22 23 26 25 24 26 26 23 23 24 25 25 23 25 26 22 19 21 15 17 16 15 16 13 15 10 13 12 13 14 14 13 9 9 8 
32 31 28 30 26 24 31 27 29 25 30 24 22 25 22 23 27 22 25 24 27 27 27 24 27 23 26 24 25 27 25 23 26 24 25 23 24 25 23 20 26 26 21 23 20 20 22 24 26 26 24 24 24 23 24 25 27 20 24 25 24 21 20 13 18 17 17 15 19 13 11 13 17 16 14 15 14 9 10 5 
31 29 30 30 26 29 30 33 31 28 25 24 24 23 24 24 24 25 29 25 26 26 29 24 23 25 22 24 18 25 27 27 25 23 22 25 23 23 24 23 22 23 24 23 21 24 24 21 24 24 25 24 24 24 26 26 22 19 20 21 20 22 23 15 18 15 14 18 15 13 13 11 18 20 13 13 15 11 13 8 
28 30 28 32 27 29 30 25 26 28 24 22 24 24 25 22 24 25 24 21 22 26 26 23 24 24 23 22 19 25 24 25 25 25 24 23 20 19 26 23 23 23 23 19 22 23 23 23 24 24 24 21 21 24 23 24 24 20 21 20 18 24 22 19 16 18 15 13 15 10 9 9 17 14 12 15 13 13 10 11 
37 28 26 32 28 28 27 27 25 25 22 22 23 24 23 21 23 21 24 22 24 26 23 22 22 25 26 25 25 31 26 24 27 26 22 22 21 22 29 24 24 22 24 19 23 25 24 22 23 20 24 22 22 22 22 24 22 22 21 20 23 22 23 17 14 17 16 16 15 14 2 10 14 13 14 12 13 11 10 13 
32 35 32 31 27 25 25 24 26 21 21 24 22 22 23 23 21 19 23 19 24 25 24 20 23 24 22 24 25 27 22 23 25 24 24 23 22 26 20 18 24 24 22 22 24 26 26 25 21 27 23 24 20 22 22 22 25 22 25 21 25 20 15 14 15 17 16 17 14 10 13 8 10 15 13 12 14 12 19 13 
29 36 32 30 23 26 22 28 27 24 20 23 20 23 19 22 19 22 23 21 20 22 23 22 26 23 21 24 23 28 24 25 25 27 22 21 22 23 22 22 23 22 25 21 22 24 22 26 30 26 23 23 23 23 21 26 28 33 28 21 23 18 22 15 14 14 15 18 14 15 13 12 12 14 14 13 12 14 15 13 
28 32 30 28 22 26 26 29 30 24 17 21 25 22 20 24 21 21 26 20 23 22 22 23 22 23 23 23 25 26 25 26 22 20 25 22 22 21 25 21 27 30 23 26 24 24 25 24 22 24 24 23 22 26 23 27 25 23 24 24 21 18 21 15 19 23 18 19 19 13 17 12 15 16 16 13 17 16 12 13 
32 32 26 34 26 28 23 24 26 21 20 25 24 21 23 26 21 21 23 21 23 24 26 21 21 23 26 24 23 29 27 26 25 23 23 24 21 21 25 20 24 25 21 21 23 26 22 23 24 23 19 22 21 22 25 30 24 26 26 21 22 19 20 19 18 19 14 19 17 15 17 14 14 16 15 15 18 11 12 12 
29 26 30 31 30 24 24 29 26 22 22 20 20 21 23 20 19 19 24 25 23 23 25 21 21 21 22 26 21 28 25 27 25 21 19 24 21 20 22 23 19 22 22 23 24 21 22 21 23 22 18 21 23 24 27 26 28 31 28 21 23 21 18 13 15 18 17 15 17 13 15 14 18 15 11 13 10 11 13 11 
27 31 28 31 27 26 25 24 26 25 24 20 22 24 25 25 22 23 23 25 21 26 26 22 25 22 22 23 25 28 25 28 24 23 27 23 23 22 25 22 24 28 22 22 26 22 23 24 24 23 21 22 26 24 20 24 24 25 24 21 22 20 19 15 18 18 17 19 16 14 13 12 16 11 12 12 7 12 11 11 
29 29 30 30 28 27 26 24 28 23 24 21 22 21 26 24 18 23 30 24 25 27 28 23 24 25 26 22 22 25 25 25 25 25 23 20 22 25 26 24 25 20 22 26 23 23 23 21 25 25 23 21 23 22 24 27 23 23 23 21 21 19 19 15 17 18 16 21 20 18 17 15 15 16 15 10 9 9 11 10 
32 31 27 26 25 22 23 22 24 26 23 22 21 24 21 21 22 24 25 25 25 23 27 22 26 25 22 22 26 27 34 27 25 24 25 20 21 25 23 20 24 25 24 22 20 20 20 22 21 23 21 19 25 20 24 24 23 22 21 21 22 18 19 18 18 14 15 19 16 16 19 15 17 16 12 11 13 12 13 10 
27 27 28 29 24 29 24 22 27 25 23 21 31 22 22 21 22 23 20 24 25 25 28 21 21 22 25 24 23 27 28 26 24 24 21 20 22 21 22 18 24 26 21 19 20 20 21 19 24 23 19 16 23 25 21 22 24 23 25 19 19 17 20 18 17 20 18 19 19 19 14 16 16 19 13 10 11 15 13 12 
28 28 29 30 27 25 26 28 26 23 20 21 21 23 26 22 20 21 25 23 23 22 23 23 23 23 25 24 21 26 23 25 25 20 23 19 22 21 22 22 20 21 22 19 15 17 19 19 20 22 18 19 21 22 20 21 21 20 23 21 23 19 18 19 22 17 18 19 19 13 16 14 17 17 14 14 8 10 19 8 
26 32 26 32 24 22 27 28 24 25 22 25 23 21 23 23 21 21 21 22 25 26 24 22 22 23 21 25 20 25 20 23 26 22 17 18 19 22 22 21 23 23 20 21 18 21 23 15 20 24 25 20 23 18 20 20 22 20 18 22 20 19 20 21 15 16 19 22 19 14 14 13 15 13 17 10 11 12 12 13 
30 30 28 27 23 24 25 23 28 25 22 25 25 21 25 22 21 22 25 21 26 25 23 21 21 21 23 21 21 24 21 22 21 19 19 19 19 17 19 17 20 21 24 20 23 22 20 20 22 22 20 20 21 20 19 21 20 21 19 20 20 19 17 18 19 16 17 16 18 15 14 12 16 16 15 15 10 11 14 11 
24 25 25 24 22 26 24 25 25 25 24 23 24 24 26 23 19 22 19 20 22 26 22 23 24 20 21 22 19 20 20 20 23 19 19 20 21 20 20 22 21 21 22 22 22 22 20 21 22 21 19 20 21 22 19 21 20 18 21 20 19 20 16 16 17 16 17 17 17 16 16 14 15 12 14 14 13 14 11 12 
26 28 27 27 26 27 27 24 25 25 21 22 23 22 25 24 19 22 24 23 25 23 27 22 24 24 23 20 21 24 22 22 22 19 20 20 20 17 21 20 20 23 20 17 20 21 20 20 23 20 19 20 17 19 21 20 20 20 24 20 23 20 18 16 16 15 15 14 19 14 14 14 16 16 16 12 14 14 12 14 
30 26 26 30 24 26 24 26 25 23 22 22 22 23 23 20 21 23 24 23 22 24 27 22 21 24 25 25 23 26 22 27 23 19 18 19 21 18 17 19 20 21 26 20 18 23 19 19 21 20 21 20 21 20 19 21 22 21 21 19 19 15 18 16 18 17 13 16 18 19 16 15 18 17 16 16 15 12 13 10 
25 25 24 26 24 22 24 31 28 26 23 21 22 26 22 20 17 21 23 22 21 24 26 21 23 23 23 25 23 25 20 21 23 19 18 19 18 20 18 20 21 20 21 19 18 21 21 20 20 19 21 25 20 19 20 20 20 16 22 17 20 16 15 14 17 17 15 15 14 15 14 14 16 16 16 12 9 12 12 9 
28 26 29 27 21 25 25 24 29 25 24 24 23 24 21 21 18 20 22 21 22 23 25 21 21 23 22 22 21 27 21 26 21 20 20 22 20 25 21 17 20 19 22 21 18 19 21 20 20 21 17 20 19 18 22 20 20 19 19 19 20 19 18 14 18 15 25 21 13 13 16 11 14 14 14 10 12 10 8 11 
29 27 28 26 22 21 25 23 22 23 21 22 23 24 24 19 20 20 20 22 21 20 26 22 22 24 24 22 22 23 22 22 21 19 24 20 22 19 23 21 21 22 28 21 17 19 17 23 24 20 21 22 18 20 23 23 19 17 18 17 20 17 20 17 19 20 16 17 15 13 14 13 14 17 13 14 13 9 12 10 
26 22 25 30 26 22 23 21 21 22 22 20 23 24 24 22 20 23 22 22 21 24 25 21 24 25 27 21 21 22 20 24 22 19 18 19 20 19 21 19 25 23 23 24 23 19 21 20 21 28 18 21 20 22 22 19 19 18 18 15 17 19 20 17 19 19 18 14 14 14 13 14 14 17 13 11 15 14 10 6 
25 27 24 27 24 25 20 22 27 23 22 21 20 20 20 23 20 21 23 19 22 24 21 22 22 21 25 22 23 24 20 23 19 17 17 21 19 18 19 19 19 22 20 19 22 20 20 18 19 22 20 23 20 20 19 18 20 20 18 16 17 16 21 19 20 14 20 13 14 13 13 12 13 13 13 12 14 13 10 13 
24 24 24 27 24 23 22 22 26 23 20 23 21 22 20 22 21 23 22 21 26 24 25 25 22 23 23 21 23 26 25 22 21 19 19 18 20 19 19 21 21 24 26 19 20 24 18 20 20 21 21 19 19 21 20 21 19 20 17 18 19 21 23 23 25 18 19 14 13 11 12 8 10 12 12 10 12 14 10 13 
26 25 24 25 22 23 21 22 22 24 22 22 24 24 22 20 22 21 24 23 21 23 21 20 26 22 22 23 25 27 24 21 21 21 21 18 19 19 19 21 20 23 23 22 19 24 19 22 19 17 20 21 19 21 21 23 21 20 20 17 19 19 25 24 25 15 17 15 11 12 13 12 17 14 13 12 12 11 10 10 
24 24 24 25 23 22 23 20 23 22 24 22 21 22 19 20 17 22 24 20 23 24 23 22 22 23 23 20 21 23 21 21 19 22 20 19 24 16 20 18 20 20 21 19 20 18 21 25 21 17 20 20 21 21 21 21 21 20 21 19 16 19 26 24 20 17 16 14 13 16 11 12 11 13 15 11 11 10 11 10 
24 25 29 26 24 24 23 22 22 21 24 22 23 22 20 18 21 23 26 20 23 24 25 20 21 19 21 21 23 22 23 25 21 21 18 19 22 18 20 19 18 20 20 20 19 22 16 22 22 21 18 21 21 20 20 19 21 19 20 19 20 20 22 19 21 17 17 12 13 12 14 9 13 15 11 10 10 13 13 11 
26 28 28 26 24 25 21 24 25 22 23 22 23 21 22 20 21 26 25 21 22 21 25 25 23 21 18 20 22 22 25 24 21 21 18 20 18 18 19 19 18 23 22 24 20 23 22 20 21 20 20 19 19 20 21 20 18 17 19 20 19 19 21 19 23 22 15 14 14 13 13 12 13 14 11 9 9 9 13 12 
24 29 27 24 24 24 24 25 28 21 23 21 22 21 26 21 18 25 23 22 23 23 26 23 22 20 21 20 21 24 24 25 20 21 17 21 19 18 23 21 20 25 21 21 18 22 23 23 22 20 22 21 22 23 22 22 21 19 19 21 19 15 21 20 18 17 21 15 14 12 12 7 9 12 10 11 13 11 15 11 
25 26 24 27 22 24 20 24 29 22 22 23 25 18 19 21 17 19 21 20 24 26 21 24 24 21 22 20 21 28 21 23 24 21 20 21 20 18 23 22 20 22 21 21 19 22 21 22 22 23 22 21 22 23 21 23 22 17 21 20 16 18 24 17 16 14 15 12 10 10 9 10 13 13 11 10 11 11 17 18 
24 24 25 23 23 23 18 23 26 23 22 21 20 26 22 20 16 20 21 21 20 25 23 22 23 24 25 23 20 25 22 20 24 23 22 21 19 18 23 22 20 19 23 21 19 23 26 18 24 17 21 27 23 27 21 19 17 17 19 14 18 20 23 16 15 13 12 13 9 10 7 11 11 13 12 11 11 15 19 16 
27 25 22 26 21 21 19 24 21 22 21 21 24 21 23 19 15 22 20 22 22 21 24 23 24 22 22 21 21 23 23 20 15 18 22 20 20 20 19 22 22 19 20 20 18 19 20 23 22 24 21 25 22 21 21 23 19 18 22 15 19 20 20 16 19 14 13 10 11 10 8 9 11 13 11 10 12 12 13 14 
29 27 24 25 20 20 19 22 25 21 20 22 19 23 22 21 19 20 22 24 21 24 21 22 26 22 21 21 21 22 24 21 24 19 20 24 23 20 19 22 25 20 18 21 21 22 22 20 22 23 22 22 20 22 22 21 23 22 22 18 20 20 22 19 21 16 13 9 11 12 8 8 12 9 10 7 10 11 11 12 
28 21 22 23 19 20 21 21 24 18 24 21 24 21 20 21 16 23 24 23 23 24 25 21 23 23 21 20 20 23 20 25 22 21 21 21 19 19 17 20 21 22 23 19 21 24 23 26 26 23 20 22 22 23 21 21 21 18 21 18 19 20 22 15 17 14 13 11 9 10 10 7 8 9 12 12 10 7 12 12 
23 24 21 28 16 17 20 20 25 19 17 19 23 22 22 21 19 21 22 23 24 27 27 24 21 22 20 17 16 21 20 20 21 22 19 22 19 18 19 15 22 21 23 19 20 21 26 26 27 19 22 19 22 20 19 17 18 16 15 16 19 19 18 15 13 18 13 12 10 8 7 7 10 9 8 8 9 4 12 13 
24 24 20 22 22 22 19 18 22 20 21 21 19 21 23 20 22 22 21 21 23 23 22 20 24 22 18 17 20 19 21 20 20 22 19 24 19 22 20 19 18 22 18 21 20 23 21 24 20 21 19 20 18 20 20 19 17 17 19 17 16 19 19 15 16 18 12 10 10 9 10 9 10 9 11 11 9 6 8 11 
23 22 22 23 19 22 15 18 24 18 20 21 20 19 23 20 20 22 21 19 25 23 21 20 22 24 23 17 21 22 21 20 19 16 19 20 18 20 16 15 19 17 21 20 23 26 21 22 21 21 19 20 19 19 20 19 16 16 15 17 16 16 18 15 13 10 10 17 17 10 9 7 12 8 9 7 7 4 9 15 
23 24 21 20 21 19 15 19 19 19 20 21 25 23 18 23 21 19 22 21 24 24 24 24 21 20 17 19 22 23 18 22 22 19 20 21 19 18 22 19 20 22 24 21 23 20 23 19 23 21 16 22 17 20 18 20 20 19 18 16 21 18 16 14 13 10 12 13 12 8 13 8 14 11 10 6 10 6 6 9 
23 23 18 21 22 20 19 20 21 20 19 19 21 22 22 23 19 19 22 19 22 23 26 24 22 19 20 22 20 22 17 19 20 20 19 21 19 20 19 17 20 21 22 21 23 18 21 20 20 18 17 20 16 18 17 20 19 23 22 17 18 20 17 14 15 11 13 15 10 11 10 11 10 10 9 9 8 10 11 9 
23 20 20 21 16 16 14 17 21 20 21 16 22 20 23 22 19 23 24 20 23 28 23 21 21 22 18 20 17 22 16 19 17 19 21 19 17 17 19 16 19 19 20 18 19 19 14 15 18 14 16 18 18 22 21 18 18 17 19 15 17 15 15 13 15 12 12 12 14 11 9 10 6 10 9 8 9 8 4 8 
22 23 19 22 19 19 19 18 21 20 19 20 21 22 24 21 21 20 22 20 19 23 20 19 19 21 18 20 16 22 19 21 18 18 20 19 17 18 22 18 19 21 21 18 17 21 20 22 19 16 17 19 20 20 19 19 18 17 18 18 19 16 15 13 14 12 14 12 13 11 9 9 8 11 12 10 8 8 9 5 
23 23 20 20 26 19 17 17 20 21 21 19 15 17 21 18 18 18 21 22 23 20 20 22 23 21 19 16 17 17 16 19 19 16 24 21 15 17 17 15 19 17 18 18 18 17 17 18 19 16 17 21 20 22 16 23 19 18 18 18 18 16 17 15 12 14 11 12 10 11 12 8 10 12 9 12 8 8 8 7 
24 24 18 28 18 21 20 17 22 20 18 19 16 17 18 18 16 19 21 22 17 20 21 19 19 21 19 17 18 20 19 17 17 19 19 19 18 14 19 15 20 18 15 15 16 18 17 19 20 16 17 17 16 19 22 20 22 17 20 15 16 16 17 12 15 12 12 13 13 11 8 8 9 8 12 11 11 6 0 7 
24 24 18 26 25 23 17 18 21 23 21 17 21 18 18 20 17 18 21 18 20 20 21 18 20 21 22 19 18 19 20 21 17 19 18 20 15 17 16 12 19 16 15 17 16 17 19 19 16 18 18 19 20 21 20 23 18 19 24 18 13 18 16 11 14 12 9 11 8 9 8 10 10 9 8 7 9 8 10 3 
17 21 17 19 20 23 21 17 22 22 21 18 21 18 17 17 16 18 21 19 19 18 18 19 25 21 23 22 18 15 18 19 18 16 15 16 16 14 15 13 15 18 18 16 15 16 19 20 18 18 18 18 19 20 21 23 22 20 19 14 13 17 16 13 10 10 10 9 11 11 9 7 8 10 5 8 10 2 5 5 
17 18 18 15 16 21 17 20 20 21 23 20 21 23 21 17 15 21 23 20 22 20 16 18 23 20 19 22 17 17 15 18 17 19 19 17 15 17 15 14 16 15 17 16 18 16 16 20 21 19 17 21 17 17 18 21 17 19 18 19 19 18 12 15 10 12 10 10 10 11 13 10 10 12 9 6 7 2 10 4 
18 20 17 17 15 19 15 17 19 23 18 16 26 19 20 17 19 19 20 23 21 18 20 15 18 20 19 19 15 17 17 19 16 16 15 14 16 15 18 15 20 18 17 18 18 17 17 16 19 17 17 19 16 17 17 17 19 15 18 15 17 12 11 12 14 9 10 10 8 10 12 8 10 11 13 10 6 5 6 4 
14 17 13 16 15 18 18 25 23 21 18 19 22 19 20 18 20 18 18 19 22 20 20 13 16 19 18 18 18 14 17 18 16 16 15 16 16 15 16 15 18 19 18 16 15 19 20 19 18 20 18 15 18 17 21 18 17 15 18 18 17 12 15 9 10 11 10 9 9 11 10 8 10 10 11 6 6 6 8 3 
22 15 16 19 20 18 18 18 23 22 16 18 20 19 21 16 16 15 16 19 18 20 21 20 17 17 15 15 18 20 14 19 20 16 14 17 16 17 17 12 18 19 25 19 16 19 22 17 21 17 15 21 18 19 23 20 14 17 18 16 17 13 15 12 15 10 10 12 10 8 7 9 9 8 10 7 6 8 3 7 
23 18 13 20 16 18 14 15 22 17 16 17 17 18 17 13 17 16 18 20 22 20 21 19 18 16 16 13 17 22 19 19 18 13 13 18 19 16 15 16 20 22 20 19 17 19 18 21 19 18 17 20 17 20 15 17 18 18 20 17 14 15 11 14 12 12 12 9 10 5 8 5 5 11 7 2 7 8 7 7 


