P2
80 60
39
23 27 26 24 30 25 32 27 28 32 29 26 28 32 32 29 26 26 31 29 35 28 25 28 25 26 25 26 27 26 32 31 32 34 31 29 29 28 27 28 29 28 28 23 25 23 28 27 30 29 32 31 28 26 27 26 27 30 36 29 25 24 25 23 21 23 22 20 17 19 22 24 23 19 22 26 22 18 18 21 
24 23 31 27 22 26 26 34 26 30 31 29 27 26 28 27 30 26 27 30 29 28 29 27 23 26 27 28 28 31 30 31 32 32 30 27 28 28 25 24 26 29 24 24 23 23 26 26 27 24 24 27 24 27 27 28 30 27 26 27 22 22 26 20 22 21 22 17 20 18 21 21 22 19 19 20 20 16 22 18 
27 30 24 25 26 28 28 25 29 29 33 28 28 24 32 28 27 27 26 28 30 26 30 28 24 28 28 27 30 30 29 30 33 34 31 28 27 33 34 29 27 26 25 23 24 23 28 26 25 24 24 25 26 28 28 27 28 30 24 24 24 22 23 23 23 22 17 16 19 19 20 20 21 21 20 17 18 15 24 18 
28 28 25 28 28 28 31 30 26 29 37 28 26 27 26 29 28 27 28 29 29 28 27 27 23 26 25 28 29 27 24 32 33 31 32 30 30 33 31 32 27 27 28 23 26 30 30 28 27 28 25 26 27 28 25 27 29 28 27 27 25 22 22 24 24 25 17 20 19 22 19 24 20 17 17 20 20 15 26 21 
29 24 25 27 30 29 32 25 29 29 28 30 26 26 27 28 29 28 25 30 29 29 30 26 27 29 28 29 30 32 29 30 31 31 29 29 29 32 37 32 30 30 31 29 31 32 33 32 32 29 27 28 26 26 25 27 28 26 26 26 24 22 24 27 24 22 21 19 24 17 15 19 18 17 21 17 16 15 21 17 
23 29 26 29 27 29 28 27 28 30 28 25 26 27 26 28 28 27 27 29 30 29 29 32 27 30 28 31 27 28 24 28 29 26 29 27 32 31 32 31 29 33 31 30 33 32 39 31 29 30 30 28 29 27 29 30 24 28 28 30 25 25 20 21 22 21 22 21 23 19 19 18 22 15 18 16 19 16 21 14 
25 28 24 26 30 28 30 32 32 33 26 26 26 28 29 28 33 29 28 31 30 28 31 29 26 26 29 28 27 28 28 31 30 29 31 31 30 30 30 28 33 30 28 30 31 30 32 34 32 29 32 34 31 28 34 29 31 36 36 30 29 26 23 25 24 23 21 22 20 20 18 19 21 20 15 18 14 17 21 15 
31 32 31 29 30 30 33 30 28 30 31 30 28 30 32 30 31 27 32 29 32 29 27 30 28 31 31 27 31 29 28 30 29 30 32 33 31 32 32 30 33 28 29 29 28 34 36 34 31 28 31 33 33 30 30 33 29 32 28 30 27 28 29 26 25 26 21 21 24 21 14 18 21 20 19 16 18 16 21 19 
31 32 32 29 28 31 35 34 25 30 30 25 31 28 27 29 31 29 29 34 27 27 29 27 29 27 29 29 30 27 31 29 30 28 32 33 31 33 31 33 30 29 27 27 30 30 31 29 32 28 28 32 30 29 31 32 31 28 28 32 28 28 28 22 23 24 22 22 20 20 17 19 19 19 16 16 20 17 17 15 
37 37 32 31 25 30 37 32 29 27 29 28 28 27 26 27 33 27 28 28 30 31 28 29 26 25 26 29 25 29 22 25 27 28 31 29 31 30 29 29 26 29 25 26 27 30 27 30 31 29 30 33 28 28 28 31 31 33 30 27 24 27 28 22 24 26 27 21 26 19 18 22 20 19 18 17 15 11 17 15 
33 39 29 33 29 32 38 29 27 28 29 22 27 25 27 28 31 28 26 28 25 27 29 29 27 29 26 25 28 29 27 29 29 28 28 29 29 27 29 30 29 26 25 26 28 30 32 30 27 30 28 30 31 27 29 29 30 26 28 25 27 28 21 23 23 23 22 22 20 22 19 20 20 19 18 18 16 14 16 13 
33 31 30 32 30 33 33 28 28 29 28 25 26 24 27 26 25 26 24 25 27 24 26 27 26 25 25 26 28 28 25 29 28 28 29 27 26 29 31 27 30 27 25 25 26 32 30 29 27 29 27 28 28 27 28 28 27 29 24 27 24 27 24 24 24 25 23 19 19 15 16 17 18 18 20 22 21 13 20 12 
30 32 30 34 33 31 31 29 27 29 27 24 27 26 23 24 28 24 21 25 23 28 27 27 26 27 27 28 23 29 26 28 30 29 29 28 25 28 31 30 28 27 24 25 29 32 34 28 27 26 30 28 25 29 26 27 28 30 26 24 25 26 27 19 22 23 24 20 16 19 5 15 16 16 18 19 20 16 18 13 
29 33 28 31 28 30 31 29 27 26 26 26 27 26 28 28 28 25 25 21 27 25 28 27 24 23 27 26 26 29 28 26 29 28 29 27 26 31 30 26 28 29 26 26 29 33 30 32 25 32 29 29 26 28 27 29 30 28 29 28 26 26 25 19 22 22 23 22 19 18 16 16 18 18 19 20 19 19 23 17 
30 32 35 33 27 29 30 29 25 26 26 24 22 25 24 26 28 24 22 25 24 25 24 26 23 22 25 28 24 26 25 26 28 26 28 27 31 27 30 30 26 26 26 25 26 29 32 27 28 28 26 27 26 25 27 28 30 38 28 26 23 23 23 19 17 22 21 20 20 19 19 19 17 15 14 16 19 21 21 14 
32 34 34 33 32 29 29 30 28 26 27 26 24 25 26 26 27 21 23 24 25 24 25 28 23 25 25 25 28 25 28 26 29 28 26 27 27 26 30 28 28 29 25 25 27 32 29 26 24 26 25 25 26 32 26 29 29 30 27 30 25 22 23 22 24 25 18 19 18 20 19 20 19 20 20 16 17 18 21 13 
32 35 34 33 33 30 29 27 25 26 28 24 26 26 26 27 27 24 21 23 25 23 23 25 25 22 22 28 27 27 24 27 31 33 26 27 25 26 27 32 28 26 25 23 26 31 30 25 28 25 25 27 26 27 25 30 28 29 28 25 22 26 22 23 23 21 18 21 21 18 21 22 21 18 15 18 18 19 20 20 
30 32 30 27 31 28 31 27 24 25 24 24 26 25 25 24 26 25 24 25 26 22 24 26 25 26 23 26 28 26 27 26 27 27 28 28 27 27 30 30 27 25 29 24 27 30 27 25 25 22 23 23 28 27 28 29 28 31 29 27 25 20 22 18 23 23 20 18 22 21 18 18 21 17 15 17 18 19 21 18 
30 31 29 31 31 28 30 27 22 23 27 24 25 25 26 28 26 26 24 26 24 26 28 28 22 25 27 26 26 31 26 23 29 29 31 26 28 27 28 28 26 29 26 27 27 26 28 24 24 23 23 26 30 25 26 25 24 29 24 23 24 19 22 21 23 21 19 20 22 20 17 19 20 16 18 14 16 14 19 14 
30 29 33 30 29 37 31 25 25 24 31 28 27 27 27 25 26 24 26 27 28 28 30 27 25 31 26 25 26 29 24 25 29 28 30 26 29 31 27 28 29 28 26 28 26 27 26 27 20 26 27 29 28 24 25 27 27 24 24 23 22 22 22 21 22 25 22 23 20 21 17 18 20 20 14 16 15 15 17 12 
28 30 30 29 29 30 30 23 20 25 27 26 23 25 23 24 25 24 22 27 27 26 28 27 23 27 26 25 24 28 37 28 29 25 28 24 28 29 28 28 28 31 28 24 26 27 24 22 23 24 25 26 27 26 26 25 27 25 23 26 23 21 21 22 24 22 22 21 21 21 19 20 18 17 17 16 15 15 18 17 
28 30 31 30 27 30 32 27 23 25 31 25 30 25 24 25 25 23 25 26 23 26 27 26 23 25 26 26 25 27 27 26 29 29 27 24 28 28 26 29 26 29 25 24 26 25 23 23 20 23 24 24 24 26 26 22 25 24 24 24 23 21 21 25 21 22 21 20 18 23 17 18 21 18 17 16 13 16 19 15 
27 31 30 29 28 27 30 30 26 25 27 23 24 25 27 25 27 23 29 24 24 25 25 26 24 22 25 27 24 28 24 27 28 25 25 26 26 24 27 30 28 24 27 22 24 24 26 23 24 24 22 23 21 26 25 23 21 24 24 23 24 20 20 21 24 23 21 21 21 18 19 21 20 18 14 18 9 11 21 16 
31 30 34 31 30 27 34 33 26 27 27 28 25 28 26 26 25 26 27 25 26 25 27 27 21 25 25 24 25 25 24 25 27 25 25 26 25 25 26 27 24 29 24 24 25 28 28 20 22 25 22 22 22 28 25 24 25 25 22 23 23 21 24 24 23 24 22 22 21 22 21 20 19 17 17 15 14 18 21 22 
28 33 32 28 27 27 32 29 26 28 24 29 27 26 25 24 28 25 25 26 25 27 28 25 21 22 21 25 26 24 22 23 23 25 25 24 25 25 26 25 22 21 23 23 27 26 26 24 23 24 22 25 22 23 23 24 25 23 25 25 20 20 20 21 21 25 21 21 19 19 22 16 20 19 21 17 14 14 18 21 
30 32 29 28 28 28 34 30 26 27 28 26 23 26 29 26 27 25 24 24 26 24 27 27 25 21 24 23 22 25 21 21 26 23 24 24 24 25 25 27 24 27 25 26 24 30 25 27 22 19 23 22 20 21 22 24 23 24 26 24 20 20 18 20 20 21 23 21 19 21 21 19 20 20 16 19 19 18 17 17 
31 31 30 31 30 27 33 32 25 26 25 24 24 30 27 23 26 27 26 28 25 26 29 27 25 24 23 27 19 24 24 22 25 26 24 24 25 22 24 27 23 27 25 22 24 26 23 22 21 21 20 25 21 19 22 23 20 21 21 24 22 19 21 17 20 22 23 18 18 17 21 21 20 19 17 16 21 16 21 15 
27 27 28 32 29 26 29 27 26 26 27 27 27 27 25 23 24 25 27 28 25 27 26 27 24 23 25 26 24 27 25 24 24 25 23 21 25 25 26 24 24 25 26 23 25 20 25 20 20 21 23 25 22 21 21 22 22 21 21 23 22 19 24 20 22 23 19 18 17 22 20 16 16 16 16 17 14 14 14 14 
25 30 28 25 27 29 28 32 24 29 27 24 27 27 25 25 21 21 24 28 22 26 22 24 24 27 26 26 26 25 26 23 22 24 22 22 25 26 25 27 20 24 24 22 25 23 24 23 23 21 22 24 21 20 21 22 20 19 18 20 20 19 19 21 22 21 17 17 19 20 17 19 19 17 17 16 16 14 14 14 
29 29 32 29 25 26 31 25 26 29 26 25 27 24 24 23 23 22 23 22 22 24 25 25 25 25 25 23 23 24 20 24 24 24 25 24 24 27 24 23 25 25 25 24 26 25 21 22 23 21 20 24 21 20 21 24 20 22 19 19 22 20 22 19 22 24 26 20 17 19 19 18 19 17 18 15 15 14 14 9 
29 32 31 27 28 24 27 27 26 28 25 25 26 26 25 23 25 22 20 24 23 23 30 24 25 26 25 22 24 23 23 22 22 24 23 26 24 23 23 26 23 24 29 25 26 22 20 19 22 22 22 23 19 22 24 19 23 21 20 18 17 19 24 23 24 22 21 18 20 15 16 22 16 16 18 14 18 11 20 14 
31 32 28 29 25 27 29 22 26 28 25 23 24 27 28 26 27 23 24 24 23 26 27 27 24 23 28 23 24 25 21 22 24 24 24 23 25 23 24 27 26 25 27 27 26 23 22 22 20 26 23 20 21 24 21 21 22 24 18 19 16 19 21 23 23 25 21 17 19 21 17 18 16 17 13 15 13 10 19 13 
25 29 26 30 29 27 28 26 25 25 26 25 27 25 22 25 24 23 21 23 25 24 25 27 25 22 26 24 27 21 24 22 24 23 24 22 23 24 23 26 25 25 22 22 24 22 20 21 20 21 23 22 21 27 23 19 21 20 19 16 18 19 18 20 21 22 21 16 20 17 13 19 16 17 16 12 16 13 16 15 
27 31 27 26 33 26 28 26 26 25 25 26 22 23 26 24 25 24 22 26 24 22 24 27 26 24 22 23 23 24 21 22 23 21 25 22 25 25 23 25 25 23 25 23 26 24 23 19 18 20 20 21 20 23 23 23 23 19 20 19 18 22 22 20 23 24 21 19 15 17 20 18 19 14 16 18 15 15 19 17 
25 30 28 29 28 27 28 25 24 23 25 25 25 27 26 26 26 22 22 27 19 23 25 25 25 24 22 24 27 24 24 23 25 24 24 21 26 23 25 22 22 24 25 24 24 25 21 20 19 19 24 24 22 20 22 19 21 21 21 18 15 20 18 19 20 20 21 16 18 17 15 19 21 15 18 16 17 13 16 14 
26 28 31 30 27 25 26 25 27 26 25 24 24 26 25 26 25 23 22 25 24 24 24 28 22 24 22 24 22 24 23 22 22 23 25 25 25 21 24 25 21 25 24 24 26 22 24 24 22 18 20 25 23 22 22 22 22 21 19 22 19 18 23 22 19 18 18 17 19 14 19 17 16 17 18 15 12 15 17 14 
29 31 33 31 26 28 29 25 23 23 26 25 29 26 23 23 24 26 24 24 23 22 25 27 23 21 19 19 24 22 24 23 24 25 24 24 23 23 25 24 24 26 25 23 24 23 22 21 20 20 17 21 21 20 20 20 22 21 22 15 20 20 19 22 20 22 18 16 15 12 15 17 17 14 16 15 20 12 15 12 
30 32 30 31 29 30 27 28 24 24 25 25 27 28 25 25 23 29 26 24 23 25 26 25 20 22 21 23 22 24 26 25 25 24 23 23 24 25 25 25 24 24 25 22 22 23 22 21 19 17 20 22 18 21 20 23 21 20 18 20 18 20 18 19 23 23 20 20 19 14 17 16 16 15 12 14 14 13 19 11 
25 31 31 31 30 28 32 27 26 25 26 25 30 24 27 25 23 28 22 28 23 23 26 24 23 24 21 20 19 22 25 24 21 24 25 23 23 26 24 26 20 24 25 20 22 21 21 21 18 21 19 21 21 20 24 22 19 19 17 19 18 17 17 16 20 22 20 19 17 16 16 13 16 15 13 15 13 13 19 18 
26 29 27 27 26 29 27 31 24 25 28 24 25 25 23 23 23 24 23 24 25 26 23 26 25 24 20 22 19 23 24 20 21 22 25 24 25 28 24 27 23 25 25 23 21 21 23 20 19 23 22 21 23 21 24 20 16 19 15 17 18 17 17 13 18 17 21 15 15 14 17 16 17 16 14 13 16 12 20 14 
25 28 28 28 27 26 28 26 24 26 27 24 22 26 26 27 23 21 22 25 22 26 25 29 26 26 26 23 22 22 21 20 25 27 25 27 23 28 25 26 21 21 27 18 22 22 22 21 19 20 22 26 23 20 21 19 20 20 16 16 14 20 16 16 16 14 15 15 12 13 15 16 17 17 15 15 18 16 26 18 
25 31 28 28 27 27 28 25 22 26 27 24 27 24 25 24 23 25 25 25 24 29 29 28 28 23 21 22 22 21 23 21 25 17 27 26 27 26 23 23 23 27 24 20 22 22 21 21 20 23 21 22 23 22 22 22 21 21 16 15 15 16 16 18 19 18 16 13 13 16 14 13 16 15 13 19 14 8 23 17 
31 32 33 29 27 26 29 23 24 24 27 25 28 24 26 24 23 22 23 24 23 28 26 26 26 25 21 21 23 22 21 22 24 24 23 29 23 26 22 24 26 23 19 22 23 21 22 22 19 21 21 22 19 21 24 20 18 20 18 15 19 18 18 19 19 17 18 15 14 15 13 11 15 15 15 17 18 11 17 14 
29 30 31 25 24 26 28 27 22 24 27 26 24 27 26 24 22 23 23 25 21 24 21 27 24 22 23 19 24 22 23 22 24 22 26 27 26 25 24 23 24 26 22 23 21 21 24 26 19 20 21 19 19 23 19 17 19 20 18 17 14 18 17 15 15 21 19 15 15 14 13 14 18 13 15 18 16 11 12 12 
27 28 28 25 23 25 29 28 21 22 24 26 26 27 26 23 25 22 23 26 26 25 25 28 26 23 20 19 20 23 23 22 23 22 23 24 25 24 22 24 24 22 22 21 21 22 23 23 22 17 19 19 17 21 20 18 17 18 15 18 14 17 15 16 16 22 19 18 16 13 11 15 12 12 14 17 13 9 15 14 
28 28 22 26 22 23 26 24 21 22 24 23 25 25 27 23 28 24 23 23 24 23 24 25 19 22 21 19 19 22 21 21 21 22 23 25 23 22 25 26 21 23 21 19 21 20 19 20 18 17 18 17 16 19 15 18 15 20 16 14 16 14 13 12 15 20 16 11 15 11 12 13 12 11 12 12 10 11 11 13 
25 28 24 21 22 25 24 23 18 21 22 25 24 22 25 27 24 26 22 24 21 23 26 25 21 22 21 19 20 22 22 19 20 22 21 23 22 22 24 23 23 24 20 19 22 21 17 19 18 15 15 18 15 20 16 17 14 17 12 16 16 17 18 17 13 17 14 13 12 11 10 13 13 10 11 11 13 6 12 8 
28 28 23 21 22 22 29 24 19 21 24 22 23 23 28 28 24 23 23 23 24 23 24 21 25 23 18 22 21 24 22 19 20 19 24 24 23 23 22 24 21 24 22 19 21 20 21 17 19 16 16 17 20 17 17 17 17 18 17 17 16 16 17 16 14 16 12 13 12 13 14 14 12 10 10 7 10 11 11 10 
25 27 24 23 21 26 27 25 22 23 24 23 26 29 26 28 28 23 23 26 21 26 29 27 24 21 22 19 22 22 19 19 22 22 22 22 22 27 24 23 22 21 21 18 20 18 21 14 15 15 16 18 15 20 16 17 18 17 17 16 15 19 15 15 16 16 16 17 11 13 10 16 12 10 10 8 10 10 15 9 
26 26 26 26 23 25 27 23 22 23 25 23 25 29 29 29 26 23 24 27 22 22 24 24 23 19 21 20 22 23 17 20 23 21 23 21 22 22 25 24 21 20 23 18 18 16 17 15 15 16 15 16 17 17 18 16 17 18 18 14 17 17 15 13 15 17 15 13 16 13 9 13 13 13 11 13 14 4 11 9 
22 24 23 25 26 24 28 24 23 25 24 24 19 26 24 26 27 22 21 26 20 23 21 20 21 19 18 20 19 20 18 18 22 22 20 18 23 24 23 23 18 21 20 18 18 13 15 15 15 14 16 19 17 19 18 18 20 16 15 15 17 15 13 15 16 16 13 11 13 13 10 9 10 9 8 11 8 9 10 5 
27 25 24 24 28 29 26 23 24 21 25 25 22 23 26 22 23 24 21 27 26 21 20 22 21 23 18 20 20 23 23 20 21 21 26 21 22 20 19 19 18 20 21 17 18 16 14 14 17 15 15 14 16 20 15 18 17 16 17 16 15 16 17 14 16 17 12 12 12 10 12 9 10 9 8 12 11 14 12 11 
28 28 23 27 25 27 26 21 21 23 21 20 23 23 23 22 23 22 22 24 20 23 20 23 22 22 22 21 20 23 20 19 20 20 24 23 20 18 23 19 21 21 19 19 16 15 15 15 16 13 17 13 14 15 16 18 19 17 20 13 13 14 13 13 14 15 13 10 11 9 10 12 8 8 7 8 10 4 9 5 
23 23 25 29 30 31 24 21 23 24 24 21 22 24 24 22 22 18 20 23 20 24 20 22 24 25 22 20 21 19 20 19 20 20 19 20 20 18 20 18 20 18 20 15 15 14 15 16 14 17 13 13 13 15 16 17 18 16 15 14 12 14 14 12 12 14 11 10 11 11 11 13 9 10 9 8 6 8 10 7 
23 25 24 23 26 25 29 25 21 25 27 24 22 23 24 25 24 27 22 24 21 19 21 20 20 22 24 22 20 18 20 21 20 19 20 20 19 20 16 18 18 21 18 14 13 15 15 17 14 11 16 12 17 15 16 14 15 15 15 13 12 14 16 12 12 12 10 9 9 10 10 11 10 10 9 7 12 10 8 5 
17 24 21 21 24 23 28 25 22 24 24 23 24 25 23 20 21 20 22 21 20 20 19 24 21 21 20 22 18 19 19 18 19 20 18 18 17 20 18 22 19 21 16 14 17 16 16 13 15 15 16 15 16 18 18 16 15 15 13 17 12 15 12 9 13 11 7 8 8 12 12 14 10 12 8 9 7 5 10 7 
19 25 22 24 24 22 24 25 21 25 23 24 31 23 22 22 20 20 19 26 19 21 20 20 17 18 18 16 16 18 19 14 17 18 20 17 19 18 18 20 19 17 18 16 15 12 15 10 15 14 12 13 15 11 10 16 12 15 9 10 13 11 9 8 11 10 4 5 4 7 9 8 6 4 3 12 7 4 8 5 
17 21 17 21 23 21 24 25 22 24 25 26 25 26 25 22 24 22 20 21 20 20 21 19 19 19 19 16 20 17 16 17 18 20 16 14 20 22 18 19 20 19 17 12 17 14 15 17 13 18 14 14 14 17 15 18 13 15 13 15 11 10 10 11 13 12 8 2 9 8 10 5 8 5 6 4 11 8 10 7 
22 19 20 23 23 22 24 22 19 21 23 23 22 23 24 19 20 20 23 22 22 21 24 19 18 17 14 17 23 19 16 15 17 17 17 19 21 20 20 20 19 22 23 12 14 17 17 13 16 18 16 19 16 14 16 14 12 13 13 13 10 8 8 9 15 14 6 6 7 8 11 9 13 5 3 3 7 5 8 5 
24 22 20 21 22 22 24 21 21 20 23 19 23 19 22 21 21 20 21 21 21 22 18 20 22 21 15 18 25 19 17 15 17 18 21 21 24 20 23 23 19 25 18 15 15 13 14 15 14 14 18 17 16 16 11 13 12 15 12 13 11 12 8 11 10 8 9 9 0 6 9 8 7 5 2 7 6 3 5 12 


