P2
80 60
37
22 24 24 21 23 21 26 24 29 28 28 28 28 28 30 30 25 25 25 25 25 29 23 20 23 23 24 25 27 26 23 25 25 24 23 24 22 20 23 21 24 21 25 29 25 25 26 25 27 26 21 23 22 22 20 24 25 28 22 23 19 19 25 20 16 17 13 14 16 12 18 13 14 13 15 14 16 10 6 14 
24 28 25 25 24 23 21 29 31 31 27 30 26 30 34 32 30 25 26 25 24 28 23 25 24 26 28 26 25 26 23 25 25 23 23 21 22 22 22 21 20 25 24 24 25 24 24 24 23 24 22 25 23 23 24 23 26 25 23 20 18 20 21 18 16 15 16 13 15 12 12 15 14 15 13 14 17 13 12 17 
24 23 23 26 22 23 25 24 32 28 33 27 27 29 33 27 26 28 25 22 26 28 22 26 24 25 28 23 26 24 25 29 25 25 25 19 24 23 24 20 21 24 21 21 23 23 25 23 26 22 23 24 24 23 26 21 21 26 21 22 18 18 16 15 15 17 15 12 14 11 14 14 15 13 14 15 11 14 11 12 
26 22 22 25 25 28 27 27 28 31 34 35 27 27 29 24 30 25 26 25 24 25 22 23 22 25 23 27 26 24 23 27 24 22 22 21 21 24 23 23 21 21 25 24 23 24 23 22 26 24 25 24 24 21 21 20 25 22 19 20 23 17 19 17 17 16 16 16 17 14 18 18 16 15 14 12 13 14 12 13 
28 23 25 21 25 28 26 26 28 30 25 28 27 28 27 32 30 25 25 23 23 22 23 25 24 24 26 24 26 27 23 22 24 21 20 21 17 22 26 22 21 22 24 24 24 21 25 25 24 25 20 23 22 20 21 21 18 20 24 18 17 19 19 22 21 13 13 17 17 15 15 14 13 13 12 13 13 14 12 11 
27 23 25 28 27 28 24 31 31 28 28 25 28 28 28 30 31 27 26 23 23 28 27 24 25 27 28 25 30 23 23 22 21 19 21 22 22 23 29 21 21 26 26 24 23 24 27 23 25 22 21 19 27 21 20 21 20 26 21 20 22 19 18 19 15 15 18 15 21 14 19 20 14 14 10 12 16 11 8 11 
26 24 25 25 29 25 28 28 27 34 31 29 25 28 28 28 32 31 27 27 26 25 26 23 28 25 25 25 23 22 25 27 24 22 21 23 20 24 26 20 24 20 23 21 23 27 21 24 24 22 20 28 25 23 20 20 21 25 25 21 25 19 20 19 18 18 14 19 17 16 10 18 14 16 11 13 15 8 8 14 
30 25 30 29 27 30 32 28 27 30 28 29 30 29 29 26 31 31 29 26 30 27 23 25 29 28 25 24 25 24 22 23 20 21 25 25 21 21 26 23 26 20 21 24 23 23 26 26 22 20 24 24 29 19 24 22 20 25 23 21 22 19 22 20 16 17 14 14 20 12 11 14 15 14 14 15 13 14 10 10 
31 29 32 28 30 30 29 29 25 31 29 34 29 26 28 31 29 28 26 29 22 23 26 27 25 26 25 24 27 23 22 22 21 21 23 23 22 20 22 23 22 21 20 21 24 20 23 25 22 21 23 24 23 25 20 24 19 23 24 20 19 16 19 18 18 19 17 16 17 15 13 11 12 13 11 13 16 13 6 15 
32 32 31 29 30 24 30 31 28 25 29 33 30 26 30 30 34 25 28 26 25 27 23 25 23 27 27 23 28 26 17 22 21 24 23 20 21 22 23 22 22 25 19 23 20 21 23 26 25 21 25 24 22 23 21 20 22 20 23 20 21 18 18 18 16 20 17 14 19 13 15 15 16 14 13 10 16 14 11 11 
29 29 26 27 30 26 31 32 28 29 26 27 28 28 29 28 31 27 27 24 21 21 21 24 23 26 22 23 24 24 22 25 21 21 23 22 21 18 21 21 19 19 21 21 20 20 22 24 25 21 20 19 22 20 22 20 19 19 17 18 20 16 16 16 16 18 13 14 17 15 11 12 12 12 12 11 14 11 8 9 
29 29 31 31 30 29 34 30 29 28 26 26 27 26 31 29 28 26 24 17 21 23 21 24 23 24 24 22 25 23 23 22 23 25 19 20 18 17 25 20 20 22 22 20 21 21 21 20 21 23 16 22 20 21 21 16 18 22 22 19 17 16 20 20 18 19 15 15 14 8 11 12 12 15 12 13 16 4 5 10 
37 31 28 34 29 30 31 28 28 29 25 28 27 25 31 30 28 22 21 20 21 24 20 24 22 26 24 23 22 23 22 22 22 22 18 15 19 19 27 22 21 19 19 19 23 24 25 21 22 20 22 24 22 19 16 18 20 22 18 18 21 18 24 19 14 15 16 12 14 12 0 10 10 11 13 14 13 10 8 10 
28 31 28 30 25 31 25 25 27 26 27 28 24 23 30 27 24 24 26 16 20 26 24 25 21 24 22 23 24 24 20 21 24 24 21 17 15 23 23 16 21 21 19 20 20 22 23 23 20 24 18 25 23 20 18 22 23 23 23 19 19 17 16 16 13 17 16 15 13 10 9 7 13 11 9 16 16 11 13 15 
29 28 29 29 25 26 25 28 27 25 27 26 30 24 27 28 26 23 24 20 19 20 23 24 22 21 26 22 21 21 23 25 22 23 22 17 20 21 20 21 18 21 20 20 20 19 22 19 25 25 21 25 25 20 19 20 23 36 23 23 18 16 20 17 13 16 15 17 14 13 15 10 11 9 8 12 15 15 14 11 
30 33 29 30 20 27 28 28 30 24 24 29 28 25 27 30 24 24 25 20 23 20 17 23 20 24 22 21 24 20 21 22 21 22 22 19 18 18 26 18 23 19 19 21 22 23 23 21 22 21 16 19 22 24 20 21 21 23 24 26 17 16 19 17 16 20 16 22 17 11 17 16 13 11 13 9 13 17 10 10 
31 32 28 30 28 26 29 29 24 25 26 29 27 24 31 29 25 26 25 21 24 22 22 23 21 22 22 24 29 21 22 23 21 23 18 19 17 19 22 21 22 19 19 19 19 25 21 19 20 18 17 22 21 18 23 23 21 26 22 20 17 20 24 19 15 14 14 20 18 14 17 15 18 15 11 11 14 12 15 17 
27 26 31 30 26 28 30 27 27 24 27 32 27 25 30 26 25 21 23 25 23 22 20 22 21 22 20 26 26 24 22 21 22 20 21 22 19 17 22 22 19 17 17 20 19 23 18 21 19 19 16 23 21 19 23 22 27 32 24 21 19 19 21 18 18 17 13 15 16 16 17 17 16 12 12 12 10 12 17 15 
29 28 32 28 27 28 29 26 27 27 27 29 28 28 30 26 26 26 25 25 19 24 21 24 21 24 25 24 29 27 21 21 22 25 22 19 20 18 22 21 21 22 20 20 21 21 22 21 22 18 19 20 25 19 22 19 20 26 21 18 19 16 15 17 17 19 12 17 18 9 13 13 14 10 11 12 13 7 8 13 
28 26 26 28 28 30 28 23 27 24 28 30 32 24 28 31 23 25 24 23 24 28 24 24 21 25 22 24 23 26 25 22 20 21 21 18 19 22 22 21 22 21 17 19 18 21 20 22 22 19 20 21 20 17 19 20 19 18 18 19 18 18 17 17 16 19 17 19 18 16 13 17 15 12 11 12 13 9 9 10 
29 27 27 24 28 26 25 24 23 26 29 33 26 25 29 24 25 24 22 23 23 23 21 24 24 25 24 22 23 22 29 25 20 21 20 16 19 20 22 22 20 24 21 21 17 19 19 21 21 21 19 20 23 16 21 20 19 20 21 19 20 19 20 17 15 17 14 20 17 13 14 15 13 15 11 10 13 11 13 7 
33 27 27 27 24 25 24 24 27 24 29 29 35 25 28 26 27 26 22 23 22 28 26 23 21 24 23 21 21 21 21 23 20 21 17 19 17 17 23 17 20 23 16 18 18 20 19 17 21 19 18 18 19 13 21 20 16 20 24 18 18 15 19 18 15 18 15 14 17 17 16 17 14 14 10 11 13 14 12 10 
25 26 29 27 28 25 27 30 26 27 23 27 27 28 30 29 25 23 25 23 20 24 21 22 20 26 23 21 20 19 19 19 20 16 16 17 17 16 20 21 21 16 17 16 15 16 17 16 20 22 16 17 19 18 17 15 17 18 16 20 21 16 18 20 17 17 14 17 17 13 15 18 13 15 12 11 7 12 8 12 
26 27 28 27 26 23 26 34 24 25 26 28 26 25 26 26 26 25 24 22 21 23 21 22 20 20 21 22 21 17 18 21 19 18 17 17 18 18 21 19 18 13 14 18 13 16 19 15 19 22 21 17 21 18 18 17 20 18 18 16 17 16 19 21 17 16 17 17 15 15 13 11 15 12 11 11 11 14 13 14 
27 26 29 25 24 24 27 25 28 25 28 27 28 24 29 24 23 20 25 19 23 22 15 23 22 22 19 20 25 17 17 19 16 17 18 16 18 15 19 17 18 16 19 19 20 20 22 20 22 19 17 18 19 18 17 17 15 18 20 15 14 16 17 17 15 20 17 15 17 14 11 10 14 14 13 12 8 10 12 12 
24 25 26 23 24 23 27 28 27 25 26 26 27 26 30 26 21 19 17 19 20 24 20 23 23 23 22 20 18 19 18 19 21 16 15 15 16 15 18 19 17 17 18 19 17 21 19 23 19 13 16 15 21 17 17 15 16 17 18 18 18 13 18 15 14 18 17 14 13 18 15 14 14 13 11 12 13 13 10 11 
29 24 26 27 24 27 28 30 28 27 23 25 26 25 28 27 23 25 25 23 22 24 23 24 23 24 21 22 21 20 17 17 18 18 17 16 17 14 18 17 17 16 17 16 17 20 19 20 20 17 17 18 18 16 16 15 16 16 17 17 17 17 18 15 14 18 16 16 19 15 14 15 14 15 12 10 16 16 12 9 
27 23 26 29 27 25 24 28 28 25 29 27 25 27 24 21 27 24 21 23 20 23 22 23 22 22 23 24 24 22 18 20 16 17 16 15 17 12 16 16 17 17 18 19 16 19 17 18 18 17 16 18 19 17 16 16 15 16 17 16 16 15 17 18 15 16 15 13 15 11 15 14 14 15 15 14 12 13 9 11 
28 23 27 28 26 26 25 30 25 30 31 28 24 26 26 27 23 23 22 23 19 21 23 24 23 25 22 22 21 20 21 17 16 15 14 14 15 15 19 20 17 16 17 19 17 20 19 21 17 18 17 19 18 16 16 18 15 15 16 16 17 15 14 16 16 17 15 14 15 13 13 12 11 12 13 9 10 12 8 13 
29 29 29 25 24 25 27 27 30 27 27 29 27 24 29 24 22 22 21 20 20 24 25 24 19 22 19 22 16 20 15 18 19 16 14 18 17 18 18 16 19 17 17 19 19 21 19 19 20 17 16 19 16 14 17 18 14 18 13 16 18 19 17 17 16 18 23 17 14 14 15 13 11 13 12 13 13 11 8 13 
27 23 28 25 24 24 25 24 25 23 25 28 27 26 26 24 24 23 23 22 21 21 26 22 22 22 22 18 18 20 18 16 17 17 19 17 17 14 19 18 20 17 20 20 19 21 18 21 22 18 21 19 19 15 17 14 13 16 13 16 18 16 17 20 17 21 16 16 17 13 14 16 13 14 9 11 12 10 5 7 
26 19 22 26 25 22 23 23 23 23 29 26 28 24 29 28 24 19 22 21 19 21 22 23 19 21 25 21 20 19 16 18 18 16 15 16 15 14 16 18 21 18 20 23 20 17 20 17 20 23 16 18 21 16 15 13 16 15 13 15 15 13 17 18 19 21 15 15 16 13 14 14 12 12 9 7 8 10 9 6 
25 24 28 29 25 26 26 29 28 25 27 26 26 24 26 27 25 22 22 20 21 21 18 21 21 20 21 21 21 18 20 18 16 13 18 17 15 16 18 18 17 19 18 17 21 18 18 20 15 21 16 19 19 16 17 16 17 17 15 13 15 15 17 16 17 17 16 14 17 16 13 12 14 13 12 10 10 9 8 7 
27 23 27 29 27 29 24 33 26 24 24 28 26 23 27 27 24 23 25 18 21 22 22 24 20 22 21 19 22 20 18 16 14 16 16 16 15 14 16 17 18 19 19 17 19 22 19 18 21 19 17 20 19 18 19 18 18 20 13 14 17 19 19 20 17 18 18 14 17 11 12 11 15 13 15 13 15 12 10 6 
25 23 29 29 32 27 27 26 24 24 27 31 29 25 31 24 27 24 22 22 19 21 25 22 26 23 21 22 24 21 17 18 18 18 18 16 15 17 16 17 17 18 20 19 19 21 19 21 17 17 17 22 21 19 17 16 14 18 17 14 14 17 18 18 17 18 17 16 16 13 14 12 16 14 14 16 12 11 11 13 
23 23 25 24 27 28 28 22 26 25 28 28 25 26 24 23 23 24 24 20 23 22 23 25 20 24 20 19 20 21 19 19 17 16 16 16 19 14 16 16 16 18 17 15 16 19 19 23 19 16 18 21 24 16 16 17 17 17 19 17 16 13 18 16 16 17 15 19 12 13 10 11 13 12 17 16 15 14 9 16 
27 24 30 27 26 28 24 26 23 25 27 24 29 23 26 27 23 23 26 21 22 23 25 23 19 24 19 21 20 15 20 18 17 18 15 15 14 15 17 14 16 17 18 19 19 18 18 21 19 18 16 22 22 15 16 18 18 18 18 14 18 14 15 17 15 21 15 14 13 10 13 11 12 15 12 16 14 14 12 11 
26 28 27 26 25 27 27 26 25 24 26 31 31 25 27 28 26 28 24 20 24 21 25 22 20 20 18 19 20 18 23 19 19 19 15 17 14 14 20 17 18 17 18 21 18 21 19 19 19 18 17 19 19 18 18 20 19 16 17 19 17 16 17 15 16 22 15 16 18 11 12 12 11 12 13 16 14 12 10 12 
28 28 33 28 26 24 26 24 27 23 29 28 24 25 28 23 25 25 21 21 21 22 21 24 22 20 17 17 18 19 17 19 16 18 15 18 15 16 19 18 20 20 18 16 17 19 22 20 20 17 16 17 21 19 20 17 20 17 16 15 14 14 15 17 15 17 19 18 15 16 12 13 11 13 10 14 13 13 15 10 
25 24 24 27 25 26 24 24 26 24 28 29 27 26 27 26 24 20 22 20 23 24 20 23 19 19 20 18 17 21 20 18 18 18 14 16 14 14 21 15 18 17 19 18 19 22 21 23 23 22 20 20 24 19 20 17 14 15 16 15 15 13 16 15 13 12 14 12 11 8 10 12 17 14 12 8 17 14 14 16 
27 25 26 25 23 25 25 29 27 25 28 29 25 27 28 27 22 21 23 21 19 25 20 22 21 21 27 21 19 19 17 17 21 19 16 19 15 16 19 14 16 16 19 18 18 18 22 20 24 19 23 28 24 23 19 15 14 16 17 17 13 14 16 14 13 13 11 15 10 10 12 13 11 17 13 10 18 17 15 14 
23 24 28 24 25 22 26 29 26 23 24 24 24 23 26 27 21 23 20 21 19 22 23 22 21 21 20 18 21 18 20 16 15 21 14 22 16 17 15 15 17 17 16 16 15 20 21 20 22 21 23 22 20 17 17 20 14 18 17 12 16 14 16 16 14 13 15 9 11 11 8 10 12 12 13 12 12 12 11 15 
28 27 27 24 22 21 22 25 23 23 23 28 24 24 29 25 24 24 23 21 19 21 22 24 25 19 20 18 21 17 16 17 15 16 14 19 17 17 20 19 18 15 15 20 19 20 21 23 19 19 20 21 18 20 20 15 17 20 17 14 15 16 17 18 13 17 13 13 11 9 10 10 11 9 10 10 12 10 7 12 
31 25 25 21 23 25 25 28 21 24 25 28 24 24 27 24 21 23 25 21 21 24 23 22 23 21 20 16 18 20 19 18 17 16 19 17 17 16 20 17 18 22 17 19 18 21 22 28 23 20 18 18 19 18 17 15 16 17 13 15 15 16 16 15 16 16 17 12 12 12 13 14 12 9 10 12 11 12 14 12 
25 24 22 29 19 21 27 29 25 23 22 27 27 25 27 25 22 22 23 21 23 24 23 22 20 20 20 18 18 18 19 18 19 17 14 16 17 16 16 14 22 16 16 18 17 20 24 26 24 18 18 18 19 17 15 13 15 17 12 15 14 15 15 15 14 20 15 16 13 14 13 14 9 10 14 14 12 9 11 12 
26 23 24 26 26 23 21 25 22 21 23 25 27 24 27 26 25 24 21 22 23 21 20 20 19 20 20 19 17 16 18 20 18 19 16 19 15 16 16 18 17 19 12 21 20 22 20 22 19 18 19 18 17 15 14 17 12 14 14 14 13 15 12 16 15 15 15 9 13 11 10 11 11 11 12 12 8 9 6 14 
24 19 23 23 21 22 25 23 23 20 23 28 25 22 28 25 25 23 24 17 20 21 23 20 22 18 19 19 19 19 19 19 16 15 15 14 14 16 13 14 17 17 14 17 20 23 19 17 19 17 15 19 19 14 17 18 14 15 13 18 15 15 16 21 10 13 13 14 17 11 12 10 13 10 9 8 7 8 5 16 
25 23 22 21 19 23 24 22 21 22 23 25 29 25 28 26 27 24 25 20 21 27 24 21 18 20 14 19 24 19 16 17 19 19 15 16 13 14 16 15 17 19 16 16 17 18 21 15 18 18 14 18 21 17 18 17 17 15 13 14 15 14 15 13 11 12 13 15 12 8 12 13 10 9 8 6 10 5 6 11 
22 22 20 21 22 21 22 25 23 22 26 26 27 24 27 27 24 22 20 21 20 26 31 22 20 17 17 21 25 19 14 17 14 18 17 16 15 16 14 18 17 16 17 17 17 16 20 16 17 18 16 18 21 17 20 18 15 19 17 17 15 18 15 16 14 13 14 17 13 11 9 10 10 10 10 6 11 8 6 16 
23 22 21 23 23 22 23 21 20 22 21 23 25 24 27 26 24 25 24 21 22 22 19 20 21 19 15 18 22 18 13 14 14 14 13 14 14 14 20 14 16 15 13 16 16 18 14 13 17 16 14 15 18 13 20 16 12 16 16 11 15 16 15 18 14 13 12 10 13 8 10 9 6 9 7 9 6 8 4 7 
25 23 21 22 19 20 25 22 23 24 22 26 23 23 25 27 24 24 23 18 17 19 16 19 20 20 16 15 16 15 14 14 14 14 15 12 14 16 19 15 12 15 14 15 16 17 16 15 16 13 15 13 19 17 17 17 14 15 15 14 18 14 13 16 14 14 12 11 12 10 11 8 7 8 5 7 7 8 5 2 
27 25 20 22 24 27 24 23 23 20 25 24 24 20 25 25 22 21 21 24 22 18 19 19 20 19 19 12 16 18 15 15 15 16 19 15 10 13 16 12 12 15 13 16 14 16 14 14 17 15 14 14 20 22 13 18 9 17 12 15 15 15 16 18 14 13 16 15 11 9 10 3 6 6 6 12 7 6 5 3 
27 22 20 26 23 25 22 21 23 22 20 25 21 19 22 24 22 20 21 21 16 20 17 17 20 18 18 15 19 15 14 16 13 16 14 15 16 10 12 14 15 14 12 16 15 15 15 16 17 17 16 14 15 16 19 12 16 14 19 14 12 13 14 15 12 13 12 10 15 10 9 10 7 8 8 9 7 6 4 5 
21 18 22 26 27 25 20 21 24 22 23 25 23 22 23 23 24 18 21 19 16 21 16 18 20 19 19 17 18 16 15 15 14 14 13 13 12 14 13 12 14 12 11 16 14 14 16 14 15 18 16 16 18 19 18 18 15 20 16 13 10 13 13 14 11 13 11 11 11 10 10 9 8 9 8 7 7 9 8 6 
22 19 19 21 21 24 24 20 21 19 21 25 24 21 23 25 24 19 22 18 17 18 14 16 19 19 22 18 16 13 13 16 14 12 10 11 11 12 14 13 12 16 13 14 11 14 15 18 14 18 16 16 18 16 19 16 16 17 16 14 13 12 14 13 9 12 12 8 9 9 11 6 8 5 9 5 6 5 3 9 
21 19 19 20 18 20 19 21 22 23 24 29 24 24 27 24 20 23 23 17 18 18 12 20 18 18 16 18 15 14 11 14 12 14 11 10 10 11 13 11 13 15 12 14 13 14 13 16 20 15 14 15 19 14 15 15 9 15 12 14 13 14 13 13 13 14 10 6 9 9 15 12 9 11 7 6 6 1 5 11 
17 20 19 20 19 19 20 24 22 18 25 29 29 22 25 24 21 23 20 19 16 18 14 16 15 16 14 16 17 15 13 13 13 14 11 10 11 13 12 13 15 14 12 12 15 14 16 16 19 17 17 16 15 13 13 14 15 14 12 11 13 13 16 13 16 15 9 7 7 8 13 12 8 8 6 9 4 8 2 8 
21 17 15 18 20 17 20 23 24 22 25 23 31 23 25 20 25 21 20 18 19 17 15 14 13 15 15 15 17 13 12 13 14 12 11 8 12 12 14 12 12 13 14 14 15 16 16 18 21 19 12 15 16 11 18 14 13 15 13 12 14 14 14 12 10 18 9 9 9 10 10 7 11 7 8 10 8 7 7 2 
21 15 17 18 18 18 20 18 22 29 22 22 23 21 24 20 18 18 20 18 18 18 17 17 15 14 11 11 16 14 13 12 14 13 10 13 11 9 16 11 14 12 18 11 15 15 14 15 17 15 14 17 17 13 12 14 14 17 16 9 13 11 15 14 13 10 11 9 10 8 7 10 8 7 5 8 7 8 0 6 
22 17 18 17 16 16 17 17 21 20 21 20 22 20 22 20 18 18 17 19 22 17 14 16 16 14 14 11 15 14 14 13 13 13 14 10 12 9 16 13 15 13 16 14 16 15 13 18 18 15 16 14 16 15 10 13 12 15 15 16 13 14 11 17 11 12 13 9 12 6 8 9 6 8 6 6 3 5 9 6 


