P2
80 60
294
143 146 150 145 145 146 139 143 138 124 91 90 111 107 104 109 116 113 117 114 118 119 118 114 113 123 120 118 118 116 109 105 123 121 119 121 128 129 127 128 128 130 127 130 131 132 132 126 133 129 125 130 124 126 126 124 126 126 124 132 133 132 138 137 134 138 133 131 134 136 138 141 136 141 141 141 144 135 142 138 
146 146 151 148 140 143 135 139 132 118 71 84 106 106 104 108 117 115 116 111 119 116 119 116 115 119 122 120 119 116 109 109 115 120 119 125 129 128 127 129 130 133 129 128 128 132 130 131 128 129 126 127 125 126 130 127 128 128 128 129 137 134 134 136 137 133 135 132 136 134 136 139 138 143 144 141 144 138 139 142 
144 147 153 148 143 142 133 134 132 110 58 71 104 104 106 107 114 113 119 117 121 119 117 116 121 118 122 117 117 110 110 110 119 121 121 119 129 129 129 127 130 132 129 129 132 131 132 133 130 127 128 131 128 128 124 125 123 124 129 128 135 134 136 140 138 132 138 137 139 135 139 139 139 141 142 143 142 138 142 140 
140 150 149 144 141 142 132 135 126 99 50 62 97 108 103 109 113 110 116 113 116 121 121 114 115 116 120 116 120 110 111 109 117 117 119 118 131 129 133 128 134 131 133 129 132 135 132 130 134 130 129 126 127 127 128 128 122 125 126 134 137 138 135 137 133 134 138 137 138 139 139 142 139 141 140 142 141 143 146 140 
148 150 144 147 140 146 137 136 126 84 34 47 88 105 102 108 114 113 119 116 119 118 119 121 120 118 118 121 116 107 104 108 115 117 115 120 132 135 136 130 132 135 133 132 130 130 134 135 131 130 129 130 127 128 127 126 124 123 129 135 136 135 137 143 136 138 140 139 137 141 136 141 139 139 143 140 134 139 142 140 
145 150 148 146 144 142 135 132 118 63 29 39 83 101 102 107 114 115 118 118 117 117 119 119 119 119 119 120 113 99 107 104 120 115 114 121 131 128 132 129 132 130 133 131 132 130 134 131 130 131 128 131 126 127 129 129 127 126 131 133 137 132 136 139 135 137 136 138 142 138 142 138 137 142 141 143 138 141 138 142 
143 146 147 147 143 147 130 129 113 52 27 40 79 101 96 109 120 115 119 115 117 117 122 121 119 119 122 119 113 108 103 113 119 116 120 123 134 131 132 128 133 130 132 130 129 133 131 132 130 132 133 130 125 127 129 125 125 131 127 133 137 135 136 135 135 136 137 138 139 140 137 138 137 140 143 140 143 140 138 135 
145 148 149 141 145 148 131 130 104 45 25 42 77 92 99 107 117 119 120 120 125 118 119 123 122 123 117 116 110 106 105 114 114 116 113 127 132 133 130 128 133 130 132 130 131 133 135 132 130 130 132 132 132 127 131 130 124 129 130 133 138 137 136 133 135 139 141 139 139 137 138 141 138 140 141 139 140 138 138 136 
150 150 153 148 144 141 129 135 102 41 21 50 79 90 98 107 116 114 120 119 119 118 115 121 121 120 120 117 117 107 107 116 114 119 114 126 134 130 130 129 129 130 132 132 130 130 134 131 130 132 132 131 127 129 125 126 125 129 129 138 135 136 137 139 138 139 138 136 137 141 137 136 140 140 139 139 140 135 139 138 
146 150 147 141 144 136 131 130 103 34 29 53 80 91 98 112 117 113 116 109 114 116 113 118 117 116 118 119 114 104 103 114 116 117 113 131 132 130 128 133 129 128 134 129 133 131 128 130 132 130 130 128 131 126 126 125 125 121 128 136 134 137 138 136 139 136 138 136 140 137 139 139 138 142 141 138 142 134 138 141 
143 150 149 142 144 141 132 125 91 31 34 60 77 90 105 107 111 110 116 114 114 114 114 117 117 115 117 114 110 108 103 116 114 115 119 129 130 129 131 131 130 129 129 131 133 132 132 131 131 129 130 132 127 127 124 128 125 129 130 134 135 136 135 136 137 135 137 139 137 136 137 136 140 139 138 141 137 139 139 139 
143 149 148 144 143 138 125 123 82 17 28 53 79 87 95 107 107 106 110 114 112 114 113 116 111 116 116 116 107 106 101 116 113 113 116 125 128 127 130 130 132 128 129 129 134 132 131 132 129 130 133 128 130 128 125 124 126 127 129 132 134 136 137 136 134 134 136 138 137 134 136 135 139 142 138 143 140 142 143 136 
150 147 146 151 139 134 121 120 69 11 15 40 71 84 96 96 102 105 109 110 115 117 115 115 113 113 122 117 103 108 109 116 114 115 112 127 128 126 128 126 129 128 129 132 131 134 134 133 128 128 130 127 127 126 125 125 125 129 128 132 134 136 140 137 135 135 138 138 136 138 130 136 138 142 140 140 143 140 139 141 
141 151 149 143 141 134 119 115 59 6 11 34 56 82 89 98 96 97 104 105 114 113 110 113 111 112 116 117 98 104 111 116 114 112 119 126 128 127 128 128 129 130 131 131 130 138 132 134 132 133 130 128 124 123 124 125 126 128 130 134 135 134 136 134 138 136 139 139 133 136 137 134 136 142 139 138 142 138 139 140 
143 148 150 140 137 138 121 108 47 2 10 31 48 77 90 93 95 97 102 101 107 108 112 114 111 111 114 109 104 103 106 115 112 113 116 127 129 125 125 131 129 129 132 131 127 131 133 133 134 132 128 129 123 124 126 128 129 139 132 135 138 134 136 137 137 138 141 137 136 137 132 138 140 140 138 136 136 137 136 138 
143 149 153 146 149 137 122 107 46 0 6 27 55 74 85 89 93 94 98 105 105 109 112 116 114 114 115 112 98 103 111 114 111 112 121 124 129 128 123 129 130 131 128 128 128 131 133 129 130 129 129 129 127 128 127 128 130 134 132 137 138 136 138 137 136 139 137 143 138 136 135 139 142 140 144 140 140 141 139 134 
138 149 151 149 146 137 128 110 41 3 10 32 61 70 80 86 95 96 97 102 105 110 109 112 113 112 114 111 101 100 111 113 111 117 121 127 132 127 127 130 130 130 131 129 129 137 131 129 128 130 130 128 125 128 127 124 128 135 128 139 137 135 136 137 136 137 138 140 138 139 135 143 145 140 139 140 136 141 140 141 
131 150 151 147 144 132 127 103 32 5 12 36 58 66 74 82 88 87 96 108 114 111 112 113 113 117 112 109 100 102 113 112 114 112 121 126 128 128 129 129 131 135 128 129 133 132 128 130 130 128 128 127 123 128 130 126 129 138 135 137 136 137 134 137 133 138 136 141 139 137 139 143 142 143 142 137 140 137 140 139 
128 143 150 149 139 133 127 98 27 6 13 28 53 68 71 79 84 89 97 114 120 120 115 116 111 112 111 103 104 100 114 113 113 113 125 126 129 129 134 133 131 131 130 132 131 131 130 129 128 126 128 128 126 130 121 127 129 133 135 139 139 136 137 138 141 139 136 138 139 141 141 138 142 140 141 136 138 137 138 139 
121 140 148 142 140 134 120 93 26 6 9 23 53 65 69 75 80 86 97 116 120 124 116 112 110 113 115 107 103 107 113 113 109 111 123 127 129 130 130 130 130 133 131 127 130 131 130 128 129 129 127 128 127 125 125 125 126 129 132 134 141 136 136 139 136 136 138 140 138 141 138 140 144 139 135 137 137 137 138 142 
118 139 146 143 144 142 121 91 20 4 14 30 58 69 71 75 83 88 96 112 120 113 108 115 112 111 110 103 99 103 119 112 111 116 126 128 129 129 131 131 128 134 129 127 129 131 130 127 128 129 129 130 129 126 128 124 127 127 130 136 138 133 138 138 135 136 140 139 139 140 145 139 139 140 141 139 138 137 142 144 
121 136 145 143 142 142 120 85 11 2 13 30 59 69 68 73 87 91 105 120 119 113 111 112 110 111 112 96 99 98 115 113 108 118 124 128 127 126 130 128 132 131 130 128 125 130 127 129 126 127 127 129 123 125 125 126 125 129 132 135 138 137 137 137 137 137 139 140 140 144 138 139 139 139 142 139 141 142 142 141 
125 135 142 140 141 137 116 76 9 4 11 35 62 68 70 82 96 98 103 113 115 119 113 107 108 110 112 98 95 104 114 115 112 118 127 127 128 127 131 129 129 130 130 126 124 128 129 129 129 129 128 129 127 125 128 123 126 128 132 137 141 137 136 136 139 141 139 138 139 139 140 140 141 139 137 139 140 139 140 139 
121 131 144 140 139 132 107 78 11 7 11 31 60 68 75 87 95 98 102 107 114 121 114 113 108 107 112 95 95 105 112 112 110 121 128 129 129 128 128 129 128 132 128 130 128 129 129 131 131 131 129 127 127 126 124 122 129 130 131 135 136 137 139 141 139 137 142 140 139 142 139 142 140 140 141 143 138 141 145 145 
125 135 141 140 139 128 99 68 12 9 16 39 62 71 75 87 93 96 103 102 112 122 117 112 109 106 113 92 89 106 111 109 109 120 130 128 129 128 130 128 129 128 130 129 129 128 128 131 131 129 127 129 125 127 124 125 130 129 134 137 137 138 138 138 138 139 141 142 141 139 140 139 140 145 141 142 141 139 151 144 
117 131 143 134 138 128 93 64 11 17 29 44 63 70 80 93 96 95 102 104 113 118 118 117 108 108 111 93 89 104 110 109 110 118 126 128 132 130 129 129 128 129 131 130 131 132 132 131 130 130 127 126 124 128 121 123 128 130 133 139 138 139 139 139 140 141 141 139 142 140 140 139 141 142 145 140 141 140 145 144 
117 132 139 134 136 127 89 51 16 18 28 47 67 74 79 93 94 99 103 105 109 117 123 119 106 108 108 95 88 107 110 109 108 120 125 128 129 128 128 128 128 129 132 131 132 131 131 129 130 129 124 126 124 120 123 125 128 130 134 139 138 141 137 139 139 138 141 142 136 139 136 139 139 141 140 140 142 140 141 138 
121 137 138 136 135 121 81 49 27 25 32 51 62 69 79 88 97 100 104 105 107 113 121 115 108 106 108 97 91 111 109 110 108 122 128 127 128 128 128 131 129 129 132 129 129 130 132 127 130 128 128 126 122 121 122 126 127 130 131 138 142 137 138 140 139 141 140 144 140 145 140 139 140 145 141 140 140 139 143 142 
124 135 136 133 133 118 77 44 31 31 35 50 65 71 70 84 91 92 100 106 103 104 103 104 106 108 105 96 91 108 107 110 110 122 127 126 128 128 134 135 133 129 132 129 131 130 132 129 128 128 129 124 122 124 124 125 128 126 132 136 140 136 140 143 138 140 141 142 141 142 141 141 139 144 146 143 142 143 141 140 
123 129 141 133 125 117 77 46 38 36 35 49 61 69 68 78 89 92 97 101 103 101 101 101 104 102 101 95 86 107 104 109 108 121 128 129 131 129 130 129 133 132 130 130 130 133 130 129 128 130 128 128 125 123 122 124 128 134 134 138 140 137 139 139 140 140 148 144 139 144 142 141 140 144 145 144 140 143 145 140 
90 110 122 118 119 100 77 42 38 33 36 49 60 62 70 80 87 89 92 98 97 100 99 103 103 102 103 94 87 105 105 106 106 123 130 130 129 131 131 130 130 134 133 132 130 132 128 127 129 130 125 126 123 123 123 124 132 133 132 137 140 138 138 142 138 139 143 146 141 142 142 143 140 144 143 139 141 141 142 141 
78 90 92 86 81 86 70 34 31 36 40 48 58 68 66 79 86 84 85 90 94 93 98 99 103 106 98 98 91 106 102 106 104 121 126 131 133 129 130 132 131 133 132 133 131 133 131 132 128 131 128 126 124 124 125 127 132 133 133 137 143 137 144 138 139 141 142 143 142 145 140 142 140 144 143 142 139 142 143 138 
73 76 80 66 67 76 69 31 25 34 37 48 54 61 64 72 81 80 84 84 91 91 95 102 102 100 100 100 90 101 102 102 109 122 125 132 128 130 130 131 133 131 134 131 132 133 132 130 128 129 127 128 123 122 122 126 130 133 133 137 143 139 142 142 141 142 143 145 140 144 144 141 143 145 144 140 146 140 143 140 
66 71 75 63 65 71 60 25 14 30 39 51 53 60 58 76 81 76 73 81 86 89 93 96 96 92 87 90 85 96 100 97 108 121 125 128 129 128 128 133 133 131 133 132 132 130 130 132 129 128 129 131 125 126 126 126 132 131 137 141 141 143 139 142 143 141 148 145 143 143 141 143 138 142 145 145 141 141 141 142 
54 63 70 56 61 63 55 10 6 21 36 53 54 58 60 73 81 74 92 92 101 96 104 95 101 110 96 89 91 93 89 94 104 123 127 132 129 128 132 136 143 133 133 131 132 135 133 128 130 129 130 132 129 128 136 129 135 137 137 141 144 144 141 143 143 143 144 146 146 143 143 143 143 144 146 142 143 143 141 144 
41 57 57 53 54 65 43 18 15 34 40 50 55 55 56 71 77 88 127 133 132 134 138 138 132 130 124 94 87 85 87 92 108 120 127 127 133 132 139 144 139 137 134 130 132 135 138 138 134 134 133 136 139 136 138 140 141 141 143 145 141 143 144 146 144 143 146 147 145 146 145 145 145 144 143 141 143 143 143 145 
35 50 42 50 48 55 37 18 23 39 46 49 48 54 53 65 74 107 138 138 144 145 142 147 140 145 142 128 89 89 83 86 105 118 124 128 130 137 186 202 175 138 139 136 134 135 136 135 133 136 133 140 166 173 171 161 146 142 145 151 148 144 146 147 146 147 148 147 144 145 144 144 146 144 147 146 145 145 145 142 
37 46 46 43 48 48 17 16 28 42 46 45 51 50 48 54 80 133 137 141 145 146 150 147 142 141 146 136 94 87 82 86 102 121 123 129 127 142 211 246 184 148 149 141 138 139 133 135 131 133 130 135 176 179 192 191 193 184 169 163 155 149 150 151 147 151 149 147 147 146 146 145 146 143 148 145 141 144 147 143 
28 35 41 38 36 40 27 24 36 41 43 48 51 53 54 63 105 134 140 148 143 149 150 150 150 148 151 142 106 82 76 81 98 117 125 126 130 138 194 219 181 147 152 140 138 137 133 129 129 130 131 144 179 190 192 200 204 206 205 204 182 167 156 154 152 152 151 148 147 147 145 146 145 150 146 147 145 145 148 146 
28 32 35 29 28 39 51 69 61 51 45 51 54 51 54 77 129 135 144 145 149 153 150 153 151 148 152 145 124 84 79 81 100 120 119 124 133 143 177 189 179 149 137 138 136 134 135 130 131 129 132 149 188 186 201 202 205 210 211 210 204 184 183 176 160 154 151 148 145 147 151 148 146 150 145 149 145 146 151 152 
26 32 33 30 30 47 59 83 79 60 45 48 48 57 63 113 136 139 150 146 147 147 150 151 153 154 155 144 135 95 78 83 99 120 119 126 133 152 167 173 175 172 140 133 133 135 132 132 130 133 135 167 189 197 202 212 209 214 214 213 207 188 187 188 191 183 167 155 153 153 146 152 144 153 150 152 149 149 153 154 
37 45 44 36 48 53 61 78 64 58 44 44 49 65 105 130 141 140 148 150 145 152 148 150 151 152 154 149 137 113 82 85 102 122 119 129 140 151 163 165 164 173 150 134 133 135 136 136 134 132 135 171 192 193 205 208 213 218 218 217 209 190 191 189 194 201 199 190 170 159 155 153 154 154 150 149 154 153 151 150 
57 60 61 51 57 56 60 76 74 59 58 59 65 97 130 136 143 133 150 148 149 151 149 153 151 152 156 140 140 137 100 85 106 120 121 132 139 143 149 148 145 146 138 131 132 135 133 143 138 135 140 182 192 199 210 213 219 221 224 222 210 193 194 197 200 202 208 206 201 188 168 160 150 150 145 150 152 150 151 147 
96 90 95 86 90 87 78 87 88 79 81 83 91 126 136 129 132 129 145 152 151 152 152 153 152 153 151 140 140 143 123 104 108 119 123 129 137 136 138 138 133 134 130 126 128 133 138 145 143 145 151 194 197 203 213 215 218 223 220 219 211 195 194 194 204 207 206 206 203 199 189 181 157 154 147 141 142 149 150 147 
104 106 106 100 102 103 99 104 103 109 108 108 121 138 139 124 126 128 149 150 154 151 152 158 157 155 150 131 130 146 144 133 118 125 126 130 132 133 136 131 132 129 134 127 130 137 140 146 143 150 164 204 209 211 212 212 227 226 225 221 209 199 197 202 207 209 213 206 207 201 196 187 161 153 147 143 143 144 144 149 
99 104 106 97 103 98 99 104 105 108 106 111 127 140 144 136 124 129 150 151 152 154 153 154 153 148 146 133 128 141 145 136 131 127 124 126 128 127 131 132 130 131 130 132 134 137 137 135 138 144 165 227 219 213 219 213 230 233 230 226 209 204 200 204 206 212 214 207 211 205 194 185 158 154 149 145 142 146 146 142 
103 107 103 98 101 101 98 103 97 101 103 112 134 143 143 140 127 137 151 149 150 152 152 152 151 150 149 134 133 143 145 142 134 130 126 125 124 125 135 130 139 134 137 133 132 134 134 137 137 144 154 207 236 232 232 224 238 241 236 237 215 201 202 205 214 215 220 211 208 205 198 182 157 150 149 147 147 142 148 143 
102 105 104 95 100 100 96 100 99 99 101 103 132 143 142 142 140 147 153 148 153 150 154 151 149 151 152 143 137 148 144 144 136 134 129 130 135 133 132 136 141 141 142 142 137 133 135 132 137 139 144 154 179 229 252 249 253 254 249 244 221 206 202 210 216 217 226 216 207 203 197 177 156 153 148 143 144 144 146 144 
97 101 103 100 102 102 99 102 97 99 101 106 116 144 143 151 148 149 152 151 150 153 157 156 152 153 153 149 148 150 146 147 136 131 125 129 131 134 138 138 140 142 145 143 146 138 133 128 136 142 149 149 149 166 209 266 281 276 265 256 227 215 213 217 217 223 230 219 211 208 198 182 155 152 147 149 147 143 142 141 
96 103 104 103 105 101 98 98 102 101 103 106 120 137 145 146 152 149 153 152 151 153 154 152 151 151 151 152 146 149 147 145 143 127 123 123 126 127 130 131 133 132 131 134 137 135 131 131 143 143 146 152 148 146 162 189 252 294 288 280 233 217 216 218 222 226 228 222 218 211 196 175 159 151 145 150 145 144 145 144 
100 104 105 103 103 102 97 101 102 102 100 106 115 139 137 145 150 148 153 149 154 151 153 151 153 148 155 148 151 146 142 142 140 133 130 124 129 125 126 126 127 126 135 130 135 136 133 134 137 141 139 143 145 146 147 149 166 225 271 275 238 224 217 216 224 225 228 224 217 205 195 168 156 153 148 150 146 144 145 143 
100 102 102 105 103 104 96 100 102 103 97 101 114 134 143 146 148 147 155 149 153 152 154 154 152 149 150 150 143 144 145 139 138 134 134 126 136 132 133 135 134 129 132 136 140 137 137 137 139 141 140 141 142 145 150 147 150 161 183 220 226 229 228 227 228 231 232 226 224 214 194 169 154 151 152 151 146 144 147 145 
97 99 104 101 103 100 97 101 98 97 100 99 110 138 142 150 147 149 156 152 153 151 153 154 149 152 154 147 145 143 141 137 138 140 136 134 140 141 145 139 142 133 133 138 136 141 142 138 141 143 142 146 143 141 145 146 148 152 161 166 190 219 231 234 230 236 236 227 225 216 198 166 154 151 151 147 148 144 148 148 
92 95 98 101 104 106 97 104 99 101 94 106 116 142 142 143 148 148 150 148 153 157 152 158 151 150 152 147 143 141 142 135 134 140 137 138 144 150 151 148 150 138 143 139 138 140 144 145 147 146 146 145 146 151 148 146 156 150 149 153 157 173 214 240 239 240 238 229 227 221 196 170 153 151 147 146 149 147 143 146 
94 97 101 98 103 101 97 100 97 106 118 124 124 143 144 147 149 148 151 152 151 152 154 154 153 152 156 146 145 140 141 134 130 133 140 137 143 148 155 155 153 150 146 140 139 140 141 148 152 151 149 152 152 165 175 149 146 148 151 151 154 151 166 213 246 249 248 240 230 229 189 165 148 148 148 146 144 145 147 148 
93 96 98 99 101 100 93 103 100 111 133 135 140 142 142 143 149 150 153 148 153 151 154 153 152 154 154 149 145 142 140 131 129 134 142 146 150 151 159 154 154 148 146 144 145 144 147 146 152 157 152 156 159 159 178 180 151 148 145 151 150 149 150 167 213 249 257 250 242 234 195 166 150 148 150 147 149 141 150 151 
98 97 101 95 97 97 90 96 100 125 138 139 146 140 141 142 147 146 153 151 149 151 153 151 146 147 149 148 143 142 138 135 136 133 140 146 158 148 163 153 156 154 152 145 150 148 148 149 153 155 156 159 161 160 166 166 159 154 149 151 148 145 144 145 160 207 250 257 251 242 191 160 149 152 150 151 148 146 149 153 
93 97 93 95 97 99 91 100 99 125 141 145 140 140 137 145 139 143 147 147 148 147 149 150 145 148 149 143 142 141 138 135 130 135 136 150 153 151 161 163 159 163 156 150 152 149 154 154 152 157 156 159 156 156 161 159 163 172 169 163 151 145 143 142 147 162 202 250 252 239 184 157 148 155 150 148 149 141 149 143 
97 96 92 95 92 99 94 97 102 130 143 137 132 139 138 138 138 139 140 142 142 144 147 149 144 145 149 141 139 139 138 138 128 131 134 145 149 149 157 162 161 163 164 152 153 153 152 151 154 153 159 161 160 156 160 160 170 174 184 173 152 143 140 143 148 152 155 197 236 230 173 155 150 148 150 147 145 140 145 142 
91 96 100 97 97 99 95 96 94 124 141 138 132 135 136 135 139 138 143 143 141 139 148 142 143 142 142 138 136 133 136 126 129 129 137 147 157 150 154 163 165 167 160 156 153 154 155 152 148 150 150 158 157 160 160 158 165 169 172 167 150 143 142 142 145 143 147 158 182 176 157 152 146 150 147 150 146 142 146 146 


