P2
80 60
36
16 21 19 17 18 17 17 15 15 20 18 18 18 17 17 17 17 17 15 16 18 23 17 19 15 18 22 18 18 21 20 17 18 21 21 21 20 23 18 20 20 20 18 21 20 20 22 19 24 22 18 19 21 22 24 23 22 20 21 22 18 19 21 17 15 18 13 9 11 14 9 12 15 11 11 5 6 8 11 8 
17 20 19 17 17 20 17 21 18 19 19 16 20 18 19 15 18 18 17 19 20 20 17 19 15 18 25 19 18 21 21 18 19 20 20 20 20 20 21 20 21 21 21 20 20 21 21 22 22 20 20 19 20 21 24 24 25 24 21 20 16 19 15 15 16 13 11 8 8 10 10 15 11 10 11 11 8 8 14 11 
22 21 20 17 17 19 15 21 17 18 19 17 20 17 18 15 15 18 17 17 27 25 19 18 21 17 25 20 22 23 19 19 21 22 22 21 19 23 21 20 21 19 23 21 24 19 23 26 24 21 20 18 20 22 21 20 22 21 21 21 16 18 14 18 19 12 12 12 7 11 19 15 15 9 12 10 7 12 14 11 
21 18 20 16 21 16 12 17 18 20 25 18 19 18 17 14 17 17 17 19 21 23 24 22 22 19 26 21 20 19 21 17 20 22 22 20 24 24 22 20 22 22 21 20 23 21 26 22 28 24 21 20 21 20 23 22 19 16 19 19 23 19 20 14 14 13 13 7 10 11 13 18 16 12 11 11 10 11 15 11 
22 18 18 17 20 20 15 15 14 23 18 17 20 20 19 19 19 15 17 18 19 22 18 23 21 22 25 18 18 19 20 16 19 19 18 22 23 24 26 19 22 21 24 21 19 25 25 22 25 21 20 22 22 24 24 20 18 17 21 23 22 18 19 16 16 17 17 12 11 15 14 10 15 11 10 13 12 7 11 11 
19 18 19 19 21 18 21 19 20 19 17 21 20 20 20 16 20 18 18 21 21 25 24 20 22 20 24 21 20 21 22 17 18 18 21 21 23 24 22 21 19 21 23 23 21 21 32 23 22 23 24 22 24 20 21 26 19 20 24 22 22 19 18 18 21 19 15 14 18 11 14 18 14 10 11 15 12 8 8 5 
20 17 22 20 22 20 17 20 20 21 20 21 23 21 20 18 25 18 18 21 22 25 21 20 21 23 24 22 21 23 22 18 17 22 21 20 26 25 22 22 22 21 21 23 23 26 25 23 27 22 23 23 24 25 20 25 24 23 26 22 18 17 19 18 17 19 13 18 16 13 13 14 11 11 10 15 14 10 13 9 
21 25 25 21 23 23 19 21 20 21 22 20 21 20 20 21 20 20 20 22 25 23 21 21 22 24 23 19 22 22 20 19 17 20 21 23 22 24 21 20 22 21 22 24 24 22 26 24 22 24 24 22 26 23 23 28 24 21 24 23 21 23 21 16 17 19 15 15 15 15 14 14 13 10 12 8 10 3 13 10 
20 24 26 21 23 19 19 24 21 24 21 21 22 22 21 20 21 23 22 21 21 22 21 20 21 25 23 20 22 21 20 15 18 23 21 22 22 25 23 21 20 21 22 23 21 25 23 23 21 25 23 24 23 24 21 25 19 18 20 22 19 21 22 15 19 20 17 22 14 17 15 16 15 14 14 13 6 9 13 14 
21 25 25 22 18 21 19 22 20 22 22 20 23 21 18 21 23 18 19 20 24 22 19 20 19 21 22 22 21 21 20 16 20 21 21 20 23 22 21 21 20 20 20 22 21 21 25 22 24 22 23 21 23 21 25 24 19 16 21 21 20 20 21 17 16 18 21 17 15 13 13 15 16 11 9 9 7 4 11 10 
20 22 21 20 24 24 24 25 23 23 21 22 21 21 20 18 20 18 20 18 21 20 17 19 20 22 23 22 19 19 21 19 22 23 22 21 22 25 23 21 22 21 20 19 23 23 23 25 23 22 23 22 22 21 21 24 21 19 23 19 19 21 21 21 14 20 17 17 12 14 11 14 13 13 9 13 12 8 17 8 
20 26 27 25 24 23 20 21 19 25 21 21 20 18 21 17 19 16 17 19 19 23 18 20 19 22 22 23 22 20 21 20 22 24 22 24 20 24 21 21 25 21 22 24 22 23 25 24 23 22 21 22 21 17 22 22 22 18 18 20 17 23 20 18 19 16 16 16 15 11 10 12 14 13 12 18 14 13 11 7 
22 24 30 28 26 21 24 21 16 22 22 20 20 18 18 20 20 15 17 19 21 24 22 22 21 21 26 22 20 22 22 21 26 25 17 21 22 21 23 20 22 22 22 23 27 23 28 23 24 23 22 21 21 18 23 22 22 22 20 21 19 17 24 18 17 16 16 14 12 14 3 13 13 13 16 16 8 15 15 9 
20 27 28 27 27 25 18 18 19 18 19 20 18 20 18 22 17 17 18 18 25 23 19 21 20 20 21 17 19 21 19 17 20 24 21 19 22 21 23 19 22 22 21 21 22 26 28 22 27 26 25 22 19 20 23 25 22 23 22 22 20 19 20 17 20 18 15 10 9 14 16 9 16 14 13 10 9 12 13 4 
22 25 25 24 25 24 20 20 19 19 19 17 20 19 16 16 20 17 17 17 20 18 18 22 22 20 21 22 20 21 19 18 18 23 19 20 21 21 21 22 20 23 23 22 22 23 24 23 24 25 26 23 22 23 23 26 24 32 21 22 16 21 20 19 17 19 18 18 14 12 11 14 16 15 13 12 10 11 11 9 
22 25 28 24 24 19 19 21 24 19 20 18 20 18 16 21 20 18 15 17 20 24 20 19 18 22 22 21 19 18 21 20 18 22 22 22 21 20 18 22 22 23 23 22 22 22 28 21 26 27 24 23 25 23 24 26 24 24 26 23 21 22 22 17 19 20 18 18 14 15 11 13 17 13 12 12 12 13 11 8 
26 27 26 23 26 19 21 21 19 19 20 21 21 19 17 20 19 20 16 17 19 24 18 21 21 21 23 21 19 18 21 20 20 26 24 20 18 22 22 22 21 22 22 21 18 23 26 22 24 23 22 23 23 22 25 24 22 24 26 25 21 20 17 17 19 18 16 15 15 11 13 17 36 13 11 13 8 12 12 10 
27 25 25 24 25 23 24 22 17 18 21 20 22 19 17 19 18 17 20 19 18 24 18 20 22 18 23 21 19 18 23 20 23 24 20 21 23 23 20 25 23 23 21 20 20 23 20 19 21 23 19 21 23 23 25 25 22 29 24 23 23 21 16 15 17 19 15 13 13 18 12 20 20 14 5 14 11 10 13 10 
23 27 26 26 24 24 24 23 19 19 17 21 20 18 17 20 23 22 20 20 20 24 21 24 26 24 25 20 21 19 22 21 22 26 25 23 24 24 26 25 24 21 24 24 20 22 20 21 23 18 20 22 26 24 24 26 24 22 27 23 20 22 16 19 19 21 16 17 17 18 15 15 17 12 11 15 11 12 13 7 
21 28 29 25 25 22 21 19 21 21 19 21 23 20 22 20 22 20 20 19 19 28 27 25 25 25 29 20 23 21 23 22 20 21 23 22 22 25 22 23 24 22 22 21 21 22 21 22 22 20 23 22 23 22 22 25 21 20 22 23 23 18 16 15 17 21 16 16 17 17 14 14 16 13 7 12 10 11 9 9 
24 25 27 24 25 23 22 20 18 21 25 22 24 24 22 20 24 22 17 16 18 25 27 28 23 21 28 17 18 23 20 20 21 24 22 22 22 20 23 21 21 26 22 21 21 22 23 19 21 24 21 23 24 22 22 22 20 18 20 24 21 20 19 14 16 17 17 16 17 14 16 16 14 12 9 13 9 9 17 13 
22 25 24 26 29 22 23 18 19 20 20 23 29 23 21 22 23 20 20 18 19 24 23 22 21 22 25 21 20 19 21 20 21 24 25 23 22 23 23 19 20 24 23 18 18 22 23 21 24 22 24 21 24 22 23 22 21 18 22 21 20 21 18 20 17 19 16 17 17 20 17 14 17 12 8 15 8 9 12 10 
21 24 23 31 26 22 22 21 20 20 20 25 27 24 19 21 24 21 20 19 21 24 22 21 20 24 29 23 22 20 21 17 20 20 18 23 21 23 24 23 19 21 20 21 20 20 22 23 22 25 22 23 22 24 23 22 21 19 21 24 23 24 20 16 19 23 18 19 14 18 15 18 19 14 9 12 9 12 13 12 
24 30 27 24 25 21 23 22 18 19 20 22 21 24 19 21 23 23 20 19 20 24 22 19 21 20 26 27 23 22 22 18 19 21 22 20 20 22 21 23 18 22 20 19 19 20 21 22 20 25 23 20 25 22 21 22 20 19 22 20 21 22 20 21 20 22 21 16 16 17 18 15 17 17 13 13 10 12 13 17 
21 26 21 19 21 21 21 22 19 21 20 22 23 22 21 19 19 18 17 19 24 20 20 22 20 21 24 24 22 19 19 20 17 19 21 20 22 23 19 21 22 19 20 21 22 22 23 21 21 22 20 21 21 24 23 19 20 20 21 21 17 22 21 14 19 21 22 17 17 18 16 16 15 15 12 12 11 11 15 14 
20 27 25 21 22 23 22 19 20 19 18 20 23 21 23 20 21 20 20 21 21 21 21 23 22 21 24 20 19 21 20 17 20 20 18 20 21 23 19 22 19 22 19 21 21 24 23 23 23 23 20 22 21 23 22 20 19 19 20 22 18 20 20 17 21 21 22 15 18 14 17 17 15 15 13 15 9 14 13 16 
21 21 24 23 24 25 24 20 17 23 20 20 25 24 20 20 21 22 19 20 19 23 26 22 25 25 23 20 17 20 20 16 19 21 22 16 22 21 19 19 20 22 21 19 23 23 23 24 25 21 22 21 22 21 19 23 19 19 19 23 20 21 20 16 18 21 20 18 16 16 17 17 18 16 11 8 8 10 16 14 
22 25 24 22 25 23 22 22 19 21 18 21 23 22 23 21 23 20 20 24 22 24 22 22 28 23 26 24 21 21 22 20 20 18 20 20 22 22 19 22 20 20 22 20 21 23 26 21 25 23 22 20 20 21 21 22 20 17 19 23 21 19 21 18 17 20 21 20 19 28 16 17 15 15 14 13 12 12 13 12 
23 27 25 24 24 24 23 24 20 20 19 20 23 21 21 20 22 20 19 23 22 25 24 22 24 23 23 25 21 19 19 22 19 20 20 20 19 20 22 21 19 19 22 24 21 21 25 21 23 22 22 16 22 19 20 21 21 18 20 19 18 20 21 16 17 23 20 19 16 17 17 17 15 13 14 14 15 12 12 13 
25 27 26 25 24 27 22 22 25 24 21 19 21 23 19 18 23 20 16 18 21 24 23 26 27 21 27 24 20 17 20 21 16 19 23 20 19 25 21 22 22 21 22 23 22 25 25 23 22 21 21 21 21 19 22 22 19 19 21 21 20 20 19 20 20 20 22 18 14 17 17 16 15 13 16 20 12 14 10 12 
22 28 26 25 26 21 24 24 22 24 20 21 22 23 20 21 25 20 18 21 19 24 24 27 23 26 25 23 25 23 22 18 20 21 22 22 21 21 23 22 21 23 25 21 24 23 24 26 22 22 20 21 22 22 21 24 20 17 20 22 20 20 22 20 18 19 17 19 15 19 19 21 15 17 14 14 9 10 14 12 
25 28 26 25 30 23 23 23 19 21 23 21 22 22 19 22 27 23 18 17 21 24 21 23 23 25 28 25 24 19 23 21 19 22 20 19 23 22 22 23 25 24 24 22 20 25 26 24 24 26 22 19 24 21 23 22 20 19 20 19 18 22 20 17 17 19 18 17 19 19 19 16 16 10 13 13 11 13 14 10 
23 24 26 25 25 23 23 22 19 17 21 20 22 21 20 21 27 23 16 20 22 22 22 24 25 25 26 23 21 21 24 18 19 19 21 20 21 23 21 23 23 24 25 22 20 23 25 25 23 23 21 23 25 21 21 24 19 19 19 19 22 19 21 20 20 20 19 21 23 18 17 15 15 11 14 12 12 13 13 9 
19 27 28 27 25 20 20 23 22 22 22 22 20 19 20 22 25 23 20 23 20 23 21 22 24 26 25 23 21 24 23 19 18 21 20 20 19 22 24 24 23 24 25 22 24 24 23 25 27 22 21 20 21 22 21 24 21 17 19 18 19 23 17 17 23 23 17 18 18 19 18 11 16 13 10 11 10 14 14 8 
21 28 29 26 26 23 23 23 22 26 23 24 23 20 18 20 23 24 20 22 24 26 25 24 25 24 23 21 23 23 21 21 21 22 25 19 25 21 21 25 26 25 23 23 25 27 27 22 24 22 21 24 25 21 23 24 19 23 20 24 19 23 18 19 20 19 20 21 19 18 18 17 16 14 10 16 9 9 16 10 
28 28 29 27 26 21 24 24 23 25 25 23 26 21 22 19 24 26 22 23 28 27 24 26 25 23 25 24 22 21 24 21 25 22 25 23 23 22 24 26 23 19 22 22 24 22 28 27 24 24 22 23 27 18 23 23 21 19 19 23 17 22 19 20 20 19 22 20 18 16 14 17 17 16 13 12 10 16 14 9 
23 30 31 24 27 27 24 24 21 22 26 22 22 21 21 20 26 24 22 21 25 25 24 22 26 24 24 23 24 23 22 20 21 21 25 18 23 24 22 21 26 22 22 22 23 23 25 24 24 24 24 24 25 24 23 23 22 19 24 23 20 17 18 18 20 23 18 15 19 17 17 18 20 15 16 17 13 13 17 13 
25 30 26 26 27 28 27 26 24 21 25 23 26 22 23 22 24 26 21 21 25 27 23 21 26 24 26 23 20 22 24 22 21 26 23 23 21 26 23 25 23 22 24 22 23 24 25 24 26 27 25 23 26 22 23 27 23 21 23 24 19 20 21 16 19 24 21 19 19 20 17 17 18 14 12 15 13 14 14 16 
24 25 35 28 25 27 28 24 25 26 26 24 27 23 21 23 23 25 21 26 25 27 25 27 26 27 28 21 20 22 25 22 25 27 26 22 22 23 23 22 20 24 24 21 23 25 25 26 25 26 27 23 25 26 27 24 20 20 22 22 19 20 19 20 20 21 20 17 19 18 17 15 14 14 16 14 12 17 18 15 
24 32 26 27 27 24 26 24 22 25 31 30 27 23 20 22 24 22 23 19 24 29 21 27 28 29 26 25 21 25 23 22 22 24 24 21 21 27 24 25 24 23 24 25 22 26 24 22 25 26 20 27 30 24 25 24 22 20 17 23 17 21 18 19 21 23 21 17 16 20 18 14 15 14 16 17 16 16 19 16 
25 28 29 26 26 28 23 22 24 21 26 20 25 25 19 23 21 23 23 22 30 27 24 24 25 25 29 25 25 21 21 21 23 26 25 23 24 23 24 23 21 27 21 24 22 27 28 27 26 25 30 29 28 30 27 26 23 20 20 21 16 21 19 15 20 18 17 19 19 16 19 19 12 16 11 16 14 13 24 14 
27 31 32 25 25 24 23 25 24 22 23 23 25 24 23 24 26 22 23 24 26 30 24 26 26 28 30 25 25 21 23 21 20 27 21 22 25 25 21 24 21 24 23 27 25 26 30 25 27 26 27 25 28 25 25 26 26 21 19 21 18 20 21 21 21 21 19 18 16 17 15 14 18 16 16 13 14 15 18 17 
26 28 34 26 24 23 22 24 23 25 22 22 25 26 20 24 21 25 21 22 29 27 24 26 25 24 27 26 21 23 23 21 22 24 25 26 25 24 24 23 24 22 24 25 21 25 33 27 29 27 25 24 25 22 24 23 24 18 22 26 22 24 23 22 22 19 16 16 14 19 17 14 15 13 15 17 13 16 23 19 
27 27 30 25 25 25 22 24 21 24 23 25 26 25 24 23 26 22 22 23 23 24 29 26 23 25 28 23 24 23 24 22 21 26 22 24 24 24 24 25 23 27 25 23 24 26 27 35 28 27 27 26 27 24 26 24 20 19 19 22 23 23 21 21 21 22 19 15 18 14 17 14 15 15 15 15 14 16 19 16 
22 23 25 22 23 21 21 21 21 23 24 23 27 25 24 23 25 22 20 22 25 22 25 23 23 27 26 24 22 23 24 23 19 25 26 24 23 25 24 23 25 23 24 23 25 27 30 30 28 27 26 26 25 23 25 23 22 21 22 21 18 21 20 18 20 22 21 18 17 16 17 15 20 13 13 13 15 15 16 15 
24 26 26 24 28 21 22 24 21 23 23 25 27 27 27 23 26 22 22 23 22 24 22 23 24 25 24 23 22 23 25 22 21 20 25 25 24 25 23 25 23 23 25 24 26 28 29 27 27 27 25 23 24 23 24 23 21 21 21 22 21 23 23 22 21 22 21 22 17 15 18 17 16 14 19 15 18 15 16 11 
23 29 29 24 23 24 25 24 20 23 24 24 28 26 24 23 26 22 23 24 27 29 26 24 25 26 26 26 23 22 22 19 24 24 23 25 26 26 24 23 23 27 27 23 23 27 28 25 28 26 24 24 26 22 25 25 22 21 23 22 19 24 21 19 18 19 20 19 17 17 15 18 20 17 15 15 14 15 17 8 
23 29 28 25 24 24 23 25 21 23 23 23 28 25 24 24 26 24 23 24 24 29 28 27 26 23 27 25 24 25 26 21 22 26 20 24 25 26 26 27 23 26 24 24 27 25 31 23 27 24 27 24 25 26 23 25 21 21 22 22 21 22 20 22 17 18 17 21 17 16 16 17 17 15 15 14 14 12 18 12 
23 30 22 24 25 24 23 25 22 23 24 24 28 28 24 23 23 23 24 22 26 26 32 31 31 26 26 25 27 23 24 20 22 24 21 21 22 29 22 25 24 23 24 23 27 26 30 24 28 25 25 22 21 24 23 27 24 19 21 23 20 25 19 19 20 20 16 14 19 14 15 15 18 15 14 16 11 12 18 13 
18 25 25 23 27 24 25 22 20 22 20 24 26 26 29 27 23 21 26 22 23 27 27 27 30 25 27 23 24 24 23 21 20 23 23 25 24 25 25 22 24 21 22 23 26 27 27 23 24 25 20 20 26 26 24 25 21 18 21 26 18 24 18 15 18 20 16 18 16 15 14 16 14 17 15 13 12 12 14 14 
21 26 26 25 28 24 22 23 20 24 21 22 23 27 23 22 25 25 23 26 23 24 22 28 25 26 26 23 24 24 22 19 21 25 25 25 23 22 25 25 22 23 23 25 26 26 26 26 26 23 25 20 23 24 26 26 21 20 20 23 23 23 21 20 17 17 19 19 17 16 18 16 17 17 13 14 8 11 8 10 
25 24 29 28 27 24 19 25 20 20 24 21 25 25 23 23 26 25 25 24 27 26 25 25 29 27 27 20 23 22 25 21 20 25 27 23 23 21 21 24 20 23 22 26 24 24 27 25 24 27 24 25 22 23 25 25 25 19 23 23 19 18 21 18 18 21 18 17 17 16 14 17 20 17 14 14 8 15 10 9 
23 25 28 24 27 27 24 23 18 23 25 25 26 25 22 23 21 24 23 22 24 26 26 27 30 26 28 26 23 23 23 23 20 22 24 22 21 24 22 22 24 23 23 19 19 23 26 25 26 26 22 23 25 26 27 25 25 23 28 23 22 22 20 17 16 21 19 13 13 14 13 16 19 18 9 11 9 10 12 9 
26 28 26 25 31 26 27 26 18 21 25 20 29 26 23 27 24 24 23 24 24 28 25 32 27 26 32 25 25 24 24 25 23 24 23 23 20 25 23 23 23 23 21 21 22 22 27 25 24 27 24 24 27 26 25 27 25 21 20 26 23 21 19 17 17 19 20 18 16 15 18 16 21 19 10 13 12 6 13 10 
27 29 24 23 27 26 23 26 21 27 26 24 27 24 25 24 25 24 20 22 24 27 25 31 28 30 32 25 24 25 24 20 24 23 24 25 24 23 24 24 23 22 22 23 22 21 27 24 25 24 26 27 26 27 28 25 23 23 22 23 20 23 21 15 17 21 20 17 17 18 17 19 16 12 12 11 8 8 12 13 
25 25 25 24 24 23 21 22 21 26 27 25 27 29 26 23 25 18 26 23 27 26 24 27 27 28 31 24 21 24 23 20 22 25 24 23 21 25 24 24 23 21 22 26 25 22 27 24 23 25 26 24 26 24 26 24 22 25 23 26 18 21 19 19 22 20 20 16 17 16 21 18 14 11 14 16 8 0 10 8 
16 25 27 23 26 26 24 22 21 25 23 24 34 27 23 25 25 23 25 28 26 29 25 25 26 26 22 25 23 21 23 19 22 24 22 21 23 22 22 23 20 22 23 24 22 25 30 27 28 23 25 24 25 24 24 23 24 18 21 22 22 20 22 19 19 21 16 16 15 14 12 14 12 12 11 13 8 8 10 6 
22 24 25 24 27 23 22 24 24 27 25 27 29 28 27 26 27 26 23 22 26 28 25 26 24 25 23 23 21 23 23 20 21 22 23 21 21 27 22 23 20 19 23 23 27 24 28 31 27 27 24 25 24 24 23 22 22 22 23 23 23 22 20 15 19 22 18 15 16 16 17 17 13 17 13 14 10 9 12 8 
20 24 23 22 27 25 24 25 27 25 28 25 27 25 20 23 26 23 26 23 26 27 26 29 28 26 24 24 28 22 23 21 21 25 24 25 24 25 25 23 23 24 33 23 27 27 31 25 28 26 25 25 26 26 28 26 22 18 23 22 20 22 19 20 19 18 19 12 16 16 16 14 16 8 11 13 13 3 8 8 
22 25 24 24 22 20 23 21 22 24 23 22 26 22 23 24 20 26 22 24 24 26 24 26 23 23 25 24 25 20 20 18 19 24 23 24 26 25 23 23 23 23 22 24 25 29 28 27 26 24 21 20 23 25 22 24 18 20 25 20 16 17 16 17 15 15 18 12 11 11 11 11 12 8 10 11 9 5 7 7 


