P2
80 60
111
15 15 21 14 16 15 16 19 19 16 17 19 21 21 21 20 20 21 18 21 18 20 20 20 18 19 14 18 17 15 19 20 22 21 19 21 21 17 19 19 16 19 20 18 20 18 17 18 22 23 23 18 22 23 19 17 21 22 20 18 13 16 21 18 13 15 14 12 11 16 15 8 17 16 17 17 13 14 9 13 
16 20 21 20 18 17 22 20 19 21 19 20 20 18 21 19 21 20 18 20 19 18 21 20 15 18 21 17 19 20 22 21 19 20 20 22 20 17 17 18 20 17 18 19 18 20 19 19 18 19 23 22 17 21 20 21 20 23 18 16 15 16 17 16 15 12 16 13 14 12 7 16 14 16 17 21 14 16 9 13 
19 19 19 17 19 16 22 20 23 23 25 21 20 17 24 21 19 19 22 20 21 19 21 17 19 20 19 17 17 18 20 24 20 20 21 19 20 21 21 18 14 18 16 17 17 20 17 19 22 21 20 21 16 19 19 17 23 19 21 18 17 17 19 20 14 15 13 14 18 16 18 15 12 15 14 13 27 15 14 13 
22 22 18 17 17 19 18 18 22 19 23 21 16 19 18 17 21 19 21 26 21 20 20 21 20 21 19 19 21 21 18 19 21 20 18 19 20 22 21 20 16 19 16 18 21 20 22 18 25 24 23 18 19 21 23 18 18 17 19 17 21 19 23 16 15 17 13 16 16 15 16 18 11 15 14 20 12 16 12 14 
21 16 21 19 17 21 17 21 18 24 18 21 18 16 20 23 18 21 21 23 21 19 21 21 18 22 20 19 19 18 17 19 18 17 14 18 19 17 22 18 19 16 23 20 18 20 23 17 21 21 20 20 22 21 19 18 18 19 18 16 19 20 17 18 18 17 15 17 16 17 15 14 17 12 15 15 14 12 13 13 
17 21 21 18 16 19 16 18 22 20 21 22 22 20 20 17 21 21 22 23 17 21 25 22 20 21 20 19 17 16 20 16 19 20 20 20 20 19 21 22 17 22 23 17 16 23 24 20 21 21 24 23 22 19 21 19 20 22 17 19 21 20 23 17 14 15 14 13 19 18 15 12 11 13 14 16 13 17 9 14 
22 21 21 17 17 18 18 20 19 23 22 24 22 19 18 21 23 21 21 24 20 20 22 18 21 21 20 20 18 18 18 16 18 17 20 22 19 22 22 20 19 22 21 20 18 22 23 22 23 22 22 25 20 21 21 17 20 26 31 19 19 20 18 16 17 16 15 16 15 14 13 12 12 14 15 14 14 12 7 11 
22 22 20 18 18 22 20 22 19 22 20 19 19 22 17 22 22 25 24 25 23 24 20 22 21 21 22 18 19 19 15 17 13 16 21 22 19 20 24 20 19 22 17 20 19 18 22 18 22 19 21 20 27 18 20 19 23 22 20 18 21 16 18 18 14 20 17 11 16 13 10 12 13 12 14 15 16 11 10 15 
23 20 23 20 23 20 20 21 22 21 18 22 19 17 20 16 22 24 20 25 22 21 21 19 18 19 19 18 22 17 20 17 15 20 20 19 23 17 21 20 14 18 19 16 18 16 20 22 19 21 19 24 21 22 22 19 18 25 20 21 17 16 20 13 15 17 15 15 14 12 10 12 13 14 15 13 9 11 9 13 
20 23 23 19 18 19 21 23 21 16 21 20 18 17 20 22 25 21 20 20 20 20 21 20 18 20 20 16 18 20 15 15 18 18 20 19 20 16 18 19 18 18 16 16 17 18 16 19 23 19 20 19 21 21 22 16 14 19 19 18 19 18 16 17 11 14 12 10 15 16 15 12 13 13 11 10 15 11 12 20 
28 28 25 22 21 23 26 20 21 19 23 22 17 17 20 21 19 24 20 19 18 20 22 18 15 20 15 18 17 18 17 16 20 18 17 17 18 17 19 19 16 21 20 16 15 17 18 18 20 19 20 20 18 20 20 20 16 20 19 16 22 19 16 15 12 16 13 16 16 17 9 13 10 14 15 14 12 12 13 9 
28 22 28 22 21 20 22 24 21 18 25 20 19 16 17 20 17 18 19 24 19 19 22 20 18 18 17 15 17 18 18 18 18 20 19 18 18 20 18 18 20 15 17 18 17 17 23 19 19 19 21 19 17 18 20 20 17 19 16 15 16 17 17 15 11 14 16 11 13 12 10 9 12 14 11 17 12 19 9 15 
26 24 26 26 18 19 20 20 18 23 22 19 18 16 19 20 17 17 17 21 17 20 21 19 15 16 18 18 18 19 18 13 19 21 18 15 19 17 21 21 16 18 17 14 19 18 23 18 20 21 21 19 16 16 17 18 19 19 20 14 18 14 21 18 15 18 16 12 11 13 0 14 10 9 11 13 20 14 12 11 
22 25 24 21 22 20 19 23 19 22 22 19 20 19 18 20 16 17 19 19 19 20 19 17 19 18 17 16 17 17 16 17 17 20 17 17 16 19 18 18 15 17 18 20 19 20 21 22 20 22 20 20 15 19 19 19 21 20 20 19 14 16 17 15 15 13 15 16 11 9 13 10 12 13 15 14 13 11 14 14 
23 20 25 21 18 20 21 21 19 15 18 18 20 14 22 16 17 15 15 18 17 17 17 19 15 17 17 17 15 16 17 17 14 17 18 15 14 17 18 19 16 17 18 15 20 18 20 20 20 21 22 21 17 18 18 19 20 35 22 18 17 15 17 15 15 15 13 14 13 15 12 10 12 9 9 13 13 7 9 12 
21 21 22 21 20 15 20 21 21 17 16 20 15 17 18 19 19 20 18 18 14 18 18 16 18 19 15 16 15 15 17 15 16 15 17 17 16 16 19 18 15 20 16 16 16 19 20 16 18 20 18 19 19 19 20 19 20 21 21 17 16 15 19 14 13 16 15 14 16 14 11 14 12 13 12 11 11 12 10 11 
25 27 29 21 22 19 17 21 18 16 21 22 18 17 18 20 15 18 18 18 17 16 14 19 17 20 20 19 16 17 15 16 17 20 17 18 18 18 19 18 16 16 19 15 16 21 20 18 18 17 19 18 20 23 20 17 20 24 22 19 16 18 17 17 15 13 15 14 14 16 14 13 17 13 10 13 12 11 11 9 
25 23 27 24 19 22 19 24 20 21 20 22 18 15 19 18 15 17 17 20 17 19 16 18 16 17 15 19 17 17 16 17 17 17 19 16 17 18 18 20 17 18 19 15 19 20 16 17 18 18 15 18 22 19 21 16 19 26 20 17 14 16 14 18 13 15 13 14 16 16 13 12 11 13 12 12 12 17 12 11 
23 23 29 20 20 20 21 19 19 19 19 22 18 14 20 18 17 18 21 21 16 19 22 22 16 17 18 17 17 16 20 13 19 16 20 19 17 17 19 18 18 19 17 17 19 19 18 16 19 16 19 17 23 21 18 18 20 21 22 15 17 16 17 16 16 14 16 15 15 13 17 12 16 13 11 13 10 15 13 13 
23 24 27 23 20 20 22 18 19 17 19 21 19 18 20 18 18 20 17 19 19 22 26 18 17 19 20 16 15 17 21 20 15 18 20 20 16 20 20 16 21 20 20 16 18 18 16 18 19 19 17 18 21 17 18 16 18 18 19 17 16 18 18 18 15 15 16 13 15 13 14 13 16 14 9 11 12 15 16 18 
25 24 23 23 21 20 20 19 22 18 20 22 19 18 18 17 20 21 18 19 20 20 20 21 17 20 18 16 18 19 28 21 16 16 18 21 18 20 18 19 16 20 18 14 17 18 17 16 23 22 21 20 19 16 22 18 19 18 18 15 15 18 19 17 14 16 19 14 17 14 11 14 12 13 11 14 12 13 10 14 
25 22 23 23 22 19 23 22 20 18 21 21 27 20 18 19 18 21 20 19 16 20 21 23 20 19 18 20 20 19 20 19 16 20 17 19 18 18 24 20 16 18 16 13 15 14 17 17 18 23 18 16 20 20 16 16 17 18 19 15 14 17 16 17 15 15 18 17 17 16 15 13 15 13 14 12 12 15 10 10 
23 20 23 24 22 18 20 25 20 19 17 22 21 19 18 19 18 19 18 24 17 19 18 18 16 22 17 17 19 17 16 16 18 16 16 17 17 17 16 21 19 14 15 12 19 15 17 16 17 20 20 20 17 20 17 16 19 17 18 15 15 15 16 13 15 18 13 13 15 13 13 15 16 14 10 12 11 14 10 10 
21 21 23 22 20 22 22 29 21 19 20 21 18 17 17 20 18 18 18 21 19 17 17 21 17 16 17 18 17 15 20 17 17 19 16 17 16 16 15 16 14 19 15 13 15 15 18 15 17 21 21 18 19 19 16 16 15 17 18 13 16 17 14 13 15 14 17 16 13 17 17 14 13 12 16 13 12 12 10 13 
22 20 24 20 25 20 22 23 27 23 21 22 19 18 21 16 21 22 20 20 16 24 20 19 18 17 17 16 17 17 12 16 14 15 17 16 15 14 15 18 13 18 15 13 16 16 16 14 16 19 16 18 17 15 14 15 16 16 17 18 16 16 18 15 16 13 20 17 14 13 14 13 15 12 12 13 8 14 11 12 
23 18 24 20 20 18 23 24 23 22 21 24 21 21 23 20 20 23 23 22 19 19 22 21 20 19 19 14 15 15 16 14 16 14 15 17 15 18 14 19 13 16 17 14 18 21 18 19 18 15 14 19 17 16 16 13 17 18 20 18 13 17 18 15 17 14 15 16 14 15 13 14 13 14 14 13 12 10 9 19 
22 22 25 22 19 20 25 23 22 19 20 21 23 17 22 20 22 25 20 20 17 20 27 22 19 21 18 18 17 16 17 12 17 13 16 18 14 14 18 18 15 17 16 14 17 19 18 17 17 16 17 19 18 15 19 16 16 14 14 18 16 18 16 16 15 15 18 12 16 12 13 11 13 14 12 15 13 15 12 11 
25 23 26 22 23 21 22 20 23 22 21 21 20 19 20 16 17 21 21 21 18 21 26 21 20 17 21 19 17 21 17 15 16 14 14 15 16 15 19 17 15 17 17 14 14 16 18 17 16 15 16 17 17 15 13 14 15 19 12 15 14 14 20 16 14 14 15 15 12 18 16 11 12 12 11 11 13 15 11 13 
26 24 28 22 23 19 22 25 21 23 25 20 23 22 20 20 20 22 22 23 17 18 21 20 18 20 14 18 20 18 17 11 15 14 16 17 17 15 17 16 14 18 16 16 14 16 18 17 16 16 17 16 17 17 17 18 13 19 16 16 15 15 19 17 14 14 16 16 13 13 13 14 11 16 13 11 13 15 17 12 
29 27 27 26 19 22 23 22 25 19 20 22 20 20 22 20 20 22 18 18 20 17 20 21 18 18 17 18 17 16 19 18 15 14 15 17 16 17 16 18 19 20 17 14 18 18 17 14 15 18 17 15 16 16 16 15 17 16 15 13 12 15 15 19 16 16 21 18 14 14 13 9 12 15 10 14 11 13 11 6 
28 26 25 23 22 21 23 23 22 20 20 18 22 19 22 21 22 22 19 21 19 19 21 23 20 20 18 18 18 21 17 15 13 16 17 15 18 14 19 16 13 19 17 17 19 16 16 16 20 20 16 11 17 15 15 13 15 16 12 11 13 16 17 18 18 15 15 15 13 14 14 10 12 16 11 9 13 14 11 11 
25 20 25 23 22 21 24 23 21 22 22 24 22 23 21 21 24 20 20 17 20 20 21 24 18 18 19 17 17 17 18 16 15 18 18 21 16 14 16 17 15 18 19 15 17 16 16 17 17 21 16 15 16 16 20 13 16 13 14 13 15 17 17 14 13 15 16 17 15 12 16 13 14 11 13 9 12 9 8 18 
26 28 29 21 22 21 24 22 22 22 19 22 23 20 19 19 22 20 21 17 16 19 20 22 20 19 20 20 19 18 17 14 16 15 13 18 16 14 18 16 17 18 18 15 20 16 14 15 18 19 20 14 17 14 13 17 15 15 15 14 14 16 15 16 17 16 16 14 19 12 13 11 12 14 12 10 12 8 10 16 
28 26 26 24 22 20 21 23 24 21 23 23 21 20 21 22 22 20 20 19 18 17 21 25 20 21 18 17 18 23 15 15 16 18 15 14 15 14 16 15 17 21 18 16 18 17 16 15 17 18 16 17 15 16 15 17 17 16 14 12 14 16 15 15 16 17 18 15 15 14 9 18 13 14 12 12 11 10 9 11 
25 24 26 24 25 20 22 26 25 20 25 24 24 22 25 24 25 21 22 21 20 20 21 19 21 23 19 18 21 16 19 17 16 16 15 18 16 17 17 16 13 18 22 17 18 21 20 16 16 17 16 20 16 17 15 18 16 19 16 12 14 13 16 17 18 15 14 17 12 13 13 14 15 11 9 10 13 17 11 11 
25 24 30 24 23 25 22 24 27 23 23 24 24 24 23 23 24 23 23 22 17 20 23 21 21 18 18 19 17 18 18 18 21 19 18 17 17 15 16 16 17 18 18 15 15 17 20 23 17 17 18 16 18 17 17 17 15 17 16 16 17 15 17 16 14 17 15 14 13 15 10 15 15 13 13 11 11 17 13 17 
30 29 28 27 22 28 28 30 24 24 23 26 23 24 24 24 23 25 23 26 21 21 23 23 20 19 15 17 19 16 21 18 14 17 18 17 15 18 17 18 13 18 17 15 16 17 16 16 20 17 20 20 17 18 16 13 14 19 14 15 17 17 13 13 16 16 14 13 16 12 15 11 13 10 13 12 13 12 13 10 
31 31 29 27 28 26 28 32 28 22 27 26 28 22 26 21 23 31 27 23 23 24 21 29 20 20 17 16 18 19 22 16 16 16 16 15 15 17 17 17 18 17 18 16 14 17 16 15 18 18 21 17 18 16 18 17 16 15 15 13 14 15 18 15 17 18 16 13 13 15 12 12 13 12 10 13 11 15 12 12 
33 30 33 31 31 30 28 31 33 29 30 29 29 23 26 27 25 28 24 27 23 23 22 25 19 20 19 18 19 20 22 16 16 16 15 17 18 15 18 16 15 17 20 17 16 17 18 15 18 20 16 18 19 18 16 17 16 16 14 14 15 16 13 17 15 16 16 16 11 15 13 11 9 11 11 16 11 15 13 16 
32 33 34 32 29 30 28 29 31 30 29 29 28 25 24 25 26 28 25 24 27 25 23 25 24 22 20 22 19 20 19 18 22 19 18 16 16 13 18 20 15 20 18 16 16 18 23 18 21 19 19 21 19 18 21 17 17 16 10 16 15 16 15 15 17 15 15 14 13 14 14 12 13 15 14 14 15 16 14 17 
34 33 31 30 29 30 30 28 29 29 29 29 28 30 24 26 27 26 29 29 23 25 25 26 24 26 25 20 22 17 18 18 21 18 17 18 14 18 20 16 16 20 19 15 18 20 19 23 20 21 21 23 22 24 17 16 14 16 14 15 13 16 14 17 16 15 15 12 15 14 13 12 10 14 15 14 16 18 19 14 
43 40 38 32 27 28 29 34 33 28 25 29 32 31 24 29 28 28 26 26 25 23 25 25 25 23 26 21 19 17 19 17 17 15 16 18 21 17 19 19 15 19 18 15 17 20 17 19 18 23 20 18 19 23 18 15 16 19 14 11 14 12 15 14 17 15 12 15 17 16 13 12 12 9 11 12 13 17 16 20 
67 58 50 37 29 32 33 34 29 26 28 33 36 29 28 25 28 25 29 28 26 25 25 27 25 28 23 23 18 18 19 16 17 16 20 22 20 20 19 18 18 19 16 18 18 18 18 20 21 20 22 19 19 19 19 16 17 20 16 15 13 17 16 17 14 16 14 15 14 12 14 10 16 13 13 12 14 15 16 19 
79 76 76 61 54 39 35 35 31 27 30 33 33 28 27 27 28 26 30 28 26 25 26 25 24 24 22 20 21 21 23 17 16 17 19 16 17 19 20 17 14 16 18 16 16 21 18 25 21 19 21 16 18 19 16 18 14 16 15 14 14 17 15 16 14 13 13 16 15 15 11 13 12 10 7 14 11 13 12 14 
79 84 88 81 84 66 53 47 31 29 30 31 31 28 29 27 30 29 26 28 26 25 25 26 24 23 22 20 21 18 21 18 19 18 18 19 16 14 17 19 16 17 16 17 20 20 21 21 22 18 22 18 19 15 16 13 14 15 19 16 14 17 15 15 14 16 15 16 15 11 12 9 11 10 12 14 14 12 10 14 
82 82 88 82 81 82 75 70 57 48 32 39 31 29 34 30 30 29 28 28 29 26 25 27 23 22 18 21 18 20 21 18 20 17 19 20 17 17 15 18 16 15 17 17 18 22 20 17 23 19 21 18 15 17 18 15 13 15 14 13 15 13 18 12 14 16 11 16 15 16 11 9 12 12 13 12 11 10 9 14 
83 83 86 80 85 81 82 90 75 67 59 54 41 35 32 33 29 31 30 31 26 21 21 23 20 23 26 21 19 20 20 17 20 18 17 18 16 16 15 15 13 15 15 15 20 22 19 17 19 19 16 17 17 16 18 12 12 17 15 12 15 15 16 17 13 16 15 14 16 12 10 10 12 12 14 13 8 12 13 12 
85 83 87 82 82 86 85 91 81 78 75 72 70 59 48 34 30 30 29 31 25 20 24 23 14 19 20 15 14 18 18 15 15 17 18 17 18 16 16 14 14 19 15 16 16 19 22 18 20 14 16 18 18 16 15 15 17 15 15 15 15 14 15 11 15 13 14 14 17 13 15 10 14 16 12 12 10 13 12 12 
88 94 92 86 87 84 85 88 83 78 79 76 80 72 70 43 32 32 31 30 20 21 25 20 17 20 17 18 18 15 18 13 13 18 17 19 17 15 15 16 15 15 14 16 18 20 18 16 19 20 16 18 16 18 17 19 17 15 17 12 12 19 16 16 15 13 17 14 18 16 15 11 14 11 11 13 11 12 11 10 
86 93 92 87 89 89 89 87 85 80 81 81 84 78 73 48 35 33 29 28 23 20 23 21 19 17 17 16 16 16 16 12 13 14 16 14 17 16 17 18 15 15 12 14 14 20 15 15 15 17 21 17 19 18 21 16 16 19 15 14 13 14 17 13 14 14 13 12 16 14 14 10 12 15 13 13 9 10 9 10 
91 94 93 88 88 91 86 88 87 81 78 82 75 70 76 46 34 34 30 29 20 20 16 20 17 17 17 13 19 15 13 13 14 18 17 15 16 15 18 15 15 16 14 16 16 19 16 15 13 17 18 18 18 17 20 14 17 16 14 15 16 15 15 15 14 14 12 11 15 13 13 9 13 11 14 14 11 13 9 13 
92 95 91 90 95 94 90 92 85 85 81 79 80 75 74 50 30 28 32 30 23 20 21 21 16 18 15 16 11 14 14 10 14 17 20 16 9 11 15 15 11 17 17 13 15 15 16 14 16 16 19 12 18 18 19 18 17 16 18 15 13 15 16 11 13 13 12 11 13 13 10 11 15 13 12 17 12 12 9 10 
94 95 98 94 101 94 97 89 89 84 80 84 81 77 78 51 31 29 30 27 27 24 23 18 20 19 21 19 16 18 18 17 18 15 16 19 16 13 20 16 12 17 14 14 15 15 17 14 20 17 17 17 16 17 22 18 15 19 21 14 16 16 15 16 14 16 15 13 13 13 10 12 10 11 11 12 9 12 6 11 
93 93 101 94 107 102 99 97 91 89 89 84 80 79 79 58 33 29 33 34 25 22 25 23 24 21 22 20 17 20 19 17 13 15 16 18 12 12 16 14 12 12 11 13 17 16 18 16 18 17 18 17 18 17 17 13 20 22 17 14 16 17 16 16 13 12 14 13 15 15 12 13 12 13 13 14 10 11 8 11 
95 95 100 97 97 105 100 98 92 89 90 92 86 82 78 64 36 30 28 34 28 23 26 22 22 23 26 19 20 15 20 17 18 18 19 15 18 15 21 14 12 15 16 14 12 17 15 15 15 14 19 17 14 18 16 17 19 16 13 13 13 17 14 12 10 12 10 12 12 16 13 17 13 11 10 10 12 11 10 13 
91 95 100 98 98 98 106 101 95 90 91 88 89 84 78 68 36 31 28 31 27 23 21 19 24 22 20 20 19 19 13 18 14 20 18 18 17 16 15 17 10 16 13 14 13 17 14 13 16 16 18 16 17 17 18 17 18 19 12 16 14 17 14 15 12 13 14 13 13 16 16 11 10 12 13 14 13 7 10 17 
94 98 102 99 102 103 105 106 96 91 90 91 92 86 81 66 37 32 26 32 25 23 24 21 19 21 19 18 18 19 17 15 18 18 17 17 17 13 17 16 14 18 15 13 15 16 17 17 19 16 15 16 15 16 16 18 15 17 15 13 14 13 13 11 14 13 14 11 13 13 11 10 14 12 12 13 11 10 10 14 
98 98 102 102 101 104 104 102 100 100 95 95 90 86 83 75 38 27 26 28 25 22 26 24 19 20 16 17 18 18 18 17 16 17 18 17 20 15 17 20 16 20 18 17 17 18 16 22 21 16 16 18 15 17 15 14 14 14 16 10 15 16 17 13 13 16 12 12 11 14 10 12 10 9 10 9 10 9 9 13 
93 97 102 104 103 103 106 107 102 101 96 93 85 84 85 73 37 26 24 25 22 22 22 21 17 20 16 19 21 19 16 18 16 17 18 19 16 16 18 17 17 17 15 18 13 14 15 18 18 19 19 18 16 15 19 15 14 15 14 15 13 15 13 14 15 13 11 10 12 14 7 7 10 10 10 9 12 11 10 10 
100 97 105 103 108 104 108 111 104 102 102 97 86 85 87 71 47 27 21 25 22 22 22 25 18 24 21 19 20 17 17 14 15 17 22 21 23 18 20 18 15 17 16 17 19 20 16 14 22 19 17 18 17 17 20 18 15 15 16 11 13 16 13 14 11 12 10 11 8 9 8 7 12 12 12 10 13 13 11 11 


