P2
80 60
114
20 22 20 19 21 21 19 20 22 20 20 21 21 22 24 18 23 24 21 18 19 19 18 17 20 17 18 19 18 21 20 22 20 23 23 21 22 18 15 22 20 18 19 17 19 17 19 19 25 19 17 20 18 20 19 21 20 22 18 20 15 17 22 18 17 17 16 13 15 17 13 15 13 18 20 15 15 16 15 13 
20 19 20 20 18 20 25 18 22 22 15 20 20 19 22 22 22 21 19 20 20 18 23 17 23 15 23 17 16 23 20 23 17 19 20 19 23 19 19 19 21 16 18 20 18 20 21 20 20 16 22 21 18 17 20 21 20 19 22 19 18 17 20 19 17 14 14 16 15 16 12 15 14 16 21 18 15 18 10 12 
21 21 21 20 21 21 24 20 22 20 21 19 21 21 21 21 21 20 21 18 21 19 20 16 17 19 21 18 17 20 20 23 20 19 22 21 21 22 21 18 21 20 16 19 19 20 16 19 21 18 21 19 18 18 19 19 21 20 19 19 20 19 20 19 15 13 8 15 13 15 17 17 13 16 17 15 25 12 15 14 
22 23 19 21 19 20 20 19 23 19 23 23 18 19 18 18 22 23 23 21 21 20 15 14 18 19 21 20 21 20 19 20 18 19 20 22 22 24 19 20 22 23 17 21 17 20 19 22 25 20 21 18 18 16 21 21 18 20 18 18 23 18 20 17 13 16 15 14 13 13 15 18 11 16 17 14 11 16 17 11 
25 22 22 19 18 18 20 21 21 21 21 19 18 18 20 20 22 23 20 22 18 19 17 18 16 19 22 19 18 17 18 20 18 17 15 21 17 21 22 18 21 20 21 19 20 20 21 18 22 22 22 20 20 19 20 18 19 20 18 20 19 19 20 22 18 16 15 16 17 16 18 14 13 16 20 18 14 10 12 9 
23 22 23 19 20 18 20 20 25 22 22 18 23 20 22 17 21 23 23 23 16 17 20 16 20 21 20 19 17 17 20 20 15 17 16 22 21 20 21 19 21 22 24 18 20 20 24 19 23 21 24 19 19 19 19 20 18 24 16 20 22 19 23 21 21 15 17 13 17 18 17 14 12 17 13 14 12 16 13 10 
24 23 23 21 19 22 20 19 23 21 22 20 22 24 19 21 25 26 19 24 20 21 20 17 23 19 23 19 18 18 15 18 17 20 19 23 23 21 22 18 24 21 20 21 20 20 20 22 25 20 23 23 18 19 21 17 20 27 28 18 19 20 20 15 18 19 16 17 15 14 18 14 12 14 16 17 11 11 12 14 
25 25 22 20 24 24 21 21 20 20 18 18 18 22 16 21 21 23 20 22 21 20 18 19 16 21 23 19 22 20 16 17 12 16 21 25 19 19 21 23 22 19 18 20 18 19 20 19 22 16 20 20 23 17 21 21 22 22 21 20 17 18 24 19 17 20 14 13 15 13 14 14 8 8 15 14 9 12 11 14 
24 25 25 23 21 23 20 22 23 24 19 21 23 17 23 18 23 25 21 23 20 20 22 19 20 19 21 18 21 20 19 18 18 20 20 17 21 21 19 20 18 14 17 18 18 18 19 26 22 18 21 20 18 21 22 17 20 25 18 20 14 16 21 17 17 20 13 13 12 15 10 14 14 13 15 12 4 13 10 8 
25 24 23 23 25 23 23 23 23 21 23 18 22 22 21 23 28 22 23 16 18 20 23 19 19 19 22 16 12 18 17 18 14 18 20 22 21 17 18 18 21 16 15 18 18 18 17 21 24 18 19 18 19 17 18 19 15 19 21 20 17 16 19 17 13 16 14 12 13 11 13 13 12 12 13 9 11 15 8 14 
29 28 24 25 22 25 29 22 25 21 22 20 23 18 22 19 22 23 19 19 21 20 20 17 16 18 17 19 17 18 14 17 18 19 21 16 19 15 19 17 20 17 20 18 16 17 16 20 19 17 22 18 18 19 18 18 18 17 18 16 17 18 17 15 16 17 16 16 12 13 11 12 5 14 17 13 11 15 12 11 
29 22 28 25 20 25 24 24 24 21 21 19 20 20 21 22 19 20 19 18 16 19 19 17 18 15 18 17 15 18 18 20 17 20 17 16 19 19 19 19 20 17 15 19 17 17 22 20 20 18 19 18 16 18 16 16 15 15 16 18 17 16 15 18 14 14 17 12 12 11 10 12 10 12 13 16 10 12 11 14 
30 23 27 28 22 23 21 20 21 22 21 21 22 20 19 20 19 19 18 18 19 20 21 17 16 16 19 17 18 18 17 17 17 20 18 15 18 16 21 19 20 18 19 17 19 18 21 17 19 20 20 17 15 16 16 17 19 16 19 17 17 15 20 17 15 17 13 11 12 13 0 10 7 12 13 12 14 17 11 16 
23 24 30 24 23 23 20 19 22 20 18 18 19 19 18 18 19 19 21 16 17 21 20 20 19 14 19 16 17 17 17 18 15 20 16 14 18 20 18 18 18 16 13 20 16 19 19 22 17 19 20 19 15 18 18 18 22 15 20 19 16 19 20 19 16 14 15 17 10 10 16 11 10 12 15 13 12 16 16 9 
23 25 22 20 23 20 21 23 22 15 16 17 21 18 18 17 18 16 17 17 17 15 15 19 16 16 17 13 14 15 17 18 15 16 15 15 14 17 16 18 17 15 17 16 17 17 14 17 19 19 18 17 15 15 16 22 20 25 21 18 19 13 17 13 15 14 12 13 11 15 9 11 11 11 12 10 11 11 8 11 
26 26 24 23 24 21 19 23 25 18 14 21 16 19 17 19 23 19 18 16 16 18 19 17 17 16 17 15 16 16 17 18 14 13 15 14 15 17 15 17 19 18 16 15 17 18 20 15 17 17 20 16 16 18 20 18 20 22 22 18 17 15 18 15 14 19 13 9 16 12 13 12 9 13 13 11 10 16 10 10 
27 29 28 22 21 21 20 21 21 19 22 19 18 19 21 18 19 20 17 16 18 16 14 18 14 18 18 18 15 20 14 20 18 19 16 19 18 18 17 21 21 17 17 16 15 18 20 19 16 15 18 18 16 17 19 18 20 22 21 19 18 17 17 16 16 16 16 12 16 14 15 13 16 12 13 12 12 12 11 10 
26 26 27 22 21 22 20 23 20 24 20 20 17 17 23 16 17 19 20 18 18 14 14 13 16 14 17 17 17 17 16 19 18 19 20 17 17 17 17 21 22 18 17 16 20 18 17 19 18 15 17 15 14 18 21 17 20 25 19 18 14 17 14 17 13 17 14 15 15 14 16 12 8 16 14 12 10 14 9 9 
25 29 29 26 23 25 24 25 21 17 19 19 22 23 22 17 20 20 20 18 19 17 20 18 15 16 19 15 14 18 20 17 20 16 19 18 15 18 19 16 20 20 16 20 17 16 17 15 20 12 17 18 19 20 18 17 17 24 20 17 17 16 16 17 17 15 16 17 14 14 15 11 13 12 14 9 9 14 12 13 
23 29 27 24 25 23 23 21 24 19 20 20 22 16 20 21 21 23 18 20 21 21 25 18 16 19 21 17 16 19 19 23 17 17 20 18 17 21 18 18 22 20 18 18 19 16 15 18 19 17 16 19 18 19 19 18 17 18 18 19 17 12 19 19 17 20 17 14 13 16 15 16 13 13 12 12 10 13 16 13 
28 23 28 24 22 25 23 19 26 20 20 22 19 21 21 16 22 21 21 18 20 17 23 22 22 19 19 19 15 20 28 22 17 17 18 19 18 18 17 17 20 21 16 15 17 14 18 18 21 16 19 19 18 17 22 18 18 15 18 20 15 16 18 18 15 13 15 13 16 14 13 15 10 13 15 10 11 13 13 19 
26 25 27 24 22 22 21 23 24 19 20 18 28 22 21 18 19 19 19 19 18 20 22 21 20 17 20 18 19 19 21 21 15 19 17 18 19 18 16 18 19 18 16 14 12 11 16 17 18 18 18 17 18 15 17 17 12 13 20 16 17 15 17 16 11 16 14 15 14 15 19 14 12 13 14 9 9 14 12 11 
26 24 26 26 22 21 21 23 23 21 20 19 24 21 21 17 23 19 19 21 21 18 19 17 15 18 20 15 17 15 17 20 17 16 17 17 16 18 16 20 20 14 13 14 22 15 16 18 15 18 20 20 15 20 18 16 16 19 20 19 19 15 17 14 17 19 14 14 15 15 17 14 15 14 15 13 10 12 14 10 
26 27 25 23 22 23 26 28 24 21 22 23 20 21 19 21 22 20 19 20 19 18 16 21 18 19 21 18 15 17 20 19 16 17 17 16 13 18 16 14 21 20 15 18 18 14 19 18 18 19 19 19 19 16 15 15 17 14 17 16 17 18 16 17 16 14 18 17 13 16 16 17 12 14 16 13 11 11 13 12 
24 26 25 20 23 22 26 26 27 22 21 22 22 23 24 17 23 20 21 21 19 24 19 17 18 17 19 16 18 18 12 17 14 13 17 18 16 16 16 17 21 15 14 15 17 17 16 15 16 17 18 15 15 17 15 15 15 17 17 19 16 17 15 14 17 16 20 15 14 12 13 16 16 15 13 10 11 15 17 16 
25 22 29 24 22 21 26 23 25 24 22 23 23 23 24 17 19 25 23 20 19 17 19 19 21 19 18 17 16 14 16 13 12 14 16 15 18 16 14 17 19 16 16 16 16 19 15 20 17 14 15 16 18 15 18 17 16 17 19 18 15 13 16 17 16 16 18 16 16 12 14 12 12 12 14 13 8 14 11 15 
23 24 24 25 21 22 23 23 23 23 19 21 25 17 21 19 23 26 18 19 17 19 23 18 17 18 18 18 18 17 15 14 16 12 15 16 15 16 14 15 18 16 15 14 17 18 18 16 17 13 17 18 16 14 18 18 18 15 16 13 15 16 15 17 16 15 17 12 13 11 13 10 13 13 13 11 8 13 14 13 
26 24 29 26 27 22 23 22 24 23 21 20 21 20 24 19 19 22 22 17 17 19 19 18 20 17 22 22 17 19 15 17 15 15 15 15 20 15 17 16 18 15 16 17 15 16 18 18 15 14 16 16 16 13 14 16 12 19 14 17 16 14 16 17 14 17 17 13 11 16 15 12 10 12 13 9 8 15 14 12 
26 31 33 24 25 21 23 26 24 23 21 19 23 21 20 18 23 21 17 22 17 17 20 18 16 19 19 18 19 19 17 16 14 14 18 15 18 16 15 18 19 18 16 16 14 17 16 18 15 15 15 14 15 16 17 16 14 18 19 15 17 13 15 16 16 16 14 15 13 15 12 11 12 13 15 9 12 13 12 8 
32 30 32 27 21 23 25 22 28 23 21 22 23 22 22 21 22 21 17 19 19 17 21 20 19 16 19 17 20 17 19 19 16 15 13 16 16 16 18 16 21 17 17 18 17 18 18 15 17 17 19 14 13 14 16 20 15 16 16 15 16 17 15 20 18 19 20 17 12 14 16 10 13 13 14 15 11 12 12 9 
30 29 32 30 24 22 24 27 26 22 23 21 24 21 23 20 22 20 20 21 20 19 20 19 21 20 20 18 18 19 17 15 13 14 16 17 18 14 15 19 18 16 20 20 17 15 16 20 18 17 17 13 13 14 16 16 16 17 14 11 16 16 15 20 18 16 17 15 12 15 14 13 11 16 14 11 13 16 15 10 
31 27 31 25 24 23 25 28 26 26 24 24 24 23 21 21 23 22 19 18 19 20 22 22 22 19 20 18 17 16 18 17 16 15 17 19 16 15 15 17 21 17 17 19 18 16 16 19 17 18 15 14 15 16 19 16 17 14 15 13 16 17 17 14 19 16 18 17 14 17 19 15 13 12 15 9 11 16 12 12 
27 28 34 27 27 27 24 23 28 24 23 25 26 24 21 20 24 23 23 17 17 19 21 22 22 20 22 20 17 19 19 17 15 17 13 18 17 15 17 20 22 20 18 19 19 17 15 17 17 16 20 16 15 16 14 18 14 20 15 13 14 14 16 18 19 19 16 17 17 14 15 12 13 15 15 9 12 11 11 13 
32 31 32 29 29 29 29 24 27 28 24 24 25 23 24 23 23 23 23 22 18 19 22 24 22 19 20 21 18 23 15 18 16 17 16 15 13 15 18 17 21 20 20 17 20 17 16 17 15 15 19 18 15 15 16 18 17 18 15 13 17 18 15 17 18 19 18 18 15 15 12 17 14 14 15 13 12 11 14 14 
31 30 30 30 26 28 28 27 25 24 26 25 24 24 24 23 28 22 22 24 20 19 20 21 24 21 22 20 20 19 18 19 14 18 18 21 18 18 15 19 20 18 20 19 19 20 19 19 18 14 17 17 16 15 16 20 16 18 17 15 17 15 16 17 16 16 15 17 14 13 15 14 14 14 14 10 12 14 15 13 
31 30 31 29 28 28 28 23 31 25 25 24 24 28 25 23 25 26 23 22 15 20 20 17 19 17 19 17 18 17 17 18 17 18 16 15 16 14 17 17 21 19 20 16 17 17 18 23 19 16 19 16 15 18 16 17 16 17 18 18 15 17 15 18 16 17 13 15 12 15 10 13 12 17 16 13 11 18 12 12 
33 34 31 31 30 31 31 31 29 28 25 25 24 28 27 26 26 27 26 26 22 21 22 20 19 19 16 18 18 17 18 18 16 18 17 16 17 18 15 17 19 17 17 17 18 17 16 17 20 17 19 18 12 16 17 14 14 18 16 18 17 17 17 15 16 17 14 13 16 13 14 15 13 13 14 12 14 13 9 14 
34 33 35 31 31 33 34 29 29 28 29 26 26 24 27 22 23 34 26 24 24 23 20 21 20 19 19 17 18 21 20 18 16 17 18 17 18 17 17 18 22 18 18 19 17 17 16 17 17 16 20 17 16 13 19 19 15 15 13 14 16 18 17 17 17 21 15 15 12 16 10 14 13 13 12 11 12 18 14 13 
37 33 45 31 35 34 33 30 32 30 30 29 33 29 24 28 26 29 28 25 25 23 25 21 20 22 20 19 20 18 18 17 16 17 16 18 19 16 17 22 22 17 18 17 18 17 18 18 19 18 16 18 18 17 22 20 17 17 17 15 11 16 16 18 15 18 16 14 10 13 13 12 13 13 16 15 14 13 18 16 
38 37 38 33 35 36 35 32 32 30 31 30 30 32 30 27 29 33 27 23 28 26 21 23 26 23 25 20 18 23 19 21 20 20 17 19 17 17 19 24 20 19 18 19 16 17 21 19 21 16 20 21 17 18 18 19 19 17 12 16 13 16 19 16 18 16 17 13 14 12 12 14 10 15 16 12 16 18 13 19 
55 44 36 32 33 35 36 32 32 31 31 29 33 33 30 25 29 28 30 24 24 24 25 24 28 24 27 22 18 20 18 21 20 21 17 17 17 19 18 19 21 18 19 18 19 19 17 22 21 17 21 24 20 22 19 16 15 14 16 16 13 16 13 17 16 16 16 16 11 13 13 12 10 15 16 13 12 19 17 17 
80 67 52 39 32 36 34 34 31 27 31 27 32 31 29 30 26 29 26 26 25 22 25 24 27 22 27 21 17 19 16 20 17 22 16 20 23 18 18 16 22 21 18 17 16 19 19 20 18 22 23 19 16 19 18 16 15 17 16 17 14 13 16 18 16 17 15 13 14 14 14 13 15 13 15 11 10 20 15 8 
87 83 78 58 44 34 35 33 29 26 27 30 31 28 30 26 30 29 29 25 23 22 24 25 25 26 23 18 18 18 17 17 16 17 18 20 17 17 15 15 21 17 15 18 17 17 17 19 20 17 21 16 13 19 19 20 17 19 14 16 13 15 19 19 13 16 14 12 13 11 14 11 13 11 13 11 12 19 14 10 
93 90 86 75 66 58 47 37 32 29 31 30 34 29 29 26 26 29 26 28 24 24 28 26 27 23 19 18 19 23 18 19 18 18 19 17 19 16 17 17 20 18 18 18 16 21 21 26 20 21 22 17 17 20 17 18 16 17 17 15 16 18 17 16 18 15 12 13 13 15 9 13 11 13 14 13 11 18 14 14 
89 89 88 85 79 74 65 55 36 30 30 31 34 29 31 27 30 25 25 17 21 19 26 23 27 23 21 20 18 20 19 21 18 17 17 20 17 16 17 19 19 15 15 18 20 20 21 22 21 18 22 18 11 13 17 15 15 13 14 17 15 11 14 17 16 15 18 16 13 10 12 8 9 11 13 8 10 15 12 11 
91 91 86 87 89 78 78 67 65 49 36 31 30 32 34 29 27 23 20 19 22 21 22 21 23 22 19 19 17 22 20 22 18 14 18 19 18 15 13 16 20 16 16 18 18 21 18 20 21 18 20 17 14 14 17 16 11 15 15 15 15 11 19 15 16 18 14 16 14 14 13 9 10 14 14 7 9 10 14 12 
89 90 87 80 83 80 81 73 71 64 54 35 31 32 31 27 26 26 21 22 21 19 20 18 22 22 23 18 16 23 16 17 17 16 17 18 17 17 16 13 17 16 18 17 18 21 18 17 18 17 16 18 13 13 18 14 12 16 12 13 15 15 18 17 15 17 17 17 17 12 12 12 9 11 16 8 9 12 14 17 
93 90 91 83 81 80 85 79 78 66 62 39 34 32 32 27 23 23 23 21 21 18 19 27 23 16 21 15 17 20 18 15 17 15 18 17 19 16 16 16 18 18 15 15 16 21 21 17 22 14 17 17 16 12 17 15 17 16 12 15 17 16 15 18 13 15 16 15 15 14 14 11 10 14 12 10 8 12 13 12 
95 94 95 86 88 81 82 81 76 71 67 38 34 34 30 29 26 26 24 21 20 19 23 21 17 17 18 16 15 19 14 18 14 17 14 16 16 18 14 14 20 13 12 16 17 17 19 16 19 15 16 17 14 12 15 18 16 16 15 14 14 17 15 16 16 15 17 16 12 12 13 14 11 11 16 11 11 12 8 14 
97 96 96 89 88 86 82 78 77 74 70 40 35 28 31 30 26 24 24 21 20 20 24 20 18 19 18 13 14 18 14 14 16 14 16 13 13 18 18 17 18 12 12 17 13 21 19 19 15 15 17 17 18 15 20 16 17 16 13 14 15 15 16 13 16 12 13 13 11 14 13 12 11 11 13 11 8 11 13 8 
103 99 100 91 88 85 88 81 78 76 73 45 33 29 30 28 24 26 23 21 19 19 18 18 17 17 18 15 17 16 13 14 15 15 16 16 16 16 17 14 16 15 12 16 18 17 15 14 14 13 15 16 15 17 18 16 16 17 14 14 20 15 15 17 16 16 12 13 14 15 14 14 16 8 14 13 10 18 8 9 
100 102 95 92 93 88 84 81 80 74 75 46 32 32 30 30 28 24 28 24 24 21 19 21 16 19 20 18 13 17 14 14 14 16 18 18 15 14 11 17 17 16 14 16 15 13 14 18 18 14 20 11 16 16 19 19 16 16 19 17 16 14 17 16 14 17 14 11 12 14 14 12 10 15 13 14 11 16 15 9 
103 101 102 96 96 91 90 82 83 77 77 54 37 32 30 26 24 25 24 20 25 24 24 20 19 21 21 20 15 18 15 19 17 18 15 18 14 14 15 16 18 14 14 16 13 14 15 16 21 15 19 16 14 19 22 19 17 18 19 13 16 15 18 17 16 17 13 15 16 14 17 12 7 8 16 11 7 11 14 16 
103 105 108 102 103 100 95 87 83 80 77 58 35 29 32 28 26 19 25 23 24 23 24 23 26 22 21 19 17 21 14 19 17 18 15 16 11 14 13 13 17 15 12 13 15 14 17 17 19 14 21 16 17 16 17 16 20 20 18 16 15 13 16 16 13 16 14 17 14 14 14 15 11 12 10 14 10 16 11 10 
106 102 104 102 99 98 88 84 82 83 80 58 36 30 29 27 27 26 24 21 23 22 22 23 21 24 26 20 20 18 17 18 17 17 12 15 16 12 13 15 16 14 13 13 12 15 12 15 16 11 21 14 12 19 17 16 21 18 15 15 13 14 16 14 10 14 11 13 13 12 14 14 14 11 12 9 9 8 11 8 
108 105 107 103 100 98 94 87 85 81 88 67 45 31 31 27 27 23 24 22 27 28 22 21 25 21 21 22 20 21 16 16 18 20 17 18 18 15 13 16 14 17 11 15 13 15 12 11 13 15 19 16 14 13 18 17 20 18 10 15 12 18 15 17 11 13 12 13 12 17 17 11 12 14 14 11 12 8 11 13 
109 111 108 100 101 99 96 87 85 84 83 73 48 34 31 28 27 23 23 27 24 24 22 21 21 19 24 17 14 19 17 18 16 19 17 19 19 16 15 14 20 19 14 13 15 16 15 16 19 11 17 16 13 12 16 19 15 18 16 16 17 16 13 12 14 17 11 10 12 13 10 11 14 11 14 15 9 15 12 12 
110 111 109 105 101 100 97 89 87 88 90 77 42 30 31 27 23 25 21 24 23 23 26 22 21 20 21 21 18 21 20 22 15 17 18 17 22 17 15 17 19 16 15 18 15 15 17 25 21 17 16 17 11 16 17 16 15 17 15 17 19 18 16 16 15 16 16 12 12 14 8 11 12 12 11 12 10 14 11 15 
109 110 113 103 105 99 98 94 92 92 88 76 44 31 28 26 25 20 19 22 20 26 22 22 20 22 17 20 22 19 18 20 15 18 17 18 18 18 18 16 22 14 13 18 14 12 15 18 21 16 20 15 12 16 19 17 13 17 15 18 16 14 19 18 15 13 13 11 11 11 10 12 10 10 12 12 11 11 9 10 
114 112 112 104 106 101 102 99 92 90 87 76 39 24 27 20 22 24 20 19 20 25 22 22 19 20 22 22 16 17 15 16 15 17 20 20 22 16 15 17 21 13 14 16 17 16 16 17 17 18 17 14 14 15 15 15 14 12 16 14 12 9 13 15 13 14 12 12 8 11 10 10 8 10 12 11 11 13 12 7 


