P2
80 60
262
157 158 157 151 149 152 157 148 141 147 152 150 145 152 154 151 148 147 149 136 138 136 129 92 33 30 29 49 67 83 98 103 117 120 136 132 122 128 128 125 127 128 132 137 130 125 125 126 127 127 127 126 127 128 124 121 106 120 132 127 127 128 133 126 131 134 137 136 139 137 137 140 141 139 142 139 140 134 137 136 
155 162 156 155 148 156 153 147 145 147 149 147 147 149 152 149 148 146 147 139 142 135 121 93 34 29 36 56 72 84 100 103 116 122 124 125 125 127 125 127 127 125 129 132 124 127 121 128 127 125 124 125 126 127 128 122 116 118 133 124 134 127 125 128 134 134 134 138 138 137 136 142 142 141 140 139 138 137 138 140 
161 153 156 153 147 153 156 141 141 146 149 148 144 150 150 150 145 146 146 138 137 137 123 92 38 33 42 60 76 86 100 99 115 118 120 122 124 123 125 123 125 125 124 123 127 126 124 127 124 125 125 125 126 129 124 123 108 118 134 126 131 127 127 127 133 130 135 142 141 136 137 139 144 141 139 137 140 137 139 138 
158 153 155 151 148 155 157 147 144 152 149 146 145 151 149 149 145 147 146 139 137 140 123 86 28 32 41 60 77 90 100 96 110 115 118 122 123 122 126 123 128 123 126 124 125 127 124 126 128 127 126 124 129 125 122 121 110 114 130 129 132 128 127 129 132 128 134 139 140 139 139 143 141 139 141 138 143 138 142 142 
156 156 155 155 147 155 155 148 140 149 146 145 145 152 153 148 145 148 147 137 135 139 125 86 30 29 39 57 71 92 98 99 107 113 113 119 120 124 128 123 126 122 127 125 128 126 124 131 128 125 124 126 127 124 127 120 107 117 130 131 134 129 131 132 133 134 138 144 141 144 139 142 139 140 145 139 140 137 143 143 
157 157 156 152 147 154 150 143 141 145 145 145 148 151 149 149 146 149 145 139 135 142 124 82 26 21 19 48 66 78 87 93 108 110 115 114 118 119 121 120 123 124 127 124 126 126 127 130 130 126 125 128 127 125 126 124 107 115 136 128 134 129 126 130 135 134 137 142 147 141 140 140 144 143 140 140 141 138 138 142 
158 155 154 153 149 152 153 144 137 144 145 148 146 148 151 151 152 148 146 138 139 135 119 81 14 5 14 40 50 64 79 94 103 104 114 115 115 117 120 116 121 122 120 122 123 128 127 129 129 127 131 130 128 124 127 118 108 118 131 127 131 125 125 127 137 134 134 139 140 144 141 140 144 142 140 140 142 138 139 139 
155 157 156 154 148 156 149 144 136 145 146 148 146 149 152 145 147 147 147 138 145 133 119 74 15 11 17 35 42 53 81 94 105 104 108 116 115 115 117 116 121 118 122 122 122 124 126 128 124 128 128 126 132 125 123 121 109 116 130 129 131 126 127 130 133 137 134 141 142 141 138 138 144 140 142 140 140 138 143 139 
160 156 159 154 149 156 150 144 136 145 144 150 147 150 150 147 147 148 147 136 143 136 109 70 11 11 16 28 41 51 75 95 105 108 108 111 110 113 114 110 119 114 120 120 122 123 124 126 125 127 126 129 129 130 124 119 107 119 132 132 134 130 125 130 136 137 135 143 141 140 139 138 143 139 138 135 139 133 141 135 
157 156 158 155 149 155 154 142 140 146 146 148 147 149 148 149 152 147 145 135 139 135 109 68 12 9 12 21 39 49 72 92 98 103 104 107 109 109 112 110 116 112 120 119 119 126 122 125 126 130 124 125 126 124 123 114 107 114 127 130 131 127 126 129 135 136 138 142 142 138 138 139 140 139 137 135 138 134 137 138 
153 157 153 153 144 153 159 145 142 148 145 145 148 150 150 153 149 144 148 135 142 136 109 69 12 7 9 20 38 49 70 89 95 99 103 108 109 109 110 110 117 112 115 117 118 120 121 122 125 125 126 126 126 123 121 116 109 114 129 129 126 124 124 128 133 134 140 144 140 140 135 139 139 135 134 139 139 137 138 139 
154 156 157 152 147 151 154 146 143 145 140 143 144 150 150 148 147 149 143 134 141 135 107 68 5 7 2 22 38 52 69 82 89 99 109 115 113 109 107 106 112 111 114 118 119 119 121 124 126 125 125 124 125 121 119 114 103 117 126 127 123 123 122 127 133 130 135 140 139 133 136 137 141 140 138 141 139 136 141 137 
153 154 152 154 143 151 154 141 141 135 137 136 143 150 148 147 148 147 142 136 142 139 106 65 8 6 3 20 40 57 70 78 87 105 114 118 115 112 105 104 112 110 112 116 117 119 122 125 123 122 123 122 122 119 120 114 104 119 129 125 127 121 124 125 130 130 137 142 138 135 129 137 141 137 142 139 147 138 139 137 
156 158 157 152 145 148 151 140 137 133 130 132 141 148 148 148 145 148 144 136 143 135 103 64 12 6 7 23 35 52 65 79 88 107 113 113 119 111 107 107 111 110 112 114 113 123 116 129 125 126 122 124 123 123 119 118 105 122 130 125 126 119 122 126 131 134 138 141 139 137 138 137 139 134 139 138 138 137 137 137 
151 157 154 153 144 150 150 137 134 127 120 132 140 149 148 148 149 146 142 134 141 132 104 65 10 8 10 23 35 48 64 74 82 101 101 108 106 105 103 103 110 109 111 111 113 119 118 124 124 128 121 126 123 121 121 118 107 127 131 128 128 122 122 129 137 133 136 142 136 137 136 138 142 139 140 138 138 133 140 135 
154 154 152 150 149 145 148 140 136 123 118 127 141 147 147 148 146 144 144 132 140 133 103 58 15 6 11 23 32 48 62 76 81 96 106 107 106 95 100 103 106 110 111 111 111 116 117 124 123 122 126 125 122 121 119 114 105 123 131 127 125 126 123 126 136 133 137 143 142 140 137 143 143 141 138 137 139 137 138 140 
152 156 153 151 144 147 149 137 131 125 113 126 140 146 147 148 147 147 144 136 139 130 103 59 10 3 13 18 31 41 64 78 92 102 106 112 102 98 100 101 105 109 111 113 111 116 114 121 118 122 122 123 124 122 121 114 104 121 133 126 127 124 123 131 135 138 136 140 141 141 138 142 147 140 140 141 139 138 141 139 
154 156 153 154 142 144 145 130 122 113 111 126 137 145 146 148 145 144 144 138 141 124 102 59 12 3 6 21 32 44 71 95 99 104 107 112 106 107 111 114 109 105 106 109 112 113 114 117 118 122 122 121 121 121 122 111 107 128 130 125 129 121 121 125 135 138 135 140 140 137 136 143 143 140 141 138 139 135 141 138 
150 156 153 153 142 143 144 118 109 104 106 116 128 145 144 143 147 146 147 138 140 121 102 63 12 1 6 14 32 50 76 96 97 100 100 103 105 110 113 114 112 105 107 108 111 111 112 115 121 116 118 120 126 122 121 112 103 123 132 126 128 121 120 128 135 136 137 139 139 140 139 142 141 139 140 136 140 136 138 138 
147 154 150 150 139 144 141 117 106 108 102 114 127 141 142 145 144 147 145 137 135 126 106 56 10 1 6 16 30 47 75 92 96 95 97 99 101 109 113 115 113 106 109 109 112 109 111 117 119 118 117 119 123 119 118 112 102 119 127 123 127 124 123 129 136 134 138 141 139 139 141 141 142 135 139 135 135 136 142 136 
150 151 149 146 138 143 139 117 110 116 106 109 131 140 143 141 146 145 144 137 139 118 101 55 10 0 5 18 30 50 83 89 92 94 92 97 99 102 109 113 114 106 105 104 109 109 110 115 116 116 118 120 122 117 118 108 107 120 128 124 127 121 122 127 135 131 137 138 140 141 139 140 144 138 137 135 137 134 138 146 
149 148 149 145 136 141 142 124 118 124 115 122 136 138 146 143 144 146 142 138 141 117 97 42 11 6 6 18 31 49 84 89 95 90 91 95 99 104 110 112 113 105 104 102 106 108 112 114 117 118 119 120 119 117 114 106 107 127 128 125 126 122 122 128 134 136 138 141 143 144 138 145 142 140 138 135 138 137 139 138 
151 152 148 150 136 142 140 120 118 116 112 127 126 142 145 145 146 147 142 136 134 111 98 43 11 4 7 19 32 48 76 86 92 91 93 94 97 101 109 114 117 105 100 103 99 108 109 113 115 117 119 119 120 117 114 104 108 119 128 126 126 121 122 127 133 139 137 144 142 144 142 144 145 143 140 139 142 138 139 137 
152 150 149 144 130 138 142 126 122 122 117 125 127 141 141 145 145 146 142 135 136 107 96 46 14 4 8 18 35 49 79 90 90 92 92 93 94 103 111 112 117 111 101 104 105 109 109 114 116 118 117 119 119 115 110 104 106 123 124 125 126 120 125 130 133 134 139 142 145 143 143 141 145 139 139 142 142 137 140 141 
149 149 148 143 127 138 139 121 119 118 121 121 124 134 144 139 146 145 145 136 131 107 92 42 14 11 10 17 30 51 76 90 88 88 92 95 96 101 101 113 119 109 101 101 103 108 110 113 115 115 114 115 115 112 109 103 104 119 127 122 123 119 121 125 139 135 139 142 143 140 141 142 143 141 138 139 141 137 141 140 
149 150 148 139 124 136 137 125 117 120 119 120 123 132 144 142 142 143 144 138 131 104 92 43 16 15 10 22 33 50 81 87 89 91 89 95 96 95 96 106 114 107 100 102 107 109 109 118 115 115 114 115 115 115 108 103 100 121 129 124 123 119 120 129 141 138 141 144 140 141 139 142 142 144 143 138 139 138 143 144 
143 146 147 136 126 139 139 119 116 117 113 121 122 135 139 140 143 143 143 138 129 100 93 45 22 20 17 29 38 53 84 90 90 92 95 97 96 96 93 93 101 97 98 102 106 109 108 115 115 117 115 116 115 113 105 105 105 121 127 123 124 120 122 130 135 138 139 142 138 140 136 142 142 143 141 139 141 140 144 138 
145 149 152 142 124 134 135 119 116 116 114 111 119 131 136 134 141 141 143 139 127 97 86 44 27 27 24 30 40 55 83 91 93 90 93 96 97 96 92 90 96 97 98 101 105 107 107 108 114 113 114 114 117 110 104 99 110 121 125 124 125 116 122 134 138 139 140 142 141 140 141 140 141 142 139 137 138 135 141 137 
147 152 147 144 122 133 134 110 95 102 105 110 121 134 135 137 138 136 139 137 123 91 83 40 27 31 24 31 42 57 79 91 92 88 90 96 94 96 95 93 92 93 99 99 102 101 105 108 115 115 114 110 112 111 107 96 111 115 124 120 118 116 122 130 138 138 138 142 142 142 140 142 142 142 138 139 141 136 133 139 
152 150 152 141 120 135 131 103 98 102 103 108 122 135 135 132 136 139 139 130 122 92 82 42 28 31 33 33 40 61 78 89 91 88 91 91 93 95 96 89 91 93 98 97 104 103 104 112 111 117 113 113 114 109 104 94 109 120 127 121 121 115 125 131 137 139 142 145 142 144 141 145 143 142 139 142 140 137 139 142 
149 151 153 141 116 131 133 105 92 101 110 111 121 134 136 133 140 138 136 131 124 88 82 41 29 36 37 38 44 60 79 87 87 93 91 91 92 96 98 90 93 94 103 98 106 107 102 109 109 112 115 113 112 111 104 94 114 121 125 120 116 115 126 134 138 139 141 146 141 144 145 144 145 144 139 141 142 139 139 139 
149 150 147 141 114 132 131 100 93 100 111 120 128 131 132 136 138 134 136 127 111 89 83 43 27 41 40 38 42 56 75 82 89 84 91 91 89 95 94 90 95 92 96 97 104 104 102 109 110 113 114 112 113 109 105 92 114 119 124 122 119 116 132 129 142 140 141 141 144 144 144 144 145 141 141 139 139 137 145 145 
148 147 145 141 112 132 131 104 94 106 116 119 127 132 134 132 138 134 137 131 112 87 81 43 29 44 41 38 42 52 74 80 84 90 86 91 90 93 95 90 92 92 97 98 99 104 102 111 110 113 112 111 113 107 103 94 111 118 124 116 118 117 131 135 144 137 139 145 147 143 146 143 142 146 142 141 144 138 143 136 
145 144 145 138 110 130 129 100 102 104 117 117 123 133 133 134 133 134 134 129 107 85 81 38 29 40 42 40 45 58 72 84 84 80 86 84 89 94 96 90 88 91 96 97 100 102 102 109 109 111 108 113 110 106 98 90 113 117 121 117 112 116 123 130 137 138 139 140 146 143 143 141 146 142 141 139 140 140 141 140 
148 144 148 140 108 128 129 107 111 111 119 98 108 132 133 129 135 134 133 126 108 86 84 39 28 40 41 42 49 57 73 80 83 83 84 86 90 93 98 91 90 89 97 96 97 104 99 108 108 108 109 110 110 104 102 93 111 117 117 114 114 116 126 130 140 137 138 142 145 142 142 144 147 144 140 140 140 141 145 138 
146 147 146 141 106 126 124 109 107 111 104 77 94 120 123 128 130 132 135 124 104 84 78 39 27 39 41 47 46 58 76 79 85 81 89 88 92 94 94 86 86 86 95 93 94 97 100 105 106 112 109 107 109 104 95 94 109 121 119 112 109 117 122 132 136 136 137 141 141 148 142 142 143 146 140 141 142 141 141 141 
152 147 148 138 104 124 127 103 72 69 71 64 73 89 86 97 117 122 111 96 95 84 76 40 17 36 43 43 47 55 72 79 81 78 85 90 91 91 83 86 87 88 91 92 96 98 98 105 106 112 110 109 109 102 95 94 110 109 114 109 109 109 124 131 137 135 135 142 144 144 142 144 146 148 144 141 143 140 141 142 
145 148 143 139 103 124 121 103 66 56 60 60 67 69 70 77 85 85 70 72 81 79 77 34 16 31 39 43 46 50 71 81 81 79 82 85 87 85 84 83 86 86 90 89 93 96 97 102 101 108 106 108 106 105 98 93 106 112 110 105 103 111 121 126 135 136 138 142 143 145 143 144 148 142 143 140 145 141 140 142 
144 146 148 143 105 119 118 103 66 51 54 56 62 68 64 70 74 71 64 65 79 77 72 32 10 30 33 38 47 49 66 78 82 80 82 83 84 80 80 80 82 82 87 91 91 91 95 100 99 102 109 107 109 104 99 91 104 107 108 100 101 110 117 129 138 136 135 140 143 143 143 143 145 144 143 139 144 142 146 140 
142 144 143 139 107 115 116 104 68 47 48 52 58 62 60 64 69 66 62 63 72 75 68 28 8 21 29 39 47 53 65 72 79 80 71 81 73 73 78 75 85 80 85 87 91 93 95 98 99 99 104 105 105 99 95 86 102 102 104 98 101 107 116 126 135 136 135 141 143 144 144 146 146 147 144 141 146 144 150 147 
140 146 146 140 104 110 117 106 66 44 45 45 52 58 57 60 65 61 60 62 70 68 64 20 4 13 27 37 43 48 66 76 78 80 71 69 70 70 75 75 81 81 84 82 88 93 96 99 98 101 102 108 106 106 94 90 103 101 103 94 99 109 115 126 135 134 138 140 143 147 145 153 159 162 153 152 154 148 154 148 
141 146 145 136 100 103 110 102 70 38 38 41 44 56 51 51 62 57 54 58 64 66 57 11 5 18 32 39 48 52 63 74 76 78 66 68 66 67 76 72 77 84 81 82 89 96 94 105 104 103 105 106 108 102 91 96 109 100 97 90 101 104 115 129 134 133 132 140 142 145 151 178 217 219 195 161 154 148 152 151 
145 144 146 134 104 106 110 98 75 32 33 29 34 44 44 44 49 47 48 51 60 60 50 12 4 31 40 46 52 53 65 74 77 68 64 66 68 71 72 67 70 82 103 107 119 131 130 142 138 133 136 136 135 133 126 128 121 112 100 90 96 105 118 129 134 131 134 137 140 147 152 185 233 240 215 163 148 149 155 150 
143 145 141 139 107 99 109 99 78 33 27 26 25 34 33 34 38 36 38 48 59 58 47 15 6 41 41 48 55 51 61 69 70 65 62 64 64 70 72 66 69 116 131 140 149 147 146 159 148 149 149 149 147 148 145 147 146 139 105 89 95 99 116 126 131 134 133 139 143 146 156 200 260 261 227 171 162 161 165 150 
141 144 140 135 98 87 112 99 82 39 28 25 27 38 37 35 42 38 38 44 55 52 43 19 10 32 37 45 51 49 49 55 56 53 53 48 54 57 59 54 70 118 135 142 147 153 153 156 153 155 152 154 150 153 151 152 154 149 111 89 92 100 109 121 132 134 135 139 141 144 155 195 250 262 230 172 165 156 158 152 
141 139 139 136 107 79 110 97 86 43 28 27 31 36 38 41 43 45 47 42 45 43 40 29 15 27 32 43 51 52 54 56 58 58 56 56 57 59 59 58 97 129 140 146 151 152 152 157 157 156 158 155 155 154 155 158 155 153 111 90 91 100 111 120 133 136 133 138 143 145 150 187 214 227 216 171 151 147 148 147 
140 138 137 135 103 75 107 98 84 48 24 23 27 30 28 35 38 37 37 37 37 34 32 16 24 40 43 45 52 53 56 60 61 58 58 60 60 66 70 77 124 143 143 146 150 157 156 160 159 161 160 157 159 157 160 155 161 163 124 90 92 99 111 126 133 133 137 140 142 146 160 191 202 207 205 192 165 146 146 144 
139 142 137 135 106 73 108 100 87 52 23 19 21 27 25 27 28 28 32 27 30 28 31 30 53 69 57 44 52 56 56 58 60 54 52 58 64 66 78 98 132 145 147 147 156 160 159 160 160 156 158 158 159 157 157 164 158 164 145 98 92 97 108 125 128 128 135 141 142 149 172 183 193 196 198 190 184 153 147 138 
139 136 138 133 112 70 102 96 89 57 16 12 18 25 20 22 21 20 24 18 19 26 60 76 81 84 73 55 51 50 53 56 54 53 55 58 65 71 76 113 137 144 144 145 154 162 159 158 157 158 157 158 157 161 157 161 165 161 156 109 96 93 111 121 129 127 133 137 142 155 169 177 184 188 185 189 186 167 149 141 
138 142 136 135 115 64 98 94 88 66 29 26 23 26 27 28 28 24 24 24 27 45 70 76 88 88 80 66 53 49 54 53 55 57 60 64 62 67 84 130 147 146 149 151 153 161 158 159 160 158 159 157 161 162 165 166 165 164 155 134 101 99 115 124 130 131 134 142 155 160 163 172 179 181 177 183 180 167 149 138 
137 140 135 135 116 66 99 91 88 66 39 31 32 34 35 36 36 32 35 37 46 51 68 73 88 92 86 70 56 55 56 56 59 58 66 65 65 72 107 133 144 147 155 153 154 157 157 160 162 161 160 160 161 163 163 167 162 162 163 147 113 101 116 123 132 129 133 143 149 156 163 165 175 176 176 175 173 161 141 140 
137 142 138 134 122 69 89 91 89 77 47 37 38 41 38 40 35 36 41 48 57 59 71 79 87 93 88 65 64 60 61 60 59 61 70 64 76 87 130 143 151 151 155 155 153 155 156 159 158 163 162 160 160 160 165 164 166 167 165 154 133 106 120 128 132 132 137 141 147 147 154 158 160 162 160 157 150 145 139 136 
137 137 139 134 127 72 83 92 88 77 52 41 37 44 41 45 41 39 43 49 55 54 60 77 91 87 77 66 65 66 63 66 68 65 74 76 78 107 143 144 153 151 152 154 152 153 156 161 164 160 162 160 162 164 165 168 166 165 168 161 151 123 122 128 125 132 137 140 146 145 148 151 152 146 144 144 147 138 141 137 
138 138 137 132 127 81 83 94 90 79 57 47 55 58 55 54 54 52 59 58 62 62 64 78 90 83 77 76 76 73 73 78 79 83 81 81 100 131 146 147 156 152 156 157 157 155 162 166 161 164 163 165 163 167 167 170 166 166 163 159 158 149 125 132 134 135 137 139 142 145 148 148 148 145 143 147 149 142 142 141 
132 135 132 128 124 96 85 89 92 83 77 72 87 83 86 85 88 78 86 89 85 86 83 86 94 98 95 90 88 83 84 92 92 88 94 97 125 140 151 149 155 153 156 155 157 154 154 163 163 161 163 160 165 168 164 166 165 164 161 158 159 152 144 133 134 132 133 139 143 142 143 143 146 144 142 143 143 138 144 142 
133 137 133 132 124 103 94 95 96 87 83 92 102 100 100 103 101 102 109 105 107 105 103 100 105 111 109 108 108 108 108 112 116 115 113 121 136 143 149 150 156 154 154 156 159 158 157 163 164 164 160 162 168 165 165 168 164 162 162 157 162 161 157 147 141 138 139 141 143 145 146 146 147 144 144 142 142 141 147 142 
131 133 131 132 121 105 100 95 95 98 83 101 111 105 103 103 105 104 109 107 110 110 110 113 111 112 111 112 114 114 110 116 117 114 127 136 142 142 152 151 156 150 154 156 163 160 161 168 169 165 165 166 162 164 167 166 163 155 155 156 162 158 162 155 148 140 139 143 146 146 148 145 151 151 148 152 151 147 150 149 
123 126 128 128 121 102 106 97 98 100 98 106 108 108 108 103 108 108 106 107 109 104 108 112 110 114 112 112 116 109 110 113 115 119 137 144 144 150 152 152 147 143 151 158 160 161 163 169 167 166 167 168 168 166 169 167 163 152 152 148 160 163 161 160 157 149 144 147 144 149 153 151 157 157 155 154 160 154 150 147 
112 110 107 112 104 99 109 99 105 111 107 106 106 112 109 104 105 105 107 106 107 104 108 108 109 111 107 105 114 109 109 113 118 121 139 147 152 150 153 146 131 137 152 157 163 164 165 168 168 167 170 169 167 164 167 165 159 151 150 143 151 159 164 164 160 151 144 147 145 151 151 153 155 154 154 154 153 153 156 151 
101 99 107 102 99 103 105 99 104 109 109 104 106 109 105 105 104 100 107 98 101 104 102 104 107 109 104 103 109 105 105 111 118 131 146 153 155 152 149 137 127 136 154 157 157 162 161 165 163 165 166 165 165 165 166 169 161 151 152 141 154 155 161 163 161 150 141 147 147 149 153 153 154 157 156 155 157 155 161 153 


