P2
80 60
304
152 150 150 146 140 142 143 141 146 143 144 139 136 136 124 77 29 31 48 73 97 95 111 111 118 116 119 114 118 123 121 125 122 121 124 122 121 124 124 116 108 120 125 123 118 117 123 134 138 136 135 137 138 138 140 140 144 142 148 141 143 143 144 136 136 132 127 127 130 126 120 130 130 127 133 139 136 139 130 136 
154 147 149 147 140 140 143 145 140 144 144 139 140 136 120 73 30 34 50 69 95 93 109 115 113 121 126 119 122 121 126 127 126 118 120 124 121 123 117 114 110 119 126 121 119 116 127 138 136 137 138 136 135 139 145 143 145 147 143 142 144 143 140 134 138 132 130 126 123 126 125 129 129 133 132 137 136 140 131 135 
154 151 149 142 144 144 144 142 144 145 144 140 136 137 119 69 27 43 59 74 102 100 116 113 114 120 127 118 124 124 123 126 119 125 124 123 123 124 121 113 107 119 125 122 122 122 130 139 139 136 140 140 138 140 142 141 142 142 142 140 142 143 142 136 138 134 132 133 129 126 130 127 130 137 135 139 135 142 137 144 
153 152 145 145 139 143 145 144 144 145 145 134 135 132 111 64 27 43 62 74 93 105 113 108 109 119 125 119 121 122 119 121 119 117 124 123 126 127 121 106 107 117 124 122 119 120 130 137 141 140 140 137 140 139 140 143 143 141 139 143 146 142 141 138 134 134 134 129 127 128 127 133 122 133 135 138 137 143 140 142 
152 153 146 145 139 144 145 146 143 142 139 134 133 137 113 50 26 48 65 85 92 103 113 112 112 119 123 120 121 119 120 119 117 118 117 123 123 124 121 111 105 122 125 122 122 120 134 140 138 137 139 139 137 141 138 142 142 140 141 141 145 144 140 138 136 137 135 132 129 128 123 132 130 135 137 137 140 143 137 140 
156 152 148 142 142 147 144 143 144 145 140 135 131 134 105 42 16 35 55 82 90 100 110 108 111 113 117 117 120 119 117 116 119 116 119 120 126 122 122 105 106 121 127 120 121 124 139 139 139 139 140 138 140 141 140 144 142 142 144 142 146 140 143 137 137 135 133 135 136 128 130 130 132 132 138 139 135 144 132 139 
154 148 145 142 139 145 145 144 141 144 142 133 130 130 102 25 12 22 44 61 80 97 109 106 107 110 118 117 120 119 117 117 119 117 122 122 125 122 120 107 103 121 121 120 121 127 134 143 140 139 139 140 139 141 140 141 141 149 146 141 142 142 141 135 135 135 135 133 134 128 124 126 128 132 139 135 137 142 136 138 
155 149 148 142 142 146 145 142 142 143 138 132 131 127 89 20 10 21 32 55 80 93 105 101 103 110 109 114 115 119 119 118 118 116 117 123 125 125 115 105 108 121 122 122 118 124 137 139 136 137 141 141 142 139 143 147 141 144 148 143 144 142 142 138 135 137 138 131 133 128 130 130 129 133 136 135 135 142 136 140 
159 149 146 145 144 144 143 146 145 147 140 134 137 127 80 15 12 25 30 52 83 92 98 100 101 108 111 111 120 120 118 114 118 118 119 121 125 121 115 102 112 121 124 123 116 121 134 143 139 137 140 139 143 141 139 144 143 144 143 145 143 141 141 134 138 140 132 131 131 128 129 130 130 134 132 134 133 141 125 139 
156 149 154 148 140 139 149 149 149 145 143 138 138 124 77 19 9 15 28 50 73 88 96 96 100 106 111 110 117 117 114 116 118 114 121 123 124 123 111 104 113 120 123 119 124 120 131 138 139 137 142 135 140 142 140 144 141 143 142 146 142 141 145 135 137 138 135 129 133 128 127 131 133 134 132 135 136 140 133 138 
151 147 147 137 130 138 151 146 145 143 140 135 137 126 76 15 6 21 37 59 75 80 86 96 96 104 109 109 115 113 110 115 115 116 118 120 123 121 114 104 113 121 119 121 122 123 134 139 138 137 139 140 140 140 140 142 140 143 140 140 142 142 145 137 139 133 134 132 130 126 122 128 127 132 130 142 136 137 132 141 
151 145 150 135 126 138 144 144 143 144 142 133 136 119 68 11 3 15 36 56 71 77 86 95 101 108 111 108 112 112 113 115 117 115 114 120 120 120 104 105 115 117 117 116 120 127 136 139 137 135 139 136 138 137 137 141 143 141 144 140 141 147 141 138 137 135 133 130 132 124 123 126 129 138 131 141 140 136 132 142 
152 146 140 142 120 122 146 143 143 144 139 133 138 119 64 10 5 21 34 55 71 72 85 99 111 116 109 106 109 111 114 111 113 118 114 118 120 114 103 99 109 114 115 115 117 122 136 137 136 136 140 138 136 134 138 141 143 144 141 140 141 141 146 138 136 135 135 131 127 127 118 130 128 135 134 140 138 143 134 138 
148 140 139 132 115 126 138 144 141 140 140 132 132 115 58 11 2 19 31 51 69 72 76 95 105 108 107 106 100 110 110 111 116 116 116 115 116 115 104 101 115 117 117 114 121 127 137 137 136 138 141 139 137 139 138 142 143 143 144 140 138 144 143 136 138 135 133 132 131 127 125 128 128 135 131 136 136 143 130 138 
147 140 134 114 111 123 130 145 142 142 136 137 135 103 52 3 0 19 28 51 69 69 77 93 103 106 103 105 106 106 107 109 111 114 117 116 115 113 104 102 116 118 121 114 118 127 135 138 136 138 136 137 138 138 141 147 150 152 147 142 140 141 143 136 136 135 136 132 129 125 124 130 131 137 133 138 139 144 134 137 
147 139 128 113 109 119 129 141 143 136 138 133 134 102 47 3 0 16 27 56 67 75 81 98 104 101 106 103 106 108 107 106 110 113 115 116 121 111 98 101 115 120 119 112 120 128 133 138 138 134 138 138 140 138 140 146 146 147 148 144 144 145 142 133 135 136 133 134 133 127 126 130 131 134 135 139 139 144 136 140 
148 138 132 118 115 123 128 144 138 141 138 136 127 99 36 5 1 20 29 56 76 79 98 92 104 107 114 109 105 108 107 109 111 116 113 117 113 110 102 101 115 121 122 116 119 128 134 136 134 135 140 138 139 140 142 144 146 146 144 142 141 142 142 131 136 135 136 135 132 127 127 135 136 135 132 139 135 144 135 141 
145 142 130 122 119 128 131 145 142 138 140 134 124 98 30 3 2 18 35 68 80 86 97 93 98 112 112 114 109 107 106 109 112 114 115 116 117 109 102 105 119 120 119 119 123 128 133 134 139 133 138 135 136 138 143 141 143 149 143 144 140 142 144 132 136 137 131 132 133 130 130 135 131 136 137 138 137 141 136 140 
146 136 128 127 120 125 130 138 142 140 135 131 122 92 25 5 3 22 40 64 81 86 95 91 93 103 108 108 111 107 105 108 116 115 114 117 112 108 102 109 119 124 119 119 120 128 134 135 134 133 138 139 141 140 140 145 143 143 144 144 144 140 139 133 136 137 132 131 133 126 130 138 132 136 134 138 136 142 139 143 
140 135 128 124 122 127 124 138 136 136 135 134 113 85 19 8 7 23 38 68 83 84 91 89 94 104 107 108 115 109 108 108 110 110 111 114 114 107 100 108 119 122 120 115 123 128 132 137 137 139 138 139 140 139 140 141 142 143 142 140 141 139 140 136 134 134 132 129 131 130 128 134 135 134 130 135 137 142 138 139 
139 131 123 122 123 130 128 137 136 139 138 134 115 82 21 7 9 23 44 73 87 89 90 95 94 100 109 106 115 106 108 108 107 111 110 115 110 104 99 110 117 123 117 114 122 130 134 135 137 138 139 137 141 137 141 138 143 140 142 144 141 137 142 133 134 134 133 129 129 130 129 134 131 134 138 138 138 144 136 142 
137 121 109 115 112 117 128 136 134 138 135 134 108 73 19 14 12 31 47 75 90 87 93 92 92 101 105 113 113 106 105 105 109 107 106 108 108 94 104 108 118 118 115 112 117 129 132 135 134 135 138 136 137 136 137 142 141 140 145 142 141 138 140 135 136 135 132 129 133 131 126 134 133 131 137 139 141 142 135 144 
135 126 104 110 110 116 132 135 134 140 133 130 107 72 22 23 22 32 53 81 88 91 93 93 93 99 108 116 107 107 103 107 108 107 108 111 111 97 96 116 117 114 116 114 125 132 132 136 135 139 140 138 141 139 137 140 140 141 144 144 146 141 142 137 139 140 133 129 131 130 133 135 136 140 136 140 139 144 139 145 
133 119 104 106 109 118 132 138 135 137 136 127 93 65 29 33 28 35 53 73 90 87 91 93 95 102 106 103 103 102 97 105 105 107 110 108 108 96 97 109 112 115 113 115 125 131 134 135 136 140 139 139 137 139 140 138 141 142 140 140 140 139 140 137 139 137 136 132 130 132 130 134 136 137 136 140 141 146 141 149 
131 118 105 105 117 124 134 133 137 134 131 118 89 60 20 27 29 43 50 66 75 83 93 90 91 100 103 95 99 97 100 101 101 102 106 106 104 97 92 113 119 114 111 114 124 123 131 138 136 138 135 138 137 139 138 138 141 142 142 143 143 143 142 136 135 134 135 133 131 129 129 134 134 140 142 143 140 145 140 142 
130 117 109 111 119 125 128 135 131 132 130 112 86 64 30 36 36 42 54 64 72 79 85 87 89 98 103 94 93 97 97 99 101 103 107 108 107 94 92 111 115 112 110 111 128 131 135 139 138 136 137 134 137 139 136 139 140 142 141 141 140 140 140 135 134 136 134 129 127 130 130 134 134 139 141 144 141 145 139 142 
132 122 113 116 104 119 132 130 128 131 126 109 89 58 27 38 41 42 47 65 70 80 91 86 88 93 100 96 95 97 95 97 101 101 107 106 103 92 90 111 110 111 112 116 129 129 135 137 136 133 134 137 138 136 137 138 137 140 139 140 142 140 141 134 137 136 134 131 128 130 130 134 136 137 141 140 141 145 141 144 
123 124 105 104 85 96 107 115 117 120 116 102 80 54 29 38 40 44 50 59 71 80 86 87 88 94 102 95 95 93 95 96 101 103 106 104 97 92 91 111 108 109 113 116 126 130 133 134 137 137 141 136 135 138 138 140 140 137 140 138 144 140 143 134 138 135 133 132 132 128 133 135 134 141 138 142 141 143 142 146 
119 117 77 74 69 72 79 85 87 85 83 83 80 52 24 39 38 43 49 61 65 76 81 82 84 90 90 91 92 96 94 97 97 102 105 101 92 91 98 111 109 107 108 116 131 126 135 135 137 136 139 135 136 136 138 138 140 139 141 137 140 140 140 133 132 136 133 132 130 131 132 134 135 140 140 141 144 145 136 144 
116 113 79 63 64 73 75 76 75 63 68 77 78 45 23 34 41 46 50 56 67 75 82 83 84 80 85 86 89 90 92 97 94 97 104 102 89 92 99 104 106 103 107 115 128 126 133 135 134 137 139 137 141 137 137 139 142 140 140 138 140 140 143 135 131 136 139 132 130 133 133 138 134 141 141 147 140 149 138 147 
118 104 73 56 62 69 71 73 62 59 64 73 74 32 10 27 34 44 42 54 62 75 79 79 78 81 82 83 91 89 89 91 95 98 100 96 88 87 99 99 103 102 104 114 128 130 130 133 133 134 135 133 136 138 138 140 143 139 138 140 141 140 138 135 134 132 135 134 132 131 136 138 136 141 141 143 143 146 139 148 
111 102 70 51 58 60 66 65 56 59 61 68 70 27 11 20 32 41 49 58 61 71 81 79 76 77 83 83 90 89 91 89 97 95 101 100 90 86 97 102 101 99 105 114 127 126 130 135 132 140 141 136 138 139 140 144 143 138 139 135 141 138 140 133 136 138 134 136 136 136 137 139 135 140 142 143 145 147 143 147 
112 105 67 45 49 55 57 61 54 54 58 64 61 15 3 17 32 44 48 59 63 74 77 76 69 77 86 94 103 103 107 102 102 101 105 102 95 84 97 104 98 95 105 117 127 126 132 136 138 140 141 136 141 138 142 144 142 139 139 138 142 141 142 141 142 140 141 144 144 140 142 139 139 145 142 144 143 151 142 144 
108 105 66 41 42 43 48 50 43 48 54 63 51 10 13 30 36 48 49 61 62 69 65 70 67 74 106 134 137 139 139 138 139 134 136 134 124 122 101 102 93 91 100 114 129 128 133 137 139 142 156 154 154 145 142 141 142 141 145 143 144 146 146 143 147 146 151 148 147 145 140 145 138 143 142 145 146 152 143 147 
103 101 69 33 33 35 39 38 41 36 49 53 44 10 14 39 43 48 50 56 58 62 59 58 61 79 117 136 145 144 147 146 142 140 146 141 143 139 126 103 91 95 99 112 124 132 136 138 138 151 199 220 197 152 146 145 149 148 144 145 143 143 145 141 147 150 176 179 177 162 150 147 145 147 150 149 149 151 145 153 
100 100 70 38 34 41 42 43 37 43 48 39 41 18 18 32 44 50 45 48 44 52 51 55 56 97 131 135 143 150 150 153 150 145 146 150 149 148 132 100 89 93 95 113 123 125 134 139 141 161 227 248 212 150 154 157 151 148 143 145 140 140 142 136 138 146 182 193 194 195 188 182 166 156 154 151 152 157 143 153 
100 96 72 36 30 33 33 37 39 34 40 29 13 14 23 36 45 51 53 52 52 55 55 54 61 117 140 138 149 152 148 151 148 148 151 152 153 151 141 102 84 85 95 108 120 126 131 137 138 154 221 248 211 162 163 155 152 145 140 141 144 138 139 139 141 155 184 192 197 199 202 208 201 198 186 171 161 161 154 160 
101 98 69 34 23 29 30 26 27 24 27 33 47 48 60 56 46 59 48 48 49 51 63 64 87 133 142 142 147 151 152 150 152 151 151 151 152 153 146 116 86 85 95 114 122 127 129 136 138 153 197 208 200 160 149 146 147 143 142 142 138 139 138 137 140 167 188 195 200 202 207 207 211 212 215 204 192 181 162 167 
100 93 76 32 27 27 25 24 24 18 19 29 60 76 77 69 51 54 44 48 44 52 62 68 116 138 140 143 147 151 148 154 153 149 152 154 155 151 151 128 83 81 97 110 121 123 129 138 141 168 187 187 195 181 152 145 145 144 141 142 139 140 139 136 142 172 194 197 208 205 208 214 218 222 219 214 209 207 188 182 
95 96 75 44 35 38 35 32 29 35 57 53 71 78 86 78 50 50 49 45 49 56 66 95 130 144 150 150 150 154 148 155 154 153 150 152 156 157 152 140 90 82 91 110 121 121 133 136 152 167 180 180 188 183 169 146 143 139 138 139 142 139 143 135 141 182 195 199 201 212 214 217 218 223 219 219 212 213 202 197 
99 98 82 45 40 40 38 39 36 39 48 54 65 87 75 71 57 55 56 57 54 59 89 128 140 152 155 152 150 152 150 154 155 155 153 155 157 151 151 151 118 93 98 111 121 123 125 139 149 164 171 171 180 177 171 148 142 136 140 142 141 140 141 136 146 195 204 203 216 216 212 225 223 231 228 228 217 222 208 206 
91 95 80 61 59 58 52 54 48 48 57 58 64 83 82 65 62 64 62 62 62 83 125 138 145 149 156 153 151 151 148 153 155 153 152 158 158 154 150 151 136 106 99 114 125 125 135 144 149 150 152 154 159 152 152 147 141 138 138 145 148 144 147 142 156 201 201 210 216 219 217 226 229 234 226 232 218 225 207 204 
97 88 83 81 89 92 88 89 88 89 92 85 85 92 91 89 83 81 74 81 85 118 145 144 142 145 151 148 151 157 156 154 155 152 155 160 160 159 151 148 147 126 117 121 129 129 137 143 145 145 147 145 144 142 142 143 141 138 139 147 151 150 153 154 177 207 210 212 221 222 218 229 227 233 230 231 222 222 206 205 
107 87 92 92 103 103 98 100 96 97 103 100 102 108 104 108 103 104 106 108 114 137 145 146 138 129 149 151 154 156 156 156 157 156 156 157 161 152 145 146 146 145 129 124 129 132 139 146 142 145 142 141 141 140 142 140 139 139 139 148 152 154 160 161 192 220 219 219 221 222 223 231 232 237 232 229 223 224 210 200 
105 100 103 105 102 102 101 102 99 101 102 102 105 109 109 108 110 110 107 116 131 137 148 140 130 131 147 151 152 157 154 158 155 153 161 158 157 147 137 143 149 151 148 135 132 133 137 140 138 140 142 141 139 138 137 138 142 142 140 142 149 144 155 158 205 227 226 223 222 226 226 238 234 238 234 230 223 228 205 205 
107 104 105 104 104 104 103 102 103 102 105 100 105 110 110 111 108 107 109 117 130 141 150 140 124 124 145 149 156 156 155 155 154 153 155 157 155 141 137 137 145 151 152 143 133 135 134 137 138 139 140 140 140 141 141 137 139 140 142 141 146 146 151 158 214 250 236 229 231 227 230 234 238 242 240 234 233 236 211 208 
106 107 107 103 103 104 98 99 97 98 97 100 105 108 104 108 105 105 108 119 135 142 147 136 122 125 154 154 154 155 149 152 152 153 152 155 155 145 138 137 141 153 153 145 138 141 139 140 141 142 143 141 142 146 146 143 147 138 139 139 138 144 151 145 167 214 247 246 241 235 235 237 247 243 243 238 229 237 207 213 
108 110 109 102 106 104 100 103 97 96 101 101 102 108 103 103 106 104 106 116 138 145 149 139 132 139 152 151 154 156 153 151 153 154 151 152 155 147 140 136 147 155 154 150 146 135 143 142 144 145 146 144 148 149 150 156 151 142 135 139 140 147 150 149 150 160 196 247 266 255 248 249 255 257 252 248 242 246 210 212 
106 107 106 105 103 102 100 101 99 97 100 101 103 108 104 106 104 104 106 112 133 146 155 152 144 156 156 151 157 156 152 155 153 152 153 154 155 157 151 152 153 152 152 150 146 129 138 138 139 142 146 149 147 152 153 158 160 151 142 138 141 146 157 160 158 162 160 178 220 254 276 277 267 269 259 260 253 245 215 210 
106 106 105 107 102 100 99 95 98 101 102 104 106 106 107 108 103 105 106 112 127 143 149 146 148 155 157 154 156 156 157 155 156 152 154 156 160 157 152 150 156 150 153 145 134 121 129 130 133 133 139 139 140 144 144 145 148 143 142 145 142 148 155 154 155 159 150 151 160 194 252 289 292 285 271 266 264 253 211 216 
107 104 106 102 103 98 95 99 102 101 100 101 101 105 105 109 105 104 106 107 124 141 150 145 152 154 160 152 157 157 156 156 158 153 159 157 158 156 156 152 153 150 149 147 144 119 129 133 133 135 135 132 133 141 136 140 142 143 141 140 149 145 149 148 153 151 151 151 155 157 173 228 278 296 295 283 274 250 217 221 
112 108 107 101 100 98 98 98 99 101 101 99 101 104 105 102 107 105 106 105 119 143 149 151 150 153 156 152 158 154 153 151 152 152 157 155 155 153 152 154 151 148 150 146 145 125 128 134 136 137 138 134 132 133 133 138 146 144 145 144 145 145 150 147 146 150 150 150 148 146 155 165 198 265 301 304 286 244 219 224 
111 105 105 104 102 99 98 95 97 99 100 99 103 106 103 105 103 103 102 107 118 140 149 146 152 151 158 154 159 156 152 155 153 152 153 156 155 154 157 158 151 146 146 145 141 140 140 136 144 142 141 141 144 141 141 147 147 148 149 148 150 149 150 145 145 149 149 146 150 150 150 155 162 190 232 269 274 249 228 232 
106 104 102 103 104 103 97 97 100 99 99 102 102 107 104 105 103 103 101 108 117 141 150 154 151 149 156 153 157 157 154 150 155 152 153 157 155 154 151 153 154 145 148 142 142 145 139 147 142 146 147 145 146 146 145 147 148 148 150 153 151 149 149 146 149 151 149 148 148 145 148 156 158 157 169 197 216 227 234 238 
108 107 102 101 103 98 96 95 98 100 102 100 101 103 107 104 102 102 99 105 118 135 148 150 152 154 163 153 157 153 153 154 154 153 155 153 156 151 154 153 151 147 141 143 144 141 139 147 145 153 157 157 159 154 151 153 151 150 151 152 154 149 156 149 152 154 150 150 148 145 151 163 152 154 158 162 159 191 211 238 
106 103 105 104 101 94 92 96 100 98 103 103 105 106 106 101 98 102 103 101 121 140 147 146 147 155 161 156 156 156 155 156 154 151 152 154 154 150 152 155 145 145 142 139 139 138 152 152 149 157 163 163 160 159 156 151 155 153 152 153 151 159 157 148 155 155 152 152 157 151 152 150 149 153 155 156 155 157 170 212 
109 106 107 103 99 96 90 95 95 99 103 99 109 106 104 101 98 105 105 106 124 141 147 147 149 151 157 153 155 156 151 155 156 149 155 154 156 150 153 153 149 148 141 137 139 145 150 167 165 157 163 161 161 163 159 156 154 155 156 152 155 155 163 153 161 157 149 155 162 166 167 156 148 154 155 153 151 158 150 181 
105 103 100 104 100 99 94 96 96 99 97 102 103 105 101 102 102 114 122 127 131 140 143 146 150 151 156 151 157 156 152 152 151 153 156 153 157 155 153 155 147 147 141 138 138 141 152 162 157 162 164 163 168 163 168 165 162 155 154 154 157 156 160 155 163 163 157 158 161 173 189 175 158 157 153 151 152 151 148 162 
105 105 105 102 98 96 94 96 99 101 98 97 101 102 100 98 101 124 132 140 141 140 145 147 147 149 155 151 155 152 154 149 149 152 154 155 155 151 152 151 146 147 146 135 138 140 151 158 162 163 162 163 166 164 166 169 162 157 155 155 157 157 156 154 166 166 164 158 164 169 180 190 178 151 147 148 144 151 142 154 
110 102 108 105 102 99 97 94 97 99 97 96 101 102 102 96 108 133 141 148 140 143 146 144 147 150 154 148 152 152 147 149 150 149 153 150 155 149 149 152 148 148 147 137 140 138 150 158 160 164 165 164 168 165 166 164 163 160 161 161 160 160 159 156 168 166 166 171 169 168 169 175 170 155 152 148 151 151 149 148 


