P2
80 60
174
158 164 159 164 168 167 165 164 161 164 165 165 164 164 167 164 152 152 150 153 154 155 163 164 165 167 167 169 169 169 169 166 171 164 163 164 162 156 154 157 164 152 152 137 110 104 79 30 11 11 14 15 28 30 37 43 49 58 68 82 91 102 103 108 112 111 110 108 113 115 115 113 118 119 121 121 119 120 119 126 
160 168 165 169 166 169 162 162 161 164 162 162 161 165 168 159 157 157 158 153 157 161 163 163 168 166 167 164 169 165 168 172 168 165 165 164 161 152 156 160 165 150 149 134 113 105 79 23 12 16 16 16 27 26 24 40 54 57 70 82 90 98 100 105 110 110 106 108 110 111 121 116 116 117 121 119 122 121 119 125 
163 164 165 166 168 167 165 162 160 167 163 162 166 161 165 163 156 163 159 157 159 165 166 163 165 168 171 167 171 167 169 168 167 161 165 165 161 157 155 159 171 151 145 133 112 104 79 25 9 14 14 13 15 20 31 43 47 56 66 73 90 92 96 104 106 105 106 104 111 112 118 117 117 116 113 121 117 119 119 121 
160 163 163 165 168 164 168 161 165 161 165 167 161 160 167 166 162 157 155 156 158 163 163 162 164 167 170 171 168 168 165 166 168 163 163 161 160 158 158 163 165 148 148 132 116 104 79 24 12 12 13 11 18 25 35 44 51 57 72 81 88 94 96 99 102 100 104 104 106 113 112 114 115 115 115 123 120 120 116 124 
163 163 162 165 162 163 164 163 162 160 164 165 161 163 164 164 155 150 151 145 147 157 159 157 167 168 174 166 166 165 165 167 164 160 161 162 157 155 160 160 164 153 149 131 111 104 80 29 15 13 8 6 17 23 34 44 50 60 73 76 86 90 91 96 101 104 102 106 104 110 111 112 115 113 117 116 112 111 117 119 
157 163 164 166 162 161 161 163 166 163 163 162 161 165 162 156 150 148 143 148 152 152 157 159 169 169 170 166 168 165 165 166 167 165 162 162 158 153 155 157 161 156 150 131 115 105 81 25 15 11 14 9 18 21 35 45 53 66 73 80 85 89 94 98 102 105 106 108 107 113 106 115 111 111 113 111 116 118 112 120 
163 168 166 166 166 162 162 159 161 164 164 162 161 161 157 150 144 145 142 140 148 145 155 155 166 170 168 168 164 164 164 168 166 162 162 164 156 157 154 163 164 153 150 126 113 106 84 25 17 9 11 8 13 18 33 42 57 73 85 80 77 95 94 98 101 103 108 110 109 110 106 107 108 110 107 111 116 116 122 114 
163 163 170 166 170 164 162 156 161 161 161 161 159 158 153 147 146 146 141 139 146 155 164 160 167 171 172 168 167 165 169 166 167 164 163 163 161 151 153 161 163 154 151 125 112 110 83 27 16 13 11 10 17 23 29 45 52 71 77 77 82 93 109 107 111 114 111 108 110 109 107 109 108 108 110 115 114 113 111 121 
168 165 169 163 170 166 165 160 159 167 162 164 161 153 156 158 154 145 146 140 142 153 157 153 164 168 167 164 169 165 164 163 166 162 167 160 159 150 152 158 163 153 145 127 118 112 85 30 16 14 10 15 22 41 32 39 49 65 74 78 82 90 105 117 115 122 114 116 115 108 104 105 111 107 111 108 109 111 116 116 
165 160 166 161 166 169 164 163 160 161 164 163 156 155 157 150 144 143 139 122 133 149 147 151 163 169 171 165 170 164 164 166 167 160 163 163 160 151 150 158 162 149 140 126 113 112 79 24 15 13 13 13 23 30 33 40 42 60 67 73 78 89 105 113 114 114 115 114 117 110 105 102 103 108 109 110 107 110 106 113 
165 161 162 163 166 169 168 162 161 161 158 162 157 153 159 148 146 135 129 127 130 139 148 154 162 170 168 162 167 163 164 167 166 159 165 157 158 148 149 159 161 154 141 123 116 111 77 22 13 13 14 11 20 29 38 37 42 55 65 71 77 89 101 106 108 103 106 113 114 109 101 100 101 106 103 110 110 109 111 119 
169 161 168 165 167 164 164 161 158 158 162 158 155 155 156 155 143 135 124 120 126 140 146 158 166 170 166 163 166 166 163 168 166 165 170 157 156 150 153 160 165 155 140 125 115 112 80 27 12 13 14 15 22 30 33 35 45 52 65 72 75 85 89 97 100 98 104 113 108 102 97 98 108 106 107 116 109 116 115 115 
173 167 165 168 170 164 161 160 159 157 155 155 155 155 151 148 143 142 124 122 130 145 146 154 160 164 165 162 163 162 164 167 165 162 163 155 155 144 151 159 160 150 137 121 120 113 82 31 16 10 11 14 19 29 34 35 44 48 61 67 77 83 95 104 107 110 110 108 102 100 89 100 101 104 107 108 112 111 109 113 
167 163 165 163 164 157 160 154 157 160 155 154 150 153 150 151 145 137 124 120 124 145 147 153 163 163 164 161 161 161 164 168 165 165 164 157 155 152 149 158 157 143 133 121 119 115 75 22 14 13 12 9 19 26 29 41 44 49 63 68 75 82 99 102 110 110 110 104 100 97 99 98 105 100 102 106 109 105 110 112 
161 163 166 162 168 157 157 158 154 153 152 152 154 152 151 146 139 131 124 120 127 138 146 152 156 163 165 163 162 162 163 169 163 162 163 159 155 146 149 152 156 142 131 119 116 105 78 23 18 12 7 11 21 28 36 40 41 55 61 71 77 81 92 105 110 112 112 108 97 102 94 97 101 104 102 108 106 108 113 113 
165 166 168 165 168 159 159 156 158 154 154 148 146 147 141 130 124 124 121 121 122 133 137 146 152 163 164 161 162 163 161 164 165 164 162 157 157 145 150 156 156 145 124 121 116 108 76 25 21 10 8 11 19 25 28 36 39 49 58 71 77 79 93 103 111 111 114 112 102 101 100 99 98 104 105 104 108 107 109 108 
167 162 169 166 165 160 160 152 154 152 151 152 146 146 142 128 115 120 115 114 125 129 133 139 154 164 163 161 161 163 160 163 166 165 162 160 157 152 157 155 154 139 126 120 115 112 73 22 14 7 0 9 15 24 30 34 41 51 61 71 79 82 98 108 104 111 107 105 103 104 103 99 104 101 99 104 104 108 112 111 
166 163 159 162 167 159 162 154 151 146 152 147 151 144 138 129 113 108 106 112 120 128 136 143 160 159 158 161 161 162 159 163 166 164 164 159 156 157 155 161 156 138 127 120 116 112 69 22 18 4 7 7 15 26 33 30 39 59 68 80 92 98 102 106 108 110 109 107 103 107 106 107 105 108 103 106 108 104 107 111 
166 163 167 165 166 160 160 150 147 151 151 149 143 148 134 121 108 111 114 113 110 118 131 144 147 158 156 160 160 162 162 163 164 162 164 156 157 154 159 163 157 138 124 122 116 109 68 22 20 9 4 8 20 22 26 35 42 51 64 82 98 97 97 104 106 109 108 109 111 113 113 111 114 112 102 106 99 104 108 108 
163 165 166 164 166 164 162 155 151 150 151 149 147 147 139 126 114 114 114 115 118 130 144 145 148 160 162 159 159 166 163 163 166 163 162 163 160 151 157 161 158 141 124 122 113 108 66 24 11 8 2 10 17 27 26 33 40 45 64 85 92 98 101 98 97 103 104 106 109 112 117 121 115 119 112 108 104 105 105 115 
167 162 165 167 168 162 160 153 149 152 154 148 148 147 135 127 116 122 116 121 125 124 144 146 149 161 161 160 159 162 166 171 166 164 161 160 157 154 158 164 159 139 127 120 117 106 62 22 16 7 6 11 21 23 27 36 41 51 64 83 94 98 100 101 101 100 104 106 108 115 121 119 119 118 112 107 105 103 107 111 
164 162 161 164 166 159 159 153 155 150 155 150 150 144 135 126 119 123 126 116 120 123 140 147 151 160 162 161 163 162 165 167 165 160 162 167 158 154 157 156 154 137 122 116 117 108 59 21 18 5 10 10 13 26 24 35 38 49 67 83 95 97 98 99 98 98 102 103 107 112 116 115 113 119 109 109 108 105 104 109 
163 163 162 166 161 161 155 151 153 153 154 148 144 140 141 137 138 139 135 117 115 125 137 145 150 159 162 160 160 159 162 167 166 161 158 160 156 156 155 163 154 134 119 115 117 103 60 20 15 4 8 15 18 20 24 29 44 52 65 84 92 95 92 93 96 105 106 102 104 112 109 109 114 117 110 108 107 106 105 105 
163 162 164 164 163 161 158 156 154 152 151 149 141 143 149 142 138 133 122 124 135 143 144 144 156 162 159 158 160 161 161 163 163 161 158 155 156 155 156 161 152 128 117 116 111 108 60 18 16 8 9 14 22 21 23 31 39 47 72 81 89 99 98 100 100 102 104 103 106 115 110 114 116 118 110 108 110 101 102 112 
162 157 159 161 167 158 155 153 150 153 150 149 144 142 142 134 122 123 120 121 126 139 147 146 155 163 159 159 162 160 157 160 161 157 154 155 158 154 155 160 152 130 118 114 114 104 58 22 15 5 4 12 18 23 25 30 39 50 65 81 92 94 97 101 106 103 105 105 108 110 112 113 117 115 111 107 104 101 105 107 
163 156 162 159 159 161 154 153 145 150 151 145 144 136 138 128 121 121 124 119 120 136 137 133 147 159 160 159 160 160 159 160 163 160 155 155 156 151 157 156 146 127 114 112 111 103 53 18 12 5 7 10 13 19 25 35 39 49 67 83 90 97 100 101 110 103 102 102 105 111 112 116 115 119 114 111 104 102 101 101 
162 157 158 160 164 158 157 149 144 146 153 146 143 138 135 130 126 123 121 121 122 134 149 141 153 161 164 159 161 162 158 163 164 157 157 154 150 151 153 156 138 120 116 114 113 103 56 19 12 10 12 17 17 21 30 35 42 51 68 80 92 98 97 103 103 104 99 102 105 110 114 115 114 118 119 111 110 102 103 106 
164 157 164 162 166 157 154 152 145 150 147 145 137 138 132 131 131 127 123 123 133 141 144 144 150 160 163 162 159 160 158 161 164 157 156 152 153 151 152 152 140 121 117 113 114 103 51 21 13 10 13 15 17 22 27 35 41 55 68 84 90 91 96 98 100 98 103 101 106 118 114 117 114 120 118 110 105 100 104 105 
162 161 163 159 166 160 153 142 143 147 146 145 142 141 137 131 134 134 132 134 135 138 145 145 149 158 159 159 160 161 157 161 165 158 157 155 151 153 155 155 137 118 116 118 108 101 46 21 14 12 12 14 17 28 33 37 41 52 67 85 94 93 94 100 99 97 101 100 109 113 117 120 118 122 115 115 104 102 107 102 
161 158 162 163 162 158 150 147 143 148 147 144 140 140 133 137 131 125 131 128 122 131 142 146 153 154 157 156 155 159 159 158 161 158 156 156 154 150 155 155 139 121 115 114 108 99 47 21 15 15 19 16 17 28 36 40 42 53 69 85 92 96 98 98 97 101 104 103 104 108 111 117 119 120 122 118 108 100 102 105 
158 157 165 163 159 153 150 145 141 145 151 142 140 136 134 130 126 125 120 114 121 135 142 134 145 156 154 154 153 159 158 159 158 157 156 153 156 153 155 151 136 115 116 108 106 100 44 25 18 17 19 20 19 30 34 41 47 56 66 84 95 97 98 98 99 98 101 98 102 110 111 110 120 124 122 113 107 98 97 103 
163 162 165 161 162 155 150 141 132 143 150 142 137 135 135 133 125 120 120 122 125 139 141 144 147 155 160 156 154 154 157 159 158 155 157 157 156 149 146 151 132 109 114 105 105 87 39 21 20 21 23 19 20 30 34 41 40 58 71 86 91 99 96 95 99 102 102 97 100 110 103 108 113 122 114 105 103 90 97 105 
162 159 160 159 161 156 148 141 133 141 147 142 138 133 133 140 128 123 124 126 124 136 144 140 148 155 158 152 153 156 156 157 157 154 153 155 153 148 147 145 129 113 109 107 103 86 40 24 24 23 23 20 25 29 41 44 51 58 76 88 93 98 97 100 99 97 100 103 104 107 104 99 108 115 110 102 101 98 103 104 
161 160 155 158 160 157 154 142 134 144 144 142 139 134 130 129 125 124 129 127 126 129 138 134 147 160 160 157 153 164 157 157 155 154 152 155 152 148 147 147 126 110 110 105 100 82 40 25 23 25 29 28 28 38 37 44 49 60 73 89 95 97 95 97 100 100 105 102 105 106 97 94 100 100 101 99 98 97 100 104 
160 161 163 159 160 159 152 144 133 141 146 144 144 132 131 116 109 120 126 127 123 119 122 128 148 153 156 154 154 158 156 157 157 153 155 153 154 150 150 143 127 108 110 105 101 82 35 34 33 25 28 33 33 34 37 42 53 61 82 94 100 99 99 100 100 100 102 105 109 107 98 100 96 93 93 99 97 99 103 105 
157 161 161 163 161 160 161 142 135 142 146 146 143 133 116 111 108 109 119 113 114 118 130 131 153 154 156 158 154 157 157 158 161 159 155 156 154 151 153 148 121 108 105 103 98 81 38 41 36 31 35 33 36 34 43 52 56 69 81 102 101 98 98 97 101 100 103 103 102 114 102 100 93 94 97 98 100 102 100 106 
161 163 162 163 161 159 158 142 134 144 146 146 140 132 123 110 106 109 109 107 114 124 134 130 144 152 156 156 152 157 156 158 161 157 155 155 152 153 152 142 123 106 101 102 100 77 35 36 35 37 41 33 43 41 42 48 56 66 84 95 101 102 100 102 101 104 105 103 103 108 100 93 95 97 99 101 100 102 99 103 
160 161 158 165 163 163 157 142 133 143 145 143 141 134 124 107 113 120 109 114 114 127 131 132 149 153 153 143 152 153 154 159 157 156 153 155 150 153 153 142 118 104 105 102 96 75 35 37 38 37 43 38 39 44 45 54 58 67 82 95 102 99 101 103 103 108 102 103 107 109 96 96 96 97 96 100 96 102 101 104 
159 161 164 160 155 156 153 140 130 139 146 148 138 131 116 106 102 105 98 105 108 129 134 139 146 154 155 153 151 153 157 158 154 151 155 155 153 152 153 140 109 101 98 96 93 74 33 31 34 36 42 42 44 43 45 51 53 69 79 90 93 98 96 101 103 101 104 102 107 105 95 92 94 93 97 96 96 96 100 107 
158 159 161 159 162 159 156 140 124 142 146 146 139 134 122 105 96 99 107 103 121 128 124 131 145 154 155 151 150 153 155 159 157 153 154 151 152 154 148 136 113 100 102 101 95 76 40 35 38 37 48 46 47 45 50 55 59 68 82 91 96 96 95 95 100 96 102 98 104 104 99 98 93 99 98 101 96 101 101 111 
158 155 158 162 162 160 155 138 127 136 141 139 135 137 119 104 112 113 104 99 122 128 128 132 144 155 154 150 147 147 152 155 156 153 153 156 146 148 144 136 113 100 101 99 94 73 32 33 34 39 49 50 48 46 48 47 58 67 81 87 91 96 92 92 93 100 101 93 96 99 92 93 91 93 95 95 95 100 102 100 
161 160 160 156 160 160 159 143 128 133 140 137 133 135 121 100 99 94 95 116 123 123 139 141 149 155 157 149 149 150 155 157 157 154 155 156 151 151 149 133 113 103 104 102 99 68 35 36 38 41 50 48 49 51 51 53 62 68 80 88 92 95 95 96 94 94 100 96 97 96 95 94 91 94 94 100 99 103 104 106 
159 163 160 161 160 156 159 143 127 138 140 138 137 140 123 108 96 94 112 117 114 131 140 139 149 153 159 151 151 151 156 156 161 152 151 155 149 152 148 129 108 101 106 103 100 70 36 36 38 45 49 46 48 49 53 56 62 71 79 86 89 93 95 94 95 95 95 91 94 94 90 92 94 95 94 100 102 103 100 108 
159 156 156 157 155 161 156 139 123 135 140 142 134 135 119 106 108 110 117 113 114 132 143 140 150 152 153 152 148 149 157 156 153 146 148 154 152 148 138 124 106 101 106 100 97 67 37 47 38 47 54 50 47 50 48 52 61 68 77 86 85 92 88 91 91 91 92 93 93 94 94 91 91 95 93 98 98 101 105 100 
159 158 151 164 160 153 157 135 120 135 137 136 136 129 121 120 118 115 101 111 128 134 140 141 148 153 149 150 147 148 156 159 156 149 153 152 151 146 142 122 108 97 103 100 94 69 39 41 41 48 54 51 49 49 49 54 56 68 81 89 88 92 88 93 96 94 94 96 96 99 93 88 92 96 94 93 97 98 99 103 
156 154 155 158 158 153 155 143 121 130 139 137 133 131 124 118 105 99 108 122 129 131 137 141 149 151 149 151 147 149 155 154 156 151 149 154 146 145 139 119 103 97 105 100 95 66 36 37 36 40 54 49 51 53 48 52 57 73 82 87 92 90 88 92 91 97 96 98 98 99 95 93 92 97 96 97 94 92 95 99 
157 158 154 155 158 158 150 141 129 127 140 136 134 132 126 114 111 117 128 127 133 134 136 130 147 153 149 144 147 148 153 155 155 147 151 152 149 147 139 117 107 104 99 101 99 64 37 35 36 47 54 54 50 52 51 55 62 73 82 86 88 90 92 91 94 97 102 103 97 97 92 91 94 91 93 94 94 96 97 97 
154 158 155 156 157 154 151 145 129 124 138 137 133 135 124 123 117 124 128 132 130 123 107 99 139 153 148 149 150 153 151 152 150 147 149 149 148 147 140 108 104 101 103 99 95 61 35 36 35 45 52 54 51 51 53 60 62 72 79 86 89 90 87 91 96 99 101 98 93 91 92 88 91 95 94 91 91 89 97 98 
153 157 157 157 154 156 160 149 129 121 134 139 131 131 125 127 125 125 129 130 126 99 97 92 135 151 150 149 150 152 151 152 149 146 146 150 149 149 135 109 105 100 101 95 95 56 33 37 36 47 55 53 53 56 56 60 63 75 83 87 86 92 88 87 96 98 101 95 91 86 87 85 91 94 92 94 93 92 93 97 
156 154 157 155 157 156 152 142 126 122 134 137 133 125 124 123 124 117 120 123 110 80 76 93 135 149 150 150 148 150 149 148 150 141 148 149 150 143 135 111 105 96 99 99 90 54 30 31 32 46 52 49 51 54 49 60 67 71 81 84 87 88 89 88 96 94 90 89 87 84 89 86 88 92 92 92 91 93 92 95 
153 157 157 155 161 156 158 141 125 119 137 133 130 132 123 111 97 78 83 76 68 65 66 86 128 136 142 147 141 146 147 147 149 144 147 148 144 137 127 101 98 97 98 93 87 45 34 32 32 40 52 52 54 52 54 64 65 72 78 83 85 85 88 90 91 86 86 84 86 86 89 82 88 89 92 92 93 94 85 91 
151 158 158 156 163 161 152 142 122 114 134 130 127 125 117 104 67 54 48 51 56 60 68 81 115 122 119 129 141 142 146 148 150 146 146 145 145 138 119 104 98 92 94 93 86 45 36 30 34 40 50 53 55 56 54 59 63 75 88 89 86 85 85 85 82 80 86 81 83 85 84 83 87 89 90 93 89 84 85 90 
156 155 156 157 162 155 152 145 125 117 134 132 130 126 121 104 69 50 45 47 53 60 60 62 71 77 80 99 114 120 135 147 148 139 138 127 133 132 114 100 94 91 93 93 80 40 31 27 28 37 47 50 55 55 57 62 69 80 87 87 81 83 79 84 83 76 78 80 85 83 88 86 84 92 85 94 92 85 86 95 
153 156 152 157 166 160 154 148 123 120 133 133 131 123 121 107 72 49 44 47 50 55 58 56 63 66 72 75 78 89 130 147 146 139 124 100 114 107 101 94 88 86 92 88 78 34 25 28 25 34 46 49 51 56 56 62 71 80 86 83 77 76 78 76 75 73 75 75 77 86 84 84 86 84 82 92 92 86 87 92 
153 151 152 160 160 155 156 147 128 125 136 131 131 128 118 113 76 48 43 43 45 53 55 53 59 63 74 69 74 82 113 131 137 129 99 81 78 81 87 91 92 86 92 90 75 33 17 17 18 32 47 48 51 51 58 66 70 82 87 86 83 75 73 73 75 75 78 77 78 85 90 81 87 87 89 90 92 89 95 88 
152 155 156 153 157 152 156 145 128 121 136 128 128 125 117 110 82 47 37 36 39 49 54 51 59 60 64 60 64 70 85 93 98 82 77 72 71 70 82 86 90 83 91 89 66 24 15 11 11 23 39 45 49 52 53 65 70 77 83 85 77 76 70 70 72 74 77 73 74 85 89 85 85 88 88 86 86 87 91 92 
153 156 152 155 158 156 152 149 128 124 132 132 139 125 119 109 87 52 35 39 45 45 46 48 52 52 64 56 60 67 72 70 76 67 70 71 66 68 78 85 86 84 86 81 66 20 14 14 17 16 34 39 44 53 53 61 68 79 83 81 74 72 74 71 73 72 73 78 79 84 83 82 89 85 83 88 86 90 89 92 
151 155 151 154 157 149 152 148 129 122 128 132 125 130 118 116 93 52 30 30 32 37 46 43 45 49 51 49 56 60 65 68 68 63 65 66 60 64 77 86 84 79 81 80 57 16 16 16 11 20 34 37 40 48 56 59 70 79 77 78 78 76 71 72 73 78 80 79 74 86 83 79 86 87 83 86 85 87 85 92 
152 155 155 156 156 150 157 148 131 122 125 128 134 129 115 114 92 50 29 29 31 37 40 37 35 38 47 46 54 50 61 61 65 57 60 63 62 58 72 80 82 77 77 73 49 12 10 17 17 26 41 46 48 53 59 63 65 75 80 84 73 71 71 71 77 77 77 77 81 76 81 78 86 85 83 84 83 86 86 86 
153 152 151 150 152 149 151 140 131 120 121 126 127 125 119 109 92 63 30 30 32 35 36 30 34 38 43 42 45 49 57 56 54 48 53 61 58 61 69 79 81 71 76 70 49 5 8 12 21 29 43 47 55 55 61 63 71 81 82 73 74 73 72 72 75 77 76 79 80 78 85 78 84 83 83 87 82 85 86 88 


