P2
80 60
146
129 132 133 132 129 121 125 124 123 129 124 125 124 124 124 124 122 125 125 122 122 122 126 122 125 130 124 123 126 127 127 125 125 123 127 124 123 125 123 121 123 128 129 129 128 129 127 129 135 131 130 132 134 136 137 136 136 138 130 131 132 126 126 125 124 123 118 118 119 120 118 118 116 116 123 118 118 116 120 121 
124 127 134 125 124 122 127 127 125 128 123 123 125 124 125 125 130 125 126 125 124 123 123 126 124 127 126 126 125 124 123 126 126 125 126 123 123 127 124 127 127 130 128 128 128 130 127 130 131 129 134 133 134 134 138 138 135 137 136 130 126 123 123 124 123 120 117 121 119 119 118 117 117 121 121 122 122 117 123 117 
134 130 128 127 127 125 126 127 124 130 127 127 129 128 124 123 127 122 126 124 126 122 124 125 123 124 128 126 123 126 124 127 123 124 131 122 125 129 123 129 135 132 130 130 126 130 128 130 130 131 133 133 137 136 133 137 132 136 136 134 128 128 121 129 122 123 122 120 120 119 120 119 119 121 119 122 122 123 118 125 
129 127 127 130 128 124 128 125 124 127 126 123 128 128 124 129 128 124 125 124 126 123 125 127 129 124 130 125 127 125 124 128 126 125 126 125 129 131 126 133 129 129 129 131 130 129 128 130 134 132 133 135 137 136 133 135 133 133 134 135 128 126 125 127 124 122 120 120 122 124 123 125 120 123 123 120 122 119 120 121 
134 132 128 128 123 123 127 125 128 128 124 125 127 129 126 130 125 124 125 124 120 123 125 127 128 128 132 124 125 129 125 126 122 124 123 126 125 127 129 132 129 128 130 130 132 130 131 134 133 132 134 137 135 134 134 136 134 134 135 130 129 125 125 128 125 126 122 121 122 122 122 122 120 120 125 121 118 119 118 120 
131 127 129 129 128 125 124 124 130 128 126 125 128 129 126 128 124 125 122 125 124 128 125 124 125 129 126 128 127 129 125 125 119 118 124 123 122 127 125 131 130 130 133 131 133 132 136 132 132 132 135 141 139 132 132 135 135 133 140 133 127 129 126 125 124 120 124 122 124 121 122 118 120 122 122 118 120 124 119 120 
129 127 126 129 127 124 128 129 125 126 128 124 125 128 122 128 129 128 122 126 130 127 122 125 126 130 128 123 128 128 129 122 117 117 116 121 124 126 126 130 131 129 129 129 133 132 132 132 132 133 135 142 139 137 132 135 135 139 142 129 128 130 126 125 126 126 124 123 123 123 120 121 122 123 123 120 118 123 116 119 
130 132 128 130 126 127 129 127 124 126 125 128 128 128 127 127 129 127 124 125 131 126 122 128 127 127 128 126 129 127 125 120 117 115 117 121 126 125 127 129 127 131 128 130 129 132 133 130 131 134 136 139 139 137 136 138 135 136 136 129 129 130 125 125 125 125 124 125 127 121 119 122 122 122 122 119 118 118 120 126 
131 131 132 130 127 128 129 125 126 125 125 127 126 126 125 125 126 127 126 127 124 127 124 126 126 128 127 123 130 124 126 118 115 115 112 119 122 124 125 124 130 129 129 126 130 130 129 127 131 131 137 138 137 142 134 136 133 130 128 128 123 128 127 125 125 125 125 126 120 121 121 121 120 119 119 116 119 116 121 122 
133 131 129 130 129 128 128 127 128 127 127 129 128 128 125 127 129 125 125 125 124 126 123 125 125 126 124 126 126 126 121 115 116 114 113 119 120 122 122 125 125 127 126 125 127 129 130 126 132 131 135 136 134 135 133 135 132 123 132 128 124 126 126 125 123 126 126 126 125 122 122 124 117 122 120 118 121 119 118 118 
131 131 133 131 130 127 133 127 125 128 127 129 129 128 125 125 123 125 123 123 124 124 122 123 124 126 123 124 127 123 119 116 117 115 111 118 124 127 125 125 125 126 127 129 127 130 128 128 131 132 135 137 136 134 130 135 136 131 129 126 127 124 128 128 126 125 127 124 122 121 123 121 122 122 121 122 121 124 117 121 
129 128 134 131 131 127 130 126 124 130 125 123 125 127 124 123 124 120 127 122 123 123 123 124 125 125 125 123 127 121 123 116 117 113 114 119 121 129 124 125 126 127 124 128 129 127 127 130 130 131 133 136 136 134 132 132 132 131 126 124 126 126 125 127 126 123 123 124 124 119 120 118 120 119 120 125 122 124 117 120 
136 129 127 132 130 128 124 125 124 123 124 127 128 126 124 124 122 125 124 123 121 125 120 123 123 120 123 126 127 124 116 114 117 112 114 118 121 124 128 124 125 125 129 129 132 129 129 132 130 133 134 134 132 131 130 132 131 131 127 126 129 126 130 126 124 124 125 121 122 122 111 122 119 122 120 125 119 123 121 119 
134 137 132 133 129 126 126 124 122 126 121 124 123 123 123 122 125 122 125 122 123 125 122 125 123 122 125 123 122 120 117 114 113 115 118 121 122 125 125 129 126 125 127 127 127 131 128 129 134 137 135 132 132 132 129 134 132 130 129 127 127 129 128 126 124 126 126 128 122 122 124 119 122 124 125 121 118 118 123 120 
134 130 131 133 126 125 125 124 122 129 122 121 122 125 120 122 120 124 125 122 124 124 121 125 123 125 123 121 122 120 112 112 108 108 118 119 121 124 123 128 126 123 127 129 124 129 127 129 130 133 133 132 133 129 130 132 136 146 129 129 124 126 127 125 126 123 126 126 125 123 122 121 123 121 119 121 117 122 116 119 
130 129 127 133 124 124 124 124 125 124 121 120 121 119 119 121 119 120 121 122 122 126 120 118 122 125 124 123 123 117 111 109 109 106 115 121 119 121 123 125 125 126 127 125 124 126 125 127 129 131 133 130 133 134 130 134 131 132 131 128 125 126 127 126 125 125 126 130 126 121 122 123 122 123 118 121 121 126 117 125 
130 128 134 128 128 123 123 122 122 123 124 123 122 122 119 124 118 122 122 122 125 123 122 120 122 123 121 122 123 117 111 109 110 109 116 119 121 122 123 124 126 123 128 122 125 123 125 129 127 127 132 129 130 132 133 129 134 130 133 126 132 129 125 128 122 129 123 126 127 125 122 123 128 124 118 121 119 120 119 117 
128 130 130 130 127 125 124 121 120 121 122 124 122 119 119 120 119 121 120 120 122 123 123 121 120 122 124 121 122 116 112 111 111 112 118 119 119 123 125 128 128 123 122 125 122 127 124 125 127 130 131 130 129 131 134 132 131 133 128 128 128 125 123 124 128 123 119 123 122 121 121 122 122 122 119 116 119 121 114 118 
128 129 129 134 130 122 125 124 121 122 125 122 123 121 120 119 118 120 123 118 122 123 120 121 123 123 125 120 123 114 110 110 111 112 119 119 119 125 125 128 126 123 124 123 125 119 123 125 128 127 130 128 132 133 130 131 127 125 125 128 126 128 123 126 125 122 124 125 118 120 120 120 119 119 118 115 115 117 116 119 
126 132 128 134 126 125 126 123 122 122 121 120 123 120 122 120 119 120 119 123 123 126 124 123 125 125 125 119 121 114 113 110 110 113 120 119 120 124 125 126 125 124 124 122 121 121 122 125 126 129 129 128 130 129 132 131 125 124 128 129 127 125 123 124 124 121 123 123 119 120 117 121 119 118 115 113 118 121 116 118 
131 127 130 128 126 124 125 125 121 121 124 124 125 125 122 121 120 120 123 123 121 119 119 124 123 121 120 117 120 112 114 108 108 115 120 118 119 122 119 125 121 125 123 120 122 121 121 124 127 129 128 128 133 129 129 125 126 123 126 129 128 125 125 122 125 120 125 122 118 120 120 121 117 119 115 117 116 119 122 117 
136 128 125 127 124 122 124 123 123 123 126 125 128 128 122 119 120 121 119 122 121 123 121 121 122 122 122 120 118 111 110 111 108 115 117 118 121 119 117 120 122 122 122 118 117 123 121 125 125 127 128 126 128 130 129 129 123 123 127 128 128 124 126 122 123 123 126 125 123 125 123 118 121 116 117 116 119 115 119 121 
131 126 128 130 128 123 123 127 125 124 123 125 122 124 121 119 122 122 121 121 119 120 119 124 121 122 120 118 115 108 106 106 107 114 121 117 116 120 120 122 118 122 120 121 119 120 121 130 130 127 130 127 129 131 132 127 121 123 127 124 126 126 125 124 122 124 127 121 123 124 123 119 121 118 118 118 118 122 120 125 
129 123 128 129 125 121 124 125 118 121 120 124 123 122 120 124 120 124 120 122 119 120 120 122 124 121 118 118 111 106 103 104 108 115 115 115 113 117 117 115 118 121 120 118 118 122 122 127 125 127 129 126 128 128 126 123 121 124 127 124 121 125 125 124 123 123 124 122 119 124 122 121 120 117 117 118 118 123 118 125 
128 127 130 127 124 120 124 121 120 119 124 121 123 119 119 119 120 119 119 122 120 121 118 121 121 118 119 118 109 104 101 103 110 114 116 114 116 114 117 118 121 115 115 116 118 121 120 124 126 124 125 124 125 123 126 125 123 123 125 125 124 125 124 121 125 122 122 122 120 120 118 119 120 120 117 119 120 121 123 127 
126 124 124 125 123 122 120 117 119 123 120 121 120 121 124 121 119 118 117 120 119 118 118 121 120 121 119 115 106 105 104 104 108 110 111 112 113 113 112 119 119 119 113 113 115 122 121 127 124 121 124 122 123 126 124 120 123 123 126 124 126 126 122 121 126 122 121 119 120 118 122 118 118 115 116 117 117 122 116 120 
125 123 122 124 122 120 122 121 120 122 121 123 119 119 122 119 118 120 121 118 120 119 122 122 123 121 120 114 104 104 102 103 109 109 112 110 111 113 114 117 121 116 115 111 115 121 120 125 123 122 125 124 122 123 123 121 119 122 124 125 126 123 122 123 119 123 121 121 118 122 119 116 116 119 116 118 116 120 122 121 
126 124 124 125 123 120 121 121 118 118 120 120 117 120 119 118 118 119 120 122 116 119 119 121 120 122 120 112 105 101 99 101 106 108 110 112 109 110 112 117 119 113 112 111 113 121 119 119 121 119 122 123 121 123 120 117 120 121 123 125 124 125 123 120 126 123 118 121 121 125 116 119 117 120 117 116 120 117 115 118 
128 127 124 125 122 119 122 124 121 117 118 120 117 118 118 117 119 117 120 117 117 120 120 119 119 115 116 112 105 101 98 102 107 107 110 111 111 110 112 117 119 117 114 112 114 116 118 120 121 119 120 118 119 117 116 118 122 121 121 120 119 122 119 124 122 124 121 121 118 122 122 118 120 116 119 114 119 120 115 120 
128 124 127 125 122 121 122 122 126 119 118 115 117 118 117 117 116 114 119 116 116 119 117 113 115 117 112 107 97 101 98 105 106 105 107 111 107 111 111 114 115 110 112 112 115 116 119 118 119 119 118 118 118 118 117 115 120 122 121 122 121 121 122 120 122 124 123 121 120 115 118 117 117 115 114 115 114 119 114 114 
122 130 123 124 123 119 119 119 119 116 118 118 114 118 114 117 121 117 113 117 115 117 115 113 114 115 108 71 66 93 98 105 106 105 108 110 106 108 112 113 112 113 114 113 117 120 119 124 122 119 120 117 120 120 118 118 125 120 120 120 122 121 122 122 119 119 118 119 120 120 118 119 118 116 114 115 114 119 115 115 
123 123 127 126 120 116 118 118 118 115 116 114 118 115 115 117 118 115 116 115 115 117 113 115 117 116 97 16 19 87 94 102 106 106 106 106 107 108 111 113 116 110 110 113 116 118 118 118 122 122 117 118 120 119 116 122 124 122 117 119 119 121 120 121 120 117 118 118 118 122 120 116 117 113 114 118 111 117 115 115 
116 120 121 124 120 116 118 117 111 116 115 114 114 114 114 115 116 115 114 116 114 115 114 115 117 115 82 4 22 89 91 102 104 104 105 107 104 107 109 115 112 108 111 112 114 117 115 118 120 118 118 116 117 115 116 122 123 121 118 118 121 121 121 118 117 118 118 120 120 118 120 118 115 113 111 112 115 115 116 117 
121 120 123 121 121 113 116 117 114 115 115 113 115 115 115 114 114 114 113 114 115 115 112 116 114 110 61 0 34 86 99 101 103 107 108 105 104 108 110 115 118 109 110 111 115 118 116 120 121 119 119 120 119 117 113 122 122 119 122 120 121 122 118 116 119 118 120 118 120 118 118 119 118 112 114 114 114 119 114 118 
120 120 117 120 122 116 116 113 113 119 112 119 111 116 111 109 112 113 113 114 114 115 113 114 113 112 42 4 42 87 97 100 103 101 107 102 103 107 107 115 113 110 109 109 114 118 115 116 119 115 118 119 123 116 115 121 122 123 119 119 119 119 118 118 117 116 116 120 118 116 118 117 116 112 110 117 116 116 115 118 
119 119 117 120 117 116 118 112 114 112 114 115 112 109 112 111 113 115 113 115 111 113 111 114 114 105 28 12 52 84 97 100 102 99 101 101 103 102 109 111 109 109 109 109 113 113 114 117 117 117 116 118 120 112 115 122 120 117 118 119 117 118 115 117 116 117 120 118 118 113 112 112 113 115 114 114 115 120 112 120 
120 120 117 120 115 117 116 113 112 114 113 110 114 110 111 113 109 112 117 114 112 111 113 108 110 101 11 10 64 85 98 96 102 103 102 102 99 105 108 113 106 103 109 109 111 114 113 116 116 114 119 116 120 111 114 120 123 118 118 118 119 116 115 115 119 117 119 119 115 113 112 112 113 116 113 112 116 120 113 118 
121 118 119 120 117 115 116 115 114 113 117 111 114 109 109 109 111 114 113 112 112 110 112 109 110 89 8 8 64 90 95 101 98 100 101 99 101 101 104 107 105 103 110 111 113 115 112 116 114 113 112 114 114 115 114 122 117 115 116 116 117 114 114 114 116 118 117 117 114 114 113 110 116 111 112 116 115 119 116 116 
122 123 125 120 113 115 114 111 112 114 111 114 111 109 108 111 110 112 113 113 110 110 108 108 107 76 7 11 65 90 98 102 101 101 100 98 99 99 107 107 102 101 110 109 113 114 114 112 115 116 114 119 115 111 116 124 118 118 115 115 115 114 112 114 116 118 116 115 113 114 118 113 111 111 116 115 116 117 119 118 
121 117 119 117 113 111 112 113 112 113 124 115 113 113 110 110 108 111 111 111 113 111 109 112 108 62 3 12 60 93 95 102 100 97 95 97 100 96 100 103 101 101 106 107 109 115 116 115 112 114 117 118 116 117 121 123 119 118 117 116 114 110 112 113 113 115 114 114 118 112 113 111 115 113 112 114 118 120 119 126 
118 118 117 120 111 110 111 110 109 112 114 117 109 113 111 109 108 110 109 108 109 107 107 110 104 44 8 16 66 93 98 102 100 102 97 94 95 94 97 103 97 105 107 108 111 116 115 116 113 115 114 119 112 119 122 121 115 117 112 115 113 114 113 110 115 114 113 113 114 113 111 116 112 114 112 113 115 118 127 124 
123 116 118 116 112 110 115 111 111 110 111 109 112 113 109 107 110 107 110 107 104 106 108 106 104 63 10 31 82 96 101 102 98 97 101 96 96 95 98 100 98 107 107 111 110 114 114 116 114 112 112 113 111 115 120 118 120 115 113 110 115 113 115 115 111 112 111 112 109 111 112 111 113 112 112 113 113 116 118 122 
120 115 117 113 111 109 111 108 108 108 110 112 108 109 111 110 110 105 107 108 105 106 111 107 105 84 49 72 90 98 103 103 98 91 94 99 91 91 97 102 97 103 106 106 109 114 115 118 117 112 116 115 110 116 123 117 116 115 110 114 114 114 113 115 113 113 112 112 109 113 111 112 111 112 110 112 113 118 114 117 
117 113 117 112 110 107 107 104 106 105 108 113 109 109 110 105 107 107 110 107 105 107 104 107 98 89 90 94 100 101 107 108 97 84 86 93 89 92 95 99 99 101 107 106 111 109 112 123 115 111 112 107 110 117 118 116 115 112 109 112 114 113 113 110 112 110 111 112 109 114 110 114 109 111 111 114 114 115 114 117 
111 113 111 109 110 105 109 106 103 107 108 107 110 108 107 107 107 109 110 106 109 104 106 104 101 92 97 101 101 103 105 105 99 94 85 91 88 95 97 96 96 102 107 106 110 115 113 116 112 111 110 108 110 117 121 112 111 115 110 110 110 111 111 110 110 110 113 113 109 107 111 108 110 112 113 113 112 114 112 119 
113 113 111 109 110 104 107 106 104 109 107 107 110 110 107 107 108 107 107 106 103 105 99 104 95 92 100 102 105 103 107 104 101 94 91 91 85 96 95 94 95 98 104 105 109 112 112 109 110 107 107 110 111 116 118 110 112 108 111 110 109 109 107 111 109 112 113 112 109 110 111 106 111 113 113 111 111 113 112 118 
112 109 110 107 107 105 106 102 104 102 107 107 110 110 105 106 106 106 106 104 106 102 101 101 99 92 102 103 103 107 103 106 102 101 95 89 87 96 95 92 94 97 102 106 108 110 107 109 109 110 106 110 111 115 115 109 112 107 107 107 106 106 110 105 107 109 110 108 104 110 108 109 111 110 110 107 108 112 111 117 
107 110 106 108 105 106 106 106 104 105 104 108 107 107 102 106 106 106 108 108 106 102 104 101 95 95 102 102 107 104 105 104 102 100 98 95 92 95 94 93 95 101 100 104 105 107 104 110 108 105 104 110 110 115 114 111 109 112 105 106 108 108 106 107 106 108 112 111 106 107 107 106 111 112 110 107 108 115 106 109 
108 106 109 108 105 106 107 103 103 103 105 107 107 107 105 107 106 108 107 104 104 103 109 107 96 95 102 101 103 101 104 101 102 100 98 97 99 97 95 94 97 98 102 101 105 106 103 104 102 102 103 108 107 113 111 114 107 108 105 105 105 108 107 106 107 107 106 109 108 108 106 107 109 109 109 108 108 112 103 108 
105 110 108 111 111 105 108 107 103 102 104 108 107 107 109 109 106 106 107 104 102 106 102 105 96 92 98 100 106 104 104 103 104 100 100 101 101 98 92 94 101 99 97 101 103 104 102 104 101 99 98 106 110 113 112 109 107 106 107 108 109 107 106 107 105 106 110 110 106 105 110 109 107 107 105 108 107 112 106 106 
108 108 109 112 112 106 113 108 103 103 101 108 106 108 105 105 102 104 105 105 102 107 102 100 100 87 100 101 102 105 103 104 105 104 102 102 98 102 97 92 95 99 100 100 99 103 99 102 100 100 99 109 109 112 110 105 105 104 107 107 112 107 104 104 105 103 110 112 103 108 106 103 108 104 106 107 109 112 109 108 
112 102 111 109 107 109 109 108 103 105 101 106 104 105 102 103 101 103 107 104 108 104 103 101 101 92 97 102 103 102 103 103 103 104 105 100 104 100 100 95 96 101 104 103 103 102 103 104 102 102 100 107 110 113 107 107 108 105 109 106 105 104 106 103 104 106 108 109 107 107 106 104 107 106 107 110 108 104 102 104 
112 104 107 108 110 110 110 107 103 100 106 105 101 104 102 103 103 104 103 105 100 103 98 102 103 92 100 100 104 100 105 106 105 105 102 101 100 100 99 101 105 104 103 104 104 106 107 105 101 102 101 109 112 110 111 109 107 107 107 107 107 105 105 101 102 110 108 106 109 108 109 104 105 106 107 103 103 106 100 110 
107 105 107 112 117 106 108 104 102 103 100 102 102 104 104 103 102 100 104 102 102 100 99 101 103 88 103 102 105 103 101 103 103 102 102 99 101 102 99 104 104 102 104 104 106 106 110 109 107 101 103 112 110 106 107 107 110 106 104 104 106 105 101 105 104 105 107 104 104 103 105 105 104 104 106 106 102 106 101 105 
105 104 103 108 106 107 108 103 104 103 106 102 106 104 104 103 100 102 103 101 103 103 103 96 99 92 102 100 102 101 99 101 103 99 101 100 101 102 98 100 101 107 106 103 104 106 105 109 103 100 101 111 110 109 104 113 107 106 106 106 105 105 103 108 103 105 107 105 102 104 105 102 102 100 102 102 105 107 98 107 
107 101 103 106 105 106 104 102 102 107 102 106 108 106 105 101 102 101 104 102 102 102 96 99 96 89 98 98 101 98 100 99 101 97 101 100 100 99 98 98 100 104 105 104 104 103 106 106 104 95 103 110 106 103 101 103 106 107 103 104 105 108 101 103 102 104 106 103 102 104 107 103 104 99 102 108 104 101 104 109 
105 105 106 108 101 105 103 102 102 104 107 105 110 106 104 103 100 105 102 105 102 101 97 95 93 94 97 102 100 98 98 100 99 99 99 98 99 99 99 101 104 104 106 106 106 104 108 106 104 96 107 107 104 101 100 105 104 107 105 105 102 107 103 105 104 106 104 102 107 100 101 102 103 100 99 105 103 103 102 105 
104 104 103 108 106 103 101 102 106 104 105 107 108 107 102 105 101 103 104 104 100 101 100 93 90 93 97 99 98 98 101 99 101 97 103 100 101 103 101 102 103 109 105 106 104 110 108 117 100 98 106 106 106 102 98 104 107 106 103 105 103 104 103 104 103 104 102 101 107 104 106 105 105 106 102 100 102 104 103 112 
106 102 107 106 102 101 105 102 100 101 106 105 104 107 103 103 102 103 105 100 98 104 93 94 94 94 96 101 101 96 100 101 98 103 102 100 102 104 101 105 110 110 107 105 105 106 111 111 96 101 107 108 107 101 100 102 101 101 102 102 99 102 100 102 104 103 101 103 105 104 102 101 104 104 100 101 101 104 106 109 
105 101 102 104 105 101 104 102 104 103 104 106 105 107 105 103 98 103 102 100 101 100 94 91 95 92 97 100 102 101 101 98 100 99 103 101 103 102 104 106 109 107 107 108 106 108 108 109 95 101 103 102 102 97 95 100 99 99 102 101 99 98 99 102 101 100 100 102 101 103 101 102 99 98 101 100 101 106 105 106 


