P2
80 60
139
115 106 107 111 105 114 115 116 116 120 120 118 119 120 121 119 116 120 122 123 125 124 125 123 126 123 124 125 126 123 120 119 122 121 122 121 121 122 125 127 124 124 125 123 122 125 120 123 126 127 127 121 124 127 127 123 123 126 125 120 118 118 119 120 120 125 108 109 112 117 110 117 114 112 117 110 107 107 114 106 
110 103 111 108 104 110 113 119 120 121 123 118 123 123 124 121 121 119 122 124 127 125 123 119 122 121 124 124 125 118 122 121 123 122 123 120 125 127 126 125 122 122 123 125 120 124 120 123 124 123 121 124 124 126 127 126 126 126 122 118 119 119 117 120 117 115 111 112 111 116 111 115 111 112 111 110 108 109 110 107 
114 108 105 105 103 110 118 120 122 121 123 118 121 122 121 119 118 117 118 121 127 123 124 123 125 121 126 126 123 122 122 124 121 123 125 123 121 122 122 128 124 123 123 121 121 123 119 122 123 124 123 121 126 128 126 123 122 125 120 122 120 120 113 120 118 113 113 113 111 114 114 117 112 116 116 109 108 111 115 110 
110 112 108 105 110 111 118 118 119 122 120 118 119 121 124 124 120 119 119 124 123 121 124 125 127 124 127 126 127 120 122 122 121 125 123 122 120 129 127 124 125 121 123 124 120 123 123 123 128 124 123 126 124 128 125 121 124 124 120 120 121 119 117 119 119 117 112 111 113 118 115 122 113 113 116 109 111 113 114 107 
109 108 108 106 106 118 117 119 122 123 120 117 120 122 125 125 119 120 123 125 123 122 123 129 129 124 131 126 120 118 120 120 120 119 123 125 123 126 126 124 122 119 124 122 124 120 123 125 126 124 124 126 126 128 123 124 125 124 124 121 124 120 117 125 120 115 114 111 114 118 117 118 117 114 119 110 109 111 114 104 
112 102 104 105 103 116 118 117 123 121 119 116 114 121 123 120 120 120 118 126 122 126 126 128 126 126 126 127 118 118 118 119 121 121 120 123 120 124 122 124 123 120 124 123 120 123 126 125 127 122 124 128 127 127 126 123 123 125 127 123 121 119 117 122 124 115 116 113 118 115 114 116 115 112 117 109 110 112 112 106 
113 107 104 105 104 115 117 119 120 121 122 120 119 123 119 119 122 118 122 121 125 125 123 124 122 123 125 124 121 116 120 120 120 120 120 126 127 124 125 126 123 121 124 121 120 124 122 123 125 125 120 128 125 127 125 127 124 126 129 123 119 119 119 123 122 118 117 117 117 116 114 118 114 111 117 111 106 109 115 104 
113 109 107 108 104 118 117 121 121 119 119 116 119 120 119 118 118 118 124 124 128 121 124 127 124 124 124 122 119 119 119 119 121 119 121 125 120 125 126 122 120 122 122 122 122 122 121 123 122 123 124 126 126 123 125 125 125 125 123 119 122 121 120 119 122 122 113 114 117 117 113 114 112 110 114 106 110 111 114 106 
112 107 108 107 106 117 121 117 118 119 123 115 121 119 122 119 117 119 121 122 122 121 124 126 124 127 127 125 119 119 123 118 121 123 123 121 122 123 126 118 119 121 124 124 121 122 120 125 124 122 123 127 127 125 126 124 121 122 118 119 120 120 119 118 122 117 116 115 118 116 114 118 113 109 115 108 109 108 112 109 
112 113 110 108 106 115 113 116 121 119 117 116 116 120 116 120 122 115 122 121 121 121 121 121 123 120 116 125 118 118 117 119 119 121 121 119 117 122 122 120 120 118 121 119 123 121 122 120 122 122 122 122 124 126 126 122 123 114 119 119 119 123 118 123 120 115 113 111 118 111 115 119 114 112 115 109 106 109 114 105 
113 111 107 108 104 114 121 115 118 117 118 118 117 117 118 116 116 113 118 118 118 119 119 119 122 119 120 120 116 118 118 118 119 120 116 117 122 123 121 121 121 120 119 116 117 121 119 121 124 121 125 120 121 124 123 123 120 122 121 119 119 115 119 124 120 116 114 115 115 113 115 118 110 110 111 111 110 109 114 106 
114 107 112 107 108 115 118 117 115 116 119 114 116 119 116 112 115 111 115 119 120 119 119 120 117 120 123 121 116 116 121 118 119 121 120 118 118 120 122 121 123 119 119 119 118 119 119 123 123 122 120 122 122 123 125 122 120 123 119 116 118 119 116 121 116 119 112 117 114 110 112 115 111 111 112 119 112 107 112 106 
112 108 110 109 100 116 112 112 115 112 114 114 113 114 111 111 112 113 117 117 116 119 119 120 115 119 117 120 115 119 119 121 122 122 121 117 117 120 124 120 120 117 122 118 122 121 123 123 122 122 124 123 121 123 125 123 121 119 118 117 117 117 121 118 118 114 112 109 111 115 106 117 111 112 114 112 111 114 114 107 
109 113 106 107 103 115 116 112 111 112 112 111 111 115 116 109 114 113 117 118 117 116 118 121 119 116 115 117 111 117 120 120 120 120 119 115 116 121 120 122 118 116 118 120 117 122 125 123 123 124 121 121 121 123 122 123 123 123 120 117 120 120 120 121 115 118 115 115 112 110 111 112 112 113 113 111 109 109 112 108 
110 103 108 102 100 111 112 112 113 114 116 112 111 115 109 110 111 114 113 113 114 116 117 119 116 115 116 113 111 116 119 120 119 118 118 113 117 116 119 122 118 119 118 115 116 120 122 121 120 123 120 120 120 123 120 126 127 139 121 119 115 119 118 119 116 118 111 112 116 111 112 112 113 114 111 109 107 109 115 105 
107 105 106 101 106 108 111 113 114 111 111 113 110 113 109 110 109 110 114 113 114 118 117 112 116 117 116 112 113 113 120 119 116 120 117 115 113 116 120 117 118 119 118 119 120 120 120 119 123 119 119 122 120 123 122 124 120 122 122 119 118 118 121 117 117 117 109 114 114 114 115 112 113 114 111 109 109 112 114 107 
110 107 105 102 105 109 112 110 109 108 108 108 108 113 114 111 110 112 109 114 113 114 114 113 113 113 115 114 113 117 117 118 117 120 117 114 115 115 117 118 115 115 119 116 117 122 118 118 121 117 120 119 120 123 122 122 123 126 124 119 121 118 115 120 112 114 114 113 113 112 113 118 124 115 117 112 106 110 118 109 
111 107 103 105 102 112 114 112 111 106 108 108 110 113 112 106 110 110 111 110 112 112 116 113 108 114 114 114 107 114 120 116 118 119 117 116 114 115 118 123 120 117 115 114 119 117 118 118 116 118 116 118 120 123 123 119 123 125 122 115 116 116 117 117 116 114 112 114 113 113 112 120 115 114 114 108 109 112 114 102 
106 104 99 105 104 110 113 110 110 108 108 108 107 113 109 108 108 111 113 114 111 114 116 116 113 116 118 113 112 114 121 122 118 122 118 114 115 113 119 123 119 119 116 118 116 115 117 116 119 116 117 118 124 123 122 121 123 124 118 118 116 116 112 122 117 115 114 115 118 114 115 115 110 112 114 113 105 110 113 104 
106 104 102 102 105 112 110 108 108 105 110 105 108 111 111 108 107 111 111 113 113 118 118 120 116 117 118 111 108 117 120 119 122 120 117 115 115 117 119 121 118 116 117 115 114 115 114 116 116 116 119 118 122 118 123 122 122 122 118 118 116 117 116 118 115 112 111 114 114 115 116 117 112 112 110 105 110 107 114 110 
107 98 104 105 103 105 108 105 107 103 106 106 108 111 111 105 104 108 110 110 112 112 116 114 116 110 112 107 109 117 123 114 119 119 115 114 114 114 116 115 115 115 114 113 115 111 111 114 117 118 119 117 121 118 121 119 118 119 118 119 117 116 115 118 114 111 113 111 115 112 117 115 110 108 112 111 108 110 111 101 
88 93 99 99 105 101 111 106 104 103 106 105 113 110 104 106 105 108 109 106 110 114 115 113 110 111 111 111 106 115 117 119 117 115 113 114 112 116 115 118 114 116 116 112 113 115 112 116 119 117 118 117 121 122 121 119 119 119 119 115 118 116 116 119 116 115 111 112 116 116 117 117 112 108 113 105 111 109 114 107 
59 60 91 102 100 104 103 105 106 100 100 106 108 112 103 103 105 107 109 110 112 112 114 112 111 113 111 112 108 113 117 117 116 115 113 112 112 115 115 114 113 113 113 112 113 112 115 116 116 116 120 119 118 119 119 121 118 116 118 116 118 113 117 118 117 119 114 112 113 112 118 113 112 113 112 110 110 110 113 110 
20 26 89 97 96 100 105 113 102 99 103 104 108 107 104 105 105 106 108 109 109 109 113 111 110 115 111 110 103 114 112 116 115 114 112 111 109 111 111 111 112 112 113 113 112 114 113 115 115 119 120 118 119 118 118 117 118 116 114 116 119 114 113 116 113 112 114 112 114 114 114 113 112 110 112 110 106 107 117 110 
10 19 87 90 95 98 103 105 102 99 102 102 102 105 104 106 106 103 106 107 108 112 107 111 110 110 111 109 102 112 112 111 113 110 110 108 107 110 114 113 109 110 110 113 112 110 113 113 117 117 116 116 118 115 120 115 117 114 115 113 115 115 113 114 117 113 113 113 113 113 115 113 111 113 111 110 107 106 115 108 
1 14 77 90 90 99 101 98 96 101 100 100 99 107 109 104 102 102 105 108 105 108 110 113 110 108 114 108 107 113 112 112 113 113 107 107 111 108 113 111 111 110 108 110 113 112 111 116 114 112 114 113 113 116 117 116 117 113 114 114 116 116 114 117 118 119 111 110 114 111 110 112 110 108 112 112 108 109 115 102 
0 9 71 90 90 98 101 101 96 98 101 100 99 105 104 103 101 104 107 105 107 108 113 112 111 109 109 106 103 111 114 113 111 111 109 107 108 105 111 110 112 108 111 110 110 110 112 114 114 115 114 113 113 115 114 114 115 113 114 113 116 112 114 114 116 116 116 113 115 117 113 112 111 112 110 106 107 106 113 103 
6 15 71 88 89 103 102 101 97 95 99 97 94 104 104 98 103 102 107 107 107 110 112 113 109 110 110 106 99 114 110 112 111 109 107 104 105 107 109 111 107 108 111 108 108 109 110 110 111 114 112 115 115 115 114 111 115 112 112 115 113 117 114 117 118 119 115 117 119 119 115 117 113 114 113 110 107 108 108 107 
9 6 64 89 85 96 101 103 96 94 94 96 91 101 100 98 99 102 106 105 106 108 111 111 107 106 104 104 102 105 111 114 109 107 106 104 106 106 109 112 108 107 109 108 108 107 111 110 112 111 112 114 115 113 113 114 114 111 111 110 113 115 113 118 119 116 116 117 116 116 117 115 113 115 116 108 107 111 108 104 
9 7 62 86 91 96 100 102 101 93 94 92 88 97 96 97 98 98 103 103 105 105 107 104 106 103 104 104 100 107 110 110 110 110 100 104 102 107 107 107 107 107 109 109 110 109 110 111 111 113 110 112 111 112 115 113 112 113 111 109 113 112 111 115 116 117 121 117 114 115 116 114 111 112 115 112 106 110 113 108 
6 8 42 90 93 98 98 100 97 95 93 90 85 92 95 99 98 95 100 101 102 104 104 108 105 103 105 102 99 111 110 111 109 107 106 102 100 103 108 106 106 108 113 109 106 114 107 111 110 110 111 111 112 113 113 111 113 109 107 108 112 112 113 116 119 116 112 116 115 113 112 117 113 113 112 109 108 108 111 108 
6 5 37 85 88 97 100 96 94 93 98 88 83 93 92 95 97 94 99 101 102 105 105 106 110 103 106 101 102 105 109 108 108 107 103 101 102 103 105 103 108 109 108 108 109 109 109 111 112 114 111 109 111 113 113 110 111 110 108 108 111 113 114 115 115 112 115 116 115 116 112 113 109 111 114 110 109 108 111 108 
6 2 21 84 89 98 99 98 90 89 95 86 84 96 93 89 96 97 98 98 100 103 105 109 110 106 102 99 101 105 109 111 109 107 103 101 99 104 106 104 106 106 109 106 106 108 107 107 113 112 110 109 110 112 114 114 113 111 108 112 110 112 118 113 116 113 113 112 119 115 115 113 110 109 109 105 108 106 113 110 
27 2 26 79 92 96 100 99 93 88 88 85 86 90 91 92 95 93 91 101 101 100 101 104 104 102 101 101 97 112 111 106 106 109 100 100 101 103 105 107 104 107 108 106 106 109 107 107 108 111 108 113 111 112 111 111 108 111 107 107 112 113 112 115 116 111 114 112 114 114 112 116 110 111 112 108 105 109 109 103 
60 25 44 90 94 103 100 102 95 85 84 88 84 88 92 89 90 91 95 99 99 101 101 102 101 100 102 97 99 105 108 106 102 107 103 100 98 101 105 105 105 106 106 105 105 108 106 107 110 108 109 111 108 113 112 109 110 111 108 110 113 113 114 114 112 114 115 113 114 117 114 113 110 109 110 107 105 107 110 107 
85 53 78 97 98 104 100 99 98 91 91 86 80 89 91 89 92 91 95 95 99 100 97 102 99 96 99 97 96 104 108 105 103 104 98 96 100 99 103 104 102 103 108 104 104 105 106 109 110 109 109 111 111 110 112 112 110 110 110 111 112 112 113 113 115 112 112 112 115 110 113 112 108 110 109 108 106 110 108 108 
97 93 93 97 100 102 106 102 103 97 96 89 86 92 91 90 91 95 95 98 98 99 100 100 98 94 100 94 97 102 108 107 104 104 99 97 100 101 103 101 103 103 103 103 104 104 103 107 107 108 108 112 111 111 114 109 110 105 111 112 112 110 110 114 115 114 114 113 114 112 108 115 108 109 112 107 107 111 114 107 
96 95 100 101 105 106 104 105 100 101 101 96 90 90 92 89 91 95 94 95 98 99 101 102 101 96 100 94 96 104 106 105 102 105 97 96 100 100 100 103 103 100 106 104 104 105 102 105 109 108 107 109 111 114 111 115 107 112 108 109 112 108 110 112 113 117 112 111 110 114 111 109 109 107 110 109 107 109 111 110 
93 98 106 101 101 103 103 106 99 101 100 101 95 95 92 91 91 94 93 95 94 97 98 99 98 96 99 92 95 106 103 103 103 105 99 95 97 97 105 101 101 99 104 103 104 105 102 109 107 111 105 110 114 111 111 112 110 109 111 112 111 109 108 111 115 115 111 110 108 110 111 111 107 108 110 104 105 108 112 109 
100 91 100 104 102 103 102 105 102 99 108 101 96 99 95 92 91 90 96 92 98 101 102 102 105 101 103 96 95 103 105 103 102 100 97 96 98 100 102 99 100 99 102 101 102 106 107 108 107 109 109 112 114 113 112 110 106 108 112 109 110 112 110 110 111 114 111 109 111 110 106 108 107 112 111 107 109 112 115 111 
101 95 98 103 102 101 101 103 100 100 100 98 97 102 100 96 93 95 97 94 98 100 103 101 102 103 105 98 92 103 104 105 99 103 99 97 98 99 100 98 102 101 102 101 103 107 105 104 107 110 111 114 111 117 116 107 104 109 110 110 111 111 111 110 112 112 110 106 110 108 105 111 106 109 108 111 108 108 121 110 
99 95 96 99 104 99 102 104 102 103 102 98 98 105 100 102 97 94 99 96 99 103 102 103 105 107 106 98 91 102 102 101 98 100 103 97 101 101 98 99 98 102 104 101 103 104 106 109 107 111 109 111 112 112 111 108 107 109 110 108 111 110 109 111 110 106 109 106 109 108 109 108 108 106 110 104 102 108 113 109 
102 95 97 96 97 100 102 102 103 102 106 101 98 102 98 99 99 100 102 99 101 105 105 104 107 102 106 100 90 102 103 102 97 97 99 100 98 99 101 102 98 99 101 102 102 102 107 107 109 109 109 111 110 107 111 107 109 108 107 110 111 110 110 115 113 109 109 106 109 108 107 110 106 105 110 108 108 111 112 112 
101 94 93 98 97 101 100 99 101 100 105 105 99 102 102 98 98 99 102 101 103 104 105 103 104 102 106 96 94 100 108 102 98 97 94 102 100 97 101 99 103 99 102 100 102 105 107 116 107 108 108 108 111 106 108 108 106 110 108 110 113 109 111 114 113 108 106 107 106 109 108 111 104 108 109 110 109 107 112 108 
106 96 89 93 99 101 98 96 99 101 107 99 100 103 102 98 100 99 101 101 105 104 104 104 103 104 103 93 94 103 107 101 96 95 95 93 102 101 101 100 99 99 100 99 104 105 104 108 110 106 110 110 107 106 110 105 107 111 110 110 111 111 109 115 113 113 110 108 110 107 109 109 108 106 109 111 109 106 113 109 
104 93 89 90 98 98 98 99 101 99 102 98 97 106 104 101 102 102 100 101 101 102 104 106 104 108 107 91 90 97 110 100 95 93 96 97 98 99 100 98 99 98 101 99 104 106 107 105 107 107 110 107 109 105 107 106 103 108 110 108 111 111 111 116 110 114 110 108 110 110 107 110 110 108 112 106 106 109 111 108 
99 89 88 88 92 97 98 97 100 98 103 99 102 105 102 105 99 100 100 103 103 104 104 105 107 104 99 92 89 98 106 98 93 93 95 93 96 98 97 98 99 97 98 96 99 101 105 105 109 108 105 107 107 108 105 104 105 109 110 110 109 109 112 111 112 113 110 109 110 106 106 112 109 110 110 106 104 110 110 109 
97 95 88 88 88 96 99 100 98 101 101 98 100 103 102 101 98 100 101 101 102 103 107 105 103 105 106 87 92 99 107 100 93 91 90 92 94 99 99 97 98 101 98 99 101 102 105 108 106 108 106 108 109 109 107 105 108 114 109 107 111 110 108 109 111 114 111 108 108 109 109 108 108 109 111 104 104 108 110 107 
93 91 86 86 85 94 100 97 101 95 100 98 100 104 102 102 101 104 101 100 101 105 110 106 104 104 102 92 87 95 105 100 91 90 93 91 92 95 98 102 98 102 96 99 99 100 102 102 104 105 110 108 111 111 113 114 113 111 110 108 111 112 109 114 112 112 106 106 111 109 107 109 107 107 111 105 102 103 108 106 
98 96 92 91 87 98 99 100 99 98 100 102 100 103 104 104 100 101 100 100 100 104 103 106 103 104 104 89 86 100 107 97 93 96 97 92 89 98 100 99 100 99 98 101 100 98 102 107 110 107 110 113 115 119 116 114 113 113 113 111 115 111 112 117 110 108 109 108 109 110 106 112 111 106 108 104 105 102 107 102 
99 98 95 93 91 96 102 97 102 97 102 98 101 104 104 102 99 99 103 105 102 103 105 105 104 104 101 94 88 102 101 98 92 97 93 91 94 95 102 99 100 104 102 99 104 104 104 109 111 113 112 115 115 120 118 116 114 118 114 113 115 111 111 110 112 109 111 104 107 108 109 110 108 106 109 105 108 111 111 101 
99 97 94 88 91 94 99 99 101 98 99 98 99 103 103 103 100 98 102 98 104 101 101 104 104 103 101 97 94 101 98 96 96 97 102 93 93 94 97 102 99 105 103 105 109 108 114 115 113 112 117 114 116 119 116 116 121 118 115 114 111 111 109 112 109 110 112 109 108 110 110 106 108 109 109 113 106 103 107 102 
96 89 93 89 95 99 101 99 99 95 99 101 97 103 100 103 100 100 101 100 99 102 103 105 108 102 102 95 91 101 99 100 97 96 100 98 93 97 101 103 106 106 103 112 115 112 114 115 116 115 118 114 119 119 119 116 119 117 120 113 112 111 112 112 110 113 109 105 107 109 107 109 105 105 108 104 102 103 110 99 
95 91 90 93 101 97 99 97 100 97 99 97 101 103 102 98 98 97 95 95 98 100 101 105 103 101 100 97 88 100 101 98 99 98 98 96 99 100 106 108 108 110 111 113 115 113 117 115 116 115 115 115 117 116 117 118 119 116 117 113 110 109 110 111 108 110 109 106 109 108 110 109 106 106 108 103 101 104 109 102 
92 89 93 92 95 99 98 99 99 100 102 100 97 101 104 99 99 96 95 94 96 95 98 101 100 100 99 93 95 97 97 98 99 99 96 100 100 112 109 110 110 111 112 112 111 114 114 118 116 114 115 116 118 122 118 118 115 118 116 109 112 109 110 112 108 110 112 110 106 106 111 111 105 104 105 101 100 104 107 103 
96 89 91 94 95 97 96 98 97 100 103 100 99 104 103 98 96 95 96 95 97 95 96 97 96 98 97 90 92 101 97 99 98 97 99 100 107 109 111 111 109 111 111 113 113 111 113 116 114 115 115 117 117 117 117 114 116 117 114 113 114 111 109 111 111 112 110 107 108 111 111 113 105 103 109 104 102 105 110 101 
101 92 96 95 92 93 95 93 95 99 100 94 100 97 96 93 96 93 93 97 94 96 99 97 94 96 95 92 93 97 98 99 97 102 97 100 100 108 112 109 110 111 112 111 112 114 117 114 118 115 117 115 118 120 117 117 115 113 115 113 114 110 112 115 113 111 113 107 112 110 108 111 108 105 108 100 101 106 108 106 
102 91 95 95 92 91 93 94 97 99 97 93 97 97 95 97 94 92 94 94 96 96 99 96 92 95 94 91 91 97 99 97 99 100 102 101 106 108 110 108 108 111 114 111 112 113 114 123 119 115 116 115 120 118 115 115 117 114 117 112 113 110 110 115 110 111 108 106 111 110 111 110 106 105 109 102 103 107 105 101 
100 94 96 94 91 92 94 94 94 95 98 96 94 97 96 94 94 95 94 94 94 95 93 99 96 94 92 88 91 92 93 95 98 100 101 100 105 110 109 110 108 111 112 108 112 113 116 118 121 119 116 119 121 119 120 119 115 115 113 113 109 111 106 113 110 111 109 104 110 112 112 107 110 107 111 104 103 102 106 101 
101 92 93 94 94 91 93 94 96 94 98 94 94 99 95 93 94 93 95 95 93 92 95 96 96 91 95 89 91 95 93 97 96 99 101 105 108 108 110 107 109 111 109 110 108 114 113 117 118 115 118 119 118 119 125 114 114 115 116 113 112 112 109 111 114 107 105 106 106 108 110 107 105 103 107 101 103 101 106 101 


