P2
80 60
147
134 128 127 137 134 132 131 126 126 123 127 123 126 126 126 125 122 122 124 126 124 127 125 122 124 124 123 126 123 125 126 125 124 129 124 123 122 124 124 122 125 124 131 126 126 126 127 123 125 119 120 124 125 129 130 128 133 133 130 130 127 126 130 133 131 135 125 122 126 130 127 122 124 121 121 118 115 114 124 120 
129 129 135 139 132 128 136 130 124 131 129 126 128 123 126 125 127 124 125 127 129 126 128 121 124 123 127 124 125 124 123 124 124 126 125 122 123 123 125 127 125 131 131 131 126 126 125 124 124 120 122 124 122 128 131 131 139 135 130 129 132 129 128 127 130 129 125 126 132 123 127 123 122 118 117 120 114 115 118 116 
133 128 131 136 136 135 130 132 128 129 133 129 126 125 131 129 122 124 125 126 130 127 124 123 125 125 123 126 123 126 125 126 123 126 127 125 124 125 127 127 129 130 133 129 122 125 126 125 124 120 123 123 122 129 128 129 133 134 133 134 131 131 126 128 130 129 127 126 129 124 127 124 123 120 118 122 114 116 118 119 
131 128 134 132 141 132 134 132 131 132 134 131 125 127 127 124 128 126 126 124 129 126 128 126 128 125 127 126 127 127 128 128 125 125 125 126 125 130 128 130 132 127 129 126 122 125 130 123 128 121 121 124 126 131 129 130 131 132 132 132 136 130 129 126 129 131 130 130 129 126 129 136 128 123 117 119 121 118 120 115 
137 134 135 138 133 133 135 127 128 130 130 126 127 128 130 128 125 127 126 131 127 127 132 129 126 129 131 127 125 126 126 124 127 124 123 125 125 124 131 127 126 127 127 132 127 125 130 126 126 121 124 127 125 131 130 126 132 126 132 131 133 131 132 127 131 127 126 127 129 126 134 128 122 122 121 121 116 116 120 120 
135 131 132 139 136 134 135 132 134 132 131 133 125 129 129 131 127 130 125 133 132 132 131 129 129 128 128 126 124 125 127 120 124 123 123 126 123 127 126 128 128 126 131 128 126 126 133 130 125 123 126 127 131 132 133 129 134 133 135 133 130 130 132 131 132 132 130 131 134 126 135 128 125 121 119 119 116 117 120 114 
137 131 131 141 139 133 134 132 134 128 132 132 129 130 128 127 131 128 128 129 132 130 129 127 131 128 126 128 127 126 122 121 124 124 126 124 127 126 125 129 128 127 127 129 128 129 132 126 127 124 124 128 130 130 129 130 137 139 138 134 132 133 130 130 135 133 129 130 132 128 128 125 122 121 119 123 112 114 122 120 
136 133 131 139 133 136 133 135 133 132 132 130 130 129 131 129 129 128 128 130 132 126 128 127 126 130 126 129 127 127 122 120 120 122 124 126 124 126 125 127 127 126 129 130 127 128 130 127 125 124 127 129 129 129 132 132 132 137 137 132 132 132 133 130 134 133 125 130 134 128 127 124 124 118 115 118 113 116 115 118 
137 134 136 134 137 133 139 130 132 130 131 133 127 128 129 130 126 126 131 129 129 129 131 127 128 130 126 125 128 128 125 120 122 125 126 125 123 126 128 124 124 122 127 126 123 130 126 123 123 123 127 127 125 133 131 131 132 133 133 132 128 132 132 130 134 129 131 130 126 127 129 125 121 119 119 115 117 117 119 117 
138 139 134 138 136 133 135 134 130 131 131 129 130 128 128 130 130 125 128 128 127 130 125 124 125 128 124 128 126 125 120 120 122 126 126 124 123 123 124 126 122 124 126 124 120 123 127 121 121 123 127 125 126 129 129 128 130 130 130 131 129 133 132 130 131 131 131 128 132 127 125 126 122 119 115 120 116 114 116 116 
137 132 133 139 136 135 134 131 132 133 130 128 128 125 127 128 129 126 127 123 127 128 125 125 125 127 125 126 127 125 124 124 124 124 124 122 124 124 127 127 124 126 127 122 123 123 123 122 119 123 126 128 125 128 129 130 130 133 139 132 130 129 134 129 131 129 130 134 128 125 126 126 122 119 116 120 118 114 117 113 
140 137 140 139 135 132 136 135 128 131 132 129 127 128 126 125 125 123 126 127 126 127 126 127 123 124 124 128 124 126 126 126 124 125 122 121 123 117 126 125 125 124 125 120 118 123 124 123 122 124 127 126 125 127 130 127 133 133 131 130 128 129 132 129 133 130 126 129 127 123 124 129 121 121 119 125 120 113 115 118 
137 136 139 142 137 129 133 132 127 132 131 131 124 125 127 126 125 121 123 124 123 128 126 131 123 123 124 127 123 122 122 124 130 128 121 120 123 124 127 125 123 125 128 125 122 123 121 117 120 121 123 125 125 125 126 127 133 133 131 130 130 131 131 130 129 127 129 128 129 126 119 127 122 121 121 124 126 123 117 120 
139 142 140 137 135 133 135 132 126 126 129 124 124 124 125 125 128 122 125 124 128 125 127 127 127 125 121 124 122 124 122 124 124 129 121 123 125 122 123 124 124 124 128 123 119 126 122 116 121 124 126 126 126 127 127 129 132 134 133 129 128 130 129 129 131 132 127 130 125 123 125 124 124 120 117 119 114 119 120 113 
141 137 137 138 129 130 131 129 130 125 129 124 123 126 123 125 123 121 122 125 123 121 128 126 124 124 120 125 121 123 124 123 123 126 121 122 119 121 123 124 123 123 128 120 118 122 120 114 120 124 124 126 124 126 131 127 135 147 134 127 127 128 129 130 134 130 127 128 128 124 126 122 124 119 116 119 115 118 121 117 
137 137 138 136 131 129 134 131 127 130 130 125 126 124 120 127 122 124 124 121 123 124 122 121 123 126 122 123 123 125 124 125 123 123 121 122 121 119 123 124 125 125 125 118 119 121 118 108 118 122 125 125 127 129 128 127 133 138 131 129 130 128 130 128 129 131 126 132 129 123 127 123 121 121 119 118 116 121 117 116 
137 138 139 133 135 129 133 131 127 123 127 125 121 124 120 127 122 123 122 121 124 121 128 121 123 122 123 122 122 122 127 124 120 124 124 122 120 121 122 124 121 125 124 119 116 125 118 111 121 120 126 126 125 127 127 128 131 135 133 126 128 128 125 129 128 130 126 129 127 125 126 122 129 123 121 117 115 119 119 117 
138 138 139 130 130 134 131 129 127 121 125 126 125 119 125 125 122 122 123 124 124 126 127 123 122 121 122 122 124 123 124 122 123 126 122 121 122 122 123 128 124 124 124 119 116 115 118 113 119 119 120 126 124 127 130 126 131 137 130 127 131 127 127 126 130 127 125 128 126 124 127 126 123 119 116 115 117 118 118 120 
138 136 133 137 132 133 129 128 127 126 130 125 124 125 122 124 124 125 122 126 122 125 126 124 122 123 124 124 119 120 122 121 126 124 124 123 121 124 126 129 126 124 120 118 116 119 119 112 121 119 120 126 126 128 128 124 131 132 130 128 125 127 121 129 128 125 127 131 130 125 128 125 116 121 116 117 114 115 117 113 
136 137 137 134 131 131 128 128 127 125 131 127 127 125 125 125 127 121 124 124 123 129 129 125 123 124 126 123 123 125 123 122 123 124 122 121 121 122 122 125 123 123 118 114 116 112 112 111 118 120 121 125 127 125 127 122 129 129 129 125 121 126 125 126 125 125 125 127 128 124 125 120 117 115 116 117 113 111 114 113 
134 134 136 133 131 131 133 131 123 123 128 129 126 126 126 125 124 123 123 121 122 125 128 125 126 125 123 124 124 126 127 124 123 121 123 121 122 119 124 123 124 125 120 116 113 113 110 109 119 121 120 125 126 127 124 117 124 124 130 124 125 122 125 126 128 127 125 125 128 125 123 120 117 121 116 115 113 114 111 117 
134 138 137 139 133 126 132 126 124 125 126 125 131 126 122 124 125 123 122 119 123 125 128 124 124 122 124 121 122 122 123 124 122 123 123 122 120 119 124 122 122 122 117 117 114 115 114 113 118 116 122 126 123 127 125 121 126 125 127 123 125 124 127 127 127 125 125 126 123 130 126 123 118 117 115 114 113 113 117 114 
133 134 134 136 132 131 126 131 126 125 127 128 126 125 122 122 120 118 120 119 123 125 125 122 121 120 120 123 122 122 122 121 121 121 118 120 117 120 122 124 119 120 117 111 114 112 108 111 117 118 122 124 122 121 120 121 123 125 124 122 123 126 124 124 127 132 127 129 126 127 127 120 120 117 116 118 114 119 117 117 
135 135 137 135 133 131 132 136 128 126 129 125 128 124 124 125 122 127 122 122 124 127 125 120 123 125 119 124 122 126 123 120 119 120 121 121 118 119 121 122 121 118 114 111 111 114 114 112 115 119 120 120 123 124 119 121 125 124 124 120 125 124 125 127 129 129 125 126 125 125 125 123 118 120 115 119 119 117 116 119 
134 136 135 129 129 128 130 129 126 124 126 122 123 124 125 125 124 122 122 123 124 124 122 123 123 125 122 125 122 121 121 119 118 121 122 118 117 119 121 118 122 120 112 112 111 113 108 109 120 117 120 120 117 119 121 118 124 124 121 120 121 125 123 131 126 128 126 125 127 122 123 120 120 121 116 116 116 115 120 118 
134 135 134 130 130 130 127 128 126 125 125 123 124 124 128 124 121 122 121 121 124 125 121 121 124 124 121 120 122 123 119 119 120 120 118 120 120 119 121 122 117 117 113 112 111 113 110 113 117 115 119 121 116 120 120 118 121 122 122 117 121 125 123 120 126 126 124 124 122 123 123 119 117 121 119 118 117 118 121 114 
136 135 133 131 130 128 130 127 122 125 125 124 123 124 123 127 125 124 122 122 125 124 131 122 122 125 124 120 119 122 122 121 120 122 120 117 121 118 121 121 118 118 113 110 110 113 108 114 119 116 118 119 118 117 117 119 124 124 122 120 123 124 123 120 125 128 122 127 122 122 123 120 119 121 115 120 115 114 118 115 
135 136 132 134 133 130 129 128 121 125 124 122 122 124 124 126 122 122 122 122 121 123 127 122 124 124 125 123 121 121 122 120 119 117 118 118 120 118 121 123 118 117 111 110 108 110 108 110 118 113 115 118 113 115 118 118 123 120 120 117 120 122 123 122 125 126 121 119 123 120 123 118 116 119 116 119 114 114 117 117 
133 137 135 129 130 129 129 128 124 121 123 123 120 122 123 124 122 122 122 120 123 124 126 122 124 122 121 123 120 123 118 120 120 116 116 119 114 117 121 116 116 116 108 107 108 110 106 109 116 115 113 115 113 115 119 118 121 121 117 118 122 122 123 122 122 126 125 123 122 117 122 117 119 119 120 118 116 116 115 116 
135 133 136 134 127 130 127 127 126 125 125 120 122 125 121 121 119 120 119 120 122 126 123 121 119 121 120 123 119 120 117 120 117 120 123 114 116 116 119 118 117 116 110 107 107 105 106 112 116 114 115 115 112 113 119 118 120 119 119 115 122 124 117 122 123 125 122 121 121 116 120 117 117 118 117 120 114 114 111 114 
132 137 136 131 132 128 128 125 123 123 125 123 122 120 120 121 122 122 120 119 119 127 125 122 119 124 123 124 120 121 121 116 118 118 120 114 116 115 119 117 119 118 113 116 110 109 105 114 113 114 115 113 112 115 120 121 116 119 113 118 119 121 122 121 121 123 121 121 123 119 117 118 119 119 114 117 113 115 115 114 
136 131 132 131 128 125 129 129 126 122 124 122 121 122 121 122 121 118 121 120 120 121 124 121 124 123 123 120 117 121 118 120 117 118 117 116 116 116 118 117 120 117 110 110 109 110 106 111 113 113 112 113 112 113 120 119 120 117 114 111 116 122 121 120 123 121 122 122 124 120 119 116 119 117 117 116 114 116 113 112 
133 130 131 128 127 125 125 123 121 119 124 118 123 121 122 120 120 119 117 119 120 125 124 120 123 121 120 123 118 122 120 115 113 114 117 112 115 115 119 118 117 117 109 108 109 109 108 110 111 109 112 114 108 113 114 115 115 115 114 114 116 117 117 121 119 121 117 119 125 119 118 117 117 118 116 115 110 108 111 108 
131 132 134 133 122 125 126 124 122 119 121 122 121 121 121 121 120 120 118 118 121 120 125 122 121 120 121 120 117 123 118 114 115 115 112 114 113 114 115 119 118 116 108 106 106 106 103 110 109 109 109 113 110 114 115 115 115 117 109 114 116 121 117 119 119 121 116 120 121 120 118 122 118 119 118 116 111 112 112 111 
132 133 138 129 127 124 126 124 124 118 120 122 121 120 120 119 120 120 118 122 121 122 121 117 120 122 119 121 118 121 117 114 115 117 117 118 118 115 117 117 119 110 92 87 103 106 104 107 109 107 111 111 109 113 115 117 116 120 109 115 114 119 116 122 120 121 120 119 121 115 116 114 118 119 116 115 110 113 111 109 
136 134 133 126 132 127 126 124 123 121 124 124 120 119 119 121 118 121 122 119 121 122 121 115 119 117 118 119 119 118 122 114 115 116 116 116 115 113 116 123 117 90 52 56 97 98 106 109 107 108 104 110 109 107 115 119 113 112 111 114 117 116 117 115 118 121 120 120 120 114 115 112 115 120 115 112 113 117 115 107 
135 132 131 131 125 128 125 124 124 120 122 119 117 119 120 117 119 120 119 116 121 119 120 117 118 116 115 116 116 119 121 114 115 116 113 114 118 116 117 113 119 70 13 23 93 98 105 106 108 105 107 112 109 108 112 113 116 113 109 114 114 115 113 116 120 120 117 117 119 114 118 109 116 118 113 116 114 114 112 108 
136 132 132 131 126 128 126 127 122 119 125 122 121 117 119 117 120 122 120 116 121 119 119 116 115 118 115 113 115 119 116 114 113 115 114 113 113 114 117 118 116 55 7 22 93 95 100 105 103 106 107 110 109 109 114 116 112 111 107 114 117 116 113 114 119 122 116 115 117 113 110 109 114 115 115 116 116 112 112 110 
135 135 141 126 125 125 125 126 125 121 128 119 119 119 118 118 120 119 115 120 120 122 122 117 116 115 114 113 117 118 121 117 118 118 116 116 113 114 120 118 110 49 1 22 89 95 100 104 107 106 109 110 110 111 112 113 110 111 109 108 117 114 111 113 119 120 116 114 115 112 113 109 117 119 115 111 113 112 113 112 
136 134 132 131 129 124 125 125 123 118 130 122 117 120 117 117 115 114 118 119 123 120 117 118 120 121 118 119 115 121 116 114 117 119 116 113 114 112 117 116 108 38 0 25 90 97 102 103 105 109 107 109 109 112 113 112 108 108 107 109 114 113 112 115 120 119 114 115 117 114 111 111 115 118 114 114 111 115 115 112 
131 134 133 129 127 125 124 124 121 121 122 117 117 119 123 118 109 114 116 115 119 117 117 115 117 119 121 114 116 112 112 112 114 116 114 112 113 111 114 112 107 32 3 30 89 97 104 105 106 105 109 112 107 115 115 111 113 111 108 108 113 111 114 113 116 117 116 112 115 111 107 108 114 117 113 114 108 111 121 111 
131 133 131 132 123 122 125 125 121 120 123 120 118 118 118 116 112 115 117 114 115 115 117 115 115 118 116 118 113 117 114 113 114 114 113 111 111 110 112 112 104 28 5 34 88 95 102 105 105 103 106 104 107 107 111 110 110 107 107 108 110 114 111 114 116 117 113 111 110 112 109 108 116 114 112 111 108 105 110 110 
133 128 137 125 123 120 122 125 119 118 122 120 117 115 114 114 114 113 116 113 115 117 119 115 114 114 117 115 116 116 114 110 114 112 112 114 113 111 112 110 104 21 3 33 87 97 107 103 106 107 103 104 106 105 109 105 110 104 103 108 113 115 116 113 115 117 110 110 108 106 106 108 115 117 110 108 106 108 112 109 
132 132 129 127 122 123 120 122 118 119 117 121 115 115 115 114 113 112 112 115 117 113 119 116 113 114 113 110 111 115 111 112 110 112 112 111 109 107 112 108 104 15 6 20 89 97 105 112 108 103 103 102 102 101 103 105 106 106 100 105 112 111 111 112 114 112 109 109 111 109 105 109 112 116 107 109 107 108 110 108 
130 126 126 124 126 120 121 121 117 114 118 117 119 117 116 114 113 113 114 114 119 115 114 111 110 114 111 113 110 113 111 111 109 112 111 111 112 111 113 110 97 11 6 23 84 93 102 108 106 100 103 101 99 101 100 98 100 105 103 107 112 110 108 112 113 114 109 109 112 105 106 108 115 112 106 112 104 107 107 105 
129 127 128 123 124 119 119 120 118 116 118 116 116 119 120 116 112 112 113 112 112 112 113 111 111 112 111 111 108 114 114 110 112 108 110 111 109 107 109 106 91 14 5 14 79 95 105 104 102 100 104 102 97 98 96 100 99 103 102 106 109 112 108 108 111 115 111 112 113 105 103 111 115 113 107 110 107 104 106 108 
133 129 127 119 118 115 116 115 118 115 118 116 114 117 116 117 114 112 110 110 113 112 116 111 113 112 109 109 109 112 106 109 106 106 106 108 110 108 108 103 89 25 6 21 83 94 101 103 104 99 97 98 98 96 93 96 101 104 105 101 109 111 109 111 109 113 109 106 112 104 104 108 117 115 108 107 106 103 105 101 
126 125 125 120 114 118 119 121 116 112 119 114 117 114 114 113 110 108 110 111 110 113 114 112 110 110 108 109 109 112 110 107 105 108 108 109 107 106 109 106 96 54 25 48 89 100 108 103 103 100 94 91 98 93 96 98 102 101 100 103 107 110 107 109 108 111 107 107 108 102 103 109 112 111 106 110 103 103 103 104 
128 124 118 121 114 116 120 118 117 115 119 117 115 117 115 113 113 117 111 107 112 110 117 110 114 109 110 112 109 113 108 103 105 106 110 106 105 107 109 106 99 79 62 79 95 101 106 108 107 97 93 92 92 93 93 95 100 102 103 102 104 110 107 106 110 110 109 102 103 102 105 111 114 111 105 106 104 101 100 101 
126 126 117 118 116 117 118 118 116 118 117 116 115 115 118 116 110 109 108 109 109 111 113 110 110 111 111 106 109 111 108 110 103 110 106 107 106 107 109 105 100 88 87 93 99 105 106 109 106 98 90 90 94 92 96 97 98 97 102 106 109 108 105 104 105 110 104 106 109 99 106 111 114 109 102 106 103 100 102 95 
117 126 115 121 115 116 115 116 115 115 117 114 115 115 114 113 113 111 111 111 112 107 112 107 112 108 108 105 106 111 108 105 106 108 109 108 103 105 108 107 104 88 98 102 106 107 109 105 105 105 98 88 92 89 98 97 96 100 102 103 107 105 104 106 104 106 102 104 103 101 104 107 113 108 105 105 102 103 99 93 
117 114 118 123 116 116 117 117 115 114 115 111 111 115 115 112 107 103 109 107 112 108 110 111 109 109 108 108 108 108 106 107 104 109 108 105 102 100 108 107 94 87 99 105 109 106 107 105 105 103 104 103 94 93 96 97 97 97 102 105 101 105 103 104 101 102 101 101 102 99 107 108 112 108 102 105 100 99 97 98 
114 113 118 119 123 119 116 116 113 113 118 113 112 115 111 111 105 105 106 108 107 107 112 110 110 110 108 107 105 108 106 106 104 103 105 104 101 101 103 104 99 90 95 106 106 105 108 106 105 104 108 103 97 98 103 95 96 100 100 102 103 106 103 103 99 106 99 102 102 101 104 108 112 106 103 101 98 97 100 96 
109 112 114 116 118 119 117 116 112 109 117 110 111 111 106 107 104 105 106 105 104 109 110 106 107 109 105 107 106 108 106 107 103 104 105 104 103 100 107 101 96 89 96 104 100 107 106 107 104 100 103 101 102 101 105 97 101 97 98 102 103 102 102 99 97 101 98 99 98 99 104 112 111 104 99 99 95 95 97 92 
113 114 114 114 115 117 115 115 112 113 118 114 112 111 110 107 104 100 107 108 109 108 109 108 106 105 114 109 106 108 104 103 106 104 105 102 99 98 103 99 93 92 94 100 105 105 108 105 103 102 102 103 101 107 101 98 99 99 96 97 101 101 99 97 100 102 98 100 99 99 106 112 111 106 99 98 97 97 95 93 
113 115 114 115 113 114 112 112 111 114 117 112 113 117 111 103 103 105 101 105 108 108 106 108 106 108 105 106 104 107 103 106 102 102 107 103 99 101 103 102 95 88 92 103 102 105 107 103 101 101 102 103 100 101 103 99 99 98 99 103 100 100 99 99 99 102 97 98 100 96 111 110 107 101 98 96 96 91 97 93 
112 115 112 114 112 112 113 112 114 112 113 110 118 111 111 107 104 101 104 109 110 109 104 109 104 107 106 106 103 107 105 106 100 103 104 101 101 96 102 96 97 90 97 104 103 105 111 107 104 102 104 105 101 100 106 99 104 103 101 103 103 104 104 102 101 103 102 98 99 100 103 108 108 102 97 101 94 96 95 91 
110 112 117 110 110 110 110 114 110 110 112 112 114 112 107 106 104 103 101 106 105 104 108 106 104 101 103 102 103 107 105 99 99 100 100 97 98 96 100 100 99 95 98 102 104 105 109 111 107 105 103 106 102 101 107 103 107 106 106 105 116 111 105 106 103 105 100 100 95 101 104 108 103 102 94 102 95 93 92 97 
110 112 110 115 108 113 114 115 109 110 117 113 111 110 106 104 103 103 103 104 104 109 104 105 102 105 103 104 103 103 98 98 99 102 101 100 100 99 100 101 96 92 90 100 99 107 108 106 106 104 103 106 100 102 109 103 108 107 106 105 103 107 107 101 106 106 101 99 97 100 105 105 102 94 94 100 92 93 93 96 
114 110 111 112 108 113 113 113 110 112 112 111 112 105 102 102 101 106 104 106 109 103 107 102 103 104 102 101 100 102 98 101 101 103 102 101 101 100 100 99 98 94 96 105 107 106 110 107 104 106 107 107 101 102 107 104 109 107 112 104 105 109 106 104 103 103 101 101 95 97 104 105 97 96 93 100 93 92 95 90 


