P2
80 60
135
116 120 113 116 120 113 104 102 102 105 103 104 107 112 113 113 112 118 114 117 118 118 112 110 116 120 118 121 120 123 122 122 122 122 119 118 117 118 120 122 121 118 122 120 122 120 120 117 123 121 117 120 128 122 120 121 125 125 127 121 120 118 121 116 119 116 113 110 112 114 112 112 112 111 110 108 110 107 109 118 
115 121 119 118 118 112 108 110 105 108 103 108 113 111 114 114 113 115 116 116 118 115 113 112 118 120 118 120 119 121 119 123 120 124 121 118 117 117 120 122 124 118 123 124 120 121 121 122 122 119 117 122 122 124 123 123 127 125 128 123 120 117 118 119 115 116 115 113 112 115 110 111 109 109 111 110 109 106 109 113 
116 119 114 116 118 116 108 106 102 101 106 111 109 111 116 115 110 115 114 118 118 118 109 113 113 122 120 122 119 118 121 122 120 121 124 118 117 120 122 123 126 121 124 121 122 121 120 122 125 123 120 125 124 123 123 121 126 125 125 122 123 121 115 121 119 118 113 114 115 115 117 116 112 115 114 110 122 110 112 118 
116 120 118 116 120 114 106 108 104 103 101 110 115 110 114 112 116 112 115 115 113 118 112 114 120 119 122 122 121 120 122 124 123 122 118 120 120 121 127 125 126 119 123 122 122 124 123 121 125 122 118 125 122 121 121 122 121 123 122 123 126 120 119 118 116 116 114 115 117 116 115 119 111 118 114 109 112 110 114 120 
116 122 116 118 117 116 108 104 102 105 99 106 111 112 118 114 113 112 114 112 114 113 112 114 123 121 125 123 121 121 119 118 119 119 118 118 119 123 126 124 125 119 119 120 122 122 122 124 123 122 120 123 123 120 123 122 123 122 125 122 122 119 118 119 117 118 115 115 115 116 116 109 113 116 113 111 111 110 113 116 
118 122 116 119 120 116 110 107 108 106 99 106 110 114 114 114 110 113 114 116 116 117 115 113 119 121 118 124 117 120 117 118 119 116 117 120 118 122 127 123 127 120 122 120 125 122 123 122 124 122 120 124 125 124 123 122 126 122 126 122 124 120 118 121 118 117 117 119 119 119 116 112 115 114 114 110 112 111 110 115 
120 122 118 120 120 117 110 105 107 105 105 106 110 109 111 109 112 111 112 112 115 117 114 112 115 118 118 119 121 118 116 116 116 119 117 118 119 122 122 125 122 120 121 122 121 123 124 123 125 121 120 128 125 125 120 124 124 125 128 123 121 120 118 119 120 119 117 119 118 119 117 114 113 113 114 113 110 106 110 116 
123 120 118 120 120 126 104 103 106 103 97 108 110 110 111 112 114 110 110 111 122 111 108 112 112 118 116 121 121 119 117 117 116 115 120 122 120 124 122 121 121 121 120 122 121 124 122 121 119 121 120 123 122 120 122 124 123 124 127 120 124 123 119 120 119 121 115 115 120 118 113 113 112 110 111 111 110 107 112 117 
119 122 119 120 120 117 103 103 102 104 98 104 110 106 110 111 111 111 113 112 112 113 110 111 111 115 120 120 122 119 122 113 119 117 116 114 116 121 119 120 119 117 118 118 119 124 119 119 119 121 121 124 123 122 121 122 119 121 125 120 118 117 120 118 117 119 118 115 115 115 112 112 114 114 116 109 108 108 104 111 
120 124 118 118 121 119 104 102 103 102 102 102 106 103 111 111 113 112 111 108 114 112 106 107 111 112 115 121 117 117 117 117 114 115 116 113 115 118 122 121 118 119 117 118 123 119 119 118 118 122 121 119 121 119 121 120 120 118 126 120 120 117 117 118 119 119 117 114 117 114 113 112 110 115 113 111 110 106 106 114 
116 121 116 118 123 115 114 103 104 104 100 101 105 99 105 105 110 109 111 107 108 110 103 105 110 113 115 114 116 112 116 113 115 113 116 112 115 120 121 123 117 117 117 116 120 116 118 118 118 120 120 124 118 117 119 117 119 119 124 121 118 115 116 120 114 117 118 119 116 112 114 111 110 112 110 111 113 109 106 110 
115 127 116 125 118 114 102 103 102 100 101 101 104 103 103 103 104 107 103 105 110 110 105 107 107 112 114 115 114 114 116 115 113 117 112 110 111 113 121 120 118 116 116 114 115 117 115 117 118 117 115 120 116 115 119 116 120 122 121 117 116 117 117 115 117 115 112 115 117 110 109 110 110 111 112 114 114 104 106 110 
115 124 119 128 120 106 74 73 86 93 98 104 102 101 102 100 100 102 106 101 110 110 105 105 106 110 112 114 112 113 112 113 114 114 113 110 112 115 120 118 117 117 115 114 117 118 117 119 120 118 120 119 117 115 118 119 119 121 122 120 117 117 120 115 116 115 113 115 115 115 103 110 108 110 112 111 112 106 107 113 
117 124 115 119 117 97 36 27 67 95 94 95 97 100 99 103 99 102 104 100 110 104 103 103 107 108 110 111 112 109 111 113 112 113 110 109 110 117 115 118 117 116 115 112 115 118 117 119 120 122 117 117 119 116 115 120 121 124 123 118 121 117 117 119 116 117 116 113 113 109 108 106 110 113 110 108 108 105 113 112 
121 117 117 117 117 92 11 6 62 89 90 94 95 98 97 101 96 104 101 101 105 102 102 104 104 109 107 111 113 112 113 111 115 110 110 109 109 116 116 116 118 116 115 112 115 118 115 117 117 118 117 121 121 118 118 122 121 135 124 120 119 114 115 116 115 115 116 115 112 112 108 112 112 110 108 109 106 108 107 110 
115 122 118 114 106 93 12 6 52 85 87 91 98 99 101 99 97 100 98 93 107 104 99 98 103 105 109 111 112 111 111 108 108 109 112 108 110 112 116 118 118 115 114 114 114 114 111 113 116 116 115 116 117 117 116 119 119 124 124 117 118 115 116 115 116 118 114 114 115 110 109 109 114 112 109 105 109 110 110 112 
120 122 116 119 113 97 14 0 46 79 85 94 94 94 99 102 98 97 99 96 104 101 98 98 101 108 106 112 112 110 111 111 111 112 109 106 110 116 116 119 114 113 116 114 112 111 112 112 112 111 114 117 117 115 114 118 119 123 122 116 120 119 113 116 113 114 113 115 114 111 108 110 117 116 112 110 106 109 111 111 
116 122 117 115 114 99 17 0 35 78 85 90 94 95 97 98 99 97 98 97 99 98 95 97 97 110 105 110 110 108 110 109 110 110 107 105 113 113 114 116 114 113 110 109 110 110 112 110 111 111 113 117 118 116 119 115 116 125 120 118 115 112 113 113 114 111 109 112 115 113 111 114 116 116 115 106 105 106 106 106 
115 121 113 117 108 100 22 2 34 76 87 94 93 97 92 96 97 94 98 95 96 96 97 98 99 108 111 108 108 105 110 108 111 110 111 107 112 115 117 118 115 111 106 109 109 105 111 110 110 112 114 115 115 114 113 116 117 119 117 117 115 112 107 115 110 114 111 117 115 115 113 112 113 113 114 109 107 109 110 110 
114 119 114 115 116 99 27 0 30 75 84 93 94 95 98 99 96 94 95 93 94 102 99 98 100 105 111 108 110 108 111 107 109 106 108 107 113 113 115 118 113 111 107 107 108 106 105 107 109 113 117 115 115 110 112 114 114 114 118 115 117 113 111 108 111 109 108 114 112 117 114 112 112 111 110 108 109 108 105 119 
114 115 112 114 111 101 33 12 20 71 90 96 95 101 99 96 95 95 94 89 90 95 97 97 97 107 105 106 108 108 112 107 110 107 107 106 112 113 113 113 108 109 107 109 106 105 103 105 109 115 112 115 117 113 114 111 112 113 118 117 112 111 112 113 111 108 110 114 118 116 112 112 111 111 111 109 110 108 112 115 
113 117 111 115 114 97 37 3 11 61 88 96 103 99 100 95 93 97 94 87 91 90 98 91 100 104 104 105 106 104 109 107 104 104 107 106 109 113 113 112 110 110 107 104 108 105 104 106 111 111 111 115 116 115 113 114 111 112 116 115 116 111 113 111 109 111 111 115 115 118 116 113 113 112 113 107 111 108 112 114 
113 113 112 118 113 106 39 7 11 48 84 98 95 102 97 92 87 95 92 87 90 91 89 89 96 105 103 106 106 103 109 103 107 104 106 105 110 111 110 111 109 106 106 104 105 104 106 107 106 109 111 113 113 110 112 112 111 112 117 109 114 113 113 109 109 117 115 114 116 115 114 113 116 115 113 110 112 110 112 116 
111 114 111 113 110 105 47 7 5 42 87 94 100 97 96 95 86 87 89 88 87 93 90 90 95 101 101 104 103 103 103 103 103 103 100 101 106 110 108 110 107 104 107 106 103 105 105 103 107 112 110 112 112 110 108 110 111 110 112 112 109 112 111 112 112 110 115 113 117 120 113 116 116 112 113 109 110 109 111 114 
114 116 111 112 111 103 70 24 16 59 94 101 101 102 103 98 90 84 90 87 87 88 88 91 99 102 101 104 106 101 103 100 105 102 101 103 109 109 109 109 108 105 104 104 105 104 104 105 109 109 106 110 109 108 110 109 110 111 112 111 112 114 108 109 113 114 115 116 116 117 116 113 113 117 111 109 113 112 110 120 
111 114 113 112 110 105 92 75 52 85 94 101 101 102 107 100 96 92 86 84 90 94 86 88 95 101 101 102 102 100 102 98 100 103 96 105 109 104 105 107 107 105 103 103 101 105 105 108 106 108 108 111 108 110 107 108 108 110 115 112 110 112 107 107 110 113 116 114 114 114 115 113 112 112 114 110 111 110 112 116 
110 111 106 110 112 108 105 92 89 89 98 102 105 100 105 104 102 100 94 87 90 92 95 90 96 98 98 100 102 99 101 101 99 97 96 100 108 103 105 105 107 104 103 101 100 101 102 106 107 104 108 110 109 106 104 108 108 107 115 112 111 107 107 106 107 112 116 114 112 114 112 112 112 112 115 109 108 109 108 114 
108 111 109 111 110 107 102 94 94 91 102 102 99 100 103 104 97 102 99 93 90 94 92 92 91 97 102 99 99 102 100 98 97 94 95 99 100 105 103 107 104 102 101 103 101 104 104 102 105 107 106 110 105 104 106 105 108 109 112 106 110 105 107 107 109 109 115 115 119 124 111 109 111 115 112 109 110 108 112 112 
107 111 106 108 109 107 100 95 90 92 100 100 101 105 104 102 102 102 101 95 97 94 91 90 92 95 100 102 101 97 96 97 95 94 95 99 109 103 99 110 101 99 103 100 100 101 102 100 107 108 106 107 108 107 106 106 111 109 111 107 111 106 107 108 109 110 115 113 114 112 111 112 112 112 113 109 109 106 106 113 
110 111 108 108 108 111 100 98 99 96 102 104 102 101 104 103 98 99 101 98 100 97 92 90 91 95 100 96 99 99 98 104 98 95 99 99 105 103 104 104 104 101 101 104 101 102 105 102 104 107 105 106 107 104 104 106 109 111 117 111 110 107 105 109 111 116 119 116 117 111 113 110 112 114 113 109 108 106 108 112 
108 115 107 108 109 108 100 93 94 93 98 101 102 101 101 102 102 102 99 99 98 100 99 95 97 96 99 98 102 100 102 103 103 104 101 98 105 105 102 104 103 103 105 101 103 106 102 107 102 103 106 106 112 103 102 106 108 110 110 108 108 108 107 110 112 112 112 115 115 114 112 113 111 113 109 105 107 104 112 111 
107 115 105 108 109 108 102 98 96 93 102 100 103 99 103 102 103 101 101 98 99 96 100 98 101 100 103 105 105 101 104 109 106 104 99 101 101 103 100 102 106 103 99 103 102 103 103 102 104 111 104 107 105 104 107 110 108 108 110 104 107 108 105 108 114 111 113 108 116 117 114 110 111 110 110 107 107 104 107 112 
104 110 106 107 107 106 104 97 98 92 98 98 100 99 102 105 102 102 98 99 100 102 99 100 102 105 104 106 107 105 105 105 106 100 100 100 102 102 100 105 102 102 101 102 101 103 104 101 103 101 104 104 106 103 104 108 108 109 107 107 108 105 107 108 113 111 110 111 117 114 111 111 112 109 107 105 108 105 109 108 
105 107 104 106 109 106 103 96 97 91 95 101 99 100 102 102 102 103 101 101 100 99 100 100 104 105 103 106 106 104 105 109 103 101 99 97 99 97 96 105 102 100 103 100 98 104 100 99 99 104 101 106 107 105 104 107 107 106 109 106 107 108 107 105 112 114 111 109 113 112 111 118 108 110 109 103 108 107 109 107 
106 109 110 107 108 105 101 98 100 93 94 104 101 95 103 100 101 101 101 102 101 102 97 99 102 106 103 108 104 103 105 105 103 103 99 96 102 99 97 101 99 99 103 100 102 101 102 98 102 103 102 102 107 103 105 107 106 110 108 107 104 107 104 108 109 109 110 109 111 111 111 109 111 111 108 107 107 105 104 108 
106 107 105 106 107 108 103 101 99 94 90 101 96 99 102 102 99 103 106 101 103 102 101 99 101 102 103 101 104 103 106 105 104 94 97 97 101 101 96 99 99 96 102 100 102 102 100 103 101 104 105 106 104 103 104 111 107 110 108 106 102 105 107 109 115 107 110 111 111 110 112 108 109 109 109 106 106 107 106 110 
112 110 105 106 107 108 101 102 100 97 89 100 106 96 101 99 101 105 105 102 100 102 100 100 101 104 103 101 104 102 105 104 104 99 94 92 105 101 98 93 97 93 96 98 96 102 103 102 101 102 106 104 106 102 110 105 109 104 110 109 104 105 109 110 113 111 112 109 112 110 110 109 109 113 110 104 108 107 110 115 
113 115 103 106 105 106 103 103 99 95 90 100 98 98 99 101 101 107 101 97 102 104 99 97 102 103 102 100 104 105 107 106 107 96 96 94 102 101 96 100 96 92 97 98 98 101 97 98 102 101 102 105 106 105 105 109 107 109 106 104 104 103 106 106 112 115 113 112 109 111 108 106 107 109 112 108 111 104 109 109 
103 114 113 105 105 111 103 103 98 97 93 100 100 100 100 103 101 107 103 103 102 103 101 101 102 107 104 101 105 103 107 107 103 101 97 98 101 97 97 97 95 92 97 95 98 102 101 98 102 101 100 105 110 104 109 105 106 107 106 104 105 103 106 111 115 114 113 110 108 112 111 110 109 109 111 103 107 104 112 113 
105 112 105 107 107 102 102 103 100 95 104 100 102 101 98 100 99 101 102 97 100 102 101 104 103 106 107 105 103 103 105 103 105 98 100 96 99 100 94 97 98 94 95 95 95 103 103 101 101 104 100 105 108 107 108 109 109 108 109 105 109 108 110 111 114 110 112 111 111 115 109 107 108 111 111 105 111 111 115 120 
105 108 102 108 106 104 103 103 96 96 94 101 101 101 100 102 99 104 102 101 104 101 100 102 102 105 109 102 102 101 105 105 106 101 98 95 98 99 97 96 97 94 97 93 97 106 101 102 101 104 104 110 107 112 106 109 113 112 111 112 110 114 111 112 114 111 112 110 114 115 110 109 107 111 108 109 112 106 118 118 
100 110 103 110 106 103 100 100 97 93 93 96 101 100 102 102 95 101 102 98 97 101 100 101 102 104 104 104 102 103 104 104 100 92 101 101 101 101 95 100 99 94 99 96 97 102 106 104 105 103 109 110 114 112 111 116 119 115 114 113 115 113 110 113 113 114 113 111 111 109 108 106 111 108 107 107 106 104 106 115 
102 106 109 101 104 104 101 100 97 94 92 97 97 102 101 100 100 102 101 99 100 101 100 102 100 102 102 105 104 102 103 104 104 96 98 98 102 102 99 101 99 96 97 95 101 100 108 112 112 112 114 118 123 115 115 118 118 112 114 114 116 115 114 114 114 112 113 111 108 109 110 107 106 107 105 106 106 106 105 111 
103 107 104 103 104 106 103 99 95 91 95 96 95 96 104 100 99 99 101 98 102 105 104 102 102 102 102 101 104 103 105 101 102 95 96 100 101 102 101 102 102 98 102 99 105 114 114 124 118 117 120 121 125 117 118 117 117 117 118 114 117 115 115 115 119 111 113 111 112 111 111 109 107 108 109 103 106 105 108 113 
101 108 103 100 107 105 98 96 96 91 93 97 100 102 104 103 103 107 102 100 104 103 99 101 104 104 100 102 98 99 100 97 94 96 97 99 101 104 100 107 102 102 103 108 115 117 117 122 120 120 118 120 119 115 120 114 117 119 118 114 117 116 116 119 115 113 113 114 110 110 108 108 109 108 111 107 107 106 105 111 
105 108 100 104 109 103 99 99 95 94 94 93 100 102 105 103 105 106 102 99 103 103 97 96 97 98 97 97 96 94 100 94 95 93 97 101 101 102 98 104 104 101 113 111 117 120 117 114 116 118 120 118 117 115 116 117 113 114 118 114 115 116 117 112 115 117 110 111 113 111 111 107 106 109 113 106 108 106 108 112 
100 110 101 104 103 106 98 98 98 93 97 99 102 102 103 103 100 102 97 95 96 99 94 95 95 96 98 95 94 95 97 95 99 91 97 97 100 103 101 102 102 106 109 112 117 116 117 115 116 119 116 117 120 115 114 115 115 115 115 115 114 115 116 113 111 118 112 112 115 113 108 107 106 110 110 104 108 103 107 114 
105 111 103 104 107 108 105 105 100 96 96 100 100 98 98 95 93 96 98 96 98 97 96 95 96 97 97 96 95 99 97 99 97 93 93 98 97 103 102 102 104 106 115 113 117 118 118 118 117 118 119 118 120 117 116 117 119 121 116 114 116 114 112 115 112 114 114 111 111 113 112 107 109 112 111 106 108 105 108 111 
112 111 104 103 108 110 105 107 103 92 93 94 94 97 96 99 95 102 99 100 96 100 101 96 97 99 97 98 96 96 97 97 97 97 95 97 98 103 100 104 102 109 114 115 117 120 113 116 113 117 114 121 116 117 117 120 120 119 117 115 115 114 116 114 115 115 110 111 111 112 115 109 110 112 110 107 108 104 105 109 
103 111 103 108 108 106 108 106 104 100 96 102 100 97 101 98 94 98 101 100 97 98 99 98 98 99 97 97 100 98 99 99 99 99 96 99 93 100 100 100 106 104 112 112 116 120 116 117 115 117 118 118 121 116 119 119 118 117 118 118 120 115 113 115 111 115 110 114 111 112 108 110 110 112 107 107 108 104 104 110 
102 115 102 110 109 106 107 105 105 101 98 99 99 102 102 98 97 102 100 98 98 100 98 98 101 100 97 97 98 100 99 98 97 97 98 98 97 98 103 100 104 106 110 111 112 114 112 113 114 114 115 122 119 119 117 119 117 119 114 116 119 116 113 110 110 109 112 110 113 112 106 106 110 111 109 105 108 107 107 107 
105 113 108 112 111 110 106 106 107 101 101 99 103 105 103 101 99 102 103 102 104 103 100 100 101 102 101 101 99 99 102 98 100 98 103 94 95 98 101 103 105 104 109 112 113 114 112 114 118 115 118 120 119 118 118 119 119 117 122 120 115 115 112 112 112 111 114 113 110 115 110 107 114 112 111 109 107 104 109 110 
103 110 106 109 112 115 106 108 106 103 101 103 100 102 104 103 99 102 106 104 102 102 98 105 104 103 102 101 100 103 101 103 99 97 100 95 94 97 102 103 105 105 112 111 110 111 109 112 116 116 117 117 118 122 118 122 120 121 125 116 116 114 116 115 110 115 113 111 113 114 110 110 111 111 113 105 106 104 107 105 
107 108 103 110 117 112 109 105 104 105 102 102 102 102 104 102 101 103 104 110 103 106 101 106 106 105 102 104 100 103 102 102 104 99 100 96 95 97 103 104 102 105 111 110 110 112 111 114 114 115 114 119 121 117 118 123 120 120 125 120 118 114 115 111 108 114 114 110 112 115 110 110 111 110 114 107 107 105 106 107 
106 109 107 107 110 111 105 108 107 103 103 106 108 102 106 106 104 103 109 106 105 103 103 108 105 108 109 105 104 101 102 104 104 100 97 93 95 98 99 101 103 103 106 106 108 111 108 113 112 112 114 118 119 119 117 121 120 117 121 118 120 118 115 111 110 113 115 113 113 118 115 113 109 109 112 106 105 106 106 110 
105 109 106 105 110 108 105 105 107 105 103 104 107 107 110 107 106 110 113 103 111 105 105 107 104 106 105 105 104 101 104 103 101 101 101 96 94 96 97 101 103 103 106 108 112 107 110 114 111 114 113 115 118 118 116 121 122 121 122 120 119 115 114 114 115 114 113 114 110 116 115 113 110 111 111 106 105 105 106 108 
105 110 105 110 108 109 107 106 105 106 98 101 112 106 108 110 104 111 107 110 109 107 108 108 107 106 102 106 104 101 102 103 102 102 102 96 93 97 95 101 104 103 107 105 107 111 113 112 114 110 111 117 116 118 117 119 118 122 122 117 117 115 113 116 114 115 113 114 116 112 113 109 114 110 111 108 103 104 107 110 
104 109 105 108 111 107 108 108 108 106 97 105 108 106 104 108 108 109 107 105 108 109 106 104 105 101 104 101 102 104 105 101 101 101 98 96 94 95 99 100 101 100 106 105 106 108 112 110 113 112 113 116 114 113 113 114 116 115 120 114 117 118 113 115 115 115 111 108 114 113 110 109 110 111 108 105 107 105 105 116 
104 110 104 111 109 111 108 107 107 117 103 103 103 108 106 108 105 106 107 107 109 108 105 108 105 104 104 103 104 100 99 101 101 100 98 97 96 96 101 102 101 102 105 105 105 109 110 110 112 111 111 114 112 112 116 116 114 116 118 117 114 114 112 112 112 115 109 110 112 115 110 108 110 112 111 108 106 103 107 107 
107 108 105 111 111 112 105 109 108 104 99 104 101 108 106 106 108 112 113 105 107 108 108 105 107 106 105 104 107 105 104 104 101 102 102 99 98 99 99 104 102 106 104 104 106 109 108 108 110 112 111 115 111 111 114 116 115 116 118 117 116 114 113 112 111 112 109 113 109 113 111 107 110 114 109 106 108 104 107 107 


