P2
80 60
146
138 136 128 136 134 133 134 135 133 131 133 134 133 133 129 131 130 129 128 126 135 136 129 131 128 132 134 130 130 127 128 134 135 139 133 128 133 137 134 132 134 132 134 130 128 126 127 133 134 130 129 131 130 133 126 130 126 130 137 129 129 129 130 125 128 128 126 126 123 123 122 124 125 127 129 125 123 123 122 128 
141 142 131 137 131 130 134 133 132 132 133 132 131 133 130 133 133 129 126 129 135 137 129 130 129 137 131 135 129 132 132 132 133 138 136 131 140 134 133 134 133 130 131 131 127 129 129 132 131 132 130 130 128 131 130 127 129 129 130 126 126 129 127 125 128 126 125 124 124 123 120 120 125 125 128 121 127 123 122 129 
142 137 134 133 132 129 133 133 134 132 135 130 131 130 131 130 131 130 128 128 131 133 130 133 133 134 131 131 132 131 134 137 133 137 137 134 135 133 135 134 129 131 131 130 128 126 129 133 129 133 134 129 127 129 125 127 126 127 126 127 126 125 126 130 126 126 123 125 120 128 125 121 123 127 128 128 120 123 121 120 
142 140 130 135 134 131 132 135 133 135 139 131 129 124 130 128 131 130 128 130 133 136 132 134 132 134 132 130 132 130 137 133 133 134 136 135 135 136 132 134 131 126 135 133 127 124 129 129 133 132 133 130 130 129 126 129 126 126 126 126 125 130 131 130 128 126 124 125 124 131 129 127 127 127 129 126 128 127 125 125 
142 131 132 135 129 131 138 134 134 138 136 133 126 126 131 128 128 129 130 130 132 135 131 135 132 134 131 131 129 130 131 133 132 129 134 131 134 136 138 132 131 126 133 131 130 129 129 131 127 130 128 130 125 133 128 129 129 128 132 125 126 127 127 132 128 127 125 126 126 132 125 126 130 124 131 125 124 127 125 125 
137 133 133 135 133 133 137 135 135 132 133 131 128 129 129 129 130 131 131 131 134 133 129 131 131 134 129 130 132 128 128 129 128 131 134 133 135 131 133 129 131 130 131 131 127 133 135 134 129 128 131 132 133 130 131 129 126 126 127 127 129 128 125 128 126 127 128 127 131 132 125 125 127 125 130 122 123 123 121 125 
137 134 133 132 134 135 137 136 137 134 135 134 128 129 130 132 136 131 130 131 135 135 131 130 134 133 129 130 128 129 133 130 128 133 131 138 135 134 132 132 134 129 129 128 129 128 131 132 133 127 132 136 127 133 131 130 131 131 127 129 131 127 129 125 125 124 125 126 128 127 123 122 123 124 128 122 120 124 119 120 
139 134 131 133 133 135 137 134 134 131 134 132 129 133 130 126 132 131 134 132 136 132 130 131 130 135 131 128 131 128 128 125 131 132 136 137 137 135 135 130 132 127 127 130 125 126 133 129 127 131 135 133 130 133 128 131 130 130 131 125 127 129 126 124 128 129 126 125 123 123 121 121 119 127 127 123 119 118 118 116 
143 135 133 134 136 130 140 137 132 135 133 131 133 130 128 129 133 133 133 132 130 132 128 130 134 133 134 130 131 132 132 129 130 130 134 136 132 133 131 131 129 128 126 128 128 127 132 129 130 129 130 129 128 130 129 129 128 126 128 129 124 125 127 126 128 126 127 126 123 126 121 122 126 127 127 120 120 122 116 118 
140 137 133 136 135 132 139 139 135 132 130 131 131 126 128 129 135 131 130 130 130 130 127 129 133 132 130 130 130 129 126 128 129 127 129 133 133 130 129 130 127 128 125 125 126 126 127 127 128 125 127 127 128 128 128 129 127 129 124 125 123 125 126 124 123 132 125 126 125 123 121 123 124 120 126 119 116 116 111 111 
139 135 133 140 137 134 138 134 136 133 130 133 130 130 130 132 128 133 130 128 127 129 130 133 130 136 129 129 128 125 128 133 129 129 127 129 128 131 132 130 129 125 126 123 121 122 124 124 125 126 128 123 128 125 125 126 126 124 126 125 125 124 121 123 124 125 127 124 120 120 117 118 123 123 125 120 119 117 113 119 
144 138 140 139 138 133 131 132 136 131 132 131 133 128 128 127 131 130 129 128 127 129 125 131 128 136 130 127 126 127 128 128 130 131 128 129 127 131 131 128 130 126 123 124 122 128 125 126 121 127 127 125 127 127 124 129 127 128 124 125 126 125 126 125 125 127 121 122 122 118 116 119 116 123 127 121 119 112 119 119 
138 146 134 140 136 134 133 134 133 130 130 130 129 128 126 127 129 131 125 127 127 128 128 130 130 131 128 130 126 128 129 128 131 129 128 129 125 127 130 127 129 126 127 125 126 124 129 126 124 126 125 127 127 122 128 123 125 124 125 123 125 126 127 125 125 125 124 120 121 118 106 116 120 123 124 120 121 123 117 116 
139 141 139 139 136 133 133 130 133 128 132 129 130 128 126 127 130 125 126 123 130 127 125 128 130 132 126 125 125 128 129 128 131 129 131 127 128 131 129 129 129 127 128 127 123 131 130 127 126 133 125 125 122 123 124 124 128 126 124 126 125 126 125 122 121 124 123 122 121 120 119 121 120 120 120 122 120 123 119 119 
136 140 137 140 138 130 132 131 131 129 130 131 129 124 125 127 130 125 129 124 126 130 125 127 125 133 127 129 128 123 126 126 130 128 129 126 130 129 131 130 128 130 132 131 129 126 131 130 129 128 128 125 123 124 124 128 129 141 129 124 123 124 123 122 121 125 123 123 125 123 126 119 121 119 119 118 114 122 121 117 
140 140 138 139 135 133 134 134 135 128 127 129 126 127 125 129 129 126 129 126 127 128 125 131 127 133 131 125 127 124 128 127 129 127 126 128 128 130 128 133 131 132 130 132 127 128 129 128 128 129 127 123 123 124 126 128 129 127 130 127 121 125 126 123 122 121 124 129 125 123 121 123 123 122 123 117 119 123 118 119 
143 141 137 137 135 132 131 131 130 128 128 127 129 128 130 128 126 127 127 122 129 129 127 128 129 131 129 128 127 129 126 128 130 132 133 128 128 131 130 135 135 129 131 129 131 134 131 131 126 125 124 127 127 125 128 129 132 130 131 121 123 128 121 123 122 122 123 124 125 129 125 121 125 123 122 118 114 116 117 119 
146 142 138 141 133 129 134 129 129 125 131 131 128 127 128 126 129 127 124 128 130 131 127 129 128 128 127 129 129 126 128 127 130 130 129 128 125 129 131 130 127 136 130 134 129 130 130 128 129 125 128 124 129 127 130 128 131 134 129 127 128 125 126 122 123 121 118 119 124 127 122 122 122 120 124 116 116 116 111 113 
138 141 136 138 137 132 129 129 131 127 129 128 127 126 128 127 124 129 130 124 126 129 127 130 128 130 129 127 127 123 129 131 130 133 132 130 127 129 131 129 130 129 132 135 130 128 127 127 127 125 127 125 132 127 128 126 130 129 126 124 123 126 126 121 121 126 126 122 122 123 123 124 122 118 119 116 114 117 112 112 
141 141 132 136 132 134 130 131 135 128 132 128 128 127 129 124 127 125 125 126 128 133 130 127 129 134 128 125 126 127 130 130 126 130 131 130 126 128 128 126 134 131 133 132 125 126 127 128 127 128 127 127 127 124 126 125 122 124 126 123 121 125 127 123 124 128 125 120 123 124 120 121 118 116 118 118 114 113 110 114 
141 137 134 133 133 130 132 130 130 131 130 130 130 126 128 128 127 129 126 124 127 132 128 128 131 132 127 130 128 126 136 129 126 125 129 128 127 128 128 129 131 135 137 131 128 124 128 127 126 123 126 126 127 124 124 124 124 126 124 121 121 123 126 122 125 125 125 123 124 125 127 119 120 118 123 114 118 114 109 110 
138 140 133 134 131 128 131 130 130 127 128 129 131 129 127 124 123 125 123 126 131 129 129 128 130 130 126 125 126 125 128 127 126 127 127 127 127 128 126 130 127 133 131 129 126 125 126 125 121 124 126 124 124 124 123 124 123 126 125 121 121 121 119 122 124 124 127 122 122 123 123 123 122 119 121 115 114 114 113 112 
137 138 134 138 131 132 131 134 130 131 129 130 128 126 129 128 125 128 125 126 128 128 123 125 128 133 127 126 124 124 123 126 125 128 125 128 125 129 127 128 130 127 128 127 125 123 127 123 127 123 128 123 124 121 123 123 124 120 123 124 124 121 124 122 125 129 125 123 121 124 121 124 121 120 116 119 114 113 111 114 
141 136 131 132 132 131 133 138 131 124 129 129 127 126 124 126 127 123 125 124 126 123 124 124 125 130 124 124 125 122 126 127 126 124 122 123 125 127 127 128 128 130 129 127 125 124 126 123 123 129 124 125 123 123 122 121 123 119 122 122 122 121 122 124 122 124 125 121 121 120 119 120 121 121 117 117 112 112 106 109 
141 136 133 133 128 131 135 133 134 129 131 128 127 124 125 125 127 124 126 127 129 128 124 128 127 125 126 124 124 123 125 124 124 124 126 123 123 130 125 129 125 126 135 128 127 124 124 126 126 126 123 124 120 119 122 123 121 121 122 121 120 123 121 124 125 126 126 122 122 123 116 118 121 125 122 113 110 112 112 107 
138 135 131 132 130 129 132 130 130 129 130 125 126 125 128 126 128 124 123 124 125 127 125 129 128 127 128 123 123 122 124 124 124 122 125 123 127 126 127 128 127 129 132 129 125 124 127 128 122 120 123 123 122 122 122 119 120 121 126 123 121 120 120 122 124 121 123 120 120 124 120 119 121 118 121 110 106 111 111 108 
138 134 132 133 132 130 133 130 131 126 130 128 127 126 124 123 127 128 125 125 128 127 128 125 129 131 125 124 124 122 125 123 124 124 128 126 124 127 122 124 124 128 129 127 123 125 123 121 120 121 123 121 119 120 118 121 118 119 123 122 122 118 119 121 122 124 121 123 119 122 120 120 118 120 119 107 111 111 105 108 
139 132 135 136 133 129 131 135 132 128 129 129 128 123 125 124 126 125 125 125 126 127 126 126 128 129 128 129 126 122 124 123 121 124 125 126 127 128 128 127 126 126 129 127 125 124 124 124 121 123 122 124 123 121 122 119 122 119 120 119 121 122 121 120 122 121 122 121 119 121 120 119 119 121 117 111 113 113 108 108 
140 136 132 133 129 128 132 130 130 128 128 129 127 129 126 124 126 125 127 128 123 125 125 124 126 128 127 125 124 125 124 123 124 122 123 125 126 128 126 129 127 125 125 127 125 122 123 124 123 122 123 112 120 119 120 121 119 119 115 118 118 120 121 125 122 123 121 119 120 121 119 120 116 115 119 112 114 110 103 104 
139 136 133 133 134 128 128 131 134 128 127 127 126 126 127 124 124 124 125 126 122 126 123 128 122 129 127 123 126 125 123 129 124 126 123 125 124 129 122 122 126 128 128 125 125 122 120 121 123 124 122 121 120 118 119 124 117 121 118 115 122 121 125 121 123 126 117 121 118 119 120 119 118 114 116 112 107 106 100 104 
137 135 134 134 131 126 129 130 130 127 126 129 126 127 125 122 125 123 124 121 126 123 124 128 126 129 124 124 121 122 125 123 124 125 124 124 122 123 124 127 125 125 132 126 124 117 121 123 123 122 122 122 120 120 121 122 123 118 119 118 119 121 124 124 125 124 120 121 118 119 120 120 118 119 119 110 111 107 99 103 
135 134 131 134 132 127 131 130 126 128 128 127 126 125 127 124 129 125 124 123 123 123 124 127 126 127 132 122 122 123 124 125 121 123 124 124 123 125 122 126 131 132 129 129 125 119 122 120 122 124 123 122 123 120 116 120 118 119 118 118 117 121 123 121 124 126 125 122 121 119 118 119 120 117 119 110 107 104 103 106 
132 133 129 130 130 129 130 130 125 125 128 131 127 123 124 125 123 124 125 122 124 125 123 125 127 128 126 124 125 123 124 124 120 124 125 121 120 123 122 125 127 126 126 125 124 120 119 120 123 121 121 122 116 117 119 119 117 119 119 120 118 117 121 119 123 125 122 123 122 121 120 119 119 118 117 109 107 103 103 104 
138 133 130 131 133 128 129 127 131 127 126 128 128 124 124 124 127 125 124 123 125 124 126 125 125 127 125 124 125 123 123 123 122 125 127 120 122 124 125 124 125 128 128 125 125 120 122 119 119 123 121 120 120 120 119 122 120 122 117 119 116 120 120 121 120 122 126 120 120 121 119 118 118 117 119 107 105 103 102 105 
130 130 133 132 130 126 127 129 127 128 128 128 128 127 125 126 126 125 126 125 122 125 124 125 125 128 124 126 126 125 125 126 125 124 124 123 122 123 123 126 121 126 128 127 123 122 118 119 120 120 122 120 120 116 121 117 118 119 116 113 116 119 119 119 118 118 120 119 119 119 120 117 117 117 121 111 108 102 101 100 
132 130 132 133 133 126 130 128 127 126 128 125 124 123 124 126 121 123 127 123 124 125 125 126 126 126 123 123 125 124 125 124 125 124 126 121 123 122 126 126 124 126 124 124 120 119 122 124 118 117 119 120 120 123 120 122 119 116 118 119 119 118 122 117 120 121 119 121 120 118 116 118 119 117 120 105 108 104 101 104 
131 131 132 134 131 128 127 129 126 126 129 126 126 126 126 122 124 126 126 123 122 123 122 127 123 123 119 125 121 121 125 125 126 121 122 121 120 122 123 126 124 125 124 124 118 118 121 118 118 118 120 117 122 121 116 121 116 118 121 117 118 119 117 118 118 122 119 117 118 116 116 114 116 114 117 102 96 100 100 98 
137 136 136 134 131 126 132 130 127 129 125 126 128 126 124 122 125 132 128 124 125 124 126 124 123 121 121 119 125 122 127 127 122 123 124 119 121 124 124 122 125 127 127 124 122 121 121 120 117 117 119 120 119 118 118 120 118 115 120 117 114 115 118 119 120 125 121 116 116 115 118 117 117 112 114 99 105 103 99 98 
137 133 135 134 133 131 131 131 130 126 128 128 129 123 122 124 126 126 127 124 124 124 126 128 124 125 122 120 121 119 122 125 125 127 125 127 124 123 126 124 125 127 125 122 125 119 125 123 118 121 118 120 120 118 120 118 118 118 116 114 116 120 119 118 117 123 122 122 118 117 118 115 116 114 110 100 95 101 101 99 
138 137 132 132 132 130 131 131 131 127 127 128 128 124 122 125 125 123 122 122 125 123 126 130 122 128 124 119 120 120 120 124 124 122 131 122 120 124 125 124 125 127 125 126 123 119 125 126 123 121 124 118 119 119 118 118 116 114 115 116 114 118 120 118 116 119 119 117 116 116 116 113 113 117 114 95 97 102 103 101 
137 135 130 134 131 127 125 129 127 126 127 125 127 127 122 122 121 125 121 123 125 126 122 127 124 127 121 119 120 120 123 121 126 124 123 121 121 120 121 117 125 125 123 121 120 121 119 121 119 119 123 124 120 120 119 118 117 115 114 113 116 114 118 111 115 114 113 115 117 113 112 114 113 110 111 95 97 100 104 101 
139 136 134 131 125 124 127 129 125 123 125 129 123 122 125 123 124 122 125 122 125 122 124 124 128 125 124 119 120 120 120 119 122 122 123 122 120 122 124 122 120 124 123 122 121 118 119 121 121 120 120 120 118 119 120 115 117 115 116 114 114 116 114 115 118 116 118 114 112 114 112 113 111 113 101 76 73 93 98 102 
140 133 130 128 130 127 126 127 127 125 128 129 127 124 125 123 125 123 125 123 122 125 126 128 127 124 121 121 122 120 120 119 123 123 122 124 121 123 121 124 122 123 119 123 119 117 121 120 122 117 120 117 119 119 118 118 114 116 114 114 116 116 116 118 115 118 114 114 115 112 113 111 112 109 97 33 24 65 89 93 
136 135 132 124 130 127 128 126 123 124 124 126 123 124 124 121 124 123 124 125 124 124 124 127 123 124 124 119 121 123 124 121 119 119 119 121 123 123 120 122 121 125 121 124 116 121 120 128 122 118 119 116 115 119 116 116 114 114 115 115 115 114 115 116 119 118 115 113 114 111 112 111 110 110 90 21 14 64 83 93 
135 135 128 130 129 125 129 127 124 124 122 125 126 128 125 119 126 123 124 124 125 123 123 126 127 123 119 120 119 119 123 117 119 119 121 120 121 120 120 125 122 122 124 120 123 121 122 122 121 116 118 114 115 115 112 113 114 113 113 116 111 112 115 118 113 118 115 111 113 113 109 112 111 109 82 17 12 62 84 86 
136 132 126 126 127 129 126 125 125 126 124 124 124 126 128 124 126 126 121 124 124 121 124 123 121 126 121 119 119 121 123 120 121 122 120 120 120 119 121 122 123 123 122 122 121 119 118 118 118 117 117 114 114 111 111 115 113 112 114 112 112 115 114 113 115 116 117 106 112 112 110 110 109 108 78 8 9 56 80 88 
132 132 128 133 127 127 126 126 126 123 127 126 125 126 122 123 125 124 123 122 124 121 126 124 122 123 121 117 121 117 119 118 120 121 118 119 120 121 119 122 120 123 123 122 119 121 119 118 116 116 116 115 111 112 109 111 110 112 112 111 114 111 112 110 112 115 110 110 110 110 111 111 109 103 75 11 12 55 78 89 
132 131 127 129 127 127 126 125 125 124 123 126 127 126 123 122 124 127 123 124 123 125 125 123 120 126 117 116 117 121 119 118 118 116 121 117 117 119 122 122 118 121 122 120 119 118 120 117 115 113 109 114 114 112 110 115 112 110 112 110 113 109 112 115 110 113 115 107 111 109 110 110 108 106 71 6 17 60 76 85 
135 131 128 128 127 124 126 126 125 125 126 125 126 124 126 124 125 125 122 123 123 123 125 126 124 123 121 117 119 117 119 118 118 116 116 118 120 121 118 121 120 120 118 120 117 117 116 115 115 114 114 111 115 112 110 115 113 112 112 110 110 109 108 110 110 113 112 107 108 110 106 104 104 101 69 4 10 54 78 83 
137 133 126 127 128 123 127 128 125 124 128 126 124 125 123 130 124 122 124 123 122 125 123 125 121 123 119 120 117 116 117 119 121 119 117 118 117 118 117 120 121 118 119 120 117 113 115 117 115 113 114 112 111 114 111 112 108 110 111 107 109 109 109 108 111 111 110 107 110 106 106 106 101 96 61 5 10 51 76 82 
132 128 124 128 129 122 131 129 125 126 125 125 123 120 124 122 126 122 121 121 123 122 122 122 120 122 121 119 119 117 118 117 121 117 118 118 119 117 120 117 118 118 122 121 116 112 112 116 111 115 112 112 114 112 111 108 108 114 108 110 109 109 110 109 109 108 108 106 110 107 105 104 98 100 51 0 4 47 79 81 
134 131 127 125 131 125 132 129 125 124 124 123 125 119 122 125 122 123 121 123 125 120 123 126 120 122 119 118 116 119 118 117 114 116 122 117 117 116 116 117 119 116 122 117 113 109 110 111 113 111 112 110 111 116 109 108 106 110 111 107 108 106 105 108 108 110 106 106 106 106 105 104 102 101 56 4 7 49 76 87 
138 128 129 129 130 129 127 125 124 123 125 122 123 118 119 120 123 121 125 122 119 121 121 124 122 120 119 119 118 117 118 117 116 117 118 116 117 116 118 117 122 116 119 117 114 110 111 113 112 112 116 109 112 111 112 108 108 110 112 107 107 106 107 105 109 111 106 108 110 104 108 102 99 91 76 31 31 64 78 84 
135 130 127 127 130 131 125 127 127 122 124 124 124 123 120 120 118 120 123 118 117 118 118 122 121 123 121 122 119 118 116 115 117 116 117 115 115 117 117 117 113 115 116 114 111 110 115 112 112 111 115 110 113 113 112 110 113 110 110 106 106 106 106 103 107 109 108 107 106 106 104 107 101 103 94 69 69 84 84 86 
135 129 127 128 129 125 126 126 125 124 128 125 125 124 123 121 121 116 121 120 121 117 119 120 122 123 123 118 118 115 115 117 114 116 118 115 116 115 113 116 115 113 115 107 111 110 111 112 109 111 118 110 112 113 111 109 107 104 108 107 108 107 107 106 107 108 107 103 105 104 106 102 99 103 93 89 91 95 83 94 
133 129 127 125 125 122 125 126 121 124 128 124 123 123 122 121 120 118 121 119 120 119 118 123 119 120 121 116 115 115 117 113 112 114 114 115 115 115 113 115 113 111 109 110 107 109 110 109 109 110 110 110 110 108 110 104 104 107 108 106 104 104 104 105 107 108 104 105 101 106 106 104 102 96 99 87 90 100 96 95 
128 131 128 128 126 121 124 125 122 123 126 121 130 121 121 120 120 120 120 121 120 120 119 118 120 118 116 115 116 114 116 112 114 115 116 115 115 117 117 116 114 108 109 109 110 109 109 110 110 109 109 110 107 107 105 107 106 106 104 105 108 104 105 103 103 103 106 103 103 106 101 102 100 100 97 91 91 97 95 100 
133 127 125 127 121 124 121 124 124 125 124 127 124 125 121 118 118 120 119 121 120 122 121 118 117 117 119 118 116 115 112 115 117 118 117 116 117 122 117 115 110 112 107 109 109 108 107 111 111 112 113 109 108 108 106 104 104 105 104 104 105 103 105 107 103 108 106 102 102 105 100 101 98 101 93 88 97 105 97 97 
135 129 123 128 123 124 124 125 124 123 123 125 125 122 120 118 119 120 117 119 122 120 120 120 119 119 114 117 117 114 115 112 116 117 117 118 119 116 114 115 112 107 111 108 105 105 106 113 113 112 108 109 107 107 108 106 104 104 105 106 102 102 106 102 106 102 104 98 97 100 98 101 100 96 94 92 93 97 95 95 
136 127 126 124 122 121 122 123 123 124 122 123 119 121 116 115 119 119 120 120 120 119 120 116 119 118 116 119 115 113 114 113 118 116 119 119 121 113 118 112 111 109 109 108 107 109 107 112 112 112 108 107 106 106 107 105 107 105 105 102 102 103 105 106 104 104 104 101 100 103 103 98 98 94 101 92 95 101 99 98 


