P2
80 60
39
25 25 23 20 22 26 28 22 26 31 24 25 31 29 24 27 25 24 27 28 26 27 27 22 29 27 27 31 32 28 30 33 35 33 31 32 34 28 26 27 28 29 32 28 26 28 29 27 32 31 25 28 26 30 25 26 29 32 32 26 23 23 26 27 20 17 19 18 20 15 17 17 17 14 20 16 17 13 15 16 
25 25 29 24 22 25 24 27 25 27 26 26 25 28 28 25 29 27 24 28 25 28 29 26 26 29 27 28 32 29 30 31 35 33 31 31 29 31 28 29 27 29 31 30 28 28 27 31 28 27 27 25 26 27 27 31 30 29 31 27 22 23 24 24 22 19 21 16 22 23 16 18 16 20 18 17 13 17 17 15 
25 26 26 21 23 27 27 24 28 30 26 27 25 21 27 30 28 29 25 27 32 30 28 25 25 30 29 28 33 31 34 33 31 35 35 31 31 28 27 26 28 26 26 26 27 27 27 27 30 29 26 24 26 28 30 28 30 29 23 27 23 25 22 24 21 22 19 15 17 21 17 18 19 16 18 18 14 15 15 18 
26 20 28 24 26 30 28 22 27 29 30 25 28 23 28 28 29 28 29 28 24 28 26 27 25 27 30 29 31 32 27 31 34 31 33 28 27 33 29 29 26 27 28 26 24 28 28 28 32 26 29 26 25 27 25 26 28 24 22 23 23 24 20 25 18 21 15 21 18 19 21 19 16 18 16 21 16 18 18 14 
29 23 26 26 25 26 26 27 27 27 25 26 28 27 26 30 30 29 25 29 28 31 29 26 29 29 33 34 30 29 27 30 31 32 30 27 26 32 31 29 28 26 27 29 29 30 30 32 29 31 27 26 25 24 23 26 24 25 26 24 22 25 24 27 23 19 17 20 23 20 20 18 15 15 19 18 15 18 15 18 
27 24 26 25 27 26 27 26 27 29 24 24 26 27 28 28 29 28 28 28 31 30 32 29 29 30 31 34 30 27 27 28 29 29 30 29 34 32 32 28 26 28 30 29 28 26 32 31 31 26 27 26 27 26 26 27 24 29 24 26 28 25 23 24 21 18 16 23 24 19 20 17 18 15 15 16 18 17 13 15 
25 25 28 25 29 25 29 28 29 29 24 28 24 27 26 28 30 34 28 30 29 29 32 27 29 27 31 29 26 28 30 30 31 30 30 30 29 29 28 27 29 26 25 25 26 29 26 29 31 26 26 31 27 28 24 24 27 29 28 26 26 26 23 24 22 21 20 20 22 20 16 16 15 17 16 18 14 15 15 11 
30 29 30 26 27 29 29 26 25 27 26 28 27 29 29 29 29 32 31 30 34 27 29 28 30 30 32 31 28 31 28 30 28 30 32 32 30 29 29 28 28 25 20 26 24 26 29 28 27 26 27 28 31 25 25 25 25 27 27 25 27 26 27 25 22 23 21 20 22 19 14 15 16 16 18 17 17 18 14 14 
32 29 32 26 26 28 30 25 25 30 26 28 31 25 27 27 33 31 29 35 30 27 29 28 29 28 28 29 30 30 29 30 29 31 31 27 29 30 27 28 26 24 25 25 26 24 25 27 31 26 27 28 25 26 25 26 25 27 26 27 25 22 27 22 20 20 22 20 20 20 15 16 16 14 16 16 14 15 11 13 
34 32 31 24 25 29 31 29 28 26 27 26 29 25 27 28 35 28 29 28 30 30 31 26 29 29 31 29 28 31 27 27 30 29 32 28 30 26 28 28 26 24 24 24 24 23 24 27 29 25 28 29 22 25 25 26 27 24 23 23 22 24 25 23 17 22 21 20 22 16 15 19 17 16 18 15 13 13 11 12 
27 30 30 27 28 32 31 26 27 25 29 24 27 24 28 28 28 27 27 29 27 25 29 26 26 25 28 29 32 26 27 29 27 29 31 29 29 28 26 26 21 20 22 23 22 26 24 25 26 24 26 28 25 22 24 24 25 22 22 23 20 22 21 21 20 20 19 20 18 18 17 16 14 15 15 17 14 13 14 13 
30 27 31 31 28 32 31 27 27 28 26 24 24 24 28 28 27 30 24 25 29 26 23 29 29 26 29 32 31 28 26 30 31 30 30 28 28 28 27 24 25 22 21 23 24 26 24 25 26 24 24 24 22 24 25 25 25 22 22 24 23 25 22 25 19 21 20 16 18 14 12 13 14 15 17 19 14 13 12 12 
34 31 31 32 27 31 29 31 24 27 26 26 27 26 29 28 32 28 25 28 30 29 27 24 25 29 35 32 27 30 27 28 33 31 26 26 27 27 31 25 24 22 23 22 25 23 26 25 28 24 29 24 22 25 24 23 26 26 24 22 25 27 25 22 21 18 20 18 18 18 5 12 13 15 22 18 13 14 12 17 
31 29 30 29 25 31 29 25 24 27 23 29 26 24 27 29 29 24 24 24 28 26 26 25 25 30 31 34 31 29 28 28 31 35 31 26 25 30 26 22 22 22 24 24 23 25 26 26 24 29 25 25 22 24 23 25 27 24 27 23 24 24 20 20 17 19 19 20 17 14 15 13 14 14 13 19 14 15 15 15 
32 32 32 29 24 27 26 26 26 26 24 23 26 25 22 27 25 25 24 27 23 25 24 25 27 25 30 30 29 33 27 30 31 34 30 27 30 25 26 27 22 24 23 23 24 24 25 23 27 26 22 24 21 24 24 25 29 39 27 25 22 24 21 23 16 20 20 19 20 19 19 16 16 13 9 15 18 15 19 14 
31 33 34 28 25 28 28 26 28 25 23 26 24 24 27 29 27 22 26 26 26 26 26 24 27 27 28 29 33 26 27 25 30 28 29 27 27 27 30 26 26 22 22 24 22 26 24 23 24 25 24 23 21 28 25 25 25 28 27 26 19 20 24 20 21 25 17 20 21 19 19 18 16 16 16 12 14 16 11 13 
31 32 32 29 28 30 27 24 27 23 25 22 26 22 26 28 25 24 23 25 24 25 24 23 26 23 26 27 31 30 27 31 35 32 25 26 22 25 24 25 26 22 21 19 22 26 21 24 24 22 25 23 21 21 26 26 26 28 25 21 24 22 21 24 20 20 19 24 19 19 20 19 18 18 13 15 14 16 13 12 
28 27 30 24 28 24 28 25 28 26 25 22 24 20 27 27 25 28 25 25 29 26 27 27 25 23 26 30 30 28 24 31 32 29 25 26 25 25 26 25 21 21 21 23 23 23 24 24 24 22 21 23 25 23 27 24 27 32 26 21 27 25 21 19 21 18 17 19 22 19 15 18 19 16 19 13 14 19 15 12 
32 33 30 29 28 28 27 25 29 26 27 26 23 25 27 28 27 27 25 26 26 31 30 26 28 28 28 30 33 30 25 28 32 32 31 27 28 27 25 27 23 23 23 23 23 24 24 23 25 23 21 25 24 23 25 25 24 27 24 20 23 24 23 23 22 20 18 20 23 14 13 17 19 15 19 11 14 13 12 14 
30 28 29 29 26 32 25 22 25 27 24 27 24 22 26 23 25 24 27 26 29 31 29 26 26 34 28 30 31 29 27 29 31 30 28 24 28 32 25 26 26 23 20 19 19 22 21 24 25 23 25 24 23 23 22 24 23 23 22 23 21 25 24 21 19 20 18 24 22 20 16 17 19 14 13 14 11 12 12 13 
29 28 30 24 26 26 25 24 24 24 25 26 26 26 26 24 25 27 23 26 26 29 27 25 26 30 31 29 27 26 35 30 30 28 27 25 28 25 21 23 25 24 24 22 19 22 22 22 21 22 23 23 22 23 22 19 25 22 21 21 20 26 23 23 20 20 20 21 21 18 20 17 15 17 16 13 10 15 14 15 
30 31 33 28 25 26 28 22 24 23 27 25 31 24 26 27 24 27 23 27 25 27 28 24 26 27 28 29 27 27 28 28 28 30 25 26 25 24 24 23 26 25 18 20 20 22 21 19 23 22 23 21 20 24 23 21 23 25 25 22 19 22 19 24 21 21 21 21 17 23 17 16 16 17 16 12 7 16 15 11 
29 26 31 28 28 27 26 25 25 26 23 25 25 25 26 25 26 27 26 26 24 24 26 25 26 24 29 28 25 27 26 28 30 27 25 23 25 22 22 23 21 20 20 21 17 20 23 21 22 25 23 22 22 22 22 20 22 22 22 22 20 21 21 22 23 21 19 21 19 21 18 20 17 15 14 13 7 11 14 13 
28 25 32 27 26 25 30 30 23 23 26 27 25 26 24 26 26 27 23 26 25 26 24 25 26 25 26 30 27 26 21 26 28 24 24 24 24 24 20 21 21 20 19 23 18 20 21 19 22 27 23 19 21 20 23 21 22 17 19 20 20 21 22 26 20 20 21 24 18 19 18 16 16 16 15 12 9 16 12 17 
30 33 31 26 26 29 28 27 28 32 24 26 27 25 24 24 27 26 25 23 28 26 25 24 29 26 26 27 30 25 23 22 28 26 26 24 22 22 20 20 20 16 21 19 21 23 23 26 27 24 21 20 20 22 20 19 22 21 22 21 22 23 19 23 21 21 21 20 20 18 13 12 17 16 16 14 9 13 19 15 
28 31 31 23 26 25 27 26 24 30 26 24 23 21 26 26 26 27 22 24 27 28 26 26 26 27 27 27 28 26 24 25 28 25 24 22 22 22 19 20 20 20 20 20 20 24 20 27 26 18 22 18 21 21 21 19 20 19 21 21 21 23 22 21 18 17 21 19 19 18 16 18 20 19 16 13 15 20 14 16 
30 27 29 24 24 25 28 27 26 24 24 24 23 23 24 26 24 28 24 27 28 27 29 28 24 26 25 26 25 24 23 21 27 25 25 22 23 20 21 21 21 18 17 17 19 22 18 19 21 18 21 21 17 18 21 20 20 18 19 21 22 23 21 19 21 19 19 17 22 18 17 18 15 20 15 14 15 16 15 15 
28 24 28 27 24 27 25 24 24 27 25 26 25 25 25 22 25 28 25 26 24 26 25 24 25 24 27 29 26 26 27 28 24 24 23 22 23 21 21 20 20 20 22 19 19 21 20 18 23 21 21 21 20 21 21 21 21 20 17 20 20 20 21 20 20 17 20 18 14 13 18 17 21 18 14 14 13 14 14 12 
26 27 29 23 24 27 24 25 27 29 26 24 26 24 25 26 24 22 24 27 25 26 25 22 24 26 29 27 29 28 27 26 28 21 21 22 21 19 19 18 19 17 20 18 18 21 22 22 20 21 19 21 18 16 20 20 22 17 17 19 20 20 18 22 20 17 21 16 14 14 16 15 14 15 17 13 14 12 14 8 
29 30 31 26 23 27 26 24 27 27 23 25 25 24 24 23 27 24 23 23 23 24 26 26 25 27 26 24 26 29 25 26 26 23 20 25 23 23 19 19 21 18 21 21 20 21 20 22 21 20 18 20 19 19 20 19 19 18 16 17 21 22 24 20 21 19 26 21 16 16 16 12 12 16 15 14 14 13 11 9 
27 28 30 22 23 25 24 23 24 25 24 26 25 25 24 24 26 25 24 26 24 22 26 24 25 24 28 25 24 26 24 23 23 25 26 23 23 20 20 19 21 18 21 20 19 18 17 22 23 21 21 20 19 19 20 18 21 17 16 17 21 20 20 22 20 22 18 19 19 19 18 17 14 15 15 12 12 11 11 12 
25 29 27 24 22 22 25 18 24 25 26 25 27 21 28 27 27 23 23 23 21 24 27 23 25 27 30 25 24 23 23 24 24 23 24 20 23 19 18 20 23 18 23 22 19 20 18 22 21 25 20 18 21 21 19 19 18 17 16 15 17 17 21 22 20 20 17 16 15 18 15 12 17 13 10 8 11 13 12 10 
30 27 27 29 26 26 24 24 26 26 26 22 26 21 23 26 25 24 23 25 24 23 21 24 25 26 29 24 27 25 25 25 23 21 23 22 20 18 18 21 20 18 20 17 21 20 19 20 20 20 16 19 20 17 18 20 21 17 19 16 16 19 20 21 18 21 20 21 19 17 15 14 13 13 13 13 13 11 10 7 
31 29 30 26 25 27 25 25 25 26 25 25 23 21 23 23 24 23 22 23 24 23 22 26 26 25 24 26 26 29 24 22 25 23 21 19 19 21 16 17 21 18 20 17 20 22 19 20 20 20 20 19 17 17 18 18 19 19 17 15 18 22 20 20 19 19 20 19 16 17 13 13 14 15 14 11 14 14 17 7 
25 30 30 26 23 23 24 22 23 25 23 23 25 25 25 22 27 25 22 26 24 21 24 22 27 25 25 27 28 27 24 26 27 24 22 19 20 19 17 16 17 19 19 21 19 21 22 21 19 18 20 21 21 19 18 18 20 20 18 18 16 21 19 18 19 18 18 19 22 17 15 14 16 13 16 13 12 11 10 9 
27 28 26 26 26 24 23 23 22 27 24 24 24 24 25 22 24 26 24 22 25 26 23 26 24 25 25 25 27 26 23 23 27 25 23 21 22 19 17 19 18 19 17 16 17 19 21 23 21 18 18 19 21 16 21 20 18 20 19 18 18 17 21 20 19 16 17 20 13 15 14 13 13 14 17 12 11 15 12 11 
28 25 32 26 23 26 26 23 23 26 23 23 26 21 23 25 26 29 25 25 24 24 24 24 23 22 23 23 23 23 23 25 24 26 23 22 20 22 19 19 19 18 19 21 18 19 19 20 22 21 15 19 20 20 19 19 19 21 21 16 20 20 19 19 18 20 19 13 15 16 16 13 14 15 14 14 12 12 10 14 
29 33 31 26 24 25 24 24 26 24 20 25 30 23 23 25 24 29 28 26 24 25 23 25 24 22 21 23 26 25 27 27 26 25 21 22 21 21 20 18 17 19 20 19 16 19 20 18 23 20 18 21 19 21 22 21 19 18 17 21 16 21 20 17 18 22 18 16 16 16 15 12 13 12 11 11 9 14 11 12 
29 31 35 25 27 27 26 26 25 24 24 24 23 20 24 28 24 29 25 26 27 25 26 25 25 23 24 21 21 23 24 26 25 26 22 22 18 22 20 19 18 19 19 16 17 18 21 20 22 22 19 20 21 19 21 19 20 18 16 17 18 17 17 18 16 18 17 19 19 18 15 15 11 13 13 10 12 14 13 13 
27 28 27 27 24 26 25 27 29 28 24 26 26 22 24 25 24 24 22 25 26 27 22 26 24 23 26 27 20 24 24 23 27 24 23 22 20 20 21 17 20 17 21 18 19 21 21 22 23 22 21 21 24 23 25 18 17 16 15 17 16 20 21 17 16 15 16 15 15 12 11 15 16 14 13 12 15 14 12 15 
29 27 28 26 24 26 22 23 26 29 25 25 27 25 23 25 23 23 23 23 24 26 24 24 27 24 33 26 24 25 23 23 26 27 23 23 19 22 20 16 18 14 19 17 15 17 23 21 22 20 23 26 26 27 19 19 16 14 15 16 15 22 15 15 17 16 13 14 13 15 14 14 7 17 15 11 11 18 18 19 
27 24 27 24 24 24 24 23 25 25 23 23 24 23 24 25 22 23 22 26 25 24 23 22 29 24 24 25 25 23 22 21 26 28 22 22 27 19 17 18 18 13 16 16 16 20 20 21 22 23 23 22 22 22 20 20 16 20 17 15 19 19 18 15 18 18 17 14 12 12 10 12 14 12 10 13 10 12 12 18 
28 28 28 23 23 21 24 24 21 21 23 24 24 24 24 23 23 21 24 24 25 24 24 22 28 24 26 25 23 21 23 24 24 25 24 23 23 18 20 21 19 17 13 17 19 19 23 23 21 23 20 20 20 20 21 16 20 18 16 16 16 18 18 21 19 17 16 15 12 11 10 8 10 9 13 11 11 11 11 11 
28 26 27 24 21 26 25 26 21 25 24 26 25 25 22 23 24 25 22 29 24 23 26 24 24 23 24 20 23 25 25 24 24 24 24 20 21 18 18 16 18 19 16 18 16 22 22 28 23 21 21 18 16 22 18 17 18 19 16 16 16 19 16 15 15 16 18 15 13 15 15 13 12 12 11 12 9 11 12 12 
27 26 26 24 19 23 25 25 28 21 23 25 24 24 24 24 26 25 25 25 27 26 26 25 28 22 22 23 24 21 25 22 26 22 20 18 21 19 16 16 19 15 18 18 20 20 23 21 24 22 19 17 16 21 15 15 16 17 12 15 16 19 17 17 17 20 17 14 15 16 10 11 10 9 14 14 10 12 14 13 
29 26 25 24 21 26 26 19 23 24 22 24 24 24 24 25 29 27 21 24 25 25 25 24 28 24 24 20 22 24 25 24 26 25 22 19 16 17 15 21 18 16 15 19 17 22 21 20 21 19 20 18 15 18 17 17 15 17 17 17 20 22 15 18 17 20 17 13 18 10 12 10 13 13 13 12 9 10 11 13 
28 25 23 21 23 24 25 23 18 23 26 25 21 21 22 25 27 24 25 21 24 26 24 21 24 22 23 19 21 22 24 23 24 22 20 18 16 19 14 15 14 14 17 17 19 23 20 22 19 17 17 18 18 15 18 15 15 16 13 17 17 23 20 23 15 14 15 19 15 15 13 10 12 12 10 8 7 9 10 4 
26 24 22 21 21 22 23 24 21 22 24 22 25 23 23 25 26 25 25 24 26 26 25 24 22 24 21 20 21 26 21 21 23 23 21 17 18 19 17 18 16 18 16 14 16 20 22 14 20 19 15 19 18 15 13 13 17 17 14 17 14 23 15 16 12 12 15 18 14 12 12 14 9 8 9 6 6 5 5 9 
26 24 26 18 18 22 22 22 23 22 20 22 23 24 23 27 28 23 23 23 25 26 30 25 21 23 23 21 24 23 21 23 23 24 18 16 19 20 14 18 16 13 15 15 14 16 18 19 19 19 17 17 16 16 15 16 19 16 16 16 14 21 16 16 14 14 15 18 14 10 10 14 11 9 9 7 9 11 8 11 
27 24 24 19 23 25 18 22 20 25 19 19 24 21 23 28 25 26 23 25 22 23 23 22 23 22 22 22 20 23 19 19 21 23 21 17 17 17 17 14 17 13 14 12 14 17 12 13 18 17 16 13 15 18 16 16 15 17 15 14 14 18 15 18 14 15 14 12 15 12 8 13 10 8 5 7 7 7 8 5 
26 23 24 22 22 26 27 21 21 23 23 25 20 24 23 26 23 26 26 25 19 23 22 18 22 21 22 21 21 21 19 20 23 23 21 16 18 17 18 18 14 14 17 16 17 16 15 14 16 13 17 13 15 17 18 17 15 17 17 14 17 17 14 16 16 16 14 15 15 14 11 10 8 9 7 8 7 7 9 5 
27 27 24 23 23 29 26 22 22 24 24 25 24 18 22 25 23 23 25 28 26 22 23 22 20 21 20 21 23 25 22 24 24 24 22 20 19 15 14 12 13 16 14 17 13 16 15 15 16 16 16 11 17 21 15 17 15 18 14 18 18 19 18 16 13 14 14 19 13 12 9 9 11 7 8 12 7 10 7 6 
25 24 22 24 22 25 24 19 20 24 16 20 23 20 17 19 21 22 21 24 20 23 23 22 24 23 24 21 24 21 20 21 26 22 22 19 17 14 14 12 13 13 15 15 15 15 15 17 17 13 17 12 13 13 18 15 18 18 19 15 13 19 15 14 15 14 16 12 14 10 10 10 8 7 12 9 6 3 4 9 
22 19 23 23 27 27 22 16 22 25 22 20 24 21 22 22 20 18 21 20 19 23 21 23 23 23 26 25 24 21 18 20 20 23 19 18 16 16 13 10 12 11 11 12 15 12 16 15 14 17 13 16 15 16 16 16 21 16 16 12 13 18 16 14 13 12 10 10 12 9 12 11 11 9 5 6 4 7 8 0 
24 19 23 21 21 20 26 24 22 24 21 25 23 17 21 23 23 24 22 20 22 19 19 20 20 21 24 22 22 17 22 23 21 21 18 14 14 16 12 9 12 12 12 10 13 13 14 17 15 13 17 14 13 14 18 14 17 16 15 15 13 15 16 15 9 12 15 11 9 11 13 10 7 7 6 5 5 6 1 6 
25 21 21 21 17 21 23 19 22 23 22 23 24 22 22 22 20 20 25 21 20 20 18 21 21 18 19 22 21 15 23 19 22 21 17 12 14 14 13 12 14 13 13 13 11 14 12 17 17 16 16 15 14 14 14 16 15 13 12 13 13 14 13 17 12 11 9 9 8 7 14 11 9 10 9 5 4 2 8 4 
22 22 24 16 20 21 20 19 24 22 23 24 30 22 25 22 22 23 18 26 20 19 18 19 16 19 21 19 18 19 19 24 23 19 19 14 14 14 12 13 12 12 12 13 13 13 17 15 17 19 16 15 12 13 16 16 14 12 14 11 11 13 15 12 10 10 9 11 5 9 10 6 5 8 9 8 3 7 3 3 
21 18 18 15 17 18 21 20 24 22 21 24 28 23 21 22 21 24 21 23 22 19 20 16 17 18 20 18 22 20 19 21 23 21 15 12 16 14 14 12 13 13 13 11 13 14 16 19 16 18 13 13 12 13 16 14 14 11 10 13 14 12 15 14 8 10 9 7 9 9 8 9 8 6 8 8 6 5 2 4 
21 21 22 21 18 22 21 20 21 33 21 23 22 19 21 21 22 21 24 22 19 20 23 18 18 16 15 21 25 21 19 22 21 21 20 18 16 15 17 13 13 14 20 13 12 15 16 15 17 15 16 18 15 15 16 15 14 16 14 18 13 18 17 15 12 12 9 9 6 8 7 7 7 8 7 8 6 3 5 6 
23 21 20 15 17 19 21 16 19 23 21 18 21 20 21 20 21 21 16 23 19 21 20 19 20 18 21 21 22 20 18 18 18 19 20 18 18 15 13 14 12 15 16 15 11 15 14 18 15 14 17 16 13 17 12 10 12 14 15 14 14 16 16 16 9 9 9 11 6 7 7 5 5 8 3 3 5 1 7 4 


