P2
80 60
311
161 159 163 158 157 153 157 154 152 152 150 153 147 138 117 56 37 61 97 112 109 114 125 122 124 124 122 127 130 124 128 129 129 126 129 130 128 126 117 114 113 132 133 131 130 136 146 140 146 143 142 140 144 140 144 142 147 141 142 147 145 141 140 141 140 134 134 129 131 128 126 134 143 139 149 145 138 143 144 146 
161 161 161 161 154 152 153 151 154 154 150 147 147 135 109 45 34 53 95 104 109 111 119 123 124 125 127 126 131 125 128 127 128 128 128 126 128 127 116 112 112 130 132 132 130 137 138 143 143 140 140 140 143 138 145 145 148 144 148 142 145 139 135 139 141 131 130 129 130 128 130 140 141 139 143 142 140 142 147 143 
169 157 159 152 149 152 155 147 151 153 150 148 148 137 106 42 28 47 86 103 106 113 123 124 129 128 127 129 129 127 132 130 126 129 129 129 125 123 119 114 117 131 128 129 130 132 142 146 145 138 139 141 142 138 141 145 142 142 147 139 141 140 136 143 141 132 133 134 134 133 129 132 143 141 141 139 144 141 146 143 
161 158 157 153 149 153 155 152 151 155 152 149 146 137 100 45 27 50 84 103 105 118 124 125 129 132 127 130 130 127 134 133 135 126 129 127 127 130 125 115 115 133 134 130 132 134 145 144 150 143 143 140 144 143 144 145 141 143 148 144 143 142 141 145 140 133 134 134 136 132 130 140 143 142 139 139 142 147 145 151 
164 156 155 152 147 154 154 153 155 152 148 149 144 137 101 39 30 50 80 99 100 117 126 129 130 130 128 129 130 126 127 129 136 127 125 130 126 132 122 121 114 133 133 131 130 140 144 147 146 146 144 142 143 140 142 143 144 141 147 144 145 144 143 144 140 139 135 137 135 139 134 140 145 139 142 140 142 145 152 142 
159 159 158 151 148 153 155 150 157 151 152 148 140 135 101 42 33 60 72 97 109 122 126 125 127 128 129 130 128 127 127 125 126 125 126 127 128 128 121 112 119 132 132 131 131 143 147 146 146 144 142 144 145 140 142 147 143 146 148 148 149 137 139 143 141 139 133 138 137 135 137 140 142 145 144 141 146 146 147 147 
165 157 157 152 144 154 151 153 156 151 149 147 142 139 104 41 38 60 81 96 106 119 125 126 123 130 127 127 126 126 128 124 127 125 128 127 130 126 124 115 120 131 131 130 129 140 149 146 145 142 145 144 144 141 146 146 146 150 150 146 143 137 139 140 139 138 134 133 136 138 133 140 141 142 145 147 147 144 143 142 
161 159 157 150 141 155 156 154 151 152 151 148 140 130 98 39 37 61 84 98 105 120 122 119 123 129 123 126 127 127 126 126 125 124 127 130 131 125 119 107 125 128 130 130 130 139 147 141 144 145 143 144 148 143 145 148 143 148 147 147 145 142 139 144 138 137 137 139 140 130 132 138 141 139 142 145 146 139 142 142 
165 161 155 153 142 147 154 154 155 153 148 144 137 132 94 29 30 60 78 92 101 109 112 116 122 123 122 123 129 124 127 122 126 127 126 127 128 128 118 106 115 126 128 130 129 138 138 144 143 141 143 141 145 143 142 145 142 143 145 147 138 141 141 144 142 133 137 135 135 138 129 135 137 138 138 138 140 140 138 143 
162 157 158 148 142 151 159 152 158 150 146 144 135 131 89 25 17 44 65 78 96 109 109 112 116 119 117 123 123 122 123 123 122 124 124 126 129 127 114 104 119 129 128 125 128 138 142 139 145 143 141 139 144 141 140 142 143 138 142 143 140 139 141 139 138 131 136 136 137 131 126 137 143 139 139 140 141 141 141 141 
164 154 154 148 142 148 160 151 151 149 146 142 134 128 89 17 6 32 50 68 90 106 103 108 111 112 116 120 121 118 123 122 123 124 122 126 125 124 116 109 115 127 124 124 127 135 139 139 142 141 138 141 141 140 143 144 142 142 142 140 142 139 140 142 139 132 133 140 132 130 127 136 137 144 140 145 146 142 141 139 
159 155 157 149 142 149 157 151 150 148 148 146 137 123 85 15 4 27 41 58 90 104 100 106 107 113 111 119 122 121 124 123 124 124 121 123 127 124 114 110 113 126 128 126 128 133 142 140 143 144 142 142 143 140 142 141 142 141 143 140 142 141 139 140 139 136 135 137 133 132 132 135 140 142 142 144 145 140 144 146 
160 153 155 154 137 144 155 144 152 149 148 140 137 124 82 17 6 13 34 54 84 97 95 103 106 108 110 116 120 120 124 120 123 121 125 123 124 123 111 107 114 130 127 126 130 135 142 140 139 139 142 142 140 136 138 143 143 143 141 142 142 139 144 140 138 138 134 137 132 131 118 137 137 136 138 139 143 141 141 140 
156 159 159 148 142 147 152 147 152 149 151 149 139 128 83 16 4 19 43 58 79 87 94 98 110 115 114 112 112 115 123 122 122 123 124 123 122 122 111 106 116 128 127 126 127 142 144 143 145 146 140 142 140 139 139 144 144 146 145 144 143 140 138 140 141 136 135 141 133 132 133 132 147 141 144 145 140 143 134 142 
155 155 155 153 139 143 150 149 151 148 147 142 139 131 83 15 3 16 46 67 79 80 84 97 113 126 125 118 119 115 118 118 120 124 122 123 122 120 110 101 118 126 125 122 125 138 140 143 144 146 140 140 139 138 140 146 148 156 145 150 145 138 141 141 140 138 136 137 130 133 130 138 144 143 142 144 142 141 138 141 
156 155 153 147 137 134 146 151 158 148 144 143 136 130 86 22 3 15 39 55 73 80 81 92 120 122 124 116 113 113 115 121 120 121 122 123 122 120 109 99 119 130 125 119 125 135 140 139 140 142 140 137 143 140 141 145 146 144 147 149 143 137 139 135 138 138 136 135 136 134 130 136 141 139 138 140 140 143 141 141 
158 154 151 145 129 126 146 148 153 150 147 146 137 128 89 18 7 22 31 54 75 74 81 89 111 116 120 111 109 113 117 117 118 122 123 120 123 122 112 106 116 129 126 124 122 134 138 142 140 140 139 142 146 139 145 145 148 146 143 146 143 140 140 141 138 134 135 137 137 139 131 139 144 139 144 137 139 145 146 141 
154 152 151 146 126 121 145 147 151 150 150 148 140 125 89 22 4 10 28 52 70 79 81 93 111 122 116 109 109 111 109 117 119 119 120 122 120 123 111 108 115 127 126 123 124 134 137 141 139 140 140 140 140 140 145 145 145 150 145 141 143 140 138 136 138 139 138 137 132 136 128 137 139 138 141 136 140 142 139 140 
157 151 149 139 119 122 140 146 148 148 146 147 143 120 90 18 4 15 36 49 75 86 91 108 111 118 118 115 110 109 114 114 121 119 122 121 121 121 115 105 118 129 126 126 125 132 135 138 143 140 140 141 146 144 143 145 144 143 145 142 137 138 138 141 141 138 137 135 135 135 130 136 141 141 139 136 141 141 141 142 
154 150 146 124 110 117 132 139 148 145 149 146 141 122 85 17 4 15 29 51 85 99 101 102 106 115 117 116 117 118 112 113 117 116 119 118 118 124 112 105 117 130 126 121 126 132 135 140 140 144 139 143 145 141 142 143 141 141 144 139 142 139 138 139 139 133 135 134 136 135 131 136 139 136 139 140 138 140 138 141 
155 149 140 123 115 115 127 134 143 147 146 148 142 123 85 14 1 12 28 48 85 95 96 101 103 104 109 117 116 118 120 111 114 116 117 121 119 119 113 100 121 130 124 124 121 128 136 138 141 143 142 142 145 141 146 141 144 139 145 142 143 136 137 140 138 134 134 137 137 135 133 138 137 136 140 142 140 141 143 148 
153 146 148 132 117 119 132 140 142 146 145 149 149 124 86 19 0 12 25 51 85 91 93 96 104 106 107 115 117 120 120 114 116 115 116 118 119 118 111 103 118 127 125 120 120 133 137 140 140 141 144 141 142 144 141 140 141 139 144 143 143 140 137 140 140 136 138 135 137 137 132 139 141 139 141 140 140 144 146 146 
153 147 142 137 122 119 132 137 141 148 142 148 143 114 88 20 6 11 30 54 81 92 92 93 97 102 109 114 117 121 112 114 112 113 115 117 118 117 105 106 113 123 125 123 119 130 137 138 140 143 143 143 144 137 142 141 141 141 145 143 144 142 137 139 139 137 137 135 135 135 134 137 141 140 141 141 143 144 147 145 
150 140 142 127 121 116 132 139 145 146 143 145 140 111 87 21 8 12 28 50 87 95 89 93 98 103 104 111 118 117 111 107 109 112 114 115 114 115 103 102 103 123 122 124 122 128 136 139 143 144 143 141 145 139 142 143 142 145 144 141 141 143 140 142 141 134 138 138 139 135 131 138 138 138 139 142 142 143 147 143 
148 137 139 130 120 120 131 132 141 144 145 143 142 114 86 21 16 16 29 55 91 94 93 93 98 102 108 108 113 116 114 105 107 110 112 114 114 115 106 103 112 124 122 121 121 132 136 141 139 142 139 138 142 140 143 143 143 141 144 143 143 145 139 140 141 140 138 137 137 134 135 135 139 143 142 142 141 143 148 151 
145 134 139 125 120 119 129 135 139 142 141 145 139 105 84 30 25 22 36 54 92 97 93 99 102 105 104 105 104 108 108 103 105 108 111 114 115 113 103 105 112 124 121 123 125 139 138 142 143 145 141 139 144 142 141 141 142 142 145 143 145 142 138 141 144 140 139 137 136 135 132 136 143 141 147 143 142 144 144 148 
144 132 138 114 107 115 123 133 138 139 138 143 137 105 78 35 27 28 40 55 84 101 102 99 103 104 111 105 105 100 102 104 106 109 112 113 114 115 107 99 110 127 119 122 123 132 137 140 143 146 140 140 141 137 140 145 141 140 143 141 141 144 139 138 140 137 139 137 135 134 131 136 140 145 146 144 146 145 147 148 
146 133 135 112 103 108 121 129 138 133 141 142 132 102 81 32 30 31 41 55 81 94 94 95 101 103 105 107 102 98 100 105 104 105 110 109 111 110 98 100 110 123 122 122 118 133 139 137 141 142 140 140 141 138 138 142 140 138 145 141 143 139 137 141 140 140 138 140 137 133 132 135 141 145 143 142 142 143 145 145 
150 133 133 110 101 107 126 130 136 135 135 139 134 100 81 34 31 34 42 54 71 84 88 91 96 101 98 105 101 97 97 103 104 107 105 110 108 107 105 101 111 119 119 119 118 136 135 140 139 139 139 140 142 138 144 140 145 139 144 141 138 141 137 143 139 141 135 139 135 137 134 135 141 140 145 145 143 145 147 150 
151 129 135 114 98 113 129 131 134 139 136 136 132 101 81 34 29 40 42 49 68 83 88 89 95 97 98 102 96 97 99 103 101 104 108 109 109 108 101 98 106 122 117 118 117 132 138 142 141 140 141 140 142 140 142 138 140 141 145 141 140 137 139 144 141 139 140 140 135 137 132 144 147 145 146 148 145 148 145 147 
148 124 128 117 99 115 123 127 137 134 133 142 129 99 80 35 32 43 40 46 63 77 81 87 94 96 96 98 98 95 97 99 100 105 109 108 106 110 98 95 107 117 115 118 118 133 133 136 140 141 141 141 142 142 141 143 142 141 142 143 141 138 139 144 140 137 138 139 137 137 140 146 144 145 144 146 145 147 148 148 
144 123 128 120 109 114 99 110 127 129 132 129 122 98 77 37 30 37 46 48 64 75 80 82 89 97 95 100 93 95 96 96 99 100 103 107 108 109 95 92 107 115 110 112 115 133 132 139 138 142 142 138 143 141 144 145 145 141 144 138 142 138 141 137 138 137 138 140 144 144 140 146 147 143 148 146 144 149 153 147 
148 118 121 115 84 87 84 82 88 94 105 99 96 86 80 32 27 38 45 49 66 74 80 86 90 95 96 92 90 90 95 92 95 99 102 108 104 105 93 93 103 108 104 109 113 129 132 137 139 142 139 146 143 138 142 144 140 140 143 139 141 140 139 144 142 144 145 151 144 147 148 145 147 145 146 148 152 151 149 150 
146 121 125 111 64 67 78 69 81 82 76 73 80 84 78 31 17 35 43 53 63 75 77 84 85 91 94 90 87 92 92 94 96 95 100 102 102 104 91 97 99 109 103 103 107 129 133 139 141 143 146 148 148 146 143 148 147 141 144 143 141 145 136 144 147 145 150 163 177 171 159 158 152 151 154 149 150 152 152 157 
140 120 127 112 69 61 72 69 73 78 75 72 74 79 75 28 13 28 42 47 64 71 80 80 88 87 86 84 84 87 95 97 97 99 104 109 106 108 97 94 101 108 102 101 107 128 134 139 139 144 148 157 181 179 163 151 148 148 143 144 144 149 142 145 146 143 146 166 193 196 193 193 186 175 163 163 160 156 156 158 
144 117 117 113 67 55 65 66 66 72 73 64 65 71 69 20 9 22 38 48 59 66 76 81 84 80 79 82 103 118 127 132 135 133 134 136 139 137 127 126 110 101 96 98 103 125 136 139 143 146 147 174 228 233 182 153 151 152 150 145 143 147 142 146 144 142 145 173 193 203 199 205 207 206 203 201 187 179 168 163 
142 117 117 108 68 48 59 58 59 65 67 60 61 70 57 11 11 30 45 50 61 66 71 77 75 77 74 78 125 145 143 150 145 144 149 156 149 149 145 148 121 99 94 95 101 120 133 137 142 144 148 177 253 257 189 163 162 149 154 148 147 142 140 146 142 145 140 178 197 203 203 209 217 219 216 219 219 207 198 188 
147 119 109 111 70 48 53 45 52 54 58 55 60 67 59 17 13 45 50 52 59 61 69 73 63 65 69 92 135 140 149 149 152 156 151 157 155 156 153 157 128 103 89 94 100 122 125 134 141 141 146 165 217 227 191 163 152 147 149 147 144 139 139 143 140 142 148 182 198 205 208 215 219 217 220 225 222 225 216 207 
143 118 108 112 71 40 40 40 42 42 52 52 54 58 53 22 11 41 49 55 54 62 60 61 57 62 65 116 147 145 148 151 155 156 154 157 156 159 155 155 146 105 92 90 104 117 129 135 137 139 146 169 189 204 199 173 153 142 149 148 144 142 138 145 141 138 146 188 201 205 206 220 222 224 222 227 226 224 220 216 
140 116 102 110 78 35 37 35 39 38 42 45 52 45 45 26 20 37 44 53 57 57 56 61 63 65 79 132 149 149 150 152 156 156 155 157 157 157 153 157 150 117 88 88 100 118 130 132 136 140 149 172 179 186 189 188 165 143 145 141 142 139 139 143 138 138 150 190 201 207 213 219 224 226 231 231 232 230 227 219 
137 118 95 109 83 47 33 35 39 40 42 43 41 42 38 25 36 52 45 51 61 63 58 56 62 76 102 145 153 149 152 156 158 161 158 158 160 158 155 157 154 142 94 89 102 122 126 134 135 142 158 172 178 186 179 184 180 147 143 140 139 141 141 140 144 144 160 198 210 213 218 227 224 232 230 235 235 233 227 221 
139 126 90 104 89 45 32 32 28 27 30 34 31 42 42 63 73 76 59 51 57 62 53 56 66 77 122 151 152 154 154 159 158 162 163 160 162 159 163 158 157 155 114 92 98 121 132 134 139 143 154 163 172 172 176 172 162 147 141 140 143 139 144 148 152 151 166 207 207 219 219 227 231 231 236 235 238 240 233 222 
140 123 86 102 87 50 29 28 25 28 29 28 29 36 58 74 82 85 73 52 55 56 55 58 69 94 141 149 152 160 153 155 160 156 162 163 163 161 158 160 159 154 143 96 101 118 131 135 138 146 150 158 155 152 151 149 147 141 145 142 140 146 150 152 151 159 181 212 213 218 222 225 228 231 233 238 237 237 230 225 
144 124 82 100 92 64 35 28 35 29 33 38 45 56 66 76 85 86 67 53 55 59 58 65 77 131 144 152 156 154 157 153 159 159 157 157 160 162 158 159 158 155 154 139 113 120 133 146 144 141 145 150 147 150 140 144 145 139 144 142 140 143 144 151 154 160 191 222 222 225 222 230 231 234 237 243 239 237 231 229 
135 120 78 93 91 65 49 41 42 40 35 42 51 61 61 70 80 82 69 64 71 68 68 75 114 141 149 154 151 154 160 158 158 159 160 158 161 164 163 160 155 154 155 153 142 128 139 142 143 144 141 147 143 143 141 143 143 143 145 139 143 142 140 146 152 159 204 240 239 234 233 237 232 239 243 245 246 241 236 235 
139 121 80 85 94 73 54 53 58 56 55 60 69 72 70 76 86 85 83 81 84 86 87 103 140 147 148 154 152 154 161 159 160 157 162 166 162 163 160 161 144 149 150 158 157 149 143 141 141 139 140 143 147 139 146 143 142 142 145 141 141 141 140 148 151 158 180 223 254 257 251 245 239 247 255 255 247 248 244 241 
137 129 95 79 90 86 75 86 94 90 92 98 104 99 98 101 101 102 105 103 107 112 112 126 148 152 153 150 138 150 159 162 159 163 165 161 160 162 159 158 146 146 149 157 157 155 144 142 142 142 140 144 146 140 147 143 144 144 146 143 143 140 141 141 148 148 157 167 193 241 270 265 257 260 262 260 256 254 252 244 
134 129 109 82 96 89 95 104 101 103 104 109 114 112 114 114 107 111 114 111 117 118 121 146 145 153 151 142 133 154 159 158 161 162 159 162 162 161 162 157 148 143 143 156 161 160 155 144 144 141 142 145 145 145 147 155 151 149 155 152 145 136 136 145 150 154 157 159 162 176 216 257 277 283 274 272 268 265 255 257 
132 126 106 94 102 99 100 105 105 101 106 106 108 113 110 110 109 106 110 112 117 116 129 145 151 154 151 136 140 154 159 158 158 161 161 163 161 162 159 158 151 144 141 151 161 161 153 146 143 141 144 146 147 147 149 154 156 151 160 153 149 146 138 142 158 158 165 158 166 158 162 190 227 279 291 295 285 279 266 257 
110 108 103 105 106 104 112 106 107 103 103 112 113 109 111 112 109 109 112 108 115 112 123 144 151 152 150 147 143 157 159 159 162 160 162 161 159 160 160 158 154 148 150 158 161 159 153 144 141 141 140 143 148 148 151 156 153 151 155 156 153 149 141 147 157 157 157 162 161 155 154 161 172 203 248 292 302 300 282 268 
101 106 101 105 104 107 113 108 107 103 103 104 106 105 102 105 105 106 106 106 113 111 124 140 149 153 151 150 149 156 163 159 161 161 163 159 161 161 160 159 158 161 157 165 164 159 153 144 133 136 134 135 140 141 143 147 143 141 145 138 142 140 133 144 145 150 149 153 155 155 153 155 160 161 183 216 268 311 298 265 
104 102 101 107 106 111 110 108 110 110 103 106 106 101 109 107 102 101 108 108 113 108 122 145 150 151 153 158 160 157 159 157 162 165 164 159 162 162 157 161 163 162 163 159 161 160 153 148 135 133 133 137 141 139 139 141 135 134 142 149 144 144 142 144 141 143 149 149 152 151 149 154 154 160 157 171 181 225 255 240 
107 101 103 108 107 111 111 107 106 102 103 106 106 108 108 109 105 107 108 109 115 118 119 135 146 153 153 158 162 160 164 157 161 164 167 162 162 163 160 164 160 164 158 164 160 158 154 152 148 134 138 143 139 141 145 144 141 139 145 145 150 147 147 146 139 145 146 150 149 150 152 152 157 157 159 161 162 168 184 188 
104 102 102 106 108 109 113 107 101 101 101 104 109 108 109 108 105 106 108 108 114 115 114 135 149 150 153 153 162 165 164 161 162 164 161 162 161 161 160 159 163 158 161 160 158 157 149 153 153 142 139 150 145 151 147 148 154 145 149 142 149 154 147 148 151 147 153 147 154 154 156 154 154 156 156 157 157 158 160 172 
109 103 105 102 107 109 109 104 102 102 102 104 110 108 112 108 105 115 108 111 113 111 111 122 147 154 155 157 163 157 165 161 160 163 163 163 162 160 160 161 157 161 159 160 157 158 147 153 154 154 148 148 158 157 156 158 155 153 152 151 153 147 148 154 149 151 150 150 153 157 159 162 159 155 156 153 154 158 155 161 
109 103 108 105 104 109 109 104 105 101 104 104 111 108 109 108 105 104 106 107 113 111 111 117 141 155 155 158 163 159 162 159 164 162 160 159 157 155 156 158 157 158 161 158 159 153 149 148 150 153 154 153 161 164 168 162 165 158 152 155 155 150 145 152 153 154 154 159 163 160 164 169 178 171 154 155 153 151 156 155 
107 107 108 103 103 108 105 102 100 105 97 105 114 108 108 106 104 108 109 109 113 110 107 115 137 146 151 155 157 161 160 160 163 162 159 157 161 158 156 156 157 158 159 156 157 150 147 146 151 152 158 163 159 164 166 169 163 162 160 155 153 151 149 148 151 156 162 159 160 164 165 170 173 192 186 168 150 151 150 156 
108 109 109 104 105 109 109 106 101 99 101 105 110 108 110 107 107 105 108 109 110 110 108 113 140 151 153 156 164 158 160 160 160 162 163 159 163 160 158 160 160 161 160 159 156 154 147 148 156 156 161 179 169 161 170 170 171 167 173 166 162 153 150 153 160 161 160 165 162 167 167 167 176 187 197 181 156 156 150 152 
110 109 105 103 101 106 114 104 103 104 102 106 109 103 107 106 104 105 105 108 109 107 109 110 136 149 148 153 163 160 159 163 162 163 162 161 162 162 160 161 159 161 164 154 157 152 151 148 151 152 158 164 177 164 168 174 169 166 168 168 162 156 152 155 160 153 154 159 164 171 169 177 177 177 186 167 159 154 150 154 
107 107 110 108 103 108 113 105 103 98 98 98 107 106 106 103 101 103 107 103 108 109 106 112 134 151 147 155 161 158 165 162 160 164 159 160 164 161 156 158 158 164 162 155 154 155 148 142 152 156 161 158 167 170 165 167 170 168 168 160 158 154 154 155 160 156 155 158 164 176 169 174 175 172 178 164 161 161 164 172 


