P2
80 60
297
151 150 146 150 146 148 143 141 149 141 145 137 138 133 118 53 36 49 87 99 102 112 113 111 114 117 121 113 117 120 120 123 121 122 125 123 117 108 108 122 125 121 121 132 130 136 136 132 138 135 136 138 138 136 138 138 138 140 140 135 137 137 137 133 129 123 121 123 127 132 133 136 137 137 142 143 141 142 139 141 
153 149 145 149 147 145 139 141 143 143 143 138 138 132 109 40 27 44 82 97 101 108 116 115 111 120 124 116 121 120 122 121 120 119 122 126 116 107 107 124 123 121 124 131 131 136 137 135 135 137 137 138 136 137 142 141 141 140 139 134 138 134 132 133 129 121 122 127 123 126 133 137 140 140 143 141 141 141 136 144 
152 153 148 148 146 146 138 137 143 144 144 140 135 132 100 31 22 44 81 94 101 115 114 119 121 118 125 114 119 120 122 125 118 123 123 123 114 104 110 123 123 122 123 128 132 136 133 138 137 133 137 138 137 139 138 138 139 136 140 135 137 134 132 139 134 119 125 130 125 134 137 137 138 139 141 140 141 144 143 142 
150 154 146 146 144 147 143 140 146 142 145 135 137 126 98 33 25 47 75 90 102 118 115 118 119 120 124 119 119 119 127 134 125 118 125 124 113 110 114 121 122 120 127 131 134 137 138 136 142 138 138 137 138 138 140 141 138 136 140 138 140 136 137 136 129 122 126 130 128 134 137 141 138 140 138 143 141 148 144 140 
152 153 147 147 141 144 145 142 146 141 140 136 132 128 96 29 26 49 73 86 100 114 119 118 117 120 128 117 118 117 120 125 118 119 118 123 109 111 116 123 120 121 123 135 134 136 138 137 136 138 138 135 138 138 135 140 137 135 140 136 137 137 137 141 130 126 127 130 130 131 136 139 138 138 141 139 139 144 142 141 
154 152 146 144 138 141 142 139 147 142 140 137 129 122 95 27 34 54 76 88 102 114 115 115 115 117 124 116 117 117 115 117 120 118 120 122 110 108 113 122 117 119 128 133 136 137 138 135 140 140 138 136 136 139 137 142 136 137 141 136 137 132 134 137 131 123 125 134 136 136 138 137 140 136 141 141 140 148 140 139 
153 151 144 146 140 143 143 142 145 142 142 132 132 125 87 23 41 59 84 86 101 112 116 115 111 120 122 118 117 118 116 119 122 118 121 124 110 110 117 121 119 120 124 133 134 139 136 138 140 140 139 139 138 138 139 140 140 143 141 137 133 134 135 135 130 124 126 130 132 132 134 136 136 139 144 143 140 142 138 142 
152 154 149 147 144 144 140 143 145 141 139 135 131 118 79 21 32 58 81 86 104 112 110 111 109 117 119 119 114 117 118 118 117 117 120 123 104 112 117 121 121 120 128 136 134 141 138 136 137 138 141 141 143 138 143 145 139 139 141 138 139 135 138 135 132 128 126 125 130 132 137 141 139 141 141 141 141 145 140 143 
158 154 152 142 140 142 141 144 147 144 143 133 133 118 63 11 22 46 65 81 102 109 108 109 111 117 118 113 117 119 121 118 115 119 121 122 104 112 117 119 120 117 124 132 130 133 136 139 137 136 141 139 140 139 139 141 138 137 139 137 135 138 138 138 132 126 129 129 127 136 136 135 137 141 140 138 138 141 138 140 
154 152 148 146 139 140 145 142 149 140 139 134 133 110 53 6 19 34 49 77 94 102 104 104 106 114 115 112 118 118 116 119 120 119 121 123 104 110 115 119 119 118 128 130 133 134 136 137 140 138 141 135 139 138 138 137 138 136 137 137 138 138 138 137 132 125 127 129 132 136 137 136 137 142 140 137 141 143 137 144 
154 151 152 143 137 147 148 143 146 143 140 132 126 107 50 7 13 30 48 75 90 96 98 101 103 109 113 110 115 114 113 119 114 118 122 121 100 113 119 121 119 120 128 133 134 135 133 136 136 139 139 139 138 140 136 140 137 138 137 134 134 136 135 136 130 124 127 131 128 132 133 136 136 140 137 140 137 143 137 143 
150 152 149 147 139 139 143 144 146 138 143 132 128 103 44 6 5 25 44 67 85 96 98 102 97 106 112 111 114 115 115 117 118 117 119 120 97 116 118 120 116 119 126 132 133 134 136 135 138 136 133 137 140 139 137 137 140 137 138 134 135 134 135 136 129 125 126 130 131 130 135 134 137 142 140 143 141 139 139 142 
152 148 144 150 136 133 138 140 147 142 138 130 130 104 40 1 5 30 56 64 81 88 93 96 99 102 111 111 112 114 118 116 116 119 115 120 96 110 116 115 114 118 129 136 135 135 135 134 137 136 141 135 136 135 139 141 139 137 137 133 136 132 137 135 129 125 129 129 129 132 127 135 139 143 143 143 140 143 138 140 
145 148 143 139 126 127 134 142 147 141 142 128 130 103 35 5 7 24 50 61 80 86 85 93 93 100 110 115 107 113 114 116 117 117 117 113 100 115 115 114 113 116 130 134 133 135 136 138 140 141 140 137 136 136 139 138 139 138 141 138 133 134 136 134 132 127 129 130 128 129 136 134 137 141 138 139 140 146 142 142 
149 146 142 139 123 119 130 142 147 139 140 130 130 95 31 2 12 26 49 60 71 79 81 94 89 100 125 121 115 113 110 113 112 116 114 112 97 110 112 112 110 115 129 134 132 136 133 137 136 140 139 138 138 136 139 140 142 148 141 137 134 133 135 136 129 123 130 130 129 133 134 139 138 141 139 139 139 145 140 139 
148 144 137 134 121 111 132 139 147 138 139 129 127 96 28 2 3 21 46 61 71 77 80 87 87 101 122 122 121 116 110 114 113 115 115 110 99 109 110 115 110 118 129 130 131 133 134 135 138 136 139 137 141 139 139 140 139 142 142 136 137 136 135 132 130 128 129 134 133 131 135 139 140 141 141 141 139 146 138 141 
149 143 138 121 111 110 120 139 145 139 136 131 120 89 23 2 9 26 48 63 72 68 77 84 86 97 120 120 111 111 110 112 112 117 113 110 95 111 115 117 112 118 128 132 129 135 135 133 134 134 137 135 135 139 140 138 138 142 136 135 135 133 136 131 128 126 128 134 132 134 131 141 141 139 139 139 136 146 139 142 
148 142 134 124 112 107 121 134 143 136 136 129 121 97 19 0 8 22 48 66 69 76 80 83 91 109 119 121 111 110 109 112 116 117 114 106 98 113 115 118 112 120 132 132 133 135 133 136 136 135 139 135 136 138 141 137 138 142 141 136 131 132 135 134 129 127 126 134 133 136 134 142 139 141 141 138 139 143 139 144 
146 142 136 130 120 119 128 134 139 139 136 135 117 88 19 0 7 27 52 65 72 80 86 100 106 113 120 119 122 116 116 112 118 116 115 107 99 116 118 116 119 123 132 134 132 132 132 134 135 133 136 138 141 138 137 140 139 139 140 137 134 135 134 133 130 127 127 132 133 136 139 140 140 139 141 139 138 143 138 139 
144 141 135 125 119 119 127 139 139 136 136 129 112 80 12 2 10 24 48 64 73 81 97 101 104 110 116 117 121 120 126 114 112 113 111 106 102 117 117 114 115 125 131 132 132 133 133 132 138 137 138 136 139 138 140 139 137 135 137 134 134 132 134 131 130 126 127 130 135 136 139 140 143 139 136 139 141 144 143 144 
141 134 126 126 118 119 123 132 139 138 136 130 111 80 16 0 9 23 53 62 68 76 88 100 102 105 108 112 115 120 126 115 112 113 112 100 100 114 118 111 115 127 131 132 129 135 134 130 139 139 142 137 139 136 137 135 138 133 136 136 133 131 133 131 127 125 129 131 133 137 136 140 138 143 140 136 140 144 140 143 
142 133 129 121 115 120 127 133 135 137 136 132 105 77 13 9 12 27 52 62 70 78 93 97 99 103 111 112 115 120 122 114 110 110 109 97 100 111 114 110 115 120 132 132 129 133 131 133 135 137 136 136 136 141 138 136 135 134 140 137 135 134 134 132 130 127 127 132 137 140 136 140 139 140 139 139 141 146 140 141 
140 131 124 112 112 108 122 129 138 138 135 129 99 71 18 15 18 31 53 64 69 78 95 97 95 103 111 110 113 119 123 113 111 110 105 97 99 111 112 111 115 120 132 130 126 132 132 134 136 136 138 137 140 137 140 137 134 135 139 136 137 134 136 133 132 129 130 134 134 136 139 143 142 142 140 141 141 146 139 148 
136 123 123 103 96 109 119 136 135 135 130 122 92 64 25 25 20 38 58 64 73 84 95 99 98 103 109 112 114 121 120 110 107 109 109 96 101 111 112 109 112 120 127 133 132 131 134 133 137 138 140 136 136 138 137 133 137 136 135 135 133 134 134 136 132 128 133 136 134 138 139 140 141 140 142 142 141 147 142 145 
138 128 119 98 99 108 119 133 137 136 132 120 89 66 27 29 29 42 59 68 71 83 96 99 100 102 109 109 109 110 116 105 104 105 105 95 101 111 110 108 113 122 132 132 129 129 132 136 139 139 134 136 135 139 138 136 137 138 139 138 136 134 136 130 132 128 134 136 135 139 140 141 141 143 141 140 143 144 144 145 
135 121 119 100 99 114 121 132 131 131 129 112 86 62 30 35 30 44 61 68 69 71 80 97 98 104 109 105 106 102 102 105 104 105 102 93 100 111 109 106 112 122 131 133 132 137 135 139 136 134 137 134 136 136 134 136 134 137 137 137 131 132 135 133 131 131 135 134 133 139 138 139 141 143 146 145 140 146 144 149 
137 120 116 103 109 118 121 130 130 129 126 110 83 60 29 35 31 43 57 66 68 74 80 92 92 98 105 103 106 100 101 104 104 104 102 91 99 107 104 106 112 123 134 134 133 134 134 136 136 133 134 136 137 134 136 138 136 136 138 135 136 133 135 132 128 130 133 136 134 138 141 140 140 142 143 143 144 146 146 146 
133 118 114 105 105 98 105 114 123 123 128 107 80 59 24 37 37 44 55 61 68 75 83 90 92 100 103 99 103 98 98 102 103 101 100 93 99 110 104 105 110 126 133 133 128 134 136 133 137 135 137 136 135 135 137 138 135 133 136 134 137 132 135 137 128 131 132 136 139 141 140 141 140 145 141 146 142 147 144 147 
132 116 111 86 74 75 76 90 95 99 94 92 77 55 25 40 38 41 53 61 63 70 78 87 90 93 100 96 99 97 97 97 102 103 98 89 100 108 106 105 112 126 134 133 132 134 135 135 136 135 137 134 136 135 136 135 135 133 135 134 133 136 135 132 131 133 134 139 135 139 142 142 144 148 143 145 146 148 140 147 
137 115 111 78 56 68 69 73 83 72 70 75 72 52 23 36 39 45 51 57 61 67 79 85 85 83 88 87 90 94 95 101 100 98 93 90 98 106 101 101 109 125 132 131 131 135 134 134 135 136 138 136 137 135 136 136 135 134 136 133 134 133 134 132 132 131 135 138 139 140 142 143 142 146 145 149 144 149 144 150 
130 109 106 71 50 60 64 69 79 63 61 76 72 43 13 30 38 44 49 54 56 63 74 86 80 84 87 85 87 91 92 95 97 100 92 92 97 103 97 94 109 125 134 134 135 134 133 137 138 138 137 136 136 136 137 133 138 132 132 132 133 130 137 135 135 131 135 142 141 141 146 144 143 146 142 144 144 147 146 146 
128 110 103 69 48 53 59 62 69 60 57 67 66 34 6 23 33 43 51 55 54 61 77 85 81 88 95 91 93 95 95 99 100 96 92 88 95 96 91 97 109 125 133 134 132 135 138 138 141 142 142 137 138 137 136 139 138 134 135 133 136 138 142 140 141 139 137 142 139 144 147 146 144 146 144 147 145 149 144 145 
120 102 101 71 38 47 51 54 62 56 54 64 58 25 4 19 34 42 54 54 59 62 70 80 84 123 129 126 123 126 133 128 130 124 116 99 94 94 88 89 107 121 133 135 130 138 137 147 149 145 142 139 138 137 139 141 140 139 138 135 142 146 153 153 147 140 142 145 142 145 150 140 149 149 146 151 144 152 147 148 
113 100 102 67 34 40 41 44 53 46 46 57 55 19 16 37 42 44 52 56 55 59 61 74 93 128 144 144 140 146 143 141 141 140 142 126 93 88 79 88 106 122 132 132 133 139 156 205 205 160 144 143 142 143 139 138 137 137 141 145 140 155 180 183 180 155 152 151 146 150 147 152 149 149 148 151 148 153 150 148 
113 96 101 65 32 30 33 33 41 35 43 51 44 12 19 40 45 41 50 50 54 56 61 72 122 136 144 140 145 147 149 150 145 145 148 143 95 89 82 86 102 121 129 132 134 138 163 231 240 172 150 149 146 142 143 141 140 139 135 136 138 156 185 197 202 195 192 186 170 156 155 155 157 155 148 151 150 155 145 149 
114 94 99 70 34 31 34 37 41 37 40 40 34 13 24 34 44 46 44 47 46 51 54 92 137 138 147 146 148 149 151 152 151 148 150 148 107 89 79 82 98 122 130 131 130 137 161 228 238 182 159 149 144 140 140 140 139 136 137 136 135 161 190 199 198 196 204 210 211 203 191 172 161 156 151 149 152 154 149 150 
112 86 95 78 27 28 27 28 34 31 32 28 29 27 39 45 46 50 50 50 53 60 65 111 133 142 146 146 151 151 152 151 149 148 153 152 125 89 75 77 97 115 126 128 126 138 158 193 203 181 149 142 141 140 139 137 137 132 138 134 138 168 192 199 199 207 205 215 212 214 211 200 185 172 162 160 151 157 153 152 
112 84 93 74 26 18 21 20 27 24 24 25 48 67 75 68 45 56 51 46 48 57 89 128 136 143 147 145 144 149 153 149 151 151 154 152 138 95 76 83 101 118 128 128 128 143 167 180 184 186 170 140 141 142 140 139 137 135 137 136 139 180 191 203 208 211 213 216 214 219 215 204 190 193 184 178 161 165 155 159 
108 82 96 75 35 30 33 27 27 25 35 39 57 75 83 75 49 48 45 47 51 73 121 140 146 151 149 145 146 149 150 153 154 151 154 152 143 107 81 84 101 114 126 128 130 151 160 170 179 181 180 151 143 140 139 139 137 137 138 136 143 186 198 206 214 213 219 223 221 222 215 207 195 195 195 205 197 191 178 167 
108 81 94 78 43 39 40 34 41 32 59 50 60 74 77 68 53 50 53 47 68 111 138 146 145 149 152 149 149 153 149 153 154 152 150 151 146 136 81 85 100 115 123 130 130 148 159 165 164 167 169 149 141 137 138 139 140 137 138 135 155 197 203 210 213 213 221 226 218 226 222 211 195 196 196 205 206 213 209 204 
107 79 92 89 52 55 46 54 50 46 53 55 52 79 75 69 60 59 65 65 98 135 146 147 143 154 158 149 150 152 153 154 155 156 150 153 147 143 117 95 111 119 128 131 131 142 147 146 146 145 143 141 140 141 137 141 144 142 147 147 163 199 200 213 216 218 225 227 225 226 219 210 198 195 198 208 212 219 218 214 
112 93 92 82 70 86 79 89 91 81 86 83 83 90 96 90 87 80 80 94 130 143 144 137 134 151 159 150 151 150 154 155 154 159 155 146 150 146 141 115 113 125 130 132 133 138 142 147 142 141 141 138 137 138 139 140 146 146 151 158 181 209 215 218 219 220 225 233 227 229 224 213 203 205 200 209 213 215 219 215 
107 99 97 84 83 101 95 96 104 101 102 96 98 105 107 107 104 102 108 121 139 147 143 130 129 146 155 147 151 158 159 159 154 151 148 139 142 147 146 136 127 127 131 130 133 137 137 139 140 138 140 140 140 136 139 143 143 143 150 159 196 220 224 224 222 219 227 234 232 228 225 217 205 204 204 207 212 219 218 215 
105 102 99 98 95 104 95 100 98 98 99 99 102 106 107 107 104 104 114 130 142 144 140 125 128 150 152 150 149 153 157 155 153 149 148 139 138 142 146 149 137 130 131 128 131 136 139 142 138 137 138 139 139 141 138 138 136 139 150 154 208 241 238 231 232 223 232 238 234 233 233 220 203 205 201 214 215 219 224 220 
95 103 102 102 99 104 101 99 100 97 97 100 102 105 104 105 107 104 112 130 145 145 137 126 139 150 154 150 148 153 155 157 155 152 151 139 138 145 149 152 147 131 135 133 134 137 143 143 141 142 145 147 142 139 137 135 138 140 144 146 166 210 245 252 242 237 245 246 243 240 238 220 211 212 214 212 219 226 221 223 
97 101 99 100 107 104 98 97 101 100 98 99 103 103 105 106 106 98 112 133 140 145 147 143 145 151 156 149 151 153 156 158 153 151 150 150 144 150 149 153 150 137 136 137 135 143 142 146 149 146 149 152 147 145 138 130 133 142 147 152 152 160 186 248 263 261 258 258 255 251 249 222 213 214 214 220 222 228 223 225 
98 103 98 97 103 102 98 96 99 97 96 101 103 104 103 105 104 99 109 130 143 148 150 150 150 155 162 152 151 153 151 154 151 152 156 158 150 151 147 147 149 141 133 129 132 138 142 147 146 148 145 150 150 151 147 135 136 139 154 155 154 155 163 178 219 266 281 275 270 260 256 227 221 215 215 224 225 232 225 225 
102 105 104 101 102 102 101 98 100 98 103 101 103 107 107 107 104 102 109 126 147 146 149 153 153 155 158 151 150 155 152 152 153 156 155 155 153 151 147 144 146 143 125 126 123 129 137 136 141 138 142 144 141 139 143 141 139 145 150 157 155 153 149 153 162 188 252 297 286 276 266 234 221 222 223 224 227 234 232 229 
102 101 98 102 100 99 98 95 98 95 100 98 103 107 107 107 103 105 106 120 140 146 153 154 153 153 155 151 152 154 153 157 152 153 154 157 153 151 147 146 146 147 128 123 129 130 134 132 131 128 129 136 134 136 134 141 139 143 146 146 147 147 147 153 151 150 171 227 283 292 281 235 224 225 223 230 229 232 228 232 
104 103 101 105 100 99 93 91 96 98 96 98 102 103 105 106 101 103 105 118 138 144 150 152 148 154 153 148 150 152 156 154 154 150 152 154 154 147 146 147 145 142 139 131 131 135 136 135 140 134 135 136 143 142 143 143 137 140 140 149 151 145 145 150 149 145 149 162 199 239 255 238 230 231 227 233 229 236 232 232 
105 103 102 103 101 100 91 91 98 97 96 97 99 101 102 104 103 101 104 114 140 142 149 152 152 152 159 148 154 152 152 156 154 153 157 156 151 148 145 144 142 144 146 138 135 140 142 141 143 144 142 139 142 147 145 148 144 145 148 147 150 147 148 146 148 146 150 154 159 167 186 218 235 238 236 238 235 239 231 232 
109 105 102 104 100 101 91 93 95 97 98 95 100 99 102 103 105 101 105 111 138 143 148 157 152 153 154 149 149 151 153 152 155 152 158 152 149 146 142 140 136 139 144 142 136 146 152 156 156 152 145 142 145 146 147 147 149 150 152 151 151 152 155 151 144 146 148 151 155 153 159 171 205 240 240 244 239 237 234 237 
105 107 100 103 103 102 94 92 97 96 99 96 97 102 101 102 101 101 107 119 137 144 147 153 153 153 159 150 153 154 152 154 153 151 151 156 149 146 143 133 135 134 138 145 138 145 162 161 161 156 152 147 146 149 147 151 151 152 156 155 155 154 159 163 154 148 147 148 146 151 154 160 170 207 234 249 244 248 241 237 
106 104 101 103 106 103 95 95 94 93 94 98 97 102 101 106 107 111 113 117 138 147 151 155 152 155 158 151 154 154 154 155 156 152 156 157 148 144 137 136 130 133 139 141 142 149 161 166 164 162 160 155 148 150 152 153 158 157 158 158 159 154 156 166 178 164 149 148 146 147 153 153 155 163 199 237 256 255 246 248 
104 104 99 101 104 101 98 94 94 96 100 96 96 99 101 103 118 132 137 130 140 143 149 153 150 155 161 154 154 150 155 157 154 151 156 157 151 148 144 142 132 135 143 151 152 156 160 166 165 162 162 157 152 152 152 151 151 154 157 158 162 163 166 170 184 189 178 151 145 149 152 154 150 156 166 202 238 263 254 258 
102 104 104 103 106 98 96 91 97 95 101 98 99 100 101 104 127 143 142 134 139 145 144 149 146 152 156 153 149 152 154 156 150 148 149 150 150 146 139 142 137 134 142 151 151 158 160 166 165 162 157 157 155 153 155 156 153 153 159 166 166 169 164 168 174 175 170 153 152 148 153 146 152 145 152 165 194 239 264 264 
104 106 103 99 102 96 96 92 92 93 98 96 104 103 101 98 133 140 144 136 137 142 143 145 142 146 150 148 146 148 147 151 152 147 151 151 150 144 137 143 143 135 138 143 151 157 161 170 172 165 164 160 160 156 156 157 153 155 155 163 166 162 168 165 166 161 160 161 159 165 156 151 148 152 144 155 156 196 240 264 
102 106 102 99 102 102 94 92 93 96 96 97 100 100 100 106 139 142 147 132 135 141 144 142 141 144 146 142 145 145 145 146 147 148 150 151 150 142 133 141 141 131 139 146 148 155 162 172 169 171 168 165 163 158 161 159 159 156 157 160 166 169 169 167 167 161 163 167 177 179 177 154 147 153 148 146 146 166 186 241 
106 105 100 100 103 100 97 95 96 95 97 95 96 96 102 111 140 141 146 130 133 138 139 142 139 142 147 140 142 142 144 147 145 147 143 149 141 140 136 143 134 134 142 156 160 157 160 166 171 171 177 168 165 161 160 160 159 159 157 158 158 166 167 168 168 167 168 174 176 187 176 154 152 145 146 150 143 155 154 180 
104 104 100 98 102 101 101 96 96 94 99 94 98 96 103 107 142 142 145 124 129 134 136 135 136 144 146 140 142 145 141 148 145 146 145 148 144 137 135 136 122 135 149 156 156 159 158 160 163 167 176 166 167 162 161 160 161 161 162 158 158 161 164 167 167 161 157 162 166 173 161 158 153 147 147 150 147 153 152 157 


