P2
80 60
244
11 21 28 41 47 46 52 58 62 64 70 70 71 70 74 73 79 80 81 83 80 87 84 85 86 90 87 90 90 91 96 95 98 94 97 94 94 95 96 96 96 91 94 94 97 93 94 91 83 73 73 81 88 95 97 105 99 98 91 87 94 95 100 101 97 107 105 106 106 107 106 107 103 108 110 109 106 100 102 104 
17 23 36 43 50 47 56 58 62 66 67 67 63 67 74 73 81 81 80 83 90 89 89 88 86 88 87 90 89 93 95 97 95 94 97 93 95 95 95 95 93 92 92 94 97 96 94 91 82 76 76 80 91 94 99 100 99 99 90 89 92 96 100 96 99 101 106 101 106 102 108 106 105 108 106 108 105 106 105 100 
19 22 36 39 43 42 47 54 57 63 64 59 64 64 70 71 77 76 76 84 91 89 91 89 92 92 89 88 88 90 94 93 94 96 100 93 93 96 94 93 97 91 95 90 93 96 96 86 81 72 72 79 90 91 94 98 94 93 86 88 86 91 94 92 96 97 102 101 107 106 108 105 108 109 106 107 107 103 102 102 
16 28 34 40 46 45 55 49 59 63 65 61 62 60 69 67 78 75 81 95 96 99 99 97 105 100 91 91 87 89 94 93 93 92 96 93 96 96 94 96 96 93 98 95 93 92 94 89 85 70 69 77 90 92 95 96 98 93 87 86 94 92 96 94 97 102 107 100 103 107 105 110 110 107 106 109 106 106 106 101 
20 24 35 37 44 38 48 50 53 59 61 61 57 60 70 67 72 72 81 99 108 106 109 104 108 106 91 90 88 87 91 92 94 91 92 92 94 95 98 95 96 93 97 96 97 97 88 91 83 72 71 82 90 95 99 95 97 95 90 87 88 97 95 102 101 103 108 105 108 106 105 106 110 108 110 107 106 104 103 104 
23 24 32 42 45 44 51 50 59 62 61 60 61 65 70 68 74 72 76 102 106 106 106 110 112 111 92 89 87 89 88 91 92 93 94 93 95 99 95 96 93 97 100 91 96 98 99 93 86 71 75 84 93 96 101 98 97 103 89 92 95 95 97 101 97 103 108 113 114 111 108 106 107 109 107 106 106 105 103 103 
17 24 28 39 37 37 49 44 51 57 60 60 58 60 68 64 77 75 82 96 95 102 96 95 104 108 90 90 89 87 88 89 93 92 90 90 91 96 95 94 94 94 95 95 97 96 92 89 81 70 72 83 87 93 101 99 100 103 96 92 93 100 100 99 100 105 107 108 110 108 107 108 105 104 107 108 107 102 103 104 
10 24 32 40 42 42 43 46 52 57 61 60 56 62 64 64 71 74 77 88 94 96 96 99 96 102 91 88 88 89 89 86 89 90 95 94 93 95 91 95 93 90 95 93 91 97 93 87 84 70 72 83 92 94 97 104 100 98 94 93 95 95 98 103 99 109 105 106 110 106 106 106 105 102 109 106 104 101 103 105 
14 18 28 35 46 46 49 49 55 56 55 55 59 57 62 65 71 71 72 88 93 97 100 108 103 99 86 87 89 88 86 86 91 92 94 95 93 94 90 90 93 89 96 91 94 96 93 90 84 69 71 82 92 95 97 96 96 97 94 94 93 96 96 102 101 102 110 105 109 104 106 105 107 105 104 108 104 100 102 102 
11 15 23 35 43 44 51 46 55 55 60 60 58 55 62 62 71 70 73 82 99 107 104 106 104 92 87 84 88 86 85 85 89 89 92 91 92 96 91 92 93 85 94 89 91 98 87 86 77 68 69 83 91 89 100 97 96 95 91 93 92 98 97 96 96 107 108 106 111 104 103 106 102 106 107 104 106 102 103 102 
15 21 22 37 37 41 50 48 53 54 56 57 54 57 62 56 70 71 72 80 94 100 103 100 101 89 86 85 87 84 84 87 88 87 92 88 89 93 90 92 94 86 91 90 91 96 87 83 75 67 69 81 89 91 96 98 96 97 94 93 88 94 92 99 99 100 106 104 105 106 105 103 104 108 108 107 106 103 100 100 
10 14 26 34 38 37 42 50 55 53 55 56 58 54 60 58 63 64 74 84 93 98 101 105 106 93 88 86 87 86 87 87 91 90 88 88 89 92 91 91 92 86 92 89 92 96 92 86 80 69 70 82 87 90 97 98 96 95 88 93 93 96 95 100 96 109 105 104 105 106 106 104 104 107 104 108 105 101 106 101 
8 12 23 37 37 43 48 45 50 55 52 56 52 54 58 64 68 70 76 89 98 99 99 100 94 92 94 91 92 89 90 84 90 88 87 87 86 88 89 92 91 86 91 85 95 92 89 83 80 69 72 81 86 88 96 98 97 95 91 94 88 88 97 94 99 103 104 104 102 102 93 108 103 105 106 107 110 103 103 105 
7 18 24 36 43 44 44 47 54 52 55 50 50 54 66 75 80 79 85 88 95 96 91 98 98 96 98 101 98 96 102 87 89 89 89 88 87 91 87 91 92 85 92 88 93 96 93 89 78 72 71 85 91 94 92 97 99 99 93 94 94 96 93 99 101 103 108 106 103 104 107 105 105 107 105 106 106 106 105 102 
9 17 24 31 42 38 48 49 52 54 56 50 50 63 73 72 81 82 83 83 87 86 87 92 88 98 96 100 99 105 101 95 90 89 87 87 90 90 87 88 92 88 89 88 94 90 87 87 78 65 68 80 86 90 98 101 98 102 96 95 93 93 96 95 93 105 105 108 108 102 104 105 107 105 105 106 108 104 104 107 
8 11 21 32 42 41 48 52 53 52 50 50 55 68 75 74 79 79 83 84 81 86 85 89 91 99 95 96 95 101 98 97 89 85 87 88 85 88 86 87 89 90 90 88 92 91 87 82 78 62 66 82 86 90 96 100 96 100 96 93 93 92 96 101 96 100 107 105 108 109 106 105 105 105 105 104 107 107 105 106 
12 11 26 36 39 45 44 48 51 51 53 55 59 69 72 75 79 78 76 78 79 83 82 88 93 95 95 95 95 97 95 98 93 86 87 87 86 84 85 90 91 87 92 85 88 89 86 82 77 64 65 85 92 91 99 101 102 98 93 94 93 89 95 96 100 106 107 104 107 107 109 109 112 106 104 104 109 104 105 104 
4 12 24 35 41 43 52 51 53 49 53 52 63 69 72 70 77 77 79 83 81 83 81 91 89 90 93 94 95 98 97 101 95 90 89 86 87 89 87 91 87 84 89 84 91 89 84 82 73 64 69 84 94 96 100 100 96 102 95 94 92 94 96 96 93 102 108 107 110 109 107 107 108 107 104 106 107 103 102 101 
5 15 20 37 42 40 48 49 51 49 50 58 58 69 73 68 74 76 77 81 81 80 84 89 89 96 92 100 101 102 101 102 99 90 91 87 86 90 88 90 90 87 87 88 89 87 85 80 74 62 66 80 87 93 97 98 99 97 91 94 91 96 91 100 95 106 108 108 110 109 106 108 109 107 105 106 108 104 106 106 
4 10 25 33 45 45 49 44 46 48 54 57 62 62 75 71 74 72 74 78 79 82 87 89 91 93 93 96 95 101 103 105 101 88 88 84 85 89 87 88 92 86 91 87 87 89 88 84 72 61 68 85 90 92 97 94 99 95 91 94 92 94 93 99 98 107 105 105 109 108 110 109 111 108 108 108 106 105 104 106 
6 9 19 37 45 43 48 45 46 47 57 62 60 67 70 71 74 72 73 77 79 80 84 89 92 94 92 93 96 98 106 106 96 87 88 87 86 90 88 89 93 86 91 86 84 86 85 83 71 63 69 84 90 92 95 100 92 92 92 90 92 97 97 99 102 104 108 105 109 107 108 109 112 109 108 105 109 107 104 106 
2 4 22 32 40 40 53 48 52 47 53 60 72 71 72 69 74 71 73 76 76 81 80 83 86 90 88 94 96 96 99 104 98 88 87 83 86 88 89 90 89 83 86 81 86 82 79 78 62 62 68 84 88 93 92 96 92 91 90 89 92 95 96 99 100 101 111 106 108 109 105 108 107 104 106 108 110 108 105 101 
1 1 21 37 35 35 47 51 50 52 51 65 67 68 74 68 72 70 71 76 78 80 81 84 85 87 87 91 89 97 97 102 104 92 84 82 83 88 84 90 86 83 85 82 85 85 81 76 60 57 71 82 89 91 90 96 91 90 90 91 93 91 94 99 95 108 106 108 110 111 110 108 107 109 106 108 108 103 104 101 
2 7 22 33 41 40 54 55 51 51 53 65 69 72 71 71 73 72 73 78 79 79 80 83 85 87 87 92 83 92 99 101 101 100 83 82 81 83 82 83 84 83 84 86 90 84 86 79 59 60 72 85 91 88 92 95 92 96 88 89 92 94 92 95 103 105 113 107 108 110 110 109 111 107 106 106 105 103 105 105 
3 9 24 33 40 42 51 50 53 52 60 67 71 68 70 71 78 74 81 85 78 81 80 86 86 89 90 88 80 88 97 104 102 101 89 87 83 84 82 85 84 83 86 87 91 91 82 79 63 61 72 84 90 88 93 95 91 94 88 93 93 94 95 97 104 110 113 108 108 108 110 114 111 109 109 110 111 106 111 105 
9 9 20 31 40 43 48 51 49 50 59 70 73 67 73 72 74 77 79 83 81 82 84 86 87 90 86 83 76 80 90 94 97 94 81 85 86 83 82 86 84 83 86 84 86 87 82 81 60 58 70 89 90 93 93 96 91 91 92 92 94 98 95 98 104 109 109 110 107 112 108 112 111 111 110 108 110 107 107 106 
4 8 20 32 41 37 51 49 47 51 60 68 67 66 65 71 76 76 79 77 78 79 83 86 86 90 87 87 74 76 80 82 84 80 84 83 81 83 81 84 87 82 85 82 87 84 81 78 60 60 73 84 90 86 92 97 90 89 87 88 92 93 97 98 102 109 109 106 108 110 110 109 111 111 109 105 105 107 105 105 
9 13 23 36 37 39 45 48 49 52 57 69 67 67 73 69 73 74 74 79 77 77 80 85 89 86 87 85 74 77 75 76 80 79 80 81 81 83 80 86 85 82 87 85 81 84 81 74 60 60 68 83 86 84 93 95 89 86 88 87 92 93 95 99 103 107 111 107 107 110 108 109 107 109 106 106 108 107 107 106 
8 9 20 33 37 39 47 45 50 50 54 60 66 70 74 72 78 77 77 78 77 76 78 86 87 90 85 80 75 76 76 75 79 77 80 80 81 81 83 86 84 84 85 83 83 82 82 76 59 59 71 81 84 88 91 96 90 86 85 87 92 91 100 99 102 106 110 106 109 110 111 109 110 111 109 108 108 110 106 108 
10 16 28 34 40 37 44 44 51 48 49 51 55 65 73 73 78 76 74 80 77 81 77 81 86 86 85 81 71 76 76 76 79 79 79 79 78 82 83 83 85 82 85 82 82 83 81 74 62 56 73 86 87 83 93 96 89 86 85 83 91 92 95 98 103 110 110 110 108 111 107 107 110 109 109 112 106 107 105 103 
15 16 23 32 38 36 47 51 48 48 48 45 47 58 70 68 77 69 71 75 80 81 84 84 84 87 82 78 72 75 75 73 77 76 80 81 78 81 81 82 81 81 88 82 82 82 77 74 63 56 71 83 84 84 92 96 89 84 84 85 87 89 96 99 106 107 110 110 111 109 108 107 108 109 107 108 109 106 106 105 
19 18 28 33 39 36 49 47 46 52 50 52 51 62 70 68 77 73 68 76 80 81 80 83 84 88 86 82 73 73 72 75 77 77 77 80 78 83 80 83 85 83 87 81 87 89 81 78 63 58 71 87 88 87 91 95 89 87 88 88 88 92 95 101 105 109 111 109 111 109 107 108 109 110 110 110 109 105 106 104 
18 15 26 31 38 37 43 44 45 48 47 47 52 62 64 68 69 67 67 75 74 77 76 81 84 86 84 79 73 74 73 75 77 79 74 77 77 80 79 83 84 80 83 81 83 81 78 73 57 57 73 82 85 85 92 91 90 82 85 83 89 87 93 96 104 110 109 107 114 107 110 111 109 111 108 110 108 107 104 104 
14 12 22 34 36 34 44 42 47 52 48 48 49 57 64 63 69 67 70 69 77 71 71 80 82 80 81 78 72 77 70 72 73 76 77 72 73 78 79 82 79 80 83 83 82 85 79 71 56 54 76 86 81 86 87 91 91 86 85 82 90 93 96 100 101 113 109 110 112 109 106 109 110 108 109 107 108 105 108 102 
9 16 22 29 36 35 43 44 46 46 49 48 49 58 64 64 69 67 67 74 70 70 73 77 80 78 80 76 71 71 71 72 75 76 77 74 75 77 78 82 81 83 84 79 81 88 76 74 57 54 77 79 86 85 87 88 88 85 84 84 91 91 95 94 100 110 109 108 108 108 107 107 111 109 108 108 109 110 106 105 
13 15 20 29 38 39 46 42 49 49 49 47 51 57 62 63 69 68 69 69 68 73 71 79 75 77 77 73 72 73 72 76 78 76 79 75 76 83 80 84 79 80 85 81 83 80 78 77 56 57 75 87 85 87 89 93 85 84 85 88 93 94 96 99 104 111 108 109 108 113 107 109 111 110 109 108 109 110 107 105 
11 13 22 35 32 36 45 47 46 49 47 44 49 60 62 62 65 66 67 69 72 72 69 71 71 73 74 74 69 71 73 74 77 76 77 75 75 77 79 80 80 79 82 81 83 79 73 74 56 57 77 86 86 86 89 90 85 83 86 87 91 90 95 95 104 109 111 107 111 107 107 112 112 109 110 109 109 108 109 108 
15 18 18 32 33 33 45 42 46 47 51 48 52 61 60 63 67 67 68 68 71 72 67 67 67 68 72 69 70 71 72 75 74 74 75 74 76 78 78 81 80 77 84 82 83 77 77 71 59 58 79 86 86 86 86 90 85 83 81 82 92 91 94 100 101 113 109 106 106 108 108 110 110 111 111 108 108 106 109 109 
18 15 23 35 30 32 45 46 43 45 47 47 49 59 62 60 66 62 67 72 70 70 68 65 64 68 69 69 68 70 66 72 74 74 73 75 76 78 80 78 80 80 83 81 83 83 79 69 57 60 78 81 87 83 87 87 81 81 78 87 87 90 92 96 102 112 110 105 109 107 107 108 109 110 109 110 108 109 109 109 
15 14 15 32 29 34 41 45 45 43 47 43 49 56 58 56 63 60 66 64 67 65 63 65 63 66 66 66 68 70 67 70 75 73 72 73 72 75 78 81 81 80 83 79 83 85 79 75 58 56 79 83 84 82 86 83 81 77 78 84 86 90 88 97 100 107 107 101 104 104 107 110 108 110 110 109 107 107 107 113 
18 12 14 28 31 33 38 39 40 41 47 43 47 58 55 59 66 63 64 62 63 61 58 62 63 67 66 65 62 67 65 68 73 73 73 70 69 76 77 77 81 79 84 76 83 83 74 70 53 58 80 88 86 86 85 83 80 78 76 82 85 85 89 92 98 104 108 101 103 105 108 110 110 113 110 108 109 112 111 111 
19 16 19 25 35 25 38 39 38 42 41 46 47 57 58 59 66 66 65 63 65 58 59 63 61 67 66 66 66 63 68 69 72 74 73 72 74 76 75 81 80 77 84 79 79 79 74 73 58 60 76 79 81 81 87 82 82 79 77 85 84 85 89 98 103 106 106 105 109 108 110 108 110 108 108 109 110 111 113 109 
21 16 21 29 27 30 37 37 39 38 45 40 41 50 60 58 62 65 60 64 64 56 54 60 59 63 63 62 61 64 64 69 71 70 75 73 73 73 73 77 80 74 79 78 81 79 74 69 56 60 78 79 82 79 83 83 76 76 77 84 85 89 88 97 102 107 106 103 106 107 105 105 106 108 108 109 108 109 110 110 
22 18 17 30 30 29 37 41 38 37 41 40 45 52 57 61 66 60 62 67 58 58 52 61 60 62 62 62 64 63 68 68 73 70 71 71 71 72 73 78 80 78 80 80 80 80 75 77 56 58 77 80 78 78 79 80 76 74 78 78 82 86 87 96 101 109 107 105 103 108 108 109 108 107 108 112 110 112 109 106 
20 20 15 25 28 23 36 35 36 42 43 39 40 52 61 60 65 63 62 59 57 53 56 58 59 64 58 63 61 68 67 69 68 69 70 68 75 72 74 75 80 75 80 82 83 81 80 69 55 61 74 77 76 74 80 75 73 73 78 83 82 86 90 95 103 111 107 104 106 108 112 110 108 108 111 110 110 113 109 105 
20 14 19 24 28 22 31 36 37 39 38 39 36 41 57 61 66 55 53 54 54 53 55 58 58 62 60 61 63 65 67 64 68 67 71 72 71 73 72 77 76 75 77 78 80 80 76 66 54 63 76 77 73 75 74 69 71 69 75 80 86 83 86 92 104 110 107 106 110 112 109 110 108 112 112 110 110 110 113 112 
20 16 18 23 30 22 34 35 35 35 42 42 39 43 58 55 51 50 50 52 56 55 55 55 58 62 63 62 60 62 61 63 67 67 67 70 70 70 73 73 74 71 79 79 82 81 71 59 53 61 74 77 69 71 74 71 68 71 76 79 80 83 92 92 103 108 111 111 105 109 106 110 109 114 111 107 108 110 111 113 
18 17 23 25 27 27 34 36 33 37 37 38 36 43 49 47 50 48 47 51 52 51 54 57 59 61 57 62 60 64 62 65 65 63 67 69 68 71 68 70 74 74 74 75 82 78 73 55 49 56 74 74 70 70 76 68 69 72 73 76 83 83 87 94 101 106 110 104 108 107 112 108 115 114 111 111 113 110 109 106 
15 19 24 24 29 20 36 32 34 36 40 38 36 44 46 45 47 48 41 50 50 50 55 56 55 61 60 57 59 62 61 65 62 62 66 66 68 70 67 69 70 69 78 71 77 75 72 53 47 62 73 69 70 68 66 68 70 70 73 79 77 78 90 93 100 110 109 108 107 110 109 110 115 115 114 109 109 115 111 110 
16 15 17 24 27 22 26 37 38 37 37 37 38 44 46 49 47 47 43 44 52 49 50 56 55 55 57 58 54 59 59 58 60 59 64 64 66 69 68 69 67 67 70 69 73 72 67 54 44 59 69 68 68 67 70 68 66 68 74 75 75 82 86 93 100 107 108 106 106 112 111 112 113 115 114 113 117 116 123 120 
9 9 18 22 25 20 28 35 35 35 41 37 38 42 43 41 45 40 41 49 53 49 48 54 52 55 56 57 53 59 60 60 64 60 63 63 62 65 65 66 68 62 68 65 71 67 66 52 43 55 70 70 64 63 70 68 62 63 72 73 82 83 88 93 95 103 108 107 106 107 111 112 114 115 120 113 122 133 155 163 
2 3 13 21 26 24 35 32 33 35 38 38 36 38 40 40 41 40 44 44 50 47 46 50 50 51 49 54 53 55 54 56 59 61 63 61 60 60 60 64 62 59 60 62 65 65 58 48 48 53 66 64 66 66 67 64 64 66 72 71 76 77 82 91 96 104 108 106 105 109 107 109 117 114 117 115 124 152 183 192 
0 6 14 24 23 17 31 32 39 40 39 38 38 38 39 39 45 41 39 43 43 45 45 46 50 52 48 48 50 52 53 54 59 54 55 55 59 55 56 61 56 57 59 61 63 60 60 46 43 53 63 63 65 62 68 63 62 65 73 68 74 76 87 93 92 104 106 99 105 109 108 111 108 109 118 121 133 165 195 193 
8 10 17 23 30 24 33 31 39 37 41 39 37 35 41 42 42 39 37 45 42 44 42 44 48 49 47 47 47 50 50 52 55 51 53 50 54 49 50 53 55 52 55 55 59 53 58 42 42 55 63 62 60 64 60 59 62 66 68 72 71 74 83 95 96 99 103 103 108 108 109 108 114 117 111 114 132 172 192 200 
12 14 20 22 26 21 26 33 35 34 39 38 33 39 34 36 36 30 31 40 38 40 39 40 36 44 43 44 41 45 43 43 46 47 46 41 44 44 40 46 48 45 48 50 50 51 47 43 37 48 64 61 62 60 57 60 59 65 67 64 71 75 85 91 96 100 104 104 110 110 109 112 115 111 117 118 133 174 208 222 
7 15 19 20 18 18 21 26 32 34 36 40 38 36 34 33 34 32 26 36 38 33 32 37 37 40 38 37 34 39 38 41 37 38 39 39 39 42 37 38 43 42 48 43 43 41 40 36 36 50 57 59 61 57 55 58 59 62 62 64 66 75 81 94 95 98 101 107 108 112 114 111 114 117 114 122 139 177 219 244 
14 16 18 21 21 18 20 24 29 31 35 32 35 30 31 27 30 27 24 31 27 31 25 29 28 31 29 30 26 28 31 30 30 29 32 29 30 29 28 32 35 34 35 34 39 38 31 34 43 47 61 58 58 57 55 55 55 62 66 63 70 79 85 90 98 99 107 100 109 112 108 112 112 115 116 121 139 176 212 236 
9 16 19 18 25 13 16 16 21 23 30 21 20 21 20 22 26 17 18 21 21 19 20 23 23 22 22 22 24 19 20 24 22 28 26 27 28 30 28 30 35 34 37 38 37 40 39 47 44 54 57 61 56 54 52 54 58 64 63 66 74 77 86 92 98 101 102 103 106 109 108 110 108 118 116 122 135 170 186 196 
12 12 20 18 19 14 22 16 24 22 23 21 22 22 17 18 22 17 17 21 22 21 25 24 19 23 22 21 26 27 26 29 32 27 33 32 30 38 35 43 46 43 48 49 50 57 58 64 59 59 63 66 59 55 62 54 53 60 64 68 70 76 83 92 98 100 103 101 104 108 108 111 112 115 124 129 149 161 178 180 
2 4 14 19 18 17 18 19 23 20 28 21 23 24 24 20 24 26 19 25 27 26 29 22 24 31 27 26 27 31 33 36 37 35 43 39 49 50 54 60 62 69 74 78 82 85 87 90 84 85 87 86 85 87 65 65 57 63 64 64 69 78 80 87 93 100 102 100 100 104 106 115 110 118 126 139 158 162 171 168 


