P2
80 60
154
131 132 131 133 133 134 135 134 131 132 133 130 130 129 129 131 129 130 130 128 131 129 123 127 128 132 128 130 129 130 131 129 128 130 130 126 127 133 131 131 129 130 131 129 135 135 133 132 136 134 128 134 135 132 135 133 135 137 136 132 133 129 137 131 130 129 125 126 126 129 127 124 128 124 129 122 122 123 120 122 
133 137 136 133 133 131 133 132 132 134 131 128 132 130 130 128 134 131 132 131 135 130 129 124 127 129 131 131 131 130 129 129 133 132 132 130 129 132 131 132 132 131 132 130 132 132 133 132 134 131 130 132 131 132 135 137 136 136 135 135 134 132 132 134 128 130 125 126 125 125 124 126 127 124 126 126 122 120 121 119 
133 132 132 130 132 129 132 133 132 134 133 136 133 130 129 131 132 131 132 132 135 132 128 130 129 132 131 132 129 131 130 132 129 131 134 131 130 133 132 134 131 131 126 128 131 133 131 134 132 132 131 131 133 130 134 132 134 134 135 135 130 132 128 132 131 127 125 125 126 127 125 126 127 127 126 127 119 124 120 123 
133 136 132 131 133 132 135 131 132 135 136 132 133 133 131 128 132 132 131 130 130 131 133 131 132 128 132 131 133 132 131 131 130 130 132 132 130 134 136 132 133 131 131 128 130 128 131 131 136 130 132 133 131 131 132 133 128 131 133 135 135 130 131 131 132 127 127 125 125 127 128 133 127 129 126 124 122 123 127 123 
137 134 131 136 135 138 135 131 133 136 134 130 133 132 132 135 132 133 134 136 133 131 134 137 132 134 133 132 130 131 130 128 129 127 130 132 133 133 137 133 132 131 131 132 132 130 133 132 134 132 132 132 129 129 131 133 128 127 135 130 132 130 131 131 130 129 126 127 126 130 128 126 127 131 128 125 121 125 125 125 
137 131 133 134 136 134 135 133 136 138 136 134 134 131 130 136 134 133 132 135 134 134 134 134 133 131 133 131 129 133 127 127 131 129 130 131 132 133 133 134 133 130 135 132 132 131 138 134 135 134 134 137 137 133 133 134 129 130 136 132 134 128 130 129 130 126 126 132 130 128 131 127 130 126 128 124 125 128 125 119 
137 133 134 133 135 136 136 132 136 135 136 136 135 137 136 140 139 137 137 134 135 134 132 134 131 134 131 132 131 129 127 126 126 128 131 130 136 135 135 134 132 131 135 133 137 135 138 136 140 134 133 138 138 135 133 136 135 143 144 139 137 133 131 132 133 130 127 134 128 129 127 129 126 125 126 127 125 128 130 124 
137 138 132 137 134 136 138 135 136 136 134 136 131 132 128 135 139 133 134 135 136 132 133 133 132 135 131 133 133 132 130 129 126 129 131 134 135 134 132 133 135 130 134 132 139 134 134 138 135 132 136 138 137 137 135 140 134 138 142 141 140 141 140 137 137 135 131 137 136 130 130 129 127 129 124 124 127 125 124 126 
137 139 136 137 135 135 138 134 134 135 133 135 132 133 133 133 136 135 137 135 135 132 133 131 133 131 134 131 133 133 131 126 129 130 131 132 132 135 134 129 131 131 132 132 137 136 135 134 134 134 135 140 135 139 136 138 134 139 140 138 140 139 145 138 138 133 140 137 135 131 129 129 128 126 127 125 122 123 127 121 
137 139 136 136 137 137 140 134 136 137 136 135 132 131 132 134 140 135 134 133 134 131 128 132 130 132 130 134 131 131 129 125 129 130 130 132 131 132 132 131 129 130 131 130 135 133 133 132 133 134 135 132 135 132 134 137 133 132 137 140 136 138 140 139 133 133 137 136 137 130 127 126 126 126 123 123 122 123 122 128 
135 136 133 138 134 135 138 137 136 138 135 135 134 128 129 131 136 134 131 130 134 132 127 131 130 132 130 131 131 130 131 129 130 128 127 130 133 134 133 136 132 131 131 126 133 133 130 134 128 135 135 135 132 132 133 137 134 137 143 137 138 136 137 140 135 134 134 137 132 130 129 128 125 126 122 126 123 121 118 121 
138 140 139 141 134 134 140 139 133 136 135 133 132 131 129 131 133 130 129 133 132 134 131 131 127 132 129 133 132 129 131 132 130 128 131 130 131 132 135 132 133 129 128 128 130 130 133 133 133 134 134 132 133 132 135 137 136 137 138 139 139 139 140 139 139 136 131 137 135 129 128 125 125 126 124 133 126 128 121 130 
140 140 143 141 136 134 137 136 134 134 133 135 130 129 130 129 130 125 130 129 129 133 129 130 127 130 131 133 130 129 129 131 131 132 130 129 132 132 134 131 131 128 129 128 135 131 132 131 135 132 133 132 133 134 136 137 139 139 138 139 139 143 145 139 137 133 134 134 135 130 119 126 125 127 130 129 132 125 122 122 
143 148 145 140 140 138 138 133 133 131 127 133 132 131 126 130 132 129 130 130 132 129 130 128 127 129 130 129 129 126 125 128 130 132 130 128 130 132 130 134 131 127 128 126 129 132 129 132 135 137 134 135 133 132 132 137 136 141 139 139 140 138 139 137 138 137 133 134 131 129 131 120 126 125 126 128 121 122 126 126 
143 144 143 145 143 135 140 138 134 132 129 129 133 132 126 131 130 130 132 131 129 127 133 131 131 131 126 130 129 131 129 128 128 133 132 129 127 131 131 134 132 129 129 121 127 127 125 129 134 130 135 135 134 134 137 140 141 154 141 138 139 140 140 141 139 135 133 136 133 131 126 124 129 127 125 125 121 121 123 121 
143 145 142 143 142 137 137 140 139 136 135 129 130 131 127 133 131 129 129 129 128 129 128 126 127 131 130 131 131 130 130 130 127 128 129 129 129 126 130 134 132 130 129 126 127 128 126 124 131 130 132 135 135 134 136 136 140 144 143 138 141 136 144 134 139 138 134 137 134 129 129 126 131 130 125 129 124 130 127 131 
144 145 145 142 140 138 140 137 136 135 137 135 128 131 130 134 132 130 129 127 130 128 128 128 129 129 128 130 131 130 131 128 126 128 132 129 130 130 132 132 130 129 131 126 129 134 127 130 131 127 134 138 136 137 135 136 136 142 141 139 141 140 139 137 136 133 132 137 135 131 126 128 137 129 128 124 124 124 122 123 
146 145 145 143 138 142 141 139 135 133 137 136 134 130 129 135 132 129 132 131 128 129 129 129 128 130 127 129 129 127 129 127 130 130 128 128 131 129 130 134 133 127 129 126 132 127 128 130 131 130 129 136 135 135 139 137 136 143 140 136 139 138 139 136 138 134 134 135 136 129 127 129 130 126 123 121 123 123 122 124 
143 148 141 144 142 138 139 134 138 134 134 134 133 132 128 133 135 132 132 134 130 130 132 129 129 130 129 130 133 127 127 130 132 129 130 132 130 133 133 135 133 129 126 129 129 128 129 129 132 129 134 134 138 136 138 138 136 138 140 137 140 140 136 139 140 133 134 135 137 131 129 126 126 127 121 127 120 120 123 121 
143 148 145 144 142 139 134 132 137 134 138 134 134 131 133 132 134 130 130 132 130 133 134 133 130 130 131 128 130 131 130 128 127 129 130 130 129 132 129 133 132 128 128 126 133 125 128 130 131 131 132 139 135 131 138 140 134 137 139 137 141 140 139 138 133 133 136 137 135 133 128 126 126 122 124 123 119 117 120 128 
145 143 144 141 141 137 138 139 133 133 136 137 135 138 131 131 133 132 133 127 129 131 133 131 131 133 127 128 131 128 134 129 130 129 131 130 131 131 132 131 132 129 127 128 131 126 125 127 132 130 135 133 137 135 135 134 133 135 138 136 140 135 140 137 137 136 132 134 135 130 130 128 127 126 123 124 124 118 120 128 
142 146 144 142 139 138 137 136 133 137 134 135 140 136 130 132 132 132 131 130 130 133 132 130 130 128 130 128 128 128 128 131 129 129 127 129 132 128 131 130 130 128 126 130 130 125 125 127 131 130 134 136 136 137 134 135 134 135 138 135 140 136 142 139 138 132 134 135 136 136 133 126 127 124 125 121 121 124 129 127 
145 145 142 147 142 138 138 138 135 135 134 136 136 133 128 133 130 133 130 131 129 130 129 131 130 128 129 129 128 124 127 127 128 125 127 129 129 131 131 131 127 121 120 124 130 119 125 127 131 132 134 136 133 131 133 136 131 136 138 137 143 143 137 136 136 138 135 137 135 133 131 127 128 125 123 123 125 127 121 122 
144 144 142 142 140 136 140 145 135 134 135 133 130 132 133 134 130 132 131 131 129 130 130 127 129 131 125 128 129 130 127 126 127 126 128 130 127 131 128 129 129 121 118 121 124 117 121 129 129 133 132 131 135 135 134 133 134 133 136 135 138 135 142 140 136 134 135 136 134 133 132 126 129 127 123 123 124 125 126 126 
146 142 136 142 139 135 136 134 136 134 132 130 131 132 130 132 132 129 128 130 132 130 129 129 129 131 128 131 130 126 129 127 126 126 128 128 131 127 128 126 133 124 120 119 122 118 117 123 129 128 129 132 134 132 134 131 131 135 134 132 136 136 136 137 137 136 134 135 135 134 128 125 127 127 125 119 126 121 126 132 
144 143 142 138 135 136 134 136 132 134 133 132 131 132 131 131 131 132 128 128 129 132 131 130 130 132 128 129 129 128 127 127 127 125 123 128 130 128 128 128 128 125 122 118 125 120 122 129 130 126 130 132 130 131 132 131 129 134 137 133 137 137 137 133 140 134 134 132 134 130 131 124 130 124 127 130 125 125 125 124 
143 142 143 139 140 137 138 133 132 134 136 133 135 132 128 135 133 131 128 132 130 128 136 129 130 132 130 127 127 127 125 126 126 127 127 123 128 127 127 128 128 118 123 119 124 118 119 129 133 128 132 130 131 129 132 134 130 133 133 135 135 135 137 135 136 135 133 134 133 132 128 126 128 125 129 128 125 127 124 124 
139 147 141 140 141 136 135 137 128 133 135 131 129 129 128 131 132 127 128 130 130 130 131 130 130 131 130 129 126 125 127 127 126 123 124 125 127 128 129 129 126 119 120 118 120 118 118 124 131 127 131 130 128 130 131 131 129 129 132 133 137 134 135 135 137 134 133 133 133 130 129 122 123 125 126 127 127 128 125 126 
142 142 144 139 137 137 135 137 133 132 135 131 127 131 130 131 130 131 132 130 130 130 131 132 130 129 129 129 127 125 125 125 127 124 125 126 127 127 129 129 128 119 118 119 120 118 121 128 130 125 130 132 132 127 131 131 130 129 133 131 136 134 137 136 136 133 133 133 134 130 127 124 126 125 127 124 124 126 128 124 
143 151 145 142 136 136 136 135 136 136 131 128 129 133 128 130 130 127 128 127 130 130 129 129 128 132 127 127 126 125 125 128 125 124 129 126 126 128 126 130 126 121 119 119 119 115 119 130 129 128 130 132 129 128 131 133 126 131 130 131 134 133 135 136 134 134 132 136 133 130 128 126 126 127 122 124 124 124 124 122 
142 147 144 135 138 133 132 135 134 135 133 130 129 130 126 129 130 129 127 128 126 130 130 129 128 132 129 129 128 126 124 125 125 124 126 125 124 126 127 127 125 123 121 117 121 119 116 127 127 129 132 129 130 127 128 131 127 128 132 130 131 134 132 132 135 131 129 133 133 129 127 126 126 126 121 121 122 124 119 122 
143 147 144 138 136 136 136 137 135 131 133 132 128 130 126 130 131 127 128 128 129 127 129 129 130 131 129 129 127 128 126 128 125 125 127 126 129 126 127 128 131 121 118 117 119 115 117 125 129 129 129 129 131 129 132 130 129 129 129 128 131 134 133 130 133 131 132 132 133 132 128 124 124 122 124 123 123 120 120 122 
140 142 139 134 140 134 135 134 134 128 131 129 131 128 127 130 131 130 125 129 128 130 128 130 131 131 128 132 126 129 127 125 123 123 128 126 128 127 128 127 123 121 119 116 121 115 118 123 128 126 128 131 128 126 129 132 126 131 127 130 130 128 133 133 134 128 130 135 135 130 123 124 125 124 122 123 121 122 122 122 
137 143 139 133 138 132 134 133 134 136 130 132 129 128 127 129 132 130 125 130 130 127 131 132 129 130 129 128 128 128 127 125 125 122 124 125 126 127 126 129 126 117 121 118 120 115 118 124 129 124 124 131 126 126 129 129 129 128 129 128 128 133 132 133 132 131 129 131 134 130 125 129 126 123 124 121 123 121 116 119 
141 142 142 134 135 131 134 136 133 132 131 131 130 128 129 130 129 130 128 130 127 130 128 129 130 131 128 129 126 128 125 127 126 124 126 127 128 126 127 126 125 116 117 115 120 116 118 123 129 125 126 128 131 128 128 128 128 128 128 129 129 131 135 132 133 130 131 132 132 128 125 124 127 125 122 121 120 120 121 121 
140 143 140 134 139 132 134 135 133 131 130 130 128 124 123 129 129 129 129 127 129 129 128 124 129 127 125 130 128 124 128 127 128 125 128 125 125 128 128 130 126 112 115 114 118 112 121 125 129 123 127 130 129 122 127 127 124 126 124 131 131 133 132 133 133 131 128 130 132 127 123 124 124 126 120 120 118 125 120 115 
137 142 139 139 137 137 135 135 132 133 131 130 129 128 127 128 132 130 129 128 129 128 130 126 126 127 126 128 128 126 125 126 123 124 126 122 132 128 126 123 125 117 114 115 117 109 119 121 127 123 127 129 127 125 132 128 125 125 128 128 131 129 130 129 132 131 129 130 131 127 126 124 126 125 120 123 121 121 119 119 
144 144 136 136 135 135 134 132 133 129 134 130 135 126 126 129 131 132 129 128 128 128 128 129 127 128 127 124 124 125 124 126 126 126 126 125 128 127 126 127 125 118 114 115 117 112 116 122 123 125 126 128 129 124 130 130 123 124 126 126 125 126 130 129 135 132 126 129 127 126 122 123 122 123 122 122 124 120 123 124 
141 143 149 139 136 130 133 132 133 134 134 127 132 127 126 130 131 131 130 128 128 131 127 128 127 132 126 126 125 126 127 126 126 128 127 127 123 125 126 124 121 116 112 113 112 117 114 122 127 128 127 128 129 126 127 129 120 124 125 123 130 128 129 126 133 130 126 126 125 124 121 121 125 124 122 120 123 121 122 120 
140 141 139 140 135 131 133 134 134 129 139 132 130 124 127 127 129 128 130 126 127 129 126 130 129 130 128 129 124 127 122 124 123 122 125 125 126 126 126 125 119 114 112 110 114 114 117 118 126 127 128 129 125 125 127 126 120 118 123 125 128 127 126 128 132 129 127 128 126 125 120 123 122 123 123 122 121 123 121 124 
142 141 139 136 137 136 133 134 131 132 132 129 126 129 124 130 129 127 129 129 130 127 127 128 127 128 132 124 126 125 122 123 125 124 124 126 125 126 125 121 122 114 112 109 115 114 113 122 123 124 126 127 127 132 131 128 122 123 120 122 123 127 129 126 131 127 124 123 124 123 120 123 119 122 123 122 119 120 129 125 
140 140 135 135 137 129 131 131 133 131 130 129 131 125 127 130 127 126 129 126 126 127 126 129 126 132 128 129 123 124 124 125 122 123 123 127 127 126 124 123 119 113 111 114 114 116 116 124 126 119 125 124 126 124 125 130 122 122 121 122 125 128 130 127 133 128 124 123 122 120 120 119 124 124 123 120 121 118 121 123 
139 138 144 128 132 129 132 130 128 130 129 128 130 126 128 126 128 128 127 127 128 127 126 128 130 127 125 125 125 125 124 124 123 122 125 127 125 129 123 124 121 112 112 109 114 115 119 119 128 122 125 126 123 122 126 124 123 117 121 124 128 128 129 130 130 127 120 122 123 121 120 118 123 128 122 119 122 122 123 124 
137 140 137 131 132 132 131 129 127 129 128 130 123 127 126 125 125 124 127 126 127 126 129 129 125 127 128 124 123 125 126 125 121 122 124 124 122 123 126 125 123 109 110 109 113 110 114 126 125 120 125 122 124 119 124 124 117 118 119 121 124 121 125 126 126 122 122 123 122 121 120 122 120 121 121 119 118 119 121 120 
136 137 133 123 135 126 129 129 127 130 128 128 129 126 125 128 127 127 127 126 128 123 123 124 125 127 125 125 123 123 123 122 122 121 121 124 124 124 123 123 122 111 110 110 112 109 118 121 124 122 119 122 121 120 123 121 115 119 122 122 124 124 126 129 122 124 125 122 124 122 115 120 122 125 120 120 116 118 119 120 
138 139 134 125 134 125 127 130 125 128 128 127 127 131 131 128 130 129 127 126 125 124 122 125 125 125 124 124 123 125 125 123 122 119 123 125 127 123 123 122 121 110 111 108 113 107 114 118 119 121 121 119 118 119 118 118 117 118 118 119 125 124 125 123 126 124 123 126 124 118 118 123 121 125 126 119 118 118 115 122 
137 134 133 127 128 127 127 127 127 126 128 125 127 129 127 129 127 128 122 126 128 128 123 125 123 126 124 121 123 123 121 121 121 121 119 122 124 124 123 123 119 107 109 105 110 108 114 116 120 116 118 118 120 120 118 119 116 118 121 120 122 123 124 122 124 125 122 125 121 121 113 122 122 125 121 119 120 120 116 122 
136 134 134 127 129 124 128 129 125 126 127 125 127 125 125 127 123 126 126 125 125 123 126 124 124 125 123 126 124 122 123 121 121 120 120 123 125 123 127 124 116 107 99 107 112 110 115 114 116 113 119 117 118 115 120 119 115 116 116 120 122 120 123 123 121 123 121 123 119 118 118 121 122 123 117 117 117 118 114 114 
136 132 129 129 133 127 131 127 127 127 126 123 124 127 123 127 126 132 124 124 123 125 127 126 123 121 123 124 123 124 124 121 121 118 121 123 122 123 124 126 109 72 68 98 110 108 116 112 114 110 115 117 113 115 117 119 116 114 114 117 122 123 126 123 122 121 119 119 120 119 115 117 122 122 117 116 114 112 118 117 
133 135 126 130 130 125 126 127 124 126 123 125 128 122 127 127 124 121 124 123 125 123 124 125 123 124 120 122 123 122 122 124 119 118 121 119 122 121 123 119 98 15 17 82 107 105 110 112 112 109 113 114 117 115 118 119 112 113 116 119 121 122 124 121 120 118 118 121 122 114 116 118 122 124 117 116 114 114 115 111 
135 139 130 130 128 127 124 124 127 126 127 123 122 124 124 125 128 125 125 126 123 122 124 119 126 123 119 121 121 121 122 118 117 120 123 121 123 117 121 119 86 5 11 71 101 98 105 110 111 110 111 111 110 115 119 117 114 115 118 116 116 121 122 121 121 116 119 122 121 114 111 118 123 122 118 117 118 115 113 108 
138 136 133 130 130 126 126 126 123 124 124 123 124 122 120 128 127 120 123 121 124 123 121 124 123 121 122 119 120 120 120 116 120 120 124 121 116 114 119 119 82 0 12 69 98 95 105 109 113 112 109 111 112 112 117 116 119 116 116 118 119 118 119 118 120 119 121 120 117 115 112 115 122 121 118 115 113 112 111 111 
136 132 131 131 130 126 126 125 124 125 123 123 123 122 122 124 123 121 120 122 120 122 123 123 123 123 119 121 119 119 120 121 117 115 120 119 117 118 117 116 83 0 10 68 93 95 106 108 111 108 110 109 109 112 117 117 112 115 117 117 117 121 118 116 116 119 114 114 118 114 112 115 120 118 118 111 111 113 109 111 
134 133 127 126 135 130 127 125 121 122 123 122 125 121 119 121 120 119 121 120 122 121 120 121 122 122 120 119 118 118 118 117 117 115 119 118 116 117 116 113 75 0 13 65 93 96 103 106 110 109 110 110 109 107 112 116 115 114 111 118 117 115 118 118 117 115 119 114 118 114 114 120 122 122 114 110 112 110 112 106 
133 131 128 127 127 128 124 124 123 125 125 122 125 120 120 123 123 117 119 118 120 120 121 121 119 121 124 119 115 117 116 113 119 115 117 117 118 113 111 111 73 3 12 68 92 96 102 108 110 108 110 105 108 108 111 114 112 111 113 115 118 116 117 114 117 118 111 117 116 109 111 120 120 120 112 110 107 110 106 106 
130 131 130 129 125 123 127 126 122 126 128 125 123 123 119 121 119 118 118 119 120 119 119 121 119 121 121 119 116 118 117 115 116 114 117 117 115 113 111 111 71 4 16 62 97 95 105 107 108 108 108 109 107 103 107 108 108 110 111 114 115 115 118 114 118 116 116 114 115 111 116 118 121 118 111 107 107 106 103 111 
131 137 134 129 126 122 128 124 122 123 125 119 127 121 119 121 119 118 117 123 119 118 117 121 119 120 115 118 116 114 114 113 112 111 114 115 115 115 111 110 72 7 13 54 94 97 107 107 112 107 108 107 105 102 105 105 106 110 111 113 117 118 120 119 116 114 113 110 115 110 110 118 120 116 111 110 109 105 103 106 
129 133 128 125 126 120 120 121 123 126 123 115 123 120 116 119 119 115 118 119 121 116 115 115 113 112 113 111 114 116 114 111 115 115 112 112 112 112 111 107 66 6 10 36 91 96 109 106 110 105 105 104 98 95 104 103 103 101 112 112 119 116 117 115 114 112 112 112 112 111 108 115 114 115 110 112 104 110 108 103 
130 132 124 122 126 123 124 123 120 124 122 119 121 119 113 113 116 113 112 114 119 109 115 117 115 113 113 115 114 112 109 107 112 107 112 109 114 111 110 106 63 4 4 30 91 96 105 108 112 105 103 106 103 94 104 105 100 104 109 113 114 114 113 114 118 113 107 106 109 107 107 115 115 111 108 110 103 98 102 99 
127 130 126 122 125 119 122 122 122 122 119 121 120 115 114 115 115 114 116 115 116 109 116 115 112 115 111 112 113 113 109 111 111 110 111 110 112 116 111 106 72 11 9 51 95 99 109 109 113 105 96 104 103 98 101 102 101 103 111 108 112 113 112 113 111 112 108 106 111 107 107 114 112 112 108 112 110 103 103 102 


