P2
80 60
274
159 159 159 156 153 156 158 153 151 150 160 153 150 154 155 153 153 151 147 147 143 138 120 68 25 34 45 65 84 108 101 116 128 128 138 133 126 128 129 131 131 135 136 135 127 129 132 127 128 127 127 127 125 122 118 126 130 134 137 130 131 138 144 142 148 143 142 139 139 141 140 140 144 147 149 142 143 137 142 145 
155 159 157 156 152 157 161 155 149 152 152 152 149 156 154 151 153 148 147 143 142 141 114 68 22 33 49 66 89 105 99 115 124 126 136 128 128 129 127 131 129 133 144 140 129 131 129 130 127 126 126 128 126 125 123 124 137 132 136 127 133 135 138 142 145 140 140 142 139 139 142 145 144 149 143 141 144 140 144 143 
159 156 156 158 153 160 162 158 150 152 154 152 152 156 153 154 148 149 149 144 140 136 112 66 29 41 60 71 89 108 98 118 124 128 129 129 130 129 129 128 129 132 131 131 127 130 127 131 127 127 128 128 126 123 122 120 136 132 137 129 131 136 141 143 143 139 141 144 142 142 146 143 144 145 144 143 144 144 143 144 
161 157 157 156 153 159 161 151 150 154 159 155 153 160 156 155 149 149 148 144 145 140 115 64 23 47 54 77 92 106 101 119 121 120 125 126 130 129 131 126 130 132 133 129 128 132 132 128 131 129 128 126 123 119 121 118 128 131 136 131 132 137 142 148 145 141 144 143 141 143 143 145 142 145 145 143 146 142 144 144 
158 158 158 158 154 158 162 152 153 154 151 151 150 155 157 152 147 149 147 144 144 137 113 57 29 41 57 79 91 105 97 112 115 120 119 124 124 128 131 130 129 132 129 131 128 131 130 132 129 129 128 128 126 118 118 122 128 132 136 128 131 140 144 146 147 142 148 144 143 147 145 143 143 148 147 141 146 140 146 143 
160 160 160 156 152 159 159 150 153 149 149 148 152 153 152 152 149 151 148 144 141 141 109 53 24 30 50 69 87 101 93 108 118 116 118 123 121 124 128 128 128 129 131 129 132 134 133 130 130 131 128 129 126 119 119 122 128 131 136 131 132 135 141 148 142 146 141 147 150 145 146 144 145 146 145 144 145 144 145 149 
159 158 156 159 155 155 157 148 141 144 150 153 153 153 158 149 153 151 150 140 144 138 102 48 14 17 36 57 72 93 91 114 112 112 120 119 118 121 125 127 127 127 126 130 127 133 133 130 130 130 131 131 127 116 118 121 132 137 144 130 131 134 140 142 148 145 141 145 144 146 145 142 144 144 145 145 146 141 142 142 
157 158 156 161 152 161 155 146 140 152 155 152 153 153 156 150 147 151 150 139 148 133 96 38 9 14 35 49 59 82 93 106 111 110 115 120 117 120 123 124 126 126 126 126 126 128 133 129 127 130 128 129 129 118 111 122 128 139 136 129 129 135 141 143 146 143 141 146 146 142 143 141 141 143 144 143 142 141 142 142 
162 158 162 161 155 157 155 147 143 148 150 158 154 154 154 148 151 149 149 136 144 133 89 38 7 13 32 40 51 75 91 106 110 109 113 116 117 116 122 121 124 122 126 128 126 128 130 128 125 129 127 131 127 122 113 119 131 132 135 130 128 140 145 144 145 144 140 147 145 146 145 145 143 145 147 141 145 139 144 138 
162 155 160 164 156 157 161 147 141 146 152 153 150 151 154 151 154 150 145 137 142 130 91 29 6 14 23 37 51 68 85 103 106 107 110 115 113 116 118 118 122 121 126 127 124 130 128 125 127 133 126 125 125 119 115 122 131 136 131 131 129 133 139 144 145 143 142 144 144 140 142 143 143 141 141 142 145 138 139 140 
158 160 155 157 155 157 164 147 144 153 152 154 148 156 154 154 151 148 151 140 145 132 90 32 13 10 15 37 54 76 82 98 104 104 106 114 111 112 118 117 119 120 120 123 125 127 127 125 127 127 129 125 122 115 113 124 128 134 134 129 125 133 140 150 145 146 141 144 139 142 138 141 141 143 143 144 145 138 145 140 
160 158 158 159 152 155 160 152 151 149 149 151 148 155 155 149 150 150 147 141 145 131 89 33 11 9 15 43 59 74 83 95 97 102 112 119 118 113 114 117 120 119 121 125 123 125 127 127 130 129 128 124 124 115 112 117 128 133 131 125 124 133 143 146 147 140 143 143 140 139 140 139 144 145 143 144 144 138 146 142 
157 157 158 160 150 155 158 145 147 143 144 138 148 150 152 149 148 149 145 139 147 135 90 34 10 6 15 42 62 72 81 87 90 104 118 125 120 120 114 115 117 118 118 123 123 123 127 126 123 126 126 124 120 108 112 120 128 128 130 122 125 135 145 144 146 140 142 144 141 139 134 140 144 143 145 141 147 141 141 141 
160 157 158 155 152 151 155 147 144 139 134 138 147 152 152 151 146 150 146 137 148 130 94 25 9 7 18 38 54 67 77 86 89 107 119 127 128 125 110 114 117 117 118 121 121 132 123 128 127 131 125 126 121 116 112 121 130 132 131 121 128 136 143 141 145 143 140 146 141 140 141 139 142 143 142 140 145 141 141 140 
158 157 158 159 151 150 154 141 140 136 131 136 144 151 153 150 151 151 147 135 142 131 91 30 8 8 21 36 55 66 76 84 88 103 109 119 119 118 109 112 116 116 118 118 121 129 123 124 125 130 124 128 119 109 115 130 134 143 136 123 126 137 143 147 145 142 142 144 139 141 143 142 141 146 146 141 143 139 141 141 
154 159 158 156 151 149 151 141 147 129 123 130 141 150 152 150 147 145 145 134 143 125 94 22 12 8 21 34 45 69 75 87 83 98 111 114 114 108 107 112 112 117 117 116 119 122 123 125 125 126 125 125 118 108 112 128 129 135 136 123 126 135 143 140 141 143 142 146 143 143 142 142 144 144 143 139 143 140 142 142 
156 159 159 157 148 151 152 139 138 126 118 130 143 147 151 151 151 149 147 140 144 120 91 21 9 6 24 31 46 64 77 88 88 106 116 118 118 105 106 109 111 116 117 121 119 120 123 121 123 124 123 125 119 110 112 127 131 135 131 123 125 138 143 143 139 141 141 142 143 144 142 145 148 144 144 142 139 141 145 147 
154 159 158 154 148 149 150 136 126 122 121 133 141 149 152 151 150 148 144 141 144 115 93 19 10 7 16 34 44 70 83 98 102 113 116 118 117 113 112 116 111 113 111 119 116 121 120 120 122 125 122 121 117 113 114 127 130 138 135 123 129 135 140 138 144 143 141 143 143 141 143 146 145 144 144 140 141 139 142 142 
154 157 154 157 148 148 149 126 119 109 113 127 133 147 151 148 149 149 151 142 141 115 92 26 9 8 19 30 45 78 90 105 103 108 111 114 116 118 122 125 117 114 113 117 117 116 120 118 125 122 121 121 122 115 111 127 130 132 133 124 126 134 139 145 142 143 139 143 145 143 144 147 147 147 144 140 141 140 143 140 
152 157 156 153 146 151 147 129 114 112 114 119 133 143 148 149 149 149 148 142 138 118 93 20 9 8 19 33 46 78 90 103 100 101 104 106 111 117 121 124 121 113 115 116 114 115 122 120 123 122 122 122 120 111 110 130 130 128 130 123 128 135 144 141 144 141 142 146 144 145 147 145 145 141 142 139 140 140 138 142 
157 154 152 153 151 149 149 126 119 127 119 122 139 145 150 145 150 148 147 142 139 108 88 21 8 6 19 33 45 78 98 101 97 98 98 104 110 111 116 121 122 112 113 112 114 114 119 117 121 126 122 124 119 108 114 130 128 128 131 125 128 134 141 146 142 143 144 144 145 145 146 145 147 142 142 138 143 143 146 145 
157 151 154 156 145 143 148 131 130 127 124 132 143 145 148 146 149 147 146 144 138 108 88 18 6 7 17 29 46 74 97 100 98 96 99 103 108 113 118 122 125 112 111 111 110 118 119 117 121 122 123 124 116 109 106 129 127 133 131 125 128 136 145 143 146 147 145 143 146 149 148 146 145 148 143 138 142 142 144 146 
154 153 149 157 140 142 147 131 129 121 118 132 132 145 148 150 149 149 143 141 135 109 83 18 9 10 15 32 48 79 92 99 96 97 101 103 103 110 115 121 124 112 107 110 106 113 117 118 118 122 122 120 116 108 113 124 127 130 132 125 130 138 143 144 144 149 143 146 144 145 146 147 145 147 144 142 145 141 141 141 
152 151 152 151 135 140 144 128 126 124 123 129 131 145 146 149 147 149 145 141 129 104 82 17 12 9 17 29 54 82 94 96 95 95 100 100 103 108 114 121 122 115 110 111 111 114 117 115 121 121 121 122 114 103 107 127 126 128 130 123 129 139 145 142 142 143 150 150 147 145 147 144 146 145 143 144 145 141 141 139 
151 152 150 147 134 139 141 126 125 122 124 124 132 140 146 143 149 147 143 141 121 105 76 18 16 12 18 32 51 83 84 95 93 95 96 101 101 104 111 121 126 114 105 111 112 113 117 115 119 118 119 115 110 102 110 125 126 126 130 122 127 137 142 139 146 143 150 150 146 144 150 143 145 147 145 140 147 142 144 145 
148 151 147 150 132 135 144 127 123 120 121 125 129 137 147 144 147 142 145 142 115 100 74 21 14 20 24 33 50 81 93 98 97 97 96 100 100 102 100 112 120 114 104 110 110 114 114 118 115 118 115 116 107 106 103 125 126 125 132 122 125 132 143 140 151 146 147 147 144 145 143 145 141 148 150 141 143 141 144 145 
149 146 149 144 134 136 144 125 119 119 114 124 128 136 143 142 145 147 145 140 114 97 77 22 25 26 26 41 58 87 98 103 99 100 101 106 104 103 99 100 108 105 105 112 110 115 116 117 116 119 116 115 105 103 104 129 124 126 128 121 130 140 141 142 146 145 144 144 142 143 143 146 144 148 145 141 146 142 146 146 
154 152 154 156 133 136 139 120 103 103 116 117 122 136 140 139 141 144 145 141 114 96 67 27 31 35 36 46 57 76 93 103 95 96 96 99 102 104 101 98 102 105 108 109 107 113 115 112 116 116 115 116 106 101 106 127 126 128 127 121 130 140 143 147 147 146 147 148 144 144 146 147 142 146 143 142 143 141 143 142 
152 150 152 155 130 134 139 118 101 102 108 118 124 137 138 138 141 138 143 141 106 86 69 26 32 38 35 49 60 73 87 96 95 91 95 98 100 104 103 103 100 99 104 106 108 107 112 111 114 117 115 114 105 101 107 119 126 122 126 119 127 138 144 145 144 144 144 147 145 147 146 143 143 143 143 141 143 140 140 144 
156 153 156 149 129 134 136 117 100 104 111 116 128 137 140 138 140 143 141 133 99 87 70 26 32 38 37 46 59 77 85 94 91 92 95 97 99 105 104 98 99 102 104 106 106 109 110 114 112 116 116 114 103 99 110 125 123 123 125 115 132 135 146 144 149 147 151 150 149 147 144 145 144 144 143 143 144 143 145 148 
153 151 149 143 129 128 136 117 99 101 115 125 132 136 140 137 142 140 137 134 99 90 71 31 38 45 41 45 58 74 85 89 88 93 96 98 95 98 103 96 96 100 104 103 108 110 106 111 113 112 113 114 102 97 113 126 126 123 126 115 129 137 145 140 144 145 145 149 146 146 147 145 145 146 143 143 145 143 140 142 
153 151 151 143 129 128 134 116 94 106 113 126 132 135 135 137 143 136 138 131 96 90 70 27 36 46 46 48 58 74 81 87 91 85 92 95 96 98 98 99 101 98 102 105 104 109 107 108 111 114 113 110 105 96 117 122 124 123 127 114 127 139 145 143 147 144 145 149 147 147 147 145 144 145 144 140 141 142 144 142 
151 148 147 148 127 124 133 118 103 106 119 122 128 136 142 135 141 135 134 130 97 89 70 30 39 48 44 47 61 73 80 88 86 89 89 98 96 98 99 96 101 99 104 105 106 108 111 110 111 116 111 112 101 95 118 121 120 120 121 114 128 140 144 145 145 145 147 149 151 148 148 143 143 146 147 144 145 140 145 143 
149 145 148 144 126 121 132 113 105 109 122 98 107 136 135 135 133 134 131 127 92 90 64 27 35 48 45 48 59 75 82 88 87 85 91 91 101 98 96 95 96 99 103 102 102 110 111 110 112 115 110 110 97 92 114 120 119 118 118 113 127 141 143 142 146 147 147 146 148 146 146 145 145 149 147 143 146 141 141 146 
153 146 149 147 126 117 130 114 107 108 105 81 96 117 119 124 129 132 120 117 91 90 67 27 34 45 46 48 57 67 80 85 83 84 91 92 94 93 92 92 96 96 100 100 102 110 110 115 109 111 112 108 97 92 116 121 118 118 114 112 127 141 144 144 146 146 145 150 149 146 150 147 146 150 149 145 145 148 145 152 
146 150 148 147 125 115 128 110 73 68 74 71 77 82 86 86 107 109 84 96 84 86 61 24 33 44 44 52 54 66 80 84 86 82 93 95 94 88 88 90 94 93 96 97 99 103 107 111 109 111 109 106 97 91 112 119 113 116 114 114 125 138 144 140 142 143 145 146 147 150 152 145 145 147 146 145 143 144 146 145 
149 151 147 143 127 113 126 110 72 53 66 65 69 72 72 79 82 75 71 81 86 82 58 21 23 40 46 49 56 68 77 84 81 81 89 93 89 84 85 87 93 95 93 95 99 102 107 108 108 109 109 106 96 90 112 116 112 107 109 114 128 137 140 139 140 144 144 151 148 145 147 147 147 150 146 145 147 143 145 147 
144 149 146 145 125 112 125 109 83 52 64 63 67 70 72 72 77 74 64 78 81 79 54 14 16 32 41 47 54 62 75 82 83 83 87 89 77 82 82 89 93 92 93 93 97 103 101 105 106 109 109 106 94 91 110 116 107 107 108 114 126 136 142 138 144 148 148 150 149 151 151 149 152 150 149 144 147 142 144 147 
144 148 149 145 124 110 123 110 87 53 55 57 63 68 66 67 72 65 61 74 79 78 49 12 10 30 33 44 55 61 71 82 82 82 86 81 76 78 82 86 86 90 92 96 94 98 100 102 103 108 106 104 98 92 110 114 107 102 106 108 119 137 139 140 144 144 144 147 147 151 150 147 151 149 148 141 146 145 145 143 
144 147 146 145 128 106 120 110 81 48 52 56 56 60 58 60 62 63 60 69 75 69 39 9 10 27 38 48 54 65 70 79 80 81 77 74 73 76 81 81 87 88 91 97 93 99 105 104 105 110 107 103 90 92 109 111 104 102 102 111 124 136 138 140 141 144 146 151 151 163 170 164 153 154 151 147 151 146 150 154 
147 147 148 147 124 101 120 107 84 46 44 42 52 55 54 51 61 54 59 69 69 66 34 4 17 40 49 55 56 61 73 80 80 77 71 73 75 74 78 84 97 99 109 117 120 125 127 125 125 126 127 121 107 111 114 112 98 100 102 109 121 139 139 141 143 146 147 156 172 221 224 207 167 157 152 154 153 153 167 155 
143 147 146 140 126 99 116 103 88 38 39 37 40 45 44 43 53 49 52 64 67 60 30 0 24 46 52 56 53 61 68 78 73 70 70 70 71 71 77 100 133 141 138 145 145 150 149 148 147 149 148 146 145 142 143 116 98 94 97 100 120 133 142 140 143 145 147 156 180 238 246 227 166 162 158 153 154 155 160 154 
145 146 146 141 123 93 115 102 87 36 33 31 34 41 38 38 40 40 48 58 56 55 32 7 22 42 51 53 53 60 66 71 63 62 65 68 73 69 75 112 140 147 150 149 150 157 157 155 155 155 154 153 151 157 159 131 95 93 97 106 121 138 144 143 144 146 148 156 191 259 274 238 175 168 160 164 157 151 152 153 
146 143 145 141 123 89 111 101 91 46 36 37 37 38 38 35 42 38 46 55 53 47 36 12 21 42 45 57 58 55 58 64 63 55 58 62 66 59 83 133 145 153 152 152 157 159 162 164 155 158 159 155 155 158 158 131 97 90 96 105 121 133 141 141 142 146 149 155 184 239 256 229 175 165 164 156 158 148 152 149 
145 147 141 142 124 81 112 104 94 54 33 33 31 39 41 41 45 46 45 48 46 45 32 17 31 36 45 54 56 57 57 58 58 56 63 60 63 70 120 139 147 147 153 152 159 162 164 161 161 161 160 160 156 162 160 145 97 89 98 100 121 133 136 137 141 146 150 157 183 211 221 215 180 155 154 149 148 148 150 147 
144 142 141 138 124 75 108 100 95 55 29 31 31 33 34 32 38 36 38 38 33 34 31 26 48 53 46 55 59 56 62 65 62 62 65 73 76 84 137 143 147 147 156 161 160 163 162 162 163 162 163 160 159 159 163 155 103 96 95 105 121 133 137 135 142 147 147 160 184 200 208 206 193 177 155 149 147 146 146 146 
144 141 140 140 123 73 101 98 91 63 27 24 30 29 25 32 30 24 27 29 33 41 58 73 80 78 60 58 59 60 61 59 58 58 63 70 76 105 147 151 151 153 155 159 159 165 163 163 161 167 165 159 163 160 167 159 125 97 97 104 121 133 137 140 142 142 153 171 179 189 193 194 194 186 164 149 148 143 148 148 
143 141 140 136 123 75 100 98 95 65 31 26 29 31 27 30 26 24 29 27 29 57 78 85 89 88 68 49 54 61 58 57 59 64 64 71 78 121 149 153 153 155 156 158 161 164 166 164 162 162 162 162 164 161 167 170 139 103 98 102 121 133 135 137 138 144 154 167 175 179 187 188 192 192 176 144 150 144 145 145 
139 140 140 137 129 76 96 95 92 68 46 38 39 39 37 40 36 34 39 46 50 72 84 91 95 89 69 54 58 57 58 61 61 68 69 70 92 137 152 153 156 155 154 155 161 163 163 162 161 162 163 161 159 164 168 167 157 113 101 106 122 132 136 136 142 144 155 164 168 171 178 186 184 183 171 147 147 145 144 144 
141 143 140 140 130 78 89 94 96 73 47 43 42 40 43 45 41 39 44 58 61 71 75 84 92 89 75 61 69 68 62 68 62 66 71 85 121 142 157 158 160 157 159 160 159 164 165 162 162 161 163 161 163 167 171 169 159 136 107 106 127 133 136 139 145 146 154 160 165 167 175 173 169 162 147 145 146 138 140 145 
140 140 140 137 131 81 85 93 98 74 50 44 45 45 46 44 42 42 48 58 55 64 78 83 95 90 73 63 68 69 69 69 72 76 83 112 138 150 159 155 158 157 159 159 162 164 165 164 165 164 162 160 165 167 169 170 161 156 128 112 130 137 139 139 147 149 147 152 157 157 160 155 153 154 150 143 143 141 141 147 
140 143 138 139 131 92 78 97 97 86 64 58 60 66 62 63 56 59 62 66 64 66 76 89 88 86 76 77 78 79 77 82 76 84 104 136 150 150 159 159 162 159 159 161 161 161 165 162 161 166 164 164 165 168 169 169 159 160 155 126 131 138 141 142 142 146 145 151 154 153 150 151 146 151 157 143 144 139 140 144 
142 137 138 136 133 102 89 95 95 85 74 82 85 93 95 94 87 88 91 98 96 94 91 89 101 96 92 95 98 91 89 97 94 96 129 141 149 153 159 156 161 160 156 160 159 160 164 162 166 164 162 163 163 164 169 169 161 160 165 145 133 145 145 141 137 144 144 148 150 148 149 147 146 148 148 146 145 140 149 144 
137 138 137 136 135 114 97 97 97 92 86 102 103 107 101 105 110 104 108 108 112 110 104 106 113 114 110 115 117 118 110 118 118 126 139 151 155 155 157 157 162 160 159 162 162 165 170 166 164 167 167 166 163 168 168 170 167 163 164 160 153 145 144 145 142 143 142 142 146 147 152 147 147 150 146 144 147 143 145 146 
134 133 133 134 134 115 99 95 102 95 94 106 116 108 109 106 111 105 110 112 109 113 110 117 119 122 119 120 120 123 118 122 123 138 149 155 156 152 156 155 157 158 160 162 159 166 163 166 167 169 169 166 167 165 161 159 155 163 163 160 168 155 143 143 142 144 140 146 149 150 150 149 155 156 152 148 148 145 144 147 
119 121 121 126 119 113 106 99 114 103 110 110 110 108 109 107 110 108 111 111 112 112 114 113 113 119 117 117 115 118 116 124 132 146 153 157 153 151 140 141 154 161 163 165 169 167 171 168 170 171 166 165 170 166 158 155 150 160 167 161 163 165 152 143 149 151 154 152 153 155 160 155 158 156 160 156 152 141 148 146 
106 106 105 108 101 103 103 98 112 115 111 116 116 112 109 107 107 105 109 108 111 111 112 115 113 114 112 114 116 117 114 127 135 149 153 154 151 145 131 138 151 156 162 164 165 169 172 171 168 168 166 168 165 162 164 153 151 155 164 161 163 163 159 147 150 151 152 156 158 158 166 155 164 160 163 159 158 151 147 142 
104 105 106 105 97 102 107 102 112 114 116 113 112 112 110 105 109 104 106 109 108 108 108 113 110 113 112 113 116 111 113 129 144 156 158 159 153 139 130 138 156 163 164 163 166 164 171 172 168 166 168 168 166 162 163 154 153 153 164 162 166 163 156 147 151 152 151 155 153 160 158 156 160 168 168 165 165 155 151 149 
112 106 104 103 102 102 109 101 112 117 115 120 111 111 110 105 105 104 108 107 106 107 108 111 111 111 108 106 112 111 113 135 147 156 157 159 154 144 135 150 160 166 165 165 168 167 175 170 167 170 169 164 166 162 163 156 150 156 165 165 163 166 156 140 144 146 145 146 148 154 155 156 154 160 162 159 159 155 155 152 
105 105 109 101 102 104 110 100 108 113 113 114 112 107 107 106 101 100 108 103 103 108 104 107 105 107 104 104 108 108 110 134 147 153 152 160 158 145 128 153 159 167 169 165 163 168 167 166 164 172 168 163 166 163 164 160 153 159 165 164 165 162 145 136 136 140 138 146 143 149 155 154 149 154 155 151 155 148 148 143 


