P2
80 60
195
22 31 30 32 37 35 34 38 37 33 33 36 34 35 35 36 35 34 34 30 33 35 30 32 35 34 33 34 39 35 32 35 32 31 27 31 31 34 36 32 36 23 27 30 33 28 26 28 28 24 28 25 26 33 38 36 38 42 36 36 35 38 41 40 33 34 30 32 30 34 36 32 35 36 39 38 34 32 35 34 
25 32 36 36 35 34 37 37 35 33 34 40 32 36 40 33 36 35 31 34 37 29 31 31 34 31 36 37 37 36 32 30 31 32 33 31 31 31 31 32 34 33 30 31 31 29 28 33 27 23 26 23 24 32 37 38 41 41 37 36 35 39 39 36 31 33 31 30 31 33 32 35 33 38 37 35 32 31 34 37 
24 28 38 35 35 31 35 40 37 36 38 37 33 37 36 34 36 37 31 34 40 33 32 33 32 34 37 37 35 37 31 32 30 33 33 32 35 29 34 34 34 31 31 32 32 27 26 30 28 26 27 24 27 32 36 37 37 36 37 36 37 38 35 39 39 33 35 31 35 34 38 34 35 37 38 37 30 37 35 39 
21 31 37 33 37 32 34 39 37 41 38 37 33 33 38 31 35 35 34 36 35 33 35 34 35 31 36 38 38 32 33 34 32 31 33 32 36 34 36 31 33 31 32 30 31 27 31 29 31 25 29 26 30 30 36 37 34 39 37 37 40 38 39 35 34 34 35 34 34 34 38 39 33 36 37 38 34 39 39 33 
30 33 38 36 37 35 34 34 35 35 39 38 39 41 40 40 35 36 34 36 34 35 34 37 36 36 40 35 33 34 32 33 33 32 33 29 33 31 37 32 36 33 33 32 32 28 32 33 30 28 29 29 29 33 36 36 35 38 37 36 42 39 40 45 35 33 34 36 36 37 41 36 35 37 42 41 31 34 36 36 
30 31 36 34 37 36 38 40 41 37 34 40 36 40 44 38 38 38 34 40 35 33 35 38 38 36 36 35 36 36 34 35 32 30 32 30 37 31 37 31 33 31 34 32 34 27 35 31 31 25 31 29 30 33 34 38 37 40 40 37 39 38 38 40 36 35 34 37 39 32 39 34 35 34 42 36 33 34 35 36 
27 35 42 37 41 35 35 40 41 38 37 45 37 40 42 37 40 32 40 38 38 35 35 35 35 35 39 37 38 36 36 35 33 33 32 33 38 36 36 31 33 29 30 32 29 31 33 33 30 28 29 34 33 31 36 36 38 47 45 39 39 39 39 39 42 37 37 37 40 35 36 37 37 37 39 40 36 32 36 36 
32 37 38 40 42 39 39 40 38 37 34 38 34 40 40 36 40 41 38 38 37 34 34 39 36 38 37 36 39 37 33 33 31 30 32 30 37 33 35 35 35 33 31 33 33 28 32 31 28 27 36 31 30 33 39 43 38 43 39 39 44 42 41 39 40 38 36 38 38 37 37 39 35 33 41 32 32 34 36 37 
37 38 41 40 42 36 40 40 41 39 39 41 36 36 40 34 38 39 40 37 38 32 35 42 38 37 38 37 40 35 36 33 32 33 30 32 35 35 36 32 34 32 30 32 35 28 30 29 29 25 33 29 33 33 34 39 37 42 39 40 38 40 42 41 38 34 39 38 34 38 36 34 37 38 40 34 30 34 38 42 
35 36 44 40 39 39 40 44 41 38 35 42 39 41 39 39 42 38 35 38 36 35 36 36 37 35 38 37 37 36 37 35 31 33 31 33 36 33 31 31 33 31 31 30 30 26 26 27 28 29 31 28 31 32 38 37 37 39 40 39 36 40 38 43 37 37 38 35 36 35 34 35 38 38 38 38 32 30 38 36 
34 39 46 39 41 41 44 42 41 37 38 44 41 36 41 37 37 37 36 33 35 32 35 34 34 35 39 36 38 36 37 34 34 33 31 30 34 31 35 31 35 29 29 28 30 29 31 31 28 26 29 33 29 33 36 40 40 41 39 40 39 39 40 43 38 35 38 41 34 36 38 35 33 33 38 39 35 34 40 39 
35 37 46 41 42 40 40 41 37 39 38 40 36 40 37 36 36 35 33 33 35 34 33 37 33 35 39 38 40 39 38 35 34 33 33 32 32 33 34 31 33 31 32 30 33 28 32 31 28 25 30 30 31 31 37 38 40 40 39 40 35 43 42 40 40 35 36 35 37 34 33 32 36 39 39 43 37 33 35 35 
37 38 43 43 43 35 39 38 40 38 39 40 35 36 40 35 34 32 34 33 36 34 33 33 35 36 35 37 36 37 37 34 33 37 28 29 32 29 33 26 30 30 30 29 34 27 32 29 29 27 26 31 29 30 36 37 38 41 38 38 38 38 43 41 37 37 37 38 36 36 30 33 35 37 42 40 29 36 36 40 
40 42 41 44 41 38 36 38 39 35 33 40 36 36 35 36 33 34 32 32 36 30 32 32 34 31 33 32 36 36 36 35 35 35 31 26 33 31 34 30 32 31 29 36 31 29 32 30 30 30 32 30 30 32 35 38 40 42 40 40 41 41 41 39 40 35 35 37 36 36 39 31 36 36 39 38 36 38 39 35 
33 36 44 40 38 36 34 38 35 34 34 41 35 35 38 35 34 33 34 33 34 31 28 34 33 29 35 37 36 36 36 32 31 32 30 29 32 31 31 33 30 29 28 31 28 27 29 29 28 31 31 31 30 30 37 39 43 53 41 38 40 41 40 41 41 34 40 40 36 33 37 36 37 38 41 36 30 31 36 35 
31 45 45 42 42 36 36 39 38 36 37 38 35 38 34 36 34 33 33 33 31 32 31 35 34 30 36 33 36 37 32 33 32 31 31 30 32 31 32 33 34 32 30 29 27 28 29 27 28 26 30 30 34 32 38 40 40 46 42 42 41 39 39 40 37 37 35 43 34 35 38 36 37 37 39 39 33 35 37 34 
37 39 44 40 42 38 38 42 36 34 34 39 35 34 39 37 35 34 36 32 33 28 34 34 32 33 36 34 35 37 37 36 31 33 33 30 33 27 32 33 29 31 30 31 27 26 29 27 25 25 29 32 31 35 39 40 40 45 42 41 41 41 39 40 37 34 37 39 38 38 36 38 47 39 37 40 34 36 38 38 
42 38 42 40 39 40 35 37 37 38 37 41 34 37 39 37 35 32 35 36 31 34 30 34 34 40 35 37 34 37 35 33 34 35 32 30 33 30 32 32 32 32 29 28 31 32 28 27 25 24 30 30 34 33 41 38 41 47 44 42 41 41 38 38 37 35 36 40 38 38 40 41 41 41 40 36 35 39 37 43 
37 37 42 41 40 39 37 35 35 36 37 40 35 38 40 37 34 36 38 36 36 34 35 35 39 33 39 34 35 35 34 33 35 37 31 31 35 35 36 34 33 31 27 32 31 26 28 28 25 26 30 30 33 36 40 39 43 43 43 43 42 41 39 42 38 38 39 41 40 40 39 42 35 35 41 40 33 34 35 41 
35 40 40 41 42 35 38 37 35 32 36 37 37 37 39 36 36 38 37 38 30 34 40 35 36 35 39 37 35 38 39 33 34 32 31 29 33 33 35 33 33 30 25 28 29 23 25 29 26 28 31 31 34 33 39 40 38 39 42 39 43 40 40 40 40 34 37 40 39 41 40 36 38 38 37 36 36 35 35 40 
34 37 44 37 40 39 37 38 36 36 37 41 41 41 37 35 37 33 32 33 33 36 33 37 39 35 36 33 37 35 35 35 31 30 30 30 31 31 32 31 33 36 28 27 31 22 26 27 31 29 31 30 35 36 40 35 40 39 40 42 41 40 40 43 41 33 39 40 41 38 41 38 36 40 40 40 33 37 39 39 
31 37 39 41 40 38 36 36 39 38 34 40 42 37 38 35 36 34 33 31 32 34 35 37 35 34 36 35 37 36 37 34 32 33 33 28 30 30 29 30 30 32 28 29 28 22 24 26 25 27 31 31 32 31 38 39 37 38 40 42 41 37 40 44 39 31 38 40 39 41 41 40 37 37 39 38 35 35 37 41 
33 36 40 44 40 37 41 42 38 36 35 39 36 39 40 33 36 36 37 33 34 35 33 33 37 35 39 38 38 35 37 36 33 31 29 30 31 32 32 34 32 30 26 28 27 24 26 27 28 29 34 32 35 37 41 42 37 37 43 42 47 42 42 40 42 40 41 40 41 40 42 41 39 36 40 44 34 38 41 39 
34 37 39 38 39 36 37 46 41 40 35 42 39 38 42 37 39 37 38 36 37 32 33 35 35 34 35 40 36 36 33 35 29 27 32 28 31 29 32 31 29 27 26 29 27 23 22 25 29 32 36 35 34 34 36 38 39 40 38 43 44 42 41 46 37 37 42 40 40 41 41 40 41 43 46 40 37 37 39 39 
33 41 40 39 39 35 38 40 42 39 37 39 35 35 39 34 35 41 37 36 36 30 35 35 39 33 37 38 36 35 34 33 29 30 30 26 28 30 28 31 33 27 28 30 35 22 23 26 28 29 31 32 31 33 37 37 42 43 41 42 42 45 44 39 42 39 40 44 45 41 43 42 40 44 44 42 37 38 39 42 
32 36 42 36 39 38 35 39 34 38 34 43 40 41 39 37 37 35 35 37 34 32 34 37 37 36 36 36 35 35 34 32 30 29 29 27 28 27 29 30 29 29 27 28 30 26 28 27 29 29 33 29 33 37 36 38 40 42 42 43 43 42 43 43 41 39 41 41 41 40 42 38 41 41 41 42 37 39 41 42 
34 32 40 38 41 38 38 37 37 36 36 42 38 37 43 39 37 36 34 34 37 35 41 38 37 36 40 35 34 34 34 31 31 33 29 26 31 26 28 31 31 26 29 27 30 25 24 28 29 31 34 34 30 37 37 40 38 39 40 43 41 44 42 42 40 41 44 47 42 40 42 41 42 42 43 40 43 41 39 43 
38 38 37 36 41 38 37 41 38 36 35 38 37 39 41 36 39 35 36 35 38 38 38 36 40 39 37 37 36 34 36 34 32 29 30 29 28 28 30 35 28 30 29 27 28 25 25 31 39 33 33 33 31 33 39 41 41 37 42 41 45 44 42 46 44 41 43 44 45 49 41 40 40 45 41 42 36 39 42 43 
37 39 37 37 39 37 35 39 39 35 37 38 37 39 36 35 35 36 36 38 34 33 34 36 37 38 36 38 37 35 30 31 32 31 28 28 28 30 32 34 31 30 29 30 28 26 29 37 40 37 37 35 37 35 38 37 41 39 42 42 44 43 43 44 44 44 43 44 43 42 46 40 42 35 45 43 40 39 40 42 
38 35 43 40 37 39 34 42 43 38 35 38 36 39 39 37 39 37 35 34 35 35 34 37 40 33 39 37 34 34 32 35 27 26 31 28 28 32 30 31 30 27 30 32 36 34 36 40 41 34 40 39 38 35 37 36 42 42 45 40 44 43 43 43 44 41 44 46 42 43 46 39 44 43 47 47 38 38 39 40 
31 38 41 34 39 37 40 42 41 41 38 40 37 38 40 38 37 38 37 35 35 35 34 40 39 36 37 36 38 34 37 33 29 32 28 28 28 28 32 33 33 38 38 41 36 33 34 33 38 38 40 36 34 38 40 44 42 43 42 42 45 45 44 45 45 41 43 48 45 43 46 42 44 41 46 42 40 40 41 41 
25 38 36 38 39 33 38 43 38 35 40 39 37 40 42 39 40 36 42 36 39 37 36 39 41 37 40 37 38 36 34 36 31 31 28 29 31 32 33 40 39 39 36 38 38 35 39 43 40 45 43 36 36 37 43 43 43 41 42 44 48 45 48 48 43 40 42 48 49 45 45 40 42 41 45 41 42 44 43 40 
27 35 38 36 37 37 36 39 38 35 37 42 39 41 42 38 42 41 37 39 37 36 39 48 42 38 38 36 37 36 37 32 30 30 27 29 37 38 41 39 37 34 40 42 43 36 61 66 56 52 44 42 39 39 44 44 43 45 42 43 48 46 48 47 44 43 44 49 52 48 47 40 43 40 46 43 42 43 41 45 
27 35 41 36 40 38 36 36 41 38 37 47 39 41 43 35 42 43 43 41 40 47 45 47 43 34 38 36 37 40 36 33 34 35 35 36 33 34 38 43 41 39 39 35 34 35 78 84 80 78 74 61 53 48 46 46 49 46 49 44 46 50 49 46 44 46 48 50 48 45 50 45 44 44 47 46 42 41 44 43 
26 31 38 37 35 36 37 41 37 39 39 45 39 40 43 41 43 48 44 46 51 41 42 40 45 37 38 35 38 39 40 41 38 37 35 32 33 36 41 45 38 34 33 31 32 40 89 89 88 90 87 88 88 73 71 56 55 51 45 43 48 51 49 50 49 46 50 52 49 49 51 45 46 47 48 43 41 41 45 47 
29 33 39 34 38 34 36 39 38 38 40 44 42 47 61 82 94 101 83 53 51 41 33 39 47 35 37 44 44 41 44 40 33 33 35 37 40 36 39 34 31 35 31 30 31 45 92 96 94 90 93 95 94 91 95 95 85 72 59 52 52 51 52 56 49 44 50 53 50 50 49 46 48 47 51 48 44 48 47 46 
26 34 39 34 37 36 36 40 38 40 42 46 40 53 90 117 128 134 124 76 64 39 38 39 46 41 44 48 42 41 38 38 37 39 35 36 35 32 33 33 34 28 29 29 31 51 95 94 96 94 97 97 98 100 99 103 109 101 91 85 75 60 58 54 55 49 52 50 50 51 50 48 49 48 50 48 44 45 48 46 
23 32 34 33 37 38 38 37 39 36 41 43 46 62 116 124 135 140 131 109 49 41 43 49 57 49 49 40 39 42 45 42 39 33 34 31 31 33 31 31 35 31 30 29 33 65 94 95 93 98 100 97 100 103 106 108 109 106 102 98 96 94 86 79 63 56 55 56 54 49 52 48 52 52 53 50 47 48 52 49 
26 29 38 31 38 35 39 41 40 43 43 45 42 63 117 136 137 142 138 107 48 38 50 61 60 54 43 49 45 43 40 36 33 31 31 28 30 30 32 34 35 31 35 32 34 79 97 95 98 98 103 102 103 107 109 110 109 108 105 105 103 102 104 103 97 82 73 65 57 53 52 52 48 52 53 55 49 52 52 55 
22 30 35 34 34 38 39 41 40 39 50 46 47 63 122 157 180 181 154 118 54 54 59 64 61 61 50 47 42 39 37 37 34 31 29 27 32 33 31 31 29 32 30 32 38 89 98 98 101 100 102 104 106 108 113 112 112 114 110 107 106 109 107 113 107 106 99 99 85 78 64 63 52 55 53 54 51 53 53 58 
21 28 31 33 33 35 34 41 39 39 42 45 45 63 118 173 185 188 170 121 63 61 55 60 55 50 47 41 40 35 36 37 32 33 30 28 32 29 32 30 30 32 28 31 42 97 97 100 98 100 105 108 108 116 115 113 114 117 109 108 106 110 110 110 110 104 104 106 113 104 95 86 81 68 65 53 51 52 60 61 
17 30 35 30 34 33 30 37 36 35 39 44 42 54 102 159 174 162 136 117 64 45 38 46 43 40 43 41 37 39 35 36 31 25 27 30 35 32 31 30 29 27 32 32 48 101 102 101 99 100 105 105 111 111 115 113 116 118 114 112 111 111 115 116 111 110 107 107 111 108 109 109 108 95 87 67 66 53 59 58 
13 25 34 30 35 29 34 35 37 36 42 43 44 53 90 109 121 123 125 111 67 47 39 44 44 39 42 39 36 37 36 36 32 31 32 32 36 31 33 29 32 29 33 34 58 107 102 104 104 101 102 105 109 111 118 115 117 116 114 117 111 115 115 122 115 108 109 109 112 112 114 108 111 110 110 103 93 80 78 68 
16 21 28 28 32 32 31 33 34 33 36 47 38 52 87 101 108 115 111 106 98 69 47 42 37 37 38 37 39 36 37 32 31 31 30 28 33 30 34 32 28 31 31 34 73 108 106 110 103 101 104 108 108 111 116 118 119 118 117 118 114 114 116 119 117 114 113 114 116 115 115 117 114 114 122 110 109 105 103 102 
17 20 26 27 31 29 28 36 38 31 35 42 47 73 91 95 103 106 101 101 97 90 77 51 42 39 40 38 36 34 32 33 31 29 28 33 32 31 36 32 32 31 31 40 90 109 108 107 103 103 108 109 106 111 118 115 120 117 118 117 113 118 118 118 120 114 119 119 116 121 119 117 119 116 117 115 108 113 113 108 
13 19 27 26 33 30 27 35 33 34 38 47 58 85 91 89 93 94 95 92 92 87 84 74 45 36 40 38 35 34 34 32 31 28 33 37 37 32 37 34 35 32 31 44 105 110 106 104 106 106 108 110 110 112 116 115 117 118 117 120 120 120 119 124 127 123 123 126 123 121 125 120 117 116 124 119 112 112 118 114 
13 25 23 22 27 28 28 33 33 34 34 47 66 83 82 83 88 87 91 87 86 84 83 80 64 39 38 35 32 33 31 28 28 35 35 36 40 36 38 36 40 37 38 47 112 109 105 107 107 104 107 107 108 112 118 115 119 122 119 124 121 121 126 121 126 124 127 124 119 121 126 122 121 118 120 116 115 115 119 115 
9 20 21 21 26 27 30 33 32 33 35 48 62 74 72 75 80 79 82 82 80 82 83 81 68 43 35 35 34 34 30 27 30 38 36 37 42 38 41 39 39 42 44 57 123 108 109 105 107 104 106 108 111 115 120 121 120 121 121 124 121 125 126 128 124 126 126 127 120 121 128 122 122 121 122 119 116 114 112 110 
11 14 21 25 26 28 30 40 33 29 39 50 58 71 73 75 76 73 79 78 80 77 85 82 76 52 35 35 34 34 31 32 29 37 38 38 43 44 42 44 49 46 46 70 127 110 111 108 109 110 112 109 110 117 120 126 124 123 122 123 122 125 128 129 132 125 128 129 128 127 129 126 126 122 125 125 113 115 115 116 
11 15 23 26 30 29 29 32 36 35 37 54 60 67 69 70 69 76 78 77 71 77 79 82 73 48 35 34 32 32 36 32 34 36 38 38 43 41 44 44 52 51 48 85 129 113 112 109 109 107 113 112 116 120 124 124 124 125 122 127 125 125 128 131 133 131 129 132 127 131 130 129 127 123 132 122 115 114 115 114 
7 13 25 28 29 26 26 38 36 39 39 50 52 59 64 65 73 77 77 74 73 70 75 74 58 34 39 36 34 34 33 31 35 38 39 42 40 42 45 46 53 48 48 106 130 114 113 114 112 112 115 118 118 124 128 131 128 127 125 127 129 128 128 132 132 128 133 133 131 130 132 128 125 129 125 125 115 115 116 116 
1 13 22 30 28 24 30 35 35 38 40 44 48 51 65 58 66 68 72 69 70 65 57 48 37 36 35 35 31 37 34 33 33 36 41 37 41 40 43 45 50 47 51 127 132 115 115 118 116 117 122 119 122 126 127 126 128 125 127 129 128 128 132 133 131 132 132 135 133 133 134 133 125 125 132 127 118 117 116 117 
9 11 23 28 29 27 31 34 32 36 40 42 45 46 56 52 56 61 54 53 47 39 40 38 40 36 38 33 36 35 32 35 33 33 32 36 38 43 42 42 49 46 64 144 145 123 125 122 126 122 124 125 124 130 131 129 126 126 135 131 128 132 132 133 134 136 136 134 130 134 137 132 132 128 131 126 119 119 119 120 
4 11 19 26 34 33 31 33 35 34 37 40 39 40 39 41 46 44 39 41 35 38 35 41 40 36 37 35 37 34 37 39 34 35 34 32 35 38 37 42 43 44 68 146 151 150 134 131 124 123 130 125 126 131 130 130 130 129 129 131 127 130 132 137 136 135 136 136 135 132 135 133 126 124 129 125 125 119 117 122 
0 15 21 28 29 31 33 33 36 33 34 37 35 37 40 37 38 44 40 37 35 35 36 42 37 34 47 39 40 35 39 35 29 30 33 30 32 33 36 42 44 46 58 108 141 156 165 147 136 136 134 132 133 132 137 130 130 133 130 130 128 131 135 138 137 139 138 138 133 134 133 137 127 128 130 125 116 119 122 126 
1 14 20 26 30 29 32 35 36 32 40 42 34 38 39 39 36 39 37 32 37 35 40 40 39 42 44 38 39 41 38 34 31 30 31 28 31 32 34 42 46 49 50 65 95 130 165 171 160 143 141 134 135 136 140 135 132 135 130 132 133 135 137 140 142 140 140 142 139 139 139 133 133 128 132 128 126 120 123 127 
3 1 15 30 33 34 31 32 34 38 37 38 40 38 39 33 37 32 37 42 41 36 40 38 43 40 42 39 44 41 38 31 28 30 29 27 30 28 35 40 55 59 48 50 61 73 122 151 164 162 165 145 144 142 140 132 135 132 130 134 134 134 142 141 137 142 143 145 135 137 140 137 134 132 138 130 123 123 122 126 
1 6 9 28 30 32 27 37 32 36 35 41 37 38 37 35 40 38 38 40 41 38 45 47 46 46 43 47 48 44 37 29 28 28 27 27 31 26 35 44 60 60 54 54 62 55 68 100 126 149 167 162 162 150 151 137 134 135 135 133 137 138 138 143 144 144 143 141 139 142 142 138 135 137 136 134 128 126 128 129 
11 11 23 24 37 33 38 36 35 36 34 39 39 38 44 34 40 40 44 49 45 46 52 50 54 47 49 49 50 47 39 33 29 28 25 27 30 27 40 49 59 58 64 54 63 58 56 65 73 106 140 164 177 189 166 152 145 145 142 141 138 138 138 148 145 147 150 145 146 146 147 144 141 135 138 133 130 127 133 136 
22 22 30 34 35 33 38 38 37 37 41 39 44 44 43 40 53 45 47 51 50 47 49 51 51 51 51 55 54 49 41 41 35 34 27 28 32 35 48 55 56 58 55 54 58 57 62 55 55 63 86 127 168 171 195 174 166 159 148 146 144 145 145 150 149 147 152 155 149 150 147 143 137 132 137 139 137 129 131 138 


