P2
80 60
172
85 84 113 133 148 158 162 159 153 157 161 163 164 158 162 163 159 162 161 161 160 169 163 157 162 156 153 147 146 145 149 156 167 164 164 165 166 162 162 163 163 162 162 155 164 157 155 155 155 145 147 149 144 120 99 77 34 18 10 10 8 23 36 37 37 41 54 66 84 91 98 108 114 112 108 110 112 108 112 108 
90 84 116 140 155 158 161 159 159 162 161 160 159 163 163 160 160 161 163 161 166 165 168 159 166 160 153 147 151 150 154 161 163 164 165 165 168 164 164 166 167 163 160 163 161 165 155 155 157 154 153 144 141 119 108 75 37 19 12 15 19 24 36 32 36 42 49 65 77 87 104 106 111 112 113 111 117 108 113 112 
91 84 115 136 152 157 159 163 160 159 160 161 161 162 162 160 160 163 159 161 167 167 166 159 159 158 159 152 155 155 156 161 164 164 169 168 168 165 165 165 170 166 159 163 160 165 156 155 159 152 156 150 139 121 106 79 33 18 12 16 14 19 30 32 38 42 55 66 80 84 99 103 105 112 110 112 111 108 108 108 
85 84 111 139 160 155 163 157 160 162 161 163 164 162 160 159 160 160 160 163 170 168 165 165 168 162 161 158 159 162 159 160 163 165 166 164 169 166 168 165 170 159 164 160 165 160 156 155 162 153 157 154 147 118 108 77 29 16 11 18 11 18 22 22 30 39 55 63 79 86 97 99 104 105 110 107 107 108 109 109 
93 85 108 142 161 161 159 163 163 159 162 162 162 162 158 162 162 160 162 164 166 167 170 163 171 168 164 158 159 159 158 162 163 166 163 163 167 168 170 167 170 165 166 162 167 161 158 157 159 158 157 154 145 122 106 76 30 19 17 14 6 14 24 32 39 49 57 73 77 90 97 98 106 105 108 107 111 113 111 109 
92 90 118 143 153 157 157 163 165 160 162 162 161 163 159 158 160 158 162 167 164 167 171 164 166 165 165 158 157 151 154 153 165 165 165 164 167 163 167 165 168 165 164 164 162 162 160 155 160 158 160 153 147 123 110 82 36 22 13 16 11 15 30 34 41 51 60 69 84 86 99 98 99 104 105 108 108 106 105 106 
94 95 124 151 156 158 160 162 162 161 164 162 162 165 159 159 160 161 165 162 168 163 169 171 169 163 158 154 150 144 147 147 158 163 163 164 167 167 167 167 172 163 166 162 162 167 158 158 160 159 158 158 150 123 115 83 39 30 23 16 10 14 25 30 41 56 62 75 77 87 91 94 99 106 105 104 109 106 107 109 
101 87 125 152 157 158 157 160 162 160 162 163 162 162 157 157 161 160 162 166 165 168 166 167 160 164 149 142 145 143 146 146 157 163 168 168 171 166 166 169 170 165 166 165 161 160 157 155 157 159 158 154 148 123 110 85 39 19 18 16 6 11 20 31 39 53 66 70 77 81 92 99 99 102 107 104 103 105 105 105 
101 96 124 152 161 162 159 160 161 165 161 162 161 158 157 157 154 160 161 158 162 166 164 162 167 154 145 142 145 142 144 145 157 165 167 166 170 166 166 163 170 164 162 164 166 165 155 153 156 159 160 157 147 124 110 81 37 20 19 17 10 9 18 26 42 60 66 73 72 84 97 105 110 112 115 108 107 103 105 105 
110 94 126 157 160 160 160 167 162 156 162 162 159 162 158 157 161 159 161 158 161 166 161 160 160 156 154 145 143 132 141 152 155 159 164 164 168 166 165 161 167 164 160 163 162 162 153 147 154 155 157 153 143 127 113 83 31 22 13 15 7 15 22 27 35 49 65 70 78 85 102 114 111 119 120 118 116 100 101 101 
108 101 130 151 159 162 162 166 164 157 159 160 156 159 160 157 155 161 161 156 160 157 161 154 160 157 152 145 134 137 138 145 151 153 167 162 166 163 164 165 166 165 163 163 162 159 155 148 158 156 156 148 140 121 119 84 36 20 12 10 8 18 24 28 34 43 59 63 74 82 104 105 114 120 120 118 114 109 104 97 
105 100 133 154 158 160 157 161 158 155 160 160 155 158 159 156 152 157 159 151 159 156 159 158 155 149 143 141 130 132 130 147 149 156 162 162 162 163 162 163 168 165 161 162 163 157 154 156 154 156 156 147 137 125 117 86 35 21 10 13 11 22 26 35 33 42 55 70 67 76 98 100 109 107 112 121 113 112 102 98 
108 100 134 156 159 160 156 156 158 155 160 162 159 161 154 154 154 153 154 155 159 158 155 158 159 151 144 134 127 126 132 135 146 157 162 162 161 161 160 164 164 161 163 163 163 163 161 155 160 156 156 148 138 116 114 81 35 22 9 6 7 19 29 34 34 38 50 59 67 71 83 96 97 98 97 113 114 110 102 96 
115 108 141 154 160 157 156 157 156 159 159 160 160 155 152 153 152 150 148 151 159 156 155 153 155 151 145 137 124 118 125 137 146 162 165 161 163 167 161 164 165 164 165 163 166 166 158 155 157 161 156 148 133 122 115 87 37 23 14 13 10 23 31 27 26 37 51 61 67 72 91 90 101 99 103 103 109 103 99 96 
118 113 141 156 159 156 157 160 157 150 155 158 155 157 156 154 150 147 149 152 154 151 153 151 150 151 148 141 128 126 130 140 145 156 160 162 164 160 158 163 166 161 163 159 164 163 157 152 157 158 154 143 132 118 120 87 36 32 17 12 9 15 29 25 34 37 41 58 63 79 86 101 105 110 110 110 107 97 96 93 
124 124 145 159 156 156 158 158 158 153 155 160 155 156 158 154 151 154 151 150 152 156 153 150 151 151 145 135 126 123 125 142 146 154 159 161 165 159 160 163 166 165 159 162 162 162 154 152 152 150 150 137 132 124 116 87 34 21 15 10 6 18 32 26 31 32 44 56 66 74 86 102 106 114 110 109 102 94 92 92 
130 126 149 150 156 156 154 153 158 154 156 156 159 161 157 153 149 153 149 150 152 156 152 147 145 138 139 130 123 121 126 139 145 153 157 160 164 160 160 162 163 159 160 159 160 164 154 148 150 145 142 137 127 121 119 83 36 26 15 11 6 16 25 26 28 33 40 54 65 73 81 100 118 114 112 107 103 94 97 94 
134 132 151 153 155 154 157 156 154 150 160 155 157 156 152 151 156 150 150 148 152 150 156 140 140 126 119 121 121 121 122 128 131 144 157 160 162 163 161 166 164 158 159 161 163 156 152 154 151 148 139 138 125 124 120 76 33 27 15 11 7 14 21 22 30 31 40 55 62 78 88 101 108 110 111 108 106 100 95 94 
136 137 154 156 158 158 160 154 155 152 157 158 155 158 153 153 151 148 150 154 154 156 149 152 143 129 120 113 114 114 121 131 131 145 159 161 164 162 161 164 164 160 160 162 162 155 154 156 156 155 149 140 130 121 119 79 36 22 11 9 9 19 21 23 27 36 50 59 74 82 99 107 112 110 106 106 100 104 103 102 
133 139 155 158 157 159 158 160 155 151 159 154 157 158 155 148 153 149 149 150 153 156 158 147 141 130 117 111 111 115 115 122 133 147 158 160 162 162 161 165 167 165 161 163 165 156 154 157 153 157 147 140 125 122 115 79 33 21 9 13 5 14 19 23 27 38 52 61 83 91 99 107 107 110 108 109 108 107 112 112 
132 138 152 158 158 160 159 156 153 154 159 156 158 155 151 153 153 150 147 150 154 155 149 148 137 127 119 111 114 115 118 129 141 144 151 156 160 161 161 164 166 164 164 161 163 158 150 154 153 156 147 137 127 119 117 76 28 21 10 9 3 12 20 22 28 37 48 66 85 95 102 101 102 104 104 101 105 105 112 112 
131 141 153 156 158 157 163 156 156 151 161 156 158 154 152 150 154 147 148 150 153 154 150 146 136 128 120 117 119 115 122 131 137 142 147 158 162 161 160 163 165 161 160 160 161 160 149 154 152 152 147 130 125 118 114 76 33 21 11 9 8 15 25 25 27 35 50 63 84 93 100 103 100 99 104 106 107 108 109 112 
135 137 153 157 155 155 155 159 155 152 161 155 163 154 154 151 154 148 145 151 149 152 149 140 134 128 124 121 124 121 117 121 137 146 151 161 161 158 160 161 165 159 159 157 164 158 152 151 156 154 141 129 123 115 112 69 28 23 10 10 7 16 16 19 30 41 47 67 86 98 100 98 103 98 100 104 103 104 110 106 
134 140 152 153 157 155 156 163 158 155 157 155 155 155 151 149 155 148 145 147 149 155 149 144 137 135 135 140 136 118 113 126 135 147 147 157 160 159 159 160 164 159 160 159 158 155 151 151 153 153 147 131 121 115 109 68 26 23 12 7 0 16 22 23 31 40 56 67 81 93 102 99 97 98 102 100 102 100 104 104 
130 143 150 156 154 156 160 159 157 156 158 156 156 158 157 153 152 149 146 151 149 148 146 146 150 144 138 134 132 124 128 131 136 144 153 158 159 158 155 157 164 161 159 161 160 157 158 160 159 152 138 127 121 115 112 64 23 24 10 9 3 15 22 23 33 38 56 70 84 94 95 101 101 103 103 100 99 99 105 105 
134 138 153 150 153 156 157 160 156 153 156 152 155 157 153 153 150 148 149 148 148 148 145 142 148 137 128 121 122 119 131 139 137 144 155 158 161 157 157 159 162 161 160 157 159 157 153 153 155 148 142 124 119 114 110 64 21 17 10 8 8 16 18 26 34 41 56 70 80 92 102 99 102 105 106 104 99 99 105 104 
131 140 147 153 154 155 157 156 152 150 155 155 156 154 152 151 155 145 149 146 146 152 152 142 139 130 121 122 122 119 120 132 136 139 152 158 159 157 158 160 162 158 158 158 156 154 152 151 156 147 138 121 121 110 111 61 26 17 11 6 3 14 24 25 28 43 55 67 87 89 98 98 100 100 101 98 103 104 102 107 
132 144 155 154 157 154 156 160 153 154 155 151 155 156 149 152 156 144 145 147 146 147 147 142 133 125 129 123 121 119 120 126 135 140 149 155 159 158 160 161 163 159 162 159 158 155 153 152 152 147 133 122 117 114 106 60 26 19 10 11 7 14 20 25 30 42 52 72 80 96 98 99 99 101 101 101 105 107 108 115 
138 142 161 151 157 157 154 158 154 151 154 150 155 155 155 152 153 143 145 146 150 150 150 143 133 134 134 129 129 127 130 141 142 138 154 158 161 156 160 165 160 161 163 165 160 154 154 152 157 149 135 118 118 113 110 58 23 19 13 13 5 13 22 33 38 48 61 68 86 93 99 98 97 98 104 106 104 109 115 115 
135 138 154 159 156 156 154 156 155 153 154 157 156 156 156 153 155 144 144 147 148 150 145 143 137 138 135 131 129 132 131 136 140 141 152 156 161 157 161 161 165 162 159 160 161 155 153 150 154 147 133 118 115 112 107 56 23 19 12 15 9 16 25 27 37 42 65 74 88 93 99 98 97 95 100 102 102 106 115 114 
135 143 157 157 153 152 157 157 155 154 155 150 155 155 154 152 153 144 140 143 147 147 148 139 134 133 132 134 126 132 127 131 139 143 153 155 158 157 155 160 165 164 163 160 162 154 153 156 151 146 132 114 116 111 102 57 21 20 13 13 10 18 29 29 39 44 62 74 90 93 99 98 98 97 97 96 104 108 112 110 
139 137 150 154 155 154 156 155 153 151 155 152 153 153 154 152 156 138 139 143 144 149 149 142 142 136 125 123 118 116 121 133 133 138 143 146 156 153 149 158 162 159 159 158 158 153 153 153 154 145 123 115 115 111 96 49 23 26 15 16 14 20 30 32 41 47 64 76 88 94 97 97 98 97 97 99 97 99 104 114 
132 141 151 154 159 155 155 156 152 152 155 154 158 150 154 151 152 140 135 141 142 146 143 142 142 135 130 124 124 119 127 138 139 135 149 153 155 152 155 159 163 163 160 158 155 153 154 157 153 140 125 111 114 105 95 48 27 23 17 21 14 22 35 34 36 48 63 78 94 97 98 98 99 101 102 99 101 102 106 110 
137 138 154 155 156 155 155 153 155 152 155 154 159 154 152 151 154 140 131 140 146 146 145 141 140 141 134 131 127 130 124 136 139 140 144 153 153 152 151 158 164 161 159 157 160 155 156 151 149 137 118 112 113 105 91 46 28 24 25 26 18 30 34 41 43 49 72 83 96 97 100 99 100 99 100 99 100 103 102 110 
133 141 154 156 155 156 156 158 154 151 154 155 155 152 149 149 152 138 132 143 143 151 143 139 136 127 134 131 128 129 128 132 137 135 149 154 156 151 152 155 166 158 158 154 155 152 153 156 149 131 115 112 111 105 90 40 27 30 28 25 22 26 36 39 42 51 69 80 91 97 100 99 99 99 102 102 105 99 102 98 
135 137 157 151 152 151 155 157 154 153 155 156 156 154 151 145 149 140 136 142 145 145 147 132 123 121 118 130 128 120 120 119 124 133 144 153 156 154 154 157 157 160 157 157 155 153 154 158 151 132 111 111 111 103 88 43 33 32 31 35 24 28 33 38 42 53 70 83 94 101 101 101 96 100 99 102 106 106 102 90 
132 141 152 153 150 152 156 156 158 153 156 153 154 156 149 147 152 144 136 141 144 148 143 131 118 107 103 114 113 118 111 120 127 136 148 147 153 156 155 157 160 156 158 157 153 151 152 152 148 132 113 108 108 102 86 38 35 37 32 34 30 34 34 41 45 57 71 85 98 100 99 100 99 101 99 104 104 100 101 95 
137 140 156 156 156 157 155 157 156 152 157 156 155 155 151 154 150 140 136 143 147 151 144 135 124 111 111 105 110 104 117 129 130 135 147 149 151 150 151 155 158 153 154 154 156 151 153 155 150 130 115 109 106 97 84 39 34 35 37 39 35 35 38 40 45 59 77 84 96 102 98 101 102 100 101 102 100 106 105 94 
132 137 156 153 156 155 156 156 157 152 156 155 157 152 151 149 154 139 129 142 147 148 140 132 120 107 110 114 112 115 116 125 126 132 147 147 152 150 156 154 158 156 155 153 154 152 157 153 151 129 110 108 108 97 83 39 38 36 35 39 37 34 38 43 46 60 75 88 97 97 99 103 103 100 102 96 105 103 104 93 
132 137 155 153 155 155 157 156 155 154 158 157 155 157 154 149 151 135 133 140 147 146 141 133 121 110 106 106 101 104 116 132 133 143 152 149 154 152 152 156 160 156 154 156 154 155 156 156 149 126 113 107 110 100 84 35 36 39 36 39 39 39 44 40 54 55 81 85 94 96 99 107 104 107 101 99 98 102 102 96 
134 133 150 155 156 158 158 155 154 149 154 155 155 161 152 150 150 139 133 139 141 145 141 132 118 110 116 112 110 109 123 122 120 133 146 148 154 150 150 155 157 157 156 155 156 154 154 152 147 125 108 110 107 99 79 36 34 38 40 44 40 41 40 44 49 59 72 83 86 92 97 102 95 107 104 102 104 100 104 94 
131 140 158 150 156 153 158 155 150 150 152 155 155 158 151 151 149 141 133 136 140 140 138 135 123 108 111 114 104 108 122 126 127 137 146 149 153 149 144 154 157 150 152 152 151 150 154 150 145 125 107 107 106 96 78 38 37 38 41 44 41 41 44 45 49 58 74 82 85 92 92 97 96 95 101 98 98 102 99 91 
127 135 156 153 153 154 155 154 150 152 152 153 155 156 151 148 148 135 131 135 139 139 136 131 115 95 95 94 102 117 120 133 137 140 148 155 150 150 145 152 155 153 151 148 154 150 153 149 142 119 107 101 108 97 75 37 39 40 43 48 41 44 47 49 46 63 73 75 87 91 91 92 93 91 98 93 97 100 99 92 
131 131 148 152 151 156 155 156 151 145 152 154 155 154 149 149 146 132 122 131 136 141 139 132 119 99 100 101 114 116 120 135 138 139 145 149 152 150 144 154 153 154 154 149 146 149 155 157 139 116 105 106 103 98 69 33 35 37 45 47 43 44 44 49 52 57 73 77 89 90 93 92 91 94 93 93 91 95 94 93 
129 130 142 152 154 154 157 155 152 154 153 154 156 155 146 147 149 138 126 134 139 141 136 125 117 106 114 117 111 106 121 136 141 140 150 152 152 149 151 152 156 154 151 152 151 152 155 150 138 117 103 106 106 95 69 32 35 40 47 49 47 48 45 46 53 62 72 83 86 93 92 90 93 95 94 93 94 93 95 93 
128 126 147 151 154 152 154 156 149 152 151 156 156 157 154 148 156 143 124 133 135 141 136 129 126 113 112 106 106 125 130 132 139 141 151 152 153 149 151 149 152 154 150 153 150 155 154 148 135 111 106 104 107 92 62 33 38 42 50 50 46 49 48 52 53 66 77 84 90 92 96 92 92 94 96 95 95 91 92 91 
128 130 146 145 149 153 153 156 150 147 153 153 154 153 150 151 149 130 122 130 136 141 136 128 120 110 110 107 121 124 134 133 136 145 151 149 150 151 147 147 152 152 151 150 151 150 148 146 126 109 104 102 101 95 59 33 40 40 46 49 46 48 52 47 50 63 77 86 87 89 90 90 94 95 93 95 93 92 90 93 
125 126 141 149 148 154 153 154 147 148 151 151 154 157 152 150 149 127 118 125 137 140 135 132 126 122 121 120 127 129 127 125 120 129 148 151 149 148 146 148 154 154 146 149 148 151 155 141 130 104 100 104 102 87 62 36 38 43 45 50 51 49 46 49 51 67 79 83 86 85 90 92 94 97 98 95 92 85 89 89 
126 133 142 149 150 151 155 154 151 146 147 153 152 157 151 152 150 137 118 129 133 139 137 125 123 124 123 120 126 128 124 106 90 111 141 151 152 152 147 150 151 148 148 149 150 147 149 144 121 103 99 102 101 89 56 39 38 43 48 52 49 50 46 49 54 64 78 85 87 87 86 90 94 97 96 93 93 86 84 83 
126 129 142 148 150 154 154 152 151 145 153 154 151 154 151 150 152 137 129 129 136 141 133 130 123 125 127 124 129 128 113 90 80 107 144 148 149 147 149 151 150 146 146 148 147 149 146 137 120 101 99 97 101 86 56 34 38 40 46 56 52 48 50 52 56 69 79 79 82 87 90 92 94 93 92 97 86 87 81 83 
128 129 139 142 152 150 151 152 148 149 150 149 149 151 150 146 149 138 121 126 134 138 132 128 121 117 116 112 117 108 79 66 75 108 140 143 145 146 147 149 149 149 149 145 147 144 144 138 111 99 96 100 97 82 53 36 37 38 44 54 51 52 52 52 52 67 76 77 80 84 86 86 94 97 90 94 83 84 80 75 
124 128 139 136 153 154 153 149 149 146 153 153 154 152 150 148 147 137 122 124 137 140 131 126 118 94 67 60 63 64 60 62 74 111 138 134 143 143 146 148 150 150 146 146 147 143 143 136 111 97 95 99 99 79 50 40 39 41 51 55 51 54 53 56 52 70 80 83 85 89 91 88 91 94 92 85 83 80 75 82 
127 126 138 145 157 155 152 153 150 150 153 156 154 153 152 146 152 140 127 122 135 141 136 118 115 88 60 54 51 54 57 62 69 86 105 101 115 128 142 147 144 146 145 146 140 142 138 133 108 93 94 94 99 77 44 34 39 38 52 58 48 54 53 56 58 72 81 79 83 84 84 89 90 87 82 84 84 82 80 81 
119 129 137 142 158 155 151 152 153 151 153 153 153 155 153 147 151 136 126 122 135 136 133 126 118 89 57 49 47 46 55 54 59 59 72 66 85 89 104 119 137 145 146 133 126 124 132 120 99 94 93 91 92 72 38 27 36 38 45 50 43 48 54 56 58 71 79 79 75 82 80 81 79 80 78 75 75 80 78 73 
127 121 133 146 153 148 152 153 152 152 155 158 156 157 148 150 145 135 122 122 131 138 132 125 117 92 58 46 49 48 53 51 56 59 62 60 69 70 83 106 135 139 142 131 95 109 102 107 94 92 95 93 96 70 37 28 26 34 45 45 47 49 56 59 59 73 80 84 78 77 78 78 80 78 76 75 75 74 77 79 
125 122 132 137 150 150 150 151 153 145 154 157 154 155 146 147 152 140 117 121 128 134 129 120 118 100 64 38 42 40 48 50 50 56 60 59 64 65 74 85 111 119 122 101 78 74 79 91 87 89 89 93 90 63 29 21 26 33 38 44 41 48 52 55 60 74 85 80 77 77 77 78 73 73 78 69 74 72 82 79 
126 123 131 140 148 147 151 152 151 148 150 154 161 155 150 143 146 138 117 120 132 134 129 124 120 99 64 39 36 37 43 42 51 49 56 58 62 58 64 74 81 80 82 77 71 67 72 86 91 84 84 87 82 57 27 17 16 24 29 40 41 42 50 52 59 72 84 80 83 77 74 74 76 74 73 75 77 78 74 75 
119 120 132 143 148 151 151 153 151 150 154 154 154 153 150 150 152 140 117 115 128 134 127 122 118 100 65 40 35 34 41 42 46 46 52 49 54 56 63 67 70 71 66 68 66 64 70 87 87 83 86 81 79 50 21 11 14 19 30 37 39 47 51 57 66 77 81 80 77 75 74 72 75 78 77 77 75 75 75 74 
126 121 131 139 146 145 153 151 151 150 156 151 156 154 147 145 142 136 111 109 126 132 129 123 111 99 72 39 35 30 36 38 39 46 49 47 50 54 58 66 66 63 66 64 66 62 67 83 87 80 82 82 76 36 15 11 12 17 28 38 34 47 49 55 61 72 75 73 75 74 75 70 74 80 76 76 77 71 79 73 
120 119 126 132 140 144 152 145 151 150 155 153 156 152 149 144 144 139 114 110 129 131 128 126 116 99 74 42 30 32 33 36 32 39 39 41 48 50 51 61 63 56 57 59 64 58 69 76 81 74 77 76 71 32 10 11 15 23 35 36 41 44 58 57 65 74 74 76 75 73 75 68 74 77 76 80 77 76 77 75 


