P2
80 60
305
156 150 151 153 147 148 147 142 141 141 143 145 144 143 137 131 99 36 29 40 65 91 90 97 109 120 121 121 120 124 123 122 124 135 129 124 121 125 124 127 126 121 107 116 124 119 118 120 131 135 137 140 142 141 141 141 146 152 158 147 147 146 147 143 138 138 130 133 132 133 133 132 129 129 132 134 134 134 130 134 
160 149 149 152 146 144 144 142 140 143 146 145 142 141 138 128 97 32 34 46 73 87 95 102 108 117 126 124 126 121 124 124 126 124 122 125 123 124 120 124 124 119 106 116 123 122 118 129 135 133 139 139 139 141 147 142 145 148 147 146 146 147 147 143 142 137 134 132 129 132 133 130 132 132 129 136 135 137 135 132 
158 148 147 151 150 150 143 141 142 143 145 142 144 142 135 122 86 31 38 50 78 92 90 102 109 114 125 120 122 124 124 125 120 126 123 123 121 124 123 125 126 118 107 118 125 120 116 125 131 133 140 141 142 144 142 140 143 145 147 144 145 146 148 141 142 136 135 136 129 132 132 132 135 130 127 136 134 140 139 138 
156 157 149 153 146 147 147 143 142 143 146 146 144 136 137 126 75 21 28 45 73 98 98 103 104 113 120 116 120 124 123 122 121 122 126 122 126 128 125 125 127 116 107 119 124 125 119 126 138 139 140 139 143 144 143 143 141 147 146 149 155 148 146 142 139 140 140 136 134 137 134 136 136 134 128 135 135 141 141 134 
161 154 147 155 147 147 149 148 144 143 144 149 141 137 141 119 68 14 12 43 63 84 101 106 110 113 115 117 117 118 122 123 122 122 119 125 125 128 124 124 130 117 111 126 125 122 123 128 135 136 141 141 141 145 141 144 142 144 146 152 150 150 146 154 149 143 139 135 135 137 137 141 136 134 134 138 138 142 134 131 
156 150 149 151 145 140 145 144 143 144 142 145 141 134 142 118 60 8 9 34 46 73 93 103 106 110 114 113 110 115 121 117 121 118 122 121 125 125 123 123 119 112 113 122 125 119 126 127 138 140 141 141 142 143 140 146 143 146 147 149 150 145 150 144 145 143 137 139 137 136 135 134 132 129 136 137 136 141 136 131 
155 148 150 150 141 142 144 143 143 145 146 153 140 139 137 111 52 9 18 25 44 63 96 100 102 109 117 112 111 113 119 118 121 118 123 124 125 123 124 122 120 111 105 123 124 126 122 132 138 139 141 142 141 143 142 143 145 153 149 149 145 144 146 144 144 141 137 137 138 134 131 131 135 128 137 137 138 138 134 133 
157 153 153 150 146 147 143 142 142 145 144 149 142 137 135 108 42 11 12 26 44 66 91 96 97 104 111 110 109 114 116 117 120 117 119 125 124 127 124 125 123 112 112 124 125 122 123 130 136 138 142 143 145 142 146 150 144 146 153 151 149 143 144 145 142 143 142 137 137 130 133 137 135 133 130 133 133 137 139 133 
156 150 151 148 146 137 136 143 143 146 145 150 144 131 130 102 37 10 9 21 50 64 83 92 97 101 108 108 110 111 119 114 117 119 121 123 123 124 121 123 121 105 113 122 126 120 118 129 139 138 142 142 145 143 139 143 143 146 150 150 145 143 146 140 141 143 135 137 134 132 130 135 133 130 131 132 133 136 134 133 
153 149 152 150 137 129 135 144 143 146 149 151 141 135 133 102 35 8 9 25 53 70 81 82 90 101 110 107 110 113 113 114 117 113 121 122 126 123 118 116 114 106 117 122 128 117 117 128 139 139 143 138 143 142 142 140 146 144 148 154 150 143 147 149 144 141 140 134 137 138 132 138 133 132 132 131 135 139 137 135 
155 148 148 141 136 126 135 137 143 145 143 149 139 137 137 99 26 7 14 28 51 60 75 79 90 106 114 114 109 109 110 113 113 117 120 119 124 122 122 121 108 109 117 120 124 115 117 130 136 140 141 141 142 143 141 145 143 149 148 149 153 147 146 146 144 141 138 139 135 135 130 134 140 128 133 136 134 137 133 137 
155 144 149 145 137 117 123 140 143 140 144 147 140 138 126 92 18 6 13 25 45 60 73 78 83 112 116 113 108 107 112 110 112 117 116 119 119 122 118 118 112 102 115 127 128 111 116 131 137 136 139 138 142 143 140 141 144 145 150 148 148 148 146 145 140 142 137 134 137 127 129 130 133 131 132 140 141 138 138 133 
154 147 140 147 130 114 121 135 142 146 149 143 136 138 124 88 19 5 16 21 47 64 79 76 89 103 116 108 107 109 112 111 114 122 114 118 121 119 121 119 110 105 121 129 129 114 117 130 139 136 144 141 140 144 143 145 145 148 146 149 152 145 150 147 142 144 143 136 136 135 125 134 131 132 135 139 133 140 136 136 
153 147 139 134 116 109 117 128 138 141 142 144 138 137 116 84 16 5 13 18 44 62 74 75 85 106 111 105 99 107 110 110 112 118 117 114 117 119 119 117 113 105 123 128 128 117 123 132 139 140 142 142 141 144 141 144 145 146 151 149 143 147 148 145 145 142 140 138 133 135 133 128 131 134 134 137 135 140 138 136 
150 144 142 130 117 116 116 127 137 139 141 146 137 136 114 77 11 1 14 22 44 61 78 81 93 106 110 104 103 108 106 108 110 114 113 115 116 121 115 118 108 105 119 121 126 116 121 135 137 140 138 139 141 140 143 146 149 156 150 147 145 145 145 144 141 138 142 135 133 133 130 132 131 132 132 139 133 139 133 135 
150 143 138 135 124 118 121 135 140 137 141 143 138 139 111 71 7 2 14 22 52 71 87 89 96 106 111 107 110 115 110 108 109 114 115 115 117 121 113 116 109 109 120 124 129 117 121 135 139 136 141 140 143 142 141 145 147 150 155 149 147 147 143 139 140 142 137 140 137 132 134 137 138 133 134 140 138 140 136 137 
147 143 139 134 124 117 125 131 134 140 142 142 135 135 104 63 7 4 17 23 50 73 92 90 91 97 109 108 112 113 111 108 110 114 112 114 115 117 118 113 106 107 123 128 122 120 121 135 136 138 141 141 142 145 147 142 147 151 147 150 146 147 144 141 145 140 138 138 135 131 129 138 141 132 131 137 132 143 137 137 
146 142 137 131 128 119 120 127 136 140 142 141 133 129 99 54 7 0 12 27 54 75 91 87 91 100 105 104 106 112 111 107 111 113 111 113 116 117 118 110 107 109 121 122 124 117 120 133 136 137 141 138 138 143 146 140 146 152 150 147 148 142 143 142 145 142 136 136 133 135 133 135 131 132 136 136 136 140 134 135 
144 135 137 136 124 122 123 123 133 138 136 143 136 126 98 46 8 7 16 29 59 80 95 89 90 95 104 104 107 115 112 107 113 113 112 115 114 117 118 109 109 112 120 125 120 114 120 133 134 133 140 141 145 146 142 145 147 146 151 151 144 143 143 145 142 144 137 138 134 131 135 131 131 132 135 138 136 141 138 138 
140 139 135 129 124 119 122 128 133 133 137 140 138 121 89 44 18 15 18 33 67 89 98 88 90 96 104 108 108 115 114 107 107 108 110 113 114 119 116 105 108 115 123 128 118 114 123 132 137 138 138 140 142 143 141 142 144 147 148 147 144 144 141 143 142 139 137 135 133 134 131 138 133 131 134 135 136 142 137 137 
137 134 131 115 117 113 118 130 130 133 138 138 136 118 89 38 27 18 24 33 70 88 92 90 89 94 101 104 106 116 117 107 106 110 111 114 114 117 115 100 99 121 119 123 114 117 126 133 136 140 141 140 145 142 143 140 144 143 147 150 145 143 146 138 142 142 138 136 134 137 131 134 132 136 136 133 135 143 138 139 
139 133 128 112 109 111 120 130 132 134 137 139 139 106 83 35 28 29 30 37 76 84 94 92 92 99 106 103 105 115 108 105 104 109 109 109 113 113 116 99 103 118 121 119 110 115 122 134 135 134 140 140 143 147 144 143 143 144 149 145 146 145 144 142 142 141 140 137 138 140 134 131 133 135 136 136 139 142 141 142 
139 133 128 112 108 112 116 131 131 138 133 135 131 106 78 30 28 32 30 43 72 88 94 88 90 98 100 102 102 111 103 104 104 105 109 110 113 113 107 99 103 116 119 118 116 116 127 133 137 138 142 141 145 142 142 143 143 144 148 145 145 143 145 143 147 145 138 134 135 135 133 133 133 135 135 138 139 143 139 141 
136 128 124 108 105 115 125 134 132 136 137 134 129 97 81 35 28 35 40 40 66 72 93 88 88 98 103 103 102 98 97 105 101 105 105 109 110 111 109 90 102 116 116 115 111 117 127 133 137 140 143 142 143 143 143 138 142 145 145 141 142 141 145 145 146 146 142 136 135 133 131 133 137 134 135 139 138 144 141 142 
130 125 124 103 109 116 125 131 132 133 131 132 124 96 76 28 33 39 38 45 65 70 88 85 85 91 99 101 100 94 98 98 97 98 105 104 109 111 105 95 106 115 118 116 111 114 126 133 136 138 138 142 139 147 141 139 142 145 149 147 145 147 146 144 146 147 139 137 134 133 131 130 133 138 139 141 138 144 142 141 
128 124 120 112 112 110 99 129 128 131 133 133 121 96 77 30 36 39 40 44 61 71 88 85 85 91 99 97 95 96 96 97 100 97 104 106 109 106 107 93 105 115 115 114 112 119 128 137 137 138 138 140 144 144 140 140 141 145 148 148 146 146 144 142 143 142 141 136 131 133 132 129 131 135 142 143 142 145 142 139 
124 125 115 104 93 83 85 108 108 111 124 119 113 87 70 28 37 40 39 46 60 69 86 80 85 89 97 95 96 94 94 99 100 100 103 106 106 104 102 90 103 115 116 112 112 118 128 135 136 133 139 142 147 141 139 143 140 142 148 149 144 143 144 143 142 144 140 137 135 132 131 128 133 135 139 137 144 146 141 141 
118 122 113 80 66 67 73 82 79 83 92 80 83 87 60 26 36 40 42 47 59 72 82 82 81 90 94 94 91 89 94 94 94 99 101 105 103 104 102 90 106 113 115 110 109 116 128 131 137 137 143 141 141 144 140 141 143 142 148 146 152 142 142 143 146 142 139 136 137 131 132 127 134 138 136 140 141 144 146 140 
117 118 108 73 64 65 69 72 74 73 70 66 78 83 53 27 29 41 43 49 55 65 79 79 82 88 94 86 84 89 91 93 94 99 100 101 103 107 106 90 105 110 110 106 108 115 130 133 137 136 140 140 141 141 139 141 141 145 146 147 147 143 143 141 145 148 139 138 135 131 134 129 134 137 140 143 143 146 145 141 
117 118 111 77 61 65 67 68 77 71 62 69 75 76 46 21 27 39 42 47 57 66 76 75 82 85 85 82 81 84 91 96 94 95 99 103 104 108 98 87 103 107 110 101 106 115 129 133 132 136 141 142 142 140 139 139 144 143 146 146 144 143 144 143 141 142 147 138 133 135 130 130 135 138 143 146 141 146 141 139 
118 114 111 72 52 58 62 68 67 64 58 66 72 71 35 6 18 32 40 46 56 63 72 75 79 84 81 82 81 87 90 90 93 96 96 98 100 100 93 87 103 107 104 102 106 113 127 133 138 134 137 139 143 141 141 144 144 143 143 147 147 143 146 147 144 143 139 139 134 135 135 132 139 140 138 142 144 146 142 141 
109 110 101 71 53 54 54 58 59 62 57 63 68 65 31 5 15 33 45 47 58 62 81 80 80 79 82 81 89 100 107 106 110 109 110 107 106 106 102 88 106 108 101 100 104 112 128 134 137 139 143 144 147 148 145 146 147 146 143 144 145 143 145 143 146 142 139 143 137 139 145 142 142 140 140 144 144 149 144 145 
100 110 104 72 40 44 50 49 52 49 50 56 62 57 20 6 29 35 48 52 60 60 74 76 72 77 77 82 111 136 143 138 135 138 139 141 135 137 128 117 112 103 99 99 99 112 128 133 136 135 143 145 152 156 155 151 153 146 144 142 146 144 144 146 147 151 144 148 150 149 148 145 141 143 145 147 146 151 145 144 
96 106 105 68 32 33 35 39 41 39 38 51 56 54 21 11 35 44 49 50 52 60 67 64 61 67 78 90 128 142 149 148 144 146 150 147 145 146 147 147 136 103 98 94 99 112 126 133 136 138 145 150 189 214 202 159 146 147 147 147 147 150 148 148 150 148 145 150 158 171 169 162 150 146 147 148 146 151 147 142 
95 104 106 69 31 32 37 37 37 39 42 50 49 47 18 17 31 47 52 47 49 51 61 54 55 62 70 114 131 144 149 149 145 145 152 147 151 149 149 151 140 103 94 90 93 113 127 129 135 134 143 151 219 245 233 160 155 157 153 152 150 146 145 144 148 148 147 144 171 186 190 184 187 174 167 156 153 156 154 151 
89 101 102 74 38 35 36 41 35 37 40 41 38 36 18 21 40 46 50 50 49 49 53 52 48 57 83 128 137 146 152 155 154 150 152 152 151 155 152 154 150 107 89 89 97 110 127 134 134 138 141 154 219 267 235 170 164 161 151 154 146 146 146 142 146 143 140 145 174 194 197 200 206 203 196 188 183 174 163 155 
89 98 99 83 30 25 27 32 30 29 33 34 27 29 43 59 68 51 52 53 53 55 58 54 58 67 111 138 140 148 149 152 154 151 155 151 153 157 154 153 156 117 89 87 92 112 125 131 136 139 145 154 197 221 212 165 159 156 154 148 149 141 144 145 144 144 141 148 183 195 199 203 208 209 213 213 215 209 196 177 
87 98 94 78 29 28 28 23 26 22 26 25 34 59 73 84 83 70 53 52 55 49 57 53 60 84 133 143 145 147 153 151 154 155 153 151 154 159 159 158 159 136 90 87 94 113 121 129 133 138 146 166 191 196 202 188 158 152 150 150 143 146 146 143 146 148 139 151 188 198 205 201 208 212 220 222 220 228 214 202 
81 97 100 78 43 38 34 32 29 23 26 36 45 67 74 87 88 70 48 49 49 47 58 59 72 114 141 144 147 149 151 155 152 154 155 154 157 158 157 156 161 147 98 90 98 116 122 129 138 138 154 168 180 186 190 189 176 151 147 151 148 143 144 143 144 143 139 162 195 202 205 209 213 215 221 229 226 228 222 218 
71 96 94 84 45 43 52 42 36 34 53 53 57 68 76 86 80 65 54 53 56 54 63 63 98 138 152 151 150 155 149 155 155 155 154 153 156 159 157 156 155 153 114 92 98 114 127 129 133 140 156 163 176 178 184 184 175 157 143 144 145 144 144 146 141 147 144 169 196 204 208 209 213 219 219 230 229 235 230 211 
80 95 99 83 54 56 60 60 50 51 52 58 57 68 77 82 77 61 65 63 62 59 69 90 133 146 152 153 154 155 152 155 153 159 157 155 158 157 159 157 154 155 141 102 100 117 127 132 137 143 156 162 173 171 175 178 170 148 144 142 145 142 151 152 147 148 145 184 205 204 207 213 217 222 225 236 233 239 233 221 
86 96 96 85 81 88 93 92 81 86 85 87 83 86 85 87 87 84 77 74 76 77 92 124 143 146 155 154 153 151 151 153 156 161 158 158 160 160 158 155 152 153 150 133 109 120 128 133 140 140 150 154 158 155 151 149 150 146 142 143 141 144 152 151 148 154 155 202 207 211 212 218 223 226 230 234 236 239 237 221 
98 97 101 89 94 107 107 100 102 102 104 104 105 109 104 104 107 107 105 100 103 104 127 139 144 151 152 142 149 156 158 156 155 158 159 159 161 162 158 151 152 152 157 151 134 128 128 137 141 139 148 151 149 146 147 145 143 142 142 144 145 146 151 156 157 163 173 208 213 214 216 221 224 231 231 235 235 235 231 225 
108 100 102 96 100 102 101 100 95 96 103 105 106 109 107 110 107 110 111 109 112 116 137 145 145 145 139 138 147 157 159 159 157 158 159 158 162 161 156 145 144 152 151 149 146 133 134 140 139 138 144 145 144 145 146 142 141 140 140 145 150 146 154 151 153 164 186 216 220 222 221 224 225 229 234 237 234 233 232 227 
109 105 107 110 106 107 106 106 99 98 100 105 105 109 108 107 111 112 110 111 115 122 147 140 148 145 135 133 144 154 156 160 157 159 157 157 158 160 158 144 141 144 154 151 155 147 138 139 138 140 144 143 142 142 140 139 145 145 144 145 144 143 147 148 157 162 199 233 234 234 230 230 228 229 236 239 239 243 233 229 
105 104 108 108 112 106 111 106 103 103 105 104 106 113 109 111 111 108 109 109 114 129 144 143 142 146 131 135 148 157 157 157 157 157 157 159 157 158 155 147 144 138 148 152 157 155 139 138 138 138 142 142 143 141 140 141 145 148 147 148 149 146 143 151 149 162 180 229 240 253 246 237 238 236 242 248 243 247 244 234 
107 108 106 106 105 110 106 104 97 94 96 104 105 108 105 109 104 104 108 105 112 131 144 145 149 145 141 143 150 155 153 156 155 156 157 155 156 157 153 147 142 143 150 152 153 154 142 141 143 142 144 144 145 148 147 147 154 154 157 153 150 137 144 144 152 157 159 173 218 244 251 254 246 239 249 252 251 247 246 235 
109 105 106 106 111 104 109 104 98 95 101 104 101 108 104 104 106 105 105 103 112 130 145 144 149 150 151 150 154 157 155 157 158 159 154 153 158 155 157 159 149 154 155 156 159 151 142 136 141 139 145 146 149 150 153 156 155 156 158 155 149 142 137 144 151 157 155 162 164 196 246 264 260 263 259 263 263 260 254 238 
110 107 104 109 107 104 102 104 98 97 102 104 104 109 106 108 107 108 106 106 110 128 152 146 147 155 157 152 154 157 154 158 156 155 156 154 156 158 159 159 165 159 157 155 160 156 140 133 139 136 145 146 147 153 153 159 162 160 160 156 151 142 142 151 159 163 162 161 156 161 180 221 263 284 270 277 278 268 259 254 
109 106 105 109 106 101 98 97 96 100 102 105 105 108 108 109 105 108 108 105 108 122 145 146 146 153 158 155 156 157 159 158 160 155 157 158 159 157 158 157 164 157 155 156 153 150 134 126 131 125 135 134 139 146 144 147 149 146 147 152 148 143 148 153 155 162 157 158 155 151 156 166 207 259 287 295 285 286 268 264 
109 106 104 102 106 103 96 97 95 98 100 103 106 106 105 109 107 106 106 104 107 114 145 143 150 152 163 155 157 159 157 158 160 156 159 159 160 158 158 159 161 161 154 152 150 146 147 128 127 130 136 134 140 146 138 139 138 142 142 141 144 140 143 150 152 152 153 152 156 148 149 150 162 184 232 281 305 294 284 280 
111 107 108 107 104 102 100 97 93 95 100 101 104 104 106 105 108 108 109 104 109 111 139 146 148 151 158 156 157 156 157 155 157 154 158 156 158 154 155 157 157 160 155 151 150 145 143 140 133 135 139 137 140 142 140 138 133 146 146 144 146 144 145 148 145 152 148 150 149 150 150 150 152 158 172 208 261 300 295 278 
107 103 106 109 107 100 98 97 92 93 99 101 104 108 101 106 102 105 104 101 104 105 137 141 149 151 159 155 158 156 154 155 157 153 154 156 157 157 155 157 157 152 151 149 144 146 150 143 141 140 143 143 145 148 145 149 143 147 150 150 149 146 151 146 146 150 145 149 148 149 150 152 155 152 155 164 185 231 267 267 
109 104 104 109 111 106 97 96 92 90 95 103 102 107 104 104 103 105 99 101 103 112 138 146 146 148 155 152 156 159 160 155 157 153 155 157 155 156 155 154 157 153 153 149 145 141 143 149 141 141 148 148 148 153 149 149 151 149 150 153 152 149 152 149 149 152 153 150 148 147 148 150 156 151 153 157 164 175 191 200 
110 106 105 107 107 103 99 94 91 96 102 100 104 103 103 103 104 106 102 101 106 106 143 144 146 153 164 155 159 154 158 158 156 155 156 155 156 153 156 153 157 155 151 150 146 136 141 147 148 148 152 156 166 165 160 158 155 154 152 151 151 147 157 152 152 156 151 155 154 151 150 157 151 156 153 154 154 163 159 158 
108 103 106 109 106 98 95 96 90 93 100 104 104 106 105 102 100 106 103 99 105 111 134 140 146 153 162 156 156 160 160 158 157 152 155 156 156 153 153 155 153 153 152 149 141 137 140 145 154 156 160 160 167 169 168 162 163 161 158 156 153 151 152 150 155 157 153 153 154 154 157 158 161 155 152 154 154 148 160 158 
111 106 106 108 102 100 95 95 89 93 98 100 107 106 105 101 102 105 105 105 112 113 141 142 141 149 157 155 154 159 155 157 156 153 157 156 157 153 154 155 155 155 149 146 144 141 142 149 157 161 166 159 166 168 167 165 162 165 157 155 158 154 157 153 158 161 157 159 152 156 153 161 167 165 159 155 151 159 153 152 
106 105 99 104 105 104 102 98 93 98 98 104 103 108 100 103 102 103 112 126 141 133 142 141 145 148 158 154 158 159 155 154 154 156 158 153 158 158 153 153 154 152 149 152 145 136 140 153 149 158 166 163 164 166 169 168 170 174 166 162 159 159 160 156 160 169 166 163 158 159 156 161 178 187 174 157 152 153 148 155 
106 106 104 106 102 99 103 97 95 94 99 100 98 103 101 100 99 102 117 136 143 143 145 142 146 150 158 155 156 155 155 154 152 155 158 156 156 154 156 154 154 153 150 146 149 142 140 144 153 155 164 166 167 165 167 170 170 173 169 163 160 156 155 158 161 162 162 160 160 160 159 163 179 190 194 171 150 152 146 149 
112 103 106 108 106 103 102 97 95 93 100 98 102 103 101 99 102 103 127 145 148 147 148 139 143 151 153 152 152 153 149 154 152 153 154 153 155 152 153 150 150 154 150 149 148 142 143 145 150 155 166 165 168 168 167 170 167 173 168 169 161 160 161 160 162 164 161 163 166 167 166 168 172 178 179 168 159 153 148 145 


