P2
80 60
46
35 37 35 32 32 31 33 36 39 39 40 37 39 34 30 30 34 34 31 33 37 36 31 32 32 32 34 33 35 34 34 32 31 39 38 32 35 39 34 34 35 35 36 27 31 31 28 28 31 29 28 30 29 33 30 33 35 34 42 34 34 33 32 30 27 27 27 27 23 17 25 20 21 27 27 30 30 31 27 17 
39 38 38 37 35 36 36 39 36 37 39 39 34 35 37 37 38 35 34 36 37 33 34 31 33 34 33 33 33 36 35 36 35 35 37 36 37 39 32 33 36 36 36 32 29 33 31 32 30 25 29 31 30 31 33 35 32 34 33 30 31 28 32 26 29 27 28 24 26 15 26 20 25 27 27 29 29 29 29 26 
37 36 34 32 36 37 32 38 42 36 42 41 38 33 37 33 33 32 32 35 40 38 38 33 34 34 36 35 36 38 36 38 39 39 39 33 37 41 34 34 35 35 36 32 31 33 30 30 28 28 26 27 28 31 28 34 33 33 31 31 31 32 28 28 28 24 25 25 24 23 26 25 23 27 28 28 27 28 29 24 
39 40 36 32 34 40 37 35 37 39 45 39 37 32 33 35 38 37 34 33 36 36 34 34 34 37 32 35 38 40 35 37 37 37 34 39 35 40 34 35 36 34 35 33 32 33 31 31 30 28 31 28 31 28 30 33 34 33 31 30 27 30 29 31 29 28 27 25 27 25 28 28 23 26 26 29 27 27 30 23 
45 39 38 35 35 35 36 37 36 39 40 37 34 33 35 33 38 32 36 37 36 37 35 34 35 38 38 38 36 33 35 38 32 35 35 36 34 41 40 36 37 35 36 33 33 33 33 31 29 29 29 30 29 29 29 31 30 28 33 29 31 28 30 34 31 30 26 27 31 21 30 28 24 25 29 30 31 30 28 20 
39 37 36 35 34 34 37 39 40 35 38 37 36 36 32 34 34 36 33 35 37 39 36 34 37 37 36 38 35 35 34 34 32 36 35 34 37 38 36 36 37 38 36 33 33 35 34 33 26 29 30 28 29 27 27 35 30 30 32 29 33 32 25 30 28 27 27 30 30 24 25 26 27 25 27 27 29 31 27 24 
38 39 35 35 38 34 38 39 40 38 37 42 36 32 35 36 39 36 37 37 38 36 38 36 37 32 35 35 33 32 35 36 35 35 36 36 35 38 34 35 37 34 33 34 33 31 30 29 30 26 30 33 36 28 32 36 34 37 38 36 33 32 30 31 28 26 23 26 26 22 24 23 23 24 26 26 28 29 27 20 
42 41 41 37 39 42 36 39 37 36 37 38 35 38 33 41 37 37 38 35 39 38 37 36 36 35 35 34 37 34 32 33 32 37 37 39 36 38 34 34 37 33 33 35 32 31 31 29 28 28 29 33 36 30 31 36 31 31 32 29 30 29 34 29 27 25 26 23 24 18 23 21 25 25 30 28 27 27 27 25 
46 40 38 37 40 39 44 39 38 37 35 36 39 34 36 37 38 34 36 41 36 34 37 36 35 34 37 37 36 35 35 32 29 34 37 35 35 41 36 35 34 32 31 36 35 32 30 34 30 30 31 32 30 28 28 35 31 29 31 31 31 31 33 27 22 26 24 24 23 21 26 20 19 23 22 27 29 28 24 23 
46 44 36 39 38 39 42 42 41 35 40 38 39 33 32 34 39 34 40 36 37 39 38 36 37 35 33 33 33 36 35 32 30 36 37 34 38 37 33 35 33 33 33 36 35 36 31 34 32 32 37 34 29 32 32 38 37 31 36 30 29 31 31 27 26 28 26 23 26 18 24 24 22 21 27 26 25 26 25 20 
43 45 40 40 36 40 42 38 40 39 41 36 34 33 34 37 37 36 33 35 35 35 36 35 36 37 35 32 34 34 33 33 31 35 33 37 34 39 35 35 32 32 31 33 33 33 33 35 33 34 37 36 35 32 35 37 38 35 33 30 29 32 28 32 27 28 23 28 24 24 25 21 21 25 24 30 26 28 27 20 
42 42 39 42 41 41 42 38 37 38 36 36 37 32 36 31 34 32 33 36 36 33 35 34 34 32 33 35 34 34 34 35 35 34 32 33 35 37 34 34 38 35 30 33 33 36 32 34 33 38 39 36 34 32 32 39 33 34 32 31 32 33 30 33 28 27 25 26 24 20 20 21 23 27 24 30 27 26 29 22 
43 42 43 42 42 41 37 37 35 37 34 35 36 34 34 32 34 32 30 34 35 35 35 34 33 31 33 35 32 34 33 34 32 35 33 34 33 36 33 35 34 35 34 34 37 33 38 36 34 31 35 35 31 30 31 34 33 33 32 32 30 33 34 31 29 28 29 25 26 24 17 23 25 24 26 24 28 27 29 26 
40 42 41 37 39 37 35 37 35 36 35 34 34 33 35 32 35 33 31 31 35 35 32 32 32 31 31 32 31 33 35 31 33 35 34 32 34 40 33 32 31 34 32 33 34 34 36 34 29 37 35 33 30 30 29 35 34 34 32 31 30 31 29 30 26 27 26 26 23 15 22 19 23 23 27 24 26 24 30 20 
42 42 41 38 37 37 37 35 33 35 33 35 31 31 31 31 32 30 31 29 31 34 36 33 32 31 32 31 32 31 29 30 29 35 33 33 34 34 31 31 30 31 31 32 29 33 33 31 32 31 34 32 30 31 31 36 35 41 34 29 31 27 28 26 25 24 27 25 28 17 22 20 23 22 23 21 25 27 24 19 
41 44 43 37 40 37 36 35 36 33 33 33 34 35 33 34 30 29 31 31 33 33 32 34 32 34 32 31 30 32 32 29 31 34 34 33 34 36 33 31 34 35 34 36 32 34 34 33 31 31 32 31 32 37 31 37 36 34 33 32 28 29 32 27 28 26 25 29 25 22 26 21 23 24 21 23 24 29 27 22 
42 45 41 39 39 38 35 33 35 33 36 33 32 32 31 30 32 30 32 32 37 35 36 30 31 28 32 33 34 33 31 31 34 36 31 31 33 34 30 32 34 33 31 32 31 37 33 31 30 31 32 30 30 30 32 37 31 34 35 33 28 30 31 28 26 26 23 27 27 22 26 23 27 23 24 24 23 22 25 24 
44 41 42 40 39 34 33 33 33 32 33 32 32 31 32 30 33 32 32 32 33 31 33 31 30 31 29 34 34 34 33 29 32 32 30 33 32 32 32 32 34 28 33 35 32 33 34 31 32 28 29 31 35 30 35 34 31 36 33 32 29 26 28 29 24 26 21 25 27 22 22 22 27 20 25 24 23 24 29 19 
41 42 38 36 40 37 36 34 34 32 38 34 32 32 32 34 32 33 30 32 32 33 34 33 30 33 31 32 35 33 34 31 33 35 37 32 32 35 33 33 32 35 31 34 31 31 31 29 30 28 33 29 35 31 31 33 33 30 32 25 27 29 28 25 24 25 24 28 27 23 24 22 22 19 22 24 27 24 29 18 
40 42 39 35 39 43 36 34 35 32 38 32 35 31 32 32 32 32 35 32 35 36 37 32 33 35 33 33 31 33 35 32 28 32 34 32 34 38 30 29 38 35 31 31 29 30 28 32 32 28 32 33 32 27 31 35 33 27 30 27 28 29 28 26 24 27 24 26 27 25 22 22 23 23 20 21 21 26 24 17 
43 41 38 33 38 33 37 31 32 35 34 34 33 31 31 30 30 31 31 33 33 34 33 34 34 32 32 31 30 31 44 34 32 31 32 30 36 34 30 31 34 36 35 30 30 30 31 30 30 31 30 31 32 25 29 31 31 30 29 28 27 26 29 25 28 25 24 26 24 24 26 23 21 22 22 22 23 24 25 17 
42 41 37 37 35 31 37 32 34 32 35 32 38 33 32 32 29 28 32 33 31 33 34 32 31 30 30 31 28 32 33 32 31 33 31 29 34 32 31 31 34 32 29 27 29 30 28 30 28 28 30 28 30 26 29 30 29 29 31 27 26 28 28 30 26 28 23 27 23 24 17 20 24 22 23 20 19 24 26 20 
37 43 37 38 33 32 33 37 37 34 32 33 36 33 32 32 32 31 34 32 34 34 29 33 31 33 31 32 30 28 29 29 31 30 28 32 32 33 30 35 32 29 29 29 37 26 32 26 30 28 31 26 26 28 27 32 27 26 30 28 27 26 29 28 27 26 27 26 25 23 22 23 25 23 23 23 18 23 25 23 
37 38 35 33 34 32 36 42 38 33 35 35 34 31 34 32 31 32 31 32 34 30 31 31 28 30 30 28 28 31 29 30 30 28 29 28 30 31 32 32 33 29 28 29 31 30 30 28 28 31 30 28 29 24 27 28 27 27 27 27 22 27 28 27 25 25 25 27 23 23 21 21 22 22 25 23 19 26 25 20 
43 42 36 35 33 36 36 37 35 35 33 36 35 31 29 30 33 32 31 31 33 33 29 31 33 29 28 29 29 29 27 28 29 29 29 28 29 33 31 30 25 29 30 30 32 29 29 31 30 29 28 28 27 26 25 31 26 27 27 29 26 25 29 24 25 28 25 25 24 21 26 19 24 24 23 21 24 19 29 25 
39 40 36 32 34 35 34 36 33 33 35 32 31 31 36 32 32 32 29 29 31 32 32 34 29 33 30 29 27 29 29 26 28 27 30 29 29 31 27 28 27 30 29 30 28 32 28 32 28 24 28 27 25 26 25 27 27 25 26 28 25 24 26 26 28 25 25 25 24 24 22 20 21 22 20 23 25 21 25 22 
42 40 39 36 33 31 36 38 33 34 32 34 32 30 32 30 31 32 30 30 34 34 36 31 30 31 31 30 27 28 31 27 29 29 28 26 31 29 29 29 25 32 29 30 29 29 28 28 27 25 26 27 27 24 23 29 24 23 24 26 26 26 25 23 24 24 22 23 21 22 25 21 22 23 23 21 23 23 28 25 
41 39 39 36 34 29 36 38 38 34 36 35 32 33 32 28 29 33 31 34 32 30 31 33 32 29 31 32 29 28 30 30 25 29 27 25 28 30 27 28 32 28 30 32 27 27 29 26 27 26 25 28 28 26 23 27 28 22 23 25 29 27 28 25 26 24 22 26 25 21 25 20 22 22 23 23 23 24 23 22 
38 44 39 34 37 33 32 38 36 35 32 36 36 32 33 31 29 32 32 31 29 31 30 29 28 35 34 34 31 31 29 30 27 27 30 28 28 30 29 29 29 31 29 27 31 29 29 30 27 28 27 24 25 25 24 27 25 23 25 23 26 27 25 31 25 24 23 24 24 21 22 21 21 23 20 20 25 22 21 16 
41 42 41 33 32 32 32 35 41 32 34 36 35 30 33 29 31 30 30 27 28 31 31 30 29 31 31 30 28 30 27 31 26 26 28 30 30 32 27 25 32 28 30 28 31 30 27 28 28 25 29 25 26 24 24 30 23 24 22 24 26 24 26 25 24 26 23 25 23 24 22 20 25 22 21 22 23 22 22 20 
42 42 40 36 32 31 33 34 33 37 32 35 34 32 29 31 31 31 27 28 29 29 35 29 32 30 32 30 30 27 30 27 26 31 32 31 32 29 28 30 30 29 33 31 31 30 25 28 29 28 27 22 24 23 27 28 27 22 23 22 25 26 27 27 24 26 24 26 23 20 21 20 23 23 22 19 21 22 23 19 
40 37 34 34 33 34 34 31 32 33 32 34 33 33 35 30 33 30 33 28 29 27 29 31 30 32 34 29 27 26 29 29 25 27 28 29 27 30 26 33 33 34 30 31 30 27 26 28 27 31 27 24 24 24 23 26 21 22 21 23 25 21 25 26 24 24 20 22 25 16 22 16 21 21 18 21 22 19 23 23 
37 38 36 36 34 31 35 36 34 30 33 33 33 31 31 31 31 31 31 27 31 30 31 31 30 30 32 31 28 28 31 29 25 26 24 25 28 31 26 30 31 32 29 28 27 27 24 28 26 25 28 26 22 23 23 26 23 24 23 22 21 26 21 27 23 21 24 18 26 17 21 18 19 22 19 19 24 21 23 17 
41 39 37 31 36 29 32 33 34 32 36 34 31 30 31 28 31 30 31 31 31 31 30 33 31 30 30 29 29 32 28 24 26 25 31 27 28 30 26 29 31 27 30 27 28 28 28 27 26 27 26 25 25 22 22 26 24 23 25 21 21 28 27 27 25 23 22 25 23 15 20 19 19 19 22 20 23 19 23 22 
35 40 34 33 34 34 33 31 33 29 33 33 33 33 33 32 30 31 29 32 31 30 30 29 34 31 28 33 32 30 30 29 27 26 31 29 28 28 28 27 29 30 31 27 28 33 27 28 24 25 24 25 26 20 23 21 24 24 24 19 21 24 27 26 22 24 22 25 20 16 21 18 19 17 24 22 22 21 21 17 
40 40 39 34 36 35 31 32 33 32 33 33 33 31 30 31 32 32 33 30 32 31 29 31 29 28 28 31 29 30 32 29 29 28 29 28 31 30 25 29 29 31 27 29 27 30 28 31 26 24 25 25 25 22 23 29 24 24 28 23 23 26 26 24 22 22 20 25 23 17 23 19 18 22 21 21 24 21 23 22 
39 37 40 35 32 33 34 32 30 33 33 33 32 29 32 30 31 33 30 28 33 33 30 32 28 29 26 29 33 30 31 29 24 24 31 28 31 30 27 26 28 29 26 28 26 29 28 27 27 24 22 25 23 23 19 25 23 23 24 17 21 23 24 27 24 24 20 23 20 17 22 17 20 19 20 22 22 22 21 18 
40 42 39 37 33 33 34 34 32 30 30 33 29 29 30 29 28 35 33 29 33 32 31 29 29 29 25 30 29 27 31 28 24 26 27 26 27 31 28 26 27 28 28 28 28 30 28 25 25 22 24 23 20 25 26 26 25 21 23 22 22 21 22 25 21 26 21 21 22 18 20 14 17 16 18 17 17 21 18 13 
41 40 41 35 37 32 37 34 32 31 33 34 35 29 30 31 30 34 30 31 30 32 32 31 30 30 25 28 26 26 30 26 24 28 31 28 28 29 32 30 26 27 27 26 28 30 28 28 25 24 25 22 22 24 25 22 25 21 22 21 20 24 19 18 20 22 22 20 24 17 17 16 17 16 17 17 21 22 25 17 
39 41 38 34 35 36 33 37 34 33 33 32 35 30 28 31 29 30 32 28 31 31 32 33 31 30 30 27 30 30 26 25 25 28 31 32 30 28 31 31 30 29 28 28 27 28 30 29 27 27 24 26 25 25 24 25 22 20 18 19 21 20 22 19 18 19 20 18 20 15 17 16 19 20 18 19 23 21 26 23 
38 40 35 34 34 35 30 34 33 31 31 30 33 31 31 34 28 30 30 29 31 29 32 34 31 31 37 30 27 26 26 26 28 30 31 29 27 30 27 29 30 27 26 31 29 29 30 30 27 27 27 27 25 26 20 25 23 20 21 16 18 22 19 20 17 19 17 18 10 19 14 15 19 16 18 22 23 23 31 21 
39 39 39 32 35 33 32 31 32 30 34 33 31 31 32 27 29 31 30 30 32 33 32 33 33 29 30 30 29 26 27 27 28 29 28 28 33 29 25 28 26 31 27 28 28 29 29 31 28 24 28 26 25 26 21 28 23 20 15 17 22 20 19 21 20 19 18 17 14 17 14 15 18 14 16 21 19 29 26 22 
38 41 41 34 33 32 37 33 33 30 32 31 34 31 32 31 28 28 30 33 30 29 29 31 31 31 27 29 26 27 27 27 25 30 29 33 30 27 27 29 30 30 26 31 27 30 31 30 27 23 25 23 24 23 23 23 25 19 20 20 20 22 23 22 19 20 18 17 17 17 13 12 18 16 16 17 18 22 22 23 
40 37 38 31 32 28 29 28 29 32 36 34 33 32 28 26 31 30 28 32 27 33 28 29 30 29 29 28 28 27 29 26 24 27 31 28 31 32 25 27 26 28 29 28 28 31 31 38 28 23 22 20 20 23 17 21 21 21 22 19 16 23 22 20 18 20 20 17 16 12 17 12 14 15 18 18 23 19 22 19 
37 39 34 31 31 31 32 31 27 30 33 32 33 33 32 27 28 30 28 31 34 30 27 31 31 30 24 27 28 26 29 26 28 29 29 26 28 29 25 26 31 27 30 28 29 31 32 32 30 21 22 23 20 22 18 22 21 20 19 22 19 22 20 20 18 19 20 21 16 14 15 14 13 18 21 19 19 17 21 16 
37 38 36 30 32 32 32 29 33 31 33 31 30 33 34 31 34 29 31 31 36 31 29 31 31 28 24 26 24 26 27 27 24 31 26 29 29 30 26 30 27 27 25 26 26 30 28 31 25 22 21 20 21 19 18 22 19 18 18 16 19 19 20 19 19 25 19 13 18 13 16 11 11 13 19 18 19 18 22 17 
37 37 30 32 30 31 26 33 30 30 36 37 34 29 31 32 31 32 31 31 32 31 29 30 29 30 21 24 25 27 26 25 27 28 30 29 25 31 24 29 26 26 25 25 28 30 30 31 26 26 21 21 21 19 18 22 18 18 13 16 20 18 23 20 16 17 16 12 17 13 18 13 15 14 17 19 19 16 25 14 
38 38 34 29 32 33 31 34 31 31 34 34 32 32 35 29 32 31 29 31 32 33 28 29 26 26 26 25 29 28 28 24 21 25 28 26 25 26 24 25 28 28 24 24 25 28 27 29 25 22 23 20 21 18 16 23 22 20 15 19 20 17 21 21 16 16 16 19 16 14 12 12 16 15 17 13 17 20 22 14 
38 36 35 28 25 33 33 32 30 32 34 32 31 30 33 32 35 31 27 28 29 31 35 32 28 27 26 28 29 27 24 26 24 26 25 23 25 31 25 28 25 26 24 24 24 24 28 28 22 22 22 20 17 18 16 20 20 18 19 18 19 21 19 19 15 15 15 16 15 15 12 12 15 16 14 17 17 18 20 9 
40 40 35 29 31 32 33 31 31 34 34 32 35 30 32 33 32 32 31 31 29 29 30 30 30 28 26 29 24 25 24 25 23 26 24 24 27 27 25 25 30 27 24 24 24 25 25 24 24 21 21 17 20 17 21 20 19 18 20 18 16 18 19 16 16 14 15 16 18 13 10 10 11 13 17 16 19 18 17 13 
37 33 30 30 34 30 34 29 32 31 34 30 30 31 34 28 31 30 32 27 29 29 30 29 31 26 25 27 26 25 24 24 27 26 24 22 26 28 27 23 22 23 24 25 24 23 24 23 21 19 18 19 19 22 20 22 19 16 20 18 18 18 16 18 16 13 14 12 14 12 11 8 9 8 15 13 13 15 15 11 
34 37 31 33 34 33 27 32 30 28 35 29 28 26 31 26 25 27 29 31 33 27 25 29 28 27 24 25 25 28 23 23 22 26 29 27 26 26 22 22 22 26 23 24 23 26 21 25 24 18 19 13 21 20 15 23 16 21 20 16 16 18 14 16 14 14 14 14 10 8 14 10 11 7 10 12 15 16 13 8 
36 33 30 32 30 34 31 34 31 31 32 30 32 30 25 27 30 28 28 29 27 31 29 27 30 28 27 27 27 27 23 23 24 26 25 28 24 24 22 22 27 22 18 23 24 26 23 27 22 19 22 17 20 18 20 21 21 20 16 17 17 14 13 15 13 12 14 11 12 7 12 4 9 9 12 13 15 8 12 10 
32 34 28 30 35 34 30 35 30 28 31 30 31 33 28 27 27 26 26 25 29 30 26 30 29 30 26 27 27 25 23 25 21 25 23 20 24 25 23 23 23 20 20 20 22 25 24 24 22 20 18 17 17 19 16 23 23 19 19 15 14 16 13 14 10 15 12 8 10 10 12 7 10 10 11 11 8 9 11 5 
35 36 27 30 34 27 32 30 30 30 30 34 34 26 30 28 26 29 32 31 27 25 26 27 29 28 31 26 26 22 25 23 21 25 22 22 20 26 18 19 21 21 21 21 21 21 23 26 21 17 21 19 20 17 22 21 22 15 17 13 18 17 17 14 12 12 11 9 8 10 12 9 8 10 10 7 11 14 15 6 
31 33 30 28 31 27 32 29 30 32 31 33 32 33 26 27 27 26 29 27 28 28 28 27 27 24 25 26 22 22 24 21 20 25 22 21 24 22 17 23 23 21 19 22 23 23 22 23 17 14 18 15 18 16 18 19 18 16 17 17 14 16 15 15 12 9 9 8 10 10 12 10 7 10 8 8 8 9 10 6 
33 33 33 28 33 24 28 30 30 28 32 34 38 29 31 26 26 27 27 32 29 28 25 25 23 26 22 24 22 22 22 23 20 21 22 20 23 22 20 17 23 19 22 20 23 22 24 25 20 14 12 12 14 12 17 20 20 18 14 11 14 14 10 10 9 10 6 6 8 8 9 7 6 8 6 11 10 11 8 9 
33 37 30 29 29 26 27 32 32 33 34 34 33 31 30 26 28 31 28 30 29 28 31 25 24 25 27 26 24 22 22 21 20 16 21 18 22 26 22 22 20 24 21 24 24 26 24 21 19 16 15 14 16 14 16 20 18 18 18 16 14 11 12 12 10 9 8 6 10 6 8 2 7 10 6 7 10 14 11 2 
33 35 30 28 28 29 25 28 33 32 33 35 28 29 28 26 28 29 29 27 34 29 29 23 24 26 23 25 27 23 21 22 22 21 22 25 23 26 21 19 23 25 24 23 21 24 20 16 15 13 16 18 17 14 16 20 11 14 19 17 17 12 11 11 10 11 7 11 8 0 10 4 9 6 6 7 12 12 12 5 
40 33 28 28 31 30 31 25 32 34 32 33 30 26 28 26 28 28 25 26 30 28 25 25 26 25 25 23 28 25 19 23 19 19 23 24 28 23 18 20 23 26 23 22 17 23 18 19 17 15 15 14 17 15 14 17 14 14 18 17 17 12 12 11 10 8 6 10 8 2 6 3 5 6 5 7 7 8 13 5 


