P2
80 60
28
11 17 13 16 12 16 13 14 18 17 16 13 15 15 15 14 17 19 15 15 13 15 14 11 16 15 13 13 14 13 15 16 19 14 17 17 17 16 19 16 13 15 16 16 18 19 16 16 19 16 19 16 15 14 16 24 21 26 19 14 13 12 17 14 15 13 8 7 7 7 6 8 7 9 8 5 9 0 8 9 
13 18 17 13 16 17 12 14 18 18 16 17 15 13 18 13 17 17 18 16 11 16 13 12 14 13 18 16 12 16 12 17 14 14 15 14 15 16 13 14 13 16 15 18 16 16 16 16 16 16 17 17 17 20 18 23 21 22 18 18 14 11 9 12 15 12 8 9 9 9 7 7 9 8 8 8 6 4 11 12 
12 21 19 19 15 16 15 15 16 18 19 16 17 15 17 18 18 17 16 15 16 18 16 16 13 15 12 14 12 15 17 18 15 17 18 16 17 18 18 13 17 15 14 15 15 15 17 14 16 18 15 21 20 16 19 23 19 17 15 15 16 12 12 10 9 5 9 9 11 9 11 9 8 7 8 6 10 6 9 13 
12 15 15 15 18 20 19 17 19 19 18 17 15 18 15 15 22 17 17 14 13 16 16 14 13 16 12 17 11 16 13 15 16 16 13 16 17 19 17 14 13 14 18 16 13 16 18 15 18 18 15 17 16 17 16 15 17 14 15 18 17 15 11 13 13 7 10 9 12 8 10 10 12 6 6 7 7 4 10 12 
16 17 13 15 15 20 18 20 20 20 18 16 15 19 16 21 21 17 19 16 14 13 20 9 13 15 18 14 14 16 13 13 14 16 13 16 15 19 18 15 13 14 17 19 17 13 19 17 17 17 18 15 17 17 16 17 15 17 15 18 15 15 12 18 13 8 10 7 13 7 9 10 10 7 9 6 6 5 9 6 
21 18 17 16 17 21 19 19 21 16 17 16 19 17 16 18 18 18 16 17 13 17 16 16 16 15 17 17 14 14 12 12 14 16 13 15 16 19 15 19 12 15 19 16 16 17 22 17 15 17 16 18 18 18 17 19 20 18 15 15 15 16 13 12 13 4 9 11 16 11 14 7 4 7 6 4 10 7 9 7 
15 20 18 15 16 21 18 16 19 18 16 18 15 15 15 22 24 20 19 19 16 17 18 16 16 15 16 14 16 13 13 14 14 18 14 15 18 18 17 17 17 14 15 18 17 17 15 17 16 14 18 20 18 18 17 16 19 19 20 18 16 15 14 12 10 9 6 10 11 10 8 6 7 7 5 9 5 3 12 6 
18 20 19 16 18 20 19 18 18 19 16 16 17 17 17 18 18 19 20 17 19 18 16 13 13 18 15 13 11 15 14 13 15 14 15 21 18 17 17 15 16 15 15 18 15 13 17 17 17 16 17 18 19 16 17 20 17 17 16 18 16 16 13 13 15 12 11 11 13 7 7 7 10 11 10 6 8 5 6 7 
17 26 20 18 14 20 21 16 17 18 16 19 17 18 15 17 20 18 19 21 20 18 19 17 17 17 13 16 16 13 16 12 13 14 17 18 17 18 18 16 15 14 11 17 15 15 19 15 18 16 14 15 16 19 18 20 19 16 16 17 15 13 13 13 14 13 13 10 11 9 6 9 6 11 8 10 6 6 6 8 
20 21 21 20 19 20 17 22 19 17 16 18 16 16 16 20 23 17 17 16 17 19 18 16 18 15 13 14 9 15 11 15 16 14 16 15 14 20 13 16 12 13 12 15 14 16 17 16 18 18 16 15 14 17 18 18 17 16 17 20 13 19 13 14 12 12 11 8 14 12 7 10 6 8 4 7 9 6 3 9 
21 24 22 21 20 23 23 19 21 19 18 18 18 14 16 14 22 17 17 16 14 17 20 20 17 14 16 14 15 13 12 17 15 16 13 15 17 18 18 16 13 14 12 16 13 12 16 10 16 17 17 15 13 15 17 18 16 15 15 15 25 16 12 11 13 13 12 10 10 11 8 7 9 10 7 5 9 7 4 13 
17 23 23 22 20 20 20 22 17 18 18 16 17 16 17 15 19 17 14 14 15 16 17 16 15 14 15 14 15 13 15 14 14 15 14 14 15 19 16 17 14 11 13 15 17 14 13 14 13 15 18 16 15 14 17 19 15 18 15 13 16 19 13 14 16 15 12 10 10 5 6 6 10 9 9 10 8 5 10 10 
22 24 21 24 20 21 18 18 20 19 21 16 15 14 16 17 19 16 17 15 15 17 18 13 14 11 14 15 13 14 15 15 15 14 15 15 13 21 21 16 16 12 14 15 17 15 17 14 15 16 17 14 13 11 15 20 22 21 14 17 15 15 16 10 15 13 11 12 8 7 0 7 8 8 8 5 4 7 4 7 
16 23 19 24 24 23 19 19 21 19 18 17 20 14 18 16 14 16 17 13 16 16 16 14 16 14 15 15 11 16 15 15 15 17 18 17 16 22 14 16 13 14 17 16 17 19 20 18 16 17 18 17 16 12 16 18 19 21 19 17 12 17 12 9 12 12 10 16 9 6 8 6 8 7 11 8 10 8 6 8 
22 26 20 23 24 23 16 24 20 16 12 17 15 14 14 14 17 20 15 11 13 20 19 15 15 12 11 17 12 17 15 16 16 17 16 16 18 18 16 15 12 15 16 15 18 15 16 16 17 20 16 14 15 17 15 21 25 25 20 16 15 18 15 8 14 10 11 10 5 9 6 8 6 6 2 5 9 9 14 13 
21 23 21 20 17 19 17 21 19 16 17 14 15 13 15 18 17 16 18 15 13 18 23 15 15 14 13 9 15 15 15 14 14 14 13 14 14 12 19 17 12 16 14 16 17 15 18 16 16 16 14 12 16 16 16 24 24 19 18 18 15 15 16 12 12 11 15 14 14 10 9 8 11 6 8 6 11 7 12 7 
21 26 22 22 19 22 20 16 16 17 15 18 16 12 15 16 17 18 14 15 16 11 16 17 14 13 11 14 11 12 14 16 16 18 14 14 14 17 14 13 12 15 10 14 12 16 17 15 13 15 16 15 16 16 20 20 26 22 18 16 13 18 13 16 12 10 10 15 10 9 11 8 9 10 5 5 9 8 12 9 
18 23 20 19 21 20 20 17 14 14 18 17 16 17 17 14 18 14 18 15 15 15 18 13 13 9 12 13 13 14 14 17 14 15 16 14 18 16 18 16 11 12 14 13 15 14 15 14 12 12 12 15 16 18 22 21 20 22 18 20 15 15 12 13 12 10 7 13 13 10 10 10 8 8 5 11 9 8 11 10 
18 21 21 20 21 25 26 19 20 18 16 17 15 15 13 14 16 17 16 14 12 17 18 17 13 12 10 15 16 14 17 16 20 18 20 20 17 20 16 15 13 14 14 21 19 15 15 15 15 15 12 15 19 19 18 19 20 23 17 15 18 16 9 14 13 12 11 12 13 10 10 7 10 4 4 2 5 5 13 10 
20 21 21 20 22 24 21 20 17 17 19 18 15 13 17 14 18 13 18 14 15 20 21 16 14 17 14 13 15 12 13 18 19 18 15 17 16 18 15 18 15 12 14 14 14 11 14 14 17 14 13 15 17 17 16 20 21 18 15 18 16 15 11 10 14 12 10 13 10 11 9 9 9 6 6 3 7 5 7 13 
24 24 20 21 19 21 17 16 16 19 19 16 15 15 15 13 16 18 21 17 15 17 18 16 16 14 16 13 12 15 25 16 14 14 16 13 16 16 17 15 15 17 15 11 14 14 12 14 14 13 12 16 17 16 17 17 17 16 15 18 16 16 14 11 11 7 11 10 11 10 12 9 12 6 8 5 7 8 10 13 
19 24 21 21 17 23 20 16 16 20 22 19 24 15 15 12 15 17 16 18 13 16 18 15 14 16 14 12 13 16 17 14 17 16 8 17 16 16 15 17 15 14 12 14 11 12 14 13 18 18 15 12 14 16 14 18 17 16 17 15 14 17 12 16 15 12 15 9 11 13 7 12 11 9 6 6 7 6 10 15 
19 24 21 23 19 18 17 21 24 22 19 19 18 17 13 14 17 16 16 18 16 16 16 15 16 14 14 14 10 11 17 15 17 14 12 15 16 14 19 18 15 13 12 11 13 11 16 14 17 18 15 15 15 14 13 17 16 16 14 17 16 12 12 15 15 10 14 11 16 10 7 12 12 10 8 5 6 4 9 14 
19 22 18 20 20 19 22 28 18 16 17 20 17 15 16 17 17 19 17 12 11 19 16 12 13 15 14 15 11 9 13 14 15 14 10 15 15 16 14 13 14 15 12 15 11 14 15 16 15 19 18 13 17 16 13 17 17 15 18 14 12 14 15 16 13 11 12 14 15 12 10 12 8 9 10 6 7 7 9 10 
15 22 22 18 19 23 20 19 23 18 17 18 14 14 13 15 14 13 18 16 15 14 16 15 15 14 9 12 13 15 13 14 13 11 13 13 16 18 14 16 14 10 13 13 15 17 15 14 13 10 13 12 14 13 15 14 14 17 16 17 14 15 12 13 12 14 14 13 11 9 11 10 12 12 9 8 10 8 11 8 
20 18 18 19 19 23 20 16 21 18 19 18 16 16 19 18 17 16 17 13 14 14 18 16 13 13 12 12 13 14 15 15 15 14 12 14 16 17 16 14 14 13 14 15 10 17 17 17 15 14 16 15 13 14 14 18 16 16 18 18 15 17 13 13 11 14 14 15 11 8 11 10 10 8 11 7 13 7 14 13 
16 19 21 21 20 19 21 15 18 19 19 16 15 16 15 14 15 17 16 14 12 16 20 19 15 14 13 11 10 11 15 13 17 13 14 14 14 14 13 14 13 12 15 15 15 14 14 12 14 15 14 15 15 12 13 18 16 16 17 14 16 12 12 14 13 14 16 12 9 10 12 9 17 13 12 7 10 7 11 9 
19 18 17 24 25 21 18 20 19 18 18 18 17 14 17 12 15 17 14 13 11 15 16 13 15 14 13 15 13 12 14 16 14 14 13 15 16 15 15 15 12 13 16 16 12 11 14 11 13 12 13 16 15 14 12 16 18 14 11 15 14 13 13 11 11 12 10 14 10 11 12 14 11 9 8 8 10 8 11 8 
17 20 15 23 24 23 20 20 18 21 15 17 15 15 13 13 13 14 13 15 13 14 15 14 14 15 13 14 12 13 16 12 13 14 14 13 13 12 13 14 11 12 14 12 13 12 16 11 12 14 12 16 15 12 13 15 18 15 13 12 11 13 10 15 12 11 8 10 12 11 10 11 9 4 8 6 8 9 8 11 
20 22 19 20 19 18 18 18 17 18 16 16 18 13 14 14 13 13 15 14 14 13 15 14 15 14 13 12 8 14 13 15 13 11 12 17 15 17 13 15 14 14 13 14 13 16 17 10 14 13 14 16 15 11 12 11 14 12 13 11 13 13 14 14 14 11 9 15 13 11 11 12 12 6 7 9 10 8 11 11 
21 21 23 23 20 21 16 17 15 16 14 16 16 15 14 19 20 10 13 14 17 14 19 10 15 17 15 13 11 13 16 14 13 14 14 13 15 16 16 17 12 12 17 17 11 20 12 14 16 14 16 17 12 12 12 14 18 14 12 14 14 12 12 11 15 9 13 10 12 10 10 9 10 7 8 8 8 5 6 5 
19 23 21 20 25 18 19 15 17 15 17 14 16 14 14 21 17 14 15 15 14 14 16 13 16 15 17 12 11 12 15 13 12 12 11 11 13 14 16 13 15 13 12 15 14 13 11 14 14 17 14 15 12 14 15 13 16 13 11 13 11 13 12 14 15 10 11 11 11 13 11 8 10 5 8 7 6 7 7 8 
14 23 19 22 19 20 15 19 16 14 16 14 14 14 13 17 16 14 16 11 13 10 16 14 19 12 15 12 12 11 13 12 11 12 5 13 11 14 13 13 11 15 13 16 12 15 12 11 11 12 16 14 14 13 14 14 16 13 9 9 13 10 13 11 12 12 12 11 16 9 8 7 10 5 5 6 7 8 8 6 
16 20 18 16 23 23 18 16 18 16 15 14 14 14 15 17 18 12 18 14 16 12 15 18 15 16 11 11 12 17 13 12 12 11 10 12 10 15 11 13 14 15 16 13 15 13 12 12 12 12 13 14 11 14 11 14 12 15 13 11 12 14 13 14 12 11 11 13 12 8 9 8 8 8 9 8 6 8 7 5 
16 20 14 17 18 23 18 14 16 18 13 16 14 10 14 16 19 18 19 14 11 13 15 13 17 13 11 12 9 11 12 11 16 13 15 10 15 17 14 12 12 16 16 15 12 17 13 17 14 13 11 14 14 13 15 14 15 14 14 12 12 13 11 13 15 10 13 10 13 10 9 8 10 10 9 7 9 9 7 12 
18 19 17 20 18 19 18 18 15 16 14 15 16 14 17 15 18 15 16 16 16 14 15 16 14 12 11 9 11 12 10 12 16 14 15 11 17 18 11 15 12 15 11 12 17 11 15 17 12 12 13 15 13 14 16 15 15 15 14 16 12 14 15 16 14 13 11 11 11 10 10 10 9 10 8 8 9 6 8 13 
18 20 15 21 22 25 19 18 17 14 14 14 15 13 15 16 15 17 15 13 16 14 15 14 13 11 9 13 11 13 13 14 13 13 13 13 15 14 10 15 10 13 14 15 13 15 13 11 14 13 11 16 14 11 16 14 19 16 12 16 10 12 11 11 15 13 12 9 11 12 10 5 6 5 10 6 7 4 7 6 
16 22 19 21 20 18 21 17 18 15 14 15 19 13 12 14 15 20 17 13 12 16 16 13 16 11 10 12 14 11 14 11 13 15 13 14 13 12 13 13 10 10 15 16 16 14 14 14 17 15 16 12 14 11 16 18 19 20 11 11 14 10 11 12 13 17 12 13 12 11 11 9 6 6 7 10 5 5 9 8 
16 23 26 20 20 21 19 18 17 15 19 16 15 15 15 16 16 18 15 17 14 14 15 12 12 12 10 10 12 10 13 10 10 13 12 11 12 12 17 12 14 14 15 13 13 15 16 15 16 14 15 14 15 16 15 17 18 17 11 13 12 14 14 10 10 13 13 10 9 10 10 7 6 8 7 7 8 10 15 11 
16 21 18 19 20 19 17 18 17 16 16 18 15 16 13 16 16 14 14 13 14 13 13 15 13 14 12 11 11 14 11 12 12 13 11 14 14 14 15 13 13 13 18 14 15 14 15 16 15 16 18 18 18 17 18 15 16 15 11 13 10 9 11 11 11 9 10 10 13 8 5 9 6 8 7 6 7 10 14 14 
12 21 19 17 17 18 16 17 17 14 18 17 17 14 14 15 15 15 17 13 11 16 16 16 14 14 19 12 14 12 13 13 13 16 11 15 12 14 14 12 11 13 14 14 15 13 15 13 16 16 19 18 18 18 15 17 13 14 12 12 8 14 12 9 11 9 13 8 8 7 8 9 3 10 8 5 11 10 13 13 
18 21 20 16 20 20 17 14 14 13 15 16 16 16 12 15 17 15 14 12 12 13 14 15 16 16 14 14 11 7 12 14 13 14 13 13 19 18 14 13 12 17 12 9 15 14 14 16 15 16 17 17 16 14 14 21 21 16 11 8 10 13 9 13 17 8 9 8 9 9 8 9 8 9 5 7 10 12 12 13 
18 22 20 17 14 17 16 15 14 17 17 16 19 19 15 14 17 14 15 12 15 13 14 15 11 13 14 9 10 12 10 12 15 13 12 17 15 16 14 15 15 11 11 17 16 14 16 17 16 16 20 19 16 16 14 19 19 15 12 12 11 14 14 18 16 11 10 11 8 4 9 11 5 4 7 3 10 10 8 13 
19 18 17 18 17 21 16 17 20 16 15 18 17 15 18 13 13 16 17 15 14 14 17 15 15 14 14 14 12 10 13 14 10 13 15 13 16 15 13 13 10 14 12 16 15 17 16 23 16 15 16 17 15 16 16 18 17 14 14 12 12 16 12 13 13 9 11 8 9 9 11 9 11 6 9 7 10 10 10 7 
16 20 16 13 14 19 16 15 14 14 15 18 17 15 15 13 19 17 18 13 18 12 18 13 16 14 10 7 8 10 10 12 10 13 13 16 11 16 16 12 15 11 14 13 15 17 19 14 14 16 12 15 13 15 14 14 15 14 8 12 11 14 11 12 12 12 12 12 12 7 7 7 8 11 4 10 8 6 6 8 
17 19 16 15 12 16 11 14 14 14 13 17 15 17 16 19 18 18 14 14 16 15 17 13 13 11 9 10 11 9 14 14 9 12 14 15 15 13 15 13 11 13 12 15 16 17 15 14 13 14 15 14 13 13 15 15 13 14 10 9 14 15 10 13 11 12 14 11 11 7 9 5 5 6 7 10 8 6 6 8 
17 19 14 13 15 18 18 12 16 12 15 17 16 14 17 18 20 18 18 17 15 14 19 13 13 14 18 8 12 13 11 11 11 12 13 18 10 17 13 13 14 11 12 14 15 21 16 12 15 16 14 16 15 13 15 16 14 15 10 11 9 15 14 13 9 12 12 15 7 10 8 8 5 6 9 7 10 5 3 7 
14 15 12 14 12 20 14 15 15 12 14 13 16 11 14 16 17 16 16 13 15 14 18 16 17 13 10 13 12 12 12 10 12 13 14 13 12 17 12 13 9 12 8 13 17 13 17 16 16 14 15 15 14 12 13 12 16 14 12 11 12 13 12 13 10 8 11 11 9 11 10 7 9 6 2 7 7 2 2 10 
16 21 15 12 13 14 10 16 13 11 12 17 14 14 15 18 19 14 15 14 12 15 25 17 16 11 11 10 11 10 10 9 10 14 12 10 13 18 14 14 9 11 9 15 13 14 14 12 11 13 12 14 13 14 11 15 15 15 12 14 14 13 10 10 12 10 12 11 12 8 7 6 8 7 5 4 6 2 10 9 
20 17 13 16 12 15 12 12 17 14 14 13 14 12 17 21 17 18 15 16 13 14 18 16 12 8 10 9 9 11 10 12 13 14 10 12 14 16 13 11 12 12 11 14 15 13 15 10 8 14 12 11 13 15 15 14 15 12 13 13 15 18 9 12 8 11 11 11 10 8 6 9 7 9 5 5 7 8 8 5 
15 18 17 15 13 15 8 12 13 15 16 12 16 15 14 15 15 17 15 15 14 12 15 13 14 13 8 9 7 9 9 9 9 12 10 9 14 14 15 10 9 11 11 15 14 10 11 11 9 9 10 15 14 16 14 17 15 11 12 14 14 14 12 9 12 8 12 8 12 6 7 6 7 7 6 3 11 4 6 7 
14 19 14 17 17 17 11 13 15 13 12 13 14 13 12 16 15 15 14 15 17 15 12 12 12 12 11 9 7 5 10 10 10 10 16 11 14 12 14 10 9 11 12 13 12 13 12 11 10 12 12 13 15 16 14 19 13 12 10 17 13 13 10 12 12 8 10 12 9 8 11 7 7 5 9 7 4 9 6 6 
17 18 15 20 18 19 14 16 18 15 15 17 16 13 14 15 16 9 17 13 11 17 15 11 12 14 11 10 9 13 10 10 9 12 10 10 11 11 12 13 11 10 8 12 14 11 15 12 14 14 11 15 15 15 13 18 17 13 19 14 12 13 12 11 10 11 13 9 9 10 8 8 7 3 7 4 5 2 5 7 
11 14 12 16 18 23 13 13 15 18 16 13 14 12 11 15 13 16 17 13 12 13 13 14 14 12 13 10 12 12 12 11 11 10 11 12 8 13 14 10 12 8 9 9 12 10 16 9 13 13 15 16 14 14 16 16 16 19 15 15 12 14 9 10 13 6 10 9 7 9 7 7 6 5 7 4 6 3 3 10 
11 13 13 17 12 16 18 16 16 13 15 13 15 15 14 16 14 12 16 12 14 10 14 14 14 14 17 13 11 7 10 12 12 12 9 10 11 11 10 12 9 12 11 9 10 11 11 14 11 13 13 11 12 16 18 18 19 14 12 16 10 12 7 11 10 9 9 6 10 9 9 7 6 6 8 5 7 4 5 3 
12 14 10 14 17 16 14 13 15 16 11 15 17 14 15 13 13 14 17 15 13 12 10 11 12 10 11 13 9 11 6 9 9 15 10 11 11 12 11 14 11 9 7 11 11 13 12 12 13 13 11 12 13 10 14 19 19 16 11 15 12 14 8 11 9 8 10 7 7 11 19 8 8 9 5 4 5 6 10 6 
9 13 13 12 13 17 13 13 14 16 16 22 21 17 14 14 17 14 18 15 11 12 13 14 8 10 12 9 9 9 7 12 13 11 13 11 11 16 14 16 9 8 10 8 15 7 14 13 15 12 11 13 11 12 11 17 18 13 13 14 12 13 10 11 11 9 7 8 8 9 10 2 7 6 5 8 8 6 10 8 
10 12 12 14 15 13 13 13 16 13 18 18 18 14 12 14 17 14 18 14 11 10 18 11 9 10 10 8 4 14 10 9 13 13 12 12 11 15 10 13 9 11 10 11 12 12 12 25 13 14 13 10 11 14 11 15 15 15 12 10 12 14 10 11 11 12 9 8 11 8 6 5 5 5 1 1 6 3 10 9 
12 13 12 12 10 16 14 13 12 13 14 17 13 13 14 12 16 14 13 12 14 17 17 13 15 8 10 8 10 6 13 13 14 15 11 12 13 14 13 10 11 10 13 13 15 11 13 13 15 15 13 14 14 10 17 15 17 16 12 13 13 14 7 13 14 11 13 7 11 8 7 7 5 2 4 3 7 4 8 5 
10 11 11 13 10 16 10 12 15 12 15 11 15 14 14 16 16 16 16 12 11 12 10 14 12 15 9 11 8 9 11 12 7 11 11 12 16 14 15 10 12 14 13 15 14 12 14 10 14 16 14 15 13 16 20 16 15 18 13 16 9 14 10 12 15 9 7 9 8 8 8 5 7 4 7 3 6 6 5 7 


