P2
80 60
34
20 25 20 19 28 21 20 27 26 21 20 21 20 19 22 21 19 21 17 21 19 23 23 17 23 24 21 21 16 19 23 21 20 19 20 19 18 23 20 16 16 22 22 20 22 19 16 20 20 18 22 21 22 22 19 21 22 22 20 17 17 16 21 17 20 14 10 9 10 11 13 12 11 13 9 10 6 4 5 5 
19 23 24 20 20 18 19 24 23 22 20 24 21 22 23 19 20 21 20 20 22 19 19 21 22 22 26 24 20 21 20 24 21 20 22 19 20 20 19 20 19 22 22 21 21 18 20 20 20 19 21 20 18 23 21 22 23 24 18 17 17 18 15 13 15 14 14 10 11 16 10 8 12 13 14 15 9 6 9 9 
19 26 23 22 24 21 24 25 22 23 25 23 19 23 22 22 17 18 21 21 21 22 20 18 19 23 18 21 17 21 24 23 23 22 18 19 19 23 21 21 19 19 21 20 18 17 19 19 20 20 17 17 19 17 17 22 23 24 19 14 20 13 15 15 16 11 11 8 12 14 16 15 9 11 14 13 13 6 7 12 
18 21 19 21 21 26 25 28 25 24 26 22 19 20 21 23 20 18 20 20 18 20 18 19 19 20 20 25 19 21 19 22 23 18 18 16 22 25 23 20 20 19 21 19 18 21 21 20 21 20 19 21 15 20 18 19 19 19 20 16 18 18 14 14 14 12 10 13 10 9 12 12 16 15 16 10 7 10 9 13 
16 21 23 20 24 23 27 27 27 26 25 22 19 20 20 23 19 19 24 22 19 20 19 19 23 22 29 22 20 20 19 24 19 18 17 18 22 23 23 24 19 22 28 23 23 18 22 21 19 20 18 21 19 16 17 19 18 17 17 17 18 16 17 20 20 14 17 9 15 16 11 12 10 16 18 12 11 5 6 10 
20 23 24 24 30 34 28 29 28 22 23 20 21 22 22 21 20 23 25 23 21 23 18 20 21 24 23 21 18 17 22 25 21 19 19 19 18 24 21 19 20 24 25 20 23 23 25 22 19 21 23 21 20 22 20 21 21 24 22 18 18 18 20 15 15 11 15 17 20 21 19 9 10 14 16 14 15 8 11 8 
26 22 27 22 34 28 27 24 24 21 25 23 20 24 23 24 23 25 25 26 19 23 24 19 24 25 24 19 19 15 20 25 16 22 18 23 23 24 20 23 21 19 23 22 20 20 20 19 21 20 22 20 23 24 20 22 21 29 26 20 21 16 20 17 19 14 13 17 17 14 14 8 11 12 13 12 7 6 7 4 
22 23 24 23 31 28 25 25 24 26 26 23 21 26 24 25 22 21 20 25 27 22 20 17 22 25 23 26 22 24 19 20 20 18 20 24 18 21 21 24 21 18 21 21 21 20 20 22 20 17 23 18 20 19 17 23 20 20 20 20 20 18 20 20 16 16 15 14 15 11 8 12 11 11 13 11 13 4 7 10 
21 28 24 24 29 28 25 24 27 28 22 20 24 23 20 22 23 22 21 25 22 23 20 21 23 20 19 23 24 22 25 22 22 21 19 21 21 22 20 20 20 18 19 21 19 17 21 21 18 18 18 20 17 19 21 24 19 20 20 21 20 18 18 17 17 16 16 12 14 10 12 11 9 13 9 9 10 5 7 4 
29 27 24 26 26 27 27 29 25 23 23 21 21 23 22 23 25 24 22 17 26 21 18 20 23 19 20 23 19 22 21 22 23 18 20 18 17 20 19 19 16 17 19 19 18 20 20 17 19 17 19 17 18 17 20 20 21 23 20 18 15 17 15 20 13 13 16 13 15 12 11 12 10 12 11 13 12 7 6 9 
26 31 27 27 24 27 29 28 27 23 24 23 22 22 22 19 20 19 20 21 23 18 21 20 21 18 19 18 18 18 18 23 19 18 20 19 19 19 18 19 17 16 20 20 18 17 19 19 15 19 16 19 16 18 17 19 19 18 16 18 17 14 17 16 17 15 17 8 13 11 11 11 9 9 11 12 10 9 7 12 
26 31 29 26 28 25 26 27 23 24 24 22 23 23 20 19 20 20 17 20 19 21 20 21 24 21 17 17 18 17 20 22 18 18 17 19 18 23 17 20 19 17 20 18 17 16 16 18 15 17 18 14 16 17 17 18 18 20 19 14 17 17 15 16 17 16 15 12 10 8 8 6 11 11 10 15 9 3 5 10 
23 31 24 31 25 22 25 25 24 23 23 21 18 24 21 19 18 17 18 19 23 24 20 22 24 21 19 20 16 21 22 22 21 18 20 17 18 21 22 21 20 18 18 18 21 17 23 19 17 18 19 16 14 15 18 24 19 21 18 20 17 17 22 17 14 13 14 14 10 12 2 9 9 9 14 14 6 11 4 10 
23 34 29 27 27 22 26 26 26 21 20 21 20 21 20 27 19 18 17 19 23 20 21 18 19 20 18 20 16 21 23 22 21 23 16 15 19 25 18 18 20 17 16 17 18 23 19 24 18 21 18 18 15 19 17 23 20 21 21 17 17 15 15 14 15 16 14 14 13 9 11 7 7 9 13 15 9 6 9 11 
27 30 25 25 28 28 26 31 30 22 17 20 18 18 22 20 21 18 17 17 18 20 23 18 21 18 17 20 18 22 22 25 22 25 21 20 22 22 18 19 20 22 19 23 23 20 18 18 17 20 17 17 15 17 18 22 23 29 23 18 16 14 14 12 20 13 17 14 12 14 14 10 9 7 10 11 11 7 7 10 
21 26 27 29 26 23 24 29 23 20 15 20 20 21 17 22 21 16 17 19 17 19 20 17 20 18 16 18 17 19 24 20 18 20 21 20 19 20 24 20 21 20 18 21 23 19 20 18 17 17 15 17 16 17 20 21 21 25 22 18 16 15 17 16 20 17 16 8 14 11 8 12 12 10 10 9 11 7 9 13 
27 31 29 25 22 21 26 25 20 20 16 19 17 21 21 20 18 16 17 20 18 18 17 18 20 18 17 18 18 20 19 22 21 22 20 16 18 21 20 18 17 18 17 20 17 19 19 16 16 17 14 17 16 20 22 19 21 24 23 17 15 18 16 18 13 12 12 14 14 11 15 13 14 11 6 7 10 8 12 8 
21 29 25 25 25 23 22 22 22 20 20 19 20 19 22 19 18 16 15 18 17 16 20 19 21 16 15 23 18 21 19 22 19 17 18 17 18 19 17 22 18 18 18 17 19 16 17 17 17 15 15 16 18 18 21 21 21 24 21 20 16 16 13 15 18 13 16 15 13 13 13 10 10 8 12 13 9 8 4 9 
24 29 29 29 28 25 23 22 22 20 21 22 20 23 22 21 18 21 17 19 18 20 18 21 20 18 18 21 23 20 19 20 22 19 24 17 18 21 18 19 18 19 19 22 22 17 18 17 14 16 16 17 18 20 20 20 19 22 19 17 17 16 12 15 16 18 17 15 16 14 17 12 12 8 7 8 6 8 8 6 
26 28 27 31 29 26 23 23 26 20 25 22 20 18 19 22 18 18 21 20 21 24 26 20 22 20 21 21 18 22 24 20 23 22 19 18 18 22 18 20 22 20 20 19 20 16 14 18 17 16 15 16 16 16 17 19 22 20 19 18 16 15 14 16 18 15 17 13 14 15 10 14 14 11 12 9 10 7 10 9 
26 28 27 23 28 23 23 28 25 23 27 20 21 22 18 18 19 18 20 19 21 22 21 19 19 21 20 20 19 25 30 25 24 19 20 18 19 23 18 19 22 21 22 22 19 17 15 19 16 14 15 17 17 16 20 19 19 21 18 18 18 15 16 16 13 14 16 14 14 15 15 15 14 8 12 9 7 9 10 9 
26 29 27 25 26 21 25 26 28 22 23 20 29 20 21 19 17 18 17 19 18 19 19 19 17 21 17 18 18 20 22 21 18 20 15 19 18 22 21 21 19 22 17 17 17 14 15 14 14 14 19 15 14 20 17 17 18 18 21 16 15 18 15 19 17 17 18 17 14 14 13 16 13 9 12 9 9 10 12 11 
22 28 25 26 23 21 23 26 24 22 22 22 20 22 17 21 15 18 18 21 21 18 19 18 21 19 16 19 17 22 18 20 19 16 18 18 18 19 17 23 17 16 15 14 17 13 17 14 13 18 17 15 15 15 21 16 17 17 19 17 19 14 15 18 16 16 18 13 15 13 12 17 17 12 13 12 9 7 7 10 
23 27 27 20 26 23 26 30 22 20 23 25 20 22 21 19 18 15 19 16 18 17 17 16 17 18 19 21 17 17 17 17 17 18 18 14 17 22 16 19 18 18 18 15 16 13 16 18 17 18 18 14 16 16 16 17 19 16 17 16 15 16 19 17 18 18 18 18 16 17 14 11 13 10 9 9 10 10 8 9 
22 23 28 23 20 21 24 26 22 22 23 21 20 21 24 17 16 16 20 19 19 19 15 18 20 16 18 16 17 16 18 17 16 15 18 16 15 21 18 18 20 17 21 18 20 17 16 16 17 13 13 15 13 15 17 16 19 18 14 16 16 16 18 13 16 13 20 16 14 12 15 11 15 14 12 13 9 10 10 12 
24 25 24 25 23 23 22 22 23 21 26 21 22 22 23 20 19 18 18 18 16 19 17 19 21 15 17 16 17 18 17 17 19 16 16 16 19 24 17 17 16 18 20 18 16 18 16 18 13 15 15 14 13 16 15 22 13 16 21 16 20 14 14 18 25 15 16 17 14 14 17 16 14 14 17 14 11 8 11 12 
22 22 24 21 24 23 26 19 22 24 21 19 16 18 18 19 20 20 21 18 19 19 19 21 21 20 19 20 15 17 19 16 19 17 16 19 19 21 17 16 17 19 18 18 17 15 16 15 14 15 17 15 11 15 17 19 17 17 15 18 16 16 15 16 15 15 16 17 16 13 19 15 13 16 16 12 11 10 6 13 
20 20 21 23 24 25 22 23 27 22 20 21 18 19 18 18 16 19 18 18 14 15 19 15 18 16 18 19 18 20 21 16 14 17 15 17 18 22 19 17 18 18 20 18 15 13 14 16 16 12 18 12 15 15 15 19 15 13 14 14 16 16 17 17 16 12 15 15 14 12 12 13 13 12 12 15 9 7 11 5 
21 27 24 24 25 22 23 28 25 23 19 19 16 20 17 18 14 16 16 17 17 16 18 14 16 19 17 17 16 16 17 20 15 17 14 15 16 18 17 18 17 17 22 16 14 15 19 15 14 17 15 15 16 14 15 18 17 16 13 12 15 16 14 17 15 15 15 14 12 17 9 12 9 8 12 9 10 8 4 10 
21 23 25 24 23 26 22 22 25 18 19 17 17 19 19 17 14 15 19 16 16 17 16 17 22 18 17 16 16 18 16 20 14 12 13 17 16 19 16 16 17 20 18 18 17 15 16 15 13 14 18 15 13 16 16 12 15 16 14 13 17 16 17 17 18 14 19 16 13 11 15 13 12 11 11 15 10 8 8 7 
24 27 22 22 25 21 20 19 18 18 20 19 20 20 19 20 20 17 18 18 18 16 16 14 21 18 17 16 14 18 21 19 14 14 20 16 17 18 15 15 18 20 21 18 18 16 14 14 17 16 15 12 12 14 16 15 17 22 18 16 16 13 15 19 15 14 18 15 12 13 15 11 13 10 14 14 9 6 7 8 
24 24 23 21 25 21 21 20 20 18 23 20 17 18 18 20 22 19 16 22 18 16 19 14 18 17 20 18 17 17 19 21 18 16 15 14 16 17 15 19 21 22 24 21 18 14 15 15 16 20 15 16 15 18 16 15 16 18 18 14 14 15 16 21 14 15 16 17 13 12 17 11 10 10 11 15 14 6 12 8 
20 25 23 20 27 19 22 20 22 21 18 19 17 18 17 18 19 17 17 17 16 14 17 18 20 18 19 19 17 16 22 24 22 18 11 14 12 17 17 20 21 24 25 19 18 16 13 14 15 17 18 19 12 19 16 16 16 19 18 14 15 15 19 15 17 17 17 17 21 19 14 11 14 9 12 13 15 14 12 11 
23 25 23 19 27 26 18 20 23 21 17 17 18 18 17 20 18 19 18 17 19 14 20 20 19 19 16 17 19 22 20 21 19 18 15 15 15 20 15 18 20 21 20 17 19 15 15 15 12 15 15 18 17 13 16 18 15 19 16 11 13 16 14 16 16 15 16 17 19 12 16 12 12 13 11 12 12 9 13 12 
20 23 22 17 29 25 16 20 21 21 22 22 17 17 17 18 24 20 19 18 16 17 19 19 24 20 15 21 16 22 23 22 20 20 18 17 18 21 18 13 15 20 21 20 19 18 17 17 13 15 14 17 12 16 16 17 19 20 18 15 17 14 15 18 17 16 14 16 15 13 14 14 14 15 14 13 13 10 8 12 
20 24 21 23 30 27 22 23 24 19 22 22 21 20 18 21 19 21 18 18 17 16 18 21 21 15 18 18 18 21 19 21 21 21 19 16 15 18 17 20 18 19 20 17 19 17 17 20 14 13 15 17 15 16 18 22 18 20 20 18 16 14 16 17 18 18 17 13 18 15 17 10 14 18 13 15 11 10 8 9 
18 21 24 22 26 25 21 28 23 19 17 18 17 19 19 16 18 20 18 16 20 17 16 18 20 16 17 19 15 17 20 22 17 18 16 14 20 20 16 15 21 20 19 15 18 16 15 16 14 15 13 18 15 15 18 25 16 19 17 15 18 16 17 18 18 18 15 13 15 15 17 10 15 13 16 10 15 10 9 11 
18 25 22 22 24 22 24 19 20 20 19 20 19 17 21 16 15 21 18 16 19 18 17 14 15 16 14 15 17 19 20 16 17 16 17 15 14 21 15 17 17 19 21 18 19 16 17 18 17 15 18 15 13 16 16 18 17 16 15 12 16 14 13 16 16 18 16 17 14 14 13 14 9 11 12 10 6 7 13 13 
20 26 27 22 22 23 19 25 25 19 21 21 17 19 17 18 17 18 17 18 18 17 18 16 18 18 17 14 15 19 20 19 15 17 18 17 18 18 20 17 17 19 21 18 19 16 18 20 17 16 16 17 16 18 16 20 23 20 17 15 17 14 15 14 15 15 16 15 13 13 11 12 12 12 14 10 11 11 14 11 
19 19 22 21 24 22 18 21 23 19 20 18 17 21 15 20 20 16 14 15 19 17 15 19 19 19 15 17 16 19 17 19 18 14 16 16 17 19 17 17 16 18 22 16 15 16 18 17 18 19 20 20 19 17 19 17 18 17 14 15 16 12 12 16 14 14 14 15 12 11 10 11 11 13 12 14 11 10 11 14 
15 24 18 19 23 22 19 23 24 19 16 21 17 20 18 18 19 16 14 14 16 19 16 21 20 16 19 18 16 17 16 18 22 20 16 18 15 17 17 18 17 19 18 17 16 17 15 15 17 18 19 19 19 16 18 18 15 18 17 17 16 14 13 17 17 13 12 12 8 10 12 9 9 14 13 12 12 12 14 9 
23 24 20 20 22 22 18 24 20 19 21 20 18 17 15 13 18 22 17 15 18 18 16 17 19 18 18 17 17 18 19 18 16 15 20 18 25 21 19 20 18 24 18 16 18 20 18 18 15 18 19 20 17 19 18 18 15 21 16 13 15 13 11 16 19 16 15 12 12 12 11 13 13 14 15 16 15 14 12 16 
19 23 22 22 22 18 21 21 22 18 18 19 17 22 17 17 16 17 18 14 19 16 18 18 18 18 18 17 17 19 17 19 21 18 16 19 19 23 17 20 21 21 18 20 19 17 18 21 17 18 20 16 18 19 16 19 19 15 17 13 17 21 16 21 18 15 15 13 11 12 10 16 11 11 14 13 14 11 14 12 
23 21 18 19 17 20 18 19 23 18 17 21 18 19 18 16 14 18 18 18 18 14 19 17 19 18 16 15 16 19 17 20 18 15 19 16 17 21 17 18 17 20 17 18 20 22 20 27 17 19 16 16 15 18 15 19 20 16 18 11 15 17 13 17 15 16 13 12 9 15 11 9 10 9 14 14 13 8 11 12 
19 21 17 18 16 17 19 19 20 14 19 18 18 18 17 18 17 18 16 18 20 19 17 17 18 17 14 15 12 15 16 16 17 16 17 19 18 22 15 16 19 19 19 15 22 17 22 20 19 17 16 16 14 14 14 17 13 16 13 16 16 16 14 13 15 15 16 15 15 14 7 9 10 13 12 13 13 9 7 10 
18 21 17 18 24 19 16 21 24 18 18 20 17 20 22 22 20 19 16 13 20 19 18 15 17 15 12 14 14 14 18 19 19 16 17 20 17 18 16 15 15 21 18 18 21 20 16 18 15 18 19 16 14 16 14 18 15 15 14 13 18 16 12 13 14 15 17 14 11 13 11 9 10 10 14 11 8 6 14 11 
18 17 15 15 19 16 16 20 18 15 17 15 16 15 18 19 15 18 11 16 17 17 15 15 15 16 17 17 16 18 14 16 19 16 17 17 16 19 15 14 14 17 17 17 20 23 17 16 17 15 13 14 15 16 13 18 15 16 14 12 14 14 15 15 13 17 15 15 6 15 11 10 10 11 13 8 10 8 8 12 
15 16 9 17 16 16 16 21 17 15 18 17 18 17 18 19 18 16 16 16 21 17 18 16 18 16 15 16 15 19 17 16 17 16 18 16 15 20 17 17 15 21 15 21 21 17 20 16 16 16 15 15 14 14 12 16 16 19 16 13 15 14 15 18 18 13 14 17 13 11 13 12 13 16 8 13 11 5 6 10 
18 18 13 15 16 16 15 21 15 18 15 16 17 18 18 20 18 16 16 18 16 17 24 19 18 15 15 16 16 16 16 14 16 14 15 14 17 23 15 18 17 17 16 14 17 16 16 16 14 16 14 16 12 14 15 19 18 18 18 18 16 13 16 13 15 13 13 16 14 11 11 9 11 10 8 7 11 5 6 9 
19 20 17 17 14 17 15 19 17 15 16 16 16 17 18 19 17 18 17 19 16 18 17 18 16 13 13 16 15 16 16 17 17 14 14 12 15 15 15 13 16 18 19 19 20 15 16 13 11 15 13 14 14 16 18 17 18 15 16 14 15 16 16 15 15 13 14 14 13 10 12 12 10 11 11 11 9 5 4 9 
18 19 20 18 15 13 11 19 19 17 16 17 18 19 17 20 16 19 17 20 16 16 14 19 16 13 15 14 15 13 16 20 20 17 14 14 17 19 18 14 12 17 21 22 17 12 14 14 11 13 12 13 15 18 19 20 17 16 14 17 17 17 16 12 16 13 13 14 11 13 12 10 10 12 12 12 11 8 6 5 
18 23 18 17 18 19 15 20 16 15 16 18 14 16 16 19 17 16 18 16 16 15 13 15 15 16 15 14 11 15 17 23 17 13 20 16 18 16 13 14 14 19 21 21 16 16 14 15 14 17 13 15 13 20 18 21 23 19 18 17 15 14 15 17 13 14 16 18 12 17 17 8 11 13 12 16 10 7 5 6 
20 26 16 18 18 17 17 19 19 17 17 17 14 13 16 15 18 12 16 16 15 15 14 14 16 18 15 16 14 16 16 16 14 13 12 14 15 15 13 11 14 13 17 16 16 15 14 18 16 14 14 14 17 16 16 20 18 18 21 16 15 13 18 17 14 15 16 14 15 16 14 10 14 10 10 8 9 6 3 5 
16 18 19 18 21 20 19 17 20 19 16 14 16 14 15 16 13 12 17 17 13 17 14 17 19 19 18 16 16 17 18 16 14 13 14 14 11 17 16 14 11 14 14 16 13 12 17 16 11 16 16 13 14 18 15 20 20 20 17 14 13 15 13 15 13 11 16 14 14 16 12 12 12 11 10 9 10 6 3 7 
17 18 13 17 19 19 19 16 20 17 16 19 15 15 18 17 14 14 17 15 15 13 15 13 15 18 18 15 12 13 14 13 14 14 14 13 12 14 12 14 15 16 14 12 17 14 12 14 12 15 16 14 11 19 18 20 19 17 16 17 14 16 13 12 14 16 15 11 11 13 10 13 7 10 9 11 6 3 9 7 
14 13 12 14 17 13 16 22 21 15 15 19 19 17 16 13 11 17 15 19 17 16 10 15 13 18 14 15 14 12 17 16 15 14 12 14 14 17 12 15 15 16 15 14 16 15 13 15 16 16 16 14 15 14 19 21 19 20 17 15 10 15 11 12 16 11 16 15 13 12 24 12 13 11 10 10 7 0 6 5 
9 13 7 10 14 14 12 17 15 15 13 20 23 19 16 16 13 16 15 15 15 13 11 11 15 13 13 12 15 14 13 12 13 13 11 13 12 16 12 12 16 14 15 14 15 13 15 14 16 13 12 16 12 14 16 21 16 14 14 14 15 14 9 13 14 11 13 10 10 13 10 8 10 10 12 15 7 6 7 7 
15 13 14 13 15 15 15 17 19 18 15 18 18 17 16 17 15 14 14 13 13 13 14 14 14 14 13 10 11 9 14 14 14 15 12 13 14 15 12 13 14 15 16 16 15 16 17 25 14 16 14 12 11 15 16 19 13 16 17 14 17 13 11 13 14 17 14 15 11 13 8 9 10 12 13 10 9 6 6 7 
15 12 10 12 12 13 15 18 16 14 16 15 16 16 14 14 12 11 12 14 15 15 16 15 13 12 11 12 16 12 12 15 11 15 11 16 16 16 14 14 11 12 11 16 17 13 14 13 16 16 15 14 14 13 21 16 10 14 14 17 13 14 13 15 16 11 13 11 12 9 11 9 8 7 9 8 10 6 7 7 
12 12 10 11 11 14 14 15 16 16 15 18 18 15 16 15 14 13 16 15 11 14 13 13 15 12 13 16 11 12 12 16 12 13 19 13 17 14 14 13 12 12 15 14 15 15 14 15 13 17 14 14 16 15 19 17 19 15 17 14 15 11 11 13 19 12 14 10 11 11 11 11 9 8 10 9 9 4 6 5 


