P2
80 60
318
154 153 149 155 144 146 144 148 155 144 146 147 136 136 119 73 28 42 64 71 99 97 113 111 114 115 122 124 126 122 124 126 128 123 127 123 124 124 125 125 121 117 110 127 129 124 123 122 135 145 139 141 144 146 148 151 148 150 156 149 149 149 151 145 140 145 136 139 137 138 135 132 132 133 135 137 139 136 136 136 
156 148 151 152 143 150 144 153 148 148 149 148 139 137 114 62 32 46 70 78 105 96 114 111 109 112 123 121 126 125 124 125 129 124 125 121 126 126 125 121 121 117 112 127 127 127 124 128 136 145 143 139 141 144 151 151 152 150 151 147 150 147 148 144 145 142 139 140 135 136 138 132 136 135 133 136 141 140 133 140 
154 150 150 151 147 150 144 143 150 147 148 141 139 138 109 52 18 42 69 84 99 96 108 113 109 111 123 120 124 127 125 126 124 125 124 124 126 123 124 125 123 119 118 127 127 125 123 126 136 140 142 145 142 148 144 148 150 148 150 146 148 147 146 146 144 141 138 141 138 140 137 133 134 134 131 138 138 141 136 140 
154 152 149 147 144 149 148 147 148 148 150 136 133 138 101 44 5 27 56 68 87 98 112 110 109 110 119 122 120 122 121 126 126 123 129 124 127 128 126 122 117 116 122 132 129 129 124 127 141 147 143 141 146 145 147 148 145 148 148 149 151 148 148 146 142 141 143 142 139 141 138 136 133 136 133 138 138 141 142 136 
158 151 146 147 143 149 146 149 150 147 144 142 135 138 105 41 4 27 46 57 82 96 112 110 103 112 122 119 119 121 122 124 125 120 123 125 124 130 126 122 118 117 125 132 130 127 128 131 138 144 142 143 146 147 145 150 148 143 150 147 150 148 148 150 147 143 143 143 140 140 138 136 134 138 134 140 136 140 137 139 
153 153 148 146 143 148 148 145 151 147 144 141 134 133 93 32 6 24 36 56 74 97 107 103 105 108 116 115 115 117 119 119 124 121 121 124 125 126 127 121 119 114 121 131 126 124 130 129 143 146 144 144 144 147 145 152 147 148 150 150 149 148 149 146 146 145 142 147 145 141 138 133 135 132 136 139 138 143 139 138 
154 150 149 150 144 150 148 146 150 149 150 146 138 133 91 28 13 18 37 50 77 94 101 102 98 107 116 112 113 116 120 122 125 121 125 125 129 126 126 121 118 115 119 129 126 129 126 131 142 144 144 145 144 146 147 148 148 153 151 149 148 148 149 148 146 144 141 145 141 140 135 133 132 133 137 140 141 141 139 138 
157 154 151 144 138 150 146 146 148 145 149 147 142 134 77 25 5 20 36 54 79 84 96 93 96 106 110 111 113 119 119 118 123 120 121 127 126 129 127 115 113 112 120 132 129 126 126 129 138 143 146 147 147 146 151 153 146 150 152 150 150 147 146 144 149 149 142 144 140 138 138 134 134 136 136 139 138 137 139 137 
159 155 147 138 139 144 145 150 148 150 148 146 145 129 78 23 7 18 39 61 79 81 87 94 96 105 112 109 115 114 117 117 121 123 124 125 125 125 122 116 113 109 126 134 129 123 121 128 140 142 148 144 147 147 145 148 147 148 151 150 148 148 150 145 146 146 140 143 139 139 136 133 138 133 136 134 135 137 137 141 
154 150 144 137 129 143 151 151 149 149 147 146 141 124 73 26 11 25 38 57 70 80 92 93 104 108 116 112 112 116 114 116 121 118 122 123 127 123 121 117 111 110 129 128 127 120 120 130 141 144 145 142 146 145 146 145 149 145 149 151 150 149 150 147 145 144 142 143 142 138 135 139 134 135 134 135 136 139 135 137 
151 145 147 135 124 142 155 152 153 149 150 146 136 121 76 23 10 27 42 58 70 78 81 94 116 115 121 119 112 113 119 118 120 119 123 121 122 123 122 118 114 118 128 128 125 117 125 137 141 144 145 144 147 147 145 150 147 151 148 147 149 149 150 147 143 143 143 145 141 138 135 133 135 131 135 136 139 138 134 139 
152 144 142 133 126 142 148 152 150 145 147 147 136 116 60 23 0 22 32 50 70 77 85 99 103 113 120 116 109 115 116 122 119 121 122 122 122 121 122 116 112 118 127 128 123 116 125 133 139 142 143 142 145 144 144 147 149 147 149 151 149 149 148 147 146 143 140 139 140 135 133 128 136 135 133 141 141 138 138 142 
151 141 125 127 121 135 145 152 151 147 152 144 139 115 56 13 1 20 35 49 75 77 81 94 105 106 115 109 105 115 118 119 120 118 118 118 118 119 117 115 110 118 128 127 128 119 125 133 143 145 146 142 144 142 143 149 147 150 148 147 148 149 151 147 145 144 139 141 137 135 127 133 133 131 137 141 138 143 134 139 
149 137 125 119 113 129 138 147 147 143 145 146 131 107 52 15 1 22 41 49 76 71 80 97 104 109 117 107 103 109 113 114 120 119 119 117 115 118 122 112 109 118 124 129 127 121 128 133 143 145 146 143 142 143 142 147 148 149 153 149 147 147 148 144 146 145 142 140 140 139 135 127 134 135 133 139 138 145 141 142 
149 139 132 128 118 137 139 150 148 144 144 140 133 102 43 12 4 21 36 55 71 82 92 103 103 108 116 113 112 114 110 112 112 115 116 116 114 118 114 112 106 120 127 127 126 119 129 136 142 146 141 143 144 144 145 149 153 158 153 147 146 150 148 148 144 141 145 142 140 141 134 129 132 135 134 140 135 139 137 139 
149 142 137 129 124 138 140 149 153 141 144 141 126 101 44 14 6 20 31 62 85 91 97 100 97 103 113 118 117 119 115 111 113 114 117 114 118 119 114 108 105 124 126 129 122 117 128 133 144 142 145 143 145 146 144 148 148 152 156 151 150 150 152 143 144 143 141 147 139 138 135 135 135 133 134 140 137 145 138 137 
143 139 130 131 125 138 142 146 144 143 146 138 118 95 35 15 8 24 41 63 84 85 96 94 98 97 108 113 115 121 115 110 112 116 114 112 116 116 116 109 106 124 128 128 122 117 129 133 139 142 143 143 144 147 146 147 152 152 152 149 148 149 153 146 144 141 143 145 139 139 135 135 141 134 134 137 136 143 138 137 
141 139 130 127 133 134 136 141 146 143 143 138 118 95 27 17 6 20 44 69 86 86 95 96 97 103 106 111 112 117 115 109 114 114 115 115 115 116 117 109 103 125 129 125 122 120 129 136 140 141 143 141 143 143 150 149 149 154 152 149 148 146 149 144 145 144 141 142 139 140 137 132 132 133 137 137 137 141 135 142 
139 139 135 127 131 133 135 135 142 141 139 141 111 86 28 19 6 26 48 68 89 92 97 98 95 100 114 113 117 120 113 108 117 116 116 114 115 117 115 110 106 122 125 128 121 117 128 131 139 138 141 142 147 148 146 149 150 148 152 151 148 147 147 144 147 143 142 143 139 136 138 133 131 135 138 139 139 142 139 137 
139 133 126 121 125 133 136 149 145 138 142 138 106 84 27 23 12 33 53 83 94 91 98 94 101 102 110 113 116 121 115 108 113 113 113 113 115 115 116 109 105 122 126 128 118 119 131 133 139 144 144 143 144 143 146 146 148 148 150 146 149 146 145 144 144 142 142 139 138 139 135 129 136 134 134 138 141 141 138 137 
138 124 108 113 119 131 139 139 143 136 141 130 103 82 32 26 23 36 50 79 90 92 94 97 94 96 106 110 116 120 117 107 114 109 113 115 116 114 115 105 101 126 121 122 116 117 134 133 138 143 142 141 146 147 144 144 149 145 151 150 146 146 147 144 144 142 142 139 138 141 135 131 131 135 136 139 137 141 140 142 
138 122 109 115 120 131 136 142 142 139 137 132 99 75 26 34 27 37 57 77 97 93 99 96 94 96 105 105 111 117 108 108 109 109 112 112 116 109 116 105 105 123 123 122 114 117 134 133 135 140 143 142 144 149 145 147 147 146 149 148 148 147 147 146 143 142 141 142 142 141 136 133 135 134 134 138 140 140 142 141 
139 119 105 124 129 129 141 140 142 138 137 128 97 74 32 35 33 38 58 73 86 90 98 93 94 96 105 106 103 103 108 107 111 111 115 113 115 113 109 101 111 122 124 122 117 116 133 135 139 142 145 146 147 147 144 147 148 148 150 149 149 148 149 147 145 146 142 142 139 141 136 132 133 134 136 140 141 142 140 149 
134 111 110 119 129 135 137 146 139 137 136 122 89 67 33 39 35 43 55 68 76 86 94 93 93 99 103 105 103 101 97 106 106 108 109 114 111 111 109 98 107 120 120 120 112 118 132 132 139 144 145 144 145 145 144 142 148 147 149 145 147 146 146 143 146 147 143 145 139 140 136 133 133 134 133 142 143 142 144 142 
129 126 113 115 125 133 137 137 140 134 131 115 90 68 33 35 38 48 59 67 77 82 93 90 86 93 100 100 100 100 100 100 104 106 110 109 108 110 106 98 111 122 120 118 112 118 130 136 139 141 139 144 144 147 144 143 145 147 148 150 147 146 149 145 147 145 145 144 140 139 135 133 136 138 141 140 140 143 141 145 
121 123 117 114 104 122 127 137 134 131 131 111 89 66 39 41 40 46 53 64 74 81 91 91 87 91 98 96 95 98 96 101 102 102 108 105 110 108 102 95 113 118 119 118 115 122 133 137 140 142 141 140 145 143 142 144 145 147 149 149 147 150 147 145 145 144 144 141 138 138 136 132 133 135 142 143 143 145 144 142 
123 116 95 85 88 101 110 115 127 122 113 98 88 61 32 45 46 49 55 67 72 79 94 92 91 88 97 97 95 98 97 98 103 101 107 105 107 106 98 95 113 120 119 116 113 123 137 134 138 137 141 144 143 143 142 148 144 145 150 149 145 148 148 146 145 143 145 143 139 139 137 132 133 139 138 139 142 145 144 142 
117 96 69 73 78 82 81 92 92 79 78 84 84 54 33 38 43 47 56 62 73 80 88 87 85 90 95 90 89 97 95 99 101 102 103 106 104 107 98 95 111 114 116 111 109 121 135 131 138 140 143 142 141 143 143 146 148 145 148 146 152 147 147 146 144 145 142 144 141 141 136 130 135 141 137 143 143 144 145 146 
124 97 66 66 77 76 74 77 79 69 69 80 76 50 24 35 43 47 53 63 65 74 84 83 80 89 91 85 88 94 92 97 101 101 99 101 103 104 104 92 111 112 110 108 109 118 131 134 139 141 143 141 141 142 143 145 146 144 151 148 149 147 146 144 143 148 143 144 137 136 139 130 136 142 142 144 146 146 139 144 
119 96 66 59 65 71 71 73 80 67 66 79 73 40 15 29 37 49 55 59 65 74 85 79 80 81 83 81 84 88 93 98 96 99 99 103 103 100 96 88 104 108 109 105 108 116 128 132 136 141 143 144 143 142 143 144 148 146 150 147 147 147 149 144 144 146 148 143 139 140 139 134 134 140 143 147 143 147 140 145 
118 93 61 54 63 68 61 74 71 60 64 74 70 35 7 24 34 45 51 62 65 74 83 80 79 79 80 82 86 93 94 91 97 100 102 103 103 103 91 88 102 107 106 103 110 119 129 132 139 139 141 143 144 145 144 148 147 147 147 146 150 148 150 144 144 146 144 145 141 141 143 138 141 143 141 144 145 147 144 142 
116 87 53 50 62 66 55 65 66 59 67 65 58 24 9 26 33 46 59 62 65 70 81 82 78 75 81 93 110 125 120 122 122 120 116 115 112 102 91 96 107 104 102 101 108 118 131 131 138 143 145 145 148 150 149 151 154 150 148 148 148 147 152 146 147 147 144 150 147 152 144 142 147 146 143 147 147 153 148 145 
113 91 46 46 49 50 48 57 58 49 58 61 56 20 15 40 40 47 58 60 67 65 80 71 71 72 84 113 136 145 146 146 144 142 145 145 141 142 135 125 110 103 100 100 106 119 129 130 139 141 145 149 167 181 167 164 154 152 148 147 151 151 153 152 150 150 148 156 159 170 165 147 151 150 146 149 147 153 147 147 
104 90 50 39 32 44 38 40 44 40 48 55 48 19 24 40 45 49 55 55 57 63 68 64 61 70 95 129 143 151 150 150 150 147 151 149 149 149 149 144 120 104 98 97 102 116 130 133 137 142 148 162 208 231 219 170 155 154 154 153 153 153 154 150 154 149 153 154 156 182 192 187 174 166 156 157 154 156 148 151 
109 89 54 37 34 40 42 45 50 42 52 53 45 30 21 41 47 52 55 49 52 51 59 54 57 68 111 138 139 151 152 154 152 150 155 150 151 152 152 151 121 103 91 94 99 121 131 130 137 146 143 160 233 261 239 165 164 166 159 154 154 151 151 149 148 146 148 150 163 192 195 196 202 199 195 177 171 163 150 158 
102 93 51 39 33 41 40 43 41 46 46 45 38 22 19 40 42 53 59 57 55 55 60 61 61 75 133 144 144 151 157 159 157 154 156 154 154 156 155 155 137 101 93 96 107 115 131 133 138 146 147 159 218 249 230 179 170 163 154 155 147 149 150 148 146 143 142 151 169 201 205 201 206 208 211 214 209 207 183 174 
96 89 49 37 29 34 30 33 38 34 38 38 34 42 58 69 58 53 62 56 57 56 64 65 68 101 146 146 149 154 155 158 156 156 156 155 156 159 155 149 148 105 93 91 101 118 131 132 136 145 147 160 200 215 212 176 154 154 149 149 149 146 147 149 144 144 142 150 182 198 204 200 210 212 218 217 221 224 214 210 
98 92 51 31 22 34 30 26 30 25 29 42 60 81 82 82 56 59 59 55 57 52 67 70 74 120 147 151 147 151 156 155 160 157 159 155 157 159 159 158 154 119 89 89 102 118 131 130 136 145 150 174 193 196 198 198 168 156 153 150 148 149 147 146 147 148 146 150 188 206 207 201 209 217 218 221 223 227 217 223 
95 94 62 41 38 38 30 35 36 33 42 54 69 87 92 91 61 58 54 52 53 53 68 71 105 140 147 150 149 152 151 160 158 162 162 155 155 156 159 159 160 136 92 92 104 118 129 127 136 147 162 173 182 189 191 193 188 163 153 146 147 145 145 143 146 143 146 157 195 204 207 208 215 221 221 226 228 229 224 221 
104 96 67 49 44 41 44 41 39 37 67 62 72 81 88 89 63 58 59 57 58 62 71 94 127 138 154 154 151 155 150 156 159 158 155 155 157 160 156 155 154 147 103 97 102 118 130 129 137 141 161 164 180 178 186 188 181 165 146 144 146 146 145 149 143 144 147 164 200 213 211 207 214 220 220 229 234 236 233 226 
100 97 71 55 47 54 46 48 51 48 60 59 68 88 83 82 65 64 72 64 65 63 87 127 140 152 161 154 153 158 154 154 159 158 159 158 159 157 160 160 155 154 132 102 100 120 129 132 140 147 153 159 166 169 167 168 156 150 146 144 142 144 150 153 152 152 149 180 207 214 210 212 218 228 225 234 238 239 240 230 
91 96 83 70 80 79 76 79 78 77 79 82 76 91 94 82 74 80 80 77 79 86 123 143 146 149 159 154 153 158 153 155 159 160 157 157 161 160 160 158 153 152 151 127 112 124 131 132 143 147 149 151 157 159 152 151 148 148 144 142 143 145 154 154 154 156 158 200 213 217 217 213 223 227 228 233 237 240 237 234 
105 97 89 91 103 104 102 101 106 106 108 103 101 106 105 107 98 103 104 100 108 115 140 150 144 149 152 145 155 161 160 159 160 160 161 163 160 164 163 152 151 151 157 154 130 128 131 136 142 146 146 147 149 149 149 149 148 145 145 146 144 151 154 156 154 161 172 210 221 218 222 220 223 227 228 236 242 241 233 232 
110 104 99 99 107 108 104 103 103 103 107 110 108 111 113 117 109 114 113 115 120 135 150 153 142 148 141 145 157 164 165 162 164 162 162 159 163 164 159 149 142 151 156 154 145 136 144 145 139 143 145 143 146 145 147 146 145 145 145 149 152 150 157 152 159 163 183 230 228 231 225 227 227 230 232 239 243 242 240 232 
112 110 112 115 109 109 108 110 105 104 106 110 109 114 111 112 113 113 113 117 129 139 150 152 148 138 139 148 154 160 158 163 161 162 160 157 165 161 157 144 143 146 157 157 155 147 145 141 141 146 145 145 144 144 142 145 151 148 149 147 148 147 151 149 157 159 185 241 245 245 247 233 229 234 233 241 248 248 240 242 
108 111 106 112 112 107 108 107 111 105 109 106 110 116 113 115 111 111 114 117 127 141 152 149 145 125 132 147 156 157 159 159 161 160 160 163 162 155 154 148 145 142 154 158 154 154 144 139 142 143 147 147 148 146 144 148 151 151 154 150 149 148 146 149 154 156 166 206 254 258 255 239 236 241 241 244 248 254 248 242 
118 113 116 107 109 110 104 107 105 103 101 107 109 115 110 112 108 109 113 116 132 144 148 149 147 131 144 148 154 159 157 158 158 159 160 158 158 157 156 149 143 142 152 156 155 156 149 142 145 148 146 148 151 152 152 153 157 159 160 156 150 143 147 146 155 157 161 166 189 230 261 260 263 250 252 256 259 258 246 249 
112 115 110 110 112 108 107 108 109 100 105 108 106 112 109 109 107 109 111 112 135 146 152 149 146 147 153 154 157 162 159 158 160 162 158 158 160 158 157 156 151 155 155 158 159 153 153 136 143 148 147 149 153 151 156 159 158 160 161 161 153 149 143 143 156 158 166 166 166 178 211 257 271 270 271 267 269 270 257 250 
110 107 106 112 109 106 103 107 107 103 106 107 108 113 111 115 110 113 114 110 135 146 157 153 148 151 157 156 159 166 159 162 158 159 160 156 159 159 161 161 163 159 158 160 160 155 146 128 133 144 147 147 151 153 153 162 161 162 164 156 160 151 149 149 161 165 168 172 165 160 168 186 235 276 290 288 287 278 267 260 
115 110 108 112 107 104 99 99 104 103 105 108 109 112 111 114 108 112 119 112 124 145 154 150 149 153 160 157 161 162 162 159 164 158 161 159 158 158 159 157 165 157 159 161 156 153 141 128 130 138 136 138 142 148 147 148 152 148 147 151 152 147 146 153 162 162 164 168 164 156 159 156 177 214 270 298 301 296 278 272 
115 112 108 105 109 105 99 103 110 105 105 107 109 110 110 114 110 112 113 115 122 134 150 150 152 151 166 157 160 162 161 162 163 160 164 161 161 158 159 161 164 163 158 157 155 151 151 131 126 139 137 140 142 147 144 148 142 141 145 145 150 145 147 148 157 156 157 158 159 156 154 148 160 166 193 239 289 318 298 291 
109 112 111 109 105 105 98 100 107 104 103 106 106 107 109 109 110 112 116 111 117 134 151 152 151 154 158 161 158 157 160 158 161 158 164 157 158 156 155 158 161 163 157 156 154 147 147 139 136 135 142 141 143 146 146 148 142 148 147 151 149 145 149 148 146 151 157 155 152 153 153 150 154 157 164 179 207 275 300 300 
118 108 107 112 109 105 100 100 107 106 103 106 108 110 106 111 106 109 111 110 115 133 151 152 156 150 160 156 159 157 157 158 162 157 158 157 156 156 156 160 162 156 155 157 149 149 152 145 149 139 145 149 150 153 146 153 146 150 154 153 153 156 155 151 150 153 152 155 151 152 152 151 155 160 158 161 169 195 228 274 
111 106 108 109 113 109 100 99 107 102 101 106 105 111 111 110 104 107 107 110 110 132 148 154 150 153 158 158 157 162 161 157 162 159 159 155 156 154 157 158 161 157 155 154 150 146 147 148 150 150 147 151 153 155 155 159 156 156 155 155 151 151 156 152 153 153 152 153 154 157 154 148 152 155 153 157 160 166 167 182 
109 109 108 110 109 105 103 97 107 105 106 106 105 107 109 108 104 109 108 105 114 130 151 148 150 155 168 158 157 158 158 160 160 160 161 156 156 154 159 156 157 157 151 155 150 141 140 144 151 151 154 158 163 168 166 168 165 161 156 157 153 149 157 154 155 157 151 157 157 155 156 162 150 152 153 154 152 161 158 161 
107 106 109 111 108 104 99 99 110 101 105 110 107 108 107 106 103 108 106 103 116 132 149 152 149 151 162 160 159 162 160 161 160 160 159 154 161 154 156 155 157 157 154 155 146 141 141 143 154 162 172 166 163 165 170 168 172 166 164 161 156 156 154 152 155 158 157 162 159 160 162 157 159 157 153 153 158 147 155 154 
110 109 112 108 103 103 96 101 106 101 104 107 112 110 110 106 106 108 107 111 113 136 151 151 146 146 160 158 157 163 156 160 161 158 159 158 158 158 155 158 160 158 153 153 149 143 150 152 164 180 176 164 166 170 169 167 171 171 164 158 158 158 163 154 159 158 161 161 160 162 157 154 160 172 168 159 160 160 152 157 
108 106 104 109 107 104 100 96 108 105 102 110 105 110 107 109 108 103 117 120 128 130 147 146 149 150 158 157 158 164 158 160 157 161 161 154 162 157 154 154 157 157 153 153 146 141 146 158 156 162 169 167 168 165 171 171 175 175 171 165 161 161 163 156 162 163 165 173 165 165 161 158 164 179 190 182 163 159 148 153 
112 108 106 109 104 105 102 101 109 103 105 107 105 109 107 108 106 114 135 141 141 140 145 149 151 151 163 156 159 159 166 162 160 160 160 159 160 157 154 155 158 158 155 150 150 146 145 143 158 162 165 171 173 169 169 175 176 174 172 170 161 160 163 161 163 162 160 168 164 168 165 160 170 172 191 194 182 160 147 154 
112 109 109 110 106 101 102 101 107 104 103 102 106 107 106 109 107 117 144 146 147 142 151 150 150 150 160 154 155 164 159 160 159 161 158 158 161 156 158 154 155 157 154 149 149 148 148 144 154 163 167 167 170 171 170 177 173 173 173 170 164 164 166 163 167 164 161 170 169 171 169 165 169 172 179 182 172 158 152 151 


