P2
80 60
220
59 59 61 69 66 68 57 56 63 65 77 76 76 74 77 83 77 78 76 82 81 76 75 74 78 76 74 77 81 77 78 90 84 77 75 76 81 80 77 76 76 81 75 75 72 68 68 74 74 75 72 70 72 73 70 68 71 69 68 72 69 71 75 75 68 72 70 68 71 68 76 72 71 76 77 75 76 75 67 73 
60 58 64 65 61 65 55 55 59 70 70 76 74 78 77 81 82 77 74 77 80 73 75 74 76 75 75 79 77 76 76 80 80 77 74 74 76 79 76 74 77 74 71 74 72 72 71 71 74 71 72 72 70 71 69 71 69 65 71 74 66 68 70 73 70 70 71 69 71 70 71 71 72 73 78 77 75 79 71 69 
57 59 65 68 65 66 57 57 62 65 71 80 75 79 77 76 78 76 76 76 77 75 74 74 75 78 76 78 78 76 74 79 79 74 78 76 76 78 80 74 78 72 69 73 70 73 71 72 74 74 72 70 70 71 64 65 67 70 69 70 66 73 67 69 70 70 68 70 68 70 76 72 71 76 75 77 72 76 76 68 
61 63 64 67 66 68 56 60 62 70 74 77 76 76 77 77 77 77 78 81 80 77 72 74 74 76 76 80 76 77 77 78 78 73 75 76 78 78 75 75 72 72 72 76 73 75 70 73 75 75 70 65 72 68 67 69 65 69 70 69 72 74 69 71 74 74 73 69 72 73 74 76 72 74 73 75 72 79 73 73 
59 61 64 64 68 66 59 65 61 73 76 81 79 75 77 79 76 74 78 80 81 74 72 78 79 78 77 79 76 75 76 78 80 74 72 73 76 77 84 77 74 73 75 73 74 77 72 73 75 70 71 69 67 72 68 68 65 69 70 71 66 72 70 74 71 72 72 73 72 73 75 74 76 75 78 78 75 74 80 70 
64 60 65 66 66 67 58 63 63 68 73 80 80 82 77 80 78 77 79 83 77 76 74 78 80 80 76 78 76 73 76 77 80 72 75 73 77 82 82 79 78 78 75 70 73 74 75 73 74 71 71 70 74 75 66 66 67 70 67 74 69 71 74 73 71 71 74 73 74 74 76 73 72 76 75 74 72 78 76 77 
64 62 66 68 60 72 62 62 61 73 75 79 77 78 78 78 80 80 77 84 82 76 78 77 78 78 77 77 75 75 73 81 80 78 76 77 79 84 83 79 77 76 74 75 72 76 72 72 75 70 72 78 77 75 71 67 70 73 75 75 71 73 74 73 72 72 73 75 71 74 73 74 71 76 77 76 75 72 74 72 
63 63 65 68 65 73 64 61 60 69 75 80 79 77 75 77 77 81 77 79 82 79 74 77 78 78 78 76 77 79 76 73 80 75 76 79 79 83 80 79 78 73 71 75 72 72 75 72 74 70 69 76 76 73 68 70 69 66 73 74 71 71 77 72 69 74 71 69 74 68 74 71 73 75 74 73 72 76 73 76 
65 64 64 67 68 73 61 60 62 72 70 78 80 79 78 76 81 78 80 80 81 79 78 78 80 76 76 76 79 74 78 76 77 74 75 76 79 78 79 76 76 72 70 71 70 73 69 76 73 70 69 70 76 70 69 66 71 68 71 72 69 70 71 70 69 74 73 73 70 70 69 71 75 74 73 74 73 74 75 74 
65 65 68 69 70 69 61 59 59 71 76 79 78 77 81 82 83 79 76 79 79 80 76 76 78 79 78 77 75 76 72 76 75 75 78 73 76 77 73 77 75 73 70 70 70 70 71 71 74 71 69 67 72 68 67 65 71 65 67 71 68 70 70 73 68 71 71 72 72 70 69 71 72 75 74 75 75 74 72 76 
59 68 67 67 64 70 63 63 61 70 72 78 75 76 81 77 78 80 77 77 75 75 77 73 74 78 77 78 78 77 74 77 74 76 76 74 75 74 75 77 73 69 71 70 67 69 72 71 72 70 72 69 72 70 67 65 62 65 72 71 67 71 70 71 70 70 70 73 72 72 69 68 72 76 74 74 76 75 75 74 
64 67 71 70 70 70 62 65 63 65 75 82 79 80 78 78 75 77 78 80 77 77 77 78 77 75 76 75 76 76 75 78 77 78 74 74 73 77 77 75 75 73 73 71 69 70 73 72 71 70 70 72 72 68 65 71 70 66 70 70 65 72 71 73 70 72 71 69 73 71 67 70 73 77 73 79 75 79 77 75 
64 65 69 72 70 72 54 61 62 71 72 80 77 76 77 79 76 74 77 77 77 77 77 76 75 75 73 75 81 73 74 74 77 75 73 74 72 79 75 74 73 74 73 70 72 71 74 73 70 70 68 71 69 65 62 65 66 69 71 70 67 67 72 72 70 74 70 69 69 67 61 72 67 69 73 76 79 75 73 73 
69 65 68 67 71 70 58 59 61 69 73 77 74 79 74 80 74 74 77 76 83 79 80 77 78 74 72 74 76 75 74 75 74 76 74 75 73 77 76 74 70 71 70 72 73 74 71 77 69 75 70 71 69 69 63 67 71 68 73 71 66 72 73 71 71 70 74 72 67 68 73 67 72 74 72 75 74 74 75 72 
65 68 68 69 67 63 62 60 62 67 71 77 73 77 76 77 72 75 76 79 79 75 77 78 75 73 72 75 78 73 74 77 76 76 74 74 75 83 74 76 74 74 72 72 72 68 72 73 74 72 71 71 67 69 69 67 71 76 76 72 69 71 71 69 69 71 71 74 74 73 72 70 70 73 71 74 76 74 75 72 
61 64 69 67 63 71 57 61 62 67 70 75 78 74 75 82 76 76 76 79 75 78 73 77 78 76 72 76 74 73 75 76 75 75 73 74 73 81 74 77 74 75 72 72 71 69 70 73 70 71 67 70 69 70 67 66 66 67 75 71 68 74 75 71 72 70 73 69 74 72 70 73 72 75 74 73 78 78 76 70 
59 67 69 64 68 71 64 60 59 68 74 78 75 78 76 80 75 76 78 79 78 74 75 75 78 77 75 76 78 75 71 76 78 75 75 73 77 82 76 78 73 72 70 70 70 72 71 72 68 69 69 70 72 70 71 67 65 72 74 77 70 67 71 70 70 72 68 69 73 73 76 73 80 77 74 76 74 79 74 73 
58 62 66 67 68 76 59 59 62 67 71 72 75 71 75 79 77 76 75 78 78 76 76 77 78 73 74 76 81 73 73 76 79 73 77 76 73 77 81 78 74 73 67 68 74 72 68 76 73 69 71 69 69 69 68 65 68 72 71 74 63 70 70 71 67 71 69 70 73 73 74 73 74 74 71 72 72 76 77 73 
54 64 70 68 69 67 62 57 53 66 69 78 73 75 76 77 76 78 78 80 76 76 76 77 77 75 73 75 80 75 76 74 78 76 76 74 73 78 80 75 75 72 67 70 69 71 67 69 72 69 71 68 71 72 67 63 65 68 72 71 67 70 68 68 68 72 73 69 71 70 71 75 74 76 72 72 73 74 76 75 
56 64 66 68 66 74 59 58 55 63 74 79 73 72 78 79 75 76 75 80 78 80 86 73 77 74 76 74 75 74 74 77 79 73 74 75 73 74 73 74 75 74 69 72 71 72 71 73 70 72 70 72 71 68 65 68 65 68 70 72 69 68 70 75 69 75 73 65 71 72 77 72 77 76 75 72 70 73 71 76 
59 61 66 64 65 70 60 55 56 64 73 77 74 76 73 74 76 75 78 79 78 84 81 80 77 75 76 75 76 74 79 77 78 75 75 72 74 77 78 74 75 75 70 71 70 74 65 75 76 71 69 71 71 68 67 67 67 68 71 71 64 71 72 74 71 70 74 70 74 73 76 73 75 76 77 73 74 76 77 79 
53 59 64 66 68 69 64 57 63 63 71 75 80 79 76 76 76 76 77 80 81 76 78 77 80 77 76 76 79 75 76 78 76 73 71 76 76 81 76 74 73 71 70 67 70 67 68 69 70 69 68 70 69 72 65 67 69 67 71 68 69 74 73 73 68 73 73 73 72 75 77 75 77 77 73 72 75 80 80 78 
45 57 63 69 61 64 59 60 59 62 70 77 75 77 73 75 74 73 75 79 77 76 77 75 77 78 77 74 76 75 75 80 78 75 71 71 77 76 73 75 71 70 67 67 65 67 68 74 68 67 67 72 69 68 64 65 68 67 71 69 69 71 71 69 73 74 74 75 74 75 78 74 77 77 73 74 73 75 76 77 
42 61 64 63 62 66 65 64 58 60 73 77 77 76 76 80 78 75 79 78 77 76 79 80 76 76 75 76 75 72 75 73 75 74 72 72 71 77 74 73 70 71 69 68 68 67 69 75 71 70 69 71 76 70 61 65 68 66 71 70 68 67 69 75 74 73 78 77 74 77 77 76 77 75 74 74 75 75 74 75 
45 59 61 63 62 67 64 55 58 64 75 76 76 77 77 76 75 77 80 82 76 76 77 78 77 77 74 73 77 73 74 74 75 70 76 74 75 80 74 74 70 73 68 70 73 72 67 70 68 67 68 71 73 65 61 66 66 68 65 70 67 68 74 73 75 72 76 73 71 74 79 78 77 77 75 76 73 74 73 76 
38 54 62 60 58 60 57 54 55 65 67 77 77 77 79 77 77 77 80 78 79 77 76 75 77 75 74 76 76 72 73 74 76 72 72 71 78 76 78 74 74 73 69 67 68 71 68 73 70 68 68 67 67 69 65 70 64 68 75 71 66 71 70 73 72 73 75 75 73 71 75 76 78 77 77 76 77 75 75 75 
39 57 61 60 62 62 62 56 54 60 65 75 74 78 79 77 77 78 78 79 81 76 80 76 78 75 74 76 74 74 68 73 76 71 73 74 73 78 77 74 71 75 73 70 69 71 69 71 68 70 69 70 71 65 63 68 69 67 69 70 72 72 73 73 72 75 71 75 75 75 77 76 78 79 79 78 74 76 78 75 
40 56 60 61 60 67 61 53 55 59 64 75 76 75 75 79 74 79 75 77 80 80 79 77 78 77 77 76 77 76 73 75 75 75 72 75 74 81 76 72 72 75 72 72 69 69 69 70 68 67 69 69 69 62 64 64 66 65 69 69 72 68 73 73 71 74 73 73 76 77 74 74 74 77 74 78 77 75 80 74 
39 57 63 63 59 64 60 49 50 57 69 72 73 78 74 77 78 75 76 84 86 76 78 80 77 81 78 74 78 77 75 78 77 72 75 74 75 77 74 78 71 77 73 71 72 70 70 70 74 68 67 70 70 70 62 67 65 66 74 70 71 73 72 76 73 74 74 76 73 75 77 74 77 79 79 79 76 79 81 79 
37 56 61 60 58 66 55 52 56 59 67 76 75 79 74 78 78 79 76 82 83 81 76 80 78 76 78 76 78 77 75 79 80 77 73 77 73 80 76 72 76 78 71 71 72 71 70 64 73 71 71 69 70 68 66 74 67 71 74 73 72 72 74 76 73 77 78 81 75 76 78 76 78 79 79 78 74 78 77 80 
33 56 58 56 59 66 53 50 52 59 62 75 73 74 75 73 76 77 73 76 77 75 78 78 77 79 76 74 77 77 75 77 77 75 75 73 77 74 78 72 74 74 72 73 71 70 68 69 73 69 69 71 66 65 70 69 73 72 74 70 70 72 71 75 74 76 80 79 75 78 80 73 79 82 80 76 75 78 78 76 
32 47 55 57 57 59 52 51 50 55 64 71 78 74 77 78 79 74 76 75 75 77 76 78 79 78 79 75 77 77 77 78 76 75 73 76 74 74 72 76 77 73 72 74 72 71 68 72 71 73 68 68 65 72 70 78 80 78 81 77 77 78 75 78 76 78 79 80 76 78 76 78 81 80 81 79 73 78 80 77 
31 47 55 56 55 61 57 48 49 55 60 73 76 77 75 74 76 75 76 77 80 77 78 82 80 78 78 77 77 78 75 79 74 77 71 76 72 79 81 74 78 77 71 72 71 69 69 68 67 68 73 71 78 76 75 77 76 77 79 77 74 74 76 84 76 82 80 81 84 77 80 78 78 83 80 77 76 80 80 80 
31 47 52 52 52 55 45 48 49 53 59 70 72 72 71 77 76 76 79 76 80 74 78 79 80 80 78 77 81 80 74 74 76 77 71 71 73 76 77 74 74 73 72 71 68 70 70 70 69 73 77 80 73 76 73 78 75 82 81 70 72 76 74 76 77 80 78 80 78 77 78 79 80 81 79 79 77 82 76 78 
27 43 51 49 48 50 45 41 44 51 59 72 68 74 74 75 76 75 78 80 78 76 77 81 82 77 77 78 82 79 73 79 82 75 77 70 74 80 74 74 70 74 73 72 72 75 77 77 78 77 72 75 78 79 77 76 81 83 80 70 74 76 76 78 76 81 78 79 78 78 80 79 81 77 84 78 81 83 82 81 
21 39 49 46 51 51 46 41 42 44 55 67 72 73 73 74 73 78 78 79 79 75 77 78 79 78 76 77 80 78 74 80 81 73 76 73 72 74 75 75 73 74 74 76 75 78 77 79 77 70 75 80 81 99 107 106 94 88 83 75 75 81 78 80 79 80 80 82 79 83 77 82 81 82 85 82 83 85 82 79 
22 40 49 48 49 49 43 41 40 44 50 67 67 71 75 74 73 78 78 77 79 78 73 77 79 78 77 78 79 80 77 79 79 79 75 71 73 75 74 78 77 77 79 80 78 71 73 73 79 79 77 75 75 100 121 119 122 115 110 98 86 82 81 79 78 84 82 80 82 78 81 84 83 85 83 83 83 82 85 82 
29 37 45 47 45 51 40 41 39 43 50 64 70 69 72 74 73 84 76 80 80 78 79 81 79 78 74 77 77 83 84 87 84 79 75 75 76 75 76 80 80 80 79 77 76 78 79 79 84 76 74 75 75 103 127 129 122 126 127 127 120 109 103 90 86 88 84 83 82 84 81 84 86 85 84 85 82 88 83 83 
26 38 53 45 44 44 38 38 36 40 50 65 68 73 72 75 75 79 79 80 80 80 79 81 84 83 84 83 84 86 85 84 86 77 75 76 79 82 85 82 78 75 74 81 78 82 79 75 73 72 74 73 76 110 131 133 135 129 132 132 134 133 126 124 116 106 96 90 89 84 85 87 87 87 85 82 86 90 86 87 
24 32 41 45 47 45 38 39 35 37 46 63 67 71 74 72 74 76 78 79 82 79 79 88 98 115 129 126 103 92 79 80 86 80 81 81 85 81 82 78 79 79 78 77 72 76 77 74 70 66 70 71 77 113 134 135 130 132 138 137 134 137 139 137 141 134 125 117 105 98 91 89 90 89 90 87 88 88 89 93 
24 29 41 42 40 42 38 31 30 38 41 58 69 72 71 73 73 75 75 81 83 83 84 95 141 165 171 166 153 112 87 81 88 90 86 81 79 80 82 83 82 79 80 71 71 73 73 74 74 69 70 75 82 126 138 135 136 132 133 137 136 140 139 144 140 138 140 135 130 126 122 110 99 97 91 89 90 94 94 86 
23 31 37 41 39 38 32 29 28 32 36 54 66 69 68 74 74 77 80 75 83 82 83 99 150 171 175 174 169 116 84 89 97 90 85 81 89 87 86 80 78 76 74 71 72 70 70 73 72 69 71 74 83 130 135 134 146 136 139 140 135 140 142 146 145 142 143 138 138 138 140 137 131 125 112 102 98 95 95 91 
22 25 41 38 35 35 32 31 26 31 41 49 61 67 71 71 72 71 75 80 77 82 82 97 149 171 182 186 179 124 83 94 101 98 93 86 84 89 80 77 74 73 73 71 69 72 72 72 71 69 73 77 90 130 136 137 137 135 141 140 136 140 144 149 146 146 145 140 141 140 142 139 138 143 137 136 128 118 103 98 
15 19 32 34 34 36 31 25 25 31 36 55 58 65 68 70 70 76 77 79 81 83 84 93 149 199 215 213 187 143 94 98 99 99 92 85 78 82 76 80 74 72 70 72 72 72 74 80 71 72 72 74 90 136 135 136 136 139 139 140 143 142 147 149 147 150 145 147 147 146 147 148 148 146 143 146 144 141 137 127 
11 16 28 31 30 33 30 28 19 30 29 43 58 67 69 72 73 76 74 78 82 80 82 94 134 202 220 218 187 150 95 91 88 81 81 79 77 80 82 79 76 71 72 72 71 76 73 75 72 66 67 74 97 139 134 138 134 142 143 146 140 148 145 148 148 149 149 148 146 146 148 145 146 148 149 144 147 151 151 142 
11 10 23 31 30 29 32 20 17 25 24 45 60 65 67 70 73 74 72 79 81 80 84 86 115 162 163 173 165 144 99 86 80 76 79 80 78 75 77 77 72 70 70 74 72 76 71 73 73 70 71 75 102 142 135 134 136 134 142 144 144 148 148 150 151 154 147 153 154 152 152 149 149 151 152 153 150 150 150 153 
4 11 22 26 26 33 32 24 17 21 27 44 54 65 71 71 74 70 73 79 75 78 78 87 105 142 157 152 158 151 129 109 89 79 76 80 75 77 81 71 71 69 68 70 75 77 73 71 75 71 73 75 114 145 139 138 139 139 142 143 146 146 151 148 149 151 148 154 153 155 154 150 152 155 153 151 150 153 152 151 
0 7 21 23 26 31 28 26 15 23 26 40 57 64 69 69 73 72 76 81 72 78 83 97 119 138 141 144 146 145 135 134 114 84 79 77 77 78 76 70 71 73 69 74 73 75 79 76 76 71 74 83 125 148 140 135 140 139 141 146 148 152 153 152 148 153 153 150 155 159 158 154 156 159 157 155 153 152 154 149 
21 19 30 24 21 26 33 27 16 18 26 36 49 62 69 67 71 72 73 76 81 79 85 108 124 127 129 134 131 133 128 131 126 108 82 76 73 79 76 72 73 73 74 78 78 81 78 79 76 78 74 87 132 149 145 142 146 142 147 147 148 153 150 150 153 156 153 159 154 160 161 160 160 158 158 158 157 155 154 153 
41 25 22 22 21 27 27 24 17 18 25 33 47 61 67 66 70 70 74 75 77 80 92 110 119 121 122 123 122 126 121 125 123 112 94 82 75 78 75 73 75 70 74 82 79 83 80 83 79 80 81 96 142 150 148 142 146 148 148 153 152 153 154 156 156 157 155 163 160 162 162 162 162 163 164 157 160 157 154 149 
52 28 27 20 17 26 24 19 13 17 23 37 46 57 62 66 69 69 74 76 77 76 95 110 114 110 113 118 119 120 119 121 128 123 110 81 74 74 77 73 71 74 76 80 81 79 80 84 86 85 90 98 151 152 147 149 148 150 146 155 152 155 152 157 154 158 158 160 161 166 164 166 168 167 163 166 166 167 162 160 
74 35 23 20 17 23 20 18 15 19 24 34 43 55 64 69 69 70 76 78 79 80 91 104 108 110 106 115 116 116 115 117 124 124 111 84 72 77 74 73 74 76 75 79 83 82 81 85 90 91 89 101 160 154 151 150 150 149 154 158 151 158 156 157 156 159 162 164 166 164 170 165 167 167 165 168 164 167 158 161 
84 54 27 20 20 18 20 16 14 17 24 33 43 59 64 63 70 72 71 76 78 77 94 99 108 107 106 112 111 116 115 119 124 114 93 84 78 75 72 75 73 79 78 81 80 82 84 89 92 91 92 113 165 161 152 156 156 154 160 160 154 159 157 156 159 163 159 159 164 167 168 164 164 171 166 167 167 162 159 155 
96 82 39 19 22 21 18 17 15 22 22 28 40 53 61 68 67 72 72 77 81 87 90 99 105 105 106 113 114 114 105 114 105 92 82 77 73 78 71 74 74 77 76 79 80 83 83 89 90 94 94 121 177 168 163 158 164 165 163 162 159 161 161 160 158 163 163 163 169 169 169 168 170 169 166 169 168 166 160 161 
97 90 67 27 19 19 20 19 20 23 27 29 37 52 62 64 65 70 71 78 80 77 90 90 97 96 103 99 100 95 93 83 83 79 73 72 69 76 71 69 79 74 74 75 77 79 80 88 88 89 87 129 185 182 171 167 170 165 166 160 159 161 159 159 160 162 161 163 167 168 173 169 170 169 165 168 164 164 166 161 
95 97 85 54 24 18 15 19 22 25 27 38 45 55 60 64 66 71 73 80 81 78 78 82 84 84 83 82 85 78 77 81 77 73 76 73 73 73 74 76 74 72 73 77 74 81 78 83 84 86 91 117 169 190 192 185 182 177 171 167 164 167 160 163 160 165 165 170 168 176 179 170 169 175 166 172 169 173 165 160 
101 97 96 75 34 25 18 20 20 24 28 28 46 55 62 69 69 72 73 79 78 75 77 77 79 78 78 77 76 78 73 72 75 76 75 76 73 75 74 74 75 72 70 74 75 77 79 86 90 86 89 96 118 160 196 204 192 182 178 177 171 163 165 161 159 165 165 168 167 177 176 175 174 178 172 171 169 167 169 159 
100 95 91 81 64 27 18 21 24 28 33 38 44 51 61 67 63 71 71 76 78 74 77 75 76 75 74 75 77 77 75 74 76 76 78 78 77 79 78 79 75 74 72 73 72 75 78 87 87 94 97 93 92 107 143 179 191 189 184 186 178 176 172 167 166 168 166 167 174 175 176 175 173 180 176 173 173 174 165 162 
100 94 97 91 82 55 30 32 31 39 38 34 38 46 59 69 68 67 67 74 77 75 77 74 76 72 76 75 76 78 77 78 77 78 79 85 83 84 87 87 81 71 68 70 69 73 73 79 89 98 104 101 96 106 106 126 155 177 203 199 190 184 176 172 169 171 166 163 171 176 180 177 179 182 176 175 173 177 171 166 
100 97 95 90 84 75 46 31 35 37 39 43 44 45 56 64 66 70 69 72 76 73 74 77 75 77 74 77 76 79 76 82 82 84 82 88 90 90 90 87 86 73 72 69 67 69 76 74 85 95 100 103 98 100 105 102 99 137 178 211 210 204 188 175 170 171 166 172 178 176 182 182 178 181 180 177 178 176 171 168 


