P2
80 60
30
22 21 17 17 16 17 17 18 14 17 22 22 20 17 19 21 20 23 23 21 21 21 20 16 20 19 14 15 17 18 20 22 20 19 18 18 17 20 17 19 19 17 21 17 15 12 18 16 21 23 20 16 18 20 18 19 22 17 15 18 19 18 20 16 12 20 15 12 11 9 8 10 11 17 14 12 9 12 9 9 
24 18 19 18 15 17 18 16 19 22 22 22 20 18 22 19 22 20 17 20 22 18 18 19 17 17 16 19 18 21 21 20 17 19 21 18 17 19 16 19 21 17 18 19 14 16 15 16 15 20 21 17 19 21 18 23 20 22 19 15 18 18 19 18 16 13 14 12 10 10 11 12 10 17 17 15 12 16 12 14 
22 24 17 18 18 17 23 18 18 23 24 21 19 17 20 19 17 19 20 23 22 17 20 18 18 18 17 20 20 21 21 21 19 21 20 20 19 18 19 18 14 20 16 16 15 17 17 12 18 18 17 16 18 20 14 18 18 18 17 15 16 14 18 16 18 12 14 12 12 9 14 12 12 15 15 15 24 15 8 9 
22 22 18 19 19 19 22 18 18 20 24 21 17 19 17 19 20 21 21 25 19 18 16 20 18 17 19 19 18 20 18 19 18 19 17 17 19 19 19 15 19 16 17 16 18 16 16 13 21 20 19 13 16 17 15 16 16 16 18 15 19 18 19 16 14 15 12 11 12 10 12 14 9 10 13 11 7 17 10 7 
23 21 19 18 18 20 22 20 17 21 18 20 17 18 20 20 19 22 19 22 20 18 18 17 20 18 20 16 15 15 17 20 16 20 16 17 17 18 18 16 17 18 21 19 18 17 17 15 19 22 19 16 20 17 15 16 17 19 19 15 17 18 18 21 14 14 15 14 11 12 14 13 12 13 12 11 11 13 9 9 
22 26 18 19 22 21 21 19 19 17 20 18 21 18 17 18 20 22 23 22 17 21 21 20 19 18 18 21 18 15 18 16 18 16 15 17 20 20 21 20 17 18 19 16 16 15 19 17 15 19 19 16 21 16 16 20 19 20 18 17 19 20 17 19 14 12 17 17 17 15 12 11 12 11 9 12 13 12 7 13 
26 21 18 19 13 21 21 17 19 21 21 24 23 21 17 21 23 21 19 23 21 18 25 18 18 17 18 18 18 16 17 18 20 19 19 22 19 20 20 17 20 16 15 18 19 17 19 17 19 22 20 19 21 19 17 17 18 22 23 19 18 25 17 20 16 16 17 15 15 9 11 8 11 12 12 11 11 14 11 13 
25 23 18 21 17 22 20 17 18 19 22 21 17 18 14 23 20 23 22 23 25 19 21 20 20 20 19 17 18 23 19 16 14 17 20 22 19 17 21 18 18 16 18 19 14 14 21 16 15 19 18 15 22 16 18 23 19 20 21 19 17 17 21 19 16 18 13 11 14 10 10 10 9 9 11 9 13 11 10 9 
23 23 18 19 20 19 19 20 16 23 22 20 22 20 19 17 20 25 18 22 18 20 19 18 20 17 18 16 18 16 19 12 17 17 15 21 21 17 18 18 15 12 15 18 17 13 16 13 14 16 17 13 17 19 17 16 18 19 20 21 18 16 20 13 14 13 13 10 9 10 9 10 11 10 10 7 9 13 5 10 
30 22 23 23 20 24 21 23 17 19 21 22 20 17 18 21 26 25 20 17 20 19 20 18 22 17 18 17 15 19 18 17 17 17 17 17 17 17 15 12 14 14 13 15 17 15 16 15 17 18 18 15 16 15 17 15 14 21 20 20 18 17 15 16 14 13 12 10 13 11 10 9 9 10 8 9 6 13 9 11 
30 23 19 23 21 22 22 21 17 22 18 21 22 16 18 18 19 25 17 17 17 18 21 16 18 18 15 19 19 20 13 15 16 17 15 16 15 14 14 16 17 14 15 13 15 15 13 16 17 16 15 12 16 17 16 18 17 18 18 13 16 17 15 13 13 15 17 9 12 9 6 8 7 9 12 11 5 10 7 7 
28 29 26 19 21 20 19 19 16 16 21 17 19 16 15 16 16 16 18 20 17 15 20 16 16 16 15 17 14 19 14 15 18 18 16 19 16 18 20 14 18 13 16 15 15 14 18 14 14 17 14 12 15 15 15 15 14 18 17 14 15 17 14 14 11 17 14 10 9 9 10 9 9 15 10 10 6 14 6 9 
24 29 19 26 21 21 19 20 17 20 20 21 20 19 17 17 18 19 16 19 16 18 18 16 17 16 14 14 18 19 19 15 20 21 18 15 16 16 21 15 17 16 17 14 18 13 19 13 15 19 21 11 14 13 14 17 19 20 19 12 11 15 19 18 16 14 13 13 9 11 0 11 8 11 13 8 16 14 10 7 
28 24 25 18 22 17 17 18 15 18 18 19 18 19 17 20 15 19 18 17 18 21 21 19 17 15 16 13 17 18 17 17 17 19 18 18 16 20 18 16 16 14 13 19 13 15 17 19 12 20 18 15 18 19 17 18 19 24 21 18 17 16 17 17 12 12 12 15 10 7 10 6 11 7 10 7 10 8 3 9 
28 26 24 20 18 22 23 20 16 19 18 19 18 14 18 17 17 19 13 17 18 18 17 17 16 17 15 17 17 15 18 19 18 17 17 14 16 16 17 18 16 14 17 16 19 16 14 15 14 17 13 16 16 17 17 19 18 28 22 14 15 15 17 12 15 16 12 13 11 12 13 8 10 8 7 8 5 7 8 9 
28 22 20 19 18 24 19 22 19 17 16 24 15 15 15 19 15 20 20 18 12 17 17 18 21 16 15 14 15 17 16 17 16 18 16 16 14 16 16 15 16 16 16 18 19 14 16 15 18 18 18 12 18 18 18 19 20 23 20 16 13 17 18 16 17 16 14 10 13 12 10 13 14 13 8 8 7 11 10 10 
26 24 24 19 19 17 19 17 15 14 16 19 15 17 14 16 14 16 13 15 16 15 17 14 18 19 15 19 16 19 13 16 18 19 16 16 14 16 13 14 16 14 14 16 16 15 15 13 14 15 17 12 17 19 15 18 19 23 20 17 15 15 16 14 13 15 15 14 14 11 11 12 16 10 5 6 6 9 11 10 
28 23 22 22 16 22 20 18 18 18 17 20 19 13 20 15 16 16 15 14 16 12 16 18 16 12 16 17 16 14 17 16 15 17 17 17 13 15 16 17 16 13 15 15 20 15 14 15 16 15 17 13 17 19 19 16 20 30 19 15 13 15 11 14 14 14 11 11 13 13 10 9 11 12 9 7 6 13 6 14 
25 26 22 24 22 17 21 17 15 16 18 20 17 13 14 15 15 21 19 17 14 15 20 24 17 15 19 17 18 13 17 14 19 17 17 18 17 16 17 16 15 16 14 18 15 12 15 10 18 18 15 12 19 19 17 16 18 19 18 15 16 16 13 12 16 16 12 17 14 10 13 10 10 10 9 6 5 8 9 8 
28 21 24 19 17 20 19 15 17 19 15 18 16 16 16 17 18 18 18 16 16 23 23 19 19 18 17 16 18 18 19 19 17 17 15 16 17 16 17 14 16 16 16 18 18 14 13 14 16 19 16 15 19 16 15 15 19 16 16 16 16 14 14 16 14 16 15 12 11 11 11 11 11 10 7 5 4 10 10 9 
26 22 21 22 19 21 20 17 17 17 20 19 14 16 15 17 16 19 17 16 17 19 22 19 18 17 17 16 16 19 26 20 16 17 16 18 16 18 17 14 19 18 16 13 17 11 12 10 15 16 17 17 18 16 17 17 16 19 17 15 15 16 18 15 12 15 17 12 13 13 15 12 12 9 8 7 5 8 8 10 
28 25 19 22 20 17 21 19 16 18 18 20 25 19 18 18 15 18 17 19 15 20 21 19 18 16 16 17 17 18 16 20 18 17 13 16 17 19 17 17 15 18 12 13 16 12 14 13 12 18 19 14 17 15 17 17 15 17 19 14 14 19 17 16 12 16 15 10 11 12 18 11 11 14 11 8 6 9 8 8 
28 22 18 23 20 18 21 19 21 21 19 21 18 16 16 15 17 20 18 19 18 14 21 16 20 19 17 17 18 15 19 17 16 14 12 17 15 14 16 17 16 12 14 13 17 11 13 12 11 16 16 16 14 16 17 16 17 20 17 16 18 17 16 15 18 18 13 14 13 12 13 10 12 13 8 10 5 11 8 7 
23 21 20 19 20 23 22 25 15 19 19 20 20 17 18 19 17 18 17 19 18 15 16 17 16 15 14 18 16 16 16 16 15 17 13 16 14 16 14 14 14 14 13 15 17 10 13 9 14 19 15 15 15 15 14 16 15 19 16 13 15 15 17 15 16 15 18 13 12 12 12 9 11 12 11 8 4 10 10 11 
22 20 19 18 17 16 18 19 18 20 19 21 20 16 17 15 16 18 19 15 13 16 17 16 19 13 13 13 15 14 14 15 14 12 14 14 12 15 13 15 16 12 14 15 14 15 14 11 12 17 17 13 16 15 14 14 13 16 16 14 17 15 16 12 16 16 18 12 11 11 13 11 11 12 8 8 5 11 13 8 
24 19 19 17 19 17 20 22 14 21 20 20 21 18 21 18 16 16 15 15 15 18 17 18 17 18 16 17 16 14 15 15 13 15 14 17 14 15 13 13 15 14 15 13 16 15 13 15 12 13 13 13 14 17 13 13 16 18 21 17 14 16 15 13 14 13 14 13 12 14 13 8 10 9 11 12 4 10 9 11 
23 23 18 20 14 17 21 18 16 21 19 19 17 15 16 17 18 18 17 13 15 17 20 19 18 14 14 16 14 15 14 18 18 11 15 15 14 15 14 12 17 12 16 15 13 13 14 11 12 14 15 12 13 12 11 13 14 18 17 13 13 14 14 13 14 18 17 14 9 12 11 9 11 13 9 8 6 10 10 8 
22 23 25 20 18 17 20 15 19 20 19 20 18 17 16 17 15 21 15 14 16 17 17 19 20 20 18 18 15 17 17 17 15 14 16 17 16 16 13 13 15 13 17 16 15 14 13 13 11 16 13 13 17 15 14 14 14 15 15 16 17 14 17 12 15 17 13 12 10 17 13 11 10 12 7 3 7 7 9 8 
23 27 26 22 16 16 19 15 19 19 21 21 19 17 19 15 16 16 13 19 14 14 16 17 17 18 14 18 20 19 17 14 15 17 16 13 15 13 15 18 18 15 16 16 15 12 14 14 12 19 14 11 16 16 16 15 13 15 17 17 14 17 14 14 15 17 15 12 11 11 11 13 9 9 11 5 7 9 5 11 
30 22 26 24 17 18 17 16 21 21 19 22 20 18 18 18 18 16 15 18 18 17 19 16 19 15 17 16 19 18 16 14 14 18 14 17 12 15 15 14 17 16 15 17 15 14 13 13 14 16 17 10 15 14 14 15 13 19 16 13 15 14 14 15 18 15 14 17 13 11 11 11 12 12 10 11 5 10 8 6 
25 25 22 20 19 18 18 15 19 19 19 17 18 17 21 17 18 17 16 16 16 17 18 18 20 18 16 19 18 19 14 13 16 17 16 14 17 13 14 12 13 17 18 17 14 12 12 12 15 17 12 9 14 16 12 14 15 19 13 12 18 17 13 28 17 13 15 16 9 11 13 11 11 12 8 6 7 12 7 5 
23 21 20 20 15 16 18 17 18 19 19 23 18 17 16 18 17 16 16 16 13 18 18 18 16 13 17 15 13 14 14 13 13 15 15 12 13 14 13 14 15 16 16 17 15 10 12 13 13 19 15 10 13 13 13 13 16 17 17 13 15 15 14 13 16 16 15 16 14 9 13 9 9 9 8 6 4 11 13 8 
24 21 20 16 16 17 17 15 18 18 19 22 18 17 16 15 18 20 19 12 12 15 16 16 17 16 15 16 17 14 16 13 14 14 12 15 15 15 15 16 16 17 15 16 16 14 12 12 14 16 17 12 15 14 12 12 13 17 16 13 14 15 14 14 16 16 14 12 15 11 11 8 10 11 10 6 7 8 5 6 
28 20 15 18 23 18 15 16 14 16 20 19 18 19 17 19 16 20 17 16 15 13 18 21 17 17 16 16 18 20 14 16 13 14 15 12 12 12 14 13 14 19 17 16 19 13 14 13 15 16 15 14 15 13 11 16 16 18 14 16 12 17 12 14 15 16 16 14 12 13 10 15 10 11 8 7 4 12 7 7 
25 21 20 19 18 17 17 16 18 18 18 22 19 19 17 17 21 18 18 17 14 13 18 16 20 16 16 18 17 17 15 16 16 16 17 17 15 14 16 14 15 16 18 18 17 16 16 13 15 16 14 17 18 20 15 14 16 21 16 12 14 17 16 15 18 16 14 10 12 10 10 10 15 13 11 8 11 9 10 11 
24 24 16 19 20 18 19 15 22 17 21 21 20 17 17 17 19 21 18 17 12 15 17 17 18 13 14 16 16 16 17 15 18 19 16 14 14 16 15 14 16 17 15 17 15 14 17 18 16 15 16 15 16 17 15 17 13 16 16 15 16 17 15 17 17 16 14 13 12 12 6 11 13 11 10 9 9 17 9 16 
25 22 17 23 18 20 25 22 18 17 17 19 19 18 17 15 16 20 17 18 17 16 16 16 16 17 14 14 14 14 18 17 15 16 13 13 15 15 15 14 16 13 15 14 15 9 17 12 15 13 16 15 15 16 16 17 15 19 13 16 15 15 12 16 18 16 14 12 13 9 9 10 11 11 12 11 9 12 12 14 
25 23 21 25 20 18 19 18 18 19 19 21 20 17 15 13 16 23 17 19 19 15 16 19 18 16 11 17 15 16 18 13 13 15 13 13 14 14 17 15 16 16 16 16 16 14 14 11 14 14 18 14 14 16 15 16 16 18 15 11 13 13 16 16 18 19 14 13 11 12 10 10 11 11 10 9 5 13 10 7 
27 25 24 19 21 21 20 17 19 21 26 25 22 14 15 17 17 19 15 15 18 18 19 19 18 14 14 11 19 17 13 15 16 17 12 17 16 16 15 15 18 15 16 16 16 15 15 11 12 16 18 14 15 17 16 17 17 17 13 16 16 15 12 12 17 14 16 12 8 9 10 10 9 9 11 11 10 12 13 14 
26 25 19 21 19 22 22 15 17 18 21 19 18 15 16 14 17 17 15 17 20 15 21 19 19 15 17 18 15 15 14 15 19 18 16 15 13 14 15 19 17 18 15 17 13 12 19 12 16 16 17 14 17 17 19 17 16 17 15 13 13 16 16 14 16 15 12 11 12 9 9 8 9 14 11 9 7 12 14 12 
24 23 20 22 15 19 18 15 14 18 19 19 17 18 16 17 18 21 15 19 17 16 17 18 21 16 19 14 17 15 15 17 17 19 14 15 13 15 15 15 15 18 14 14 17 13 15 15 18 20 16 14 19 14 16 15 16 16 15 11 12 12 12 16 16 16 13 10 10 9 10 10 6 11 12 8 8 12 13 11 
23 23 19 19 18 18 18 17 16 17 19 18 22 17 17 18 19 18 23 17 17 15 18 21 19 18 20 17 14 14 19 14 15 17 15 15 16 16 17 15 14 16 16 17 14 13 16 16 14 18 17 14 17 19 14 18 15 14 14 11 14 15 14 12 17 12 13 11 11 11 12 10 11 13 10 11 11 12 13 10 
25 23 21 18 16 19 19 16 15 18 19 21 21 19 19 21 17 17 16 17 17 16 17 17 16 16 18 17 14 13 15 16 15 15 15 18 15 16 16 12 15 17 17 16 17 14 16 19 17 18 20 16 17 19 14 17 17 15 13 10 14 16 18 17 14 15 10 13 9 7 9 9 11 11 9 12 12 14 14 9 
28 21 19 17 16 17 20 17 13 13 17 21 19 17 21 18 17 19 19 17 18 16 19 18 17 17 15 15 17 16 19 14 15 12 16 16 12 15 16 15 15 15 13 16 16 19 20 22 19 17 19 11 19 18 14 14 13 16 14 13 13 14 15 13 17 11 11 8 13 11 9 11 12 10 7 9 11 13 10 15 
24 23 21 19 14 16 20 16 11 17 19 18 18 14 19 18 15 22 18 19 18 19 21 17 20 17 13 13 15 15 14 16 15 14 15 17 17 12 15 11 15 13 14 15 16 17 19 18 18 17 16 15 16 12 10 13 11 15 15 14 13 16 15 12 12 15 13 13 10 8 9 7 8 11 9 8 8 10 9 8 
22 24 16 16 19 18 17 16 12 18 17 23 18 17 20 20 21 23 19 17 19 18 19 17 17 16 16 10 12 14 16 14 17 15 18 16 15 17 16 15 15 12 13 15 17 17 16 15 15 18 20 15 15 14 15 13 12 15 15 12 14 16 12 12 16 16 13 12 12 9 8 9 8 12 12 8 5 10 8 10 
25 20 15 13 20 16 19 15 15 16 19 19 21 20 19 22 19 23 19 16 20 19 18 16 17 17 19 13 14 17 15 14 16 17 17 15 14 14 15 11 12 12 14 15 18 13 15 13 17 18 15 16 15 13 14 12 13 13 15 14 13 15 15 15 12 13 14 14 11 8 10 10 7 11 8 8 4 7 9 7 
22 21 17 14 14 22 16 18 15 14 16 20 20 19 20 18 20 23 17 17 16 20 22 16 17 17 15 15 14 18 14 11 12 17 16 15 13 13 14 15 13 16 15 16 18 15 16 13 17 14 15 14 18 14 16 10 15 14 13 13 13 16 14 14 16 14 10 15 13 11 12 10 11 12 8 11 4 8 5 9 
24 21 18 18 11 17 20 18 12 17 20 19 20 16 23 24 19 20 20 17 16 19 24 22 18 17 17 16 15 18 15 12 16 15 15 17 15 16 18 13 16 19 14 17 19 16 18 13 15 17 14 13 14 13 13 17 16 14 16 10 12 19 14 16 16 13 16 14 12 13 13 8 9 12 9 6 7 8 9 8 
22 22 18 19 13 14 18 15 14 20 18 19 19 15 24 21 18 21 22 16 18 19 22 19 17 16 16 14 14 15 15 15 13 14 14 14 14 13 16 13 14 12 15 16 15 14 13 8 12 16 16 12 16 17 14 16 16 17 15 12 12 12 14 14 16 15 11 15 11 10 13 11 8 12 13 7 4 10 10 8 
23 24 20 20 16 16 17 13 14 16 19 21 18 15 20 17 18 22 19 20 18 20 18 19 18 16 14 15 14 16 16 13 18 15 15 13 13 14 19 13 15 12 13 14 15 16 14 9 13 15 15 12 21 15 18 17 16 16 14 15 15 20 13 17 20 13 11 12 11 9 12 9 7 10 8 9 8 14 12 4 
25 23 18 19 20 17 16 12 14 17 17 21 18 17 19 16 16 18 21 14 19 18 19 16 18 17 13 12 10 15 15 12 15 15 20 17 13 13 13 14 13 17 16 17 14 12 14 13 15 16 16 16 17 23 17 18 23 14 15 16 15 14 13 19 17 13 10 13 10 10 11 9 11 12 10 10 14 12 7 5 
25 24 20 19 22 20 18 14 16 17 18 20 18 15 18 17 15 19 19 16 18 18 16 16 19 14 15 14 15 20 13 16 15 16 18 15 16 17 17 12 15 15 12 16 17 12 13 15 17 15 19 16 23 18 13 18 17 18 21 13 17 15 20 17 17 14 11 10 11 11 10 10 9 11 10 11 11 11 9 10 
24 21 19 20 26 23 18 18 17 19 18 21 18 19 21 18 13 19 17 18 15 19 18 19 18 17 16 19 16 14 13 14 13 15 17 14 13 12 15 12 16 13 12 15 15 13 17 11 13 14 17 19 17 16 17 18 21 20 19 14 13 15 16 17 17 15 12 10 11 12 12 10 7 14 10 10 9 10 12 15 
23 21 15 18 17 20 16 18 17 21 22 22 22 17 17 19 18 17 17 17 18 16 18 15 17 15 20 17 18 15 12 13 15 16 13 14 10 12 13 13 10 13 12 13 14 12 14 13 13 14 16 10 12 15 17 18 22 18 18 14 13 14 14 14 15 14 10 10 12 12 10 12 12 11 13 10 7 10 10 8 
21 16 16 18 14 14 18 13 15 21 18 22 21 21 19 15 16 20 21 23 20 19 14 16 16 15 12 16 13 13 9 11 14 14 15 13 12 11 12 11 9 15 9 13 15 13 13 10 10 13 16 11 17 15 15 15 17 17 13 15 11 15 9 15 15 11 11 9 12 14 13 10 10 13 9 7 5 6 10 6 
25 21 16 13 15 16 17 15 14 18 21 23 28 24 16 17 15 19 20 21 16 19 17 14 14 15 14 15 14 16 10 12 12 16 12 14 14 12 14 12 13 11 12 13 14 13 13 14 15 15 14 12 14 15 16 17 15 17 16 13 15 14 13 15 17 15 13 13 10 11 13 9 12 8 11 9 4 15 9 10 
20 21 15 15 13 13 15 17 14 20 22 18 24 22 20 16 17 21 18 18 19 19 21 17 17 14 11 13 13 15 15 11 10 14 15 15 13 12 16 13 14 15 13 15 14 13 16 21 15 17 15 17 15 20 16 18 14 15 14 16 16 15 14 19 16 12 11 13 11 11 10 8 11 6 11 3 6 13 12 14 
24 21 15 15 15 16 18 16 15 20 18 20 18 19 19 18 15 16 18 16 17 21 18 18 16 12 16 12 15 17 12 12 10 14 18 14 13 15 16 12 16 17 12 17 13 13 13 17 18 19 19 18 14 15 19 15 14 15 13 16 17 14 14 15 13 14 12 8 11 8 12 7 13 7 11 6 8 10 9 9 
22 18 19 15 16 18 20 17 17 13 20 24 19 19 17 17 13 15 15 15 16 19 19 19 17 15 12 16 12 18 12 12 11 14 14 20 18 17 15 15 13 15 14 14 13 15 13 10 20 15 15 15 18 15 18 16 14 16 14 14 12 13 11 15 15 14 11 12 8 6 9 8 10 12 9 7 7 11 10 12 


