P2
80 60
165
150 144 142 142 139 136 138 132 127 118 89 75 74 104 145 157 152 154 152 154 163 159 157 156 155 156 156 154 156 156 149 143 149 150 157 155 156 160 161 157 160 158 159 155 137 142 146 146 118 102 68 31 14 20 27 48 60 69 82 90 91 104 114 120 112 117 111 113 116 120 120 121 123 128 126 125 126 127 119 121 
153 144 144 146 139 140 137 134 126 119 97 77 75 103 146 147 154 152 151 157 157 154 155 154 155 156 159 155 158 157 149 146 145 152 156 156 158 161 158 158 159 157 154 156 141 145 143 140 116 102 70 24 7 13 20 38 56 60 71 83 88 99 106 117 113 115 109 115 115 117 118 119 123 123 123 122 126 123 121 127 
153 141 144 143 140 139 140 131 125 119 94 82 68 109 145 153 150 153 151 155 159 159 157 154 158 160 160 158 158 155 150 154 147 149 159 155 159 160 162 156 162 160 155 150 141 147 146 136 114 96 65 20 4 10 18 39 42 50 63 77 85 101 105 112 113 113 110 112 114 113 123 122 118 125 123 121 127 123 125 127 
150 145 138 143 142 138 136 132 128 116 99 75 70 113 146 152 152 154 150 155 158 157 158 158 155 158 158 156 160 157 150 142 145 147 159 159 159 161 162 156 161 156 156 156 140 149 147 139 113 98 64 10 3 9 14 33 41 47 54 71 87 100 107 110 105 111 109 111 114 112 119 125 119 125 128 121 127 127 126 125 
150 145 140 144 142 138 137 132 123 118 97 78 74 118 148 158 150 151 152 156 157 157 160 155 157 157 159 156 156 156 148 142 141 144 148 154 157 163 163 156 161 159 158 154 142 145 151 141 114 105 66 12 4 10 15 31 39 48 54 73 85 98 109 112 105 112 109 109 111 114 117 117 120 119 125 122 122 119 122 120 
158 150 150 146 147 144 142 133 128 113 91 73 74 120 146 150 147 153 155 157 156 158 157 153 157 158 159 155 152 152 147 142 142 148 152 152 158 164 165 158 157 161 157 152 147 148 146 141 115 99 67 15 6 10 15 25 30 41 58 70 86 95 101 108 107 110 109 114 115 117 118 118 111 118 121 116 126 121 119 120 
159 156 149 152 152 144 144 137 128 122 102 76 65 116 144 151 153 150 154 155 159 154 157 157 156 158 158 156 156 153 149 148 147 148 155 151 164 160 164 158 160 161 154 154 149 152 150 140 120 101 74 18 8 15 18 17 28 50 61 71 81 91 97 103 101 104 107 108 111 111 116 115 114 118 120 119 125 119 122 122 
158 151 152 152 148 151 140 142 134 126 106 77 66 117 149 148 148 153 152 156 159 155 160 158 156 158 155 155 155 156 155 148 150 150 151 151 159 163 159 159 161 159 155 154 144 148 153 140 118 107 72 15 9 10 10 24 35 54 59 70 78 91 95 100 96 104 98 103 107 111 107 116 122 120 119 121 127 119 121 124 
160 159 152 156 151 146 142 142 135 131 112 76 77 125 143 152 149 155 153 154 164 155 157 158 158 158 156 155 156 157 156 148 147 145 143 150 160 162 158 157 158 159 157 156 147 149 152 144 119 107 76 18 9 18 7 24 36 49 64 71 77 88 93 94 92 105 96 100 105 108 118 119 124 127 128 121 129 122 118 120 
158 159 154 154 151 151 144 140 141 131 116 79 72 123 144 149 152 151 149 149 154 154 154 153 154 155 156 152 152 154 145 141 135 137 139 150 163 161 159 156 159 158 161 154 147 150 145 140 120 111 77 12 7 11 14 20 34 53 65 71 79 86 84 90 88 93 96 98 99 102 114 127 126 131 136 124 130 121 120 120 
165 158 154 157 152 150 155 141 137 130 121 79 70 124 147 146 150 151 151 152 157 152 152 152 152 154 153 153 153 150 138 136 137 137 142 147 158 159 162 156 157 160 152 152 140 149 146 138 119 111 78 15 9 6 15 22 30 43 60 65 71 80 81 87 86 93 89 97 98 99 107 125 132 138 137 138 140 121 118 118 
160 158 154 154 150 148 147 140 135 128 120 84 71 123 144 149 146 147 148 153 157 153 154 154 151 150 151 150 151 148 141 141 135 134 143 146 155 158 159 155 157 159 157 151 142 148 149 140 118 112 81 15 11 12 17 23 33 45 60 68 69 82 81 83 86 92 89 96 96 99 111 120 136 138 139 136 138 127 117 117 
158 151 149 154 144 141 135 128 125 125 119 85 76 126 144 148 147 147 148 150 156 152 152 153 152 152 151 149 150 146 141 132 128 130 140 148 156 159 160 156 158 158 155 153 150 149 150 141 122 113 81 22 13 7 11 25 35 43 53 60 71 83 85 85 83 90 91 92 97 99 98 113 125 130 133 131 137 121 117 115 
159 151 146 143 143 134 131 125 124 122 121 91 80 125 142 150 145 148 148 147 157 155 150 152 150 151 150 150 147 147 141 126 121 123 143 147 159 157 156 155 159 156 158 154 143 152 148 139 118 119 85 22 12 11 13 28 34 46 51 68 73 81 81 86 82 92 90 94 95 98 104 109 122 129 128 128 128 117 119 117 
155 150 148 146 140 132 131 126 121 123 118 97 82 131 144 150 147 146 150 151 153 153 151 152 146 149 147 146 147 147 144 132 125 129 139 144 159 162 159 153 157 157 156 155 144 148 150 133 119 117 86 21 14 10 15 25 34 53 50 64 74 81 88 86 86 88 93 94 94 99 102 116 129 134 133 130 125 121 115 115 
155 155 141 144 135 132 128 124 123 121 119 105 85 136 148 148 144 144 145 146 149 150 150 151 146 149 147 144 143 146 136 126 123 119 136 143 155 157 156 152 158 156 158 148 139 147 145 128 116 113 84 17 13 12 5 21 34 40 50 59 68 80 84 80 83 88 89 100 94 103 112 120 126 137 136 126 132 119 117 121 
163 149 147 142 138 131 128 123 119 118 119 107 94 140 145 149 146 146 143 148 151 150 148 150 146 148 152 142 138 133 121 116 109 118 130 140 154 157 156 155 154 156 157 153 149 152 145 127 118 115 88 24 15 13 4 20 31 43 51 60 69 82 84 86 83 92 90 103 100 112 120 130 132 136 132 127 133 130 125 121 
160 154 149 151 143 134 134 129 123 120 121 108 92 138 139 147 143 147 150 150 151 149 149 147 149 151 153 143 137 128 114 108 111 119 127 141 159 153 155 154 157 157 151 154 151 148 143 124 115 113 85 20 13 12 8 19 29 44 53 59 71 80 80 85 84 90 94 104 110 118 119 125 125 128 127 129 127 128 131 130 
164 156 153 153 143 140 138 130 124 120 116 112 92 140 144 144 143 144 149 149 153 147 148 151 147 149 143 144 140 130 113 109 108 111 127 135 151 156 154 154 158 158 153 153 146 147 141 122 115 110 85 19 16 11 6 17 25 37 48 60 70 78 77 83 82 93 101 110 109 115 115 114 118 119 121 120 127 127 133 131 
163 157 152 151 139 144 135 130 124 118 111 111 96 136 143 145 145 148 148 148 148 150 155 149 147 148 145 144 138 129 115 113 115 118 132 135 149 156 156 154 159 158 153 152 144 147 141 121 113 114 85 22 12 8 5 18 21 29 46 62 71 80 78 82 82 95 100 107 108 115 114 117 117 116 118 121 123 126 129 134 
164 153 151 147 138 142 136 128 118 112 117 112 103 137 144 142 145 145 147 147 149 148 151 151 147 148 139 141 136 127 129 127 125 123 128 138 144 155 153 154 158 160 152 151 149 146 139 121 110 112 81 23 13 5 6 19 26 35 46 62 73 79 76 82 84 94 101 105 105 110 112 118 114 120 115 118 124 122 126 129 
161 154 150 147 144 139 136 131 124 117 117 116 111 140 143 143 142 143 144 151 153 143 150 147 146 144 139 139 138 140 136 128 122 124 126 135 151 157 153 153 156 157 154 152 143 147 135 115 111 111 85 23 15 10 7 15 22 36 50 60 71 79 77 89 89 93 102 102 105 109 114 114 116 118 118 113 122 126 126 124 
159 156 151 151 143 142 138 128 123 116 119 117 107 140 145 144 140 143 145 148 151 147 145 146 140 147 139 139 131 131 119 117 120 118 129 132 146 151 152 151 152 154 152 146 137 148 133 113 112 112 82 18 14 6 3 14 19 33 49 57 68 80 80 84 92 103 96 105 105 111 115 114 118 119 119 119 126 123 131 127 
163 152 150 147 138 138 137 132 130 118 118 115 108 140 144 146 142 145 145 147 149 145 151 145 143 140 136 139 133 120 122 117 119 121 126 130 143 149 152 150 153 156 151 148 144 143 128 115 109 113 78 22 20 15 8 14 20 33 44 59 67 79 80 86 93 106 101 108 104 108 115 117 116 116 119 122 128 127 130 129 
156 154 140 142 137 131 131 135 132 119 120 114 108 140 146 146 144 147 145 147 147 145 147 146 139 142 142 136 133 123 127 122 128 126 131 131 145 149 151 152 156 152 154 148 142 146 129 108 106 109 81 21 15 10 8 13 21 33 46 61 71 76 81 86 97 105 104 105 102 108 108 107 114 111 118 120 127 128 135 131 
158 151 144 140 136 132 133 128 128 120 117 114 109 142 145 146 144 145 144 145 147 144 146 147 141 138 137 135 131 122 122 113 116 118 126 133 142 146 152 150 156 156 149 149 145 144 126 111 106 107 78 22 16 18 16 13 27 37 50 64 70 83 78 91 100 106 104 102 102 103 108 112 108 113 116 118 125 131 128 132 
158 151 140 138 138 138 131 130 125 119 118 117 113 142 148 142 143 146 146 143 149 144 152 148 141 133 142 134 133 127 123 121 115 116 124 125 141 147 147 147 153 150 150 151 146 140 123 102 100 103 71 22 17 19 17 20 22 37 51 58 69 80 76 94 99 105 103 100 105 106 108 109 106 112 114 111 124 130 133 129 
158 151 147 142 136 132 130 132 127 121 117 117 112 139 141 146 141 146 146 144 147 148 148 147 138 130 144 137 134 126 129 125 122 122 122 125 139 148 148 145 154 151 153 149 144 142 119 104 102 101 67 24 23 25 19 22 27 39 50 64 71 80 83 91 100 108 105 103 108 112 112 111 110 113 112 114 124 124 127 131 
156 155 141 143 140 133 131 128 124 119 116 115 114 140 145 146 142 142 143 148 144 143 146 147 136 130 142 126 131 123 114 107 118 118 117 119 143 145 148 149 147 149 152 148 147 139 119 103 97 97 70 21 22 28 23 27 29 40 51 61 70 77 79 88 97 107 106 103 106 113 112 108 104 109 111 108 119 116 119 124 
160 151 139 140 134 129 129 131 130 118 118 113 111 140 139 148 140 144 141 143 149 142 147 146 141 131 139 130 124 114 100 104 111 108 114 118 138 146 147 142 147 152 151 150 149 134 111 104 97 95 71 23 24 29 25 35 35 41 51 63 69 76 79 85 83 98 99 105 106 113 112 109 112 116 113 114 116 116 114 111 
161 148 139 141 135 129 132 128 125 116 118 112 109 139 139 148 143 143 143 143 148 146 149 147 139 129 137 134 128 110 100 98 103 107 123 125 141 142 145 142 147 148 154 147 148 132 113 102 97 99 67 33 28 35 31 36 33 47 53 57 68 79 77 83 81 88 96 107 104 109 109 114 107 112 115 114 113 116 108 107 
159 153 136 142 136 126 130 132 125 120 120 117 106 135 140 146 145 143 143 143 148 145 147 147 137 129 133 133 126 107 97 94 100 112 119 124 141 143 144 143 150 149 149 151 145 136 109 100 96 94 68 25 26 36 33 41 40 45 55 60 70 83 79 81 80 90 100 98 101 109 109 112 114 116 114 111 112 117 106 107 
158 152 143 143 133 128 130 128 127 118 118 115 109 138 141 146 139 141 143 143 147 142 145 147 138 129 126 134 122 107 99 101 104 112 111 116 141 144 144 141 151 149 149 146 144 132 107 100 95 98 65 25 26 36 35 43 39 46 61 61 73 78 77 82 80 93 99 100 102 103 108 108 110 110 113 114 115 111 105 105 
156 150 143 144 134 129 129 126 127 118 114 111 104 135 140 142 140 143 141 143 148 143 145 149 133 127 128 132 122 111 91 94 108 110 126 123 140 144 144 141 146 150 150 145 143 132 103 98 92 93 68 26 26 36 40 39 41 48 55 63 66 79 76 79 80 95 99 99 102 102 107 106 110 108 109 111 112 113 107 105 
158 154 146 141 133 134 132 129 131 120 119 117 110 132 137 142 142 143 142 143 147 145 149 144 135 125 120 131 123 107 96 103 109 113 126 132 141 143 145 141 146 148 151 142 146 126 99 99 92 96 67 27 28 41 46 43 45 47 61 62 72 76 75 81 79 92 94 94 99 99 103 103 107 106 106 109 107 109 105 105 
157 152 144 138 133 131 131 132 128 125 116 116 108 129 144 141 143 143 146 144 146 143 146 143 137 123 122 129 123 114 107 105 106 114 126 129 147 141 146 143 147 143 147 144 141 124 104 102 92 95 64 30 28 40 46 46 47 49 59 63 72 77 74 76 78 92 93 97 98 102 100 103 100 104 105 106 108 109 105 107 
160 152 143 142 130 131 129 131 128 122 122 117 104 130 138 141 142 143 144 139 150 143 146 146 131 118 118 128 121 110 105 105 114 123 124 125 140 144 145 142 152 145 142 145 141 122 100 103 93 96 63 28 27 46 49 47 47 45 55 63 69 73 74 82 82 96 97 96 100 95 102 105 102 102 100 101 107 107 105 102 
156 152 145 145 134 136 130 133 126 120 120 116 111 128 141 141 140 146 144 146 145 142 145 145 133 122 121 124 121 116 112 115 122 119 108 105 144 146 144 145 146 144 142 142 137 120 94 98 93 94 66 27 28 47 48 49 46 50 54 61 68 74 77 76 81 99 98 101 98 99 99 100 99 100 95 99 105 107 100 104 
153 151 150 145 130 128 134 128 126 119 119 116 107 128 141 139 142 144 141 141 145 143 145 144 134 121 125 124 116 109 112 113 116 109 85 92 133 141 145 143 147 145 142 143 136 115 99 99 91 92 59 29 26 44 50 51 51 49 58 61 67 71 73 77 82 98 95 100 96 99 100 94 93 98 93 99 98 97 100 107 
156 151 148 142 133 132 129 131 127 120 120 119 110 126 140 141 139 145 144 141 146 145 146 147 131 123 126 128 116 113 95 94 84 77 68 91 125 129 142 141 145 142 142 135 134 107 99 91 91 95 66 31 28 47 49 47 47 52 56 62 69 66 71 76 82 99 98 100 97 93 95 96 93 94 91 94 96 100 100 106 
156 152 149 147 133 130 135 135 127 122 122 113 111 122 137 142 139 142 144 144 146 146 144 146 135 114 119 128 113 102 64 56 54 61 59 69 84 88 102 113 134 136 127 116 122 101 95 93 88 93 58 34 26 45 51 51 50 51 59 60 62 69 68 75 83 94 99 95 96 96 95 94 86 90 95 89 96 101 107 105 
157 154 148 144 139 135 133 130 123 123 118 114 111 121 138 144 145 143 141 141 144 145 145 147 135 108 115 120 116 104 61 47 48 58 53 57 75 71 79 87 111 116 97 87 83 78 87 85 89 94 56 26 25 44 44 51 48 54 57 57 63 68 69 78 80 92 92 91 91 90 88 90 87 87 90 93 99 100 98 104 
157 150 149 147 133 127 130 125 120 123 120 116 112 119 137 142 141 140 143 143 144 144 143 143 136 108 126 119 110 108 61 45 49 53 53 56 63 68 74 74 78 79 79 72 65 73 85 90 88 87 51 21 20 37 39 48 47 50 57 59 65 72 72 81 83 90 88 88 92 91 88 86 82 87 89 89 95 96 99 99 
155 148 143 139 128 127 126 123 122 122 121 114 114 113 137 141 140 140 141 144 146 142 142 144 131 106 122 122 114 105 69 42 45 46 48 49 57 61 70 68 79 77 72 75 68 70 85 94 86 85 47 17 14 29 40 43 46 49 53 62 63 71 69 71 79 88 84 88 85 84 84 83 85 85 89 89 92 94 95 98 
155 145 143 138 131 127 128 124 126 125 122 115 113 113 140 142 141 143 141 144 148 143 144 141 135 104 120 119 114 106 71 40 39 40 46 42 50 55 66 63 69 66 67 71 71 68 85 86 81 84 40 16 9 20 29 39 42 54 59 64 68 70 69 72 75 85 82 83 80 83 78 80 82 87 87 87 92 90 97 103 
151 147 144 140 126 126 125 129 124 123 119 117 112 118 137 141 139 141 142 143 141 142 145 143 134 102 117 115 113 107 77 37 43 38 44 41 51 55 57 58 65 66 63 68 69 72 84 82 76 75 34 10 3 12 28 39 43 56 59 65 66 71 69 76 76 87 77 78 79 78 78 79 83 90 90 86 91 93 93 99 
151 144 144 140 125 128 128 127 126 122 117 112 115 117 134 141 136 138 141 143 144 144 144 144 137 97 119 117 111 104 80 36 29 33 35 39 44 48 49 55 59 61 60 60 59 60 79 78 70 70 24 4 3 15 30 39 47 58 57 60 69 67 73 71 73 79 75 76 72 74 77 78 81 86 86 83 89 87 89 90 
153 144 139 140 127 129 128 130 123 124 119 114 116 123 134 144 138 141 144 141 144 140 147 144 130 100 112 117 109 105 83 38 25 28 31 29 39 43 45 46 49 59 52 54 53 61 76 74 69 63 21 0 6 32 42 48 47 59 62 63 68 75 70 69 73 76 70 72 75 76 81 80 82 83 85 82 87 93 86 88 
147 142 143 137 131 124 128 127 125 125 119 116 114 118 136 141 140 141 139 140 147 146 146 146 134 96 99 110 112 101 83 43 23 25 23 25 32 30 34 35 43 46 43 43 48 61 71 65 61 59 19 2 15 41 45 50 53 58 61 66 67 76 70 69 72 74 72 72 72 78 86 83 80 82 81 79 87 86 85 85 
150 145 144 143 124 124 125 126 124 122 122 117 112 116 132 142 139 139 139 138 143 140 145 143 133 91 95 114 111 103 84 46 33 25 30 25 34 31 35 37 41 40 38 40 41 55 64 64 60 49 16 8 18 41 52 56 53 57 54 60 64 65 66 69 66 73 69 69 72 74 79 78 77 81 79 79 79 77 78 86 
147 145 142 136 129 124 127 126 125 126 117 117 108 113 127 139 139 136 138 136 143 139 141 141 131 90 91 115 109 101 83 51 30 27 26 32 37 37 43 42 47 50 49 52 50 48 57 60 52 49 14 8 19 37 48 55 57 60 55 57 58 64 61 63 61 66 63 66 70 71 71 73 71 75 75 74 76 79 78 77 
151 146 140 150 128 128 123 129 126 126 122 116 112 112 127 141 141 142 141 141 142 142 142 142 134 84 85 112 107 106 85 51 28 26 30 26 35 34 37 41 44 49 49 51 52 49 55 51 51 48 14 9 17 37 46 53 66 60 61 58 56 57 51 58 52 61 56 58 66 63 64 65 61 74 77 84 90 93 96 101 
153 145 140 142 131 125 124 128 124 127 124 119 111 112 128 139 139 140 140 143 146 140 142 140 134 88 83 111 108 104 84 54 25 24 23 24 30 29 35 33 38 38 39 46 44 41 46 44 47 53 20 12 18 39 46 51 56 59 71 61 64 63 63 60 57 61 58 55 57 56 60 61 65 92 114 121 123 130 127 132 
152 142 138 143 138 128 123 124 127 127 124 116 114 114 128 142 138 138 138 142 142 140 142 141 136 87 84 106 107 104 85 58 25 17 22 18 28 30 31 33 33 34 34 35 37 33 39 37 36 41 41 30 32 41 44 51 61 65 66 60 66 66 65 66 62 66 64 64 64 65 71 68 81 114 133 134 149 141 144 140 
149 143 140 143 134 129 125 123 129 128 131 122 116 112 124 137 137 134 137 138 142 137 142 141 134 88 81 108 108 101 87 65 24 21 17 16 21 24 28 30 27 27 27 31 29 29 31 33 33 38 39 52 59 53 48 53 60 61 63 63 65 62 64 65 59 71 68 76 74 75 75 84 101 130 142 149 150 148 152 148 
149 142 138 141 130 129 125 127 128 130 128 119 114 113 122 133 133 137 139 139 141 139 142 142 132 90 75 102 104 99 83 64 40 33 32 26 29 31 33 29 31 27 27 27 27 24 24 32 40 58 68 73 78 78 53 53 53 65 62 62 64 66 57 64 59 65 74 75 74 81 90 98 121 138 141 149 151 146 155 155 
145 143 136 143 135 127 124 127 129 125 127 125 118 112 122 134 135 136 136 138 144 140 140 139 133 92 69 97 101 102 85 63 41 37 35 30 35 38 39 39 38 36 35 31 32 28 32 47 66 84 83 87 82 86 65 55 53 59 62 61 57 56 55 57 61 64 69 76 71 84 88 113 130 141 146 153 152 155 153 158 
143 141 141 141 137 128 132 130 127 126 130 122 110 115 119 137 139 140 135 140 143 140 140 141 129 91 69 94 104 99 86 68 50 37 43 36 41 39 47 40 41 41 40 37 39 39 55 70 80 88 95 95 89 90 69 59 55 60 60 62 64 57 55 64 66 71 67 71 77 85 99 127 143 149 149 151 158 158 156 150 
149 142 138 139 138 134 135 131 126 124 130 119 112 113 114 133 134 137 136 135 141 139 141 141 129 93 70 93 103 101 82 68 51 43 41 36 41 43 46 44 47 49 42 45 49 51 59 78 79 83 93 96 90 94 76 69 60 64 60 62 56 61 61 65 65 68 67 71 74 90 118 135 142 151 153 146 152 157 155 155 
146 141 137 141 134 135 128 130 121 126 128 121 113 112 113 135 136 139 136 135 140 140 139 141 133 104 74 93 104 99 88 72 55 49 45 39 46 47 49 46 47 50 44 45 57 68 72 81 79 82 92 96 95 94 79 75 66 67 69 66 62 62 58 66 68 68 67 75 77 100 132 146 147 157 153 149 153 155 155 162 


