P2
80 60
169
153 143 149 148 146 147 144 147 140 136 142 138 123 112 86 78 78 114 152 152 156 157 153 155 160 161 159 161 161 162 164 164 164 163 154 147 146 149 158 155 161 161 164 163 162 159 157 156 150 149 150 148 144 135 107 85 42 24 16 21 38 57 62 78 97 92 98 104 110 117 118 114 116 123 127 121 121 124 123 123 
153 150 150 149 148 150 148 146 139 143 142 135 126 113 84 80 81 114 152 158 152 154 159 157 161 162 160 160 165 165 163 161 161 164 151 149 151 150 155 158 164 164 162 163 162 163 158 158 153 146 152 148 149 135 113 91 38 20 12 12 35 49 55 67 84 87 97 112 109 118 116 116 114 124 121 119 123 123 129 124 
154 147 153 148 146 150 149 145 142 143 139 132 127 114 89 80 74 120 154 156 153 156 157 162 165 165 166 164 164 164 164 164 165 162 160 154 155 149 161 155 167 162 161 159 162 162 160 155 154 148 155 149 140 133 111 87 37 12 12 16 34 47 46 61 79 86 98 101 107 117 121 116 116 123 120 120 120 122 127 126 
152 151 145 150 151 147 146 148 144 143 149 132 123 113 92 82 85 124 157 155 153 156 159 161 161 163 162 163 167 163 161 159 163 162 160 146 145 154 161 160 164 158 163 162 162 162 162 158 159 155 151 153 142 128 105 85 20 18 12 11 37 45 47 55 70 82 98 102 109 116 121 115 116 119 121 121 126 122 127 121 
156 150 150 150 150 148 151 150 146 146 138 136 125 114 90 79 81 128 156 153 154 156 161 161 166 162 162 163 165 161 160 161 160 159 150 146 148 150 165 161 163 159 163 162 162 163 162 162 157 155 155 155 146 128 108 86 23 16 11 17 28 37 44 58 68 81 99 103 109 116 118 114 110 117 116 116 121 116 125 119 
158 154 156 151 154 154 154 156 154 148 143 135 126 114 92 79 80 133 155 157 151 154 159 158 164 163 162 161 158 158 160 159 160 160 152 145 149 150 159 157 159 162 165 163 166 165 165 158 160 156 154 157 143 128 111 86 21 14 12 14 25 33 46 51 66 79 98 98 108 110 113 110 107 114 115 114 117 117 123 117 
158 157 160 156 158 154 154 154 150 148 149 141 128 122 94 70 85 131 156 157 155 155 158 160 163 164 163 163 162 161 162 162 161 158 155 152 152 153 157 152 163 165 164 165 168 169 163 160 161 154 157 158 147 130 112 87 32 19 19 18 19 29 37 49 66 77 94 99 103 103 108 102 107 112 114 113 118 113 121 116 
157 155 160 158 156 160 153 158 154 149 149 142 133 125 101 68 80 141 156 157 154 158 158 161 163 165 162 163 163 162 160 157 161 161 162 158 157 155 154 157 163 165 161 166 164 162 163 158 158 157 158 160 149 130 117 92 26 18 16 15 15 32 45 55 69 81 91 89 99 103 102 104 109 108 111 113 115 116 124 119 
161 161 161 161 159 159 158 160 151 147 147 139 135 124 100 76 84 141 152 154 155 157 158 159 163 163 161 162 161 160 158 157 159 163 163 152 150 147 147 148 161 163 162 162 163 165 164 159 158 158 161 155 146 127 117 86 28 17 17 14 16 36 46 59 70 80 89 85 93 97 102 101 104 111 111 107 113 115 124 123 
168 162 160 165 162 163 161 159 154 148 150 139 135 127 104 75 90 144 154 151 148 155 155 156 159 162 163 160 159 158 158 158 160 158 152 143 145 137 141 142 157 160 162 168 158 164 163 158 158 156 157 153 148 135 119 92 28 18 11 13 21 36 48 64 74 77 86 86 91 93 97 98 101 110 109 109 117 121 128 120 
168 164 164 164 160 159 163 156 150 148 148 138 133 127 111 73 88 142 152 150 152 153 155 154 157 159 157 161 159 157 156 157 157 158 147 136 140 138 143 150 157 162 162 161 161 161 159 159 156 150 158 152 146 128 121 90 25 15 12 13 15 33 38 61 73 73 84 83 87 92 95 92 94 104 108 118 123 126 134 129 
167 164 164 163 160 156 155 153 146 141 144 140 132 120 113 78 88 143 151 153 153 152 156 159 159 157 157 159 159 154 159 156 156 157 154 144 137 138 148 149 161 164 162 162 165 162 161 160 158 150 158 152 145 130 122 94 29 21 16 16 24 35 40 58 69 73 81 80 85 90 96 92 100 105 107 119 134 133 141 132 
169 165 162 166 156 146 150 145 139 140 136 128 129 125 114 78 96 144 154 149 150 150 154 156 159 159 159 156 157 154 158 155 154 154 145 137 133 127 143 144 161 162 163 158 164 162 165 160 158 152 156 153 144 126 120 97 30 20 18 14 25 36 44 49 64 69 80 81 83 86 83 90 94 103 109 115 132 137 139 135 
164 160 164 162 152 151 148 144 140 136 135 126 125 120 114 83 93 146 149 147 150 152 151 156 157 158 157 158 156 156 155 157 155 155 148 128 120 121 132 146 159 161 161 162 159 166 161 162 158 153 156 155 141 129 124 96 29 22 18 18 31 38 38 44 61 69 80 82 80 85 92 85 93 103 98 104 121 123 134 130 
164 163 163 160 150 145 141 144 135 135 131 129 121 118 120 86 100 150 150 149 148 150 152 159 152 155 155 156 158 155 154 152 152 153 146 138 126 124 135 146 155 159 163 162 159 162 160 160 155 152 149 156 135 125 127 97 31 36 20 16 28 33 38 44 64 71 79 87 83 89 92 88 94 100 101 105 119 128 128 123 
164 163 160 163 150 145 144 140 132 130 126 125 120 115 119 92 99 145 148 147 148 148 152 154 154 156 157 156 156 155 150 154 149 149 144 134 126 120 137 144 155 162 157 159 158 161 157 159 158 147 149 153 131 123 121 99 28 25 19 15 21 30 36 41 57 67 77 89 85 86 88 85 91 95 100 101 119 127 134 130 
169 162 162 161 154 144 142 136 130 129 123 125 121 116 115 101 104 145 146 152 149 151 149 152 154 156 157 152 151 154 153 152 146 139 124 121 119 120 134 139 154 160 157 160 159 162 159 161 150 146 153 152 132 126 124 95 29 25 16 16 21 34 34 42 55 71 77 80 85 88 92 88 95 99 102 107 122 130 137 133 
168 163 162 163 154 146 150 147 138 135 132 130 124 120 116 104 102 152 152 152 149 152 152 151 158 159 154 152 151 149 149 149 147 133 118 109 111 115 128 132 157 160 158 162 159 162 157 155 154 154 153 150 134 127 124 91 32 28 14 10 23 28 33 36 52 70 79 80 85 88 87 93 93 98 106 110 124 129 131 131 
169 163 160 161 155 153 151 145 140 138 131 129 118 115 117 113 115 144 151 150 149 154 153 159 157 156 155 154 149 147 147 151 143 132 116 111 112 109 122 134 153 161 158 160 158 158 159 154 151 151 157 148 129 125 124 92 21 23 15 10 14 23 31 44 55 68 75 81 81 87 90 94 107 111 113 113 115 127 128 127 
165 163 159 159 156 156 151 146 135 135 132 124 120 114 119 115 115 147 150 151 146 150 154 154 154 155 156 154 145 151 147 150 143 133 118 112 113 116 125 135 150 155 157 157 158 158 160 157 152 145 153 148 126 120 121 88 24 20 15 8 14 23 32 40 56 66 79 75 82 86 94 103 106 113 111 111 111 116 125 124 
163 156 161 161 156 153 148 147 135 135 134 124 121 115 118 113 123 144 151 149 145 147 149 156 155 153 153 152 148 152 156 150 142 129 122 120 122 125 122 138 148 157 155 155 159 156 158 154 150 151 153 148 123 116 120 85 21 19 9 0 10 27 32 43 57 71 77 81 80 91 106 106 106 109 113 110 111 112 120 123 
163 158 156 161 156 151 151 147 142 137 138 129 127 119 119 118 127 148 149 147 148 145 152 155 155 155 156 154 146 145 151 147 140 142 132 130 128 128 125 141 147 154 155 155 156 158 155 155 155 151 156 145 120 124 117 84 25 21 11 7 9 22 29 47 59 68 79 81 83 100 104 102 103 105 110 108 110 111 118 121 
167 157 156 162 154 150 154 147 141 137 134 130 123 116 120 119 126 141 149 147 146 149 148 153 152 158 155 155 142 142 149 149 145 140 130 120 117 125 131 138 149 155 155 153 149 157 157 154 151 152 154 144 120 115 115 81 21 21 14 9 10 23 29 43 60 75 77 85 83 99 105 102 104 108 109 108 111 112 120 123 
164 154 157 159 152 150 147 150 142 134 133 126 119 114 116 119 127 146 147 147 143 148 152 149 155 154 152 150 141 141 145 144 135 132 124 117 113 121 127 131 145 156 155 153 156 158 157 154 151 151 150 135 118 115 114 80 20 20 7 10 10 21 29 45 63 72 81 85 83 97 102 102 102 105 104 108 109 115 123 120 
160 155 153 158 155 143 145 143 136 133 137 131 120 114 120 117 130 145 149 147 146 148 148 153 153 154 153 152 142 139 145 145 137 128 131 120 121 121 128 136 146 155 154 155 157 155 157 152 150 153 151 133 115 113 112 76 24 22 13 12 17 22 34 43 61 72 84 86 87 99 105 102 104 108 105 106 110 118 121 124 
161 153 155 156 150 141 142 140 135 131 136 129 121 117 123 120 129 148 150 146 146 149 151 152 157 156 153 148 138 136 142 139 134 127 130 127 127 121 133 133 143 153 155 153 156 158 157 155 148 153 150 131 111 116 115 72 22 23 15 9 15 28 30 48 68 72 85 85 87 102 108 102 101 104 105 107 111 110 118 118 
164 156 151 154 155 144 142 141 133 132 133 133 115 116 119 115 134 146 151 148 146 150 154 154 152 157 153 150 140 136 141 136 139 129 126 123 124 124 127 131 142 148 154 154 156 152 157 155 149 151 150 127 114 110 111 71 24 21 19 9 15 23 35 50 64 76 82 89 93 106 109 102 98 101 103 105 106 110 116 117 
161 156 160 156 153 143 145 139 132 133 133 137 122 118 120 118 136 147 152 147 143 147 152 153 154 155 156 153 143 134 147 137 140 133 132 121 118 117 128 130 145 150 153 156 154 153 157 150 154 153 146 124 113 109 108 71 17 25 17 22 21 32 37 52 67 75 88 95 100 113 107 104 100 111 106 104 108 111 118 117 
161 160 157 156 153 145 141 138 126 131 129 134 120 115 120 116 137 146 150 147 142 146 147 153 154 155 154 152 142 130 140 136 139 136 131 122 127 123 128 130 138 151 151 151 153 153 156 151 149 150 147 117 105 107 106 64 21 26 22 22 22 32 37 53 69 75 88 91 101 104 110 97 102 111 108 102 109 110 120 112 
164 160 158 155 158 144 144 139 133 132 133 136 121 115 115 118 133 148 145 145 145 145 149 152 154 153 152 147 137 134 137 136 132 118 113 109 122 122 125 118 140 149 149 154 153 152 155 153 149 152 149 115 103 106 102 62 26 29 27 27 26 33 41 53 60 77 85 92 101 104 111 99 106 113 110 109 105 109 119 116 
163 157 158 154 155 147 141 140 129 129 129 135 123 116 121 115 138 148 150 145 144 147 148 153 156 155 153 148 135 137 139 137 129 114 107 102 105 113 120 125 144 148 155 148 151 153 152 153 152 153 143 116 106 104 102 58 23 33 28 27 30 39 44 57 70 77 90 91 92 105 111 104 103 112 110 104 106 110 114 115 
158 158 158 151 153 147 142 136 128 128 131 135 120 114 117 119 138 143 150 145 144 147 149 156 154 157 156 152 132 133 135 141 132 113 108 102 104 108 120 128 143 147 149 149 152 150 156 151 150 152 138 111 101 105 96 58 29 34 30 33 33 42 45 56 70 77 84 87 87 94 106 104 104 110 109 107 107 106 116 119 
162 159 156 157 153 145 146 141 123 127 129 133 121 115 118 118 131 148 149 146 144 148 148 154 155 155 153 151 129 135 137 133 129 109 100 97 103 108 120 130 141 148 148 150 153 149 152 151 150 149 134 109 100 105 96 54 25 29 33 36 37 43 46 61 66 77 84 85 89 86 100 98 102 106 110 106 108 112 113 112 
160 153 156 159 155 144 143 136 127 125 125 132 122 113 119 117 132 148 147 144 142 146 148 152 154 155 154 153 126 132 132 134 126 112 101 100 105 113 117 119 135 147 148 150 149 150 150 146 144 144 129 108 104 98 95 49 25 32 35 40 39 45 50 59 70 75 83 87 85 86 99 101 103 105 104 105 107 116 116 113 
159 157 158 154 152 142 144 138 134 128 130 133 120 111 115 113 131 147 147 147 143 148 149 151 153 152 149 146 126 127 133 133 125 106 93 93 114 114 127 129 139 149 149 150 149 150 151 146 144 149 125 107 101 99 98 52 26 37 34 41 39 47 47 61 71 78 83 81 84 85 102 98 100 106 105 102 105 113 116 114 
158 157 156 152 152 144 142 140 129 130 133 131 122 113 116 112 134 147 153 145 144 146 148 151 152 154 149 149 128 125 137 135 127 106 96 98 113 117 130 136 139 142 147 148 150 148 155 150 145 144 121 110 102 97 98 55 29 35 40 45 44 46 43 62 71 74 81 80 82 91 99 95 96 99 102 106 102 109 114 116 
161 158 156 154 153 145 142 135 134 131 134 135 124 112 116 114 133 150 149 144 141 147 149 150 154 153 153 149 127 121 137 138 121 115 111 105 107 119 131 137 143 146 145 146 148 147 150 147 142 145 120 106 96 104 100 49 28 34 41 47 50 46 49 62 69 76 82 81 82 90 100 97 100 106 100 100 100 106 111 115 
160 158 156 158 155 146 140 138 133 132 137 136 127 114 118 113 133 149 150 146 142 149 150 151 152 153 148 149 126 119 135 135 129 112 109 104 121 125 129 134 146 150 144 148 147 151 149 145 149 144 118 101 100 105 96 51 29 35 45 49 49 48 51 63 70 80 81 82 81 93 99 95 99 102 102 98 101 105 109 109 
158 157 160 157 154 148 140 135 132 133 136 134 121 117 114 114 137 151 145 145 142 147 149 151 156 154 150 147 119 122 133 130 128 122 119 110 126 129 126 114 147 148 148 150 146 147 152 147 147 139 110 103 101 104 97 49 32 38 44 48 49 49 52 58 70 74 80 79 82 91 101 93 96 103 101 103 97 103 109 108 
160 156 156 154 154 151 142 137 132 131 132 137 125 118 118 118 130 150 148 145 146 147 149 153 155 155 152 154 124 124 138 132 125 124 118 114 121 116 98 101 142 149 144 147 147 146 152 142 149 139 112 109 99 104 97 44 29 38 44 48 52 51 54 61 72 74 78 77 83 92 100 98 96 101 105 100 96 102 106 109 
159 156 157 153 153 149 141 139 132 131 135 131 122 122 117 116 127 143 149 145 141 150 146 151 153 157 152 147 120 120 133 131 123 116 106 110 110 86 84 97 136 137 141 147 146 149 150 145 144 135 111 107 98 104 93 44 32 35 49 47 49 50 50 57 64 72 75 75 85 95 96 95 89 103 99 98 98 101 106 100 
157 159 156 155 152 148 141 141 134 133 133 126 121 121 116 119 130 146 146 145 143 147 146 153 154 156 151 149 121 115 131 135 121 107 67 60 73 63 68 81 107 110 127 136 140 144 146 137 141 131 105 104 98 101 90 38 34 37 45 47 50 53 55 64 67 69 73 76 77 87 93 90 93 96 97 97 97 98 99 97 
158 157 159 151 150 153 147 141 133 132 131 133 124 115 119 119 123 142 148 144 144 148 146 150 151 151 150 146 120 118 126 133 120 100 58 54 61 60 65 63 74 83 85 96 127 140 135 108 116 112 102 100 97 101 81 38 35 34 46 50 55 55 60 63 72 71 74 73 77 92 91 90 91 96 98 95 90 96 99 97 
156 153 151 151 149 149 136 135 127 126 130 135 127 115 118 117 119 142 145 148 145 145 147 149 153 155 150 153 122 116 128 130 120 100 52 48 54 54 59 58 68 73 76 86 92 112 108 92 78 93 96 95 89 95 83 30 29 34 46 52 49 56 57 66 72 70 72 73 80 93 97 92 92 92 94 92 86 90 95 94 
156 152 152 148 149 145 138 130 131 131 130 134 126 117 120 117 116 146 147 146 148 146 148 151 153 151 149 147 119 110 129 129 117 103 54 44 47 50 56 53 61 64 74 80 83 81 87 84 76 72 88 95 88 93 72 28 22 28 45 45 50 54 58 63 70 73 75 77 84 93 96 90 89 91 92 81 82 88 95 94 
154 152 149 151 148 146 140 136 129 126 128 131 129 118 121 117 122 146 146 145 143 146 149 149 149 152 148 142 116 110 127 128 119 107 61 43 47 46 52 52 56 62 65 75 79 81 79 80 72 75 89 91 87 83 72 24 14 20 30 39 47 55 55 66 70 72 73 74 82 94 95 87 86 89 90 82 81 85 95 92 
154 146 152 149 145 147 138 131 129 127 132 132 128 117 117 114 116 140 145 143 145 148 146 150 151 151 152 142 112 104 123 121 113 105 57 39 39 46 47 48 53 58 61 64 73 71 75 73 67 76 84 84 85 85 65 19 10 18 25 33 44 52 56 61 67 74 74 70 74 83 84 85 82 85 85 80 81 82 88 87 
149 150 147 149 148 148 140 135 123 129 127 133 127 120 117 121 119 147 144 142 144 144 147 149 151 151 149 142 118 104 126 122 114 105 62 32 39 42 46 43 45 57 56 62 63 72 72 72 68 70 76 76 84 79 55 19 11 15 27 37 47 55 58 62 68 69 74 71 74 78 86 79 77 81 82 80 79 81 92 85 
149 147 148 148 149 144 138 135 126 129 128 129 127 122 119 123 126 145 144 142 141 148 148 151 149 151 145 141 115 98 123 120 115 104 61 30 34 36 38 39 43 50 50 50 60 66 64 61 65 65 80 75 78 78 44 12 13 24 32 38 47 60 59 63 71 72 77 76 75 73 82 77 78 78 79 82 81 82 91 83 
154 151 150 151 147 147 139 128 128 122 127 132 130 120 120 121 122 144 144 143 141 145 150 150 152 152 145 142 110 99 120 118 113 104 63 26 28 26 29 30 37 40 40 48 56 57 55 56 58 64 78 75 72 73 44 5 6 35 43 50 56 62 59 64 72 75 79 72 76 77 80 74 74 81 77 78 77 77 86 82 
150 151 150 151 148 146 140 130 128 127 128 130 129 120 116 121 116 137 144 139 141 146 145 148 152 154 147 145 107 90 120 115 112 101 70 30 27 26 31 28 33 33 35 40 47 48 48 48 53 60 68 71 69 67 38 12 10 40 46 52 60 66 60 64 69 72 77 73 79 78 79 72 76 90 84 79 75 80 84 84 
153 151 150 149 150 148 139 128 127 127 128 135 129 119 123 118 118 144 144 143 141 144 147 148 152 152 148 143 108 89 117 118 112 100 78 35 35 29 32 33 36 38 39 40 47 42 46 42 46 60 67 71 63 63 31 14 12 41 55 54 59 63 58 63 65 73 77 73 79 79 77 71 69 80 83 86 77 76 77 78 
156 147 148 145 153 147 139 129 124 126 130 131 128 116 117 119 117 141 145 143 146 146 146 148 151 146 146 139 102 81 119 115 113 96 73 39 32 27 35 35 38 41 42 46 49 48 53 47 49 54 60 63 55 52 28 13 11 35 55 51 56 60 61 62 60 68 70 65 66 72 72 70 72 75 76 74 70 76 74 76 
151 148 148 148 154 148 138 118 124 125 129 129 126 120 119 119 116 135 142 140 140 143 145 147 151 149 143 142 101 80 115 113 110 96 76 34 28 23 29 29 33 36 39 40 48 47 53 55 61 61 56 54 54 53 27 20 16 37 47 49 57 64 56 60 57 62 60 60 64 66 69 62 62 67 63 61 69 65 66 71 
149 146 145 148 146 144 142 126 123 127 136 131 132 121 121 118 114 145 143 143 140 143 145 148 149 149 152 142 102 71 110 116 108 100 74 35 23 21 26 28 29 36 33 40 41 42 42 42 48 50 50 50 55 64 31 15 17 37 48 51 57 63 64 63 60 63 59 58 60 64 69 58 61 67 64 63 58 61 69 71 
150 144 143 146 144 143 142 129 129 126 133 132 135 120 120 117 112 137 144 140 140 141 145 148 147 149 146 141 101 74 107 115 109 101 72 36 18 19 23 23 27 27 33 32 37 37 38 38 42 43 44 43 42 48 43 32 27 40 46 48 53 64 63 66 63 69 69 65 63 62 71 60 65 66 56 53 52 53 69 91 
151 146 148 146 144 143 142 133 125 126 127 130 137 121 120 117 114 134 141 138 142 144 144 146 146 146 143 141 101 72 106 110 106 99 76 42 25 21 21 21 24 28 30 28 33 34 37 37 35 37 37 40 36 43 47 49 53 48 42 51 53 58 59 65 68 72 67 66 66 71 73 69 70 72 72 65 64 72 93 121 
148 145 146 142 145 143 142 135 128 128 138 135 129 123 121 120 112 130 140 139 139 142 145 145 141 148 143 138 103 68 103 109 104 94 73 46 38 32 32 29 31 34 34 35 36 32 34 37 32 32 36 37 38 56 63 73 78 79 56 49 60 63 61 66 64 70 68 63 69 70 70 69 71 75 76 74 79 85 113 130 
150 145 145 144 144 145 145 140 136 134 137 132 129 123 124 120 115 127 140 138 137 142 142 146 145 147 142 136 106 67 95 108 107 95 79 52 43 37 39 39 45 46 46 42 44 40 41 39 35 34 43 48 64 84 90 87 88 86 68 57 56 59 64 67 66 64 64 62 61 72 72 69 75 77 82 79 86 105 129 134 
148 145 143 145 139 143 141 140 134 136 136 133 131 121 120 118 118 126 142 139 138 143 140 147 142 142 146 133 103 67 94 109 102 99 80 57 48 39 46 46 47 48 47 46 48 47 45 42 41 39 53 70 80 94 101 96 93 87 77 55 56 58 60 60 65 61 57 61 61 72 75 71 78 76 81 78 96 118 140 139 


