P2
80 60
201
30 30 27 30 23 28 24 30 30 35 31 31 31 29 27 27 28 33 25 26 29 28 27 24 27 23 26 26 25 24 28 25 23 21 18 17 20 21 13 20 20 26 28 27 26 25 27 30 31 31 32 32 36 33 37 35 35 35 36 30 31 35 35 35 33 28 29 26 27 27 27 30 26 28 37 32 34 27 24 25 
25 33 31 30 31 34 25 28 28 31 34 29 30 27 29 29 29 31 26 26 30 28 27 25 26 24 25 24 23 27 26 23 20 22 19 16 20 18 17 23 25 27 26 29 28 30 31 33 30 31 35 34 32 33 40 35 39 35 34 34 29 33 34 34 33 31 28 30 29 26 28 33 30 31 37 32 32 29 26 29 
30 37 29 32 32 30 34 34 31 33 35 32 29 31 34 30 31 29 28 29 28 27 28 26 27 25 26 28 27 26 26 25 23 21 24 20 22 24 22 24 23 25 23 26 27 32 31 31 34 34 37 31 36 33 35 34 35 38 36 36 32 34 33 37 32 29 30 30 27 29 33 34 33 37 34 33 30 31 27 28 
33 36 28 30 30 33 33 29 32 32 34 31 28 29 31 28 33 31 30 31 30 29 27 24 25 26 26 30 25 27 25 20 21 22 21 18 20 23 20 27 26 24 22 27 28 29 31 33 34 32 33 31 34 34 36 32 35 32 38 36 37 35 32 36 34 30 32 31 31 30 31 35 33 33 32 33 31 32 26 30 
30 36 26 30 31 32 25 33 29 35 31 31 30 29 29 33 32 29 28 31 27 28 28 29 26 25 29 29 23 21 26 20 21 19 17 20 21 22 20 24 24 25 27 28 27 33 35 33 31 32 31 29 31 33 35 33 33 37 34 33 32 32 32 38 33 29 31 33 33 32 30 35 31 34 36 32 32 30 20 25 
29 36 29 35 30 31 27 27 35 31 32 31 31 30 29 28 30 29 30 32 30 33 28 26 29 27 27 26 26 22 27 19 21 17 20 19 20 18 23 25 21 29 31 23 28 32 36 34 34 34 31 32 36 31 37 33 32 37 34 36 33 30 32 36 34 27 30 28 36 33 32 32 26 30 31 33 30 27 21 21 
32 32 30 30 30 32 23 33 31 30 30 29 29 29 29 28 33 30 27 31 31 29 28 24 29 26 28 26 23 24 22 19 20 20 17 19 23 22 15 22 26 29 28 26 26 29 30 32 32 31 34 34 32 32 35 34 33 40 40 35 30 32 32 33 35 31 27 30 32 31 29 27 23 30 34 33 30 28 23 21 
30 35 28 32 32 34 28 34 32 30 30 31 31 32 24 30 32 32 28 30 33 29 28 28 26 25 30 28 28 26 25 17 19 20 19 23 24 21 19 22 26 28 22 29 25 30 32 31 30 31 31 29 36 34 36 36 36 37 36 35 32 31 37 35 34 32 30 32 30 21 30 29 30 28 32 30 30 28 24 29 
38 37 33 33 35 32 27 31 32 33 31 32 30 31 27 28 30 29 29 30 31 29 30 28 29 25 29 28 28 25 25 16 21 21 18 20 22 22 19 24 23 26 22 26 25 29 32 35 32 34 29 32 32 35 35 32 35 35 36 35 32 32 33 32 33 30 28 27 28 27 26 33 29 32 32 32 29 29 23 22 
34 37 29 37 34 34 30 36 30 31 31 30 33 28 25 32 34 29 27 28 27 30 27 27 29 29 30 27 25 26 23 19 20 21 20 16 15 15 18 19 17 28 22 25 29 31 30 28 33 30 33 31 34 32 35 31 34 33 35 35 34 32 30 35 31 28 29 22 30 29 29 28 27 33 33 28 26 25 23 21 
36 39 35 38 33 33 36 32 30 31 32 33 30 30 30 28 31 32 28 27 27 26 31 26 25 27 26 27 26 25 24 19 22 21 21 14 18 16 19 24 19 21 24 23 23 30 29 31 29 31 35 33 35 34 34 33 35 33 34 31 32 33 32 34 33 32 28 29 30 30 29 28 26 31 33 30 26 29 23 26 
40 41 37 35 32 36 31 34 31 30 31 34 33 30 29 26 24 26 27 28 28 28 29 27 27 26 26 24 26 24 22 20 22 22 18 14 18 22 19 24 29 27 27 24 27 27 33 32 32 33 33 32 33 33 34 33 35 34 36 33 34 33 32 34 31 29 32 27 32 29 29 30 32 34 29 33 30 28 23 28 
37 40 38 42 36 35 32 33 33 34 30 33 28 30 27 28 27 23 27 25 25 28 26 24 25 25 24 28 26 22 23 15 24 21 22 16 20 19 18 25 23 24 27 24 29 32 34 31 30 33 32 32 31 31 34 30 34 35 34 35 32 28 36 34 32 33 29 27 26 29 21 32 25 30 32 35 32 30 30 27 
35 42 36 39 34 34 27 30 32 31 28 30 29 28 28 28 27 23 24 26 27 27 28 27 25 23 25 24 23 21 24 22 19 24 21 20 17 21 18 25 22 26 25 26 25 38 30 33 31 34 35 35 31 36 35 32 36 39 38 34 34 32 34 34 34 30 32 33 28 26 30 30 32 31 29 33 34 28 24 27 
39 44 36 39 34 35 34 33 30 30 30 31 27 28 29 25 26 26 26 28 27 28 25 25 24 24 23 26 23 22 22 18 20 21 19 18 17 24 17 21 21 22 24 23 29 28 31 32 32 36 34 36 33 33 37 34 37 44 39 37 33 32 33 32 31 32 32 30 31 30 29 31 30 29 32 31 31 28 25 29 
38 38 35 34 31 33 32 34 34 29 26 28 29 27 30 31 26 24 25 26 26 28 25 25 23 25 24 24 22 23 25 17 19 19 17 16 15 19 11 22 20 27 27 24 27 33 34 32 30 33 31 30 33 35 36 32 36 40 37 36 32 31 34 34 32 32 34 31 32 32 30 34 31 30 32 28 31 30 26 27 
39 46 37 35 35 37 29 33 31 29 29 30 28 27 27 28 32 24 26 25 27 26 24 26 25 27 26 25 20 25 20 20 20 20 20 18 20 19 17 24 22 26 27 24 27 31 32 32 29 32 33 32 34 36 38 33 36 39 37 37 33 32 34 33 34 30 31 33 33 31 32 29 37 32 35 30 35 31 28 23 
34 38 36 35 36 36 29 35 30 29 28 31 28 29 28 27 28 28 26 26 24 28 25 26 25 22 25 26 22 19 22 21 21 17 20 16 18 22 21 24 21 25 25 25 30 33 29 32 29 29 29 31 34 35 40 33 37 44 37 34 33 36 30 34 36 31 29 33 32 30 29 31 32 34 33 30 31 30 27 29 
31 39 37 36 36 33 32 33 30 31 28 30 27 28 26 25 27 30 29 26 26 28 28 28 26 24 26 26 25 18 23 21 24 21 20 16 17 16 16 25 26 28 28 29 29 30 31 30 30 28 34 29 38 35 37 34 35 40 38 35 33 34 31 33 33 33 33 32 33 29 33 31 31 32 33 29 31 31 28 29 
34 37 35 35 35 36 32 33 27 26 26 30 27 24 26 28 29 28 26 28 28 30 30 27 25 26 24 25 21 22 26 24 22 20 20 17 16 19 17 23 23 24 25 27 29 33 29 29 31 27 28 27 33 35 36 32 34 36 33 34 34 32 32 37 31 32 31 30 29 31 30 31 31 34 32 28 29 27 24 32 
35 34 34 34 33 34 29 26 31 26 28 30 28 28 24 25 26 25 26 27 28 28 30 26 29 26 23 25 24 25 34 22 20 17 18 17 17 15 19 23 24 27 22 23 24 26 27 27 31 30 29 27 34 32 36 33 36 36 36 36 27 34 33 34 33 28 31 30 32 31 25 33 29 31 32 29 31 30 27 29 
33 38 33 36 37 36 32 33 32 28 30 30 35 29 27 29 26 25 26 28 28 28 27 28 28 24 27 26 26 24 25 21 17 19 18 17 23 23 19 22 19 27 23 23 23 24 29 30 28 31 33 31 35 34 34 32 34 35 37 33 32 34 33 36 34 33 36 34 31 32 31 30 29 32 31 26 31 31 28 26 
34 37 33 36 35 34 30 37 32 31 32 31 30 28 28 27 30 27 26 30 26 27 26 25 28 23 24 25 22 22 22 21 17 20 20 15 18 17 19 24 23 22 20 21 20 26 27 32 29 33 32 33 35 36 35 33 35 35 34 32 32 30 31 31 33 35 34 36 33 31 29 30 35 33 34 31 29 28 27 26 
35 37 31 37 36 34 34 39 31 32 32 31 31 28 27 31 31 29 27 28 27 28 26 27 24 24 25 26 20 22 22 17 18 19 18 16 14 15 21 23 20 22 27 23 30 29 32 32 33 34 30 32 34 33 33 31 36 35 36 33 29 33 31 36 34 33 36 32 34 36 33 35 32 34 34 31 32 30 27 30 
33 35 28 32 36 34 33 33 34 30 31 29 28 28 29 27 28 30 27 28 25 31 26 25 25 22 21 21 21 20 20 18 15 14 17 16 18 13 19 24 18 24 25 27 31 33 30 29 28 30 34 29 32 35 33 32 34 36 34 33 33 31 31 32 36 32 37 28 31 29 28 33 34 33 34 34 29 30 25 29 
30 35 36 35 34 32 31 34 31 32 28 31 30 29 31 31 30 32 29 28 28 27 30 25 24 24 24 26 23 20 21 18 17 18 14 15 17 17 19 25 20 23 24 23 25 31 30 33 30 29 31 32 34 34 35 34 32 36 39 34 32 33 34 37 36 34 34 30 30 29 31 27 33 32 35 34 24 30 30 29 
29 36 35 35 35 34 31 36 30 30 31 32 29 29 29 27 31 30 27 29 25 30 32 28 27 22 26 25 22 22 18 17 19 16 18 16 17 14 18 20 22 28 22 26 26 32 31 33 31 29 28 31 34 32 35 32 36 34 34 35 33 37 36 32 35 34 33 31 32 29 31 29 34 33 35 28 30 31 26 30 
32 38 34 38 35 35 31 33 32 31 32 31 29 30 28 27 28 31 27 27 28 28 26 25 28 25 27 26 22 25 20 19 17 17 15 17 21 13 16 23 21 24 26 26 26 28 32 32 33 32 34 30 32 32 34 31 33 36 33 34 36 32 35 34 36 35 34 32 30 34 30 31 33 33 32 29 31 31 30 26 
35 39 36 37 35 34 34 33 32 31 30 30 31 32 30 26 30 25 26 29 25 25 28 29 26 29 25 24 24 21 24 15 16 15 16 16 19 14 18 24 23 24 29 26 27 29 34 32 33 34 34 30 33 33 36 35 35 37 36 34 36 33 31 40 35 34 34 33 33 31 33 32 31 32 36 29 29 32 26 29 
34 38 37 35 32 34 33 34 36 32 28 31 31 31 28 31 33 32 25 29 26 31 27 26 28 23 25 24 23 23 23 20 15 17 16 12 13 18 21 28 27 29 23 28 26 29 29 32 32 31 35 33 34 33 38 35 34 38 35 34 36 32 36 39 37 36 41 34 33 32 31 31 30 32 35 34 34 32 29 29 
32 34 32 33 32 37 32 34 34 32 30 30 30 31 30 28 32 27 25 27 25 27 26 28 26 27 24 27 21 23 21 18 13 13 16 14 21 19 19 23 21 24 30 28 29 32 29 34 35 35 30 32 31 34 36 35 36 35 37 33 33 33 34 37 35 31 33 33 33 33 35 34 34 32 32 30 30 31 28 29 
31 39 31 35 33 30 32 36 34 33 30 32 29 29 30 30 34 28 27 26 30 27 28 30 27 24 28 24 26 24 23 18 16 17 18 18 26 24 25 26 28 24 29 30 32 33 27 36 35 38 37 28 33 37 36 35 38 37 36 34 32 37 35 37 38 32 36 36 35 33 36 31 32 33 35 31 34 31 25 30 
35 36 31 33 32 33 34 34 33 33 30 33 31 31 28 28 32 26 27 26 33 28 27 28 26 25 25 24 22 23 25 21 20 26 23 28 28 27 26 31 27 27 27 29 33 34 30 33 36 37 38 29 38 38 37 36 36 36 36 36 34 37 38 40 37 35 35 40 38 33 32 33 36 38 37 34 33 33 28 28 
33 34 32 31 36 33 32 35 35 32 31 32 28 30 26 28 33 32 29 28 27 24 28 28 27 26 29 21 25 26 29 24 29 27 24 19 24 27 24 28 27 29 32 29 30 32 31 35 33 36 34 37 35 39 37 38 36 39 36 34 38 39 37 40 41 36 39 38 35 36 34 35 36 35 39 34 32 34 29 30 
33 35 31 30 35 34 34 34 31 32 29 37 30 31 29 29 32 30 27 30 30 25 28 30 31 26 30 29 31 29 31 28 27 31 34 35 30 29 31 31 29 32 36 32 30 37 39 38 38 37 37 41 41 40 39 39 39 42 40 35 38 39 38 41 38 38 36 35 34 34 36 36 36 36 36 33 33 35 31 29 
31 37 32 34 36 38 33 36 31 32 32 33 33 32 31 32 33 29 31 30 31 27 29 30 32 31 28 32 34 31 25 27 31 34 54 68 63 57 41 41 33 33 36 37 33 37 37 44 41 37 41 39 40 45 44 44 38 41 41 41 41 42 39 43 42 39 40 38 33 35 33 37 39 36 38 38 39 40 31 30 
34 36 31 35 34 37 35 38 33 35 33 32 32 35 32 31 30 33 28 29 28 31 35 31 32 30 31 34 28 29 27 20 28 33 61 75 79 76 72 71 67 58 46 39 41 39 41 38 39 41 44 40 40 45 44 40 43 45 42 38 40 41 39 41 38 39 39 38 38 35 36 38 38 39 38 37 40 34 31 33 
29 37 29 35 33 35 35 43 36 33 36 41 37 36 33 33 32 32 32 31 31 32 31 32 33 29 29 30 26 30 27 19 23 30 63 77 80 78 78 82 85 84 81 76 68 57 52 43 45 47 46 41 44 47 43 45 42 45 43 40 43 43 41 40 42 42 40 37 35 37 34 38 38 37 35 37 35 35 31 31 
34 36 39 37 37 39 31 40 38 41 45 46 48 42 33 33 35 35 31 33 35 38 39 35 31 30 37 30 25 26 27 22 24 31 64 80 87 84 80 87 84 89 92 92 90 95 91 83 69 62 53 46 49 47 49 46 48 52 44 46 40 42 41 45 41 42 42 39 36 36 39 37 38 39 40 34 40 39 33 34 
30 36 33 35 34 40 35 44 46 70 91 101 78 52 36 34 38 35 34 35 38 40 33 34 37 37 30 27 24 25 25 24 25 35 65 83 87 84 85 92 90 92 92 98 98 103 105 95 96 96 88 81 72 62 57 49 51 49 49 41 43 41 42 45 44 41 39 38 41 39 41 39 39 41 38 37 37 40 36 38 
32 33 31 38 34 40 38 41 60 107 122 130 113 78 44 36 46 40 36 37 36 35 42 37 31 30 33 26 24 25 24 20 22 36 70 87 87 87 88 94 95 96 99 99 104 108 107 102 104 102 105 104 102 103 92 73 67 51 50 47 42 45 42 46 44 42 42 37 39 38 39 38 38 42 40 37 39 44 43 39 
31 36 33 38 34 38 33 42 56 107 124 132 131 79 42 48 55 44 37 38 35 36 31 28 28 28 31 30 25 23 22 19 21 37 74 87 96 89 88 93 95 101 101 101 104 107 109 108 103 104 105 102 106 108 101 92 105 85 74 67 53 49 49 49 45 43 42 40 39 39 39 40 41 40 41 38 41 40 40 40 
28 37 31 36 31 37 34 43 53 112 152 166 155 92 45 53 57 44 37 39 35 32 31 28 27 26 29 29 23 22 22 21 23 33 78 94 89 90 88 94 96 99 100 102 104 111 110 112 109 107 110 102 109 107 103 101 102 94 96 88 79 75 68 58 52 46 46 40 41 36 39 39 41 40 43 38 41 42 40 35 
30 32 29 33 31 37 35 44 49 98 156 178 152 109 54 42 44 35 33 35 27 30 25 29 27 25 25 26 25 24 26 23 27 36 81 88 91 88 89 98 98 101 105 105 107 113 111 121 113 112 108 111 105 107 102 104 101 101 99 97 89 85 80 79 70 58 51 43 46 41 41 44 42 40 42 40 42 43 34 40 
24 31 25 25 30 35 32 37 41 77 113 127 117 101 59 43 36 33 30 32 31 30 28 26 29 27 26 25 24 23 25 20 24 38 81 93 91 89 94 97 100 102 102 104 109 113 112 110 111 111 113 111 110 105 105 101 101 106 104 102 98 89 81 82 84 80 73 64 53 41 47 42 44 41 45 38 43 41 34 36 
19 26 24 30 30 28 31 34 43 60 92 111 104 102 87 72 49 28 31 28 32 29 29 25 27 29 28 27 25 24 25 24 20 40 88 95 92 86 86 98 101 102 99 107 109 117 110 110 117 114 116 109 114 110 111 104 104 107 104 105 106 94 86 85 84 85 86 83 81 73 62 54 41 47 47 40 39 39 36 36 
24 29 27 26 27 33 31 33 45 67 82 98 95 93 88 84 73 42 32 31 30 28 29 26 27 30 39 32 30 29 32 25 30 47 96 97 95 93 97 96 100 104 106 105 114 119 116 118 115 122 121 117 115 113 112 108 108 108 104 107 106 96 89 84 88 85 87 88 89 83 81 79 72 67 59 42 42 45 35 46 
17 25 24 26 27 30 28 39 55 69 73 84 85 83 81 80 81 56 39 33 27 31 26 31 30 33 38 37 36 36 32 32 33 53 96 95 95 92 94 103 105 109 104 109 108 116 118 118 123 121 124 119 118 117 117 106 110 113 107 106 108 100 88 88 87 87 87 86 85 86 84 89 90 92 82 74 61 48 38 43 
19 24 23 27 23 27 34 47 60 66 66 72 73 78 76 76 80 72 45 36 30 27 32 29 30 33 36 38 35 38 41 39 39 60 103 99 98 100 98 104 107 110 111 110 113 114 120 119 124 123 124 125 121 120 121 115 114 113 110 110 107 97 89 90 88 88 88 85 88 86 90 89 94 92 99 95 86 80 66 66 
17 27 20 28 26 31 30 43 56 56 66 72 76 74 72 76 79 67 56 32 29 32 31 24 27 34 36 38 35 36 39 41 41 61 111 103 102 102 101 107 108 110 108 109 112 117 116 121 121 124 127 125 121 123 126 114 115 111 111 114 111 101 91 91 91 90 89 87 88 87 92 91 90 93 103 94 94 94 87 85 
17 22 22 23 28 29 30 45 46 52 58 68 68 68 65 66 69 49 38 35 28 28 27 25 29 31 34 37 37 35 39 40 43 65 115 106 108 106 104 108 109 112 114 111 115 116 117 121 124 124 127 127 123 123 121 118 114 112 117 114 115 98 88 93 94 89 86 88 91 86 92 88 94 92 95 95 97 95 90 96 
12 21 18 25 29 28 29 42 44 46 50 61 66 64 55 53 45 33 35 29 32 28 27 19 26 33 30 33 35 32 38 37 44 72 130 122 119 109 107 111 112 115 111 110 114 119 119 124 127 128 127 125 127 125 125 117 116 116 116 118 114 104 95 92 91 82 91 89 94 86 89 91 92 98 97 95 95 94 93 97 
13 18 23 23 29 32 32 38 40 42 43 52 44 46 36 36 38 31 34 31 32 30 30 27 32 31 30 32 32 35 36 40 39 68 123 140 135 128 118 118 118 119 115 113 116 118 121 125 132 128 132 129 129 127 127 124 122 116 124 121 112 102 96 94 88 92 89 94 94 95 94 91 93 101 97 93 99 101 98 97 
13 19 25 25 34 35 31 33 34 38 37 42 42 37 31 31 31 30 29 31 30 30 33 30 28 28 32 30 33 30 36 34 35 47 79 114 143 144 135 131 123 125 120 116 116 118 123 125 128 132 135 132 131 133 131 119 124 126 121 125 115 100 94 97 94 92 93 98 94 91 96 96 97 98 99 98 99 100 94 98 
4 18 22 28 29 32 31 33 33 35 36 35 36 34 29 33 27 30 32 31 32 30 35 26 28 25 30 30 29 25 31 30 35 43 47 60 99 127 140 154 141 135 130 117 122 124 122 125 133 136 143 136 137 139 131 132 131 125 132 129 123 102 95 96 95 97 97 89 97 95 98 100 100 99 106 97 102 102 100 100 
7 16 22 26 25 28 28 29 31 30 34 38 36 32 28 31 33 32 33 35 34 35 36 32 29 27 26 26 25 24 26 33 38 45 49 53 56 69 98 133 161 164 152 137 126 132 129 131 140 138 141 143 142 142 137 136 138 129 131 137 121 103 97 101 94 94 98 100 100 103 109 100 99 107 106 100 103 102 107 106 
6 18 16 25 24 29 27 32 29 29 32 38 37 37 33 36 32 31 33 39 39 41 41 32 29 25 25 28 24 21 31 36 43 47 45 44 51 46 50 77 117 155 170 165 143 146 143 145 146 148 154 149 147 146 146 140 135 135 142 142 126 103 102 102 101 101 99 100 104 100 107 103 106 105 109 108 106 106 105 108 
0 15 18 28 25 28 23 33 30 33 35 44 40 37 35 37 40 33 42 40 45 41 47 37 36 30 26 26 24 23 31 39 42 50 46 44 49 46 38 44 54 90 124 153 160 171 166 165 155 155 159 156 157 156 151 142 142 140 147 145 130 107 104 105 103 99 102 98 106 106 108 106 107 108 109 109 109 105 105 110 
14 19 23 26 27 24 27 29 34 39 34 41 41 43 40 39 47 44 43 46 43 51 50 44 40 33 33 28 30 22 35 37 39 37 42 40 38 39 36 44 44 40 60 86 124 157 188 191 175 165 167 166 164 167 162 153 142 141 154 154 134 110 108 108 104 100 105 100 106 105 108 107 106 109 114 108 110 115 103 110 
26 26 25 27 27 26 22 29 33 36 37 46 37 40 38 38 39 38 39 45 43 47 47 44 38 36 34 34 32 28 37 34 36 37 39 36 43 37 35 44 46 39 39 47 58 84 140 183 201 191 181 176 176 176 168 162 155 149 166 155 129 109 109 108 105 101 106 104 107 108 107 107 109 114 114 110 111 114 109 106 


