P2
80 60
31
15 17 18 18 14 17 14 16 23 18 20 17 17 14 20 15 13 17 15 13 14 17 16 14 19 17 17 19 16 11 15 19 16 17 16 13 14 16 17 13 16 17 19 17 16 16 15 17 19 16 14 16 18 16 16 17 21 18 21 18 13 12 17 16 14 9 8 7 11 11 6 5 7 10 10 6 7 5 5 2 
15 19 17 11 15 15 13 17 20 20 16 19 13 15 19 13 14 17 13 16 14 15 16 15 17 13 19 16 16 18 15 17 16 15 17 13 14 16 13 14 14 16 16 17 17 15 14 14 17 13 17 16 15 16 15 18 20 15 18 14 14 12 11 14 12 8 6 7 9 9 6 4 7 11 12 10 7 8 5 2 
17 24 19 18 16 17 16 20 17 20 20 18 16 15 19 17 12 16 14 21 20 17 16 18 14 17 15 18 16 19 18 20 18 18 16 15 15 15 18 15 16 16 16 16 15 13 13 12 15 16 14 14 15 15 15 17 19 14 13 14 15 12 12 13 10 6 8 8 9 10 14 7 11 8 7 10 10 8 8 7 
16 17 16 16 16 16 19 20 20 21 21 19 16 18 16 16 15 15 17 16 17 19 15 16 16 19 16 19 15 18 14 16 16 15 17 14 12 16 20 16 17 13 20 15 15 15 17 13 17 16 15 14 16 17 13 14 16 15 16 17 18 17 13 11 10 7 12 11 14 7 10 11 11 9 7 6 9 9 8 8 
21 19 16 19 17 17 18 22 24 21 20 17 17 18 16 18 14 15 18 17 17 15 17 14 17 17 20 17 16 18 15 15 15 15 15 14 15 19 21 19 17 18 17 20 17 13 16 15 18 17 16 14 17 15 16 17 15 15 16 18 17 15 14 18 13 8 9 7 11 11 12 10 10 11 8 10 7 7 9 8 
18 18 17 20 18 18 18 20 23 19 18 19 17 18 16 15 15 15 13 16 15 19 15 19 19 15 18 18 16 15 13 16 13 15 16 15 15 17 16 17 16 15 19 16 16 16 19 18 17 16 16 16 16 12 14 17 17 18 17 17 15 15 16 13 11 6 10 13 19 16 14 9 6 9 7 10 10 10 9 8 
13 19 18 17 17 16 19 19 22 22 17 20 16 16 15 19 19 18 15 19 18 18 18 16 19 17 18 16 18 14 12 17 12 15 11 14 16 18 17 16 20 15 16 17 20 20 14 15 17 14 16 18 17 16 14 17 21 20 23 20 15 17 17 13 12 9 6 10 12 11 10 6 8 9 4 11 7 6 7 9 
19 22 19 17 17 18 19 22 22 20 19 17 15 18 18 17 18 19 15 15 22 19 17 14 18 20 19 16 13 15 13 16 15 12 15 18 17 17 16 16 19 15 16 18 16 14 16 16 15 16 17 17 17 13 13 17 16 16 17 17 16 14 13 15 12 11 9 9 15 8 7 8 9 10 10 9 10 6 6 4 
21 24 19 17 14 19 22 20 18 21 17 17 16 19 16 16 16 18 17 20 20 19 15 15 20 18 16 18 17 13 15 16 14 14 15 15 15 16 17 16 20 15 14 16 15 13 14 14 16 15 14 13 14 15 14 17 15 12 16 18 16 16 12 15 13 12 10 9 10 8 7 8 7 9 7 9 6 9 8 6 
24 23 21 16 18 21 19 23 21 18 17 19 13 17 16 16 18 17 18 15 17 18 16 16 21 18 15 16 10 15 11 16 17 15 16 14 13 17 12 13 15 15 12 16 15 14 14 13 15 16 15 12 14 14 16 17 18 15 18 18 14 17 11 13 14 12 11 9 11 11 9 9 8 10 5 8 11 7 8 11 
22 27 24 21 18 22 24 24 21 20 20 18 16 13 16 11 16 15 16 15 17 17 19 20 18 17 17 16 17 13 14 19 17 16 14 11 14 15 17 12 16 14 14 16 12 12 11 11 13 14 13 15 15 13 14 16 17 15 14 14 24 15 13 15 16 10 13 8 9 12 7 8 10 6 7 8 10 13 7 10 
19 31 19 19 24 22 20 25 20 21 18 16 16 14 16 11 12 17 13 14 16 18 18 15 19 13 17 17 16 11 16 19 14 18 14 12 11 16 17 13 18 15 14 14 16 13 10 13 12 13 10 12 14 10 13 14 16 15 16 15 13 16 15 16 15 13 10 8 8 5 7 6 7 7 6 11 10 3 7 0 
22 26 19 20 20 20 19 22 18 20 21 16 13 14 14 15 14 14 15 15 16 17 17 15 20 9 16 16 14 14 17 18 16 17 16 14 12 16 22 14 16 13 14 16 16 15 14 13 13 15 13 11 13 10 10 18 19 18 15 17 13 15 15 13 12 11 6 7 8 9 1 4 5 10 4 9 2 9 9 5 
22 24 22 21 20 21 19 18 20 20 19 16 16 14 17 13 12 14 15 13 17 16 15 18 17 14 14 15 13 15 13 18 18 16 14 12 13 20 18 14 14 14 16 16 14 17 16 16 13 19 14 15 13 10 14 16 19 17 18 17 13 16 13 12 8 11 13 13 8 8 9 3 6 9 9 11 12 7 7 7 
21 28 24 22 20 22 15 23 21 16 13 17 14 12 15 13 14 15 13 13 16 16 15 17 18 13 13 18 12 14 16 17 17 17 11 10 11 14 15 13 14 16 14 13 13 12 13 14 14 17 13 14 15 14 11 18 22 21 21 15 16 16 14 14 10 10 10 14 12 10 6 5 3 6 6 8 11 8 8 8 
17 25 24 22 20 17 17 24 22 17 15 17 16 15 14 17 14 13 14 15 16 16 18 15 18 15 15 13 14 13 12 15 13 14 12 12 10 12 20 17 16 17 13 19 16 12 15 12 14 14 12 12 14 14 15 19 20 20 19 18 14 15 14 12 13 13 11 14 14 11 7 6 12 6 6 8 10 10 9 7 
19 24 25 21 21 19 21 18 18 16 15 16 15 12 14 15 11 12 13 13 13 9 16 13 16 12 12 14 12 9 14 16 16 17 15 13 12 14 15 13 13 15 13 14 12 17 15 11 12 14 12 14 11 12 17 16 24 20 18 16 13 14 13 14 11 13 7 14 13 11 14 9 12 9 5 8 8 8 12 6 
18 24 23 21 20 17 19 20 17 11 17 18 16 14 18 14 13 13 13 15 13 12 17 15 14 10 15 13 11 13 13 17 14 13 12 12 15 14 14 14 14 14 15 15 13 11 13 10 11 12 12 12 19 15 17 16 17 19 19 20 15 13 10 13 13 10 7 10 13 11 11 5 7 9 4 9 8 9 10 9 
21 22 21 23 19 16 17 16 19 16 17 20 14 15 16 13 13 14 13 18 14 14 15 17 17 15 12 15 15 13 16 17 16 16 17 15 15 16 19 14 13 16 14 17 16 14 12 13 14 16 12 16 16 14 15 16 17 17 16 16 17 14 9 11 12 14 16 12 13 14 13 7 10 6 5 5 8 7 9 10 
20 25 19 17 16 19 19 18 21 16 19 19 13 12 16 12 15 13 16 14 16 17 20 18 19 18 18 15 11 12 14 17 18 15 13 12 14 18 13 15 18 14 16 16 12 10 12 14 15 13 8 15 15 16 15 17 18 15 15 17 16 13 12 11 13 14 12 12 9 13 10 7 9 8 4 5 8 7 7 4 
19 22 22 21 18 18 16 19 18 16 16 19 16 16 14 10 12 14 17 17 15 14 17 18 21 15 16 15 13 14 22 16 16 14 13 10 10 16 14 16 15 15 17 15 12 13 10 13 14 13 11 15 14 14 15 15 18 19 17 15 14 14 14 11 12 9 11 13 13 12 9 10 11 7 7 4 6 8 10 7 
19 20 25 22 18 17 18 20 19 15 17 17 21 14 16 11 12 14 11 15 14 14 18 15 17 16 15 14 12 12 15 15 15 17 10 14 15 13 15 15 14 15 12 14 10 9 11 13 14 13 15 15 11 12 13 16 16 16 19 13 13 15 13 17 12 15 14 12 12 14 8 9 9 9 6 7 9 5 14 8 
20 23 21 21 22 19 18 22 24 20 19 20 18 16 12 13 13 15 14 17 15 14 15 17 19 18 15 16 11 13 15 16 15 14 11 11 12 11 16 17 15 13 13 10 13 11 10 12 12 15 11 13 12 10 14 17 17 17 15 16 15 13 15 14 15 15 14 12 17 11 10 12 12 10 8 9 7 7 11 7 
17 19 19 20 18 19 20 29 21 17 17 20 18 15 15 12 11 15 13 13 13 16 14 17 14 15 15 15 11 12 11 16 12 15 10 10 12 13 16 16 15 14 14 16 12 10 11 9 12 15 16 11 13 11 12 16 17 16 14 13 13 16 17 14 14 14 12 13 12 13 11 9 10 9 9 9 9 9 13 6 
17 20 20 20 18 18 19 19 23 17 18 18 14 15 13 12 11 10 13 16 15 12 18 16 17 13 12 15 13 14 11 13 11 11 11 9 12 13 16 13 14 10 14 14 17 13 9 12 10 10 13 11 10 11 12 15 16 12 13 14 15 15 13 14 14 14 13 11 12 11 10 8 13 13 8 6 10 8 9 8 
22 18 23 18 15 19 19 22 19 20 19 17 16 16 18 17 10 10 15 14 15 14 16 16 15 14 14 14 12 13 11 13 11 12 11 10 11 14 16 14 14 13 14 14 11 14 13 13 13 12 12 13 10 13 13 15 16 15 17 16 16 13 15 13 11 12 9 15 12 9 9 7 11 7 9 8 9 10 13 6 
22 21 20 21 16 20 20 14 23 18 18 15 14 16 17 14 11 16 13 13 14 13 17 18 17 15 13 13 10 14 12 12 13 13 12 11 11 10 12 11 13 11 15 14 13 11 9 11 14 10 13 12 12 9 10 15 15 11 14 16 18 14 11 14 12 14 12 11 10 11 11 9 12 12 9 9 7 12 10 9 
19 22 19 22 20 19 18 25 20 17 16 15 15 14 17 10 12 15 13 13 13 14 16 13 18 15 14 17 15 13 12 14 9 14 11 10 12 13 13 12 13 13 14 16 11 12 10 10 12 10 11 11 12 12 11 14 13 10 10 17 16 10 11 15 11 10 8 12 9 10 10 10 9 13 9 12 8 8 12 5 
20 17 19 22 22 20 17 21 22 21 16 18 15 16 15 14 10 14 13 15 13 14 14 13 18 17 16 15 13 13 13 14 11 12 10 9 12 11 11 12 13 11 14 12 13 9 12 13 12 12 14 16 14 11 12 16 15 14 14 15 13 13 12 18 11 11 8 10 9 12 9 9 8 9 10 11 8 9 10 8 
17 23 21 24 17 18 19 21 22 20 17 17 17 15 17 13 10 13 15 13 15 14 14 15 18 15 16 14 9 14 14 15 11 11 11 13 11 14 11 12 15 13 13 13 11 12 13 9 11 11 12 14 15 11 11 6 15 11 14 14 14 15 15 15 14 13 18 14 10 10 10 10 10 8 10 8 8 7 7 7 
19 25 22 18 19 20 16 18 20 17 18 17 15 17 16 16 15 12 11 14 17 13 18 15 18 16 16 15 12 13 12 12 10 11 15 9 15 13 13 13 14 13 18 16 12 19 11 11 15 12 12 13 12 8 11 13 16 14 13 13 15 16 13 14 15 13 13 12 12 12 11 7 12 10 9 9 8 7 9 6 
21 24 21 23 24 18 20 19 22 18 18 17 17 14 15 18 14 16 13 15 14 14 15 15 19 14 18 14 13 9 12 14 11 12 12 9 11 12 14 15 18 14 17 16 16 11 10 14 12 18 12 13 9 14 14 13 16 12 11 14 12 14 15 17 18 12 12 13 14 13 13 10 9 8 7 8 5 8 7 8 
20 23 20 22 20 19 16 23 19 18 19 16 15 15 14 14 12 14 11 13 14 11 16 17 19 15 17 14 12 11 12 15 12 14 9 11 8 11 14 13 14 15 17 17 13 12 7 11 11 11 15 12 11 14 11 14 15 16 14 12 14 11 16 11 12 13 13 12 16 10 10 4 9 8 8 9 8 8 5 7 
14 19 20 19 20 19 16 17 18 18 16 15 14 17 14 11 13 14 15 13 15 11 14 17 17 20 16 13 13 14 13 12 12 11 10 10 7 12 13 13 13 16 18 12 14 10 10 11 10 11 14 12 11 12 12 13 16 16 15 15 12 14 12 13 12 11 13 13 14 9 7 7 7 12 12 10 8 10 7 8 
17 20 19 18 16 16 16 17 17 20 17 17 16 12 14 13 14 15 13 15 14 12 13 15 18 15 14 15 12 13 12 13 11 11 14 9 10 13 12 9 13 14 15 15 10 15 12 13 9 12 10 15 12 10 14 12 16 16 17 11 10 11 9 16 15 12 12 13 13 10 11 8 9 11 7 8 9 12 8 6 
21 20 18 22 20 19 16 20 18 18 17 15 17 14 17 14 12 16 15 13 15 12 13 17 18 12 14 14 14 12 11 15 18 14 11 9 11 14 13 14 15 16 11 13 15 9 13 13 13 10 12 15 15 12 14 14 15 17 15 15 13 12 15 14 13 18 13 12 12 13 10 10 10 11 8 10 11 11 11 7 
22 23 21 23 20 20 15 19 20 17 15 17 17 13 16 12 14 16 15 13 15 12 16 17 15 14 13 17 14 14 13 18 13 14 12 10 13 12 13 18 13 12 13 16 11 13 11 11 13 15 11 17 13 12 15 14 20 15 17 14 15 13 15 15 15 15 13 13 13 9 13 7 8 8 10 9 10 9 10 9 
18 23 19 22 19 19 19 17 18 17 17 16 22 14 15 11 13 19 16 17 13 16 16 14 16 13 13 14 16 13 14 15 13 16 16 9 11 12 15 15 14 13 14 16 15 13 14 11 13 13 14 12 13 10 18 18 19 15 16 16 13 10 13 16 16 18 11 15 11 12 11 9 7 10 7 12 8 11 9 6 
18 23 22 20 17 19 17 19 20 17 21 18 14 15 16 15 15 17 14 16 15 14 17 15 14 13 13 13 12 11 12 14 12 13 10 10 12 11 16 13 16 15 16 15 13 13 12 12 15 13 8 14 14 14 17 16 20 14 16 14 12 14 15 12 10 16 15 11 9 8 9 9 6 9 8 9 11 11 13 12 
13 21 22 18 18 19 19 19 20 18 20 19 15 15 17 14 14 14 12 14 16 14 14 15 15 14 14 14 13 11 12 16 15 15 11 11 12 11 14 13 16 12 18 15 12 12 11 13 13 15 17 16 16 15 14 15 13 14 11 13 11 12 13 14 11 9 12 10 11 8 9 8 8 10 9 9 8 10 14 9 
15 21 25 22 18 21 21 22 16 16 16 20 18 16 15 14 10 13 12 13 15 14 16 15 17 16 23 14 14 14 14 15 17 17 11 11 12 12 13 12 11 14 14 16 16 14 13 12 16 17 16 16 17 14 13 16 14 12 14 15 10 14 12 11 12 10 11 7 9 9 9 9 4 13 9 7 12 11 14 13 
20 23 22 19 20 19 15 16 15 16 14 19 17 15 13 14 13 16 13 11 14 12 15 15 18 18 16 15 14 10 12 16 14 17 13 12 13 16 13 13 11 15 13 13 14 12 12 14 14 13 14 17 16 14 14 15 21 13 12 13 12 13 11 14 18 11 8 7 8 10 9 8 10 10 7 9 12 15 14 10 
15 23 21 18 16 17 14 16 18 16 20 18 17 16 15 14 14 12 14 10 15 13 14 15 13 15 14 12 12 13 12 13 14 13 11 14 13 15 14 16 16 10 11 15 15 12 13 15 15 14 15 14 11 14 11 16 14 12 12 11 10 14 13 16 14 9 9 8 8 4 8 9 8 6 8 9 11 9 10 7 
19 17 18 20 19 18 16 18 19 14 15 18 16 15 18 13 8 15 15 15 15 11 15 13 16 15 15 15 15 13 13 15 12 12 12 9 12 14 12 13 12 16 13 17 13 16 12 22 16 14 14 14 11 12 12 13 15 10 11 12 10 13 12 14 12 11 7 7 8 11 9 5 10 7 12 10 13 9 11 6 
15 20 18 15 16 16 18 18 13 15 16 18 16 14 14 12 14 16 15 13 17 11 17 14 20 16 12 9 11 10 12 15 12 13 13 11 12 13 14 11 14 11 13 13 15 15 15 15 16 13 11 15 11 12 13 13 13 12 8 15 13 12 10 15 11 11 9 12 13 8 9 4 9 12 5 9 9 9 10 10 
20 18 20 16 19 16 15 17 16 17 16 19 16 15 18 15 15 16 12 15 19 13 16 17 15 14 11 12 11 13 11 15 12 13 13 14 12 13 16 13 12 15 14 16 17 15 15 14 14 13 12 13 12 11 12 13 14 13 11 13 14 14 9 15 11 13 14 9 12 9 11 5 6 8 9 9 9 9 7 4 
15 20 13 14 16 15 14 14 18 17 16 17 17 16 18 12 12 14 12 15 13 13 16 15 19 15 17 11 13 12 10 15 14 13 12 11 8 14 12 12 15 13 12 18 16 20 11 12 13 16 11 13 14 9 12 14 15 15 11 10 11 11 14 15 9 13 13 15 7 9 10 8 5 10 8 7 13 7 5 12 
14 17 14 14 13 14 15 14 17 14 14 14 17 16 16 13 8 15 16 13 14 14 15 15 18 15 12 14 13 12 10 10 14 11 13 11 9 11 12 12 11 12 12 14 16 12 15 13 12 12 11 10 11 9 10 10 13 13 12 12 12 12 11 12 10 8 9 8 9 9 12 5 10 11 1 7 10 3 5 6 
18 21 16 14 15 12 16 20 18 16 14 15 12 14 15 15 10 13 13 14 15 15 20 17 18 11 13 11 15 9 10 14 13 12 11 9 11 15 12 15 13 12 10 16 13 12 11 11 12 13 13 11 11 10 10 14 14 13 14 16 13 13 10 9 11 11 9 10 12 11 8 5 10 9 7 6 9 3 9 7 
18 17 17 17 14 15 14 14 20 13 14 13 14 14 17 15 11 15 15 15 15 16 18 17 15 11 12 12 10 12 9 13 12 11 11 9 11 13 15 10 13 13 11 13 15 9 12 12 9 15 9 9 9 11 12 13 14 13 12 13 13 14 9 13 7 10 9 10 10 6 8 8 8 10 6 7 5 7 6 2 
18 20 19 17 15 13 14 18 15 14 17 13 14 14 14 15 11 11 13 16 17 11 15 14 16 16 12 9 11 12 9 11 13 11 11 8 11 12 16 13 11 12 14 14 13 11 9 8 9 11 8 10 12 12 13 13 13 9 10 14 13 15 13 12 10 9 10 7 13 8 8 4 7 7 5 6 9 8 8 6 
18 23 15 20 18 15 14 15 19 15 12 14 15 14 12 15 12 14 14 15 18 12 13 12 15 13 12 12 8 8 10 13 11 9 16 9 11 10 15 11 9 10 12 12 11 11 10 10 10 10 10 11 14 13 13 15 15 13 13 15 13 14 10 14 11 8 8 10 7 11 10 11 7 6 5 11 7 8 4 5 
19 20 20 20 20 17 14 18 18 16 15 18 14 14 16 11 14 11 12 15 12 16 14 11 17 15 13 13 10 12 11 12 12 11 7 9 10 13 13 12 11 11 10 11 11 12 13 12 14 14 11 14 11 12 13 17 18 15 19 13 12 13 12 12 9 11 11 10 8 12 10 8 5 6 8 6 8 5 4 7 
12 16 16 17 20 20 15 15 14 17 13 15 13 12 15 10 12 13 11 10 11 11 16 15 16 14 16 13 15 13 14 15 9 9 10 6 8 11 13 11 14 9 9 9 11 9 9 7 11 10 12 10 11 12 11 17 17 13 12 14 11 14 9 12 10 8 9 8 10 9 8 8 8 8 8 2 6 7 4 5 
12 15 14 16 14 16 19 15 20 15 16 12 12 16 15 11 11 12 13 12 15 8 12 15 15 14 17 14 10 8 14 14 12 13 8 7 8 10 12 11 9 14 11 9 11 9 8 11 10 11 11 11 11 14 17 17 18 13 12 15 14 12 10 14 11 6 6 5 9 11 9 6 7 9 10 2 9 6 8 8 
12 12 11 14 13 14 15 13 16 20 15 17 17 15 14 11 9 11 15 11 13 10 12 12 15 12 14 16 10 10 6 14 11 10 12 9 8 10 11 10 12 9 10 13 12 9 8 14 12 12 10 11 14 8 12 17 15 16 11 14 11 15 9 14 9 9 7 7 9 8 19 9 8 9 3 6 3 5 11 8 
8 11 12 10 13 12 13 14 18 15 19 17 23 16 16 11 13 11 11 11 12 13 12 13 12 13 14 11 9 6 5 12 8 8 11 6 7 9 11 13 9 9 11 14 12 6 10 9 13 8 8 12 10 9 9 14 18 11 9 14 11 12 10 13 9 10 5 8 5 11 13 5 9 10 6 8 6 5 5 4 
10 10 14 15 13 11 13 11 16 14 13 16 17 14 12 10 12 10 12 12 12 11 15 9 12 10 11 9 12 10 10 11 8 8 10 8 8 8 9 10 10 10 13 14 12 10 12 12 10 13 9 10 12 12 11 14 16 13 9 8 11 9 9 12 10 12 9 8 6 11 9 5 8 8 6 3 4 7 8 10 
11 16 13 12 9 9 11 12 17 14 15 14 13 14 15 10 11 12 11 11 12 13 14 12 13 9 7 13 14 7 11 12 10 12 9 8 9 9 12 8 12 11 12 12 14 6 7 12 14 10 11 14 10 8 13 12 17 12 13 13 10 11 13 16 10 13 11 6 9 7 8 4 9 7 7 6 8 4 8 5 
10 9 9 12 10 8 12 13 19 14 14 11 12 12 17 12 10 13 9 11 9 11 10 11 14 14 8 13 10 8 8 12 7 10 12 7 11 10 10 9 14 13 15 17 13 10 9 10 11 11 11 12 12 13 17 15 14 14 14 12 10 11 9 13 11 12 9 8 7 8 8 5 6 5 8 7 8 4 5 3 


