P2
80 60
265
162 153 158 149 158 150 152 150 147 150 155 155 151 148 148 144 134 131 89 30 27 43 79 103 104 108 115 121 125 119 126 125 129 127 129 124 125 132 128 129 122 126 127 122 122 113 109 121 127 125 123 126 132 139 140 143 144 144 145 140 137 142 142 137 135 136 136 133 133 132 136 138 134 132 139 132 128 124 126 130 
158 153 152 149 154 151 151 148 147 150 154 150 147 146 151 143 138 128 80 24 27 41 69 99 103 106 117 125 124 124 128 125 129 124 128 126 131 133 127 125 125 124 125 123 121 115 106 122 123 120 123 124 130 138 142 143 144 143 146 138 141 140 135 135 136 131 133 132 134 132 135 139 133 135 139 136 136 126 133 131 
161 153 152 150 149 150 150 148 145 149 154 151 147 146 147 143 134 128 78 30 28 41 67 91 103 106 113 124 130 131 130 125 128 127 124 126 132 136 134 128 124 125 122 122 122 113 112 117 123 120 120 127 133 135 139 144 139 140 144 138 139 139 137 137 137 132 133 137 134 135 139 138 132 136 136 134 135 132 128 131 
157 156 151 150 145 151 147 143 143 151 155 149 148 146 144 142 133 126 76 28 30 43 65 90 95 107 115 127 128 126 123 124 130 124 125 123 138 137 129 127 125 124 125 123 124 112 115 118 129 127 122 127 134 136 141 143 139 141 141 141 140 140 137 136 139 133 135 137 136 136 139 141 136 134 133 139 133 128 133 133 
163 154 149 149 146 149 144 144 146 149 150 150 148 146 147 143 127 121 78 29 32 50 62 88 98 109 116 130 122 123 125 119 130 122 123 125 130 131 131 124 124 124 126 123 124 115 114 120 122 125 124 124 135 134 142 142 138 142 144 142 139 141 140 140 137 137 137 138 137 137 140 138 134 136 136 134 136 131 134 131 
164 154 155 148 145 146 147 145 147 147 156 149 148 144 143 138 135 126 75 27 32 54 65 85 104 110 116 125 122 118 118 120 125 124 124 124 125 126 129 124 121 125 126 123 126 112 118 120 128 125 123 124 133 133 141 145 140 141 143 141 141 137 139 139 136 139 134 138 142 137 142 136 136 137 137 134 136 132 130 131 
164 155 147 147 146 149 150 144 145 151 154 152 148 144 146 142 134 119 74 29 42 56 74 92 97 110 112 122 118 117 120 116 123 120 126 123 126 123 128 124 124 127 122 124 116 110 115 119 127 126 125 127 131 136 144 142 141 147 151 139 139 139 137 138 138 137 135 136 142 142 138 136 134 138 136 137 135 132 132 129 
164 155 153 149 148 151 146 142 145 152 153 152 146 143 146 139 134 122 76 29 36 55 74 92 101 115 113 121 121 119 125 120 126 121 125 126 127 125 127 128 124 130 124 126 123 115 116 117 124 129 125 123 139 138 143 146 140 150 146 142 140 138 144 139 138 138 136 139 143 140 139 137 135 137 139 138 134 130 132 127 
158 155 153 153 156 144 144 142 146 156 155 151 147 144 141 135 133 122 69 18 25 49 54 84 92 111 112 114 117 115 123 121 124 124 124 126 125 123 123 124 122 124 122 124 122 113 110 124 128 124 123 127 140 146 144 140 139 145 143 141 137 141 140 136 140 139 134 138 137 138 136 136 134 139 136 131 132 128 136 128 
157 153 156 156 152 146 146 140 148 152 153 150 146 144 144 137 138 120 65 9 10 36 46 67 90 101 106 114 117 115 117 115 123 121 122 122 126 123 123 124 122 122 123 121 121 113 111 120 126 125 122 122 135 141 143 141 140 139 141 140 140 139 139 140 144 137 137 137 136 135 136 136 133 137 133 131 130 132 130 133 
161 157 153 146 152 147 150 143 145 152 152 150 146 145 144 141 134 118 63 7 5 24 36 59 85 99 102 111 114 108 113 117 121 119 122 121 123 122 125 128 124 122 120 122 123 112 107 120 123 121 121 123 133 138 143 143 141 142 145 143 139 138 140 139 142 140 138 137 131 134 135 134 134 132 136 137 136 130 132 129 
158 154 154 151 150 145 146 141 143 149 154 152 144 146 144 136 133 112 57 10 7 20 29 53 73 97 98 105 108 103 113 109 119 118 122 119 122 115 123 125 123 123 123 119 121 111 110 119 125 121 121 120 132 135 141 141 139 141 143 139 141 142 139 139 140 137 137 140 137 135 134 131 133 136 134 137 135 129 130 131 
154 152 148 153 149 142 144 139 145 147 154 149 146 144 143 131 134 108 58 6 8 16 31 50 73 88 88 99 102 104 112 114 120 117 119 115 114 115 121 121 122 120 125 121 122 109 111 119 121 120 122 116 130 130 141 139 140 142 141 141 140 138 145 138 135 135 137 138 134 134 128 139 134 136 136 135 136 132 130 127 
154 153 151 146 151 147 147 134 137 151 152 150 143 146 142 133 128 107 55 5 5 10 31 53 71 83 85 94 95 96 114 126 128 123 120 112 113 120 117 123 121 122 122 121 119 111 108 117 122 121 115 117 128 134 142 142 140 144 144 140 143 138 138 138 139 134 137 140 134 133 136 133 136 132 133 134 134 132 130 128 
155 152 149 147 145 144 142 132 130 145 152 150 145 144 143 133 137 110 60 7 4 14 29 57 63 77 78 93 97 97 118 128 131 127 125 112 115 115 119 120 120 123 121 118 117 112 107 117 122 121 111 120 125 134 138 145 141 153 144 140 138 140 139 136 137 137 136 137 134 136 133 136 135 136 136 134 133 128 129 127 
155 149 148 150 147 141 138 129 134 139 152 151 144 144 144 142 135 104 59 4 5 15 30 52 67 76 77 85 94 95 119 128 127 121 114 109 111 112 114 118 118 120 121 117 119 110 107 119 120 119 119 116 131 136 140 146 142 145 147 144 138 141 142 131 138 138 138 135 138 138 136 138 138 134 136 132 134 131 130 128 
151 153 150 151 151 138 140 123 126 140 147 148 144 142 143 139 138 110 63 5 5 17 25 48 66 75 78 83 85 90 115 121 126 120 111 107 112 115 116 119 116 122 123 120 117 109 104 117 119 118 116 122 132 135 141 140 142 145 143 140 140 140 140 138 135 136 136 136 138 136 135 138 139 136 135 136 129 131 134 131 
152 152 148 147 150 143 132 116 122 142 150 148 142 142 143 140 132 108 65 12 2 20 26 40 64 79 74 81 87 96 115 124 129 118 113 110 110 114 115 119 115 119 117 117 119 109 105 117 118 120 117 117 127 134 144 139 140 149 144 141 141 139 136 135 134 138 136 138 137 135 136 140 135 133 137 134 132 129 132 123 
153 151 149 147 154 141 131 110 126 140 148 151 142 143 145 140 131 108 65 9 2 15 25 45 64 79 81 90 95 106 118 124 129 123 120 118 118 118 119 119 119 118 121 119 116 108 104 114 118 117 121 122 137 136 145 143 140 145 146 140 140 141 135 138 138 137 136 138 137 137 137 141 135 135 136 134 131 133 134 126 
152 151 145 143 140 128 116 101 111 131 151 146 141 145 144 142 130 107 67 10 0 13 26 42 64 75 85 99 99 104 114 114 125 121 125 120 118 119 115 118 116 120 120 116 117 105 102 120 117 120 118 123 136 133 142 143 142 141 143 137 139 140 137 136 134 134 135 135 138 139 142 140 135 131 135 132 130 129 131 130 
155 152 144 142 141 132 112 106 107 133 149 145 146 146 144 138 130 105 66 8 1 18 24 45 67 77 87 94 101 104 112 109 119 119 121 126 120 121 114 117 115 119 120 113 115 105 100 117 120 121 119 125 138 138 141 140 138 140 140 140 140 139 138 139 135 134 136 137 137 137 136 136 135 134 133 133 129 133 133 135 
153 148 149 143 139 130 122 117 114 132 147 147 147 150 143 135 126 99 62 11 5 12 23 43 68 82 82 96 101 101 108 108 119 119 122 122 121 114 115 115 114 117 118 113 111 106 100 119 117 119 120 126 134 137 141 141 137 142 146 140 141 142 137 137 139 138 142 136 138 141 137 137 136 134 136 133 131 131 132 127 
150 152 143 137 140 132 127 114 113 133 140 149 146 149 145 139 128 102 65 12 6 11 22 45 69 86 87 99 100 100 103 106 120 121 122 123 122 112 111 116 113 115 117 114 106 104 98 118 118 119 118 120 135 136 143 139 138 142 146 142 140 140 138 137 137 142 140 140 137 138 138 140 136 134 136 135 132 133 128 129 
148 146 144 136 136 127 121 118 117 129 145 143 142 144 144 136 122 100 62 11 5 7 21 40 70 87 87 96 94 91 99 105 114 115 120 124 121 110 111 111 111 114 112 113 108 103 100 117 117 122 119 116 131 134 139 140 138 142 142 140 137 140 140 138 139 137 141 140 140 139 139 137 134 134 133 134 131 129 130 129 
149 147 141 127 132 128 124 116 119 127 135 139 141 144 146 137 124 95 62 12 11 12 21 39 66 91 92 96 93 90 99 102 106 108 116 122 122 113 108 114 109 112 113 112 111 101 98 119 119 118 115 114 131 132 139 138 139 143 143 140 140 140 139 137 137 140 140 138 138 138 142 136 134 137 135 135 132 130 132 129 
147 146 140 126 129 125 120 118 115 126 133 140 140 139 143 144 117 93 60 15 15 15 24 44 68 95 92 95 93 94 100 99 105 107 109 121 123 106 109 111 113 112 114 112 111 106 99 116 116 117 117 117 130 134 140 139 137 142 148 141 139 139 140 138 140 139 140 138 140 137 136 141 135 138 138 137 132 132 134 129 
148 140 138 127 128 124 120 113 111 119 129 136 136 139 140 138 113 93 59 17 23 26 32 45 70 94 92 97 98 93 99 102 109 106 106 105 110 102 108 107 105 114 111 114 108 107 94 115 115 115 113 121 130 131 137 144 135 141 146 141 139 143 141 135 138 140 140 138 137 136 137 136 134 137 137 133 134 135 133 128 
152 146 138 127 130 116 106 109 106 120 137 137 133 141 140 132 116 91 61 24 29 33 35 49 69 86 83 98 95 94 97 101 111 105 103 95 103 100 102 107 107 110 114 110 107 98 99 111 113 114 113 120 134 130 138 139 137 139 143 142 138 141 140 140 139 139 139 141 140 139 138 137 136 136 135 131 132 130 136 131 
150 145 140 130 125 115 98 100 107 119 130 135 130 141 136 136 110 83 61 27 23 32 33 48 70 78 79 92 98 92 93 98 108 105 103 96 100 101 110 111 103 110 112 109 106 97 102 116 110 115 111 119 131 132 140 137 139 138 142 140 138 141 138 139 136 140 139 140 141 138 138 136 132 136 136 135 135 131 132 132 
150 144 142 128 122 121 96 95 116 124 131 134 133 137 137 130 104 89 62 23 27 37 37 50 69 77 75 93 92 91 96 101 101 102 100 98 98 103 108 110 105 109 110 110 102 98 108 114 114 115 113 115 129 133 138 140 135 143 143 137 141 136 140 140 139 139 144 141 138 138 139 139 134 133 135 138 133 131 133 124 
149 146 138 120 115 118 100 100 115 124 132 141 133 135 136 130 105 82 60 21 29 38 39 52 68 74 78 86 91 91 95 95 98 101 103 97 98 101 106 106 103 112 113 110 106 97 103 114 110 114 110 114 130 135 137 139 140 144 145 142 138 139 141 141 139 140 140 141 142 139 139 138 137 136 136 135 133 132 128 129 
149 147 136 116 117 120 105 105 113 129 135 135 132 135 133 131 103 85 65 26 30 43 41 49 65 77 76 91 88 92 92 90 99 98 100 97 100 101 102 107 105 107 110 108 103 94 104 112 110 110 108 116 135 136 139 138 138 143 144 138 140 138 144 135 140 138 140 141 143 140 139 138 138 135 136 134 132 130 131 132 
148 142 136 113 113 113 110 111 108 107 133 133 128 139 133 123 99 84 66 23 37 44 40 51 65 73 75 87 83 90 95 91 96 95 96 94 96 100 104 108 104 104 108 108 102 92 104 111 107 111 102 117 130 132 136 140 134 140 141 137 142 141 143 139 139 141 142 143 145 141 142 136 136 137 137 136 133 131 131 136 
150 143 137 112 106 111 108 105 96 84 118 123 121 129 124 116 94 79 65 23 36 42 38 50 61 71 76 81 84 89 93 95 96 87 92 93 94 94 100 104 99 101 108 105 96 91 102 108 102 101 101 116 129 131 132 134 135 140 143 140 137 144 138 139 141 141 143 138 142 140 138 136 135 135 136 135 133 134 136 138 
145 139 136 116 102 109 87 70 67 74 88 90 90 104 92 85 85 78 64 19 32 44 43 44 64 64 70 81 84 90 91 91 85 81 89 93 94 92 99 100 101 103 106 103 98 98 91 107 97 95 100 112 127 130 136 136 138 146 143 141 141 145 139 143 142 140 142 141 142 139 140 137 139 139 139 140 139 139 145 148 
144 140 137 121 101 112 87 55 61 70 73 70 78 77 75 69 81 78 67 16 25 41 37 50 64 65 67 85 83 84 92 87 85 81 91 90 91 93 92 100 100 99 102 102 96 95 93 105 98 97 97 110 127 128 139 143 138 147 148 145 139 145 141 146 143 141 141 143 142 142 144 143 138 139 142 136 143 154 149 149 
143 146 136 120 97 109 83 49 48 59 72 71 67 75 63 61 78 77 60 12 14 30 36 49 56 64 68 74 80 84 85 78 80 78 84 88 92 92 99 100 99 105 102 101 100 82 99 103 94 93 94 111 125 131 138 137 139 141 146 147 153 153 150 149 142 147 142 143 147 145 146 143 142 142 144 145 148 173 183 170 
146 141 136 121 91 111 89 46 52 58 68 65 66 69 59 59 71 73 56 3 7 25 35 47 58 63 64 72 77 75 79 73 82 83 93 95 103 103 107 115 108 108 113 109 104 93 100 97 95 92 91 104 126 128 137 141 138 143 152 177 201 201 167 147 146 150 155 149 150 145 145 145 141 139 141 140 150 181 192 198 
140 140 142 123 91 110 85 45 44 52 59 57 59 63 62 55 71 67 47 5 10 34 39 49 61 69 61 77 73 70 66 73 80 105 131 125 132 131 137 141 136 138 138 137 140 128 118 98 91 92 91 105 120 129 135 139 143 144 152 191 239 236 178 153 157 150 147 147 146 146 145 140 137 137 138 134 153 191 201 200 
141 140 139 126 87 106 95 42 38 48 52 53 51 58 53 56 61 58 45 0 20 42 43 53 61 68 63 78 74 67 67 67 88 121 142 146 148 148 151 151 145 149 151 150 151 152 142 102 95 86 91 103 127 129 137 139 140 147 156 209 265 254 188 162 156 152 152 150 145 146 143 142 138 141 136 140 171 197 207 207 
142 141 141 118 82 106 93 41 24 37 44 40 41 49 42 42 57 53 44 13 22 43 46 52 55 63 64 69 61 54 61 61 105 136 147 151 153 152 152 154 153 153 154 156 155 158 146 99 90 84 91 106 125 136 135 137 139 145 152 194 228 232 187 156 151 148 145 146 143 142 141 139 132 139 138 146 178 199 212 203 
139 141 138 118 80 107 95 45 27 31 34 36 36 44 44 41 50 48 32 21 19 42 43 51 55 57 52 61 55 54 58 69 127 144 145 149 159 153 156 157 155 153 154 157 157 157 155 116 92 84 87 105 124 130 136 142 140 148 155 183 204 209 193 167 152 144 141 145 142 138 141 138 138 137 137 147 184 201 207 207 
141 139 140 117 78 106 99 51 25 30 39 38 39 47 45 51 42 38 36 15 27 42 43 50 59 60 57 58 53 59 68 88 140 141 148 154 155 155 158 157 155 156 158 152 155 157 161 136 91 82 85 100 122 128 134 136 143 146 165 182 188 191 193 188 161 145 141 141 141 139 139 137 137 137 138 149 192 201 207 203 
142 136 132 112 76 104 97 48 19 22 30 31 31 33 36 34 33 30 38 32 53 58 48 52 58 65 57 57 59 57 70 109 147 145 150 150 156 157 158 159 155 159 157 159 157 161 161 156 104 85 89 99 121 124 131 135 138 147 166 173 176 185 188 183 174 152 142 139 140 139 138 142 138 138 139 151 196 199 209 210 
140 139 128 112 75 97 99 57 23 24 22 22 24 28 24 18 19 30 62 73 86 76 53 50 57 55 51 56 57 58 81 130 146 148 154 151 154 157 161 159 156 157 158 157 159 162 163 157 126 85 92 104 121 124 131 133 138 152 165 164 172 179 178 180 164 149 143 138 138 142 141 144 144 143 153 155 201 206 213 217 
135 132 133 113 76 87 99 59 25 23 26 26 26 29 35 36 41 55 68 71 84 84 62 52 62 55 51 57 56 59 103 136 153 151 152 152 155 156 157 158 157 158 159 160 160 163 161 154 143 98 93 93 121 121 131 135 136 146 153 160 161 165 158 153 149 142 138 139 142 143 146 148 146 152 162 168 209 207 212 220 
138 132 130 113 68 78 96 66 33 36 36 33 33 36 34 46 49 55 65 79 87 81 62 59 62 64 63 64 64 79 129 143 153 152 155 152 153 154 157 158 158 158 159 158 161 162 161 157 151 134 104 103 117 126 136 137 141 145 152 148 148 151 148 144 142 140 138 139 139 140 146 148 149 154 162 179 220 214 220 220 
133 133 130 112 66 82 102 68 43 36 41 39 40 44 42 46 52 57 61 74 86 77 64 62 69 69 65 69 71 115 143 146 156 153 159 155 156 157 158 161 158 162 160 160 163 163 163 155 151 143 124 111 124 126 137 139 137 144 148 148 145 146 140 143 138 138 139 140 142 136 147 147 150 157 165 194 225 219 222 224 
136 131 131 118 67 89 97 75 59 46 57 53 53 59 55 62 62 57 68 84 86 86 79 75 77 81 75 80 109 137 145 150 156 154 158 158 155 162 161 160 158 160 160 158 165 164 157 150 150 146 148 131 125 130 134 141 141 141 144 140 138 144 141 139 142 143 139 143 140 139 143 145 149 151 160 213 238 238 238 228 
135 129 137 123 83 83 99 75 63 72 82 88 86 89 92 93 93 93 88 93 102 101 98 91 96 103 98 105 134 145 150 148 155 145 157 159 158 161 160 162 157 161 162 160 164 160 152 142 147 149 149 146 138 136 140 141 137 140 140 139 143 139 143 140 141 143 143 144 143 140 139 143 142 151 153 187 225 247 247 241 
131 134 126 125 94 93 108 88 80 92 99 100 103 101 106 106 106 105 107 106 108 106 110 113 116 117 115 128 138 141 150 152 145 141 155 159 162 161 162 163 161 162 163 160 161 157 150 143 142 149 150 157 155 142 142 146 138 143 144 143 147 144 143 147 148 148 145 147 142 140 141 138 146 145 156 163 176 213 240 253 
133 133 126 120 106 98 104 90 88 106 108 105 102 105 105 106 102 106 110 109 113 113 111 115 113 117 115 136 144 149 147 148 130 134 159 156 162 159 159 162 160 161 161 161 159 159 146 141 137 143 152 155 156 143 146 145 139 147 150 148 150 150 150 151 148 152 154 151 144 138 140 136 137 156 166 159 162 162 194 232 
117 116 113 109 101 98 106 97 101 107 107 105 104 107 104 104 101 106 108 107 111 109 108 110 115 116 120 143 147 149 148 143 131 135 156 155 159 160 159 157 159 158 157 160 159 157 152 139 138 139 153 154 157 152 148 145 147 146 156 150 149 154 151 150 147 152 156 155 147 142 141 143 147 155 167 160 161 160 168 158 
104 98 97 93 101 102 107 102 105 106 107 105 105 105 101 102 102 103 101 101 106 107 107 108 115 114 127 143 148 148 145 141 129 142 158 157 156 158 159 159 163 159 159 160 162 157 158 148 143 148 155 159 158 154 148 144 146 148 148 144 147 151 148 151 151 153 151 153 151 149 152 142 149 153 152 154 156 157 157 154 
98 99 98 95 102 102 105 102 108 106 113 106 107 102 104 105 103 99 101 104 103 103 103 107 110 118 128 147 148 146 150 144 142 148 161 156 158 159 160 161 155 159 157 160 157 156 155 154 146 152 157 156 163 152 141 130 132 141 139 137 136 140 140 138 144 144 145 142 141 143 141 139 142 151 154 151 147 147 152 151 
98 99 99 98 98 101 108 105 107 104 111 107 104 102 101 105 100 105 104 104 107 104 105 105 110 115 125 147 148 145 149 151 159 157 160 156 155 156 157 159 155 159 160 160 159 160 159 159 156 156 154 154 159 154 143 126 125 140 140 137 137 143 138 138 135 132 138 138 140 143 146 142 137 142 148 150 150 146 151 147 
102 101 99 98 95 98 100 103 106 111 104 109 110 98 101 103 100 106 104 107 109 108 111 109 109 112 119 141 146 146 148 151 162 159 165 157 159 158 158 160 159 161 161 159 163 161 165 162 159 158 157 158 154 151 150 130 132 138 143 138 137 140 139 137 136 131 136 141 144 143 147 143 141 143 149 147 147 148 147 148 
105 101 99 99 98 101 106 102 103 106 110 103 99 101 103 105 104 104 108 110 110 105 109 109 109 115 112 134 144 143 150 148 160 161 166 158 158 161 164 161 160 160 163 162 161 159 161 164 156 157 157 155 157 148 154 144 135 139 146 141 139 141 140 139 139 137 139 143 144 142 148 146 143 148 147 146 149 146 146 145 
106 101 101 100 100 100 110 102 107 110 107 103 98 98 105 103 103 104 105 110 109 107 105 108 111 113 104 133 144 148 147 151 161 160 161 159 159 161 163 163 163 162 164 160 161 158 165 162 157 158 157 154 156 146 150 154 147 147 146 144 143 145 143 143 146 141 143 142 144 144 152 148 145 149 153 147 144 148 152 148 
109 100 101 100 100 103 106 103 105 104 103 100 100 98 101 104 102 101 105 102 107 107 103 107 110 113 105 119 143 142 143 149 157 157 157 155 162 161 159 162 160 164 164 158 158 158 162 159 154 157 155 153 152 149 146 154 149 149 148 144 147 149 150 153 147 144 147 145 146 147 149 149 147 151 155 149 149 152 150 155 


