P2
80 60
35
20 19 18 16 20 18 20 21 17 19 21 24 24 21 25 27 27 22 19 19 20 24 17 18 23 20 18 21 21 20 26 27 23 22 24 17 21 24 19 19 18 22 22 20 17 19 22 17 22 20 18 19 22 24 21 23 21 20 20 19 16 15 20 14 12 17 10 12 13 9 13 18 10 12 14 14 10 14 14 6 
16 20 22 19 21 19 22 19 23 22 25 26 24 21 24 25 25 22 24 20 19 19 18 19 23 20 21 19 19 21 22 25 22 22 23 23 21 23 19 18 17 18 21 23 19 20 18 20 20 22 19 19 19 22 20 27 22 22 19 18 17 13 19 16 12 14 11 10 10 12 9 12 12 14 14 15 11 11 3 8 
22 20 22 20 20 22 23 20 20 27 25 28 28 26 28 32 27 23 22 21 22 20 21 19 19 21 22 19 18 19 22 26 23 23 24 20 22 24 22 20 17 22 18 20 19 18 21 19 21 21 21 22 22 19 20 20 22 19 17 18 17 15 14 15 14 10 10 14 14 13 16 15 10 12 12 9 13 13 9 10 
18 21 19 20 21 21 26 21 20 20 32 30 25 28 33 32 33 25 25 22 20 20 18 18 18 21 21 21 19 21 20 22 20 19 21 20 22 24 26 23 15 22 20 19 18 19 19 19 25 22 18 17 21 17 16 20 21 20 17 17 21 17 15 14 11 11 11 11 13 12 12 12 8 7 11 6 11 16 11 15 
21 20 24 20 22 24 24 22 22 20 30 34 33 28 31 32 29 32 27 21 18 19 20 21 23 21 22 20 20 17 18 19 17 19 18 19 20 22 22 21 15 22 21 21 20 17 22 21 22 23 18 18 21 17 22 19 19 19 16 16 17 15 14 16 16 17 12 13 13 16 13 13 15 9 17 12 8 15 11 16 
21 21 21 20 20 26 24 22 24 23 25 28 31 27 31 30 29 29 26 23 17 21 21 18 23 22 21 22 17 17 20 21 20 19 22 20 21 23 21 21 17 23 24 20 20 20 24 20 22 19 18 17 23 19 20 22 20 23 20 17 20 18 16 13 14 12 17 11 20 17 12 12 11 9 11 13 12 15 14 11 
21 20 25 22 21 24 27 23 26 25 20 22 21 26 27 31 27 27 25 25 21 22 26 20 20 21 25 21 19 20 21 19 20 19 21 19 21 25 24 21 19 21 22 19 21 22 20 21 21 21 20 20 22 19 21 20 20 24 26 21 21 18 17 13 13 14 12 15 16 15 13 11 12 11 15 16 9 11 8 13 
23 24 26 19 24 26 24 22 21 24 21 22 22 25 27 25 22 25 26 23 28 25 21 19 19 24 24 25 19 20 20 23 20 18 21 23 23 19 23 22 21 21 18 24 17 20 20 18 23 20 21 19 22 19 21 20 20 21 17 20 19 15 17 16 13 16 10 13 14 15 9 11 12 9 12 15 13 11 5 14 
26 29 26 27 25 30 27 24 26 27 24 29 29 22 24 27 27 28 26 23 27 26 23 20 19 20 24 21 22 18 25 20 19 20 21 22 22 19 21 20 17 18 17 19 16 17 19 18 20 18 18 19 20 20 22 19 19 20 16 21 18 13 18 15 14 17 12 13 12 11 10 11 11 9 11 11 8 10 5 10 
31 30 24 30 30 29 31 22 27 26 25 30 29 24 32 32 28 29 27 22 26 24 28 23 22 23 22 22 21 18 19 18 19 20 23 18 19 22 23 20 16 19 15 17 16 16 14 17 21 19 17 16 21 19 23 19 17 19 15 18 20 17 16 13 13 12 13 13 14 11 10 13 10 8 10 12 11 11 7 9 
30 35 31 29 31 33 34 27 28 28 27 28 30 27 28 32 27 29 27 25 26 29 26 32 28 25 23 29 29 19 20 24 22 22 23 19 21 22 22 21 19 20 17 18 18 17 15 17 18 20 19 15 22 20 21 18 19 21 20 14 19 15 15 14 11 19 14 10 11 11 12 13 8 6 12 9 8 11 12 12 
28 30 31 30 30 32 29 30 29 26 26 27 30 23 30 29 25 28 22 27 23 26 27 24 28 23 22 21 22 20 22 25 27 22 24 23 20 18 24 24 21 23 19 20 19 18 17 15 20 18 17 16 22 14 20 17 18 18 14 14 17 15 13 12 14 16 11 11 13 8 8 11 11 11 10 16 8 12 9 9 
26 27 28 32 31 31 28 27 28 27 24 26 25 28 28 28 25 24 20 23 21 29 25 22 24 21 21 24 20 20 23 25 23 24 25 21 19 23 26 23 22 23 20 23 23 24 21 19 19 21 21 19 15 19 19 21 19 20 15 14 16 15 19 15 15 14 12 12 12 12 0 11 7 10 10 11 11 11 7 11 
28 31 32 29 31 31 29 25 27 25 26 25 27 27 24 26 26 21 20 22 25 27 21 23 22 23 20 21 19 20 23 20 24 24 24 19 20 30 21 20 18 21 20 21 22 23 21 22 21 23 19 17 18 16 21 21 22 21 19 17 18 12 16 13 14 12 15 13 13 11 12 11 11 8 11 12 12 14 10 11 
28 32 31 30 28 27 28 28 29 25 22 24 21 22 28 25 23 21 22 21 23 24 25 22 23 23 19 20 19 19 29 22 24 23 23 21 21 25 23 23 23 23 23 20 19 18 17 19 21 21 21 18 17 20 18 21 20 26 22 18 17 17 15 11 14 14 12 15 15 12 13 12 7 5 8 10 12 11 10 12 
32 31 30 30 29 31 24 29 29 23 23 28 22 22 26 30 22 23 25 23 21 26 25 22 23 21 19 21 20 20 26 26 20 23 22 22 20 26 25 24 23 22 21 19 20 20 20 18 17 19 18 15 18 19 21 16 18 24 20 16 18 16 17 14 15 17 12 18 13 15 12 14 8 10 10 8 12 7 11 15 
30 32 32 29 27 28 28 29 25 26 23 25 22 20 24 26 21 23 23 19 19 21 20 18 20 25 22 22 20 21 20 25 21 24 21 20 20 24 21 21 17 21 20 18 17 24 19 17 17 17 17 16 17 19 22 19 20 20 17 19 16 15 15 16 13 15 12 13 14 13 15 15 10 12 11 10 9 11 10 11 
31 32 32 30 27 31 31 27 26 23 27 28 22 24 25 26 26 23 21 22 21 21 24 19 22 20 22 21 19 20 21 23 25 22 23 20 17 20 19 21 19 18 18 17 21 19 19 19 21 16 16 17 20 21 22 20 17 24 22 17 20 14 14 17 12 17 11 14 18 14 14 11 12 11 10 11 7 16 10 13 
28 28 31 33 31 30 28 30 27 25 26 32 23 25 29 27 22 26 21 21 24 22 25 26 20 20 24 20 21 17 21 23 26 23 24 20 22 21 21 21 21 23 20 23 22 16 18 18 16 18 16 16 24 18 21 17 15 20 18 15 18 16 14 14 14 15 14 15 16 16 12 12 11 11 13 10 10 11 7 15 
29 31 30 29 31 31 29 26 26 25 25 26 24 23 26 27 22 25 24 22 21 25 27 22 21 25 19 23 22 20 24 24 23 21 20 23 20 24 19 18 20 21 21 18 17 16 17 20 18 15 14 18 21 18 18 19 19 16 15 18 16 13 14 14 14 13 13 13 15 14 16 16 10 12 9 7 8 13 7 12 
31 32 30 28 30 29 27 26 29 25 29 29 25 21 27 23 19 22 24 23 24 21 23 20 21 22 21 22 19 24 34 25 20 18 21 17 19 24 20 20 22 23 21 18 16 18 18 18 21 17 16 15 20 16 20 17 15 20 16 20 18 13 20 11 14 10 17 12 14 14 11 15 13 13 11 10 10 16 10 14 
32 31 27 28 27 27 31 27 28 24 24 26 31 24 25 23 21 20 22 25 22 21 23 23 24 23 22 19 20 19 25 24 20 22 21 22 20 21 18 20 18 23 17 18 13 15 17 16 17 18 18 15 20 21 17 18 17 19 18 16 19 13 13 13 13 15 15 13 16 18 18 15 15 10 12 12 14 12 13 10 
29 26 29 30 28 29 29 30 23 25 23 28 29 24 26 29 21 24 23 22 21 23 22 21 22 23 25 20 17 16 22 22 22 17 21 20 20 21 23 22 18 17 18 14 14 17 15 17 16 17 16 18 19 17 19 19 15 16 17 18 25 14 15 14 14 17 14 15 13 12 12 16 14 11 14 16 10 10 11 17 
26 28 26 25 26 28 32 32 26 25 25 25 24 26 24 27 21 27 23 20 22 24 22 21 17 18 22 20 16 14 18 20 18 19 19 16 18 21 18 17 17 18 21 16 18 16 17 16 19 21 17 18 19 15 14 15 17 16 15 14 18 14 15 13 16 14 16 14 16 14 16 13 14 11 11 11 11 15 11 13 
25 26 25 25 25 27 28 29 27 26 23 27 26 26 28 24 17 24 20 25 22 23 19 19 21 19 18 20 15 19 17 19 17 17 19 15 15 19 20 17 14 17 20 18 17 16 14 16 16 16 13 12 18 18 14 14 14 17 12 15 14 12 11 18 16 16 15 15 12 12 11 12 12 12 11 12 13 13 9 11 
25 24 29 24 27 27 27 29 28 28 25 28 26 23 29 27 19 21 23 21 21 22 22 22 19 20 17 19 18 16 20 17 15 18 16 18 18 20 17 16 16 17 17 18 17 19 16 17 17 15 17 14 17 19 16 14 17 18 19 14 16 16 16 14 17 13 15 16 15 13 14 12 12 12 12 11 13 15 11 14 
26 26 27 28 26 26 29 29 28 25 23 25 20 20 30 25 21 25 20 22 19 21 23 22 22 19 18 21 15 15 18 17 16 17 20 17 15 17 15 18 15 15 17 18 16 17 15 16 18 14 14 13 16 15 16 20 14 15 13 14 15 11 14 13 12 12 14 11 14 14 14 11 15 14 14 14 12 16 7 12 
28 26 28 29 27 29 29 29 27 23 25 26 20 21 26 22 16 19 19 20 17 19 20 19 20 20 21 20 16 16 20 17 17 17 18 18 17 18 17 16 17 18 20 21 15 16 16 17 16 14 16 14 20 16 17 15 16 18 12 15 18 13 12 12 13 13 15 13 12 15 14 13 13 12 12 9 8 11 10 12 
28 28 30 26 27 30 26 27 29 26 25 25 21 24 20 22 19 20 20 22 19 18 19 19 19 21 17 20 17 17 21 17 17 18 17 16 20 18 18 18 17 20 18 16 14 14 13 17 15 19 16 13 17 15 16 15 12 18 14 14 13 14 14 15 13 14 16 15 12 16 13 13 15 8 16 9 7 12 9 15 
30 30 32 26 28 28 29 25 28 27 25 24 26 21 26 21 17 21 23 20 18 17 21 19 17 19 17 18 16 20 20 23 17 17 17 16 17 21 16 16 17 20 18 20 17 19 17 16 17 15 15 14 19 14 13 9 13 15 16 15 18 13 14 12 15 15 18 15 14 13 14 13 10 13 11 11 12 11 7 14 
28 30 29 30 24 27 30 25 27 22 23 21 26 21 26 23 24 18 19 18 19 21 17 20 21 21 20 19 18 19 19 21 14 16 18 17 19 16 17 18 17 21 23 20 17 17 17 17 20 15 16 15 16 13 15 17 15 19 11 15 15 14 12 17 15 14 15 14 12 11 13 13 13 12 12 10 9 12 8 13 
26 22 30 26 22 28 27 26 25 25 24 23 24 18 21 22 21 20 20 17 19 21 20 21 21 18 20 20 19 16 18 20 16 18 16 16 15 18 16 22 20 19 20 19 17 17 14 18 17 20 15 13 16 17 19 15 14 15 12 13 13 15 14 13 15 16 15 14 13 17 13 12 13 12 13 6 8 13 6 14 
25 29 29 28 26 29 27 28 28 22 24 23 26 19 23 24 18 20 27 20 21 19 18 20 21 20 21 20 19 18 19 17 17 18 14 16 19 19 17 17 17 22 21 21 17 17 15 17 18 18 23 16 17 15 18 15 13 18 14 12 16 15 12 16 15 16 14 16 21 15 16 11 14 12 13 10 9 12 9 16 
23 28 28 23 29 28 26 27 28 23 22 27 26 22 23 22 20 18 21 20 19 22 19 23 21 22 20 23 18 20 19 19 14 18 17 13 13 20 14 19 18 21 21 18 17 17 12 16 16 17 15 15 17 13 12 16 15 18 11 16 16 15 13 14 17 14 20 16 13 10 12 12 12 13 11 10 13 14 11 11 
26 25 27 23 27 28 24 25 26 22 20 26 29 18 20 20 23 21 21 18 21 20 22 19 21 22 19 20 19 15 18 17 20 17 19 15 16 19 17 12 13 20 18 17 17 20 17 17 14 13 14 14 13 15 17 14 14 18 14 12 12 15 14 12 14 18 13 12 13 12 9 11 12 14 11 12 11 14 9 17 
26 26 28 25 27 29 25 26 25 24 22 23 24 22 24 20 21 24 22 20 12 21 17 20 21 18 15 19 18 19 19 18 18 19 17 14 17 21 19 17 14 22 17 20 16 15 18 20 16 14 14 16 16 15 16 16 17 16 16 13 15 17 13 15 15 15 12 13 10 12 13 13 13 11 12 7 12 16 8 11 
25 26 25 27 27 26 28 26 27 23 23 27 24 22 22 21 21 25 20 18 19 18 22 20 21 18 14 20 16 16 21 21 17 18 15 17 16 19 16 17 14 15 20 17 17 13 13 16 16 18 19 18 16 14 17 18 16 18 13 10 17 16 14 14 14 14 13 11 14 13 13 11 11 8 9 8 9 14 10 14 
26 27 28 24 25 25 30 26 25 24 23 24 27 23 23 19 20 26 19 19 19 21 19 22 19 15 14 17 17 18 22 18 15 16 17 17 15 19 15 16 19 20 18 18 17 15 14 14 17 15 16 18 19 15 17 18 17 15 11 12 13 14 11 12 12 14 14 13 16 10 15 12 15 13 13 10 10 13 13 11 
27 30 34 24 27 26 30 27 27 26 27 25 21 23 22 21 21 23 17 19 21 20 16 17 18 18 16 16 16 20 19 17 17 19 17 17 17 22 18 18 16 18 18 16 16 16 15 14 17 18 17 16 19 16 19 21 17 16 13 13 13 12 12 14 13 12 13 13 13 14 12 10 10 9 11 13 12 15 7 12 
28 28 27 27 25 27 28 25 28 25 25 22 27 28 21 23 19 19 19 19 19 19 18 20 19 21 18 20 16 16 16 17 17 18 17 17 18 19 17 20 16 17 16 16 14 18 18 16 18 17 18 15 20 15 18 16 14 16 11 12 14 16 14 11 13 13 14 13 14 12 13 11 7 12 11 11 9 13 13 18 
24 30 28 27 24 29 26 24 24 23 24 23 26 24 22 20 18 17 21 20 18 17 20 18 20 20 18 18 16 17 18 19 19 19 16 15 17 19 17 17 16 17 16 15 19 18 16 18 16 19 19 22 22 20 20 14 15 15 15 12 11 11 11 13 14 13 12 9 11 9 11 13 8 15 13 9 12 13 11 15 
25 26 31 26 26 27 25 25 22 24 22 22 23 22 24 23 17 20 19 17 16 17 21 19 19 19 19 17 17 14 16 17 20 16 20 17 24 21 18 18 15 18 18 14 19 18 17 18 18 18 16 18 18 20 16 16 15 16 11 12 13 13 11 12 16 15 9 8 12 9 10 12 11 12 10 10 8 16 13 17 
27 26 28 24 26 25 25 24 25 22 26 24 26 24 25 20 20 18 21 18 16 17 18 18 17 21 17 17 16 17 16 16 16 16 18 19 20 21 17 16 18 19 17 20 19 18 16 18 19 16 17 15 19 16 18 15 16 15 13 13 11 14 12 17 13 14 15 11 13 11 9 15 11 10 8 9 14 16 15 17 
26 26 25 26 26 26 24 25 24 24 26 28 27 22 24 22 20 20 23 20 19 16 19 18 20 21 18 16 15 13 19 21 17 17 19 17 16 20 17 18 18 18 16 20 18 17 18 26 19 18 17 13 16 17 15 14 15 16 13 12 14 15 13 13 17 13 15 12 15 11 13 16 10 11 9 9 10 16 12 12 
26 28 26 27 26 26 25 22 24 18 23 21 25 22 24 21 18 18 19 19 21 21 21 17 19 17 16 16 13 13 19 19 19 16 18 16 18 18 17 17 18 18 17 17 17 21 17 19 20 16 16 16 19 13 16 11 10 17 12 14 13 14 13 15 13 16 12 17 14 12 10 18 12 9 10 9 11 13 9 19 
25 24 23 25 27 21 23 22 23 20 22 26 21 19 29 27 21 18 18 21 20 20 16 17 18 17 17 14 12 15 19 20 20 15 17 17 17 21 18 16 15 20 17 19 19 22 16 14 15 17 16 16 14 12 16 14 13 13 9 12 13 12 12 15 13 15 13 17 14 15 12 12 9 9 11 8 9 14 11 13 
26 25 24 23 23 20 23 21 24 21 22 20 23 18 26 21 19 23 18 21 19 20 18 15 18 18 20 15 14 16 16 17 15 15 19 16 14 20 17 14 19 19 18 16 22 19 16 18 19 15 13 14 17 15 15 15 13 14 12 13 12 14 13 13 12 15 12 15 13 10 10 12 9 10 10 5 11 10 13 13 
24 26 26 23 19 21 23 23 25 24 22 22 23 20 22 24 21 19 16 17 23 19 20 18 14 20 17 15 15 15 16 15 14 16 18 13 14 16 16 14 15 19 14 17 20 15 17 19 18 15 15 13 18 11 14 13 15 16 12 12 17 13 13 12 12 13 12 14 12 11 11 9 12 12 9 9 9 11 6 16 
23 26 26 22 21 22 22 23 25 21 22 22 19 20 22 24 17 20 19 22 19 18 21 19 15 16 17 19 12 14 14 16 15 16 20 15 17 18 17 16 14 16 13 18 14 17 15 17 16 15 14 12 17 14 15 14 14 13 12 14 13 13 11 12 10 11 12 13 10 7 10 12 10 7 7 5 10 10 7 6 
24 24 25 22 23 21 24 24 23 26 21 21 22 18 24 27 17 22 18 17 17 18 20 19 16 17 16 21 15 15 16 16 14 17 18 14 15 21 18 15 14 17 14 16 15 15 15 13 14 15 14 13 15 16 16 14 14 14 10 11 11 12 12 10 10 12 10 11 10 8 10 11 12 9 13 8 8 13 8 12 
22 24 22 21 23 26 21 18 22 20 21 23 24 20 26 24 15 22 18 22 18 16 13 17 15 15 16 16 18 12 16 13 18 17 15 16 15 16 19 14 13 14 16 13 14 14 14 13 15 12 15 13 17 12 17 14 12 11 14 15 14 12 9 11 10 8 9 12 13 8 9 9 9 6 8 10 8 11 2 9 
19 22 25 15 23 23 25 24 23 24 23 24 22 22 26 22 17 20 17 21 23 15 12 15 16 16 14 15 10 15 14 14 17 13 21 18 17 17 16 13 14 16 15 15 17 14 18 12 15 14 15 13 14 18 17 17 14 14 14 15 14 12 9 12 10 11 11 11 11 10 13 11 6 10 8 9 8 9 4 11 
19 24 24 22 26 24 23 21 21 24 20 22 20 19 21 23 15 19 17 20 17 15 17 14 17 17 16 14 11 11 14 16 15 15 15 15 16 18 17 15 15 15 15 16 15 13 13 12 17 15 13 14 17 15 19 18 17 15 15 16 12 11 9 9 11 12 9 11 12 9 10 9 8 5 12 10 5 6 10 10 
23 23 21 25 30 26 23 23 21 25 21 21 20 19 21 23 15 16 17 17 15 15 16 15 19 16 14 18 14 14 12 15 14 17 14 15 13 13 15 13 11 16 15 14 13 12 16 15 13 15 15 14 18 13 17 15 18 16 14 12 13 13 12 7 10 8 9 10 10 9 8 12 8 7 5 6 5 8 6 9 
21 22 22 21 23 25 24 24 21 21 26 22 22 16 18 18 16 12 16 13 16 16 12 13 17 16 18 14 14 13 13 12 11 15 15 15 13 15 12 13 13 14 12 13 13 13 11 11 12 13 15 12 13 19 15 17 15 15 12 12 12 10 10 10 9 10 7 8 10 9 9 7 1 8 9 6 7 6 3 13 
16 20 21 22 21 19 23 23 21 22 21 20 24 23 21 15 12 13 16 18 18 16 13 17 13 15 13 17 13 11 11 14 16 14 14 12 11 13 12 13 10 11 11 11 14 11 13 10 14 12 15 12 19 13 14 15 20 15 10 11 10 14 8 10 11 9 9 8 8 10 15 9 8 12 4 6 6 8 5 15 
16 21 18 18 22 21 20 21 23 22 20 24 32 26 24 17 14 15 17 15 17 13 14 12 12 11 15 13 9 15 11 13 11 15 11 11 14 16 10 12 12 14 9 12 14 11 15 12 15 14 11 12 13 13 16 17 12 12 11 14 14 11 9 10 12 10 9 8 7 10 9 7 6 6 9 12 6 8 2 8 
21 20 20 16 24 20 23 19 22 22 21 19 25 24 27 26 14 21 18 15 17 15 15 13 12 11 11 12 10 7 12 13 10 16 13 11 13 13 14 15 13 14 11 12 15 12 14 19 16 14 13 12 12 12 16 11 10 12 9 9 9 8 10 10 11 10 5 9 7 9 7 12 11 9 8 5 7 9 8 13 
18 18 22 18 17 21 18 20 23 23 18 19 22 16 22 17 17 14 17 15 16 15 14 14 14 10 13 12 12 12 10 11 12 15 12 12 12 16 13 13 11 13 16 12 12 11 11 14 15 15 14 12 17 11 16 12 11 10 9 10 10 9 7 10 11 11 8 5 8 9 8 7 7 5 8 7 8 11 5 5 
22 16 18 17 17 18 22 19 21 19 18 20 23 22 23 17 15 16 13 15 14 15 15 17 11 13 12 12 11 13 13 13 12 14 13 15 15 16 15 16 13 13 17 14 12 13 12 12 16 16 14 13 18 13 21 15 13 11 12 9 13 10 8 8 10 11 8 9 6 12 8 7 8 8 10 8 7 11 5 12 


