P2
80 60
83
69 72 71 70 64 62 71 67 72 68 70 72 70 70 71 75 74 69 65 68 69 75 73 70 71 70 71 68 68 68 69 68 70 68 69 69 68 68 70 73 71 72 74 72 70 70 77 76 74 75 74 77 76 77 79 80 78 78 78 76 77 77 76 73 70 73 67 68 71 73 70 69 75 74 78 66 64 68 61 64 
70 71 71 71 65 66 65 70 68 70 66 69 68 68 72 68 68 69 68 66 67 67 68 71 68 73 68 68 68 66 68 72 68 66 71 69 68 68 69 70 70 71 72 73 73 70 74 75 74 73 75 74 72 76 81 81 76 77 77 76 76 74 72 70 73 70 67 70 70 73 64 69 73 73 76 69 66 62 60 62 
70 69 70 68 65 62 73 69 67 72 69 69 67 70 67 71 70 67 66 68 70 72 67 68 70 70 68 68 65 66 69 71 69 69 68 68 66 71 70 68 68 70 70 70 73 68 78 73 74 74 74 78 73 73 75 79 77 74 76 74 75 74 71 70 70 70 67 72 70 71 74 71 69 73 69 64 67 64 59 61 
72 72 70 69 67 65 71 73 68 70 74 69 68 71 71 70 70 70 67 67 72 76 66 67 68 70 68 70 67 66 64 67 65 63 66 66 70 73 69 69 69 70 74 71 73 72 77 75 77 75 75 75 73 76 73 76 72 75 76 76 80 76 71 69 71 66 69 70 72 73 74 73 73 72 70 62 66 66 63 65 
72 69 71 71 69 65 71 68 69 70 70 69 68 70 67 76 72 70 72 72 70 75 67 74 71 72 77 69 63 62 62 64 65 64 62 67 69 70 70 69 69 72 73 72 76 70 76 77 72 78 75 76 75 72 76 79 73 75 77 75 75 74 75 75 74 70 69 72 76 71 71 70 74 76 69 66 65 70 61 67 
67 70 70 71 66 68 69 70 73 72 68 68 70 70 72 72 69 71 73 68 67 73 71 73 74 76 72 68 61 57 63 62 59 61 64 66 66 71 67 72 71 74 74 70 76 71 80 79 74 76 75 77 77 74 76 79 76 78 77 77 75 76 77 69 74 69 69 71 73 75 74 69 73 70 74 65 70 67 62 62 
69 71 72 73 70 66 71 67 67 68 68 70 68 69 70 72 74 72 71 70 69 74 72 71 70 71 70 66 61 58 62 63 61 62 64 65 64 70 71 72 73 71 70 71 71 71 73 76 72 73 75 79 76 72 77 80 78 78 81 79 78 74 71 71 73 73 69 75 70 72 73 68 72 72 72 71 67 64 59 63 
71 74 73 71 72 69 69 72 71 68 72 71 69 74 72 71 74 72 72 67 76 75 75 66 68 69 69 70 66 67 66 65 62 63 69 69 69 68 68 70 72 73 70 71 73 70 77 77 74 75 76 77 79 77 76 82 76 76 76 79 78 74 73 72 73 71 70 71 71 77 70 72 76 78 70 65 68 66 63 62 
77 81 73 71 71 69 69 71 67 74 68 69 69 69 70 66 71 75 73 68 69 73 69 68 71 69 70 69 67 66 68 67 64 68 68 68 66 69 69 70 71 70 69 71 71 68 75 74 72 76 75 77 76 74 74 82 76 77 75 81 78 75 77 73 73 73 71 72 72 71 68 70 74 71 67 69 72 61 59 58 
77 76 74 75 74 69 71 70 71 69 70 68 70 69 70 71 74 69 69 64 71 75 72 67 70 67 69 68 67 66 67 64 70 68 69 68 69 69 71 72 68 70 71 70 73 72 75 75 74 76 76 76 78 73 76 80 74 77 77 78 77 78 72 74 71 71 71 70 73 73 69 70 74 72 72 70 69 63 57 60 
75 75 77 76 73 69 76 73 70 72 71 71 71 72 71 70 74 67 69 68 66 71 71 65 67 68 67 69 68 64 65 69 65 65 62 66 69 69 71 71 73 72 70 70 72 71 73 73 74 75 74 75 75 70 76 80 75 74 78 76 76 75 72 72 72 75 70 67 69 75 72 68 71 70 72 69 67 64 59 59 
75 76 74 75 72 70 74 74 68 68 70 68 69 69 66 67 68 68 69 68 69 70 70 65 64 68 66 70 67 64 64 70 67 66 65 63 67 70 71 70 72 71 71 69 73 72 73 75 72 73 72 76 72 74 79 78 73 74 74 74 77 75 70 69 69 72 69 73 72 68 69 68 70 72 69 72 68 62 58 58 
76 76 76 72 69 68 72 70 67 72 69 72 68 68 67 71 71 67 69 68 68 71 68 67 66 67 65 69 66 65 67 64 65 66 64 61 67 69 75 75 70 69 73 71 76 73 75 75 73 76 77 73 70 73 72 79 80 76 75 73 75 73 76 71 72 71 70 70 65 70 61 68 68 66 72 69 63 63 61 62 
76 75 76 73 73 68 70 71 67 70 67 70 66 69 67 73 69 66 66 66 67 72 66 66 67 70 64 64 65 65 68 69 64 65 66 64 70 72 69 72 69 72 70 71 71 75 75 78 71 79 75 76 72 69 73 79 77 78 77 77 74 74 73 70 71 71 72 75 68 69 68 65 68 66 66 71 69 64 60 57 
72 74 77 73 69 64 72 69 69 65 66 66 67 68 68 69 65 66 67 62 66 66 65 71 65 69 64 64 64 60 68 65 64 62 62 67 68 69 67 71 69 70 73 69 74 73 73 74 72 75 69 73 71 71 75 79 80 81 81 79 73 73 71 68 69 72 70 69 75 72 68 68 69 67 66 63 68 65 64 56 
72 74 74 74 69 66 67 73 69 64 67 68 64 68 67 70 70 65 67 67 67 69 68 64 66 67 64 61 60 58 63 60 61 62 61 67 66 68 71 71 71 70 70 67 69 71 72 73 71 75 70 73 74 71 75 79 76 83 81 76 74 73 72 70 71 78 68 70 73 75 70 69 66 68 70 67 68 66 55 61 
74 75 77 73 69 68 71 70 70 67 67 65 67 66 69 70 68 68 67 66 68 66 67 65 65 67 56 58 56 53 55 58 61 54 58 62 64 70 68 71 67 69 67 67 68 72 72 72 70 73 72 74 69 70 74 79 73 78 80 76 73 73 71 71 69 74 66 72 74 76 74 71 71 74 70 63 65 65 62 57 
74 75 74 74 70 68 69 69 67 66 67 68 63 68 71 67 70 65 68 66 67 68 66 66 67 66 64 61 56 57 56 57 57 59 58 62 66 65 66 70 67 65 66 67 71 65 73 70 72 68 67 72 71 74 76 78 74 80 77 78 81 71 69 72 68 68 67 68 70 73 72 71 78 74 71 69 68 65 63 59 
74 78 75 78 72 69 68 68 68 66 69 71 69 68 70 70 71 68 71 66 69 66 69 71 66 71 68 60 61 59 62 55 60 60 60 64 68 67 69 70 69 68 68 70 71 68 71 71 70 71 69 73 75 73 74 78 76 74 76 72 76 72 71 69 70 73 70 72 73 73 73 68 76 70 66 67 66 62 59 57 
76 75 74 75 72 70 72 70 67 67 71 70 68 66 71 72 70 69 70 68 68 69 76 66 71 70 63 63 60 55 57 61 56 56 57 63 65 68 67 68 71 66 69 70 69 67 71 73 70 72 69 72 73 70 72 76 76 72 72 73 71 72 68 70 70 73 69 71 70 72 70 71 72 66 66 64 66 60 59 58 
77 76 75 72 69 68 67 72 68 71 71 68 68 68 71 67 71 68 68 70 69 69 71 70 69 70 64 61 58 59 72 57 55 54 57 61 66 66 68 70 71 67 69 67 66 69 70 75 71 69 67 71 73 68 75 74 71 74 77 73 74 70 71 66 69 66 67 67 69 73 71 72 69 68 66 61 65 61 56 60 
75 71 75 74 72 67 71 70 70 72 68 68 74 68 71 70 70 70 69 69 67 71 74 70 67 68 62 61 58 55 63 57 58 59 52 59 66 64 70 70 66 70 66 68 63 66 69 67 67 71 71 68 67 67 71 73 72 77 76 70 70 72 69 68 62 70 72 67 71 76 70 73 70 68 69 67 65 63 61 58 
74 72 73 75 70 70 70 74 68 68 73 68 70 72 67 70 70 70 70 67 68 68 66 67 71 71 60 61 56 54 57 56 53 53 52 59 66 64 68 73 66 65 63 63 66 64 70 67 65 72 70 70 70 68 72 73 74 71 75 74 73 73 74 71 70 65 67 71 69 70 70 69 71 72 66 60 63 65 59 59 
77 75 78 75 70 70 75 77 72 69 71 71 66 70 70 73 71 73 69 69 67 69 68 71 67 67 65 60 53 53 59 54 56 52 56 61 66 65 67 67 70 66 66 65 68 64 72 66 69 72 73 74 71 70 68 74 73 75 75 74 72 73 69 70 72 70 71 71 70 72 72 69 72 71 67 63 64 64 58 60 
74 74 69 72 69 71 71 72 71 71 71 71 67 70 72 72 68 70 70 70 66 72 68 70 71 68 60 59 57 53 57 53 52 55 58 61 62 65 67 67 66 66 68 67 68 67 69 68 67 69 69 69 70 67 69 72 75 74 70 70 75 73 68 68 66 69 71 73 66 70 67 70 67 72 73 68 69 66 60 60 
71 70 73 74 72 70 69 72 69 69 66 69 68 69 73 72 72 70 71 70 70 71 72 76 72 70 63 59 55 55 57 53 53 54 53 60 66 64 63 69 69 67 68 66 65 69 67 69 64 68 67 70 68 69 71 74 70 72 74 70 71 68 66 70 72 73 69 68 65 69 69 67 70 73 69 67 63 62 55 62 
72 70 72 75 70 69 72 69 68 69 71 71 68 68 70 70 70 71 63 69 71 73 76 78 72 69 64 59 55 52 56 50 53 56 51 59 63 61 64 65 66 64 67 66 68 68 66 68 65 68 67 68 68 65 70 71 70 67 71 76 70 67 68 69 68 67 68 66 67 67 69 71 68 71 69 66 63 63 58 58 
73 73 74 74 70 70 71 72 70 69 68 71 70 70 69 69 69 68 71 70 69 71 76 75 74 67 62 61 57 52 56 52 51 52 53 62 65 61 66 65 68 63 68 68 66 64 67 66 64 65 69 69 67 66 71 73 69 67 71 72 74 69 67 66 64 67 63 65 63 71 68 67 68 71 71 66 64 64 59 61 
73 72 74 80 70 69 73 74 71 71 69 68 68 69 69 70 68 66 70 72 72 72 74 78 73 72 62 59 60 59 58 52 51 55 55 63 62 64 65 65 67 67 67 62 66 65 67 65 66 68 67 67 68 68 68 70 70 70 69 69 68 67 65 69 64 69 66 66 65 72 66 65 69 71 69 67 68 63 56 58 
73 74 78 78 71 69 71 70 70 70 70 67 71 71 71 73 66 65 72 70 71 72 72 77 71 66 61 59 54 54 53 54 49 49 50 57 62 67 65 64 67 68 65 65 66 66 68 65 63 64 66 66 66 64 69 67 68 69 71 68 67 70 66 68 69 70 70 70 63 71 69 64 68 69 64 64 64 61 57 56 
76 77 76 79 71 67 71 70 70 70 69 68 70 73 71 76 72 69 69 71 73 73 75 75 71 69 61 61 51 52 56 50 48 52 52 60 64 66 64 63 72 68 67 67 67 65 69 66 68 66 66 67 65 64 72 70 68 68 67 70 71 68 66 70 68 68 70 69 66 70 68 68 67 69 68 64 63 59 59 55 
75 68 77 75 72 67 69 67 68 71 71 70 71 70 68 72 73 68 72 68 70 71 73 75 72 68 63 59 55 52 56 49 52 50 51 56 64 61 63 64 70 67 65 69 65 63 68 67 64 69 65 66 63 65 69 71 67 66 68 68 65 70 66 67 67 67 70 67 67 70 67 65 68 67 66 62 60 60 55 57 
73 74 73 72 70 67 69 73 69 68 67 66 69 68 66 68 68 68 69 67 71 69 73 73 67 65 58 58 53 49 52 47 51 50 48 56 61 61 64 62 69 66 68 66 65 62 65 63 62 66 68 66 66 64 67 69 68 66 69 66 68 69 67 66 69 68 68 69 68 69 68 62 68 62 64 63 63 59 54 55 
73 70 73 73 71 71 70 70 68 69 72 68 70 70 65 70 72 69 67 67 73 71 78 77 71 70 58 54 52 54 56 49 52 49 49 53 58 62 61 64 66 66 64 64 65 65 66 65 61 64 65 67 64 66 67 69 68 68 68 67 67 70 65 68 67 67 70 68 68 68 69 61 67 69 65 63 62 60 54 55 
73 69 72 74 68 70 70 66 68 70 70 70 69 69 69 69 73 71 71 71 68 74 73 73 74 66 55 55 52 49 54 51 49 49 48 55 58 63 61 61 63 66 64 66 65 70 68 66 62 64 63 63 64 66 67 70 68 68 70 68 68 67 65 67 67 67 65 64 66 68 68 63 68 67 64 63 63 58 53 57 
72 73 75 74 71 72 68 70 65 67 68 71 74 71 69 72 70 73 69 71 73 71 79 76 72 63 56 54 49 48 56 48 50 45 52 60 59 59 62 62 64 65 62 64 62 64 65 69 62 63 64 66 63 66 68 71 68 69 69 70 67 65 65 66 68 66 65 67 68 67 66 66 68 65 62 60 60 64 55 54 
71 70 76 74 69 72 71 71 69 65 68 65 70 72 71 73 71 71 69 72 71 74 75 76 71 64 58 54 51 50 55 52 46 49 52 56 59 60 58 59 61 59 62 64 61 62 64 63 63 62 63 68 64 63 67 70 65 68 66 67 70 64 65 65 65 68 64 64 63 67 69 64 68 63 63 61 65 62 56 55 
71 77 78 75 68 70 73 70 67 65 69 72 71 70 68 67 70 75 69 69 72 72 76 77 72 65 55 53 56 45 53 47 51 48 51 58 57 58 59 61 61 61 62 62 63 62 64 65 63 58 65 64 61 61 66 70 65 65 65 63 65 64 61 65 66 68 64 65 65 68 64 62 65 64 64 61 63 64 56 58 
75 74 78 74 67 69 68 69 69 66 72 70 66 69 70 69 69 74 71 72 72 73 76 73 69 64 55 52 52 48 51 47 44 50 51 57 56 59 61 61 61 59 63 61 60 60 63 62 63 62 64 64 60 63 65 69 68 66 67 63 65 63 62 64 65 62 63 66 60 66 66 61 60 67 62 60 63 61 57 59 
70 68 72 74 70 71 69 69 68 70 70 67 67 73 69 70 68 69 67 74 74 71 75 79 70 68 57 52 50 48 50 48 45 49 51 55 57 54 58 63 55 60 61 60 60 62 63 61 63 63 66 65 63 66 67 65 67 65 64 65 61 65 60 62 63 61 61 65 62 65 62 60 63 64 65 66 58 60 58 62 
69 72 73 73 69 68 71 69 69 66 72 70 69 71 68 69 65 70 65 67 72 72 74 75 69 68 61 52 46 47 51 46 50 48 53 55 55 55 59 60 60 60 58 58 63 62 61 65 60 66 62 63 63 62 65 68 64 63 64 62 64 61 60 61 64 60 61 59 59 58 62 64 58 64 60 65 61 62 59 58 
70 72 73 73 69 67 69 71 64 69 67 70 70 68 69 66 71 71 60 65 71 70 74 68 71 61 55 47 48 41 48 49 45 45 46 53 56 58 55 58 57 63 59 58 61 63 60 62 63 61 61 61 57 64 63 65 64 63 64 60 64 64 62 61 64 62 57 60 57 59 63 62 65 64 58 58 60 60 59 56 
72 71 71 72 70 66 73 71 67 69 72 67 69 72 68 68 70 68 65 65 69 70 72 71 64 62 54 45 47 43 49 48 42 42 48 56 56 57 57 60 56 54 55 60 60 60 62 65 63 61 62 57 54 62 62 68 63 61 64 63 64 65 62 62 61 62 58 60 59 61 60 63 61 60 57 58 56 57 55 60 
73 70 71 72 72 68 69 71 67 68 68 69 71 71 70 67 68 67 71 69 69 71 72 69 66 64 51 46 45 43 48 48 44 42 52 52 54 57 56 58 53 55 57 58 59 63 63 67 62 63 62 60 59 61 64 65 64 62 64 64 64 64 60 58 62 64 61 60 59 64 62 59 60 59 57 56 57 55 52 57 
71 72 68 70 67 66 67 68 66 68 69 70 67 69 68 69 68 70 67 68 75 71 75 74 69 64 51 48 47 41 46 45 43 44 46 53 55 55 57 55 56 59 57 57 63 61 62 62 60 59 57 59 60 59 62 66 60 61 59 64 62 59 61 61 58 60 61 63 62 63 60 60 63 58 55 59 58 58 52 56 
68 73 68 69 69 62 67 65 69 66 67 66 67 68 72 74 72 68 61 71 73 73 70 70 67 62 51 46 42 42 49 43 41 44 49 55 52 55 52 56 55 58 56 60 61 63 59 60 57 55 58 59 57 61 63 63 62 59 61 60 61 62 59 57 58 65 61 58 61 61 60 58 59 64 59 55 55 58 51 59 
70 69 67 66 65 63 68 68 68 67 67 65 66 69 69 69 66 69 64 73 68 72 77 71 67 60 54 47 45 43 47 44 43 41 48 54 49 52 51 55 53 54 55 57 60 60 58 61 55 56 57 57 57 59 64 64 62 61 61 59 61 61 63 61 57 63 59 61 61 59 59 61 62 59 62 56 56 54 51 54 
70 71 68 67 64 66 68 69 62 66 65 67 67 67 71 73 73 71 66 66 70 73 73 70 66 60 49 45 46 44 45 37 42 39 45 49 53 52 53 57 52 57 52 57 59 58 62 59 55 58 60 56 55 59 59 65 59 62 59 59 61 63 61 61 60 60 57 59 61 61 61 60 63 60 56 56 55 50 50 49 
75 70 68 66 64 60 65 68 63 70 67 66 65 70 71 71 70 71 71 69 68 70 81 71 67 61 51 44 42 41 44 39 39 38 43 48 50 55 51 55 53 55 53 56 56 57 57 57 51 56 57 56 54 57 63 62 61 59 63 61 62 56 59 58 59 59 61 60 60 61 59 60 63 56 55 55 57 52 49 48 
70 73 67 67 65 62 64 65 63 66 66 65 66 68 69 70 69 71 70 68 67 71 71 70 64 58 45 48 44 41 42 43 36 41 43 43 50 48 53 53 51 53 51 56 56 53 56 54 50 52 55 53 54 62 63 62 61 58 62 62 61 61 59 58 57 58 59 58 58 62 63 59 58 61 56 55 56 53 48 47 
70 70 72 61 64 59 66 65 65 64 63 69 67 67 69 72 69 70 67 69 65 70 70 70 63 56 48 46 43 38 42 41 38 42 41 46 50 50 52 50 52 49 51 54 56 52 57 53 51 50 54 54 55 62 64 61 61 60 60 61 62 63 61 60 58 56 57 57 62 62 61 57 57 56 52 55 52 52 46 45 
69 71 69 73 69 69 65 65 66 61 66 70 67 70 67 70 69 66 67 70 71 66 74 67 65 61 51 40 39 39 44 38 43 38 43 48 48 49 48 50 48 51 50 53 54 54 56 54 52 52 54 56 56 62 65 65 61 61 60 61 61 60 58 59 60 58 58 59 61 61 59 62 58 57 50 51 49 48 52 47 
68 67 70 71 68 65 67 66 63 66 65 67 63 65 65 69 65 65 67 68 70 67 71 68 64 58 46 43 40 40 43 36 34 35 42 47 49 46 49 47 47 49 49 52 53 52 54 55 51 53 54 55 54 58 61 65 62 58 62 61 58 60 59 55 59 58 58 60 63 61 57 58 62 59 58 49 48 51 42 46 
72 69 69 70 70 67 67 64 65 65 66 66 65 66 66 66 65 65 64 68 64 69 70 68 66 56 45 41 44 35 37 35 34 37 38 45 43 46 46 46 46 46 46 49 53 50 53 51 48 53 54 50 52 57 60 63 62 62 63 59 58 61 56 55 56 56 56 60 58 59 62 56 60 59 60 54 49 50 39 47 
70 68 68 66 67 67 65 63 64 71 67 65 66 65 64 69 65 63 63 67 66 67 67 65 58 44 43 37 38 37 40 33 33 35 37 42 44 47 45 44 44 46 47 50 52 53 51 55 47 49 52 53 51 58 60 62 60 60 62 58 58 56 55 55 55 60 56 57 59 61 59 56 56 56 54 49 51 45 46 46 
63 64 64 65 61 61 65 69 63 70 67 66 66 71 65 68 63 63 67 70 67 71 72 64 57 37 19 32 37 37 44 32 39 35 39 41 41 42 42 43 39 46 44 49 51 49 54 52 50 49 52 53 55 53 62 63 56 58 58 60 58 64 56 56 55 55 53 55 56 58 63 61 59 60 52 53 47 45 39 46 
64 67 64 67 63 61 63 65 65 65 72 73 79 69 65 68 67 60 70 70 70 67 73 67 57 33 14 26 36 41 40 37 38 31 38 40 43 46 42 45 41 46 43 46 49 48 57 54 52 51 44 56 53 55 62 60 57 57 59 58 61 57 53 56 55 57 55 57 58 62 59 57 60 60 54 53 50 48 45 47 
66 70 65 62 64 59 62 65 65 68 65 69 67 69 67 68 61 61 66 61 67 69 74 63 61 44 24 29 36 33 35 31 35 35 38 40 45 49 44 43 42 45 42 46 51 48 56 62 49 53 48 52 52 56 59 60 54 56 59 62 56 55 55 54 56 56 54 52 54 62 53 59 59 59 58 47 45 51 44 44 
68 66 68 64 54 59 63 65 62 66 64 64 66 65 65 66 64 63 64 65 67 71 70 65 56 24 0 13 31 34 39 38 36 39 37 41 45 47 47 45 41 44 46 44 51 49 51 54 49 51 48 57 51 53 64 60 55 51 55 56 57 57 53 55 55 54 54 56 56 54 56 60 58 51 54 53 47 48 45 47 
65 66 69 64 59 58 63 63 63 63 66 65 64 67 65 66 64 65 64 68 68 69 72 65 53 27 3 22 31 37 39 39 40 41 40 38 46 46 44 45 42 44 46 48 47 46 52 51 50 51 46 53 55 55 61 59 56 55 56 56 55 54 53 54 51 53 52 55 55 59 54 58 58 53 54 48 47 50 47 48 


