P2
80 60
36
28 22 22 20 22 23 24 24 26 30 24 31 27 25 27 26 26 30 28 30 30 31 28 26 32 30 27 22 27 24 28 26 28 28 28 30 27 22 22 27 27 26 26 23 29 24 27 22 29 28 24 25 27 28 26 25 28 35 27 26 24 20 25 26 20 20 11 18 20 10 15 14 18 18 20 14 18 14 13 12 
20 23 26 22 23 24 27 27 29 28 28 30 24 30 29 25 27 28 26 31 26 32 32 26 29 26 23 24 27 24 25 28 29 26 26 24 26 24 22 24 24 28 26 26 25 25 25 27 25 26 24 25 25 24 26 27 29 27 28 24 22 19 22 23 17 16 18 16 14 11 14 17 14 19 15 14 17 14 9 16 
23 23 22 22 22 25 27 28 30 26 30 27 27 26 27 29 27 29 27 33 34 33 30 28 26 29 33 23 30 29 28 28 27 28 26 22 26 25 22 23 24 26 28 24 25 22 23 23 27 26 25 25 25 25 28 26 26 30 25 24 21 19 20 20 19 17 14 17 16 18 17 16 17 17 16 14 13 19 12 16 
20 19 25 23 22 29 26 24 29 26 27 31 27 29 28 27 25 30 30 31 30 30 28 28 28 28 27 18 25 24 24 25 28 26 25 25 21 25 23 26 23 26 28 23 24 23 27 27 28 25 24 23 25 24 24 23 29 28 23 24 23 22 20 19 18 21 17 17 15 14 19 17 14 17 17 19 17 15 12 17 
26 19 24 27 25 22 25 29 29 24 25 27 23 26 27 29 30 29 28 31 32 33 30 28 30 27 31 23 23 24 25 30 24 24 24 25 25 20 23 26 24 27 29 24 26 25 26 26 26 26 23 25 25 25 23 24 23 25 22 23 24 21 21 26 20 16 18 22 19 18 17 18 15 16 15 15 17 15 12 17 
22 22 23 27 23 27 24 28 29 24 24 22 22 28 27 27 30 31 29 31 33 32 31 30 29 28 31 24 24 26 24 27 21 24 22 21 22 24 26 24 23 28 27 24 25 25 27 25 24 23 28 25 27 25 25 24 22 28 27 27 26 21 19 23 18 18 16 21 21 18 19 15 13 14 12 15 20 16 9 9 
22 25 27 25 25 26 27 30 34 28 25 28 22 29 28 29 31 31 31 33 29 31 33 25 31 27 32 25 22 25 24 28 23 23 23 24 24 24 24 25 25 25 24 21 26 26 26 27 26 24 25 31 29 27 25 23 26 29 27 25 25 22 22 23 20 20 17 20 18 18 14 15 12 15 14 15 17 15 14 11 
25 25 27 26 27 30 26 29 30 26 27 29 27 32 29 30 29 31 32 30 34 31 33 29 30 30 32 21 25 28 22 22 24 24 23 29 27 24 22 23 26 25 25 24 25 21 27 24 24 22 25 29 29 25 24 24 27 26 25 24 24 22 26 25 20 23 19 17 20 16 12 13 13 16 16 14 18 16 13 14 
27 26 27 28 27 28 30 34 28 27 26 26 28 28 25 28 30 29 29 34 36 32 31 29 29 26 29 23 25 26 25 22 25 25 25 24 26 23 22 25 24 24 23 22 24 22 24 23 25 25 22 25 25 26 26 25 23 27 25 27 23 18 24 20 18 18 20 19 18 16 14 15 14 13 14 16 16 14 7 12 
30 31 28 27 28 30 32 29 28 23 25 27 27 24 26 28 33 29 31 33 31 34 32 27 28 25 28 20 22 28 18 25 26 24 27 23 25 25 21 26 23 23 22 22 23 21 22 27 25 25 26 22 25 24 26 25 25 24 28 25 22 21 22 18 17 20 21 19 20 12 15 17 16 16 13 15 17 13 8 11 
26 27 28 30 27 28 30 33 29 24 27 24 26 26 29 28 28 27 26 34 29 27 30 29 27 25 26 22 26 25 24 21 23 21 24 26 24 22 21 25 22 21 23 21 21 22 22 22 25 25 23 23 25 22 26 23 22 25 24 23 25 21 19 19 19 18 19 19 18 14 15 13 12 15 15 17 19 13 10 11 
28 25 29 32 29 30 31 30 28 27 25 24 24 28 29 28 27 30 28 31 26 31 26 29 26 29 28 21 23 25 20 27 24 25 24 20 24 22 22 22 25 20 20 20 24 22 20 21 23 23 20 21 23 23 26 23 23 23 23 24 24 22 23 25 20 21 21 18 17 13 10 11 12 17 13 19 18 10 8 8 
27 27 27 33 28 28 28 31 25 23 24 26 28 27 25 28 28 30 25 28 29 31 28 24 27 21 29 22 19 27 19 24 25 23 20 21 21 26 27 23 24 22 21 20 25 24 24 22 25 23 23 22 20 24 21 18 25 26 23 23 25 23 25 21 19 17 19 19 17 15 1 14 14 15 16 15 17 13 11 13 
29 32 31 31 27 30 27 29 28 24 22 26 27 24 27 28 28 25 26 29 29 29 29 29 29 25 26 21 17 26 22 21 25 25 22 23 19 25 22 19 20 21 24 21 20 21 25 23 21 29 23 25 23 23 22 25 25 23 28 23 22 22 18 16 17 16 17 20 15 12 13 13 14 13 12 14 17 14 16 16 
28 27 29 29 26 25 25 29 31 22 22 24 22 25 23 28 23 24 26 29 28 32 25 25 25 22 28 24 24 27 22 22 23 22 21 23 24 20 21 23 19 23 23 22 24 21 24 19 23 25 23 24 24 22 21 23 28 33 26 24 23 21 18 19 15 16 19 22 17 15 16 13 14 15 8 14 18 17 13 17 
28 29 30 28 25 27 26 28 24 21 25 26 25 25 25 27 29 26 28 27 28 31 27 28 27 25 26 22 21 19 18 22 21 22 22 22 20 20 25 20 26 23 20 19 21 22 23 20 22 24 19 19 21 27 22 24 25 27 25 25 22 18 21 18 21 21 16 19 20 14 17 15 13 14 15 10 15 18 13 14 
29 31 30 31 22 28 23 26 26 20 22 25 24 24 27 28 28 29 26 30 29 28 27 23 27 20 22 23 25 23 23 26 26 22 19 22 20 17 19 23 24 21 21 19 22 24 21 21 22 21 18 21 23 20 26 23 25 28 25 22 23 20 21 20 21 17 16 22 15 16 17 17 17 16 12 15 12 14 13 17 
25 28 29 27 27 17 28 25 25 23 23 27 26 25 27 23 27 27 25 29 26 27 26 25 27 20 22 19 22 26 23 24 24 22 20 23 20 18 23 24 20 19 20 22 21 19 23 20 22 19 18 22 26 26 24 24 27 32 26 21 24 19 22 17 19 16 16 21 21 18 16 12 17 16 12 14 16 14 12 13 
29 31 29 27 27 27 25 27 26 22 24 27 22 30 27 26 26 27 28 29 25 30 27 27 27 27 28 22 27 24 20 24 24 25 26 24 21 20 20 23 23 24 20 22 20 17 20 21 23 21 19 24 25 23 25 22 22 28 22 18 22 19 20 20 20 17 17 18 19 12 16 12 16 13 11 13 16 13 7 11 
27 26 26 31 28 31 24 23 28 25 24 25 24 22 24 23 24 26 28 27 27 33 29 28 27 29 27 21 22 25 22 23 25 21 21 22 24 24 22 21 25 24 19 19 21 18 21 22 25 23 22 24 25 23 22 23 22 22 22 21 20 19 19 19 16 17 19 21 18 17 13 15 16 13 12 11 15 12 7 10 
24 26 29 27 25 23 27 26 25 23 26 25 25 27 26 23 26 27 25 31 29 33 28 26 28 28 28 22 22 23 29 24 21 17 22 20 22 22 20 21 23 27 25 20 18 21 17 18 20 21 20 23 25 23 24 20 22 22 21 23 22 20 22 22 18 18 17 21 18 18 16 16 13 17 14 12 12 12 8 13 
28 27 30 27 26 25 27 25 26 23 26 25 31 26 27 26 24 28 24 28 27 31 30 28 25 23 25 20 21 23 23 22 24 25 19 20 21 19 24 22 22 27 20 16 18 19 19 18 21 21 22 21 20 20 23 17 21 25 24 23 20 20 23 21 18 18 18 22 18 21 15 15 14 15 15 11 8 15 11 13 
24 24 28 29 28 24 24 28 28 24 23 23 23 26 24 25 24 25 26 28 28 28 26 25 23 22 23 18 19 24 22 21 23 20 20 19 21 18 22 21 24 19 21 18 14 17 19 18 20 22 19 20 21 20 17 17 19 22 22 21 21 19 19 20 19 16 16 18 18 21 16 20 15 15 11 13 10 12 10 7 
26 22 28 27 27 23 27 32 26 21 25 26 23 25 25 25 25 25 24 26 29 28 25 26 23 20 25 19 21 20 21 22 23 18 19 17 19 18 18 21 18 22 17 19 16 18 20 15 20 24 20 18 23 20 21 19 21 18 19 19 19 17 21 23 21 16 20 23 17 18 17 14 15 16 15 7 9 15 11 12 
25 27 27 26 26 25 27 28 28 27 26 26 26 25 25 25 26 26 26 26 27 28 27 24 23 24 23 17 22 21 19 20 20 20 21 20 18 17 18 18 19 15 20 18 21 19 21 19 19 22 18 19 22 22 19 17 20 20 22 20 18 20 20 21 21 18 18 18 19 15 12 11 15 16 13 11 10 10 13 13 
23 27 26 22 25 23 26 28 27 27 25 25 23 24 28 26 24 26 22 27 26 26 26 24 24 22 26 21 18 24 19 18 20 20 18 19 19 18 18 18 18 21 21 22 18 19 19 23 21 16 19 18 20 20 19 17 20 21 20 23 18 19 21 19 17 14 18 18 16 15 16 14 14 19 13 11 17 14 11 17 
24 23 26 26 25 25 26 28 27 22 23 23 26 27 26 26 24 26 26 29 26 27 31 27 23 17 22 21 22 20 18 18 20 20 18 17 18 16 16 18 17 19 18 16 19 19 18 17 18 17 18 19 17 16 18 16 18 17 18 23 21 20 18 18 20 19 18 14 19 13 14 13 13 16 10 14 16 13 9 10 
24 21 26 25 23 23 24 25 27 23 23 24 24 27 24 22 23 25 25 28 26 27 26 25 23 20 24 23 22 24 20 21 16 18 17 17 19 15 18 17 17 21 20 18 19 19 18 15 19 18 19 21 18 20 20 19 17 18 16 20 20 18 19 18 20 15 15 16 17 14 15 14 11 12 13 7 12 14 9 8 
25 24 25 25 24 25 22 33 26 24 27 24 27 27 23 26 23 25 26 30 25 29 28 23 20 26 26 21 22 23 22 18 18 13 15 18 17 15 16 18 19 19 16 15 19 19 20 17 16 18 19 23 21 15 17 18 19 17 16 20 22 17 18 20 18 14 17 16 14 15 13 13 13 13 11 12 14 13 10 12 
32 26 27 27 23 27 27 26 27 24 25 26 23 25 25 23 26 24 22 24 25 27 28 24 22 26 20 20 21 23 17 19 19 17 16 21 18 18 16 18 20 19 20 19 20 17 17 19 21 18 17 22 20 18 19 17 19 20 17 19 23 18 18 19 19 19 22 23 14 14 16 14 15 15 13 13 14 10 6 11 
26 27 27 23 25 23 25 22 27 24 30 24 21 25 26 25 27 25 25 30 27 28 31 26 22 25 25 17 18 22 21 19 16 17 21 22 22 15 18 18 21 19 23 21 21 18 16 20 21 20 21 23 18 20 21 15 21 19 16 19 22 15 18 21 21 20 18 19 19 12 17 20 15 15 14 10 12 11 8 7 
26 25 25 25 26 25 25 17 26 23 25 24 24 24 31 27 27 24 27 27 27 28 28 24 25 27 25 19 20 22 16 19 19 17 17 18 21 16 16 18 21 22 26 21 20 16 17 23 20 23 19 20 21 21 18 17 20 21 17 15 19 15 20 23 21 19 16 17 17 17 15 13 15 13 10 10 13 15 12 9 
26 24 24 28 25 25 23 25 28 23 26 23 25 24 24 25 25 25 25 23 25 26 23 23 25 25 23 16 23 20 19 21 17 15 18 19 16 17 14 19 19 18 19 15 22 18 18 19 19 19 19 21 21 21 17 19 19 18 19 17 16 17 21 20 17 17 18 21 20 15 14 13 14 14 13 11 14 14 12 9 
25 24 26 26 27 24 25 25 28 23 23 24 24 25 26 24 25 26 24 25 26 28 24 28 23 23 19 17 23 22 20 18 16 15 17 14 18 16 17 18 21 21 21 20 20 20 19 17 18 21 19 20 19 20 18 18 18 21 19 20 19 20 22 18 22 18 21 17 16 12 13 9 14 16 12 10 16 14 13 12 
22 21 29 26 24 23 22 24 24 25 25 27 24 27 22 21 26 28 25 28 25 28 27 23 21 21 19 18 20 21 19 20 19 15 13 10 16 17 15 17 16 18 18 21 19 22 17 18 17 16 20 20 19 18 19 18 17 19 21 21 19 17 18 16 20 17 19 19 16 12 8 13 15 11 15 8 14 16 10 9 
25 23 25 27 25 22 21 22 22 22 26 26 23 29 24 23 25 27 26 26 28 26 24 25 25 23 20 18 20 21 19 18 18 19 14 18 19 16 17 16 21 17 20 16 18 17 19 20 22 20 18 22 22 18 20 21 15 23 18 22 17 13 23 19 19 16 17 20 13 16 15 14 14 14 14 14 17 15 9 15 
26 22 30 29 24 24 26 28 26 24 22 25 24 22 24 23 26 28 26 28 26 28 25 23 19 20 22 15 20 22 18 21 19 20 18 15 15 16 17 16 17 20 18 18 18 20 17 17 21 18 15 19 20 18 18 21 19 20 21 20 19 16 18 19 17 18 19 17 15 15 14 11 12 15 13 15 16 15 11 15 
26 27 27 25 27 26 25 25 27 22 22 23 27 23 22 23 24 29 28 26 28 30 27 21 24 15 16 18 19 20 20 22 20 19 17 14 18 14 16 14 16 16 19 20 20 21 19 15 18 21 17 21 19 21 17 22 16 18 20 22 16 20 20 17 17 21 17 18 17 16 14 11 9 9 12 12 15 13 10 11 
25 28 30 26 28 27 25 28 25 20 24 27 22 20 21 24 22 29 24 28 29 28 30 25 23 21 21 15 15 18 19 19 17 20 16 15 17 17 20 18 17 18 21 15 17 17 19 17 19 20 17 20 22 20 23 19 18 19 19 20 17 15 21 19 16 15 18 20 16 16 12 12 10 14 12 13 17 13 10 13 
23 25 26 26 23 23 25 26 27 23 23 25 24 22 21 23 24 25 23 28 27 28 24 24 19 19 15 16 14 19 17 19 17 17 16 19 18 13 19 19 22 18 21 15 19 19 18 17 18 22 21 21 22 23 23 17 16 16 16 19 14 17 19 15 14 14 15 14 15 8 11 15 14 15 11 8 17 11 13 20 
25 23 26 25 23 23 22 24 22 24 24 25 23 24 24 24 21 24 24 24 24 26 27 26 19 19 27 17 16 16 16 16 20 19 13 18 15 17 17 16 18 12 20 14 15 17 20 19 21 19 22 25 24 26 18 17 15 15 14 18 13 13 16 15 14 14 13 15 11 9 11 13 6 13 12 11 12 13 13 14 
24 24 27 26 26 24 24 23 20 20 23 23 24 22 23 25 20 24 20 28 25 27 28 24 24 19 20 18 20 21 17 16 20 11 14 20 21 15 14 15 17 13 18 13 16 19 20 19 22 21 23 21 21 20 21 20 15 21 20 16 18 16 17 16 15 15 15 14 12 10 8 12 14 12 11 9 10 10 11 10 
28 28 27 26 23 20 21 24 24 19 22 24 23 24 26 23 25 23 26 26 26 26 26 23 25 21 24 17 18 17 16 18 16 18 16 18 21 15 17 20 19 17 16 16 18 18 21 21 18 21 20 21 20 22 22 15 17 20 19 18 16 14 18 20 16 16 16 15 11 10 8 7 9 10 11 10 12 9 12 12 
26 24 25 24 24 25 26 25 23 22 22 25 24 24 21 22 20 26 26 27 24 26 28 24 23 24 21 13 18 19 18 18 17 16 18 18 18 15 14 15 16 18 18 17 17 18 22 25 20 19 20 19 18 20 20 15 16 18 16 18 15 16 14 14 14 15 17 12 14 12 12 12 10 9 10 9 14 11 10 10 
23 25 25 23 22 22 22 23 24 19 22 24 21 26 25 25 23 23 25 26 27 28 28 24 25 22 17 16 15 18 16 17 18 17 16 16 16 14 14 16 18 16 18 15 19 18 21 19 22 19 21 17 19 20 18 13 15 17 15 18 16 17 16 17 15 19 14 15 14 12 8 10 8 12 12 14 12 11 12 15 
26 21 23 22 25 22 21 21 24 18 19 24 23 27 25 23 27 26 23 26 28 27 25 24 16 17 19 14 15 18 16 19 18 18 17 18 16 16 13 18 15 18 14 16 18 19 20 19 19 18 21 19 19 18 18 15 14 16 16 18 18 15 15 16 17 16 16 12 14 7 9 10 9 12 12 12 9 12 10 8 
26 21 22 22 21 21 18 23 23 20 22 26 22 22 26 25 24 24 26 24 25 25 26 23 21 18 13 15 12 15 17 17 16 14 17 16 15 14 12 14 13 14 15 12 20 21 17 16 16 15 18 20 19 18 16 14 16 15 15 17 17 17 19 22 13 14 12 14 9 13 8 8 9 10 9 8 8 10 7 4 
26 23 22 21 20 17 18 23 21 19 22 22 23 25 26 24 25 24 23 25 27 25 25 22 19 18 17 15 15 19 16 15 16 17 16 19 15 14 15 17 13 16 18 15 18 16 18 13 20 18 16 17 20 17 14 10 19 18 14 17 15 17 16 16 11 12 13 14 12 11 10 13 11 8 7 6 12 9 7 3 
22 20 21 19 19 20 19 24 24 20 19 23 25 23 24 26 26 23 25 27 26 27 29 25 18 20 18 10 17 18 15 14 16 14 17 13 16 17 13 16 16 14 17 14 20 14 18 14 16 18 18 17 16 15 19 16 17 18 16 18 17 17 14 17 14 13 14 16 11 11 9 14 8 9 7 6 11 9 10 6 
27 22 22 22 22 21 20 25 26 23 17 21 24 25 24 25 23 26 26 25 23 25 23 21 16 20 18 15 17 17 14 13 14 12 16 17 15 13 16 14 17 17 14 13 19 13 13 10 16 15 18 17 16 19 19 17 15 19 16 15 17 18 18 18 15 16 14 13 15 12 8 11 9 10 5 7 13 9 7 7 
25 21 19 19 21 20 19 23 20 18 21 23 18 24 23 25 23 26 25 21 22 22 24 20 20 16 17 14 18 16 13 13 13 15 13 10 14 13 15 15 12 15 16 14 17 14 15 11 14 12 15 15 17 19 17 16 18 18 18 17 17 16 14 16 13 14 12 13 13 9 9 8 5 5 7 7 11 10 8 6 
24 23 21 17 23 25 23 21 23 19 21 23 20 18 22 21 22 24 23 26 27 24 25 19 19 19 18 11 12 16 13 14 13 13 18 15 13 11 10 11 12 14 14 13 14 18 14 14 14 16 16 14 18 21 16 18 20 17 16 17 18 16 15 17 14 12 11 15 11 10 8 7 8 7 7 10 10 8 5 2 
25 21 21 22 19 23 19 17 20 20 16 20 21 22 17 20 20 21 22 27 23 26 25 19 21 18 17 11 11 16 12 14 14 15 14 16 12 9 10 9 14 13 12 12 15 13 14 14 17 12 17 14 17 15 16 16 20 19 22 17 12 14 13 13 13 11 14 12 10 8 7 8 7 7 11 7 10 6 9 6 
21 17 21 23 23 27 18 22 24 20 20 19 21 21 20 20 19 18 22 21 21 27 19 18 20 22 21 14 14 13 13 13 11 14 12 14 12 11 11 9 14 12 13 12 15 12 14 15 11 15 14 17 17 17 18 16 17 17 18 17 15 16 14 13 12 10 10 11 10 7 9 10 9 9 6 9 8 9 6 4 
24 18 20 20 20 18 25 25 24 19 23 22 22 20 22 22 23 23 22 25 22 24 24 21 17 18 16 13 15 14 12 16 13 14 12 12 11 10 9 9 10 14 15 9 12 12 15 17 12 14 15 15 15 15 18 15 18 19 19 19 17 15 16 14 10 10 11 11 9 10 9 8 9 7 6 6 9 10 6 4 
22 19 20 21 18 21 20 21 23 21 21 22 22 24 23 23 21 24 27 25 24 25 21 22 19 19 16 15 14 13 13 11 14 12 12 13 13 11 9 12 10 18 13 13 13 14 11 13 15 16 15 15 17 13 17 15 15 18 15 18 17 16 14 17 14 9 10 9 10 8 14 9 9 13 7 0 8 5 12 7 
15 18 22 15 22 19 16 25 25 25 20 24 30 24 25 22 19 23 24 26 23 22 21 20 15 14 15 10 12 12 12 12 11 13 12 8 12 9 9 11 14 13 13 12 15 11 16 11 13 16 13 13 16 14 15 17 14 15 15 14 15 12 18 13 13 10 8 10 9 9 10 6 6 9 8 9 7 9 3 3 
13 19 18 18 18 19 18 25 26 22 22 23 28 23 22 22 21 23 24 22 28 23 24 15 15 19 17 8 11 16 14 13 12 14 10 11 12 9 10 10 12 13 15 11 14 11 15 18 15 15 14 13 16 16 18 14 13 11 15 17 16 12 17 14 11 11 7 9 9 10 8 8 7 8 6 7 9 11 4 4 
18 18 18 20 19 19 19 20 23 30 19 21 20 23 21 18 18 24 22 23 24 24 26 21 14 15 15 11 17 11 13 14 11 13 11 14 13 10 11 8 12 13 17 10 12 13 14 12 15 14 14 16 15 17 16 15 14 15 17 15 14 11 15 12 12 11 10 11 8 5 8 4 7 9 5 8 9 7 4 5 
20 17 15 15 15 19 19 18 23 23 19 18 20 19 19 18 18 20 18 24 23 26 23 22 17 14 13 14 8 18 14 12 11 10 13 12 15 8 8 11 12 15 16 12 14 12 14 14 12 15 17 15 18 17 10 14 12 13 15 14 16 16 14 15 8 8 12 10 7 9 5 7 4 8 5 8 6 7 3 6 


