P2
80 60
43
28 25 26 22 24 34 29 27 30 28 26 29 30 26 27 26 24 28 23 24 27 29 29 24 28 28 34 24 28 28 34 31 34 35 33 30 32 32 33 30 29 31 34 34 35 35 35 36 36 33 31 34 31 33 31 34 36 39 40 32 28 28 30 27 27 24 25 21 23 24 24 22 24 17 22 17 24 17 19 12 
26 22 30 27 26 34 28 30 28 28 30 31 28 28 32 30 28 28 24 30 28 30 30 26 25 29 27 31 31 33 33 35 34 34 33 34 36 37 31 33 31 36 31 33 33 37 34 34 34 33 33 34 33 33 32 36 37 35 36 32 27 29 29 26 23 25 21 17 21 26 23 23 23 18 24 23 20 20 15 15 
27 28 26 28 28 28 26 28 30 30 33 28 31 23 31 27 24 27 27 28 31 28 32 28 26 33 31 28 29 30 33 37 32 33 36 34 35 35 31 28 29 33 33 32 33 31 33 32 35 31 31 32 35 31 35 35 33 34 31 32 30 27 28 26 27 23 21 19 17 23 24 23 23 18 22 22 21 22 17 21 
29 23 30 31 31 36 31 26 30 29 32 33 26 26 27 28 29 31 30 30 30 28 26 25 26 30 30 27 31 30 28 36 35 33 33 34 33 39 31 31 28 31 33 32 31 36 36 31 33 32 33 32 33 30 33 31 33 29 31 32 27 28 28 26 24 27 21 24 22 26 26 29 22 25 21 23 20 21 21 19 
28 25 30 31 30 32 28 30 28 28 27 31 28 27 27 29 28 31 31 32 30 29 31 27 26 32 34 31 32 28 31 35 31 32 32 28 31 34 37 31 29 32 34 35 35 36 35 36 33 31 34 33 32 31 26 30 32 30 33 31 29 30 29 30 27 24 20 25 26 22 23 24 23 23 21 19 18 22 15 19 
26 25 30 32 28 29 27 31 31 28 28 30 31 32 30 27 27 30 29 30 32 32 32 30 25 34 32 32 31 28 29 30 31 31 30 31 34 35 38 32 29 34 37 35 33 35 38 35 34 32 31 32 34 30 31 31 28 33 31 33 31 31 22 26 26 24 23 23 25 25 24 24 24 19 18 18 19 22 16 23 
31 31 31 30 31 31 33 29 32 29 29 32 29 29 26 28 33 29 29 31 31 30 33 29 29 30 34 31 29 28 32 33 33 32 34 33 34 34 36 34 32 34 32 33 34 40 33 34 33 27 31 36 34 30 31 30 33 36 37 31 29 31 28 26 26 23 27 24 23 24 20 23 24 22 21 25 16 16 16 19 
34 32 38 29 32 37 33 29 29 28 32 31 33 31 31 32 31 30 33 31 35 31 30 31 26 32 33 29 30 32 28 32 31 31 33 36 33 34 37 34 34 29 32 33 31 34 37 34 33 30 31 35 34 32 30 32 31 33 32 31 29 32 32 27 27 24 26 23 24 23 16 21 24 21 19 18 20 18 15 18 
36 33 35 32 34 36 34 30 29 32 28 29 30 28 29 30 30 31 30 35 30 30 31 30 30 32 32 31 32 29 31 29 29 32 33 30 34 34 33 32 29 31 31 31 33 33 33 34 34 31 30 34 31 31 32 32 30 29 30 34 28 28 27 23 23 22 24 25 21 22 20 22 19 20 19 19 17 19 21 16 
37 33 34 34 27 36 34 33 29 28 29 32 33 27 29 29 33 29 28 32 31 31 28 30 29 29 34 30 32 30 23 29 30 31 33 30 33 30 33 31 28 29 30 28 30 34 33 33 33 28 32 31 30 32 31 30 32 29 29 28 25 28 26 23 23 26 24 22 22 20 20 23 23 18 18 18 18 20 16 12 
35 34 33 33 32 39 32 31 32 27 30 30 33 28 31 30 29 30 28 31 27 27 30 29 26 31 28 28 32 30 29 30 30 31 29 30 31 33 32 33 30 27 29 32 29 31 30 31 31 28 31 30 32 28 31 30 28 27 28 26 27 28 26 25 26 22 20 22 19 21 20 20 21 18 18 19 20 14 19 18 
36 33 35 29 31 35 35 31 29 30 30 29 28 27 29 27 27 26 28 29 29 26 30 29 28 32 29 28 29 29 30 32 31 32 30 29 30 30 33 30 30 30 28 31 32 33 32 28 29 27 30 29 29 28 30 28 29 29 28 26 26 29 26 26 25 22 25 20 20 19 17 19 20 21 19 21 19 17 10 15 
33 36 34 35 33 32 31 32 27 25 27 30 33 26 27 28 27 27 26 29 26 26 28 28 25 32 32 29 26 30 30 32 32 31 29 27 28 29 36 33 28 31 31 30 36 32 35 30 31 26 31 29 26 28 28 28 31 30 31 27 26 28 29 22 22 20 22 23 21 20 9 19 19 19 20 21 17 20 16 16 
33 29 35 34 31 36 29 32 29 26 26 28 29 24 29 29 30 27 28 26 29 26 28 27 24 26 30 32 29 32 30 31 32 34 35 32 30 33 29 27 28 30 31 30 31 34 32 31 28 32 27 28 26 29 28 30 30 30 30 28 30 27 23 23 23 19 22 21 21 17 18 16 19 20 17 18 21 20 22 19 
31 29 34 34 32 35 27 31 29 24 26 27 30 25 24 25 28 24 29 27 26 22 28 26 23 27 32 32 28 28 30 30 30 32 31 33 32 29 29 32 28 29 30 27 30 30 32 29 30 26 29 28 25 30 27 30 30 43 32 30 25 26 25 23 20 18 23 23 20 17 23 17 19 19 14 17 22 19 18 20 
33 35 39 34 32 32 29 32 29 26 25 30 31 26 27 28 29 25 27 27 28 27 28 28 26 29 29 29 31 28 31 30 32 30 32 30 30 29 35 30 30 32 27 31 30 29 32 30 28 29 30 27 27 33 30 31 35 30 30 31 26 27 26 22 25 26 21 23 22 22 22 20 21 20 19 16 17 22 19 18 
31 36 38 35 33 34 29 29 26 25 28 28 29 25 26 29 26 29 25 27 28 28 28 25 27 29 26 30 30 29 27 31 31 29 30 29 28 29 29 31 29 28 29 27 31 33 31 27 27 25 26 29 26 27 30 30 31 33 31 26 25 29 25 27 25 22 21 22 22 21 23 24 22 21 17 17 18 21 21 19 
30 33 37 30 34 29 30 29 26 24 26 27 29 25 30 27 31 29 26 29 30 24 28 27 26 27 28 32 27 28 30 31 31 29 29 32 28 30 32 33 25 28 30 31 29 33 31 28 28 22 23 28 30 28 32 32 30 34 33 28 29 24 25 21 23 22 21 24 22 22 22 23 21 18 19 20 19 22 19 22 
31 35 33 33 36 37 31 31 25 25 33 29 30 29 28 31 28 29 29 29 27 28 32 26 27 31 29 30 32 32 28 33 33 35 35 33 31 33 30 30 28 31 30 34 32 31 30 28 28 23 25 29 31 29 31 27 29 32 30 25 29 26 22 25 24 25 22 23 23 18 20 19 21 19 17 19 17 16 18 14 
31 33 36 34 31 41 29 25 28 25 30 29 30 27 29 28 28 27 29 27 29 31 31 28 26 33 28 30 31 30 27 32 32 29 31 29 31 37 30 29 31 29 28 31 27 27 27 32 29 26 28 29 27 27 26 29 26 26 26 27 25 26 25 24 23 23 24 28 20 21 20 19 22 19 16 18 17 15 14 17 
33 33 33 30 32 32 28 25 24 27 29 31 27 27 25 26 26 29 24 27 27 29 29 27 27 30 32 29 28 27 40 35 29 28 31 28 28 33 30 30 28 33 29 30 27 28 27 24 27 25 28 26 25 26 30 26 30 26 31 27 24 26 26 23 22 22 22 23 20 22 21 21 20 20 17 18 18 17 19 19 
34 31 35 32 31 32 30 27 27 26 29 25 34 27 31 27 27 28 24 25 25 28 31 28 24 30 30 28 29 29 30 31 29 32 29 28 30 29 28 30 28 33 28 27 27 28 25 26 26 24 26 24 25 23 30 25 26 32 30 26 25 27 24 26 26 22 20 22 21 24 22 21 20 17 16 17 13 19 21 18 
31 30 35 31 33 32 31 28 29 27 29 27 30 26 28 27 30 28 30 27 26 28 28 26 27 28 29 29 27 27 29 28 29 28 30 29 28 28 31 30 27 25 29 27 28 25 27 25 26 26 25 26 26 27 29 23 24 25 25 26 24 23 25 23 24 24 21 24 23 21 22 23 22 19 16 21 12 16 21 20 
33 30 32 32 31 32 28 36 28 27 30 30 29 27 27 28 27 28 26 27 28 27 26 28 24 28 27 27 26 25 25 30 28 26 28 29 29 26 28 29 27 32 26 26 28 29 27 23 26 27 28 23 26 25 29 26 28 24 24 27 27 26 22 27 27 23 27 26 22 24 18 21 21 21 19 18 14 18 17 21 
33 32 34 29 33 33 30 27 29 29 27 30 31 26 29 24 27 28 26 25 28 28 26 24 26 28 27 26 28 24 26 28 27 27 26 26 27 26 28 27 25 24 27 27 29 28 28 27 26 25 27 27 24 25 25 25 26 23 27 25 21 28 18 28 25 20 24 24 21 19 18 15 21 18 20 19 16 16 21 20 
33 31 34 28 32 30 29 29 25 27 30 30 30 26 31 29 27 28 24 29 27 30 29 27 26 28 32 27 28 28 26 27 31 27 29 27 29 27 27 30 26 27 27 28 26 30 26 28 26 20 27 25 24 25 23 23 25 24 27 27 24 23 21 23 21 19 25 20 20 22 20 21 22 18 19 16 21 22 20 15 
31 31 35 33 33 28 27 31 27 26 27 27 24 28 29 27 27 29 24 25 25 27 32 29 27 27 30 30 25 27 26 26 34 32 28 27 28 24 26 27 26 26 25 28 23 27 24 22 24 22 24 25 22 22 23 24 25 23 23 29 26 26 21 20 22 22 21 21 23 20 22 18 22 22 18 18 18 19 23 18 
32 31 35 33 30 30 30 30 29 28 28 28 30 30 27 25 28 27 24 27 29 27 27 29 27 28 30 31 30 25 27 30 28 26 26 25 30 25 27 25 26 27 28 28 25 28 25 23 23 23 26 25 24 24 23 24 26 24 24 27 26 23 24 24 26 20 19 20 20 22 21 21 21 22 18 21 14 21 20 20 
32 30 34 31 32 33 29 31 28 27 28 31 30 26 26 25 22 25 26 27 24 26 28 27 22 30 30 28 27 27 30 27 30 24 25 26 28 26 27 28 26 27 26 26 27 32 23 24 22 22 22 26 22 21 22 22 23 22 23 26 22 25 20 23 22 20 20 20 18 19 20 21 21 20 19 18 17 14 16 16 
33 30 34 30 31 33 31 29 34 26 26 29 31 27 24 24 27 25 25 25 25 25 27 26 24 31 28 28 26 27 24 30 24 26 24 30 28 30 28 25 28 26 28 28 24 27 25 25 25 20 26 26 21 22 26 23 23 22 22 19 23 23 24 21 24 21 27 22 21 25 22 18 20 19 19 19 18 19 14 17 
30 31 34 29 29 32 31 26 26 26 27 30 26 28 26 26 26 28 22 25 25 24 29 24 24 32 32 25 26 26 28 28 26 26 32 29 30 27 26 27 28 27 34 26 28 24 22 24 27 24 24 27 23 21 25 22 26 22 22 22 21 22 24 25 25 24 20 22 22 18 23 23 21 18 18 15 16 16 18 15 
29 31 31 31 30 32 27 22 27 25 28 27 33 26 29 29 30 27 26 27 26 28 28 25 25 29 32 27 25 25 24 27 25 27 26 24 29 26 24 28 28 29 30 30 29 26 25 24 24 27 24 23 25 26 25 22 24 22 22 22 18 22 22 25 23 21 22 22 19 21 20 17 20 16 15 18 16 15 15 13 
30 31 33 31 32 32 26 30 28 22 27 29 31 25 26 27 27 25 25 25 26 23 27 26 24 29 32 28 27 27 28 26 28 24 27 26 27 26 23 28 27 29 31 26 26 27 26 24 24 20 24 23 22 24 25 21 23 22 21 21 20 24 22 21 22 22 23 22 22 21 19 18 15 15 14 18 15 15 12 14 
29 31 33 28 35 31 28 28 27 25 27 28 27 25 26 25 26 25 25 28 28 24 25 27 26 28 26 25 27 27 30 25 28 25 29 27 28 28 27 27 27 27 28 25 28 25 23 19 22 21 25 23 22 22 23 23 24 23 24 22 21 26 23 22 21 20 26 20 18 22 22 20 19 14 18 17 19 19 14 15 
30 31 32 34 30 30 29 28 24 26 28 28 31 28 29 25 29 26 24 29 24 26 27 26 27 28 30 28 30 27 27 28 27 26 26 25 31 29 25 25 22 26 30 29 26 28 26 25 23 21 24 28 24 21 24 22 26 27 24 23 19 24 22 21 24 21 21 20 20 22 22 18 20 17 19 19 18 15 14 13 
30 32 31 32 32 30 27 26 22 28 28 25 27 28 29 25 24 27 27 28 27 26 28 26 24 29 29 25 28 25 25 27 25 27 27 27 30 25 25 24 24 22 26 21 24 24 24 25 23 19 22 23 20 20 24 23 22 23 23 24 19 21 26 22 22 18 19 21 16 21 22 17 16 17 18 17 18 18 15 14 
31 30 34 31 31 29 28 28 24 23 28 24 27 25 23 25 27 27 28 26 28 24 29 27 23 26 25 27 27 25 29 27 26 27 23 22 26 25 26 25 23 26 26 26 26 26 23 24 22 22 19 25 23 22 21 20 24 23 25 21 19 24 21 22 21 20 20 22 17 20 21 16 17 16 15 17 20 17 17 10 
30 35 33 30 29 34 29 29 26 24 25 27 31 26 24 25 26 32 29 26 27 24 28 24 25 27 26 28 27 26 29 29 32 28 25 27 25 27 27 25 25 27 27 29 24 27 26 22 24 19 22 24 22 22 23 25 25 21 27 25 20 23 23 19 21 23 22 18 19 21 20 18 16 14 16 14 15 17 17 16 
30 33 36 31 36 31 28 27 26 24 28 29 26 23 29 25 26 28 26 26 26 25 28 26 26 26 25 22 24 25 27 27 29 29 28 27 28 26 27 24 23 26 27 25 22 23 23 24 22 20 19 24 26 22 25 25 24 20 21 26 20 20 19 18 20 20 21 21 20 17 20 17 17 17 17 14 15 17 15 17 
29 30 34 29 33 32 27 31 29 25 29 29 27 26 26 23 25 26 25 28 27 27 28 26 26 26 28 26 24 26 24 26 25 26 25 29 29 27 26 26 25 28 29 27 23 25 24 23 22 23 25 25 24 25 25 22 21 22 21 22 18 20 21 20 16 17 20 19 17 15 17 16 18 18 16 15 15 17 19 19 
35 30 33 28 31 32 24 27 27 25 28 27 28 26 24 23 24 24 23 26 26 24 26 26 25 27 32 27 25 24 25 27 26 28 28 30 27 25 25 26 22 22 26 23 22 24 24 21 24 21 25 28 25 28 22 19 21 20 18 17 18 22 20 15 17 17 16 18 10 14 15 15 15 17 17 14 15 19 22 17 
27 26 32 28 30 29 27 26 23 25 27 27 28 27 26 24 24 23 28 26 25 26 29 26 27 26 27 24 25 24 25 24 26 26 26 29 32 27 23 26 25 27 24 23 23 24 24 23 25 21 25 26 24 22 24 24 23 22 20 19 21 22 18 21 21 18 21 17 13 16 18 16 17 16 16 16 16 13 18 16 
35 31 33 29 31 29 29 27 27 23 26 29 28 26 31 24 25 25 25 28 25 24 28 25 29 28 26 26 25 23 26 25 26 28 26 29 28 26 27 28 24 27 26 27 26 22 26 25 23 23 22 26 23 22 26 22 23 22 20 21 18 22 21 23 22 19 21 20 16 19 18 15 17 16 15 17 15 15 16 20 
31 29 32 27 26 31 27 26 23 23 26 29 27 26 25 24 27 25 26 27 25 27 27 28 25 28 28 21 25 24 27 28 25 26 28 26 29 27 26 24 24 27 27 26 25 26 26 30 23 21 22 21 19 21 23 19 23 22 22 19 20 23 19 17 19 17 21 16 14 16 19 18 18 15 16 13 14 16 13 17 
30 32 31 28 25 27 25 27 23 21 25 29 28 30 27 25 26 24 25 29 27 28 27 27 26 26 23 25 23 23 27 24 27 24 26 25 27 26 23 24 24 21 24 26 24 24 26 28 24 21 22 20 20 23 21 21 19 19 17 21 20 23 20 19 19 19 22 19 16 15 11 16 17 14 16 15 14 14 12 12 
32 30 29 30 29 30 25 23 26 22 25 26 25 26 27 27 32 28 23 27 27 25 27 24 22 27 26 25 24 25 25 25 26 27 28 29 26 28 25 26 22 27 27 26 26 25 24 22 22 18 23 19 17 20 21 21 18 21 18 18 19 23 19 21 21 19 20 17 16 14 15 15 17 15 16 16 10 14 11 12 
31 30 26 26 26 26 22 23 21 21 23 28 27 21 26 23 28 28 24 23 26 23 26 23 23 23 23 22 22 22 28 25 24 23 23 25 23 29 24 22 22 26 27 25 25 26 24 21 22 15 21 24 20 18 19 20 19 21 14 19 18 20 21 26 16 14 18 15 12 16 16 16 15 13 14 12 15 14 11 17 
29 29 29 25 24 25 24 26 23 21 24 24 30 24 28 24 25 25 26 26 28 26 26 21 22 27 25 24 24 25 25 23 24 22 26 27 25 25 25 27 22 27 23 24 24 24 23 18 23 19 20 21 21 19 19 22 21 18 17 23 19 19 19 19 17 14 16 19 13 16 16 15 14 11 11 11 11 12 11 14 
28 27 29 27 26 28 24 24 23 24 27 25 29 28 24 27 28 24 24 25 25 27 33 29 24 27 24 24 24 22 23 25 25 24 24 24 25 27 23 24 22 23 25 24 23 23 22 17 19 20 19 20 18 19 20 22 23 23 22 19 20 20 18 18 15 16 18 20 14 14 15 15 13 12 14 11 12 12 11 6 
27 30 28 23 26 28 20 23 23 23 23 26 28 26 26 20 28 26 28 25 25 25 26 24 24 22 25 25 24 24 21 23 22 25 25 26 25 23 24 22 21 23 24 25 21 22 17 15 21 17 16 20 21 19 20 19 20 20 20 18 17 20 18 16 17 17 18 15 13 16 13 17 10 15 13 12 14 9 12 6 
30 27 27 24 28 23 21 24 25 22 27 27 24 26 22 28 23 27 24 22 22 24 25 22 23 24 22 23 23 21 24 21 22 24 24 22 25 23 24 24 17 23 29 22 26 22 19 16 17 15 17 17 18 20 20 20 21 16 18 16 18 19 17 18 14 13 17 15 15 17 17 13 12 12 13 13 9 12 9 5 
29 28 27 27 30 30 26 26 26 23 25 28 24 21 25 21 23 26 22 28 28 21 24 26 22 24 21 19 24 24 24 23 21 25 28 24 26 24 23 20 17 22 22 24 20 20 19 17 18 18 17 13 19 20 17 21 17 17 17 18 17 19 18 15 16 15 13 17 11 16 16 11 11 10 9 14 11 11 9 7 
30 30 29 28 29 33 25 22 23 22 25 24 25 24 22 21 23 24 21 23 20 23 24 21 26 24 24 24 25 24 22 23 22 23 26 24 25 20 21 22 22 23 20 23 20 18 18 19 20 13 18 15 17 19 20 18 22 20 23 16 14 19 16 16 16 13 15 14 13 16 14 18 11 8 12 10 14 9 10 9 
28 26 28 28 31 35 27 24 26 24 26 26 28 24 22 22 23 22 22 24 22 25 24 23 24 26 26 26 25 22 23 26 24 22 22 24 23 23 24 23 23 21 20 21 20 17 18 17 18 19 18 20 19 21 20 20 24 17 20 18 13 18 17 16 17 17 13 13 11 15 15 15 11 13 9 14 9 10 10 8 
28 24 31 28 29 27 30 27 25 20 26 27 25 23 24 25 22 24 22 23 23 20 22 22 23 27 28 26 22 19 23 24 23 22 22 20 22 23 19 21 20 21 21 19 18 16 18 21 16 15 17 18 18 16 21 19 20 15 17 17 15 16 18 16 14 14 16 14 9 15 15 13 10 6 10 9 7 7 6 7 
24 25 22 25 25 26 29 23 23 25 25 27 23 27 23 19 20 22 25 22 21 19 20 20 21 24 22 24 22 19 20 20 22 21 24 21 22 19 19 22 19 24 19 19 21 19 15 16 16 16 17 17 19 19 21 19 14 18 13 17 15 16 11 12 14 11 10 11 8 11 16 13 11 12 10 6 7 6 3 8 
23 25 24 21 28 24 22 24 26 22 26 27 30 28 26 23 21 24 22 28 22 20 22 21 19 23 26 21 19 17 21 22 20 20 21 20 24 21 21 20 25 22 22 21 19 16 18 13 19 17 17 19 16 15 19 17 16 14 17 15 12 18 12 12 13 12 11 11 10 11 10 11 10 8 7 11 8 10 6 9 
22 22 23 22 23 22 22 24 27 21 25 26 28 25 25 22 18 24 22 24 23 19 24 17 19 21 24 19 22 17 23 21 18 17 16 17 23 21 19 18 20 21 24 21 20 17 19 18 17 18 15 15 16 15 17 16 16 12 17 14 12 13 11 12 10 11 8 6 9 9 11 7 8 7 6 6 10 9 6 11 
23 21 25 21 25 23 21 23 24 27 23 25 23 24 24 20 21 23 20 23 22 21 25 20 20 19 18 20 23 20 20 19 18 22 20 23 20 21 21 19 21 22 28 20 19 20 19 16 20 14 16 18 16 19 19 20 16 14 19 17 13 10 12 12 14 12 12 13 7 7 8 7 11 4 5 8 7 5 4 1 
26 25 25 21 24 26 22 19 22 19 25 21 23 19 23 19 25 20 21 23 23 20 25 20 22 22 24 24 22 22 17 21 18 19 23 23 23 20 20 24 22 27 22 21 21 17 18 19 18 16 20 17 16 15 14 16 15 14 18 14 15 16 12 15 11 9 14 11 5 9 4 8 4 7 2 5 6 5 2 0 


