P2
80 60
268
41 49 46 55 63 63 58 63 62 62 63 65 66 66 66 68 65 66 66 62 65 65 63 51 52 48 52 65 70 69 62 68 69 80 84 83 84 85 84 84 83 88 84 81 84 81 82 82 82 83 82 83 85 82 82 83 84 88 89 84 80 84 80 77 78 81 77 80 81 85 85 84 85 86 91 87 90 86 81 82 
42 42 50 56 61 58 62 62 60 60 66 66 68 66 65 66 71 67 68 65 70 67 65 58 53 54 61 69 71 70 67 70 67 81 84 84 85 83 84 87 84 88 84 83 83 84 81 84 82 83 84 83 85 85 89 87 87 92 85 83 82 80 82 78 78 79 77 78 80 82 85 83 85 89 87 86 89 85 83 91 
29 45 50 55 59 55 57 61 63 59 64 61 68 67 66 69 65 65 68 66 71 65 62 53 52 52 60 72 75 72 64 69 73 82 85 85 84 82 84 86 86 84 85 82 83 82 82 85 84 85 85 84 85 85 85 86 86 83 86 84 83 81 79 79 78 80 80 81 83 83 83 84 84 86 87 89 89 88 88 86 
29 39 46 52 59 56 53 57 60 59 64 60 65 66 66 67 65 66 67 66 68 70 64 60 54 53 64 70 68 69 65 66 77 80 90 83 88 83 86 84 85 84 85 85 82 83 85 84 87 86 85 82 86 85 84 89 84 83 83 85 89 79 78 80 75 80 79 82 81 83 83 89 84 86 87 89 88 93 90 92 
29 43 45 53 49 51 53 57 58 63 60 59 63 64 68 70 66 65 67 68 67 66 64 58 52 53 67 72 70 66 65 63 76 78 84 85 87 85 86 84 84 86 87 83 82 84 85 86 82 83 86 82 85 84 81 85 87 83 82 84 86 82 81 85 79 84 81 81 82 87 85 83 85 86 90 88 93 92 87 87 
21 38 43 53 50 54 52 54 63 59 60 62 62 68 66 68 69 68 70 70 67 72 66 60 51 53 66 72 70 68 64 64 73 79 82 79 87 84 86 85 85 87 89 83 85 83 88 85 87 87 87 85 85 85 87 91 86 87 87 85 84 81 83 81 79 82 84 87 90 86 89 85 88 88 89 87 93 93 89 87 
26 32 38 45 46 50 48 53 57 54 60 63 57 64 64 67 74 66 70 64 68 65 65 56 47 51 65 69 70 64 60 64 70 77 79 81 88 84 86 82 86 85 83 82 81 86 83 86 84 85 85 83 88 85 86 85 87 92 92 84 82 78 78 81 78 79 80 84 84 85 83 84 84 86 90 86 88 90 86 86 
20 37 37 43 46 50 45 48 50 56 57 57 60 62 62 64 69 65 71 67 72 64 64 54 50 52 67 71 68 60 62 65 72 78 80 84 87 84 86 83 83 84 82 83 83 84 83 83 82 87 87 87 90 82 88 93 86 88 88 84 82 81 78 79 79 88 83 84 88 84 84 87 87 84 86 85 85 88 85 87 
31 35 33 41 44 43 44 52 57 57 61 62 61 58 60 67 68 67 66 67 71 68 61 56 53 53 64 67 69 62 62 67 75 81 81 81 86 85 84 83 82 82 82 83 85 83 81 83 84 84 86 86 86 88 83 87 86 85 87 85 83 80 80 78 82 83 83 81 84 89 84 84 85 86 87 85 86 85 84 88 
23 36 31 41 41 47 53 55 55 60 66 69 71 62 62 65 70 63 65 61 66 69 64 51 49 55 68 72 67 63 56 68 79 82 81 83 87 80 82 82 81 85 84 82 83 82 81 83 84 86 85 81 86 84 87 84 87 79 83 83 81 80 80 79 77 82 84 83 85 85 84 87 83 85 82 84 85 84 87 85 
26 27 30 35 40 40 49 41 50 59 72 83 73 68 62 59 66 61 63 63 64 62 58 49 42 48 63 67 65 64 57 66 73 76 81 80 87 81 91 83 83 84 83 80 83 82 80 82 81 83 85 84 87 83 82 86 87 85 84 83 83 81 77 81 79 79 80 86 86 81 85 85 84 82 85 87 88 85 83 82 
21 24 35 38 40 39 41 41 52 63 72 77 80 69 57 61 58 60 61 61 64 64 57 52 47 54 64 67 66 62 58 66 79 83 79 80 85 78 86 84 84 83 84 81 82 84 83 80 82 81 83 86 85 83 82 85 87 83 83 82 80 82 81 80 80 81 80 81 84 80 80 84 84 88 85 91 89 84 92 86 
27 29 30 40 36 38 38 41 44 59 66 70 67 62 56 54 64 62 63 63 65 65 60 50 53 58 62 66 67 64 61 68 80 84 77 79 82 80 84 81 82 84 83 82 84 83 85 84 81 85 85 82 85 79 85 87 86 87 85 81 80 81 83 82 80 81 82 81 83 83 78 87 86 86 89 91 89 87 85 90 
27 29 35 35 29 38 37 39 50 58 71 73 73 59 58 62 62 62 62 61 68 62 59 50 50 63 62 70 63 66 61 67 82 86 82 79 82 81 83 82 86 83 84 83 84 85 85 86 86 89 87 85 83 83 84 85 87 86 85 85 81 80 81 77 81 84 84 85 84 84 84 83 85 87 86 88 90 94 84 84 
23 29 32 33 31 38 39 45 52 66 71 74 74 66 58 58 62 58 60 59 63 59 59 52 46 56 63 63 63 63 61 67 74 85 81 78 79 79 81 85 82 84 85 84 83 84 87 84 83 87 84 83 84 84 86 87 90 92 88 84 83 80 78 79 81 84 82 85 86 83 83 83 86 89 85 88 87 93 88 87 
23 30 27 32 31 43 48 55 61 60 64 73 73 69 68 70 64 59 63 61 62 59 54 45 45 57 65 67 64 67 58 71 78 78 82 79 84 79 81 83 84 87 87 81 81 82 84 82 85 82 84 83 86 85 84 87 88 91 88 85 82 79 79 78 80 85 81 87 88 82 83 86 86 86 85 89 89 93 86 87 
25 27 35 33 36 46 49 59 58 54 62 64 63 67 72 75 67 61 61 56 62 56 48 48 46 61 67 67 65 66 61 70 81 85 84 83 81 81 82 85 83 85 86 79 79 84 83 81 81 84 85 83 86 84 85 86 89 87 86 85 79 79 80 79 80 82 83 86 86 86 86 90 94 88 84 86 88 92 86 87 
24 31 24 36 41 47 44 53 53 58 60 62 69 69 68 72 63 53 59 61 60 61 53 45 48 66 64 68 63 63 59 73 79 84 85 83 84 81 87 86 88 83 81 80 84 86 82 81 82 82 85 84 80 84 87 86 84 91 87 85 79 77 78 81 80 86 80 86 89 89 88 90 88 88 88 85 87 90 85 86 
26 29 28 38 47 44 48 52 49 51 58 57 62 66 66 68 67 60 58 56 61 59 54 46 45 58 59 65 62 59 60 74 82 81 83 82 84 83 83 86 87 86 83 84 81 82 81 79 80 81 83 83 89 85 83 87 85 87 86 82 77 81 79 80 81 84 82 87 86 85 88 90 85 88 88 88 88 88 91 86 
16 26 29 36 41 45 45 49 47 46 57 56 63 68 68 71 67 59 60 60 57 59 53 43 44 58 62 68 60 65 59 71 80 79 80 83 83 84 86 85 85 86 85 80 80 80 81 82 83 85 83 85 87 82 85 85 85 82 83 80 78 78 78 81 82 80 83 86 89 89 86 85 87 87 87 84 86 88 88 90 
27 26 27 34 44 48 46 47 50 49 53 54 65 66 70 72 69 57 58 57 55 57 47 42 51 58 62 64 58 60 63 69 78 79 80 82 84 83 86 86 83 85 81 81 81 82 82 84 82 83 82 83 85 83 82 81 85 81 83 82 79 77 82 81 82 81 84 84 87 87 86 87 84 89 87 85 85 88 92 89 
22 29 24 39 50 53 48 48 47 47 52 58 64 63 67 70 67 59 57 56 56 59 50 40 44 59 65 66 60 62 61 71 78 80 79 81 82 82 84 84 87 84 84 80 79 79 80 80 79 81 85 82 83 85 86 84 83 82 86 82 82 79 80 83 85 82 83 85 89 93 88 89 85 89 88 86 86 89 89 93 
25 28 27 42 49 50 55 51 49 50 53 55 63 62 67 74 68 57 57 56 53 55 49 37 41 58 62 65 61 60 63 75 81 82 78 81 84 82 83 81 85 83 82 79 78 79 81 81 83 85 86 83 87 83 81 84 81 82 87 82 84 82 79 81 84 86 84 85 91 89 88 91 89 86 88 89 91 92 87 89 
29 23 27 35 48 49 47 59 54 49 54 55 57 62 65 67 59 58 58 52 58 54 45 39 44 58 62 64 62 60 62 74 78 80 80 81 82 84 84 81 82 83 79 78 81 80 81 83 83 87 86 83 86 84 81 81 84 84 84 81 82 76 80 85 85 86 86 89 92 88 84 88 92 88 88 91 91 90 90 92 
26 30 24 32 39 39 45 51 49 49 52 54 59 60 58 55 54 53 55 53 57 51 48 39 48 61 58 64 60 59 64 74 75 78 78 78 80 84 81 84 85 81 82 82 81 77 81 85 84 85 81 83 83 84 82 84 83 83 82 83 82 79 82 82 86 86 88 87 88 93 90 89 88 91 90 89 90 92 92 92 
28 30 30 30 30 32 41 51 47 48 51 55 57 61 56 58 53 52 50 55 53 53 44 40 48 59 62 65 60 58 64 72 75 76 77 78 81 81 85 83 85 84 81 79 84 83 83 85 82 84 82 81 85 83 79 84 84 82 85 84 83 78 81 82 89 84 85 87 88 91 89 88 86 89 94 91 95 92 92 91 
23 23 20 26 28 28 41 42 45 43 45 48 60 52 56 55 50 50 51 54 54 53 50 41 49 56 61 66 55 56 64 71 73 77 78 75 79 82 82 82 82 80 84 80 84 81 80 81 80 81 82 81 83 79 80 82 80 79 80 82 77 77 80 80 84 85 88 85 89 87 87 90 86 86 90 87 90 92 89 92 
23 23 21 27 29 33 37 44 40 37 44 47 53 54 51 53 50 47 52 51 56 53 44 39 47 57 59 61 53 57 60 70 73 77 77 78 80 79 83 85 80 81 82 80 79 80 82 80 81 82 83 80 80 80 78 81 81 81 78 80 83 75 80 81 85 84 86 85 91 87 87 87 88 91 85 92 89 89 88 89 
22 23 16 26 26 30 33 36 37 37 40 43 46 49 50 50 47 46 52 52 49 48 44 40 47 54 53 61 57 54 60 73 74 78 78 77 79 82 86 88 81 83 82 81 83 80 82 82 81 83 82 82 82 80 80 78 81 78 81 75 81 77 77 81 83 87 84 89 89 88 93 89 91 91 92 89 93 91 92 89 
21 20 21 24 25 34 38 38 40 36 38 40 40 48 49 47 45 47 47 48 50 47 39 38 43 53 55 55 50 51 59 72 73 71 78 80 81 82 82 84 82 82 83 80 81 82 81 78 82 80 81 82 84 80 79 82 82 81 78 79 78 77 82 83 85 86 90 92 89 89 88 92 86 90 89 91 90 90 86 88 
16 16 18 22 24 29 31 41 37 33 33 36 39 42 39 42 44 46 42 47 49 48 38 38 44 51 54 52 49 51 58 69 74 76 78 79 81 80 82 86 82 83 87 85 84 81 81 82 82 80 82 82 82 79 79 80 83 81 79 79 79 80 79 89 86 86 89 95 90 91 92 91 88 91 92 90 91 94 92 88 
14 14 14 18 25 23 32 39 35 31 31 32 36 39 37 43 45 42 47 45 47 50 38 37 44 51 52 48 50 50 61 70 75 76 79 79 85 80 84 88 88 87 86 84 84 84 82 83 85 86 83 79 85 81 77 79 82 86 79 83 83 87 87 88 88 91 90 92 92 94 93 92 89 93 91 90 93 95 90 88 
10 16 15 22 25 29 33 38 36 28 33 33 35 36 37 41 45 40 46 45 47 48 39 43 43 50 48 46 45 46 61 70 73 73 78 83 82 83 84 89 88 86 88 86 84 85 84 82 83 84 82 85 85 82 81 85 86 85 86 87 89 88 90 93 90 89 92 95 99 95 94 89 91 94 92 95 93 97 95 94 
12 15 15 15 19 35 30 35 30 27 26 30 32 37 33 38 39 39 42 44 45 45 31 34 35 46 47 44 41 50 58 70 73 77 78 79 83 82 83 87 85 84 88 86 86 84 83 87 81 84 84 84 84 85 83 86 89 90 101 98 94 93 93 91 93 91 94 95 93 97 94 98 92 95 95 96 91 95 93 96 
10 14 14 14 16 31 32 36 23 22 28 34 36 32 37 43 43 40 43 45 46 45 39 35 35 42 37 37 40 43 57 69 70 73 79 79 80 85 93 103 102 93 93 91 91 91 87 85 84 84 86 85 90 88 90 88 92 97 118 131 124 108 101 95 93 93 97 91 99 96 93 94 95 98 96 94 97 97 94 98 
14 20 12 19 16 22 22 22 28 40 48 54 67 64 69 76 77 70 71 71 65 58 49 38 37 39 36 39 39 44 59 68 73 77 79 80 86 90 116 157 166 141 105 90 91 89 89 90 88 87 88 90 89 86 87 91 89 92 128 140 139 138 139 131 116 108 101 104 100 101 99 96 97 99 98 101 98 103 94 96 
19 21 17 20 16 14 18 22 45 70 84 83 81 85 83 93 89 90 90 88 85 88 79 75 50 38 36 33 34 43 57 71 73 73 78 79 84 92 128 174 185 164 105 92 89 95 96 87 89 89 89 89 91 86 85 88 86 96 135 148 143 139 141 148 146 148 140 131 113 108 108 100 97 99 99 102 98 100 96 100 
12 15 10 15 12 16 17 20 56 77 89 92 94 89 92 90 95 100 97 91 94 94 95 86 56 38 34 31 28 42 51 66 73 74 77 80 87 88 134 205 217 178 111 104 105 103 93 86 91 91 88 84 87 84 78 84 86 100 139 143 143 143 146 151 155 158 156 160 156 143 133 117 106 103 102 103 99 100 100 104 
5 7 5 7 4 8 8 33 69 86 95 95 91 94 92 98 97 97 95 94 97 97 96 87 68 40 30 31 29 38 49 64 68 72 77 75 84 87 119 169 182 160 113 96 96 92 91 85 85 88 90 83 87 84 84 88 85 105 141 148 146 147 153 156 158 160 161 161 162 159 156 149 139 131 116 111 106 109 103 103 
3 9 2 8 3 1 12 49 84 92 99 100 101 96 95 99 96 98 100 94 99 98 98 97 83 42 34 30 27 37 51 65 71 72 73 78 83 90 116 145 148 152 121 94 90 86 89 86 85 87 89 86 87 84 86 86 85 118 143 146 148 152 155 160 157 163 161 164 161 164 162 157 151 149 142 135 125 118 109 111 
7 10 5 10 3 12 23 66 89 88 92 97 100 100 95 101 100 98 102 98 101 102 97 97 90 62 34 30 24 36 48 63 67 70 76 80 85 92 123 133 137 136 134 118 94 84 86 85 86 88 87 85 88 88 85 86 87 122 143 147 146 152 157 161 163 167 167 170 173 166 165 164 155 155 152 153 145 140 131 128 
7 10 9 6 7 14 41 82 89 87 91 99 102 100 97 97 101 100 101 101 98 95 100 100 96 72 39 30 22 34 45 64 68 67 73 81 89 106 117 119 126 128 127 125 107 90 89 85 86 85 87 84 87 86 84 88 90 133 148 148 148 150 158 164 164 168 163 171 173 172 165 163 160 159 155 149 147 149 144 142 
9 8 6 2 4 14 57 82 97 96 96 93 101 98 99 100 100 100 101 100 101 104 102 98 99 85 49 27 21 35 50 59 65 68 75 79 91 103 114 114 116 122 125 119 118 94 85 83 85 84 84 89 89 86 88 86 98 139 151 152 150 156 161 168 168 168 166 169 179 178 172 166 162 159 154 154 149 146 144 146 
9 3 0 3 13 31 68 90 92 92 94 100 102 97 98 100 100 99 100 100 103 103 101 103 99 87 63 29 30 33 52 60 65 71 77 80 92 99 106 112 107 115 116 114 106 89 90 89 84 85 85 90 95 91 91 91 107 149 152 157 157 160 168 168 169 172 172 174 180 181 175 174 163 167 157 157 146 146 144 144 
9 5 3 6 16 53 79 95 97 94 93 97 99 99 97 101 104 102 103 101 107 101 103 102 99 95 83 51 29 34 54 64 67 68 73 80 89 90 98 100 99 98 94 85 87 86 86 89 83 85 84 88 95 92 91 99 124 156 156 157 158 164 167 171 170 175 177 176 180 179 178 173 170 163 160 156 150 145 140 146 
11 11 9 19 43 76 90 92 101 101 96 100 104 105 102 103 104 99 104 104 104 102 101 101 101 93 93 81 38 36 55 62 72 69 75 81 88 83 91 91 89 86 86 83 85 86 82 87 83 84 87 90 92 96 95 101 135 165 164 160 163 167 168 173 170 175 183 183 186 180 179 177 168 167 168 161 146 149 146 145 
18 21 21 32 72 90 97 92 97 97 97 102 102 107 100 101 103 102 106 101 106 106 103 100 97 96 92 91 70 49 48 66 72 75 76 80 83 80 84 84 88 87 85 80 83 84 82 82 79 83 83 87 91 92 102 100 150 176 167 170 169 168 174 177 173 178 184 185 187 185 181 180 175 172 169 163 148 149 146 151 
24 32 31 59 85 93 99 99 97 94 99 100 102 101 100 101 103 103 103 103 105 106 101 95 98 98 95 96 86 78 59 63 73 78 76 76 80 80 84 82 80 87 83 81 83 85 88 78 85 84 85 82 88 92 96 106 160 192 177 184 176 174 175 176 173 175 181 191 187 183 187 179 174 177 175 162 152 151 146 152 
45 53 58 82 97 92 97 104 91 92 100 103 102 103 103 105 100 104 102 100 104 104 109 98 93 91 90 96 94 92 74 74 74 71 74 77 84 84 83 82 83 86 84 82 86 85 86 81 80 84 84 85 85 93 90 99 130 177 206 199 196 183 181 178 177 179 188 190 191 190 190 189 178 179 177 161 152 152 150 154 
68 70 80 93 95 98 95 92 93 92 101 106 108 104 106 111 106 108 107 109 104 108 103 93 87 85 85 95 97 96 90 83 81 75 77 75 79 80 85 81 84 83 88 85 84 87 89 87 87 82 83 80 85 92 96 103 104 115 158 196 211 200 203 187 184 191 194 200 201 193 191 190 181 182 183 160 156 157 149 156 
69 76 89 98 98 96 95 82 83 87 94 101 105 106 104 105 105 107 104 108 105 101 100 91 83 79 84 91 97 96 93 85 84 77 84 81 86 82 88 89 90 86 93 88 93 91 94 96 86 79 83 80 85 96 99 102 104 103 105 131 178 216 221 211 195 192 201 202 203 201 200 196 190 189 187 162 153 160 149 161 
72 83 93 100 101 95 87 75 74 85 95 99 105 101 101 101 105 104 104 101 105 103 100 97 87 78 77 92 92 97 95 94 85 86 87 80 86 84 89 87 91 93 96 91 95 93 94 96 92 84 82 81 81 93 102 105 110 107 108 109 116 156 196 221 220 218 213 208 212 213 209 204 196 196 194 165 161 159 156 157 
79 87 93 100 97 98 87 65 72 85 95 98 104 103 105 103 101 104 107 103 106 104 100 96 86 83 82 89 94 101 96 95 85 78 79 80 85 83 85 88 95 95 92 93 97 99 102 98 100 93 90 85 91 95 102 108 107 105 110 105 109 101 125 166 208 243 237 236 225 219 219 208 205 206 186 164 158 163 157 161 
81 89 90 100 104 101 85 66 72 91 98 100 103 105 105 106 105 103 103 102 104 105 103 101 96 81 82 90 92 100 97 95 88 76 74 75 82 78 83 81 84 85 89 87 96 89 92 94 95 91 90 87 85 95 94 101 103 104 100 102 101 97 100 108 138 198 232 248 246 241 231 219 213 212 188 172 163 164 159 166 
70 89 88 96 102 98 90 78 89 97 106 102 105 103 103 105 107 107 103 104 107 102 101 101 101 97 99 99 98 99 98 89 84 73 71 68 72 73 78 77 76 78 78 80 84 82 82 80 82 80 82 82 85 91 91 96 96 99 98 103 100 98 100 100 101 123 156 210 248 261 253 237 221 224 187 172 159 167 163 169 
72 85 97 103 100 99 95 98 98 102 105 106 104 106 105 106 101 105 107 102 105 104 103 100 103 103 102 102 98 99 97 93 93 77 65 65 67 69 72 73 73 79 79 80 77 77 74 78 81 83 82 83 86 82 88 92 93 95 100 99 96 97 100 98 101 105 112 135 185 239 268 253 240 235 190 172 172 158 166 169 
70 85 94 99 101 98 94 100 107 102 103 105 113 107 106 105 104 103 106 103 106 102 101 103 105 102 105 101 100 101 94 95 92 86 70 63 69 71 75 78 79 78 78 76 78 73 76 89 88 84 85 85 90 87 86 89 92 94 98 98 98 94 99 95 102 99 103 115 118 157 208 237 246 232 190 179 173 177 168 170 
65 78 88 100 96 101 97 103 105 106 106 111 110 110 108 108 107 103 103 107 106 103 105 103 107 101 105 103 101 99 91 92 88 88 88 67 73 78 83 83 80 83 82 81 81 82 82 94 87 88 91 88 90 89 92 93 94 95 95 96 100 98 95 96 102 102 99 103 108 117 134 161 193 198 189 187 183 183 172 179 
61 78 79 94 94 103 101 102 107 107 109 107 108 108 106 104 104 102 106 104 104 103 105 104 102 100 106 100 101 95 94 88 84 86 88 82 82 80 86 84 86 86 95 79 84 86 86 82 85 87 85 88 92 89 96 91 96 94 95 99 98 101 95 98 100 98 102 99 108 105 110 109 126 131 147 173 189 185 182 183 
64 74 82 93 96 99 102 105 110 104 107 105 108 105 104 104 110 102 107 103 102 103 103 100 100 98 102 100 100 99 92 88 83 85 86 88 88 86 91 87 86 88 89 86 86 87 87 85 87 85 90 90 93 91 91 98 94 97 101 97 95 101 97 100 100 97 98 101 100 101 106 103 104 107 108 137 176 190 183 189 


