P2
80 60
51
27 26 28 31 29 33 28 30 33 33 35 36 36 34 39 32 32 36 31 35 31 33 34 33 34 40 35 40 39 39 44 39 38 40 35 39 38 34 36 37 39 38 39 40 43 43 41 40 40 37 38 39 37 33 35 33 39 37 36 30 25 23 28 20 19 22 17 19 22 16 22 21 16 19 19 20 20 14 18 20 
31 29 26 29 32 33 31 31 30 36 39 37 29 38 37 36 39 35 38 36 33 35 34 36 33 36 36 41 41 41 45 40 36 38 36 34 39 36 34 35 41 40 39 43 44 41 40 41 40 38 41 36 38 39 35 32 33 36 36 30 26 26 25 22 22 23 15 19 21 18 19 17 20 17 21 21 16 23 22 17 
29 25 26 31 29 35 33 29 35 33 38 38 33 34 37 31 35 35 33 35 36 37 38 32 34 36 34 40 41 40 46 41 38 39 40 38 42 37 36 39 43 40 36 40 45 41 38 37 40 40 40 36 39 39 34 32 31 30 30 28 26 24 22 23 22 20 19 22 19 20 20 19 19 19 18 20 23 20 22 21 
28 26 26 30 30 31 35 31 35 38 38 40 34 33 34 31 33 33 37 36 35 37 34 37 35 36 35 42 37 41 43 39 38 39 35 37 38 39 33 36 38 39 39 38 41 41 44 40 42 42 41 38 37 36 35 32 32 31 30 27 29 23 25 23 20 22 17 21 20 21 22 24 19 19 18 23 21 23 20 20 
31 26 27 34 28 33 32 28 36 36 35 34 36 34 37 36 34 33 33 36 39 40 34 31 37 36 38 44 39 42 40 37 36 35 34 37 36 39 37 34 36 41 43 41 44 43 45 43 40 38 39 38 39 35 31 33 31 30 30 30 25 25 23 26 20 21 18 22 20 21 23 16 20 21 17 19 19 20 23 23 
30 27 30 35 29 35 34 32 37 33 35 33 36 33 34 35 35 32 37 37 32 39 38 37 35 37 38 45 42 40 41 41 37 39 37 34 37 38 35 38 39 38 41 41 43 44 51 46 41 39 39 38 43 37 32 31 32 33 32 32 26 24 29 22 22 24 21 24 27 24 26 19 21 19 17 20 21 23 18 19 
24 20 29 34 34 36 37 34 36 34 33 34 35 33 37 32 38 36 35 35 35 38 39 35 34 37 35 41 42 39 38 41 37 37 35 37 36 41 37 36 41 41 41 42 44 44 43 42 40 40 40 40 41 34 30 31 30 36 34 34 32 23 26 24 22 22 22 23 25 20 22 19 18 22 18 18 17 17 15 18 
25 23 26 34 29 32 36 35 33 34 34 34 33 36 37 32 38 35 36 35 39 40 36 33 36 41 38 45 44 42 42 38 36 37 38 39 37 40 37 36 40 37 39 42 44 42 46 41 40 37 39 39 39 35 34 34 31 35 28 32 28 26 27 22 23 25 24 20 23 16 20 21 20 20 18 19 16 19 19 15 
29 26 30 36 32 32 33 32 32 34 31 29 32 33 34 33 37 35 35 40 38 37 37 34 34 40 39 44 45 39 42 39 37 35 35 37 36 38 37 36 38 37 34 44 45 42 42 41 37 37 35 37 39 34 33 35 31 29 29 30 29 22 24 22 22 24 24 23 19 15 20 20 19 19 17 21 17 16 18 15 
26 25 33 38 30 33 36 34 33 31 35 35 31 32 30 30 39 34 34 35 38 36 35 33 39 38 38 43 44 41 41 36 38 36 38 36 34 37 33 33 37 34 37 38 41 40 45 42 40 37 38 34 36 34 33 36 30 27 33 28 24 21 25 20 21 25 23 21 22 18 15 19 19 16 16 23 20 18 17 18 
20 28 37 33 30 35 41 34 34 37 33 32 35 29 35 33 38 34 36 35 32 37 34 34 33 39 34 40 43 37 41 40 36 38 33 34 36 33 33 35 35 37 36 40 40 41 39 36 37 36 35 33 35 32 30 30 30 26 31 28 22 22 21 24 19 26 21 20 18 17 17 16 18 16 15 23 22 17 18 18 
27 23 33 36 31 36 35 36 31 30 36 34 32 34 35 33 32 30 31 30 35 36 34 36 33 37 33 43 39 39 41 41 38 35 35 32 33 36 35 34 36 37 37 40 41 40 40 38 37 36 34 30 35 30 28 31 31 28 29 23 24 27 24 20 25 26 23 19 16 16 16 14 16 17 16 27 25 21 18 20 
32 26 32 34 32 31 32 36 31 36 33 38 31 29 30 34 31 29 31 32 30 33 33 31 31 34 32 37 40 40 44 35 34 37 35 34 34 38 39 35 34 38 38 37 43 39 43 37 37 35 35 32 35 33 28 28 30 28 29 30 25 26 26 21 20 20 22 19 18 19 8 15 16 13 16 16 13 16 21 14 
26 32 34 38 33 33 37 30 34 33 32 32 28 29 31 32 31 30 32 31 34 32 33 34 32 32 36 38 38 39 39 37 37 37 36 31 34 40 31 32 37 36 35 40 39 42 43 41 36 42 37 35 34 32 27 30 30 30 31 31 26 21 23 19 23 23 24 23 18 17 19 15 16 19 18 17 18 17 20 19 
24 37 39 37 30 30 30 35 32 34 29 29 26 27 29 30 29 27 33 31 31 30 31 31 35 34 34 44 38 37 37 34 37 36 36 31 33 36 31 35 33 38 35 39 37 41 41 38 39 37 36 34 33 32 22 29 31 40 33 31 25 20 23 18 21 21 21 22 16 16 20 14 19 17 15 16 18 19 16 17 
25 35 34 36 28 30 31 35 37 31 30 30 26 29 29 31 32 29 29 29 29 32 30 30 32 35 39 40 34 38 37 34 37 35 32 31 29 32 31 32 35 34 33 39 39 36 41 37 37 36 34 31 32 33 28 26 29 30 29 32 24 20 24 19 21 23 23 25 20 18 19 17 18 15 15 15 19 18 15 17 
20 26 32 35 28 29 33 35 34 29 29 28 28 28 32 31 28 31 27 27 27 29 27 30 31 30 36 39 34 35 37 35 34 32 32 33 31 32 29 32 34 31 32 35 36 44 37 35 35 35 31 31 30 30 25 33 26 32 31 28 23 22 21 22 19 21 21 20 20 19 25 18 18 19 17 14 22 17 20 14 
23 27 31 32 31 33 34 34 33 30 32 28 30 29 29 30 31 29 29 31 30 28 30 32 28 31 34 41 38 37 37 35 35 33 32 32 35 32 33 34 34 31 30 40 37 42 36 35 33 31 31 31 35 28 31 32 28 33 33 27 24 20 22 21 20 22 17 22 20 20 20 19 20 19 19 19 20 22 18 15 
26 24 29 35 32 32 32 35 32 28 32 30 27 28 29 29 30 30 29 31 27 32 33 32 30 34 32 37 38 37 37 33 35 32 35 29 36 34 32 32 34 36 32 40 40 37 36 35 32 31 30 32 36 30 27 31 27 28 27 26 24 21 20 20 21 21 21 22 21 18 19 17 16 14 18 16 19 15 18 17 
25 26 31 36 30 36 32 33 35 34 31 30 33 25 29 29 31 31 32 31 31 33 35 29 33 33 33 42 37 39 39 35 36 33 32 31 33 36 32 30 35 34 37 36 38 35 38 37 33 33 32 30 31 29 28 32 28 27 26 27 22 25 22 18 22 23 19 22 20 21 21 16 19 17 16 16 18 17 16 14 
24 29 31 38 31 31 31 34 29 35 33 31 30 27 27 24 28 29 31 30 29 33 27 32 31 33 34 40 37 36 45 37 33 31 34 28 33 34 31 31 37 38 33 35 34 35 34 33 35 31 31 31 33 27 27 25 28 27 28 27 24 24 23 20 22 21 20 21 19 21 19 23 19 18 15 20 19 19 16 17 
25 31 32 36 31 31 32 31 28 29 34 30 34 30 28 28 30 27 28 27 27 31 33 32 32 32 35 40 38 36 37 34 32 32 27 31 31 31 32 30 34 34 33 32 33 33 32 33 31 33 34 27 30 26 25 28 25 25 29 23 22 23 23 20 17 23 21 19 20 23 21 22 21 15 14 17 17 19 19 17 
24 32 32 36 29 29 34 33 32 29 27 28 29 26 30 29 28 27 28 32 27 26 27 30 29 31 32 38 32 35 33 33 35 30 28 27 30 31 31 31 30 30 30 32 31 30 33 31 33 33 29 27 31 23 27 30 22 23 29 27 23 18 20 20 20 22 22 20 20 19 19 20 18 13 15 16 16 15 18 20 
27 30 30 31 30 33 34 43 33 30 28 27 27 24 27 26 27 26 29 28 27 30 29 29 29 34 32 39 30 34 31 33 32 28 27 26 29 29 28 29 31 33 30 33 34 33 30 27 30 34 32 27 31 24 24 26 23 22 26 25 27 24 23 20 23 23 26 21 20 21 19 15 20 20 17 15 17 16 20 21 
29 30 29 32 26 29 34 34 32 30 29 27 27 24 27 25 27 30 26 27 29 29 29 28 31 32 28 36 34 34 32 30 33 30 31 26 29 30 27 29 29 28 31 33 37 37 34 30 33 31 29 28 28 27 20 23 23 24 27 25 23 22 19 19 21 25 23 22 18 20 19 15 20 16 19 14 16 15 17 18 
25 30 28 31 29 33 29 31 28 29 30 28 24 27 31 28 25 26 23 27 27 28 28 27 27 29 29 36 32 31 33 29 31 29 27 28 29 28 28 28 32 30 28 35 33 37 35 35 30 30 28 27 29 25 18 24 23 23 27 26 22 19 18 19 23 20 20 24 18 17 20 17 18 16 15 17 20 20 19 22 
22 26 29 32 23 31 30 26 28 29 27 24 26 26 30 26 26 29 25 26 27 27 30 31 31 30 30 38 34 32 30 28 30 28 30 26 26 28 26 29 30 30 31 36 32 35 31 28 30 28 29 27 27 23 21 23 24 22 25 25 24 20 18 17 16 18 20 20 22 17 19 18 22 14 16 16 17 22 17 15 
25 26 28 29 27 29 28 29 27 26 25 22 29 31 30 21 24 25 26 26 22 25 26 29 32 32 34 37 33 33 32 30 27 26 27 26 26 26 26 25 30 30 30 33 33 34 32 28 29 27 27 29 29 24 20 24 23 18 20 23 20 17 21 17 17 19 18 20 17 17 18 18 16 16 14 17 16 17 18 17 
24 24 27 31 26 27 31 30 30 28 27 23 24 28 25 26 23 25 25 28 21 28 25 28 31 34 30 33 31 31 35 27 26 27 25 24 27 28 26 25 28 28 32 29 31 34 35 32 30 29 27 26 28 21 22 25 22 18 26 20 22 19 20 18 18 19 16 17 14 17 18 18 15 13 14 17 16 18 15 11 
29 25 31 30 25 25 26 23 27 29 24 18 24 26 27 24 25 23 27 23 22 23 28 30 32 35 29 34 29 32 28 33 27 27 26 27 29 30 25 26 29 31 30 31 31 31 34 28 27 25 30 25 26 23 23 28 21 22 23 17 21 18 21 18 18 21 29 23 17 17 15 16 16 9 16 18 20 14 17 13 
30 28 29 30 25 26 27 25 27 25 22 26 24 22 28 24 26 20 24 24 21 25 31 29 30 34 32 34 30 29 29 30 26 27 29 25 28 25 26 29 30 28 35 35 36 38 29 31 30 26 29 25 24 21 23 23 21 19 24 19 24 18 20 19 17 22 25 21 20 17 17 18 14 16 16 17 15 18 11 11 
24 32 23 29 22 28 27 23 23 24 26 23 21 25 27 25 26 25 28 25 23 25 25 26 30 32 34 31 32 32 30 30 26 26 27 22 28 24 24 26 34 31 31 37 34 29 30 28 28 30 27 24 25 21 20 21 21 20 21 22 18 18 18 19 20 22 17 20 17 19 21 14 15 14 16 17 15 18 16 19 
23 25 23 33 24 31 24 26 29 25 23 27 22 23 23 26 26 23 24 22 21 23 26 26 30 35 32 34 29 31 34 29 30 25 23 26 27 24 24 26 30 33 32 38 33 31 28 32 26 28 27 28 27 26 20 22 22 22 24 21 20 19 21 16 18 22 19 22 21 18 18 15 17 17 20 16 19 18 18 13 
23 26 27 27 25 24 25 22 23 24 21 25 23 27 27 22 26 22 22 21 19 22 26 30 27 31 30 32 30 33 33 27 26 24 24 21 21 24 24 25 32 31 34 37 33 33 30 29 27 25 28 23 23 24 22 22 21 25 22 21 19 19 19 18 20 24 23 20 17 18 15 15 15 16 18 17 20 19 16 16 
20 24 22 28 22 25 24 22 21 22 19 25 25 25 24 23 25 26 24 23 21 23 25 22 31 32 28 30 27 31 32 27 28 26 27 21 24 25 23 22 28 30 30 32 30 33 32 28 25 23 27 24 23 24 23 22 23 24 24 19 22 18 18 18 22 25 22 23 18 17 16 14 18 13 16 15 18 19 20 16 
22 24 23 29 22 24 25 20 22 20 22 23 24 27 28 26 25 22 21 21 21 23 27 27 29 29 30 33 30 29 30 26 29 25 23 23 23 24 20 25 32 30 28 30 32 30 32 30 25 25 24 23 27 22 21 23 21 22 22 22 18 16 18 18 17 21 21 21 17 18 15 13 14 13 18 13 21 17 14 12 
20 24 25 27 22 24 23 20 22 21 24 23 21 24 22 24 22 25 23 18 22 22 27 24 26 24 26 30 29 28 29 27 27 25 28 24 25 27 21 21 31 28 30 33 31 31 32 26 27 22 24 20 25 21 22 27 22 20 26 26 20 20 20 18 21 22 20 18 19 16 17 11 16 12 17 15 15 19 16 11 
22 26 29 27 24 24 24 22 24 21 19 24 24 25 24 20 26 28 22 23 21 28 27 24 26 26 26 25 29 26 33 28 28 24 25 25 25 23 23 28 26 29 29 35 32 31 30 28 25 25 24 23 25 22 20 25 20 22 22 23 21 17 19 18 19 27 25 21 20 16 16 15 12 14 14 15 15 18 17 15 
19 29 27 25 19 22 21 23 22 24 27 22 23 23 26 25 20 25 20 16 22 24 31 26 26 25 24 30 30 26 28 26 23 27 23 21 23 24 27 25 30 30 31 31 30 29 29 30 27 25 28 22 25 23 23 23 18 18 24 22 20 16 18 17 17 24 23 20 19 14 14 14 9 13 15 14 19 16 19 15 
21 21 20 28 21 21 20 24 21 18 18 21 23 20 19 22 21 21 20 18 20 30 25 26 26 23 25 32 26 31 27 26 24 25 25 21 21 22 25 27 27 28 31 32 30 28 30 30 28 29 24 28 28 22 24 23 20 19 20 22 19 8 16 15 18 20 18 18 17 13 14 15 13 15 13 16 19 20 17 21 
20 19 18 18 17 21 23 22 18 19 17 21 23 24 24 20 19 14 18 16 17 21 25 25 27 24 28 30 27 27 24 25 23 25 24 21 24 22 22 25 27 23 28 29 28 30 28 31 27 28 28 30 28 20 20 21 16 17 20 22 16 16 15 12 17 17 16 16 14 14 13 14 13 16 14 13 21 17 25 19 
15 17 19 17 18 18 17 14 20 17 17 21 21 24 22 23 22 17 15 18 21 22 22 22 25 24 25 28 26 23 25 24 25 25 21 22 22 24 20 26 25 25 29 27 27 28 27 29 26 23 26 26 24 22 23 23 19 20 19 18 14 17 19 15 14 19 12 13 14 15 15 12 11 12 13 16 16 20 17 19 
14 15 19 19 18 18 18 15 17 20 21 19 19 25 21 17 18 15 18 16 16 18 21 22 23 28 23 25 21 25 23 23 22 24 22 23 22 24 22 24 29 27 26 29 29 27 27 26 24 27 27 21 21 20 17 21 21 19 24 19 14 18 20 19 19 22 14 15 16 11 12 15 13 11 14 14 13 17 16 16 
15 12 14 18 15 18 17 14 14 17 17 20 16 24 20 18 17 17 18 18 18 20 20 23 23 24 23 27 25 24 27 25 23 22 22 22 24 20 21 24 24 29 24 30 31 27 27 34 26 24 25 23 20 19 19 20 19 18 24 17 16 14 18 15 14 23 16 11 13 16 13 11 11 11 11 15 21 16 21 15 
15 16 6 16 14 15 16 11 15 12 13 19 18 22 18 17 19 14 16 18 20 21 26 23 21 23 20 26 24 25 25 22 20 24 20 19 22 22 22 21 28 26 27 25 29 30 29 33 26 26 20 20 20 17 14 16 16 23 20 18 15 14 16 14 14 20 17 18 15 14 10 11 14 14 13 14 21 18 20 20 
10 15 11 15 13 16 15 10 13 12 16 22 19 23 24 18 20 17 14 20 20 19 29 25 23 23 22 26 23 23 29 23 19 21 21 22 21 23 20 23 23 25 28 28 28 30 30 29 23 25 21 22 20 15 14 17 19 18 20 16 15 14 17 15 16 20 19 17 16 11 10 9 12 11 12 16 15 15 14 15 
15 12 12 8 9 13 10 13 14 8 17 17 20 21 18 18 18 16 16 18 15 16 28 27 23 25 19 24 28 24 26 21 23 20 17 20 24 19 22 23 28 24 24 27 29 30 26 25 23 21 21 19 20 13 14 16 17 22 22 15 16 15 15 11 14 19 17 19 11 10 10 9 12 13 12 9 14 11 15 13 
9 12 9 12 7 12 13 15 14 10 16 16 20 21 17 19 19 14 15 14 16 20 26 21 24 23 21 22 21 25 22 21 18 21 19 23 26 23 23 23 26 27 21 26 27 26 26 24 25 20 20 20 18 13 15 14 15 22 21 16 16 16 15 16 14 16 14 18 13 11 13 11 11 12 12 9 17 9 9 16 
9 6 7 10 9 12 12 13 14 15 13 12 15 18 18 18 17 14 15 14 13 17 27 18 20 17 22 24 24 19 22 19 19 21 19 17 19 22 20 18 25 22 20 25 27 22 22 18 21 22 20 18 16 12 10 16 14 15 19 16 16 16 11 9 12 18 10 15 15 13 10 10 10 12 10 6 10 8 12 9 
17 10 8 13 11 10 11 10 13 11 13 9 13 19 16 16 17 16 16 12 13 20 22 21 21 22 20 22 23 23 21 18 19 18 20 15 20 21 22 19 23 25 25 23 26 23 20 19 17 23 19 13 15 14 14 15 11 15 18 16 16 14 14 13 13 18 11 14 14 12 9 10 10 10 4 7 11 8 7 14 
8 9 5 11 10 9 11 9 9 7 12 14 17 18 16 17 14 12 13 14 15 15 18 18 20 22 18 23 22 22 21 20 20 19 18 17 19 20 23 17 22 26 24 24 25 24 21 19 19 16 16 13 11 12 13 15 15 19 17 15 14 13 13 11 15 18 10 14 13 11 8 9 10 9 10 10 13 10 10 9 
12 8 9 17 12 9 11 6 11 10 7 16 11 16 14 12 17 11 17 12 18 17 20 18 17 23 19 22 24 21 25 21 21 17 23 18 23 20 18 17 24 26 23 23 26 24 21 21 21 18 18 12 14 13 11 18 15 19 17 16 16 12 12 12 14 17 13 16 12 8 11 8 12 8 10 11 13 13 11 13 
8 9 15 15 9 6 10 9 9 9 8 12 12 12 11 12 16 10 14 11 9 16 17 16 17 21 20 22 20 23 18 17 17 18 18 16 19 17 18 16 21 21 21 20 22 21 21 22 21 17 17 13 13 10 11 14 16 20 19 14 17 11 12 13 13 20 10 12 11 10 11 9 8 8 7 11 9 10 3 9 
11 8 13 12 16 14 6 6 8 6 8 9 14 14 13 12 13 8 13 10 16 14 18 16 22 21 20 24 19 19 21 19 16 17 17 14 15 16 17 18 20 20 18 21 20 19 22 19 17 17 19 13 15 12 8 14 18 20 22 15 19 14 12 12 11 18 10 14 10 13 9 7 7 8 7 6 10 10 8 11 
8 7 10 11 10 10 9 6 10 10 11 5 6 14 11 10 11 10 11 9 15 12 17 16 19 21 20 25 22 17 19 16 15 17 14 12 17 16 14 14 21 22 17 20 20 18 17 21 17 17 17 13 11 11 13 15 19 16 18 18 13 14 13 10 10 19 12 9 11 12 11 7 7 6 7 12 10 8 7 15 
6 8 8 8 5 10 8 6 10 7 9 12 10 10 17 9 9 10 10 12 13 11 19 19 16 17 16 22 18 17 19 16 17 16 12 14 17 14 13 15 18 20 18 20 19 19 19 20 18 17 16 13 12 10 12 15 10 18 14 14 14 10 9 11 16 20 10 10 8 10 14 11 5 14 8 14 11 7 14 11 
7 5 6 13 5 11 4 4 5 1 6 10 13 14 11 8 8 12 9 13 15 12 18 14 14 16 18 17 19 17 18 15 14 13 12 16 11 15 12 14 17 15 16 17 20 16 20 20 19 18 16 12 11 2 5 14 16 16 17 11 13 18 12 9 12 17 8 9 9 10 8 6 6 12 11 15 7 13 12 14 
11 6 7 9 6 5 3 4 5 7 5 9 5 6 13 3 10 9 7 11 11 9 20 13 12 14 16 18 21 21 17 13 12 14 11 12 16 13 11 14 22 15 21 19 18 21 20 20 15 16 15 9 14 4 5 14 14 17 15 11 14 15 10 10 9 17 6 11 11 10 9 6 6 9 8 14 10 10 18 14 
8 7 12 11 1 5 7 1 7 5 3 6 3 5 10 6 5 5 6 7 9 12 16 13 14 14 13 21 21 16 16 13 12 12 11 11 17 14 9 14 22 17 27 21 21 20 16 21 15 15 15 12 9 6 12 12 11 15 13 13 12 13 7 12 15 16 5 9 12 8 6 8 6 8 7 12 11 13 10 11 
7 5 10 6 3 7 7 4 4 1 4 4 0 0 8 5 5 4 6 6 10 13 16 14 17 16 17 20 17 15 17 12 15 12 15 16 19 18 13 14 21 18 11 22 19 16 18 20 13 17 14 13 13 10 6 13 13 18 21 15 10 11 11 12 13 14 8 11 9 5 9 7 6 8 8 13 14 9 16 13 


