P2
80 60
185
176 174 170 170 165 165 160 164 168 160 154 132 131 116 110 103 51 6 12 16 7 16 15 31 38 51 59 70 78 85 89 91 97 104 103 111 109 107 116 113 119 118 122 122 122 123 126 126 126 130 130 130 132 132 135 136 139 137 140 138 137 136 138 138 134 137 134 134 129 133 132 132 136 134 131 130 116 108 110 119 
177 175 170 167 162 162 154 165 172 162 151 132 122 116 114 102 44 4 15 14 10 12 17 30 36 47 60 69 75 80 89 90 95 101 102 107 102 108 117 117 121 121 120 124 120 125 123 118 128 131 129 127 130 131 134 138 143 139 141 139 131 136 135 136 132 135 132 133 134 136 136 129 132 138 131 128 121 114 115 114 
179 172 174 168 167 162 159 167 167 160 144 129 126 123 114 106 44 6 16 16 9 15 21 25 36 45 52 69 76 82 84 91 93 101 106 105 103 116 117 119 126 125 126 124 120 119 124 120 128 129 130 126 131 130 133 139 137 138 137 136 136 134 134 139 132 135 132 135 132 133 138 126 133 135 128 130 117 112 107 121 
175 173 170 169 167 162 158 166 170 164 144 129 127 118 119 106 46 3 15 13 8 17 22 35 36 50 52 70 76 83 83 91 92 94 96 99 107 121 126 121 126 130 137 137 120 122 120 126 126 127 127 129 130 128 132 132 134 134 136 135 140 138 134 139 134 133 133 135 136 135 133 130 136 130 125 128 119 109 113 120 
176 168 167 162 165 162 161 164 171 160 145 127 126 126 113 110 42 1 16 18 15 18 26 33 40 49 57 66 70 78 82 87 96 93 96 102 108 125 135 130 138 140 145 138 124 122 122 128 125 127 131 127 132 131 130 134 133 134 135 134 135 136 136 141 132 135 131 137 136 133 134 129 135 132 134 132 120 111 106 121 
175 167 170 168 169 157 159 161 172 158 138 126 127 128 119 107 48 4 18 16 13 16 26 38 39 47 49 60 68 77 79 81 91 95 97 102 106 124 131 130 136 136 141 134 125 121 126 122 127 129 129 128 129 127 130 137 129 138 134 137 136 135 140 137 132 135 135 137 141 135 134 128 132 132 130 132 118 112 105 119 
175 168 172 168 162 161 154 163 165 161 142 124 124 127 118 103 46 7 17 16 14 20 24 33 41 44 46 58 69 82 82 85 89 93 93 99 105 116 122 127 128 129 131 127 121 123 123 122 127 126 125 129 128 126 130 136 137 139 141 134 140 133 132 137 133 133 134 136 134 137 133 132 133 131 129 129 115 109 114 120 
177 176 173 169 161 162 150 161 172 157 136 123 129 128 117 107 42 5 19 20 17 17 25 32 37 49 47 56 68 75 83 83 87 94 94 102 104 109 112 116 121 118 126 128 119 117 122 123 126 125 128 125 129 128 130 139 132 140 137 138 136 133 135 135 132 135 131 134 138 134 130 129 131 130 128 131 114 107 108 125 
179 178 170 168 166 157 152 164 167 160 135 127 128 123 119 108 41 7 20 17 14 19 24 31 37 43 48 52 63 74 82 83 90 94 96 100 100 110 120 118 123 121 125 121 117 115 119 119 125 123 123 127 127 131 125 134 131 133 134 139 133 131 132 136 128 135 126 133 133 133 130 126 134 131 128 126 116 107 108 121 
179 176 175 170 166 156 154 165 167 148 134 125 126 126 117 107 48 10 19 15 12 15 24 32 36 41 46 47 65 74 80 84 84 94 92 93 95 113 123 122 129 125 129 116 115 113 119 116 123 120 124 125 128 124 129 128 130 132 132 133 131 133 134 134 127 133 129 134 137 131 131 129 129 132 127 127 113 107 107 121 
176 178 171 171 166 160 159 161 164 152 128 125 123 123 120 107 39 6 17 17 15 12 26 28 35 44 46 49 67 74 82 87 89 93 94 91 101 106 121 128 131 128 129 115 116 113 117 118 123 123 126 124 128 125 124 132 130 133 135 133 127 134 132 131 130 133 133 132 135 139 126 129 131 133 129 127 115 107 109 124 
179 176 174 166 170 161 165 159 160 144 127 121 127 126 117 106 37 5 17 17 9 16 20 31 39 40 40 48 64 76 85 86 93 97 93 93 99 114 122 124 128 127 127 115 114 114 116 119 119 125 123 123 123 125 127 130 129 132 132 135 130 132 131 135 129 135 135 134 133 130 130 129 128 130 127 130 114 106 109 128 
179 178 170 176 169 169 166 161 161 146 124 126 126 124 118 107 37 9 13 15 10 13 20 26 34 34 40 54 62 75 83 86 91 100 96 103 110 125 124 122 125 127 131 116 119 117 119 120 120 119 123 121 122 122 126 129 132 132 136 132 130 128 137 131 132 134 133 135 131 130 118 124 131 129 132 125 115 106 113 127 
178 178 172 169 169 164 164 158 169 146 123 119 126 126 117 105 38 5 9 11 8 16 24 29 31 32 38 48 67 71 79 88 100 108 107 108 114 116 125 125 125 126 123 124 126 126 125 125 123 127 122 120 125 123 126 133 134 133 136 136 128 127 131 135 130 132 133 132 130 132 128 126 137 128 128 123 110 104 111 125 
181 178 174 169 169 164 165 166 162 145 119 122 126 124 116 103 35 4 13 11 6 14 21 28 33 38 40 47 64 75 85 99 104 113 109 112 109 113 115 115 117 118 125 125 128 128 131 128 130 129 115 120 124 123 126 131 132 140 136 131 127 131 131 131 128 131 132 133 133 131 129 126 130 128 126 123 112 107 111 130 
185 179 171 168 168 167 164 166 165 140 125 122 125 124 119 104 38 9 14 10 1 12 18 29 32 38 41 53 65 71 88 105 105 108 111 112 111 110 113 103 112 117 120 123 129 133 131 133 131 125 123 120 124 126 126 131 131 133 135 132 131 128 129 133 129 128 132 133 134 131 129 129 132 129 128 121 113 109 114 131 
183 177 175 170 163 168 159 166 158 138 122 122 122 122 118 103 36 5 14 8 1 10 17 26 27 41 43 47 68 80 97 103 106 111 112 111 111 108 111 114 116 113 120 118 126 126 129 127 134 131 121 124 125 121 127 129 130 134 133 130 129 128 130 130 125 129 131 130 131 131 132 129 137 130 130 121 105 108 116 124 
180 179 170 170 166 165 162 157 161 130 117 120 123 120 117 104 35 11 12 11 7 14 16 25 32 43 39 48 62 76 99 100 106 112 114 107 107 110 111 114 114 117 118 120 119 122 124 126 129 131 121 124 125 120 128 127 129 139 133 130 125 125 129 130 126 133 132 131 130 131 128 128 132 129 128 116 102 103 112 123 
176 180 175 171 169 170 163 167 158 135 123 116 121 123 114 104 42 12 15 14 5 13 19 28 31 40 42 54 69 78 96 107 105 111 109 109 108 111 111 108 111 114 116 118 118 121 122 127 132 129 124 123 123 124 123 127 127 129 133 132 129 126 129 129 124 132 133 133 133 131 129 129 136 125 123 123 101 101 114 126 
179 172 170 167 169 166 163 161 153 132 120 114 121 118 117 97 38 10 15 13 10 16 24 29 33 37 44 51 64 82 98 104 105 108 107 106 106 106 108 108 115 118 115 114 117 121 128 129 127 137 126 121 124 121 121 126 124 125 128 131 128 127 128 130 125 130 130 127 131 131 129 126 133 130 125 120 100 105 114 127 
174 173 167 169 166 166 166 154 151 129 120 118 122 120 110 103 38 11 13 13 8 15 22 26 32 36 42 52 65 81 98 103 101 106 106 104 106 105 109 111 111 118 118 119 123 124 125 129 131 132 126 122 122 119 120 126 123 129 127 130 126 126 127 130 126 127 128 129 131 129 130 125 132 132 125 119 103 104 115 132 
176 171 171 169 163 168 163 155 152 125 118 120 124 120 118 104 35 13 15 15 13 19 19 27 27 36 42 56 68 82 101 104 106 103 103 105 106 104 110 110 114 115 118 116 119 121 125 128 128 138 130 123 121 121 121 120 123 125 129 126 127 125 129 132 128 129 129 128 130 130 128 127 136 133 121 122 104 105 117 128 
175 166 167 171 163 164 156 157 149 126 114 114 119 119 115 103 40 14 15 17 12 15 21 30 26 41 39 56 65 84 101 106 102 103 101 101 103 105 108 107 114 114 114 117 116 117 124 128 128 132 128 128 118 119 119 121 124 124 129 127 126 126 127 127 127 134 128 129 129 132 131 125 129 131 123 115 102 106 120 128 
177 172 170 169 161 164 158 162 149 125 113 114 120 116 114 101 41 16 16 17 13 18 18 25 28 42 41 55 68 82 102 102 101 102 102 101 103 107 108 107 112 108 114 113 118 120 124 127 130 136 133 128 121 117 115 120 124 123 128 124 124 124 129 128 128 130 129 131 129 131 131 128 131 126 124 114 106 103 118 130 
175 172 167 168 163 164 161 158 149 125 116 115 118 118 114 101 42 12 18 19 13 16 22 26 25 39 43 55 66 83 99 97 99 103 105 104 105 108 110 108 104 106 110 113 115 121 124 127 128 134 134 123 119 118 117 119 121 124 124 125 123 126 126 131 126 130 128 131 129 131 130 126 126 124 122 112 100 105 119 126 
179 164 164 167 164 164 162 159 150 120 115 110 116 118 112 100 42 16 22 19 19 24 20 28 30 37 44 54 67 85 98 93 97 104 101 104 107 106 108 106 107 104 111 113 117 122 116 126 126 132 135 127 121 115 117 120 122 125 128 127 125 123 127 129 131 130 127 130 130 134 128 126 128 125 122 114 105 104 123 129 
175 168 164 169 167 163 163 158 144 116 114 113 115 114 109 102 43 10 24 21 19 24 26 33 35 42 49 60 71 85 92 91 102 104 108 105 105 105 105 103 108 109 116 115 117 117 113 118 125 128 135 123 119 117 113 120 122 122 124 125 125 127 126 128 125 129 125 129 130 128 125 120 129 129 119 112 98 108 118 129 
174 168 164 166 166 165 157 158 145 120 115 109 113 111 110 94 44 17 24 28 21 29 28 30 34 45 52 63 69 84 99 96 100 105 105 102 105 106 103 104 109 109 116 116 116 107 109 108 117 126 127 119 118 111 112 120 115 121 123 123 125 121 125 127 126 126 127 128 127 130 126 126 127 127 118 110 103 111 118 130 
176 168 165 168 161 161 160 155 142 115 110 107 110 111 111 94 45 14 25 30 29 30 27 37 33 47 51 59 70 88 103 102 101 105 104 104 105 104 107 106 107 111 114 116 114 107 106 105 110 114 116 112 113 111 113 116 115 122 126 124 121 123 124 129 124 127 128 128 128 130 128 120 128 126 119 113 101 111 123 131 
175 172 171 170 163 164 156 153 144 114 111 109 110 107 104 98 46 20 23 33 29 37 35 39 40 44 53 62 74 89 100 101 105 108 106 108 105 107 107 110 110 112 115 116 115 107 108 100 108 110 114 111 114 112 115 119 121 119 124 124 120 122 125 123 128 128 126 132 128 131 126 122 126 121 116 106 95 111 123 129 
173 170 167 161 164 156 153 153 141 114 109 108 111 113 105 101 49 27 27 33 30 40 37 39 43 51 54 62 73 85 103 107 102 109 110 108 109 105 109 108 110 113 116 116 116 108 106 107 108 108 111 114 111 111 116 120 117 121 121 125 121 125 125 127 124 130 129 130 130 131 127 121 125 126 120 101 100 114 124 128 
172 165 166 166 165 160 159 156 136 116 106 105 108 108 106 93 50 27 28 31 33 42 38 45 42 51 59 63 66 74 92 102 107 108 109 108 108 110 108 108 112 113 115 116 116 109 103 105 106 107 105 108 113 113 111 118 118 120 120 122 121 124 125 127 122 126 125 127 127 126 122 124 127 121 116 100 99 109 122 128 
172 163 162 164 162 158 156 149 134 111 106 105 109 103 100 97 50 27 30 33 35 43 42 46 44 53 56 61 70 76 95 99 103 103 105 106 106 110 112 113 112 114 115 116 113 108 105 103 106 108 105 108 108 111 113 117 118 119 122 120 119 125 122 126 123 126 127 127 131 126 121 119 124 126 116 103 98 113 123 127 
172 170 165 164 164 163 156 147 135 113 105 102 107 105 100 96 54 28 31 34 37 44 39 49 48 54 56 65 70 84 95 97 99 106 104 101 104 108 111 111 113 112 117 115 109 105 106 102 104 107 108 111 110 112 113 119 116 117 120 122 121 124 123 124 124 129 126 127 129 125 124 127 126 122 116 105 99 120 123 127 
170 166 163 163 162 162 157 150 133 107 104 103 105 104 102 95 62 26 30 38 39 43 43 50 50 48 52 66 73 83 91 96 100 103 105 101 100 104 109 109 111 114 115 113 113 107 106 105 107 102 107 110 111 110 111 118 116 119 120 119 120 120 120 125 121 126 128 128 128 124 126 124 126 119 113 104 101 118 123 131 
171 167 163 163 162 161 155 148 127 109 106 103 109 106 103 95 58 26 32 37 43 48 46 50 47 50 54 66 74 78 91 101 100 103 103 102 102 102 104 110 107 113 111 116 112 105 107 110 104 106 107 111 110 113 107 116 117 118 119 120 120 120 122 126 122 124 121 128 124 123 127 124 126 120 107 101 103 122 128 127 
169 165 163 167 161 163 156 149 126 109 101 107 107 104 106 103 62 24 35 35 38 50 49 53 50 51 52 60 69 80 89 97 99 98 100 100 100 104 104 107 105 108 108 112 109 101 102 103 104 103 107 109 114 112 112 116 117 119 117 119 120 119 122 125 121 123 121 126 127 122 127 124 123 117 111 101 104 123 126 130 
172 165 160 168 160 159 151 148 119 107 103 103 111 105 101 99 64 32 29 38 40 51 49 54 50 51 54 59 67 77 90 92 93 96 96 97 98 101 103 104 106 106 107 107 105 102 104 100 104 107 110 109 113 110 111 117 113 119 114 116 113 116 120 123 120 127 124 126 126 123 119 121 122 118 109 103 102 123 128 133 
174 166 162 161 162 157 150 143 118 105 102 102 108 106 101 101 64 27 31 37 41 51 52 53 48 55 54 64 68 79 89 92 92 98 96 97 98 98 104 104 104 102 105 105 105 102 106 101 101 106 108 112 113 110 114 118 115 116 114 119 121 121 117 125 122 126 125 126 123 120 124 121 123 117 103 104 109 123 125 131 
171 166 161 162 158 159 152 142 120 104 104 105 108 108 104 97 65 27 35 37 46 54 56 54 54 52 58 63 67 77 86 92 95 99 97 99 97 96 103 103 107 108 104 108 104 101 106 110 105 104 108 104 115 112 113 116 117 119 120 113 120 119 119 122 123 122 123 127 124 121 120 119 122 120 103 103 109 126 128 134 
164 161 162 163 159 159 149 143 119 103 103 104 109 109 103 99 75 30 32 38 42 54 52 56 56 59 59 64 69 80 89 90 94 101 96 98 98 104 101 104 105 107 107 107 106 101 103 104 105 104 104 110 112 116 111 112 114 115 117 120 115 119 119 125 120 125 124 123 122 119 126 114 116 117 99 98 111 124 129 132 
170 166 164 160 156 156 152 144 123 100 100 105 107 106 104 97 76 27 35 32 44 50 55 57 58 62 58 63 71 76 87 93 95 101 99 99 101 99 103 107 104 109 113 107 99 100 103 103 103 103 106 106 108 111 110 113 116 115 117 115 114 115 120 127 124 126 127 125 123 124 122 119 116 107 101 100 109 130 130 136 
164 172 164 159 157 156 149 141 117 98 97 102 105 105 103 100 73 28 30 37 44 50 55 59 57 56 56 61 64 72 83 92 88 97 92 98 98 97 101 103 105 106 110 99 99 99 103 104 102 107 103 105 107 110 111 114 113 115 113 115 111 114 122 126 122 125 129 127 126 125 117 112 116 103 97 97 115 124 121 128 
174 160 158 160 159 154 152 142 117 98 99 101 107 105 100 100 76 31 28 35 43 54 53 58 58 59 55 63 67 68 88 87 92 91 93 98 96 94 97 103 106 111 106 97 97 99 103 108 102 103 102 102 107 109 105 113 113 114 116 113 112 115 118 123 118 123 123 126 123 127 122 114 112 103 91 97 112 123 123 128 
162 158 157 158 154 153 152 139 117 101 99 99 103 102 103 102 78 34 29 38 44 56 56 61 57 62 53 62 64 72 84 91 93 93 91 97 96 97 105 103 105 106 97 97 102 99 106 103 104 104 101 104 109 108 105 110 113 112 116 114 115 116 120 122 122 124 120 125 121 125 123 119 114 102 95 104 115 124 123 121 
162 154 151 155 154 152 149 139 106 101 98 103 103 104 101 105 88 33 26 34 39 52 58 61 59 56 54 63 65 72 81 91 90 91 92 93 96 96 100 99 104 102 93 93 96 99 102 100 102 104 106 102 104 105 104 107 110 108 113 112 115 111 116 120 119 121 120 121 124 122 125 117 115 106 96 98 111 121 125 120 
164 162 158 157 156 157 148 140 110 96 96 98 100 104 102 102 82 32 28 34 39 54 57 59 60 58 61 66 64 68 79 88 90 93 96 93 93 98 102 98 99 92 93 94 96 96 100 97 100 102 103 101 106 104 106 109 109 113 112 110 115 113 118 122 116 122 122 125 122 125 119 113 115 108 91 100 110 117 121 113 
160 161 157 155 152 151 146 136 106 100 95 98 101 100 100 102 87 35 25 32 42 48 61 61 58 59 59 64 64 66 76 80 88 92 93 92 97 94 100 92 87 92 89 91 95 98 103 95 101 100 97 100 105 105 104 116 113 110 111 114 112 114 113 118 115 119 122 120 123 119 121 108 113 102 94 104 110 115 117 115 
161 158 155 146 143 136 143 136 108 94 91 94 96 99 100 100 82 39 24 29 31 48 55 59 54 62 60 63 61 67 73 84 86 89 88 93 92 91 86 84 87 83 91 89 95 93 98 94 97 98 102 98 105 104 108 109 110 110 114 114 112 106 112 116 115 120 122 120 121 120 119 112 110 98 93 103 112 114 116 114 
157 154 148 145 114 115 128 121 92 86 88 93 97 100 93 90 85 34 29 22 26 40 46 52 53 55 59 58 62 68 72 80 86 87 90 96 92 83 86 84 84 83 83 89 90 91 92 93 93 93 99 99 104 103 106 111 109 107 111 107 109 110 113 112 116 119 117 117 117 116 119 110 109 94 91 110 108 115 112 112 
148 152 147 127 99 94 96 85 85 81 88 87 98 99 97 95 87 37 20 20 22 39 42 51 54 57 59 62 63 68 76 80 85 87 94 93 86 81 85 83 86 84 87 87 90 91 95 91 94 96 101 99 100 106 105 109 107 108 111 113 112 109 112 114 113 115 114 117 115 115 112 108 107 93 92 110 110 113 112 110 
113 127 110 96 87 91 82 80 82 76 83 84 92 94 91 96 82 40 18 16 17 27 40 49 43 53 54 62 61 70 72 81 82 90 93 94 85 80 81 79 78 84 88 90 87 92 95 94 96 95 93 94 99 102 102 105 108 110 111 108 109 107 111 112 109 117 118 117 119 117 113 108 99 90 92 107 112 113 112 105 
79 82 81 78 80 80 77 75 74 73 77 88 89 92 86 90 81 36 13 16 9 19 29 39 49 58 55 59 57 65 77 77 84 87 87 86 81 78 82 79 84 84 90 93 87 88 94 91 92 92 96 96 97 99 101 104 108 110 110 108 106 105 106 111 107 113 111 112 119 110 112 103 98 92 89 108 107 106 109 105 
69 74 71 76 84 82 75 71 80 76 75 82 92 89 85 84 80 41 5 14 11 17 31 37 50 51 57 64 62 69 77 80 83 85 83 80 79 77 77 80 82 82 90 92 88 88 94 89 95 92 98 93 101 99 100 105 107 108 109 104 108 107 108 107 107 108 115 113 112 114 107 102 98 95 92 107 106 109 105 100 
66 65 60 75 75 73 72 64 72 68 73 82 82 91 82 84 75 34 0 14 13 22 36 42 45 57 63 68 58 69 75 78 81 83 83 77 77 77 77 80 80 82 83 83 82 86 86 89 94 92 96 96 101 97 96 104 106 106 106 103 103 105 104 107 104 104 108 108 109 108 107 95 93 92 93 107 103 110 106 103 
61 62 55 59 66 69 67 60 67 65 76 83 87 85 79 77 76 35 5 7 12 34 42 55 53 62 65 62 62 66 75 79 82 86 89 81 80 79 81 77 82 84 82 84 83 84 87 88 91 92 93 93 93 97 94 99 103 100 100 103 98 102 101 101 98 105 105 105 107 108 104 93 90 84 92 104 106 108 109 99 
49 53 53 57 53 61 57 58 65 62 65 78 87 81 77 79 71 35 6 10 20 41 51 54 57 60 65 64 63 69 70 77 79 84 86 79 73 76 76 77 79 80 78 82 82 81 85 85 87 87 90 90 90 92 90 95 93 92 95 96 96 95 97 96 95 96 101 97 103 103 97 87 88 83 90 107 106 104 102 95 
45 47 46 44 49 53 49 53 58 59 61 72 82 82 76 78 73 38 5 9 19 39 47 53 58 59 61 67 62 65 69 72 73 81 82 73 78 73 75 74 76 76 71 76 76 81 82 86 85 85 83 82 81 87 86 86 90 91 88 90 89 90 89 91 85 93 93 93 90 95 90 81 80 86 93 101 103 105 97 93 
44 46 46 49 45 44 48 49 54 55 53 65 77 78 72 72 66 41 9 10 22 37 51 55 56 58 63 61 62 65 65 69 73 81 77 76 76 72 74 76 75 71 78 76 75 77 76 76 82 81 81 85 80 79 80 87 83 84 85 87 84 80 90 83 89 88 90 88 91 86 78 74 79 81 87 99 104 103 100 94 
51 51 51 49 51 51 50 50 52 54 59 65 70 71 67 61 60 42 12 13 16 31 45 49 54 67 62 59 54 53 57 58 62 71 65 66 69 62 62 64 65 68 65 66 67 65 71 67 68 74 69 69 73 72 75 82 75 78 77 70 76 72 77 75 74 80 75 81 83 78 78 71 78 84 92 97 101 99 91 95 


