P2
80 60
145
139 135 133 137 136 138 138 135 138 135 137 136 137 137 134 132 136 129 134 136 139 135 133 133 133 132 136 135 135 134 134 134 138 136 134 132 133 134 133 131 136 134 134 133 133 131 130 132 133 133 129 132 132 131 131 131 133 135 140 136 133 136 137 130 126 126 122 127 126 126 122 124 125 123 124 127 124 125 117 130 
136 132 137 138 137 137 138 137 137 136 138 136 134 132 135 135 136 130 131 135 137 137 131 135 132 129 134 137 132 138 138 135 134 136 136 133 132 132 134 129 136 136 134 135 129 131 131 134 132 133 131 133 131 133 130 133 134 132 134 136 135 131 131 126 130 124 127 129 124 125 123 124 125 127 125 126 122 126 120 129 
136 135 139 137 135 139 139 137 141 138 138 136 135 128 138 134 135 133 135 135 134 136 137 133 133 133 139 137 136 139 137 140 136 134 138 138 134 133 137 132 132 137 133 132 132 130 132 132 135 132 132 130 130 132 131 133 133 133 129 135 133 130 129 128 126 127 124 130 123 125 127 124 126 127 126 126 118 132 118 125 
140 134 137 139 137 139 138 138 137 138 139 137 136 131 136 134 132 133 132 135 137 137 137 137 134 132 137 136 137 136 136 135 134 133 141 140 132 134 137 134 136 135 138 136 132 133 133 133 136 133 133 131 130 131 134 133 130 131 129 132 130 131 132 130 127 123 125 129 128 129 128 131 126 125 127 128 125 129 128 125 
142 128 134 137 134 136 137 137 139 143 139 136 136 133 135 136 134 132 131 136 138 138 135 138 136 135 138 135 135 136 135 138 137 137 136 135 134 134 142 132 134 135 134 134 132 133 135 134 133 135 133 130 132 134 135 132 131 130 130 131 134 130 134 132 126 127 128 131 127 130 125 124 123 124 128 129 127 126 120 125 
135 133 138 136 136 138 138 139 139 136 141 134 136 134 136 132 134 135 135 138 140 136 136 138 133 134 136 133 139 135 132 134 138 137 134 134 132 135 134 132 134 138 136 134 131 133 138 134 131 133 132 134 132 133 135 131 134 132 128 133 135 134 130 127 128 125 125 130 129 127 127 124 125 125 126 126 122 129 119 126 
144 135 138 135 138 136 138 140 141 137 137 139 135 133 133 136 138 134 137 136 137 133 135 135 138 133 135 134 131 131 133 133 133 133 134 134 131 132 135 134 135 137 133 133 132 133 134 133 134 132 132 134 133 134 137 133 132 134 136 133 133 133 133 127 125 123 122 130 129 127 125 121 119 121 122 121 120 126 114 119 
142 133 135 136 139 140 138 143 141 138 138 136 135 134 134 138 138 134 140 138 140 134 135 135 131 135 136 135 133 136 132 130 133 134 137 135 133 132 136 130 135 134 130 136 129 134 135 130 130 134 131 133 133 134 134 132 130 132 133 132 134 131 134 126 126 126 125 129 127 127 125 124 120 120 120 120 117 116 117 123 
144 138 136 138 141 138 144 145 137 142 138 136 137 132 131 135 137 133 134 139 138 134 132 136 132 135 137 137 136 134 135 130 131 131 134 134 131 129 133 133 133 134 127 129 130 128 131 133 133 132 131 132 133 131 130 132 130 129 130 136 132 131 129 128 127 128 125 129 126 124 128 121 121 123 120 119 119 120 116 120 
143 136 138 141 139 137 141 142 144 135 134 137 134 130 135 135 141 132 133 136 138 136 137 133 136 134 135 133 135 136 131 132 135 129 133 130 132 130 131 131 129 131 130 131 129 127 130 130 132 132 131 130 130 128 132 132 129 132 132 130 129 127 130 124 129 128 126 126 127 123 126 124 124 121 121 120 118 124 113 122 
140 138 138 138 141 140 142 139 138 135 135 137 135 129 134 134 137 131 135 135 135 134 134 134 132 134 136 132 132 131 131 132 133 131 131 130 129 130 132 132 130 129 129 127 125 126 128 129 130 130 131 130 129 131 132 129 131 127 126 128 129 128 127 125 123 125 124 127 125 124 122 121 120 124 123 123 119 122 115 126 
137 140 139 144 141 138 139 137 140 135 134 132 134 134 135 130 133 131 133 134 135 135 134 134 132 135 133 133 132 133 131 131 135 135 131 131 133 131 134 134 137 131 126 129 127 130 130 131 126 131 128 130 128 131 128 129 128 130 125 128 131 128 128 123 126 123 121 125 126 121 122 122 120 124 125 124 121 124 113 121 
137 138 139 143 140 138 136 135 136 134 134 135 131 131 129 132 135 132 130 134 134 136 132 131 131 130 134 135 131 134 133 131 133 135 131 136 130 132 137 134 136 133 131 131 133 129 135 131 127 127 132 132 129 125 130 127 128 126 126 127 130 128 134 125 124 124 124 124 125 122 112 120 119 125 124 120 122 121 114 120 
142 133 142 139 142 137 137 136 135 134 134 135 133 131 132 136 133 128 128 128 136 133 131 134 130 131 133 132 131 133 135 131 138 134 132 133 135 137 137 135 135 134 134 134 128 133 133 131 129 137 132 129 129 126 128 130 130 130 129 130 131 130 132 122 123 124 122 126 125 122 123 121 120 121 120 119 120 124 117 118 
139 135 141 143 142 137 139 137 135 138 132 136 131 129 129 132 132 129 128 130 130 134 133 133 130 132 131 132 134 131 130 132 136 132 133 132 134 135 135 138 134 137 136 134 132 130 134 132 128 135 131 131 129 129 129 130 133 142 130 132 129 129 130 125 121 125 122 126 123 121 128 122 118 119 118 120 117 124 118 123 
141 137 144 140 140 140 135 136 137 135 133 136 134 130 130 131 130 125 133 131 131 132 132 133 131 133 131 130 132 133 132 134 134 131 130 133 132 135 135 137 142 138 134 132 130 129 132 130 132 130 131 126 127 131 133 133 132 131 127 130 128 130 133 127 126 120 122 128 127 126 123 125 121 116 115 116 113 123 116 122 
142 140 143 140 139 135 133 132 135 135 131 136 132 128 132 131 131 129 129 131 132 130 131 131 130 130 128 132 132 134 131 132 135 134 132 130 131 133 136 135 137 136 133 131 131 129 131 130 129 130 129 128 129 130 130 132 133 133 132 126 128 127 130 124 122 121 123 122 124 123 124 121 122 113 113 112 111 119 119 115 
141 138 142 139 138 133 134 133 133 131 131 133 133 130 133 130 131 129 129 132 134 131 130 132 130 127 133 134 131 132 133 132 135 130 132 132 134 132 139 138 134 132 131 133 129 130 134 129 128 128 129 128 131 131 131 131 132 135 130 129 131 127 125 125 124 121 119 126 125 124 126 119 119 114 115 114 110 113 109 117 
141 140 140 139 138 137 138 135 135 131 134 134 131 130 130 130 131 130 133 130 131 130 131 133 130 130 136 135 130 132 132 132 134 131 133 131 133 134 135 135 135 132 127 132 129 127 131 130 128 127 129 127 132 131 130 127 130 132 125 128 121 126 127 125 121 123 121 126 125 124 124 120 122 113 113 112 111 112 107 116 
135 138 139 136 136 141 134 136 137 134 134 135 132 127 131 127 131 127 131 131 132 136 133 133 131 134 137 132 131 132 134 132 133 130 131 131 135 137 137 135 138 137 130 132 127 126 126 133 126 128 125 129 128 129 128 127 127 125 128 124 125 126 127 123 129 124 123 124 130 123 123 120 116 113 113 112 107 112 107 116 
138 136 138 134 137 134 133 133 135 135 131 132 131 127 131 129 131 130 129 129 131 133 132 133 133 129 131 131 130 130 139 133 127 127 130 132 132 132 135 133 135 137 133 131 129 125 127 126 127 127 127 129 128 127 128 126 128 127 129 124 125 126 127 123 126 122 125 124 126 126 126 120 120 111 113 108 108 111 112 122 
138 138 140 135 137 136 138 134 132 132 133 137 137 131 131 129 131 130 128 133 130 133 134 132 131 131 132 130 129 132 134 130 131 129 130 132 134 132 133 135 137 137 128 130 126 125 127 129 123 129 129 127 127 136 125 125 128 130 128 125 130 125 125 127 128 124 126 122 129 127 126 119 115 115 112 110 107 112 111 120 
140 138 139 138 140 135 133 137 133 134 135 135 135 131 133 134 133 130 131 133 131 129 129 130 130 131 131 132 129 131 127 130 131 130 128 132 130 133 132 139 135 135 130 130 124 123 130 127 126 129 131 124 127 126 132 125 125 125 125 132 134 127 128 126 126 123 123 125 124 123 122 124 121 111 108 112 110 112 109 116 
141 137 137 136 135 135 134 139 136 133 134 135 132 128 129 129 132 126 128 131 132 129 131 130 129 129 130 128 130 129 130 130 130 127 128 128 131 134 133 132 133 134 126 126 122 125 126 127 125 133 127 125 126 128 128 125 127 125 122 129 127 126 128 129 125 124 126 125 122 124 123 121 117 111 113 110 107 111 106 116 
137 138 136 137 134 137 137 139 132 134 132 133 129 129 128 130 133 128 129 130 133 130 130 130 130 128 132 129 128 128 127 127 128 126 126 127 128 132 133 133 127 126 131 126 130 126 125 126 126 129 126 123 122 123 127 126 127 125 122 126 125 124 127 124 126 126 125 124 124 122 124 118 119 114 110 109 110 108 110 117 
137 134 137 135 133 133 135 135 134 133 130 133 130 126 132 131 132 130 127 128 131 129 128 132 130 129 129 129 125 126 127 124 127 126 125 128 129 128 133 131 127 128 125 126 124 125 126 128 123 126 126 122 124 124 121 121 125 126 127 129 126 124 126 122 125 120 123 126 124 124 120 120 116 111 110 104 104 107 112 115 
136 134 135 134 135 132 133 131 134 131 131 130 129 128 128 129 130 130 128 127 133 129 132 130 131 127 128 128 128 127 129 124 126 129 129 128 128 130 132 127 128 127 125 126 123 124 126 123 124 125 126 122 123 125 120 124 125 122 122 124 125 125 122 125 123 124 121 125 123 119 120 117 117 113 106 106 105 108 108 117 
137 133 138 137 134 133 134 136 134 137 131 133 129 128 128 129 131 127 128 130 133 130 130 134 129 126 130 129 127 133 127 126 123 127 125 126 130 129 129 130 128 128 127 129 121 122 124 124 125 126 124 124 124 124 123 122 124 119 124 123 126 124 127 122 126 122 123 125 123 123 121 120 115 110 108 107 102 106 106 114 
134 135 134 133 134 134 137 133 134 135 132 135 132 132 130 130 129 126 129 132 130 128 130 129 129 128 130 129 133 129 128 126 124 124 122 126 129 128 131 130 128 129 126 125 126 122 123 125 123 124 126 115 122 124 121 124 121 123 121 122 123 124 123 127 124 126 123 126 120 121 118 117 117 108 108 107 105 104 104 113 
138 132 139 135 140 133 134 136 134 133 130 133 132 129 130 129 131 126 127 127 128 128 132 130 129 127 131 125 129 128 127 129 125 128 126 129 128 134 131 127 130 128 126 125 123 120 124 121 123 123 126 125 123 121 123 128 123 121 120 121 127 125 126 124 126 125 124 125 120 118 121 118 116 106 105 110 104 105 103 113 
138 136 137 136 135 129 134 134 132 133 135 131 129 129 125 128 130 126 125 128 131 126 130 132 130 128 128 130 127 127 127 126 126 127 129 129 126 126 131 129 130 127 130 125 123 122 121 121 122 126 125 124 121 121 125 120 127 121 119 122 126 122 127 125 128 124 121 125 123 119 119 122 113 111 105 105 102 106 102 115 
138 135 136 136 134 136 134 134 132 130 131 131 133 125 133 129 130 125 128 130 126 125 131 128 128 128 133 129 126 126 129 127 125 126 124 125 128 128 130 130 133 132 128 128 126 122 122 122 122 127 123 124 124 123 122 121 120 121 120 122 124 125 126 125 124 125 125 121 121 119 126 126 112 107 106 102 100 105 101 110 
135 133 135 137 136 132 136 132 133 131 130 131 132 127 127 129 131 127 127 133 131 126 131 127 129 127 129 129 129 126 127 124 125 127 124 125 124 127 133 131 129 130 126 124 126 121 122 123 122 127 122 121 121 119 125 122 122 121 119 120 124 120 125 123 122 123 121 123 122 121 120 119 112 104 103 104 97 101 102 106 
140 133 134 133 136 134 135 130 133 131 130 131 132 128 128 128 134 125 126 126 128 127 129 130 129 127 129 129 128 128 125 124 126 124 126 121 125 128 132 126 128 126 124 124 124 122 124 121 121 125 125 121 122 124 123 123 124 122 120 121 119 124 121 121 121 120 120 124 117 121 119 118 114 107 104 104 101 101 102 113 
132 129 136 136 135 133 131 132 128 133 130 132 132 130 129 128 131 126 126 129 126 128 130 129 128 130 130 131 129 129 129 126 124 123 126 126 127 127 131 128 128 128 124 124 122 127 125 121 120 121 123 125 124 122 126 123 121 123 118 118 118 121 124 120 123 119 118 121 121 120 122 118 111 109 104 104 104 104 103 105 
131 131 137 135 137 131 129 133 127 130 130 132 128 128 129 130 128 128 131 125 129 127 129 130 126 127 125 127 125 131 127 126 127 125 126 125 128 128 131 127 127 128 123 124 122 121 127 124 121 122 123 121 123 125 119 121 123 119 118 122 120 122 126 122 119 117 114 122 118 119 119 118 111 106 104 99 104 102 101 104 
138 135 139 136 137 135 131 132 130 131 129 129 129 130 128 128 129 127 131 129 128 125 128 128 128 126 127 128 124 127 130 126 130 128 124 125 127 129 130 127 129 127 122 122 119 123 123 122 123 120 123 121 124 125 122 123 123 122 119 121 124 125 122 124 121 119 117 119 119 115 116 112 110 104 101 104 97 103 101 107 
140 135 139 138 136 131 132 133 130 130 127 131 131 128 127 128 131 130 130 127 130 126 132 130 125 124 126 126 126 128 128 126 126 125 126 124 125 129 132 127 127 127 122 125 121 121 121 123 122 122 123 123 123 121 121 122 122 120 121 120 123 120 121 117 121 121 119 122 118 116 119 115 108 98 98 98 96 99 99 107 
133 134 140 138 135 135 133 134 134 133 130 131 133 127 129 128 131 129 131 130 130 130 132 131 128 126 126 130 127 127 129 125 126 124 125 125 128 129 133 129 127 129 125 123 124 121 125 126 122 124 123 122 122 122 127 121 121 118 118 116 120 123 120 119 120 121 120 122 115 118 120 117 105 97 98 94 96 102 102 107 
135 135 137 134 132 134 130 132 133 132 130 130 134 128 126 126 132 124 126 128 130 125 132 134 127 125 127 126 122 128 128 126 126 126 124 124 122 130 133 131 126 126 123 123 122 122 124 124 122 124 124 124 121 125 122 120 118 116 113 120 118 122 120 118 118 117 116 119 115 117 109 107 82 81 92 92 97 99 101 110 
132 131 132 136 131 132 130 135 131 127 129 134 129 131 130 126 128 124 125 128 127 127 127 128 127 127 124 124 124 124 124 124 128 127 123 123 126 126 130 124 128 124 119 119 121 118 124 125 122 123 123 129 123 124 125 118 118 117 116 119 120 120 119 116 117 114 113 115 113 114 110 95 41 26 72 91 95 101 104 103 
138 132 137 135 130 130 129 130 127 129 130 133 130 126 127 127 132 123 126 124 128 125 127 128 129 126 124 123 124 123 123 121 123 124 124 125 127 128 132 127 121 125 119 118 120 119 121 123 120 126 124 122 122 122 121 116 118 116 118 116 118 119 119 119 118 112 112 116 113 115 113 90 17 9 62 90 91 99 97 103 
135 132 139 132 132 132 131 131 129 128 130 131 128 126 129 127 127 126 129 127 130 127 128 131 127 126 126 126 124 125 124 123 125 121 124 127 127 129 130 126 125 123 118 121 119 118 123 121 123 123 122 119 121 122 122 121 118 117 113 118 120 120 122 122 117 116 113 112 112 111 107 91 15 4 55 84 87 94 95 100 
138 131 136 131 135 135 132 131 129 131 127 132 129 128 127 127 129 123 125 131 130 125 127 126 127 126 125 125 123 125 126 123 122 121 122 125 123 126 128 125 124 123 120 121 119 119 124 127 121 123 122 117 117 119 120 116 116 117 117 118 118 119 119 117 121 115 113 114 115 108 107 89 10 0 59 86 87 97 94 100 
134 132 135 129 134 130 129 132 127 127 127 131 131 131 129 127 128 124 128 128 130 125 129 131 130 124 123 123 122 125 126 123 121 121 120 122 122 126 128 127 125 121 120 120 119 119 125 125 119 118 118 117 122 117 117 115 114 116 114 113 114 116 119 117 114 116 116 114 118 109 108 86 7 5 60 89 87 90 96 103 
136 131 134 131 134 132 126 127 127 129 126 129 127 129 131 127 133 125 124 127 130 124 129 125 126 124 124 122 121 124 122 125 122 119 122 125 124 124 128 125 122 122 118 122 120 120 121 118 115 116 117 117 115 114 112 114 113 114 112 114 115 114 117 112 113 112 115 113 112 114 108 84 12 10 62 84 84 90 91 96 
132 130 133 128 129 130 130 132 126 127 128 127 127 127 126 126 129 124 126 130 130 126 126 127 123 121 124 124 125 123 120 121 121 120 121 122 125 126 128 125 125 122 118 122 120 119 120 119 117 119 115 116 117 112 114 114 113 113 111 117 118 116 120 114 115 113 109 117 109 108 107 77 8 7 57 83 86 92 92 94 
133 130 132 130 129 130 130 130 127 126 126 129 131 128 128 131 127 126 125 128 130 126 128 123 127 123 121 123 121 127 120 119 120 118 122 121 125 124 127 126 123 120 118 120 117 117 121 119 116 117 115 114 114 112 113 116 113 111 112 114 117 118 116 115 111 110 113 110 109 106 104 75 9 6 44 83 80 89 88 98 
132 129 131 132 127 132 129 131 128 126 128 129 127 127 130 129 130 123 124 127 130 129 130 130 125 123 120 120 123 120 123 121 121 118 121 119 124 127 129 127 122 123 116 119 117 113 116 117 112 112 116 115 114 114 113 112 111 109 111 114 115 111 114 111 106 110 111 111 108 105 101 66 0 0 45 80 82 86 89 98 
136 130 131 127 131 125 126 128 128 131 128 129 127 125 129 135 130 124 124 127 127 126 128 127 123 122 124 123 120 124 121 120 122 118 119 121 124 125 128 126 125 119 117 116 116 114 115 117 115 113 113 112 111 114 115 114 110 111 109 113 112 115 114 112 110 107 108 110 107 106 99 63 6 9 30 81 82 88 89 97 
131 127 129 129 131 125 129 129 127 129 129 127 125 126 128 124 131 126 125 125 128 125 125 126 123 120 123 123 119 121 121 120 123 120 122 121 122 121 129 125 120 117 114 117 118 111 114 117 111 112 113 111 110 115 114 112 111 118 113 113 113 110 111 111 110 109 107 109 108 104 104 81 34 22 67 86 86 93 91 101 
133 126 131 127 133 130 127 130 130 129 128 128 125 123 127 127 126 125 126 127 127 127 122 126 123 121 124 121 120 121 122 120 120 120 126 121 122 122 127 118 125 118 116 115 114 116 115 114 115 114 110 108 111 116 113 112 111 112 113 110 111 109 112 110 108 109 103 108 103 104 104 92 77 63 80 88 90 97 92 99 
137 125 131 130 131 131 130 130 125 130 126 127 124 120 123 122 125 122 124 124 127 123 123 126 125 123 123 123 121 121 123 119 119 118 119 119 123 119 118 119 118 113 111 116 117 114 114 115 113 115 113 108 109 112 109 112 108 110 112 110 109 109 110 106 107 107 104 108 106 103 103 93 90 87 94 95 94 98 93 102 
131 126 131 125 135 135 128 130 128 128 128 127 126 120 124 123 125 121 122 124 128 122 124 124 125 124 124 124 121 119 119 118 118 114 117 119 118 115 118 112 115 114 111 115 112 110 117 114 114 111 109 109 109 111 113 108 112 109 111 112 112 111 108 109 106 102 106 106 103 103 104 96 89 91 100 101 96 99 95 103 
133 126 129 128 131 128 130 129 125 127 129 127 130 124 130 124 123 121 123 127 126 120 122 121 122 121 128 121 117 117 118 120 118 119 113 119 121 111 111 108 117 115 112 109 112 110 114 115 112 110 110 107 109 110 111 111 106 108 106 111 110 109 110 108 106 105 104 103 105 104 107 101 92 97 104 98 95 100 95 106 
127 130 132 128 129 126 128 128 126 127 127 128 124 125 125 125 125 122 122 126 125 119 121 124 121 123 125 122 117 118 116 118 116 115 117 120 120 113 110 112 114 116 112 116 113 111 112 112 112 108 110 107 108 108 111 107 108 107 106 110 110 110 110 106 104 104 101 104 105 104 107 99 92 92 101 100 100 99 97 97 
124 124 131 129 126 127 126 129 131 127 127 127 133 127 124 122 123 121 122 128 124 123 125 119 120 120 120 119 120 120 118 116 117 115 117 118 114 112 112 111 117 114 111 111 112 111 114 112 113 113 110 105 109 108 108 109 111 106 106 110 108 108 107 105 106 102 107 104 104 104 103 96 94 91 99 101 98 101 96 100 
130 125 130 128 129 130 125 129 131 127 129 132 130 127 124 121 128 122 123 124 122 123 126 123 122 119 123 120 117 124 118 120 116 117 116 116 119 111 110 113 111 114 110 113 110 111 111 115 109 113 110 108 108 110 111 108 107 105 107 110 107 106 109 106 104 107 103 102 103 101 95 91 92 92 99 101 101 105 99 99 
126 124 128 125 130 128 127 127 131 124 125 126 125 124 124 123 123 124 118 122 124 121 125 123 119 118 122 120 120 117 119 112 115 116 116 119 117 112 111 109 109 111 116 111 110 110 111 112 110 111 105 108 107 109 112 110 107 104 102 108 105 104 109 104 107 106 101 104 101 100 97 92 92 91 99 99 96 100 98 101 
133 120 127 124 129 126 127 128 127 127 122 126 127 120 122 117 122 119 123 122 127 120 124 121 119 118 123 127 118 118 118 115 115 118 118 121 121 112 113 110 112 113 111 113 111 110 113 114 110 111 106 107 107 109 109 110 110 104 107 108 110 109 109 107 106 103 104 105 102 100 100 93 94 89 96 97 100 104 97 99 


