P2
80 60
119
101 106 105 106 103 105 104 97 109 104 108 107 106 109 107 105 105 105 103 102 107 106 102 102 99 100 100 101 104 101 102 105 108 110 106 103 103 105 104 105 105 102 103 104 101 100 100 101 103 100 106 105 99 101 104 102 103 106 116 103 100 101 101 99 96 96 99 96 97 96 96 96 93 95 97 96 98 92 93 94 
102 101 108 113 104 103 102 104 108 106 104 108 105 104 107 105 106 102 105 105 107 107 99 100 101 100 102 99 100 101 103 104 103 104 106 104 105 103 107 106 102 105 102 102 100 103 100 101 103 105 102 103 101 103 100 101 105 108 109 98 100 97 97 95 96 100 95 93 93 92 94 90 93 94 96 98 98 92 92 95 
106 106 104 108 105 102 102 100 109 104 107 107 104 100 107 104 105 102 105 103 107 103 102 100 101 101 102 99 101 106 102 105 102 107 107 104 107 105 109 104 102 102 102 101 99 101 100 102 104 104 102 96 99 102 98 101 104 103 102 96 97 98 96 96 96 98 93 96 94 90 97 94 94 94 91 96 96 94 94 95 
104 101 103 104 104 104 104 101 104 106 108 107 102 100 108 104 105 106 104 105 103 106 101 102 101 102 102 101 101 100 99 103 103 102 106 105 101 104 103 103 100 100 102 100 97 102 99 100 102 100 102 100 98 98 103 100 104 104 98 99 94 100 97 98 98 97 95 93 97 95 97 100 92 91 91 98 92 94 92 89 
104 102 101 109 105 106 105 103 107 105 107 103 104 103 106 106 109 103 106 107 105 107 101 103 103 102 108 103 99 100 100 102 105 103 104 106 105 106 108 103 102 102 102 101 101 104 104 103 102 102 101 102 98 102 99 105 105 103 106 100 100 99 101 104 98 95 95 100 100 96 99 94 95 92 92 93 98 94 90 99 
105 103 104 106 107 104 103 104 106 104 108 105 101 106 106 102 106 108 104 107 107 106 101 104 104 104 104 103 101 99 100 100 101 102 101 104 108 104 106 104 100 103 105 100 102 105 102 103 100 103 102 102 102 101 99 104 103 107 102 102 102 101 97 98 99 98 96 100 102 97 99 95 93 94 92 94 95 93 90 93 
102 104 105 107 107 104 105 105 108 103 105 105 102 104 104 104 110 104 106 106 107 104 104 102 102 100 104 101 100 100 104 103 99 101 100 104 104 105 107 103 99 100 100 99 99 101 100 101 102 98 101 101 102 98 102 102 104 108 113 102 103 101 95 97 96 95 94 99 98 94 95 93 93 91 93 98 95 87 89 94 
104 105 107 108 106 105 105 102 105 103 107 105 102 106 103 106 106 107 106 108 108 104 103 101 100 103 103 98 102 102 102 102 100 103 103 106 104 102 106 101 98 98 101 98 97 99 105 101 100 101 99 100 102 100 97 102 101 106 104 98 101 99 101 96 97 96 96 95 98 95 95 94 90 95 90 95 95 92 92 96 
107 108 107 108 107 106 108 107 104 105 107 103 104 101 103 105 105 104 106 112 106 103 100 100 105 102 103 103 101 99 103 101 99 100 106 103 102 103 103 100 98 99 100 97 99 100 99 101 99 99 100 99 100 98 97 101 101 102 104 103 100 102 101 96 93 95 96 97 93 94 92 91 91 93 88 95 93 89 87 90 
111 106 108 113 107 106 108 108 109 106 107 106 102 103 102 107 108 106 107 103 104 106 103 103 102 100 102 102 98 101 96 99 101 101 102 101 102 102 102 100 97 98 98 97 95 100 97 97 102 100 99 99 97 100 96 100 100 103 102 100 96 99 97 96 96 98 93 94 98 93 92 94 93 89 93 93 91 90 89 98 
108 110 105 115 108 106 106 105 105 108 106 104 107 103 101 104 107 102 105 106 101 102 102 101 102 102 100 100 99 99 97 103 98 101 101 101 104 103 103 102 98 98 99 97 96 97 98 99 97 97 98 98 100 96 98 97 101 98 97 97 95 99 92 96 95 95 95 93 95 93 91 93 89 91 92 92 93 84 89 91 
108 112 107 110 111 107 107 104 108 103 104 103 105 103 106 102 103 102 103 102 105 100 103 102 101 101 104 100 98 98 99 100 102 101 101 103 102 99 101 100 103 103 101 101 100 104 103 103 100 101 100 101 98 102 97 99 98 99 99 97 97 98 98 94 94 100 94 95 95 89 90 88 89 92 91 91 95 83 87 92 
107 107 107 114 110 108 105 103 105 103 102 101 101 103 104 103 104 104 99 103 106 103 100 101 99 98 99 99 98 99 100 100 99 103 102 101 102 102 103 103 103 101 104 102 107 103 102 104 101 101 105 99 98 98 98 97 100 100 98 97 95 96 98 94 93 97 93 93 95 92 80 90 86 89 92 95 94 93 86 93 
106 104 111 110 108 104 106 100 104 104 101 104 103 103 107 105 103 103 102 99 105 103 101 99 99 97 100 98 98 97 102 98 102 100 102 97 102 101 100 99 102 103 106 102 101 107 108 105 103 107 102 103 99 99 99 101 104 101 103 100 98 99 96 96 94 96 93 94 95 90 93 90 88 87 89 91 95 89 92 91 
108 108 108 113 104 108 107 101 106 103 103 106 102 102 102 102 104 99 100 101 100 103 101 102 101 99 95 97 97 98 99 98 100 100 100 98 97 100 97 101 101 103 104 99 100 102 105 104 103 103 105 102 100 102 97 102 107 119 105 95 98 98 97 98 94 95 95 95 91 91 93 92 91 91 90 93 92 91 88 91 
111 108 111 112 115 104 100 103 105 101 102 104 101 105 103 102 104 102 102 98 101 103 100 102 101 100 97 100 96 98 101 97 101 97 101 100 99 100 102 98 103 105 103 104 105 104 105 104 104 103 99 93 98 100 98 103 105 106 104 99 98 99 101 95 99 98 96 100 95 94 95 94 92 93 89 93 94 90 90 95 
107 112 111 112 107 102 101 104 104 101 103 105 104 100 101 103 100 98 102 99 102 102 99 96 96 96 97 99 100 98 99 100 104 104 101 101 101 101 101 104 103 100 102 99 101 106 104 103 98 97 99 95 98 101 102 102 103 107 105 97 98 100 97 95 95 95 94 96 96 93 96 92 93 92 93 91 92 90 93 93 
102 112 108 116 108 104 105 102 100 100 102 102 101 105 105 102 102 102 101 101 103 99 98 100 100 96 97 98 99 98 100 100 102 100 100 101 100 99 102 102 100 99 105 100 106 106 102 96 99 97 98 96 98 98 101 97 101 108 105 100 98 95 97 97 95 94 91 94 97 92 92 92 91 88 90 93 91 90 89 92 
105 106 105 110 107 104 103 98 104 99 102 100 99 102 104 102 99 100 103 100 101 100 99 99 99 94 100 100 98 100 97 98 102 99 104 101 99 101 100 101 97 103 103 104 100 102 100 100 99 98 98 96 103 99 98 96 97 102 97 96 94 95 93 92 91 96 93 95 95 93 92 92 91 89 90 87 91 86 87 90 
106 108 103 104 105 107 102 100 100 100 107 100 101 99 101 103 103 102 102 101 103 104 102 99 100 98 99 97 98 100 101 100 100 101 101 100 101 101 101 99 100 98 102 100 99 100 98 101 98 100 99 98 96 98 98 94 94 97 100 98 96 97 94 93 91 95 96 95 95 92 90 94 90 88 87 91 88 85 89 90 
104 104 106 106 104 102 105 99 102 105 107 102 100 104 102 99 100 102 100 99 103 101 98 99 100 95 94 98 98 98 109 102 97 97 99 100 102 102 102 101 100 107 104 102 99 101 100 96 99 97 98 101 98 97 95 99 99 101 99 93 96 96 95 97 94 95 93 94 93 92 92 93 86 90 90 88 88 87 87 91 
103 104 109 104 105 101 103 103 102 102 104 102 107 104 104 102 102 98 100 101 103 101 99 100 102 97 98 95 97 99 96 101 100 97 97 100 102 101 99 106 102 101 98 96 102 100 98 99 97 98 98 96 98 97 94 94 101 105 97 96 96 97 94 97 91 98 94 95 95 95 93 92 91 92 93 90 91 90 91 89 
107 107 104 109 105 103 103 104 103 102 102 104 106 103 104 101 101 102 102 106 102 99 97 95 98 100 96 100 95 95 96 97 100 101 96 98 99 100 101 106 100 100 98 99 103 99 101 97 98 97 100 95 95 98 93 96 95 98 97 95 97 93 95 96 96 97 98 95 95 92 93 92 93 88 87 89 86 89 87 93 
106 108 105 105 105 102 103 109 103 101 107 105 104 103 100 102 99 101 102 103 102 102 96 100 99 96 96 96 92 98 95 100 99 96 97 96 101 100 100 98 97 100 101 100 103 101 100 94 99 100 98 95 96 97 94 95 96 100 95 97 94 95 93 98 95 95 95 96 88 94 91 95 89 89 90 90 90 91 87 93 
104 106 106 106 102 104 105 102 106 100 101 105 104 102 102 102 104 102 101 99 106 106 94 96 100 97 95 95 96 96 95 98 98 93 96 99 101 101 99 101 92 98 102 99 104 100 99 100 101 97 93 96 94 95 94 94 98 100 98 96 95 95 94 96 98 97 92 93 96 93 93 89 89 90 91 90 88 86 92 90 
105 107 103 108 105 102 102 104 103 100 104 105 99 102 105 103 103 103 99 101 102 104 99 101 100 101 95 98 93 94 98 97 98 98 98 97 100 97 97 99 98 97 99 99 99 100 97 100 98 94 92 94 94 94 91 93 98 99 97 95 94 95 95 95 92 95 96 94 92 96 91 89 92 92 91 91 93 85 93 94 
105 103 106 107 105 102 101 102 104 103 103 102 102 102 103 100 101 103 100 102 98 104 106 101 101 97 97 96 94 94 96 94 103 100 99 97 98 97 99 98 93 99 101 98 100 100 96 96 97 95 94 93 93 95 89 94 95 95 95 95 93 93 94 92 94 94 92 91 92 89 95 94 92 91 92 89 93 87 88 87 
106 104 102 108 107 98 101 100 104 106 105 103 99 103 104 99 102 102 99 101 101 100 98 100 100 96 98 98 97 93 98 96 93 99 96 95 98 96 96 96 96 97 99 98 99 96 96 97 96 93 97 95 93 93 90 89 96 93 94 95 97 96 95 92 93 93 95 93 93 95 93 90 93 88 93 88 96 90 87 87 
101 108 106 109 103 106 102 102 103 103 102 103 104 106 105 102 100 99 100 105 99 103 99 100 97 101 99 95 97 98 97 97 98 99 98 97 100 98 100 99 95 99 102 98 99 98 94 94 92 97 93 94 93 92 90 92 93 97 95 93 93 95 93 94 95 93 91 92 91 92 95 92 92 88 86 91 86 82 86 86 
109 104 109 107 107 104 100 101 104 101 101 100 101 103 102 101 100 101 100 100 103 100 101 98 96 98 98 98 95 96 95 96 95 98 98 97 99 96 97 94 99 102 101 98 99 98 96 96 94 94 95 95 91 92 94 95 94 96 91 92 94 91 93 95 94 93 96 95 92 95 90 92 90 88 92 98 89 83 84 88 
107 107 107 108 100 98 101 103 101 103 99 102 101 103 101 100 103 99 98 99 102 101 99 97 98 96 98 96 96 97 95 97 97 98 97 99 96 97 99 98 101 102 100 100 104 97 96 95 94 93 94 90 90 93 93 93 96 93 91 93 95 94 96 96 95 95 91 94 98 92 91 93 92 92 90 86 89 85 84 84 
107 107 106 106 106 103 104 99 102 99 105 101 99 99 103 103 104 98 98 100 100 98 99 99 99 98 99 95 95 95 96 96 96 97 97 94 97 98 94 102 99 99 100 99 101 97 92 93 94 95 93 93 93 91 93 93 92 92 89 90 93 93 95 97 94 95 94 91 93 91 96 91 92 89 88 89 86 84 88 82 
103 102 107 108 105 102 103 102 103 99 100 99 102 100 100 101 102 100 99 98 102 98 96 99 99 98 98 95 98 95 93 96 96 92 92 93 97 96 95 99 97 100 102 101 99 98 95 93 92 94 91 92 91 91 90 91 95 97 92 91 88 91 93 93 94 94 92 89 94 91 91 95 87 88 87 88 86 82 84 86 
101 103 101 107 107 100 100 101 103 98 102 99 104 102 99 100 98 100 99 99 99 99 97 98 99 98 97 96 94 99 94 93 94 92 97 97 94 94 93 96 95 98 100 97 99 97 96 94 92 94 94 91 90 91 90 91 94 94 94 90 89 94 94 94 92 94 91 91 91 91 91 92 88 86 89 89 87 86 82 83 
104 105 104 106 103 101 97 102 101 97 101 104 102 103 101 103 104 100 99 101 98 100 99 99 100 99 100 98 96 96 97 96 93 94 95 96 95 97 98 94 93 99 101 98 98 98 95 93 93 90 90 92 91 89 91 93 93 96 95 87 89 92 92 93 93 93 90 90 91 88 91 90 87 90 88 93 89 83 81 88 
104 104 104 105 102 101 102 99 99 99 102 100 101 100 101 104 101 101 99 95 97 100 94 98 96 96 97 94 95 99 97 96 97 96 96 95 100 97 95 98 92 93 96 98 97 99 99 98 93 93 90 91 92 92 88 92 92 96 94 92 90 93 92 92 90 92 88 92 91 88 89 88 88 86 88 87 88 85 81 87 
102 103 107 106 102 102 100 101 99 98 100 102 98 100 101 99 101 103 98 98 100 98 96 97 94 95 93 93 95 95 96 95 95 97 96 96 96 97 93 95 93 97 99 97 94 96 96 94 93 91 89 88 90 92 88 89 91 94 91 87 89 90 90 96 92 93 89 90 91 86 88 84 87 84 84 84 86 82 78 88 
106 108 107 107 105 101 101 104 100 99 99 100 100 100 101 103 102 105 103 99 101 97 99 97 97 92 91 92 95 95 98 95 95 94 97 95 93 96 97 92 92 98 99 97 97 95 95 92 90 89 92 93 89 93 91 95 93 91 91 93 91 89 90 91 93 98 93 89 87 87 91 88 85 81 85 82 83 82 84 88 
104 104 107 109 104 101 102 103 99 101 101 102 102 98 100 102 101 102 100 100 99 101 97 97 98 93 89 94 92 93 96 95 95 96 97 95 98 96 95 96 94 98 97 99 95 97 92 96 91 91 93 88 92 90 91 90 91 91 92 92 88 90 90 91 91 92 92 91 91 89 91 86 86 85 82 86 83 85 88 85 
99 107 104 107 104 102 100 102 103 102 101 103 101 100 98 101 99 99 100 98 102 99 100 100 99 94 97 95 93 94 95 92 95 93 97 96 96 95 97 97 95 98 100 98 94 96 93 93 92 93 91 92 93 93 90 94 89 89 88 88 89 88 88 88 90 90 87 92 90 86 84 85 86 86 84 82 85 81 88 93 
101 102 104 106 104 103 99 99 100 102 102 101 101 104 102 102 99 100 95 98 100 102 98 98 96 95 102 95 93 93 94 91 95 100 98 98 95 94 95 97 93 93 98 98 100 97 95 92 94 94 95 95 92 94 90 92 89 91 90 89 85 88 88 89 87 90 85 87 83 87 86 84 84 87 84 86 91 84 93 87 
107 107 105 108 107 101 101 97 103 101 103 104 103 102 103 98 104 99 104 100 101 102 100 99 100 95 97 94 95 95 92 92 93 96 93 92 98 96 95 95 93 101 95 95 97 97 95 94 94 96 96 92 93 93 89 93 90 93 87 88 87 87 88 91 88 87 85 85 85 84 84 86 87 81 85 84 89 84 84 88 
108 108 107 105 100 99 100 100 100 99 101 103 100 104 102 99 100 100 98 101 101 101 99 98 99 97 97 95 96 92 92 92 94 94 96 98 99 98 95 94 94 97 97 98 96 97 98 98 94 91 91 89 89 92 91 89 93 92 87 88 89 90 90 90 86 85 87 87 87 87 83 83 85 84 85 84 87 83 83 74 
107 102 104 104 99 97 100 99 99 98 101 102 100 99 100 97 100 101 99 100 102 102 97 98 98 96 98 94 91 95 95 93 92 93 94 95 96 97 93 92 92 95 97 98 94 95 96 96 89 90 92 87 88 91 85 89 88 89 90 85 86 89 86 90 86 87 88 88 84 83 84 82 83 83 82 84 85 82 76 69 
102 103 108 103 100 100 97 102 100 96 98 99 99 104 99 98 96 99 96 100 101 99 96 97 96 96 94 93 92 94 94 94 93 94 92 91 92 93 92 91 95 93 97 97 94 97 94 95 93 88 89 87 87 87 84 86 89 90 89 88 86 89 87 86 86 88 87 86 86 84 84 80 80 83 83 84 82 77 75 66 
104 103 103 106 100 98 97 94 100 100 99 97 99 105 104 98 103 99 101 99 103 97 96 98 94 93 92 90 91 90 94 92 91 92 92 93 93 95 95 96 90 95 93 96 95 94 91 93 91 88 87 85 87 84 86 86 86 88 86 84 86 83 84 88 85 88 86 85 85 83 83 80 80 82 84 82 82 77 73 69 
102 102 97 105 97 98 98 97 97 98 101 102 100 105 98 100 100 98 99 101 99 94 98 96 93 93 89 91 94 92 92 92 92 92 91 92 95 91 94 94 91 93 93 95 95 98 90 91 88 89 86 88 85 86 87 85 84 86 86 85 85 86 87 87 84 83 84 85 80 79 83 79 81 81 81 81 80 75 74 56 
104 103 102 104 102 98 101 97 97 99 98 101 97 101 101 101 101 98 100 99 98 97 99 102 92 92 94 92 91 94 92 91 90 91 94 96 94 93 90 92 92 95 94 93 94 93 93 92 90 86 88 85 89 84 83 87 87 86 86 87 84 84 84 88 80 84 85 83 82 80 82 80 82 81 79 81 78 76 66 45 
104 105 99 103 97 100 100 98 99 98 100 103 102 100 104 102 102 101 95 97 100 99 100 99 94 93 94 92 90 89 91 90 92 88 92 90 95 96 92 91 88 94 94 93 92 89 86 88 87 88 84 87 84 85 86 86 85 85 86 85 81 84 84 84 81 82 82 83 82 82 83 79 79 78 81 80 81 75 70 36 
102 102 101 102 99 98 98 98 99 100 104 101 101 99 100 100 102 99 99 100 98 97 98 98 94 93 93 91 91 94 90 91 88 89 92 90 96 94 90 88 92 93 92 92 89 89 89 88 90 86 87 85 84 86 87 82 86 87 85 81 83 85 83 79 82 80 81 84 85 77 81 79 76 79 74 78 80 74 65 23 
102 101 96 101 101 99 97 97 99 98 99 99 95 97 102 98 101 101 99 96 97 95 95 94 94 92 91 92 89 89 87 90 89 88 93 92 92 91 95 90 89 91 95 91 87 90 87 88 87 85 83 87 83 87 85 84 82 85 82 83 81 83 79 84 80 82 78 78 82 77 79 77 74 73 76 75 75 69 60 11 
106 97 98 99 101 101 99 98 99 96 100 96 96 94 98 99 97 101 98 100 100 94 98 95 92 93 93 90 90 92 91 91 90 90 95 91 90 91 91 87 88 94 95 91 90 87 86 85 86 83 87 81 82 88 80 89 83 85 83 80 79 81 80 79 82 82 76 79 76 78 82 77 74 76 73 79 78 69 60 0 
102 100 100 101 104 101 99 98 96 97 101 100 100 97 96 97 97 98 101 97 95 96 92 94 96 92 93 90 89 93 91 90 90 92 90 91 92 90 90 89 87 95 96 94 87 88 86 86 85 86 85 82 84 86 80 84 85 84 84 79 80 80 78 80 80 82 79 77 77 78 77 77 74 73 76 77 76 69 57 0 
101 99 98 105 102 105 99 98 100 97 100 97 99 97 98 94 96 95 93 93 95 96 94 94 96 89 93 91 92 90 91 91 88 88 90 88 92 89 90 88 90 93 93 87 89 81 83 88 82 83 85 84 83 85 83 82 87 85 82 79 77 79 79 78 78 81 80 78 76 77 75 73 73 72 75 77 73 68 62 33 
101 98 96 100 101 99 101 99 99 99 101 104 100 97 98 99 97 98 99 97 93 93 95 93 92 91 96 90 87 88 90 89 88 87 89 87 89 92 87 85 86 90 89 87 86 85 82 83 83 83 85 84 84 82 85 84 84 81 83 81 82 80 79 79 77 81 78 74 75 74 76 76 72 75 76 72 76 67 63 59 
97 100 98 98 99 96 97 99 101 95 101 101 98 98 99 99 96 92 96 97 95 93 92 93 91 88 91 85 88 88 89 86 86 87 89 87 88 88 89 87 86 91 85 84 83 84 82 82 84 84 87 84 87 85 84 81 82 81 80 78 79 80 80 81 77 76 75 73 76 77 78 76 71 73 73 72 75 68 65 65 
98 98 98 99 100 96 97 97 97 97 104 100 105 98 100 98 96 101 98 99 97 94 94 92 91 92 88 89 88 88 86 87 87 88 88 86 90 88 90 87 87 80 83 79 80 85 83 84 87 84 83 83 84 83 79 78 80 83 82 76 77 78 77 77 78 78 73 73 76 73 75 73 71 71 70 76 77 64 64 56 
96 98 98 98 95 96 91 96 95 98 98 102 102 99 98 94 95 98 94 96 96 94 95 91 89 90 93 88 86 87 84 88 87 87 87 86 90 91 86 87 80 80 80 80 82 79 79 82 84 85 80 83 82 81 79 76 74 81 76 77 75 74 76 75 75 78 71 70 75 75 72 72 70 69 70 71 71 64 54 53 
95 100 97 103 94 92 92 97 99 97 97 100 96 97 96 93 97 99 96 96 97 94 93 94 94 86 88 89 88 88 88 88 86 88 88 89 89 88 87 87 80 82 79 78 78 78 83 81 83 82 81 80 78 78 79 81 78 76 80 78 76 77 76 77 79 80 70 72 71 72 73 70 70 71 72 68 71 64 52 59 
100 95 98 99 97 97 94 95 99 97 100 100 96 96 98 100 95 94 95 94 94 92 91 93 90 86 88 89 85 92 87 88 87 87 88 87 90 85 86 90 83 81 84 80 78 82 82 81 85 83 81 78 81 81 74 76 76 78 80 74 75 75 74 80 78 79 71 72 69 71 76 70 68 68 70 66 71 62 55 61 


