P2
80 60
248
50 54 53 52 53 54 55 55 54 53 50 56 53 55 54 56 54 46 52 49 50 54 53 57 61 58 58 61 55 59 60 59 55 58 57 57 58 54 54 59 60 52 49 51 45 48 44 45 44 51 45 47 47 44 46 45 41 42 46 40 37 37 32 37 38 36 36 35 33 31 34 31 29 26 24 22 21 19 16 3 
55 54 51 53 55 54 59 59 57 52 55 57 53 54 54 56 53 52 50 50 52 52 55 58 58 60 60 56 55 58 62 61 59 60 58 57 56 56 58 60 57 51 54 57 49 49 49 45 44 43 52 47 50 46 48 45 44 42 43 40 41 39 39 39 46 41 42 37 36 33 37 38 32 30 29 25 23 23 17 8 
54 55 54 58 55 58 54 57 56 51 56 53 49 52 56 50 53 54 53 52 54 56 62 63 68 59 58 57 58 59 58 55 60 57 59 62 56 56 57 56 54 54 50 53 47 44 49 49 46 47 47 47 48 46 46 45 43 43 45 45 40 41 41 42 43 43 39 38 39 39 40 38 35 34 32 30 30 25 26 13 
53 53 58 56 59 55 53 56 46 53 49 52 53 52 52 54 56 49 54 52 52 56 59 67 66 66 64 60 59 57 58 56 58 57 60 59 58 59 53 58 59 55 53 53 47 47 47 47 44 50 49 49 48 48 44 45 47 42 42 40 45 40 40 44 45 45 41 38 38 36 42 42 39 44 36 33 34 28 25 20 
50 55 54 58 55 55 58 57 54 51 56 55 51 51 53 53 46 51 57 50 50 52 62 67 67 59 60 59 58 56 58 54 56 58 60 57 56 59 58 56 59 56 51 51 45 44 48 45 45 49 47 47 47 47 44 43 44 44 47 44 43 43 38 41 39 41 38 39 39 40 41 40 36 38 39 34 35 27 25 22 
53 50 54 53 46 54 53 51 48 51 53 56 49 49 51 54 56 51 51 49 51 52 62 62 59 59 58 56 53 57 55 53 55 52 53 50 54 53 54 56 56 54 48 47 44 44 49 41 45 47 46 47 46 46 43 42 42 42 45 43 38 40 38 43 40 39 39 37 40 40 40 39 41 40 35 34 34 26 28 31 
48 53 57 56 52 56 52 52 52 52 54 50 49 50 50 50 51 51 55 51 48 53 61 58 62 56 55 55 54 53 49 54 50 50 50 50 48 48 57 54 52 53 48 50 44 45 47 43 45 43 45 49 45 43 41 43 44 41 40 44 37 40 41 39 40 39 39 39 36 39 37 43 40 37 38 37 37 32 27 34 
50 50 52 50 51 55 53 53 51 48 53 54 49 58 49 47 51 51 50 49 51 52 61 60 55 56 55 56 54 53 54 54 51 51 54 52 49 45 48 48 48 51 49 44 40 44 46 43 42 45 46 46 41 44 43 42 40 41 43 42 39 40 40 38 40 39 38 36 40 40 38 38 39 35 38 36 35 32 34 38 
51 53 55 55 54 51 50 55 53 49 54 53 52 52 55 54 54 48 50 49 49 55 60 55 58 56 53 54 52 55 50 53 50 46 46 53 46 48 45 46 45 42 45 42 44 42 42 42 41 47 43 42 48 41 44 41 44 38 44 40 40 40 41 40 39 38 41 36 37 41 39 38 39 40 37 37 33 35 31 31 
53 53 54 56 55 55 55 52 53 51 49 52 56 49 56 47 47 52 51 50 52 55 58 60 55 55 51 53 54 51 55 50 50 45 48 51 46 45 43 47 44 43 43 41 45 44 39 45 44 45 44 42 41 43 41 44 44 40 44 42 41 41 40 42 40 46 39 39 41 38 36 37 38 40 36 37 36 30 29 30 
54 54 52 55 53 53 49 57 52 56 55 55 53 55 50 56 48 48 49 50 48 53 56 56 53 57 53 48 49 48 46 51 52 44 49 48 47 47 42 47 44 43 42 45 39 44 45 41 46 46 45 45 46 43 43 41 42 43 45 42 38 36 39 37 40 40 43 38 36 36 36 43 40 39 36 40 40 31 28 33 
53 50 52 55 55 53 50 58 54 50 54 49 52 52 52 51 54 53 51 54 50 54 56 52 55 55 51 50 48 46 50 47 48 49 48 49 45 47 44 44 45 43 44 41 42 41 39 41 42 42 40 46 43 42 44 39 39 43 45 42 37 36 37 39 37 41 38 37 37 36 37 36 39 38 35 36 36 35 30 33 
48 50 53 51 48 50 56 55 48 49 52 52 48 48 52 43 49 50 52 48 51 55 58 55 52 54 47 47 51 50 46 48 50 50 48 46 46 47 42 44 45 41 41 43 41 43 41 41 42 43 42 41 43 43 41 44 39 43 42 43 37 39 35 35 37 39 34 35 35 31 32 36 36 37 36 31 44 23 31 32 
50 57 49 54 55 50 51 54 53 54 58 51 51 52 53 52 49 49 50 47 48 54 54 53 53 48 50 54 49 46 47 46 48 47 49 49 45 48 46 46 46 44 44 42 41 42 43 46 44 45 45 40 41 42 41 42 42 45 41 40 40 36 41 40 39 37 40 40 33 35 34 35 34 36 35 31 35 30 32 33 
51 55 52 48 54 54 52 54 47 52 52 54 50 49 50 50 49 46 49 48 49 51 54 52 53 49 47 48 49 50 48 47 49 42 47 45 46 45 43 47 42 42 40 43 44 43 39 46 44 42 44 46 43 42 39 36 41 40 43 39 39 38 39 39 39 39 37 38 38 33 34 36 40 38 34 36 32 30 31 35 
52 49 50 45 52 54 56 55 51 54 56 50 47 49 48 49 50 47 48 49 48 53 55 51 50 51 47 48 49 45 47 47 44 44 44 48 46 45 45 41 44 41 40 41 39 42 44 45 40 44 43 43 43 39 40 40 41 41 43 40 37 37 38 38 39 42 38 29 35 36 37 33 41 41 37 33 35 31 31 33 
50 50 50 53 51 52 51 56 52 51 53 53 54 54 46 51 51 49 47 44 48 52 52 52 48 49 47 46 45 45 48 47 49 46 46 50 47 46 41 43 43 44 43 42 43 42 45 40 42 45 43 42 40 40 39 42 41 39 44 39 34 37 38 36 36 41 40 34 35 37 38 35 36 38 36 30 34 29 30 31 
48 51 52 50 53 50 51 51 50 52 52 51 48 47 51 49 53 48 45 46 50 50 48 50 46 46 49 46 45 47 43 43 45 44 45 46 43 45 47 39 42 40 41 41 43 41 42 41 41 41 43 43 42 35 36 40 41 39 42 39 39 35 36 38 37 38 42 36 36 34 37 36 39 39 37 32 35 31 29 31 
51 52 53 52 54 53 52 55 50 54 56 51 49 47 52 50 46 48 48 47 52 52 51 50 51 49 44 43 44 44 46 44 46 47 47 45 43 45 44 46 41 40 41 40 44 45 39 40 43 41 43 47 40 39 38 36 40 36 44 38 37 36 36 37 40 36 37 38 36 33 38 35 35 39 38 33 35 31 28 24 
51 54 51 51 49 53 55 51 52 49 51 57 48 50 48 49 48 47 50 47 48 44 49 49 45 50 47 47 46 46 43 44 47 44 45 48 46 45 46 45 43 43 36 40 38 41 43 38 37 43 39 39 38 38 41 38 37 37 39 37 34 35 34 38 39 36 42 38 38 35 30 37 36 42 32 33 33 30 28 31 
48 51 51 50 53 49 50 57 52 51 53 51 46 52 50 52 49 48 46 49 47 49 51 46 50 47 48 45 45 49 42 48 44 42 44 44 41 43 44 46 46 41 41 42 41 40 42 41 38 43 41 39 38 38 36 35 37 36 38 34 35 36 34 38 37 36 35 38 37 36 30 37 39 40 37 31 35 30 29 32 
48 52 53 49 48 50 53 50 54 55 51 53 51 47 51 49 46 47 48 49 50 52 51 49 45 48 47 43 44 47 43 41 47 47 47 47 41 38 45 44 47 41 42 42 40 43 36 41 39 41 42 37 38 32 35 34 36 34 32 35 35 34 38 35 35 35 35 32 33 32 36 33 36 34 33 34 32 30 31 32 
49 53 50 49 54 55 53 51 51 50 49 50 50 49 47 47 47 48 47 48 48 54 50 47 46 53 45 43 44 42 38 42 41 43 45 42 41 40 44 46 42 41 39 40 47 40 38 36 38 41 39 36 35 33 35 33 36 31 31 32 32 35 35 33 34 37 33 34 37 31 34 33 37 36 35 33 32 30 31 30 
53 49 53 52 49 51 52 54 47 47 50 49 52 49 50 50 46 44 47 47 46 49 51 47 46 49 45 41 43 45 43 44 43 40 44 43 44 42 43 47 42 39 39 37 35 38 35 32 34 36 34 30 34 33 36 34 32 29 31 29 33 30 35 33 34 32 35 34 34 31 31 29 33 36 33 29 34 25 30 27 
55 53 53 53 56 47 51 51 48 49 51 51 52 53 48 48 48 45 44 46 46 44 47 46 42 41 46 44 43 42 44 42 41 45 44 40 39 43 40 36 36 36 38 36 38 33 41 38 38 31 32 34 33 33 38 33 26 32 31 31 30 33 33 34 32 32 31 32 33 32 29 31 32 35 32 30 34 28 25 28 
52 54 48 51 52 51 52 52 44 47 49 50 48 51 48 49 46 43 46 45 45 52 45 48 45 46 47 43 42 42 43 45 40 41 40 40 41 36 40 37 38 36 34 39 37 33 38 40 31 37 34 35 34 34 33 32 28 35 31 34 34 32 33 36 35 34 31 31 32 32 31 34 32 35 29 27 30 27 26 29 
54 53 53 52 50 49 51 53 51 54 51 54 46 48 46 50 45 43 44 44 45 51 47 41 49 47 40 41 43 41 43 42 38 41 43 42 39 38 36 36 35 36 33 35 38 37 35 35 34 36 35 38 32 31 31 32 29 30 29 26 34 32 33 33 34 34 31 33 32 29 28 30 34 31 32 28 28 29 29 26 
54 55 50 53 53 50 50 53 50 51 50 52 49 48 51 49 50 46 45 47 47 49 45 45 45 45 43 46 43 42 44 44 38 37 40 41 40 42 41 39 39 34 33 35 35 36 36 35 33 35 34 33 31 31 32 30 30 28 28 29 33 32 33 33 34 31 33 30 31 29 30 30 33 32 31 31 32 28 26 26 
49 56 54 49 49 50 49 46 49 50 48 49 51 46 50 46 45 45 46 44 47 48 46 45 44 50 42 42 42 41 43 43 39 41 43 38 41 40 39 36 34 36 34 34 33 38 37 36 34 39 33 25 30 33 32 31 27 29 27 27 28 32 32 33 31 36 35 33 29 29 29 31 34 33 32 30 30 27 21 30 
51 51 49 50 53 49 48 54 50 50 50 49 49 43 47 50 47 45 46 47 46 44 40 45 41 42 40 40 42 37 43 39 40 39 40 41 41 39 38 35 34 35 32 36 36 32 36 34 34 35 32 32 28 32 30 32 31 27 28 25 29 31 30 32 29 34 37 32 28 28 27 29 30 35 31 23 26 25 20 20 
52 52 50 48 51 48 47 50 50 48 42 49 49 44 45 47 46 44 43 46 46 45 40 41 42 45 42 40 41 40 39 39 40 38 43 40 37 37 37 34 33 31 32 35 35 40 36 32 31 36 32 31 27 30 30 29 28 25 28 26 29 30 32 30 35 33 29 25 29 30 28 30 31 30 29 27 25 23 22 21 
50 49 52 53 55 50 45 49 46 47 47 50 46 45 49 46 45 45 45 45 49 49 42 38 42 41 40 42 40 40 41 42 42 42 40 38 35 39 35 34 31 30 32 34 35 31 34 31 32 33 30 30 26 32 28 29 26 27 22 26 28 31 29 32 29 29 28 30 27 27 26 29 31 29 26 23 27 19 19 19 
47 52 49 48 50 52 48 49 44 42 48 48 50 47 47 51 44 46 44 46 49 46 46 44 42 44 41 41 41 41 43 41 38 39 38 39 35 36 34 32 33 30 33 31 34 33 36 34 30 34 32 35 28 31 28 26 29 26 28 25 26 28 33 31 31 31 34 30 30 28 26 31 29 31 23 24 24 19 17 21 
51 49 50 50 48 49 47 51 45 44 52 51 45 48 49 45 45 46 46 48 47 47 44 41 41 42 41 38 39 35 37 37 39 37 37 36 34 37 34 35 32 30 33 34 32 33 34 30 30 31 32 28 27 28 28 28 28 23 24 27 28 32 31 31 28 26 29 28 25 26 25 37 31 29 23 26 23 19 21 14 
55 51 53 52 46 44 48 49 51 46 43 46 44 49 52 52 54 50 53 50 52 49 51 45 47 41 39 40 40 39 35 33 38 39 36 38 34 33 34 28 29 32 34 37 32 29 33 31 31 31 32 28 29 27 26 27 28 21 21 24 28 28 28 32 30 28 26 26 23 29 25 23 27 27 24 22 22 18 17 15 
53 55 54 47 46 47 49 49 51 46 49 46 45 52 95 130 138 143 143 136 135 127 118 105 95 78 53 38 40 36 39 32 36 34 34 35 32 31 33 33 28 28 31 26 33 32 32 33 30 31 31 25 24 26 29 29 30 22 24 23 26 25 26 27 27 28 27 25 24 28 23 26 26 25 23 20 20 15 17 17 
55 50 47 50 47 46 46 45 43 48 50 47 47 55 124 176 180 181 184 181 176 175 178 181 176 168 98 39 42 34 35 31 35 32 32 34 33 30 31 29 30 33 34 34 32 29 32 32 30 31 30 26 23 26 23 29 26 21 25 23 24 24 22 22 22 23 23 23 23 21 22 18 18 23 16 19 13 13 16 14 
47 48 54 46 43 45 51 49 47 42 44 43 47 57 139 197 199 196 195 193 196 193 196 196 192 186 109 52 41 37 37 35 33 33 32 30 30 29 27 28 27 30 30 32 29 29 30 30 27 31 24 26 25 25 24 27 25 24 25 26 24 22 24 20 22 20 19 17 19 23 16 16 14 17 15 13 17 16 13 13 
51 50 49 49 44 46 45 47 44 43 38 48 46 59 149 212 220 218 218 215 219 210 216 216 216 210 183 136 100 51 37 36 36 35 28 32 32 28 28 28 30 28 29 31 28 28 29 28 27 29 29 26 22 31 27 27 31 28 29 27 26 23 24 23 20 23 20 18 21 23 16 17 17 19 15 12 18 16 16 15 
50 54 46 46 49 43 44 47 41 43 46 46 48 59 150 220 230 230 228 228 226 225 226 228 227 215 124 68 86 85 39 36 35 32 29 32 29 28 29 28 25 28 29 29 30 31 28 29 25 26 26 24 20 25 24 27 27 28 24 28 28 24 21 22 26 20 22 18 22 21 20 17 13 18 17 17 16 16 15 16 
50 50 51 45 49 43 44 45 44 41 48 48 47 56 147 231 234 233 235 230 234 232 229 227 225 205 79 47 44 81 51 32 30 33 31 31 27 25 30 27 26 27 28 29 25 29 25 26 26 30 24 28 21 27 26 29 29 27 31 30 25 21 23 21 21 21 22 18 21 20 16 14 17 19 12 12 14 17 12 12 
52 49 46 45 48 48 46 46 43 44 45 44 43 54 137 234 234 236 235 235 238 237 237 231 228 192 62 38 40 70 53 33 33 31 29 32 23 28 26 28 30 22 29 29 25 25 26 24 27 24 28 24 20 24 24 26 23 28 30 28 26 25 23 21 21 19 19 20 20 22 21 17 21 19 17 19 14 16 13 13 
49 46 45 47 47 47 47 48 42 42 48 46 44 53 123 230 239 241 244 247 238 238 234 232 225 174 51 36 32 64 48 34 33 32 31 28 26 30 27 25 26 27 26 23 25 23 33 26 24 28 26 21 23 24 21 23 25 25 29 27 29 22 22 21 19 18 16 19 22 20 15 16 19 16 13 11 12 11 12 13 
51 52 46 49 49 47 47 42 45 44 44 43 47 56 104 216 235 245 247 246 239 239 236 231 226 150 44 37 42 73 45 32 33 31 32 31 30 29 28 25 22 24 24 26 26 24 26 26 25 26 24 21 16 23 24 22 24 27 28 26 26 23 18 21 17 18 20 17 17 17 16 15 13 12 13 10 15 15 11 13 
51 48 50 48 44 48 43 48 48 44 44 46 44 49 85 204 229 244 248 238 236 237 233 235 222 118 44 39 65 62 35 31 32 33 29 29 29 28 26 22 24 23 26 25 23 24 23 24 24 22 24 22 18 20 24 23 21 26 28 26 26 24 19 19 19 16 15 18 15 17 15 14 15 15 6 10 10 12 10 14 
47 51 47 43 52 50 46 50 47 44 47 46 42 49 66 181 221 231 241 233 231 238 238 232 217 103 56 79 84 43 36 36 32 30 31 30 24 27 19 22 26 21 26 27 25 26 22 25 20 24 22 20 19 18 20 18 18 21 21 24 20 22 20 17 16 15 15 14 16 12 14 13 13 8 5 11 13 11 10 11 
50 51 50 46 47 50 47 49 49 46 48 42 44 46 58 148 223 227 230 231 235 234 228 226 217 171 129 86 47 35 36 31 30 33 33 26 30 24 23 21 24 23 24 25 23 22 22 22 25 25 24 19 15 16 16 16 14 19 23 23 20 20 14 22 13 13 16 11 13 15 19 15 13 11 5 6 12 12 10 9 
52 51 52 49 49 51 49 49 51 48 46 49 43 49 49 109 208 222 229 232 226 231 227 219 146 80 55 41 36 35 32 29 33 27 29 28 25 27 25 20 22 22 24 22 20 23 26 21 24 21 24 19 20 20 15 14 15 19 23 20 21 16 17 14 17 15 14 12 12 17 14 8 11 7 8 6 8 9 7 11 
53 50 58 61 62 62 70 71 63 55 53 51 50 50 51 77 183 212 222 225 225 224 220 194 83 43 39 38 34 32 33 29 29 30 28 29 29 25 27 21 21 23 24 22 25 21 25 22 18 22 20 18 20 21 14 10 14 14 22 21 20 16 17 13 14 13 12 12 6 12 11 9 11 9 7 2 7 9 4 7 
46 56 58 65 73 83 76 77 72 74 71 62 58 55 62 74 138 194 205 207 211 207 194 147 54 49 48 48 42 41 40 38 40 40 38 37 36 34 36 36 34 31 31 29 30 25 27 27 24 26 24 23 24 20 22 13 14 21 22 28 19 17 16 22 15 15 9 8 11 9 8 11 5 7 6 3 8 7 5 9 
51 52 52 52 57 59 57 60 59 58 57 60 56 58 57 64 96 121 134 139 140 133 110 73 40 48 52 52 55 52 55 48 55 62 66 64 68 76 76 82 83 76 68 62 56 48 49 45 40 37 35 41 36 35 37 31 31 28 35 33 28 27 25 24 21 17 14 8 7 9 8 7 12 7 2 0 5 8 7 1 
51 52 54 49 55 53 48 56 50 50 54 56 52 58 59 71 101 100 104 103 101 102 106 97 63 52 54 55 58 54 52 57 55 59 59 63 65 68 70 69 68 71 68 57 55 50 53 54 47 46 45 44 43 39 42 37 40 34 39 40 35 28 31 28 26 21 24 12 8 11 6 9 6 6 6 3 3 5 5 4 
52 53 46 54 54 51 51 51 50 54 58 57 60 61 62 62 78 75 85 77 80 81 83 85 70 64 59 60 61 54 58 52 56 58 58 59 58 59 55 58 60 58 56 54 53 48 47 49 45 49 45 46 43 48 46 39 38 40 38 41 36 32 32 33 29 31 28 26 30 13 12 9 5 8 2 1 6 5 6 3 
51 51 49 45 50 48 50 50 53 53 56 62 53 57 64 56 61 63 65 58 59 64 69 65 63 66 63 64 62 61 59 56 58 55 60 57 54 56 53 55 55 55 50 50 48 48 48 47 46 47 46 47 47 49 43 43 42 41 41 37 34 34 32 31 35 29 28 29 28 28 16 13 10 8 7 1 7 3 2 2 
48 48 45 47 44 46 47 53 51 55 55 56 56 56 59 54 59 58 61 56 57 56 58 60 61 62 60 63 63 60 57 58 58 56 55 55 54 52 49 53 55 53 52 50 46 44 47 43 41 46 44 43 45 49 43 37 40 41 42 41 39 33 28 31 27 30 29 27 31 30 28 28 26 17 13 5 6 2 6 6 
47 44 46 47 45 44 51 53 53 52 55 51 54 58 54 56 54 54 57 57 55 55 50 59 60 58 56 59 57 60 58 55 56 56 52 54 55 49 52 51 55 52 51 45 44 46 46 47 41 44 43 46 48 46 46 43 44 42 39 44 37 32 32 32 29 29 32 26 31 33 31 32 36 31 22 10 10 7 5 9 
45 43 46 42 45 48 46 49 48 53 52 51 55 56 53 54 49 47 51 48 53 53 53 57 59 60 58 57 58 56 58 55 56 55 48 50 49 49 54 49 48 49 50 45 46 46 43 47 46 47 44 44 45 48 45 44 41 41 42 40 33 37 33 33 31 33 34 35 34 34 36 31 32 34 30 24 21 14 14 10 
45 43 43 40 43 50 49 50 46 50 53 49 48 54 52 51 46 50 52 47 50 51 61 51 60 59 54 56 56 54 56 52 50 50 52 51 50 47 47 52 49 52 46 46 46 45 48 62 48 47 45 45 48 50 47 44 41 44 39 40 38 38 35 33 35 31 33 30 35 32 36 36 33 32 25 26 33 29 25 15 
50 48 44 47 45 46 49 52 51 50 47 51 48 49 50 48 46 50 44 46 46 45 49 54 54 57 52 52 51 51 54 49 52 50 53 52 49 52 52 50 51 48 40 45 44 43 43 46 47 49 45 47 48 47 44 43 44 46 43 42 37 38 34 35 36 30 34 28 31 37 33 32 32 35 30 31 28 38 33 25 
45 46 48 42 48 48 49 51 50 50 54 47 49 50 51 47 48 48 49 47 46 49 47 52 57 60 56 54 50 50 51 50 51 50 48 49 48 47 50 50 49 50 47 46 44 44 47 43 46 45 43 46 47 44 43 43 43 42 41 41 38 35 36 34 40 29 33 30 35 35 37 35 36 31 30 27 28 35 36 35 


