P2
80 60
257
51 58 58 54 58 57 51 54 54 51 53 55 56 61 60 61 60 57 62 57 60 62 62 63 65 63 66 69 66 67 69 66 63 66 65 69 62 63 61 67 65 61 63 63 58 54 52 54 53 54 55 57 56 55 54 51 54 53 50 47 49 45 44 45 45 46 42 41 42 40 35 38 30 25 24 29 21 29 20 5 
58 59 60 57 57 58 54 57 62 56 56 54 53 59 59 58 56 63 62 61 61 58 64 66 64 66 71 68 68 69 71 68 67 64 67 68 62 61 64 64 65 62 63 67 55 54 58 55 55 52 57 56 57 56 55 53 50 49 49 51 50 47 45 47 50 49 44 45 44 43 44 45 40 33 31 30 28 28 23 12 
57 57 59 61 61 59 55 59 60 54 58 58 52 58 60 54 58 63 62 64 61 63 69 70 71 67 70 68 71 68 65 66 67 67 69 68 64 64 62 64 65 61 59 62 54 52 57 55 56 55 56 55 56 57 57 53 54 55 52 49 50 50 50 54 50 51 42 44 42 47 46 41 43 37 38 36 32 32 26 22 
58 57 64 62 64 60 58 59 53 55 53 52 57 61 60 60 64 60 61 63 61 66 67 71 73 74 71 69 69 68 66 69 70 67 69 69 68 64 65 64 65 65 61 61 57 56 53 56 55 56 58 56 58 56 55 55 58 53 48 51 52 50 49 52 50 55 51 46 45 47 46 47 45 44 39 40 34 32 30 26 
56 54 58 62 55 60 58 57 58 58 56 58 49 62 58 61 55 64 65 62 58 65 67 71 72 67 72 68 66 65 65 63 65 64 64 64 63 65 64 62 62 62 60 62 55 51 52 54 55 55 53 54 57 55 56 52 52 53 52 50 50 48 47 47 47 48 47 45 46 51 50 46 44 41 40 43 39 39 31 33 
58 61 59 58 53 59 58 56 54 56 59 58 54 56 60 61 60 62 61 62 59 64 66 69 66 66 67 68 64 67 63 59 68 63 61 60 62 60 61 63 67 61 60 58 55 55 53 50 56 52 54 55 58 55 52 54 52 49 50 49 48 48 49 49 48 49 41 45 47 50 46 44 46 36 40 41 40 36 31 33 
53 62 62 59 57 59 53 56 57 55 58 54 53 60 53 57 60 59 67 61 60 63 69 67 67 63 65 66 64 64 63 64 61 59 63 61 54 56 60 59 60 63 57 57 51 52 55 54 57 55 52 58 52 53 51 51 49 46 54 49 47 48 50 46 50 47 44 44 45 45 45 47 47 39 42 39 39 36 32 33 
55 56 58 59 54 58 59 58 58 56 60 58 51 61 53 56 59 62 62 60 64 63 67 67 65 65 63 64 62 63 59 64 63 59 60 60 57 55 53 57 56 59 59 55 52 57 55 53 55 55 55 54 55 54 51 52 50 49 50 48 45 46 50 51 51 48 46 45 46 45 45 48 49 42 49 41 39 42 36 34 
56 57 59 60 59 58 56 57 59 54 60 55 57 59 61 60 65 61 60 60 59 63 66 66 65 63 61 62 61 63 58 62 58 55 55 57 54 56 54 53 55 51 54 53 54 53 53 53 52 58 53 52 58 55 53 48 53 49 50 50 50 50 49 52 53 50 47 48 46 48 48 47 47 45 41 43 44 39 37 37 
57 59 60 59 65 58 56 56 59 55 51 55 54 54 61 57 55 64 62 59 60 65 67 65 61 63 60 62 63 60 57 58 61 58 59 59 54 53 53 53 58 52 50 53 53 56 53 53 54 52 54 55 55 51 53 49 51 48 51 47 48 48 48 49 48 51 47 48 47 49 48 47 46 42 42 43 43 39 34 34 
61 59 54 59 57 56 53 62 58 59 57 54 57 53 58 58 57 59 59 60 59 63 68 62 59 61 62 59 59 61 54 57 60 53 53 56 55 54 47 55 56 56 51 53 48 54 53 48 56 51 52 51 57 52 53 50 51 48 51 48 45 49 48 48 48 48 49 46 43 47 43 46 45 39 41 42 39 41 35 33 
55 57 60 57 59 60 55 59 60 53 56 53 54 57 57 59 56 63 59 59 60 63 67 64 60 60 62 61 61 58 56 57 59 58 57 57 52 52 53 52 54 56 54 53 48 50 50 52 52 53 52 52 53 52 51 47 47 51 49 49 46 41 47 46 46 49 45 45 48 45 44 44 45 39 42 43 42 35 33 31 
56 59 58 55 54 52 58 63 58 53 59 50 53 58 58 57 60 63 65 60 59 63 66 64 59 64 59 58 58 61 54 61 59 56 56 57 54 54 55 52 56 54 52 54 49 51 52 51 50 51 53 53 56 52 49 50 53 49 50 49 45 45 45 45 47 44 46 45 41 41 40 43 42 38 44 39 39 38 31 32 
54 63 52 59 58 53 52 60 59 57 56 55 55 58 59 60 58 60 58 61 59 62 64 59 61 57 61 62 57 57 58 58 59 59 55 56 52 55 53 55 53 53 55 54 50 53 50 50 51 52 51 51 53 51 48 51 51 50 49 42 46 43 46 46 47 47 45 44 42 43 44 43 43 40 41 38 34 36 35 29 
55 61 56 53 60 57 57 60 56 57 58 58 55 57 56 56 58 60 59 61 57 60 62 59 59 57 60 59 60 55 54 53 56 52 54 54 52 51 51 53 53 53 52 53 52 53 50 51 53 49 51 50 52 48 49 46 49 52 50 46 49 46 47 48 47 44 46 45 46 44 42 42 41 37 44 40 36 37 31 31 
57 57 61 53 57 57 59 60 58 57 55 54 54 56 57 56 56 59 59 58 56 60 60 57 57 56 58 58 61 58 55 55 55 54 52 56 53 52 52 51 55 53 50 52 46 53 48 51 50 53 53 50 51 46 48 48 48 48 48 46 50 46 47 44 47 52 44 42 43 45 44 40 44 40 44 42 38 36 32 31 
60 59 59 58 54 55 59 63 57 60 56 55 55 59 54 54 56 60 58 56 57 54 60 59 57 55 53 55 59 54 57 56 59 55 52 54 54 52 48 52 52 52 50 51 52 54 52 45 50 51 52 51 50 47 46 49 45 46 48 42 46 45 46 44 49 47 45 46 43 46 41 43 42 41 42 39 39 38 32 31 
54 55 58 58 57 57 55 61 58 53 56 54 55 58 57 57 58 61 59 58 57 62 57 58 55 56 58 53 54 53 53 54 57 52 55 55 53 53 55 51 52 49 53 49 54 48 49 51 50 49 51 50 48 46 47 44 49 47 48 46 49 48 45 50 45 46 55 43 45 47 44 44 45 43 44 38 40 35 30 31 
53 58 61 57 60 58 58 61 57 55 58 56 54 56 60 55 55 61 60 58 62 61 61 59 59 56 56 55 52 58 54 55 57 53 55 54 52 54 52 50 53 50 51 52 49 53 47 49 50 47 51 51 48 48 48 47 46 42 48 45 42 43 45 48 45 46 43 47 43 43 43 43 42 40 46 41 39 38 29 30 
55 61 57 54 57 61 59 58 58 51 55 57 50 61 54 56 58 59 59 60 58 56 59 58 54 59 56 58 56 57 57 55 56 51 56 54 51 52 51 52 50 49 46 51 47 48 48 50 47 48 50 47 48 46 48 45 44 45 46 42 45 44 44 46 44 45 48 46 46 46 43 43 44 42 41 37 40 36 32 32 
54 58 56 54 60 57 53 59 58 55 57 52 53 56 57 58 61 58 57 59 58 59 59 53 55 55 54 55 55 57 49 59 52 49 53 53 50 50 50 51 53 51 47 48 50 52 50 48 45 49 48 49 49 46 46 44 46 45 43 40 43 42 42 42 45 46 45 46 44 43 43 46 40 44 44 38 40 37 32 32 
51 55 58 53 56 59 52 55 58 57 55 57 58 56 56 57 57 59 59 58 61 59 59 60 54 56 56 56 55 54 49 51 56 55 53 51 51 47 52 51 53 49 47 48 49 50 46 46 48 50 49 44 46 44 45 44 41 41 38 38 42 44 44 42 44 47 42 42 40 49 43 43 44 38 41 41 40 36 33 28 
52 57 55 53 59 60 59 57 56 53 53 53 57 54 53 54 55 57 58 59 57 58 57 55 52 53 57 54 55 53 53 50 51 51 50 50 51 48 50 52 51 48 44 50 45 46 44 43 46 46 46 45 45 44 43 44 43 37 37 36 41 41 41 42 43 44 43 43 43 44 45 40 42 38 38 39 38 35 32 35 
56 57 60 54 55 54 55 57 55 53 56 52 53 52 58 57 54 58 58 60 56 60 54 55 52 53 54 52 56 53 52 55 51 51 51 49 50 46 48 50 49 47 48 47 48 48 46 44 46 46 40 40 45 41 47 44 38 39 38 36 39 44 41 40 44 42 41 43 43 43 42 41 38 37 38 36 39 34 31 26 
56 60 65 56 56 55 51 55 59 55 54 55 54 58 54 57 57 55 55 55 57 56 56 53 50 51 54 53 55 53 51 51 52 51 53 48 47 49 44 48 45 47 47 49 50 49 45 48 47 41 41 42 45 43 44 42 43 41 37 38 36 42 38 45 38 41 42 42 40 42 39 37 39 36 36 37 34 36 32 29 
58 59 55 57 57 56 55 58 57 54 54 53 56 58 57 57 58 62 57 58 58 60 52 56 57 53 53 54 55 52 49 54 52 51 49 49 48 47 47 46 47 47 46 48 45 47 49 47 44 46 44 42 45 42 42 42 42 41 41 41 41 41 41 42 46 43 41 40 41 43 44 42 39 36 36 36 37 35 31 32 
63 57 65 61 61 57 54 57 57 58 57 57 54 55 54 55 56 53 56 57 56 58 57 48 55 53 50 55 55 52 49 48 52 48 50 50 46 46 45 46 45 47 44 43 45 46 45 43 43 43 42 44 45 40 42 42 43 38 40 33 43 43 42 40 40 42 40 40 43 44 37 40 42 38 37 34 36 37 32 23 
58 61 57 59 56 56 53 58 57 55 55 54 54 56 59 57 57 56 53 57 55 59 54 52 50 52 51 58 57 51 51 52 53 47 50 48 48 51 47 47 46 45 42 43 43 42 48 45 44 45 46 45 44 43 41 40 42 40 34 36 40 42 40 43 41 40 39 39 39 38 41 42 38 36 39 37 34 33 30 24 
55 60 58 55 56 57 52 55 56 53 55 56 52 53 54 53 55 57 58 59 58 57 52 49 52 53 50 48 52 49 49 53 53 48 47 46 46 48 45 41 40 43 43 46 44 43 46 48 47 44 44 48 42 44 41 40 38 37 32 38 38 38 41 45 40 42 42 40 41 39 37 39 38 42 37 35 34 31 24 21 
59 59 58 58 59 54 51 61 55 57 54 53 56 50 53 55 53 57 57 59 57 55 52 54 46 49 48 48 55 49 51 50 51 47 49 47 46 48 44 44 42 45 44 46 45 42 45 42 44 44 43 40 39 43 42 40 38 34 36 36 39 39 41 42 41 41 42 40 38 36 39 36 36 38 38 31 29 30 24 19 
60 62 58 55 56 54 54 54 59 56 58 51 53 54 54 56 55 54 57 62 56 55 49 50 50 50 51 51 53 49 49 52 51 50 47 49 47 46 46 45 42 39 41 46 41 54 50 42 43 44 44 41 37 39 39 38 37 33 38 36 37 38 40 38 43 41 38 36 39 40 39 34 35 34 31 32 31 32 19 21 
52 58 61 61 62 59 51 54 54 53 53 52 51 53 58 55 54 54 55 57 58 57 51 48 51 50 52 53 50 49 50 48 52 52 47 52 43 45 45 43 41 41 44 44 45 44 46 41 42 42 41 42 36 41 39 38 35 33 31 36 39 42 39 40 41 39 36 35 38 36 36 39 36 30 39 37 31 29 30 18 
52 57 57 58 55 55 53 54 55 52 53 55 55 55 58 55 53 55 56 55 56 55 51 47 48 48 49 50 52 49 49 47 47 46 44 47 40 44 41 42 42 42 42 41 44 39 44 42 41 41 40 41 39 39 36 36 37 32 34 33 37 38 39 40 39 36 37 34 39 35 36 38 34 33 31 31 31 25 22 22 
51 59 56 58 55 53 54 60 55 54 58 55 55 58 58 56 56 55 61 56 53 55 49 46 50 50 48 46 51 46 46 44 48 49 46 42 44 45 43 42 39 39 41 43 42 45 43 38 38 40 40 38 38 37 39 39 37 30 30 30 39 38 41 38 37 36 37 34 37 41 35 35 35 29 31 32 29 27 23 22 
58 59 61 57 53 56 54 62 70 67 71 71 68 69 69 61 65 60 59 58 54 49 47 42 46 47 47 48 49 46 43 43 47 45 42 46 40 41 40 36 36 42 44 41 41 39 41 38 43 38 38 36 33 35 34 38 36 31 29 31 37 34 37 40 36 34 34 35 31 36 31 30 34 30 31 31 27 23 19 16 
59 56 61 56 55 56 62 99 159 168 176 171 169 168 170 163 155 145 128 90 59 55 47 44 47 48 46 45 45 44 44 42 44 42 41 43 40 40 41 40 37 33 40 41 40 40 41 39 39 38 37 34 34 37 36 38 36 31 31 32 36 36 34 36 33 37 33 33 31 37 30 32 34 27 30 29 23 21 19 19 
58 55 55 56 56 57 62 107 185 194 199 191 193 198 192 196 195 195 186 127 60 49 45 46 46 46 45 45 49 42 43 43 44 43 39 43 38 38 37 32 37 39 38 44 46 37 41 39 39 40 39 35 35 36 34 38 34 28 31 29 33 33 33 33 31 29 30 35 29 36 29 26 26 25 27 23 19 22 19 18 
56 54 57 53 53 55 63 120 206 213 209 207 208 214 209 215 210 210 199 150 83 59 48 42 46 46 45 47 40 43 44 44 42 41 44 39 35 39 36 36 35 40 38 43 40 40 39 38 36 39 35 36 34 36 37 40 34 33 33 37 31 30 33 29 31 29 27 28 28 32 29 25 21 20 23 23 21 23 20 16 
54 57 57 55 50 56 61 123 217 228 224 231 228 236 230 235 228 228 229 192 143 117 67 46 47 44 45 42 46 41 41 45 45 42 36 38 41 36 35 35 38 38 38 38 39 39 42 36 39 38 35 33 33 37 36 37 39 34 39 36 33 31 33 32 32 30 27 27 31 34 27 25 23 19 23 24 25 26 16 18 
55 59 55 53 53 54 58 120 225 237 238 237 236 239 238 237 240 233 222 133 65 76 92 52 45 41 44 40 44 40 41 41 41 39 38 35 37 35 36 36 34 34 39 40 37 40 40 40 35 35 35 35 33 35 33 36 35 36 34 37 38 31 30 29 34 29 27 27 29 34 30 24 23 23 25 24 19 23 16 20 
56 57 56 55 59 54 60 112 231 237 241 241 243 246 241 245 243 240 216 102 59 54 76 58 42 43 43 43 45 42 43 41 42 41 40 37 32 34 35 34 35 35 36 39 37 39 39 35 35 38 38 34 33 40 33 39 39 36 38 37 37 31 30 32 31 31 28 30 27 32 27 24 27 19 23 21 21 22 26 23 
57 55 56 56 57 56 62 104 228 240 249 247 241 249 248 247 242 239 204 91 56 51 73 57 43 43 46 43 44 43 38 40 41 42 41 38 32 37 36 35 34 31 38 37 38 36 31 31 36 32 35 32 33 35 34 35 42 37 36 35 37 36 31 32 34 29 26 31 31 33 28 28 25 20 25 27 21 19 22 24 
58 55 53 55 55 58 59 93 213 239 256 257 255 253 251 250 237 235 196 76 53 49 63 57 46 42 44 42 39 42 40 41 43 38 41 38 35 38 34 33 34 38 33 32 35 33 39 33 37 35 33 31 34 34 32 32 31 35 35 34 37 36 27 32 29 26 22 27 29 30 24 24 21 18 20 23 20 21 17 17 
57 60 56 57 57 55 57 76 195 238 251 253 255 253 248 248 242 237 173 66 52 53 75 47 41 42 43 38 42 43 45 41 43 38 37 38 36 37 34 32 31 33 31 37 37 34 36 36 33 33 31 31 32 34 32 32 33 33 33 34 34 31 29 30 28 27 25 25 26 28 25 20 23 16 20 16 19 20 19 15 
62 57 57 58 57 56 54 70 170 231 249 253 249 242 253 247 241 233 145 57 61 79 65 41 41 40 40 39 43 42 40 39 40 41 34 33 37 35 34 33 33 30 36 36 34 36 33 33 33 33 35 31 30 31 36 31 32 33 34 35 36 32 27 30 26 28 26 26 24 23 24 23 19 19 18 17 17 19 17 16 
59 61 57 55 57 59 57 68 138 223 240 244 241 244 253 245 235 231 154 93 98 82 51 44 41 43 40 42 41 43 41 44 40 39 35 34 35 33 32 31 33 30 34 36 33 37 35 33 35 33 30 28 28 27 30 28 27 29 27 32 29 32 28 22 26 26 24 26 24 23 26 25 19 14 15 15 15 19 16 17 
58 60 57 53 58 57 58 62 110 211 238 238 240 242 245 241 232 216 175 130 82 49 40 39 40 40 42 42 39 39 40 38 38 41 37 35 39 35 31 30 31 32 34 35 31 30 30 33 34 30 30 28 27 28 26 26 26 27 31 30 29 29 26 24 25 25 22 19 21 24 24 22 20 12 11 13 14 14 13 11 
60 60 57 58 58 60 58 58 81 192 231 239 234 246 242 237 219 159 73 58 53 47 44 36 47 42 42 41 44 41 40 39 42 39 38 37 33 36 33 29 30 29 30 34 30 32 34 30 33 31 30 27 30 31 27 24 24 28 28 29 31 24 25 23 25 24 20 21 21 27 22 15 20 13 12 13 16 16 14 10 
56 57 69 74 73 74 81 84 89 158 219 227 226 232 234 228 207 109 56 55 53 44 41 42 44 43 41 42 43 41 41 38 40 39 35 37 35 33 34 28 32 31 31 30 37 33 34 32 31 30 28 25 27 30 26 20 27 25 31 32 27 23 25 24 22 20 18 20 17 22 24 21 17 13 14 14 13 15 10 8 
56 58 71 76 85 95 90 92 94 122 179 197 202 209 208 197 154 76 54 54 53 46 39 43 41 49 51 54 53 52 50 46 51 48 46 44 43 40 43 41 43 42 42 40 39 36 36 34 31 31 31 29 31 32 30 25 23 29 30 33 30 25 24 24 23 23 17 19 22 18 20 18 12 10 3 13 17 15 9 9 
57 58 59 63 61 69 64 67 71 101 121 126 130 135 129 118 102 73 57 55 51 36 32 26 31 48 59 59 64 64 61 57 67 67 72 74 77 83 84 93 94 84 79 73 68 60 59 53 52 48 44 49 47 49 45 40 40 35 43 40 38 36 33 35 31 28 18 17 16 21 16 15 14 7 7 9 13 14 8 4 
56 56 60 54 60 62 55 62 68 98 106 107 103 111 112 111 112 84 61 60 54 58 56 52 55 57 60 60 62 62 60 61 63 65 67 71 71 77 76 80 81 79 77 69 64 62 59 61 55 55 56 54 55 50 51 46 46 44 43 48 41 40 42 37 35 32 29 18 15 19 19 16 11 8 12 11 10 8 7 5 
56 55 56 57 61 57 58 57 72 87 85 80 76 81 80 78 87 77 75 67 62 58 59 63 64 61 65 62 66 59 62 63 63 63 63 62 64 64 63 65 69 66 66 62 60 57 59 58 54 58 51 55 55 57 53 51 46 48 49 49 45 39 40 40 38 40 34 33 31 20 21 16 9 10 10 8 11 10 0 1 
57 52 54 49 56 58 57 58 66 66 70 73 63 69 71 64 69 73 68 63 63 60 64 63 65 64 67 70 68 70 61 63 62 61 66 62 59 62 61 65 64 63 57 60 59 57 56 56 54 56 54 58 60 59 50 50 52 51 53 45 42 43 41 40 42 40 36 36 36 34 25 22 14 10 11 12 9 8 6 6 
54 57 48 53 52 54 49 58 63 61 64 65 64 69 68 65 68 68 65 63 58 58 61 60 64 63 66 65 69 65 64 63 62 63 61 60 60 59 55 59 64 58 60 59 55 54 53 52 53 58 52 55 60 56 54 45 50 50 49 46 48 45 38 40 38 38 37 36 36 39 35 51 31 18 20 13 12 8 9 6 
53 51 52 51 52 51 55 55 61 56 62 58 62 65 58 64 61 65 62 64 60 57 56 61 61 59 64 63 62 66 59 61 59 63 61 56 59 57 58 58 60 57 57 54 52 50 53 55 53 55 54 54 55 54 52 47 51 44 45 48 45 42 40 37 40 36 37 36 37 40 36 35 37 27 29 19 16 15 12 12 
52 52 53 50 47 51 52 53 54 59 59 55 62 60 59 62 56 62 60 60 62 55 57 60 61 62 66 62 63 63 63 61 65 60 56 57 57 57 57 59 56 57 55 54 52 55 55 54 55 52 53 54 57 56 50 49 49 49 49 45 41 43 39 42 42 41 42 40 42 45 41 39 40 35 36 32 26 25 20 17 
50 50 54 51 48 56 57 54 56 57 57 56 56 60 56 56 51 61 59 57 58 58 64 57 65 65 62 67 65 62 63 58 63 61 57 59 57 57 52 57 56 58 55 56 57 54 55 70 56 53 55 53 58 58 53 56 48 55 44 47 48 45 41 45 43 39 39 41 42 42 49 42 38 34 36 36 39 41 30 29 
52 52 52 54 50 53 55 57 55 56 52 53 50 56 56 56 57 61 50 53 52 56 54 61 59 59 58 61 62 58 60 59 61 58 60 54 54 58 58 57 61 59 52 57 54 52 53 56 53 55 55 55 59 57 53 51 52 53 51 49 46 47 41 45 43 41 39 37 41 44 38 38 36 34 38 40 33 43 36 31 
49 48 52 54 55 51 54 52 59 53 53 48 52 56 59 57 59 62 56 57 51 55 53 57 61 65 65 62 62 58 59 63 64 57 57 54 54 56 55 55 59 56 59 59 55 57 54 52 55 54 55 57 57 53 53 52 53 48 48 47 45 44 45 46 46 39 42 39 39 43 41 43 41 32 36 34 36 38 38 32 


