P2
80 60
241
53 55 55 55 57 58 58 56 58 60 56 58 55 51 55 56 57 53 55 52 54 56 59 60 59 60 62 61 60 63 65 62 60 61 58 64 58 55 56 57 59 55 61 54 48 47 48 41 47 47 49 48 47 49 50 50 50 50 39 46 45 40 41 44 40 39 43 39 39 36 35 35 33 30 26 24 29 27 22 0 
56 54 55 57 56 58 55 53 61 54 58 54 54 56 56 56 57 57 55 56 56 52 57 63 61 66 66 60 59 61 66 62 63 61 62 64 58 58 57 60 56 53 62 56 49 48 49 45 47 47 51 48 50 47 47 50 49 48 47 50 48 45 45 46 48 45 44 39 42 44 38 41 38 35 30 27 25 25 15 19 
50 58 56 61 61 60 59 60 57 54 55 54 53 58 58 52 55 58 57 56 56 56 67 67 68 60 63 64 60 61 61 65 62 63 57 63 57 61 59 60 56 54 58 56 47 49 47 49 47 46 52 52 50 51 51 50 51 47 49 47 48 49 48 48 47 51 48 44 43 40 40 41 44 38 38 36 27 28 26 20 
55 54 60 60 61 56 58 59 57 56 53 55 57 54 55 58 58 56 55 58 53 58 62 67 67 67 66 61 63 61 60 63 60 58 57 63 61 57 59 60 60 56 59 51 48 50 46 49 46 45 51 54 52 53 47 52 52 50 51 48 48 45 46 48 51 51 47 43 44 42 48 44 44 40 42 36 36 36 22 22 
51 52 58 62 59 56 59 59 57 60 57 57 56 55 54 58 55 61 59 54 53 57 63 67 67 63 62 61 61 57 59 58 58 61 58 60 59 59 61 54 57 55 55 54 46 45 46 45 48 47 46 48 50 51 50 50 50 48 55 49 44 48 47 49 48 43 42 45 42 41 45 44 47 46 39 40 36 34 27 30 
53 53 57 56 55 58 56 57 56 56 60 58 50 55 59 56 59 59 55 56 54 58 63 63 61 59 63 62 59 65 55 58 59 54 58 55 56 54 55 57 58 54 55 54 46 43 47 46 48 42 50 48 49 54 51 47 49 46 51 50 45 46 52 51 45 43 46 42 43 41 43 43 48 42 39 43 38 35 35 34 
54 56 59 54 57 60 55 56 58 56 57 52 52 57 55 57 58 56 60 55 54 55 66 64 66 61 61 59 59 59 55 57 53 54 56 56 52 50 57 47 55 55 53 51 47 48 48 44 49 47 46 52 47 48 51 47 50 47 48 45 46 47 48 48 49 44 45 45 42 41 41 45 45 47 45 43 39 33 30 28 
57 53 54 58 58 58 56 59 53 56 55 57 54 56 55 54 60 54 59 55 57 54 63 60 60 62 61 59 55 60 57 58 58 52 54 58 54 50 51 50 53 52 52 48 43 48 48 45 45 46 48 49 44 51 50 47 47 47 48 48 48 45 47 46 43 46 47 42 34 41 42 43 44 45 42 44 39 39 31 38 
52 54 55 57 58 52 53 54 56 52 53 54 59 55 57 56 58 58 54 56 52 55 64 61 58 55 57 56 54 57 55 58 54 49 50 52 48 51 48 46 46 44 47 47 45 44 42 44 42 44 47 46 41 46 47 48 46 46 50 50 47 45 45 45 43 46 43 41 46 42 42 44 45 46 42 43 41 39 30 31 
56 52 54 58 61 57 55 52 61 54 53 55 57 52 57 53 54 58 55 54 55 58 62 56 58 56 52 54 59 54 54 55 55 46 51 53 47 49 48 48 46 42 46 46 47 47 43 48 45 46 45 45 44 49 49 47 49 49 46 49 52 44 48 47 44 48 46 45 42 43 41 41 42 42 40 42 39 35 33 30 
55 53 55 56 54 56 53 57 53 60 54 59 56 56 53 62 54 50 53 56 55 54 59 60 56 53 57 52 55 53 52 56 54 45 53 50 49 50 47 47 46 48 48 50 42 44 46 40 46 42 47 46 47 45 49 46 48 46 48 48 50 46 45 44 41 44 44 41 43 40 39 38 42 41 38 37 40 36 34 31 
57 49 53 55 57 54 55 58 55 53 53 51 54 53 52 51 56 54 56 57 54 55 59 58 55 56 52 55 52 51 48 54 52 52 49 53 49 49 47 46 51 42 48 48 44 44 46 45 45 43 47 44 47 48 45 45 46 49 48 50 48 42 44 40 41 43 42 41 41 35 39 39 43 43 38 38 41 37 36 33 
57 51 51 54 54 51 59 57 52 51 54 51 55 53 52 51 52 55 55 54 55 56 59 56 52 56 52 51 53 52 48 53 54 53 51 52 48 47 45 48 47 41 46 47 43 45 48 41 42 44 46 41 44 44 45 47 47 47 47 45 43 42 40 41 42 42 41 40 40 39 40 39 40 39 40 34 36 35 32 35 
57 55 48 56 57 50 53 55 54 57 54 54 53 55 51 54 50 53 51 52 52 54 58 54 57 46 55 51 50 53 53 52 53 50 51 50 48 51 48 46 46 45 43 44 40 46 46 42 43 43 46 44 41 43 48 46 48 50 43 45 43 41 45 44 43 40 40 41 35 37 36 40 36 38 35 35 34 33 32 32 
54 60 51 53 55 54 51 56 53 53 52 55 52 51 51 52 53 50 52 53 52 53 59 55 56 50 53 51 50 49 49 52 53 46 49 49 50 48 46 47 43 44 46 45 41 45 44 41 46 42 42 43 44 49 42 42 47 53 50 46 45 42 45 46 44 45 41 41 38 37 36 39 43 39 36 34 35 31 33 39 
49 53 52 53 55 55 56 56 54 56 55 52 53 50 52 49 54 52 52 52 51 55 56 54 49 50 50 52 51 53 51 53 49 52 50 52 52 51 57 42 49 42 46 45 41 45 42 39 44 42 43 44 42 42 45 46 46 46 44 46 44 44 47 38 42 44 45 36 40 40 37 37 43 41 39 40 38 36 34 37 
53 49 50 57 54 54 59 57 53 54 52 56 53 55 49 54 53 53 51 50 53 50 54 54 48 51 49 50 52 47 49 51 54 49 50 52 50 49 46 48 44 45 48 43 46 42 41 40 42 45 43 45 42 38 45 44 45 45 45 47 46 44 46 41 45 44 43 42 37 45 39 39 41 39 36 37 38 34 29 34 
51 51 54 54 57 51 54 56 55 53 52 53 50 49 52 50 54 51 53 51 50 54 52 52 49 46 52 47 51 49 46 51 48 45 47 53 47 48 52 45 48 41 47 41 45 42 45 40 40 41 46 43 39 43 41 42 46 46 47 49 44 41 42 46 40 41 42 40 39 38 38 37 41 39 40 39 37 35 34 32 
51 51 54 55 53 51 56 55 53 53 53 55 50 46 57 50 52 54 51 52 55 54 54 51 53 48 48 46 45 53 47 49 49 50 50 48 45 45 46 46 44 44 48 43 39 42 42 41 38 40 43 45 38 43 42 41 43 42 41 42 42 39 44 43 41 40 41 41 42 40 39 39 40 38 39 37 37 37 30 32 
50 52 53 53 53 58 56 52 51 52 50 53 50 53 54 51 50 56 56 52 53 50 55 54 47 51 49 48 47 48 46 50 50 46 47 51 47 47 49 43 43 42 40 45 38 41 43 39 40 37 39 41 38 37 47 38 41 41 38 40 36 42 40 42 44 40 44 36 38 37 36 43 43 40 38 37 35 33 28 28 
51 55 52 50 56 51 54 58 54 51 50 49 51 52 51 54 51 52 49 53 49 54 54 49 47 49 48 50 50 53 43 52 48 45 47 47 44 44 43 45 45 43 44 43 44 44 43 41 38 37 42 41 38 40 41 36 40 41 40 41 40 36 41 43 37 41 39 39 39 38 34 38 44 43 40 35 37 33 32 30 
48 51 54 49 51 52 53 54 54 58 50 51 56 49 54 50 50 51 52 51 54 51 51 52 49 49 49 47 47 48 47 47 50 48 49 51 45 44 48 43 44 40 43 44 41 41 35 38 39 39 41 37 39 39 41 40 41 39 36 42 41 40 44 42 38 39 41 40 37 37 39 40 38 40 37 39 37 31 31 26 
49 53 51 52 56 56 53 49 52 52 49 49 53 48 49 49 52 50 49 50 52 56 51 52 48 53 48 41 47 46 43 46 45 49 49 44 47 46 44 46 40 40 43 44 44 40 38 38 40 38 40 39 32 38 38 40 39 35 34 39 39 39 39 42 37 42 39 40 39 36 41 41 39 39 36 36 37 30 28 33 
50 48 54 55 52 51 54 53 50 51 51 50 49 49 53 51 51 53 50 49 49 52 52 50 46 50 47 41 47 50 45 48 45 43 44 46 47 46 43 40 39 41 43 40 34 42 37 35 36 36 34 32 37 35 40 37 37 31 33 37 37 40 40 38 37 39 39 39 36 37 35 36 35 31 36 36 36 30 25 29 
52 55 53 54 54 51 51 50 53 52 51 51 52 48 49 51 49 48 47 47 52 48 49 51 44 48 48 48 48 51 47 49 47 44 48 44 41 43 43 39 36 36 42 40 38 38 36 38 41 34 36 34 36 37 43 40 38 35 38 36 37 38 39 39 37 37 39 37 38 37 35 39 35 40 33 37 34 31 31 28 
50 49 52 54 53 50 54 53 51 51 52 50 49 56 52 51 51 54 47 47 50 53 49 53 47 47 48 45 43 47 45 51 43 42 41 43 43 39 41 38 40 37 40 39 38 35 40 36 36 33 37 40 37 37 38 38 34 33 35 39 38 39 40 35 38 33 40 38 35 37 38 37 35 37 35 33 31 30 29 29 
51 51 55 57 54 53 52 54 53 55 54 51 47 48 50 48 47 47 49 49 48 49 52 43 47 47 45 45 46 44 40 40 42 42 44 44 45 37 40 40 37 33 39 33 36 39 36 37 33 37 35 37 33 36 37 43 33 35 31 31 40 35 39 35 36 37 36 37 37 34 32 29 36 37 36 32 31 30 28 29 
52 53 49 53 54 49 54 53 52 54 46 50 51 47 51 49 50 50 45 46 48 50 47 48 46 50 46 46 44 45 43 47 43 39 41 43 41 43 42 40 40 35 35 39 37 34 37 39 35 34 36 35 35 37 35 35 34 33 29 34 37 38 39 39 38 38 37 36 34 23 32 33 34 33 35 33 29 28 29 27 
50 52 55 48 55 51 48 50 51 53 49 51 48 48 47 47 50 48 49 50 50 49 50 45 45 46 47 42 44 46 45 43 41 42 41 39 41 40 43 40 36 32 38 38 33 35 36 32 38 36 35 38 31 33 39 35 36 29 28 36 33 36 37 40 38 37 40 38 33 31 34 35 35 31 31 34 32 24 23 26 
51 51 47 54 53 46 49 54 49 50 49 53 50 46 46 51 45 49 48 49 49 49 45 48 43 42 45 42 43 41 46 40 43 41 42 39 42 38 40 35 35 34 38 40 40 35 38 35 34 35 36 35 30 35 35 36 36 32 32 38 34 34 43 38 39 37 33 37 34 32 30 34 37 33 34 31 29 23 27 24 
50 50 51 50 54 49 53 48 52 48 53 48 47 46 47 48 46 47 48 50 48 48 42 46 42 41 46 40 42 41 41 43 40 36 41 41 41 40 41 38 38 32 38 39 38 37 39 38 35 36 37 35 33 36 35 33 33 29 29 36 37 38 42 38 37 35 33 36 32 30 30 31 34 30 33 33 32 26 23 25 
47 49 54 55 50 51 50 48 50 48 47 50 52 46 48 50 48 46 47 48 51 48 47 43 40 41 41 44 39 38 42 43 44 42 39 43 38 41 41 36 34 31 39 37 38 37 38 33 37 36 37 35 28 32 33 35 34 30 29 30 36 37 38 36 37 33 32 35 33 34 30 31 34 30 30 29 28 26 26 22 
50 49 53 56 51 50 49 48 48 47 45 45 47 45 48 47 44 49 48 52 48 45 44 42 41 41 42 40 43 43 40 41 41 44 39 40 38 36 39 33 38 32 39 36 39 36 38 34 33 32 37 38 29 35 33 33 36 30 31 34 37 36 36 37 36 32 35 29 33 32 32 31 35 30 30 31 28 22 22 20 
47 48 47 48 48 48 49 53 48 45 48 48 45 44 44 45 46 47 46 48 44 44 41 39 38 43 40 39 40 38 40 40 41 40 40 41 35 37 35 36 33 30 39 38 37 38 39 38 33 32 34 32 29 31 36 31 30 30 29 30 38 34 37 35 35 32 34 27 29 31 29 33 33 33 28 29 28 23 16 16 
52 49 52 54 49 46 50 46 47 47 40 46 44 44 46 40 44 45 44 46 47 39 41 37 38 40 37 40 37 40 37 39 42 37 37 41 38 37 37 32 28 33 37 37 37 36 40 37 39 36 33 31 29 33 35 32 34 31 29 31 35 35 32 34 33 33 31 29 31 33 33 30 31 29 26 26 22 23 16 17 
50 48 51 49 49 50 49 47 47 46 48 47 43 43 44 44 44 47 48 48 45 45 37 37 38 40 38 38 40 40 40 38 36 35 34 37 33 35 36 31 30 35 41 40 43 43 42 40 40 38 40 35 29 32 38 39 35 33 26 30 34 35 33 32 32 30 29 29 28 29 28 31 26 25 27 28 24 21 19 14 
49 46 45 50 46 46 45 47 44 49 47 43 42 45 42 42 44 45 46 38 44 39 37 38 37 40 36 39 41 36 34 32 37 36 36 35 35 35 33 28 35 79 119 125 125 121 123 115 104 95 84 73 55 40 37 35 30 31 25 32 29 29 29 27 29 26 28 28 28 23 26 25 22 24 20 21 19 19 18 16 
48 45 45 43 47 43 48 46 48 46 43 41 45 43 42 44 45 42 41 39 44 39 38 35 33 41 37 38 37 34 35 32 31 34 35 33 28 32 36 31 35 124 174 177 171 167 167 167 164 161 161 158 146 73 40 37 35 33 29 31 31 28 27 26 25 23 27 24 23 20 18 20 19 17 17 18 17 17 16 14 
49 44 47 45 46 45 49 44 44 45 35 44 41 43 43 42 43 44 43 29 43 35 32 36 36 34 35 34 38 34 35 34 36 34 31 31 33 32 32 34 37 133 191 197 193 190 189 188 187 186 190 184 171 88 52 41 39 35 35 35 36 28 28 30 27 26 28 23 25 25 22 21 19 20 17 16 17 18 17 12 
46 52 43 47 52 44 48 44 47 46 43 44 42 42 42 40 43 42 40 39 40 34 33 30 31 32 34 29 36 33 34 39 32 30 31 31 30 29 30 35 38 145 211 217 217 213 217 216 209 207 210 209 196 170 126 81 42 38 38 37 37 25 28 30 25 24 23 26 28 24 22 17 16 18 20 20 21 17 16 16 
46 48 46 48 49 46 45 46 43 43 46 43 42 40 41 40 43 43 45 38 42 36 30 31 28 33 36 35 37 36 35 34 34 32 29 32 30 29 35 33 39 147 218 226 223 225 224 224 223 224 224 222 192 86 58 92 63 38 36 36 33 28 27 28 26 28 26 26 21 23 18 19 20 21 21 19 18 18 15 17 
44 47 44 50 46 45 48 44 43 46 42 42 39 40 42 44 42 40 34 40 43 35 33 31 31 34 35 34 35 35 31 34 36 31 34 28 31 31 30 34 38 137 221 240 232 231 229 221 227 230 230 222 181 57 43 64 77 40 36 32 35 31 27 29 26 24 24 25 25 26 24 20 24 20 22 20 16 16 15 16 
48 45 43 51 45 48 49 45 42 43 43 44 38 41 41 42 36 36 40 42 39 34 33 32 33 35 34 35 31 35 31 37 34 32 33 31 28 34 31 30 35 135 219 235 234 231 234 229 228 232 235 223 159 50 37 57 73 37 36 38 32 30 28 28 26 25 23 26 24 25 22 19 18 19 16 18 18 16 16 13 
48 52 46 47 50 45 48 43 45 45 40 39 41 44 41 39 40 41 44 38 37 34 35 31 32 30 32 34 35 34 31 34 34 30 32 31 30 33 30 30 35 123 222 235 234 235 237 240 235 234 232 215 132 44 36 57 62 33 34 36 35 28 27 26 20 22 24 22 22 19 18 19 13 15 13 13 14 15 13 11 
51 47 46 49 47 44 44 46 46 44 43 43 41 40 42 41 41 40 39 34 42 37 33 31 35 34 33 31 31 34 31 31 31 30 31 32 30 32 31 28 35 97 211 232 228 232 239 236 241 231 232 210 99 41 43 70 49 32 32 33 33 27 28 25 23 20 21 24 21 21 19 16 15 14 12 14 11 11 13 13 
49 50 48 44 51 47 46 49 46 41 45 44 42 40 40 40 42 38 40 37 37 35 33 34 30 36 34 32 34 36 32 34 33 30 33 33 30 29 24 26 34 76 203 224 221 224 234 239 235 227 225 200 73 42 71 72 37 29 29 31 30 28 26 23 22 23 19 18 17 19 20 16 17 17 13 14 11 13 13 14 
50 49 47 49 53 47 46 48 52 43 47 42 43 40 42 39 41 40 38 38 43 34 32 32 31 33 35 33 35 33 35 33 32 32 31 30 30 27 26 25 29 56 192 224 219 220 228 231 229 233 228 191 94 96 86 43 29 27 28 30 27 26 21 26 20 18 19 19 17 16 22 17 15 15 10 10 13 10 16 14 
51 49 48 51 49 46 47 46 48 49 43 44 40 46 41 37 40 39 38 40 37 36 35 38 33 32 35 34 33 37 33 31 32 32 28 30 28 26 29 23 27 41 165 224 221 220 227 225 226 222 214 176 134 83 42 26 25 27 32 28 29 23 21 22 20 17 15 18 17 18 15 15 17 14 10 12 10 12 11 9 
54 51 59 58 59 56 64 60 54 53 49 47 47 44 44 42 43 41 37 40 40 35 33 30 34 34 36 32 31 29 32 33 29 35 28 30 29 29 27 21 27 34 126 218 225 216 220 219 222 217 189 79 41 33 25 22 22 23 30 31 30 24 20 25 19 16 17 15 16 13 17 12 14 13 9 11 9 12 5 8 
49 55 57 63 67 73 68 68 63 65 59 57 52 49 47 53 48 48 44 42 46 40 34 38 39 44 49 49 47 45 44 47 45 45 43 43 40 40 39 41 42 42 91 202 214 205 213 216 219 207 148 50 32 31 30 25 25 28 31 33 31 24 21 26 21 21 17 14 16 14 10 14 9 11 10 11 5 8 9 10 
52 49 51 52 57 60 55 55 52 55 55 54 52 53 49 50 47 54 50 46 46 37 34 31 32 46 53 56 59 63 69 68 72 71 77 75 81 88 85 90 92 88 105 158 188 190 199 197 196 173 100 56 50 47 46 40 40 35 40 41 40 35 29 32 30 23 17 15 14 15 14 10 11 9 9 10 8 9 5 5 
49 48 55 53 58 51 46 52 52 53 47 53 50 51 52 54 54 50 51 52 48 50 59 47 51 51 52 55 58 56 55 64 62 63 64 63 66 73 75 76 76 78 98 119 119 127 125 130 122 112 79 56 50 51 54 46 48 44 43 47 42 37 34 35 30 27 25 14 16 12 10 13 9 8 10 6 7 9 6 5 
50 51 46 52 56 47 49 51 50 46 49 49 51 52 54 47 57 49 57 51 48 49 53 53 55 55 55 59 56 56 56 55 59 58 58 62 61 61 61 63 65 65 91 102 99 90 97 94 97 92 77 57 53 56 56 50 48 48 47 50 46 42 42 42 37 39 33 34 33 18 19 12 13 11 5 6 6 9 8 5 
48 47 46 45 50 49 54 50 50 49 48 54 47 47 53 46 52 52 51 46 49 49 54 53 57 56 56 57 57 59 54 55 58 57 59 61 60 58 59 58 64 64 68 70 71 67 72 69 70 68 64 62 62 63 59 54 56 53 50 49 48 44 44 40 41 39 34 34 32 33 22 16 11 11 9 8 5 5 4 4 
48 50 45 45 47 48 49 48 48 52 48 52 51 48 49 47 52 44 50 48 46 43 52 50 49 54 52 57 56 56 55 55 56 58 57 56 58 58 56 58 62 60 68 65 61 58 59 57 60 59 61 59 62 59 60 52 54 52 51 49 49 43 41 41 38 36 36 36 38 34 33 27 25 20 17 8 8 9 9 8 
49 47 46 47 45 45 50 51 48 49 53 47 47 51 46 49 46 47 49 50 47 45 47 49 52 51 56 55 54 57 58 55 57 57 57 53 59 53 55 55 58 56 58 55 52 52 56 56 54 55 58 58 56 58 57 53 54 51 48 52 46 42 40 38 37 37 36 35 34 37 35 34 33 31 26 17 10 9 9 12 
49 45 44 45 47 44 47 44 45 50 47 47 52 50 51 50 47 50 47 42 48 43 50 52 55 54 59 55 54 54 57 56 55 55 51 54 53 53 55 54 58 54 60 52 55 55 55 53 56 51 53 53 55 58 58 55 52 51 46 51 45 43 44 39 41 40 37 37 40 37 41 38 35 36 29 25 27 18 18 20 
49 45 45 45 43 49 47 48 47 51 46 49 46 48 48 49 50 48 50 44 47 46 50 51 54 53 55 55 56 55 57 50 54 54 53 56 51 54 51 56 48 55 55 55 55 52 57 74 57 50 54 53 52 54 58 54 51 52 48 52 46 44 40 43 42 38 39 33 41 38 38 36 35 36 34 32 35 32 27 23 
48 44 46 43 49 45 50 48 48 47 45 47 42 43 47 44 48 50 39 43 44 43 48 51 50 54 47 52 53 49 54 52 54 50 56 53 49 54 52 50 53 51 55 55 54 50 49 53 53 53 53 52 53 55 55 52 50 52 47 50 48 42 42 42 39 38 36 36 39 41 39 34 39 34 30 37 32 39 33 31 
47 45 45 45 53 47 49 48 49 48 50 41 45 45 49 46 47 48 47 46 45 45 47 50 54 58 51 54 51 49 49 52 51 48 52 52 51 50 55 51 50 54 53 52 51 48 49 49 50 51 49 52 51 52 52 49 47 47 45 51 45 44 43 42 36 35 37 35 38 37 36 36 35 36 35 34 32 35 33 32 


