P2
80 60
246
54 54 54 53 50 53 54 56 56 49 52 56 56 51 55 53 52 50 50 50 53 52 53 57 56 55 55 59 58 53 57 51 51 55 52 54 53 48 48 53 54 53 51 48 50 45 45 43 48 47 47 48 52 46 47 43 44 44 40 39 38 38 36 41 38 39 41 37 34 37 37 31 30 24 27 27 26 22 18 0 
56 53 52 55 51 54 55 49 56 49 54 55 55 54 55 53 52 52 49 50 52 50 51 56 57 58 58 59 60 57 61 54 53 54 54 55 53 52 54 53 54 50 57 54 51 48 49 45 45 46 52 49 50 48 48 48 43 46 43 46 45 41 41 41 45 43 42 39 37 43 39 36 34 28 29 30 24 27 24 7 
52 54 56 58 55 55 53 55 53 53 55 52 50 53 54 52 49 52 54 51 52 53 63 66 66 58 55 57 60 56 52 54 54 55 48 54 54 52 53 54 53 56 52 54 46 49 47 47 50 46 53 50 52 49 47 48 46 46 46 45 45 44 44 43 42 41 43 43 40 40 40 35 36 36 32 33 30 29 23 15 
54 57 58 55 56 55 55 52 47 53 50 51 55 53 52 56 52 49 53 55 51 58 62 64 63 62 62 59 60 54 52 53 52 54 48 54 54 53 52 54 55 54 53 50 51 46 47 47 47 46 51 53 52 51 47 47 47 45 48 46 43 42 42 44 47 44 45 43 41 41 46 42 39 39 37 39 35 35 25 22 
49 50 55 56 46 51 56 55 52 52 52 52 51 52 53 52 49 51 55 50 52 53 60 63 61 58 56 58 60 54 54 49 53 55 52 50 54 54 52 51 51 53 51 49 44 46 49 46 46 48 49 49 51 48 46 46 45 43 50 42 43 45 41 44 40 40 39 44 36 40 43 37 39 37 36 39 32 31 29 25 
55 50 55 51 44 53 52 51 50 52 54 53 46 52 53 49 56 54 51 49 44 53 57 60 58 56 55 58 57 53 52 49 51 46 49 47 47 52 50 51 49 51 50 48 44 43 46 43 48 46 48 47 49 50 48 44 45 43 42 46 41 41 44 46 41 39 45 43 40 37 45 37 41 38 39 38 36 33 33 25 
52 49 55 56 51 51 52 49 54 51 53 47 49 52 50 48 55 52 52 51 49 51 62 59 56 55 53 56 59 52 47 50 46 47 46 49 49 46 50 46 49 51 49 51 42 44 47 41 47 47 46 50 45 49 45 42 46 43 44 40 39 44 42 43 44 41 43 43 36 38 40 40 43 41 39 41 38 32 34 33 
52 48 50 56 46 53 52 52 48 53 49 50 47 53 52 49 51 52 50 50 55 50 57 62 55 55 54 54 54 53 51 47 46 45 46 47 48 44 42 45 49 48 50 44 42 46 46 42 42 45 48 47 45 49 43 46 40 42 48 44 43 39 40 42 44 40 41 41 37 40 42 41 40 41 38 37 36 38 31 29 
51 50 53 55 53 51 45 51 54 50 52 53 54 52 54 48 52 52 51 51 48 53 58 57 56 50 50 58 52 51 47 50 44 44 42 44 42 45 42 41 44 45 46 44 45 45 43 45 42 43 45 45 46 42 44 43 43 40 44 41 41 40 40 43 41 41 44 40 38 39 43 37 42 41 40 37 40 36 33 32 
53 48 51 55 57 52 48 52 52 51 50 49 56 46 52 50 50 49 50 51 50 53 55 56 53 49 46 52 55 46 47 46 45 43 45 44 42 40 40 41 41 45 38 41 43 43 45 43 45 44 41 43 44 44 43 43 41 41 43 42 42 40 42 41 41 42 42 44 39 39 41 37 42 38 39 37 39 35 34 32 
52 52 53 53 49 49 49 53 51 54 50 51 53 51 49 52 48 45 48 51 50 49 53 55 49 49 51 49 51 46 43 45 45 40 49 40 43 44 38 41 42 44 42 43 41 44 41 38 44 41 46 43 44 41 44 40 39 42 44 41 44 36 37 38 36 41 40 39 37 39 36 38 39 34 38 35 39 38 36 29 
55 50 55 53 49 52 54 55 52 46 50 52 49 50 48 50 50 48 47 50 49 51 53 52 49 52 47 50 51 43 43 47 45 43 42 41 42 42 41 38 41 42 43 40 43 42 42 43 45 43 41 42 44 45 46 43 42 46 47 44 38 38 40 37 39 41 41 41 38 34 38 33 38 39 35 42 40 31 32 31 
53 48 49 50 46 47 53 53 46 44 50 48 48 49 47 45 46 52 50 46 45 49 55 52 51 46 47 46 54 44 42 44 45 42 41 42 41 41 40 41 42 41 42 43 40 45 45 39 41 43 44 42 44 41 40 41 41 42 44 40 38 38 35 38 39 37 37 35 33 38 38 32 37 35 37 31 38 35 33 28 
54 48 52 52 49 48 47 51 51 51 53 51 50 51 47 51 50 48 46 46 49 50 53 50 49 43 47 45 49 45 46 41 42 45 42 43 41 44 41 41 42 44 41 39 41 43 42 40 44 40 47 44 43 43 45 44 43 40 41 41 38 36 41 38 40 38 38 37 34 35 34 34 35 34 32 34 34 30 28 29 
55 52 53 50 50 48 47 51 47 49 49 52 47 46 45 49 48 46 45 48 46 47 51 50 52 45 46 48 50 46 44 40 42 40 41 42 42 39 38 41 37 45 37 45 41 43 45 41 44 44 41 45 45 45 39 40 40 45 40 36 40 36 43 42 40 38 42 39 38 37 36 38 37 36 35 31 32 35 28 26 
50 54 51 48 50 48 50 53 50 51 52 47 46 44 48 45 49 45 46 45 48 51 50 48 48 45 45 47 51 44 43 43 37 41 41 41 44 42 49 37 41 44 39 39 40 44 43 40 42 42 42 42 42 41 40 41 39 41 41 39 42 38 42 35 39 42 42 38 35 37 34 35 37 38 39 39 34 31 31 31 
50 44 51 51 48 48 48 53 47 49 47 49 48 52 44 47 47 49 45 44 46 48 50 48 43 45 41 43 48 42 43 39 44 41 44 42 44 43 40 42 42 44 44 41 42 44 42 39 42 43 42 45 40 37 37 40 39 41 41 31 35 37 39 37 38 40 39 38 33 38 37 35 37 36 37 37 39 30 33 31 
49 48 50 49 51 47 48 48 48 45 49 48 47 44 48 47 50 43 47 46 45 52 45 48 43 42 43 43 47 43 39 40 40 41 40 43 42 39 45 37 40 45 41 38 43 40 42 39 41 38 43 44 39 40 37 41 40 38 40 40 37 37 36 41 38 37 31 37 34 35 36 33 36 36 37 34 36 33 33 30 
51 47 53 51 49 45 51 49 47 49 49 50 46 44 51 47 47 45 44 44 51 50 50 47 46 46 48 41 42 45 42 37 42 40 41 40 41 39 37 40 39 40 40 39 41 43 42 42 38 41 41 42 38 41 37 36 37 36 37 35 36 33 37 35 38 34 41 38 36 37 36 33 33 32 34 35 34 32 31 31 
53 49 50 46 47 52 54 49 47 47 47 49 45 49 48 44 45 48 46 43 51 43 52 51 43 44 45 46 44 42 41 42 43 40 39 43 42 41 42 43 37 41 34 42 39 39 44 39 41 38 39 40 38 38 43 38 34 35 38 36 32 36 36 38 40 40 43 35 36 33 36 37 37 39 35 34 33 28 30 27 
51 48 48 49 51 49 53 55 47 46 45 47 44 48 48 50 47 44 47 46 46 51 49 46 45 43 42 47 47 44 38 44 42 39 41 40 40 39 40 41 42 43 39 38 41 42 42 39 40 40 39 41 36 40 35 34 34 35 37 35 33 36 36 37 38 37 37 38 34 35 36 36 41 39 34 32 33 33 29 26 
51 48 54 44 46 48 49 48 51 53 44 50 50 46 50 46 47 46 45 44 50 48 46 51 46 44 45 46 45 44 42 39 41 42 37 43 37 37 40 41 42 39 38 37 40 42 36 36 41 38 42 39 38 36 38 37 35 36 33 35 34 35 39 41 36 37 39 38 34 35 42 32 34 37 33 33 34 32 31 29 
51 47 48 49 52 51 50 45 49 47 47 47 51 43 46 45 43 46 45 46 46 46 46 46 43 43 45 41 45 39 38 37 36 39 38 38 39 37 39 41 40 41 38 38 50 43 39 37 40 36 40 36 34 36 39 36 33 31 33 31 35 34 36 35 35 37 35 39 34 32 37 33 35 36 33 30 32 33 31 32 
50 44 51 49 46 54 46 42 46 49 50 47 47 44 48 47 45 45 43 44 44 47 42 45 44 43 42 40 44 41 38 38 36 38 38 36 40 38 38 34 38 39 37 37 42 40 39 33 36 38 35 35 37 35 37 35 33 31 29 30 34 36 34 33 35 31 35 37 35 31 34 30 30 29 34 32 32 29 28 30 
52 51 51 48 47 48 45 45 47 47 48 45 49 43 49 44 46 43 43 43 45 46 46 43 40 39 42 45 42 39 37 39 36 38 39 36 38 38 34 33 33 38 36 35 37 36 37 37 38 35 36 36 38 34 36 36 35 32 27 31 31 31 33 32 31 32 33 32 34 35 32 31 29 36 29 33 32 29 28 29 
51 47 48 46 45 48 44 47 45 43 47 45 45 48 49 43 43 46 43 41 43 49 42 45 42 42 41 41 45 39 37 38 35 36 35 37 35 35 36 32 36 37 36 37 38 34 38 37 38 35 35 38 34 33 31 32 28 30 27 34 33 31 32 32 34 32 35 38 32 33 34 29 33 33 29 27 31 26 25 26 
51 48 52 52 49 48 48 49 49 53 48 47 44 44 45 46 40 42 43 43 43 44 48 38 46 40 36 43 39 38 34 35 34 37 35 38 39 35 35 34 30 37 35 35 38 37 36 35 34 35 37 37 34 31 32 32 30 34 29 29 33 31 34 34 31 32 33 34 33 30 31 28 30 33 32 29 27 30 22 23 
50 50 48 52 48 44 46 49 48 48 45 46 48 46 47 44 46 42 43 43 45 46 43 42 43 43 39 42 44 36 38 39 33 33 36 36 35 36 36 33 35 35 30 35 37 36 35 36 36 35 35 34 33 34 30 33 29 30 25 29 32 31 33 33 34 34 35 33 26 29 30 29 29 34 29 30 31 28 27 23 
51 50 51 46 49 48 45 47 45 45 42 47 45 41 43 43 44 43 42 43 46 45 41 42 40 40 38 37 41 38 38 38 35 38 33 35 36 34 36 33 30 30 32 33 35 35 33 34 34 36 33 34 33 31 34 31 28 28 26 29 29 31 32 29 36 32 37 35 31 31 30 30 33 30 28 30 30 25 21 20 
50 46 47 50 46 46 45 49 44 45 45 47 44 42 45 47 44 43 44 44 44 42 41 44 42 38 38 39 42 37 40 36 37 34 38 36 38 37 35 32 30 33 34 35 39 34 36 35 35 32 38 34 30 35 30 29 30 26 28 29 31 30 30 33 36 34 26 34 28 27 28 32 30 30 31 28 27 28 21 21 
53 45 48 45 45 46 45 46 49 43 44 42 45 41 44 45 45 42 42 42 41 43 40 42 42 38 40 39 41 39 36 38 35 35 32 32 36 33 31 32 32 31 32 34 35 42 37 37 33 35 34 34 31 31 29 30 29 28 26 30 29 32 33 31 33 29 33 32 30 30 29 27 30 27 32 27 30 24 23 19 
53 49 50 53 49 48 45 46 44 44 42 46 46 45 44 44 41 43 41 43 46 40 43 38 39 37 37 41 41 38 38 36 37 38 32 34 35 36 33 30 31 31 32 32 35 33 33 33 35 33 34 31 28 31 29 28 25 27 27 28 30 28 33 32 31 30 28 31 27 30 27 25 27 28 27 26 25 23 21 18 
51 46 48 47 44 48 44 44 43 41 42 45 47 47 44 43 40 41 39 42 42 41 41 40 36 36 34 38 41 38 40 36 35 32 31 34 34 32 33 31 31 33 31 31 34 34 37 33 31 32 32 35 27 32 29 29 28 26 26 25 30 28 32 33 31 25 32 29 29 26 29 30 29 26 30 27 26 20 21 16 
51 47 46 47 39 44 44 48 46 40 49 44 44 43 43 39 41 42 42 44 42 39 36 35 38 39 35 36 39 35 38 35 35 37 34 34 34 32 32 31 29 28 32 32 34 34 35 33 31 31 34 33 27 29 28 30 23 24 23 28 27 29 32 31 29 28 29 26 28 28 28 28 29 28 26 29 26 23 19 17 
52 46 49 53 42 41 46 43 45 43 38 43 43 42 42 36 40 40 39 40 43 38 36 33 36 34 35 41 41 39 38 36 37 35 31 34 38 35 31 29 26 32 32 29 30 36 33 33 34 34 31 31 23 28 28 31 27 26 24 25 30 26 28 30 30 28 28 29 25 28 26 26 28 29 24 27 22 23 15 15 
51 46 49 46 41 46 49 44 48 46 46 42 42 40 42 42 40 42 45 42 45 39 33 38 38 41 35 43 63 66 68 61 58 56 52 51 45 43 38 32 28 31 31 31 32 35 32 34 33 33 33 32 29 28 26 32 25 25 25 22 25 28 29 30 29 27 25 25 25 24 24 24 24 26 26 25 19 22 18 16 
48 46 48 43 45 44 45 43 41 44 45 42 42 42 37 43 43 40 40 36 41 36 34 36 35 37 37 76 158 161 161 161 164 160 158 159 153 142 123 85 41 33 33 34 33 32 33 32 34 29 29 27 28 29 26 30 23 25 20 23 24 25 27 25 25 24 25 28 20 21 23 21 21 23 19 19 14 15 19 14 
48 45 47 41 42 40 44 47 45 39 40 39 41 39 39 42 41 37 37 36 39 35 33 32 32 37 41 81 178 182 182 179 179 182 180 171 172 172 165 130 39 38 34 34 30 30 31 33 29 27 26 32 26 29 27 28 25 27 22 27 23 22 22 21 24 20 20 21 20 21 18 16 17 16 15 16 17 17 16 14 
49 47 44 45 40 42 43 41 43 39 34 41 37 40 38 38 39 39 35 31 38 33 30 33 37 34 41 91 194 205 205 200 201 203 196 193 200 194 187 168 97 65 36 31 30 30 30 30 29 28 30 26 25 32 26 29 29 28 27 30 29 23 27 26 24 22 23 22 23 22 19 17 18 18 17 13 17 17 16 11 
49 45 43 43 45 44 44 42 43 39 37 40 40 39 37 37 40 37 37 37 37 28 33 28 32 35 38 87 205 218 221 224 219 223 215 213 218 212 205 197 135 108 88 42 32 29 33 30 25 25 30 28 22 24 25 26 28 31 33 29 27 23 25 26 21 24 20 21 22 20 19 16 16 19 20 18 15 18 14 10 
47 45 45 44 43 44 44 43 37 38 42 41 41 39 39 36 39 41 40 34 40 34 30 28 29 32 43 94 213 230 228 226 225 226 222 227 226 220 212 140 43 40 74 57 32 30 28 29 28 27 32 32 23 30 23 34 28 31 33 30 27 21 26 24 26 24 24 25 26 19 17 15 19 15 17 18 14 16 15 14 
49 47 46 45 44 42 48 40 42 43 40 41 38 37 38 39 38 35 31 37 39 34 33 28 32 37 40 85 216 236 231 229 230 237 229 228 227 223 208 115 37 32 48 66 33 28 32 27 26 29 28 25 19 25 27 28 28 27 28 28 31 26 26 24 23 21 22 26 22 23 21 17 16 17 20 17 16 16 15 12 
51 44 46 46 44 40 43 44 42 41 45 45 40 39 38 39 35 36 36 40 37 35 30 32 32 37 42 77 208 236 236 238 239 235 235 235 230 225 206 91 34 32 43 59 33 30 33 28 26 27 28 28 23 26 23 29 24 29 31 28 28 24 24 23 24 22 20 26 24 23 18 18 17 16 15 15 18 18 15 17 
51 48 44 46 42 43 45 39 46 40 41 38 39 42 38 35 37 38 37 39 36 32 35 30 30 30 39 62 201 233 239 242 246 242 238 238 235 223 196 68 29 30 51 56 31 31 29 30 24 24 26 23 21 27 24 24 25 25 27 27 26 25 21 22 23 23 21 21 21 17 18 15 18 13 13 13 12 19 15 11 
54 47 48 48 41 45 44 43 44 43 40 38 41 40 40 38 38 39 38 32 40 31 32 33 36 32 35 54 177 222 231 237 245 245 236 232 231 220 181 50 29 35 67 42 29 28 25 25 23 23 27 22 21 24 25 25 23 26 26 26 30 25 20 17 20 23 20 24 18 17 17 16 13 14 12 13 8 10 13 15 
53 47 46 42 45 46 43 45 42 38 42 43 40 39 37 38 39 36 37 38 37 30 32 30 31 32 34 50 154 220 226 237 241 238 233 234 226 215 145 38 44 70 66 30 27 28 25 24 25 23 24 19 21 18 19 21 21 20 23 27 21 23 20 18 18 18 18 16 13 15 18 14 13 11 9 12 11 16 13 12 
51 46 48 45 46 49 44 43 47 39 46 39 43 41 41 38 38 36 35 37 38 33 30 30 30 30 32 43 123 211 223 228 233 233 231 238 231 213 166 95 103 82 35 30 26 26 24 24 26 24 24 22 19 19 19 17 14 20 24 26 19 22 19 19 18 19 17 14 20 16 18 14 12 13 9 10 13 16 13 17 
53 52 49 47 45 43 44 43 46 44 40 42 38 42 37 38 36 37 36 40 36 35 32 36 33 32 34 45 86 204 218 224 231 231 230 227 223 198 150 101 56 32 27 23 24 28 24 23 26 21 24 20 19 24 17 17 18 17 23 20 24 19 15 15 16 15 13 17 12 15 13 10 15 10 12 9 14 14 11 5 
55 50 55 58 57 57 61 59 54 47 49 45 41 43 43 40 40 35 36 39 40 30 35 28 32 34 36 41 57 172 216 222 224 229 226 225 222 147 45 30 28 29 26 24 27 23 25 23 25 23 24 21 21 22 18 14 15 19 22 24 20 18 19 17 14 15 11 15 12 9 13 10 9 11 10 10 10 10 9 7 
54 50 57 65 68 73 70 67 62 64 62 53 51 49 50 47 46 44 40 41 43 37 36 41 41 44 50 57 65 138 200 209 215 219 219 217 208 92 42 37 36 33 36 30 29 30 28 24 28 26 25 24 24 22 22 16 16 25 23 27 24 21 16 19 19 15 14 13 12 9 8 11 11 11 12 9 12 9 3 5 
54 45 52 50 51 53 54 51 55 54 51 55 50 50 49 47 44 52 50 47 44 35 36 33 35 47 56 63 76 102 152 172 191 196 200 187 162 97 79 84 83 77 72 57 57 50 50 47 41 39 34 40 38 40 36 31 33 30 37 33 30 28 24 28 25 17 14 14 10 13 11 7 10 9 5 7 7 11 8 3 
50 50 53 42 51 48 45 50 52 49 47 52 47 51 54 51 50 47 47 48 46 49 51 49 51 50 50 60 67 96 107 117 117 116 118 120 115 85 72 71 68 68 67 58 55 56 51 55 48 46 48 46 46 41 46 38 38 38 39 41 35 30 31 31 27 23 24 13 9 11 10 8 7 6 10 9 6 9 7 7 
54 50 50 50 52 50 49 48 44 47 50 49 46 49 51 47 52 49 58 49 47 47 50 53 55 57 56 59 72 88 96 94 99 96 98 100 102 79 58 58 59 61 57 56 56 52 49 48 49 48 49 51 47 51 48 45 43 41 42 42 37 35 35 37 30 33 33 34 30 12 14 9 10 12 5 6 7 9 4 8 
59 45 49 45 47 46 51 47 50 48 48 56 49 48 47 47 50 50 51 46 48 50 53 53 57 56 61 65 68 69 68 68 69 68 69 67 66 65 58 61 66 64 54 56 59 52 52 52 49 48 50 49 51 54 43 44 44 43 42 42 35 35 35 34 36 32 32 32 28 29 19 13 12 7 8 7 6 6 4 5 
58 49 42 44 42 45 45 45 45 48 49 48 52 47 48 46 49 46 49 51 45 45 51 53 54 54 56 61 66 62 62 61 64 61 61 58 59 58 52 57 59 60 57 51 52 48 49 47 45 47 50 49 50 50 46 43 40 42 44 42 40 36 32 35 33 32 33 31 31 32 32 26 21 15 13 8 9 7 7 8 
52 46 48 46 40 40 48 45 45 46 48 44 49 52 42 49 45 47 48 47 46 46 49 49 53 53 55 59 59 59 60 56 56 59 59 56 60 54 55 53 53 55 51 49 47 46 50 49 41 45 47 48 50 51 50 43 44 43 39 44 40 33 35 33 31 31 33 31 31 34 34 30 34 28 25 14 12 12 12 13 
50 46 43 44 42 42 48 40 43 47 46 45 48 49 46 50 42 43 49 39 46 43 51 54 55 54 56 56 63 55 56 55 56 55 51 50 52 52 51 53 51 55 52 47 51 47 48 50 49 49 46 49 49 51 49 45 44 42 45 45 35 36 36 36 33 35 35 40 36 36 37 34 35 34 32 28 26 17 16 17 
47 42 43 41 38 45 47 46 44 49 50 42 47 49 46 46 49 46 50 44 44 44 47 50 53 55 54 59 62 54 56 51 52 53 51 52 52 50 48 52 45 56 50 49 50 46 51 66 50 49 49 52 50 54 51 50 44 45 42 43 41 39 35 39 36 34 37 36 35 36 38 32 35 33 35 34 36 35 30 20 
48 43 46 46 41 43 46 45 46 45 44 47 43 45 45 44 43 46 41 43 43 41 44 51 48 51 46 56 58 49 51 48 51 48 50 48 50 53 50 48 51 51 51 49 48 46 47 50 49 47 49 48 51 50 48 49 46 47 40 43 39 38 36 39 36 31 34 33 36 39 36 34 37 34 32 34 30 37 34 26 
47 43 46 46 47 45 51 44 47 47 48 40 46 43 46 44 43 45 47 46 43 43 46 49 54 55 48 57 57 51 49 50 50 48 47 49 49 47 48 46 49 53 49 47 46 46 47 48 49 47 48 49 51 48 48 43 43 40 45 43 38 38 39 41 36 36 34 38 35 36 36 35 37 32 34 35 35 36 35 32 


