P2
80 60
259
62 67 63 64 64 60 62 63 64 67 63 62 64 60 63 63 63 56 61 59 61 65 57 60 60 61 65 63 61 65 66 66 65 63 63 66 65 60 66 63 64 63 60 58 59 56 51 53 53 56 58 58 58 54 56 53 53 48 55 50 45 47 45 45 45 48 49 46 44 43 41 39 33 35 33 33 33 30 23 0 
62 63 65 63 62 62 61 63 66 62 63 59 59 62 64 60 56 59 62 65 64 59 59 62 61 65 64 63 58 65 71 66 66 65 61 65 65 63 68 66 66 62 66 64 58 57 56 54 52 54 63 58 56 56 54 56 53 50 50 50 50 50 48 50 52 48 49 44 45 44 45 45 41 39 36 38 31 30 26 16 
62 64 64 66 65 64 62 65 64 63 62 59 59 64 65 58 58 65 65 63 61 64 65 70 69 63 62 62 61 65 63 64 71 67 64 67 67 66 64 66 64 63 61 63 55 57 57 58 54 56 59 60 58 54 57 56 54 51 53 52 51 51 55 49 50 49 53 50 43 47 50 47 42 43 42 43 40 37 33 13 
60 61 64 64 68 61 63 65 57 65 60 59 63 63 63 63 60 60 64 63 62 65 65 69 69 67 68 61 62 61 62 67 65 61 64 67 68 66 61 66 64 64 63 62 56 58 54 57 53 56 60 59 58 53 51 58 57 52 52 53 51 51 51 53 51 55 52 51 48 48 49 49 49 45 44 43 40 40 29 27 
59 60 62 67 59 63 62 62 62 60 61 62 58 61 64 62 56 60 66 61 58 64 66 71 68 64 65 64 63 61 61 60 62 65 61 64 63 66 65 62 62 64 58 62 53 51 54 54 56 57 57 56 57 55 52 53 53 52 56 49 50 50 48 51 50 49 53 51 48 48 48 48 48 46 45 48 44 38 34 28 
60 66 62 63 58 63 58 59 57 61 64 61 57 59 62 63 61 59 62 58 57 62 66 66 64 62 63 63 60 63 61 61 63 59 60 60 61 63 62 62 63 60 60 58 55 53 51 52 54 54 57 56 54 53 54 50 52 49 52 53 49 50 48 51 47 49 52 50 48 47 49 47 48 48 47 47 45 40 41 30 
61 64 66 63 61 63 58 60 61 63 63 57 59 62 59 60 61 59 67 64 59 63 69 65 63 61 60 58 60 57 59 60 59 58 58 60 61 59 61 61 61 65 58 62 54 54 56 52 55 54 55 61 55 55 51 51 54 47 56 52 47 50 52 50 50 50 48 49 48 45 47 51 51 47 44 49 46 40 42 35 
59 61 58 61 56 65 62 59 60 60 63 60 59 64 55 57 60 62 61 58 63 61 65 65 60 62 63 60 55 59 58 61 63 55 55 58 61 53 56 59 60 59 58 55 50 54 54 50 52 55 57 56 53 55 52 54 51 54 50 52 48 48 48 50 49 47 51 47 46 51 46 49 49 47 45 48 46 45 36 40 
60 64 62 67 65 61 60 59 61 61 65 62 62 62 63 63 64 61 60 59 58 65 63 64 61 56 59 59 56 58 58 61 59 53 55 59 51 55 54 53 55 53 53 54 56 53 51 51 49 55 53 56 54 51 52 51 55 49 50 48 52 49 49 52 48 53 47 49 49 49 48 48 49 49 46 46 49 44 40 41 
62 62 58 66 67 63 60 61 62 61 60 59 66 57 65 60 60 62 60 59 58 66 63 63 58 60 58 57 57 56 57 58 60 53 55 57 55 55 55 53 56 52 51 56 55 55 52 53 53 52 53 53 52 53 50 52 54 50 51 51 46 49 52 52 45 50 49 50 46 48 46 44 48 44 44 46 43 42 43 42 
63 63 63 62 61 62 55 64 58 64 64 60 63 62 60 64 59 59 59 61 60 62 61 61 56 58 59 55 51 54 52 58 59 53 58 56 54 55 53 51 52 53 54 54 51 54 52 48 54 51 54 56 55 51 50 50 55 52 50 51 47 48 47 51 46 46 53 45 46 48 44 47 49 40 46 46 47 43 40 37 
65 58 62 60 61 62 58 65 62 59 62 54 61 61 57 57 59 60 59 61 58 63 60 60 57 54 57 53 52 51 54 57 57 53 54 55 55 53 54 52 51 53 49 50 51 50 52 53 51 51 56 55 52 56 54 48 50 54 52 53 46 45 50 48 46 49 49 48 46 48 49 47 47 45 42 47 46 41 38 40 
62 61 59 61 62 56 62 64 59 56 63 57 59 59 58 57 55 62 60 55 59 58 63 62 54 55 56 47 53 54 53 56 58 56 52 56 50 55 53 53 53 50 51 52 54 52 55 51 51 52 54 51 54 51 49 49 52 50 52 50 46 48 45 47 46 44 45 44 42 42 49 43 45 44 42 45 42 39 37 36 
60 66 57 63 61 58 60 60 59 64 66 61 57 59 57 60 55 60 58 57 58 60 59 58 58 51 56 53 51 52 55 53 57 54 54 57 53 57 52 53 54 54 54 53 52 54 52 49 51 54 56 53 52 50 48 51 52 50 48 49 46 44 48 46 47 45 45 44 41 42 43 44 40 39 42 42 38 40 40 32 
61 65 61 58 60 60 60 60 59 60 57 60 60 59 57 57 59 58 57 60 59 58 59 57 57 51 53 52 50 53 51 53 53 49 51 52 52 52 52 53 51 51 50 51 52 54 50 51 55 53 56 53 50 51 47 45 51 53 50 48 47 45 48 47 45 45 49 47 48 40 38 43 43 45 41 42 40 39 37 37 
53 62 58 57 63 58 60 60 59 62 60 59 58 56 56 56 59 58 57 56 56 61 58 56 53 49 50 52 50 51 51 53 51 50 54 56 54 54 55 49 53 50 48 51 50 53 52 50 50 56 56 53 50 47 48 47 47 47 48 48 45 44 50 44 44 49 47 45 44 44 44 40 46 47 46 44 42 37 36 33 
60 60 60 64 61 60 60 63 59 62 61 60 58 61 54 55 56 61 60 53 57 61 56 53 53 48 49 49 49 48 55 52 57 51 52 56 52 54 50 50 51 53 49 49 51 51 53 47 52 53 51 56 51 48 47 49 51 47 47 46 45 43 49 47 43 48 47 47 40 48 42 41 41 43 43 44 46 35 38 37 
59 64 63 63 65 59 59 59 60 59 62 60 58 57 57 57 60 57 57 54 54 62 53 55 51 48 52 47 47 51 48 54 50 51 54 55 55 52 55 48 53 49 49 52 53 48 52 47 52 50 56 52 49 46 46 47 47 49 47 47 45 45 47 48 44 45 55 46 45 44 46 43 45 44 45 44 43 39 36 35 
60 60 61 62 61 58 61 61 58 61 63 57 56 58 60 57 55 59 58 52 59 60 56 53 52 49 48 47 45 53 51 50 54 52 54 52 52 52 53 51 53 48 48 50 52 54 49 49 49 49 53 52 47 47 46 42 48 46 47 46 42 44 46 44 46 44 47 48 45 41 43 45 45 43 45 44 40 39 37 35 
59 61 57 58 58 64 61 58 59 60 58 60 56 58 54 57 55 57 58 56 58 56 54 54 52 51 49 50 47 48 53 51 56 49 49 55 52 52 53 51 49 51 48 49 49 49 51 47 46 49 49 47 47 47 50 46 48 44 44 43 41 44 44 45 45 48 50 42 44 46 43 45 42 48 42 42 40 40 37 28 
57 58 59 58 63 59 60 58 60 59 61 57 58 56 55 57 55 54 57 57 58 58 55 50 52 47 51 50 47 53 50 55 55 49 52 50 48 51 50 51 52 50 48 49 50 49 50 48 47 51 50 48 48 46 44 41 43 45 41 42 41 43 46 42 43 44 44 43 42 42 42 43 47 45 45 43 42 41 35 30 
58 59 59 56 56 60 54 58 63 62 59 62 60 56 56 56 53 57 59 58 60 58 55 57 49 48 51 50 46 51 47 51 53 52 50 56 48 50 55 53 52 50 48 48 47 49 46 46 50 47 54 49 47 41 44 43 46 42 39 41 43 40 45 44 44 42 45 45 40 38 43 44 42 44 40 42 41 39 37 34 
60 59 58 60 64 63 58 58 59 58 60 57 61 56 55 55 58 57 61 57 55 59 53 54 49 51 52 46 45 44 47 51 47 48 50 52 49 51 51 54 51 49 44 50 45 48 47 44 46 49 50 45 44 43 43 42 43 41 39 42 38 44 44 44 43 43 43 45 41 39 44 42 43 41 40 41 41 38 35 36 
58 58 63 60 59 63 57 59 54 60 61 57 59 56 62 57 52 58 57 58 55 62 50 51 50 48 47 43 48 49 50 51 48 46 52 49 49 47 52 48 50 49 50 44 45 47 45 42 44 47 43 45 44 43 45 40 43 36 37 40 38 40 44 40 43 39 46 40 40 40 42 41 39 37 42 42 43 36 30 31 
59 61 59 60 59 58 58 58 58 59 59 57 57 59 63 57 55 54 55 54 58 57 54 51 45 44 50 47 47 48 47 47 47 49 51 47 46 49 46 46 44 46 48 48 49 45 45 47 47 45 46 47 44 43 46 43 39 40 39 40 35 39 41 42 37 39 39 38 39 39 39 38 36 39 40 43 40 34 36 34 
56 57 55 59 60 62 58 56 55 56 58 57 57 59 56 54 54 60 60 52 54 59 48 53 49 45 47 45 46 47 48 50 48 48 45 48 48 46 49 45 46 45 43 47 47 44 46 45 42 45 43 48 46 42 40 38 37 41 38 42 40 40 43 40 37 38 43 43 40 42 39 40 40 42 41 38 39 35 31 32 
62 60 62 65 61 58 58 60 56 64 60 59 57 57 53 55 52 54 56 58 55 58 54 46 51 47 45 47 43 48 45 44 47 46 48 50 48 48 46 46 42 47 44 45 45 44 43 44 43 45 43 46 40 39 43 36 39 39 36 37 38 40 44 42 38 40 44 41 41 37 36 40 43 43 39 40 38 36 33 31 
60 61 58 64 59 58 59 59 56 60 56 59 58 58 57 58 56 55 55 55 54 58 51 50 46 48 45 48 47 47 46 50 48 44 45 48 47 51 48 46 46 42 43 43 46 44 47 42 45 46 47 44 42 40 37 39 39 34 36 38 40 40 41 42 41 39 42 38 41 38 39 40 43 41 38 39 35 34 33 30 
58 60 62 59 57 58 53 54 57 58 57 57 57 57 54 54 55 52 58 53 56 56 52 49 47 50 47 42 45 42 47 51 49 47 48 47 49 46 48 45 42 41 42 43 42 46 43 44 42 47 43 38 38 38 39 40 40 38 32 38 37 39 39 41 41 39 45 44 39 36 38 41 39 43 38 37 38 34 28 20 
63 61 59 61 60 58 58 60 52 59 58 55 56 53 55 56 55 54 54 55 56 55 48 50 45 43 44 42 46 41 47 47 48 44 45 48 47 48 46 46 41 42 43 44 46 41 44 43 43 44 46 44 39 43 41 34 40 34 37 37 34 40 41 39 40 40 42 42 37 36 36 38 40 44 42 37 34 33 28 26 
63 60 58 56 58 58 55 55 62 58 49 55 57 54 56 55 53 53 54 55 55 54 47 51 47 44 49 44 42 47 46 49 46 46 44 45 46 48 44 43 43 39 43 46 44 50 44 43 40 45 47 43 38 39 40 38 35 35 34 36 33 40 46 41 42 40 39 38 41 33 38 40 38 39 39 40 35 32 28 26 
58 61 60 61 64 60 54 57 55 56 56 57 55 55 56 54 51 54 53 57 57 54 47 45 46 42 47 47 41 47 48 48 50 49 45 48 48 47 46 44 40 40 41 41 45 40 46 41 41 41 42 40 36 37 37 36 37 35 34 35 34 40 42 38 39 39 39 39 37 37 36 40 36 37 35 34 36 31 28 31 
58 61 56 59 59 61 56 57 54 54 55 54 58 57 55 55 50 53 54 51 56 54 47 48 45 45 45 42 44 47 48 48 47 45 43 50 44 46 43 42 45 40 42 42 44 44 46 42 40 42 41 43 35 38 36 38 39 34 35 35 36 39 43 39 40 37 43 37 40 35 36 37 38 39 34 35 36 30 27 26 
57 59 55 58 56 56 55 58 54 53 60 56 52 56 54 53 53 52 54 56 54 54 49 46 45 46 46 44 45 44 45 46 49 44 44 44 45 45 44 44 42 39 42 42 41 41 41 43 40 41 39 40 34 38 36 37 39 35 31 36 36 39 42 40 35 34 41 36 38 37 35 36 34 35 32 35 33 30 27 23 
59 59 60 62 55 54 55 54 56 54 50 53 55 53 52 49 51 52 52 53 51 54 48 48 48 48 49 51 45 50 46 46 48 42 43 47 43 42 42 36 37 40 41 43 41 40 41 40 42 40 38 37 34 35 35 37 36 32 31 33 36 36 37 38 36 36 36 34 33 37 33 33 33 33 30 33 30 28 26 24 
61 57 61 58 52 58 58 55 59 56 57 54 51 52 52 52 54 52 58 56 59 81 97 104 108 105 100 94 92 82 78 65 59 46 43 43 39 43 40 43 37 35 38 38 42 40 41 43 37 41 39 37 33 35 34 40 38 32 30 34 35 33 38 36 35 37 36 32 32 34 30 35 31 32 31 34 29 24 21 19 
61 56 58 58 56 56 55 53 52 56 55 51 51 53 45 52 50 51 55 53 64 136 170 181 184 185 183 181 184 178 174 167 153 92 44 45 44 41 40 37 39 38 39 42 42 38 41 39 38 39 38 36 34 35 33 36 34 30 30 33 33 31 34 34 31 32 30 33 30 30 30 30 27 29 27 28 21 23 26 20 
56 57 55 54 53 53 56 54 56 55 54 48 51 52 48 55 50 48 52 53 65 150 188 200 200 202 199 204 201 197 197 191 181 99 50 46 43 40 39 39 34 39 41 41 39 39 38 37 36 39 37 38 36 35 33 36 34 33 32 35 34 29 34 29 29 28 30 27 29 30 25 28 25 25 24 24 23 25 21 25 
59 53 55 53 52 54 53 53 52 56 44 54 49 52 47 52 49 51 53 53 68 163 208 220 222 220 218 220 217 218 219 212 209 174 116 82 50 38 40 37 36 38 39 39 39 38 39 37 37 36 37 38 32 38 35 37 40 32 35 36 34 34 36 34 29 30 28 28 29 31 26 28 24 26 27 24 25 25 28 25 
55 57 54 54 60 51 53 54 50 53 53 49 51 51 46 49 49 50 52 54 65 165 218 229 233 236 236 239 231 229 228 229 217 156 94 103 83 43 38 36 36 38 39 37 41 36 36 40 34 34 40 35 31 35 32 38 38 40 32 36 34 32 31 30 32 29 31 27 29 30 28 23 23 25 25 27 28 27 23 22 
56 55 54 56 56 54 53 54 50 51 52 49 52 49 50 49 49 54 51 50 68 167 230 239 239 239 241 242 241 241 237 230 208 84 44 53 87 48 41 34 33 33 40 39 36 39 34 35 36 34 37 36 31 40 32 36 38 38 39 39 33 30 32 30 29 30 31 30 29 28 26 25 23 25 28 25 26 24 23 19 
58 58 56 60 55 55 57 52 51 55 50 49 51 48 49 48 55 47 51 53 66 163 238 238 243 244 245 245 247 245 237 230 199 62 48 47 71 55 37 36 36 31 38 38 38 37 36 34 35 34 36 37 30 35 34 37 39 42 36 37 34 36 34 31 31 31 29 31 31 29 28 29 29 24 26 26 21 24 25 20 
57 55 55 54 55 55 54 55 49 50 56 51 51 51 48 50 44 45 50 55 63 149 230 242 250 254 253 245 241 246 236 231 183 57 42 43 72 57 39 34 32 36 32 33 36 37 41 35 32 36 34 33 33 35 32 34 34 34 37 37 34 34 32 30 28 28 28 32 30 29 28 27 24 24 22 23 22 22 19 17 
55 60 55 58 59 60 51 49 53 53 51 49 51 55 51 49 50 50 51 52 58 127 223 240 249 251 256 253 249 250 240 225 156 46 43 44 77 49 38 33 30 35 34 38 38 36 35 33 31 32 33 29 29 32 29 31 33 34 36 34 34 32 32 29 25 28 28 26 27 27 24 24 24 22 22 21 21 25 23 21 
63 58 57 56 55 57 52 54 55 53 53 50 53 55 52 48 50 50 50 46 61 107 216 235 245 254 259 247 244 242 237 224 122 46 43 63 76 41 35 36 33 33 37 37 35 34 32 32 31 32 34 32 29 32 30 31 31 34 34 36 34 32 29 29 26 27 30 28 24 28 25 23 25 25 17 19 22 21 18 16 
57 62 55 52 56 58 52 57 55 56 53 51 53 53 49 49 49 49 54 51 53 81 205 228 236 251 250 247 249 250 241 224 96 51 71 92 53 38 33 31 37 32 37 38 36 35 35 33 34 32 32 29 30 25 28 29 29 30 29 33 30 31 29 24 20 23 29 21 24 24 23 23 21 18 18 22 24 20 18 18 
58 58 59 53 59 56 53 56 60 54 55 49 55 53 50 49 52 46 54 50 57 67 176 228 238 240 242 242 247 245 240 225 163 129 107 59 42 36 34 33 33 32 32 36 34 33 31 32 32 34 32 27 28 26 24 26 28 30 31 34 31 29 24 37 21 25 25 22 24 23 24 22 18 21 16 22 21 21 18 20 
60 60 57 61 58 59 55 55 59 57 56 53 49 53 47 50 46 49 51 50 53 62 141 228 235 240 240 238 239 237 227 172 119 75 50 42 37 38 35 30 30 30 30 32 30 32 32 31 33 31 33 27 27 30 26 23 24 27 31 30 29 24 26 27 23 21 21 24 20 25 19 18 23 16 19 20 23 18 17 15 
65 60 66 70 68 72 77 70 70 66 59 55 55 54 52 53 52 51 50 53 57 57 99 206 225 229 241 237 234 230 210 91 50 44 39 41 40 34 36 30 32 34 34 31 35 31 32 31 30 31 29 28 26 29 26 19 25 26 31 35 29 25 26 26 23 21 26 19 18 20 20 20 18 18 13 15 20 17 16 12 
61 65 65 73 82 89 79 81 76 78 74 63 61 57 62 64 61 64 59 62 64 65 73 171 209 217 227 227 227 218 170 65 58 53 50 47 48 45 46 42 42 39 41 38 37 36 38 30 36 35 31 32 33 31 28 24 23 29 32 35 29 25 27 26 22 22 21 18 20 19 15 18 19 13 15 18 21 13 14 12 
61 61 60 61 65 70 65 65 64 66 65 63 63 65 58 61 56 67 69 66 65 61 60 104 143 170 181 184 182 160 114 72 71 75 78 77 79 85 87 92 91 83 79 70 67 60 58 54 51 47 44 51 47 46 46 39 38 39 44 42 37 38 33 37 32 26 24 20 17 18 17 16 17 16 13 17 14 20 13 10 
59 61 64 56 62 64 54 62 60 61 59 60 58 63 64 64 63 62 61 64 60 62 78 107 112 114 113 120 120 116 106 77 67 71 66 72 73 77 77 79 78 78 78 69 65 63 61 61 57 57 56 53 55 47 52 48 49 45 46 48 42 38 40 38 34 31 33 21 17 20 17 17 12 15 14 16 18 14 13 11 
60 64 59 60 61 57 61 55 58 63 64 59 62 64 61 62 68 63 69 65 63 64 76 93 94 96 98 101 102 103 100 75 69 66 67 70 68 70 65 67 69 69 64 65 62 61 57 58 53 56 56 58 56 55 54 49 50 50 40 51 45 42 44 43 38 43 37 39 37 24 21 16 15 15 16 15 18 14 12 10 
61 57 57 55 61 60 59 56 58 63 61 63 60 62 63 59 59 65 66 62 62 70 67 72 76 77 78 78 77 79 75 74 71 67 70 69 67 66 66 65 68 65 63 61 62 59 56 59 56 57 57 57 58 60 55 51 54 48 52 49 44 43 43 42 45 41 39 39 35 37 27 20 16 13 18 19 15 13 15 11 
58 55 51 58 53 58 56 57 58 62 64 59 64 61 61 60 62 60 64 66 65 62 61 65 66 69 70 72 70 73 69 72 72 68 66 68 65 62 61 62 66 62 64 59 58 57 57 55 53 56 55 56 58 55 53 47 49 50 51 49 46 43 41 43 38 38 42 39 41 38 39 38 32 23 24 18 15 12 13 15 
56 55 56 55 53 59 56 56 57 64 63 58 60 60 59 61 59 60 63 63 62 61 54 60 65 65 64 70 66 69 72 66 69 64 66 65 64 61 63 61 64 62 60 58 54 55 53 55 52 57 55 60 58 57 54 52 56 51 48 51 46 42 41 37 38 37 44 39 39 42 41 40 40 34 29 23 17 19 22 7 
60 53 52 53 55 53 54 55 55 63 60 57 62 59 59 59 55 60 63 57 64 57 57 62 65 65 66 66 63 66 68 69 69 63 60 62 61 62 62 61 60 58 59 57 56 59 53 55 57 58 57 57 54 58 52 50 50 50 52 48 43 44 43 46 41 43 47 49 43 46 43 42 42 42 41 36 35 25 19 14 
56 54 52 54 47 58 55 56 55 57 62 54 60 60 58 58 60 61 61 59 61 60 61 61 62 62 63 64 65 63 64 59 65 63 59 61 59 59 59 62 60 64 58 58 59 56 60 74 57 56 56 58 60 59 54 55 52 52 47 50 47 45 43 44 44 41 47 41 42 45 44 40 41 41 40 41 47 40 38 19 
57 53 53 56 51 54 56 58 58 56 53 58 54 55 61 56 54 59 54 56 57 59 51 59 58 58 59 59 58 58 61 61 64 57 58 59 58 63 59 56 61 58 58 59 54 56 54 58 56 55 57 56 59 58 52 52 53 53 50 48 45 46 46 45 42 43 45 41 40 44 41 40 41 42 37 41 39 46 42 31 
53 54 54 55 56 56 57 58 64 62 62 53 57 58 60 59 54 55 61 62 56 61 50 60 63 62 62 61 57 59 59 62 63 56 58 61 59 56 61 59 59 61 60 56 55 56 55 56 56 56 55 59 54 54 56 53 55 49 50 51 45 48 47 44 47 42 46 44 46 46 43 45 45 42 43 43 41 45 45 41 


