P2
80 60
244
55 58 56 54 52 57 57 55 56 53 53 59 58 53 56 54 54 54 56 53 52 55 54 57 57 56 60 57 59 57 60 55 55 57 52 57 51 51 51 51 53 52 52 50 54 47 43 44 45 47 46 47 45 47 46 45 48 45 39 43 40 40 40 39 44 39 38 38 37 36 34 30 31 29 26 29 23 22 14 4 
59 60 60 59 56 58 56 53 63 56 57 54 55 57 56 54 59 56 58 57 56 53 55 58 58 64 63 60 59 61 64 59 58 56 57 58 53 52 55 55 54 51 58 54 53 51 50 45 44 47 51 49 48 48 48 49 44 46 44 47 46 45 44 45 47 45 41 38 41 40 35 38 33 29 30 30 28 24 21 13 
51 61 59 60 55 58 56 61 58 52 56 53 53 57 55 53 55 58 55 55 55 54 63 63 66 58 58 60 58 57 58 59 56 57 49 60 55 55 52 54 54 53 52 52 52 50 48 50 46 45 48 49 50 47 48 50 46 44 46 46 47 47 49 45 45 51 46 43 40 41 40 38 38 37 36 38 35 27 20 17 
55 58 61 57 56 55 57 56 55 54 56 53 54 53 52 56 55 56 56 55 56 59 61 64 62 62 65 59 60 57 56 56 57 55 51 57 57 53 49 55 52 50 52 50 51 48 46 46 46 44 46 51 48 50 45 47 47 47 47 45 48 47 45 46 48 49 44 42 41 41 44 41 40 38 37 34 33 31 22 24 
47 55 59 59 54 58 56 57 54 56 56 54 53 54 53 55 53 58 60 53 53 55 63 65 66 58 59 57 57 53 55 55 55 56 51 56 52 53 53 53 52 50 50 53 49 45 46 44 45 44 45 51 48 49 46 45 45 44 50 43 44 47 46 44 44 44 43 44 39 40 42 40 42 39 38 38 32 32 24 25 
53 64 60 57 49 56 52 56 54 55 57 55 51 54 54 54 54 57 55 52 48 54 58 62 59 58 61 60 58 56 52 52 54 48 51 51 47 50 52 55 49 49 51 49 50 45 48 45 45 40 46 48 46 48 49 45 47 44 44 47 44 45 45 47 44 42 43 41 41 38 42 38 41 39 38 41 39 33 28 28 
55 59 60 57 56 56 55 57 54 54 55 47 50 54 52 54 57 53 59 56 51 52 64 59 61 56 55 54 55 52 50 52 49 50 48 51 49 46 50 47 51 51 49 52 47 45 47 44 45 47 43 49 45 50 47 45 45 42 50 41 40 47 45 45 44 43 45 42 37 40 38 43 39 41 40 41 38 34 29 34 
56 56 53 56 50 58 56 59 52 51 52 54 51 56 49 52 57 55 53 52 55 53 58 59 57 56 58 56 51 53 51 49 53 47 48 51 49 43 43 47 48 47 45 45 48 48 44 43 44 42 43 46 44 49 44 42 40 44 45 45 42 44 42 44 45 42 42 39 39 43 41 39 40 41 39 41 38 35 27 31 
51 58 55 55 54 54 49 54 53 51 51 53 55 56 53 51 55 57 53 54 52 54 60 58 58 53 54 54 49 53 48 52 46 45 43 47 42 47 41 41 45 42 42 45 50 45 40 47 43 42 45 44 43 47 45 44 44 40 44 44 44 44 44 45 45 46 44 39 43 42 40 39 40 40 41 40 41 36 30 35 
53 53 54 54 60 54 51 56 58 52 50 51 56 49 52 54 51 58 55 51 53 57 59 54 56 51 51 51 52 52 48 50 48 45 46 48 41 43 40 41 42 41 39 41 48 46 43 45 45 44 47 43 43 43 45 45 41 46 40 45 44 45 47 46 44 44 42 42 40 40 39 38 41 37 40 37 39 35 29 37 
53 55 55 58 54 54 52 59 55 57 50 53 54 54 51 57 53 51 53 52 54 50 56 55 50 52 56 49 49 48 45 49 50 41 46 48 43 44 40 44 43 42 43 45 43 43 43 39 45 40 46 43 44 43 45 44 44 43 42 40 43 45 45 40 41 43 40 39 41 37 37 38 40 35 39 39 37 38 33 33 
54 54 55 53 54 55 50 58 55 50 51 49 54 51 49 51 53 54 51 52 51 55 52 54 51 53 51 52 46 47 43 50 47 45 44 46 42 42 41 42 40 42 43 41 47 43 43 44 45 43 45 41 44 45 45 44 42 43 44 46 41 40 43 41 42 40 38 40 39 33 39 34 42 36 39 38 40 34 30 36 
55 52 56 53 51 51 57 59 51 50 52 50 52 53 52 48 49 57 53 49 51 52 56 55 50 52 50 47 50 48 44 47 47 46 45 46 40 43 41 43 41 40 43 44 44 44 47 41 44 43 46 40 44 42 41 42 44 43 43 42 42 40 40 39 43 40 38 34 38 34 34 35 35 37 39 33 29 30 27 33 
52 56 56 52 54 52 48 54 51 54 53 55 51 55 52 52 49 52 50 49 51 53 55 51 54 47 48 46 47 47 48 43 45 45 44 47 44 45 40 44 42 40 42 41 45 42 42 40 44 41 44 40 42 41 46 43 44 42 39 43 41 40 42 39 44 40 41 37 36 33 32 36 34 33 35 35 33 32 29 29 
50 59 51 50 54 54 52 55 50 52 51 51 49 48 50 50 53 51 49 50 50 55 51 52 51 46 47 46 48 45 44 43 44 43 43 44 43 41 39 41 38 42 40 43 43 45 41 41 46 36 39 42 40 44 41 40 42 36 42 40 43 38 42 45 39 40 42 39 36 35 36 35 37 38 34 30 33 31 27 32 
48 53 53 50 53 51 52 54 52 54 54 48 49 47 49 49 54 52 50 50 49 54 50 50 48 47 49 49 49 45 47 48 40 46 42 45 44 42 52 39 42 41 40 41 43 45 41 40 42 40 41 42 40 42 41 43 41 41 39 39 40 39 43 37 38 38 42 33 38 39 32 33 37 37 38 38 35 32 28 30 
50 51 52 54 50 50 54 54 51 52 50 51 50 54 48 51 50 52 51 45 49 51 51 48 48 47 47 44 48 44 47 47 48 44 43 44 43 42 39 42 39 42 41 40 46 42 41 39 43 42 42 41 41 40 42 43 40 42 43 38 41 38 41 38 40 43 38 41 37 41 36 35 36 38 36 35 37 34 28 31 
53 54 54 53 56 52 53 55 51 51 53 52 51 50 49 49 52 51 50 47 46 56 47 49 46 43 47 46 46 42 43 44 43 43 42 46 43 44 46 37 41 41 42 38 46 41 43 39 39 38 43 41 38 39 38 41 42 38 40 43 39 42 39 42 39 40 30 39 35 36 36 34 39 39 37 36 35 32 29 30 
51 50 55 53 52 52 53 55 51 52 54 51 48 48 54 49 48 52 51 46 52 55 53 49 49 46 45 43 41 46 43 41 42 41 44 44 41 40 39 44 38 39 41 40 42 42 42 40 40 38 40 42 38 42 40 38 38 37 37 38 37 39 43 39 40 38 39 39 38 36 35 41 36 35 38 38 31 35 29 30 
52 53 52 49 51 57 53 50 51 47 50 51 49 53 50 50 51 54 58 48 53 48 50 51 45 49 48 45 46 44 45 43 46 43 42 48 41 42 41 42 38 39 37 42 43 41 43 39 39 39 38 37 37 38 40 39 35 39 36 34 32 39 41 39 39 39 44 37 35 34 34 38 36 37 35 35 33 30 25 30 
49 53 55 49 53 53 51 58 52 50 50 51 47 50 50 51 51 50 52 50 48 50 50 43 47 47 44 48 45 46 38 47 46 42 44 40 40 40 40 42 39 39 40 39 46 44 42 40 41 39 38 39 36 39 37 36 36 37 39 34 34 37 38 37 38 40 37 36 36 37 32 36 38 39 35 36 34 33 27 27 
48 53 58 48 47 51 52 52 54 54 48 51 55 47 51 50 49 50 50 48 49 53 49 46 47 46 48 44 45 46 44 43 44 43 43 46 37 39 38 41 40 35 37 36 42 41 35 37 39 38 41 36 37 39 38 37 37 37 33 35 35 36 40 38 38 38 37 36 35 35 44 33 36 37 34 38 36 31 26 27 
50 54 54 49 54 54 54 51 54 48 50 49 51 48 49 51 48 50 51 49 49 51 47 43 43 47 47 41 44 42 40 40 41 44 42 43 40 39 40 42 38 37 38 39 40 40 37 38 41 36 38 38 33 36 34 37 34 35 28 34 36 38 37 39 37 39 37 38 36 34 34 33 35 33 35 34 34 32 27 26 
52 52 57 54 48 53 52 49 47 50 51 51 49 47 48 51 49 53 48 47 47 50 45 45 46 48 46 39 42 43 42 44 41 40 40 44 38 37 40 40 38 41 40 37 41 42 36 36 36 35 29 32 35 35 39 34 37 29 31 33 35 38 35 34 37 37 38 36 34 34 34 31 31 31 33 33 35 30 26 24 
56 54 54 51 52 51 48 51 54 51 53 50 49 46 54 49 48 48 49 45 50 47 48 48 44 44 45 47 42 43 41 42 41 41 40 41 36 35 36 36 32 35 38 36 43 43 40 37 38 31 33 32 36 35 36 37 33 33 28 33 33 34 35 37 37 34 34 32 38 37 32 30 29 35 31 34 32 29 24 28 
51 51 52 50 51 55 51 53 52 49 48 46 47 52 48 48 49 49 48 44 46 48 42 48 45 43 44 43 42 42 41 42 38 39 37 39 37 36 35 36 35 34 35 37 41 37 39 39 35 32 34 36 34 34 32 34 31 33 30 34 33 34 34 34 36 35 34 38 32 34 33 34 33 34 29 28 29 29 27 26 
51 52 56 53 50 55 46 52 50 54 50 50 47 47 46 47 44 47 48 45 49 47 48 41 45 41 39 43 40 40 38 41 38 36 39 42 37 36 33 36 32 34 35 34 41 37 34 33 34 32 35 35 33 35 33 32 30 34 29 28 33 36 35 33 34 37 34 36 34 32 29 29 33 34 33 30 29 30 24 25 
53 53 49 53 50 52 50 54 51 51 46 50 51 50 48 49 47 46 45 46 47 49 46 45 45 44 43 44 43 42 40 42 36 37 35 42 35 40 40 35 33 31 32 35 38 37 35 38 35 34 35 32 34 36 30 33 33 29 25 29 34 33 33 36 38 35 33 34 32 28 32 29 32 34 33 31 30 28 26 27 
53 56 53 48 54 53 48 51 51 48 45 47 47 46 45 46 47 48 49 45 47 47 44 42 42 46 42 39 40 38 40 39 40 38 33 37 39 34 39 37 30 33 34 38 37 38 36 35 37 36 32 38 32 30 34 31 31 31 25 27 28 33 32 33 36 33 38 34 32 29 30 36 34 28 28 33 32 27 22 25 
53 54 52 50 49 50 50 50 47 48 48 50 49 47 46 49 46 49 47 46 46 44 41 45 39 40 40 40 39 37 41 37 38 35 39 41 37 35 34 33 29 32 35 36 40 33 36 33 37 33 35 32 29 33 36 33 31 30 28 29 32 32 33 35 37 34 28 32 32 28 28 31 33 34 33 24 28 27 18 22 
51 49 52 49 51 49 50 46 51 47 47 45 45 44 44 46 45 48 46 45 45 44 41 41 40 40 43 37 39 40 39 40 34 33 35 36 36 37 34 33 32 30 33 37 38 38 36 37 36 37 34 34 27 31 32 32 32 27 24 33 29 36 33 34 35 31 35 34 28 29 29 29 30 29 32 33 30 25 18 20 
46 50 52 53 50 50 46 51 46 45 42 46 46 46 47 46 45 43 46 45 49 44 44 37 40 37 39 43 40 37 39 37 40 39 35 39 35 35 34 30 29 29 34 33 38 38 34 34 33 31 34 31 25 30 28 31 29 27 25 28 32 33 35 34 35 29 31 29 28 32 26 28 29 28 29 29 26 26 17 19 
51 54 52 49 49 49 45 48 46 46 46 46 48 47 45 46 42 46 46 48 46 44 43 39 40 38 38 39 42 42 39 39 36 36 32 37 35 33 33 33 33 30 34 35 39 37 36 33 30 31 33 33 24 33 30 30 31 27 26 27 31 34 35 32 34 31 35 28 30 27 27 28 30 27 29 28 24 22 16 20 
48 48 48 44 44 48 49 53 48 42 51 47 43 45 44 44 47 47 44 45 45 41 39 36 37 38 40 34 35 37 38 34 37 37 32 35 35 33 36 33 30 28 34 35 39 36 36 32 33 30 32 32 29 30 31 31 26 25 25 25 32 33 34 33 34 33 31 25 28 30 27 30 29 28 26 28 25 21 19 17 
49 51 49 54 45 43 48 47 46 45 41 45 44 45 45 41 42 44 43 42 41 37 37 34 35 35 37 38 35 39 35 34 36 34 31 36 35 34 33 31 29 30 35 34 40 37 34 34 34 34 30 27 28 28 33 31 26 26 26 25 31 31 30 32 36 31 27 28 27 28 25 28 27 27 25 27 24 20 13 18 
52 49 56 46 42 50 49 47 54 44 47 45 42 43 40 43 42 47 44 45 45 41 33 35 37 38 35 35 38 36 36 32 32 32 36 43 43 46 42 40 37 37 40 38 43 42 37 36 36 32 31 31 25 26 28 33 28 26 23 27 29 31 30 29 32 30 28 28 25 26 21 26 22 23 28 22 20 21 11 11 
50 47 51 47 48 49 45 46 43 48 48 45 43 48 40 42 45 45 45 38 44 39 33 36 35 36 35 36 36 31 33 29 34 37 70 134 143 146 146 143 146 140 136 125 114 94 65 38 35 32 31 28 27 28 27 31 24 25 22 24 27 26 25 26 27 27 24 30 23 24 24 22 22 21 21 19 19 15 17 16 
49 46 50 44 46 48 51 49 47 40 42 41 39 42 41 45 42 42 42 37 42 36 33 33 33 38 35 38 36 30 34 31 34 35 84 166 171 173 172 174 174 179 173 172 169 159 117 44 36 32 26 28 25 29 30 27 27 29 25 28 26 28 26 23 24 24 22 26 19 19 14 17 16 18 18 15 17 16 11 18 
51 52 46 44 44 46 47 45 43 43 36 41 39 43 39 40 43 41 42 31 40 36 29 32 36 32 31 31 34 33 32 29 34 38 90 186 196 195 191 197 197 194 193 197 194 183 143 69 50 35 29 28 26 34 25 30 26 32 30 29 30 28 29 28 27 24 24 21 25 23 17 18 19 18 14 17 18 18 12 12 
47 53 44 44 50 44 45 44 45 42 40 46 42 43 40 38 42 41 40 40 38 33 33 27 31 33 31 28 33 31 33 33 33 35 97 199 211 214 212 219 221 215 215 219 216 205 192 139 110 62 32 31 25 26 28 28 28 31 28 32 30 26 23 29 25 21 24 24 25 26 19 17 14 17 17 19 17 15 12 13 
44 49 48 44 49 47 44 46 41 40 44 39 43 44 41 38 39 43 44 37 41 37 28 31 28 33 32 37 33 31 32 30 33 38 93 204 219 222 228 229 226 224 228 228 224 212 128 51 52 82 45 34 23 30 29 35 30 33 33 29 27 29 25 23 26 22 25 22 24 20 17 18 16 15 16 20 14 17 11 12 
45 48 46 51 47 45 47 44 42 43 41 40 39 38 43 43 39 41 31 38 40 35 31 27 29 33 34 31 33 30 27 32 33 40 85 207 226 230 227 231 231 227 234 235 225 209 99 39 38 68 51 32 18 28 28 32 33 29 29 28 30 28 28 25 25 23 23 21 23 27 22 17 20 18 18 17 16 16 12 15 
49 48 45 47 44 45 48 45 42 39 44 43 39 41 39 41 36 37 38 42 37 36 30 29 31 32 32 31 30 31 31 32 30 38 82 207 230 232 229 233 235 231 234 231 225 204 81 39 34 60 50 29 24 27 22 31 27 31 33 28 28 28 23 26 25 20 19 24 25 24 19 15 16 18 16 17 15 16 12 14 
48 54 45 46 46 49 47 42 45 42 39 38 39 44 41 38 40 41 39 39 36 34 32 26 30 28 31 30 31 33 32 32 35 36 70 204 229 233 235 239 242 239 237 235 225 188 60 38 36 63 41 23 23 25 25 24 27 30 29 29 30 26 23 22 25 23 23 19 22 18 20 13 15 14 12 13 13 17 10 13 
55 52 45 49 45 48 45 47 44 42 40 41 41 38 40 41 39 42 35 33 42 34 32 30 33 31 34 27 28 30 30 28 30 35 55 187 223 225 229 237 243 238 235 233 219 168 48 34 45 67 34 22 17 27 27 25 26 28 27 31 32 27 24 18 22 17 19 23 17 19 16 15 13 17 13 10 12 11 13 8 
48 53 50 48 52 49 44 52 46 42 45 45 41 43 39 39 41 39 41 40 36 33 34 31 28 32 31 30 29 33 31 33 30 32 49 168 214 219 221 238 244 237 233 227 216 135 44 51 78 49 30 23 19 21 24 24 22 24 24 25 23 26 23 17 21 19 19 20 16 18 17 14 14 12 11 14 7 13 9 11 
50 51 51 49 50 50 47 48 48 42 47 39 43 43 41 40 43 40 37 37 40 35 28 29 32 30 32 30 31 31 33 29 30 33 40 137 214 218 222 229 233 227 234 232 212 142 95 101 66 36 28 24 19 19 19 21 18 21 23 23 23 22 22 23 22 18 16 17 18 15 18 13 13 13 8 10 11 13 12 16 
52 57 51 48 46 48 45 49 48 46 42 42 38 44 39 39 40 41 36 40 38 36 32 33 34 33 32 32 30 33 29 29 33 30 37 101 208 219 221 223 223 225 224 221 191 151 103 55 35 24 22 19 17 22 18 15 18 19 24 21 21 20 18 16 19 18 15 14 12 17 11 10 14 8 7 12 14 13 8 11 
52 51 60 60 59 60 65 61 56 50 50 47 46 44 44 40 43 41 38 39 40 34 33 29 34 32 32 34 32 26 31 33 27 31 31 68 194 214 214 217 225 225 222 213 134 47 37 29 28 22 22 22 17 21 20 16 18 18 24 24 22 21 19 20 16 15 14 10 13 13 14 11 13 11 8 11 11 14 7 7 
50 54 59 63 69 75 67 69 65 63 60 54 49 48 48 46 50 47 42 43 44 39 34 37 37 43 50 49 46 43 42 42 45 46 44 57 164 207 207 214 217 218 218 193 81 42 34 32 32 26 24 25 24 23 25 21 16 25 27 26 25 22 19 20 19 15 13 13 13 14 10 10 9 10 12 7 10 11 1 6 
51 50 55 50 53 58 56 55 56 53 54 56 52 54 49 48 48 56 50 45 44 36 30 30 31 45 55 57 60 62 68 64 74 75 84 90 132 181 192 199 199 203 193 148 82 61 58 51 47 40 39 43 40 42 39 34 36 34 35 34 32 34 30 30 26 22 14 13 12 12 8 7 7 8 8 7 7 9 5 6 
52 55 54 51 55 52 44 53 55 50 49 53 48 52 52 51 53 50 48 53 50 53 55 47 54 51 52 54 53 54 55 63 60 63 65 73 110 126 128 139 136 137 131 109 70 65 57 60 50 45 49 45 47 43 49 42 42 39 39 42 38 34 36 34 31 28 24 14 14 12 7 9 10 9 8 8 10 7 5 7 
51 55 51 52 55 55 50 51 52 50 49 52 47 49 50 46 53 52 56 50 48 49 49 52 54 55 54 58 54 54 58 55 58 57 60 75 96 103 101 104 101 105 104 97 71 62 54 53 49 47 47 50 46 49 50 45 39 45 37 44 41 37 38 36 33 38 31 35 32 17 12 11 8 10 8 5 7 9 8 6 
49 50 49 47 47 53 54 51 53 49 49 55 49 47 50 45 51 54 53 44 49 48 51 51 56 54 56 56 57 57 55 57 57 59 61 63 64 67 68 71 71 74 67 69 72 60 60 60 54 51 50 53 54 54 49 49 48 46 44 44 42 40 37 32 38 35 29 34 27 31 17 16 9 8 10 7 7 5 0 6 
51 46 45 44 45 51 43 48 49 48 48 49 51 49 48 45 52 42 49 50 45 45 47 49 53 53 53 58 57 57 55 54 55 57 57 59 59 59 58 64 64 63 63 61 64 57 53 53 52 51 52 51 53 52 52 48 44 44 44 45 42 38 35 36 39 35 35 33 36 33 29 31 26 17 19 7 11 6 5 7 
49 49 50 48 45 46 48 50 52 48 50 47 50 53 43 50 47 46 48 49 44 47 46 49 50 52 56 56 54 57 56 52 55 57 56 53 58 55 54 58 62 56 58 58 57 52 56 52 50 49 50 50 54 53 52 47 46 44 45 49 44 36 37 36 35 33 35 33 31 33 36 32 31 28 27 15 13 12 6 13 
51 47 46 44 50 48 48 43 46 50 48 45 51 50 48 49 48 46 50 43 48 44 49 52 53 52 59 54 55 54 55 56 54 54 50 54 52 54 55 55 52 55 56 51 58 54 49 53 53 49 46 49 49 55 51 50 48 47 45 46 38 41 43 40 38 37 37 41 38 38 40 37 36 35 30 30 27 15 11 19 
49 47 46 45 46 50 48 53 47 48 52 43 47 51 45 46 50 50 50 48 49 46 50 51 53 55 53 55 53 51 53 50 52 50 49 53 51 50 50 56 44 56 51 53 57 54 56 71 53 47 47 50 48 50 52 51 49 49 43 44 41 43 39 39 38 39 37 34 40 36 38 36 36 34 32 32 35 34 28 25 
49 46 48 46 48 48 48 49 50 50 44 46 45 45 46 44 47 51 41 43 47 44 45 49 47 50 46 52 52 49 51 51 53 52 52 50 50 52 53 49 51 51 50 52 55 52 48 52 49 49 51 49 51 52 51 49 47 50 43 47 39 43 41 41 37 36 35 37 38 39 37 35 35 34 30 34 33 37 32 28 
47 47 48 47 50 48 49 48 51 49 47 43 44 45 49 45 45 51 52 49 47 45 42 51 53 53 50 54 50 49 48 52 51 47 46 51 48 47 50 49 49 51 50 50 49 50 48 48 52 48 45 46 50 47 48 48 43 46 43 44 42 43 39 40 34 35 33 37 38 37 38 36 34 32 34 33 35 38 31 32 


