P2
80 60
238
55 58 57 59 58 60 58 57 56 54 53 57 59 55 55 59 58 54 57 54 56 60 57 60 62 62 64 64 63 63 65 58 58 61 58 59 62 53 57 60 58 56 59 54 49 48 46 46 49 46 49 46 47 47 45 43 42 43 41 42 39 41 39 41 41 39 40 42 40 38 39 41 30 31 29 26 27 28 23 2 
59 55 55 59 58 59 62 58 57 56 57 52 57 57 60 58 60 57 54 58 59 56 58 61 60 66 65 61 59 63 65 60 61 59 64 61 59 57 60 58 62 54 56 58 52 49 49 48 48 46 49 49 46 46 49 48 43 45 46 44 44 42 43 45 47 46 44 38 41 39 42 44 38 36 36 32 24 33 23 8 
56 61 59 61 62 60 56 60 56 55 57 56 54 60 61 56 58 61 59 57 54 58 65 67 70 65 64 64 62 57 60 61 60 60 58 60 59 59 60 59 56 57 55 54 50 51 49 53 48 46 51 50 48 48 46 48 46 43 45 42 44 51 45 45 45 48 43 42 41 44 45 45 44 38 37 37 37 32 32 15 
63 57 62 58 62 56 60 56 51 55 51 55 59 58 54 58 59 54 57 57 54 59 62 68 74 69 65 63 62 62 62 62 57 59 58 63 60 59 56 62 59 57 57 54 49 50 48 51 47 46 49 50 49 46 46 47 47 45 50 42 44 44 46 49 51 45 42 48 45 44 49 43 42 42 41 43 39 33 32 22 
58 55 57 59 56 58 58 57 55 60 54 55 58 60 54 57 53 59 62 57 53 59 62 66 67 67 63 62 61 59 59 57 57 59 56 60 58 56 59 54 56 58 53 54 47 46 49 45 47 46 48 48 47 49 46 43 45 45 53 44 43 47 44 48 47 42 44 44 43 42 46 44 43 40 41 41 34 34 29 22 
55 56 57 54 52 57 56 56 53 56 60 54 54 57 56 55 57 56 54 52 52 58 62 61 61 62 62 61 58 64 58 55 58 52 54 53 56 54 57 57 55 54 52 53 46 43 46 44 49 44 48 45 46 52 48 44 44 44 45 45 40 40 45 46 44 41 45 45 44 42 46 42 41 43 40 45 39 37 30 24 
57 58 60 55 55 57 55 55 53 55 56 52 53 55 55 57 56 53 59 58 54 54 66 61 66 60 58 59 57 56 54 55 50 53 51 55 52 50 56 51 52 54 48 52 45 45 47 44 45 47 45 49 48 46 47 44 47 44 43 42 37 46 44 45 50 43 46 44 42 43 44 43 42 46 45 44 39 36 31 24 
57 55 54 56 54 57 55 56 52 55 52 53 55 59 55 54 57 54 57 55 54 55 64 62 61 61 57 59 57 55 52 54 53 50 55 53 51 48 49 49 50 51 51 48 43 45 46 42 44 45 48 47 41 49 49 42 37 42 43 42 41 42 44 42 48 41 44 43 37 42 46 43 41 41 42 44 43 40 33 27 
58 57 56 58 57 52 53 52 55 53 55 56 60 58 58 59 58 57 54 57 55 56 63 58 60 56 58 58 51 55 54 56 52 46 48 50 49 48 51 48 46 47 44 48 47 44 42 44 42 44 45 46 45 44 42 42 44 43 43 41 41 40 43 46 40 45 41 43 45 41 45 43 44 43 45 43 42 38 38 32 
59 55 55 57 63 56 54 51 57 55 55 57 58 55 62 54 56 60 53 54 53 57 59 58 60 56 54 54 57 53 54 51 53 47 48 53 47 50 50 49 46 46 46 47 45 45 45 48 46 45 44 44 43 45 42 44 41 41 42 43 44 44 43 44 43 42 42 45 40 39 45 42 42 42 43 42 40 38 33 31 
60 55 58 56 56 56 55 56 52 59 54 57 57 58 56 57 53 51 52 56 54 57 58 59 57 57 52 50 52 49 47 54 55 44 50 51 50 49 45 46 47 49 45 46 43 45 42 42 46 45 45 43 43 44 42 38 43 39 42 38 40 43 39 39 42 40 44 41 43 40 38 42 39 40 42 42 40 39 33 31 
58 51 54 54 58 54 55 58 53 52 55 50 56 57 50 51 56 56 53 56 56 55 59 58 53 56 53 50 49 47 47 51 46 46 49 49 44 48 47 46 48 43 41 41 39 43 44 41 44 42 41 40 42 42 41 38 40 44 47 43 39 38 39 40 41 38 40 39 40 37 41 39 40 41 44 41 41 41 33 30 
57 53 53 53 52 52 56 57 50 51 57 50 54 56 53 51 52 55 52 51 53 57 61 56 53 58 50 50 52 48 46 51 50 48 48 49 49 48 49 44 44 45 44 44 41 42 43 43 45 41 41 40 44 42 39 38 40 45 42 38 38 38 37 38 41 38 37 39 37 38 39 37 41 39 41 36 26 36 32 33 
53 56 56 56 57 54 53 55 52 58 57 55 56 57 52 54 53 50 49 53 51 57 59 53 57 53 55 51 51 52 50 51 49 48 48 48 52 49 47 49 47 46 45 44 43 43 45 46 42 39 44 42 42 41 43 39 42 39 42 41 38 41 41 43 41 40 41 43 41 36 37 39 38 39 37 34 36 34 33 32 
53 60 54 53 55 50 57 57 50 53 53 56 51 52 52 51 54 50 49 51 53 52 56 53 58 51 53 48 51 48 48 47 49 45 45 46 46 47 47 46 44 47 45 47 40 43 42 41 44 38 42 42 43 43 39 39 39 36 44 39 38 41 43 43 43 42 45 41 41 36 39 40 38 39 38 33 34 34 31 33 
53 51 53 53 53 53 54 56 54 56 53 51 55 53 53 49 54 47 50 52 51 56 56 53 51 51 47 50 50 47 48 50 44 49 46 47 49 47 53 41 45 44 41 40 39 43 44 38 42 40 42 40 41 40 39 38 38 39 43 36 38 38 42 38 38 43 44 43 41 41 37 37 38 40 38 41 37 35 35 30 
54 50 50 52 52 52 56 55 51 53 54 55 54 57 50 56 51 50 50 50 51 56 56 51 50 53 48 47 49 47 51 48 50 45 46 46 49 46 43 45 46 45 43 41 44 40 42 42 42 42 40 43 40 41 41 39 42 38 40 38 38 40 40 40 43 44 42 44 42 45 38 35 40 39 41 36 37 38 31 27 
55 53 53 53 55 52 53 53 50 51 52 52 52 52 53 51 55 50 51 51 52 56 49 50 50 52 49 44 47 46 45 46 44 43 47 49 48 47 48 43 41 42 43 43 42 40 42 41 42 39 42 40 40 40 38 36 41 37 38 39 38 37 36 44 39 37 38 39 38 39 38 39 40 42 39 39 36 35 30 25 
54 52 54 53 53 52 54 52 50 55 54 55 55 54 54 54 51 53 50 51 56 57 56 53 50 49 53 45 45 47 46 44 48 46 48 46 46 44 43 44 43 44 43 43 40 42 41 39 39 38 39 42 41 40 37 33 38 36 38 36 34 37 40 39 40 38 43 40 39 38 41 37 38 37 44 39 37 32 30 28 
55 52 51 52 54 57 54 51 47 49 52 55 53 52 53 49 51 52 54 51 54 53 52 53 48 52 50 48 49 45 45 47 48 45 47 47 45 45 45 46 44 40 40 42 38 40 43 40 40 39 40 38 39 36 40 35 35 36 37 34 32 36 34 39 40 41 43 37 38 38 38 42 39 40 41 37 36 35 28 28 
53 53 53 53 52 55 54 57 49 51 54 52 53 56 49 51 53 49 50 53 45 53 54 47 50 54 49 48 47 49 42 51 45 43 45 45 43 42 47 43 42 43 42 41 41 41 44 42 42 38 39 36 36 36 39 35 32 37 38 33 32 35 37 39 40 37 38 39 41 37 35 41 40 43 38 36 34 35 32 27 
50 53 56 50 51 52 51 54 52 55 51 53 57 51 52 52 52 51 51 50 53 51 48 49 54 50 50 48 43 46 42 47 46 46 45 45 45 41 44 45 46 41 40 38 40 41 33 39 38 36 41 37 37 35 35 35 32 37 31 35 34 32 37 41 39 36 40 36 35 38 37 38 37 40 35 41 35 35 30 28 
55 51 50 50 57 55 53 50 50 52 52 50 55 51 50 52 51 47 50 46 50 55 50 48 48 54 48 42 46 41 40 44 41 44 45 44 44 44 44 45 43 40 40 41 36 38 38 36 40 37 39 37 32 36 29 30 31 33 30 33 35 37 33 40 38 35 38 39 38 35 39 37 36 37 35 38 36 33 28 24 
53 50 50 52 51 52 53 49 49 51 54 52 52 50 52 50 53 53 51 51 50 53 48 49 50 51 48 44 46 48 43 45 44 45 43 46 44 45 45 42 41 44 43 40 40 39 36 38 35 37 35 34 36 33 36 32 32 27 31 32 33 35 33 36 35 37 40 38 36 36 36 36 34 35 36 36 36 32 28 28 
58 53 51 55 56 50 50 49 54 51 54 56 54 50 53 51 50 48 48 49 51 49 52 48 46 47 48 47 47 46 43 44 45 44 44 41 42 39 42 39 32 40 39 40 39 37 38 39 40 35 32 35 35 33 41 36 32 30 36 27 34 35 35 33 37 36 37 35 35 37 33 40 34 37 34 35 34 36 30 19 
55 53 51 51 53 52 53 52 49 53 55 49 53 55 53 54 51 54 47 47 49 51 47 50 47 47 46 46 44 46 44 43 42 42 42 41 42 41 43 38 39 37 38 40 36 36 38 38 36 36 36 35 35 31 32 31 30 31 30 31 32 34 33 34 35 36 39 38 34 36 36 37 34 36 36 34 32 33 29 22 
57 52 56 56 56 53 52 53 53 56 51 50 52 51 49 48 47 46 47 49 49 51 51 41 48 47 45 46 43 43 43 42 41 42 43 43 45 41 42 37 37 35 38 37 37 39 36 38 37 37 36 35 31 34 34 32 27 32 28 27 31 34 32 34 35 35 39 39 39 35 36 36 36 36 36 32 28 31 28 27 
52 56 48 56 54 50 52 54 50 57 48 50 52 52 50 50 48 47 47 48 49 53 46 44 48 52 43 46 43 42 43 45 42 42 39 45 41 45 44 38 44 36 34 37 36 39 36 38 35 35 37 35 30 36 31 32 28 27 29 29 31 35 34 36 38 36 39 34 33 29 39 36 39 36 38 36 32 34 27 25 
52 54 54 49 53 51 49 51 50 50 48 54 52 50 50 49 49 47 46 47 50 51 47 48 46 47 42 40 42 43 45 44 45 41 38 41 44 39 42 40 35 34 38 37 36 38 33 36 36 35 34 39 32 30 34 30 29 28 27 29 29 35 33 36 38 35 41 40 35 35 35 40 35 42 34 36 31 31 26 23 
52 53 47 53 52 49 47 52 49 51 48 51 51 50 47 48 49 48 45 48 48 49 47 45 46 47 43 44 40 43 45 40 41 40 40 45 41 39 41 37 33 35 36 39 37 35 36 36 34 34 37 34 30 36 31 33 32 29 29 29 30 35 31 35 40 35 39 39 34 30 34 38 35 35 35 30 31 28 22 21 
54 51 53 48 51 50 51 47 52 50 52 48 50 48 49 52 50 44 46 47 47 47 48 44 44 43 43 40 41 41 40 42 36 37 41 38 41 41 37 36 32 32 33 36 33 39 38 37 36 36 36 33 29 29 31 30 26 28 28 28 31 35 32 31 37 35 33 38 32 31 34 34 36 35 35 33 27 31 22 20 
51 52 51 55 50 50 48 44 49 47 49 48 52 47 48 49 45 46 44 46 52 48 46 40 42 41 43 45 41 39 43 37 41 39 38 41 39 37 37 34 32 30 32 34 35 34 36 34 32 32 34 30 28 29 28 29 30 24 25 28 33 33 34 34 34 32 33 35 35 30 34 31 35 33 34 30 28 28 22 16 
51 51 49 51 51 51 47 46 47 44 45 48 50 49 47 49 44 45 42 46 48 43 43 42 43 42 41 41 43 41 40 39 37 39 38 38 37 35 37 33 34 33 34 34 34 37 36 34 31 32 33 32 29 29 27 25 29 26 27 26 31 34 32 32 36 30 33 34 25 32 33 35 30 31 31 30 29 26 21 17 
53 51 47 47 47 47 47 48 45 42 49 48 47 47 48 48 45 47 45 45 43 45 40 38 41 40 35 40 35 37 39 39 37 37 37 37 35 35 35 36 35 29 36 36 32 32 35 33 30 31 30 30 25 30 27 26 26 24 25 26 31 32 30 35 37 32 30 32 30 32 33 35 32 30 32 28 26 22 22 17 
55 50 48 52 46 46 49 47 47 44 44 45 46 46 49 44 47 44 44 44 43 40 41 36 41 42 37 41 37 40 35 37 39 35 35 40 38 34 35 31 28 33 30 31 33 34 33 33 32 33 29 23 31 29 29 27 29 28 27 27 33 32 32 34 35 32 34 34 31 32 31 31 32 27 32 28 26 22 18 18 
53 49 52 47 47 49 48 44 49 46 47 45 45 44 44 43 46 46 46 46 43 42 37 35 40 38 37 34 37 37 36 34 36 31 34 33 37 34 35 31 30 30 30 31 33 35 33 34 34 29 29 26 22 26 27 35 32 30 26 28 33 33 31 36 35 34 31 32 31 27 29 31 28 29 30 30 23 24 23 15 
53 48 48 48 50 47 47 45 42 49 47 43 44 49 42 44 45 45 45 38 45 40 37 36 38 43 36 35 40 32 32 31 35 35 33 32 35 32 30 26 30 29 31 34 32 30 36 31 29 30 31 25 24 31 41 56 59 61 53 53 48 48 44 43 44 35 33 35 29 27 27 27 24 26 27 20 23 22 17 16 
50 48 50 48 45 42 49 45 45 42 43 44 49 49 45 42 43 41 38 38 42 39 36 32 35 42 38 33 39 32 33 32 29 32 34 30 26 30 32 28 27 32 32 31 31 29 31 31 32 29 29 27 27 35 96 142 152 153 156 151 149 144 139 128 119 83 39 30 28 27 27 19 23 22 18 16 20 20 15 15 
56 46 46 49 45 47 45 44 44 44 37 45 44 47 42 43 43 42 42 35 42 39 31 36 37 37 33 31 34 31 33 30 32 29 28 28 33 31 32 32 27 29 29 31 29 28 32 31 31 27 34 29 26 39 110 171 178 182 181 176 174 170 168 170 160 122 50 35 31 28 24 22 21 20 23 21 19 20 17 11 
51 50 46 47 49 44 46 43 42 41 40 43 47 43 42 39 44 41 41 40 37 35 31 28 37 34 32 33 33 31 31 36 33 30 30 28 30 29 29 29 27 29 26 29 28 29 34 30 27 26 28 27 25 34 119 192 202 207 209 203 202 191 195 195 188 163 110 68 37 27 24 23 21 23 24 20 22 21 15 9 
50 47 51 48 51 46 43 47 41 43 46 43 45 45 42 39 43 41 44 39 40 38 34 30 29 34 35 35 34 31 32 32 29 29 28 28 28 29 30 30 25 25 29 30 30 29 30 31 26 30 30 31 25 34 131 203 217 222 219 221 221 214 214 215 204 160 93 90 59 32 26 24 28 22 24 22 19 20 16 13 
50 48 45 48 47 45 47 41 41 42 42 43 40 43 41 45 40 37 33 41 39 37 34 28 32 35 33 34 29 33 31 30 30 24 33 26 29 27 27 27 25 24 30 30 26 25 28 27 26 27 31 25 23 35 126 205 218 231 222 222 222 219 219 222 209 131 50 63 73 36 31 26 23 21 25 21 19 18 16 12 
49 47 44 48 48 46 47 44 39 40 43 45 42 44 42 43 37 35 38 40 38 34 30 28 34 34 33 30 30 33 31 33 29 30 30 29 26 29 28 25 24 23 24 26 27 23 24 29 25 25 29 24 24 35 121 207 226 234 231 225 227 223 228 226 205 109 42 48 71 37 28 24 21 22 23 21 21 19 14 14 
52 51 44 48 52 49 48 45 45 43 41 41 46 46 44 40 37 42 37 41 38 37 33 29 31 32 35 30 31 33 32 34 31 28 29 28 30 29 27 26 24 25 27 28 26 25 27 28 24 26 25 23 21 31 114 206 229 232 233 235 238 232 228 227 196 90 38 51 67 34 25 24 24 20 21 19 16 20 15 15 
56 47 48 50 44 45 46 47 43 42 45 45 46 44 45 41 43 40 40 37 39 39 36 32 34 31 34 30 31 30 33 31 30 27 28 29 31 30 32 27 24 23 26 28 27 27 28 23 26 28 25 20 20 32 93 200 224 228 230 236 236 233 230 224 184 66 38 64 55 30 24 23 19 22 18 17 19 17 17 10 
55 52 51 47 47 48 44 50 46 42 45 47 48 46 43 41 42 35 39 41 40 34 32 34 34 37 33 30 34 33 31 34 27 28 30 29 31 26 22 24 24 22 31 26 25 23 26 27 27 29 26 20 19 25 74 192 219 221 224 225 235 236 225 214 157 59 57 69 41 28 23 20 20 20 18 18 15 17 16 14 
55 53 50 48 50 50 48 46 52 43 46 44 48 47 45 39 39 39 40 37 43 36 30 29 35 32 30 32 32 32 34 31 33 30 32 27 32 25 24 25 22 23 24 26 25 22 23 27 25 25 25 20 22 24 50 176 211 220 216 219 225 225 220 222 147 87 86 57 33 22 25 19 18 16 18 16 15 16 15 9 
56 53 51 53 50 48 50 49 50 49 44 45 47 50 43 39 36 42 38 42 39 38 34 33 35 35 32 32 35 34 30 28 31 28 30 29 28 23 29 24 21 22 24 27 23 25 24 23 26 22 22 20 20 25 39 155 206 218 216 215 221 222 216 195 154 98 52 32 23 22 25 17 21 13 17 13 16 17 17 7 
56 54 58 62 58 58 66 58 52 54 52 46 45 47 44 43 42 38 39 42 42 36 38 30 35 36 35 32 32 28 30 33 27 28 29 29 29 30 27 22 23 24 26 27 26 22 25 21 24 24 22 21 22 24 28 120 200 209 216 212 218 219 207 157 62 34 27 18 21 18 21 20 16 15 15 15 12 17 7 5 
52 55 60 61 67 72 68 68 60 60 61 55 54 50 49 50 52 44 40 42 46 39 35 36 40 44 48 49 45 43 40 41 40 42 39 39 42 40 37 38 34 31 30 32 30 27 31 28 25 26 26 29 26 26 30 80 186 206 204 207 208 208 188 105 42 26 19 21 19 16 18 15 16 14 17 14 12 13 8 4 
54 52 53 56 55 59 58 56 52 54 55 54 55 54 49 50 47 52 50 45 44 37 33 32 35 45 52 56 60 59 61 61 67 65 72 73 78 76 76 80 81 76 74 63 60 55 56 54 49 48 48 47 51 52 52 68 140 172 185 183 183 179 142 71 40 28 22 16 18 18 15 11 14 12 13 10 9 12 10 2 
56 50 56 54 55 52 50 53 53 49 46 54 51 54 50 51 54 49 48 54 49 48 52 45 54 51 51 55 56 53 55 64 61 56 63 60 65 67 69 71 69 70 69 62 57 56 58 62 53 53 51 51 52 49 59 76 99 107 116 117 112 105 88 55 41 31 29 20 20 18 16 14 12 12 13 10 9 10 7 0 
55 53 51 52 54 50 48 50 49 53 52 49 51 53 51 49 55 49 55 52 49 50 50 51 56 58 57 57 54 54 55 55 57 54 55 61 60 60 58 62 59 62 57 56 55 53 53 50 51 51 50 50 49 53 55 74 78 78 87 87 82 77 70 61 46 47 44 41 37 23 22 16 14 15 11 11 9 10 6 0 
52 49 47 49 51 51 52 52 50 51 51 55 51 52 48 50 53 50 51 45 51 49 53 51 57 58 54 56 54 59 54 54 53 52 55 57 57 55 57 56 56 55 54 54 53 51 51 54 51 48 51 54 52 58 57 55 59 61 60 63 60 59 55 54 54 45 42 45 41 37 30 21 14 13 15 9 6 10 5 2 
54 49 45 48 47 51 43 48 48 51 48 50 52 55 49 49 53 44 49 49 47 47 50 49 56 55 52 58 59 55 55 56 56 56 52 55 55 51 51 53 59 53 53 49 51 47 48 47 49 49 51 53 55 53 56 50 52 56 58 55 58 51 49 48 46 44 48 47 43 44 44 38 31 20 21 11 15 10 4 3 
54 50 49 47 45 46 48 54 48 50 49 46 48 51 46 52 47 47 48 50 47 46 45 49 51 50 54 52 54 55 52 50 53 51 51 49 55 50 48 49 52 50 52 50 45 45 48 48 42 46 48 53 54 55 53 48 52 50 53 58 51 48 47 48 44 43 44 40 43 44 43 40 40 36 34 19 14 16 8 11 
49 50 48 45 47 46 48 47 43 49 49 43 52 53 49 48 48 46 49 39 46 46 47 52 53 51 55 52 53 52 54 57 53 49 47 49 49 47 50 48 51 51 50 47 47 46 48 47 47 47 50 53 51 52 53 51 49 50 50 48 44 47 48 44 41 42 45 50 45 44 46 41 44 39 37 31 30 24 15 17 
52 45 49 44 41 47 49 47 47 49 50 48 49 52 48 51 43 46 51 46 46 45 50 48 53 55 53 55 57 53 53 49 50 52 49 51 54 51 48 52 45 52 49 52 48 48 51 62 48 46 50 47 51 56 52 52 48 49 48 49 47 47 43 43 47 40 43 42 46 41 44 41 40 41 39 38 38 41 32 24 
53 45 46 47 46 47 46 47 48 46 48 47 45 48 48 45 46 50 40 46 44 46 45 52 51 54 51 53 51 48 51 48 51 52 53 50 52 49 53 48 51 50 57 50 49 45 48 49 49 51 52 53 53 54 52 50 46 50 49 48 49 47 43 46 43 39 41 40 41 42 43 41 39 40 41 38 35 45 30 32 
52 46 47 48 51 47 50 46 49 51 46 43 49 49 49 44 46 47 45 47 46 47 45 50 53 55 54 55 50 48 48 50 50 47 50 51 51 49 52 47 51 51 51 50 44 46 48 45 47 45 48 52 50 50 49 48 46 45 46 49 44 42 38 43 40 38 40 39 44 40 42 44 37 38 40 34 39 43 34 33 


