P2
80 60
243
55 57 57 55 53 53 52 55 57 55 53 54 57 53 53 52 53 52 53 52 52 56 56 59 58 57 61 62 59 59 61 56 59 59 54 56 52 54 56 58 57 56 53 49 51 47 44 43 46 46 45 45 46 47 46 46 45 44 41 38 38 37 38 39 39 38 42 37 37 35 33 32 24 27 28 24 24 21 16 5 
58 57 59 55 56 56 56 54 59 57 55 55 55 55 58 56 54 55 55 55 55 55 57 62 59 63 62 62 59 60 64 56 58 58 62 61 56 58 59 59 58 54 56 55 51 50 50 44 48 48 50 45 47 45 47 48 44 46 42 44 43 40 44 42 45 44 40 35 38 36 35 38 32 34 33 32 26 25 17 14 
57 59 57 61 60 58 53 58 53 53 53 52 52 57 59 52 51 54 57 55 57 57 63 62 65 59 58 59 60 58 56 60 58 58 56 60 55 59 57 60 54 56 52 54 48 50 49 48 46 47 49 47 47 47 45 49 48 44 49 42 42 46 45 43 42 45 41 41 37 39 40 37 37 35 38 36 29 25 22 14 
57 58 60 56 60 56 55 52 54 52 48 53 54 56 53 58 53 52 54 57 54 58 58 64 62 67 64 62 61 58 56 56 57 56 53 61 60 57 53 59 57 57 56 51 51 50 46 46 45 47 47 48 47 46 43 46 47 45 47 43 44 39 42 46 44 43 45 42 40 40 44 40 39 40 40 38 33 28 22 23 
55 55 56 57 55 54 55 57 57 54 53 55 50 55 53 60 49 58 57 55 51 56 60 66 64 60 60 61 58 56 54 56 55 57 55 55 54 56 57 57 54 58 50 53 49 45 47 45 47 48 43 46 45 48 45 46 45 45 49 42 42 45 44 45 42 41 38 43 39 38 42 40 40 40 40 35 34 31 26 27 
57 58 56 51 49 54 49 52 52 52 54 53 52 53 53 53 55 56 51 50 50 57 59 61 57 59 61 61 58 59 53 52 55 53 52 53 50 53 54 57 54 56 51 48 48 44 46 44 48 41 43 43 45 47 47 44 45 46 43 44 41 40 41 42 40 41 43 40 39 40 42 40 41 36 40 41 35 32 24 23 
57 57 56 52 53 53 51 48 55 52 52 51 51 56 54 55 53 52 58 52 50 54 66 60 58 56 55 59 56 53 52 52 50 51 49 52 49 49 54 52 50 53 47 47 44 45 46 41 48 46 41 45 46 44 45 44 48 43 50 40 37 43 44 40 44 41 42 40 36 36 39 41 35 40 40 36 38 34 29 33 
55 56 53 55 51 54 55 51 47 50 49 50 48 55 52 50 53 52 53 50 54 56 60 60 56 56 58 55 52 54 52 53 55 48 48 49 46 47 47 51 49 50 50 44 44 49 43 43 44 45 43 44 40 44 43 45 40 42 43 43 42 43 39 40 41 40 41 38 34 42 38 39 37 40 39 41 37 34 26 30 
55 57 54 56 54 51 49 51 54 49 52 55 55 57 58 52 53 52 50 52 52 56 61 58 57 55 52 54 51 52 51 53 47 48 47 48 46 50 46 45 46 44 42 44 46 46 40 42 38 45 45 43 40 42 41 41 44 42 46 42 40 38 41 42 40 44 40 39 41 42 41 41 41 43 43 39 41 36 29 35 
54 59 53 51 58 51 52 47 53 49 50 54 58 52 57 52 48 54 52 48 51 57 58 54 56 53 49 53 55 50 51 49 48 46 47 47 43 46 46 48 43 44 41 44 43 45 40 44 43 44 43 41 41 40 42 43 45 45 43 41 43 40 41 42 39 43 41 40 37 41 42 37 38 40 42 39 35 33 28 32 
59 57 56 53 54 53 48 49 50 57 51 53 54 58 54 54 51 48 51 52 51 52 56 56 50 53 51 49 52 48 47 51 53 42 50 45 46 48 44 46 43 44 42 43 42 43 42 40 45 41 43 39 42 41 42 42 44 42 46 38 43 38 42 38 37 41 41 38 38 37 35 39 38 37 36 36 38 31 28 33 
58 53 52 53 54 53 53 56 54 47 54 49 51 57 52 50 54 53 51 53 52 54 56 57 53 53 51 52 48 48 46 49 46 47 45 45 43 48 45 45 44 42 39 42 43 41 45 41 42 40 41 39 42 41 41 42 43 43 47 42 41 36 42 35 37 38 39 38 35 39 38 37 40 39 39 37 39 32 29 31 
64 56 52 52 51 51 55 60 53 47 54 50 55 52 49 47 47 54 51 47 50 55 60 57 51 52 49 49 52 49 46 48 48 47 45 46 46 47 45 44 44 42 41 45 43 44 45 39 44 44 41 39 43 41 38 41 43 45 43 38 38 38 35 39 37 39 36 35 35 38 35 36 37 35 39 34 31 32 29 34 
54 56 55 52 54 52 51 56 53 56 55 48 53 57 54 52 46 48 48 51 52 55 59 52 53 49 53 50 48 49 47 44 48 45 45 45 45 49 44 46 43 44 41 44 45 44 42 42 44 42 43 41 40 42 43 40 43 44 41 40 37 37 39 38 39 36 38 39 34 33 36 36 34 34 35 34 33 34 30 39 
53 61 52 52 54 53 52 54 52 52 50 54 50 50 51 51 49 46 49 50 51 54 59 53 53 46 49 49 50 47 43 44 47 43 42 45 43 42 44 44 42 43 42 45 44 43 42 42 47 41 40 39 41 41 38 40 42 51 46 39 40 38 37 40 41 39 36 37 36 35 37 38 37 36 38 32 33 32 29 32 
59 55 52 49 54 53 52 52 52 54 52 47 51 49 51 46 49 46 47 48 52 58 55 52 49 47 48 51 49 45 47 47 43 45 46 45 46 48 55 42 45 40 41 41 40 44 41 39 42 41 42 39 37 39 38 42 40 41 43 36 37 36 43 34 38 39 41 35 40 38 37 35 36 37 41 39 37 28 28 28 
55 48 52 53 51 52 51 52 49 50 49 52 51 55 50 51 49 49 49 45 51 54 53 50 45 46 47 48 47 46 50 46 47 45 43 45 47 45 42 42 41 44 42 40 44 41 44 38 41 45 39 40 40 37 39 41 42 39 43 37 36 38 38 36 39 40 39 42 35 41 36 37 35 36 35 38 35 33 25 31 
52 54 54 52 52 51 51 49 51 52 50 53 52 50 50 49 51 49 48 47 49 54 51 51 45 49 49 46 47 46 42 44 43 46 44 45 48 47 47 45 44 43 41 41 44 37 43 39 44 41 42 39 44 43 38 40 42 40 43 38 38 37 35 41 39 40 33 37 38 37 37 36 37 37 37 38 36 32 27 31 
50 55 56 55 51 49 51 50 46 53 53 53 51 52 53 51 47 50 47 49 52 55 53 54 48 47 47 48 48 49 45 45 44 44 47 44 44 44 45 48 42 43 40 40 43 42 43 42 39 41 39 42 38 42 37 38 39 38 41 35 36 36 41 35 40 40 40 36 35 37 36 36 39 36 40 38 37 34 28 29 
53 55 52 51 54 55 51 48 49 49 52 51 48 50 53 48 45 49 51 51 54 47 51 55 45 48 48 46 49 45 40 46 45 43 45 47 43 43 45 44 42 42 37 41 42 39 41 39 41 36 36 38 38 35 41 36 37 39 36 33 31 36 36 38 39 39 41 33 35 33 35 39 40 37 35 37 34 30 25 30 
53 54 53 50 53 50 52 55 50 49 50 48 48 53 50 49 47 47 47 50 47 53 51 48 48 46 46 48 46 46 39 46 45 42 42 41 40 41 43 43 41 42 39 39 43 41 42 36 39 39 35 36 38 36 37 32 34 38 38 35 33 34 37 37 38 37 34 37 33 35 33 34 37 38 38 33 33 32 26 30 
50 54 55 46 51 52 50 52 53 53 50 54 53 51 51 49 46 46 49 49 54 51 50 49 49 49 49 48 44 46 44 43 46 46 43 46 41 40 44 44 45 42 38 38 40 43 37 41 41 36 38 33 35 35 38 36 36 37 36 37 34 30 37 39 39 37 38 35 35 35 39 37 34 38 33 40 36 28 27 26 
55 55 53 49 52 55 55 54 53 49 51 49 50 49 49 49 48 47 49 47 51 58 50 52 52 52 48 43 46 43 43 42 43 45 45 42 43 43 44 46 41 43 38 40 47 40 40 42 48 38 37 36 32 36 34 36 35 35 33 32 36 34 34 36 35 35 34 36 36 33 37 35 33 34 37 36 37 32 29 27 
52 58 51 53 51 53 48 48 51 48 52 50 49 49 52 50 49 53 49 47 51 54 51 50 48 51 46 43 43 47 43 46 43 42 42 44 42 41 44 38 40 47 41 40 40 43 38 39 40 38 29 34 34 34 37 37 37 30 33 33 34 33 32 35 33 34 36 34 35 34 35 31 31 34 35 34 38 31 28 25 
56 57 55 51 52 49 45 49 51 51 48 48 45 46 53 47 44 47 45 45 51 47 46 47 42 43 45 48 42 44 43 42 42 44 42 41 38 41 40 38 32 38 35 39 37 36 39 37 40 33 29 32 35 33 39 35 35 33 35 31 33 28 31 34 34 32 34 31 32 36 31 32 30 33 33 32 32 29 27 28 
51 53 51 49 51 51 50 48 50 46 52 48 49 53 51 51 46 47 47 46 49 50 45 48 43 42 45 43 43 43 42 43 41 39 38 39 38 38 42 38 36 40 37 39 40 34 39 35 37 35 32 36 32 29 32 35 29 32 34 33 35 32 34 33 32 30 35 35 31 32 32 32 32 33 33 32 32 28 24 26 
55 54 56 55 53 54 49 50 50 56 49 52 46 49 47 48 43 44 47 46 48 50 48 42 46 43 41 44 42 40 39 38 44 40 37 41 40 38 39 38 32 35 35 37 41 39 35 35 35 33 32 34 31 32 34 35 30 32 30 29 34 34 34 30 32 33 33 34 34 30 29 29 34 30 33 29 31 31 22 26 
51 56 49 51 50 49 47 51 50 50 46 48 50 49 50 48 47 46 47 44 49 50 45 46 44 46 42 45 44 41 42 42 38 35 36 39 38 42 40 37 37 36 34 36 39 36 35 37 34 35 32 32 31 35 32 32 28 27 29 27 33 32 33 33 36 33 34 34 30 33 35 31 33 35 37 32 31 27 24 29 
49 53 54 47 50 51 48 48 47 47 44 51 50 47 45 48 42 45 46 46 48 48 43 45 42 47 39 39 41 42 42 42 40 37 41 37 40 38 41 40 31 33 34 37 35 36 36 34 35 37 30 32 29 27 32 33 30 29 24 29 31 31 31 32 34 33 35 35 28 31 34 32 32 26 34 33 31 24 19 30 
52 52 50 49 48 48 47 53 48 46 47 49 48 43 48 49 42 46 45 48 46 49 43 43 40 41 39 41 40 37 43 36 38 38 38 40 37 40 39 35 33 36 35 39 39 35 35 35 37 34 33 33 31 34 34 35 32 30 29 29 31 31 31 31 36 36 30 31 31 28 29 33 31 32 30 32 31 24 22 25 
52 52 53 46 51 49 48 47 51 46 48 47 46 46 46 48 44 44 45 45 46 48 44 43 38 41 43 41 37 38 37 39 40 37 37 34 37 41 37 37 32 30 34 36 34 37 37 34 34 35 31 29 29 31 30 32 29 27 30 31 34 32 31 31 32 29 30 32 26 26 29 31 32 30 34 30 28 26 22 19 
49 50 52 50 47 50 44 47 48 45 44 47 50 45 49 44 45 42 43 41 49 45 43 40 36 35 42 41 38 35 40 36 41 38 34 37 37 38 39 35 32 31 32 35 35 34 36 34 32 33 30 30 26 27 29 30 30 26 27 26 32 30 30 33 31 29 31 34 30 29 30 25 29 30 29 31 28 23 22 19 
50 56 50 49 50 48 45 44 45 43 44 45 47 44 44 45 39 46 47 41 45 43 44 40 37 38 40 38 39 41 37 38 37 38 34 36 33 36 34 35 33 34 32 33 35 35 36 34 32 33 33 32 26 33 30 30 31 28 29 27 32 31 29 31 33 30 36 29 30 29 28 29 29 27 28 31 28 23 16 16 
51 51 48 44 41 45 49 49 46 40 47 47 43 45 44 44 42 44 44 44 42 43 39 37 38 38 38 38 35 33 35 36 38 36 34 33 33 33 35 35 31 27 34 36 35 36 36 34 34 31 31 31 24 30 33 31 29 28 26 25 30 30 28 33 31 31 31 24 26 30 27 26 29 27 30 24 26 20 13 18 
53 52 48 48 45 44 45 44 46 39 37 43 44 43 47 38 42 40 43 42 45 40 36 33 37 39 36 39 36 36 34 33 34 32 33 34 34 33 34 31 25 32 30 32 34 36 32 33 38 33 27 31 26 29 32 35 30 29 28 25 32 29 30 31 32 30 29 29 26 28 26 26 27 26 26 24 23 20 15 13 
53 52 53 47 45 50 48 46 46 43 45 44 43 43 42 41 43 42 45 44 44 42 33 37 36 38 36 34 36 34 37 33 33 32 30 31 32 32 33 33 25 28 30 31 36 36 34 36 40 36 34 32 30 33 36 38 35 30 27 27 29 28 28 29 32 32 31 28 27 28 27 26 24 24 27 26 23 20 13 20 
55 51 51 47 46 46 44 44 42 46 47 41 42 46 40 41 43 43 42 38 42 40 35 37 31 37 35 35 37 31 29 29 34 33 30 32 30 34 29 26 28 30 31 31 33 31 39 45 79 89 87 88 81 80 73 69 56 51 40 32 29 28 27 27 27 27 26 27 24 23 24 24 22 22 23 20 22 17 15 16 
53 49 49 44 46 44 43 44 48 42 42 42 42 42 39 42 39 40 38 37 41 37 35 35 33 37 35 38 36 30 30 32 28 32 33 31 28 30 30 29 23 35 32 31 31 30 35 69 152 159 158 165 166 166 166 158 152 144 128 75 34 28 23 20 24 22 24 22 19 21 18 20 17 17 19 18 18 12 11 15 
50 49 49 44 43 42 44 41 43 42 33 43 40 40 41 40 40 42 39 30 39 38 34 34 34 34 35 30 33 33 32 27 33 31 29 28 32 29 32 33 26 28 29 36 33 31 37 74 171 186 187 185 185 190 184 181 180 177 165 93 41 31 27 29 29 25 24 24 23 20 17 16 16 17 20 17 16 15 12 14 
50 53 46 44 50 45 43 40 45 39 38 42 41 42 37 38 39 39 38 37 37 34 31 29 28 28 30 30 33 30 31 33 31 28 26 25 26 29 27 30 27 29 28 29 32 32 38 82 188 203 204 209 212 213 209 208 208 204 192 159 113 58 29 29 28 25 26 27 25 23 16 15 14 20 17 17 19 16 8 16 
48 49 48 44 50 43 39 44 41 40 42 38 41 43 40 38 36 40 42 34 41 36 30 28 28 32 33 33 32 29 32 28 29 27 25 27 25 27 29 29 26 27 27 28 32 30 33 87 196 216 219 229 225 230 227 226 223 218 200 118 71 82 50 29 27 24 25 21 23 21 19 16 18 17 18 16 15 16 9 15 
49 49 43 46 47 47 45 40 41 42 40 41 41 39 40 44 35 34 28 38 39 38 32 28 28 33 33 30 30 29 28 27 30 27 32 21 25 25 26 30 26 23 27 31 29 29 30 81 199 224 230 230 232 231 228 233 233 221 193 77 42 55 61 31 29 24 24 24 23 21 23 17 18 18 20 19 20 15 11 14 
47 46 47 47 47 45 45 39 40 40 41 43 40 38 40 40 33 33 35 41 37 34 29 29 29 30 32 33 27 30 30 29 27 28 28 25 26 28 25 24 20 24 24 23 29 30 36 76 195 224 234 232 234 230 228 235 233 222 185 67 40 47 59 32 25 24 21 25 24 20 19 17 17 16 16 16 16 16 12 13 
51 52 43 46 46 44 44 38 38 45 39 39 39 41 41 36 37 39 38 37 36 30 30 27 29 27 28 29 30 32 28 29 30 27 26 27 29 27 28 28 23 26 29 27 29 26 34 73 197 227 231 232 237 239 238 232 231 218 162 53 37 51 55 30 23 23 24 21 21 17 17 19 16 15 16 13 13 17 11 12 
55 51 49 47 43 45 42 41 44 45 40 41 41 40 40 40 38 38 37 35 38 35 34 34 32 29 31 28 28 26 27 24 27 27 25 26 27 28 27 28 23 24 26 28 27 29 35 52 184 220 228 224 232 237 243 235 232 215 136 48 44 61 46 26 23 18 20 24 17 19 19 15 13 17 16 13 14 13 13 16 
50 52 51 44 45 48 44 45 43 42 43 43 41 40 40 40 40 35 40 40 35 33 35 36 31 33 34 30 34 34 29 30 29 28 29 28 25 24 20 27 22 26 31 25 29 27 30 45 169 218 219 222 233 237 238 230 221 202 103 45 62 66 31 20 19 20 21 22 19 19 19 18 12 15 11 12 13 13 11 15 
52 54 47 50 50 47 46 43 49 39 44 41 44 44 40 38 39 35 36 36 38 33 33 34 28 27 31 29 31 30 31 27 30 28 26 27 25 23 23 22 22 22 25 27 30 27 26 37 148 217 223 221 227 231 228 223 222 196 105 89 81 44 23 29 16 19 18 20 18 17 20 14 12 14 11 12 13 12 8 9 
53 54 48 49 45 46 43 43 48 44 41 42 38 44 40 38 33 37 36 37 39 38 33 38 27 31 32 33 31 33 27 28 28 26 25 27 25 23 28 24 19 22 23 27 24 26 26 29 115 206 222 221 221 224 223 218 212 184 144 88 48 25 20 20 21 20 17 18 17 17 14 14 16 11 14 9 16 13 12 14 
55 54 57 56 58 56 60 59 54 49 46 43 45 45 42 39 40 35 36 38 39 35 35 28 32 28 33 32 29 25 29 28 27 28 25 27 26 26 25 22 21 25 23 25 31 25 26 27 75 197 216 216 219 222 220 212 195 99 51 38 28 23 17 22 16 19 17 13 14 11 15 14 11 10 14 11 12 13 7 9 
48 58 59 60 66 66 64 65 63 58 54 52 49 46 46 47 44 42 40 39 42 42 33 37 33 43 46 49 46 41 38 39 44 39 36 35 36 32 36 36 37 33 33 29 32 32 36 33 50 175 208 208 210 218 215 206 160 61 41 31 26 19 20 23 21 16 14 15 13 14 11 12 8 9 16 8 7 11 0 10 
52 52 52 49 51 54 52 50 54 54 51 52 52 53 49 47 44 49 47 41 44 34 28 27 29 47 52 54 58 58 57 56 67 67 71 70 73 79 77 84 83 78 72 66 67 57 65 64 68 121 172 184 191 197 196 178 116 50 50 42 38 32 27 30 30 22 14 11 9 11 13 9 9 8 8 8 7 8 3 5 
53 54 54 53 52 50 44 49 54 47 47 51 49 50 53 53 49 48 45 49 46 48 49 45 49 48 49 53 55 52 52 59 59 57 58 60 64 65 67 72 69 71 69 63 60 59 61 67 73 103 110 120 126 124 132 114 79 51 48 46 35 35 33 35 31 27 24 12 13 11 7 9 6 6 8 8 7 7 4 3 
54 57 51 49 54 48 46 47 49 49 49 46 48 49 51 46 52 47 55 47 45 46 48 51 51 53 52 57 54 50 53 53 56 55 54 56 56 58 60 62 56 60 56 56 58 59 54 57 72 91 91 94 93 91 93 88 72 56 53 49 46 41 38 43 37 39 36 31 28 16 11 7 8 9 6 6 5 8 2 7 
51 52 48 46 47 48 46 49 51 44 47 56 47 47 50 45 44 47 48 40 48 48 53 50 52 56 52 54 53 53 51 52 53 53 53 53 53 54 53 56 56 56 52 54 59 55 56 58 59 62 64 67 65 69 67 61 63 59 58 52 47 42 46 41 42 38 32 36 32 31 23 16 10 7 8 9 9 6 0 3 
55 51 46 42 41 46 40 44 44 47 47 50 51 47 48 45 49 50 47 45 45 41 47 50 49 53 53 56 55 52 51 51 57 53 50 51 50 50 48 54 55 51 53 54 55 53 51 50 52 56 55 58 61 58 60 55 56 54 58 50 51 40 42 40 38 35 40 35 38 35 36 32 24 17 17 8 10 5 2 10 
54 50 46 43 46 43 46 46 47 49 46 46 47 51 40 47 44 42 46 44 44 42 45 49 47 49 48 54 52 53 51 48 51 51 51 47 53 48 49 51 53 53 49 50 47 48 53 52 49 54 52 54 56 58 60 52 55 53 51 51 45 39 39 37 37 38 37 34 34 38 39 33 32 30 26 19 11 5 4 10 
52 49 45 43 45 40 43 40 44 47 43 42 47 49 51 46 43 41 49 41 46 40 45 51 48 49 55 49 51 48 51 50 52 50 45 47 48 49 50 53 48 50 52 47 48 50 48 51 53 54 50 52 51 57 52 55 52 52 50 50 40 40 39 40 38 37 40 43 34 39 41 34 34 34 34 29 28 16 9 17 
50 49 45 44 36 47 42 44 45 46 46 44 50 50 47 47 49 44 48 43 46 45 46 47 50 52 50 53 51 49 51 48 51 49 50 49 48 47 45 54 43 53 46 48 51 50 52 70 53 49 49 49 52 54 54 53 49 49 50 46 46 41 43 41 42 39 36 36 37 36 40 38 34 34 35 34 37 35 30 21 
52 49 49 41 43 42 45 44 48 48 43 47 46 43 48 44 43 45 40 40 40 42 44 52 46 51 47 49 50 46 52 45 51 48 50 46 47 49 49 47 50 51 49 48 49 47 45 50 52 50 50 47 53 51 53 52 48 51 50 44 43 41 40 40 39 36 35 37 38 40 39 33 34 35 36 34 35 39 28 33 
48 49 47 46 46 46 46 42 48 47 46 42 45 46 49 46 45 45 47 43 43 45 44 49 49 50 49 51 50 48 46 47 47 45 49 46 45 47 50 50 48 51 48 48 47 48 50 46 45 47 43 49 49 50 51 46 48 46 47 46 41 39 38 39 33 36 33 35 35 38 34 37 33 33 36 35 33 34 31 35 


